<?xml version="1.0" encoding="utf-8"?>
<!-- Generator: Adobe Illustrator 27.5.0, SVG Export Plug-In . SVG Version: 6.00 Build 0)  -->
<svg version="1.1" id="Layer_1" xmlns="http://www.w3.org/2000/svg" xmlns:xlink="http://www.w3.org/1999/xlink" x="0px" y="0px"
	 viewBox="0 0 4000 4000" style="enable-background:new 0 0 4000 4000;" xml:space="preserve">
<g>
	<g>
		<!-- <rect style="fill-rule:evenodd;clip-rule:evenodd;fill:#9EFFB7;" width="4000" height="4000"/> -->
	</g>
	<g>
		<g>
			<g>
				<path style="fill-rule:evenodd;clip-rule:evenodd;fill:#6A1851;" d="M1101.561,2384.712
					c23.072,203.906,114.5,330.94,274.331,381.105c154.17,164.826,317.068,218.196,488.669,160.087
					c208.267,7.268,349.465-48.867,423.591-168.418c188.585-42.875,296.16-149.346,322.706-319.393
					c86.69-65.023,119.217-173.156,97.561-324.377c23.737-58.645,36.494-180.942,38.361-366.877
					c-27.982-243.049-180.459-453.997-402.427-556.823c-221.992-102.815-481.487-82.681-684.952,53.166
					c-94.002,10.978-176.019,50.723-245.985,119.241c-144.863,74.469-220.469,164.514-226.795,270.151
					c-115.787,84.718-144.691,183.684-86.734,296.856C999.003,2059.927,999.56,2211.675,1101.561,2384.712z"/>
			</g>
			<g>
				<path style="fill:#6A1851;" d="M1731.791,2990.902c-132.161,0.01-259.17-62.983-379.163-188.335
					c-167.573-56.826-265.723-192.729-291.899-404.209c-101.409-176.406-104.59-335.586-9.548-473.687
					c-36.843-87.529-42.617-205.351,95.264-314.49c14.656-111.033,95.979-205.915,242.095-282.344
					c72.969-69.749,158.967-111.838,255.845-125.234c103.911-67.354,223.76-107.944,347.283-117.532
					c126.863-9.856,254.939,13.215,370.405,66.692c115.454,53.486,215.874,136.262,290.405,239.387
					c74.539,103.13,121.628,224.458,136.182,350.867c0.2,1.741,0.293,3.494,0.276,5.247
					c-1.836,182.629-14.058,304.375-37.319,371.274c19.761,153.721-14.511,268.809-101.941,342.524
					c-32.695,173.462-145.435,285.571-335.423,333.516c-83.506,121.167-232.671,179.585-443.555,173.696
					C1823.839,2983.368,1777.494,2990.902,1731.791,2990.902z M2050.021,1167.708c-128.987,0-257.558,37.319-367.212,110.532
					c-5.547,3.704-11.895,6.038-18.518,6.811c-85.278,9.961-157.693,45.12-221.379,107.488c-3.018,2.957-6.465,5.442-10.222,7.373
					c-130.012,66.838-198.645,145.964-203.987,235.181c-0.752,12.537-7.053,24.087-17.188,31.502
					c-98.696,72.212-122.244,149.624-74.107,243.621c7.446,14.538,5.82,32.073-4.17,44.997
					c-90.073,116.509-88.555,249.995,4.639,408.091c3.008,5.103,4.905,10.781,5.571,16.665
					c21.213,187.471,101.375,300.527,245.068,345.63c6.939,2.178,13.193,6.113,18.162,11.421
					c143.123,153.018,288.479,201.748,444.363,148.96c4.824-1.636,9.912-2.402,14.99-2.202
					c193.808,6.709,320.144-41.816,386.294-148.501c5.945-9.59,15.483-16.392,26.482-18.892
					c171.584-39.014,266.574-132.168,290.4-284.795c1.694-10.854,7.563-20.625,16.355-27.217
					c74.067-55.557,100.605-148.677,81.128-284.683c-1.057-7.373-0.139-14.893,2.654-21.792
					c14.795-36.553,32.888-126.738,35.256-348.816c-26.917-225.796-171.545-425.193-377.966-520.818
					C2239.064,1187.708,2144.43,1167.708,2050.021,1167.708z"/>
			</g>
			<g>
				<path style="fill-rule:evenodd;clip-rule:evenodd;fill:#FEC827;" d="M1813.7,2265.526
					c-54.398-95.75-186.205-119.476-382.273-37.384c-96.705,40.471-115.014,115.229-70.91,191.629
					c56.844,128.353,85.276,192.531,85.276,192.531c35.616,56.714,94.562,74.328,178.206,61.334
					c112.636-17.517,169.566-22.021,169.566-22.021c96.983-17.594,120.056-79.508,88.148-191.609
					C1859.586,2382.323,1843.333,2315.948,1813.7,2265.526z"/>
			</g>
			<g>
				<path style="fill:#6A1851;" d="M1575.468,2698.749c-67.366,0-115.879-24.844-147.522-75.234
					c-0.537-0.859-1.013-1.748-1.421-2.676l-84.836-191.528c-25.029-43.843-31.399-87.314-18.418-125.786
					c13.618-40.352,48.203-73.14,100.02-94.824c196.218-82.163,345.156-65.288,408.657,46.274
					c27.073,46.118,43.066,103.188,61.584,169.258c2.747,9.8,5.549,19.805,8.455,30c20.381,71.606,19.101,122.251-4.024,159.38
					c-19.128,30.713-52.046,49.927-100.635,58.74c-0.693,0.127-1.394,0.22-2.097,0.273c-0.564,0.044-57.673,4.678-167.991,21.836
					C1608.883,2697.313,1591.627,2698.744,1575.468,2698.749z M1464.43,2602.328c29.807,46.372,79.534,62.417,156.335,50.479
					c104.983-16.328,161.335-21.382,170.027-22.109c35.664-6.626,59.019-19.512,71.389-39.37
					c16.162-25.952,15.92-67.017-0.74-125.547c-2.92-10.254-5.74-20.317-8.501-30.171c-17.742-63.306-33.066-117.979-57.412-159.404
					c-0.051-0.088-0.105-0.176-0.154-0.269c-51.724-91.035-181.414-101.377-355.808-28.35c-40.32,16.87-66.721,40.879-76.352,69.419
					c-9.097,26.948-3.716,58.843,15.557,92.227c0.374,0.649,0.713,1.318,1.018,2.002L1464.43,2602.328z M1793.566,2651.615h0.049
					H1793.566z"/>
			</g>
			<g>
				<path style="fill-rule:evenodd;clip-rule:evenodd;fill:#FEC827;" d="M1129.308,2432.196
					c23.136,198.856,111.885,322.16,266.268,369.9C1417.212,2385.496,1328.441,2262.202,1129.308,2432.196z"/>
			</g>
			<g>
				<path style="fill:#6A1851;" d="M1395.573,2823.177c-2.085,0-4.185-0.313-6.226-0.942
					c-162.361-50.21-256.895-180.62-280.974-387.603c-0.813-6.982,1.907-13.906,7.251-18.467
					c84.612-72.227,151.394-94.683,204.138-68.696c79.082,38.989,110.764,188.057,96.863,455.723
					c-0.337,6.494-3.652,12.466-8.984,16.187C1404.061,2821.878,1399.84,2823.177,1395.573,2823.177z M1151.63,2440.99
					c22.676,173.408,96.187,282.358,224.204,331.953c11.643-283.311-33.777-367.48-74.712-387.661
					C1259.523,2364.764,1198.463,2402.508,1151.63,2440.99z"/>
			</g>
			<g>
				<path style="fill-rule:evenodd;clip-rule:evenodd;fill:#FEC827;" d="M1307.9,2344.573
					c-51.333-141.292-64.456-293.49-39.347-456.612c-73.676-1.05-130.755,15.139-171.281,48.555
					c-103.094,133.361-102.536,288.442,1.715,465.265C1190.995,2323.227,1260.662,2304.177,1307.9,2344.573z"/>
			</g>
			<g>
				<path style="fill:#6A1851;" d="M1098.988,2422.86c-1.157,0-2.319-0.098-3.477-0.288c-6.143-1.03-11.516-4.722-14.68-10.088
					c-108.569-184.141-108.648-348.618-0.234-488.857c0.959-1.243,2.056-2.373,3.267-3.372c44.304-36.531,106.58-54.5,184.99-53.369
					c6.096,0.085,11.858,2.81,15.793,7.466c3.938,4.656,5.667,10.789,4.739,16.814c-24.446,158.804-11.55,308.931,38.323,446.211
					c3.272,8.999,0.064,19.072-7.805,24.521c-7.869,5.459-18.423,4.917-25.703-1.304c-37.961-32.471-99.038-13.208-181.526,57.217
					C1108.829,2421.092,1103.969,2422.86,1098.988,2422.86z M1112.477,1951.322c-92.595,121.172-95.125,258.218-7.534,418.296
					c65.657-51.758,121.716-73.477,167.539-64.995c-37.009-123.643-46.509-256.274-28.271-395.254
					C1188.563,1911.796,1144.337,1925.868,1112.477,1951.322z"/>
			</g>
			<g>
				<path style="fill-rule:evenodd;clip-rule:evenodd;fill:#FEC827;" d="M1267.502,1881.925
					c63.212-192.788,36.26-275.918-80.88-249.351c-115.787,84.718-144.691,183.684-86.734,296.856
					C1139.535,1896.73,1195.413,1880.895,1267.502,1881.925z"/>
			</g>
			<g>
				<path style="fill:#6A1851;" d="M1099.887,1950.506c-1.421,0-2.852-0.142-4.268-0.437c-6.253-1.292-11.582-5.349-14.492-11.033
					c-63.13-123.274-31.824-232.107,93.049-323.472c2.324-1.702,4.976-2.908,7.783-3.547c51.296-11.631,89.49-4.16,113.511,22.232
					c37.312,40.986,34.714,124.15-7.939,254.243c-2.876,8.762-11.35,14.697-20.33,14.507
					c-66.641-0.884-118.403,13.413-153.904,42.69C1109.489,1948.832,1104.735,1950.506,1099.887,1950.506z M1195.512,1652.213
					c-96.492,72.017-125.149,152.505-87.139,245.342c37.83-23.225,86.001-35.52,143.735-36.665
					c42.725-136.665,26.238-182.832,12.19-198.264C1251.781,1648.871,1228.651,1645.375,1195.512,1652.213z"/>
			</g>
			<g>
				<path style="fill-rule:evenodd;clip-rule:evenodd;fill:#FEC827;" d="M1204.227,1629.302
					c118.231-25.439,187.962-114.415,209.19-266.879c-144.863,74.469-220.469,164.514-226.795,270.151
					C1192.754,1631.191,1198.608,1630.097,1204.227,1629.302z"/>
			</g>
			<g>
				<path style="fill:#6A1851;" d="M1186.622,1653.651c-4.951,0-9.8-1.743-13.648-5.015c-5.051-4.29-7.788-10.706-7.392-17.322
					c6.772-113.091,86.914-209.866,238.198-287.637c7.004-3.596,15.415-2.996,21.833,1.555c6.418,4.553,9.763,12.302,8.679,20.098
					c-22.481,161.455-98.394,257.2-225.632,284.578c-0.493,0.107-0.989,0.195-1.487,0.266c-4.946,0.698-10.3,1.694-15.911,2.959
					C1189.725,1653.483,1188.168,1653.651,1186.622,1653.651z M1384.96,1402.101c-100.415,59.082-158.674,127.449-173.74,203.884
					C1302.85,1582.135,1360.001,1515.157,1384.96,1402.101z"/>
			</g>
			<g>
				<path style="fill-rule:evenodd;clip-rule:evenodd;fill:#FEC827;" d="M1624.836,1446.057
					c44.987,241.409-73.268,393.219-320.625,404.186C1279.637,1605.288,1397.893,1453.488,1624.836,1446.057z"/>
			</g>
			<g>
				<path style="fill:#6A1851;" d="M1304.196,1871.319c-10.767,0-19.873-8.159-20.957-18.972
					c-13.335-132.917,14.302-242.793,79.919-317.754c59.583-68.064,149.829-105.962,260.989-109.602
					c10.337-0.325,19.499,6.97,21.409,17.205c23.337,125.232,4.197,231.062-55.352,306.052
					c-59.453,74.868-158.025,117.419-285.061,123.052C1304.828,1871.314,1304.511,1871.319,1304.196,1871.319z M1607.199,1468.06
					c-91.746,6.411-163.115,38.089-212.322,94.299c-54.487,62.246-79.019,153.76-71.399,265.579
					c104.629-8.347,185.159-44.758,233.713-105.903C1606.124,1660.411,1623.29,1572.879,1607.199,1468.06z"/>
			</g>
			<g>
				<path style="fill-rule:evenodd;clip-rule:evenodd;fill:#FEC827;" d="M1413.416,1362.424
					c68.444-67.781,150.439-107.523,245.985-119.241c30.342,109.751-12.693,152.936-107.532,195.949
					C1412.665,1502.247,1377.651,1497.006,1413.416,1362.424z"/>
			</g>
			<g>
				<path style="fill:#6A1851;" d="M1433.668,1499.164c-14.517,0-26.306-3.679-35.764-11.684
					c-26.782-22.671-21.313-68.555-4.858-130.469c0.964-3.625,2.876-6.926,5.54-9.563c71.511-70.82,158.398-112.939,258.25-125.185
					c10.359-1.265,20.1,5.237,22.881,15.305c34.106,123.367-20.3,175.933-119.141,220.762
					C1504.623,1483.695,1463.427,1499.164,1433.668,1499.164z M1432.33,1373.409c-17.661,68.696-9.128,80.251-7.19,81.895
					c6.36,5.388,32.004,3.633,118.025-35.369c82.349-37.349,118.059-69.67,100.337-153.164
					C1562.716,1280.238,1491.776,1316.051,1432.33,1373.409z"/>
			</g>
			<g>
				<path style="fill-rule:evenodd;clip-rule:evenodd;fill:#FEC827;" d="M1879.422,2501.499
					c-42.8-164.431-19.963-255.668,68.442-273.721c138.111-62.472,207.347-76.529,264.47-77.675
					c77.813,44.215,93.808,144.274,98.011,301.457c1.866,69.761-59.288,101.592-216.394,159.058
					C1975.224,2654.048,1911.863,2635.512,1879.422,2501.499z"/>
			</g>
			<g>
				<path style="fill:#6A1851;" d="M1998.683,2652.645c-22.532,0-41.885-4.634-59.109-13.853
					c-38.062-20.366-63.674-62.368-80.596-132.163c-29.702-114.189-28.831-194.253,2.666-244.785
					c17.598-28.237,44.377-46.47,79.617-54.214c149.151-67.271,218.24-77.549,270.649-78.604c3.726,0.039,7.534,0.874,10.835,2.749
					c85.473,48.574,104.135,149.663,108.669,319.224c2.273,84.98-72.014,121.543-230.222,179.414
					C2060.575,2645.272,2027.101,2652.645,1998.683,2652.645z M2206.791,2171.341c-47.569,1.694-112.42,13.301-250.242,75.64
					c-1.431,0.649-2.93,1.133-4.47,1.445c-24.983,5.103-42.864,16.787-54.661,35.713c-24.712,39.648-23.904,110.991,2.402,212.051
					c0.029,0.112,0.058,0.229,0.088,0.347c13.701,56.602,33.181,90.977,59.553,105.088c27.441,14.688,66.689,11.353,127.248-10.801
					c164.185-60.054,203.94-87.275,202.566-138.701C2285.253,2301.732,2270.741,2211.576,2206.791,2171.341z"/>
			</g>
			<g>
				<path style="fill-rule:evenodd;clip-rule:evenodd;fill:#FEC827;" d="M1864.561,2925.905
					c45.951-255.881-100.435-284.635-472.158-135.472C1546.551,2955.259,1692.96,2984.013,1864.561,2925.905z"/>
			</g>
			<g>
				<path style="fill:#6A1851;" d="M1712.162,2974.461c-120.859,0-228.228-55.303-335.151-169.629
					c-4.753-5.083-6.692-12.183-5.183-18.97c1.509-6.792,6.272-12.402,12.727-14.99c246.021-98.726,387.432-116.943,458.499-59.058
					c47.766,38.896,61.589,110.146,42.253,217.817c-1.355,7.554-6.714,13.774-13.984,16.24
					C1815.309,2964.837,1762.553,2974.461,1712.162,2974.461z M1429.54,2798.436c129.617,128.457,256.174,162.065,416.37,111.401
					c13.408-84.136,3.733-138.291-29.475-165.337C1762.743,2700.78,1636.041,2718.397,1429.54,2798.436z M1864.562,2925.907h0.051
					H1864.562z"/>
			</g>
			<g>
				<path style="fill-rule:evenodd;clip-rule:evenodd;fill:#FEC827;" d="M1887.912,2727.424
					c11.536,72.895,7.055,139.171-13.38,198.791c202.8,5.136,340.695-51.096,413.621-168.728
					c0.643-135.162-31.585-186.89-96.727-155.156C2143.525,2632.715,2042.361,2674.398,1887.912,2727.424z"/>
			</g>
			<g>
				<path style="fill:#6A1851;" d="M1899.271,2947.611c-8.318,0-16.741-0.107-25.273-0.327c-6.709-0.171-12.937-3.525-16.77-9.033
					c-3.833-5.513-4.81-12.52-2.634-18.872c19.229-56.099,23.435-119.575,12.5-188.657c-1.602-10.107,4.292-19.907,13.975-23.232
					c152.192-52.251,252.815-93.618,299.07-122.954c0.664-0.425,1.353-0.806,2.058-1.152c29.612-14.429,55.386-14.976,76.619-1.631
					c34.861,21.914,50.881,77.783,50.415,175.84c-0.017,3.887-1.113,7.695-3.162,11.001
					C2232.387,2887.445,2095.597,2947.611,1899.271,2947.611z M1911.222,2741.683c7.329,58.413,4.475,113.306-8.494,163.765
					c176.042-0.674,298.501-52.446,364.353-154.082c-0.302-103.506-21.475-128.125-30.701-133.921
					c-7.898-4.976-19.575-3.843-34.727,3.359C2153.341,2651.141,2058.219,2690.736,1911.222,2741.683z"/>
			</g>
			<g>
				<path style="fill-rule:evenodd;clip-rule:evenodd;fill:#FEC827;" d="M2337.363,2506.441
					c-6.519,134.047-22.921,217.735-49.21,251.046c172.546-39.239,277.269-131.677,314.172-277.365
					c3.752-77.923-18.419-115.853-66.514-113.763C2514.24,2403.979,2448.069,2450.679,2337.363,2506.441z"/>
			</g>
			<g>
				<path style="fill:#6A1851;" d="M2288.151,2778.568c-7.124,0-13.904-3.623-17.82-9.829c-4.771-7.554-4.258-17.295,1.277-24.307
					c16.081-20.376,36.889-78.384,44.702-239.019c0.369-7.583,4.788-14.385,11.57-17.798
					c132.61-66.797,176.323-108.511,189.646-131.738c3.594-6.27,10.149-10.259,17.366-10.576c24.419-1.05,44.477,6.094,59.585,21.27
					c22.09,22.192,31.545,59.668,28.901,114.561c-0.066,1.406-0.276,2.803-0.62,4.165
					c-38.831,153.291-149.834,251.782-329.929,292.744C2291.271,2778.397,2289.701,2778.568,2288.151,2778.568z M2357.784,2519.71
					c-5.046,92.71-15.061,160.742-30.359,205.62c138.399-42.041,221.672-123.613,253.943-248.33
					c2.134-50.552-7.903-71.782-16.768-80.688c-3.162-3.179-8.222-7.104-17.72-8.467
					C2519.091,2425.628,2456.94,2468.954,2357.784,2519.71z"/>
			</g>
			<g>
				<path style="fill-rule:evenodd;clip-rule:evenodd;fill:#FEC827;" d="M2708.42,2113.717
					c-22.344,72.741-64.026,130.529-125.051,173.402c-2.057,37.085,16.446,173.844,27.49,150.975
					C2697.549,2373.071,2730.076,2264.938,2708.42,2113.717z"/>
			</g>
			<g>
				<path style="fill:#6A1851;" d="M2608.136,2461.712c-1.934,0-3.823-0.244-5.603-0.703c-15.066-3.887-22.932-16.206-32.659-82.471
					c-4.434-30.215-8.689-72.075-7.552-92.588c0.356-6.445,3.648-12.368,8.928-16.079c56.821-39.917,96.191-94.541,117.019-162.344
					c2.896-9.438,11.946-15.547,21.789-14.829c9.836,0.771,17.825,8.262,19.224,18.027
					c22.493,157.051-12.109,272.09-102.864,342.012C2621.385,2459.056,2614.521,2461.712,2608.136,2461.712z M2604.308,2297.972
					c0.561,27.168,6.86,77.622,12.92,107.393c51.685-47.993,77.056-116.172,76.731-206.655
					C2671.093,2237.25,2641.125,2270.453,2604.308,2297.972z"/>
			</g>
			<g>
				<path style="fill-rule:evenodd;clip-rule:evenodd;fill:#FEC827;" d="M2554.208,2015.789
					c-58.432-27.424-171.881,11.674-224.072,189.077c-33.021,112.294-3.388,157.29-13.209,223.815
					C2635.688,2305.196,2730.548,2183.511,2554.208,2015.789z"/>
			</g>
			<g>
				<path style="fill:#6A1851;" d="M2316.93,2449.759c-4.707,0-9.36-1.577-13.154-4.609c-5.864-4.683-8.796-12.129-7.7-19.546
					c3.337-22.607,1.614-42.632-0.381-65.815c-3.511-40.796-7.49-87.036,14.219-160.869
					c39.177-133.154,108.247-181.492,145.933-198.455c37.41-16.841,76.526-18.21,107.317-3.755c2.051,0.962,3.931,2.246,5.571,3.806
					c73.958,70.342,103.921,134.795,91.602,197.046c-17.888,90.396-121.452,167.739-335.793,250.771
					C2322.074,2449.291,2319.493,2449.759,2316.93,2449.759z M2516.442,2028.878c-13.652,0-28.489,3.364-43.293,10.029
					c-31.086,13.992-88.376,54.929-122.793,171.907c-19.472,66.226-16.011,106.455-12.661,145.361
					c1.174,13.652,2.314,26.89,2.417,40.63c173.953-70.742,265.276-138.726,278.872-207.427
					c9.158-46.274-15.923-97.261-76.655-155.781C2534.51,2030.443,2525.751,2028.878,2516.442,2028.878z"/>
			</g>
			<g>
				<path style="fill-rule:evenodd;clip-rule:evenodd;fill:#FEC827;" d="M2385.907,1853.987
					c-86.776,36.514-161.288,68.207-223.47,95.062c3.946,90.304,1.157,157.558-8.32,201.795
					C2362.321,2157.523,2439.578,2058.565,2385.907,1853.987z"/>
			</g>
			<g>
				<path style="fill:#6A1851;" d="M2173.053,2172.23c-6.418,0-12.954-0.107-19.612-0.322c-6.243-0.2-12.075-3.159-15.925-8.076
					c-3.848-4.922-5.318-11.294-4.009-17.402c9.07-42.349,11.719-108.447,7.871-196.46c-0.383-8.738,4.67-16.802,12.7-20.271
					c61.499-26.56,136.748-58.569,223.655-95.139c5.63-2.373,12.009-2.18,17.493,0.522c5.481,2.703,9.519,7.649,11.07,13.557
					c28.694,109.373,21.128,192.566-22.49,247.268C2343.387,2146.59,2272.54,2172.23,2173.053,2172.23z M2184.079,1962.667
					c2.593,70.325,0.974,125.505-4.937,167.38c82.708-0.894,140.41-21.182,171.704-60.425
					c31.929-40.042,38.76-102.747,20.391-186.587C2300.077,1913.031,2237.279,1939.75,2184.079,1962.667z"/>
			</g>
			<g>
				<path style="fill-rule:evenodd;clip-rule:evenodd;fill:#FEC827;" d="M2098.711,1791.9
					c-117.397,0.621-264.47,45.178-477.219,62.676c31.519,256.568,115.423,358.129,257.049,347.772
					C2099.095,2186.222,2167.368,2023.294,2098.711,1791.9z"/>
			</g>
			<g>
				<path style="fill:#6A1851;" d="M1859.015,2224.154c-145.417,0-227.774-117.368-258.442-367.007
					c-0.698-5.696,0.952-11.428,4.575-15.876c3.621-4.451,8.899-7.232,14.617-7.7c104.763-8.616,193.086-23.789,271.013-37.175
					c78.879-13.55,147.004-25.252,207.822-25.571c0.039,0,0.076,0,0.115,0c9.326,0,17.549,6.13,20.205,15.08
					c40.874,137.764,34.201,251.501-19.297,328.918c-44.673,64.644-118.537,101.162-219.546,108.545
					C1872.916,2223.89,1865.895,2224.154,1859.015,2224.154z M1645.255,1873.658c39.751,284.216,144.36,314.075,231.748,307.668
					c87.651-6.406,150.881-36.846,187.939-90.469c44.084-63.796,50.222-159.516,17.964-277.527
					c-53.642,2.048-114.978,12.586-184.993,24.612C1824.616,1850.533,1742.23,1864.686,1645.255,1873.658z"/>
			</g>
			<g>
				<path style="fill-rule:evenodd;clip-rule:evenodd;fill:#FEC827;" d="M1406.212,1832.384
					c-94.625,42.84-135.537,73.042-130.692,118.844c8.578,80.889,12.544,155.391,30.041,222.205
					c20.093,47.515,62.891,63.618,128.417,48.266c187.02-40.161,245.065-108.732,219.463-219.472
					C1611.243,1819.453,1548.224,1768.068,1406.212,1832.384z"/>
			</g>
			<g>
				<path style="fill:#6A1851;" d="M1390.001,2248.412c-61.145,0-90.146-34.365-103.853-66.772c-0.393-0.933-0.72-1.89-0.977-2.866
					c-14.094-53.823-19.619-111.865-25.469-173.315c-1.621-17.021-3.271-34.363-5.142-52.009
					c-6.414-60.605,45.295-96.052,142.957-140.266c70.168-31.78,122.7-36.768,165.32-15.686c50.723,25.088,85,86.765,111.14,199.988
					c12.075,52.231,6.807,95.166-16.113,131.235c-33.362,52.505-103.096,88.599-219.461,113.584
					C1420.368,2246.532,1404.303,2248.412,1390.001,2248.412z M1325.558,2166.571c10.229,23.33,32.415,51.284,103.613,34.604
					c103.538-22.236,166.58-53.306,193.113-95.063c16.548-26.045,20.022-58.472,10.623-99.138
					c-22.725-98.428-50.928-152.981-88.757-171.692c-30.405-15.037-71.472-9.859-129.241,16.301
					c-0.002,0.002-0.002,0.002-0.002,0.002c-90.701,41.062-121.69,66.555-118.425,97.424c1.887,17.793,3.552,35.283,5.188,52.454
					C1307.294,2060.575,1312.614,2116.439,1325.558,2166.571z M1406.212,1832.384h0.049H1406.212z"/>
			</g>
			<g>
				<path style="fill-rule:evenodd;clip-rule:evenodd;fill:#FEC827;" d="M2605.005,1759.116
					c-75.112-21.358-144.608-13.585-208.441,23.349c27.297,122.844,39.54,208.441,36.666,256.825
					C2547.004,1998.024,2604.254,1904.644,2605.005,1759.116z"/>
			</g>
			<g>
				<path style="fill:#6A1851;" d="M2433.234,2060.37c-4.482,0-8.913-1.431-12.607-4.185c-5.686-4.243-8.855-11.064-8.435-18.144
					c2.739-46.121-9.441-130.571-36.204-251.003c-1.995-8.977,2.061-18.211,10.02-22.817
					c68.655-39.724,144.27-48.272,224.763-25.378c9.101,2.588,15.361,10.92,15.313,20.383
					c-0.799,154.59-63.264,255.483-185.664,299.88C2438.083,2059.955,2435.651,2060.37,2433.234,2060.37z M2420.555,1793.434
					c20.454,94.046,31.609,164.653,33.772,214.026c82.639-40.801,125.085-117.112,129.265-232.1
					C2524.972,1761.864,2471.361,1767.811,2420.555,1793.434z"/>
			</g>
			<g>
				<path style="fill-rule:evenodd;clip-rule:evenodd;fill:#FEC827;" d="M2681.382,2143.156
					c77.492-113.956,69.73-229.025-23.329-345.221c-15.526,80.731-51.162,139.654-106.912,176.77
					C2619.949,2040.126,2663.349,2096.283,2681.382,2143.156z"/>
			</g>
			<g>
				<path style="fill:#6A1851;" d="M2681.388,2164.237c-0.803,0-1.611-0.049-2.422-0.142c-7.791-0.898-14.439-6.05-17.256-13.369
					c-16.831-43.745-58.918-97.832-125.093-160.745c-4.646-4.417-7.029-10.708-6.475-17.095c0.552-6.387,3.982-12.173,9.319-15.725
					c51.323-34.172,83.344-87.556,97.893-163.206c1.553-8.074,7.656-14.507,15.635-16.479c7.976-1.982,16.375,0.869,21.516,7.283
					c99.072,123.704,107.249,248.274,24.307,370.249C2694.862,2160.819,2688.312,2164.237,2681.388,2164.237z M2583.573,1976.803
					c45.635,45.21,78.652,85.652,99.841,122.351c44.412-83.765,39.16-166.882-15.964-252.312
					C2650.201,1901.271,2622.123,1944.789,2583.573,1976.803z"/>
			</g>
			<g>
				<path style="fill-rule:evenodd;clip-rule:evenodd;fill:#FEC827;" d="M1841.21,1477.289
					c69.515,85.908,77.279,168.73,23.351,248.494c-25.281,21.259-99.234,48.503-221.819,81.717
					C1581.439,1647.068,1647.588,1537.005,1841.21,1477.289z"/>
			</g>
			<g>
				<path style="fill:#6A1851;" d="M1642.736,1828.583c-8.545,0-16.499-5.229-19.683-13.557
					c-30.156-78.923-31.218-148.149-3.154-205.759c32.629-66.983,105-118.162,215.1-152.119c8.225-2.532,17.18,0.188,22.595,6.882
					c75.693,93.54,83.911,185.579,24.429,273.56c-1.091,1.614-2.402,3.069-3.894,4.326c-17.81,14.973-61.013,40.176-229.873,85.93
					C1646.415,1828.343,1644.562,1828.583,1642.736,1828.583z M1833.612,1501.852c-90.676,30.154-149.797,72.466-175.815,125.877
					c-20.708,42.507-21.277,94.336-1.738,154.268c127.864-35.474,175.728-57.727,192.783-70.63
					C1893.202,1643.846,1888.239,1575.167,1833.612,1501.852z"/>
			</g>
			<g>
				<path style="fill-rule:evenodd;clip-rule:evenodd;fill:#FEC827;" d="M1885.016,1455.45
					c-69.75-92.77-136.929-171.786-201.513-237.033c-3.816,120.023-5.724,180.018-5.724,180.018
					c-11.901,41.49,13.143,64.101,75.112,67.853C1808.532,1464.885,1852.575,1461.26,1885.016,1455.45z"/>
			</g>
			<g>
				<path style="fill:#6A1851;" d="M1752.892,1487.364c-0.425,0-0.849-0.012-1.274-0.036c-43.699-2.647-72.175-14.163-87.056-35.208
					c-10.947-15.481-13.555-34.595-7.771-56.836l5.645-177.537c0.269-8.42,5.522-15.869,13.362-18.95
					c7.842-3.079,16.76-1.194,22.686,4.792c64.963,65.63,133.389,146.106,203.379,239.194c4.399,5.85,5.449,13.562,2.771,20.376
					c-2.676,6.812-8.696,11.748-15.901,13.037c-33.423,5.986-78.948,9.741-135.31,11.162
					C1753.246,1487.362,1753.068,1487.364,1752.892,1487.364z M1702.977,1269.122l-4.131,129.983
					c-0.056,1.741-0.327,3.469-0.806,5.144c-4.531,15.793-0.413,21.619,0.94,23.533c3.87,5.469,16.062,14.963,54.297,17.412
					c35.972-0.925,67.148-2.807,93.169-5.623C1797.435,1375.941,1749.384,1318.856,1702.977,1269.122z"/>
			</g>
			<g style="opacity:0.7;">
				<path style="fill-rule:evenodd;clip-rule:evenodd;fill:#FFFFFF;" d="M1832.484,2269.204
					c-46.294-81.471-146.345-112.893-292.731-75.123c-14.215,5.448-29.697,10.592-46.487,15.418
					c-0.428-0.375-0.834-0.773-1.265-1.17c-0.213-0.202-0.428-0.417-0.643-0.621c-7.119,2.916-14.044,5.564-20.798,7.933
					c0.729-0.182,1.436-0.373,2.165-0.547c-12.608,4.589-25.474,9.65-38.64,15.15c-28.474,11.931-50.431,26.706-66.235,43.56
					c3.752,10.377,7.549,20.488,11.409,30.362c288.59-122.436,456.612-47.848,504.085,223.727
					c-3.645-26.985-3.474-58.236,0.815-93.723c-2.402-16.329-3.946-31.703-4.589-46.059
					C1866.083,2342.59,1852.081,2302.556,1832.484,2269.204 M1493.266,2209.499c-6.646,1.919-13.486,3.772-20.541,5.594
					C1479.781,2213.271,1486.62,2211.418,1493.266,2209.499z"/>
			</g>
			<g style="opacity:0.7;">
				<path style="fill-rule:evenodd;clip-rule:evenodd;fill:#FFFFFF;" d="M1552.341,1815.819
					c93.767,100.65,118.681,203.283,74.726,307.932c-6.262-266.925-114.329-334.124-324.186-201.601
					C1381.016,1840.198,1464.169,1804.766,1552.341,1815.819"/>
			</g>
			<g style="opacity:0.7;">
				<path style="fill-rule:evenodd;clip-rule:evenodd;fill:#FFFFFF;" d="M2082.713,1804.283
					c37.01,88.512,34.116,181.326-8.704,278.437c70.888-204.923-70.697-273.538-424.729-205.876
					C1775.941,1830.904,1920.417,1806.716,2082.713,1804.283"/>
			</g>
			<g style="opacity:0.7;">
				<path style="fill-rule:evenodd;clip-rule:evenodd;fill:#FFFFFF;" d="M2356.467,2076.781
					c69.709-223.964,12.437-262.013-171.773-114.169c75.24-18.804,130.733-35.52,166.435-50.143
					C2370.532,1974.984,2372.313,2029.758,2356.467,2076.781"/>
			</g>
			<g style="opacity:0.7;">
				<path style="fill-rule:evenodd;clip-rule:evenodd;fill:#FFFFFF;" d="M2572.799,1883.899
					c15.309-7.452,22.535-16.746,21.634-27.887c-171.215-77.857-228.788-59.865-172.673,54.003
					C2431.151,1817.76,2481.498,1809.054,2572.799,1883.899"/>
			</g>
			<g style="opacity:0.7;">
				<path style="fill-rule:evenodd;clip-rule:evenodd;fill:#FFFFFF;" d="M1907.511,2249.006
					c263.996-93.573,391.17-13.606,381.478,239.896C2330.371,2162.722,2203.197,2082.753,1907.511,2249.006"/>
			</g>
			<g style="opacity:0.7;">
				<path style="fill-rule:evenodd;clip-rule:evenodd;fill:#FFFFFF;" d="M2366.738,2122.357
					c159.273-110.792,233.421-64.156,222.421,139.922c42.735-38.769,56.436-100.244,34.242-153.496
					c-22.192-53.272-75.496-86.809-133.133-83.763C2432.651,2028.076,2383.184,2067.058,2366.738,2122.357"/>
			</g>
			<g style="opacity:0.7;">
				<path style="fill-rule:evenodd;clip-rule:evenodd;fill:#FFFFFF;" d="M2231.93,2608.936
					c40.848,50.753,48.096,115.541,21.744,194.373c39.068-141.057-65.271-165.181-312.971-72.326
					C2101.647,2648.078,2198.716,2607.39,2231.93,2608.936"/>
			</g>
			<g style="opacity:0.7;">
				<path style="fill-rule:evenodd;clip-rule:evenodd;fill:#FFFFFF;" d="M2543.55,2366.381
					c70.888,59.608,57.551,149.258-40.01,268.96c48.395-88.482,63.662-156.506,45.8-204.056
					c-37.502,38.2-108.669,72.251-213.458,102.163C2448.626,2450.08,2517.863,2394.385,2543.55,2366.381"/>
			</g>
			<g style="opacity:0.7;">
				<path style="fill-rule:evenodd;clip-rule:evenodd;fill:#FFFFFF;" d="M2665.45,2346.868
					c60.103-182.464,40.333-198.501-59.288-48.138c31.563-10.25,56.993-28.57,76.291-54.956
					C2673.32,2292.05,2667.659,2326.424,2665.45,2346.868"/>
			</g>
			<g style="opacity:0.7;">
				<path style="fill-rule:evenodd;clip-rule:evenodd;fill:#FFFFFF;" d="M1180.983,2416.405
					c159.466-124.3,228.189-33.385,206.21,272.735C1389.209,2467.856,1320.486,2376.94,1180.983,2416.405"/>
			</g>
			<g style="opacity:0.7;">
				<path style="fill-rule:evenodd;clip-rule:evenodd;fill:#FFFFFF;" d="M1248.055,1888.121
					c-4.975,83.067-6.82,176.985-5.533,281.764c-14.366-284.635-86.626-303.72-216.76-57.231
					C1059.041,1964.285,1133.146,1889.452,1248.055,1888.121"/>
			</g>
			<g style="opacity:0.7;">
				<path style="fill-rule:evenodd;clip-rule:evenodd;fill:#FFFFFF;" d="M1248.977,1637.74
					c42.735,23.5,50.604,74.877,23.608,154.159c-19.513-163.914-79.659-169.415-180.459-16.52
					C1127.698,1659.59,1179.975,1613.726,1248.977,1637.74"/>
			</g>
			<g style="opacity:0.7;">
				<path style="fill-rule:evenodd;clip-rule:evenodd;fill:#FFFFFF;" d="M1615.487,1459.021
					c12.994,100.059-4.78,188.969-53.346,266.751c80.944-223.268,19.403-278.042-184.598-164.323
					C1454.715,1493.049,1534.029,1458.913,1615.487,1459.021"/>
			</g>
			<g style="opacity:0.7;">
				<path style="fill-rule:evenodd;clip-rule:evenodd;fill:#FFFFFF;" d="M1383.269,1378.718
					c-1.544,82.757-22.837,141.005-63.877,174.735c64.885-117.429,45.672-141.971-57.615-73.623
					C1314.397,1424.155,1354.879,1390.447,1383.269,1378.718"/>
			</g>
			<g style="opacity:0.7;">
				<path style="fill-rule:evenodd;clip-rule:evenodd;fill:#FFFFFF;" d="M1662.49,1255.158
					c-1.137,96.158-41.964,153.002-122.499,170.519c137.509-126.07,114.564-159.679-68.83-100.832
					C1555.343,1289.079,1619.134,1265.835,1662.49,1255.158"/>
			</g>
			<g style="opacity:0.7;">
				<path style="fill-rule:evenodd;clip-rule:evenodd;fill:#FFFFFF;" d="M1787.519,1512.637
					c15.974,24.412,13.594,39.388-7.141,44.963c-45.543,11.975-90.528,36.494-134.977,73.547
					C1670.788,1542.033,1718.175,1502.526,1787.519,1512.637"/>
			</g>
			<g style="opacity:0.7;">
				<path style="fill-rule:evenodd;clip-rule:evenodd;fill:#FFFFFF;" d="M1681.358,1285.81
					c44.344-63.446,192.296,23.028,133.372,166.552C1804.224,1412.404,1759.772,1356.88,1681.358,1285.81"/>
			</g>
			<g style="opacity:0.7;">
				<path style="fill-rule:evenodd;clip-rule:evenodd;fill:#FFFFFF;" d="M2710.35,2006.976
					c-15.631-101.153-55.942-110.909-122.091-36.644c32.913-40.559,50.43-70.857,52.598-90.926
					C2707.862,1906.38,2731.02,1948.911,2710.35,2006.976"/>
			</g>
			<g style="opacity:0.7;">
				<path style="fill-rule:evenodd;clip-rule:evenodd;fill:#FFFFFF;" d="M1514.409,2735.831
					c246.457-82.05,358.151-40.141,335.101,125.725C1831.947,2746.111,1720.254,2704.202,1514.409,2735.831"/>
			</g>
			<g>
				<path style="fill-rule:evenodd;clip-rule:evenodd;fill:#FF9021;" d="M1379.365,2462.312l66.428,149.99
					c35.616,56.714,94.562,74.328,178.206,61.323c62.935-9.788,108.478-15.501,136.416-18.643
					c-32.055-35.304-54.826-101.346-67.735-198.211c-11.387-85.566-50.712-112.669-118.49-81.223
					c-51.419,23.221-116.345,52.147-194.825,86.743V2462.312z"/>
			</g>
			<g>
				<path style="fill-rule:evenodd;clip-rule:evenodd;fill:#FF9021;" d="M1879.441,2501.499
					c-13.679-52.523-20.648-97.552-20.927-135.151c108.84-18.986,170.552-73.621,227.717-71.639
					c74.425,42.295,92.331,135.654,97.412,281.195c-25.538,10.796-55.299,22.128-89.692,34.714
					C1975.224,2654.048,1911.863,2635.512,1879.441,2501.499"/>
			</g>
			<g>
				<path style="fill-rule:evenodd;clip-rule:evenodd;fill:#FF9021;" d="M2325.055,2223.606
					c-24.66,98.795,1.113,142.377-8.128,205.075c89.843-34.802,161.912-69.463,215.109-105.046
					c-11.536-72.056-34.78-121.524-82.681-148.755C2424.226,2166.218,2380.547,2209.455,2325.055,2223.606"/>
			</g>
			<g>
				<path style="fill-rule:evenodd;clip-rule:evenodd;fill:#FF9021;" d="M1670.917,2061.655
					c44.706,104.895,113.385,147.585,207.624,140.693c26.739-1.952,51.311-5.18,73.803-9.736
					c-13.657-57.905,18.013-171.988-8.405-278.749C1814.923,1928.616,1723.899,1977.889,1670.917,2061.655"/>
			</g>
			<g>
				<path style="fill-rule:evenodd;clip-rule:evenodd;fill:#FF9021;" d="M1294.197,2748.364
					c10.68-304.395-38.06-379.84-146.213-226.355C1180.447,2631.332,1238.683,2721.807,1294.197,2748.364"/>
			</g>
			<g>
				<path style="fill-rule:evenodd;clip-rule:evenodd;fill:#FF9021;" d="M1500.708,2873.65
					c84.033,52.898,162.296,77.89,234.835,74.974C1795.775,2810.491,1717.49,2785.502,1500.708,2873.65"/>
			</g>
			<g>
				<path style="fill-rule:evenodd;clip-rule:evenodd;fill:#FF9021;" d="M1874.532,2926.214
					c9.476-30.028,15.139-55.331,16.981-75.883c115.21-30.696,192.337-113.912,247.445-112.015
					c43.42,39.402-21.636,123.391-44.708,162.34C2009.338,2921.906,1936.092,2930.419,1874.532,2926.214"/>
			</g>
			<g>
				<path style="fill-rule:evenodd;clip-rule:evenodd;fill:#FF9021;" d="M2288.153,2757.487
					c71.81-19.61,120.249-37.706,145.315-54.303c25.345-35.561,83.796-108.144,60.08-179.363
					c-27.982-25.281-84.911,40.846-167.572,111.328C2320.98,2683.672,2308.373,2724.455,2288.153,2757.487"/>
			</g>
			<g>
				<path style="fill-rule:evenodd;clip-rule:evenodd;fill:#FF9021;" d="M2282.879,1983.84
					c-23.329,17.036-62.441,31.66-118.705,41.898c-0.13,52.769-3.496,94.454-10.056,125.106
					c76.526,2.455,135.364-9.36,176.513-35.456C2361.978,1992.954,2346.733,1937.267,2282.879,1983.84"/>
			</g>
			<g>
				<path style="fill-rule:evenodd;clip-rule:evenodd;fill:#FF9021;" d="M1356.702,1979.112
					c-11.922,9.584-36.859,27.747-72.859,57.015c4.846,48.683,10.526,94.559,21.72,137.305
					c20.093,47.515,62.891,63.618,128.417,48.266c19.449-4.17,37.505-8.651,54.229-13.466
					c-22.086-19.941-46.959-74.704-39.305-163.55C1458.68,1931.253,1440.304,1911.848,1356.702,1979.112"/>
			</g>
			<g>
				<path style="fill-rule:evenodd;clip-rule:evenodd;fill:#FF9021;" d="M1132.116,2051.265
					c-34.264-16.114-71.382,22.76-111.372,116.646c3.41,73.182,29.484,151.158,78.243,233.871
					c51.311-43.795,95.655-69.098,133.05-75.916C1184.156,2278.189,1150.856,2186.651,1132.116,2051.265"/>
			</g>
			<g>
				<path style="fill-rule:evenodd;clip-rule:evenodd;fill:#FF9021;" d="M1429.798,1607.058
					c-59.117,24.936-100.479,39.604-116.56,65.001c-12.908,50.046-15.932,109.431-9.026,178.184
					c59.202-2.626,110.019-11.846,152.475-27.659c-5.103-30.469-1.566-74.372,10.658-131.71
					C1493.89,1605.214,1484.69,1583.942,1429.798,1607.058"/>
			</g>
			<g>
				<path style="fill-rule:evenodd;clip-rule:evenodd;fill:#FF9021;" d="M1099.888,1929.431
					c33.192-24.939,68.593-39.518,106.203-43.742c-5.36-11.751-7.762-38.51,2.96-77.857c14.966-55.011,5.103-86.756-28.774-68.786
					c-57.272,30.373-86.885,79.143-105.626,119.926C1079.518,1882.869,1087.923,1906.369,1099.888,1929.431"/>
			</g>
			<g>
				<path style="fill-rule:evenodd;clip-rule:evenodd;fill:#FF9021;" d="M1405.718,1394.65
					c-25.022,86.209,13.317,105.593,115.016,58.164c-3.495-17.713,25.496-58.484,22.901-115.897
					C1491.038,1317.265,1439.727,1355.733,1405.718,1394.65"/>
			</g>
			<g>
				<path style="fill-rule:evenodd;clip-rule:evenodd;fill:#FF9021;" d="M1793.522,1760.905
					c-37.329,13.947-87.59,29.483-150.78,46.595c-25.325-66.301-28.862-123.979-10.68-173.062
					C1771.308,1598.255,1825.129,1640.411,1793.522,1760.905"/>
			</g>
			<g>
				<path style="fill:#6A1851;" d="M1575.446,2699.471c-67.341,0-115.854-24.844-147.5-75.229c-0.537-0.854-1.013-1.748-1.423-2.676
					l-84.834-191.538c-25.027-43.838-31.399-87.305-18.42-125.771c13.613-40.352,48.201-73.145,100.019-94.839
					c196.221-82.163,345.159-65.283,408.662,46.289c27.07,46.118,43.062,103.174,61.577,169.233
					c2.749,9.805,5.552,19.81,8.459,30.01c20.381,71.611,19.101,122.256-4.024,159.38c-19.128,30.713-52.046,49.927-100.635,58.74
					c-0.691,0.127-1.392,0.22-2.092,0.273c-0.564,0.044-57.676,4.692-167.998,21.836
					C1608.871,2698.036,1591.615,2699.466,1575.446,2699.471z M1464.43,2603.055c29.814,46.372,79.543,62.407,156.333,50.474
					c104.998-16.318,161.35-21.387,170.027-22.114c35.667-6.626,59.023-19.512,71.392-39.37
					c16.162-25.947,15.92-67.017-0.74-125.547c-2.92-10.259-5.742-20.322-8.503-30.176c-17.742-63.301-33.064-117.964-57.41-159.39
					c-0.054-0.088-0.105-0.176-0.156-0.269c-51.719-91.04-181.401-101.382-355.806-28.359
					c-40.322,16.88-66.726,40.889-76.355,69.429c-9.092,26.948-3.711,58.838,15.559,92.217c0.374,0.649,0.713,1.318,1.018,2.002
					L1464.43,2603.055z M1793.566,2652.333h0.049H1793.566z"/>
			</g>
			<g>
				<path style="fill:#6A1851;" d="M1403.637,2823.905c-2.085,0-4.185-0.313-6.226-0.942
					c-167.031-51.655-264.277-185.835-289.041-398.813c-0.808-6.963,1.892-13.867,7.207-18.428
					c80.706-69.277,145.33-90.996,197.551-66.377c81.555,38.438,117.012,185.845,111.584,463.892
					c-0.13,6.621-3.362,12.798-8.73,16.675C1412.348,2822.538,1408.019,2823.905,1403.637,2823.905z M1151.622,2430.472
					c23.318,179.106,99.17,291.641,231.357,342.876c2.554-290.811-45.928-376.123-87.822-395.874
					C1261.583,2361.664,1213.331,2379.476,1151.622,2430.472z"/>
			</g>
			<g>
				<path style="fill:#6A1851;" d="M1098.988,2423.587c-1.157,0-2.319-0.098-3.477-0.288c-6.143-1.03-11.516-4.722-14.68-10.088
					c-108.572-184.146-108.652-348.623-0.234-488.857c0.959-1.243,2.053-2.371,3.264-3.369
					c44.299-36.538,106.616-54.583,184.993-53.381c6.096,0.085,11.858,2.808,15.796,7.466c3.936,4.656,5.664,10.789,4.736,16.814
					c-24.451,158.843-11.565,308.965,38.301,446.201c3.269,8.999,0.063,19.067-7.805,24.521c-7.869,5.444-18.425,4.917-25.701-1.304
					c-37.952-32.437-99.019-13.193-181.506,57.236C1108.829,2421.82,1103.969,2423.587,1098.988,2423.587z M1112.477,1952.047
					c-92.598,121.169-95.127,258.215-7.534,418.298c65.657-51.758,121.719-73.442,167.52-65.005
					c-37.007-123.623-46.499-256.235-28.252-395.254C1188.556,1912.516,1144.335,1926.588,1112.477,1952.047z"/>
			</g>
			<g>
				<path style="fill:#6A1851;" d="M1099.887,1951.236c-1.421,0-2.852-0.142-4.268-0.435c-6.253-1.294-11.582-5.352-14.492-11.035
					c-63.13-123.284-31.824-232.119,93.049-323.484c2.324-1.702,4.976-2.908,7.783-3.547c51.296-11.636,89.487-4.153,113.511,22.231
					c37.314,40.991,34.717,124.155-7.939,254.243c-2.876,8.762-11.108,14.724-20.33,14.507
					c-66.609-0.954-118.408,13.416-153.901,42.7C1109.491,1949.562,1104.738,1951.236,1099.887,1951.236z M1195.512,1652.931
					c-96.489,72.014-125.149,152.505-87.139,245.352c37.825-23.228,86.001-35.527,143.735-36.675
					c42.725-136.66,26.238-182.83,12.188-198.262C1251.781,1649.591,1228.651,1646.097,1195.512,1652.931z"/>
			</g>
			<g>
				<path style="fill:#6A1851;" d="M1186.622,1654.369c-4.951,0-9.8-1.743-13.648-5.015c-5.051-4.29-7.788-10.708-7.392-17.322
					c6.772-113.091,86.914-209.866,238.198-287.637c7.004-3.599,15.415-2.996,21.833,1.555c6.418,4.553,9.763,12.302,8.679,20.095
					c-22.481,161.465-98.394,257.214-225.632,284.59c-0.5,0.107-1.006,0.198-1.514,0.269c-4.929,0.688-10.273,1.682-15.884,2.947
					C1189.725,1654.2,1188.168,1654.369,1186.622,1654.369z M1384.96,1402.818c-100.413,59.082-158.674,127.458-173.743,203.894
					C1302.855,1582.862,1360.006,1515.897,1384.96,1402.818z"/>
			</g>
			<g>
				<path style="fill:#6A1851;" d="M1304.196,1872.049c-10.767,0-19.873-8.159-20.957-18.972
					c-13.335-132.925,14.304-242.805,79.924-317.766c59.58-68.064,149.827-105.962,260.984-109.6
					c10.386-0.33,19.502,6.97,21.409,17.205c23.337,125.237,4.197,231.072-55.354,306.064
					c-59.453,74.866-158.023,117.417-285.059,123.049C1304.828,1872.045,1304.511,1872.049,1304.196,1872.049z M1607.199,1468.78
					c-91.746,6.409-163.113,38.086-212.317,94.297c-54.492,62.246-79.024,153.765-71.404,265.591
					c104.626-8.347,185.156-44.758,233.711-105.903C1606.124,1661.139,1623.29,1573.604,1607.199,1468.78z"/>
			</g>
			<g>
				<path style="fill:#6A1851;" d="M1433.676,1499.891c-14.517,0-26.311-3.682-35.769-11.687
					c-26.787-22.673-21.316-68.56-4.861-130.476c0.964-3.626,2.876-6.926,5.54-9.563c71.504-70.811,158.394-112.925,258.25-125.173
					c10.359-1.265,20.1,5.237,22.881,15.303c34.106,123.352-20.3,175.923-119.138,220.762
					C1504.628,1484.425,1463.434,1499.891,1433.676,1499.891z M1432.33,1374.127c-17.661,68.701-9.128,80.259-7.188,81.899
					c6.367,5.398,32.019,3.635,118.022-35.361c82.341-37.356,118.049-69.692,100.337-153.164
					C1562.711,1280.968,1491.771,1316.778,1432.33,1374.127z"/>
			</g>
			<g>
				<path style="fill:#6A1851;" d="M2010.214,2650.882c-19.927,0-37.039-4.097-52.253-12.236
					c-37.188-19.897-61.37-62.681-80.842-143.032c-33.027-126.943-35.376-196.553-8.115-240.283
					c15.137-24.282,38.792-39.663,72.266-46.973c149.167-67.29,218.245-77.559,270.647-78.599c3.777,0.029,7.534,0.874,10.83,2.749
					c85.473,48.564,104.135,149.658,108.669,319.219c2.273,84.956-72.014,121.523-230.219,179.414
					C2065.118,2644.334,2035.414,2650.882,2010.214,2650.882z M2206.788,2172.069c-47.559,1.685-112.405,13.286-250.237,75.645
					c-1.433,0.649-2.935,1.133-4.475,1.445c-23.103,4.717-38.132,13.765-47.302,28.472c-19.922,31.958-15.857,95.967,13.184,207.539
					c0.029,0.112,0.059,0.229,0.088,0.347c16.15,66.709,34.592,102.471,59.805,115.962c22.94,12.275,56.514,9.219,108.862-9.927
					c164.182-60.073,203.938-87.295,202.563-138.701C2285.253,2302.459,2270.739,2212.298,2206.788,2172.069z"/>
			</g>
			<g>
				<path style="fill:#6A1851;" d="M1718.532,2973.885c-121.289,0-230.386-56.982-340.75-174.99
					c-4.753-5.083-6.692-12.183-5.183-18.97c1.509-6.792,6.272-12.402,12.727-14.99c243.262-97.622,384.043-114.839,456.479-55.859
					c48.865,39.795,63.096,112.178,43.501,221.284c-1.355,7.554-6.714,13.774-13.984,16.24
					C1817.863,2964.701,1767.206,2973.885,1718.532,2973.885z M1430.282,2792.523c132.366,131.836,258.655,167.456,415.63,118.032
					c13.642-85.596,3.557-140.874-30.725-168.789C1760.25,2697.03,1634.198,2713.612,1430.282,2792.523z M1864.562,2926.634h0.049
					H1864.562z"/>
			</g>
			<g>
				<path style="fill:#6A1851;" d="M1899.313,2948.329c-8.342,0-16.758-0.107-25.315-0.327c-6.711-0.171-12.94-3.525-16.77-9.038
					c-3.833-5.508-4.81-12.515-2.634-18.867c19.229-56.089,23.435-119.565,12.5-188.657c-1.602-10.112,4.294-19.907,13.975-23.232
					c152.151-52.227,252.773-93.594,299.072-122.949c0.664-0.42,1.35-0.801,2.056-1.147c29.612-14.424,55.391-14.98,76.621-1.631
					c34.861,21.909,50.879,77.778,50.413,175.825c-0.017,3.892-1.113,7.7-3.162,11.006
					C2232.392,2888.158,2095.594,2948.329,1899.313,2948.329z M1911.222,2742.401c7.329,58.423,4.478,113.315-8.494,163.765
					c176.038-0.664,298.496-52.437,364.353-154.082c-0.302-103.501-21.472-128.12-30.696-133.916
					c-7.898-4.961-19.575-3.833-34.734,3.364C2153.297,2651.888,2058.177,2691.478,1911.222,2742.401z"/>
			</g>
			<g>
				<path style="fill:#6A1851;" d="M2288.151,2779.286c-7.124,0-13.904-3.623-17.82-9.829c-4.771-7.554-4.258-17.295,1.277-24.307
					c16.081-20.376,36.889-78.384,44.702-239.019c0.369-7.583,4.79-14.385,11.572-17.798
					c132.605-66.777,176.321-108.491,189.641-131.729c3.596-6.27,10.152-10.259,17.371-10.576
					c24.429-1.089,44.48,6.099,59.587,21.274c22.087,22.188,31.538,59.658,28.896,114.551c-0.066,1.401-0.276,2.798-0.62,4.16
					c-38.833,153.306-149.839,251.802-329.932,292.744C2291.268,2779.115,2289.701,2779.286,2288.151,2779.286z M2357.784,2520.428
					c-5.046,92.72-15.061,160.747-30.361,205.625c138.396-42.031,221.67-123.604,253.945-248.335
					c2.132-50.542-7.9-71.772-16.765-80.674c-3.162-3.179-8.223-7.109-17.72-8.472
					C2519.088,2426.366,2456.938,2469.686,2357.784,2520.428z"/>
			</g>
			<g>
				<path style="fill:#6A1851;" d="M2608.138,2462.44c-1.936,0-3.826-0.244-5.608-0.708c-15.063-3.892-22.927-16.211-32.654-82.471
					c-4.436-30.215-8.691-72.075-7.554-92.583c0.356-6.445,3.648-12.368,8.928-16.079c56.819-39.917,96.189-94.541,117.019-162.354
					c2.898-9.438,11.943-15.498,21.789-14.829c9.836,0.771,17.825,8.262,19.224,18.027
					c22.493,157.046-12.114,272.095-102.866,342.026C2621.383,2459.779,2614.521,2462.44,2608.138,2462.44z M2604.308,2298.7
					c0.561,27.168,6.863,77.622,12.922,107.393c51.68-47.998,77.049-116.191,76.729-206.66
					C2671.09,2237.977,2641.125,2271.18,2604.308,2298.7z"/>
			</g>
			<g>
				<path style="fill:#6A1851;" d="M2316.93,2450.487c-4.707,0-9.36-1.577-13.154-4.609c-5.864-4.683-8.796-12.124-7.7-19.546
					c3.337-22.607,1.614-42.637-0.381-65.82c-3.511-40.796-7.49-87.031,14.219-160.864
					c39.18-133.169,108.257-181.504,145.945-198.464c37.417-16.831,76.529-18.198,107.307-3.745
					c2.048,0.962,3.928,2.249,5.569,3.806c73.958,70.347,103.921,134.8,91.602,197.041
					c-17.888,90.391-121.45,167.734-335.793,250.776C2322.076,2450.018,2319.493,2450.487,2316.93,2450.487z M2516.437,2029.601
					c-13.648,0-28.479,3.364-43.279,10.025c-31.089,13.992-88.384,54.929-122.803,171.916
					c-19.472,66.226-16.011,106.45-12.661,145.352c1.174,13.657,2.314,26.899,2.417,40.64
					c173.955-70.752,265.278-138.735,278.872-207.432c9.158-46.27-15.925-97.256-76.655-155.779
					C2534.508,2031.168,2525.748,2029.601,2516.437,2029.601z"/>
			</g>
			<g>
				<path style="fill:#6A1851;" d="M2173.077,2172.948c-6.431,0-12.966-0.107-19.636-0.322c-6.243-0.2-12.075-3.159-15.925-8.076
					c-3.848-4.922-5.318-11.294-4.009-17.402c9.07-42.349,11.719-108.445,7.871-196.458c-0.383-8.738,4.67-16.802,12.7-20.271
					c61.208-26.435,136.455-58.447,223.652-95.139c5.632-2.378,12.012-2.183,17.495,0.52c5.481,2.703,9.519,7.649,11.07,13.557
					c28.694,109.38,21.128,192.576-22.493,247.278C2343.387,2147.313,2272.543,2172.948,2173.077,2172.948z M2184.079,1963.387
					c2.593,70.322,0.974,125.503-4.939,167.383c82.715-0.894,140.408-21.172,171.704-60.42
					c31.931-40.044,38.765-102.751,20.393-186.594C2299.877,1913.837,2237.072,1940.558,2184.079,1963.387z"/>
			</g>
			<g>
				<path style="fill:#6A1851;" d="M1859.035,2224.881c-145.439,0-227.793-117.363-258.462-367.007
					c-0.698-5.696,0.952-11.428,4.575-15.877c3.621-4.451,8.899-7.231,14.617-7.7c104.78-8.618,193.115-23.794,271.052-37.182
					c78.865-13.547,146.975-25.247,207.781-25.574c0.039,0,0.078,0,0.117,0c9.326,0,17.549,6.13,20.205,15.08
					c40.872,137.766,34.201,251.506-19.295,328.918c-44.67,64.644-118.538,101.167-219.546,108.555
					C1872.926,2224.618,1865.902,2224.881,1859.035,2224.881z M1645.255,1874.386c39.756,284.202,144.343,314.011,231.75,307.668
					c87.649-6.411,150.881-36.851,187.94-90.479c44.082-63.792,50.219-159.512,17.961-277.524
					c-53.63,2.053-114.956,12.588-184.951,24.612C1824.647,1851.256,1742.245,1865.411,1645.255,1874.386z"/>
			</g>
			<g>
				<path style="fill:#6A1851;" d="M1389.991,2249.134c-61.147,0-90.142-34.365-103.843-66.777c-0.393-0.933-0.72-1.89-0.977-2.866
					c-14.094-53.818-19.619-111.855-25.469-173.301c-1.621-17.024-3.271-34.365-5.142-52.012
					c-6.411-60.593,45.288-96.047,142.932-140.276c0,0,0.002-0.002,0.005-0.002c70.186-31.77,122.727-36.753,165.337-15.681
					c50.713,25.083,84.995,86.76,111.162,199.99c12.068,52.239,6.792,95.168-16.13,131.238
					c-33.362,52.495-103.098,88.589-219.463,113.574C1420.368,2247.25,1404.293,2249.134,1389.991,2249.134z M1325.558,2167.293
					c10.227,23.33,32.412,51.284,103.611,34.6c103.542-22.236,166.587-53.306,193.12-95.059
					c16.55-26.045,20.029-58.472,10.635-99.136c-22.747-98.43-50.955-152.988-88.777-171.694
					c-30.408-15.037-71.484-9.856-129.265,16.299l0.005-0.003c-90.686,41.077-121.67,66.575-118.406,97.439
					c1.887,17.793,3.555,35.286,5.188,52.456C1307.296,2061.297,1312.614,2117.157,1325.558,2167.293z"/>
			</g>
			<g>
				<path style="fill:#6A1851;" d="M2433.234,2061.087c-4.482,0-8.913-1.431-12.607-4.185c-5.686-4.243-8.855-11.064-8.435-18.144
					c2.739-46.113-9.441-130.559-36.204-250.991c-1.995-8.977,2.061-18.21,10.02-22.817c68.65-39.722,144.265-48.269,224.761-25.393
					c9.102,2.588,15.364,10.923,15.315,20.386c-0.799,154.59-63.264,255.483-185.664,299.88
					C2438.083,2060.672,2435.651,2061.087,2433.234,2061.087z M2420.555,1794.164c20.454,94.038,31.607,164.649,33.772,214.014
					c82.639-40.801,125.085-117.109,129.265-232.097C2524.962,1762.594,2471.356,1768.541,2420.555,1794.164z"/>
			</g>
			<g>
				<path style="fill:#6A1851;" d="M2681.388,2164.964c-0.805,0-1.611-0.049-2.422-0.142c-7.793-0.898-14.439-6.05-17.256-13.369
					c-16.831-43.76-58.918-97.837-125.09-160.742c-4.646-4.417-7.031-10.708-6.477-17.092c0.552-6.387,3.982-12.175,9.319-15.727
					c51.323-34.172,83.344-87.561,97.893-163.218c1.553-8.071,7.654-14.504,15.635-16.479c7.969-1.987,16.372,0.867,21.516,7.283
					c99.07,123.704,107.249,248.276,24.307,370.259C2694.862,2161.546,2688.312,2164.964,2681.388,2164.964z M2583.575,1977.53
					c45.635,45.203,78.65,85.642,99.839,122.346c44.412-83.769,39.16-166.887-15.964-252.317
					C2650.204,1901.988,2622.121,1945.519,2583.575,1977.53z"/>
			</g>
			<g>
				<path style="fill:#6A1851;" d="M1642.736,1829.3c-8.545,0-16.499-5.229-19.683-13.557
					c-30.156-78.923-31.218-148.147-3.157-205.752c32.632-66.98,105.003-118.159,215.103-152.114
					c8.225-2.544,17.18,0.19,22.595,6.882c75.696,93.545,83.914,185.576,24.426,273.538c-1.089,1.614-2.397,3.066-3.889,4.321
					c-17.815,14.99-61.028,40.21-229.878,85.945C1646.415,1829.061,1644.562,1829.3,1642.736,1829.3z M1833.612,1502.582
					c-90.679,30.154-149.8,72.464-175.818,125.872c-20.706,42.505-21.272,94.331-1.736,154.263
					c127.869-35.464,175.725-57.725,192.781-70.64C1893.202,1644.574,1888.239,1575.897,1833.612,1502.582z"/>
			</g>
			<g>
				<path style="fill:#6A1851;" d="M1752.894,1488.104c-0.43,0-0.857-0.012-1.284-0.039c-43.701-2.661-72.175-14.185-87.053-35.232
					c-10.942-15.481-13.55-34.59-7.766-56.831l5.645-177.536c0.269-8.42,5.522-15.872,13.362-18.95
					c7.842-3.076,16.76-1.194,22.686,4.792c64.963,65.64,133.389,146.116,203.379,239.192c4.399,5.852,5.449,13.564,2.771,20.376
					c-2.676,6.814-8.696,11.75-15.901,13.04c-33.372,5.977-78.894,9.741-135.3,11.184
					C1753.251,1488.102,1753.073,1488.104,1752.894,1488.104z M1702.977,1269.845l-4.131,129.978
					c-0.056,1.741-0.327,3.469-0.806,5.142c-4.531,15.796-0.413,21.621,0.94,23.538c3.867,5.469,16.06,14.968,54.299,17.432
					c35.991-0.94,67.161-2.829,93.167-5.645C1797.433,1376.664,1749.384,1319.581,1702.977,1269.845z"/>
			</g>
			<g>
				<path style="fill-rule:evenodd;clip-rule:evenodd;fill:#5FD941;" d="M1481.689,1155.43
					c151.575-20.402,281.258,53.401,388.983,221.369c-129.038,186.376-154.877,398.172-77.534,635.398
					c40.526-125.158,129.745-194.373,267.663-207.624c136.565-0.891,229.111-18.386,277.677-52.534
					c270.236,108.282,360.208,64.294,555.333,360.229c94.752-233.344,83.904-450.983-32.507-652.916
					c108.111-72.1,215.474-91.075,322.063-56.908c-46.338-138.238-201.643-200.989-465.92-188.23
					c79.853-75.402,120.056-141.916,142.592-191.363c46.83-102.686,126.359-160.913,217.638-185.12
					c-133.243-85.983-268.306-111.833-405.238-77.558c-20.347-131.846-49.53-225.229-87.568-280.174
					c-163.155,49.627-256.557,118.822-280.165,207.635c-122.864-167.891-251.689-231.693-386.495-191.371
					c79.141,101.84,120.848,181.058,125.071,237.635c-133.326-57.316-267.577-49.811-402.748,22.523
					c111.071,25.709,164.033,93.661,158.865,203.896C1623.765,1009.355,1517.863,1074.389,1481.689,1155.43z"/>
			</g>
			<g>
				<path style="fill:#6A1851;" d="M2893.805,2133.348c-7.036,0-13.669-3.525-17.593-9.478
					c-144.837-219.666-227.92-246.042-378.75-293.923c-45.342-14.394-96.421-30.61-156.638-54.297
					c-54.09,32.671-145.581,49.048-278.931,49.993c-129.394,12.695-210.754,75.847-248.701,193.045
					c-2.815,8.689-10.901,14.578-20.032,14.585c-0.007,0-0.015,0-0.022,0c-9.124,0-17.212-5.869-20.039-14.543
					c-77.515-237.749-53.198-453.716,72.253-642.161c-102.139-153.643-220.293-219.155-360.852-200.249
					c-7.581,1.04-15.11-2.141-19.688-8.262c-4.58-6.118-5.488-14.238-2.373-21.218c38.142-85.449,141.643-151.772,316.216-202.529
					c-0.586-90.454-47.454-145.268-142.876-167.354c-8.555-1.98-14.985-9.058-16.14-17.761c-1.157-8.706,3.206-17.214,10.95-21.357
					c128.235-68.63,257.471-81.133,384.678-37.363c-15.01-49.182-53.101-113.296-113.701-191.277
					c-4.268-5.493-5.552-12.737-3.433-19.36c2.122-6.624,7.373-11.775,14.036-13.767c134.995-40.391,264.851,16.392,386.365,168.75
					c39.102-78.128,133.101-140.242,280.205-184.985c8.765-2.659,18.25,0.637,23.462,8.169
					c38.01,54.905,66.695,142.261,87.485,266.641c134.68-27.488,268.936,1.174,399.419,85.378
					c7.012,4.524,10.693,12.761,9.39,21.003c-1.304,8.245-7.349,14.941-15.415,17.08c-92.834,24.619-163.33,84.612-203.865,173.491
					c-25.417,55.769-61.457,108.472-109.526,160.007c241.658-2.244,387.471,66.348,433.662,204.141
					c2.524,7.534,0.598,15.85-4.983,21.504c-5.583,5.652-13.875,7.69-21.435,5.266c-95.725-30.676-189.961-16.357-287.542,43.848
					c110.007,202.122,118.091,421.995,23.948,653.835c-2.944,7.251-9.666,12.275-17.454,13.047
					C2895.189,2133.314,2894.496,2133.348,2893.805,2133.348z M2338.48,1730.963c2.646,0,5.308,0.498,7.837,1.511
					c63.235,25.337,116.716,42.314,163.901,57.295c146.897,46.633,238.511,75.71,378.367,277.144
					c75.948-212.073,60.688-412.759-45.542-597.034c-5.549-9.624-2.676-21.9,6.565-28.064
					c98.694-65.818,198.325-89.451,296.775-70.561c-58.323-101.177-201.963-146.895-427.923-135.986
					c-8.813,0.444-16.956-4.683-20.408-12.795c-3.457-8.118-1.492-17.527,4.922-23.581
					c63.394-59.861,108.496-120.303,137.883-184.78c39.204-85.957,103.206-148.101,186.636-181.863
					c-115.181-63.584-232.707-80.974-349.936-51.626c-5.75,1.438-11.841,0.393-16.778-2.888c-4.937-3.279-8.267-8.486-9.17-14.343
					c-18.22-118.057-43.681-204.878-75.771-258.486c-145.647,46.709-229.98,109.968-250.762,188.147
					c-2.087,7.847-8.494,13.799-16.475,15.298c-7.976,1.504-16.113-1.714-20.906-8.264
					c-108.625-148.435-217.922-211.155-333.14-190.842c69.583,93.652,105.544,166.821,109.741,223.088
					c0.549,7.346-2.778,14.448-8.777,18.726c-5.999,4.28-13.796,5.117-20.566,2.205c-112.901-48.535-223.831-48.857-337.693-0.684
					c85.552,36.521,127.922,107.783,123.191,208.726c-0.427,9.084-6.628,16.87-15.386,19.314
					c-143.096,39.956-238.472,90.491-284.38,150.549c142.048-3.601,265.581,74.985,367.727,234.253
					c4.592,7.161,4.431,16.382-0.413,23.377c-114.111,164.819-144.778,352.939-91.45,559.949
					c50.227-97.756,138.181-153.232,262.232-165.151c0.625-0.059,1.252-0.093,1.88-0.095
					c131.563-0.859,220.955-17.244,265.691-48.699C2329.958,1732.264,2334.2,1730.963,2338.48,1730.963z"/>
			</g>
			<g style="opacity:0.7;">
				<path style="fill-rule:evenodd;clip-rule:evenodd;fill:#FFFFFF;" d="M2405.72,1777.395
					c226.922,80.397,387.481,175.376,481.72,284.903c-194.759-431.408-613.268-198.437-642.881-568.155
					C2219.065,1629.302,2272.8,1723.724,2405.72,1777.395"/>
			</g>
			<g style="opacity:0.7;">
				<path style="fill-rule:evenodd;clip-rule:evenodd;fill:#FFFFFF;" d="M2861.303,1459.352
					c83.175-61.132,188.585-85.351,316.166-72.679c-79.743-65.965-190.3-35.465-359.93,29.591
					c-208.204,79.839-375.089,64.435-479.555,18.45C2581.718,1506.45,2756.171,1514.664,2861.303,1459.352"/>
			</g>
			<g style="opacity:0.7;">
				<path style="fill-rule:evenodd;clip-rule:evenodd;fill:#FFFFFF;" d="M1852.147,1449.799
					c-113.429,150.934-131.721,314.376-54.85,490.332C1775.276,1753.991,1793.566,1590.547,1852.147,1449.799"/>
			</g>
			<g style="opacity:0.7;">
				<path style="fill-rule:evenodd;clip-rule:evenodd;fill:#FFFFFF;" d="M1868.827,1372.491
					c-114.909-143.633-236.807-220.62-365.718-230.955c146.922-39.336,279.928,14.184,398.954,160.57
					c81.416,88.106,176.019,141.101,283.832,158.972C2084.386,1507.159,1978.719,1477.631,1868.827,1372.491"/>
			</g>
			<g style="opacity:0.7;">
				<path style="fill-rule:evenodd;clip-rule:evenodd;fill:#FFFFFF;" d="M1799.677,940.9c38.038,2.863,57.059,4.299,57.059,4.299
					c10.979-94.559-46.316-159.852-171.902-195.886C1765.391,809.01,1803.686,872.876,1799.677,940.9"/>
			</g>
			<g style="opacity:0.7;">
				<path style="fill-rule:evenodd;clip-rule:evenodd;fill:#FFFFFF;" d="M2671.368,753.409
					c-24.68,11.934-44.449,20.339-59.288,25.206c17.047-34.275,5.34-127.42-35.144-279.403
					C2638.325,600.688,2669.802,685.417,2671.368,753.409"/>
			</g>
			<g style="opacity:0.7;">
				<path style="fill-rule:evenodd;clip-rule:evenodd;fill:#FFFFFF;" d="M2842.649,1057.364
					c57.143-113.987,126.873-189.861,209.189-227.609c-129.831,26.16-201.834,101.197-254.025,209.341
					c-49.08,101.7-130.604,170.036-208.632,225.088C2710.885,1230.874,2795.369,1161.927,2842.649,1057.364"/>
			</g>
			<g>
				<path style="fill:#6A1851;" d="M2102.299,1509.269c-109.197,0.005-192.603-40.242-248.874-120.356
					c-6.689-9.526-4.392-22.671,5.134-29.363c9.522-6.687,22.669-4.395,29.363,5.134c64.768,92.212,169.438,121.948,319.634,90.706
					l17.322-333.726c-298.989-205.784-536.772-190.369-726.733,46.938c-7.278,9.082-20.542,10.562-29.627,3.284
					c-9.089-7.275-10.559-20.54-3.284-29.626c205.718-256.98,472.661-273.281,793.398-48.476c5.945,4.167,9.329,11.101,8.953,18.352
					l-18.762,361.487c-0.488,9.395-7.143,17.327-16.309,19.443C2185.709,1503.871,2142.267,1509.266,2102.299,1509.269z"/>
			</g>
			<g>
				<path style="fill:#6A1851;" d="M2338.475,1773.116c-5.21,0-10.427-1.917-14.504-5.784
					c-101.753-96.524-141.018-197.349-116.707-299.678c2.693-11.326,14.063-18.31,25.381-15.635
					c11.325,2.693,18.325,14.055,15.635,25.381c-20.879,87.876,13.369,172.708,104.705,259.346c8.445,8.013,8.796,21.353,0.786,29.8
					C2349.625,1770.914,2344.056,1773.116,2338.475,1773.116z"/>
			</g>
			<g>
				<path style="fill:#6A1851;" d="M2301.351,1382.542c-36.743,0-62.039-5.942-73.374-9.304
					c-11.16-3.308-17.527-15.039-14.216-26.199c3.306-11.16,15.047-17.532,26.199-14.216c21.208,6.287,99.546,22.896,217.207-27.28
					c26.965-11.504,53.286-24.988,81.152-39.265c53.423-27.368,108.667-55.669,173.865-72.473
					c11.279-2.903,22.766,3.879,25.671,15.149c2.905,11.272-3.877,22.766-15.149,25.671
					c-60.667,15.637-113.792,42.851-165.168,69.172c-27.285,13.979-55.503,28.433-83.83,40.52
					C2403.221,1374.379,2344.42,1382.542,2301.351,1382.542z"/>
			</g>
			<g>
				<path style="fill:#6A1851;" d="M2351.72,1378.897c-1.887,0-3.804-0.256-5.711-0.791c-11.206-3.147-17.742-14.783-14.595-25.991
					c39.019-138.984,49.919-264.937,32.393-374.356c-0.652-4.067-0.095-8.24,1.599-11.997
					c59.272-131.458,190.239-212.217,389.263-240.034c11.516-1.604,22.18,6.428,23.792,17.957
					c1.611,11.528-6.428,22.18-17.957,23.792c-180.801,25.271-299.885,95.918-354.079,210.019
					c17.08,113.955,5.508,243.784-34.424,386.016C2369.388,1372.813,2360.929,1378.897,2351.72,1378.897z"/>
			</g>
			<g>
				<path style="fill-rule:evenodd;clip-rule:evenodd;fill:#6A1851;" d="M2363.48,1341.795c36.257,0.505,54.398,0.74,54.398,0.74
					c22.343-88.332,114.287-225.325,275.811-410.995C2548.054,1031.387,2437.991,1168.156,2363.48,1341.795"/>
			</g>
			<g>
				<path style="fill-rule:evenodd;clip-rule:evenodd;fill:#6A1851;" d="M2228.65,1455.439c1.353-26.041,2.038-39.068,2.038-39.068
					c356.412,51.568,548.063,163.691,574.931,336.311C2682.045,1589.914,2489.71,1490.829,2228.65,1455.439"/>
			</g>
			<g>
				<path style="fill-rule:evenodd;clip-rule:evenodd;fill:#6A1851;" d="M2188.19,1480.483
					c26.629-9.863,59.136-45.747,59.136-45.747c-82.744-218.947-291.978-308.5-589.297-330.573
					C1940.811,1183.756,2117.515,1309.203,2188.19,1480.483"/>
			</g>
			<g>
				<path style="fill-rule:evenodd;clip-rule:evenodd;fill:#6A1851;" d="M2446.268,892.345
					c-25.689,16.788-46.23,44.149-61.648,82.081c-0.45-101.241,40.848-203.498,123.938-306.785
					C2464.751,785.595,2443.993,860.503,2446.268,892.345"/>
			</g>
			<g>
				<path style="fill-rule:evenodd;clip-rule:evenodd;fill:#6A1851;" d="M2087.388,951.214c6.627,61.165-3.687,78.682-30.939,52.567
					c-17.82-56.447-86.22-128.676-205.182-216.697C1964.245,832.262,2042.939,886.964,2087.388,951.214"/>
			</g>
			<g>
				<path style="fill-rule:evenodd;clip-rule:evenodd;fill:#6A1851;" d="M2221.446,1533.285c4.716-24.411,2.83-43.775-5.661-58.098
					c-111.242,58.891-206.273,131.183-285.096,216.835C2080.849,1615.817,2177.767,1562.896,2221.446,1533.285"/>
			</g>
			<g>
				<path style="fill-rule:evenodd;clip-rule:evenodd;fill:#5FD941;" d="M2114.663,1284.641
					c65.635,94.57,145.251,109.42,230.655,74.061c91.944-296.846,60.232-542.938-95.095-738.266
					c-93.275-112.305-203.937-153.698-332.012-124.173c61.066,69.399,102.749,148.606,125.071,237.635
					C2093.242,942.231,2117.043,1125.808,2114.663,1284.641z"/>
			</g>
			<g>
				<path style="fill:#6A1851;" d="M2265.58,1397.086c-64.844,0-122.004-33.818-168.232-100.425
					c-2.512-3.618-3.826-7.932-3.76-12.334c2.341-156.301-21.479-339.839-70.803-545.515
					c-21.34-85.112-61.865-162.104-120.398-228.625c-4.905-5.571-6.516-13.313-4.241-20.378c2.273-7.068,8.096-12.417,15.33-14.085
					c135.854-31.321,254.617,12.835,352.959,131.245c159.497,200.564,192.715,455.464,99.016,757.969
					c-1.855,5.989-6.279,10.84-12.07,13.24C2322.867,1390.809,2293.507,1397.086,2265.58,1397.086z M2135.824,1278.046
					c52.229,71.982,115.273,93.218,192.312,64.756c85.677-284.138,53.926-522.707-94.411-709.248
					c-79.749-96.011-170.51-136.531-276.297-122.969c50.53,64.893,86.226,138.123,106.297,218.189
					C2113.197,935.067,2137.428,1119.754,2135.824,1278.046z"/>
			</g>
			<g style="opacity:0.7;">
				<path style="fill-rule:evenodd;clip-rule:evenodd;fill:#FFFFFF;" d="M2299.518,1361.607
					c36.064-7.108,54.097-10.667,54.097-10.667c93.383-519.33-23.221-801.35-349.808-846.045
					C2298.06,620.339,2396.628,905.917,2299.518,1361.607"/>
			</g>
			<g>
				<path style="fill-rule:evenodd;clip-rule:evenodd;fill:#6A1851;" d="M1966.97,486.196c-32.507,6.712-48.76,10.067-48.76,10.067
					c211.956,103.47,320.346,286.511,325.17,549.114C2262.165,757.816,2160.528,575.225,1966.97,486.196"/>
			</g>
			<g style="opacity:0.3;">
				<path style="fill-rule:evenodd;clip-rule:evenodd;fill:#6A1851;" d="M1511.879,2667.343
					c271.501,33.076,402.214-19.544,367.542-165.844c-224.414,167.636-394.944,90.453-511.57-231.555
					C1319.414,2355.005,1407.734,2579.237,1511.879,2667.343"/>
			</g>
			<g style="opacity:0.3;">
				<path style="fill-rule:evenodd;clip-rule:evenodd;fill:#6A1851;" d="M1299.581,1894.297
					c-63.04,350.141,50.002,425.21,339.13,225.229C1434.945,2195.967,1321.902,2120.888,1299.581,1894.297"/>
			</g>
			<g style="opacity:0.3;">
				<path style="fill-rule:evenodd;clip-rule:evenodd;fill:#6A1851;" d="M1161.084,2355.681
					c-87.955,37.834-133.047-43.174-135.322-243.027c113.238,166.949,191.009,169.019,233.335,6.218
					C1333.157,2254.612,1300.501,2333.542,1161.084,2355.681"/>
			</g>
			<g style="opacity:0.3;">
				<path style="fill-rule:evenodd;clip-rule:evenodd;fill:#6A1851;" d="M1076.28,1777.05
					c-11.45,42.339,4.009,87.377,39.048,113.774c35.015,26.394,82.573,28.84,120.119,6.196
					c37.566-22.653,57.571-65.849,50.56-109.152C1199.08,1815.284,1129.156,1811.67,1076.28,1777.05"/>
			</g>
			<g style="opacity:0.3;">
				<path style="fill-rule:evenodd;clip-rule:evenodd;fill:#6A1851;" d="M1364.7,1566.284
					c-146.259,292.355-84.591,357.378,185.004,195.071C1366.824,1809.45,1305.156,1744.438,1364.7,1566.284"/>
			</g>
			<g style="opacity:0.3;">
				<path style="fill-rule:evenodd;clip-rule:evenodd;fill:#6A1851;" d="M1233.603,1504.403
					c-60.533,115.734-38.596,139.986,65.741,72.743C1244.236,1596.936,1222.323,1572.696,1233.603,1504.403"/>
			</g>
			<g style="opacity:0.3;">
				<path style="fill-rule:evenodd;clip-rule:evenodd;fill:#6A1851;" d="M1455.659,1334.409
					c-110.665,158.094-77.945,185.131,98.162,81.093C1478.516,1430.34,1445.794,1403.314,1455.659,1334.409"/>
			</g>
			<g style="opacity:0.3;">
				<path style="fill-rule:evenodd;clip-rule:evenodd;fill:#6A1851;" d="M1640.92,1852.891
					c39.195,395.01,193.28,465.641,462.207,211.892C1889.263,2204.471,1735.178,2133.829,1640.92,1852.891"/>
			</g>
			<g style="opacity:0.3;">
				<path style="fill-rule:evenodd;clip-rule:evenodd;fill:#6A1851;" d="M2169.812,1945.865
					c-56.82,230.461,9.628,275.319,199.329,134.582C2265.103,2129.455,2198.674,2084.586,2169.812,1945.865"/>
			</g>
			<g style="opacity:0.3;">
				<path style="fill-rule:evenodd;clip-rule:evenodd;fill:#6A1851;" d="M1909.869,2242.434
					c-149.454,412.547,53.926,503.796,386.495,260.211C2051.495,2572.997,1922.67,2486.254,1909.869,2242.434"/>
			</g>
			<g style="opacity:0.3;">
				<path style="fill-rule:evenodd;clip-rule:evenodd;fill:#6A1851;" d="M2352.201,2145.042
					c-101.509,333.395-16.575,371.24,254.84,113.537C2450.706,2355.176,2365.753,2317.331,2352.201,2145.042"/>
			</g>
			<g style="opacity:0.3;">
				<path style="fill-rule:evenodd;clip-rule:evenodd;fill:#6A1851;" d="M2420.214,1870.024
					c33.3,101.026,84.141,105.645,152.585,13.875C2479.889,2071.024,2429.05,2066.393,2420.214,1870.024"/>
			</g>
			<g style="opacity:0.3;">
				<path style="fill-rule:evenodd;clip-rule:evenodd;fill:#6A1851;" d="M1864.561,2925.905
					c97.947,6.378,191.758-8.609,281.471-44.944c-106.589,19.93-176.875-36.729-210.885-169.983
					C1882.401,2802.933,1858.857,2874.583,1864.561,2925.905"/>
			</g>
			<g style="opacity:0.3;">
				<path style="fill-rule:evenodd;clip-rule:evenodd;fill:#6A1851;" d="M1837.993,2934.031
					c13.102-22.73,19.75-48.417,19.941-77.064c-140.66,78.93-258.292,33.109-352.873-137.454
					c-67.974,32.527-111.35,56.714-130.134,72.572C1544.621,2930.16,1698.985,2977.483,1837.993,2934.031"/>
			</g>
			<g style="opacity:0.3;">
				<path style="fill-rule:evenodd;clip-rule:evenodd;fill:#6A1851;" d="M1134.817,2459.91
					c138.133,288.636,224.094,375.809,257.888,261.563c-124.388-51.955-198.191-163.003-221.479-333.18
					C1146.954,2436.045,1134.817,2459.91,1134.817,2459.91"/>
			</g>
			<g style="opacity:0.3;">
				<path style="fill-rule:evenodd;clip-rule:evenodd;fill:#6A1851;" d="M2337.363,2506.441
					c-63.899,260.481,4.995,293.791,206.704,99.932C2455.403,2685.247,2386.508,2651.947,2337.363,2506.441"/>
			</g>
			<g style="opacity:0.3;">
				<path style="fill-rule:evenodd;clip-rule:evenodd;fill:#6A1851;" d="M2595.999,2290.689
					c21.206,65.291,59.095,75.606,113.622,30.931C2617.547,2454.089,2579.68,2443.787,2595.999,2290.689"/>
			</g>
			<g style="opacity:0.3;">
				<path style="fill-rule:evenodd;clip-rule:evenodd;fill:#6A1851;" d="M2588.259,1970.332
					c80.408,182.945,129.038,190.535,145.87,22.76C2689.014,2036.341,2640.384,2028.75,2588.259,1970.332"/>
			</g>
			<g style="opacity:0.25;">
				<path style="fill-rule:evenodd;clip-rule:evenodd;fill:#6A1851;" d="M2861.303,1459.352
					c-74.919,38.317-133.37,61.014-194.138,34.341c191.78,133.563,258.937,311.844,220.275,568.605
					C2988.949,1897.641,2980.243,1696.653,2861.303,1459.352"/>
			</g>
			<g style="opacity:0.25;">
				<path style="fill-rule:evenodd;clip-rule:evenodd;fill:#6A1851;" d="M2040.815,1806.942
					c-119.603,12.381-202.157,80.806-247.678,205.255c-10.915-182.624,127.13-287.38,414.091-314.268
					c-25.602-31.734-44.085-78.671-55.47-140.853c-181.166-7.29-289.277-58.034-324.399-152.251
					c24.765-25.002,37.157-37.491,37.157-37.491c90.293,109.376,203.015,147.673,338.166,114.898
					c26.654,129.651,69.065,216.824,127.238,261.541C2240.208,1794.045,2143.846,1815.101,2040.815,1806.942"/>
			</g>
			<g style="opacity:0.25;">
				<path style="fill-rule:evenodd;clip-rule:evenodd;fill:#6A1851;" d="M2097.896,1022.466
					c7.61,61.38,12.263,109.121,13.936,143.203c-210.799-147.565-420.847-150.975-630.144-10.239
					C1693.495,943.142,1898.891,898.82,2097.896,1022.466"/>
			</g>
			<g style="opacity:0.25;">
				<path style="fill-rule:evenodd;clip-rule:evenodd;fill:#6A1851;" d="M2043.281,733.898
					c17.326,48.373,24.853,118.446,22.58,210.208c-70.503-142.302-208.72-206.724-414.607-193.279
					C1803.793,684.054,1934.485,678.415,2043.281,733.898"/>
			</g>
			<g style="opacity:0.25;">
				<path style="fill-rule:evenodd;clip-rule:evenodd;fill:#6A1851;" d="M2108.273,1284.641
					c48.525,68.839,88.3,91.633,119.283,68.389c60.467-427.192-36.644-714.454-291.379-861.795
					C2067.275,840.54,2124.633,1105.008,2108.273,1284.641"/>
			</g>
			<g style="opacity:0.25;">
				<path style="fill-rule:evenodd;clip-rule:evenodd;fill:#6A1851;" d="M2304.706,687.635
					c46.101,100.672,83.153,167.658,111.113,200.989c-60.766-89.843-4.416-226.044,169.052-408.623
					C2453.6,525.319,2360.198,594.534,2304.706,687.635"/>
			</g>
			<g style="opacity:0.25;">
				<path style="fill-rule:evenodd;clip-rule:evenodd;fill:#6A1851;" d="M2389.06,940.922
					c-21.228,348.264-13.381,469.896,23.564,364.892c-14.386-335.88,203.38-494.394,653.282-475.524
					C2821.357,687.883,2587.872,724.356,2389.06,940.922"/>
			</g>
			<g style="opacity:0.25;">
				<path style="fill-rule:evenodd;clip-rule:evenodd;fill:#6A1851;" d="M2474.893,1320.802
					c335.378-162.145,571.541-134.936,708.473,81.642c-111.308-107.114-274.032-176.577-464.525-112.636
					c-188.583,63.288-324.85,137.766-447.843,132.771C2212.439,1397.427,2280.413,1363.506,2474.893,1320.802"/>
			</g>
			<g>
				<path style="fill:#6A1851;" d="M2893.805,2133.348c-7.036,0-13.669-3.525-17.593-9.478
					c-144.837-219.666-227.92-246.042-378.75-293.923c-45.342-14.394-96.421-30.61-156.638-54.297
					c-54.09,32.671-145.581,49.048-278.931,49.993c-129.394,12.695-210.754,75.847-248.701,193.045
					c-2.815,8.689-10.901,14.578-20.032,14.585c-0.007,0-0.015,0-0.022,0c-9.124,0-17.212-5.869-20.039-14.543
					c-77.515-237.749-53.198-453.716,72.253-642.161c-102.139-153.643-220.293-219.155-360.852-200.249
					c-7.581,1.04-15.11-2.141-19.688-8.262c-4.58-6.118-5.488-14.238-2.373-21.218c38.142-85.449,141.643-151.772,316.216-202.529
					c-0.586-90.454-47.454-145.268-142.876-167.354c-8.555-1.98-14.985-9.058-16.14-17.761c-1.157-8.706,3.206-17.214,10.95-21.357
					c128.235-68.63,257.471-81.133,384.678-37.363c-15.01-49.182-53.101-113.296-113.701-191.277
					c-4.268-5.493-5.552-12.737-3.433-19.36c2.122-6.624,7.373-11.775,14.036-13.767c134.995-40.391,264.851,16.392,386.365,168.75
					c39.102-78.128,133.101-140.242,280.205-184.985c8.765-2.659,18.25,0.637,23.462,8.169
					c38.01,54.905,66.695,142.261,87.485,266.641c134.68-27.488,268.936,1.174,399.419,85.378
					c7.012,4.524,10.693,12.761,9.39,21.003c-1.304,8.245-7.349,14.941-15.415,17.08c-92.834,24.619-163.33,84.612-203.865,173.491
					c-25.417,55.769-61.457,108.472-109.526,160.007c241.658-2.244,387.471,66.348,433.662,204.141
					c2.524,7.534,0.598,15.85-4.983,21.504c-5.583,5.652-13.875,7.69-21.435,5.266c-95.725-30.676-189.961-16.357-287.542,43.848
					c110.007,202.122,118.091,421.995,23.948,653.835c-2.944,7.251-9.666,12.275-17.454,13.047
					C2895.189,2133.314,2894.496,2133.348,2893.805,2133.348z M2338.48,1730.963c2.646,0,5.308,0.498,7.837,1.511
					c63.235,25.337,116.716,42.314,163.901,57.295c146.897,46.633,238.511,75.71,378.367,277.144
					c75.948-212.073,60.688-412.759-45.542-597.034c-5.549-9.624-2.676-21.9,6.565-28.064
					c98.694-65.818,198.325-89.451,296.775-70.561c-58.323-101.177-201.963-146.895-427.923-135.986
					c-8.813,0.444-16.956-4.683-20.408-12.795c-3.457-8.118-1.492-17.527,4.922-23.581
					c63.394-59.861,108.496-120.303,137.883-184.78c39.204-85.957,103.206-148.101,186.636-181.863
					c-115.181-63.584-232.707-80.974-349.936-51.626c-5.75,1.438-11.841,0.393-16.778-2.888c-4.937-3.279-8.267-8.486-9.17-14.343
					c-18.22-118.057-43.681-204.878-75.771-258.486c-145.647,46.709-229.98,109.968-250.762,188.147
					c-2.087,7.847-8.494,13.799-16.475,15.298c-7.976,1.504-16.113-1.714-20.906-8.264
					c-108.625-148.435-217.922-211.155-333.14-190.842c69.583,93.652,105.544,166.821,109.741,223.088
					c0.549,7.346-2.778,14.448-8.777,18.726c-5.999,4.28-13.796,5.117-20.566,2.205c-112.901-48.535-223.831-48.857-337.693-0.684
					c85.552,36.521,127.922,107.783,123.191,208.726c-0.427,9.084-6.628,16.87-15.386,19.314
					c-143.096,39.956-238.472,90.491-284.38,150.549c142.048-3.601,265.581,74.985,367.727,234.253
					c4.592,7.161,4.431,16.382-0.413,23.377c-114.111,164.819-144.778,352.939-91.45,559.949
					c50.227-97.756,138.181-153.232,262.232-165.151c0.625-0.059,1.252-0.093,1.88-0.095
					c131.563-0.859,220.955-17.244,265.691-48.699C2329.958,1732.264,2334.2,1730.963,2338.48,1730.963z"/>
			</g>
			<g>
				<path style="fill:#6A1851;" d="M2704.74,1516.205c-58.853,0-117.031-11.523-176.963-23.391
					c-11.941-2.366-24.021-4.758-36.272-7.097c-31.555-6.023-60.864-10.745-86.724-14.912
					c-104.052-16.76-172.793-27.832-191.96-95.042c-3.193-11.194,3.293-22.859,14.487-26.05c11.199-3.21,22.856,3.296,26.05,14.487
					c11.335,39.744,56.667,48.643,158.127,64.988c26.14,4.209,55.771,8.982,87.923,15.122c12.348,2.356,24.524,4.768,36.558,7.151
					c112.514,22.28,209.68,41.528,316.001-11.006c10.432-5.159,23.074-0.876,28.233,9.561c5.156,10.437,0.876,23.076-9.561,28.232
					C2813.558,1506.451,2758.864,1516.205,2704.74,1516.205z"/>
			</g>
			<g>
				<path style="fill:#6A1851;" d="M2265.58,1397.086c-64.844,0-122.004-33.818-168.232-100.425
					c-2.512-3.618-3.826-7.932-3.76-12.334c2.341-156.301-21.479-339.839-70.803-545.515
					c-21.34-85.112-61.865-162.104-120.398-228.625c-4.905-5.571-6.516-13.313-4.241-20.378c2.273-7.068,8.096-12.417,15.33-14.085
					c135.854-31.321,254.617,12.835,352.959,131.245c159.497,200.564,192.715,455.464,99.016,757.969
					c-1.855,5.989-6.279,10.84-12.07,13.24C2322.867,1390.809,2293.507,1397.086,2265.58,1397.086z M2135.824,1278.046
					c52.229,71.982,115.273,93.218,192.312,64.756c85.677-284.138,53.926-522.707-94.411-709.248
					c-79.749-96.011-170.51-136.531-276.297-122.969c50.53,64.893,86.226,138.123,106.297,218.189
					C2113.197,935.067,2137.428,1119.754,2135.824,1278.046z"/>
			</g>
			<g>
				<path style="fill-rule:evenodd;clip-rule:evenodd;fill:#FEC827;" d="M2338.285,1780.857
					c7.698,18.997,14.559,44.814,20.563,77.418c-58.344,28.175-122.864,49.541-193.517,64.101
					c-13.464-58.677-24.357-95.76-32.676-111.286C2212.055,1814.425,2280.604,1804.347,2338.285,1780.857z"/>
			</g>
			<g>
				<path style="fill:#6A1851;" d="M2165.311,1943.458c-9.624,0-18.289-6.626-20.525-16.367
					c-16.162-70.44-25.62-96.548-30.711-106.047c-3.574-6.67-3.296-14.746,0.725-21.157c4.026-6.409,11.26-10.164,18.738-9.856
					c75.967,3.184,142.202-6.462,196.797-28.694c5.183-2.109,10.991-2.075,16.147,0.105c5.156,2.175,9.236,6.313,11.335,11.501
					c8.206,20.247,15.525,47.671,21.758,81.516c1.719,9.336-3.015,18.667-11.565,22.795
					c-59.619,28.792-126.38,50.918-198.426,65.767C2168.151,1943.317,2166.72,1943.458,2165.311,1943.458z M2163.693,1832.777
					c4.612,14.482,10.315,34.971,17.424,64.597c55.196-12.642,106.802-29.812,153.882-51.201
					c-2.986-14.326-6.162-27.039-9.504-38.054C2277.96,1824.305,2223.727,1832.567,2163.693,1832.777z"/>
			</g>
		</g>
		<g style="opacity:0.25;">
			<ellipse style="fill:#6A1851;" cx="2029.605" cy="3415" rx="870" ry="100"/>
		</g>
	</g>
</g>
</svg>
