<?xml version="1.0" encoding="utf-8"?>
<!-- Generator: Adobe Illustrator 27.5.0, SVG Export Plug-In . SVG Version: 6.00 Build 0)  -->
<svg version="1.1" id="Layer_1" xmlns="http://www.w3.org/2000/svg" xmlns:xlink="http://www.w3.org/1999/xlink" x="0px" y="0px"
	 viewBox="0 0 4000 4000" style="enable-background:new 0 0 4000 4000;" xml:space="preserve">
<g>
	<g>
		<!-- <rect style="fill:#B478F4;" width="4000" height="4000"/> -->
	</g>
	<g>
		<g>
			<g>
				<path style="fill:#FFFFFF;" d="M2466.802,3388.771c-2.979,0-5.986-0.708-8.765-2.178
					c-178.652-94.46-432.637-101.191-443.037-101.418c-10.401,0.227-264.38,6.958-443.037,101.418
					c-7.964,4.216-17.837,2.163-23.457-4.9c-2.915-3.657-296.348-367.297-722.578-499.902c-7.793-2.424-13.125-9.612-13.193-17.773
					c-0.039-4.57-6.953-461.228-279.107-839.578c-2.978-4.141-4.141-9.314-3.227-14.331c0.913-5.015,3.833-9.443,8.081-12.266
					c0.645-0.437,69.995-47.979,147.236-177.512c71.509-119.924,164.531-336.506,201.582-687.275
					c0.845-7.988,6.675-14.553,14.507-16.333c3.486-0.798,353.364-84.492,660.229-468.445c5.718-7.156,15.781-9.143,23.794-4.683
					c1.221,0.671,130.122,69.59,429.17,69.59s427.949-68.919,429.219-69.614c7.993-4.39,18.052-2.424,23.745,4.707
					c306.865,383.953,656.743,467.646,660.244,468.447c7.817,1.79,13.652,8.355,14.492,16.331
					c37.051,350.769,130.073,567.351,201.582,687.275c77.246,129.534,146.597,177.075,147.29,177.542
					c4.214,2.834,7.124,7.273,8.022,12.275c0.894,5-0.249,10.166-3.218,14.292c-272.158,378.349-279.072,835.007-279.111,839.578
					c-0.068,8.162-5.4,15.349-13.193,17.773c-426.23,132.605-719.663,496.245-722.578,499.902
					C2477.832,3386.293,2472.368,3388.771,2466.802,3388.771z M849.912,2850.014c223.057,72.183,407.353,204.446,523.52,303.635
					c102.983,87.925,170.469,164.185,194.619,192.766c188.14-93.486,435.938-98.611,446.641-98.787c0.205-0.005,0.41-0.005,0.615,0
					c10.703,0.176,258.501,5.3,446.646,98.787c24.146-28.582,91.631-104.841,194.614-192.766
					c116.167-99.189,300.464-231.453,523.521-303.635c1.348-35.488,7.617-136.287,36.738-269.854
					c32.217-147.781,99.663-363.835,238.574-562.827c-25.928-21.55-81.309-74.502-141.592-174.814
					c-73.232-121.868-168.14-340.522-207.046-692.586c-29.624-8.252-106.763-32.773-208.877-88.071
					c-116.333-62.998-287.856-179.497-449.854-378.496c-41.875,18.574-176.323,67.363-433.032,67.363
					s-391.157-48.789-433.032-67.363c-161.997,198.999-333.521,315.498-449.854,378.496
					c-102.114,55.298-179.253,79.819-208.877,88.071c-38.906,352.063-133.814,570.718-207.046,692.586
					c-60.278,100.313-115.659,153.264-141.587,174.814c138.911,198.992,206.352,415.046,238.574,562.827
					C842.295,2713.727,848.564,2814.526,849.912,2850.014z"/>
			</g>
			<g>
				<path style="fill:#FFFFFF;" d="M1563.193,3388.776c-1.968,0-3.96-0.31-5.928-0.964c-9.839-3.269-15.161-13.896-11.89-23.735
					l443.584-1334.302l-1440.059,2.476c-0.015,0-0.024,0-0.034,0c-10.352,0-18.755-8.384-18.774-18.74
					c-0.015-10.366,8.374-18.787,18.74-18.804l1466.133-2.52c0.015,0,0.024,0,0.034,0c6.025,0,11.685,2.893,15.215,7.776
					c3.535,4.895,4.502,11.189,2.598,16.919l-451.812,1359.04C1578.384,3383.793,1571.054,3388.776,1563.193,3388.776z"/>
			</g>
			<g>
				<path style="fill:#FFFFFF;" d="M831.518,2882.641c-5.83,0-11.577-2.708-15.244-7.8c-6.06-8.411-4.155-20.142,4.253-26.204
					l1172.393-844.905L1558.843,665.793c-3.198-9.861,2.202-20.449,12.065-23.65c9.863-3.193,20.439,2.202,23.647,12.063
					l438.301,1350.959c2.515,7.759-0.264,16.255-6.88,21.023L842.48,2879.096C839.16,2881.489,835.322,2882.641,831.518,2882.641z"
					/>
			</g>
			<g>
				<path style="fill:#FFFFFF;" d="M2014.985,2029.731c-4.072,0-8.174-1.318-11.621-4.041L894.331,1149.76
					c-8.135-6.426-9.521-18.23-3.096-26.367c6.431-8.132,18.237-9.524,26.367-3.096l1109.033,875.93
					c8.135,6.426,9.521,18.23,3.096,26.367C2026.025,2027.285,2020.532,2029.731,2014.985,2029.731z"/>
			</g>
			<g>
				<path style="fill:#FFFFFF;" d="M2466.806,3388.776c-7.861,0-15.19-4.98-17.808-12.854l-451.812-1359.04
					c-1.904-5.73-0.938-12.024,2.598-16.919c3.53-4.883,9.189-7.776,15.215-7.776c0.01,0,0.019,0,0.034,0l1466.138,2.52
					c10.366,0.017,18.755,8.438,18.735,18.804c-0.015,10.356-8.418,18.74-18.77,18.74c-0.01,0-0.02,0-0.034,0l-1440.064-2.476
					l443.584,1334.302c3.271,9.839-2.051,20.466-11.89,23.735C2470.766,3388.466,2468.769,3388.776,2466.806,3388.776z"/>
			</g>
			<g>
				<path style="fill:#FFFFFF;" d="M3198.481,2882.641c-3.804,0-7.642-1.152-10.962-3.545l-1183.496-852.908
					c-6.616-4.768-9.395-13.264-6.88-21.023l438.301-1350.959c3.198-9.861,13.779-15.266,23.647-12.063
					c9.863,3.201,15.264,13.789,12.065,23.65L2037.08,2003.732l1172.393,844.905c8.408,6.062,10.313,17.793,4.253,26.204
					C3210.058,2879.931,3204.311,2882.641,3198.481,2882.641z"/>
			</g>
			<g>
				<path style="fill:#FFFFFF;" d="M2015.014,2029.731c-5.547,0-11.04-2.446-14.746-7.136c-6.426-8.137-5.039-19.941,3.096-26.367
					l1109.033-875.93c8.145-6.431,19.941-5.039,26.367,3.096c6.426,8.137,5.039,19.941-3.096,26.367l-1109.033,875.93
					C2023.188,2028.412,2019.087,2029.731,2015.014,2029.731z"/>
			</g>
			<g>
				<path style="fill:#FFFFFF;" d="M1635.776,3171.125c-5.571,0-11.035-2.478-14.697-7.078
					c-2.441-3.064-248.223-307.59-605.049-418.604c-7.793-2.424-13.125-9.612-13.193-17.773
					c-0.034-3.826-5.869-386.238-233.716-702.986c-2.979-4.141-4.146-9.314-3.228-14.331c0.913-5.015,3.833-9.446,8.081-12.266
					c0.522-0.354,58.428-40.144,122.944-148.496c59.761-100.371,137.51-281.636,168.521-575.19
					c0.845-7.988,6.675-14.553,14.507-16.333c2.91-0.667,295.654-70.791,552.49-392.144c5.713-7.158,15.781-9.141,23.794-4.683
					c1.006,0.552,108.784,58.032,358.77,58.032s357.764-57.48,358.823-58.061c8.008-4.382,18.052-2.41,23.74,4.712
					c256.836,321.353,549.58,391.477,552.505,392.148c7.817,1.789,13.652,8.354,14.492,16.328
					c31.011,293.555,108.76,474.819,168.521,575.19c64.517,108.352,122.422,148.142,122.998,148.53
					c4.209,2.839,7.119,7.278,8.013,12.278c0.894,4.998-0.249,10.164-3.213,14.285
					c-228.125,317.131-233.682,699.158-233.711,702.978c-0.063,8.167-5.396,15.354-13.193,17.781
					c-356.831,111.013-602.607,415.54-605.049,418.604c-5.62,7.056-15.479,9.124-23.457,4.9
					c-149.023-78.789-361.001-84.565-370.469-84.778c-9.468,0.212-221.445,5.989-370.464,84.778
					C1641.757,3170.417,1638.75,3171.125,1635.776,3171.125z M1039.917,2713.647c324.936,105.73,551.333,356.743,600.732,415.149
					c158.267-77.761,365.073-82.026,374.043-82.173c0.205-0.005,0.41-0.005,0.615,0c8.97,0.146,215.776,4.412,374.048,82.173
					c49.395-58.406,275.791-309.419,600.732-415.149c3.271-71.345,29.194-407.053,229.849-696.077
					c-54.614-45.871-236.416-232.981-291.309-726.289c-60.786-17.021-316.162-102.583-551.045-390.344
					c-37.793,16.367-150.947,55.881-362.583,55.881s-324.79-39.514-362.583-55.881
					c-234.883,287.761-490.259,373.323-551.045,390.344c-54.893,493.308-236.694,680.417-291.309,726.289
					C1010.718,2306.594,1036.645,2642.302,1039.917,2713.647z"/>
			</g>
			<g>
				<path style="fill:#FFFFFF;" d="M2320.625,2950.385c-2.974,0-5.981-0.708-8.76-2.177
					c-119.004-62.918-288.447-67.705-296.865-67.901c-8.418,0.195-177.861,4.983-296.86,67.901
					c-7.983,4.223-17.832,2.153-23.457-4.898c-1.963-2.461-199.414-247.039-485.854-336.155
					c-7.793-2.424-13.125-9.612-13.193-17.771c-0.029-3.074-4.766-310.183-187.666-564.453c-2.978-4.141-4.146-9.314-3.227-14.331
					c0.913-5.017,3.833-9.443,8.081-12.266c1.787-1.211,185.742-130.508,233.286-580.579c0.845-7.988,6.675-14.553,14.507-16.333
					c2.329-0.535,237.134-56.897,443.228-314.758c5.713-7.158,15.771-9.141,23.794-4.683c0.781,0.427,87.134,46.309,287.363,46.309
					c200.234,0,286.582-45.881,287.432-46.345c7.993-4.363,18.037-2.395,23.726,4.719
					c206.665,258.574,440.884,314.226,443.228,314.758c7.832,1.78,13.662,8.345,14.507,16.333
					c47.798,452.476,231.44,579.348,233.286,580.579c4.248,2.822,7.168,7.248,8.081,12.266c0.918,5.017-0.249,10.191-3.228,14.331
					c-182.9,254.27-187.637,561.379-187.666,564.453c-0.068,8.159-5.4,15.347-13.193,17.771
					c-286.44,89.116-483.887,333.694-485.85,336.155C2331.655,2947.907,2326.196,2950.385,2320.625,2950.385z M1232.778,2575.4
					c257.568,84.7,438.071,281.841,481.47,332.715c127.949-61.821,293.228-65.237,300.444-65.354c0.205-0.005,0.41-0.005,0.615,0
					c7.217,0.117,172.495,3.533,300.449,65.354c43.394-50.874,223.896-248.015,481.465-332.715
					c2.69-62.908,23.511-324.985,183.989-557.71c-47.28-40.886-189.399-193.85-233.247-583.113
					c-53.213-15.295-255.381-85.659-441.85-313.008c-33.228,13.936-124.673,44.265-291.113,44.265
					c-166.45,0-257.896-30.332-291.113-44.265c-186.47,227.349-388.638,297.712-441.851,313.008
					c-43.848,389.263-185.967,542.226-233.247,583.113C1209.267,2250.414,1230.088,2512.492,1232.778,2575.4z"/>
			</g>
			<g>
				<path style="fill:#FFFFFF;" d="M1776.123,2750.217c-5.566,0-11.03-2.478-14.697-7.075
					c-1.524-1.914-155.146-192.126-377.764-261.384c-7.798-2.427-13.13-9.614-13.193-17.781
					c-0.024-2.378-3.77-241.206-145.913-438.818c-2.979-4.141-4.146-9.314-3.228-14.331c0.913-5.017,3.833-9.443,8.081-12.266
					c1.348-0.921,143.623-101.433,180.532-450.811c0.845-7.988,6.675-14.553,14.507-16.333
					c1.797-0.413,184.063-44.294,344.141-244.583c5.718-7.161,15.776-9.141,23.794-4.685c0.571,0.31,67.495,35.679,222.617,35.679
					s222.046-35.369,222.705-35.725c7.988-4.341,18.022-2.375,23.706,4.732c160.078,200.288,342.344,244.17,344.165,244.59
					c7.808,1.797,13.643,8.359,14.482,16.326c36.904,349.377,179.189,449.89,180.625,450.867c4.185,2.847,7.09,7.295,7.969,12.283
					c0.884,4.985-0.244,10.147-3.203,14.258c-142.148,197.612-145.894,436.44-145.918,438.831
					c-0.068,8.157-5.405,15.344-13.193,17.769c-222.617,69.258-376.24,259.47-377.764,261.384
					c-5.64,7.053-15.498,9.109-23.457,4.897c-91.812-48.545-222.754-52.419-230.117-52.595
					c-7.363,0.176-138.301,4.05-230.117,52.595C1782.104,2749.509,1779.096,2750.217,1776.123,2750.217z M1407.563,2450.016
					c197.002,65.72,336.099,214.734,373.428,258.01c100.42-47.4,228.076-50.037,233.701-50.129c0.205-0.005,0.41-0.005,0.615,0
					c5.625,0.093,133.286,2.729,233.701,50.129c37.329-43.276,176.426-192.29,373.428-258.01
					c2.612-53.862,20.474-253.589,142.358-432.256c-39.907-35.796-146.748-157.236-180.664-453.267
					c-45.562-13.533-199.912-69.792-342.842-242.888c-28.589,11.499-100.22,33.767-226.289,33.767s-197.7-22.268-226.289-33.767
					c-142.93,173.096-297.28,229.355-342.842,242.888c-33.916,296.03-140.752,417.471-180.659,453.267
					C1387.089,2196.427,1404.951,2396.154,1407.563,2450.016z"/>
			</g>
			<g>
				<path style="fill:#FFFFFF;" d="M2197.348,2580.663c-2.979,0.002-5.981-0.706-8.765-2.178
					c-69.014-36.487-167.212-39.478-173.574-39.631c-6.25,0.156-104.722,3.218-173.594,39.631
					c-7.978,4.216-17.842,2.163-23.462-4.905c-1.152-1.44-117.647-145.605-286.201-198.044c-7.798-2.427-13.13-9.615-13.193-17.781
					c-0.02-1.797-2.92-182.786-110.547-332.407c-2.979-4.141-4.146-9.314-3.228-14.331c0.913-5.015,3.833-9.443,8.081-12.266
					c0.967-0.664,107.954-76.799,135.85-340.889c0.845-7.988,6.675-14.553,14.507-16.333c1.343-0.31,139.107-33.618,260.21-185.142
					c5.718-7.163,15.776-9.143,23.794-4.685c0.381,0.208,50.859,26.675,167.774,26.675c116.914,0,167.393-26.467,167.886-26.736
					c8.003-4.294,18.027-2.341,23.682,4.746c121.104,151.523,258.867,184.831,260.244,185.149
					c7.798,1.807,13.633,8.367,14.473,16.326c27.896,264.089,134.883,340.224,135.962,340.962c4.17,2.857,7.065,7.31,7.935,12.288
					c0.874,4.978-0.244,10.134-3.193,14.236c-107.627,149.621-110.527,330.61-110.547,332.422
					c-0.073,8.154-5.405,15.344-13.193,17.766c-168.936,52.556-285.049,196.596-286.201,198.044
					C2208.384,2578.185,2202.92,2580.663,2197.348,2580.663z M2015,2501.305c0.102,0,0.205,0,0.307,0.002
					c4.277,0.071,100.117,2.053,177.163,37.273c31.528-36.04,135.708-145.024,281.934-194.761
					c2.52-45.203,17.549-192.769,107.134-326.055c-32.905-30.872-110.591-125.09-136.172-343.257
					c-38.237-11.821-152.598-55.857-259.009-183.513c-24.126,9.214-78.838,24.927-171.357,24.927s-147.232-15.713-171.357-24.927
					c-106.411,127.656-220.771,171.692-259.009,183.513c-25.581,218.167-103.267,312.385-136.172,343.257
					c89.585,133.286,104.614,280.852,107.134,326.055c146.226,49.736,250.405,158.721,281.934,194.761
					c77.046-35.22,172.886-37.202,177.163-37.273C2014.795,2501.305,2014.897,2501.305,2015,2501.305z"/>
			</g>
			<g>
				<g>
					<path style="fill:#FFFFFF;" d="M1884.868,2424.076c-5.571,0.002-11.03-2.478-14.697-7.083
						c-0.806-1.008-83.023-102.649-201.651-139.556c-7.798-2.427-13.13-9.614-13.193-17.781
						c-0.015-1.255-2.139-128.831-77.881-234.133c-2.979-4.141-4.141-9.314-3.228-14.331s3.833-9.446,8.081-12.266
						c0.591-0.415,75-54.036,94.58-239.375c0.845-7.988,6.675-14.553,14.507-16.333c0.918-0.212,97.588-23.753,182.7-130.244
						c5.723-7.158,15.772-9.15,23.794-4.682c0.191,0.098,35.474,18.357,117.119,18.357s116.929-18.259,117.275-18.445
						c7.974-4.243,17.993-2.283,23.638,4.77c85.112,106.492,181.782,130.032,182.749,130.256
						c7.783,1.814,13.618,8.371,14.458,16.321c19.58,185.339,93.994,238.96,94.741,239.48c4.136,2.869,7.026,7.334,7.881,12.295
						c0.85,4.961-0.244,10.11-3.184,14.197c-75.747,105.305-77.871,232.878-77.886,234.155c-0.078,8.149-5.41,15.337-13.193,17.759
						c-119.004,37.024-200.835,138.535-201.646,139.556c-5.62,7.063-15.474,9.128-23.462,4.905
						c-47.861-25.303-116.133-27.527-121.362-27.659c-5.112,0.134-73.657,2.429-121.377,27.659
						C1890.854,2423.368,1887.846,2424.076,1884.868,2424.076z M2015,2356.691c0.102,0,0.205,0,0.307,0.002
						c3.032,0.049,69.575,1.426,124.942,25.464c25.313-28.335,97.505-101.296,197.476-136.396
						c2.397-35.974,14.419-136.221,74.678-228.076c-25.532-25.523-77.188-93.96-95.19-241.626
						c-30.439-9.961-108.467-42.28-181.631-128.706c-19.341,6.848-58.242,16.841-120.581,16.841
						c-62.339,0-101.24-9.993-120.581-16.841c-73.164,86.426-151.191,118.745-181.631,128.706
						c-17.998,147.666-69.653,216.103-95.186,241.626c60.254,91.855,72.275,192.102,74.673,228.076
						c99.976,35.1,172.168,108.062,197.48,136.396c55.361-24.041,121.904-25.415,124.937-25.464
						C2014.795,2356.691,2014.897,2356.691,2015,2356.691z"/>
				</g>
			</g>
			<g>
				<g>
					<path style="fill:#FFFFFF;" d="M1927.827,2295.241c-5.571,0.002-11.03-2.478-14.697-7.083
						c-0.523-0.652-54.531-67.305-132.08-91.431c-7.798-2.427-13.13-9.614-13.193-17.781c-0.01-0.806-1.489-84.436-51.011-153.279
						c-2.979-4.141-4.146-9.314-3.228-14.331c0.913-5.015,3.833-9.446,8.081-12.266c0.244-0.183,47.891-35.278,60.63-155.85
						c0.845-7.988,6.675-14.553,14.507-16.333c0.552-0.129,63.418-15.63,118.926-85.081c5.718-7.158,15.776-9.146,23.794-4.68l0,0
						c0.01,0,22.813,11.516,75.444,11.516c52.661,0,75.464-11.528,75.688-11.646c7.998-4.456,17.837-2.351,23.555,4.812
						c56.055,70.134,118.301,84.937,118.926,85.078c7.832,1.78,13.662,8.345,14.507,16.333
						c12.769,120.908,60.151,155.532,60.625,155.85c4.248,2.82,7.168,7.251,8.081,12.266c0.918,5.017-0.249,10.191-3.228,14.331
						c-49.521,68.843-51.001,152.473-51.011,153.31c-0.088,8.142-5.415,15.33-13.193,17.749
						c-77.544,24.126-131.553,90.779-132.09,91.45c-5.625,7.036-15.483,9.097-23.447,4.885
						c-30.313-16.025-74.214-17.686-78.418-17.808c-4.121,0.12-48.071,1.77-78.403,17.808
						C1933.813,2294.533,1930.805,2295.241,1927.827,2295.241z M2015,2237.707c0.102,0,0.205,0,0.307,0.002
						c2.012,0.034,44.595,0.913,81.948,15.859c19.204-20.85,65.352-65.31,128.071-88.45c2.222-26.921,11.27-89.277,48.081-147.622
						c-18.467-20.117-49.756-66.533-61.616-157.969c-22.793-8.057-71.641-30.259-117.959-83.579
						c-14.531,4.653-40.049,10.239-78.833,10.239c-38.784,0-64.297-5.583-78.828-10.239c-46.323,53.32-95.166,75.522-117.959,83.579
						c-11.86,91.436-43.154,137.852-61.621,157.969c36.811,58.345,45.859,120.701,48.081,147.622
						c62.725,23.14,108.872,67.6,128.076,88.45c37.349-14.946,79.932-15.825,81.943-15.859
						C2014.795,2237.707,2014.897,2237.707,2015,2237.707z"/>
				</g>
			</g>
			<g>
				<g>
					<path style="fill:#FFFFFF;" d="M1965.014,2183.71c-5.571,0.002-11.03-2.478-14.697-7.083
						c-0.269-0.332-29.858-36.704-71.856-49.77c-7.798-2.427-13.13-9.615-13.193-17.781c-0.01-0.403-0.923-45.996-27.744-83.284
						c-3.081-4.285-4.653-9.397-3.564-14.561c1.069-5.078,3.775-9.221,8.188-11.902c2.315-1.912,24.961-22.119,31.465-83.677
						c0.845-7.988,6.675-14.553,14.507-16.333c0.2-0.049,33.828-8.581,63.716-45.979c5.718-7.156,15.786-9.143,23.789-4.682
						c0-0.002-0.005-0.002-0.005-0.002c0.049,0,12.124,5.596,39.38,5.596c27.642,0,39.673-5.757,39.79-5.816
						c7.998-4.46,17.651-2.256,23.374,4.905c29.888,37.398,63.516,45.93,63.853,46.011c7.7,1.875,13.54,8.418,14.37,16.301
						c6.504,61.558,29.15,81.765,31.465,83.677c4.414,2.681,7.119,6.824,8.188,11.902c1.089,5.163-0.483,10.276-3.564,14.561
						c-27.08,37.649-27.739,82.832-27.744,83.284c-0.063,8.167-5.396,15.354-13.193,17.781
						c-41.997,13.066-71.587,49.438-71.88,49.804c-5.645,7.019-15.483,9.072-23.438,4.871c-13.423-7.097-33.97-9.089-41.226-9.282
						c-7.207,0.191-27.783,2.178-41.216,9.282C1971.001,2183.002,1967.993,2183.71,1965.014,2183.71z M2015,2134.701
						c0.102,0,0.205,0,0.307,0.002c2.818,0.046,23.95,0.63,44.707,7.756c12.554-12.888,36.572-34.255,68.12-47.063
						c1.914-17.117,7.7-48.066,25.161-78.091c-11.182-13.848-26.079-40.034-32.739-85.686c-14.546-5.828-39.156-18.625-62.959-44.6
						c-9.395,2.466-23.33,4.775-42.598,4.775c-19.268,0-33.203-2.31-42.598-4.775c-23.804,25.974-48.413,38.772-62.959,44.6
						c-6.66,45.652-21.558,71.838-32.739,85.686c17.461,30.024,23.247,60.974,25.161,78.091
						c31.548,12.808,55.566,34.175,68.12,47.063c20.757-7.126,41.89-7.71,44.707-7.756
						C2014.795,2134.701,2014.897,2134.701,2015,2134.701z M1975.625,1848.659h0.054H1975.625z"/>
				</g>
			</g>
		</g>
		<g>
			<g>
				<g>
					<path style="fill:#817C93;" d="M1565.552,2460.635c0,0-0.047,0-0.094,0.047l-0.141,0.141l-0.657,0.516l-1.642,1.314
						l-3.661,3.05c-2.534,2.206-5.162,4.552-7.79,6.993c-5.209,4.834-10.512,10.043-15.675,15.44
						c-10.371,10.747-20.414,22.245-29.988,34.259c-19.194,23.981-36.417,50.027-51.904,77.153
						c-15.299,27.266-28.956,55.612-40.36,85.084c-9.902,25.201-18.302,51.107-25.436,77.481c0.986,4.646,2.065,9.339,3.238,14.079
						c3.144,12.812,6.945,25.718,11.122,38.576c8.4,25.671,18.772,50.919,30.833,75.51c6.054,12.249,12.671,24.31,19.57,36.183
						c7.086,11.78,14.501,23.465,22.48,34.729c15.909,22.62,33.883,43.926,53.641,63.871l0.469,0.469
						c11.216,11.31,11.169,29.566-0.141,40.782c-9.668,9.574-24.404,10.935-35.479,4.083c-26.75-16.519-52.374-35.385-76.261-56.457
						c-12.014-10.512-23.465-21.635-34.681-33.039c-11.076-11.545-21.823-23.465-32.147-35.808
						c-20.508-24.732-39.421-50.919-56.503-78.607c-8.494-13.797-16.66-27.97-24.263-42.659
						c-3.801-7.321-7.509-14.783-11.076-22.432c-1.783-3.848-3.566-7.743-5.303-11.779l-2.581-6.242l-1.314-3.285l-0.704-1.83
						c-0.235-0.657-0.422-1.173-0.798-2.394c-3.098-11.685-3.003-23.465-0.281-34.447l0.094-0.422
						c9.151-36.465,20.649-72.554,34.446-107.845c13.75-35.338,30.223-69.738,48.948-103.011
						c18.913-33.227,40.172-65.28,64.341-95.596c12.108-15.159,24.92-29.848,38.67-44.114c6.852-7.133,13.938-14.126,21.447-21.072
						c3.707-3.473,7.603-6.946,11.592-10.419l6.336-5.303l3.426-2.769l4.599-3.52c31.349-22.996,75.416-16.238,98.412,15.111
						C1603.237,2393.713,1596.62,2437.546,1565.552,2460.635z"/>
				</g>
				<g style="opacity:0.3;">
					<path style="fill:#000072;" d="M1580.335,2362.458c-21.779-29.69-62.44-37.278-93.316-18.468
						c1.386,1.349,2.767,2.709,4.064,4.188c26.433,30.183,23.546,75.993-6.427,102.604c0,0-0.048,0.004-0.092,0.056l-0.133,0.158
						l-0.631,0.592l-1.576,1.503l-3.502,3.475c-2.416,2.503-4.916,5.16-7.407,7.914c-4.939,5.454-9.941,11.304-14.782,17.336
						c-9.733,12.018-19.059,24.781-27.856,38.034c-17.645,26.463-33.071,54.878-46.608,84.251
						c-13.332,29.501-24.872,59.969-33.987,91.395c-6.521,22.053-11.957,44.504-16.453,67.231
						c-1.917,9.687-1.458,19.725,1.734,29.069c0.016,0.048,0.033,0.096,0.049,0.144c4.395,12.934,9.476,25.905,14.94,38.794
						c10.972,25.726,23.94,50.839,38.591,75.122c7.346,12.091,15.255,23.938,23.439,35.566c8.369,11.514,17.068,22.902,26.31,33.803
						c18.444,21.905,38.9,42.267,61.073,61.067l0.526,0.442c11.154,9.446,13.653,25.307,6.662,37.556
						c11.261,1.621,23.294-3.258,29.771-15.061c6.074-11.07,3.605-24.924-5.32-33.855l-0.314-0.314
						c-19.758-19.945-37.732-41.251-53.641-63.871c-7.978-11.263-15.393-22.949-22.48-34.729
						c-6.899-11.873-13.516-23.934-19.57-36.183c-12.061-24.591-22.433-49.84-30.833-75.51
						c-4.177-12.859-7.978-25.764-11.122-38.576c-1.173-4.74-2.253-9.433-3.238-14.079c7.133-26.375,15.534-52.28,25.436-77.481
						c11.404-29.472,25.061-57.817,40.36-85.084c15.487-27.126,32.71-53.172,51.904-77.153
						c9.574-12.014,19.617-23.512,29.988-34.259c5.162-5.397,10.466-10.606,15.675-15.44c2.628-2.44,5.256-4.787,7.79-6.993
						l3.661-3.05l1.642-1.314l0.657-0.516l0.141-0.141c0.047-0.047,0.094-0.047,0.094-0.047
						C1596.62,2437.546,1603.237,2393.713,1580.335,2362.458z"/>
				</g>
				<g style="opacity:0.7;">
					<path style="fill:#FFFFFF;" d="M1450.527,3023.325c-12.014-10.512-23.465-21.635-34.681-33.039
						c-11.076-11.545-21.823-23.465-32.147-35.808c-20.508-24.732-39.421-50.919-56.503-78.607
						c-8.494-13.798-16.66-27.97-24.263-42.659c-3.801-7.321-7.509-14.783-11.076-22.432c-1.783-3.848-3.566-7.743-5.303-11.779
						l-2.581-6.242l-1.314-3.285l-0.704-1.83c-0.234-0.657-0.422-1.173-0.798-2.393c-3.098-11.686-3.004-23.465-0.282-34.447
						l0.094-0.422c9.151-36.465,20.649-72.554,34.446-107.845c13.75-35.338,30.223-69.738,48.948-103.011
						c18.913-33.227,40.172-65.28,64.341-95.596c12.108-15.159,24.92-29.848,38.67-44.114c6.852-7.134,13.938-14.126,21.447-21.072
						c3.707-3.473,7.603-6.946,11.592-10.418l6.336-5.303l3.426-2.769l4.599-3.52c13.261-9.727,28.795-14.073,44.049-13.543
						c-23.452-13.549-53.662-12.889-76.9,4.157l-4.599,3.52l-3.426,2.769l-6.336,5.303c-3.989,3.473-7.884,6.946-11.592,10.419
						c-7.509,6.946-14.595,13.938-21.447,21.072c-13.75,14.267-26.562,28.956-38.67,44.114
						c-24.169,30.316-45.428,62.37-64.341,95.596c-18.725,33.273-35.197,67.673-48.948,103.011
						c-13.797,35.292-25.295,71.381-34.446,107.845l-0.094,0.422c-2.722,10.982-2.816,22.761,0.281,34.447
						c0.376,1.22,0.563,1.737,0.798,2.394l0.704,1.83l1.314,3.285l2.581,6.242c1.736,4.036,3.52,7.931,5.303,11.779
						c3.567,7.65,7.274,15.111,11.076,22.432c7.603,14.689,15.768,28.862,24.263,42.659c17.083,27.689,35.995,53.875,56.503,78.607
						c10.325,12.343,21.072,24.263,32.147,35.808c11.216,11.404,22.667,22.526,34.681,33.039
						c23.887,21.072,49.511,39.938,76.261,56.457c6.999,4.33,15.455,5.359,23.174,3.13
						C1493.872,3058.52,1471.502,3041.827,1450.527,3023.325z"/>
				</g>
				<g>
					<path style="fill:#000072;" d="M1509.087,3093.5c-8.603,0.002-17.271-2.344-25.024-7.141
						c-28.013-17.297-54.526-36.929-78.804-58.342c-10.986-9.612-22.329-20.417-35.645-33.95
						c-11.85-12.349-22.949-24.717-33.164-36.934c-21.372-25.771-40.899-52.932-58.081-80.791
						c-9.473-15.383-17.632-29.736-24.956-43.889c-4.16-7.998-7.896-15.574-11.421-23.13c-1.87-4.033-3.726-8.096-5.532-12.3
						l-5.093-12.62c-0.283-0.789-0.537-1.506-1.001-3.015l-0.205-0.718c-3.765-14.209-3.911-29.248-0.42-43.511l0.171-0.732
						c9.365-37.324,21.196-74.37,35.166-110.112c13.726-35.266,30.576-70.73,50.078-105.383
						c20.181-35.466,42.383-68.442,66.021-98.091c12.734-15.942,26.133-31.226,39.834-45.439
						c7.383-7.688,14.658-14.836,22.217-21.826c3.774-3.54,7.842-7.168,12.007-10.793l10.293-8.52l4.985-3.823
						c39.971-29.312,95.879-20.73,124.961,18.916c28.833,39.351,20.518,94.99-18.496,124.177l-5.61,4.597
						c-2.056,1.802-4.541,4.014-7.021,6.318c-5.098,4.731-10.103,9.661-14.883,14.663c-9.893,10.249-19.59,21.326-28.882,32.983
						c-17.593,21.982-34.502,47.126-50.278,74.761c-15.4,27.446-28.594,55.261-39.15,82.549
						c-8.813,22.427-16.743,46.335-23.628,71.216c0.674,3.003,1.387,6.025,2.139,9.07c2.817,11.482,6.333,23.667,10.757,37.283
						c7.969,24.351,18.013,48.938,29.834,73.04c5.366,10.862,11.572,22.334,18.945,35.02c7.632,12.688,14.736,23.665,21.568,33.311
						c15.078,21.438,32.446,42.114,51.655,61.509l0.444,0.442c8.97,9.048,13.877,21.016,13.838,33.723
						c-0.039,12.725-5.034,24.668-14.068,33.625C1533.413,3088.776,1521.308,3093.5,1509.087,3093.5z M1266.357,2770.69
						c0.151,0.481,0.254,0.762,0.361,1.064l4.331,10.681c1.563,3.635,3.271,7.366,4.985,11.05
						c3.281,7.041,6.787,14.141,10.703,21.682c6.909,13.35,14.624,26.907,23.594,41.477c16.26,26.362,34.756,52.092,54.966,76.465
						c9.624,11.504,20.151,23.232,31.245,34.795c12.475,12.683,23.174,22.876,33.496,31.909
						c22.744,20.061,47.539,38.418,73.76,54.609c3.965,2.451,9.058,1.855,12.412-1.45c1.89-1.875,2.944-4.392,2.949-7.073
						c0.01-2.695-1.03-5.234-2.934-7.148l-0.449-0.452c-20.713-20.911-39.438-43.21-55.683-66.311
						c-7.339-10.366-14.946-22.109-23.213-35.852c-7.94-13.665-14.536-25.864-20.308-37.542
						c-12.617-25.718-23.32-51.938-31.85-77.988c-4.717-14.539-8.482-27.588-11.514-39.939c-1.216-4.917-2.339-9.81-3.369-14.656
						l-0.938-4.429l1.182-4.373c7.515-27.786,16.294-54.514,26.089-79.446c11.162-28.853,25.122-58.289,41.455-87.402
						c16.816-29.451,34.834-56.226,53.618-79.7c10.005-12.551,20.488-24.526,31.143-35.562c5.234-5.479,10.776-10.94,16.411-16.167
						c2.764-2.566,5.542-5.046,8.213-7.375l5.962-4.907l4.99-4.741l0.791-0.005c18.872-17.578,22.026-47.078,6.44-68.354
						c-16.836-22.944-49.204-27.913-72.168-11.069l-7.334,5.757l-6.079,5.09c-3.535,3.086-7.261,6.401-10.806,9.724
						c-7.1,6.565-13.853,13.203-20.742,20.378c-12.92,13.406-25.547,27.805-37.544,42.827
						c-22.417,28.118-43.516,59.465-62.695,93.164c-18.589,33.037-34.678,66.887-47.768,100.532
						c-13.374,34.211-24.697,69.648-33.667,105.349l-0.147,0.635C1264.209,2754.157,1264.243,2762.485,1266.357,2770.69z"/>
				</g>
			</g>
			<g>
				<g>
					<path style="fill:#817C93;" d="M1506.887,2285.899c0,0-0.025-0.04-0.09-0.054l-0.194-0.043l-0.789-0.277l-1.991-0.678
						l-4.54-1.447c-3.222-0.951-6.614-1.906-10.084-2.81c-6.876-1.794-14.12-3.466-21.446-4.917
						c-14.637-2.968-29.731-5.256-45.008-6.871c-30.54-3.294-61.761-3.816-92.959-2.293c-31.216,1.756-62.459,5.478-93.441,11.705
						c-26.573,5.198-52.933,12.04-79.008,20.202c-3.388,3.329-6.765,6.761-10.131,10.299c-9.113,9.538-17.952,19.681-26.55,30.116
						c-17.131,20.883-32.845,43.201-47.098,66.59c-7.074,11.689-13.687,23.752-19.99,35.952
						c-6.123,12.308-11.991,24.842-17.2,37.624c-10.522,25.575-18.826,52.184-25.023,79.566l-0.144,0.648
						c-3.507,15.538-18.927,25.311-34.464,21.804c-13.27-3.006-22.339-14.7-22.515-27.722c-0.45-31.436,1.684-63.185,6.611-94.654
						c2.406-15.781,5.629-31.416,9.216-47.004c3.781-15.545,8.055-31.015,12.913-46.356c9.831-30.588,21.745-60.613,35.91-89.901
						c7.068-14.579,14.63-29.084,22.929-43.391c4.13-7.141,8.429-14.278,12.962-21.398c2.286-3.572,4.612-7.17,7.082-10.804
						l3.876-5.532l2.064-2.874l1.165-1.577c0.428-0.551,0.762-0.987,1.589-1.959c8.188-8.893,18.172-15.146,28.895-18.754
						l0.406-0.148c35.667-11.885,72.279-21.59,109.455-28.927c37.19-7.402,75.051-12.003,113.174-14.1
						c38.184-1.913,76.641-1.217,115.196,2.866c19.291,2.061,38.564,4.968,57.986,8.894c9.698,1.943,19.404,4.16,29.297,6.758
						c4.921,1.259,9.944,2.677,15.016,4.174l7.877,2.492l4.176,1.4l5.44,1.986c36.243,14.073,54.233,54.865,40.16,91.107
						C1583.576,2281.701,1543.058,2299.684,1506.887,2285.899z"/>
				</g>
				<g style="opacity:0.3;">
					<path style="fill:#000072;" d="M1597.62,2245.588c13.328-34.325-2.131-72.691-34.591-88.614
						c-0.392,1.894-0.797,3.789-1.347,5.678c-11.242,38.515-51.422,60.705-89.973,49.736c0,0-0.029-0.039-0.097-0.047l-0.205-0.027
						l-0.838-0.215l-2.115-0.521l-4.813-1.085c-3.409-0.691-6.994-1.372-10.655-1.992c-7.254-1.233-14.876-2.306-22.564-3.146
						c-15.365-1.747-31.141-2.75-47.046-3.043c-31.799-0.654-64.052,1.614-96.098,5.988c-32.043,4.617-63.937,11.264-95.337,20.471
						c-22.101,6.356-43.954,13.841-65.536,22.266c-9.198,3.591-17.417,9.374-23.58,17.089c-0.032,0.039-0.063,0.079-0.095,0.118
						c-8.543,10.658-16.75,21.916-24.681,33.452c-15.794,23.081-30,47.515-42.6,72.924c-6.247,12.694-11.985,25.732-17.391,38.883
						c-5.211,13.246-10.137,26.703-14.361,40.356c-8.556,27.327-14.73,55.522-18.663,84.325l-0.09,0.681
						c-1.969,14.484-14,25.116-28.087,25.806c4.686,10.367,15.269,17.891,28.703,17.007c12.6-0.829,22.955-10.358,25.687-22.685
						l0.096-0.434c6.198-27.382,14.501-53.991,25.023-79.566c5.209-12.782,11.076-25.316,17.2-37.624
						c6.303-12.2,12.916-24.263,19.99-35.952c14.253-23.389,29.967-45.708,47.098-66.59c8.598-10.434,17.437-20.577,26.55-30.116
						c3.366-3.537,6.743-6.97,10.131-10.299c26.074-8.163,52.434-15.005,79.008-20.202c30.982-6.227,62.225-9.948,93.441-11.705
						c31.198-1.522,62.419-1.001,92.959,2.293c15.277,1.615,30.371,3.902,45.008,6.871c7.326,1.452,14.569,3.124,21.446,4.917
						c3.47,0.904,6.862,1.859,10.084,2.81l4.54,1.447l1.991,0.678l0.789,0.277l0.194,0.043c0.064,0.014,0.09,0.054,0.09,0.054
						C1543.058,2299.684,1583.576,2281.701,1597.62,2245.588z"/>
				</g>
				<g style="opacity:0.7;">
					<path style="fill:#FFFFFF;" d="M970.58,2491.383c2.406-15.781,5.629-31.416,9.216-47.004
						c3.781-15.545,8.055-31.015,12.913-46.356c9.831-30.588,21.745-60.613,35.91-89.901c7.068-14.58,14.63-29.084,22.929-43.391
						c4.13-7.141,8.429-14.279,12.962-21.398c2.286-3.572,4.613-7.17,7.082-10.804l3.876-5.532l2.064-2.874l1.165-1.578
						c0.428-0.551,0.762-0.987,1.589-1.959c8.188-8.894,18.172-15.146,28.895-18.754l0.406-0.148
						c35.667-11.885,72.279-21.59,109.455-28.927c37.19-7.401,75.051-12.003,113.174-14.1c38.184-1.913,76.64-1.217,115.196,2.866
						c19.291,2.061,38.564,4.968,57.986,8.894c9.698,1.943,19.404,4.16,29.297,6.758c4.921,1.259,9.944,2.677,15.016,4.174
						l7.878,2.492l4.176,1.4l5.44,1.986c15.331,5.953,27.345,16.716,35.099,29.863c-1.182-27.059-17.978-52.178-44.844-62.61
						l-5.44-1.986l-4.176-1.4l-7.877-2.492c-5.073-1.497-10.095-2.915-15.016-4.174c-9.893-2.598-19.599-4.814-29.297-6.758
						c-19.422-3.926-38.695-6.833-57.986-8.894c-38.556-4.083-77.012-4.779-115.196-2.866c-38.122,2.097-75.984,6.698-113.174,14.1
						c-37.176,7.337-73.788,17.041-109.455,28.927l-0.406,0.148c-10.723,3.608-20.707,9.861-28.895,18.754
						c-0.827,0.973-1.161,1.408-1.589,1.959l-1.165,1.577l-2.064,2.874l-3.876,5.532c-2.47,3.634-4.796,7.231-7.082,10.804
						c-4.533,7.12-8.832,14.257-12.962,21.398c-8.3,14.307-15.861,28.811-22.929,43.391c-14.165,29.289-26.08,59.313-35.91,89.901
						c-4.857,15.341-9.132,30.811-12.913,46.356c-3.587,15.588-6.81,31.223-9.216,47.004c-4.927,31.469-7.061,63.218-6.611,94.654
						c0.111,8.229,3.789,15.913,9.818,21.224C964.203,2546.853,966.253,2519.016,970.58,2491.383z"/>
				</g>
				<g>
					<path style="fill:#000072;" d="M983.173,2600.51c-3.516,0-7.056-0.393-10.571-1.187c-21.577-4.888-36.851-23.711-37.148-45.779
						c-0.469-32.92,1.826-65.833,6.836-97.81c2.202-14.446,5.215-29.819,9.463-48.308c4.053-16.643,8.511-32.651,13.315-47.817
						c10.239-31.868,22.651-62.932,36.909-92.409c7.866-16.226,15.576-30.823,23.584-44.632c4.517-7.808,8.892-15.029,13.369-22.061
						c2.397-3.75,4.819-7.488,7.383-11.265l7.851-11.008c0.63-0.806,1.099-1.409,2.104-2.585l0.464-0.522
						c10.015-10.879,22.715-19.121,36.719-23.833c36.968-12.332,74.566-22.268,112.212-29.697
						c37.124-7.388,76.089-12.244,115.776-14.426c40.752-2.051,80.493-1.055,118.203,2.942c20.269,2.166,40.361,5.247,59.732,9.16
						c10.493,2.104,20.43,4.397,30.347,7.004c5.015,1.279,10.259,2.759,15.557,4.321l13.184,4.265l5.439,1.987
						c46.196,17.935,69.014,69.702,51.221,115.532c-17.681,45.449-69.019,68.352-114.595,51.179l-6.938-2.273
						c-2.661-0.781-5.85-1.682-9.116-2.532c-6.719-1.753-13.564-3.323-20.366-4.668c-13.945-2.83-28.496-5.051-43.335-6.621
						c-27.998-3.018-58.286-3.76-90.073-2.209c-31.401,1.765-61.948,5.591-90.654,11.357c-23.623,4.622-48.047,10.791-72.744,18.364
						c-2.173,2.185-4.341,4.412-6.504,6.685c-8.174,8.555-16.558,18.069-25.649,29.104c-16.235,19.788-31.572,41.472-45.557,64.419
						c-6.25,10.327-12.588,21.729-19.346,34.802c-6.709,13.491-11.987,25.039-16.484,36.086c-9.98,24.25-18.081,50.01-24.101,76.628
						l-0.147,0.637c-2.798,12.402-10.254,22.976-20.991,29.773C1000.815,2597.995,992.075,2600.51,983.173,2600.51z
						 M1084.594,2200.297c-0.327,0.386-0.508,0.62-0.703,0.872l-6.675,9.39c-2.207,3.257-4.443,6.716-6.641,10.146
						c-4.16,6.541-8.267,13.318-12.525,20.679c-7.549,13.015-14.834,26.807-22.28,42.178
						c-13.496,27.896-25.254,57.327-34.937,87.459c-4.521,14.282-8.755,29.465-12.549,45.053
						c-3.979,17.322-6.821,31.822-8.892,45.393c-4.692,29.958-6.841,60.737-6.401,91.555c0.063,4.67,3.311,8.645,7.891,9.683
						c2.612,0.596,5.293,0.125,7.559-1.311c2.275-1.44,3.852-3.684,4.448-6.313l0.147-0.649
						c6.489-28.674,15.225-56.453,25.977-82.578c4.834-11.873,10.483-24.236,17.749-38.843c7.275-14.084,14.018-26.206,20.737-37.31
						c14.922-24.487,31.279-47.612,48.647-68.777c9.707-11.78,18.687-21.968,27.485-31.177c3.496-3.669,7.017-7.249,10.547-10.72
						l3.232-3.174l4.321-1.353c27.485-8.604,54.746-15.571,81.011-20.71c30.347-6.098,62.676-10.151,95.986-12.024
						c33.877-1.653,66.123-0.852,96.025,2.371c15.977,1.692,31.709,4.094,46.729,7.139c7.446,1.475,15.029,3.213,22.456,5.151
						c3.662,0.955,7.251,1.963,10.659,2.971l7.217,2.339l5.884,1.36l0.615,0.811c25.176,6.926,52.163-6.309,61.812-31.123
						c10.298-26.523-2.915-56.494-29.463-66.802l-8.779-3.086l-7.578-2.395c-4.502-1.323-9.297-2.681-14.004-3.882
						c-9.316-2.449-18.545-4.578-28.335-6.541c-18.267-3.691-37.197-6.594-56.294-8.633c-35.752-3.789-73.54-4.724-112.266-2.786
						c-37.832,2.083-75.024,6.714-110.449,13.762c-36.118,7.129-72.168,16.658-107.178,28.325
						C1097.387,2189.582,1090.376,2194.096,1084.594,2200.297z"/>
				</g>
			</g>
			<g>
				<g>
					<path style="fill:#817C93;" d="M1374.844,1967.657c0,0-0.015-0.045-0.074-0.074l-0.178-0.089l-0.698-0.46l-1.766-1.142
						l-4.052-2.507c-2.894-1.706-5.952-3.456-9.098-5.177c-6.234-3.412-12.853-6.794-19.607-9.983
						c-13.476-6.438-27.562-12.326-41.988-17.606c-28.823-10.62-58.98-18.716-89.613-24.823
						c-30.706-5.885-61.917-9.87-93.483-11.362c-27.04-1.419-54.272-1.19-81.549,0.389c-4.095,2.405-8.206,4.914-12.331,7.527
						c-11.159,7.037-22.198,14.727-33.075,22.758c-21.693,16.092-42.362,33.92-61.873,53.143
						c-9.704,9.619-19.051,19.713-28.131,30.014c-8.932,10.45-17.67,21.182-25.83,32.314
						c-16.424,22.249-30.947,46.042-43.615,71.096l-0.297,0.594c-7.18,14.219-24.512,19.951-38.731,12.772
						c-12.141-6.142-18.095-19.69-15.1-32.364c7.206-30.603,16.994-60.88,29.424-90.207c6.17-14.723,13.098-29.105,20.367-43.353
						c7.447-14.16,15.354-28.126,23.795-41.826c16.972-27.281,35.828-53.508,56.688-78.474
						c10.401-12.424,21.261-24.655,32.79-36.515c5.742-5.923,11.647-11.801,17.775-17.605c3.086-2.909,6.217-5.834,9.496-8.758
						l5.104-4.424l2.701-2.286l1.513-1.247c0.549-0.43,0.979-0.772,2.018-1.514c10.105-6.636,21.309-10.274,32.588-11.167
						l0.43-0.045c37.486-2.858,75.359-3.371,113.203-1.45c37.873,1.861,75.718,6.602,113.206,13.836
						c37.504,7.427,74.637,17.451,111.044,30.785c18.211,6.689,36.199,14.194,54.084,22.724c8.935,4.243,17.811,8.752,26.775,13.677
						c4.468,2.418,8.995,5.014,13.551,7.699l7.035,4.332l3.711,2.374l4.794,3.249c31.734,22.462,39.268,66.403,16.807,98.137
						C1450.252,1982.229,1406.578,1989.822,1374.844,1967.657z"/>
				</g>
				<g style="opacity:0.3;">
					<path style="fill:#000072;" d="M1472.654,1950.614c21.273-30.055,15.604-71.028-12.01-94.365
						c-0.841,1.742-1.694,3.482-2.688,5.18c-20.268,34.626-64.637,46.383-99.365,26.371c0,0-0.019-0.045-0.083-0.07l-0.192-0.076
						l-0.761-0.412l-1.925-1.02l-4.405-2.222c-3.139-1.5-6.45-3.031-9.851-4.523c-6.737-2.959-13.87-5.853-21.123-8.537
						c-14.48-5.43-29.539-10.238-44.895-14.388c-30.686-8.364-62.523-14.006-94.671-17.553c-32.204-3.311-64.758-4.618-97.454-3.32
						c-22.983,0.792-46.001,2.74-68.982,5.666c-9.796,1.247-19.173,4.858-27.027,10.844c-0.04,0.031-0.08,0.061-0.121,0.092
						c-10.878,8.262-21.575,17.186-32.073,26.448c-20.932,18.549-40.651,38.797-59.05,60.38
						c-9.145,10.794-17.88,22.046-26.321,33.489c-8.274,11.582-16.324,23.438-23.741,35.655
						c-14.943,24.427-27.786,50.276-38.603,77.258l-0.253,0.639c-5.431,13.57-19.686,20.959-33.518,18.204
						c2.025,11.195,10.462,21.066,23.707,23.475c12.423,2.259,24.784-4.467,30.432-15.76l0.199-0.397
						c12.668-25.054,27.192-48.846,43.615-71.096c8.16-11.132,16.899-21.864,25.83-32.314c9.08-10.301,18.427-20.395,28.131-30.014
						c19.511-19.223,40.18-37.051,61.873-53.143c10.876-8.031,21.916-15.721,33.075-22.758c4.125-2.613,8.235-5.122,12.331-7.527
						c27.277-1.579,54.509-1.808,81.549-0.389c31.566,1.492,62.777,5.477,93.483,11.362c30.632,6.107,60.79,14.204,89.613,24.823
						c14.426,5.28,28.511,11.169,41.988,17.606c6.753,3.189,13.373,6.572,19.607,9.983c3.146,1.721,6.204,3.471,9.098,5.177
						l4.052,2.507l1.766,1.142l0.698,0.46l0.178,0.089c0.059,0.029,0.074,0.074,0.074,0.074
						C1406.578,1989.822,1450.252,1982.229,1472.654,1950.614z"/>
				</g>
				<g style="opacity:0.7;">
					<path style="fill:#FFFFFF;" d="M804.671,2036.598c6.17-14.723,13.098-29.105,20.366-43.353
						c7.447-14.16,15.354-28.126,23.795-41.826c16.972-27.281,35.828-53.508,56.688-78.474
						c10.401-12.424,21.261-24.655,32.79-36.515c5.742-5.923,11.647-11.801,17.775-17.605c3.086-2.909,6.217-5.834,9.496-8.758
						l5.104-4.424l2.701-2.286l1.513-1.247c0.549-0.43,0.979-0.772,2.018-1.514c10.105-6.636,21.309-10.274,32.588-11.167
						l0.43-0.045c37.487-2.858,75.36-3.371,113.203-1.45c37.873,1.862,75.718,6.602,113.206,13.836
						c37.504,7.427,74.637,17.451,111.044,30.785c18.211,6.689,36.199,14.194,54.084,22.724c8.935,4.242,17.811,8.752,26.775,13.677
						c4.468,2.418,8.995,5.014,13.551,7.699l7.036,4.332l3.71,2.374l4.794,3.249c13.424,9.501,22.461,22.862,26.786,37.5
						c5.432-26.534-4.754-54.983-28.277-71.633l-4.794-3.249l-3.711-2.374l-7.035-4.332c-4.557-2.685-9.084-5.281-13.551-7.699
						c-8.965-4.925-17.84-9.435-26.775-13.677c-17.885-8.529-35.873-16.035-54.084-22.724
						c-36.407-13.334-73.54-23.358-111.044-30.785c-37.489-7.234-75.333-11.975-113.206-13.836
						c-37.844-1.921-75.717-1.408-113.203,1.45l-0.43,0.045c-11.279,0.893-22.483,4.531-32.588,11.167
						c-1.039,0.742-1.469,1.084-2.018,1.514l-1.513,1.247l-2.701,2.286l-5.104,4.424c-3.279,2.924-6.41,5.849-9.496,8.758
						c-6.128,5.804-12.033,11.682-17.775,17.605c-11.528,11.86-22.389,24.091-32.79,36.515
						c-20.86,24.967-39.717,51.194-56.688,78.474c-8.441,13.7-16.348,27.666-23.795,41.826
						c-7.269,14.248-14.196,28.63-20.367,43.353c-12.43,29.328-22.218,59.605-29.424,90.207c-1.893,8.01-0.194,16.356,4.364,22.974
						C785.001,2088.853,793.757,2062.35,804.671,2036.598z"/>
				</g>
				<g>
					<path style="fill:#000072;" d="M801.743,2146.891c-7.197,0-14.497-1.638-21.348-5.1c-19.741-9.98-29.981-31.953-24.912-53.433
						c7.549-32.036,17.778-63.403,30.41-93.218c5.645-13.467,12.305-27.646,20.928-44.556c7.93-15.083,16.147-29.529,24.536-43.142
						c17.671-28.411,37.261-55.527,58.267-80.667c11.587-13.845,22.622-26.128,33.735-37.563
						c6.333-6.533,12.334-12.476,18.325-18.152c3.242-3.057,6.499-6.096,9.917-9.141l9.868-8.428
						c1.035-0.825,1.621-1.284,3.018-2.285l0.635-0.434c12.358-8.118,26.675-13.025,41.406-14.192
						c38.882-2.969,77.773-3.469,116.069-1.528c37.803,1.858,76.777,6.621,115.811,14.153c40.034,7.927,78.34,18.55,113.945,31.589
						c19.15,7.036,37.891,14.91,55.708,23.408c9.6,4.556,18.682,9.194,27.734,14.167c4.556,2.466,9.282,5.176,14.038,7.976
						l11.753,7.341l4.795,3.249c40.449,28.628,50,84.39,21.597,124.522c-28.198,39.797-83.603,49.526-123.647,21.753l-6.133-3.862
						c-2.383-1.401-5.268-3.052-8.232-4.675c-6.094-3.333-12.353-6.521-18.608-9.475c-12.852-6.138-26.426-11.831-40.425-16.953
						c-26.431-9.739-55.63-17.822-86.831-24.041c-30.898-5.923-61.455-9.641-90.698-11.023c-24.048-1.255-49.243-1.216-75.029,0.129
						c-2.632,1.585-5.273,3.215-7.915,4.89c-10.039,6.33-20.488,13.521-31.973,22.004c-20.576,15.261-40.723,32.568-59.854,51.413
						c-8.579,8.508-17.5,18.027-27.222,29.058c-9.79,11.455-17.72,21.375-24.771,30.994c-15.566,21.086-29.683,44.104-42.002,68.469
						l-0.273,0.547C835.971,2137.302,819.155,2146.889,801.743,2146.891z M986.045,1781.948c-0.459,0.334-0.703,0.525-0.996,0.759
						l-8.662,7.412c-2.949,2.634-5.952,5.439-8.911,8.23c-5.576,5.278-11.201,10.852-17.178,17.014
						c-10.479,10.781-20.898,22.388-31.875,35.498c-19.878,23.792-38.433,49.48-55.146,76.343
						c-7.896,12.822-15.688,26.521-23.115,40.647c-8.081,15.847-14.365,29.219-19.668,41.873
						c-11.836,27.93-21.406,57.263-28.467,87.253c-1.074,4.541,1.108,9.187,5.303,11.306c4.932,2.502,10.991,0.486,13.501-4.482
						l0.278-0.552c13.286-26.282,28.516-51.104,45.288-73.823c7.578-10.339,16.064-20.957,26.66-33.359
						c10.474-11.882,19.961-22.002,29.185-31.147c20.415-20.112,41.899-38.565,63.911-54.89
						c12.266-9.06,23.457-16.758,34.248-23.562c4.263-2.703,8.56-5.322,12.837-7.834l3.901-2.29l4.517-0.261
						c28.74-1.665,56.87-1.797,83.613-0.393c30.918,1.46,63.262,5.388,96.035,11.672c33.247,6.626,64.351,15.244,92.568,25.642
						c15.073,5.515,29.751,11.672,43.589,18.284c6.851,3.232,13.779,6.763,20.527,10.452c3.33,1.821,6.558,3.672,9.619,5.476
						l6.299,3.935l6.152,2.996l0.386,1.128c22.637,12.354,51.646,6.011,66.895-15.513c16.441-23.225,10.908-55.51-12.334-71.961
						l-7.774-5.129l-6.768-4.165c-4.038-2.375-8.364-4.861-12.637-7.17c-8.501-4.67-16.938-8.977-25.893-13.23
						c-16.807-8.015-34.463-15.432-52.51-22.063c-33.765-12.366-70.181-22.456-108.218-29.988
						c-37.212-7.18-74.414-11.731-110.483-13.503c-36.748-1.86-74.038-1.384-110.854,1.418
						C1001.054,1774.677,993.159,1777.348,986.045,1781.948z"/>
				</g>
			</g>
			<g>
				<g>
					<path style="fill:#817C93;" d="M1466.628,1673.733c0,0,0.005-0.047-0.037-0.098l-0.126-0.155l-0.446-0.706l-1.14-1.768
						l-2.661-3.953c-1.936-2.746-4.002-5.6-6.161-8.463c-4.277-5.675-8.918-11.482-13.76-17.169
						c-9.632-11.414-20.045-22.578-31.02-33.327c-21.897-21.541-46.05-41.333-71.453-59.507
						c-25.563-18.002-52.367-34.48-80.521-48.832c-24.059-12.422-48.972-23.422-74.481-33.21c-4.722,0.506-9.501,1.101-14.336,1.785
						c-13.066,1.82-26.292,4.285-39.51,7.128c-26.394,5.737-52.569,13.478-78.263,22.967c-12.802,4.772-25.476,10.124-37.991,15.775
						c-12.441,5.847-24.822,12.031-36.841,18.818c-24.126,13.518-47.155,29.224-69.012,46.843l-0.515,0.419
						c-12.395,10.004-30.551,8.094-40.555-4.302c-8.537-10.594-8.387-25.392-0.441-35.711
						c19.163-24.924,40.545-48.489,63.944-70.102c11.683-10.879,23.916-21.135,36.405-31.128
						c12.615-9.84,25.569-19.314,38.901-28.325c26.696-17.877,54.676-34.019,83.963-48.187
						c14.592-7.042,29.524-13.719,44.913-19.783c7.671-3.034,15.472-5.961,23.446-8.729c4.01-1.381,8.067-2.758,12.259-4.073
						l6.473-1.931l3.402-0.972l1.892-0.514c0.678-0.166,1.21-0.3,2.462-0.549c11.941-1.889,23.649-0.594,34.296,3.235l0.41,0.136
						c35.341,12.824,70.068,27.945,103.767,45.272c33.75,17.285,66.29,37.182,97.478,59.204
						c31.123,22.205,60.839,46.624,88.531,73.76c13.844,13.592,27.149,27.836,39.938,42.97c6.397,7.544,12.63,15.307,18.773,23.485
						c3.076,4.042,6.134,8.272,9.181,12.594l4.629,6.844l2.405,3.691l3.032,4.934c19.677,33.532,8.457,76.68-25.075,96.356
						C1529.355,1718.05,1486.427,1706.994,1466.628,1673.733z"/>
				</g>
				<g style="opacity:0.3;">
					<path style="fill:#000072;" d="M1562.784,1698.457c31.758-18.635,43.455-58.31,27.894-90.945
						c-1.484,1.241-2.977,2.476-4.581,3.615c-32.723,23.215-77.999,15.668-101.412-16.864c0,0,0.001-0.049-0.047-0.098l-0.144-0.148
						l-0.524-0.688l-1.335-1.721l-3.1-3.838c-2.244-2.659-4.631-5.417-7.116-8.177c-4.922-5.47-10.231-11.043-15.737-16.474
						c-10.962-10.908-22.707-21.489-34.994-31.591c-24.524-20.253-51.217-38.498-79.055-54.963
						c-27.987-16.273-57.117-30.862-87.45-43.136c-21.272-8.737-43.052-16.436-65.201-23.228
						c-9.441-2.895-19.473-3.464-29.095-1.241c-0.049,0.011-0.099,0.023-0.148,0.034c-13.314,3.052-26.736,6.783-40.116,10.903
						c-26.711,8.29-53.016,18.627-78.668,30.724c-12.778,6.073-25.37,12.733-37.772,19.687
						c-12.308,7.15-24.524,14.641-36.312,22.723c-23.672,16.112-46.016,34.383-66.98,54.523l-0.493,0.478
						c-10.535,10.132-26.568,10.999-38.04,2.795c-2.762,11.036,0.864,23.505,11.944,31.152c10.392,7.172,24.426,6.13,34.221-1.838
						l0.345-0.28c21.857-17.619,44.886-33.325,69.012-46.843c12.019-6.787,24.4-12.971,36.841-18.818
						c12.515-5.651,25.188-11.003,37.991-15.775c25.694-9.489,51.868-17.23,78.263-22.967c13.218-2.843,26.444-5.307,39.51-7.128
						c4.835-0.683,9.614-1.278,14.336-1.785c25.509,9.788,50.422,20.788,74.481,33.21c28.154,14.352,54.958,30.83,80.521,48.832
						c25.404,18.174,49.556,37.965,71.453,59.507c10.974,10.75,21.387,21.914,31.02,33.327c4.842,5.686,9.483,11.493,13.76,17.169
						c2.159,2.863,4.225,5.717,6.161,8.463l2.661,3.953l1.14,1.768l0.446,0.706l0.126,0.155c0.042,0.051,0.037,0.098,0.037,0.098
						C1486.427,1706.994,1529.355,1718.05,1562.784,1698.457z"/>
				</g>
				<g style="opacity:0.7;">
					<path style="fill:#FFFFFF;" d="M918.614,1501.887c11.683-10.879,23.916-21.135,36.405-31.128
						c12.615-9.84,25.569-19.314,38.901-28.325c26.696-17.877,54.676-34.019,83.963-48.187
						c14.592-7.042,29.524-13.719,44.913-19.783c7.671-3.034,15.472-5.961,23.446-8.729c4.01-1.381,8.067-2.758,12.259-4.073
						l6.473-1.931l3.402-0.972l1.892-0.514c0.678-0.166,1.21-0.3,2.462-0.549c11.94-1.889,23.649-0.593,34.295,3.235l0.411,0.137
						c35.34,12.824,70.068,27.945,103.767,45.272c33.75,17.285,66.29,37.182,97.478,59.204
						c31.123,22.205,60.839,46.624,88.531,73.76c13.844,13.592,27.149,27.835,39.938,42.97c6.397,7.544,12.63,15.307,18.773,23.485
						c3.076,4.042,6.134,8.272,9.181,12.594l4.629,6.844l2.405,3.69l3.032,4.934c8.323,14.184,11.061,30.08,8.977,45.201
						c15.872-21.947,18.298-52.066,3.712-76.923l-3.032-4.934l-2.405-3.691l-4.629-6.844c-3.048-4.323-6.105-8.552-9.181-12.594
						c-6.143-8.178-12.376-15.941-18.773-23.485c-12.789-15.135-26.094-29.378-39.938-42.97
						c-27.692-27.136-57.408-51.555-88.531-73.76c-31.189-22.023-63.728-41.919-97.478-59.204
						c-33.699-17.327-68.426-32.447-103.767-45.272l-0.41-0.136c-10.647-3.829-22.355-5.124-34.296-3.235
						c-1.252,0.249-1.785,0.383-2.462,0.549l-1.892,0.514l-3.402,0.972l-6.473,1.931c-4.192,1.315-8.249,2.692-12.259,4.073
						c-7.974,2.768-15.775,5.694-23.446,8.729c-15.388,6.064-30.32,12.741-44.913,19.783
						c-29.287,14.168-57.267,30.309-83.963,48.187c-13.332,9.011-26.286,18.486-38.901,28.325
						c-12.489,9.994-24.722,20.25-36.405,31.128c-23.399,21.613-44.781,45.177-63.944,70.102
						c-5.021,6.521-6.909,14.827-5.479,22.734C879.179,1541.415,898.067,1520.865,918.614,1501.887z"/>
				</g>
				<g>
					<path style="fill:#000072;" d="M1527.373,1726.843c-30.4,0-60.083-15.486-76.743-43.281l-3.984-6.025
						c-1.597-2.263-3.54-4.949-5.571-7.642c-4.15-5.508-8.55-10.991-13.071-16.304c-9.155-10.852-19.185-21.626-29.863-32.087
						c-20.078-19.751-43.364-39.138-69.238-57.646c-25.713-18.11-52.036-34.077-78.125-47.378
						c-21.396-11.047-44.37-21.375-68.428-30.764c-3.052,0.364-6.128,0.764-9.233,1.201c-11.768,1.641-24.248,3.894-38.188,6.895
						c-25.039,5.442-50.522,12.922-75.708,22.224c-11.338,4.226-23.384,9.228-36.772,15.273
						c-13.623,6.406-24.937,12.183-35.337,18.057c-22.852,12.805-45.195,27.971-66.455,45.11l-0.474,0.383
						c-20.474,16.526-50.498,13.33-66.992-7.09c-13.882-17.229-14.165-41.467-0.703-58.953
						c20.068-26.101,42.305-50.476,66.079-72.439c10.723-9.981,22.627-20.164,37.417-31.997
						c13.472-10.51,26.909-20.293,40.117-29.221c27.798-18.616,56.812-35.266,86.299-49.531
						c16.289-7.861,31.396-14.514,46.206-20.349c8.418-3.33,16.333-6.277,24.17-8.999c4.219-1.45,8.438-2.881,12.798-4.248
						l12.485-3.625c1.27-0.322,1.997-0.503,3.711-0.842l0.718-0.127c14.609-2.314,29.673-0.894,43.584,4.109
						c36.65,13.288,72.295,28.84,106.406,46.379c33.691,17.256,67.256,37.637,99.722,60.564
						c33.228,23.703,63.765,49.15,90.845,75.686c14.551,14.29,28.389,29.177,41.138,44.263c6.914,8.162,13.286,16.125,19.443,24.326
						c3.14,4.128,6.333,8.543,9.517,13.057l7.681,11.519l3.032,4.934c25.083,42.747,10.835,97.498-31.572,122.375
						C1558.183,1722.912,1542.685,1726.843,1527.373,1726.843z M1485.971,1668.903c15.562,20.547,44.57,26.682,67.319,13.357
						c24.541-14.397,32.788-46.099,18.379-70.659l-4.971-7.871l-4.453-6.58c-2.71-3.838-5.63-7.881-8.574-11.746
						c-5.781-7.698-11.694-15.095-18.15-22.71c-12.021-14.226-25.059-28.254-38.77-41.716
						c-25.679-25.166-54.712-49.35-86.284-71.875c-30.952-21.855-62.983-41.311-95.132-57.776
						c-32.729-16.831-66.909-31.741-101.611-44.333c-8.345-2.988-16.65-3.801-25.01-2.532c-0.552,0.112-0.845,0.186-1.206,0.274
						l-10.947,3.193c-3.779,1.187-7.676,2.51-11.524,3.836c-7.28,2.527-14.707,5.293-22.651,8.435
						c-13.955,5.498-28.228,11.787-43.657,19.233c-27.905,13.499-55.386,29.273-81.675,46.878
						c-12.441,8.406-25.181,17.683-37.798,27.529c-13.862,11.089-25.093,20.688-35.161,30.063
						c-22.275,20.576-43.071,43.374-61.855,67.808c-2.803,3.64-2.73,8.889,0.176,12.49c3.467,4.299,9.819,4.958,14.15,1.47
						l0.479-0.388c22.939-18.491,47.031-34.844,71.66-48.642c11.177-6.311,23.281-12.495,38.027-19.429
						c14.429-6.516,27.241-11.833,39.424-16.377c26.875-9.924,54.053-17.898,80.83-23.721c14.888-3.203,28.257-5.613,40.908-7.375
						c5.01-0.708,9.99-1.328,14.922-1.858l4.502-0.483l4.229,1.621c26.885,10.317,52.578,21.775,76.367,34.057
						c27.583,14.063,55.44,30.955,82.72,50.166c27.573,19.722,52.368,40.378,73.809,61.472
						c11.494,11.26,22.339,22.913,32.197,34.602c4.951,5.813,9.819,11.882,14.409,17.979c2.28,3.022,4.468,6.045,6.518,8.953
						l4.287,6.45l4.184,5.491L1485.971,1668.903z"/>
				</g>
			</g>
			<g>
				<g>
					<path style="fill:#817C93;" d="M2464.448,2460.635c0,0,0.047,0,0.094,0.047l0.141,0.141l0.657,0.516l1.642,1.314l3.661,3.05
						c2.534,2.206,5.162,4.552,7.79,6.993c5.209,4.834,10.512,10.043,15.675,15.44c10.371,10.747,20.414,22.245,29.988,34.259
						c19.194,23.981,36.417,50.027,51.905,77.153c15.299,27.266,28.956,55.612,40.36,85.084
						c9.902,25.201,18.302,51.107,25.436,77.481c-0.986,4.646-2.065,9.339-3.238,14.079c-3.144,12.812-6.946,25.718-11.123,38.576
						c-8.4,25.671-18.772,50.919-30.833,75.51c-6.054,12.249-12.671,24.31-19.57,36.183c-7.086,11.78-14.501,23.465-22.479,34.729
						c-15.909,22.62-33.883,43.926-53.641,63.871l-0.469,0.469c-11.216,11.31-11.169,29.566,0.141,40.782
						c9.668,9.574,24.404,10.935,35.479,4.083c26.75-16.519,52.374-35.385,76.261-56.457c12.014-10.512,23.465-21.635,34.681-33.039
						c11.076-11.545,21.823-23.465,32.147-35.808c20.508-24.732,39.421-50.919,56.503-78.607
						c8.494-13.797,16.66-27.97,24.263-42.659c3.801-7.321,7.509-14.783,11.076-22.432c1.783-3.848,3.566-7.743,5.303-11.779
						l2.581-6.242l1.314-3.285l0.704-1.83c0.235-0.657,0.422-1.173,0.798-2.394c3.098-11.685,3.004-23.465,0.281-34.447
						l-0.094-0.422c-9.151-36.465-20.649-72.554-34.447-107.845c-13.75-35.338-30.223-69.738-48.948-103.011
						c-18.913-33.227-40.172-65.28-64.341-95.596c-12.108-15.159-24.92-29.848-38.67-44.114
						c-6.852-7.133-13.938-14.126-21.447-21.072c-3.707-3.473-7.603-6.946-11.592-10.419l-6.336-5.303l-3.426-2.769l-4.599-3.52
						c-31.35-22.996-75.417-16.238-98.412,15.111C2426.763,2393.713,2433.38,2437.546,2464.448,2460.635z"/>
				</g>
				<g style="opacity:0.3;">
					<path style="fill:#000072;" d="M2449.665,2362.458c21.779-29.69,62.44-37.278,93.316-18.468
						c-1.386,1.349-2.767,2.709-4.064,4.188c-26.433,30.183-23.546,75.993,6.427,102.604c0,0,0.048,0.004,0.092,0.056l0.133,0.158
						l0.631,0.592l1.576,1.503l3.502,3.475c2.416,2.503,4.916,5.16,7.407,7.914c4.939,5.454,9.941,11.304,14.782,17.336
						c9.733,12.018,19.059,24.781,27.855,38.034c17.645,26.463,33.071,54.878,46.609,84.251
						c13.332,29.501,24.872,59.969,33.987,91.395c6.521,22.053,11.957,44.504,16.453,67.231c1.917,9.687,1.458,19.725-1.734,29.069
						c-0.016,0.048-0.033,0.096-0.049,0.144c-4.395,12.934-9.476,25.905-14.94,38.794c-10.972,25.726-23.94,50.839-38.591,75.122
						c-7.346,12.091-15.255,23.938-23.439,35.566c-8.368,11.514-17.068,22.902-26.31,33.803
						c-18.444,21.905-38.9,42.267-61.073,61.067l-0.526,0.442c-11.155,9.446-13.653,25.307-6.663,37.556
						c-11.26,1.621-23.294-3.258-29.771-15.061c-6.074-11.07-3.605-24.924,5.32-33.855l0.314-0.314
						c19.758-19.945,37.732-41.251,53.641-63.871c7.978-11.263,15.393-22.949,22.479-34.729
						c6.898-11.873,13.516-23.934,19.57-36.183c12.061-24.591,22.433-49.84,30.833-75.51c4.177-12.859,7.978-25.764,11.123-38.576
						c1.173-4.74,2.252-9.433,3.238-14.079c-7.134-26.375-15.534-52.28-25.436-77.481c-11.404-29.472-25.061-57.817-40.36-85.084
						c-15.487-27.126-32.71-53.172-51.905-77.153c-9.574-12.014-19.617-23.512-29.988-34.259
						c-5.162-5.397-10.466-10.606-15.675-15.44c-2.628-2.44-5.256-4.787-7.79-6.993l-3.661-3.05l-1.642-1.314l-0.657-0.516
						l-0.141-0.141c-0.047-0.047-0.094-0.047-0.094-0.047C2433.38,2437.546,2426.763,2393.713,2449.665,2362.458z"/>
				</g>
				<g style="opacity:0.7;">
					<path style="fill:#FFFFFF;" d="M2579.473,3023.325c12.014-10.512,23.465-21.635,34.681-33.039
						c11.076-11.545,21.823-23.465,32.147-35.808c20.508-24.732,39.421-50.919,56.503-78.607
						c8.494-13.798,16.66-27.97,24.263-42.659c3.801-7.321,7.509-14.783,11.076-22.432c1.783-3.848,3.566-7.743,5.303-11.779
						l2.581-6.242l1.314-3.285l0.704-1.83c0.235-0.657,0.422-1.173,0.798-2.393c3.097-11.686,3.003-23.465,0.281-34.447
						l-0.094-0.422c-9.151-36.465-20.649-72.554-34.447-107.845c-13.75-35.338-30.223-69.738-48.948-103.011
						c-18.913-33.227-40.172-65.28-64.341-95.596c-12.108-15.159-24.92-29.848-38.67-44.114
						c-6.852-7.134-13.938-14.126-21.447-21.072c-3.707-3.473-7.603-6.946-11.592-10.418l-6.336-5.303l-3.426-2.769l-4.599-3.52
						c-13.261-9.727-28.795-14.073-44.049-13.543c23.452-13.549,53.662-12.889,76.9,4.157l4.599,3.52l3.426,2.769l6.336,5.303
						c3.989,3.473,7.884,6.946,11.592,10.419c7.509,6.946,14.595,13.938,21.447,21.072c13.75,14.267,26.562,28.956,38.67,44.114
						c24.169,30.316,45.428,62.37,64.341,95.596c18.725,33.273,35.198,67.673,48.948,103.011
						c13.798,35.292,25.295,71.381,34.447,107.845l0.094,0.422c2.722,10.982,2.816,22.761-0.281,34.447
						c-0.375,1.22-0.563,1.737-0.798,2.394l-0.704,1.83l-1.314,3.285l-2.581,6.242c-1.736,4.036-3.52,7.931-5.303,11.779
						c-3.567,7.65-7.274,15.111-11.076,22.432c-7.603,14.689-15.769,28.862-24.263,42.659
						c-17.083,27.689-35.995,53.875-56.503,78.607c-10.325,12.343-21.072,24.263-32.147,35.808
						c-11.216,11.404-22.667,22.526-34.681,33.039c-23.887,21.072-49.511,39.938-76.261,56.457
						c-6.999,4.33-15.455,5.359-23.175,3.13C2536.128,3058.52,2558.498,3041.827,2579.473,3023.325z"/>
				</g>
				<g>
					<path style="fill:#000072;" d="M2520.913,3093.503c-12.217,0-24.316-4.722-33.535-13.85
						c-9.043-8.967-14.043-20.911-14.082-33.638c-0.039-12.705,4.868-24.675,13.818-33.704l0.488-0.491
						c19.185-19.365,36.553-40.042,51.592-61.428c6.87-9.697,13.975-20.674,21.748-33.606c7.231-12.442,13.438-23.914,18.833-34.827
						c11.792-24.05,21.836-48.638,29.819-73.032c4.409-13.572,7.925-25.757,10.732-37.209c0.757-3.064,1.475-6.094,2.148-9.099
						c-6.88-24.868-14.81-48.777-23.584-71.125c-10.601-27.385-23.799-55.2-39.263-82.761
						c-15.708-27.512-32.617-52.656-50.19-74.607c-9.312-11.689-19.009-22.766-28.838-32.954
						c-4.844-5.063-9.849-9.993-14.937-14.712c-2.485-2.312-4.961-4.521-7.349-6.602l-5.317-4.343
						c-38.994-29.192-47.3-84.817-18.477-124.15c29.087-39.656,85.005-48.242,124.658-19.155l8.721,6.821l6.587,5.515
						c4.443,3.862,8.511,7.49,12.378,11.116c7.446,6.887,14.722,14.033,22.148,21.76c13.662,14.175,27.061,29.458,39.8,45.405
						c23.647,29.663,45.85,62.639,65.986,98.027c19.546,34.731,36.396,70.195,50.132,105.488
						c13.96,35.715,25.791,72.761,35.156,110.085l0.181,0.762c3.481,14.055,3.359,29.189-0.43,43.481l-0.205,0.718
						c-0.488,1.587-0.737,2.28-1.035,3.125l-2.29,5.83l-2.661,6.436c-1.914,4.456-3.765,8.506-5.62,12.505
						c-3.56,7.627-7.295,15.2-11.455,23.198c-7.31,14.123-15.469,28.476-24.932,43.845c-17.192,27.874-36.719,55.034-58.042,80.747
						c-10.264,12.275-21.362,24.644-33.047,36.821c-13.438,13.667-24.785,24.473-35.864,34.17
						c-24.224,21.365-50.737,40.996-78.76,58.301C2538.178,3091.162,2529.516,3093.503,2520.913,3093.503z M2477.314,2446.879
						l5.342,4.397c2.998,2.605,5.776,5.088,8.555,7.671c5.625,5.215,11.167,10.676,16.465,16.216
						c10.591,10.974,21.074,22.949,31.099,35.532c18.765,23.442,36.782,50.217,53.53,79.546
						c16.396,29.226,30.361,58.662,41.563,87.615c9.761,24.856,18.54,51.584,26.05,79.355l1.182,4.373l-0.938,4.429
						c-1.03,4.846-2.153,9.739-3.379,14.685c-3.022,12.322-6.787,25.371-11.489,39.866c-8.545,26.094-19.248,52.314-31.836,77.981
						c-5.801,11.729-12.397,23.928-20.195,37.349c-8.408,13.987-16.016,25.73-23.394,36.147
						c-16.206,23.049-34.932,45.349-55.62,66.23l-0.493,0.5c-1.885,1.895-2.925,4.434-2.915,7.126
						c0.005,2.683,1.06,5.198,2.964,7.085c3.33,3.301,8.428,3.904,12.388,1.448c26.23-16.199,51.025-34.556,73.716-54.568
						c10.415-9.116,21.108-19.309,33.716-32.126c10.928-11.394,21.455-23.123,31.128-34.685
						c20.161-24.314,38.657-50.044,54.927-76.421c8.96-14.556,16.675-28.113,23.569-41.433c3.921-7.549,7.427-14.651,10.737-21.741
						c1.689-3.65,3.403-7.393,5.073-11.27l4.331-10.701c0-0.012,0.083-0.254,0.254-0.789c2.114-8.208,2.153-16.538,0.112-24.768
						l-0.166-0.705c-8.896-35.449-20.244-70.972-33.637-105.242c-13.101-33.672-29.189-67.522-47.822-100.637
						c-19.136-33.621-40.234-64.968-62.661-93.101c-12.173-15.237-24.443-29.238-37.505-42.788
						c-6.929-7.212-13.687-13.85-20.679-20.317c-3.638-3.408-7.363-6.724-11.177-10.046l-13.442-10.84
						c-22.651-16.616-55.034-11.65-71.865,11.309c-15.571,21.25-12.432,50.72,6.401,68.303h1.323L2477.314,2446.879z"/>
				</g>
			</g>
			<g>
				<g>
					<path style="fill:#817C93;" d="M2523.113,2285.899c0,0,0.025-0.04,0.09-0.054l0.195-0.043l0.788-0.277l1.991-0.678l4.54-1.447
						c3.222-0.951,6.614-1.906,10.084-2.81c6.876-1.794,14.12-3.466,21.446-4.917c14.637-2.968,29.731-5.256,45.008-6.871
						c30.54-3.294,61.761-3.816,92.959-2.293c31.216,1.756,62.459,5.478,93.441,11.705c26.573,5.198,52.933,12.04,79.008,20.202
						c3.388,3.329,6.765,6.761,10.131,10.299c9.113,9.538,17.952,19.681,26.55,30.116c17.131,20.883,32.845,43.201,47.098,66.59
						c7.074,11.689,13.687,23.752,19.99,35.952c6.124,12.308,11.991,24.842,17.2,37.624c10.522,25.575,18.826,52.184,25.023,79.566
						l0.144,0.648c3.508,15.538,18.927,25.311,34.464,21.804c13.27-3.006,22.338-14.7,22.515-27.722
						c0.45-31.436-1.684-63.185-6.612-94.654c-2.406-15.781-5.629-31.416-9.216-47.004c-3.781-15.545-8.056-31.015-12.913-46.356
						c-9.831-30.588-21.745-60.613-35.91-89.901c-7.068-14.579-14.63-29.084-22.929-43.391c-4.13-7.141-8.429-14.278-12.962-21.398
						c-2.287-3.572-4.613-7.17-7.082-10.804l-3.876-5.532l-2.064-2.874l-1.165-1.577c-0.428-0.551-0.762-0.987-1.589-1.959
						c-8.188-8.893-18.172-15.146-28.895-18.754l-0.406-0.148c-35.667-11.885-72.279-21.59-109.455-28.927
						c-37.19-7.402-75.051-12.003-113.174-14.1c-38.184-1.913-76.64-1.217-115.196,2.866c-19.291,2.061-38.564,4.968-57.986,8.894
						c-9.698,1.943-19.404,4.16-29.297,6.758c-4.921,1.259-9.944,2.677-15.016,4.174l-7.878,2.492l-4.176,1.4l-5.44,1.986
						c-36.243,14.073-54.233,54.865-40.16,91.107C2446.424,2281.701,2486.942,2299.684,2523.113,2285.899z"/>
				</g>
				<g style="opacity:0.3;">
					<path style="fill:#000072;" d="M2432.38,2245.588c-13.328-34.325,2.131-72.691,34.591-88.614
						c0.392,1.894,0.797,3.789,1.347,5.678c11.242,38.515,51.422,60.705,89.973,49.736c0,0,0.03-0.039,0.097-0.047l0.205-0.027
						l0.838-0.215l2.115-0.521l4.813-1.085c3.409-0.691,6.993-1.372,10.655-1.992c7.254-1.233,14.876-2.306,22.564-3.146
						c15.365-1.747,31.142-2.75,47.046-3.043c31.799-0.654,64.052,1.614,96.098,5.988c32.043,4.617,63.937,11.264,95.337,20.471
						c22.101,6.356,43.955,13.841,65.536,22.266c9.198,3.591,17.417,9.374,23.58,17.089c0.031,0.039,0.063,0.079,0.095,0.118
						c8.543,10.658,16.75,21.916,24.681,33.452c15.795,23.081,30,47.515,42.6,72.924c6.247,12.694,11.985,25.732,17.391,38.883
						c5.21,13.246,10.137,26.703,14.361,40.356c8.556,27.327,14.73,55.522,18.663,84.325l0.09,0.681
						c1.969,14.484,14,25.116,28.087,25.806c-4.686,10.367-15.269,17.891-28.703,17.007c-12.6-0.829-22.954-10.358-25.687-22.685
						l-0.096-0.434c-6.198-27.382-14.501-53.991-25.023-79.566c-5.209-12.782-11.076-25.316-17.2-37.624
						c-6.303-12.2-12.916-24.263-19.99-35.952c-14.253-23.389-29.967-45.708-47.098-66.59c-8.598-10.434-17.437-20.577-26.55-30.116
						c-3.366-3.537-6.743-6.97-10.131-10.299c-26.074-8.163-52.434-15.005-79.008-20.202c-30.982-6.227-62.225-9.948-93.441-11.705
						c-31.198-1.522-62.419-1.001-92.959,2.293c-15.277,1.615-30.371,3.902-45.008,6.871c-7.326,1.452-14.569,3.124-21.446,4.917
						c-3.47,0.904-6.862,1.859-10.084,2.81l-4.54,1.447l-1.991,0.678l-0.788,0.277l-0.195,0.043c-0.064,0.014-0.09,0.054-0.09,0.054
						C2486.942,2299.684,2446.424,2281.701,2432.38,2245.588z"/>
				</g>
				<g style="opacity:0.7;">
					<path style="fill:#FFFFFF;" d="M3059.42,2491.383c-2.406-15.781-5.629-31.416-9.216-47.004
						c-3.781-15.545-8.055-31.015-12.913-46.356c-9.831-30.588-21.745-60.613-35.91-89.901c-7.068-14.58-14.63-29.084-22.929-43.391
						c-4.13-7.141-8.429-14.279-12.962-21.398c-2.286-3.572-4.613-7.17-7.082-10.804l-3.876-5.532l-2.064-2.874l-1.165-1.578
						c-0.428-0.551-0.762-0.987-1.589-1.959c-8.188-8.894-18.172-15.146-28.895-18.754l-0.406-0.148
						c-35.667-11.885-72.279-21.59-109.455-28.927c-37.189-7.401-75.051-12.003-113.174-14.1
						c-38.184-1.913-76.64-1.217-115.196,2.866c-19.291,2.061-38.564,4.968-57.986,8.894c-9.698,1.943-19.404,4.16-29.297,6.758
						c-4.921,1.259-9.944,2.677-15.016,4.174l-7.877,2.492l-4.176,1.4l-5.44,1.986c-15.331,5.953-27.345,16.716-35.099,29.863
						c1.181-27.059,17.978-52.178,44.844-62.61l5.44-1.986l4.176-1.4l7.878-2.492c5.073-1.497,10.095-2.915,15.016-4.174
						c9.893-2.598,19.599-4.814,29.297-6.758c19.422-3.926,38.695-6.833,57.986-8.894c38.556-4.083,77.012-4.779,115.196-2.866
						c38.123,2.097,75.984,6.698,113.174,14.1c37.176,7.337,73.788,17.041,109.455,28.927l0.406,0.148
						c10.723,3.608,20.707,9.861,28.895,18.754c0.827,0.973,1.161,1.408,1.589,1.959l1.165,1.577l2.064,2.874l3.876,5.532
						c2.47,3.634,4.796,7.231,7.082,10.804c4.533,7.12,8.832,14.257,12.962,21.398c8.299,14.307,15.861,28.811,22.929,43.391
						c14.165,29.289,26.08,59.313,35.91,89.901c4.857,15.341,9.132,30.811,12.913,46.356c3.587,15.588,6.81,31.223,9.216,47.004
						c4.927,31.469,7.061,63.218,6.612,94.654c-0.112,8.229-3.789,15.913-9.818,21.224
						C3065.797,2546.853,3063.747,2519.016,3059.42,2491.383z"/>
				</g>
				<g>
					<path style="fill:#000072;" d="M3046.826,2600.507c-8.906,0-17.642-2.515-25.347-7.393
						c-10.737-6.797-18.193-17.371-20.991-29.773l-0.146-0.649c-6.021-26.599-14.121-52.361-24.072-76.555
						c-4.526-11.116-9.81-22.666-16.646-36.404c-6.626-12.817-12.964-24.219-19.243-34.595
						c-13.955-22.898-29.292-44.583-45.552-64.402c-9.033-10.964-17.417-20.479-25.61-29.058c-2.173-2.285-4.346-4.517-6.519-6.699
						c-24.702-7.576-49.121-13.743-72.651-18.345c-28.799-5.786-59.346-9.612-90.889-11.384
						c-31.655-1.548-61.929-0.806-89.893,2.214c-14.878,1.572-29.429,3.794-43.291,6.606c-6.885,1.362-13.73,2.932-20.435,4.683
						c-3.281,0.852-6.47,1.753-9.507,2.649l-6.68,2.204c-45.542,17.085-96.812-5.818-114.473-51.216
						c-17.798-45.84,5.02-97.607,50.859-115.41l10.459-3.687l8.169-2.59c5.649-1.67,10.894-3.149,16.03-4.463
						c9.795-2.573,19.731-4.866,30.259-6.975c19.336-3.909,39.429-6.99,59.683-9.155c37.725-3.994,77.471-4.983,118.125-2.947
						c39.785,2.188,78.75,7.043,115.898,14.436c37.607,7.422,75.21,17.358,111.729,29.531l0.786,0.276
						c13.677,4.6,26.372,12.839,36.387,23.718l0.464,0.522c1.006,1.177,1.475,1.78,1.982,2.424l3.809,5.222l4.004,5.715
						c2.725,3.999,5.142,7.742,7.52,11.46c4.453,6.985,8.828,14.207,13.403,22.114c7.983,13.77,15.698,28.365,23.569,44.6
						c14.268,29.502,26.68,60.569,36.89,92.351c4.829,15.239,9.287,31.248,13.281,47.656c4.307,18.723,7.319,34.097,9.536,48.616
						c4.995,31.904,7.29,64.817,6.821,97.751c-0.298,22.053-15.571,40.876-37.139,45.762
						C3053.891,2600.114,3050.346,2600.507,3046.826,2600.507z M2667.558,2246.926c11.001,0,22.202,0.278,33.574,0.833
						c33.447,1.88,65.776,5.933,96.216,12.051c26.167,5.115,53.423,12.085,80.918,20.691l4.321,1.353l3.232,3.174
						c3.535,3.474,7.061,7.056,10.571,10.745c8.813,9.226,17.798,19.417,27.441,31.125c17.388,21.191,33.745,44.316,48.638,68.755
						c6.748,11.152,13.491,23.274,20.635,37.102c7.393,14.851,13.042,27.212,17.91,39.157
						c10.728,26.077,19.463,53.855,25.947,82.507l0.146,0.662c0.596,2.629,2.173,4.873,4.448,6.313
						c2.275,1.436,4.976,1.902,7.568,1.309c4.57-1.035,7.817-5.01,7.881-9.665c0.439-30.833-1.709-61.612-6.387-91.497
						c-2.085-13.645-4.927-28.145-8.965-45.701c-3.735-15.354-7.969-30.537-12.515-44.893c-9.658-30.051-21.411-59.48-34.912-87.397
						c-7.456-15.378-14.746-29.17-22.271-42.148c-4.312-7.454-8.413-14.229-12.554-20.725c-2.173-3.398-4.404-6.851-6.772-10.334
						l-6.538-9.194c-0.234-0.298-0.42-0.532-0.688-0.85c-5.781-6.201-12.788-10.715-20.825-13.42l-0.737-0.259
						c-34.639-11.541-70.688-21.069-106.772-28.188c-35.449-7.056-72.642-11.687-110.571-13.774
						c-38.652-1.938-76.421-0.996-112.188,2.791c-19.082,2.039-38.013,4.941-56.245,8.628c-9.824,1.968-19.053,4.097-28.247,6.511
						c-4.829,1.235-9.624,2.593-14.473,4.023l-16.367,5.505c-26.191,10.176-39.404,40.146-29.102,66.68
						c9.541,24.526,36.045,37.71,60.952,31.34l0.488-0.779l8.804-2.278l4.902-1.565c3.784-1.123,7.373-2.131,11.05-3.088
						c7.412-1.936,14.995-3.674,22.524-5.166c14.937-3.027,30.669-5.43,46.685-7.124
						C2625.078,2247.997,2645.927,2246.926,2667.558,2246.926z"/>
				</g>
			</g>
			<g>
				<g>
					<path style="fill:#817C93;" d="M2655.156,1967.657c0,0,0.015-0.045,0.074-0.074l0.178-0.089l0.698-0.46l1.766-1.142
						l4.052-2.507c2.894-1.706,5.952-3.456,9.098-5.177c6.234-3.412,12.854-6.794,19.607-9.983
						c13.476-6.438,27.562-12.326,41.988-17.606c28.823-10.62,58.98-18.716,89.613-24.823c30.706-5.885,61.917-9.87,93.483-11.362
						c27.04-1.419,54.272-1.19,81.549,0.389c4.095,2.405,8.206,4.914,12.331,7.527c11.158,7.037,22.198,14.727,33.074,22.758
						c21.694,16.092,42.363,33.92,61.874,53.143c9.703,9.619,19.051,19.713,28.131,30.014c8.932,10.45,17.67,21.182,25.83,32.314
						c16.424,22.249,30.947,46.042,43.615,71.096l0.297,0.594c7.179,14.219,24.512,19.951,38.731,12.772
						c12.141-6.142,18.095-19.69,15.1-32.364c-7.206-30.603-16.994-60.88-29.424-90.207c-6.17-14.723-13.098-29.105-20.366-43.353
						c-7.447-14.16-15.354-28.126-23.795-41.826c-16.972-27.281-35.828-53.508-56.688-78.474
						c-10.4-12.424-21.261-24.655-32.79-36.515c-5.742-5.923-11.647-11.801-17.775-17.605c-3.086-2.909-6.217-5.834-9.496-8.758
						l-5.104-4.424l-2.701-2.286l-1.513-1.247c-0.549-0.43-0.979-0.772-2.018-1.514c-10.105-6.636-21.309-10.274-32.588-11.167
						l-0.43-0.045c-37.487-2.858-75.36-3.371-113.204-1.45c-37.873,1.861-75.718,6.602-113.206,13.836
						c-37.504,7.427-74.637,17.451-111.044,30.785c-18.211,6.689-36.199,14.194-54.084,22.724
						c-8.935,4.243-17.811,8.752-26.775,13.677c-4.468,2.418-8.995,5.014-13.551,7.699l-7.036,4.332l-3.71,2.374l-4.794,3.249
						c-31.734,22.462-39.268,66.403-16.806,98.137C2579.748,1982.229,2623.422,1989.822,2655.156,1967.657z"/>
				</g>
				<g style="opacity:0.3;">
					<path style="fill:#000072;" d="M2557.346,1950.614c-21.273-30.055-15.604-71.028,12.01-94.365
						c0.841,1.742,1.694,3.482,2.688,5.18c20.268,34.626,64.637,46.383,99.365,26.371c0,0,0.019-0.045,0.083-0.07l0.192-0.076
						l0.761-0.412l1.925-1.02l4.405-2.222c3.139-1.5,6.45-3.031,9.851-4.523c6.737-2.959,13.87-5.853,21.123-8.537
						c14.48-5.43,29.539-10.238,44.895-14.388c30.686-8.364,62.523-14.006,94.671-17.553c32.204-3.311,64.757-4.618,97.453-3.32
						c22.983,0.792,46.001,2.74,68.983,5.666c9.796,1.247,19.173,4.858,27.027,10.844c0.04,0.031,0.081,0.061,0.121,0.092
						c10.878,8.262,21.575,17.186,32.073,26.448c20.932,18.549,40.651,38.797,59.05,60.38c9.146,10.794,17.88,22.046,26.321,33.489
						c8.274,11.582,16.324,23.438,23.741,35.655c14.943,24.427,27.786,50.276,38.603,77.258l0.253,0.639
						c5.431,13.57,19.686,20.959,33.518,18.204c-2.025,11.195-10.462,21.066-23.707,23.475c-12.423,2.259-24.784-4.467-30.432-15.76
						l-0.198-0.397c-12.668-25.054-27.192-48.846-43.615-71.096c-8.16-11.132-16.899-21.864-25.83-32.314
						c-9.08-10.301-18.427-20.395-28.131-30.014c-19.511-19.223-40.18-37.051-61.874-53.143
						c-10.876-8.031-21.916-15.721-33.074-22.758c-4.125-2.613-8.235-5.122-12.331-7.527c-27.276-1.579-54.509-1.808-81.549-0.389
						c-31.566,1.492-62.777,5.477-93.483,11.362c-30.632,6.107-60.79,14.204-89.613,24.823
						c-14.426,5.28-28.511,11.169-41.988,17.606c-6.753,3.189-13.373,6.572-19.607,9.983c-3.146,1.721-6.204,3.471-9.098,5.177
						l-4.052,2.507l-1.766,1.142l-0.698,0.46l-0.178,0.089c-0.059,0.029-0.074,0.074-0.074,0.074
						C2623.422,1989.822,2579.748,1982.229,2557.346,1950.614z"/>
				</g>
				<g style="opacity:0.7;">
					<path style="fill:#FFFFFF;" d="M3225.329,2036.598c-6.17-14.723-13.098-29.105-20.366-43.353
						c-7.447-14.16-15.354-28.126-23.795-41.826c-16.972-27.281-35.828-53.508-56.688-78.474
						c-10.401-12.424-21.261-24.655-32.79-36.515c-5.742-5.923-11.647-11.801-17.775-17.605c-3.086-2.909-6.217-5.834-9.496-8.758
						l-5.104-4.424l-2.7-2.286l-1.513-1.247c-0.549-0.43-0.979-0.772-2.018-1.514c-10.105-6.636-21.309-10.274-32.587-11.167
						l-0.43-0.045c-37.487-2.858-75.36-3.371-113.203-1.45c-37.873,1.862-75.718,6.602-113.207,13.836
						c-37.504,7.427-74.637,17.451-111.044,30.785c-18.211,6.689-36.199,14.194-54.084,22.724
						c-8.935,4.242-17.811,8.752-26.775,13.677c-4.468,2.418-8.995,5.014-13.551,7.699l-7.035,4.332l-3.71,2.374l-4.794,3.249
						c-13.424,9.501-22.461,22.862-26.786,37.5c-5.432-26.534,4.754-54.983,28.277-71.633l4.794-3.249l3.71-2.374l7.036-4.332
						c4.556-2.685,9.083-5.281,13.551-7.699c8.965-4.925,17.84-9.435,26.775-13.677c17.885-8.529,35.873-16.035,54.084-22.724
						c36.407-13.334,73.54-23.358,111.044-30.785c37.489-7.234,75.333-11.975,113.206-13.836
						c37.844-1.921,75.717-1.408,113.204,1.45l0.43,0.045c11.279,0.893,22.483,4.531,32.588,11.167
						c1.039,0.742,1.469,1.084,2.018,1.514l1.513,1.247l2.701,2.286l5.104,4.424c3.279,2.924,6.41,5.849,9.496,8.758
						c6.128,5.804,12.033,11.682,17.775,17.605c11.529,11.86,22.389,24.091,32.79,36.515c20.86,24.967,39.717,51.194,56.688,78.474
						c8.441,13.7,16.348,27.666,23.795,41.826c7.269,14.248,14.196,28.63,20.366,43.353c12.43,29.328,22.218,59.605,29.424,90.207
						c1.893,8.01,0.194,16.356-4.364,22.974C3244.999,2088.853,3236.243,2062.35,3225.329,2036.598z"/>
				</g>
				<g>
					<path style="fill:#000072;" d="M3228.247,2146.891c-17.412,0-34.214-9.58-42.593-26.162l-0.366-0.745
						c-12.246-24.214-26.367-47.234-41.89-68.259c-7.09-9.673-15.02-19.592-25-31.265c-9.531-10.813-18.452-20.332-27.075-28.882
						c-19.087-18.804-39.233-36.111-59.839-51.394c-11.45-8.457-21.895-15.647-31.904-21.958c-2.666-1.69-5.313-3.325-7.954-4.915
						c-25.776-1.348-50.962-1.387-74.932-0.134c-29.341,1.387-59.897,5.105-90.928,11.052c-31.069,6.194-60.269,14.277-86.66,24.001
						c-14.053,5.144-27.627,10.837-40.386,16.931c-6.333,2.991-12.593,6.179-18.691,9.514c-2.959,1.621-5.845,3.271-8.574,4.88
						l-5.889,3.726c-40.029,27.681-95.356,17.942-123.54-21.814c-28.408-40.142-18.857-95.903,21.28-124.314l9.238-6.116
						l7.305-4.502c5.073-2.991,9.8-5.701,14.463-8.225c8.945-4.914,18.027-9.553,27.661-14.123
						c17.783-8.484,36.523-16.357,55.654-23.386c35.625-13.047,73.931-23.67,113.872-31.58
						c39.126-7.549,78.101-12.312,115.933-14.172c38.286-1.934,77.178-1.44,115.552,1.482l0.913,0.088
						c14.307,1.128,28.623,6.035,40.981,14.153l0.601,0.41c1.421,1.013,2.007,1.477,2.754,2.066l9.971,8.501
						c3.613,3.215,6.87,6.255,10.083,9.285c6.06,5.742,12.061,11.685,18.374,18.196c11.079,11.394,22.109,23.677,33.706,37.534
						c21.016,25.151,40.605,52.268,58.232,80.605c8.433,13.687,16.65,28.132,24.473,43.005
						c8.701,17.053,15.361,31.235,21.064,44.832c12.598,29.722,22.827,61.089,30.381,93.161c5.068,21.47-5.171,43.442-24.902,53.42
						C3242.759,2145.251,3235.449,2146.889,3228.247,2146.891z M2952.177,1874.724c15.117,0,30.552,0.452,46.167,1.357l4.517,0.261
						l3.901,2.29c4.277,2.51,8.569,5.129,12.876,7.856c10.762,6.787,21.953,14.487,34.18,23.518
						c22.041,16.348,43.525,34.8,63.896,54.871c9.268,9.187,18.755,19.307,29.038,30.974c10.786,12.617,19.272,23.235,26.89,33.628
						c16.729,22.659,31.958,47.48,45.229,73.721l0.371,0.752c2.437,4.814,8.491,6.816,13.438,4.326
						c4.185-2.115,6.367-6.76,5.293-11.292c-7.07-30.024-16.636-59.355-28.438-87.195c-5.356-12.781-11.641-26.152-19.8-42.146
						c-7.324-13.921-15.117-27.62-23.057-40.515c-16.67-26.79-35.225-52.478-55.112-76.282
						c-10.986-13.123-21.406-24.729-31.846-35.469c-5.952-6.14-11.582-11.716-17.227-17.058c-2.93-2.764-5.933-5.569-9.077-8.374
						l-8.765-7.485c-0.039-0.024-0.239-0.181-0.688-0.505c-7.114-4.604-15.01-7.28-23.462-7.949l-0.854-0.083
						c-36.318-2.764-73.618-3.24-110.342-1.377c-36.099,1.775-73.301,6.326-110.605,13.523
						c-37.944,7.515-74.36,17.605-108.145,29.978c-18.027,6.624-35.684,14.041-52.456,22.041
						c-8.989,4.267-17.427,8.574-25.82,13.186c-4.38,2.368-8.706,4.854-13.062,7.419l-14.536,9.321
						c-22.93,16.233-28.462,48.518-12.017,71.753c15.2,21.45,44.067,27.81,66.68,15.618l0.303-0.964l8.027-4.292l4.37-2.71
						c3.408-2.012,6.636-3.862,9.961-5.681c6.753-3.691,13.682-7.222,20.61-10.491c13.745-6.567,28.423-12.722,43.545-18.259
						c28.184-10.386,59.287-19.004,92.402-25.605c32.905-6.309,65.249-10.237,96.265-11.702
						C2926.997,1875.043,2939.472,1874.724,2952.177,1874.724z"/>
				</g>
			</g>
			<g>
				<g>
					<path style="fill:#817C93;" d="M2563.372,1673.733c0,0-0.005-0.047,0.037-0.098l0.126-0.155l0.446-0.706l1.14-1.768
						l2.661-3.953c1.936-2.746,4.002-5.6,6.161-8.463c4.277-5.675,8.918-11.482,13.76-17.169
						c9.633-11.414,20.045-22.578,31.02-33.327c21.897-21.541,46.05-41.333,71.453-59.507c25.563-18.002,52.367-34.48,80.521-48.832
						c24.059-12.422,48.972-23.422,74.481-33.21c4.722,0.506,9.501,1.101,14.336,1.785c13.066,1.82,26.292,4.285,39.51,7.128
						c26.394,5.737,52.569,13.478,78.263,22.967c12.802,4.772,25.476,10.124,37.991,15.775
						c12.441,5.847,24.822,12.031,36.841,18.818c24.125,13.518,47.155,29.224,69.012,46.843l0.515,0.419
						c12.396,10.004,30.551,8.094,40.555-4.302c8.537-10.594,8.387-25.392,0.441-35.711c-19.163-24.924-40.545-48.489-63.944-70.102
						c-11.683-10.879-23.916-21.135-36.405-31.128c-12.615-9.84-25.57-19.314-38.901-28.325
						c-26.696-17.877-54.676-34.019-83.963-48.187c-14.592-7.042-29.524-13.719-44.913-19.783
						c-7.671-3.034-15.472-5.961-23.445-8.729c-4.01-1.381-8.067-2.758-12.259-4.073l-6.472-1.931l-3.402-0.972l-1.892-0.514
						c-0.678-0.166-1.21-0.3-2.462-0.549c-11.941-1.889-23.649-0.594-34.296,3.235l-0.41,0.136
						c-35.34,12.824-70.068,27.945-103.767,45.272c-33.75,17.285-66.29,37.182-97.478,59.204
						c-31.123,22.205-60.84,46.624-88.531,73.76c-13.844,13.592-27.149,27.836-39.938,42.97
						c-6.397,7.544-12.63,15.307-18.773,23.485c-3.076,4.042-6.134,8.272-9.181,12.594l-4.629,6.844l-2.405,3.691l-3.032,4.934
						c-19.677,33.532-8.457,76.68,25.075,96.356C2500.645,1718.05,2543.573,1706.994,2563.372,1673.733z"/>
				</g>
				<g style="opacity:0.3;">
					<path style="fill:#000072;" d="M2467.216,1698.457c-31.758-18.635-43.455-58.31-27.894-90.945
						c1.484,1.241,2.977,2.476,4.582,3.615c32.723,23.215,77.999,15.668,101.412-16.864c0,0-0.001-0.049,0.047-0.098l0.144-0.148
						l0.524-0.688l1.334-1.721l3.1-3.838c2.243-2.659,4.631-5.417,7.116-8.177c4.922-5.47,10.231-11.043,15.737-16.474
						c10.962-10.908,22.707-21.489,34.993-31.591c24.524-20.253,51.217-38.498,79.055-54.963
						c27.987-16.273,57.117-30.862,87.45-43.136c21.272-8.737,43.052-16.436,65.201-23.228c9.441-2.895,19.473-3.464,29.094-1.241
						c0.049,0.011,0.099,0.023,0.148,0.034c13.314,3.052,26.736,6.783,40.116,10.903c26.711,8.29,53.016,18.627,78.668,30.724
						c12.778,6.073,25.37,12.733,37.772,19.687c12.308,7.15,24.524,14.641,36.312,22.723c23.672,16.112,46.016,34.383,66.98,54.523
						l0.493,0.478c10.535,10.132,26.568,10.999,38.04,2.795c2.762,11.036-0.864,23.505-11.944,31.152
						c-10.392,7.172-24.426,6.13-34.221-1.838l-0.344-0.28c-21.857-17.619-44.886-33.325-69.012-46.843
						c-12.019-6.787-24.4-12.971-36.841-18.818c-12.515-5.651-25.188-11.003-37.991-15.775
						c-25.694-9.489-51.869-17.23-78.263-22.967c-13.218-2.843-26.444-5.307-39.51-7.128c-4.835-0.683-9.614-1.278-14.336-1.785
						c-25.509,9.788-50.422,20.788-74.481,33.21c-28.155,14.352-54.958,30.83-80.521,48.832
						c-25.404,18.174-49.556,37.965-71.453,59.507c-10.975,10.75-21.387,21.914-31.02,33.327
						c-4.842,5.686-9.483,11.493-13.76,17.169c-2.159,2.863-4.225,5.717-6.161,8.463l-2.661,3.953l-1.14,1.768l-0.446,0.706
						l-0.126,0.155c-0.042,0.051-0.037,0.098-0.037,0.098C2543.573,1706.994,2500.645,1718.05,2467.216,1698.457z"/>
				</g>
				<g style="opacity:0.7;">
					<path style="fill:#FFFFFF;" d="M3111.386,1501.887c-11.683-10.879-23.916-21.135-36.405-31.128
						c-12.615-9.84-25.569-19.314-38.901-28.325c-26.696-17.877-54.676-34.019-83.963-48.187
						c-14.592-7.042-29.524-13.719-44.913-19.783c-7.671-3.034-15.472-5.961-23.446-8.729c-4.01-1.381-8.067-2.758-12.259-4.073
						l-6.473-1.931l-3.402-0.972l-1.892-0.514c-0.677-0.166-1.21-0.3-2.462-0.549c-11.94-1.889-23.649-0.593-34.295,3.235
						l-0.411,0.137c-35.34,12.824-70.068,27.945-103.767,45.272c-33.75,17.285-66.29,37.182-97.478,59.204
						c-31.123,22.205-60.839,46.624-88.531,73.76c-13.844,13.592-27.149,27.835-39.938,42.97
						c-6.397,7.544-12.63,15.307-18.773,23.485c-3.076,4.042-6.134,8.272-9.181,12.594l-4.629,6.844l-2.405,3.69l-3.032,4.934
						c-8.323,14.184-11.061,30.08-8.977,45.201c-15.872-21.947-18.298-52.066-3.712-76.923l3.032-4.934l2.405-3.691l4.629-6.844
						c3.048-4.323,6.105-8.552,9.181-12.594c6.143-8.178,12.376-15.941,18.773-23.485c12.789-15.135,26.094-29.378,39.938-42.97
						c27.692-27.136,57.408-51.555,88.531-73.76c31.189-22.023,63.728-41.919,97.478-59.204
						c33.699-17.327,68.427-32.447,103.767-45.272l0.41-0.136c10.647-3.829,22.355-5.124,34.296-3.235
						c1.252,0.249,1.785,0.383,2.462,0.549l1.892,0.514l3.402,0.972l6.472,1.931c4.192,1.315,8.249,2.692,12.259,4.073
						c7.974,2.768,15.775,5.694,23.445,8.729c15.388,6.064,30.321,12.741,44.913,19.783c29.288,14.168,57.268,30.309,83.963,48.187
						c13.332,9.011,26.286,18.486,38.901,28.325c12.489,9.994,24.722,20.25,36.405,31.128
						c23.399,21.613,44.781,45.177,63.944,70.102c5.021,6.521,6.908,14.827,5.479,22.734
						C3150.821,1541.415,3131.933,1520.865,3111.386,1501.887z"/>
				</g>
				<g>
					<path style="fill:#000072;" d="M2502.627,1726.843c-15.313,0-30.806-3.928-44.902-12.19
						c-20.552-12.061-35.166-31.394-41.167-54.451c-5.996-23.052-2.661-47.058,9.395-67.6l5.903-9.38l4.805-7.107
						c3.384-4.81,6.577-9.224,9.785-13.445c6.089-8.108,12.461-16.072,19.399-24.258c12.725-15.061,26.563-29.949,41.104-44.226
						c27.104-26.56,57.646-52.007,90.776-75.645c32.544-22.981,66.108-43.362,99.829-60.632
						c34.097-17.532,69.741-33.081,105.918-46.208l0.527-0.183c13.838-4.971,28.911-6.396,43.516-4.082l0.718,0.127
						c1.699,0.337,2.417,0.515,3.335,0.742l12.612,3.647c4.609,1.445,8.828,2.876,12.998,4.309
						c7.886,2.739,15.801,5.686,24.243,9.026c14.785,5.825,29.893,12.478,46.167,20.332c29.497,14.27,58.511,30.918,86.25,49.495
						c13.286,8.979,26.719,18.762,40,29.121c14.971,11.977,26.875,22.161,37.651,32.192c23.721,21.912,45.957,46.287,66.035,72.397
						c13.452,17.476,13.169,41.714-0.703,58.931c-16.494,20.432-46.528,23.621-66.963,7.134l-0.62-0.508
						c-21.157-17.048-43.501-32.214-66.294-44.988c-10.43-5.891-21.743-11.667-35.654-18.208
						c-13.125-5.923-25.171-10.925-36.563-15.171c-25.132-9.282-50.615-16.763-75.693-22.212
						c-13.901-2.993-26.377-5.247-38.11-6.882c-3.13-0.442-6.216-0.842-9.268-1.204c-24.058,9.385-47.026,19.71-68.345,30.718
						c-26.177,13.345-52.5,29.312-78.325,47.5c-25.762,18.43-49.048,37.817-69.102,57.542
						c-10.703,10.488-20.732,21.262-29.834,32.048c-4.551,5.344-8.94,10.828-13.115,16.362c-2.046,2.712-3.984,5.393-5.801,7.971
						l-3.823,5.798C2562.641,1711.393,2532.988,1726.843,2502.627,1726.843z M2461.04,1607.199l-2.896,4.719
						c-6.792,11.58-8.721,25.481-5.249,38.831c3.472,13.347,11.934,24.541,23.823,31.516c22.71,13.323,51.699,7.195,67.275-13.316
						l-0.068-0.664l5.43-7.471l2.856-4.246c2.271-3.237,4.463-6.265,6.758-9.299c4.6-6.104,9.468-12.175,14.443-18.02
						c9.805-11.623,20.649-23.276,32.168-34.563c21.416-21.067,46.211-41.724,73.672-61.367
						c27.393-19.29,55.249-36.182,82.92-50.288c23.706-12.241,49.404-23.701,76.284-34.014l4.229-1.621l4.502,0.483
						c4.927,0.53,9.907,1.147,14.956,1.863c12.617,1.758,25.981,4.17,40.83,7.363c26.816,5.83,53.994,13.804,80.815,23.708
						c12.236,4.563,25.049,9.88,39.214,16.274c15.039,7.068,27.144,13.252,38.35,19.583c24.565,13.765,48.657,30.117,71.558,48.572
						l0.63,0.515c4.229,3.403,10.576,2.739,14.053-1.57c2.896-3.589,2.969-8.838,0.176-12.468
						c-18.794-24.443-39.59-47.241-61.812-67.766c-10.122-9.426-21.353-19.026-35.396-30.259
						c-12.432-9.695-25.171-18.972-37.681-27.432c-26.226-17.561-53.711-33.337-81.626-46.838
						c-15.415-7.439-29.688-13.728-43.618-19.216c-7.969-3.152-15.396-5.918-22.725-8.462c-3.799-1.309-7.695-2.632-11.724-3.896
						l-11.06-3.208c-0.039-0.007-0.283-0.066-0.84-0.181c-8.394-1.274-16.675-0.454-24.648,2.412l-0.479,0.166
						c-34.575,12.539-68.75,27.451-101.47,44.272c-32.178,16.48-64.209,35.935-95.234,57.844
						c-31.479,22.458-60.513,46.646-86.221,71.833c-13.701,13.45-26.738,27.478-38.735,41.68
						c-6.479,7.639-12.393,15.037-18.105,22.642c-3.013,3.958-5.933,8-8.843,12.134L2461.04,1607.199z"/>
				</g>
			</g>
		</g>
		<g>
			<g>
				<ellipse style="fill:#817C93;" cx="2015" cy="1917.443" rx="670.899" ry="622.56"/>
			</g>
			<g style="opacity:0.3;">
				<path style="fill:#000072;" d="M2398.187,1406.405c46.803,75.934,73.565,163.873,73.565,257.617
					c0,286.994-250.72,519.649-559.998,519.649c-270.406,0-496.041-177.849-548.49-414.367
					c-12.492,47.484-19.163,97.085-19.163,148.139c0,343.831,300.372,622.56,670.899,622.56s670.899-278.729,670.899-622.56
					C2685.899,1705.821,2572.084,1518.895,2398.187,1406.405z"/>
			</g>
			<g style="opacity:0.7;">
				<path style="fill:#FFFFFF;" d="M2015,1294.883c-370.527,0-670.899,278.73-670.899,622.56
					c0,80.813,16.601,158.027,46.798,228.873c-15.183-52.01-23.333-106.703-23.333-163.172c0-193.39,95.05-366.157,244.14-480.34
					c16.992-13.014,39.095-16.783,59.796-11.349c33.709,8.849,85.703,4.328,140.027-14.705
					c57.921-20.293,103.474-51.821,122.415-81.436c12.061-18.857,31.767-31.416,54.098-32.972
					c16.645-1.16,33.458-1.758,50.423-1.758c283.439,0,525.819,163.107,624.101,393.686
					C2585.297,1489.597,2324.675,1294.883,2015,1294.883z"/>
			</g>
			<g style="opacity:0.5;">
				
					<ellipse transform="matrix(0.9438 -0.3307 0.3307 0.9438 -416.0111 708.0472)" style="fill:#FFFFFF;" cx="1873.138" cy="1576.794" rx="94.585" ry="40.862"/>
			</g>
			<g>
				<path style="fill:#000072;" d="M2015,2558.088c-379.907,0-688.98-287.393-688.98-640.644s309.072-640.642,688.98-640.642
					s688.979,287.39,688.979,640.642S2394.907,2558.088,2015,2558.088z M2015,1312.968c-359.966,0-652.818,271.167-652.818,604.475
					c0,333.31,292.852,604.477,652.818,604.477s652.817-271.167,652.817-604.477C2667.817,1584.135,2374.966,1312.968,2015,1312.968
					z"/>
			</g>
		</g>
		<g>
			<g>
				<path style="fill:#817C93;" d="M2072.746,2776.297c236.819-32.282,367.56-103.296,439.441-175.594
					c71.512-71.927,97.153-177.936,68.954-275.365c-141.73-489.701-623.85-396.003-623.85-396.003s-489.608,38.764-495.095,548.533
					c-1.092,101.422,51.987,196.7,140.142,246.862C1690.948,2775.151,1835.926,2808.579,2072.746,2776.297z"/>
			</g>
			<g style="opacity:0.3;">
				<path style="fill:#000072;" d="M2581.141,2325.338c-33.125-114.45-84.846-197.021-144.656-256.381
					c41.19,51.428,76.412,117.321,100.842,201.729c26.483,91.504,2.402,191.066-64.761,258.619
					c-67.51,67.902-190.3,134.596-412.718,164.915c-222.418,30.319-358.579-1.076-441.8-48.431
					c-82.794-47.112-132.645-136.596-131.62-231.85c0.828-76.915,13.436-142.356,33.941-198.12
					c-34.627,69.386-57.025,155.371-58.173,262.049c-1.092,101.422,51.987,196.7,140.142,246.862
					c88.61,50.421,233.588,83.849,470.407,51.567c236.819-32.282,367.56-103.296,439.441-175.594
					C2583.7,2528.776,2609.339,2422.767,2581.141,2325.338z"/>
			</g>
			<g style="opacity:0.7;">
				<path style="fill:#FFFFFF;" d="M1957.291,1929.335c0,0-489.608,38.764-495.095,548.533
					c-0.475,44.086,9.297,87.006,27.725,125.569c-6.139-23.869-9.225-48.717-8.954-73.947
					c2.318-215.363,91.044-346.651,192.753-426.475c13.064,11.44,53.222,2.968,94.259-20.726
					c37.712-21.773,63.881-49.315,65.271-66.862c80.448-29.515,142.812-34.471,142.812-34.471s432.577-83.986,598.667,323.414
					C2425.477,1838.369,1957.291,1929.335,1957.291,1929.335z"/>
			</g>
			<g>
				<g>
					<path style="fill:#FFFFFF;" d="M1911.427,2599.605c0,0,4.973,49.729,41.192,67.517c6.646,3.264,14.666,1.815,19.873-3.449
						c8.106-8.196,19.339-24.18,24.495-52.695L1911.427,2599.605z"/>
				</g>
				<g>
					<path style="fill:#000072;" d="M1960.127,2682.948c-4.658,0-9.346-1.042-13.716-3.188
						c-42.749-20.996-48.76-76.404-48.994-78.752c-0.43-4.282,1.123-8.523,4.214-11.516c3.096-2.991,7.373-4.417,11.65-3.84
						l85.562,11.372c3.813,0.505,7.256,2.551,9.521,5.662c2.266,3.11,3.164,7.012,2.476,10.798
						c-5.747,31.792-18.584,50.225-28.34,60.09C1976.43,2679.714,1968.33,2682.948,1960.127,2682.948z M1929.634,2616.23
						c4.355,13.247,12.905,30.259,29.189,38.257c1.167,0.571,2.671,0.281,3.657-0.713c5.464-5.525,12.329-15.083,17.188-30.894
						L1929.634,2616.23z"/>
				</g>
			</g>
			<g>
				<g>
					<path style="fill:#FFFFFF;" d="M2180.885,2562.874c0,0,8.519,49.246-21.617,76.079c-5.53,4.924-13.646,5.675-20.071,1.996
						c-10.004-5.728-25.105-18.122-37.705-44.216L2180.885,2562.874z"/>
				</g>
				<g>
					<path style="fill:#000072;" d="M2147.89,2657.353c-5.371,0-10.781-1.377-15.688-4.187
						c-12.036-6.892-29.341-21.216-43.389-50.313c-1.67-3.464-1.851-7.463-0.503-11.067c1.353-3.601,4.121-6.494,7.661-8.003
						l79.39-33.86c3.95-1.687,8.472-1.477,12.251,0.581c3.779,2.056,6.411,5.728,7.144,9.968
						c0.405,2.327,9.448,57.324-26.128,88.994C2162.783,2654.675,2155.376,2657.353,2147.89,2657.353z M2121.362,2603.564
						c8.916,13.938,18.086,21.306,24.834,25.166c1.206,0.696,2.734,0.581,3.706-0.291c13.472-11.995,17.168-30.708,17.842-44.656
						L2121.362,2603.564z"/>
				</g>
			</g>
			<g>
				<g>
					
						<ellipse transform="matrix(0.4288 -0.9034 0.9034 0.4288 -1117.6265 3200.8496)" style="fill:#000072;" cx="1972.374" cy="2484.228" rx="16.3" ry="16.3"/>
				</g>
				<g>
					<path style="fill:#000072;" d="M2075.13,2470.221c1.216,8.92,9.432,15.165,18.352,13.949
						c8.919-1.216,15.165-9.432,13.949-18.352c-1.216-8.92-9.432-15.165-18.352-13.949
						C2080.159,2453.085,2073.914,2461.301,2075.13,2470.221z"/>
				</g>
				<g>
					<path style="fill:#000072;" d="M1923.928,2535.585c4.185,5.339,6.777,10.768,8.862,16.68c2.019,5.868,3.228,12.04,3.599,18.395
						c0.835,12.657-1.79,26.364-8.831,38.594c-3.452,6.1-7.969,11.735-13.232,16.443c-5.264,4.736-11.331,8.315-17.495,11.033
						c-12.544,5.046-25.571,6.172-37.581,3.219c-4.077-1.003-6.572-5.123-5.569-9.202c0.469-1.902,1.614-3.459,3.115-4.478
						l0.3-0.202c9.29-6.275,17.214-11.608,23.44-17.267c6.184-5.697,10.627-11.351,14.253-17.975
						c3.682-6.567,6.443-14.285,9.226-23.054c2.717-8.732,5.059-18.699,8.391-29.282l0.271-0.858c1.072-3.404,4.7-5.295,8.105-4.222
						C1922.078,2533.814,1923.152,2534.59,1923.928,2535.585z"/>
				</g>
				<g>
					<path style="fill:#000072;" d="M2163.582,2504.248c6.045,9.305,10.967,18.282,15.923,25.968
						c5.029,7.704,9.756,14.401,15.061,19.743c5.266,5.412,11.06,9.67,18.542,13.504c7.515,3.786,16.577,6.804,27.207,10.363
						l0.33,0.11c3.982,1.334,6.13,5.645,4.795,9.628c-0.62,1.857-1.904,3.322-3.484,4.214c-10.781,6.06-23.635,8.462-37.07,6.957
						c-6.667-0.969-13.472-2.793-19.81-5.947c-6.331-3.128-12.192-7.348-17.151-12.301c-10.059-9.899-16.255-22.404-18.84-34.822
						c-1.34-6.223-1.829-12.492-1.453-18.687c0.425-6.254,1.47-12.179,4.072-18.443c1.37-3.296,5.151-4.859,8.447-3.49
						c1.252,0.521,2.256,1.39,2.942,2.45L2163.582,2504.248z"/>
				</g>
				<g>
					<path style="fill:#000072;" d="M2012.143,2630.119c-56.108,0-102.656-13.992-105.049-14.722
						c-9.917-3.032-15.493-13.525-12.466-23.44c3.037-9.91,13.511-15.486,23.428-12.469c0.732,0.225,65.405,19.531,129.336,10.808
						c63.965-8.718,121.152-44.67,121.724-45.032c8.745-5.547,20.347-2.974,25.908,5.764c5.562,8.74,2.998,20.33-5.737,25.901
						c-2.598,1.658-64.487,40.706-136.826,50.569C2038.798,2629.36,2025.21,2630.119,2012.143,2630.119z"/>
				</g>
			</g>
			<g>
				<g>
					
						<ellipse transform="matrix(0.7071 -0.7071 0.7071 0.7071 -969.2166 2276.4063)" style="fill:#EF2B63;" cx="2263.257" cy="2308.151" rx="144.561" ry="144.561"/>
				</g>
				<g style="opacity:0.3;">
					<path style="fill:#000072;" d="M2243.732,2164.915c79.107-10.784,151.978,44.604,162.761,123.711
						c6.726,49.343-12.297,96.255-46.757,127.191c21.752-25.491,33.063-59.705,28.18-95.521
						c-9.092-66.693-70.528-113.389-137.221-104.298c-66.694,9.091-113.389,70.527-104.298,137.221
						c4.882,35.817,24.938,65.756,52.72,84.494c-41.484-20.583-72.37-60.694-79.096-110.037
						C2109.237,2248.569,2164.625,2175.698,2243.732,2164.915z"/>
				</g>
				<g>
					<path style="fill:#000072;" d="M2263.144,2471.496c-80.352,0-150.571-59.492-161.724-141.282v-0.002
						c-12.163-89.236,50.542-171.733,139.775-183.899c89.267-12.124,171.733,50.545,183.896,139.775
						c12.163,89.241-50.542,171.736-139.775,183.899C2277.871,2471,2270.459,2471.496,2263.144,2471.496z M2138.618,2325.141
						c9.37,68.726,72.915,117.029,141.631,107.644c68.721-9.365,117.012-72.898,107.646-141.626
						c-9.37-68.723-72.959-117.031-141.631-107.644c-68.721,9.368-117.012,72.9-107.646,141.628V2325.141z"/>
				</g>
				<g>
					
						<ellipse transform="matrix(0.7071 -0.7071 0.7071 0.7071 -966.6096 2238.6697)" style="fill:#000072;" cx="2219.009" cy="2286.136" rx="97.917" ry="97.917"/>
				</g>
				<g>
					
						<ellipse transform="matrix(0.7071 -0.7071 0.7071 0.7071 -960.6516 2210.2832)" style="fill:#FFFFFF;" cx="2187.722" cy="2264.751" rx="47.121" ry="47.121"/>
				</g>
			</g>
			<g>
				<g>
					
						<ellipse transform="matrix(0.7071 -0.7071 0.7071 0.7071 -1163.6151 1943.2328)" style="fill:#EF2B63;" cx="1763.882" cy="2376.224" rx="144.561" ry="144.561"/>
				</g>
				<g style="opacity:0.3;">
					<path style="fill:#000072;" d="M1744.357,2232.988c-79.107,10.783-134.494,83.654-123.711,162.761
						c6.726,49.343,37.611,89.451,79.095,110.036c-27.782-18.739-47.837-48.677-52.719-84.493
						c-9.091-66.693,37.605-128.129,104.298-137.221c66.694-9.092,128.13,37.605,137.221,104.298
						c4.882,35.817-6.428,70.031-28.181,95.522c34.461-30.937,53.485-77.85,46.758-127.193
						C1896.334,2277.591,1823.464,2222.204,1744.357,2232.988z"/>
				</g>
				<g>
					<path style="fill:#000072;" d="M1763.769,2539.57c-80.351,0-150.571-59.495-161.724-141.284
						c-12.163-89.238,50.542-171.733,139.775-183.899c89.272-12.136,171.729,50.539,183.896,139.775v0.002
						c12.163,89.236-50.542,171.731-139.775,183.896C1778.496,2539.074,1771.084,2539.57,1763.769,2539.57z M1763.964,2250.424
						c-5.635,0-11.338,0.381-17.075,1.165c-68.721,9.368-117.012,72.9-107.646,141.626c9.37,68.721,72.891,117.041,141.631,107.644
						c68.721-9.368,117.012-72.9,107.646-141.626v0.002C1879.931,2296.247,1825.844,2250.424,1763.964,2250.424z"/>
				</g>
				<g>
					<circle style="fill:#000072;" cx="1800.624" cy="2343.168" r="97.917"/>
				</g>
				<g>
					
						<ellipse transform="matrix(0.7071 -0.7071 0.7071 0.7071 -1101.8359 1968.3118)" style="fill:#FFFFFF;" cx="1825.044" cy="2314.189" rx="47.121" ry="47.121"/>
				</g>
			</g>
			<g>
				<path style="fill:#000072;" d="M1898.037,2807.841c-124.668,0-226.821-22.319-304.98-66.794
					c-93.476-53.191-150.81-154.111-149.629-263.381c2.93-272.031,142.329-411.909,258.76-481.35
					c120.762-72.026,239.326-84.419,252.563-85.603c13.091-2.405,130.635-22.19,266.265,14.878
					c130.767,35.745,302.524,133.205,378.159,394.529c30.381,104.971,2.148,217.556-73.677,293.818
					c-91.26,91.794-242.734,152.678-450.22,180.959l0,0C2011.948,2803.53,1952.812,2807.841,1898.037,2807.841z M2050.698,1941.022
					c-53.711,0-89.199,6.619-89.844,6.743l-2.085,0.283c-1.172,0.095-120.581,10.464-238.54,81.223
					c-156.568,93.916-237.066,244.914-239.263,448.799c-1.03,95.635,49.033,183.899,130.654,230.344
					c105.176,59.844,259.473,76.423,458.589,49.282v-0.002c199.126-27.141,343.35-84.414,428.667-170.227
					c66.211-66.594,90.825-165.037,64.233-256.909c-56.685-195.859-174.668-319.802-350.659-368.386
					C2152.338,1945.578,2095.249,1941.022,2050.698,1941.022z"/>
			</g>
		</g>
	</g>
</g>
</svg>
