<?xml version="1.0" encoding="utf-8"?>
<!-- Generator: Adobe Illustrator 27.5.0, SVG Export Plug-In . SVG Version: 6.00 Build 0)  -->
<svg version="1.1" id="Layer_1" xmlns="http://www.w3.org/2000/svg" xmlns:xlink="http://www.w3.org/1999/xlink" x="0px" y="0px"
	 viewBox="0 0 4000 4000" style="enable-background:new 0 0 4000 4000;" xml:space="preserve">
<g>
	<g>
		<!-- <rect style="fill:#FFFFFF;" width="4000" height="4000"/> -->
	</g>
	<g>
		<circle style="fill:#02DAFF;" cx="2000" cy="2113.008" r="1338.008"/>
	</g>
	<g>
		<g>
			<path style="fill:#FFFFFF;" d="M2634.199,1124.014c-1.545-0.171-3.003-0.171-4.548-0.171
				c-55.854,0-101.072,45.303-101.072,101.157h113.599h88.63h152.637h61.433h55.867c-74.187-83.542-158.613-157.783-251.409-220.63
				C2692.368,1020.273,2647.961,1066.14,2634.199,1124.014z"/>
		</g>
		<g>
			<path style="fill:#FFFFFF;" d="M969.534,2835h126.365h73.374h94.045c0-46.24-37.434-83.745-83.674-83.745
				c-1.279,0-2.485,0-3.765,0.142c-14.207-59.736-67.834-104.06-131.904-104.06c-19.817,0-38.64,4.26-55.547,11.863
				c-27.844-69.966-96.174-119.404-176.084-119.404c-26.794,0-52.273,5.593-75.376,15.625
				c34.683,99.016,80.596,192.749,136.355,279.58h45.354H969.534z"/>
		</g>
	</g>
	<g>
		<g>
			<path style="fill:#FFFDF7;" d="M1942.017,2753.332l-511.163,186.345c-14.145,5.156-29.242-4.848-30.005-19.884l-1.011-19.915
				c-2.87-56.531,23.437-110.587,69.694-143.21l374.091-263.824L1942.017,2753.332z"/>
		</g>
		<g style="opacity:0.55;">
			<path style="fill:#FFFFFF;" d="M1855.562,2524.485l-352.674,248.762c-46.275,32.614-72.586,86.662-69.688,143.195l1.012,19.918
				c0.046,0.69,0.092,1.38,0.184,2.024l-3.542,1.288c-14.122,5.152-29.255-4.83-29.991-19.872l-1.012-19.917
				c-2.898-56.533,23.413-110.582,69.688-143.195l374.064-263.85L1855.562,2524.485z"/>
		</g>
		<g>
			<path style="fill:#000072;" d="M1423.105,2957.166c-7.414,0-14.731-2.178-21.162-6.44c-10.288-6.816-16.545-17.793-17.173-30.117
				l-1.011-19.917c-3.169-62.407,25.427-121.167,76.494-157.183l374.089-263.823c4.075-2.871,9.241-3.691,14.002-2.231
				c4.763,1.46,8.579,5.044,10.339,9.702l98.396,260.488c1.521,4.023,1.367,8.491-0.427,12.402
				c-1.794,3.906-5.078,6.938-9.119,8.413l-511.165,186.343C1432.026,2956.384,1427.548,2957.166,1423.105,2957.166z
				 M1835.91,2517.986l-357.097,251.841c-41.99,29.609-65.503,77.92-62.896,129.233l1.011,19.917c0.139,2.749,1.814,4.253,2.8,4.907
				c0.981,0.654,3.025,1.597,5.61,0.664l495.864-180.762L1835.91,2517.986z"/>
		</g>
		<g>
			<path style="fill:#000072;" d="M1529.226,2898.777l1.575-38.186l0.396-9.546l0.195-4.773l0.1-2.388l0.193-3.054
				c0.757-8.56,4.082-16.792,9.343-23.374c5.149-6.577,12.612-11.628,20.09-14.06l17.922-6.543l35.847-13.086l143.481-52.378
				c1.194-0.437,2.515,0.178,2.952,1.372c0.415,1.138-0.132,2.397-1.221,2.888l-139.531,62.642l-34.905,15.667l-17.456,7.837
				c-4.487,1.929-7.676,4.756-10.117,8.401c-2.371,3.606-3.596,7.825-3.577,11.975l0.735,18.42l1.575,38.186
				c0.315,7.622-5.608,14.055-13.23,14.37c-7.62,0.315-14.055-5.608-14.368-13.23
				C1529.209,2899.543,1529.211,2899.146,1529.226,2898.777z"/>
		</g>
		<g style="opacity:0.3;">
			<path style="fill:#000072;" d="M1798.685,2805.584l-255.661,93.194v-55.349c0-13.776,8.612-26.082,21.554-30.801l194.657-79.11
				L1798.685,2805.584z"/>
		</g>
		<g>
			<path style="fill:#FFFDF7;" d="M2600.147,2899.882l-1.012,19.917c-0.736,15.042-15.87,25.023-29.991,19.872l-327.742-119.459
				l-183.444-66.883l98.438-260.492l150.049,105.843l224.015,158.007C2576.734,2789.3,2603.045,2843.349,2600.147,2899.882z"/>
		</g>
		<g>
			<path style="fill:#000072;" d="M2576.892,2957.166c-4.443,0-8.921-0.781-13.262-2.363l-511.165-186.343
				c-4.041-1.475-7.324-4.507-9.119-8.413c-1.794-3.911-1.948-8.379-0.427-12.402l98.393-260.488
				c1.76-4.658,5.576-8.242,10.339-9.702c4.753-1.46,9.924-0.64,14.001,2.231l374.089,263.823
				c51.069,36.021,79.663,94.775,76.494,157.183l-1.011,19.917c-0.625,12.324-6.88,23.301-17.168,30.117
				C2591.628,2954.988,2584.309,2957.166,2576.892,2957.166z M2078.796,2743.787l495.859,180.762
				c2.588,0.933,4.629-0.005,5.615-0.664c0.986-0.654,2.661-2.158,2.798-4.907l1.011-19.917
				c2.607-51.313-20.903-99.624-62.891-129.238l-357.102-251.836L2078.796,2743.787z"/>
		</g>
		<g>
			<path style="fill:#000072;" d="M2241.628,2731.389l143.572,52.141l35.872,13.027l17.932,6.514
				c7.52,2.471,15.029,7.585,20.188,14.219c5.276,6.638,8.594,14.927,9.329,23.528l0.186,3.066l0.09,2.388l0.181,4.773l0.359,9.546
				l1.438,38.186c0.286,7.622-5.659,14.033-13.281,14.321c-7.622,0.286-14.033-5.659-14.319-13.281c-0.012-0.337-0.012-0.706,0-1.04
				l1.438-38.186l0.662-18.408c0-4.109-1.233-8.271-3.589-11.819c-2.432-3.591-5.574-6.355-10.02-8.247l-17.446-7.864l-34.88-15.728
				l-139.441-62.876c-1.16-0.522-1.675-1.885-1.152-3.044C2239.243,2731.501,2240.51,2730.986,2241.628,2731.389z"/>
		</g>
		<g>
			<path style="fill:#0BAEFF;" d="M2715.144,1491.118v244.99c0,22.125-17.939,40.065-40.065,40.065h-120.701
				c-22.126,0-40.111-17.939-40.111-40.065v-244.99c0-12.374,10.028-22.401,22.401-22.401h156.074
				C2705.117,1468.717,2715.144,1478.744,2715.144,1491.118z"/>
			<path style="fill:#000072;" d="M2675.08,1778.674h-120.703c-23.496,0-42.612-19.092-42.612-42.563v-244.99
				c0-13.73,11.172-24.902,24.902-24.902h156.074c13.73,0,24.902,11.172,24.902,24.902v244.99
				C2717.644,1759.583,2698.552,1778.674,2675.08,1778.674z M2536.667,1471.218c-10.977,0-19.902,8.926-19.902,19.902v244.99
				c0,20.713,16.875,37.563,37.612,37.563h120.703c20.713,0,37.563-16.851,37.563-37.563v-244.99
				c0-10.976-8.926-19.902-19.902-19.902H2536.667z"/>
		</g>
		<g>
			<g>
				<path style="fill:#FFFDF7;" d="M2715.144,1491.118v49.541h-200.877v-49.541c0-12.374,10.028-22.401,22.401-22.401h156.074
					C2705.117,1468.717,2715.144,1478.744,2715.144,1491.118z"/>
			</g>
			<g>
				<path style="fill:#000072;" d="M2717.644,1543.162h-205.879v-52.041c0-13.73,11.172-24.902,24.902-24.902h156.074
					c13.73,0,24.902,11.172,24.902,24.902V1543.162z M2516.765,1538.162h195.879v-47.041c0-10.976-8.926-19.902-19.902-19.902
					h-156.074c-10.977,0-19.902,8.926-19.902,19.902V1538.162z"/>
			</g>
		</g>
		<g style="opacity:0.3;">
			<path style="fill:#000072;" d="M2606.495,1776.173h-52.116c-22.126,0-40.111-17.939-40.111-40.065v-244.99
				c0-12.374,10.028-22.401,22.401-22.401h52.117c-12.374,0-22.401,10.028-22.401,22.401v244.99
				C2566.384,1758.234,2584.369,1776.173,2606.495,1776.173z"/>
		</g>
		<g style="opacity:0.3;">
			<path style="fill:#000072;" d="M2614.706,1776.173h52.116c22.125,0,40.111-17.939,40.111-40.065v-244.99
				c0-12.374-10.028-22.401-22.402-22.401h-52.117c12.374,0,22.401,10.028,22.401,22.401v244.99
				C2654.817,1758.234,2636.831,1776.173,2614.706,1776.173z"/>
		</g>
		<g>
			<path style="fill:#000072;" d="M2675.08,1792.273h-120.703c-30.996,0-56.211-25.195-56.211-56.162v-244.99
				c0-21.23,17.271-38.501,38.501-38.501h156.074c21.23,0,38.501,17.271,38.501,38.501v244.99
				C2731.242,1767.078,2706.047,1792.273,2675.08,1792.273z M2536.667,1484.817c-3.477,0-6.304,2.827-6.304,6.304v244.99
				c0,13.213,10.771,23.965,24.014,23.965h120.703c13.213,0,23.965-10.752,23.965-23.965v-244.99c0-3.476-2.827-6.304-6.304-6.304
				H2536.667z"/>
		</g>
		<g>
			<path style="fill:#0BAEFF;" d="M3138.519,2192.05l-706.13-206.673l-191.631-56.119l-149.819-43.837v-502.584l149.819,83.902
				l191.631,107.361l600.378,336.252c70.792,39.651,122.955,105.798,145.035,183.904l13.018,45.999
				C3199.79,2172.086,3170.258,2201.342,3138.519,2192.05z"/>
			<path style="fill:#000072;" d="M3150.588,2196.301c-4.233,0-8.525-0.61-12.773-1.855l-1049.375-307.149v-508.73l945.547,529.604
				c71.875,40.254,123.804,106.099,146.221,185.405l13.018,46.001c4.463,15.84,0.151,32.207-11.538,43.779
				C3173.146,2191.809,3162.087,2196.301,3150.588,2196.301z M2093.439,1883.547l1045.781,306.104
				c14.009,4.102,28.579,0.425,38.945-9.849c10.381-10.273,14.209-24.805,10.244-38.867l-13.018-46.001
				c-22.051-78.018-73.135-142.798-143.848-182.397l-938.105-525.435V1883.547z"/>
		</g>
		<g>
			<path style="fill:#000072;" d="M3150.646,2209.924c-5.522,0-11.123-0.791-16.665-2.417l-1047.573-306.626
				c-6.863-2.007-11.577-8.301-11.577-15.449v-502.593c0-5.713,3.027-11.001,7.959-13.892c4.924-2.886,11.021-2.949,16.008-0.156
				l941.843,527.529c75.054,42.041,129.272,110.781,152.661,193.56l12.993,45.986c5.84,20.674,0.215,42.031-15.044,57.148
				C3180.1,2204.06,3165.661,2209.924,3150.646,2209.924z M2107.028,1873.371l1035.996,303.237
				c9.209,2.681,18.76,0.269,25.566-6.475c6.816-6.743,9.326-16.284,6.719-25.513l-12.993-45.981
				c-21.055-74.512-69.854-136.387-137.407-174.224l-917.881-514.106V1873.371z"/>
		</g>
		<g>
			<path style="fill:#000072;" d="M2863.308,2125.305c-7.622,0-13.799-6.177-13.799-13.799v-87.261c0-2.437-0.61-4.844-1.763-6.953
				c-1.88-3.418-4.951-5.908-8.633-6.982l-419.297-122.734c-4.434-1.294-9.102-0.439-12.808,2.334
				c-3.687,2.769-5.806,7.002-5.806,11.611v70.698c0,7.622-6.177,13.799-13.799,13.799s-13.799-6.177-13.799-13.799v-70.698
				c0-13.384,6.143-25.659,16.846-33.691c10.718-8.042,24.229-10.498,37.109-6.743l419.292,122.734
				c10.732,3.125,19.653,10.303,25.098,20.21c3.379,6.187,5.156,13.164,5.156,20.215v87.261
				C2877.106,2119.128,2870.93,2125.305,2863.308,2125.305z"/>
		</g>
		<g>
			<path style="fill:#000072;" d="M2715.148,1551.824h-200.864c-7.622,0-13.799-6.177-13.799-13.799
				c0-7.622,6.177-13.799,13.799-13.799h200.864c7.622,0,13.799,6.177,13.799,13.799
				C2728.947,1545.647,2722.771,1551.824,2715.148,1551.824z"/>
		</g>
		<g>
			<path style="fill:#0BAEFF;" d="M1445.624,1776.191h-120.685c-22.141,0-40.089-17.948-40.089-40.089v-244.992
				c0-12.367,10.026-22.393,22.393-22.393h156.076c12.367,0,22.393,10.026,22.393,22.393v244.992
				C1485.713,1758.243,1467.764,1776.191,1445.624,1776.191z"/>
			<path style="fill:#000072;" d="M1445.625,1778.694h-120.686c-23.484,0-42.588-19.107-42.588-42.593v-244.99
				c0-13.726,11.167-24.893,24.893-24.893h156.077c13.725,0,24.892,11.167,24.892,24.893v244.99
				C1488.212,1759.587,1469.108,1778.694,1445.625,1778.694z M1307.243,1471.218c-10.969,0-19.893,8.926-19.893,19.893v244.99
				c0,20.728,16.863,37.593,37.588,37.593h120.686c20.725,0,37.588-16.865,37.588-37.593v-244.99
				c0-10.967-8.923-19.893-19.892-19.893H1307.243z"/>
		</g>
		<g style="opacity:0.55;">
			<path style="fill:#FFFFFF;" d="M1369.767,1776.173h-44.849c-22.125,0-40.065-17.939-40.065-40.065v-244.99
				c0-12.374,10.028-22.401,22.401-22.401h44.849c-12.374,0-22.401,10.028-22.401,22.401v244.99
				C1329.702,1758.234,1347.642,1776.173,1369.767,1776.173z"/>
		</g>
		<g>
			<g>
				<path style="fill:#FFFDF7;" d="M1485.72,1491.119v49.541h-200.877v-49.541c0-12.374,10.028-22.401,22.401-22.401h156.074
					C1475.693,1468.718,1485.72,1478.746,1485.72,1491.119z"/>
			</g>
			<g>
				<path style="fill:#000072;" d="M1488.22,1543.162h-205.877v-52.041c0-13.73,11.172-24.902,24.902-24.902h156.074
					c13.73,0,24.9,11.172,24.9,24.902V1543.162z M1287.343,1538.162h195.877v-47.041c0-10.976-8.928-19.902-19.9-19.902h-156.074
					c-10.974,0-19.902,8.926-19.902,19.902V1538.162z"/>
			</g>
		</g>
		<g>
			<path style="fill:#000072;" d="M1445.625,1792.292h-120.686c-30.981,0-56.187-25.205-56.187-56.191v-244.99
				c0-21.226,17.266-38.491,38.491-38.491h156.077c21.225,0,38.491,17.266,38.491,38.491v244.99
				C1501.811,1767.087,1476.606,1792.292,1445.625,1792.292z M1307.243,1484.817c-3.469,0-6.294,2.822-6.294,6.294v244.99
				c0,13.228,10.762,23.994,23.989,23.994h120.686c13.228,0,23.989-10.767,23.989-23.994v-244.99c0-3.472-2.825-6.294-6.294-6.294
				H1307.243z"/>
		</g>
		<g style="opacity:0.3;">
			<path style="fill:#000072;" d="M1485.731,1491.118v244.99c0,22.125-17.986,40.065-40.111,40.065h-74.748
				c22.125,0,40.111-17.939,40.111-40.065v-244.99c0-12.374-10.028-22.401-22.401-22.401h74.748
				C1475.703,1468.717,1485.731,1478.744,1485.731,1491.118z"/>
		</g>
		<g>
			<path style="fill:#0BAEFF;" d="M1909.059,1382.837v502.584l-57.821,16.928L861.479,2192.05c-4.048,1.196-8.05,1.748-11.96,1.748
				c-26.679,0.046-48.161-25.76-40.341-53.543l13.018-45.999c22.079-78.106,74.242-144.253,145.034-183.904L1909.059,1382.837z"/>
			<path style="fill:#000072;" d="M849.44,2196.296c-13.701,0-26.914-6.631-35.352-17.754c-8.477-11.167-11.143-25.371-7.317-38.965
				l13.02-46.001c22.417-79.307,74.343-145.151,146.218-185.405l945.549-529.604v508.73l-59.619,17.451l-989.758,289.697
				C858.007,2195.676,853.525,2196.414,849.44,2196.296z M1906.56,1387.102l-938.108,525.435
				c-70.708,39.6-121.794,104.38-143.85,182.397l-13.018,46.001c-3.396,12.07-1.033,24.678,6.487,34.585
				c7.5,9.883,19.224,15.776,31.375,15.776c0.022,0,0.046,0,0.068,0c3.777,0,7.561-0.552,11.257-1.646l1045.789-306.104V1387.102z"
				/>
		</g>
		<g style="opacity:0.3;">
			<path style="fill:#000072;" d="M1851.238,1902.349L861.479,2192.05c-4.048,1.196-8.05,1.748-11.96,1.748l41.125-46.463
				c39.649-44.795,90.662-78.049,147.649-96.246l727.111-232.182C1765.404,1818.907,1834.081,1863.526,1851.238,1902.349z"/>
		</g>
		<g style="opacity:0.3;">
			<path style="fill:#000072;" d="M3175.18,2193.798c-3.91,0-7.912-0.552-11.96-1.748l-299.913-87.766v-80.038
				c0-4.876-1.242-9.522-3.45-13.57l126.543,40.433c56.993,18.169,108.005,51.427,147.656,96.23L3175.18,2193.798z"/>
		</g>
		<g>
			<path style="fill:#0BAEFF;" d="M1136.684,2111.488v-87.225c0-12.622,8.283-23.666,20.341-27.216l419.276-122.723
				c18.144-5.297,36.287,8.283,36.287,27.215v70.659L1136.684,2111.488z"/>
			<path style="fill:#000072;" d="M1134.184,2114.822v-90.557c0-13.818,8.896-25.718,22.136-29.614l419.277-122.725
				c9.417-2.749,19.314-0.952,27.156,4.922c7.839,5.879,12.336,14.878,12.336,24.692v72.534l-1.797,0.522L1134.184,2114.822z
				 M1584.328,1875.666c-2.439,0-4.902,0.347-7.327,1.055l-419.272,122.725c-11.091,3.267-18.545,13.242-18.545,24.819v83.887
				l470.906-137.827v-68.784c0-8.223-3.767-15.767-10.337-20.693C1595.202,1877.439,1589.826,1875.666,1584.328,1875.666z"/>
		</g>
		<g style="opacity:0.55;">
			<path style="fill:#FFFFFF;" d="M1610.48,1890.757c-2.07,0.092-4.186,0.46-6.348,1.058l-419.281,122.725
				c-12.052,3.542-20.331,14.582-20.331,27.186v61.638l-27.829,8.142v-87.26c0-12.604,8.28-23.644,20.331-27.186l419.281-122.725
				C1590.746,1870.104,1605.19,1877.877,1610.48,1890.757z"/>
		</g>
		<g style="opacity:0.55;">
			<path style="fill:#FFFFFF;" d="M1913.084,1386.862v42.687l-914.873,512.428c-70.792,39.651-122.955,105.798-145.035,183.904
				l-12.972,45.999c-2.346,8.326-2.07,16.468,0.184,23.781c-20.056-6.716-33.671-28.381-27.186-51.381l13.018-45.999
				c22.079-78.106,74.242-144.253,145.034-183.904L1913.084,1386.862z"/>
		</g>
		<g style="opacity:0.3;">
			<path style="fill:#000072;" d="M2456.953,2843.441v55.337l-212.975-85.512c-0.828,2.346-1.702,4.646-2.576,6.946l-183.444-66.883
				l98.438-260.492l150.049,105.843c-10.488,49.173-23.367,97.794-38.685,145.771l167.666,68.17
				C2448.351,2817.36,2456.953,2829.642,2456.953,2843.441z"/>
		</g>
		<g>
			<path style="fill:#000072;" d="M849.353,2209.924c-15.015,0-29.456-5.864-40.608-16.914
				c-15.259-15.112-20.881-36.475-15.042-57.139l12.993-45.991c23.389-82.778,77.605-151.519,152.656-193.56l941.848-527.529
				c4.983-2.793,11.072-2.729,16.006,0.156c4.932,2.891,7.959,8.179,7.959,13.892v502.593c0,7.148-4.714,13.442-11.577,15.449
				L866.018,2207.507C860.478,2209.133,854.875,2209.924,849.353,2209.924z M1892.968,1410.31l-917.881,514.106
				c-67.554,37.837-116.352,99.712-137.405,174.224l-12.993,45.986c-2.607,9.224-0.098,18.76,6.714,25.508
				c6.809,6.748,16.375,9.16,25.569,6.475l1035.996-303.237V1410.31z M1909.067,1885.432h0.049H1909.067z"/>
		</g>
		<g>
			<path style="fill:#000072;" d="M1136.684,2125.286c-2.949,0-5.859-0.947-8.274-2.754c-3.479-2.607-5.525-6.699-5.525-11.045
				v-87.222c0-18.579,12.437-35.215,30.244-40.454l419.295-122.729c12.878-3.76,26.396-1.304,37.107,6.729
				c10.713,8.032,16.858,20.327,16.858,33.73v70.659c0,6.128-4.041,11.524-9.922,13.242l-475.906,139.287
				C1139.287,2125.105,1137.983,2125.286,1136.684,2125.286z M1584.296,1886.975c-1.375,0-2.761,0.195-4.128,0.596l-419.265,122.72
				c-6.223,1.836-10.42,7.451-10.42,13.975v68.804l448.308-131.211v-60.317c0-4.634-2.121-8.882-5.815-11.65
				C1590.415,1887.971,1587.39,1886.975,1584.296,1886.975z"/>
		</g>
		<g>
			<path style="fill:#000072;" d="M1485.712,1551.824h-200.862c-7.622,0-13.799-6.177-13.799-13.799
				c0-7.622,6.177-13.799,13.799-13.799h200.862c7.622,0,13.799,6.177,13.799,13.799
				C1499.511,1545.647,1493.334,1551.824,1485.712,1551.824z"/>
		</g>
		<g>
			<path style="fill:#0BAEFF;" d="M2234.609,1068.272v1153.9c0,36.4-1.3,72.75-3.95,109c-12.05,170.3-52.4,337.75-119.7,495.25
				l-39.55,92.65c-26.3,61.55-113.5,61.75-140.15,0.35l-38.8-89.6c-68.75-158.4-110.15-327-122.8-498.65
				c-2.85-37.7-4.25-75.55-4.25-113.45v-1149.45c0-144.8,34.9-286.6,100.8-413.8c0,0,0,0,0-0.05c24.6-47.55,53.5-93.05,86.55-135.85
				c11.9-15.5,29.6-23.25,47.25-23.25c17.65,0,35.3,7.75,47.25,23.25c33,42.85,61.95,88.35,86.5,135.9
				c20.7,39.85,38.3,81.05,52.7,123.4C2218.109,870.772,2234.609,968.822,2234.609,1068.272z"/>
			<path style="fill:#000072;" d="M2001.267,2967.854c-31.907,0-59.592-18.159-72.3-47.437l-38.804-89.604
				c-68.887-158.716-110.268-326.758-122.996-499.453c-2.825-37.349-4.258-75.581-4.258-113.638V1068.274
				c0-143.623,34.854-286.904,100.798-414.414l0.281-0.586c24.792-47.92,53.992-93.75,86.792-136.231
				c11.819-15.391,29.766-24.224,49.229-24.224c19.417,0,37.358,8.828,49.231,24.224c32.981,42.832,62.163,88.682,86.741,136.279
				c20.693,39.844,38.474,81.479,52.847,123.745c32.036,94.038,48.281,192.017,48.281,291.206V2222.17
				c0,36.553-1.331,73.291-3.958,109.185c-12.122,171.338-52.458,338.237-119.893,496.05l-39.551,92.646
				c-12.559,29.395-40.225,47.71-72.202,47.803C2001.428,2967.854,2001.345,2967.854,2001.267,2967.854z M1868.708,655.032
				l-0.281,0.591c-65.759,126.934-100.518,269.624-100.518,412.651v1149.448c0,37.93,1.428,76.035,4.243,113.262
				c12.685,172.144,53.933,339.639,122.598,497.842l38.804,89.604c11.899,27.417,37.834,44.424,67.712,44.424
				c0.078,0,0.149,0,0.225,0c29.949-0.088,55.857-17.241,67.617-44.766l39.551-92.646c67.214-157.3,107.422-323.657,119.507-494.443
				c2.617-35.781,3.943-72.397,3.943-108.828V1068.274c0-98.643-16.155-196.074-48.015-289.595
				c-14.29-42.031-31.973-83.433-52.554-123.057c-24.441-47.339-53.464-92.935-86.26-135.527
				c-10.918-14.155-27.417-22.275-45.271-22.275c-17.898,0-34.397,8.12-45.268,22.275
				C1922.246,562.18,1893.303,607.576,1868.708,655.032z"/>
		</g>
		<g>
			<path style="fill:#FFFDF7;" d="M2065.993,2049.105c93.125,0,168.617,75.492,168.617,168.617v4.45c0,36.4-1.3,72.75-3.95,109
				c-12.05,170.3-52.4,337.75-119.7,495.25l-39.55,92.65c-26.3,61.55-113.5,61.75-140.15,0.35l-38.8-89.6
				c-68.75-158.4-110.15-327-122.8-498.65c-2.85-37.7-4.25-75.55-4.25-113.45l0,0c0-93.125,75.492-168.617,168.617-168.617H2065.993
				z"/>
		</g>
		<g>
			<path style="fill:#FFFDF7;" d="M2234.609,2049.372v4.45c0,19.65-0.4,39.3-1.2,58.9c-9.9-83.7-81.05-148.6-167.4-148.6h-132
				c-46.55,0-88.7,18.85-119.2,49.4c-25.9,25.85-43.4,60.05-48.1,98.25c-0.9-20.8-1.3-41.6-1.3-62.4c0-46.55,18.85-88.7,49.4-119.2
				c30.5-30.5,72.65-49.4,119.2-49.4h132C2159.109,1880.772,2234.609,1956.272,2234.609,2049.372z"/>
		</g>
		<g style="opacity:0.55;">
			<path style="fill:#FFFFFF;" d="M2018.537,2963.406c-33.349,7.59-71.253-7.084-87.26-43.975l-38.823-89.606
				c-68.722-158.42-110.167-327.006-122.817-498.675c-2.852-37.673-4.232-75.53-4.232-113.433V1068.25
				c0-144.759,34.913-286.573,100.783-413.761c0,0,0,0,0.046-0.046c24.563-47.563,53.497-93.056,86.524-135.881
				c11.914-15.502,29.577-23.229,47.241-23.229c5.842,0,11.638,0.828,17.25,2.53c-11.454,3.404-21.988,10.304-29.991,20.7
				c-33.027,42.825-61.96,88.318-86.524,135.881c-0.046,0.046-0.046,0.046-0.046,0.046
				c-65.87,127.187-100.784,269.002-100.784,413.761v1149.468c0,37.903,1.38,75.76,4.232,113.433
				c12.65,171.668,54.095,340.254,122.817,498.675l38.823,89.606C1976.355,2943.811,1996.457,2958.485,2018.537,2963.406z"/>
		</g>
		<g>
			<g>
				<path style="fill:#FFFDF7;" d="M2133.764,654.489c-41.123-17.388-86.34-26.955-133.765-26.955
					c-46.689,0-131.143,26.127-133.765,26.909c24.563-47.563,53.497-93.056,86.524-135.881
					c11.914-15.502,29.577-23.229,47.241-23.229s35.327,7.728,47.241,23.229C2080.267,561.433,2109.2,606.926,2133.764,654.489z"/>
			</g>
			<g>
				<path style="fill:#000072;" d="M2139.157,659.485l-6.367-2.69c-41.997-17.759-86.672-26.763-132.791-26.763
					c-42.666,0-117.893,22.202-132.542,26.65l-6.14,1.831l2.695-5.22c24.644-47.715,53.836-93.56,86.765-136.26
					c11.819-15.376,29.761-24.199,49.221-24.199s37.402,8.823,49.224,24.204c32.954,42.773,62.146,88.633,86.763,136.304
					L2139.157,659.485z M2000,497.834c-17.896,0-34.392,8.11-45.259,22.251c-31.543,40.903-59.634,84.697-83.555,130.264
					c22.536-6.66,89.214-25.317,128.813-25.317c44.47,0,87.625,8.252,128.381,24.541c-23.804-45.229-51.748-88.76-83.12-129.487
					C2034.392,505.945,2017.895,497.834,2000,497.834z"/>
			</g>
		</g>
		<g style="opacity:0.3;">
			<path style="fill:#000072;" d="M2223.094,1068.25v1153.93c0,36.385-1.288,72.724-3.91,108.971
				c-12.052,170.334-52.439,337.77-119.736,495.271l-39.559,92.642c-20.286,47.517-76.956,58.511-113.94,32.705
				c-4.968-3.45-5.98-10.441-2.254-15.179c4.048-5.152,7.498-10.948,10.304-17.526l39.559-92.642
				c23.597-55.153,43.837-111.501,60.719-168.77c-6.808-121.897-17.25-233.491-54.279-269.14l99.496,66.377
				c6.256-40.985,10.856-82.292,13.8-123.737c2.622-36.247,3.91-72.586,3.91-108.971v-1.794c4.37,3.634,9.66,6.164,15.548,7.36
				c2.254,0.414,4.554,0.644,6.808,0.644c19.411,0,35.235-15.824,35.235-35.281v-35.327c0-19.458-15.824-35.281-35.235-35.281
				c-2.852,0-5.75,0.368-8.602,1.058c-0.046,0-0.092,0.046-0.138,0.046c-6.9,1.748-13.616-3.082-13.616-10.166v-11.73
				c0-6.854,6.486-12.052,13.11-10.258c0.782,0.23,1.61,0.414,2.438,0.598c2.254,0.414,4.554,0.644,6.808,0.644
				c19.411,0,35.235-15.823,35.235-35.281v-35.327c0-19.458-15.824-35.281-35.235-35.281c-2.852,0-5.75,0.368-8.602,1.058
				c-0.046,0-0.092,0.046-0.138,0.046c-6.9,1.748-13.616-3.082-13.616-10.166v-11.729c0-6.854,6.486-12.052,13.11-10.258
				c0.782,0.23,1.61,0.414,2.438,0.598c2.254,0.414,4.554,0.644,6.808,0.644c19.411,0,35.235-15.824,35.235-35.281v-35.327
				c0-19.458-15.824-35.281-35.235-35.281c-2.852,0-5.75,0.368-8.602,1.058c-0.046,0-0.092,0.046-0.138,0.046
				c-6.9,1.748-13.616-3.082-13.616-10.166v-11.729c0-6.854,6.486-12.052,13.11-10.258c0.782,0.23,1.61,0.414,2.438,0.598
				c2.254,0.414,4.554,0.644,6.808,0.644c19.411,0,35.235-15.824,35.235-35.281v-35.327c0-19.458-15.824-35.281-35.235-35.281
				c-2.852,0-5.75,0.368-8.602,1.058c-0.046,0-0.092,0.046-0.138,0.046c-6.9,1.748-13.616-3.082-13.616-10.166v-7.13
				c0-6.854,6.44-12.098,13.018-10.304c0.828,0.23,1.702,0.414,2.53,0.598c2.254,0.414,4.554,0.644,6.808,0.644
				c19.411,0,35.235-15.824,35.235-35.281v-35.327c0-19.457-15.824-35.281-35.235-35.281c-2.852,0-5.75,0.368-8.602,1.058
				c-0.046,0-0.092,0.046-0.138,0.046c-6.9,1.748-13.616-3.082-13.616-10.166v-11.684c0-6.854,6.44-12.098,13.018-10.304
				c0.828,0.23,1.702,0.414,2.53,0.598c2.254,0.414,4.554,0.644,6.808,0.644c19.411,0,35.235-15.823,35.235-35.281v-35.327
				c0-19.458-15.824-35.281-35.235-35.281c-2.852,0-5.75,0.368-8.602,1.058c-0.046,0-0.092,0.046-0.138,0.046
				c-6.9,1.748-13.616-3.082-13.616-10.166v-11.684c0-6.854,6.44-12.098,13.018-10.304c0.828,0.23,1.702,0.414,2.53,0.598
				c2.254,0.414,4.554,0.644,6.808,0.644c19.411,0,35.235-15.823,35.235-35.281v-35.327c0-19.458-15.824-35.281-35.235-35.281
				c-2.852,0-5.75,0.368-8.602,1.058c-0.046,0-0.092,0.046-0.138,0.046c-6.9,1.748-13.616-3.082-13.616-10.166v-11.684
				c0-6.854,6.44-12.098,13.018-10.304c0.828,0.23,1.702,0.414,2.53,0.598c2.254,0.414,4.554,0.644,6.808,0.644
				c19.411,0,35.235-15.823,35.235-35.281v-35.327c0-19.458-15.824-35.281-35.235-35.281c-2.852,0-5.75,0.368-8.602,1.058
				c-0.046,0-0.092,0.046-0.138,0.046c-6.9,1.748-13.616-3.082-13.616-10.166v-99.864c0-22.677-1.15-59.799-1.794-78.796
				c-0.184-5.152,3.91-9.016,9.062-8.648c0.69,0.092,1.334,0.138,1.932,0.138c4.692,0,11.408-1.426,14.444-4.968l19.458-22.494
				c7.222-7.222,8.556-15.134,6.808-22.355c-14.72-61.133-47.977-99.588-88.226-122.725c-9.522-5.52-19.734-10.12-30.451-13.8
				c-29.302-10.12-48.483-38.363-48.483-69.366V511.111c0-7.728,8.096-13.018,15.042-9.614c7.82,3.864,14.95,9.522,20.746,17.066
				c33.027,42.871,61.96,88.364,86.524,135.927c20.699,39.835,38.271,81.05,52.715,123.369
				C2206.626,870.776,2223.094,968.8,2223.094,1068.25z"/>
		</g>
		<g>
			<path style="fill:#000072;" d="M2001.247,2981.458c-37.393,0-69.836-21.289-84.722-55.615l-38.857-89.595
				c-85.166-196.382-128.35-404.492-128.35-618.545V1068.274c0-201.377,67.727-400.098,190.708-559.556
				c14.453-18.735,36.311-29.478,59.973-29.478c0,0,0,0,0.002,0c23.66,0,45.518,10.742,59.968,29.478
				c122.981,159.458,190.71,358.179,190.71,559.556V2222.18c0,211.055-42.029,416.479-124.922,610.571h0.002l-39.553,92.617
				c-14.731,34.492-47.183,55.986-84.688,56.089C2001.43,2981.458,2001.335,2981.458,2001.247,2981.458z M2000,511.438
				c-13.601,0-26.169,6.177-34.475,16.948c-118.66,153.852-184.009,345.591-184.009,539.888v1149.429
				c0,209.619,42.29,413.418,125.693,605.732l38.857,89.595c11.587,26.719,36.082,36.23,55.205,36.23c0.054,0,0.105,0,0.159,0
				c19.148-0.054,43.694-9.683,55.164-36.538l39.553-92.617c81.177-190.068,122.336-391.24,122.336-597.925V1068.274
				c0-194.302-65.349-386.035-184.011-539.888C2026.167,517.615,2013.603,511.438,2000,511.438z"/>
		</g>
		<g>
			<g>
				<path style="fill:#FFFDF7;" d="M2058.854,2789.185c0,221.277-26.35,285.493-58.855,285.493
					c-32.505,0-58.855-64.216-58.855-285.493s26.35-400.658,58.855-400.658C2032.504,2388.527,2058.854,2567.908,2058.854,2789.185z
					"/>
			</g>
			<g>
				<path style="fill:#000072;" d="M2000,3077.18c-41.287,0-61.355-94.204-61.355-287.993c0-198.174,22.949-403.159,61.355-403.159
					s61.355,204.985,61.355,403.159C2061.354,2982.976,2041.286,3077.18,2000,3077.18z M2000,2391.028
					c-27.217,0-56.355,159.99-56.355,398.159c0,187.778,18.96,282.993,56.355,282.993c37.395,0,56.355-95.215,56.355-282.993
					C2056.354,2551.018,2027.216,2391.028,2000,2391.028z"/>
			</g>
		</g>
		<g style="opacity:0.3;">
			<path style="fill:#000072;" d="M2058.831,2789.163c0,221.301-26.311,285.515-58.832,285.515
				c-32.521,0-58.833-64.215-58.833-285.515c0-38.593,0.782-75.898,2.254-111.179c7.13,139.836,29.715,183.628,56.579,183.628
				s49.449-43.791,56.578-183.628C2058.05,2713.264,2058.831,2750.569,2058.831,2789.163z"/>
		</g>
		<g>
			<path style="fill:#000072;" d="M2000,3090.779c-52.539,0-74.954-90.195-74.954-301.592c0-107.778,6.182-209.224,17.407-285.649
				c16.973-115.532,38.613-131.108,57.546-131.108s40.574,15.576,57.546,131.108c11.226,76.426,17.407,177.871,17.407,285.649
				C2074.953,3000.583,2052.539,3090.779,2000,3090.779z M2000,2407.239c-18.501,26.318-42.756,167.676-42.756,381.948
				c0,261.836,38.379,269.395,42.756,269.395s42.756-7.559,42.756-269.395C2042.756,2574.915,2018.5,2433.557,2000,2407.239z"/>
		</g>
		<g>
			<path style="fill:#000072;" d="M2133.759,668.293c-1.794,0-3.616-0.352-5.369-1.094c-40.598-17.163-83.794-25.869-128.391-25.869
				s-87.793,8.706-128.391,25.869c-1.699,0.718-3.528,1.089-5.374,1.089c-7.622,0-13.823-6.177-13.823-13.799
				c0-5.986,3.799-11.084,9.121-12.993c43.823-18.423,90.403-27.764,138.467-27.764c48.311,0,95.122,9.434,139.138,28.047
				c7.021,2.969,10.305,11.064,7.336,18.086C2144.248,665.129,2139.135,668.293,2133.759,668.293z"/>
		</g>
		<g>
			<path style="fill:#000072;" d="M1892.353,870.68l23.663,52.166c1.235,2.724,0.323,5.777-2.195,7.732
				c-9.205,7.147-17.829,15.434-25.691,24.678c-6.348,7.395-18.998,7.793-25.621,0.557l-11.914-12.921
				c-3.128-3.459-4.324-7.991-2.944-12.245c7.246-22.605,17.558-43.23,30.35-61.04
				C1881.508,864.724,1889.925,865.329,1892.353,870.68z"/>
		</g>
		<g>
			<path style="fill:#000072;" d="M1988.499,815.77v74.459c0,5.699-4.75,10.453-11.214,11.576
				c-9.323,1.619-18.401,4.23-27.165,7.756c-7.09,2.852-15.487-0.094-18.339-6.387l-25.048-55.27
				c-2.018-4.452-0.722-9.529,3.27-12.84c18.318-15.195,39.256-25.877,61.781-30.778
				C1980.29,802.435,1988.499,808.189,1988.499,815.77z"/>
		</g>
		<g>
			<path style="fill:#000072;" d="M2093.264,847.904l-25.048,55.27c-2.852,6.294-11.249,9.24-18.339,6.387
				c-8.764-3.526-17.842-6.137-27.165-7.756c-6.464-1.122-11.214-5.877-11.214-11.576V815.77c0-7.581,8.209-13.335,16.715-11.484
				c22.525,4.901,43.463,15.583,61.781,30.778C2093.986,838.375,2095.282,843.452,2093.264,847.904z"/>
		</g>
		<g style="opacity:0.25;">
			<path style="fill:#FFFFFF;" d="M1924.839,2388.527h-3.24c-38.642,0-69.967-31.325-69.967-69.967V1091.558
				c0-38.642,31.325-69.967,69.967-69.967l0,0c5.919,0,10.722,4.791,10.736,10.71l3.24,1345.464
				C1935.589,2383.705,1930.778,2388.527,1924.839,2388.527z"/>
		</g>
		<g>
			<path style="fill:#000072;" d="M2149.403,942.891l-11.914,12.921c-6.624,7.236-19.273,6.838-25.621-0.557
				c-7.862-9.244-16.486-17.531-25.691-24.678c-2.518-1.955-3.431-5.008-2.195-7.732l23.663-52.166
				c2.427-5.351,10.844-5.956,14.352-1.073c12.793,17.81,23.104,38.435,30.351,61.04
				C2153.727,934.9,2152.531,939.432,2149.403,942.891z"/>
		</g>
		<g>
			<g>
				<path style="fill:#000072;" d="M2135.393,1268.858L2135.393,1268.858c-10.066-1.978-17.325-10.802-17.325-21.06v-35.352
					c0-9.848,6.702-18.433,16.256-20.822l0,0c13.546-3.387,26.669,6.858,26.669,20.822v35.352
					C2160.993,1261.312,2148.654,1271.463,2135.393,1268.858z"/>
			</g>
			<g>
				<path style="fill:#000072;" d="M2135.393,1404.555L2135.393,1404.555c-10.066-1.978-17.325-10.802-17.325-21.06v-35.352
					c0-9.848,6.702-18.433,16.256-20.822l0,0c13.546-3.387,26.669,6.858,26.669,20.822v35.352
					C2160.993,1397.009,2148.654,1407.16,2135.393,1404.555z"/>
			</g>
			<g>
				<path style="fill:#000072;" d="M2135.393,1540.252L2135.393,1540.252c-10.066-1.978-17.325-10.802-17.325-21.06v-35.352
					c0-9.848,6.702-18.433,16.256-20.822l0,0c13.546-3.387,26.669,6.858,26.669,20.822v35.352
					C2160.993,1532.706,2148.654,1542.857,2135.393,1540.252z"/>
			</g>
			<g>
				<path style="fill:#000072;" d="M2135.393,1807.096L2135.393,1807.096c-10.066-1.978-17.325-10.802-17.325-21.06v-35.352
					c0-9.848,6.702-18.433,16.256-20.822l0,0c13.546-3.387,26.669,6.858,26.669,20.822v35.352
					C2160.993,1799.55,2148.654,1809.701,2135.393,1807.096z"/>
			</g>
			<g>
				<path style="fill:#000072;" d="M2135.393,1942.793L2135.393,1942.793c-10.066-1.978-17.325-10.802-17.325-21.06v-35.352
					c0-9.848,6.702-18.433,16.256-20.822l0,0c13.546-3.387,26.669,6.858,26.669,20.822v35.352
					C2160.993,1935.247,2148.654,1945.398,2135.393,1942.793z"/>
			</g>
			<g>
				<path style="fill:#000072;" d="M2135.393,2078.49L2135.393,2078.49c-10.066-1.978-17.325-10.802-17.325-21.06v-35.352
					c0-9.848,6.702-18.433,16.256-20.822l0,0c13.546-3.387,26.669,6.858,26.669,20.822v35.352
					C2160.993,2070.944,2148.654,2081.095,2135.393,2078.49z"/>
			</g>
			<g>
				<path style="fill:#000072;" d="M2135.393,2214.186L2135.393,2214.186c-10.066-1.978-17.325-10.802-17.325-21.06v-35.352
					c0-9.848,6.702-18.433,16.256-20.822l0,0c13.546-3.387,26.669,6.858,26.669,20.822v35.352
					C2160.993,2206.64,2148.654,2216.792,2135.393,2214.186z"/>
			</g>
			<g>
				<path style="fill:#000072;" d="M2135.393,1675.949L2135.393,1675.949c-10.066-1.978-17.325-10.802-17.325-21.06v-35.352
					c0-9.848,6.702-18.433,16.256-20.822l0,0c13.546-3.387,26.669,6.858,26.669,20.822v35.352
					C2160.993,1668.403,2148.654,1678.554,2135.393,1675.949z"/>
			</g>
			<g>
				<path style="fill:#000072;" d="M1856.33,1268.858L1856.33,1268.858c-10.066-1.978-17.325-10.802-17.325-21.06v-35.352
					c0-9.848,6.702-18.433,16.256-20.822l0,0c13.546-3.387,26.669,6.858,26.669,20.822v35.352
					C1881.93,1261.312,1869.59,1271.463,1856.33,1268.858z"/>
			</g>
			<g>
				<path style="fill:#000072;" d="M1856.33,1404.555L1856.33,1404.555c-10.066-1.978-17.325-10.802-17.325-21.06v-35.352
					c0-9.848,6.702-18.433,16.256-20.822l0,0c13.546-3.387,26.669,6.858,26.669,20.822v35.352
					C1881.93,1397.009,1869.59,1407.16,1856.33,1404.555z"/>
			</g>
			<g>
				<path style="fill:#000072;" d="M1856.33,1540.252L1856.33,1540.252c-10.066-1.978-17.325-10.802-17.325-21.06v-35.352
					c0-9.848,6.702-18.433,16.256-20.822l0,0c13.546-3.387,26.669,6.858,26.669,20.822v35.352
					C1881.93,1532.706,1869.59,1542.857,1856.33,1540.252z"/>
			</g>
			<g>
				<path style="fill:#000072;" d="M1856.33,1807.096L1856.33,1807.096c-10.066-1.978-17.325-10.802-17.325-21.06v-35.352
					c0-9.848,6.702-18.433,16.256-20.822l0,0c13.546-3.387,26.669,6.858,26.669,20.822v35.352
					C1881.93,1799.55,1869.59,1809.701,1856.33,1807.096z"/>
			</g>
			<g>
				<path style="fill:#000072;" d="M1856.33,1942.793L1856.33,1942.793c-10.066-1.978-17.325-10.802-17.325-21.06v-35.352
					c0-9.848,6.702-18.433,16.256-20.822l0,0c13.546-3.387,26.669,6.858,26.669,20.822v35.352
					C1881.93,1935.247,1869.59,1945.398,1856.33,1942.793z"/>
			</g>
			<g>
				<path style="fill:#000072;" d="M1856.33,2078.49L1856.33,2078.49c-10.066-1.978-17.325-10.802-17.325-21.06v-35.352
					c0-9.848,6.702-18.433,16.256-20.822l0,0c13.546-3.387,26.669,6.858,26.669,20.822v35.352
					C1881.93,2070.944,1869.59,2081.095,1856.33,2078.49z"/>
			</g>
			<g>
				<path style="fill:#000072;" d="M1856.33,2214.186L1856.33,2214.186c-10.066-1.978-17.325-10.802-17.325-21.06v-35.352
					c0-9.848,6.702-18.433,16.256-20.822l0,0c13.546-3.387,26.669,6.858,26.669,20.822v35.352
					C1881.93,2206.64,1869.59,2216.792,1856.33,2214.186z"/>
			</g>
			<g>
				<path style="fill:#000072;" d="M1856.33,1675.949L1856.33,1675.949c-10.066-1.978-17.325-10.802-17.325-21.06v-35.352
					c0-9.848,6.702-18.433,16.256-20.822l0,0c13.546-3.387,26.669,6.858,26.669,20.822v35.352
					C1881.93,1668.403,1869.59,1678.554,1856.33,1675.949z"/>
			</g>
		</g>
		<g style="opacity:0.3;">
			<path style="fill:#000072;" d="M2432.389,1574.1l-0.883,262.712c-0.018,5.434-4.736,9.594-10.141,9.028
				c-1.899-0.199-3.807-0.299-5.72-0.299c-12.098,0-23.689,3.91-33.441,11.224c-14.26,10.718-22.402,27.001-22.402,44.757v62.605
				l-119.045-34.867v-462.519L2432.389,1574.1z"/>
		</g>
	</g>
</g>
</svg>
