<?xml version="1.0" encoding="utf-8"?>
<!-- Generator: Adobe Illustrator 27.5.0, SVG Export Plug-In . SVG Version: 6.00 Build 0)  -->
<svg version="1.1" id="Layer_1" xmlns="http://www.w3.org/2000/svg" xmlns:xlink="http://www.w3.org/1999/xlink" x="0px" y="0px"
	 viewBox="0 0 4000 4000" style="enable-background:new 0 0 4000 4000;" xml:space="preserve">
<g>
	<g>
		<!-- <rect style="fill:#66FEFF;" width="4000" height="4000"/> -->
	</g>
	<g>
		<g>
			<g>
				<path style="fill:#64CBFF;" d="M1468.871,1011.87c-89.955-27.89-162.861-36.717-174.896,22.527
					c-4.869,23.966,3.18,48.894,19.791,66.843C1363.879,1155.389,1407.172,1073.836,1468.871,1011.87z"/>
			</g>
			<g>
				
					<ellipse transform="matrix(0.7071 -0.7071 0.7071 0.7071 -437.944 1690.3345)" style="fill:#64CBFF;" cx="1821.442" cy="1373.812" rx="43.306" ry="43.306"/>
			</g>
			<g>
				<path style="fill:#64CBFF;" d="M2817.777,1179.955c95.886,6.288,169.884,26.625,174.317,91.614
					c3.74,54.836-65.687,78.842-95.507,32.671c-4.986-7.72-9.723-17.1-14.047-28.451
					C2846.973,1182.424,2817.777,1179.955,2817.777,1179.955z"/>
			</g>
			<g>
				<path style="fill:#64CBFF;" d="M2308.088,826.855c22.571-78.86,55.713-140.964,131.068-136.151
					c33.797,2.159,62.715,27.558,66.007,61.263c3.697,37.847-25.6,54.33-75.58,57.42c-8.934,0.552-17.852-0.497-26.711-1.774
					C2377.488,803.953,2344.773,812.185,2308.088,826.855z"/>
			</g>
			<g>
				
					<ellipse transform="matrix(0.1602 -0.9871 0.9871 0.1602 769.7324 2380.0579)" style="fill:#64CBFF;" cx="1783.578" cy="737.673" rx="53.509" ry="53.509"/>
			</g>
			<g>
				<path style="fill:#64CBFF;" d="M2239.839,1325.645c-43.823,146.924-52.82,317.065-46.652,497.436l-143.949,68.782
					c3.991-219.043-11.899-424.736-64.864-605.543c-10.303-35.407-22.057-69.87-35.408-103.318c0,0,174.64-149.391,333.39,30.763
					C2265.451,1249.245,2251.447,1286.611,2239.839,1325.645z"/>
			</g>
			<g>
				<path style="fill:#FFFFFF;" d="M1940.724,1176.152c49.749,43.519,96.303,47.872,139.143,6.706
					c23.704-22.778,62.418-20.799,83.813,4.16c43.116,50.3,87.208,60.138,132.638,14.47c25.001-25.131,62.948-24.159,85.935,2.827
					c28.125,33.019,61.038,34.92,98.191,9.249c27.563-19.045,64.635-9.589,81.032,19.627
					c49.201,87.664,187.167,55.511,154.129-88.303c-21.914-92.008-76.299-150.941-189.086-150.385
					c-32.016,0.158-62.95-12.057-85.919-34.361c-47.582-46.202-100.222-60.567-158.203-41.331
					c-29.515,9.792-62.305,5.454-86.747-13.771c-68.744-54.07-144.08-55.969-226.07-5.216c-27.09,16.769-61.141,16.804-88.135-0.118
					c-63.211-39.627-122.832-27.54-179.108,32.756c-17.805,19.078-43.575,28.939-69.62,27.308
					c-72.846-4.563-116.957,58.735-138.452,175.445c-16.434,124.429,89.278,151.769,157.801,60.099
					c19.266-25.774,56.679-30.736,81.677-10.474c48.289,39.14,90.103,42.948,123.353,0.027
					C1877.426,1158.623,1915.74,1154.296,1940.724,1176.152z"/>
			</g>
			<g style="opacity:0.3;">
				<path style="fill:#000070;" d="M2282.356,1213.765c-16.905,35.479-30.908,72.845-42.517,111.879
					c-6.674-5.659-13.351-12.479-19.952-20.17c-21.403-24.959-60.076-26.991-83.801-4.208
					c-42.807,41.211-89.387,36.858-139.16-6.675c-3.918-3.41-8.127-6.167-12.552-8.271c-10.303-35.407-22.057-69.798-35.408-103.245
					c46.653,36.93,90.477,38.599,130.889-0.218c23.726-22.782,62.398-20.823,83.801,4.136
					C2202.4,1232.194,2241.871,1244.746,2282.356,1213.765z"/>
			</g>
			<g style="opacity:0.3;">
				<path style="fill:#000070;" d="M2561.475,1233.21c-16.397-29.239-53.474-38.672-81.045-19.662
					c-37.147,25.684-70.015,23.798-98.166-9.215c-23-26.99-60.946-28.006-85.977-2.83c-45.419,45.637-89.461,35.842-132.63-14.511
					c-21.403-24.959-60.076-26.918-83.801-4.136c-42.807,41.139-89.387,36.785-139.16-6.675
					c-24.958-21.912-63.268-17.558-83.583,8.707c-33.231,42.88-75.095,39.107-123.343-0.073
					c-25.031-20.243-62.47-15.309-81.697,10.521c-68.564,91.637-174.277,64.283-157.807-60.148
					c7.546-41.139,17.921-75.602,31.417-102.81c-0.944,4.571-1.886,9.215-2.758,14.003
					c-16.47,124.432,89.243,151.785,157.807,60.076c19.227-25.757,56.666-30.763,81.624-10.448
					c48.322,39.107,90.113,42.952,123.416,0c20.316-26.265,58.625-30.546,83.583-8.707c49.773,43.533,96.353,47.886,139.16,6.675
					c23.726-22.782,62.398-20.751,83.801,4.208c43.098,50.28,87.211,60.148,132.63,14.438c25.031-25.104,62.977-24.161,85.978,2.83
					c28.078,33.012,61.018,34.899,98.166,9.287c27.57-19.082,64.646-9.65,81.044,19.589c29.964,53.328,92.798,62.325,129.945,28.659
					C2730.092,1292.56,2607.256,1314.834,2561.475,1233.21z"/>
			</g>
			<g>
				<path style="fill:#000070;" d="M2639.489,1300.605c-37.334,0.002-73.774-21.377-94.438-58.196
					c-5.41-9.639-14.492-16.55-24.917-18.96c-10.088-2.337-20.371-0.337-28.979,5.613c-45.693,31.575-89.463,27.127-123.242-12.532
					c-7.524-8.833-17.524-13.923-28.159-14.333c-10.957-0.437-21.592,4.043-30.078,12.578
					c-23.95,24.072-49.478,35.781-75.156,34.822c-28.794-1.067-57.437-17.998-85.142-50.32c-6.968-8.132-16.821-12.9-27.744-13.43
					c-10.815-0.535-21.055,3.235-28.716,10.596c-34.263,32.922-90.62,58.589-164.595-6.111l0,0
					c-7.93-6.938-18.145-10.193-28.765-9.17c-10.83,1.05-20.879,6.604-27.568,15.239c-17.261,22.278-37.603,34.915-60.464,37.561
					c-27.69,3.223-57.046-8.069-89.644-34.49c-7.969-6.458-18.105-9.294-28.506-8.003c-10.605,1.318-19.917,6.689-26.221,15.122
					c-38.799,51.897-92.49,73.775-136.797,55.737c-42.715-17.39-63.188-65.833-54.771-129.583c0.044-0.317,0.093-0.632,0.151-0.947
					c24.253-131.682,77.5-195.811,158.154-190.833c20.601,1.299,40.986-6.697,54.668-21.357
					c79.351-85.02,154.131-66.433,202.886-35.864c20.942,13.122,47.075,13.149,68.213,0.061
					c88.916-55.042,172.236-52.878,247.637,6.426c18.833,14.817,44.702,18.821,69.17,10.698
					c64.404-21.355,124.033-5.986,177.256,45.698c19.424,18.86,45.22,29.202,72.705,29.036c0.542-0.002,1.099-0.002,1.641-0.002
					c110.547,0,179.8,55.457,205.864,164.861c20.347,88.579-19.268,138.042-59.36,153.53
					C2663.102,1298.483,2651.247,1300.605,2639.489,1300.605z M2511.745,1184.799c5.601,0,11.255,0.642,16.88,1.943
					c20.732,4.795,38.691,18.364,49.277,37.229c20.303,36.165,57.163,44.951,83.096,34.936
					c27.295-10.544,51.152-44.927,36.25-109.802c-22.046-92.544-75.83-135.772-169.131-135.772c-0.752,0-1.494,0.007-2.231,0.005
					c-37.114,0.002-72.036-14.075-98.408-39.683c-42.935-41.692-88.447-53.784-139.146-36.968
					c-36.519,12.107-75.518,5.815-104.326-16.846c-62.524-49.175-129.419-50.486-204.517-4.004
					c-33.442,20.706-74.854,20.635-108.052-0.173c-54.941-34.446-104.302-25.032-155.332,29.646
					c-21.602,23.147-52.441,35.269-84.565,33.257c-21.851-1.367-88.13-5.501-118.662,159.578
					c-5.889,45.444,5.938,78.806,31.685,89.287c22.891,9.319,60.342-0.493,92.417-43.401c12.314-16.475,31.177-27.39,51.743-29.951
					c20.64-2.578,40.874,3.149,56.88,16.123c23.97,19.429,44.673,28.294,61.592,26.333c12.588-1.457,24.043-9.05,35.01-23.208
					c13.018-16.809,32.603-27.622,53.726-29.665c21.069-2.046,41.367,4.465,57.197,18.308l0,0
					c56.27,49.224,90.313,29.758,113.687,7.305c14.98-14.404,35.557-22.124,56.641-21.06c21.069,1.021,40.947,10.696,54.526,26.543
					c20.586,24.014,40.078,36.526,57.935,37.188c15.22,0.603,30.591-7.202,47.051-23.745c16.006-16.089,36.797-24.509,58.242-23.652
					c21.279,0.82,40.952,10.606,55.386,27.551c21.235,24.934,43.115,26.719,73.145,5.964
					C2482.399,1189.316,2496.896,1184.799,2511.745,1184.799z"/>
			</g>
			<g>
				<path style="fill:#000070;" d="M2049.216,1910.693c-0.117,0-0.234-0.002-0.352-0.002c-10.4-0.193-18.677-8.779-18.486-19.182
					c5.356-291.738-27.002-521.213-98.926-701.536c-3.857-9.666,0.854-20.623,10.518-24.478c9.634-3.858,20.62,0.852,24.473,10.517
					c74.844,187.642,107.129,415.215,101.602,716.189C2067.858,1902.485,2059.46,1910.693,2049.216,1910.693z"/>
			</g>
			<g>
				<path style="fill:#000070;" d="M2193.205,1841.901c-10.107,0-18.467-8.013-18.818-18.191
					c-9.326-271.543,19.575-467.922,90.967-618.018c4.473-9.39,15.703-13.394,25.103-8.921c9.395,4.47,13.389,15.708,8.921,25.102
					c-68.696,144.436-96.45,335.261-87.334,600.542c0.356,10.398-7.783,19.116-18.184,19.473
					C2193.639,1841.896,2193.42,1841.901,2193.205,1841.901z"/>
			</g>
			<g>
				<path style="fill:#000070;" d="M1347.521,1137.795c-16.982,0-32.988-7.991-47.578-23.76
					c-21.24-22.949-30.371-54.124-24.429-83.389c4.312-21.226,15.107-37.085,32.075-47.141
					c32.129-19.028,82.031-15.93,166.86,10.371c6.294,1.953,11.113,7.056,12.7,13.452c1.592,6.399-0.283,13.162-4.932,17.832
					c-13.198,13.252-25.625,27.549-37.642,41.375c-32.979,37.944-61.46,70.71-96.211,71.252
					C1348.083,1137.792,1347.8,1137.795,1347.521,1137.795z M1359.811,1009.089c-13.091,0-24.712,1.909-33.018,6.831
					c-7.632,4.521-12.197,11.584-14.355,22.226c-3.54,17.417,2.124,36.221,15.151,50.298c10.928,11.802,17.842,11.697,20.19,11.672
					c17.935-0.278,43.569-29.773,68.364-58.296c5.879-6.765,11.851-13.635,18.008-20.5
					C1411.872,1015.322,1383.449,1009.089,1359.811,1009.089z"/>
			</g>
			<g>
				<path style="fill:#000070;" d="M1821.442,1433.266c-32.783,0-59.453-26.672-59.453-59.453c0-32.781,26.67-59.453,59.453-59.453
					s59.453,26.672,59.453,59.453C1880.895,1406.594,1854.225,1433.266,1821.442,1433.266z M1821.442,1346.655
					c-14.976,0-27.158,12.183-27.158,27.158c0,14.976,12.183,27.158,27.158,27.158s27.158-12.182,27.158-27.158
					C1848.6,1358.837,1836.418,1346.655,1821.442,1346.655z"/>
			</g>
			<g>
				<path style="fill:#000070;" d="M2939.499,1346.508c-22.915,0-44.238-11.619-57.813-32.642
					c-5.864-9.07-11.157-19.761-15.728-31.767c-27.412-71.956-49.17-83.618-51.641-84.739c-8.691-1.716-14.912-9.695-14.238-18.733
					c0.732-9.705,9.146-16.921,18.857-16.377c85.811,5.628,185.054,22.998,190.854,108.113
					c2.256,33.076-16.948,62.185-47.793,72.432C2954.474,1345.295,2946.901,1346.508,2939.499,1346.508z M2866.691,1202.773
					c10.112,15.552,21.128,37.034,32.432,66.699c3.687,9.69,7.847,18.144,12.368,25.137c10.806,16.736,27.388,18.472,39.321,14.512
					c12.319-4.094,24.98-15.791,23.579-36.343C2971.857,1235.588,2938.171,1213.31,2866.691,1202.773z M2816.252,1197.634
					c0.01,0,0.02,0,0.029,0.003C2816.271,1197.634,2816.261,1197.634,2816.252,1197.634z M2816.227,1197.631
					c0.01,0,0.015,0,0.024,0.002C2816.242,1197.631,2816.237,1197.631,2816.227,1197.631z M2814.084,1197.26L2814.084,1197.26
					L2814.084,1197.26z"/>
			</g>
			<g>
				<path style="fill:#000070;" d="M2308.093,845.693c-4.59,0-9.106-1.675-12.632-4.858c-5.332-4.819-7.461-12.253-5.483-19.163
					c20.859-72.866,56.802-155.735,150.381-149.768c43.55,2.783,79.468,36.416,83.555,78.232c1.87,19.153-2.734,35.376-13.682,48.22
					c-15.088,17.7-41.084,27.456-79.487,29.831c-11.104,0.691-21.602-0.637-30.562-1.931c-19.717-2.857-47.554,3.074-85.098,18.088
					C2312.819,845.251,2310.446,845.693,2308.093,845.693z M2431.095,709.279c-42.036,0-70.518,26.199-93.335,87.234
					c26.899-7.861,48.921-10.266,67.798-7.546c7.114,1.028,15.327,2.082,22.861,1.619c33.97-2.102,47.646-10.222,53.14-16.668
					c2.627-3.081,5.986-8.523,4.854-20.12c-2.305-23.635-23.14-42.678-48.457-44.297
					C2435.632,709.352,2433.342,709.279,2431.095,709.279z"/>
			</g>
			<g>
				<path style="fill:#000070;" d="M1783.576,810.019c-39.893,0-72.344-32.454-72.344-72.346c0-39.893,32.451-72.346,72.344-72.346
					s72.349,32.454,72.349,72.346C1855.925,777.565,1823.469,810.019,1783.576,810.019z M1783.576,703.002
					c-19.116,0-34.668,15.552-34.668,34.67c0,19.119,15.552,34.67,34.668,34.67c19.121,0,34.673-15.552,34.673-34.67
					C1818.249,718.554,1802.697,703.002,1783.576,703.002z"/>
			</g>
		</g>
		<g>
			<path style="fill:#228CFF;" d="M3430.882,1850.851c51.991,1106.134-989.342,1494.454-1837.403,1204.681
				c-0.807-0.215-1.668-0.538-2.476-0.807c-6.781,4.898-13.617,9.688-20.559,14.316c-0.054,0.054-0.162,0.054-0.215,0.108
				c-140.689,94.133-311.249,131.054-473.842,103.229c-41.334-7.104-57.481-57.858-27.395-87.083
				c10.872-10.549,21.528-21.206,31.97-32.024v-0.054c51.668-53.498,96.986-109.957,131.324-171.69
				c-1.238-0.807-2.422-1.615-3.606-2.422c-1.292-0.861-2.584-1.722-3.876-2.583c-212.863-143.757-356.243-350.592-409.364-639.235
				c-21.798-118.729-28.364-251.291-18.192-398.977c0.807-12.217,1.776-24.596,2.853-37.029
				c-207.75-34.876-301.883-137.567-305.543-294.241c-0.108-3.822,0.431-7.427,1.507-10.818v-0.054
				c5.974-18.837,28.471-28.902,47.578-18.622c58.289,31.378,135.468,37.782,219.806,34.768c12.863-0.484,25.834,0,38.536,2.314
				c54.306,9.849,74.758,41.711,84.123,80.732c1.346,5.544,8.773,6.351,11.195,1.238c17.815-37.298,45.91-60.71,85.629-68.515
				c14.424-2.799,29.225-2.799,43.811-1.184c67.33,7.427,132.024,10.656,193.433,8.45c35.361-2.261,59.042-14.962,73.09-25.727
				c8.611-6.566,21.044-1.776,22.981,8.881c0.377,2.099,0.7,4.144,0.969,6.243c18.245,128.74-130.786,282.131-341.495,270.505
				c3.606,76.319,21.582,137.459,51.237,184.661c0,0.054,0.054,0.054,0.054,0.054c79.709,126.911,243.864,153.66,441.065,106.243
				c59.58-14.316,117.33-35.145,173.035-60.657c324.866-148.547,630.139-298.385,902.529-450.484
				c89.559-50,186.545-85.791,287.513-103.875c266.469-47.793,469.751,37.621,527.932,202.906c0.97,2.691,1.884,5.382,2.745,8.127
				c101.669,21.098,113.025,107.642,68.138,150.699c0.323,5.974,0.645,11.948,0.915,17.869
				C3430.882,1850.851,3430.882,1850.851,3430.882,1850.851z"/>
		</g>
		<g style="opacity:0.6;">
			<path style="fill:#FFFFFF;" d="M982.93,1574.748c-39.719,7.804-67.814,31.216-85.629,68.514
				c-2.422,5.113-9.849,4.306-11.195-1.238c-9.365-39.02-29.817-70.883-84.123-80.732c-12.702-2.315-25.673-2.799-38.536-2.315
				c-84.338,3.014-161.518-3.39-219.806-34.768c-18.353-9.903-39.935-0.969-46.771,16.523c-1.292-10.926-2.045-22.174-2.314-33.692
				c-0.646-25.511,26.588-41.604,49.085-29.494c58.289,31.378,135.468,37.782,219.806,34.768c12.863-0.484,25.834,0,38.536,2.314
				c54.306,9.849,74.758,41.711,84.123,80.732c1.346,5.544,8.773,6.351,11.195,1.238c17.815-37.298,45.91-60.71,85.629-68.515
				c14.424-2.799,29.225-2.799,43.811-1.184c67.33,7.427,132.024,10.656,193.433,8.45c35.361-2.261,59.042-14.962,73.09-25.727
				c8.611-6.566,21.044-1.776,22.981,8.881c3.121,16.846,3.283,34.176,0.754,51.507c-0.216-1.615-0.484-3.229-0.754-4.844
				c-1.938-10.656-14.37-15.447-22.981-8.881c-14.048,10.764-37.729,23.466-73.09,25.727c-61.409,2.207-126.103-1.023-193.433-8.45
				C1012.155,1571.949,997.355,1571.949,982.93,1574.748z"/>
		</g>
		<g style="opacity:0.6;">
			<path style="fill:#FFFFFF;" d="M3451.496,1798.052c-9.312-30.463-37.675-58.342-89.667-69.161
				c-0.861-2.745-1.775-5.436-2.745-8.127c-58.18-165.285-261.463-250.699-527.932-202.906
				c-100.969,18.084-197.955,53.875-287.513,103.875c-272.389,152.099-577.663,301.937-902.529,450.484
				c-55.705,25.511-113.455,46.34-173.035,60.656c-270.613,65.07-479.063-9.526-492.356-290.958
				c1.453,0.108,2.852,0.162,4.251,0.162c33.423,242.788,233.153,305.436,488.105,244.133
				c59.58-14.316,117.33-35.145,173.035-60.657c324.866-148.547,630.139-298.385,902.529-450.484
				c89.559-50,186.545-85.791,287.513-103.875c266.469-47.793,469.751,37.621,527.932,202.906c0.97,2.691,1.884,5.382,2.745,8.127
				C3440.354,1698.537,3465.005,1753.865,3451.496,1798.052z"/>
		</g>
		<g>
			<path style="fill:#FFFFFF;" d="M1292.188,2717.157c-13.94,59.15-36.868,111.948-67.384,159.365
				c-212.863-143.757-356.243-350.592-409.364-639.235c0-0.162,0-0.215,0-0.215
				C905.105,2468.181,1082.016,2629.16,1292.188,2717.157z"/>
		</g>
		<g>
			<path style="fill:#FFFFFF;" d="M3429.967,1832.928c64.101,1119.859-983.852,1513.938-1836.489,1222.603
				c122.013-79.332,215.554-265.715,215.554-265.715c234.661-25.942,460.71-130.517,620.29-316.684l-11.948-45.856
				c0,0,16.47,20.99,227.61-40.743c211.087-61.787,339.235-329.763,390.312-422.658c51.076-92.896,98.224-170.882,175.404-229.44
				c43.971-33.315,104.467-51.184,148.384-60.334c0.97,2.691,1.884,5.382,2.745,8.127
				C3463.498,1703.327,3474.854,1789.871,3429.967,1832.928z"/>
		</g>
		<g>
			<path style="fill:#6161C1;" d="M1874.465,2984.15c-61.528,0-122.832-3.716-183.403-11.338c-4.033-0.449-7.192-3.872-7.192-8.022
				c0-4.795,4.331-8.628,9.111-8.008c59.971,7.549,120.781,11.235,181.694,11.235c357.373,0.015,720.117-126.753,961.714-343.501
				c201.895-181.123,306.353-410.137,302.085-662.28c-0.078-4.458,3.477-8.132,7.935-8.208c0.049-0.003,0.093-0.003,0.142-0.003
				c4.395,0,7.993,3.526,8.066,7.937c4.351,256.965-101.963,490.229-307.441,674.57
				C2602.707,2855.854,2235.759,2984.14,1874.465,2984.15z"/>
		</g>
		<g>
			<path style="fill:#6161C1;" d="M2015.5,3061.523c-123.911,0-251.416-11.621-379.966-35.371c-4.385-0.811-7.285-5.02-6.475-9.404
				c0.811-4.39,5.063-7.285,9.404-6.475c506.987,93.672,997.173-2.617,1311.25-257.563
				c258.628-209.941,394.565-513.438,404.043-902.056c0.107-4.39,3.701-7.876,8.066-7.876c0.068,0,0.137,0.002,0.2,0.002
				c4.458,0.11,7.983,3.811,7.876,8.269c-4.941,202.573-44.98,385.076-119.014,542.432
				c-68.462,145.518-166.367,270.596-290.996,371.763C2722.028,2958.329,2384.714,3061.523,2015.5,3061.523z"/>
		</g>
		<g>
			<path style="fill:#6161C1;" d="M1764.362,2878.779c-4.429,0-8.037-3.569-8.071-8.008c-0.034-4.458,3.55-8.101,8.008-8.135
				c212.71-1.646,436.909-54.844,631.299-149.785c180.938-88.374,312.002-201.042,359.6-309.118c1.792-4.08,6.567-5.93,10.64-4.133
				c4.082,1.797,5.933,6.56,4.136,10.642c-49.106,111.511-182.979,227.097-367.285,317.117
				c-196.519,95.981-423.188,149.761-638.262,151.421C1764.401,2878.779,1764.382,2878.779,1764.362,2878.779z"/>
		</g>
		<g>
			<path style="fill:#6161C1;" d="M1258.434,2836.43c-1.323,0-2.661-0.327-3.896-1.006
				c-187.163-103.286-324.419-252.427-407.959-443.284c-1.694-3.875-0.112-8.403,3.628-10.376c3.755-1.978,8.374-0.725,10.615,2.859
				c107.183,171.455,249.077,299.087,421.743,379.36c4.043,1.88,5.796,6.68,3.916,10.723c-1.88,4.038-6.665,5.801-10.723,3.916
				c-141.025-65.562-261.826-162.139-360.327-287.881c82.544,137.944,198.823,248.828,346.909,330.542
				c3.901,2.158,5.322,7.066,3.169,10.972C1264.035,2834.921,1261.276,2836.43,1258.434,2836.43z"/>
		</g>
		<g>
			<path style="fill:#000070;" d="M1202.707,3198.632c-36.553,0.005-73.091-3.042-109.238-9.233
				c-25.713-4.419-46.455-22.598-54.15-47.441c-7.622-24.619-0.864-51.079,17.642-69.048
				c67.651-65.639,116.426-125.146,152.354-186.04c-156.689-107.349-272.197-247.549-343.442-416.924
				c-75.933-180.525-104.268-400.645-84.277-654.424c-198.052-37.52-300.405-141.108-304.302-308.079
				c-0.454-17.974,8.413-34.343,23.726-43.752c15.591-9.585,34.585-10.09,50.811-1.35c47.837,25.752,114.873,36.174,211.006,32.715
				c15.64-0.583,29.468,0.259,42.246,2.583c54.243,9.839,78.047,39.746,89.878,68.538c20.434-29.534,48.804-47.998,84.643-55.039
				c15.103-2.925,31.133-3.379,49.038-1.401c70.024,7.722,132.476,10.457,190.913,8.354c30.82-1.978,51.431-13.152,63.208-22.175
				c8.901-6.785,20.391-8.428,30.757-4.404c10.356,4.014,17.729,12.949,19.722,23.904c10.947,59.277-10.669,125.012-59.321,180.303
				c-65.469,74.404-167.49,117.405-276.343,117.41c-1.133,0-2.271-0.005-3.403-0.015c8.218,100.337,43.657,174.646,105.488,221.047
				c81.118,60.884,207.114,73.066,364.38,35.259c55.596-13.359,112.749-33.401,169.878-59.568
				c355.391-162.5,650.205-309.651,901.304-449.861c93.34-52.112,191.885-87.705,292.886-105.796
				c134.634-24.136,257.749-15.72,356.06,24.338c94.946,38.691,160.771,103.938,190.962,189.072
				c48.438,12.622,82.212,41.509,93.359,80.286c9.258,32.192,1.255,66.553-20.864,91.567
				c12.344,232.92-22.681,444.145-104.131,627.944c-76.123,171.787-191.216,316.87-342.075,431.226
				c-182.437,138.291-412.954,226.826-666.636,256.035c-244.976,28.203-500.977,0.288-740.952-80.728
				C1478.39,3155.297,1340.573,3198.632,1202.707,3198.632z M527.531,1490.724c-2.93,0-5.835,0.801-8.428,2.395
				c-2.256,1.387-7.48,5.476-7.28,13.484c3.608,154.556,98.838,245.364,291.138,277.644c8.877,1.492,15.117,9.548,14.346,18.516
				c-42.925,498.25,95.938,846.406,424.521,1064.37c7.515,4.985,9.932,14.917,5.547,22.793
				c-38.276,68.77-91.138,134.79-166.357,207.769c-9.263,8.994-12.52,21.724-8.701,34.043c3.882,12.554,13.975,21.382,26.992,23.618
				c166.26,28.467,341.777-13.306,481.558-114.614c4.556-3.296,10.425-4.175,15.747-2.349
				c182.773,62.754,370.62,93.501,552.891,93.511c310.205,0.01,604.409-89.004,831.045-260.801
				c214.917-162.91,464.346-475.093,432.178-1037.187c-0.288-5.042,1.641-9.956,5.283-13.45c17.119-16.418,23.74-40.569,17.28-63.03
				c-8.223-28.604-36.279-49.854-76.973-58.296c-6.104-1.267-11.055-5.728-12.944-11.67
				c-25.376-79.651-85.63-140.84-174.243-176.948c-92.246-37.588-208.76-45.303-336.929-22.327
				c-97.227,17.415-192.153,51.716-282.144,101.956c-251.909,140.664-547.534,288.225-903.765,451.111
				c-59.146,27.088-118.423,47.861-176.177,61.743c-167.598,40.298-303.564,26.047-393.188-41.218
				c-74.238-55.711-114.766-145.113-120.459-265.718c-0.229-4.883,1.616-9.634,5.088-13.076c3.467-3.443,8.262-5.23,13.11-4.985
				c106.899,5.938,208.237-33.411,271.318-105.108c40.347-45.852,59.141-99.08,52.021-146.794
				c-15.972,11.328-41.797,24.121-78.73,26.482c-60.63,2.178-124.717-0.61-196.431-8.518c-14.39-1.597-27.031-1.279-38.623,0.972
				c-33.521,6.584-57.52,25.886-73.335,59.002c-4.248,8.96-13.423,14.141-23.296,13.12c-9.79-1.001-17.935-8.122-20.269-17.722
				c-9.815-40.891-30.215-60.525-70.42-67.815c-10.298-1.88-21.675-2.549-34.8-2.051c-102.529,3.667-175.181-8.037-228.652-36.819
				C532.936,1491.401,530.221,1490.724,527.531,1490.724z M881.725,1589.137c-0.01,0.022-0.024,0.047-0.034,0.071
				C881.701,1589.184,881.716,1589.16,881.725,1589.137z"/>
		</g>
		<g>
			<path style="fill:#000070;" d="M2438.893,2445.929c-7.363,0-14.741-0.142-22.178-0.425c-9.531-0.364-16.963-8.386-16.602-17.917
				c0.366-9.529,8.198-17.014,17.92-16.599c242.002,9.167,444.297-143.821,601.851-454.914
				c67.822-136.831,161.401-278.535,340.737-291.074c9.521-0.693,17.769,6.509,18.438,16.025
				c0.664,9.514-6.514,17.769-16.025,18.433c-161.938,11.321-248.726,143.896-312.266,272.09
				C2891.266,2286.484,2685.505,2445.929,2438.893,2445.929z"/>
		</g>
		<g>
			<path style="fill:#000070;" d="M2439.501,2368.86c-1.597,13.462-3.635,26.831-4.435,39.304
				c-0.824,12.551-0.856,24.641,1.392,36.335c2.343,11.636,6.746,22.798,13.312,33.452c6.588,10.652,15.132,20.752,24.835,30.845
				l0.127,0.129c3.153,3.281,3.052,8.496-0.229,11.65c-2.402,2.312-5.852,2.869-8.761,1.716
				c-14.258-5.684-27.603-14.702-38.783-26.624c-11.088-11.98-19.463-27.234-23.617-43.574c-4.056-16.34-4.336-33.467-0.483-49.214
				c1.875-7.886,4.738-15.43,8.4-22.495c3.811-7.104,8.079-13.477,14.237-19.558c3.278-3.235,8.557-3.203,11.792,0.076
				c1.843,1.865,2.626,4.382,2.352,6.799L2439.501,2368.86z"/>
		</g>
		<g>
			<path style="fill:#000070;" d="M3413.193,1836.948c0.07,0.095-0.04-0.427-0.138-0.879c-0.07-0.422-0.188-0.901-0.344-1.418
				c-0.272-1.001-0.529-2.014-0.928-3.054c-0.64-2.095-1.595-4.126-2.456-6.208c-2.01-4.014-4.247-8.018-7.098-11.543
				c-5.552-7.195-12.805-13.069-21.31-17.402l-6.67-2.803c-2.202-1.05-4.714-1.377-7.075-2.129
				c-4.716-1.628-9.891-1.873-14.965-2.71c-5.14-0.51-10.438-0.308-15.729-0.525l-16.071,1.406l-0.833,0.073
				c-4.43,0.386-8.336-2.891-8.723-7.322c-0.355-4.063,2.373-7.683,6.244-8.555l17.424-3.943c6-0.627,11.997-1.638,18.142-1.875
				c6.183,0.103,12.408-0.344,18.717,0.791c3.138,0.51,6.346,0.601,9.465,1.509l9.43,2.527c12.426,4.216,24.336,11.243,34.049,20.75
				c4.941,4.675,9.136,10.059,12.969,15.706c1.777,2.915,3.606,5.813,5.12,8.955c0.814,1.516,1.532,3.157,2.241,4.805
				c0.36,0.801,0.712,1.653,1.045,2.588c0.331,0.896,0.659,1.716,1.077,3.181c2.23,9.275-3.479,18.601-12.754,20.83
				C3424.75,1851.934,3415.424,1846.223,3413.193,1836.948z"/>
		</g>
		<g>
			<path style="fill:#000070;" d="M1790.728,2609.065c10.54,5.625,20.696,12.393,29.742,20.842
				c9.152,8.721,16.832,19.214,21.979,30.918c10.703,23.347,11.229,50.767,3.059,75.232
				c-14.922,43.967-34.198,86.414-57.393,126.838c-23.412,40.244-50.424,78.701-82.024,113.201
				c-31.322,34.722-66.639,65.872-104.956,92.615c-7.822,5.461-18.59,3.545-24.05-4.277c-5.297-7.588-3.654-17.949,3.591-23.547
				l0.194-0.149c35.151-27.065,68.495-56.433,98.42-89.163c30.245-32.407,57.263-67.832,81.307-105.286
				c23.728-37.646,43.799-77.756,60.859-119.058c7.384-18.259,8.048-39.465,1.168-58.281c-3.328-9.448-8.755-18.118-15.52-25.637
				c-7.113-7.617-15.466-14.419-24.547-20.322l-0.039-0.024c-3.741-2.432-4.802-7.437-2.371-11.179
				C1782.448,2608.252,1787.072,2607.126,1790.728,2609.065z"/>
		</g>
		<g>
			<path style="fill:#000070;" d="M1306.689,2669.622c-1.71,37.974-7.623,75.964-17.708,112.971
				c-10.054,37.019-24.236,73.003-41.608,107.336l-0.021,0.042c-4.31,8.518-14.711,11.929-23.229,7.62
				c-8.519-4.312-11.93-14.712-7.62-23.23c0.209-0.413,0.453-0.845,0.69-1.235c19.023-31.006,35.188-63.813,47.616-98.157
				c12.452-34.326,21.122-70.161,25.791-106.721c0.558-4.426,4.6-7.563,9.027-7.007
				C1303.824,2661.77,1306.858,2665.471,1306.689,2669.622z"/>
		</g>
		<g>
			
				<ellipse transform="matrix(0.9336 -0.3583 0.3583 0.9336 -765.7616 935.1576)" style="fill:#FF6EBA;" cx="2140.302" cy="2533.708" rx="104.951" ry="57.185"/>
		</g>
		<g>
			<g style="opacity:0.3;">
				<path style="fill:#000070;" d="M1612.912,3039.142c838.597,258.673,1839.362-135.678,1788.368-1220.583c0,0,0,0,0-0.055
					c-0.202-0.962-3.021-14.031-11.364-28.895c-26.269-16.756-68.367-21.253-134.868,16.785c0,0-31.243,23.168-70.501,68.677
					c-66.894,77.547-107.733,173.594-122.111,274.99c-63.283,446.28-694.186,785.517-1132.252,777.215
					c0,0-59.364,34.984-96.07-258.342c0,0-9.124-28.761-37.124-51.658c-15.665-12.812-39.52-0.515-37.45,19.618
					c22.762,221.492-392.029,508.576-624.133,470.684c0,0-37.944-3.716-34.445-54.307c-10.442,10.819-21.099,21.476-31.971,32.025
					c-30.085,29.226-13.939,79.978,27.395,87.084c162.594,27.825,333.153-9.098,473.842-103.23c0.067-0.068,0.218-0.05,0.245-0.158
					c1.456-5.958,3.315-11.708,9.382-12.609l11.232-1.669c6.389,2.192,12.789,4.342,19.199,6.46L1612.912,3039.142z"/>
			</g>
		</g>
		<g style="opacity:0.3;">
			<path style="fill:#000070;" d="M3288.256,1692.078c0,0-181.198-17.976-287.944,181.041
				c-75.493,140.751-205.261,393.175-490.625,440.396c-52.661,8.714-89.765,58.49-81.408,111.209
				c0.298,1.882,0.646,3.777,1.044,5.682c0,0,339.558,9.787,514.477-305.067C3118.719,1810.485,3099.881,1799.721,3288.256,1692.078
				z"/>
		</g>
		<g style="opacity:0.3;">
			<path style="fill:#000070;" d="M1279.162,2771.302c0,0-19.376,74.005-50.484,107.804c-0.01,0.001-0.017,0.002-0.028,0.003
				c-214.982-143.858-359.771-351.442-413.212-641.822c-21.798-118.729-28.364-251.291-18.192-398.977
				c0.807-12.217,1.776-24.596,2.853-37.029c-207.75-34.876-301.883-137.567-305.543-294.241c-0.108-3.822,0.431-7.427,1.507-10.818
				c0.416,4.058,19.639,183.062,325.203,249.502c18.814,4.091,32.253,20.721,32.248,39.974
				C853.481,1942.628,877.52,2604.377,1279.162,2771.302z"/>
		</g>
		<g style="opacity:0.3;">
			<path style="fill:#000070;" d="M975.719,1795.254c3.606,76.319,21.582,137.459,51.237,184.661
				c-71.731-39.789-92.147-139.344-97.903-197.645c-2.328-23.577,15.8-44.008,39.474-44.921
				c179.689-6.93,295.932-77.812,348.687-212.601C1335.459,1653.488,1186.429,1806.879,975.719,1795.254z"/>
		</g>
		<g style="opacity:0.25;">
			<path style="fill:#FFFFFF;" d="M2952.79,1645.873c28.608,63.382-61.569,93.97-168.129,142.067
				c-106.56,48.097-189.152,95.489-217.76,32.107c-28.608-63.382,34.585-153.753,141.146-201.85
				C2814.606,1570.1,2924.182,1582.491,2952.79,1645.873z"/>
		</g>
		<g style="opacity:0.25;">
			<path style="fill:#FFFFFF;" d="M2515.964,1865.76c16.125,33.474-4.263,60.189-45.791,80.193
				c-41.528,20.004-88.471,25.724-104.596-7.751c-16.125-33.474,4.469-76.828,45.997-96.832
				C2453.102,1821.366,2499.839,1832.286,2515.964,1865.76z"/>
		</g>
		<g>
			<g>
				<g>
					<g>
						<path style="fill:#000072;" d="M2221.688,2024.659c-70.998-0.967-128.531,74.771-128.502,169.164
							c0.028,94.393,57.606,171.698,128.605,172.665c70.997,0.967,128.531-74.77,128.503-169.164
							C2350.266,2102.931,2292.685,2025.625,2221.688,2024.659z"/>
					</g>
				</g>
			</g>
			<g>
				<g>
					<g>
						<path style="fill:#FFFFFF;" d="M2220.854,2064.266c-21.507,10.36-27.818,42.993-14.094,72.886
							c13.723,29.894,42.281,45.727,63.789,35.366c21.506-10.36,27.817-42.992,14.094-72.885
							C2270.919,2069.74,2242.361,2053.905,2220.854,2064.266z"/>
					</g>
				</g>
			</g>
			<g>
				<g>
					<g>
						<path style="fill:#B199C5;" d="M2166.522,2271.532c-9.854,8.042-9.305,25.713,1.224,39.466
							c10.529,13.755,27.053,18.385,36.905,10.343c9.854-8.041,9.305-25.712-1.225-39.465
							C2192.899,2268.121,2176.374,2263.491,2166.522,2271.532z"/>
					</g>
				</g>
			</g>
		</g>
	</g>
</g>
</svg>
