<?xml version="1.0" encoding="utf-8"?>
<!-- Generator: Adobe Illustrator 27.5.0, SVG Export Plug-In . SVG Version: 6.00 Build 0)  -->
<svg version="1.1" id="Layer_1" xmlns="http://www.w3.org/2000/svg" xmlns:xlink="http://www.w3.org/1999/xlink" x="0px" y="0px"
	 viewBox="0 0 4000 4000" style="enable-background:new 0 0 4000 4000;" xml:space="preserve">
<g>
	<g>
		<g>
			<!-- <rect style="fill:#FFD87D;" width="4000" height="4000"/> -->
		</g>
	</g>
	<g>
		<g>
			<g>
				<g>
					<polygon style="fill:#FFBC00;" points="2000.847,756.415 1758.545,1988.881 1648.408,1997.427 1516.151,2007.681 
						1495.498,1718.707 1718.455,648.448 1901.783,656.084 					"/>
				</g>
			</g>
			<g style="opacity:0.6;">
				<g>
					<polygon style="fill:#FFFFFF;" points="2000.847,756.415 2000.442,758.383 1936.839,693.977 1753.512,686.341 1530.556,1756.6 
						1548.323,2005.206 1516.151,2007.681 1495.498,1718.707 1718.455,648.448 1901.783,656.084 					"/>
				</g>
			</g>
			<g>
				<g>
					<path style="fill:#000072;" d="M1516.173,2025.913c-4.355,0-8.584-1.56-11.909-4.421c-3.682-3.172-5.947-7.678-6.294-12.524
						l-20.679-288.972c-0.117-1.685-0.005-3.374,0.337-5.024l222.949-1070.249c1.821-8.748,9.707-14.89,18.628-14.512l183.33,7.637
						c4.609,0.19,8.979,2.126,12.227,5.413l99.053,100.33c4.238,4.297,6.084,10.415,4.917,16.34L1776.462,1992.39
						c-1.577,8.04-8.325,14.041-16.494,14.673l-242.383,18.794C1517.111,2025.893,1516.642,2025.913,1516.173,2025.913z
						 M1513.879,1719.924l19.185,268.125l210.259-16.301L1981.056,762.36l-87.222-88.347l-160.684-6.694L1513.879,1719.924z"/>
				</g>
			</g>
			<g>
				<g>
					<path style="fill:#000072;" d="M1648.444,2015.661c-1.123,0-2.261-0.105-3.408-0.32c-9.902-1.87-16.416-11.416-14.541-21.318
						l253.35-1341.33c1.865-9.905,11.406-16.411,21.318-14.546c9.902,1.87,16.416,11.416,14.541,21.318l-253.35,1341.331
						C1664.704,2009.555,1657.043,2015.661,1648.444,2015.661z"/>
				</g>
			</g>
			<g style="opacity:0.3;">
				<g>
					<polygon style="fill:#000072;" points="2000.847,756.415 1758.545,1988.881 1648.408,1997.427 1901.783,656.084 					"/>
				</g>
			</g>
		</g>
		<g>
			<g>
				<g>
					<polygon style="fill:#FFBC00;" points="2386.02,919.468 1869.204,2064.276 1760.019,2047.495 1628.905,2027.337 
						1674.656,1741.261 2135.666,749.983 2312.429,799.2 					"/>
				</g>
			</g>
			<g style="opacity:0.6;">
				<g>
					<polygon style="fill:#FFFFFF;" points="2386.02,919.468 2385.177,921.292 2337.927,844.085 2161.165,794.868 
						1700.154,1786.147 1660.794,2032.259 1628.905,2027.337 1674.656,1741.261 2135.666,749.983 2312.429,799.2 					"/>
				</g>
			</g>
			<g>
				<g>
					<path style="fill:#000072;" d="M1869.23,2082.517c-0.923,0-1.851-0.068-2.783-0.212l-240.288-36.943
						c-4.8-0.737-9.111-3.362-11.973-7.288c-2.861-3.926-4.043-8.83-3.276-13.63l45.723-286.079
						c0.269-1.665,0.762-3.286,1.475-4.814l461.001-991.272c3.77-8.101,12.866-12.271,21.445-9.885l176.763,49.219
						c4.453,1.238,8.267,4.119,10.674,8.057l73.574,120.264c3.154,5.151,3.55,11.528,1.064,17.031l-516.777,1144.812
						C1882.868,2078.384,1876.31,2082.517,1869.23,2082.517z M1649.85,2012.077l208.442,32.046l507.1-1123.379l-64.785-105.901
						l-154.932-43.137l-453.403,974.929L1649.85,2012.077z"/>
				</g>
			</g>
			<g>
				<g>
					<path style="fill:#000072;" d="M1760.031,2065.735c-2.466,0-4.976-0.503-7.373-1.567c-9.219-4.077-13.384-14.856-9.307-24.072
						l552.383-1248.289c4.077-9.214,14.863-13.386,24.072-9.302c9.219,4.077,13.384,14.856,9.307,24.072L1776.73,2054.865
						C1773.713,2061.679,1767.033,2065.735,1760.031,2065.735z"/>
				</g>
			</g>
			<g style="opacity:0.3;">
				<g>
					<polygon style="fill:#000072;" points="2386.02,919.468 1869.204,2064.276 1760.019,2047.495 2312.429,799.2 					"/>
				</g>
			</g>
		</g>
		<g>
			<g>
				<g>
					<polygon style="fill:#FFBC00;" points="1588.732,973.954 1701.09,2224.978 1597.748,2264.009 1473.648,2310.873 
						1372.935,2039.231 1287.408,949.346 1465.545,905.363 					"/>
				</g>
			</g>
			<g style="opacity:0.6;">
				<g>
					<polygon style="fill:#FFFFFF;" points="1588.732,973.954 1588.895,975.957 1509.806,931.929 1331.67,975.912 
						1417.198,2065.797 1503.841,2299.492 1473.648,2310.873 1372.935,2039.231 1287.408,949.346 1465.545,905.363 					"/>
				</g>
			</g>
			<g>
				<g>
					<path style="fill:#000072;" d="M1473.664,2329.099c-2.583,0-5.166-0.549-7.563-1.641c-4.419-2.014-7.856-5.708-9.546-10.264
						l-100.737-271.633c-0.586-1.582-0.952-3.235-1.084-4.917l-85.532-1089.873c-0.698-8.904,5.151-17.004,13.818-19.146
						l178.14-43.984c4.468-1.111,9.219-0.476,13.252,1.775l123.174,68.596c5.278,2.937,8.76,8.296,9.297,14.309l112.392,1251.008
						c0.737,8.162-4.063,15.811-11.728,18.706l-227.437,85.886C1478.029,2328.708,1475.846,2329.099,1473.664,2329.099z
						 M1390.92,2035.254l93.472,252.039l197.295-74.504L1571.398,985.202l-108.467-60.405l-156.133,38.552L1390.92,2035.254z"/>
				</g>
			</g>
			<g>
				<g>
					<path style="fill:#000072;" d="M1597.741,2282.236c-9.287,0-17.226-7.051-18.144-16.482L1447.37,907.126
						c-0.976-10.032,6.367-18.955,16.397-19.932c10.093-0.969,18.955,6.367,19.932,16.396l132.227,1358.628
						c0.977,10.032-6.367,18.955-16.397,19.932C1598.927,2282.209,1598.332,2282.236,1597.741,2282.236z"/>
				</g>
			</g>
			<g style="opacity:0.3;">
				<g>
					<polygon style="fill:#000072;" points="1588.732,973.954 1701.09,2224.978 1597.748,2264.009 1465.545,905.363 					"/>
				</g>
			</g>
		</g>
		<g>
			<g>
				<g>
					<polygon style="fill:#FFBC00;" points="2356.664,1230.71 2290.698,2485.035 2182.869,2509.036 2053.382,2537.851 
						1992.159,2254.683 2061.863,1163.671 2244.434,1145.362 					"/>
				</g>
			</g>
			<g style="opacity:0.6;">
				<g>
					<polygon style="fill:#FFFFFF;" points="2356.664,1230.71 2356.541,1232.715 2284.486,1177.929 2101.916,1196.238 
						2032.213,2287.25 2084.882,2530.861 2053.382,2537.851 1992.159,2254.683 2061.863,1163.671 2244.434,1145.362 					"/>
				</g>
			</g>
			<g>
				<g>
					<path style="fill:#000072;" d="M2053.4,2556.076c-3.462,0-6.88-0.981-9.839-2.876c-4.092-2.622-6.973-6.763-7.998-11.514
						l-61.245-283.162c-0.357-1.648-0.483-3.337-0.376-5.02l69.692-1091.004c0.571-8.911,7.505-16.101,16.392-16.992l182.578-18.308
						c4.624-0.457,9.194,0.84,12.866,3.63l112.217,85.347c4.81,3.657,7.495,9.453,7.178,15.483l-65.933,1254.316
						c-0.43,8.184-6.26,15.078-14.258,16.855l-237.31,52.808C2056.052,2555.935,2054.723,2556.076,2053.4,2556.076z
						 M2010.529,2253.293l56.826,262.734l205.859-45.806l64.697-1230.835l-98.813-75.154l-160.024,16.047L2010.529,2253.293z"/>
				</g>
			</g>
			<g>
				<g>
					<path style="fill:#000072;" d="M2182.897,2527.263c-0.278,0-0.557-0.005-0.84-0.015c-10.063-0.454-17.861-8.984-17.407-19.053
						l61.543-1363.66c0.459-10.066,8.945-17.808,19.058-17.407c10.063,0.454,17.861,8.984,17.407,19.053l-61.543,1363.655
						C2200.671,2519.626,2192.594,2527.263,2182.897,2527.263z"/>
				</g>
			</g>
			<g style="opacity:0.3;">
				<g>
					<polygon style="fill:#000072;" points="2356.664,1230.71 2290.698,2485.035 2182.869,2509.036 2244.434,1145.362 					"/>
				</g>
			</g>
		</g>
		<g>
			<g>
				<g>
					<polygon style="fill:#FFBC00;" points="3066.846,1316.126 2587.019,2476.923 2477.352,2463.653 2345.658,2447.711 
						2382.209,2160.316 2811.185,1154.759 2989.436,1198.281 					"/>
				</g>
			</g>
			<g style="opacity:0.6;">
				<g>
					<polygon style="fill:#FFFFFF;" points="3066.846,1316.126 3066.063,1317.976 3016.36,1242.325 2838.11,1198.804 
						2409.134,2204.36 2377.689,2451.608 2345.658,2447.711 2382.209,2160.316 2811.185,1154.759 2989.436,1198.281 					"/>
				</g>
			</g>
			<g>
				<g>
					<path style="fill:#000072;" d="M2587.043,2495.163c-0.728,0-1.465-0.044-2.202-0.137l-241.348-29.214
						c-4.824-0.581-9.214-3.066-12.202-6.899s-4.321-8.696-3.711-13.516L2364.103,2158c0.215-1.675,0.659-3.311,1.318-4.861
						l428.965-1005.549c3.506-8.215,12.461-12.688,21.113-10.566l178.257,43.523c4.487,1.094,8.394,3.85,10.928,7.71l77.397,117.842
						c3.315,5.046,3.916,11.406,1.611,16.987l-479.795,1160.798C2601.052,2490.769,2594.347,2495.163,2587.043,2495.163z
						 M2366.105,2431.784l209.36,25.347l470.811-1139.065l-68.154-103.769l-156.235-38.147l-421.895,988.972L2366.105,2431.784z"/>
				</g>
			</g>
			<g>
				<g>
					<path style="fill:#000072;" d="M2477.365,2481.892c-2.28,0-4.6-0.43-6.841-1.338c-9.341-3.779-13.853-14.419-10.068-23.76
						l512.061-1265.366c3.774-9.346,14.438-13.85,23.76-10.071c9.341,3.782,13.853,14.419,10.068,23.762l-512.061,1265.366
						C2491.413,2477.585,2484.577,2481.892,2477.365,2481.892z"/>
				</g>
			</g>
			<g style="opacity:0.3;">
				<g>
					<polygon style="fill:#000072;" points="3066.846,1316.126 2587.019,2476.923 2477.352,2463.653 2989.436,1198.281 					"/>
				</g>
			</g>
		</g>
		<g>
			<g>
				<g>
					<polygon style="fill:#FFBC00;" points="2784.104,1026.653 2436.559,2233.673 2326.096,2232.701 2193.447,2231.527 
						2197.758,1941.848 2512.059,894.767 2694.048,918.164 					"/>
				</g>
			</g>
			<g style="opacity:0.6;">
				<g>
					<polygon style="fill:#FFFFFF;" points="2784.104,1026.653 2783.531,1028.579 2725.711,958.935 2543.723,935.539 
						2229.422,1982.62 2225.712,2231.832 2193.447,2231.527 2197.758,1941.848 2512.059,894.767 2694.048,918.164 					"/>
				</g>
			</g>
			<g>
				<g>
					<path style="fill:#000072;" d="M2436.574,2251.911c-0.054,0-0.107,0-0.161-0.002l-243.101-2.151
						c-4.858-0.042-9.497-2.021-12.896-5.496c-3.394-3.477-5.264-8.164-5.19-13.022l4.282-289.678
						c0.024-1.685,0.283-3.359,0.767-4.976l314.292-1047.073c2.573-8.56,10.923-13.992,19.81-12.854l181.992,23.396
						c4.58,0.588,8.765,2.893,11.714,6.445l90.044,108.489c3.857,4.648,5.166,10.901,3.491,16.704l-347.51,1207.017
						C2451.857,2246.533,2444.704,2251.911,2436.574,2251.911z M2211.994,2213.425l210.879,1.865l341.006-1184.419l-79.292-95.532
						l-159.512-20.505l-309.111,1029.81L2211.994,2213.425z"/>
				</g>
			</g>
			<g>
				<g>
					<path style="fill:#000072;" d="M2326.125,2250.94c-1.626,0-3.281-0.22-4.927-0.681c-9.707-2.717-15.371-12.786-12.656-22.493
						l367.925-1314.529c2.72-9.702,12.764-15.373,22.49-12.654c9.707,2.717,15.371,12.786,12.656,22.493l-367.925,1314.529
						C2341.432,2245.664,2334.103,2250.94,2326.125,2250.94z"/>
				</g>
			</g>
			<g style="opacity:0.3;">
				<g>
					<polygon style="fill:#000072;" points="2784.104,1026.653 2436.559,2233.673 2326.096,2232.701 2694.048,918.164 					"/>
				</g>
			</g>
		</g>
		<g>
			<g>
				<path style="fill:#FF1E00;" d="M2687.322,1674.536l-416.844,1386.421c-32.2,107.063-139.849,172.713-249.813,152.316
					l-802.259-148.814c-109.332-20.281-186.135-119.317-178.602-230.301L1136.771,1410c3.696-54.794,54.353-94.053,108.329-84.041
					l189.25,35.105c49.733,9.225,86.068,51.777,88.111,102.318c6.992,172.925,132.449,324.275,309.809,357.174
					c177.312,32.89,348.743-63.392,417.299-222.307c20.035-46.442,69.212-73.128,118.942-63.903l263.076,48.799
					C2673.692,1590.955,2699.668,1633.571,2687.322,1674.536z"/>
			</g>
			<g>
				<path style="fill:#390176;" d="M2060.988,3219.656c-13.472,0-27.114-1.226-40.806-3.765l-802.261-148.813
					c-110.684-20.537-188.398-120.747-180.767-233.101l96.963-1424.158c1.812-26.853,15.044-51.719,36.304-68.223
					c21.279-16.511,48.672-23.167,75.161-18.252l189.253,35.105c51.045,9.468,88.169,52.573,90.283,104.824
					c7.139,176.548,133.642,322.393,307.637,354.668c174.009,32.268,344.375-58.501,414.375-220.747
					c20.708-48.01,70.825-74.944,121.865-65.464l263.076,48.799c20.815,3.86,39.072,16.438,50.083,34.509
					c11.006,18.057,13.813,40.022,7.715,60.264l-416.846,1386.423C2244.382,3156.96,2157.219,3219.656,2060.988,3219.656z
					 M1228.376,1327.082c-19.653,0-38.945,6.497-54.692,18.718c-20.064,15.571-32.549,39.036-34.258,64.377l-96.968,1424.16
					c-7.441,109.658,68.408,207.466,176.431,227.505l802.261,148.813c13.359,2.48,26.685,3.677,39.829,3.677
					c93.931,0.01,178.994-61.182,206.948-154.141l416.846-1386.423c5.669-18.799,3.057-39.197-7.158-55.964
					c-10.229-16.78-27.178-28.459-46.509-32.046l-263.076-48.799c-48.599-9.023-96.289,16.624-116.016,62.344
					c-33.711,78.142-93.745,143.618-169.043,184.365c-76.416,41.345-165.635,55.364-251.182,39.502
					c-85.591-15.877-163.838-60.967-220.327-126.963c-55.669-65.034-88.218-147.683-91.655-232.72
					c-2.017-49.754-37.354-90.796-85.938-99.81l-189.253-35.105C1239.22,1327.573,1233.781,1327.082,1228.376,1327.082z"/>
			</g>
		</g>
		<g>
			<g>
				<polyline style="fill:#FFFFFF;" points="1073.401,2235.921 2576.276,2067.188 2446.796,2497.798 1044.869,2655.232 				"/>
			</g>
		</g>
		<g style="opacity:0.55;">
			<g>
				<path style="fill:#FFFFFF;" d="M1119.894,3018.842c-53.397-43.642-85.039-111.577-80.075-184.668l96.945-1424.177
					c3.717-54.771,54.338-94.05,108.338-84.049l189.256,35.097c37.917,7.054,68.055,33.508,81.164,68.099
					c-9.797-5.336-20.549-9.276-32.027-11.389l-189.256-35.096c-54-10.002-104.663,29.261-108.338,84.049l-96.988,1424.161
					C1085.778,2937.243,1097.336,2981.524,1119.894,3018.842z"/>
			</g>
		</g>
		<g style="opacity:0.55;">
			<g>
				<path style="fill:#FFFFFF;" d="M2689.41,1642.067c-2.813-0.946-5.72-1.634-8.717-2.211l-263.038-48.83
					c-49.769-9.21-98.929,17.472-118.969,63.904c-68.571,158.938-239.979,255.219-417.299,222.311
					c-101.171-18.734-185.407-76.05-240.436-153.873c51.284,48.554,116.727,83.332,191.343,97.18
					c177.277,32.892,348.729-63.373,417.299-222.309c19.998-46.45,69.201-73.116,118.911-63.88l263.095,48.806
					C2662.43,1588.855,2684.652,1613.299,2689.41,1642.067z"/>
			</g>
		</g>
		<g>
			<g>
				<path style="fill:#FF1E00;" d="M2383.599,3280.596l-362.932-67.335c109.95,20.384,217.587-45.242,249.798-152.315
					l416.881-1386.411c12.322-40.974-13.668-83.603-55.747-91.371l341.084,63.271c53.726,9.948,86.888,64.334,71.169,116.7
					l-410.497,1365.128C2601.187,3235.352,2493.55,3300.977,2383.599,3280.596z"/>
			</g>
			<g>
				<path style="fill:#390176;" d="M2423.903,3286.975c-13.467,0-27.1-1.226-40.786-3.76l-362.935-67.339l0.967-5.234l0.083,0.02
					c108.765,20.083,214.815-44.556,246.685-150.483l416.88-1386.409c5.659-18.816,3.037-39.229-7.207-56.006
					c-10.19-16.697-27.036-28.33-46.245-31.941l-0.229-0.044l0.967-5.229c0.044,0.007,0.093,0.017,0.142,0.024l340.942,63.247
					c26.338,4.875,49.443,20.781,63.394,43.64c13.97,22.881,17.554,50.742,9.844,76.438l-410.498,1365.132
					C2607.297,3224.27,2520.138,3286.975,2423.903,3286.975z M2384.084,3277.981c108.882,20.186,214.897-44.517,246.724-150.483
					l410.498-1365.129c7.28-24.248,3.896-50.542-9.287-72.136c-13.164-21.57-34.971-36.58-59.819-41.182l-313.872-58.223
					c9.585,6.057,17.778,14.29,23.804,24.165c11.03,18.064,13.857,40.046,7.764,60.31l-416.88,1386.409
					c-27.866,92.622-111.074,154.463-204.146,157.788L2384.084,3277.981z"/>
			</g>
		</g>
		<g style="opacity:0.3;">
			<g>
				<path style="fill:#000072;" d="M2383.957,3280.679c-0.127-0.047-0.229-0.035-0.358-0.083l-362.473-67.262
					c109.8,20.133,217.176-45.444,249.339-152.387l416.881-1386.411c8.977-29.855-2.381-60.634-25.486-78.106l253.756,47.092
					c53.728,9.949,86.889,64.334,71.17,116.7L2576.289,3125.35C2549.803,3213.573,2472.042,3273.686,2383.957,3280.679z"/>
			</g>
		</g>
		<g>
			<g>
				<path style="fill:#000072;" d="M2061.012,3235.246c-14.419,0-29.019-1.313-43.677-4.028l-802.261-148.813
					c-118.462-21.978-201.641-129.233-193.477-249.482l96.963-1424.163c2.109-31.277,17.529-60.249,42.305-79.478
					c24.785-19.238,56.714-26.987,87.564-21.265l189.253,35.105c58.242,10.803,100.601,59.954,103.013,119.521
					c6.846,169.229,128.115,309.028,294.907,339.971c166.782,30.938,330.127-56.072,397.212-211.594
					c23.613-54.734,80.737-85.427,139.028-74.617l263.076,48.799c25.166,4.668,47.236,19.875,60.547,41.724
					c13.306,21.836,16.709,48.398,9.326,72.876l-416.841,1386.411C2257.297,3168.147,2164.006,3235.246,2061.012,3235.246z
					 M1228.371,1342.671c-16.216,0-32.139,5.361-45.127,15.444c-16.553,12.847-26.855,32.205-28.267,53.113l-96.963,1424.17
					c-6.909,101.758,63.476,192.524,163.721,211.118l802.261,148.813c100.938,18.726,199.429-41.294,229.004-139.624
					l416.846-1386.423c0-0.005,0-0.01,0.005-0.012c4.453-14.775,2.48-30.171-5.552-43.352c-8.037-13.193-20.835-22.012-36.04-24.832
					l-263.076-48.799c-41.396-7.683-82.036,14.202-98.853,53.191c-35.098,81.343-97.578,149.495-175.942,191.902
					c-79.522,43.035-172.363,57.646-261.445,41.118c-89.082-16.523-170.527-63.457-229.326-132.153
					c-57.93-67.683-91.807-153.706-95.386-242.227c-1.719-42.434-31.821-77.434-73.208-85.112l-189.253-35.105
					C1237.321,1343.076,1232.834,1342.671,1228.371,1342.671z"/>
			</g>
		</g>
		<g>
			<g>
				<path style="fill:#000072;" d="M2423.952,3302.571c-14.424,0-29.023-1.313-43.691-4.033l-362.925-67.319
					c-9.907-1.841-16.45-11.362-14.614-21.274c1.841-9.907,11.313-16.421,21.274-14.614l362.925,67.319
					c101.021,18.77,199.429-41.289,228.945-139.629l410.513-1365.154c6.006-19.985,3.223-41.667-7.646-59.482
					c-10.864-17.818-28.862-30.217-49.385-34.026l-392.026-72.717c-9.907-1.836-16.45-11.36-14.614-21.269
					c1.836-9.91,11.333-16.46,21.274-14.614l392.026,72.717c30.698,5.696,57.627,24.248,73.887,50.906
					c16.255,26.655,20.425,59.092,11.436,88.994l-410.508,1365.149C2620.221,3235.456,2526.95,3302.561,2423.952,3302.571z"/>
			</g>
		</g>
	</g>
</g>
</svg>
