<?xml version="1.0" encoding="utf-8"?>
<!-- Generator: Adobe Illustrator 27.5.0, SVG Export Plug-In . SVG Version: 6.00 Build 0)  -->
<svg version="1.1" id="Layer_1" xmlns="http://www.w3.org/2000/svg" xmlns:xlink="http://www.w3.org/1999/xlink" x="0px" y="0px"
	 viewBox="0 0 4000 4000" style="enable-background:new 0 0 4000 4000;" xml:space="preserve">
<g>
	<!-- <g>
		<rect style="fill:#64EDFF;" width="4000" height="4000"/>
	</g> -->
	<g>
		<g>
			<g>
				<path style="fill:#FFFFFF;" d="M1117.5,1836.071c0,0-556.071-19.286-546.429,514.286
					c9.643,533.572,562.5,527.143,716.786,347.143c0,0,98.036,482.143,647.679,482.143s703.929-419.464,703.929-419.464
					s544.821,318.214,814.821-216.964s-231.428-880.714-540-723.214c0,0-337.5-540-835.714-180c0,0-139.286-85.714-287.143,66.429
					C1791.429,1706.429,1390.714,1386.071,1117.5,1836.071z"/>
			</g>
			<g style="opacity:0.3;">
				<path style="fill:#000072;" d="M571.553,2309.368c19.058,519.336,563.391,511.531,716.304,333.132
					c0,0,98.037,482.144,647.678,482.144c549.644,0,703.931-419.465,703.931-419.465s544.819,318.215,814.819-216.965
					c48.503-96.138,72.075-186.135,76.367-268.203c-3.862-71.663-22.825-136.309-52.566-192.612
					c9.89,98.247-9.873,210.959-72.002,334.109c-204.29,404.929-571.506,303.926-720.908,241.228
					c-36.169-15.181-78.103-1.382-97.996,32.427c-67.195,114.204-250.593,340.911-647.671,340.911
					c-375.547,0-532.766-233.091-592.603-369.419c-18.306-41.707-68.43-58.889-108.662-37.534
					c-203.376,107.952-608.228,54.258-616.326-393.845c-0.557-30.75,0.889-59.539,3.997-86.602
					C595.127,2147.488,574.988,2220.051,571.553,2309.368z"/>
			</g>
			<g style="opacity:0.3;">
				<path style="fill:#000072;" d="M1048.531,2268.402c0,0-17.817-244.831,513.612-204.116
					c531.428,40.714,1543.693-342.908,1611.847,132.296c0,0-407.561-177.296-593.99,275.918c0,0-401.786-215.357-639.643,67.5
					C1940.357,2540,1670.634,1955.019,1048.531,2268.402z"/>
			</g>
			<g>
				<path style="fill:#000072;" d="M1935.536,3199.644c-292.041,0-457.988-135.317-545.776-248.838
					c-65.645-84.878-98.091-169.092-112.217-214.692c-102.222,88.975-291.797,118.032-443.633,63.408
					c-103.271-37.144-277.344-144.844-282.832-448.804c-2.881-159.238,43.11-286.646,136.69-378.687
					c147.773-145.342,365.278-155.791,418.638-156.074c83.877-133.921,187.769-212.681,308.926-234.146
					c173.477-30.776,327.358,65.186,374.248,98.345c77.168-73.052,151.675-86.27,201.772-83.975
					c39.38,1.782,69.707,13.11,85.542,20.459c145.279-101.968,291.553-139.438,434.868-111.401
					c224.756,43.984,371.021,233.779,409.531,289.229c155.181-69.683,353.692-26.582,489.058,108.149
					c74.385,74.038,121.455,168.398,136.118,272.876c16.714,119.092-8.291,245.84-74.326,376.729
					c-79.839,158.252-191.265,259.468-331.177,300.835c-213.481,63.13-426.523-31.514-491.733-64.888
					c-17.085,36.792-59.917,116.162-141.636,196.045C2407.06,3082.49,2226.201,3199.644,1935.536,3199.644z M1287.856,2677.5
					c1.675,0,3.359,0.21,5.024,0.64c7.397,1.924,13.052,7.886,14.575,15.376c0.234,1.152,25.137,118.623,114.961,234.131
					c119.707,153.94,292.349,231.997,513.12,231.997c221.768,0,404.37-68.198,542.734-202.705
					c103.433-100.547,142.051-202.666,142.431-203.687c2.051-5.537,6.455-9.897,12.017-11.89c5.566-1.997,11.733-1.431,16.831,1.548
					c2.427,1.416,246.289,141.05,480.332,71.714c128.789-38.164,231.929-132.51,306.548-280.42
					c115.498-228.931,95.2-454.443-54.297-603.237c-127.983-127.388-316.621-165.698-458.755-93.154
					c-9.233,4.727-20.557,1.587-26.05-7.212c-1.49-2.378-152.305-239.111-393.516-286.157
					c-135.269-26.372-274.39,11.23-413.525,111.768c-6.558,4.736-15.317,5.063-22.198,0.82
					c-5.102-3.081-128.091-74.785-262.319,63.34c-7.173,7.388-18.789,8.105-26.831,1.68
					c-1.67-1.328-170.742-133.965-356.914-100.801c-112.119,19.961-208.823,95.732-287.432,225.2
					c-3.75,6.182-10.605,9.712-17.783,9.609c-3.11-0.122-247.944-6.255-401.191,144.683
					c-85.313,84.028-127.217,201.533-124.551,349.253c5.059,279.961,162.803,378.232,256.382,411.89
					c75.327,27.095,162.114,32.891,244.375,16.333c77.192-15.542,143.11-49.707,180.845-93.735
					C1276.523,2679.99,1282.099,2677.5,1287.856,2677.5z"/>
			</g>
		</g>
		<g>
			<g>
				<path style="fill:#32A6FC;" d="M3037,2168.2c-40,154.7-149.05,282.15-293.35,350.7c-247.5,117.5-723.6,277.05-1044.8-32.25
					c-66.75-64.25-115.35-144.4-140.15-231.75c-13.4-47.05-19.85-96.25-18.55-146.2c3-112.35,44.65-240.35,191.7-322.45
					c135.85-75.85,301.6-69.85,436.2,8.25c53.55,31.05,123.55,58.85,204.8,61.35c191.25,5.95,312.85-189.15,572.15,0
					c27.8,20.25,49.15,42.8,65.2,66.85C3059.7,1996.9,3058.35,2085.75,3037,2168.2z"/>
			</g>
			<g>
				<path style="fill:#FFFFFF;" d="M2796.295,1897.655l12.217,13.51c5.394,5.964,14.014,7.777,21.354,4.491l16.624-7.444
					c16.411-7.349,32.638,10.596,23.681,26.187l-9.073,15.793c-4.006,6.973-3.066,15.732,2.328,21.696l12.217,13.51
					c12.061,13.337,0.009,34.315-17.587,30.614l-17.824-3.749c-7.869-1.655-15.909,1.945-19.915,8.918l-9.073,15.794
					c-8.957,15.591-32.633,10.612-34.551-7.266l-1.943-18.11c-0.858-7.996-6.767-14.53-14.636-16.185l-17.824-3.749
					c-17.596-3.701-20.177-27.756-3.766-35.105l16.624-7.444c7.339-3.286,11.727-10.925,10.87-18.921l-1.943-18.11
					C2762.154,1894.206,2784.234,1884.318,2796.295,1897.655z"/>
			</g>
			<g>
				<path style="fill:#FFFFFF;" d="M2041.329,2305.226l-0.55,18.206c-0.243,8.038,4.718,15.318,12.287,18.032l17.145,6.149
					c16.926,6.07,16.196,30.253-1.065,35.291l-17.485,5.103c-7.719,2.253-13.11,9.22-13.353,17.258l-0.55,18.206
					c-0.543,17.973-23.767,24.751-33.893,9.892l-10.256-15.052c-4.528-6.645-12.82-9.619-20.54-7.366l-17.485,5.103
					c-17.261,5.038-30.885-14.956-19.881-29.177l11.146-14.406c4.921-6.36,5.187-15.165,0.659-21.811l-10.256-15.052
					c-10.125-14.859,4.68-33.994,21.605-27.924l17.145,6.149c7.569,2.715,16.026,0.247,20.947-6.114l11.146-14.406
					C2019.098,2279.086,2041.871,2287.253,2041.329,2305.226z"/>
			</g>
			<g>
				<path style="fill:#FFFFFF;" d="M2278.885,1914.164l4.48,9.262c1.978,4.089,6.364,6.439,10.864,5.822l10.193-1.399
					c10.063-1.381,16.014,10.921,8.685,17.953l-7.424,7.123c-3.278,3.145-4.157,8.043-2.179,12.132l4.48,9.262
					c4.423,9.143-5.438,18.605-14.39,13.808l-9.069-4.859c-4.004-2.145-8.934-1.469-12.211,1.676l-7.424,7.123
					c-7.329,7.032-19.375,0.578-17.579-9.419l1.819-10.126c0.803-4.471-1.364-8.95-5.368-11.096l-9.069-4.859
					c-8.953-4.797-6.536-18.248,3.526-19.629l10.193-1.399c4.5-0.618,8.091-4.063,8.894-8.534l1.819-10.127
					C2260.923,1906.879,2274.462,1905.02,2278.885,1914.164z"/>
			</g>
			<g>
				<path style="fill:#FFFFFF;" d="M2649.824,2204.378l2.04,10.084c0.901,4.452,4.566,7.818,9.079,8.337l10.221,1.176
					c10.09,1.161,12.801,14.555,3.955,19.547l-8.96,5.057c-3.956,2.232-6.024,6.758-5.124,11.21l2.041,10.084
					c2.014,9.955-9.887,16.672-17.369,9.802l-7.578-6.959c-3.346-3.072-8.289-3.641-12.245-1.408l-8.96,5.057
					c-8.845,4.992-18.911-4.252-14.689-13.49l4.277-9.358c1.888-4.131,0.901-9.009-2.444-12.081l-7.578-6.959
					c-7.481-6.87-1.801-19.3,8.29-18.139l10.221,1.176c4.513,0.519,8.846-1.927,10.734-6.058l4.277-9.358
					C2634.233,2192.861,2647.81,2194.423,2649.824,2204.378z"/>
			</g>
			<g style="opacity:0.3;">
				<path style="fill:#000072;" d="M2172.857,1746.573c0,0,89.127,98.137-54.7,327.462c-4.971,7.927-5.615,17.867-1.602,26.32
					c5.806,12.23,14.136,31.72,19.874,53.396c0,0-56.913-27.409-129.305-22.276
					C2007.124,2131.474,2198.036,1920.645,2172.857,1746.573z"/>
			</g>
			<g style="opacity:0.3;">
				<path style="fill:#000072;" d="M3037,2168.2c-40,154.7-149.05,282.15-293.35,350.7c-247.5,117.5-723.6,277.05-1044.8-32.25
					c-66.75-64.25-115.35-144.4-140.15-231.75l273.4,31.15c0,0,65.423,66.067,100.163,124.653
					c9.054,15.27,29.038,19.699,43.718,9.716c56.115-38.163,189.635-112.243,347.97-83.969c0,0,71.25-123.6,16.6-226
					c0,0,25.143,23.512,48.16,72.13c10.057,21.243,40.855,18.988,47.549-3.542c13.017-43.812,35.404-93.486,73.741-128.487
					c0,0-2.049,20.751-2.2,52.685c-0.478,100.711,115.382,158.095,194.962,96.37c41.401-32.112,93.597-60.174,158.072-74.404
					c91.938-20.29,155.129-105.593,149.545-199.578c-0.058-0.974-0.117-1.949-0.179-2.923
					C3059.7,1996.9,3058.35,2085.75,3037,2168.2z"/>
			</g>
			<g style="opacity:0.7;">
				<path style="fill:#FFFFFF;" d="M1731.85,1836.25c135.85-75.85,301.6-69.85,436.2,8.25c53.55,31.05,123.55,58.85,204.8,61.35
					c191.25,5.95,312.85-189.15,572.15,0c27.8,20.25,49.15,42.8,65.2,66.85c24.553,36.805,36.584,77.216,39.88,118.661
					c4.326-58.586-5.518-117.153-39.88-168.661c-16.05-24.05-37.4-46.6-65.2-66.85c-259.3-189.15-380.9,5.95-572.15,0
					c-81.25-2.5-151.25-30.3-204.8-61.35c-134.6-78.1-300.35-84.1-436.2-8.25c-147.05,82.1-188.7,210.1-191.7,322.45
					c-0.329,12.636-0.153,25.224,0.497,37.741C1546.318,2037.142,1590.12,1915.379,1731.85,1836.25z"/>
			</g>
			<g>
				<path style="fill:#000072;" d="M2541.326,1840.432c-5.847,2.634-12.781,5.945-19.121,9.231
					c-3.247,1.641-6.455,3.364-9.631,5.156c-3.23,1.707-6.416,3.484-9.568,5.325c-12.642,7.302-25.037,15.112-36.76,23.774
					c-11.563,8.804-22.786,18.14-32.649,28.811c-9.758,10.776-18.687,21.956-28.105,34.734l-0.049,0.066
					c-0.559,0.759-1.626,0.92-2.383,0.361c-0.466-0.342-0.706-0.889-0.693-1.426c0.508-16.24,6.597-31.997,14.861-45.95
					c8.608-13.762,18.77-26.47,29.929-38.14c11.155-11.677,23.386-22.151,36.16-31.868c6.367-4.905,12.966-9.46,19.751-13.787
					c6.865-4.434,13.367-8.472,21.289-12.51c9.844-5.02,21.895-1.106,26.914,8.74c5.02,9.844,1.106,21.895-8.74,26.914
					c-0.266,0.134-0.535,0.264-0.803,0.388L2541.326,1840.432z"/>
			</g>
			<g>
				<path style="fill:#000072;" d="M2608.599,2583.904c-4.407-5.073-8.013-9.558-11.826-14.382
					c-3.748-4.756-7.422-9.521-10.945-14.399c-7.119-9.697-13.811-19.639-20.435-29.626c-13.049-20.093-25.305-40.701-36.194-62.056
					c-22.046-42.539-39.541-87.634-51.047-134.407c-11.372-46.736-16.67-95.369-12.766-143.496
					c1.604-24.033,5.532-47.986,12.485-70.986c1.853-5.723,3.711-11.428,5.752-17.056c2.324-5.544,4.653-11.067,7.217-16.477
					l3.77-8.115l4.517-7.783c3.03-5.159,6.174-10.232,9.512-15.159c0.466-0.693,1.406-0.874,2.097-0.405
					c0.503,0.339,0.735,0.93,0.645,1.492l-0.017,0.103c-0.957,5.913-2.107,11.682-3.372,17.363l-1.924,8.481l-1.555,8.547
					c-0.945,5.71-2.283,11.262-3.34,16.875c-0.754,5.693-1.692,11.311-2.632,16.909c-3.289,22.454-6.414,44.834-6.379,67.441
					c-0.334,22.539,1.111,45.098,4.641,67.373c3.311,22.28,7.944,44.399,14.509,66.023c6.492,21.626,13.97,42.981,22.795,63.831
					c8.879,20.823,18.796,41.233,29.636,61.155c10.935,19.871,22.507,39.421,35.061,58.318c6.345,9.395,12.754,18.76,19.517,27.808
					l10.146,13.511c3.357,4.37,7.031,9.001,10.229,12.771l0.251,0.298c7.144,8.423,6.108,21.042-2.317,28.188
					C2628.271,2593.132,2615.769,2592.153,2608.599,2583.904z"/>
			</g>
			<g>
				<path style="fill:#201777;" d="M2344.863,2109.644c11.184,14.504,17.813,31.243,22.363,48.413
					c4.585,17.222,6.067,35.11,6.226,52.983c-0.01,17.893-1.467,35.857-4.556,53.662c-0.818,4.438-1.902,8.833-2.854,13.259
					l-1.489,6.626l-1.948,6.511l-3.989,13.018l-4.949,12.7c-3.037,8.599-7.554,16.533-11.443,24.773
					c-1.96,4.121-4.558,7.871-6.819,11.824c-2.383,3.875-4.59,7.883-7.175,11.621l-8.035,11.023
					c-2.708,3.655-5.271,7.439-8.362,10.754l-8.94,10.264l-4.482,5.127l-4.851,4.734c-12.693,12.927-26.646,24.409-41.111,35.01
					c-7.41,5.005-14.685,10.293-22.244,15.039l-23.162,13.328c-63.091,32.817-131.123,52.542-199.487,64.08l-25.693,4.092
					l-12.847,2.041l-12.886,1.511l-25.779,2.937c-8.579,1.023-17.178,1.978-25.879,2.549c-34.661,2.783-69.722,3.757-105.176,1.04
					c-17.739-1.702-35.554-3.792-53.384-8.208c-17.783-4.373-35.669-10.383-52.688-20.032
					c-16.855-9.565-33.271-23.298-43.633-42.034c-5.491-9.099-8.789-19.368-11.047-29.536c-0.82-5.127-1.787-10.281-1.851-15.369
					c-0.425-5.142-0.173-10.146,0.117-15.149c1.301-20.029,7.31-38.354,14.668-55.388c7.502-17.019,16.841-32.72,27.163-47.471
					c20.789-29.431,45.547-55.073,72.258-78.04c53.484-45.769,115.273-81.792,182.974-102.358
					c33.748-10.334,69.172-16.294,104.976-16.064c17.859,0.454,35.955,1.855,53.301,6.875c17.241,5.105,33.774,13.533,46.572,26.626
					c0.854,0.874,0.837,2.273-0.037,3.127c-0.481,0.471-1.125,0.676-1.748,0.62l-0.049-0.005
					c-17.866-1.736-33.823-4.216-49.875-6.152c-15.95-2.039-31.917-3.879-48.101-3.484c-32.319,0.84-64.644,7.251-95.642,17.852
					c-31.074,10.449-60.867,24.895-89.153,41.748c-28.267,16.902-55.127,36.304-79.595,58.215
					c-24.541,21.782-46.802,46.101-65.024,72.515c-9.104,13.179-17.117,26.956-23.252,41.138
					c-6.03,14.141-10.549,28.799-11.274,42.847c-0.164,3.499-0.366,6.995-0.012,10.354c0,3.45,0.762,6.66,1.233,9.944
					c1.553,6.345,3.43,12.556,6.885,18.003c6.189,11.248,16.816,20.303,29.387,27.466c12.627,7.153,27.278,12.217,42.512,15.92
					c15.251,3.784,31.357,5.652,47.476,7.185c32.466,2.437,65.676,1.528,98.85-1.199c8.289-0.552,16.606-1.492,24.929-2.5
					l24.956-2.881l12.468-1.477l12.366-1.992l24.731-3.975c65.688-11.321,130.1-29.827,188.098-59.619
					c28.85-15.059,55.574-33.535,78.647-55.549c23.057-21.992,42.134-47.92,54.9-76.982l4.746-10.918l3.889-11.27l1.934-5.647
					l1.545-5.774c1.003-3.857,2.158-7.686,3.064-11.577c3.433-15.623,5.486-31.609,6.243-47.754
					c0.625-16.177-0.444-32.346-0.979-48.772c-0.657-16.45-1.626-33.066-1.992-50.601l-0.002-0.161
					c-0.027-1.24,0.957-2.263,2.195-2.29C2343.777,2108.755,2344.443,2109.104,2344.863,2109.644z"/>
			</g>
			<g>
				<path style="fill:#000072;" d="M2169.599,2686.489c-169.819,0.01-341.685-47.783-484.624-185.435
					c-108.55-104.531-168.618-247.725-164.795-392.871c3.965-150.513,73.789-267.876,201.929-339.409l0,0
					c138.77-77.456,313.491-74.238,455.962,8.413c63.579,36.885,129.321,56.621,195.405,58.672
					c61.577,1.885,115.557-18.389,172.715-39.878c113.779-42.769,231.416-86.997,410.596,43.711
					c102.265,74.604,136.694,189.937,99.565,333.535c-41.084,158.882-151.934,291.455-304.135,363.721
					C2606.733,2606.025,2389.897,2686.479,2169.599,2686.489z M1741.601,1803.701c-116.768,65.186-177.813,167.983-181.431,305.537
					c-3.53,133.94,52.075,266.25,152.549,363.008c134.053,129.082,296.362,174.111,457.51,174.116
					c212.768,0.01,423.54-78.462,564.829-145.547c141.469-67.173,244.458-190.22,282.563-337.598
					c33.149-128.193,4.746-226.167-84.409-291.211c-161.729-117.979-264.326-79.414-372.944-38.584
					c-58.286,21.909-118.535,44.653-188.032,42.417c-72.783-2.256-144.863-23.809-214.233-64.053
					c-130.327-75.61-289.888-78.716-416.401-8.081V1803.701z"/>
			</g>
		</g>
		<g>
			<g>
				<g>
					<path style="fill:#FFDAB6;" d="M1916.783,1397.836c0,0,72.45-73.541,157.322,5.438
						c84.872,78.979,70.687,188.418,38.912,228.043C2081.242,1670.943,1916.783,1397.836,1916.783,1397.836z"/>
				</g>
				<g>
					<path style="fill:#000072;" d="M2104.877,1655.249c-0.752,0-1.513-0.024-2.28-0.078c-18.979-1.27-48.784-17.52-125.933-128.379
						c-40.933-58.818-76.66-118.047-77.017-118.638c-4.712-7.822-3.525-17.847,2.886-24.355
						c29.771-30.225,106.812-68.11,185.195,4.834c90.532,84.253,81.646,204.375,40.893,255.195
						C2122.67,1651.245,2114.306,1655.249,2104.877,1655.249z M1942.905,1402.295c58.55,95.308,130.806,195.156,158.32,211.064
						c20.786-33.652,35.43-124.556-40.742-195.444C2008.412,1369.473,1963.735,1388.154,1942.905,1402.295z"/>
				</g>
			</g>
			<g>
				<g>
					<path style="fill:#FFDAB6;" d="M1190.536,2118.823c0,0-74.066,71.913,4.294,157.357
						c78.36,85.444,187.899,72.054,227.754,40.569C1462.44,2285.262,1190.536,2118.823,1190.536,2118.823z"/>
				</g>
				<g>
					<path style="fill:#000072;" d="M1338.691,2361.27c-51.758,0-111.089-19.766-158.604-71.567
						c-72.373-78.921-33.926-155.669-3.481-185.229c6.548-6.362,16.587-7.471,24.37-2.705c0.591,0.356,59.556,36.519,118.081,77.876
						c110.293,77.954,126.323,107.871,127.461,126.86c0.615,10.361-3.477,19.575-11.533,25.938
						C1412.924,2349.868,1377.988,2361.27,1338.691,2361.27z M1194.804,2144.976c-14.292,20.723-33.301,65.273,14.766,117.69
						c70.322,76.685,161.343,62.7,195.146,42.158C1389.003,2277.197,1289.682,2204.219,1194.804,2144.976z"/>
				</g>
			</g>
			<g>
				<g>
					<path style="fill:#FFDAB6;" d="M1966.3,2174c0,0-404.9,426.75-655.05,83.6c0,0-220.5-155.65-257.45-386.15
						c-20.55-127.8,15.4-278.6,176.65-438.7c452-448.75,824.2,86.8,824.2,86.8c66.1,48.9,103.3,103.45,120.25,159.55
						C2245.7,1912.75,1966.3,2174,1966.3,2174z"/>
				</g>
				<g style="opacity:0.3;">
					<path style="fill:#000072;" d="M1966.3,2174c0,0-404.9,426.75-655.05,83.6c0,0-220.5-155.65-257.45-386.15
						c5.6,8.2,311.55,451.9,860.1,172.6c178.8-91.05,248.55-225.15,261-364.95C2245.7,1912.75,1966.3,2174,1966.3,2174z"/>
				</g>
				<g style="opacity:0.7;">
					<path style="fill:#FFFFFF;" d="M2174.9,1679.1c-16.95-56.1-54.15-110.65-120.25-159.55c0,0-372.2-535.55-824.2-86.8
						c-103.434,102.696-155.253,201.552-173.734,292.98c25.984-75.62,75.723-155.562,158.734-237.98
						c114.952-114.125,224.74-164.581,324.56-176.381c7.331-0.867,14.807,1.461,19.89,6.815
						c18.296,19.273,59.871,39.367,110.499,51.4c53.166,12.636,101.438,12.85,125.434,2.399c6.553-2.854,14.163-2.214,20.374,1.322
						c121.808,69.346,202.384,172.654,219.867,196.303c2.501,3.383,5.496,6.346,8.841,8.896
						c62.82,47.879,98.491,101.004,114.985,155.597c14.51,47.886,14.294,96.929,4.805,144.647
						C2186.802,1814.405,2195.062,1745.637,2174.9,1679.1z"/>
				</g>
				<g>
					<path style="fill:#000072;" d="M1847.781,1581.702c5.076,21.106,2.664,43.369-3.921,64.255
						c-6.748,20.894-18.391,40.669-34.021,56.709c-3.833,4.08-8.074,7.739-12.261,11.426c-4.412,3.425-8.76,6.914-13.479,9.863
						c-4.592,3.14-9.497,5.732-14.343,8.367c-5.015,2.297-9.91,4.824-15.107,6.572c-20.515,7.607-42.144,11.108-63.518,9.028
						c-0.791-0.076-1.372-0.781-1.294-1.572c0.046-0.491,0.349-0.906,0.747-1.128c18.652-10.215,36.206-19.417,52.324-29.927
						c2.056-1.233,4.048-2.556,5.962-3.989l5.879-3.999c3.672-2.998,7.661-5.486,11.165-8.596
						c7.336-5.771,14.182-12.026,20.608-18.657c12.996-13.14,24.192-28.03,34.028-44.441c9.856-16.448,18.357-34.25,26.023-53.938
						l0.02-0.054c0.127-0.32,0.488-0.479,0.808-0.354C1847.598,1581.343,1847.734,1581.511,1847.781,1581.702z"/>
				</g>
				<g>
					<path style="fill:#000072;" d="M1374.88,2049.949c19.744-7.522,37.605-15.894,54.126-25.627
						c16.482-9.719,31.453-20.808,44.688-33.706c6.677-6.377,12.981-13.176,18.806-20.471c3.135-3.481,5.652-7.451,8.677-11.101
						l4.043-5.852c1.445-1.902,2.783-3.884,4.033-5.93c10.625-16.042,19.954-33.53,30.303-52.104
						c0.386-0.698,1.262-0.952,1.96-0.566c0.43,0.237,0.693,0.676,0.737,1.133c1.924,21.389-1.733,42.991-9.49,63.45
						c-1.787,5.186-4.348,10.061-6.682,15.059c-2.668,4.827-5.298,9.712-8.469,14.282c-2.986,4.697-6.506,9.021-9.963,13.408
						c-3.716,4.158-7.407,8.372-11.514,12.175c-16.155,15.515-36.013,27.012-56.953,33.608c-20.935,6.433-43.215,8.682-64.282,3.455
						c-0.334-0.083-0.54-0.422-0.457-0.757c0.051-0.205,0.198-0.359,0.381-0.432L1374.88,2049.949z"/>
				</g>
				<g>
					<path style="fill:#000072;" d="M1735.295,1856.533c-10.732,4.048-20.454,7.839-29.214,12.271
						c-8.748,4.392-16.331,9.358-22.429,15.298c-6.023,6.018-10.781,12.896-14.924,21.321c-4.121,8.433-7.415,18.145-11.667,29.121
						c-0.208,0.54-0.813,0.811-1.353,0.605c-0.239-0.093-0.43-0.269-0.547-0.479c-5.681-10.471-7.576-22.549-5.84-34.851
						c1.614-12.302,8.174-24.622,17.832-33.369c9.697-8.774,21.804-13.813,33.647-15.5c11.89-1.592,23.816-0.518,34.58,4.426
						c0.31,0.142,0.444,0.508,0.303,0.818c-0.071,0.154-0.195,0.264-0.342,0.32L1735.295,1856.533z"/>
				</g>
				<g>
					<path style="fill:#000072;" d="M1551.572,2411.094c-6.792,0.005-13.56-0.21-20.361-0.649
						c-91.899-5.947-170.688-52.529-234.229-138.472c-28.442-20.767-246.65-187.568-266.958-430.039
						c-12.236-146.06,50.449-288.506,186.313-423.389c135.864-134.878,278.73-196.577,424.731-183.232
						c242.314,22.07,407.529,241.489,428.086,270.083c85.479,64.16,131.489,143.286,136.763,235.229
						c12.597,219.473-210.801,433.73-225.503,447.573C1966.923,2202.319,1763.764,2411.079,1551.572,2411.094z M1602.563,1273.56
						c-121.758,0-242.021,58.193-358.042,173.374c-127.08,126.162-185.84,257.935-174.639,391.66
						c19.727,235.518,250.557,401.011,252.886,402.656c1.782,1.255,3.345,2.793,4.629,4.556
						c56.519,77.524,125.928,119.487,206.299,124.717c203.169,13.188,415.996-208.062,418.12-210.293
						c0.269-0.283,0.552-0.566,0.835-0.835c2.256-2.109,225.068-213.237,213.33-416.577
						c-4.643-80.405-46.099-150.122-123.213-207.202c-1.753-1.294-3.281-2.871-4.521-4.658
						c-1.626-2.334-165.986-234.561-401.04-255.83C1625.654,1274.082,1614.091,1273.56,1602.563,1273.56z"/>
				</g>
			</g>
			<g>
				<g>
					
						<ellipse transform="matrix(0.7071 -0.7071 0.7071 0.7071 -907.2194 1897.8478)" style="fill:#00DBFF;" cx="1837.295" cy="2044.035" rx="152.547" ry="152.547"/>
				</g>
				<g style="opacity:0.3;">
					<path style="fill:#000072;" d="M1974.592,1977.556c-2.021,36.336-16.962,72.079-44.822,99.738
						c-59.79,59.356-156.377,59.005-215.733-0.784c-12.225-12.315-21.876-26.206-29.038-40.995
						c-2.317,41.643,12.34,84.066,44.038,115.995c59.357,59.79,155.944,60.14,215.733,0.784
						C1992.245,2105.162,2002.203,2034.573,1974.592,1977.556z"/>
				</g>
				<g style="opacity:0.7;">
					<path style="fill:#FFFFFF;" d="M1734.821,1975.776c59.789-59.356,156.377-59.005,215.733,0.784
						c19.632,19.775,32.69,43.585,39.268,68.732c0.323-39.274-14.412-78.658-44.268-108.732
						c-59.356-59.79-155.944-60.141-215.733-0.784c-40.014,39.725-53.364,96.116-40.053,147.001
						C1690.087,2043.972,1705.106,2005.276,1734.821,1975.776z"/>
				</g>
				<g>
					<path style="fill:#000072;" d="M1837.304,2210.776c-42.93,0-85.835-16.411-118.398-49.214
						c-64.805-65.278-64.419-171.108,0.854-235.913c65.283-64.814,171.118-64.419,235.923,0.85
						c64.805,65.283,64.424,171.118-0.854,235.923C1922.343,2194.668,1879.814,2210.776,1837.304,2210.776z M1837.289,1905.825
						c-35.244,0-70.488,13.35-97.417,40.083c-54.102,53.716-54.419,141.436-0.703,195.547s141.436,54.429,195.547,0.708
						c54.106-53.716,54.424-141.44,0.708-195.552C1908.442,1919.434,1872.866,1905.825,1837.289,1905.825z"/>
				</g>
			</g>
			<g>
				<path style="fill:#000072;" d="M1913.891,2250.806c-33.374,0-66.729-12.759-92.041-38.257l0,0
					c-24.404-24.585-37.778-57.197-37.651-91.841c0.127-34.639,13.735-67.158,38.315-91.563
					c24.468-24.287,56.899-37.646,91.357-37.646c0.161,0,0.322,0,0.483,0c34.639,0.122,67.158,13.735,91.563,38.32
					c24.404,24.58,37.778,57.192,37.651,91.831s-13.735,67.158-38.315,91.567
					C1979.999,2238.281,1946.938,2250.801,1913.891,2250.806z M1913.871,2014.336c-28.389,0-55.107,11.006-75.264,31.021
					c-20.254,20.103-31.465,46.895-31.572,75.435c-0.103,28.54,10.913,55.41,31.025,75.664l0,0
					c41.504,41.812,109.292,42.056,151.099,0.552c20.254-20.107,31.465-46.899,31.572-75.435
					c0.103-28.54-10.913-55.41-31.025-75.664c-20.103-20.259-46.895-31.47-75.435-31.572
					C1914.14,2014.336,1914.003,2014.336,1913.871,2014.336z"/>
			</g>
			<g>
				<g>
					
						<ellipse transform="matrix(0.7071 -0.7071 0.7071 0.7071 -907.2194 1897.8478)" style="fill:#FFE448;" cx="1837.295" cy="2044.035" rx="66.397" ry="66.397"/>
				</g>
				<g style="opacity:0.3;">
					<path style="fill:#000072;" d="M1888.587,2001.906c0.567,17.776-5.896,35.73-19.513,49.249
						c-26.024,25.835-68.064,25.682-93.899-0.341c-1.484-1.495-2.859-3.055-4.172-4.649c0.517,16.195,6.855,32.243,19.172,44.649
						c25.835,26.024,67.875,26.177,93.899,0.341C1908.603,2066.803,1910.125,2028.068,1888.587,2001.906z"/>
				</g>
				<g>
					<path style="fill:#000072;" d="M1837.304,2124.707c-0.103,0-0.2,0-0.303,0c-21.548-0.078-41.772-8.545-56.953-23.833
						l-0.005-0.005c-15.181-15.293-23.496-35.581-23.418-57.129s8.545-41.777,23.838-56.958
						c31.558-31.333,82.739-31.152,114.082,0.42c31.333,31.567,31.152,82.744-0.41,114.077
						C1878.911,2116.392,1858.74,2124.707,1837.304,2124.707z M1800.307,2080.762c9.81,9.878,22.876,15.347,36.797,15.396
						c0.068,0,0.132,0,0.195,0c13.853,0,26.885-5.371,36.719-15.132c20.396-20.249,20.513-53.315,0.264-73.716
						c-9.805-9.878-22.876-15.347-36.797-15.4c-0.063,0-0.132,0-0.195,0c-13.848,0-26.88,5.371-36.719,15.137
						c-9.878,9.805-15.347,22.876-15.4,36.797C1785.121,2057.769,1790.497,2070.879,1800.307,2080.762L1800.307,2080.762z"/>
				</g>
			</g>
			<g>
				<path style="fill:#000072;" d="M1277.478,1500.662c-23.896-13.101-46.301-27.026-68.508-42.297
					c-22.083-15.281-43.777-31.409-63.938-50.605c-10.022-9.68-19.729-20.073-28.293-32.617
					c-4.236-6.331-8.193-13.274-11.172-21.458c-2.876-8.098-4.91-18.086-2.81-28.723c1.836-10.681,8.203-20.134,14.961-26.335
					c6.97-6.262,13.774-10.332,22.039-13.748c8.164-3.252,17.458-5.029,26.589-4.329c9.109,0.627,17.893,3.259,25.386,7.295
					c15.166,8.047,25.967,20.249,33.809,33.528c7.747,13.376,12.764,28.364,13.101,44.778c0.066,8.181-1.111,16.824-4.724,25.115
					c-3.416,8.311-9.622,15.857-16.97,21.055c-7.393,5.222-15.625,8.02-23.455,9.441c-7.876,1.418-15.491,1.528-22.834,1.069
					c-14.612-1.184-28.276-4.5-41.304-8.821c-13.044-4.307-25.535-9.539-37.698-15.247c-12.112-5.803-24.089-11.714-35.271-19.004
					c-11.147-7.334-21.47-16.001-30.156-26.997c-0.144-0.181-0.112-0.444,0.068-0.586c0.095-0.076,0.222-0.103,0.334-0.085
					c13.867,2.327,26.152,6.924,38.21,11.758c11.982,4.934,23.423,10.823,35.344,15.457c11.843,4.771,23.833,9.001,35.881,12.239
					c12.026,3.281,24.185,5.383,35.752,5.664c11.453,0.166,22.334-2.168,28.76-7.283c6.311-4.949,9.138-12.92,8.54-22.891
					c-1.204-19.744-15.593-41.924-32.312-49.763c-8.352-3.918-16.187-4.092-23.967-0.586c-3.784,1.67-8.254,4.663-10.881,7.314
					c-2.632,2.795-3.738,4.963-3.977,7.302c-0.366,2.297,0.103,5.713,1.709,9.822c1.621,4.094,4.209,8.611,7.383,13.069
					c6.445,8.962,14.851,17.715,23.892,25.964c36.553,33.127,81.348,60.859,125.229,86.001l0.471,0.271
					c9.404,5.388,12.659,17.378,7.271,26.78C1298.613,1502.5,1286.829,1505.779,1277.478,1500.662z"/>
			</g>
		</g>
		<g>
			<g>
				<path style="fill:#FFFFFF;" d="M1045.357,2270c630-321.429,892.5,274.286,892.5,274.286
					c297.857-321.428,642.857-62.143,642.857-62.143c160.714-460.714,593.571-285.443,593.571-285.443
					s-49.135,317.586-550.639,420.443c0,0-19.83,14.652-28.647,17.143c-502.27,141.891-1026.881,27.563-1444.508-285.48
					L1045.357,2270z"/>
			</g>
			<g>
				<path style="fill:#000072;" d="M1937.856,2564.287c-1.099,0-2.202-0.093-3.306-0.273c-6.646-1.118-12.28-5.498-14.995-11.66
					c-1.069-2.417-110.132-243.662-348.008-328.14c-153.545-54.526-327.52-33.13-517.104,63.604
					c-9.829,5.005-21.885,1.113-26.904-8.726c-5.02-9.844-1.113-21.885,8.726-26.909
					c199.927-102.002,384.648-124.048,549.058-65.522c208.784,74.321,321.626,255.239,357.861,323.364
					c154.477-152.778,318.926-159.482,431.709-136.958c90.947,18.149,161.831,56.899,195.845,78.267
					c50.991-131.587,129.907-222.295,234.829-269.805c179.473-81.27,368.286-6.582,376.226-3.369
					c10.239,4.146,15.181,15.806,11.035,26.045c-4.146,10.234-15.835,15.176-26.045,11.035
					c-2.744-1.099-181.855-71.226-345.034,2.871c-100.718,45.728-175.459,136.777-222.153,270.62
					c-2.1,6.03-6.953,10.688-13.061,12.549c-6.104,1.86-12.735,0.684-17.837-3.149c-0.82-0.615-85.103-62.939-203.037-86.118
					c-156.021-30.649-295.024,18.418-413.135,145.869C1948.71,2562.002,1943.373,2564.287,1937.856,2564.287z"/>
			</g>
		</g>
	</g>
</g>
</svg>
