<?xml version="1.0" encoding="utf-8"?>
<!-- Generator: Adobe Illustrator 27.5.0, SVG Export Plug-In . SVG Version: 6.00 Build 0)  -->
<svg version="1.1" id="Layer_1" xmlns="http://www.w3.org/2000/svg" xmlns:xlink="http://www.w3.org/1999/xlink" x="0px" y="0px"
	 viewBox="0 0 4000 4000" style="enable-background:new 0 0 4000 4000;" xml:space="preserve">
<g>
	<g>
		<!-- <rect style="fill:#5EFCA1;" width="4000" height="4000"/> -->
	</g>
	<g>
		<g>
			<g>
				<g>
					<g>
						<g>
							<g>
								<path style="fill:#FFFFFF;" d="M2797.75,2910.251c154.81,93.605,192.929,184.93,131.39,210.432
									c-91.377,37.867-337.568,42.423-423.078,33.739C2506.061,3154.422,2624.379,2805.421,2797.75,2910.251"/>
							</g>
							<g>
								<path style="fill:#512717;" d="M2604.024,3175.424c-41.191,0-76.582-1.396-99.717-3.745
									c-5.254-0.537-9.98-3.433-12.837-7.876s-3.53-9.946-1.836-14.946c3.081-9.092,76.865-223.11,198.335-267.456
									c39.556-14.434,79.502-9.727,118.755,14.014c108.999,65.903,171.65,137.314,167.593,191.025
									c-1.729,22.832-15.415,40.684-38.535,50.264C2866.583,3165.38,2714.464,3175.424,2604.024,3175.424z M2530.411,3138.901
									c96.445,5.557,310.776-0.542,392.09-34.238c14.487-6.001,16.772-14.771,17.231-20.84
									c2.427-32.109-43.311-93.643-150.957-158.73l0,0c-30.22-18.271-59.282-21.909-88.882-11.123
									C2614.356,2945.17,2551.705,3085.151,2530.411,3138.901z"/>
							</g>
							<g>
								<path style="fill:#FFFFFF;" d="M2797.75,2910.251c154.81,93.605,192.929,184.93,131.39,210.432
									c-91.377,37.867-337.568,42.423-423.078,33.739C2506.061,3154.422,2624.379,2805.421,2797.75,2910.251"/>
							</g>
							<g>
								<path style="fill:#512717;" d="M2604.024,3175.424c-41.191,0-76.582-1.396-99.717-3.745
									c-5.254-0.537-9.98-3.433-12.837-7.876s-3.53-9.946-1.836-14.946c3.081-9.092,76.865-223.11,198.335-267.456
									c39.556-14.434,79.502-9.727,118.755,14.014c108.999,65.903,171.65,137.314,167.593,191.025
									c-1.729,22.832-15.415,40.684-38.535,50.264C2866.583,3165.38,2714.464,3175.424,2604.024,3175.424z M2530.411,3138.901
									c96.445,5.557,310.776-0.542,392.09-34.238c14.487-6.001,16.772-14.771,17.231-20.84
									c2.427-32.109-43.311-93.643-150.957-158.73l0,0c-30.22-18.271-59.282-21.909-88.882-11.123
									C2614.356,2945.17,2551.705,3085.151,2530.411,3138.901z"/>
							</g>
							<g>
								<path style="fill:#FFFFFF;" d="M2797.75,2910.251c154.81,93.605,192.929,184.93,131.39,210.432
									c-91.377,37.867-337.568,42.423-423.078,33.739C2506.061,3154.422,2624.379,2805.421,2797.75,2910.251"/>
							</g>
							<g style="opacity:0.3;">
								<g>
									<g>
										<path style="fill:#512717;" d="M2929.125,3120.67c-91.381,37.854-337.555,42.424-423.061,33.753
											c0,0,102.151-301.327,255.682-259.879c10.583,27.739,24.388,52.452,24.388,52.452
											c80.516,8.16,58.274,155.443,169.33,120.941C2961.156,3092.506,2952.065,3111.158,2929.125,3120.67"/>
									</g>
								</g>
							</g>
							<g>
								<path style="fill:#512717;" d="M2604.024,3175.424c-41.191,0-76.582-1.396-99.717-3.745
									c-5.254-0.537-9.98-3.433-12.837-7.876s-3.53-9.946-1.836-14.946c3.081-9.092,76.865-223.11,198.335-267.456
									c39.556-14.434,79.502-9.727,118.755,14.014c108.999,65.903,171.65,137.314,167.593,191.025
									c-1.729,22.832-15.415,40.684-38.535,50.264C2866.583,3165.38,2714.464,3175.424,2604.024,3175.424z M2530.411,3138.901
									c96.445,5.557,310.776-0.542,392.09-34.238c14.487-6.001,16.772-14.771,17.231-20.84
									c2.427-32.109-43.311-93.643-150.957-158.73l0,0c-30.22-18.271-59.282-21.909-88.882-11.123
									C2614.356,2945.17,2551.705,3085.151,2530.411,3138.901z"/>
							</g>
							<g>
								<path style="fill:#D89E77;" d="M2111.099,2103.203c-83.919,508.312-50.475,912.885,196.367,1018.821
									c129.447,55.556,476.653,81.062,530.111-20.971c34.052-64.999,1.483-230.098-191.676-283.846
									c-120.126-33.427-160.863-84.063-179.367-116.289c-36.749-63.993-108.142-304.305-168.48-577.468L2111.099,2103.203z"/>
							</g>
							<g style="opacity:0.3;">
								<g>
									<g>
										<path style="fill:#FFFFFF;" d="M2837.558,3101.041c-0.33,0.607-0.651,1.209-0.984,1.769
											c10.635-76.648-37.247-203.508-202.064-249.386c-120.1-33.427-160.854-84.063-179.358-116.28
											c-36.744-64.015-108.164-304.31-168.498-577.481l-181.461-19.675c1.912-12.213,3.872-24.479,5.923-36.783l186.959,20.234
											c60.329,273.163,131.71,513.462,168.454,577.477c18.504,32.218,59.259,82.849,179.358,116.28
											C2839.049,2870.952,2871.635,3036.047,2837.558,3101.041"/>
									</g>
								</g>
							</g>
							<g style="opacity:0.3;">
								<g>
									<g>
										<path style="fill:#512717;" d="M2837.558,3101.041c-53.432,102.055-400.638,76.553-530.111,20.98
											c-246.824-105.931-280.256-510.527-196.332-1018.817l11.424,1.262c-56.085,443.247-8.021,786.113,216.284,882.394
											c115.534,49.56,404.509,75.205,503.304,7.6C2853.877,3036.745,2850.564,3076.19,2837.558,3101.041"/>
									</g>
								</g>
							</g>
							<g>
								<path style="fill:#512717;" d="M2605.504,3187.988c-1.548,0-3.071-0.005-4.575-0.01
									c-111.255-0.576-231.934-20.679-300.303-50.015c-122.974-52.778-201.201-177.837-232.5-371.694
									c-27.583-170.84-18.882-394.878,25.864-665.894c1.563-9.443,10.474-15.869,19.937-14.282
									c9.448,1.558,15.845,10.483,14.282,19.937c-64.717,392.012-84.971,883.726,186.099,1000.059
									c135.2,58.018,463.428,71.797,507.91-13.081c12.524-23.916,15.532-70.308-5.986-120.034
									c-16.606-38.374-61.421-107.461-174.98-139.058c-94.78-26.377-156.846-67.056-189.756-124.36
									c-39.307-68.452-110.957-313.369-170.376-582.363c-2.065-9.351,3.843-18.608,13.193-20.674
									c9.375-2.061,18.608,3.848,20.674,13.193c57.808,261.699,129.424,507.852,166.587,572.568
									c10.347,18.018,41.826,72.837,168.975,108.218c127.441,35.464,178.452,114.653,197.515,158.696
									c22.92,52.964,24.834,111.807,4.878,149.907C2817.183,3177.343,2684.615,3187.988,2605.504,3187.988z"/>
							</g>
							<g>
								<path style="fill:#512717;" d="M2564.742,2929.882c-8.086,0-15.317-5.684-16.982-13.911
									c-22.998-113.979-119.805-174.995-199.873-174.995c-0.522,0-1.03,0.005-1.548,0.01
									c-84.922,0.835-146.909,63.608-165.825,167.915c-1.709,9.424-10.703,15.679-20.161,13.97
									c-9.424-1.709-15.679-10.737-13.97-20.161c22.119-121.968,96.743-195.391,199.614-196.406c0.684-0.01,1.377-0.01,2.061-0.01
									c110.054,0,210.298,86.821,233.706,202.813c1.895,9.39-4.185,18.54-13.569,20.435
									C2567.037,2929.77,2565.88,2929.882,2564.742,2929.882z"/>
							</g>
							<g>
								<path style="fill:#FFFFFF;" d="M2648.791,2964.077c-19.358-120.594-55.127-291.875-108.806-311.459
									c-71.827-26.208-181.578,134.992-172.209,275.972C2373.088,3008.577,2665.323,3067.069,2648.791,2964.077"/>
							</g>
							<g>
								<path style="fill:#FFFFFF;" d="M2648.787,2964.073c9.499,59.146-82.766,65.064-164.123,44.219
									c-60.329-15.465-114.624-45.632-116.883-79.683c-0.75-11.077-0.737-22.307-0.074-33.527
									c7.7-131.667,106.083-266.607,172.266-242.437C2593.664,2672.206,2629.45,2843.487,2648.787,2964.073"/>
							</g>
							<g style="opacity:0.3;">
								<g>
									<g>
										<path style="fill:#512717;" d="M2633.007,2911.538c-1.943,29.556-74.173,68.875-148.346,96.753
											c-60.325-15.465-114.619-45.632-116.883-79.679c-0.75-11.082-0.737-22.311-0.069-33.531
											c28.468-64.006,71.866-121.106,144.414-128.862C2587.006,2758.21,2637.745,2838.223,2633.007,2911.538"/>
									</g>
								</g>
							</g>
							<g>
								<path style="fill:#512717;" d="M2487.94,3013.515c-8.101,0.005-15.342-5.703-16.987-13.95
									c-38.74-194.185,17.441-346.909,19.854-353.315c3.374-8.96,13.364-13.506,22.339-10.122
									c8.96,3.369,13.491,13.364,10.127,22.324l0,0c-0.552,1.479-55.024,150.288-18.306,334.326
									c1.875,9.395-4.219,18.525-13.613,20.4C2490.206,3013.407,2489.063,3013.515,2487.94,3013.515z"/>
							</g>
							<g>
								<path style="fill:#512717;" d="M2562.432,3052.499c-0.83,0-1.675-0.059-2.524-0.186
									c-9.478-1.382-16.04-10.186-14.653-19.663c27.231-186.426-12.983-369.736-13.394-371.567
									c-2.09-9.346,3.789-18.618,13.135-20.708c9.307-2.109,18.613,3.77,20.713,13.125c1.729,7.715,42.056,191.191,13.862,384.16
									C2578.311,3046.288,2570.904,3052.499,2562.432,3052.499z"/>
							</g>
							<g>
								<path style="fill:#512717;" d="M2565.001,3036.42c-45.986,0-99.448-12.002-141.104-30.918
									c-46.138-20.957-71.528-47.153-73.428-75.767c-7.368-110.903,53.96-228.984,115.005-274.78
									c28.149-21.113,55.972-27.563,80.454-18.633c17.817,6.504,72.041,26.289,119.985,325.005
									c3.594,22.383-3.945,41.973-21.226,55.161C2626.48,3030.38,2597.618,3036.42,2565.001,3036.42z M2523.677,2667.133
									c-13.433,0-27.261,7.969-37.393,15.566c-54.033,40.542-107.598,148.555-101.206,244.741
									c0.942,14.204,21.313,32.017,53.164,46.479c66.064,30.005,156.167,37.3,185.405,14.99
									c7.222-5.508,9.619-12.114,8.018-22.085l0,0c-41.489-258.521-85.215-293.389-97.622-297.915
									C2530.665,2667.675,2527.183,2667.133,2523.677,2667.133z"/>
							</g>
							<g>
								<path style="fill:#D89E77;" d="M2650.646,3003.8c-4.466,58.105-25.619,111.008-50.882,147.349
									c-47.648,64.639-163.82,66.911-289.933,69.933c-126.113,2.979-341.912-15.408-468.723-162.939l98.309-29.122
									l433.033-128.389c29.777-65.948,78.426-86.612,151.29-82.719c55.617,2.979,100.763,35.729,115.079,80.481
									C2650.164,2933.824,2653.268,2969.731,2650.646,3003.8"/>
							</g>
							<g>
								<path style="fill:#512717;" d="M1854.25,3046.834c42.367,48.446,97.737,84.509,158.01,108.615
									c60.412,24.227,125.454,37.13,190.986,42.953c32.812,2.883,65.849,3.98,98.877,3.416
									c33.406-0.759,67.145-1.483,100.178-3.369c33.041-1.964,65.866-5.047,96.835-12.166
									c30.722-7.127,60.095-18.916,78.76-39.406c2.471-2.58,4.31-4.995,6.425-7.804l6.204-9.508l5.862-10.128
									c1.899-3.412,3.594-6.967,5.411-10.436c6.967-14.077,12.807-28.805,17.581-43.876c4.578-15.144,7.96-30.622,10.306-46.239
									c2.085-15.656,2.935-31.411,2.588-47.127c-0.16-3.924-0.503-7.83-0.741-11.745l-0.39-5.879l-0.78-5.818
									c-0.546-3.876-0.967-7.778-1.6-11.637l-2.332-11.498c-0.655-3.863-1.791-7.6-2.836-11.368
									c-1.075-3.655-2.012-7.769-3.182-11.06c-2.081-6.534-5.32-12.668-8.893-18.6c-14.953-23.642-41.639-39.796-70.379-45.593
									c-3.633-0.594-7.258-1.301-10.939-1.682c-3.72-0.295-7.245-0.776-11.329-0.824c-7.938-0.373-15.812-0.395-23.551-0.021
									c-15.478,0.746-30.44,3.239-44.002,8.246c-27.405,9.53-47.461,31.741-60.784,59.571c-1.834,3.442-3.182,6.876-4.604,10.301
									c-1.435,3.429-2.549,7.184-3.863,10.752c-1.062,3.763-2.237,7.466-3.23,11.277c-0.906,3.854-1.969,7.644-2.762,11.563
									c-3.395,15.569-5.602,31.611-7.098,47.708c-1.556,16.111-2.588,32.292-3.386,48.502
									c-0.685,16.232-0.889,32.413-0.828,48.892v0.204c0.018,4.869-3.915,8.832-8.784,8.849c-3.685,0.013-6.85-2.246-8.181-5.458
									c-6.802-16.51-10.327-33.965-12.309-51.372c-2.064-17.446-2.172-34.997-0.949-52.448
									c1.301-17.455,3.707-34.845,7.323-52.213c0.845-4.344,2.016-8.688,3.013-13.029c1.101-4.34,2.432-8.684,3.65-13.028
									c1.522-4.353,2.805-8.688,4.574-13.046c1.76-4.37,3.512-8.771,5.597-12.794c7.839-16.458,18.019-32.564,31.546-46.386
									c6.629-7.006,14.381-13.046,22.428-18.535c4.167-2.497,8.342-5.073,12.677-7.236c4.401-1.977,8.719-4.31,13.276-5.788
									c18.019-6.798,36.67-9.846,54.775-10.861c9.07-0.494,18.062-0.52,26.941-0.169c4.344,0.026,9.191,0.551,13.861,0.928
									c4.691,0.459,9.365,1.301,14.03,2.068c18.548,3.785,36.805,10.392,53.085,20.802c8.263,4.981,15.773,11.242,22.913,17.858
									c6.972,6.846,13.293,14.425,18.734,22.697c5.229,8.389,9.876,17.26,13.028,26.768c1.647,4.635,2.597,8.758,3.919,13.167
									c1.236,4.344,2.545,8.667,3.356,13.106l2.77,13.241c0.767,4.435,1.296,8.909,1.947,13.371l0.924,6.69l0.52,6.725
									c0.308,4.483,0.716,8.966,0.919,13.453c0.542,17.962-0.312,35.903-2.567,53.661c-2.51,17.711-6.23,35.218-11.294,52.356
									c-5.272,17.073-11.741,33.787-19.627,49.937c-2.081,3.989-4.037,8.034-6.235,11.97l-6.802,11.732l-7.622,11.624
									c-2.905,3.941-6.239,8.19-9.599,11.689c-13.479,14.728-30.046,25.493-46.911,33.501
									c-16.961,7.947-34.39,13.297-51.737,17.36c-34.749,7.917-69.278,10.982-103.421,13.002
									c-34.22,1.916-67.843,2.593-101.769,3.33c-34.321,0.546-68.697-0.624-102.979-3.677
									c-68.468-6.426-136.905-20.664-201.479-47.119c-16.146-6.542-31.957-14.047-47.375-22.302
									c-15.482-8.146-30.414-17.42-44.873-27.375c-28.897-20.004-55.188-43.889-78.11-70.653
									c-6.23-7.279-5.389-18.222,1.89-24.457c7.223-6.187,18.075-5.394,24.323,1.751L1854.25,3046.834z"/>
							</g>
							<g>
								<path style="fill:#FFFFFF;" d="M2570.78,3040.322c-2.146,41.635-29.556,73.206-61.223,70.527
									c-31.671-2.684-55.599-38.604-53.453-80.234c2.15-41.635,29.56-73.21,61.227-70.531
									C2548.998,2962.763,2572.931,2998.688,2570.78,3040.322"/>
							</g>
							<g>
								<path style="fill:#FFFFFF;" d="M2470.211,2940.049c-2.267,16.193-13.978,27.357-26.152,24.921
									c-12.174-2.432-20.199-17.538-17.932-33.735c2.263-16.202,13.978-27.358,26.148-24.921
									C2464.449,2908.746,2472.478,2923.852,2470.211,2940.049"/>
							</g>
							<g>
								<path style="fill:#FFFFFF;" d="M2540.368,2908.764c-2.267,16.194-13.982,27.353-26.152,24.921
									c-12.174-2.432-20.204-17.542-17.936-33.735c2.267-16.202,13.978-27.357,26.152-24.921
									C2534.606,2877.462,2542.635,2892.567,2540.368,2908.764"/>
							</g>
							<g>
								<path style="fill:#FFFFFF;" d="M2604.686,2950.325c-2.229,15.894-13.718,26.846-25.667,24.461
									c-11.953-2.389-19.831-17.217-17.603-33.115c2.224-15.894,13.718-26.846,25.662-24.461
									C2599.032,2919.599,2606.914,2934.427,2604.686,2950.325"/>
							</g>
							<g style="opacity:0.3;">
								<g>
									<g>
										<path style="fill:#512717;" d="M2650.646,3003.8c-4.466,58.105-25.619,111.008-50.882,147.349
											c-47.648,64.639-163.82,66.911-289.933,69.933c-126.113,2.979-341.912-15.408-468.723-162.939l98.309-29.122
											c283.317,197.49,434.481-67.084,434.481-67.084s21.231,168.459,151.819,142.402
											C2596.039,3090.325,2633.351,3037.825,2650.646,3003.8"/>
									</g>
								</g>
							</g>
							<g>
								<path style="fill:#D89E77;" d="M1240.081,2656.607c0,0-37.954,35.335-106.668,17.017
									c-55.63-14.836-140.009-92.569-159.67,16.358c-32.721,181.266,160.763,306.256,289.898,306.256
									S1240.081,2656.607,1240.081,2656.607"/>
							</g>
							<g style="opacity:0.3;">
								<g>
									<g>
										<path style="fill:#FFFFFF;" d="M1314.272,2944.664c-10.301-100.334-74.039-242.116-74.039-242.116
											s-37.997,35.344-106.677,17.017c-55.617-14.828-140.009-92.547-159.683,16.362c-1.071,6.113-1.908,12.079-2.519,18.049
											c-2.233-20.421-1.63-41.825,2.38-64.015c19.675-108.914,104.063-31.19,159.683-16.323
											c68.728,18.327,106.677-17.017,106.677-17.017S1326.906,2849.646,1314.272,2944.664"/>
									</g>
								</g>
							</g>
							<g style="opacity:0.3;">
								<g>
									<g>
										<path style="fill:#512717;" d="M1263.638,2996.229c-116.744,0-286.079-102.155-293.306-255.686
											c61.027,75.066,161.595,119.965,238.994,119.965c72.638,0,56.133-107.466,27.739-201.461
											c2.003-1.491,3.026-2.424,3.026-2.424S1392.786,2996.229,1263.638,2996.229"/>
									</g>
								</g>
							</g>
							<g>
								<path style="fill:#512717;" d="M1263.638,3013.583c-86.504,0-189.302-50.718-249.981-123.33
									c-50.405-60.317-70.107-130.635-56.982-203.354c6.094-33.774,18.652-55.098,38.379-65.195
									c31.011-15.854,68.794,2.231,102.134,18.184c14.868,7.114,28.906,13.838,40.693,16.978
									c57.783,15.41,89.194-11.899,90.508-13.066c4.126-3.691,9.814-5.269,15.229-4.092c5.405,1.147,10.01,4.746,12.275,9.79
									c11.748,26.128,113.306,257.549,62.495,336.104C1310.132,2998.364,1293.931,3013.583,1263.638,3013.583z M1022.017,2650.229
									c-4.199,0-7.969,0.718-11.162,2.354c-11.602,5.938-17.305,25.288-20.049,40.479
									c-14.199,78.682,19.063,138.569,49.468,174.951c54.556,65.288,146.406,110.884,223.364,110.884
									c15.757,0,21.968-6.479,25.625-12.129c28.638-44.268-17.036-190.503-56.924-284.536
									c-20.151,10.273-55.347,20.952-103.394,8.149c-14.907-3.975-31.084-11.719-46.733-19.204
									C1061.436,2661.23,1038.453,2650.229,1022.017,2650.229z"/>
							</g>
							<g>
								<path style="fill:#D89E77;" d="M2374.913,3064.908c-163.417,308.975-875.452,267.618-1069.356,114.828
									c-270.046-212.738-138.985-618.925,75.109-1025.432c31.19-59.211,64.154-118.426,97.863-177.03l820.386,213.908
									c-4.66,38.652-3.031,80.147,2.61,122.337c20.095,149.803,91.008,307.952,111.988,374.108
									C2464.056,2847.128,2429.97,2960.842,2374.913,3064.908"/>
							</g>
							<g style="opacity:0.3;">
								<g>
									<g>
										<path style="fill:#512717;" d="M2411.698,2983.316c-10.21,28.207-22.849,55.201-36.783,81.591
											c-163.421,308.975-875.452,267.618-1069.361,114.832c-74.177-58.465-118.144-131.524-138.379-215.214
											c6.109,5.268,12.356,10.445,18.838,15.526c143.559,113.128,529.153,58.387,851.992,16.185
											c60.386-7.895,91.134,71.108,155.495,84.643C2329.495,3109.486,2354.173,3043.997,2411.698,2983.316"/>
									</g>
								</g>
							</g>
							<g style="opacity:0.3;">
								<g>
									<g>
										<path style="fill:#512717;" d="M2301.526,2313.521c-90.96,23.031-190.644,35.76-295.127,35.76
											c-256.805,0-484.509-76.74-625.731-194.98c31.19-59.211,64.149-118.422,97.862-177.03l820.382,213.909
											C2294.25,2229.831,2295.885,2271.331,2301.526,2313.521"/>
									</g>
								</g>
							</g>
							<g>
								<path style="fill:#512717;" d="M1796.92,3313.754c-203.218,0-406.059-44.727-502.1-120.396
									c-76.851-60.557-126.313-139.902-147.007-235.835c-18.428-85.425-14.448-186.826,11.831-301.377
									c54.512-237.603,199.531-506.187,303.867-687.539c4.78-8.306,15.381-11.16,23.682-6.384s11.162,15.378,6.387,23.679
									c-103.232,179.429-246.66,444.927-300.127,678.003c-53.003,231.045-12.827,395.317,122.832,502.207
									c114.165,89.956,445.273,147.524,717.549,89.932c113.203-23.95,261.611-77.959,325.757-199.243
									c49.595-93.77,88.447-202.759,37.378-363.945c-5.01-15.82-13.203-37.695-22.695-63.027
									c-41.235-110.103-110.254-294.38-92.593-440.742c1.143-9.502,9.731-16.333,19.297-15.137
									c9.507,1.147,16.284,9.785,15.137,19.297c-16.65,137.959,50.513,317.275,90.645,424.414
									c9.653,25.781,17.993,48.047,23.276,64.717c55.068,173.823,10.791,295.015-39.78,390.64
									c-55.742,105.396-176.509,180.415-349.243,216.958C1964.561,3306.147,1880.704,3313.754,1796.92,3313.754z"/>
							</g>
							<g>
								<path style="fill:#D89E77;" d="M2874.791,1827.627c-73.219,391.359-495.287,504.032-973.241,414.615
									s-830.796-347.067-757.576-738.422c70.176-375.088,393.835-757.924,949.257-690.137
									c72.69-21.448,173.614-63.265,240.459-140.629c20.924-24.184,60.343-12.747,64.73,19.012
									c5.81,42.203,8.159,96.636-31.069,158.998c80.117-21.916,160.685-48.845,188.745-65.914
									c30.05-18.266,67.379,8.246,59.736,42.549c-7.427,33.172-32.729,101.712-57.789,158.456
									C2844.919,1193.723,2928.639,1539.793,2874.791,1827.627"/>
							</g>
							<g style="opacity:0.3;">
								<g>
									<g>
										<path style="fill:#512717;" d="M1901.544,2242.263c-477.949-89.438-830.8-347.089-757.564-738.435
											c6.828-36.419,15.981-72.864,27.583-108.957c-73.059,391.255,279.761,648.849,757.641,738.209
											c439.87,82.281,832.495-6.599,949.27-326.443c-1.14,7.011-2.341,14.043-3.659,20.984
											C2801.583,2218.968,2379.506,2331.654,1901.544,2242.263"/>
									</g>
								</g>
							</g>
							<g style="opacity:0.3;">
								<g>
									<g>
										<path style="fill:#FFFFFF;" d="M2809.321,2002.265c15.33-35.361,27.015-73.757,34.784-115.279
											c50.644-270.7-38.049-612.638-287.436-825.047c-28.35-24.145-38.01-63.755-23.377-97.993
											c16.514-38.634,31.021-75.148,35.938-97.095c7.644-34.303-13.774-40.607-43.815-22.341
											c-21.938,13.345-75.964,32.716-136.779,51.008c-18.643,5.606-36.172-12.287-29.634-30.627
											c15.487-43.469,13.076-81.89,8.732-113.466c-4.383-31.754-20.048-42.419-51.615-5.671
											c-44.423,51.706-110.02,81.513-170.354,101.999c-48.242,16.376-99.337,22.211-150.193,19.211
											c-378.469-22.367-641.105,170.236-780.338,416.844c136.05-288.944,432.448-524.496,877.997-470.123
											c72.69-21.452,173.614-63.265,240.46-140.629c20.923-24.184,60.343-12.747,64.73,19.012
											c5.805,42.203,8.156,96.636-31.069,158.999c80.117-21.917,160.685-48.845,188.745-65.918
											c30.046-18.261,67.379,8.251,59.735,42.554c-7.431,33.167-32.733,101.713-57.789,158.457
											c286.876,207.566,370.596,553.635,316.748,841.47C2862.44,1893.646,2840.164,1951.747,2809.321,2002.265"/>
									</g>
								</g>
							</g>
							<g>
								<path style="fill:#FFEFE6;" d="M2713.778,1742.711c-21.335,114.043-78.86,230.332-200.169,305.805
									c-123.976,77.234-314.589,111.88-601.396,58.223l-0.043-0.009c-283.811-53.093-448.528-152.772-536.922-267.995
									c-88.363-115.166-100.438-245.918-78.873-361.192c4.383-23.425,10.618-46.079,18.543-67.735
									c69.803-191.702,269.924-310.366,477.009-271.624c113.262,21.188,207.644,85.55,269.096,172.885
									c88.914-59.207,200.139-85.103,313.401-63.911c204.535,38.261,347.167,217.134,346.634,418.01l-0.009,0.043
									C2721.031,1690.775,2718.647,1716.698,2713.778,1742.711"/>
							</g>
							<g>
								<path style="fill:#512717;" d="M2105.972,1655.576c-6.646,35.535-61.96,69.387-120.334,58.461
									c-58.379-10.917-97.711-62.476-91.064-98.005c6.646-35.534,56.761-41.591,115.136-30.666
									C2068.088,1596.283,2112.618,1620.046,2105.972,1655.576"/>
							</g>
							<g style="opacity:0.5;">
								<g>
									<g>
										<path style="fill:#FFFAFB;" d="M2049.957,1624.8c-1.552,8.307-22.688,14.689-46.46,10.241
											c-23.763-4.444-41.167-18.036-39.614-26.343c1.561-8.311,21.478-8.194,45.246-3.746
											C2032.896,1609.4,2051.509,1616.488,2049.957,1624.8"/>
									</g>
								</g>
							</g>
							<g>
								<path style="fill:#512717;" d="M1694.431,2199.39c-90.904-21.084-178.673-56.887-259.545-105.068
									c-40.434-24.088-79.28-51.16-115.465-81.717c-36.141-30.557-69.811-64.526-98.574-102.658
									c-28.775-38.023-53.549-79.601-70.939-124.444c-17.589-44.678-29.061-91.988-32.625-139.905
									c-3.859-47.886-0.949-96.102,7.47-143.057c8.463-46.521,20.494-92.3,36.094-136.874
									c31.208-89.109,75.855-173.57,132.729-249.113c56.839-75.487,126.074-142.042,205.142-194.364
									c79.168-52.122,167.756-89.647,259.814-111.156c46.092-10.548,92.929-17.308,139.952-20.832
									c47.08-3.013,94.212-2.202,141.114,0.863c9.556,0.624,16.796,8.879,16.176,18.435c-0.624,9.491-8.766,16.696-18.235,16.185
									l-0.39-0.022c-45.402-2.467-90.86-2.684-136.085,0.611c-45.164,3.685-90.011,10.44-134.008,20.798
									c-87.934,21.032-171.784,57.581-247.071,107.223c-75.209,49.855-141.175,113.327-195.465,185.537
									c-54.32,72.248-97.074,153.237-126.92,238.669c-14.906,42.714-26.85,86.534-35.101,130.956
									c-8.112,44.01-10.991,88.823-7.648,133.137c6.287,88.793,40.715,174.307,94.923,245.419
									c26.759,35.873,58.417,68.168,92.699,97.447c34.325,29.278,71.45,55.456,110.332,78.881
									c78.001,46.725,161.869,83.044,246.911,118.526l0.035,0.017c4.435,1.851,6.525,6.946,4.678,11.376
									C1702.768,2198.241,1698.493,2200.335,1694.431,2199.39"/>
							</g>
							<g>
								<path style="fill:#512717;" d="M2565.661,970.234c32.356,23.057,63.152,48.381,91.879,75.929
									c28.68,27.587,55.318,57.334,79.575,88.918c48.511,63.174,87.518,133.635,115.543,208.133
									c55.99,149.183,70.236,312.699,44.448,469.478c-6.369,39.241-16.363,78.708-30.861,116.315
									c-14.45,37.676-33.354,73.791-56.497,107.002c-23.095,33.245-50.405,63.555-81.006,89.876
									c-30.522,26.417-64.023,49.122-99.254,68.233c-70.596,38.27-147.583,62.22-225.446,76.423
									c-77.871,14.394-157.559,18.856-235.708,8.979c-4.778-0.603-8.16-4.964-7.561-9.746c0.524-4.136,3.867-7.228,7.856-7.592
									l0.052-0.004c77.364-7.084,153.765-12.2,228.97-26.07c74.94-14.116,148.242-37.554,214.381-73.939
									c65.996-36.232,124.639-85.849,166.668-147.696c21.149-30.748,38.391-64.141,51.584-99.159
									c3.551-8.658,6.295-17.624,9.161-26.547c3.087-8.849,5.276-17.993,7.709-27.054c2.61-9.014,4.322-18.279,6.286-27.466
									c2.125-9.113,3.612-18.552,5.224-27.921c24.856-150.084,11.272-307.132-42.094-449.564
									c-26.629-71.173-63.026-138.708-108.923-199.241c-45.823-60.568-100.811-114.095-162.216-159.116l-0.095-0.065
									c-7.722-5.662-9.395-16.514-3.729-24.24C2547.226,966.445,2557.952,964.741,2565.661,970.234"/>
							</g>
							<g>
								<path style="fill:#AA6B3F;" d="M1858.332,1588.755c-40.871,120.252-145.801,130.696-285.515,158.617
									c-87.665,17.503-152.881,55.534-197.572,91.364c-88.363-115.166-100.438-245.918-78.868-361.192
									c4.383-23.43,10.618-46.079,18.539-67.735c91.446-65.242,226.686-119.016,396.887-65.476
									C1836.368,1383.544,1887.666,1502.456,1858.332,1588.755"/>
							</g>
							<g>
								<path style="fill:#AA6B3F;" d="M2713.778,1742.711c-21.335,114.043-78.86,230.332-200.169,305.805
									c-28.94-48.801-75.539-106.178-149.161-153.041c-120.173-76.544-214.229-124.214-208.866-251.112
									c3.854-91.065,94.667-183.391,224.982-174.919c172.504,11.22,278.014,104.544,340.494,195.725l-0.009,0.043
									C2721.031,1690.775,2718.647,1716.698,2713.778,1742.711"/>
							</g>
							<g>
								<path style="fill:#512717;" d="M2339.179,866.451c7.834-9.607,14.832-18.877,20.633-28.814
									c5.589-10.067,10.167-20.455,13.922-31.294c3.586-10.926,6.269-22.294,7.934-33.974c1.661-11.689,2.072-23.711,1.942-35.755
									c-0.117-12.062-1.262-24.227-2.844-36.35l-0.616-4.548l-0.152-1.136l-0.178-0.611l-0.304-1.231
									c-0.104-0.407-0.143-0.845-0.264-1.24l-0.49-1.088c-0.29-0.742-0.503-1.526-0.988-2.133
									c-1.453-2.71-3.594-4.956-6.308-6.599c-5.502-3.352-12.794-3.395-17.949-0.377l-1.028,0.503l-0.91,0.754
									c-0.603,0.499-1.322,0.828-1.83,1.535l-1.986,2.016l-3.395,3.794l-6.802,7.587c-2.298,2.497-4.739,4.864-7.102,7.301
									c-38.188,38.773-85.159,67.934-134.901,87.865c-24.917,9.989-50.648,17.633-76.74,23.282
									c-13.063,2.766-26.23,5.012-39.488,6.737c-6.638,0.85-13.293,1.53-20.004,2.042c-3.351,0.265-6.716,0.486-10.119,0.651
									c-3.477,0.173-6.62,0.299-10.596,0.329c-9.577,0.069-17.399-7.635-17.468-17.212c-0.065-9.317,7.223-16.969,16.436-17.446
									l0.564-0.022c2.454-0.126,5.732-0.355,8.667-0.633c3.022-0.264,6.07-0.594,9.114-0.954
									c6.096-0.685,12.205-1.63,18.313-2.554c12.205-1.938,24.357-4.371,36.389-7.267c24.127-5.593,47.665-13.358,70.479-22.593
									c22.74-9.404,44.643-20.663,65.151-33.913c10.357-6.49,20.104-13.818,29.729-21.279c9.378-7.743,18.586-15.708,27.132-24.34
									c2.137-2.155,4.357-4.236,6.434-6.447l6.161-6.712l3.083-3.351l2.25-2.328l2.545-2.519c1.626-1.726,3.655-3.122,5.61-4.565
									l2.974-2.111l3.234-1.756c17.425-9.465,39.298-8.485,55.712,1.812c8.264,5.09,15.248,12.534,19.744,21.214
									c1.27,2.116,2.094,4.387,2.922,6.668l1.21,3.421c0.325,1.145,0.538,2.307,0.798,3.464l0.702,3.482l0.325,1.747l0.139,1.262
									l0.564,5.025c1.444,13.414,2.397,26.95,2.241,40.624c-0.187,27.232-3.703,55.287-14.151,81.895
									c-5.51,13.171-13.037,25.654-22.424,36.527c-9.603,10.739-21.201,19.471-33.744,25.584
									c-4.37,2.133-9.638,0.316-11.767-4.058c-1.552-3.178-1.01-6.837,1.084-9.412L2339.179,866.451z"/>
							</g>
							<g>
								<path style="fill:#512717;" d="M2541.671,973.921c4.929-7.101,9.3-14.845,13.544-22.779
									c4.101-8.056,7.899-16.389,11.368-24.956c6.833-17.182,12.851-34.984,18.062-53.128c2.575-9.083,5.125-18.205,7.427-27.41
									l3.369-13.848l1.604-6.954c0.355-1.366,0.338-1.86,0.433-2.536c0.087-0.659,0.195-1.314,0.33-1.973
									c0.472-5.164-1.071-9.907-4.075-14.134c-3.235-4.015-8.064-7.193-13.146-8.147c-5.116-0.863-10.149-0.303-15.3,2.623
									c-8.584,4.99-17.212,9.915-25.992,14.606c-17.503,9.473-35.582,18.019-54.19,25.532
									c-18.66,7.383-37.906,13.691-57.906,17.689c-19.944,3.963-40.741,5.862-61.335,3.204c-4.765-0.616-8.133-4.982-7.518-9.751
									c0.533-4.11,3.85-7.18,7.808-7.553l0.316-0.03c36.623-3.473,71.763-17.13,105.641-33.297
									c16.987-8.077,33.601-17.126,50.05-26.542c8.22-4.717,16.328-9.673,24.396-14.693c11.428-7.28,26.646-10.601,40.676-8.082
									c14.06,2.471,26.755,10.21,35.764,21.201c8.862,11.112,13.709,26.052,12.525,40.316l-0.72,5.233
									c-0.256,1.73-0.559,3.651-0.828,4.635l-1.652,7.254l-3.49,14.476c-2.423,9.638-4.96,19.272-7.826,28.836
									c-5.74,19.128-12.231,38.188-20.468,56.831c-4.102,9.326-8.628,18.565-13.626,27.674c-5.09,9.1-10.882,17.954-17.49,26.503
									c-5.853,7.583-16.744,8.979-24.323,3.126c-7.336-5.667-8.884-16.046-3.677-23.581L2541.671,973.921z"/>
							</g>
							<g>
								<path style="fill:#512717;" d="M2518.241,1688.415c-2.805,2.35-4.8,3.898-7.176,5.697c-2.315,1.704-4.656,3.282-7.01,4.839
									c-4.7,3.148-9.616,5.814-14.563,8.472c-9.95,5.172-20.39,9.395-31.168,12.79c-21.578,6.672-44.644,9.712-67.83,8.697
									c-11.593-0.581-23.16-2.285-34.511-4.908c-11.312-2.835-22.363-6.646-32.872-11.532
									c-20.932-9.902-39.697-23.785-53.965-41.049c-6.668-8.073-5.528-20.017,2.541-26.685c5.519-4.566,12.859-5.472,19.076-3.009
									l0.854,0.351c17.889,7.136,34.52,13.505,51.312,18.04c8.433,2.129,16.787,4.032,25.229,5.406
									c8.446,1.331,16.935,2.267,25.506,2.848c17.165,0.906,34.663,0.221,52.469-2.033c8.914-1.058,17.875-2.571,26.911-4.262
									c4.561-0.75,9.018-1.851,13.557-2.766c2.276-0.46,4.513-1.002,6.738-1.518c2.168-0.399,4.665-1.157,6.256-1.288l5.337-0.451
									c10.102-0.841,18.977,6.664,19.813,16.761C2525.26,1678.955,2522.602,1684.713,2518.241,1688.415"/>
							</g>
							<g>
								<path style="fill:#512717;" d="M1545.227,1477.957c1.435,0.698,3.495,2.311,5.367,3.464c1.89,1.283,3.776,2.597,5.736,3.85
									c3.898,2.497,7.661,5.134,11.637,7.479c7.813,4.847,15.625,9.495,23.555,13.705c15.782,8.537,31.854,15.504,48.181,20.867
									c8.207,2.554,16.454,4.752,24.817,6.56c8.363,1.773,16.839,3.017,25.472,4.08c17.295,1.843,35.101,1.921,54.364,1.726
									l0.897-0.009c10.466-0.1,19.037,8.298,19.142,18.764c0.069,7.167-3.863,13.449-9.699,16.731
									c-19.541,10.943-42.055,17.095-65.155,18.764c-11.563,0.759-23.243,0.312-34.815-1.131
									c-11.533-1.656-22.935-4.249-33.952-7.9c-21.986-7.436-42.393-18.604-60.1-32.625c-8.823-7.067-17.03-14.78-24.435-23.199
									c-3.651-4.266-7.271-8.528-10.514-13.163c-1.634-2.298-3.243-4.622-4.791-7.041c-1.561-2.536-2.861-4.7-4.626-7.904
									c-4.895-8.875-1.669-20.039,7.206-24.934c5.398-2.979,11.637-2.948,16.8-0.481L1545.227,1477.957z"/>
							</g>
							<g>
								<path style="fill:#512717;" d="M2020.234,1793.425c-5.12,27.778-29.135,46.642-53.631,42.129
									c-24.5-4.518-40.217-30.696-35.096-58.478c5.12-27.782,29.135-46.642,53.631-42.124
									C2009.642,1739.465,2025.354,1765.643,2020.234,1793.425"/>
							</g>
							<g>
								<path style="fill:#D89E77;" d="M1999.162,2978.93c-47.041-233.067-374.472-298.4-427.293-7.167"/>
							</g>
							<g style="opacity:0.3;">
								<g>
									<g>
										<path style="fill:#FFFFFF;" d="M1999.17,2978.934l-9.838-0.187c-79.861-179.922-332.048-224.539-415.365-17.672
											C1632.806,2682.177,1952.736,2748.754,1999.17,2978.934"/>
									</g>
								</g>
							</g>
							<g>
								<path style="fill:#512717;" d="M1999.141,2996.274c-8.086,0-15.318-5.684-16.978-13.911
									c-24.614-121.943-128.223-187.217-213.921-187.217c-0.557,0-1.104,0-1.66,0.01
									c-90.991,0.898-157.402,68.076-177.646,179.702c-1.709,9.424-10.737,15.688-20.161,13.97
									c-9.424-1.709-15.679-10.737-13.97-20.161c23.447-129.287,102.49-207.119,211.435-208.193
									c0.728-0.01,1.465-0.015,2.188-0.015c116.651,0,222.91,92.056,247.734,215.039c1.894,9.39-4.185,18.535-13.569,20.43
									C2001.436,2996.161,2000.279,2996.274,1999.141,2996.274z"/>
							</g>
							<g>
								<path style="fill:#FFFFFF;" d="M2088.63,3033.802c-20.611-128.398-58.695-310.765-115.847-331.611
									c-76.48-27.908-193.332,143.724-183.36,293.831C1795.081,3081.185,2106.232,3143.461,2088.63,3033.802"/>
							</g>
							<g>
								<path style="fill:#FFFFFF;" d="M2088.625,3033.798c10.115,62.97-88.121,69.278-174.754,47.08
									c-64.227-16.462-122.038-48.589-124.44-84.838c-0.802-11.797-0.785-23.755-0.078-35.699
									c8.194-140.186,112.946-283.863,183.412-258.127C2029.935,2723.041,2068.036,2905.408,2088.625,3033.798"/>
							</g>
							<g style="opacity:0.3;">
								<g>
									<g>
										<path style="fill:#512717;" d="M2071.821,2977.867c-2.068,31.468-78.973,73.328-157.949,103.013
											c-64.227-16.467-122.038-48.589-124.44-84.843c-0.802-11.793-0.785-23.75-0.078-35.699
											c30.31-68.142,76.518-128.936,153.761-137.199C2022.841,2814.611,2076.863,2899.805,2071.821,2977.867"/>
									</g>
								</g>
							</g>
							<g>
								<path style="fill:#512717;" d="M1917.359,3085.322c-8.101,0-15.342-5.703-16.987-13.95
									c-41.177-206.445,18.535-368.755,21.099-375.566c3.374-8.96,13.364-13.496,22.339-10.122
									c8.96,3.369,13.491,13.364,10.127,22.324l0,0c-0.591,1.582-58.701,160.288-19.551,356.577
									c1.875,9.395-4.224,18.525-13.613,20.4C1919.625,3085.214,1918.487,3085.322,1917.359,3085.322z"/>
							</g>
							<g>
								<path style="fill:#512717;" d="M1996.676,3126.825c-0.83,0-1.675-0.059-2.524-0.186
									c-9.478-1.382-16.04-10.186-14.653-19.663c29.028-198.711-13.833-394.072-14.272-396.025
									c-2.09-9.346,3.789-18.618,13.135-20.708c9.297-2.1,18.613,3.779,20.713,13.125c1.841,8.208,44.731,203.364,14.741,408.618
									C2012.554,3120.615,2005.147,3126.825,1996.676,3126.825z"/>
							</g>
							<g>
								<path style="fill:#512717;" d="M1999.439,3109.745c-48.774,0.005-105.552-12.759-149.8-32.861
									c-48.721-22.129-75.527-49.692-77.52-79.717c-7.822-117.71,57.236-243.008,121.997-291.592
									c29.653-22.246,58.916-29.067,84.614-19.673c18.809,6.86,76.074,27.803,127.021,345.151l0,0
									c3.755,23.403-4.116,43.882-22.173,57.656C2064.371,3103.373,2033.902,3109.745,1999.439,3109.745z M1955.426,2716.523
									c-14.614,0-29.561,8.594-40.493,16.802c-57.768,43.335-115.034,158.774-108.203,261.543
									c1.03,15.542,22.969,34.868,57.251,50.439c70.679,32.095,167.168,39.785,198.56,15.83
									c7.954-6.069,10.723-13.652,8.965-24.585l0,0c-44.277-275.859-91.304-313.193-104.663-318.066
									C1963.111,2717.123,1959.278,2716.523,1955.426,2716.523z"/>
							</g>
							<g>
								<path style="fill:#D89E77;" d="M2090.603,3076.095c-4.76,61.873-27.275,118.192-54.177,156.891
									c-50.726,68.814-174.42,71.238-308.693,74.455c-134.277,3.174-364.036-16.41-499.063-173.484l104.674-31.008
									l461.062-136.701c31.702-70.21,83.499-92.218,161.079-88.068c59.211,3.169,107.284,38.045,122.532,85.693
									C2090.087,3001.588,2093.399,3039.823,2090.603,3076.095"/>
							</g>
							<g>
								<path style="fill:#512717;" d="M1241.812,3122.647c45.22,51.762,104.327,90.288,168.637,116.024
									c64.461,25.866,133.822,39.649,203.69,45.866c34.979,3.078,70.197,4.244,105.402,3.65
									c35.586-0.806,71.511-1.578,106.72-3.59c35.218-2.094,70.215-5.376,103.313-12.981c32.82-7.617,64.34-20.217,84.5-42.324
									c2.658-2.779,4.67-5.406,6.946-8.437l6.655-10.193l6.265-10.834c2.034-3.651,3.85-7.449,5.788-11.16
									c7.453-15.057,13.683-30.8,18.786-46.915c4.891-16.185,8.506-32.733,11.004-49.426c2.228-16.74,3.135-33.588,2.757-50.392
									c-0.174-4.192-0.542-8.372-0.793-12.564l-0.421-6.278l-0.841-6.226c-0.585-4.145-1.032-8.316-1.708-12.448l-2.501-12.292
									c-0.702-4.14-1.912-8.138-3.035-12.161c-1.153-3.919-2.15-8.294-3.416-11.849c-2.242-7.054-5.74-13.674-9.599-20.069
									c-16.137-25.48-44.851-42.836-75.721-49.049c-3.902-0.637-7.795-1.396-11.741-1.803c-3.993-0.321-7.787-0.833-12.148-0.88
									c-8.485-0.399-16.9-0.421-25.185-0.022c-16.562,0.806-32.617,3.477-47.197,8.871
									c-29.495,10.249-51.108,34.225-65.341,64.019c-1.955,3.681-3.408,7.371-4.929,11.047c-1.539,3.677-2.731,7.696-4.136,11.524
									c-1.136,4.023-2.393,7.982-3.455,12.062c-0.967,4.123-2.103,8.173-2.944,12.352c-3.625,16.64-5.983,33.766-7.57,50.952
									c-1.643,17.191-2.705,34.468-3.46,51.767c-0.646,17.321-0.742,34.589-0.46,52.135v0.187c0.078,4.86-3.798,8.862-8.654,8.944
									c-3.75,0.056-6.993-2.255-8.316-5.537c-7.028-17.576-10.657-36.12-12.673-54.615c-2.111-18.535-2.185-37.178-0.876-55.717
									c1.396-18.539,3.95-37.008,7.791-55.448c0.898-4.609,2.138-9.213,3.204-13.817c1.166-4.609,2.575-9.213,3.867-13.817
									c1.617-4.613,2.983-9.205,4.847-13.822c1.864-4.622,3.72-9.27,5.927-13.536c8.307-17.442,19.089-34.477,33.38-49.074
									c7.006-7.405,15.196-13.774,23.689-19.575c4.401-2.632,8.81-5.354,13.384-7.639c4.656-2.085,9.213-4.548,14.03-6.109
									c19.037-7.184,38.777-10.41,57.971-11.476c9.616-0.524,19.15-0.555,28.576-0.178c4.613,0.026,9.733,0.585,14.672,0.989
									c4.969,0.49,9.911,1.374,14.84,2.185c19.614,4.01,38.908,10.995,56.107,21.999c8.732,5.263,16.662,11.875,24.201,18.864
									c7.357,7.232,14.026,15.231,19.766,23.958c5.515,8.853,10.423,18.209,13.735,28.233c1.747,4.891,2.753,9.282,4.154,13.952
									c1.313,4.604,2.697,9.191,3.555,13.9l2.935,14.039c0.815,4.708,1.374,9.452,2.064,14.177l0.984,7.102l0.546,7.128
									c0.321,4.756,0.75,9.517,0.971,14.268c0.572,19.055-0.338,38.084-2.736,56.926c-2.667,18.786-6.616,37.364-11.992,55.547
									c-5.593,18.11-12.46,35.842-20.833,52.968c-2.207,4.236-4.279,8.524-6.603,12.703l-7.223,12.43l-8.069,12.313
									c-3.061,4.158-6.568,8.624-10.11,12.322c-7.119,7.674-15.023,14.537-23.421,20.36c-8.407,5.814-17.195,10.752-26.143,15.023
									c-17.945,8.415-36.419,14.091-54.828,18.396c-36.878,8.406-73.588,11.671-109.902,13.822
									c-36.393,2.033-72.196,2.753-108.303,3.538c-36.497,0.585-73.054-0.655-109.512-3.902
									c-72.799-6.82-145.554-21.938-214.177-50.032c-17.156-6.95-33.948-14.914-50.336-23.681
									c-16.454-8.649-32.313-18.5-47.674-29.066c-15.426-10.488-29.894-22.398-43.88-34.789
									c-13.952-12.46-26.798-26.113-39.094-40.204c-6.3-7.219-5.549-18.175,1.665-24.47c7.214-6.3,18.175-5.55,24.47,1.665
									L1241.812,3122.647z"/>
							</g>
							<g>
								<path style="fill:#FFFFFF;" d="M2005.572,3114.979c-2.285,44.331-31.476,77.949-65.19,75.092
									c-33.714-2.853-59.194-41.101-56.909-85.428c2.285-44.323,31.472-77.945,65.186-75.092
									C1982.377,3032.409,2007.857,3070.653,2005.572,3114.979"/>
							</g>
							<g>
								<path style="fill:#FFFFFF;" d="M1898.491,3008.22c-2.419,17.247-14.884,29.126-27.843,26.534
									c-12.963-2.593-21.513-18.673-19.094-35.92c2.411-17.247,14.875-29.126,27.843-26.534
									C1892.356,2974.892,1900.91,2990.973,1898.491,3008.22"/>
							</g>
							<g>
								<path style="fill:#FFFFFF;" d="M1973.186,2974.907c-2.419,17.251-14.884,29.126-27.843,26.534
									c-12.963-2.593-21.513-18.673-19.098-35.916c2.415-17.247,14.88-29.126,27.847-26.534
									C1967.051,2941.58,1975.601,2957.66,1973.186,2974.907"/>
							</g>
							<g>
								<path style="fill:#FFFFFF;" d="M2041.667,3019.161c-2.372,16.926-14.607,28.589-27.327,26.044
									c-12.721-2.545-21.114-18.331-18.743-35.257s14.607-28.584,27.332-26.044
									C2035.649,2986.449,2044.038,3002.235,2041.667,3019.161"/>
							</g>
							<g style="opacity:0.3;">
								<g>
									<g>
										<path style="fill:#512717;" d="M2090.603,3076.095c-4.76,61.873-27.275,118.192-54.177,156.891
											c-50.726,68.814-174.42,71.238-308.693,74.455c-134.277,3.174-364.036-16.41-499.063-173.484l104.674-31.008
											c301.652,210.271,462.597-71.424,462.597-71.424s22.614,179.358,161.643,151.615
											C2032.463,3168.226,2072.185,3112.319,2090.603,3076.095"/>
									</g>
								</g>
							</g>
							<g>
								<path style="fill:#D89E77;" d="M1367.612,3307.722c-133.67,44.431-383.43,54.225-458.543-38.747
									c-22.753-28.159-19.675-75.109,10.674-126.534c31.147-52.825,90.965-110.358,180.993-157.308
									c94.646-49.374,141.179-128.073,154.975-162.575c38.513-96.276,59.961-198.851,88.684-338.53
									c8.064-39.354,16.735-81.595,26.525-127.475l288.086,24.154c-0.607,44.154-0.837,101.964,1.075,184.817
									C1670.755,3027.141,1571.865,3239.792,1367.612,3307.722"/>
							</g>
							<g style="opacity:0.3;">
								<g>
									<g>
										<path style="fill:#FFFFFF;" d="M1197.39,2964.526c-3.763,3.629-7.761,7.266-11.932,10.895
											c-50.817,44.193-62.047,118.721-25.636,175.378c15.348,23.88,21.608,41.843,21.994,43.022
											c-63.594-51.893-181.929-55.808-262.072-51.381c31.147-52.82,90.96-110.358,180.993-157.308
											c94.646-49.374,141.179-128.073,154.975-162.575c38.513-96.276,59.957-198.847,88.68-338.53
											C1360.988,2701.153,1274.688,2889.928,1197.39,2964.526"/>
									</g>
								</g>
							</g>
							<g style="opacity:0.3;">
								<g>
									<g>
										<path style="fill:#512717;" d="M1367.612,3307.722c-133.67,44.431-383.43,54.225-458.543-38.747
											c-16.74-20.698-19.489-51.563-7.739-86.902c96.089,66.343,311.116,54.455,431.689,14.359
											c204.258-67.93,303.143-280.629,292.469-742.198c-0.342-14.585-0.616-28.385-0.828-41.474
											c-0.304-18.756,15.656-33.631,34.346-32.053c-0.607,44.154-0.837,101.964,1.075,184.817
											C1670.755,3027.141,1571.865,3239.792,1367.612,3307.722"/>
									</g>
								</g>
							</g>
							<g>
								<path style="fill:#512717;" d="M1667.672,2380.806c5.003,54.281,7.171,108.32,9.035,162.476
									c1.79,54.221,2.215,109.157,0.629,163.815c-1.635,54.732-5.19,109.534-12.062,164.171
									c-7.154,54.576-17.082,109.126-33.345,162.441c-8.164,26.616-17.529,53.024-29.317,78.578
									c-11.78,25.532-25.554,50.345-41.851,73.657c-16.276,23.299-35.118,45.055-56.423,64.236
									c-21.279,19.207-44.995,35.773-70.236,49.23c-25.203,13.488-52.053,23.88-79.089,31.606
									c-27.037,7.83-54.355,13.462-81.812,17.837c-27.457,4.405-55.105,7.145-82.831,8.74c-27.73,1.578-55.573,1.7-83.455,0.165
									c-27.873-1.491-55.807-4.726-83.555-10.674c-6.954-1.323-13.848-3.291-20.763-4.951c-6.868-2.081-13.783-3.863-20.585-6.369
									c-13.674-4.57-27.175-10.327-40.195-17.546c-12.977-7.236-25.697-15.764-36.761-26.88
									c-5.428-5.632-10.718-11.229-15.643-18.925c-4.63-7.453-7.826-15.543-10.102-23.694c-3.993-16.388-3.88-32.82-1.158-47.999
									c2.688-15.244,7.544-29.56,13.579-43.035c12.17-26.954,28.897-50.722,47.644-72.153
									c18.738-21.504,39.761-40.529,61.877-57.893c22.211-17.247,45.697-32.608,69.954-46.43l35.508-19.54
									c5.602-3.2,10.952-6.824,16.445-10.197c5.328-3.629,10.57-7.401,15.816-11.143c20.607-15.539,39.402-33.471,56.094-53.158
									c8.194-9.976,15.968-20.282,23.039-31.025c6.963-10.774,13.349-21.956,18.574-33.263c1.244-2.896,2.432-5.437,3.629-8.606
									l3.542-9.339c2.363-6.226,4.782-12.43,6.911-18.756c2.172-6.304,4.47-12.556,6.538-18.903l6.148-19.072
									c7.891-25.545,14.797-51.468,21.275-77.551c6.43-26.122,12.517-52.395,18.292-78.799l17.728-79.298l9.178-39.684
									c3.295-13.176,6.382-26.417,9.876-39.566c6.79-26.347,14.104-52.595,22.623-78.573c1.5-4.574,6.425-7.067,11.004-5.567
									c3.967,1.301,6.365,5.194,5.957,9.178c-2.74,27.163-6.573,54.069-10.752,80.915c-1.981,13.453-4.379,26.807-6.547,40.23
									l-7.266,40.117l-7.752,40.069l-8.277,40.031c-5.901,26.642-12.079,53.284-18.838,79.853
									c-6.958,26.538-14.559,52.977-22.9,79.259l-6.499,19.657c-2.19,6.542-4.622,13.024-6.92,19.536
									c-2.263,6.525-4.813,12.963-7.323,19.41l-3.759,9.677c-1.223,3.174-2.827,6.829-4.284,10.158
									c-12.265,26.638-28.281,50.241-46.408,72.287c-18.366,21.791-39.055,41.613-61.782,58.829
									c-5.779,4.167-11.563,8.346-17.451,12.365c-6.048,3.763-11.962,7.76-18.14,11.311l-35.807,19.835
									c-22.892,13.115-44.93,27.622-65.584,43.737c-20.542,16.215-39.909,33.861-56.813,53.375
									c-16.943,19.419-31.65,40.698-41.773,63.334c-5.038,11.294-8.866,22.927-10.869,34.446
									c-2.081,11.52-1.791,22.823,0.611,32.851c1.448,4.895,3.269,9.534,5.823,13.631c0.62,1.049,1.418,1.951,2.086,2.948
									l1.053,1.483l1.439,1.574c1.968,2.072,3.69,4.318,5.814,6.287c8.112,8.181,18.192,14.962,28.892,20.885
									c10.735,5.927,22.315,10.886,34.407,14.875c5.948,2.198,12.213,3.772,18.335,5.627c6.287,1.479,12.469,3.256,18.868,4.448
									c25.385,5.385,51.572,8.385,77.923,9.725c52.72,2.749,106.161-0.694,158.521-8.875c26.161-4.184,52.131-9.577,77.273-16.883
									c25.159-7.214,49.222-16.596,71.923-28.745c45.454-24.093,84.123-59.493,113.588-102.029
									c14.819-21.214,27.514-44.063,38.469-67.839c10.9-23.824,19.948-48.641,27.808-73.887
									c15.725-50.562,25.636-103.217,32.859-156.241c6.963-53.124,10.731-106.824,12.608-160.646
									c0.564-13.453,0.82-26.928,1.023-40.403c0.325-13.475,0.33-26.963,0.334-40.451c0.182-27.041-0.659-53.818-0.741-81.162
									c-0.295-54.455,1.205-109.044,7.778-163.39c0.577-4.778,4.921-8.19,9.699-7.613
									C1664.186,2373.453,1667.308,2376.805,1667.672,2380.806"/>
							</g>
							<g>
								<path style="fill:#FFFFFF;" d="M1279.863,3330.848c-84.947,13.193-331.767,42.939-423.343,5.641
									c-42.467-17.342-46.898-53.475-30.627-92.127c20.421-48.723,73.614-101.361,124.531-125.142
									c89.655-41.816,170.314,7.648,229.339,69.287C1241.68,3253.033,1279.863,3330.848,1279.863,3330.848"/>
							</g>
							<g style="opacity:0.3;">
								<g>
									<g>
										<path style="fill:#512717;" d="M1279.863,3330.848c-84.947,13.193-331.767,42.939-423.343,5.641
											c-42.467-17.342-46.898-53.475-30.627-92.127c1.257,21.721,15.526,48.069,71.567,59.909
											c89.001,18.791,227.752,11.658,282.628-66.763c9.608-13.705,6.998-31.611-0.325-49.001
											C1241.68,3253.033,1279.863,3330.848,1279.863,3330.848"/>
									</g>
								</g>
							</g>
							<g>
								<path style="fill:#512717;" d="M1000.963,3372.065c-59.736,0-115.347-5.005-151.006-19.536
									c-31.563-12.861-49.365-36.934-50.132-67.788c-1.65-66.636,74.185-148.999,143.276-181.24l0,0
									c82.554-38.506,170.225-11.685,253.579,77.578c60.474,64.761,97.226,139.014,98.765,142.144
									c2.427,4.951,2.358,10.762-0.19,15.649c-2.549,4.893-7.275,8.281-12.725,9.126
									C1260.489,3351.415,1122.271,3372.06,1000.963,3372.065z M1017.193,3121.318c-19.273,0-39.146,4.155-59.424,13.618
									c-63.345,29.551-124.399,103.325-123.271,148.945c0.425,17.158,9.497,28.765,28.545,36.528
									c75.225,30.645,275.298,12.998,389.756-3.086C1221.49,3262.685,1129.605,3121.318,1017.193,3121.318z M950.435,3119.218
									h0.049H950.435z"/>
							</g>
							<g>
								<path style="fill:#512717;" d="M980.743,3370.805c-1.968,0-3.97-0.337-5.923-1.05
									c-11.221-4.077-17.729-14.336-17.417-27.446c1.099-46.299,90.342-144.897,206.68-181.04
									c9.16-2.832,18.867,2.275,21.709,11.416c2.842,9.146-2.271,18.867-11.416,21.709
									c-110.586,34.355-177.539,122.651-182.07,146.133c5.127,4.585,7.231,11.997,4.736,18.853
									C994.478,3366.425,987.828,3370.805,980.743,3370.805z"/>
							</g>
							<g>
								<path style="fill:#512717;" d="M868.912,3358.178c-1.489,0-2.998-0.195-4.507-0.601
									c-5.757-1.543-19.414-7.476-21.826-29.111c-5.01-44.863,46.47-160.688,193.018-237.847
									c8.467-4.463,18.96-1.211,23.428,7.266c4.463,8.477,1.206,18.965-7.266,23.428
									c-140.425,73.926-180.166,182.339-174.731,204.189c6.992,3.701,10.762,11.86,8.623,19.824
									C883.57,3353.071,876.568,3358.178,868.912,3358.178z"/>
							</g>
						</g>
					</g>
				</g>
			</g>
		</g>
		<g>
			<g>
				<g>
					<path style="fill:#512717;" d="M3112.336,1233.855l-148.737,32.608l-6.547-29.858l58.495-139.135l-82.724,18.136l-9.071-41.366
						l145.728-31.948l6.485,29.584l-59.255,139.594l86.56-18.977L3112.336,1233.855z"/>
				</g>
			</g>
			<g>
				<g>
					<path style="fill:#512717;" d="M3240.519,1008.083l-105.375,11.34l-2.279-21.152l50.973-91.867l-58.611,6.308l-3.151-29.302
						l103.245-11.112l2.254,20.957l-51.533,92.125l61.327-6.599L3240.519,1008.083z"/>
				</g>
			</g>
			<g>
				<g>
					<path style="fill:#512717;" d="M3450.213,1064.704l-121.275,13.05l-2.62-24.345l58.661-105.717l-67.45,7.259l-3.628-33.723
						l118.817-12.787l2.595,24.116l-59.305,106.018l70.576-7.595L3450.213,1064.704z"/>
				</g>
			</g>
			<g>
				<g>
					<path style="fill:#512717;" d="M3267.271,1236.184l-63.058,6.788l-1.362-12.662l30.501-54.969l-35.072,3.776l-1.885-17.532
						l61.779-6.649l1.349,12.538l-30.838,55.124l36.696-3.95L3267.271,1236.184z"/>
				</g>
			</g>
		</g>
	</g>
</g>
</svg>
