<?xml version="1.0" encoding="utf-8"?>
<!-- Generator: Adobe Illustrator 27.5.0, SVG Export Plug-In . SVG Version: 6.00 Build 0)  -->
<svg version="1.1" id="Layer_1" xmlns="http://www.w3.org/2000/svg" xmlns:xlink="http://www.w3.org/1999/xlink" x="0px" y="0px"
	 viewBox="0 0 4000 4000" style="enable-background:new 0 0 4000 4000;" xml:space="preserve">
<g>
	<g>
		<g>
			<!-- <rect style="fill:#00EDF9;" width="4000" height="4000"/> -->
		</g>
	</g>
	<g>
		<g>
			<!-- <rect style="fill:#00EDF9;" width="4000" height="4000"/> -->
		</g>
	</g>
	<g style="opacity:0.3;">
		<g>
			<ellipse style="fill:#102770;" cx="2066.695" cy="3010.85" rx="1669.617" ry="94.15"/>
		</g>
	</g>
	<g>
		<g>
			<g>
				<g>
					<path style="fill:#4C5A69;stroke:#102770;stroke-width:5;stroke-miterlimit:10;" d="M1501.686,2090.4
						c-34.399-53.25-77.45-100.75-127.45-140.4c-77.5-61.5-171.75-104-276.55-119.25c-317-46.1-612.4,174.301-658.55,491.35
						c-46.15,317.001,174.25,612.4,491.25,658.55c239.65,34.85,466.95-82.55,583.55-278.8c35.2-59.2,60.3-125.55,72.65-197.1
						c0.9-5.1,1.7-10.2,2.45-15.35C1610.086,2344.7,1575.586,2204.45,1501.686,2090.4z M1410.886,2668.8
						c-98.65,148.6-277.1,235.4-465.4,208c-260.15-37.85-440.35-279.45-402.5-539.6c37.85-260.2,279.45-440.4,539.6-402.55
						c86.8,12.6,164.65,47.9,228.5,99.05c52.7,42.05,95.8,94.95,126.5,154.7c43.8,85.05,62.35,184,47.55,285.85
						c-0.7,4.65-1.4,9.25-2.25,13.85C1471.236,2554.65,1446.186,2615.7,1410.886,2668.8z"/>
				</g>
			</g>
			<g style="opacity:0.3;">
				<g>
					<path style="fill:#102770;" d="M1051.986,1889.7c-260.15-37.85-501.75,142.3-539.6,402.5c-19.25,132.3,17.9,259.8,93.3,358.151
						c-54.45-90.801-79.15-200.2-62.7-313.151c37.85-260.2,279.45-440.4,539.6-402.55c127.9,18.6,236.45,86.4,309.25,181.45
						C1320.836,1997.75,1199.235,1911.1,1051.986,1889.7z"/>
				</g>
			</g>
			<g style="opacity:0.55;">
				<g>
					<path style="fill:#FFFFFF;" d="M1131.049,1853.587c83.269,12.115,159.905,41.47,226.777,83.871
						c-74.26-54.751-162.652-92.527-260.141-106.711c-317.025-46.126-612.442,174.293-658.568,491.319
						c-34.011,233.757,76.85,455.811,264.588,574.758c-167.321-123.182-263.166-332.381-231.224-551.919
						C518.607,2027.88,814.022,1807.461,1131.049,1853.587z"/>
				</g>
			</g>
			<g>
				<g>
					<path style="fill:#102770;" d="M1115.047,2420.425c-8.097,55.653-59.974,94.351-115.692,86.245
						c-55.653-8.097-94.351-59.974-86.254-115.627c8.107-55.719,59.984-94.416,115.636-86.319
						C1084.455,2312.83,1123.153,2364.706,1115.047,2420.425z"/>
				</g>
			</g>
			<g>
				<g>
					
						<rect x="846.326" y="2184.642" transform="matrix(0.144 -0.9896 0.9896 0.144 -1278.428 2913.1584)" style="fill:#102770;" width="396.608" height="21.772"/>
				</g>
			</g>
			<g>
				<g>
					
						<rect x="785.159" y="2605.033" transform="matrix(0.144 -0.9896 0.9896 0.144 -1746.7986 3212.4932)" style="fill:#102770;" width="396.611" height="21.772"/>
				</g>
			</g>
			<g>
				<g>
					
						<rect x="960.008" y="1999.439" transform="matrix(0.9791 -0.2032 0.2032 0.9791 -426.2435 243.0776)" style="fill:#102770;" width="21.773" height="396.611"/>
				</g>
			</g>
			<g>
				<g>
					
						<rect x="1046.314" y="2415.399" transform="matrix(0.9791 -0.2032 0.2032 0.9791 -508.95 269.2864)" style="fill:#102770;" width="21.773" height="396.611"/>
				</g>
			</g>
			<g>
				<g>
					
						<rect x="891.479" y="2026.741" transform="matrix(0.8506 -0.5258 0.5258 0.8506 -1035.1141 806.8538)" style="fill:#102770;" width="21.77" height="396.61"/>
				</g>
			</g>
			<g>
				<g>
					
						<rect x="1114.847" y="2388.098" transform="matrix(0.8506 -0.5258 0.5258 0.8506 -1191.745 978.2816)" style="fill:#102770;" width="21.77" height="396.61"/>
				</g>
			</g>
			<g>
				<g>
					
						<rect x="836.418" y="2075.835" transform="matrix(0.6195 -0.785 0.785 0.6195 -1462.8113 1530.4939)" style="fill:#102770;" width="21.77" height="396.611"/>
				</g>
			</g>
			<g>
				<g>
					
						<rect x="1169.907" y="2339.002" transform="matrix(0.6195 -0.785 0.785 0.6195 -1542.5013 1892.4258)" style="fill:#102770;" width="21.77" height="396.611"/>
				</g>
			</g>
			<g>
				<g>
					
						<rect x="801.469" y="2140.802" transform="matrix(0.3136 -0.9495 0.9495 0.3136 -1663.5117 2376.8555)" style="fill:#102770;" width="21.772" height="396.61"/>
				</g>
			</g>
			<g>
				<g>
					
						<rect x="1204.854" y="2274.037" transform="matrix(0.3136 -0.9495 0.9495 0.3136 -1513.1536 2851.3362)" style="fill:#102770;" width="21.772" height="396.61"/>
				</g>
			</g>
			<g>
				<g>
					
						<rect x="603.429" y="2401.22" transform="matrix(0.9995 -0.0301 0.0301 0.9995 -72.1256 25.1828)" style="fill:#102770;" width="396.61" height="21.773"/>
				</g>
			</g>
			<g>
				<g>
					
						<rect x="1028.057" y="2388.456" transform="matrix(0.9995 -0.0301 0.0301 0.9995 -71.5502 37.9378)" style="fill:#102770;" width="396.61" height="21.773"/>
				</g>
			</g>
			<g>
				<g>
					
						<rect x="618.416" y="2473.452" transform="matrix(0.929 -0.3701 0.3701 0.929 -861.4035 478.6296)" style="fill:#102770;" width="396.611" height="21.77"/>
				</g>
			</g>
			<g>
				<g>
					
						<rect x="1013.07" y="2316.226" transform="matrix(0.929 -0.3701 0.3701 0.929 -775.2058 613.5265)" style="fill:#102770;" width="396.61" height="21.77"/>
				</g>
			</g>
			<g>
				<g>
					
						<rect x="657.203" y="2536.199" transform="matrix(0.7464 -0.6655 0.6655 0.7464 -1478.1742 1215.3711)" style="fill:#102770;" width="396.611" height="21.772"/>
				</g>
			</g>
			<g>
				<g>
					
						<rect x="974.282" y="2253.477" transform="matrix(0.7464 -0.6655 0.6655 0.7464 -1209.5924 1354.6816)" style="fill:#102770;" width="396.611" height="21.772"/>
				</g>
			</g>
			<g>
				<g>
					
						<rect x="715.113" y="2581.899" transform="matrix(0.4737 -0.8807 0.8807 0.4737 -1802.6947 2169.0032)" style="fill:#102770;" width="396.61" height="21.77"/>
				</g>
			</g>
			<g>
				<g>
					
						<rect x="916.373" y="2207.78" transform="matrix(0.4737 -0.8807 0.8807 0.4737 -1367.2921 2149.3469)" style="fill:#102770;" width="396.61" height="21.77"/>
				</g>
			</g>
			<g>
				<g>
					<path style="fill:#102770;" d="M1014.452,3003.069c-28.528,0-57.357-2.048-86.403-6.274
						c-325.917-47.419-552.493-351.152-505.073-677.07c47.424-325.95,351.156-552.559,677.078-505.125
						c157.644,22.935,297.063,106.079,392.574,234.119c95.511,128.037,135.481,285.369,112.544,443.013
						C1561.979,2788.606,1306.057,3003.069,1014.452,3003.069z M1013.697,1840.987c-275.662,0-517.563,202.751-558.403,483.44
						c-44.827,308.098,169.36,595.225,477.458,640.054c308.121,44.819,595.277-169.353,640.104-477.451
						c21.681-149.011-16.107-297.74-106.404-418.784c-90.295-121.047-222.089-199.649-371.1-221.331
						C1067.915,1842.923,1040.644,1840.987,1013.697,1840.987z M1015.094,2898.179c-23.867,0-47.889-1.729-71.936-5.229
						c-130.135-18.933-245.112-87.417-323.752-192.835c-78.639-105.42-111.52-235.144-92.586-365.281
						c18.938-130.156,87.423-245.142,192.841-323.772c105.41-78.625,235.132-111.501,365.276-92.563
						c268.657,39.087,455.426,289.458,416.338,558.115c-18.936,130.142-87.412,245.12-192.816,323.755
						C1222.522,2864.48,1120.411,2898.177,1015.094,2898.179z M1013.073,1945.933c-98.33,0-193.645,31.453-273.887,91.306
						c-98.425,73.416-162.368,180.774-180.049,302.297c-17.678,121.504,13.021,242.624,86.445,341.052
						c73.423,98.425,180.774,162.368,302.278,180.046l0,0c121.527,17.683,242.65-13.017,341.071-86.443
						c98.413-73.418,162.347-180.771,180.027-302.28c36.495-250.837-137.885-484.602-388.723-521.099
						C1057.793,1947.549,1035.347,1945.933,1013.073,1945.933z"/>
				</g>
			</g>
			<g>
				<g>
					<path style="fill:#FFCE00;" d="M1437.586,2188.4c-30.7-59.75-73.8-112.65-126.5-154.7c-63.85-51.15-141.7-86.45-228.5-99.05
						c-260.15-37.85-501.75,142.35-539.6,402.55c-37.85,260.15,142.35,501.75,402.5,539.6c188.3,27.4,366.75-59.4,465.4-208
						c35.3-53.1,60.35-114.15,72-180.7c0.85-4.6,1.55-9.2,2.25-13.85C1499.936,2372.4,1481.386,2273.45,1437.586,2188.4z
						 M1345.786,2647.65c-86.9,118.9-235.2,187.15-390.85,164.5c-224.15-32.6-379.9-241.5-347.3-465.549
						c32.6-224.15,241.45-379.901,465.55-347.3c75.4,10.95,143.05,41.9,198.4,86.7c54.8,44.15,97.5,101.95,123.8,167.35
						c26.05,64.95,35.9,137.4,25.1,211.5c-0.649,4.35-1.3,8.65-2.1,12.9C1407.136,2541.1,1381.686,2598.65,1345.786,2647.65z"/>
				</g>
			</g>
			<g style="opacity:0.55;">
				<g>
					<path style="fill:#FFFFFF;" d="M1241.885,2064.087c127.57,85.278,202.106,239.071,178.581,400.761
						c-32.6,224.062-241.454,379.909-465.571,347.301c-52.245-7.602-100.732-24.777-144.043-49.559
						c49.347,33.195,106.633,56.051,169.273,65.165c224.116,32.608,432.971-123.239,465.571-347.3
						C1470.734,2308.369,1384.683,2145.255,1241.885,2064.087z"/>
				</g>
			</g>
			<g>
				<g>
					<path style="fill:#102770;" d="M1015.094,2898.179c-23.867,0-47.889-1.729-71.936-5.229
						c-130.135-18.933-245.112-87.417-323.752-192.835c-78.639-105.42-111.52-235.144-92.586-365.281
						c18.938-130.156,87.423-245.142,192.841-323.772c105.41-78.625,235.132-111.501,365.276-92.563l0,0
						c268.657,39.087,455.426,289.458,416.338,558.115c-18.936,130.142-87.412,245.12-192.816,323.755
						C1222.521,2864.48,1120.411,2898.177,1015.094,2898.179z M1013.073,1945.933c-98.33,0-193.645,31.453-273.887,91.306
						c-98.425,73.416-162.367,180.774-180.049,302.297c-17.678,121.504,13.021,242.624,86.445,341.052
						c73.423,98.425,180.774,162.368,302.278,180.046c121.516,17.671,242.649-13.017,341.071-86.443
						c98.413-73.418,162.347-180.771,180.027-302.28c36.495-250.837-137.886-484.602-388.723-521.099
						C1057.793,1947.549,1035.347,1945.933,1013.073,1945.933z M1014.72,2832.835c-20.63,0-41.384-1.494-62.158-4.519
						c-112.703-16.397-212.375-75.843-280.657-167.385c-68.275-91.533-96.847-204.004-80.452-316.692
						c16.399-112.71,75.837-212.383,167.366-280.659c91.528-68.279,204.003-96.851,316.715-80.447
						c112.709,16.396,212.382,75.835,280.658,167.363c68.278,91.528,96.848,204.006,80.449,316.714
						c-16.395,112.688-75.833,212.354-167.362,280.64C1194.616,2803.55,1106.006,2832.83,1014.72,2832.835z M1013.429,2011.277
						c-84.308,0-166.126,27.036-235.084,78.479c-84.536,63.062-139.432,155.108-154.575,259.185
						c-15.14,104.055,11.251,207.922,74.312,292.466c63.066,84.551,155.112,139.453,259.182,154.595l0,0
						c104.062,15.129,207.942-11.255,292.488-74.329c84.539-63.069,139.434-155.107,154.573-259.165
						c15.143-104.077-11.246-207.949-74.308-292.485c-63.062-84.536-155.109-139.431-259.185-154.575
						C1051.654,2012.657,1032.474,2011.277,1013.429,2011.277z"/>
				</g>
			</g>
			<g style="opacity:0.3;">
				<g>
					<g>
						<path style="fill:#262F6A;" d="M1501.686,2090.4c-18.55,28.35-41.95,64-64.1,98c-15.3,23.4-30,46-42.2,64.95
							c-26.3-65.4-69-123.199-123.8-167.35l39.501-52.3l63.149-83.7C1424.235,1989.65,1467.286,2037.15,1501.686,2090.4z"/>
					</g>
				</g>
				<g>
					<g>
						<path style="fill:#102770;" d="M1394.87,2258.77l-1.804-4.487c-26.154-65.034-68.702-122.554-123.049-166.338l-1.887-1.518
							l105.653-139.976l2.006,1.592c50.216,39.819,93.28,87.258,127.997,141.001l0.883,1.367l-17.981,27.458
							c-14.834,22.649-31.237,47.691-47.006,71.895c-15.299,23.398-29.995,45.993-42.194,64.939L1394.87,2258.77z
							 M1275.036,2085.579c52.874,43.115,94.553,99.135,120.847,162.383c11.666-18.091,25.378-39.163,39.611-60.93
							c15.769-24.206,32.174-49.25,47.01-71.902l16.198-24.737c-33.802-52.009-75.51-98.027-124.016-136.838L1275.036,2085.579z"/>
					</g>
				</g>
			</g>
			<g style="opacity:0.3;">
				<g>
					<path style="fill:#102770;" d="M1589.035,2489.4c-0.75,5.15-1.55,10.25-2.45,15.35c-1,5.75-2.05,11.45-3.25,17.1
						c-0.6,3.2-1.3,6.35-2,9.45c-0.95,4.4-1.95,8.8-3.05,13.15c-4.1,16.8-8.95,33.3-14.45,49.45c-1.4,4.1-2.85,8.149-4.35,12.2
						c-1.3,3.6-2.65,7.15-4,10.65c-3.8,9.7-7.85,19.3-12.15,28.7c-1.55,3.5-3.15,7-4.85,10.45c-1.901,4.1-3.9,8.151-5.95,12.15
						c-1.95,3.8-3.899,7.55-5.9,11.25c-2.45,4.65-5,9.2-7.6,13.75c-1.649,2.95-3.35,5.9-5.099,8.8
						c-116.6,196.25-343.9,313.65-583.55,278.8c-177.05-25.8-324-129.35-411.15-271c88.95,118.35,222.8,203.051,380.55,226
						c227.45,33.1,443.8-70.95,564.9-249.5c-17.9-5.75-36.2-11.65-53.8-17.35c-24.1-7.8-46.8-15.15-65.1-21.15
						c35.9-49,61.35-106.55,72.6-169.9l64.5,10.35l65,10.45c4.301-17.7,7.85-35.75,10.5-54.15c20.35-139.95-11.2-275.7-80.15-387.65
						C1568.086,2176.25,1612.186,2330.1,1589.035,2489.4z"/>
				</g>
			</g>
		</g>
		<g>
			<g>
				<path style="fill:#102770;" d="M2747.602,1867.316l-74.675,21.989l-141.078-472.109l-22.044-74.621l-10.939-36.957
					c-2.504-8.437,2.286-17.362,10.722-19.975l43.542-13.498c8.599-2.613,17.689,2.231,20.247,10.886l10.777,36.521l22.098,74.675
					L2747.602,1867.316z"/>
			</g>
		</g>
		<g>
			<g>
				<polygon style="fill:#102770;" points="2722.919,1358.304 2606.253,1394.227 2531.849,1417.196 2509.805,1342.575 
					2583.937,1319.606 2584.154,1319.552 2700.005,1283.901 				"/>
			</g>
		</g>
		<g>
			<g>
				<g>
					<path style="fill:#102770;" d="M1531.861,1627.814c-13.841,0-26.693-8.876-31.11-22.771l-51.069-160.627l-56.156-26.582
						c-16.302-7.712-23.265-27.182-15.547-43.484c7.712-16.307,27.182-23.265,43.484-15.547l69.003,32.657
						c8.196,3.875,14.41,10.981,17.152,19.619l55.374,174.17c5.464,17.189-4.04,35.554-21.224,41.018
						C1538.478,1627.314,1535.141,1627.814,1531.861,1627.814z"/>
				</g>
			</g>
		</g>
		<g>
			<g>
				
					<ellipse transform="matrix(0.1602 -0.9871 0.9871 0.1602 -175.9796 2562.5647)" style="fill:#102770;" cx="1417.977" cy="1384.702" rx="51.707" ry="51.707"/>
			</g>
		</g>
		<g>
			<g>
				<path style="fill:#4A83FF;" d="M1257.096,1273.29l387.96-5.722c36.793-0.543,43.629,52.05,7.931,60.973
					c-29.278,7.318-71.513,10.828-125.775,13.383c-34.966,1.646-69.383,10.725-99.934,27.814
					c-116.655,65.254-216.351,9.733-199.749-71.917C1230.396,1283.724,1242.711,1273.502,1257.096,1273.29z"/>
			</g>
		</g>
		<g style="opacity:0.55;">
			<g>
				<path style="fill:#FFFFFF;" d="M1637.105,1270.885c4.077,14.793-6.917,29.451-22.259,29.679l-331.415,4.937
					c-14.369,0.163-26.724,10.396-29.555,24.493c-3.647,17.798-1.687,34.398,4.79,48.714
					c-22.859-18.234-33.909-45.992-27.486-77.724c2.885-14.097,15.186-24.329,29.555-24.547L1637.105,1270.885L1637.105,1270.885z"
					/>
			</g>
		</g>
		<g>
			<g>
				<path style="fill:#61ED46;" d="M2709.286,1674.1l-48.199-166.45l-19.2-66.05l-115.3,32.25l8.55,29.55l-923.8,133.45l-20.8-62.25
					c-3.05-9.2-13-14.1-22.15-11.05l-80.35,26.9c-9.2,3.05-14.1,12.95-11.05,22.15l26.55,79.399l-530.8,690.3
					c-13.15,17.1-16.1,39.9-7.7,59.8c8.35,19.851,26.7,33.65,48.1,36.15l399.35,47.3l343.4,40.65l79.45,9.4
					c2.35,0.25,4.7,0.35,7.001,0.35c16.25,0,31.849-6.55,43.25-18.4l733.45-764.4l10.3,35.45l115.35-32.25L2709.286,1674.1z
					 M1487.036,2413.8c-0.05,0-0.05,0-0.05,0l-355.1-42.05l417.45-542.9l206.3,616.75l-16.6-1.95L1487.036,2413.8z M1867.736,2403.2
					l-217.8-650.95l918.799-132.7l11.85,40.651L1867.736,2403.2z"/>
			</g>
		</g>
		<g>
			<g>
				<path style="fill:#102770;" d="M1327.996,1414.815c-33.331,0.002-60.642-9.875-79.486-23.635
					c-30.873-22.542-44.698-58.66-36.981-96.611c4.364-21.467,23.427-37.283,45.326-37.605c0.001,0,0.001,0,0.001,0l387.96-5.72
					c24.806-0.447,44.369,16.545,47.578,41.128c3.213,24.602-11.364,45.991-35.447,52.009
					c-27.23,6.809-64.594,10.823-128.967,13.855c-33.351,1.57-65.416,10.474-92.731,25.754
					C1395.592,1406.172,1359.162,1414.815,1327.996,1414.815z M1257.337,1289.615c-6.67,0.1-12.476,4.919-13.806,11.46
					c-5.255,25.85,3.352,48.481,24.237,63.73c26.99,19.707,82.871,29.097,151.539-9.316c31.709-17.739,68.757-28.069,107.137-29.875
					c43.214-2.036,91.572-5.161,122.583-12.913c11.76-2.942,11.382-13.066,10.985-16.101c-0.396-3.025-2.72-12.8-14.714-12.705
					L1257.337,1289.615z"/>
			</g>
		</g>
		<g>
			<g>
				<g>
					<path style="fill:#4C5A69;stroke:#102770;stroke-width:5;stroke-miterlimit:10;" d="M3079.573,1830.757
						c-317.027-46.126-612.442,174.293-658.568,491.319c-46.126,317.026,174.239,612.434,491.265,658.56
						c317.025,46.126,612.488-174.231,658.614-491.257S3396.598,1876.883,3079.573,1830.757z M2927.379,2876.793
						c-260.149-37.851-440.381-279.459-402.531-539.608c37.858-260.202,279.459-440.38,539.608-402.53
						c260.202,37.858,440.388,279.405,402.53,539.607C3429.135,2734.412,3187.581,2914.651,2927.379,2876.793z"/>
				</g>
			</g>
			<g style="opacity:0.3;">
				<g>
					<path style="fill:#102770;" d="M3042.986,1889.7c-260.15-37.85-501.75,142.3-539.6,402.5
						c-15.35,105.651,5.2,208.25,52.55,295.4c-31.75-76.55-43.9-162.4-31.1-250.4c37.85-260.2,279.449-440.4,539.6-402.55
						c154.4,22.45,280.65,116.65,349.85,243.95C3352.136,2028.85,3215.086,1914.7,3042.986,1889.7z M3509.336,2134.25
						c40.25,94.65,55.9,201.15,40.05,310.15c-46.1,317.05-341.6,537.4-658.6,491.25c-190.15-27.65-345.55-145-429.5-302.9
						c76.95,180.3,243.2,317.65,451,347.9c317,46.1,612.45-174.25,658.6-491.25C3589.286,2362.7,3565.186,2239.5,3509.336,2134.25z"
						/>
				</g>
			</g>
			<g style="opacity:0.55;">
				<g>
					<path style="fill:#FFFFFF;" d="M3112.919,1853.587c83.269,12.115,159.905,41.47,226.777,83.871
						c-74.26-54.751-162.652-92.527-260.141-106.711c-317.025-46.126-612.442,174.293-658.568,491.319
						c-34.011,233.757,76.85,455.811,264.588,574.758c-167.321-123.182-263.166-332.381-231.224-551.919
						C2500.477,2027.88,2795.892,1807.461,3112.919,1853.587z"/>
				</g>
			</g>
			<g>
				<g>
					<path style="fill:#102770;" d="M3096.916,2420.425c-8.097,55.653-59.974,94.351-115.692,86.245
						c-55.653-8.097-94.351-59.974-86.254-115.627c8.107-55.719,59.984-94.416,115.636-86.319
						C3066.325,2312.83,3105.023,2364.706,3096.916,2420.425z"/>
				</g>
			</g>
			<g>
				<g>
					
						<rect x="2828.195" y="2184.643" transform="matrix(0.144 -0.9896 0.9896 0.144 418.0443 4874.334)" style="fill:#102770;" width="396.608" height="21.77"/>
				</g>
			</g>
			<g>
				<g>
					
						<rect x="2767.03" y="2605.035" transform="matrix(0.144 -0.9896 0.9896 0.144 -50.3215 5173.665)" style="fill:#102770;" width="396.611" height="21.77"/>
				</g>
			</g>
			<g>
				<g>
					
						<rect x="2941.878" y="1999.439" transform="matrix(0.9791 -0.2032 0.2032 0.9791 -384.9182 645.7221)" style="fill:#102770;" width="21.772" height="396.611"/>
				</g>
			</g>
			<g>
				<g>
					
						<rect x="3028.184" y="2415.398" transform="matrix(0.9791 -0.2032 0.2032 0.9791 -467.6255 671.9312)" style="fill:#102770;" width="21.773" height="396.611"/>
				</g>
			</g>
			<g>
				<g>
					
						<rect x="2873.348" y="2026.741" transform="matrix(0.8506 -0.5258 0.5258 0.8506 -739.0457 1848.9103)" style="fill:#102770;" width="21.772" height="396.61"/>
				</g>
			</g>
			<g>
				<g>
					
						<rect x="3096.716" y="2388.097" transform="matrix(0.8506 -0.5258 0.5258 0.8506 -895.6798 2020.3591)" style="fill:#102770;" width="21.772" height="396.611"/>
				</g>
			</g>
			<g>
				<g>
					
						<rect x="2818.288" y="2075.836" transform="matrix(0.6195 -0.785 0.785 0.6195 -708.6757 3086.2764)" style="fill:#102770;" width="21.77" height="396.61"/>
				</g>
			</g>
			<g>
				<g>
					
						<rect x="3151.776" y="2339.002" transform="matrix(0.6195 -0.785 0.785 0.6195 -788.3661 3448.207)" style="fill:#102770;" width="21.77" height="396.61"/>
				</g>
			</g>
			<g>
				<g>
					
						<rect x="2783.339" y="2140.802" transform="matrix(0.3136 -0.9495 0.9495 0.3136 -303.2179 4258.7324)" style="fill:#102770;" width="21.772" height="396.61"/>
				</g>
			</g>
			<g>
				<g>
					
						<rect x="3186.723" y="2274.037" transform="matrix(0.3136 -0.9495 0.9495 0.3136 -152.8619 4733.209)" style="fill:#102770;" width="21.772" height="396.61"/>
				</g>
			</g>
			<g>
				<g>
					
						<rect x="2585.299" y="2401.22" transform="matrix(0.9995 -0.0301 0.0301 0.9995 -71.2305 84.7412)" style="fill:#102770;" width="396.61" height="21.773"/>
				</g>
			</g>
			<g>
				<g>
					
						<rect x="3009.926" y="2388.456" transform="matrix(0.9995 -0.0301 0.0301 0.9995 -70.6551 97.4962)" style="fill:#102770;" width="396.612" height="21.773"/>
				</g>
			</g>
			<g>
				<g>
					
						<rect x="2600.286" y="2473.452" transform="matrix(0.929 -0.3701 0.3701 0.929 -720.7006 1212.0833)" style="fill:#102770;" width="396.611" height="21.77"/>
				</g>
			</g>
			<g>
				<g>
					
						<rect x="2994.94" y="2316.226" transform="matrix(0.929 -0.3701 0.3701 0.929 -634.4902 1346.9568)" style="fill:#102770;" width="396.61" height="21.77"/>
				</g>
			</g>
			<g>
				<g>
					
						<rect x="2639.073" y="2536.2" transform="matrix(0.7464 -0.6655 0.6655 0.7464 -975.5193 2534.0315)" style="fill:#102770;" width="396.612" height="21.77"/>
				</g>
			</g>
			<g>
				<g>
					
						<rect x="2956.152" y="2253.478" transform="matrix(0.7464 -0.6655 0.6655 0.7464 -706.977 2673.3462)" style="fill:#102770;" width="396.61" height="21.77"/>
				</g>
			</g>
			<g>
				<g>
					
						<rect x="2696.984" y="2581.898" transform="matrix(0.4737 -0.8807 0.8807 0.4737 -759.5764 3914.595)" style="fill:#102770;" width="396.61" height="21.772"/>
				</g>
			</g>
			<g>
				<g>
					
						<rect x="2898.243" y="2207.779" transform="matrix(0.4737 -0.8807 0.8807 0.4737 -324.1555 3894.9321)" style="fill:#102770;" width="396.61" height="21.772"/>
				</g>
			</g>
			<g>
				<g>
					<path style="fill:#102770;" d="M2996.323,3003.069c-28.528,0-57.358-2.048-86.404-6.274
						c-325.919-47.419-552.494-351.152-505.073-677.07c47.422-325.947,351.162-552.556,677.078-505.125
						c325.947,47.422,552.542,351.184,505.117,677.131C3543.848,2788.606,3287.927,3003.069,2996.323,3003.069z M2995.567,1840.987
						c-275.662,0-517.565,202.751-558.403,483.44c-44.828,308.098,169.359,595.225,477.458,640.054
						c149.021,21.679,297.742-16.099,418.779-106.379c121.045-90.281,199.644-222.066,221.325-371.072
						c44.829-308.128-169.377-595.283-477.505-640.115C3049.785,1842.923,3022.513,1840.987,2995.567,1840.987z M2996.963,2898.179
						c-23.867,0-47.888-1.729-71.936-5.229c-130.134-18.933-245.112-87.417-323.751-192.835
						c-78.639-105.42-111.52-235.144-92.585-365.281c18.937-130.156,87.422-245.142,192.84-323.772
						c105.41-78.625,235.137-111.506,365.276-92.563c130.161,18.938,245.147,87.415,323.774,192.818
						c78.628,105.405,111.502,235.136,92.561,365.298c-18.933,130.142-87.41,245.12-192.815,323.755
						C3204.393,2864.48,3102.281,2898.177,2996.963,2898.179z M2994.942,1945.933c-98.33,0-193.645,31.453-273.887,91.306
						c-98.424,73.416-162.367,180.774-180.048,302.297c-17.68,121.504,13.021,242.624,86.444,341.052
						c73.423,98.425,180.774,162.368,302.278,180.046l0,0c121.518,17.683,242.654-13.017,341.072-86.443
						c98.413-73.418,162.346-180.771,180.027-302.28c17.681-121.528-13.01-242.656-86.423-341.067
						c-73.411-98.413-180.769-162.349-302.3-180.032C3039.664,1947.549,3017.217,1945.933,2994.942,1945.933z"/>
				</g>
			</g>
			<g>
				<g>
					<path style="fill:#FFCE00;" d="M3064.456,1934.656c-260.149-37.851-501.75,142.327-539.608,402.53
						c-37.851,260.149,142.381,501.757,402.531,539.608c260.202,37.858,501.756-142.381,539.607-402.531
						C3504.844,2214.06,3324.658,1972.514,3064.456,1934.656z M2936.783,2812.16c-224.116-32.608-379.901-241.509-347.301-465.571
						c32.608-224.116,241.454-379.908,465.571-347.3c224.115,32.608,379.908,241.454,347.301,465.57
						C3369.753,2688.92,3160.898,2844.768,2936.783,2812.16z"/>
				</g>
			</g>
			<g style="opacity:0.55;">
				<g>
					<path style="fill:#FFFFFF;" d="M3223.755,2064.087c127.57,85.278,202.106,239.071,178.581,400.761
						c-32.6,224.062-241.454,379.909-465.571,347.301c-52.245-7.602-100.732-24.777-144.043-49.559
						c49.347,33.195,106.633,56.051,169.273,65.165c224.116,32.608,432.97-123.239,465.57-347.3
						C3452.603,2308.369,3366.553,2145.255,3223.755,2064.087z"/>
				</g>
			</g>
			<g>
				<g>
					<path style="fill:#102770;" d="M2996.963,2898.179c-23.867,0-47.888-1.729-71.936-5.229
						c-130.134-18.933-245.112-87.417-323.751-192.835c-78.639-105.42-111.52-235.144-92.585-365.281
						c18.937-130.156,87.422-245.142,192.84-323.772c105.41-78.625,235.137-111.506,365.276-92.563l0,0
						c130.161,18.938,245.147,87.415,323.774,192.818c78.628,105.405,111.502,235.136,92.561,365.298
						c-18.933,130.142-87.41,245.12-192.815,323.755C3204.393,2864.48,3102.281,2898.177,2996.963,2898.179z M2994.942,1945.933
						c-98.33,0-193.645,31.453-273.887,91.306c-98.424,73.416-162.367,180.774-180.048,302.297
						c-17.68,121.504,13.021,242.624,86.444,341.052c73.423,98.425,180.774,162.368,302.278,180.046
						c121.518,17.683,242.654-13.017,341.072-86.443c98.413-73.418,162.346-180.771,180.027-302.28
						c17.681-121.528-13.01-242.656-86.423-341.067c-73.411-98.413-180.769-162.349-302.3-180.032
						C3039.664,1947.549,3017.217,1945.933,2994.942,1945.933z M2996.197,2832.803c-20.393,0-41.001-1.465-61.765-4.487
						c-112.702-16.397-212.375-75.843-280.656-167.385c-68.275-91.533-96.847-204.004-80.452-316.692
						c16.399-112.71,75.837-212.383,167.366-280.659c91.528-68.279,204.011-96.853,316.714-80.447
						c233.02,33.901,395.012,251.057,361.108,484.077C3387.627,2679.466,3204.666,2832.789,2996.197,2832.803z M2995.298,2011.277
						c-84.306,0-166.125,27.036-235.083,78.479c-84.536,63.062-139.432,155.108-154.575,259.185
						c-15.14,104.055,11.251,207.922,74.312,292.466c63.067,84.551,155.113,139.453,259.182,154.595l0,0
						c215.166,31.301,415.75-118.291,447.063-333.494c15.142-104.077-11.25-207.949-74.312-292.485
						c-63.062-84.536-155.107-139.431-259.184-154.575C3033.523,2012.657,3014.344,2011.277,2995.298,2011.277z"/>
				</g>
			</g>
		</g>
		<g style="opacity:0.55;">
			<g>
				<g>
					<path style="fill:#FFFFFF;" d="M2535.224,1504.553l-922.775,133.295l4.137,12.355c4.3,12.899,17.253,20.846,30.698,18.886
						l897.629-129.648L2535.224,1504.553z"/>
				</g>
			</g>
		</g>
		<g style="opacity:0.55;">
			<g>
				<g>
					<path style="fill:#FFFFFF;" d="M2623.493,1651.835c-2.885-12.3-13.825-20.791-26.18-20.791c-1.306,0-2.612,0.054-3.919,0.272
						l-11.593,1.687l4.245,18.124l-720.846,751.217l8.055,1.797c23.404,5.062,47.734-2.395,64.334-19.649l679.154-707.838
						C2623.057,1670.068,2625.615,1660.707,2623.493,1651.835z"/>
				</g>
			</g>
			<g>
				<g>
					<polygon style="fill:#FFFFFF;" points="1798.852,2454.705 1175.105,2380.846 1182.235,2371.539 1758.031,2439.737 
						1534.059,1770.108 1586.8,1820.889 					"/>
				</g>
			</g>
			<g>
				<g>
					<path style="fill:#FFFFFF;" d="M1015.957,2391.405c-13.171,17.09-16.111,39.896-7.728,59.762
						c3.701,8.709,9.362,16.328,16.274,22.316l-8.981-1.089c-21.391-2.503-39.732-16.328-48.114-36.195
						c-8.382-19.866-5.443-42.671,7.728-59.762l530.783-690.312l-26.559-79.409c-3.066-9.168,1.883-19.085,11.052-22.147
						l15.344-5.123l34.671,102.814c3.919,11.757,1.796,24.711-5.77,34.562L1015.957,2391.405z"/>
				</g>
			</g>
		</g>
		<g>
			<g>
				<path style="fill:#102770;" d="M1529.47,1740.339l35.66,84.447c3.547,8.401-0.387,18.087-8.787,21.634
					c-8.401,3.547-18.087-0.387-21.635-8.788c-0.646-1.53-1.047-3.179-1.216-4.749l-9.297-91.196
					c-0.154-1.511,0.947-2.863,2.46-3.016C1527.886,1738.546,1529.011,1739.256,1529.47,1740.339z"/>
			</g>
		</g>
		<g>
			<g>
				<path style="fill:#102770;" d="M1634.593,1757.802l-9.628-66.698c-0.219-1.518,0.835-2.927,2.354-3.147
					c1.132-0.164,2.203,0.382,2.766,1.298l35.222,57.452c4.812,7.85,2.35,18.115-5.5,22.927c-7.849,4.812-18.114,2.35-22.927-5.499
					C1635.671,1762.163,1634.913,1759.955,1634.593,1757.802z"/>
			</g>
		</g>
		<g>
			<g>
				<path style="fill:#102770;" d="M1842.353,2592.298c-3.158,0-6.069-0.159-8.899-0.486l-822.233-97.324
					c-27.116-3.174-50.59-20.823-61.239-46.062c-10.648-25.237-6.879-54.387,9.839-76.079l525.475-683.408l-23.804-71.167
					c-5.89-17.776,3.716-36.97,21.396-42.83l80.292-26.873c17.775-5.894,36.975,3.716,42.833,21.396l16.503,49.292l891.704-128.826
					l-3.337-11.541c-1.21-4.185-0.698-8.677,1.421-12.483c2.119-3.804,5.671-6.604,9.865-7.778l115.333-32.275
					c8.629-2.402,17.588,2.576,20.083,11.177l102.76,354.707c1.216,4.185,0.706,8.682-1.414,12.488
					c-2.119,3.809-5.671,6.611-9.866,7.786l-115.334,32.278c-8.624,2.405-17.585-2.571-20.082-11.172l-2.404-8.279l-713.894,744.038
					C1883.009,2583.77,1862.97,2592.298,1842.353,2592.298z M1573.93,1578.98c-0.142,0-0.287,0.024-0.433,0.073l-80.288,26.87
					c-0.656,0.217-0.951,0.872-0.731,1.533l26.545,79.368c1.724,5.151,0.771,10.823-2.54,15.132l-530.784,690.312
					c-9.558,12.4-11.71,29.048-5.629,43.462c6.088,14.426,19.486,24.512,34.967,26.323l822.213,97.322
					c1.528,0.178,3.212,0.266,5.103,0.266c11.792,0,23.257-4.883,31.456-13.396l733.451-764.422
					c4.039-4.207,10.016-5.942,15.681-4.551c5.664,1.394,10.155,5.703,11.782,11.304l5.779,19.905l83.888-23.477l-30.84-106.36
					c-0.003-0.002-0.003-0.007-0.003-0.01l-62.823-216.973l-83.894,23.479l3.971,13.733c1.311,4.536,0.594,9.419-1.966,13.389
					c-2.56,3.967-6.712,6.633-11.385,7.307l-923.755,133.457c-7.799,1.162-15.313-3.491-17.819-10.977l-20.846-62.266
					C1574.86,1579.273,1574.427,1578.98,1573.93,1578.98z M1755.652,2461.944c-0.638,0-1.281-0.037-1.923-0.112l-623.748-73.86
					c-5.834-0.691-10.846-4.463-13.127-9.875c-2.28-5.415-1.478-11.636,2.103-16.292l417.41-542.92
					c3.679-4.785,9.696-7.148,15.647-6.152c5.952,0.999,10.868,5.2,12.782,10.923l206.338,616.78
					c1.775,5.303,0.712,11.148-2.819,15.486C1765.196,2459.756,1760.53,2461.944,1755.652,2461.944z M1162.366,2358.921
					l569.628,67.451l-188.435-563.264L1162.366,2358.921z M1867.716,2419.544c-1.19,0-2.39-0.129-3.578-0.396
					c-5.577-1.255-10.094-5.332-11.907-10.752l-217.767-650.96c-1.536-4.59-0.956-9.626,1.583-13.748s6.776-6.902,11.567-7.593
					l918.801-132.698c8.064-1.165,15.743,3.784,18.014,11.604l11.811,40.659c1.628,5.603,0.142,11.65-3.898,15.859l-712.845,742.998
					C1876.385,2417.767,1872.113,2419.544,1867.716,2419.544z M1671.639,1765.62l202.994,606.802l687.619-716.704l-5.22-17.969
					L1671.639,1765.62z"/>
			</g>
		</g>
		<g>
			<g>
				<path style="fill:#102770;" d="M2552.958,1623.708l-2.787-64.144c-0.067-1.537,1.124-2.837,2.661-2.903
					c1.124-0.049,2.123,0.578,2.603,1.52l29.108,57.228c4.183,8.225,0.907,18.284-7.318,22.467
					c-8.224,4.183-18.284,0.907-22.467-7.318C2553.652,1628.384,2553.068,1625.997,2552.958,1623.708z"/>
			</g>
		</g>
		<g>
			<g>
				<path style="fill:#102770;" d="M2603.446,1797.962l-5.616-64.115c-0.134-1.532,0.999-2.882,2.531-3.016
					c1.122-0.099,2.147,0.486,2.668,1.406l31.611,56.062c4.532,8.037,1.691,18.226-6.346,22.757
					c-8.037,4.531-18.226,1.691-22.758-6.346C2604.34,1802.59,2603.654,1800.239,2603.446,1797.962z"/>
			</g>
		</g>
		<g>
			<g>
				<g>
					<path style="fill:#61ED46;" d="M3001.427,2471.463c-17.609,0-34.624-9.52-43.388-26.183l-279.47-530.993
						c-12.603-23.94-3.407-53.562,20.533-66.159c23.945-12.603,53.567-3.407,66.159,20.533l279.47,530.993
						c12.603,23.94,3.407,53.562-20.533,66.159C3016.921,2469.645,3009.118,2471.463,3001.427,2471.463z"/>
				</g>
			</g>
		</g>
		<g style="opacity:0.3;">
			<g>
				<g>
					<g>
						<path style="fill:#262F6A;" d="M3024.206,2465.808c-7.293,3.81-15.076,5.66-22.806,5.66c-17.58,0-34.616-9.525-43.379-26.179
							l-27.595-52.469c9.361,12.628,24.112,19.703,39.243,19.703c7.674,0,15.511-1.85,22.805-5.66
							c23.894-12.628,33.092-42.236,20.52-66.185L2761.155,1862.2c1.524,2.014,2.885,4.191,4.082,6.477l279.489,531.001
							C3057.352,2423.572,3048.154,2453.236,3024.206,2465.808z"/>
					</g>
				</g>
				<g>
					<g>
						<path style="fill:#102770;" d="M3001.399,2473.968c-19.19,0-36.66-10.542-45.591-27.515l-27.595-52.468l4.221-2.654
							c8.677,11.704,22.597,18.692,37.234,18.692c7.429,0,14.915-1.858,21.648-5.376c22.629-11.958,31.367-40.134,19.463-62.805
							l-251.836-478.477l4.207-2.673c1.572,2.08,3.02,4.377,4.302,6.826l279.485,530.996c6.416,12.141,7.708,26.067,3.635,39.207
							c-4.075,13.147-13.025,23.909-25.203,30.302l-0.005,0.003C3017.81,2471.968,3009.749,2473.968,3001.399,2473.968z
							 M2939.951,2405.564l20.281,38.56c8.064,15.325,23.838,24.844,41.167,24.844c7.534,0,14.817-1.809,21.65-5.374
							c10.989-5.771,19.067-15.486,22.747-27.356c3.677-11.861,2.512-24.429-3.281-35.393l-21.528-40.901
							c1.318,19.712-8.802,39.329-27.346,49.128c-7.453,3.894-15.74,5.95-23.972,5.95
							C2958.931,2415.022,2948.538,2411.626,2939.951,2405.564z"/>
					</g>
				</g>
			</g>
		</g>
		<g style="opacity:0.55;">
			<g>
				<g>
					<path style="fill:#FFFFFF;" d="M2974.458,2463.359c-6.749-4.354-12.464-10.45-16.438-18.07l-279.434-531.001
						c-12.627-23.949-3.429-53.558,20.52-66.185c23.948-12.573,53.557-3.375,66.13,20.573l6.204,11.811
						c-14.368-9.47-33.364-10.994-49.638-2.449c-23.948,12.627-33.147,42.236-20.574,66.185L2974.458,2463.359z"/>
				</g>
			</g>
		</g>
		<g>
			<g>
				<g>
					<path style="fill:#102770;" d="M3001.426,2487.791c-24.351,0-46.514-13.377-57.839-34.907l-279.469-530.991
						c-8.126-15.437-9.753-33.115-4.581-49.778c5.171-16.663,16.521-30.313,31.958-38.438c15.445-8.125,33.123-9.749,49.783-4.583
						c16.665,5.173,30.313,16.523,38.433,31.965l279.468,530.989c8.128,15.437,9.756,33.115,4.585,49.778
						c-5.174,16.663-16.524,30.313-31.963,38.438C3022.456,2485.186,3011.948,2487.791,3001.426,2487.791z M2721.88,1858.802
						c-5.229,0-10.415,1.27-15.176,3.774c-7.72,4.063-13.394,10.889-15.979,19.219c-2.586,8.33-1.773,17.168,2.29,24.888
						l279.47,530.994c5.667,10.769,16.756,17.458,28.941,17.458c5.315,0,10.415-1.267,15.161-3.767
						c7.725-4.065,13.398-10.891,15.984-19.221c2.585-8.33,1.772-17.168-2.29-24.888l-279.47-530.994
						c-4.063-7.722-10.884-13.396-19.214-15.979C2728.404,1859.292,2725.132,1858.802,2721.88,1858.802z"/>
				</g>
			</g>
		</g>
		<g style="opacity:0.3;">
			<g>
				<g>
					<path style="fill:#262F6A;" d="M1776.986,2493.35l-21.1,72.85l-343.4-40.65c3.3-1.5,7.301-2.8,12.1-3.8
						c102.6-21.6,62.4-107.95,62.4-107.95s0,0,0.05,0l252,29.85C1755.886,2462.3,1776.986,2493.35,1776.986,2493.35z"/>
				</g>
			</g>
			<g>
				<g>
					<path style="fill:#102770;" d="M1757.697,2568.931l-354.402-41.95l8.157-3.706c3.621-1.646,7.869-2.981,12.625-3.972
						c31.156-6.558,51.925-19.802,61.725-39.363c14.943-29.829-0.92-64.736-1.083-65.085l-1.648-3.552l3.915-0.002l253.275,29.978
						l0.63,0.698c16.771,18.562,37.95,49.658,38.163,49.968l0.66,0.974L1757.697,2568.931z M1424.115,2524.41l329.958,39.058
						l20.182-69.678c-3.654-5.313-21.678-31.252-36.45-47.766l-246.897-29.248c3.937,10.449,12.469,39.199-0.62,65.368
						c-10.509,21.011-32.441,35.159-65.188,42.053C1424.77,2524.265,1424.441,2524.336,1424.115,2524.41z"/>
				</g>
			</g>
		</g>
		<g>
			<g>
				<circle style="fill:#4A83FF;" cx="2709.285" cy="1321.203" r="56.242"/>
			</g>
		</g>
		<g style="opacity:0.55;">
			<g>
				<path style="fill:#FFFFFF;" d="M2751.793,1284.391c-5.77-2.015-11.92-3.103-18.343-3.103c-31.078,0-56.279,25.2-56.279,56.224
					c0,14.097,5.171,26.997,13.771,36.848c-22.043-7.566-37.882-28.52-37.882-53.176c0-31.024,25.146-56.224,56.225-56.224
					C2726.266,1264.96,2741.506,1272.471,2751.793,1284.391z"/>
			</g>
		</g>
		<g>
			<g>
				<path style="fill:#102770;" d="M2709.285,1393.772c-40.016,0-72.571-32.556-72.571-72.571s32.555-72.568,72.571-72.568
					c40.015,0,72.571,32.554,72.571,72.568S2749.3,1393.772,2709.285,1393.772z M2709.285,1281.289
					c-22.009,0-39.914,17.905-39.914,39.912c0,22.009,17.905,39.915,39.914,39.915c22.009,0,39.915-17.905,39.915-39.915
					C2749.2,1299.195,2731.294,1281.289,2709.285,1281.289z"/>
			</g>
		</g>
		<g>
			<g>
				<circle style="fill:#ACBAC9;" cx="1835.713" cy="2507.743" r="171.318"/>
			</g>
			<g>
				<path style="fill:#102770;" d="M1835.713,2681.56c-95.844,0-173.818-77.973-173.818-173.818s77.975-173.819,173.818-173.819
					s173.817,77.974,173.817,173.819S1931.557,2681.56,1835.713,2681.56z M1835.713,2338.924
					c-93.087,0-168.818,75.732-168.818,168.819c0,93.086,75.731,168.818,168.818,168.818c93.086,0,168.817-75.732,168.817-168.818
					C2004.53,2414.656,1928.799,2338.924,1835.713,2338.924z"/>
			</g>
		</g>
		<g style="opacity:0.3;">
			<g>
				<g>
					<path style="fill:#262F6A;" d="M2007.036,2507.75c0,94.6-76.7,171.3-171.3,171.3c-80.15,0-147.45-55-166.15-129.351
						c30.699,46,83.05,76.3,142.5,76.3c94.6,0,171.3-76.7,171.3-171.3c0-14.6-1.851-28.75-5.25-42.25
						C1996.386,2439.7,2007.036,2472.5,2007.036,2507.75z"/>
				</g>
			</g>
			<g>
				<g>
					<path style="fill:#102770;" d="M1835.735,2681.551c-79.819,0-149.139-53.967-168.574-131.24l-3.53-14.035l8.033,12.039
						c31.42,47.078,83.914,75.185,140.421,75.185c93.076,0,168.8-75.722,168.8-168.799c0-13.994-1.741-28.006-5.175-41.641
						l-3.521-13.979l8.022,11.978c19.183,28.643,29.323,62.08,29.323,96.692C2009.535,2603.584,1931.569,2681.551,1835.735,2681.551
						z M1676.105,2562.881c23.229,67.603,86.947,113.67,159.63,113.67c93.076,0,168.8-75.725,168.8-168.801
						c0-28.799-7.225-56.756-21.008-81.668c1.567,9.468,2.358,19.045,2.358,28.618c0,95.833-77.966,173.799-173.8,173.799
						C1758.789,2628.499,1708.962,2604.217,1676.105,2562.881z"/>
				</g>
			</g>
		</g>
		<path style="opacity:0.55;fill:#FFFFFF;" d="M1992.134,2431.858c-29.338-60.422-89.268-97.959-156.398-97.959
			c-95.862,0-173.851,77.988-173.851,173.85c0,41.335,14.756,81.37,41.55,112.725l12.804,14.983l-8.657-17.705
			c-11.244-22.998-16.946-47.813-16.946-73.752c0-93.105,75.746-168.85,168.851-168.85c49.526,0,96.362,21.658,128.496,59.421
			l12.738,14.968L1992.134,2431.858z"/>
		<g>
			<g>
				<g>
					<circle style="fill:#262F6A;" cx="1835.713" cy="2507.743" r="70.75"/>
				</g>
			</g>
			<g>
				<g>
					<path style="fill:#102770;" d="M1835.713,2580.992c-40.391,0-73.251-32.859-73.251-73.25s32.86-73.25,73.251-73.25
						c40.389,0,73.25,32.859,73.25,73.25S1876.103,2580.992,1835.713,2580.992z M1835.713,2439.493
						c-37.633,0-68.251,30.617-68.251,68.25c0,37.632,30.618,68.25,68.251,68.25s68.25-30.618,68.25-68.25
						C1903.963,2470.11,1873.346,2439.493,1835.713,2439.493z"/>
				</g>
			</g>
		</g>
		<g>
			<g>
				<path style="fill:#102770;" d="M1835.713,2695.389c-103.469,0-187.646-84.177-187.646-187.646
					c0-103.469,84.177-187.646,187.646-187.646c103.468,0,187.645,84.177,187.645,187.646
					C2023.359,2611.211,1939.181,2695.389,1835.713,2695.389z M1835.713,2352.752c-85.461,0-154.99,69.529-154.99,154.99
					s69.529,154.99,154.99,154.99s154.989-69.529,154.989-154.99S1921.175,2352.752,1835.713,2352.752z"/>
			</g>
		</g>
		<g>
			<g>
				<path style="fill:#4A83FF;" d="M1953.163,2792.3L1953.163,2792.3c-18.028,7.534-38.75-0.973-46.284-19.001l-105.282-251.927
					c-7.534-18.028,0.973-38.75,19.001-46.284h0c18.028-7.534,38.75,0.973,46.284,19.001l105.282,251.927
					C1979.698,2764.043,1971.191,2784.765,1953.163,2792.3z"/>
			</g>
		</g>
		<g>
			<g>
				<path style="fill:#102770;" d="M1939.59,2811.365c-20.242,0-39.496-11.958-47.777-31.77l-105.282-251.927
					c-10.992-26.306,1.465-56.653,27.77-67.646c12.744-5.325,26.798-5.371,39.575-0.125c12.776,5.244,22.745,15.152,28.071,27.896
					l105.282,251.926c10.994,26.306-1.464,56.653-27.77,67.647l0,0C1952.967,2810.079,1946.225,2811.365,1939.59,2811.365z
					 M1953.163,2792.3h0.05H1953.163z M1834.239,2488.67c-2.49,0-4.978,0.495-7.345,1.484c-9.691,4.05-14.281,15.229-10.231,24.922
					l105.282,251.926c4.049,9.69,15.227,14.285,24.922,10.232c9.692-4.05,14.281-15.229,10.231-24.922l-105.282-251.927
					c-1.962-4.697-5.635-8.347-10.342-10.278C1839.14,2489.148,1836.689,2488.67,1834.239,2488.67z"/>
			</g>
		</g>
		<g>
			<g>
				<path style="fill:#4A83FF;" d="M1973.739,2740.587l18.515,38.206c3.802,7.845,0.524,17.287-7.321,21.089l-70.774,34.298
					c-7.845,3.802-17.287,0.524-21.089-7.321l-18.515-38.206c-3.802-7.845-0.524-17.287,7.321-21.089l70.774-34.298
					C1960.495,2729.465,1969.937,2732.742,1973.739,2740.587z"/>
			</g>
		</g>
		<g>
			<g>
				<path style="fill:#102770;" d="M1907.326,2852.085c-11.93,0-23.408-6.67-28.95-18.105l-18.514-38.206
					c-7.722-15.93-1.042-35.178,14.89-42.903l70.778-34.299c15.936-7.717,35.184-1.04,42.903,14.892l18.516,38.208
					c7.721,15.933,1.041,35.178-14.89,42.903l-70.778,34.299C1916.781,2851.052,1912.019,2852.085,1907.326,2852.085z
					 M1889.485,2782.019l18.042,37.229l69.796-33.821l-18.042-37.229L1889.485,2782.019z M1977.56,2785.916h0.05H1977.56z
					 M1959.045,2747.708c0,0,0.001,0.002,0.002,0.005L1959.045,2747.708L1959.045,2747.708z"/>
			</g>
		</g>
		<g>
			<g>
				<path style="fill:#102770;" d="M1822.093,2353.34c-0.005,0-0.01,0-0.015,0l-663.026-0.588
					c-9.017-0.007-16.322-7.324-16.313-16.343c0.007-9.014,7.317-16.313,16.328-16.313c0.005,0,0.01,0,0.015,0l663.026,0.588
					c9.017,0.007,16.322,7.324,16.313,16.343C1838.413,2346.04,1831.104,2353.34,1822.093,2353.34z"/>
			</g>
		</g>
		<g>
			<g>
				<path style="fill:#102770;" d="M1798.866,2691.375c-1.232,0-2.482-0.142-3.733-0.435l-815.387-190.705
					c-8.782-2.053-14.235-10.835-12.181-19.617c2.054-8.779,10.844-14.248,19.618-12.18l815.387,190.705
					c8.782,2.053,14.235,10.835,12.181,19.617C1812.99,2686.289,1806.28,2691.375,1798.866,2691.375z"/>
			</g>
		</g>
	</g>
</g>
</svg>
