<?xml version="1.0" encoding="utf-8"?>
<!-- Generator: Adobe Illustrator 27.5.0, SVG Export Plug-In . SVG Version: 6.00 Build 0)  -->
<svg version="1.1" id="Layer_1" xmlns="http://www.w3.org/2000/svg" xmlns:xlink="http://www.w3.org/1999/xlink" x="0px" y="0px"
	 viewBox="0 0 4000 4000" style="enable-background:new 0 0 4000 4000;" xml:space="preserve">
<g>
	<g>
		<!-- <rect style="fill:#BCFA7B;" width="4000" height="4000"/> -->
	</g>
	<g>
		<g>
			<g>
				<path style="fill:#16B768;" d="M1895.053,2492.843c155.496,30.424,260.112-65.346,260.112-65.346
					c195.407,195.131,392.823,23.013,392.823,23.013c332.569,161.252,359.508-198.815,359.508-198.815
					c213.073-12.2,178.289-232.374,178.289-232.374s213.815-74.518,214.517-323.899c0.828-294.002-253.07-333.482-253.07-333.482
					c48.525-201.191-148.771-187.695-148.771-187.695s74.98-172.542-76.632-301.824c-151.612-129.282-302.686-50.635-302.686-50.635
					c-57.285-181.245-253.49-223.069-253.49-223.069s-197.499-35.207-318.869,111.083c0,0-110.293-129.785-299.449-67.177
					s-184.734,250.685-184.734,250.685s-177.66-86.859-208.54,117.784c0,0-250.054-59.122-360.093,213.512
					c-93.338,231.256,76.625,380.863,76.625,380.863s-115.199,190.828,77.563,282.433c0,0-110.752,343.668,258.067,319.648
					c0,0,117.989,233.829,372.529,126.734C1678.75,2334.283,1739.556,2462.419,1895.053,2492.843z"/>
			</g>
			<g style="opacity:0.25;">
				<path style="fill:#390175;" d="M3300.301,1695.422c0.39-138.457-55.716-220.436-115.19-268.456
					c3.884,21.419,6.077,44.768,6.005,70.389c-0.619,219.848-189.112,285.542-189.112,285.542s30.664,194.099-157.175,204.855
					c0,0-20.827,277.708-263.516,197.188c10.64-3.646,21.441-7.681,32.51-12.388c0,0-280.114-54.807-158.492-272.612
					c0,0-103.209,88.584-298.886,93.81c0,0,92.525,207.084,297.382,212.386c-66.722,26.696-169.786,38.901-272.234-63.402
					c0,0-92.226,84.428-229.309,57.607c-137.082-26.821-190.687-139.782-190.687-139.782
					c-133.45,56.148-224.314,5.999-276.055-43.875c191.748,72.296,355.497-84.645,355.497-84.645
					c-179.278-78.589-241.491-199.539-241.491-199.539C1630.113,1980.084,1350,1925.277,1350,1925.277
					c8.48,8.532,16.962,16.34,25.444,23.727c-255.139-16.886-169.767-281.963-169.767-281.963
					c-169.934-80.757-68.378-248.986-68.378-248.986s-149.836-131.891-67.551-335.76c9.59-23.759,20.42-44.558,32.091-62.934
					c-73.185,22.064-156.051,76.852-207.872,205.245c-93.338,231.255,76.625,380.863,76.625,380.863
					s-115.199,190.829,77.564,282.433c0,0-110.753,343.669,258.067,319.649c0,0,117.988,233.829,372.528,126.733
					c0,0,60.806,128.136,216.303,158.56c155.497,30.424,260.113-65.346,260.113-65.346
					c195.406,195.131,392.822,23.013,392.822,23.013c332.57,161.252,359.508-198.816,359.508-198.816
					c213.073-12.199,178.29-232.374,178.29-232.374S3299.599,1944.803,3300.301,1695.422z"/>
			</g>
			<g>
				<g style="opacity:0.6;">
					<path style="fill:#FFFFFF;" d="M1033.443,1971.455c-2.757,40.739,0.594,90.048,22.347,133.22
						c-0.656-60.819,15.509-111.219,15.509-111.219C1056.974,1986.648,1044.54,1979.239,1033.443,1971.455z"/>
				</g>
				<g style="opacity:0.6;">
					<path style="fill:#FFFFFF;" d="M917.111,1330.159c75.994-188.284,218.768-218.339,299.839-218.914
						c33.587-0.238,62.66-21.034,75.37-52.124c27.803-68.009,80.031-81.067,123.213-78.207
						c37.099,2.457,71.547-21.715,82.232-57.326c17.902-59.673,62.373-138.889,172.714-175.409
						c116.434-38.538,202.988-4.179,252.33,27.936c28.115,18.299,65.12,16.71,91.37-4.177
						c119.738-95.275,274.619-67.664,274.619-67.664s153.868,32.798,228.868,166.175c16.442,29.24,50.12,44.658,83.058,38.305
						c57.807-11.151,150.927-10.355,244.25,69.224c34.699,29.588,57.428,61.438,72.005,92.972
						c-0.387-59.166-19.707-134.195-95.15-198.526c-151.612-129.281-302.685-50.635-302.685-50.635
						c-57.286-181.245-253.491-223.069-253.491-223.069S2068.153,563.51,1946.783,709.8c0,0-110.293-129.784-299.45-67.177
						C1458.177,705.231,1462.6,893.309,1462.6,893.309s-177.661-86.86-208.541,117.784c0,0-250.054-59.122-360.093,213.512
						c-42.617,105.587-30.297,194.075-4.373,259.151C887.32,1438.055,894.347,1386.558,917.111,1330.159z"/>
				</g>
			</g>
			<g>
				<g>
					<path style="fill:#390175;" d="M1210.723,1469.374c-19.766-49.942-27.269-107.996-3.189-158.015
						c35.816-69.72,112.762-84.708,177.22-51.374c-11.623-4.749-18.707,6.182-18.156,11.767c-0.244-2.5-0.426-5.269-0.572-7.766
						c-5.976-117.043,83.376-160.69,187.056-134.65c15.627,3.984,12.402,26.869-3.68,26.371
						c-34.359-0.625-68.442-0.104-97.837,15.815c-27.01,15.05-37.832,42.006-38.955,73.704c-0.431,8.888,0.47,17.966,0.938,26.885
						c0.003,9.853-4.87,19.894-12.554,26.001c-9.744,8.397-25.593,10.129-37.283,3.728c-14.791-7.622-32.044-13.069-48.335-13.173
						c-29.444-1.014-57.056,16.556-71.873,41.824c-15.882,26.838-18.239,64.172-14.875,96.287
						c1.178,11.514,3.088,23.891,5.725,34.941C1237.724,1476.481,1216.696,1483.369,1210.723,1469.374L1210.723,1469.374z"/>
				</g>
				<g>
					<path style="fill:#390175;" d="M2010.958,1225.204c73.538-25.115,158.33-15.614,222.952,29.548
						c56.947,39.592,93.271,106.646,104.902,173.448c2.005,11.34-5.561,22.158-16.902,24.162
						c-10.165,1.801-19.931-4.107-23.267-13.516c-11.199-30.51-24.126-59.512-40.769-85.527c-3.247-5.484-9.51-13.564-13.171-18.884
						c-33.237-43.112-79.738-71.995-133.435-84.765c-31.335-7.536-64.949-10.512-97.261-9.209
						C2005.275,1240.83,2002.67,1228.242,2010.958,1225.204L2010.958,1225.204z"/>
				</g>
				<g>
					<path style="fill:#390175;" d="M2176.654,1489.372c29.431-41.596,74.471-71.433,124.709-81.722
						c85.706-18.306,171.665,34.373,214.648,105.929c8.094,13.197-8.448,27.94-20.574,18.495
						c-44.311-34.499-91.406-68.028-146.63-73.672c-49.899-5.82-101.102,15.693-142.183,44.085c-3.566,2.35-6.792,4.85-9.976,6.916
						C2183.683,1518.182,2167.885,1502.173,2176.654,1489.372L2176.654,1489.372z"/>
				</g>
				<g>
					<path style="fill:#390175;" d="M2817.325,1426.804c44.438,0.084,91.813,22.039,108.867,65.46
						c16.751,41.461,7.133,88.323-6.237,128.691c0,0-9.39-29.221-9.39-29.221c47.563,34.884,76.594,98.288,46.127,153.938
						c-8.615,16.641-20.099,30.603-32.574,42.695c-5.439,5.273-14.124,5.139-19.397-0.3c-4.954-5.107-5.13-13.087-0.635-18.396
						c12.188-14.693,21.393-29.917,26.152-47.346c10.14-35.94-14.441-70.509-44.166-89.082c-0.575-0.344-1.486-0.908-1.567-0.896
						l-9.39-29.224c7.605-16.492,13.918-33.362,17.6-50.239c13.688-58.851-19.314-95.658-76.712-103.225
						C2801.86,1447.838,2803.02,1426.996,2817.325,1426.804L2817.325,1426.804z"/>
				</g>
			</g>
			<g>
				<path style="fill:#390175;" d="M2358.743,2551.887c-60.996,0-133.145-19.444-205.618-83.35
					c-41.877,28.896-137.378,79.844-264.087,55.044c-126.724-24.795-195.972-107.964-223.867-150.517
					c-131.775,46.055-227.969,6.406-286.69-36.748c-45.652-33.56-75.183-73.74-89.673-96.552
					c-111.14,3.677-191.797-25.679-239.888-87.388c-64.385-82.607-48.716-197.51-37.341-248.342
					c-50.566-29.382-83.54-68.799-98.164-117.441c-21.216-70.574,3.201-140.723,19.031-175.288
					c-16.824-18.616-42.698-51.438-63.572-96.343c-30.737-66.121-56.372-172.202-3.953-302.075
					c61.76-153.02,166.055-208.25,242.671-227.637c49.275-12.466,93.345-11.973,121.536-9.385
					c13.918-55.803,41.091-94.6,81.013-115.544c43.323-22.722,91.179-18.005,124.394-9.717
					c12.639-78.889,64.395-191.851,202.957-237.712c154.768-51.235,261.641,13.796,307.747,52.266
					c131.443-130.066,317.605-98.753,325.908-97.273c0.347,0.061,0.691,0.129,1.035,0.203c8.254,1.76,192.485,42.925,265.212,212.93
					c57.205-18.254,180.696-38.213,304.756,67.573c111.06,94.702,116.423,218.84,98.396,296.677
					c33.894,4.836,79.998,18.503,111.56,55.881c29.084,34.446,39.631,80.623,31.492,137.556c27.09,8.232,68.098,24.38,109.038,54.5
					c63.66,46.833,139.448,137.297,138.984,302.307c-0.393,140.056-64.121,228.652-117.51,278.315
					c-36.26,33.726-72.595,54.375-95.195,65.278c1.636,37.984-2.188,112.158-48.438,169.531
					c-31.877,39.546-77.273,63.628-135.186,71.787c-8.621,51.372-37.415,163.706-128.186,215.957
					c-67.795,39.023-153.562,35.82-255.134-9.468c-22.019,15.664-64.521,41.758-119.448,55.635
					C2410.78,2548.039,2385.858,2551.882,2358.743,2551.887z M2155.196,2396.218c8.022,0,16.023,3.047,22.1,9.116
					c171.794,171.553,342.971,27.715,350.176,21.509c9.465-8.159,22.942-9.961,34.18-4.517
					c89.404,43.35,161.406,50.039,214.006,19.878c88.513-50.752,100.498-191.479,100.608-192.896
					c1.223-15.62,13.799-27.988,29.438-28.882c52.046-2.979,91.074-20.176,116.006-51.104
					c45.601-56.567,33.276-144.243,33.137-145.112c-2.363-14.966,6.323-29.478,20.63-34.463
					c7.783-2.771,192.876-71.191,193.503-294.414c0.315-111.379-37.861-196.055-113.464-251.675
					c-56.541-41.597-112.537-50.684-113.096-50.771c-8.652-1.343-16.343-6.248-21.213-13.523s-6.475-16.257-4.421-24.768
					c12.19-50.542,8.027-88.508-12.373-112.839c-33.613-40.088-103.225-36.299-103.921-36.257
					c-10.903,0.684-21.375-4.363-27.627-13.289s-7.473-20.454-3.13-30.449c2.6-6.108,63.242-153.401-68.228-265.508
					c-132.854-113.281-262.578-49.394-268.032-46.619c-8.206,4.172-17.893,4.561-26.379,0.999
					c-8.486-3.557-15.044-10.635-17.817-19.409c-49.473-156.523-218.506-199.119-229.658-201.76
					c-10.969-1.709-183.818-26.126-288.733,100.334c-5.908,7.124-14.665,11.267-23.918,11.323
					c-9.285-0.137-18.059-3.984-24.053-11.037c-3.916-4.517-99.997-112.586-265.74-57.727
					c-164.028,54.29-163.372,213.574-163.264,220.33c0.176,10.893-5.322,21.152-14.517,26.997
					c-9.199,5.837-20.764,6.545-30.554,1.76c-0.535-0.256-63.594-30.005-109.824-5.535c-28.066,14.849-46.231,48.447-53.989,99.856
					c-1.306,8.657-6.177,16.372-13.428,21.274c-7.258,4.902-16.24,6.536-24.749,4.534c-9.06-2.075-225.591-48.669-323.843,194.756
					c-83.545,206.997,62.112,340.129,68.352,345.693c11.25,10.034,13.835,26.726,6.045,39.631
					c-0.41,0.691-45.208,77.063-23.899,147.234c11.504,37.891,41.143,68.413,88.091,90.725
					c14.187,6.741,21.187,22.947,16.367,37.896c-0.413,1.304-42.351,136.169,20.505,216.541
					c37.354,47.759,106.587,68.711,205.715,62.246c12.549-0.806,24.338,5.933,29.997,17.143
					c4.295,8.389,108.609,206.128,332.422,111.978c15.442-6.514,33.264,0.302,40.442,15.439
					c2.205,4.556,56.812,114.404,194.019,141.25c137.214,26.836,229.189-54.321,233.04-57.793
					C2140.098,2398.913,2147.657,2396.218,2155.196,2396.218z"/>
			</g>
			<g>
				<path style="fill:#89EA7F;" d="M2252.068,2864.63c-1.255,81.287-57.275,151.858-136.548,170.849
					c-72.193,17.292-177.561,23.854-325.701-5.13c-147.956-28.949-243.079-74.738-303.618-118.001
					c-66.084-47.431-91.375-133.911-61.902-209.677c3.451-8.769,6.68-17.389,9.908-26.009l0.44-1.263
					c164.891-436.884,115.08-638.413,115.08-638.413c65.269-5.54,117.115-18.333,157.007-33.079l0.63-0.261
					c76.524-28.588,109.725-64.304,112.68-67.581l0.222-0.15c0,0,0.23,1.78,0.391,4.895c8.115,130.921,1.37,336.804,1.37,336.804
					c49.144-206.84,64.108-327.655,64.108-327.655c60.043,22.157,109.084,30.596,109.084,30.596s48.606,10.666,112.57,12.772
					c0,0-31.487,117.582-64.108,327.655c0,0,69.157-202.731,126.463-320.274c0,0,24.056,66.193,116.691,137.516
					c27.132,20.921,59.977,42.189,99.943,62.537C2386.778,2200.761,2259.484,2375.542,2252.068,2864.63z"/>
			</g>
			<g style="opacity:0.25;">
				<path style="fill:#390175;" d="M2252.068,2864.63c-1.255,81.287-57.275,151.858-136.548,170.849
					c-72.193,17.292-177.561,23.854-325.701-5.13c-147.956-28.949-243.079-74.738-303.618-118.001
					c-66.084-47.431-91.375-133.911-61.902-209.677c3.451-8.769,6.68-17.389,9.908-26.009l0.44-1.263l0.259-0.335
					c0,0,32.03,110.157,158.253,114.23c126.224,4.073,113.575-785.387,113.575-785.387l0.63-0.261l112.68-67.581l0.222-0.15
					c0,0,0.23,1.78,0.391,4.895c2.692,31.559,16.218,205.75,1.37,336.804c-16.127,144.488-100.171,450.895-5.394,493.532
					c94.592,42.601,178.587-790.591,178.587-790.591l112.57,12.772l-64.108,327.655c0,0-118.437,492.038-41.747,520.729
					c76.839,28.911,145-474.12,280.772-697.163c1.401-2.232,2.765-4.278,4.129-6.324c27.132,20.921,59.977,42.189,99.943,62.537
					C2386.778,2200.761,2259.484,2375.542,2252.068,2864.63z"/>
			</g>
			<g>
				<g>
					<path style="fill:#390175;" d="M2118.314,1962.661c85.093,7.973,172.354-4.928,252.9-33.366
						c27.656-9.374,54.058-22.022,80.281-35.419c3.544-2.009,8.116-0.682,9.963,2.974c1.653,3.237,0.613,7.141-2.292,9.158
						c-49.266,35.281-103.993,64.02-161.526,83.655c-58.778,20.298-120.819,33.677-183.286,35.516
						c-18.02,0.761-33.286-13.721-33.03-31.839C2081.34,1974.08,2099.413,1959.155,2118.314,1962.661L2118.314,1962.661z"/>
				</g>
				<g>
					<path style="fill:#390175;" d="M1868.179,1977.011c-71.184-31.623-134.933-78.67-189.851-133.388
						c-10.488-11.148-21.228-21.932-30.847-33.78c-20.11-22.839-37.375-47.932-53.772-73.167c-2.161-3.328-1.218-7.773,2.107-9.934
						c3.049-1.98,7.041-1.353,9.348,1.328c35.353,42.26,75.857,79.202,121.006,110.488c49.98,33.694,104.08,62.133,161.904,79.056
						c17.007,3.64,27.842,20.375,24.202,37.382C1908.322,1974.617,1886.21,1985.457,1868.179,1977.011L1868.179,1977.011z"/>
				</g>
				<g>
					<path style="fill:#390175;" d="M2396.976,2171.235c59.531,18.883,125.28,12.978,186.499,2.811
						c9.594-1.674,19.144-3.777,28.994-5.345c4.333-0.771,6.75,5.323,2.951,7.666c-8.33,5.408-16.863,10.603-25.534,15.669
						c-58.973,31.835-127.422,50.732-194.905,42.232c-4.146-0.524-8.834-1.41-13.028-2.366
						C2337.702,2222.36,2353.422,2158.752,2396.976,2171.235L2396.976,2171.235z"/>
				</g>
				<g>
					<path style="fill:#390175;" d="M1548.031,2068.334c-43.21-5.743-83.17-27.722-117.652-52.888c0,0-12.156-9.429-12.156-9.429
						c-19.614-15.986-37.398-34.185-53.396-53.674c-6.123-7.961-12.071-15.986-17.744-24.136c-2.631-3.709,2.073-8.526,5.833-5.859
						c24.231,15.456,48.593,31.166,74.202,44.038c38.876,19.728,81.089,36.269,124.235,39.396
						C1592.622,2009.373,1589.548,2069.102,1548.031,2068.334L1548.031,2068.334z"/>
				</g>
			</g>
			<g>
				<path style="fill:#390175;" d="M1795.887,2999.68c97.298,18.67,200.405,27.934,297.583,8.606
					c68.937-10.179,123.278-67.609,126.972-137.623c2.39-127.958,11.401-255.493,35.289-382.057
					c17.87-91.606,41.975-183.702,83.637-268.103c6.668-13.113,13.523-25.781,22.036-38.105c0,0,11.16,46.37,11.16,46.37
					c-70.02-35.638-136.803-82.916-187.109-144.89c-17.583-22.017-34.083-46.049-44.707-72.498
					c-0.018-0.015,57.608,3.088,57.605,3.083c-27.873,48.981-52.911,100.575-76.931,151.909
					c-24.14,51.89-47.385,104.454-69.677,157.288c-1.804,4.336-6.782,6.384-11.116,4.578c-3.496-1.455-5.5-5.007-5.2-8.589
					c2.437-27.822,4.988-55.659,7.866-83.481c8.85-84.063,18.93-167.596,34.306-250.889c-0.004-0.008,29.164,39.429,29.163,39.429
					c-39.484-1.527-78.721-5.654-117.488-13.428c-38.829-7.406-76.742-18.375-113.887-31.843c0,0,41.873-25.532,41.873-25.532
					c-5.391,28.391-11.516,55.301-18.01,83.137c-19.308,81.807-41.589,162.78-65.593,243.269
					c-3.732,13.143-22.995,10.636-23.43-2.83c-1.548-56.912-3.928-113.947-7.146-170.725
					c-3.307-56.637-7.344-113.344-14.102-168.662l54.939,18.379c-19.35,20.738-43.379,36.56-67.793,50.193
					c-68.98,37.53-146.422,54.99-223.845,61.606c0,0,27.813-38.743,27.813-38.743c1.663,7.854,2.962,15.014,3.877,22.722
					c21.009,216.323-53.858,459.534-129.824,660.05c-27.681,67.858-0.085,146.099,62.858,183.195
					C1599.74,2950.021,1698.723,2980.29,1795.887,2999.68L1795.887,2999.68z M1783.858,3061.156
					c-105.973-21.32-209.962-53.321-301.565-113.515c-51.694-31.791-89.311-85.653-98.703-145.877
					c-6.241-37.565-1.873-76.756,12.16-112.14c61.617-160.819,112.618-327.851,127.002-499.531
					c3.349-49.11,5.188-98.569-3.748-146.927c-3.764-18.167,9.615-35.899,28.098-37.322c23.418-1.939,46.645-5.044,69.482-9.487
					c55.714-10.949,110.997-29.543,157.48-62.097c7.838-5.696,15.31-11.492,22.012-18.294c0.249-0.247,0.83-0.894,0.461-0.469
					c-0.002,0.003,54.959,18.371,54.939,18.389c0.452,58.367-2.036,115.61-5.193,172.861c-3.267,57.217-7.38,114.177-12.312,171.211
					l-23.438-3.132c9.59-54.717,18.408-109.567,26.059-164.549c5.685-41.129,10.853-82.259,14.961-123.503
					c1.348-13.594,2.656-27.585,3.545-40.61c1.033-19.339,21.33-32.786,39.534-26.345c34.686,12.583,70.399,23.12,106.675,29.985
					c36.121,7.261,73.132,11.072,109.944,12.383c16.331,0.598,29.082,14.321,28.484,30.652
					c-2.502,16.108-9.892,31.256-14.083,47.552c-20.238,66.226-37.996,133.258-54.462,200.583
					c-6.606,27.01-12.905,54.107-19.094,81.255l-16.318-4.011c15.202-55.675,31.329-110.989,48.569-166.196
					c17.528-55.671,35.673-110.569,57.705-165.02c-0.001-0.001,57.611,3.093,57.605,3.086c1.704,4.393,3.959,8.448,6.15,12.669
					c43.708,76.48,117.425,130.029,195.078,170.14c15.423,7.844,21.566,26.708,13.719,42.131
					c-27.186,42.412-44.972,89.749-60.603,137.705c-51.38,164.444-67.093,338.374-70.63,510.562
					c-0.345,38.049-11.056,76.019-31,108.455c-31.41,52.21-86.531,87.988-146.404,97.919
					C1998.436,3090.906,1890.048,3081.347,1783.858,3061.156L1783.858,3061.156z"/>
			</g>
		</g>
		<g style="opacity:0.25;">
			<ellipse style="fill:#390175;" cx="1946.122" cy="3546.748" rx="804.618" ry="68.252"/>
		</g>
	</g>
</g>
</svg>
