<?xml version="1.0" encoding="utf-8"?>
<!-- Generator: Adobe Illustrator 27.5.0, SVG Export Plug-In . SVG Version: 6.00 Build 0)  -->
<svg version="1.1" id="Layer_1" xmlns="http://www.w3.org/2000/svg" xmlns:xlink="http://www.w3.org/1999/xlink" x="0px" y="0px"
	 viewBox="0 0 4000 4000" style="enable-background:new 0 0 4000 4000;" xml:space="preserve">
<g>
	<g>
		<!-- <rect style="fill:#FF8661;" width="4000" height="4000"/> -->
	</g>
	<g style="opacity:0.2;">
		<ellipse style="fill:#380076;" cx="2059.343" cy="3570.617" rx="905.67" ry="85.831"/>
	</g>
	<g>
		<path style="fill:#D10B3A;" d="M3080.063,1126.546c195.585,547.975-330.174,1340.682-924.023,1737.426
			c-244.766,163.534-501.104,259.735-723.302,243.952c-160.81-13.54-263.786-57.978-320.759-120.524L886.78,2746.303
			c-20.557-22.551-35.075-47.407-44.174-74.065c0,0-0.036-0.039-0.072-0.078c-24.983-72.999-9.082-159.033,36.26-245.675
			c0.003-0.075,0.041-0.111,0.041-0.111c50.592-96.62,137.827-193.977,246.05-274.839
			c410.067-319.095,691.646-675.252,768.837-1090.36c71.315-314.153,253.374-536.905,522.793-518.837
			c56.614,3.805,111.367,18.19,162.301,41.289c0.036,0.039,0.036,0.039,0.111,0.041c57.208,25.937,109.544,62.876,154.174,108.173
			l225.018,240.903C3011.479,986.847,3053.825,1052.979,3080.063,1126.546z"/>
	</g>
	<g>
		<path style="fill:#F7C0A1;" d="M2634.799,1870.088c-651.931,1019.724-1488.11,1174.338-1792.193,802.15
			c0,0-0.036-0.039-0.072-0.078c-52.792-154.376,76.983-367.217,282.351-520.625c410.067-319.095,691.646-675.252,768.837-1090.36
			c71.315-314.153,253.374-536.905,522.793-518.837c56.614,3.805,111.367,18.19,162.301,41.289c0.036,0.039,0.036,0.039,0.111,0.041
			C2895.919,780.558,3053.571,1164.844,2634.799,1870.088z"/>
	</g>
	<g style="opacity:0.6;">
		<path style="fill:#FFFFFF;" d="M3080.063,1126.546c164.694,461.358-182.006,1096.236-650.135,1522.19
			c442.901-424.715,759.964-1031.258,601.087-1476.377c-26.238-73.566-68.584-139.699-121.946-193.801l-225.018-240.903
			c-44.629-45.297-96.965-82.236-154.173-108.174c-0.074-0.002-0.074-0.002-0.111-0.041
			c-50.934-23.099-105.687-37.484-162.301-41.288c-111.881-7.487-208.763,26.539-288.856,91.42
			c88.364-94.208,202.053-146.326,337.904-137.234c56.614,3.805,111.367,18.19,162.301,41.289c0.036,0.039,0.036,0.039,0.111,0.041
			c57.208,25.937,109.544,62.876,154.174,108.173l225.018,240.903C3011.479,986.847,3053.825,1052.979,3080.063,1126.546z"/>
	</g>
	<g>
		<path style="fill:#380076;" d="M1481.178,3130.805c-16.875,0-33.528-0.581-49.946-1.748
			c-157.39-13.247-269.983-56.104-334.927-127.402l-224.997-240.876c-46.575-51.101-67.402-116.804-60.408-190.198
			c13.347-140.059,128.796-307.131,301.296-436.023c440.759-342.993,689.688-695.454,760.676-1077.273
			c0.051-0.276,0.107-0.547,0.168-0.818c80.068-352.693,283.765-552.781,544.9-535.264
			c122.153,8.232,239.438,63.552,330.256,155.769c0.129,0.134,0.259,0.269,0.388,0.405l224.819,240.693
			c56.187,57.024,99.961,126.641,126.609,201.348l-0.002-0.002c60.657,169.946,57.205,367.629-10.264,587.554
			c-60.476,197.134-172.444,406.672-323.794,605.959c-179.59,236.467-406.709,447.981-639.521,595.576
			C1896.041,3054.57,1674.217,3130.805,1481.178,3130.805z M1914.459,1065.444c-73.074,392.295-327.097,753.045-776.567,1102.808
			c-163.552,122.212-272.556,277.82-284.805,406.35c-5.913,62.039,10.696,115.01,49.368,157.441l225,240.881
			c57.69,63.335,160.94,101.582,307.058,113.882c14.99,1.064,30.271,1.597,45.691,1.597c381.226,0.034,888.345-322.275,1252-801.106
			c315.073-414.861,437.651-846.125,327.896-1153.638c0,0,0-0.003-0.002-0.003c-24.614-69.011-65.095-133.34-117.063-186.03
			c-0.134-0.139-0.269-0.276-0.4-0.417L2717.809,706.51c-83.508-84.702-191.006-135.496-302.712-143.025
			C2176.686,547.477,1989.569,735.134,1914.459,1065.444z"/>
	</g>
	<g>
		<path style="fill:#D10B3A;" d="M2709.969,940.474c68.961,181.389,48.631,410.516-58.948,662.717
			c-102.615,240.677-278.542,484.738-495.405,687.301c-150.937,140.984-314.623,254.662-473.401,328.816
			c-160.378,74.925-312.801,107.769-440.848,95.157c-132.646-15.129-224.346-53.935-245.543-103.868
			c-26.012-61.528,18.858-190.349,155.084-317.593c23.266-21.731,48.45-42.573,74.786-62.027l1.693-1.291
			c80.44-61.872,155.423-125.24,223.013-188.374c23.266-21.732,45.786-43.564,67.595-65.458c0.039-0.036,0.039-0.036,0.078-0.072
			c274.139-275.343,432.24-563.788,482.429-879.448c5.602-27.993,12.177-54.866,19.685-80.508c0.09-0.447,0.176-0.744,0.261-1.041
			c32.303-110.923,81.327-198.901,143.808-257.262c62.906-58.758,137.689-84.393,222.264-76.263
			C2526.08,694.715,2656.066,798.878,2709.969,940.474z"/>
	</g>
	<g>
		
			<ellipse transform="matrix(0.7308 -0.6826 0.6826 0.7308 -101.5588 1890.0847)" style="fill:#F7C0A1;" cx="2345.447" cy="1073.797" rx="221.16" ry="142.287"/>
	</g>
	<g>
		<path style="fill:#380076;" d="M2267.63,1278.705c-39.407,0-74.419-12.854-99.29-39.48
			c-31.033-33.223-40.408-82.021-26.396-137.402c13.167-52.046,45.808-104.426,91.914-147.493
			c46.106-43.064,100.588-72.065,153.411-81.655c56.208-10.203,104.253,2.471,135.286,35.696
			c31.033,33.223,40.405,82.019,26.396,137.402c-13.167,52.046-45.811,104.426-91.917,147.493
			C2397.196,1249.157,2327.369,1278.703,2267.63,1278.705z M2423.785,911.63c-9.165,0-18.84,0.906-28.945,2.742
			c-44.919,8.154-91.819,33.345-132.056,70.93c-40.234,37.581-68.56,82.654-79.756,126.914
			c-10.354,40.923-4.57,75.757,16.284,98.083c44.797,47.964,149.58,25.989,228.796-48.005
			c40.237-37.583,68.562-82.656,79.758-126.914c10.352-40.925,4.57-75.757-16.284-98.084l0,0
			C2475.804,920.402,2452.289,911.63,2423.785,911.63z"/>
	</g>
	<g>
		
			<ellipse transform="matrix(0.7308 -0.6826 0.6826 0.7308 -97.5704 1881.6974)" style="fill:#380076;" cx="2336.807" cy="1064.547" rx="89.922" ry="49"/>
	</g>
	<g>
		<polyline style="fill:#F7C0A1;" points="1611.312,2649.875 1850.06,2168.163 1772.173,2573.377 		"/>
	</g>
	<g>
		<path style="fill:#F7C0A1;" d="M1446.787,2233.008l120.51,20.449l-193.913,32.892c-99.215,68.39-216.373,134.331-336.874,169.688
			l101.109-150.329c0,0,229.868,18.406,513.948-251.727C1651.567,2053.981,1570.193,2138.833,1446.787,2233.008z"/>
	</g>
	<g>
		<path style="fill:#F7C0A1;" d="M2748.812,1129.505c-64.906,142.607-197.93,257.138-399.072,343.594
			c51-5.096,98.832-15.989,143.963-31.821c-11.078,13.457-95.654,112.983-233.056,187.358c0,0,116.633-32.094,275.52-204.026
			c75.687-32.984,143.553-80.279,205.858-137.745L2748.812,1129.505z"/>
	</g>
	<g>
		<polyline style="fill:#F7C0A1;" points="1713.727,1751.182 1888.46,1736.036 1776.508,1661.941 		"/>
	</g>
	<g>
		<path style="fill:#380076;" d="M1296.256,2738.276c-19.448,0-38.44-0.911-56.97-2.739
			c-142.703-16.26-238.428-58.774-262.952-116.675c-28.027-66.187,10.127-201.235,160.134-341.35
			c23.816-22.246,49.607-43.638,76.653-63.584l1.572-1.179c79.648-61.299,154.158-124.236,221.245-186.897
			c312.398-291.802,490.215-596.934,543.616-932.834c0.044-0.281,0.095-0.564,0.151-0.845
			c30.93-153.999,89.753-275.071,170.11-350.127c67.515-63.064,147.849-90.606,238.708-81.863
			c147.437,14.177,284.57,123.799,341.24,272.776c70.974,186.582,50.488,421.213-59.243,678.528
			c-103.752,243.318-281.477,489.954-500.432,694.47c-152.554,142.495-318.154,257.488-478.899,332.546
			C1550.401,2704.245,1415.17,2738.276,1296.256,2738.276z M2021.339,1100.097c-55.024,345.4-237.053,658.364-556.475,956.721
			c-68.066,63.582-143.613,127.395-224.539,189.675l-1.919,1.44c-25.867,19.077-50.388,39.417-73.013,60.549
			c-127.749,119.324-172.649,240.457-150.037,293.85c17.581,41.509,107.236,77.253,228.411,91.064
			c123.936,12.227,272.566-20.015,429.492-93.293c156.763-73.198,318.56-185.623,467.903-325.12
			c214.734-200.574,388.887-442.114,490.376-680.122c105.349-247.031,125.615-470.703,58.616-646.836
			c-51.072-134.265-173.918-232.988-305.688-245.662c-78.257-7.537-147.473,16.238-205.725,70.649
			C2104.962,841.928,2050.536,955.029,2021.339,1100.097z"/>
	</g>
	<g style="opacity:0.3;">
		<path style="fill:#380076;" d="M1710.393,2756.88c24.575,32.208,186.194,225.413,445.341,107.231
			c0.114-0.033,0.191-0.106,0.305-0.14c-244.766,163.534-501.104,259.735-723.302,243.952
			c-160.81-13.54-263.786-57.978-320.759-120.524L886.78,2746.303c-20.557-22.551-35.075-47.407-44.174-74.065
			c0,0-0.036-0.039-0.072-0.078c-24.983-72.999-9.082-159.033,36.26-245.675c-2.819,7.924-168.781,487.393,811.365,333.566
			C1696.979,2758.972,1703.761,2757.928,1710.393,2756.88z"/>
	</g>
	<g style="opacity:0.3;">
		<path style="fill:#380076;" d="M2177.577,1539.677c260.284,151.931-503.351,327.87-659.506,436.107
			c274.139-275.343,432.24-563.788,482.429-879.448c5.602-27.993,12.177-54.866,19.685-80.508
			C2012.723,1044.544,1928.06,1394.072,2177.577,1539.677z"/>
	</g>
	<g style="opacity:0.3;">
		<path style="fill:#FFFFFF;" d="M2288.68,1799.728c46.593,39.743,8.701,160.666-84.635,270.09
			c-93.336,109.424-206.77,165.912-253.364,126.17c-46.593-39.743,35.632-122.852,128.968-232.276
			C2172.985,1854.288,2242.087,1759.986,2288.68,1799.728z"/>
	</g>
	<g style="opacity:0.3;">
		<path style="fill:#FFFFFF;" d="M2444.831,1637.884c33.486,15.919,43.49,64.88,22.345,109.357
			c-21.145,44.477-65.431,67.628-98.917,51.708c-33.486-15.919-19.282-53.372,1.862-97.849
			C2391.266,1656.624,2411.345,1621.964,2444.831,1637.884z"/>
	</g>
</g>
</svg>
