<?xml version="1.0" encoding="utf-8"?>
<!-- Generator: Adobe Illustrator 27.5.0, SVG Export Plug-In . SVG Version: 6.00 Build 0)  -->
<svg version="1.1" id="Layer_1" xmlns="http://www.w3.org/2000/svg" xmlns:xlink="http://www.w3.org/1999/xlink" x="0px" y="0px"
	 viewBox="0 0 4000 4000" style="enable-background:new 0 0 4000 4000;" xml:space="preserve">
<g>
	<g>
		<!-- <rect style="fill:#FFFFFF;" width="4000" height="4000"/> -->
	</g>
	<g>
		<g>
			<g>
				<path style="fill:#37DBFF;" d="M2868.63,1325h-41.743h-103.716h-60.225h-77.19c0-37.954,30.723-68.735,68.677-68.735
					c1.05,0,2.041,0,3.091,0.115c11.66-49.031,55.676-85.41,108.264-85.41c16.265,0,31.716,3.499,45.591,9.736
					c2.644-6.646,5.781-13.04,9.28-19.197C2607.539,957.356,2318.428,831.902,2000,831.902
					c-498.354,0-924.88,307.268-1100.645,742.656c7.021-1.157,14.231-1.772,21.584-1.772c62.21,0,114.282,43.037,128.074,101.038
					c1.243-0.137,2.415-0.137,3.657-0.137c44.897,0,81.245,36.416,81.245,81.313H1042.6h-71.243H848.662h-5.81
					c-19.212,84.736-29.4,172.9-29.4,263.452C813.452,2673.765,1344.688,3205,2000,3205s1186.548-531.235,1186.548-1186.548
					c0-258.901-82.974-498.394-223.704-693.452H2868.63z"/>
			</g>
		</g>
		<g>
			<g style="opacity:0.3;">
				<path style="fill:#390075;" d="M3496.486,3271.396c0,43.422-669.984,78.604-1496.485,78.604s-1496.486-35.183-1496.486-78.604
					c0-15.194,82.19-29.375,224.521-41.396h2543.928C3414.296,3242.021,3496.486,3256.201,3496.486,3271.396z"/>
			</g>
			<g>
				<g>
					<path style="fill:#86CC2B;" d="M1317.217,3235.018c214.957-8.782,147.325-88.355,14.838-65.037
						c36.036-5.3,36.036-61.474-42.396-32.857c93.27-92.21,23.318-133.13-77.902-48.755c36.566-37.361,0.795-54.054-34.976-27.027
						c16.693-52.465-50.875-57.348-65.183-22.258c-77.574-58.851-113.987-46.071-106.519,56.548
						c-26.221-8.37-29.666,4.547-23.848,26.124c-87.642-12.882-85.468,9.161-57.234,41.336
						c-147.855-67.459-152.624,47.951-46.105,71.927H1317.217z"/>
				</g>
				<g style="opacity:0.55;">
					<path style="fill:#FFFFFF;" d="M1181.292,3036.763c-17.266-6.773-42.003,0.318-50.016,20
						c-77.584-58.856-113.991-46.073-106.519,56.535c-26.232-8.363-29.666,4.547-23.848,26.137
						c-87.632-12.878-85.469,9.157-57.234,41.336c-105.597-48.204-138.22-3.084-109.381,35.358
						c-52.496-39.428-27.091-106.01,93.482-51.002c-28.235-32.178-30.398-54.213,57.234-41.336
						c-5.819-21.59-2.385-34.5,23.847-26.137c-7.472-102.608,28.935-115.39,106.519-56.534
						C1126.698,3013.297,1171.467,3010.594,1181.292,3036.763z"/>
				</g>
				<g style="opacity:0.55;">
					<path style="fill:#FFFFFF;" d="M1226.894,3063.695c-9.38-0.191-21.813,3.911-34.213,13.291
						c3.275-10.27,3.307-18.728,1.145-25.406C1213.348,3043.79,1228.992,3049.291,1226.894,3063.695z"/>
				</g>
				<g style="opacity:0.55;">
					<path style="fill:#FFFFFF;" d="M1227.657,3104.013c16.757-17.138,18.315-29.92,11.637-36.121
						c50.366-32.91,88.236-31.988,93.451-8.553C1311.759,3053.647,1272.808,3066.366,1227.657,3104.013z"/>
				</g>
				<g style="opacity:0.55;">
					<path style="fill:#FFFFFF;" d="M1355.193,3146.017c-10.588-2.735-26.773-1.59-49.635,6.741
						c8.458-8.363,15.549-16.28,21.399-23.72C1345.686,3128.783,1354.335,3136.923,1355.193,3146.017z"/>
				</g>
				<g style="opacity:0.55;">
					<path style="fill:#FFFFFF;" d="M1455.416,3192.186c-20.795-10.08-59.969-14.944-107.473-6.582
						c13.259-1.939,21.622-10.779,23.021-19.714C1419.041,3164.268,1452.269,3177.114,1455.416,3192.186z"/>
				</g>
				<g>
					<path style="fill:#390075;" d="M1317.218,3246.648H877.892c-0.859,0-1.714-0.098-2.554-0.288
						c-42.344-9.526-74.172-34.487-81.089-63.589c-3.779-15.903,0.84-30.605,12.671-40.332c11.177-9.185,36.611-19.995,88.921-2.939
						c-1.514-6.04-1.26-12.031,1.802-17.656c7.71-14.175,28.252-18.374,69.556-13.662c-0.239-7.524,1.362-15.039,7.114-20.532
						c5.293-5.059,12.124-6.367,18.354-6.216c-1.558-46.509,7.197-73.457,27.183-84.307c20.435-11.094,48.745-3.096,88.53,25.161
						c13.96-16.299,38.1-21.064,56.377-14.443c12.119,4.39,23.843,15.063,25.957,32.417c17.197-6.567,33.271-5.063,42.232,5.122
						c1.45,1.65,3.784,4.888,4.976,9.653c42.905-26.548,81.064-32.217,98.833-12.646c15.073,16.602,9.556,43.657-14.321,75.254
						c20.005-1.313,30.649,4.966,35.938,10.044c7.314,7.026,10.122,16.904,7.72,26.777c44.531-2.178,82.129,6.992,95.728,24.756
						c5.962,7.788,7.104,17.1,3.145,25.557c-14.155,30.205-87.9,39.434-147.271,41.86
						C1317.536,3246.643,1317.375,3246.648,1317.218,3246.648z M879.211,3223.386h437.773
						c102.07-4.194,126.484-24.146,127.056-28.862l0,0c-0.01,0.005-0.43-1.641-4.038-4.238
						c-14.604-10.522-53.306-17.783-104.092-9.17c-0.713,0.142-1.431,0.264-2.158,0.371c-6.348,0.898-12.158-3.374-13.174-9.648
						c-1.016-6.279,3.203-12.207,9.463-13.306c0.557-0.103,1.108-0.195,1.665-0.288c6.953-1.431,10.605-5.522,11.636-8.745
						c0.981-3.062-0.518-4.497-1.084-5.039c-4.927-4.736-20.606-6.631-48.613,3.589c-5.137,1.88-10.884-0.083-13.809-4.697
						c-2.925-4.619-2.236-10.649,1.65-14.497c39.297-38.853,44.194-64.063,38.052-70.825c-7.998-8.823-45.64-6.323-100.332,39.272
						c-4.756,3.975-11.792,3.506-15.991-1.04c-4.199-4.551-4.097-11.597,0.234-16.025c11.538-11.787,12.368-18.472,11.963-19.614
						c-1.812-1.836-14.912-2.622-31.616,9.995c-4.053,3.057-9.595,3.14-13.731,0.215c-4.131-2.925-5.898-8.193-4.36-13.018
						c3.237-10.181,4.331-23.325-8.867-28.105c-11.88-4.297-29.141,0.674-34.473,13.765c-1.362,3.35-4.209,5.869-7.695,6.826
						c-3.481,0.962-7.222,0.239-10.098-1.953c-47.305-35.884-66.431-34.692-73.628-30.781c-7.143,3.877-18.501,19.067-14.267,77.222
						c0.283,3.853-1.367,7.588-4.399,9.98c-3.037,2.388-7.056,3.11-10.732,1.943c-6.377-2.041-9.624-2.09-10.962-1.987
						c-0.249,1.504-0.42,5.488,1.875,14.004c1.021,3.779,0.068,7.822-2.534,10.752c-2.598,2.935-6.528,4.355-10.381,3.779
						c-48.853-7.168-59.561-1.641-61.318-0.347c0.103,1.484,1.426,7.598,14.517,22.51c3.618,4.121,3.862,10.21,0.591,14.609
						s-9.165,5.908-14.16,3.643c-53.862-24.58-85.684-22.983-97.481-13.267c-4.914,4.038-6.533,9.751-4.814,16.987
						C820.827,3194.026,841.623,3214.587,879.211,3223.386z"/>
				</g>
				<g style="opacity:0.2;">
					<path style="fill:#390075;" d="M912.075,3235.017c-47.81-26.312-48.49-74.777,67.568-34.74
						c1.07-23.304,9.611-35.444,37.361-18.879c8.581-8.001,16.48-10.79,23.053-3.433c0.314-55.65,20.692-80.867,90.077-31.752
						c16.463-14.202,28.123-11.641,34.725,8.582c36.262-15.879,59.293-17.783,45.023,19.714
						c22.596-2.971,37.951,3.361,44.802,20.619c69.864-8.862,101.743-0.176,66.058,39.723L912.075,3235.017z"/>
				</g>
			</g>
			<g>
				<g>
					<path style="fill:#86CC2B;" d="M2674.909,3235.018c-214.957-8.782-147.324-88.355-14.838-65.037
						c-36.036-5.3-36.036-61.474,42.396-32.857c-93.27-92.21-23.318-133.13,77.902-48.755
						c-36.566-37.361-0.795-54.054,34.976-27.027c-16.693-52.465,50.875-57.348,65.183-22.258
						c77.574-58.851,113.987-46.071,106.519,56.548c26.22-8.37,29.666,4.547,23.848,26.124
						c87.642-12.882,85.468,9.161,57.234,41.336c147.854-67.459,152.624,47.951,46.105,71.927H2674.909z"/>
				</g>
				<g style="opacity:0.55;">
					<path style="fill:#FFFFFF;" d="M2810.834,3036.763c17.266-6.773,42.003,0.318,50.016,20
						c77.584-58.856,113.991-46.073,106.519,56.535c26.232-8.363,29.666,4.547,23.847,26.137
						c87.632-12.878,85.469,9.157,57.234,41.336c105.597-48.204,138.22-3.084,109.381,35.358
						c52.496-39.428,27.091-106.01-93.482-51.002c28.235-32.178,30.397-54.213-57.234-41.336c5.819-21.59,2.385-34.5-23.847-26.137
						c7.472-102.608-28.935-115.39-106.519-56.534C2865.429,3013.297,2820.659,3010.594,2810.834,3036.763z"/>
				</g>
				<g style="opacity:0.55;">
					<path style="fill:#FFFFFF;" d="M2765.233,3063.695c9.38-0.191,21.813,3.911,34.213,13.291
						c-3.275-10.27-3.307-18.728-1.145-25.406C2778.778,3043.79,2763.135,3049.291,2765.233,3063.695z"/>
				</g>
				<g style="opacity:0.55;">
					<path style="fill:#FFFFFF;" d="M2764.47,3104.013c-16.757-17.138-18.315-29.92-11.637-36.121
						c-50.366-32.91-88.236-31.988-93.451-8.553C2680.368,3053.647,2719.319,3066.366,2764.47,3104.013z"/>
				</g>
				<g style="opacity:0.55;">
					<path style="fill:#FFFFFF;" d="M2636.933,3146.017c10.588-2.735,26.773-1.59,49.635,6.741
						c-8.458-8.363-15.549-16.28-21.399-23.72C2646.441,3128.783,2637.792,3136.923,2636.933,3146.017z"/>
				</g>
				<g style="opacity:0.55;">
					<path style="fill:#FFFFFF;" d="M2536.71,3192.186c20.795-10.08,59.969-14.944,107.473-6.582
						c-13.259-1.939-21.622-10.779-23.021-19.714C2573.086,3164.268,2539.858,3177.114,2536.71,3192.186z"/>
				</g>
				<g>
					<path style="fill:#390075;" d="M3114.235,3246.648h-439.326c-0.156,0-0.317-0.005-0.474-0.01
						c-59.37-2.427-133.115-11.655-147.271-41.86c-3.96-8.457-2.817-17.769,3.145-25.557c13.594-17.759,51.187-26.948,95.728-24.756
						c-2.402-9.873,0.405-19.751,7.72-26.777c5.283-5.078,15.952-11.362,35.938-10.044c-23.877-31.597-29.395-58.652-14.321-75.254
						c17.778-19.561,55.928-13.901,98.833,12.646c1.191-4.766,3.525-8.003,4.975-9.653c8.965-10.186,25.039-11.68,42.231-5.127
						c2.11-17.349,13.833-28.022,25.948-32.412c18.291-6.631,42.422-1.86,56.386,14.443c39.785-28.262,68.086-36.255,88.526-25.161
						c19.99,10.845,28.745,37.798,27.188,84.307c6.221-0.161,13.056,1.157,18.349,6.216c5.752,5.493,7.358,13.003,7.119,20.532
						c41.299-4.702,61.846-0.513,69.556,13.662c3.062,5.625,3.315,11.616,1.802,17.656c52.314-17.051,77.744-6.24,88.921,2.939
						c11.831,9.727,16.45,24.429,12.671,40.332c-6.914,29.102-38.745,54.063-81.089,63.589
						C3115.949,3246.55,3115.094,3246.648,3114.235,3246.648z M2675.143,3223.386h437.773c37.588-8.799,58.384-29.36,62.334-45.991
						c1.719-7.236,0.098-12.949-4.814-16.987c-11.812-9.717-43.618-11.318-97.48,13.267c-5,2.271-10.889,0.757-14.16-3.643
						s-3.027-10.488,0.591-14.609c13.086-14.912,14.414-21.021,14.517-22.51c-1.753-1.294-12.461-6.836-61.318,0.347
						c-3.858,0.576-7.774-0.845-10.381-3.779c-2.602-2.925-3.555-6.968-2.534-10.752c2.295-8.516,2.124-12.5,1.875-14.004
						c-1.323-0.103-4.58-0.054-10.962,1.987c-3.667,1.167-7.695,0.444-10.732-1.943c-3.032-2.393-4.683-6.128-4.399-9.98
						c4.229-58.154-7.124-73.345-14.272-77.222c-7.178-3.911-26.323-5.103-73.623,30.781c-2.876,2.188-6.616,2.91-10.098,1.953
						c-3.486-0.957-6.333-3.477-7.695-6.826c-5.342-13.096-22.622-18.052-34.477-13.765c-13.194,4.78-12.1,17.925-8.862,28.105
						c1.538,4.824-0.229,10.093-4.361,13.018c-4.135,2.925-9.683,2.842-13.73-0.215c-16.699-12.622-29.8-11.826-31.694-9.868
						c-0.327,1.016,0.503,7.7,12.041,19.487c4.331,4.429,4.434,11.475,0.234,16.025s-11.24,5.01-15.991,1.04
						c-54.692-45.591-92.334-48.101-100.332-39.272c-6.142,6.763-1.245,31.973,38.052,70.825c3.887,3.848,4.575,9.878,1.65,14.497
						c-2.93,4.614-8.681,6.577-13.809,4.697c-27.998-10.205-43.687-8.325-48.613-3.589c-0.566,0.542-2.065,1.978-1.084,5.039
						c1.03,3.223,4.683,7.314,11.636,8.745c0.557,0.093,1.108,0.186,1.665,0.288c6.26,1.099,10.479,7.026,9.463,13.306
						c-1.016,6.274-6.855,10.566-13.174,9.648c-0.728-0.107-1.445-0.229-2.158-0.371c-50.786-8.608-89.487-1.348-104.092,9.17
						c-3.643,2.622-4.038,4.272-4.038,4.287C2548.659,3199.241,2573.073,3219.192,2675.143,3223.386z"/>
				</g>
				<g style="opacity:0.2;">
					<path style="fill:#390075;" d="M3080.052,3235.017c47.81-26.312,48.49-74.777-67.568-34.74
						c-1.07-23.304-9.611-35.444-37.361-18.879c-8.581-8.001-16.48-10.79-23.053-3.433c-0.314-55.65-20.692-80.867-90.077-31.752
						c-16.462-14.202-28.123-11.641-34.725,8.582c-36.262-15.879-59.293-17.783-45.023,19.714
						c-22.595-2.971-37.95,3.361-44.802,20.619c-69.864-8.862-101.743-0.176-66.058,39.723L3080.052,3235.017z"/>
				</g>
			</g>
			<g>
				<g>
					<rect x="1760.36" y="1971.469" style="fill:#AAB2CE;" width="469.532" height="469.532"/>
				</g>
				<g style="opacity:0.55;">
					<path style="fill:#FFFFFF;" d="M1789.819,2339.499h-29.459v-282.062l0,0c17.717,6.628,29.459,23.557,29.459,42.473V2339.499z"
						/>
				</g>
				<g style="opacity:0.3;">
					<path style="fill:#390075;" d="M2229.892,1971.469v469.514h-146.298l-46.119-6.327v-95.492l-160.185-70.367l0,0h206.304V2131.2
						c0-23.767-33.236-60.321-56.894-62.605l-278.939-11.686v-54.603h335.833v-30.837H2229.892z"/>
				</g>
				<g>
					<path style="fill:#390075;" d="M2229.894,2454.597h-469.536c-7.51,0-13.599-6.086-13.599-13.596V1971.47
						c0-7.51,6.089-13.596,13.599-13.596h469.536c7.51,0,13.599,6.086,13.599,13.596v469.531
						C2243.493,2448.511,2237.404,2454.597,2229.894,2454.597z M1773.957,2427.405h442.339v-442.339h-442.339V2427.405z"/>
				</g>
				<g>
					<polygon style="fill:#AAB2CE;" points="2539.638,2339.499 2539.638,3235.018 1450.613,3235.018 1450.613,2339.499 
						1571.568,2339.499 1571.568,2399.758 1692.631,2399.758 1692.631,2339.499 1813.585,2339.499 1813.585,2399.758 
						1934.649,2399.758 1934.649,2339.499 2055.603,2339.499 2055.603,2399.758 2176.666,2399.758 2176.666,2339.499 
						2297.621,2339.499 2297.621,2399.758 2418.684,2399.758 2418.684,2339.499 					"/>
				</g>
				<g style="opacity:0.55;">
					<path style="fill:#FFFFFF;" d="M1692.631,2339.499h120.954v28.553h-93.054v39.865c0,11.264-9.131,20.395-20.395,20.395h-76.848
						c-13.186,0-23.875-10.689-23.875-23.875v-4.677h93.218V2339.499z"/>
				</g>
				<g style="opacity:0.3;">
					<path style="fill:#390075;" d="M2539.638,3140.767v94.251H1454.257v-895.52l107.671,196.902
						c7.074,12.937,10.782,27.445,10.782,42.189v418.272c0,79.477,64.428,143.905,143.905,143.905h62.49v-210.854
						c0-165.823,134.877-300.646,300.646-300.646s300.646,134.823,300.646,300.646v158.753c0,28.775,23.327,52.102,52.102,52.102
						H2539.638z"/>
				</g>
				<g style="opacity:0.55;">
					<path style="fill:#FFFFFF;" d="M1934.649,2339.499h120.954v28.553h-93.054v34.753c0,14.087-11.42,25.507-25.507,25.507h-71.735
						c-13.186,0-23.875-10.689-23.875-23.875v-4.677h93.218V2339.499z"/>
				</g>
				<g style="opacity:0.55;">
					<path style="fill:#FFFFFF;" d="M2176.666,2339.499h120.954v28.553h-93.054v34.753c0,14.087-11.42,25.507-25.507,25.507h-71.735
						c-13.186,0-23.875-10.689-23.875-23.875v-4.677h93.218V2339.499z"/>
				</g>
				<g style="opacity:0.55;">
					<path style="fill:#FFFFFF;" d="M2539.638,2339.499v28.553h-93.054v34.753c0,14.087-11.42,25.507-25.507,25.507h-71.736
						c-13.186,0-23.875-10.689-23.875-23.875v-4.677h93.218v-60.26H2539.638z"/>
				</g>
				<g>
					<path style="fill:#818CA5;" d="M2295.771,2929.913v305.105h-84.625v-305.16c0-119.269-96.698-215.967-216.021-215.967
						c-119.323,0-216.021,96.698-216.021,215.967v305.16h-84.625v-305.105c0-165.823,134.878-300.646,300.646-300.646
						C2160.894,2629.267,2295.771,2764.09,2295.771,2929.913z"/>
					<path style="fill:#390075;" d="M2298.273,3237.517h-89.624v-307.661c0-117.705-95.786-213.462-213.525-213.462
						c-117.734,0-213.521,95.757-213.521,213.462v307.661h-89.624v-307.603c0-167.158,135.991-303.149,303.145-303.149
						c167.158,0,303.149,135.991,303.149,303.149V3237.517z M2213.649,3232.517h79.624v-302.603
						c0-164.399-133.75-298.149-298.149-298.149s-298.145,133.75-298.145,298.149v302.603h79.624v-302.661
						c0-120.459,98.027-218.462,218.521-218.462c120.493,0,218.525,98.003,218.525,218.462V3232.517z"/>
				</g>
				<g>
					<path style="fill:#80869E;" d="M2295.771,2929.913v305.105h-84.625v-305.16c0-119.269-96.698-215.967-216.021-215.967
						c-119.323,0-216.021,96.698-216.021,215.967v305.16h-84.625v-305.105c0-165.823,134.878-300.646,300.646-300.646
						C2160.894,2629.267,2295.771,2764.09,2295.771,2929.913z"/>
					<path style="fill:#390075;" d="M2298.273,3237.517h-89.624v-307.661c0-117.705-95.786-213.462-213.525-213.462
						c-117.734,0-213.521,95.757-213.521,213.462v307.661h-89.624v-307.603c0-167.158,135.991-303.149,303.145-303.149
						c167.158,0,303.149,135.991,303.149,303.149V3237.517z M2213.649,3232.517h79.624v-302.603
						c0-164.399-133.75-298.149-298.149-298.149s-298.145,133.75-298.145,298.149v302.603h79.624v-302.661
						c0-120.459,98.027-218.462,218.521-218.462c120.493,0,218.525,98.003,218.525,218.462V3232.517z"/>
				</g>
				<g style="opacity:0.55;">
					<path style="fill:#FFFFFF;" d="M2162.58,2680.335c-40.572-20.503-86.365-32.033-134.823-32.033
						c-165.768,0-300.646,134.823-300.646,300.646v286.07h-32.632v-305.105c0-165.823,134.878-300.646,300.646-300.646
						C2057.072,2629.267,2114.666,2648.085,2162.58,2680.335z"/>
				</g>
				<g style="opacity:0.55;">
					<path style="fill:#FFFFFF;" d="M2243.778,2948.894v286.125h-32.632v-305.16c0-72.823-36.057-137.216-91.26-176.319
						C2193.145,2788.074,2243.778,2862.583,2243.778,2948.894z"/>
				</g>
				<g>
					<path style="fill:#390075;" d="M2295.773,3248.616h-84.624c-7.51,0-13.599-6.089-13.599-13.599v-305.161
						c0-111.587-90.806-202.363-202.427-202.363c-111.616,0-202.422,90.776-202.422,202.363v305.161
						c0,7.51-6.089,13.599-13.599,13.599h-84.624c-7.51,0-13.599-6.089-13.599-13.599v-305.103
						c0-173.276,140.972-314.248,314.243-314.248c173.276,0,314.248,140.972,314.248,314.248v305.103
						C2309.372,3242.527,2303.283,3248.616,2295.773,3248.616z M2224.748,3221.418h57.427v-291.504
						c0-158.281-128.77-287.051-287.051-287.051c-158.276,0-287.046,128.77-287.046,287.051v291.504h57.427v-291.563
						c0-126.577,103.008-229.561,229.619-229.561c126.616,0,229.624,102.983,229.624,229.561V3221.418z"/>
				</g>
				<g>
					<path style="fill:#390075;" d="M2211.149,3248.616h-432.046c-7.51,0-13.599-6.089-13.599-13.599v-305.161
						c0-126.577,103.008-229.561,229.619-229.561c126.616,0,229.624,102.983,229.624,229.561v305.161
						C2224.748,3242.527,2218.659,3248.616,2211.149,3248.616z M1792.702,3221.418h404.849v-291.563
						c0-111.587-90.806-202.363-202.427-202.363c-111.616,0-202.422,90.776-202.422,202.363V3221.418z"/>
				</g>
				<g>
					<path style="fill:#F89F1D;" d="M2211.147,2929.858v305.16h-432.042v-305.16c0-119.269,96.698-215.967,216.021-215.967
						C2114.448,2713.892,2211.147,2810.59,2211.147,2929.858z"/>
				</g>
				<g style="opacity:0.3;">
					<path style="fill:#390075;" d="M2116.787,2751.364c-20.557-6.526-42.53-10.061-65.263-10.061
						c-119.323,0-216.021,96.698-216.021,215.967v277.749h-56.398v-305.16c0-119.269,96.698-215.967,216.021-215.967
						C2040.266,2713.892,2082.143,2727.76,2116.787,2751.364z"/>
				</g>
				<g>
					<path style="fill:#390075;" d="M2211.149,3248.616h-432.046c-7.51,0-13.599-6.089-13.599-13.599v-305.161
						c0-126.577,103.008-229.561,229.619-229.561c126.616,0,229.624,102.983,229.624,229.561v305.161
						C2224.748,3242.527,2218.659,3248.616,2211.149,3248.616z M1792.702,3221.418h404.849v-291.563
						c0-111.587-90.806-202.363-202.427-202.363c-111.616,0-202.422,90.776-202.422,202.363V3221.418z"/>
				</g>
				<g>
					<g>
						<path style="fill:#390075;" d="M1866.96,2769.607c-4.521,0-8.941-2.251-11.523-6.357l-45.073-71.66
							c-3.999-6.357-2.085-14.751,4.268-18.75c6.372-4.009,14.756-2.08,18.75,4.268l45.073,71.66
							c3.999,6.357,2.085,14.751-4.268,18.75C1871.935,2768.933,1869.43,2769.607,1866.96,2769.607z"/>
					</g>
					<g>
						<path style="fill:#390075;" d="M2123.292,2769.607c-2.47,0-4.976-0.674-7.227-2.09c-6.353-3.999-8.267-12.393-4.268-18.75
							l45.073-71.66c3.994-6.348,12.378-8.276,18.75-4.268c6.353,3.999,8.267,12.393,4.268,18.75l-45.073,71.66
							C2132.233,2767.356,2127.814,2769.607,2123.292,2769.607z"/>
					</g>
				</g>
				<g>
					<path style="fill:#390075;" d="M1995.124,3245.896c-6.006,0-10.879-4.873-10.879-10.879v-521.143
						c0-6.006,4.873-10.879,10.879-10.879s10.879,4.873,10.879,10.879v521.143
						C2006.002,3241.023,2001.13,3245.896,1995.124,3245.896z"/>
				</g>
				<g>
					<path style="fill:#390075;" d="M2053.768,3107.297h-4.454c-8.609,0-15.589-6.979-15.589-15.588v-47.508
						c0-8.609,6.979-15.588,15.589-15.588h4.454c8.609,0,15.588,6.979,15.588,15.588v47.508
						C2069.356,3100.318,2062.377,3107.297,2053.768,3107.297z"/>
				</g>
				<g>
					<path style="fill:#390075;" d="M1940.937,3107.297h-4.454c-8.609,0-15.589-6.979-15.589-15.588v-47.508
						c0-8.609,6.979-15.588,15.589-15.588h4.454c8.609,0,15.589,6.979,15.589,15.588v47.508
						C1956.526,3100.318,1949.547,3107.297,1940.937,3107.297z"/>
				</g>
				<g>
					<path style="fill:#390075;" d="M2539.64,3248.616H1450.612c-7.51,0-13.599-6.089-13.599-13.599V2339.5
						c0-7.51,6.089-13.596,13.599-13.596h120.957c7.51,0,13.599,6.086,13.599,13.596v46.663h93.862V2339.5
						c0-7.51,6.089-13.596,13.599-13.596h120.957c7.51,0,13.599,6.086,13.599,13.596v46.663h93.867V2339.5
						c0-7.51,6.089-13.596,13.599-13.596h120.952c7.51,0,13.599,6.086,13.599,13.596v46.663h93.867V2339.5
						c0-7.51,6.089-13.596,13.598-13.596h120.952c7.51,0,13.599,6.086,13.599,13.596v46.663h93.867V2339.5
						c0-7.51,6.089-13.596,13.598-13.596h120.957c7.51,0,13.599,6.086,13.599,13.596v895.518
						C2553.239,3242.527,2547.15,3248.616,2539.64,3248.616z M1464.21,3221.418h1061.831v-868.323h-93.76v46.663
						c0,7.51-6.089,13.596-13.599,13.596h-121.064c-7.51,0-13.599-6.086-13.599-13.596v-46.663h-93.755v46.663
						c0,7.51-6.089,13.596-13.599,13.596h-121.064c-7.51,0-13.599-6.086-13.599-13.596v-46.663h-93.755v46.663
						c0,7.51-6.089,13.596-13.599,13.596h-121.065c-7.51,0-13.599-6.086-13.599-13.596v-46.663h-93.76v46.663
						c0,7.51-6.089,13.596-13.599,13.596h-121.06c-7.51,0-13.599-6.086-13.599-13.596v-46.663h-93.76V3221.418z"/>
				</g>
				<g>
					<rect x="2539.638" y="2249.653" style="fill:#AAB2CE;" width="290.312" height="985.365"/>
				</g>
				<g style="opacity:0.55;">
					<path style="fill:#FFFFFF;" d="M2571.291,2346.895v888.123h-31.652v-927.335c7.669,1.632,14.521,5.493,19.906,10.823
						C2566.777,2325.739,2571.291,2335.8,2571.291,2346.895z"/>
				</g>
				<g style="opacity:0.3;">
					<path style="fill:#390075;" d="M2829.951,2249.653v985.365H2732.6v-138.416c0-16.829-12.076-31.231-28.647-34.165l-49.592-8.78
						c-12.313-2.18-21.287-12.882-21.287-25.387v-14.385h99.526v-323.344c0-16.822-12.067-31.22-28.629-34.162l-49.623-8.813
						c-12.307-2.186-21.274-12.885-21.274-25.385v-14.397h99.526v-246.803c0-29.912-24.31-54.223-54.277-54.223h-138.684v-57.105
						H2829.951z"/>
				</g>
				<g>
					<rect x="2524.483" y="2038.128" style="fill:#AAB2CE;" width="326.316" height="179.728"/>
				</g>
				<g style="opacity:0.55;">
					<rect x="2524.465" y="2038.146" style="fill:#FFFFFF;" width="27.193" height="179.691"/>
				</g>
				<g style="opacity:0.3;">
					<rect x="2732.6" y="2038.146" style="fill:#390075;" width="118.181" height="179.691"/>
				</g>
				<g>
					<path style="fill:#390075;" d="M2829.953,3248.616H2539.64c-7.51,0-13.599-6.089-13.599-13.599v-985.374
						c0-7.51,6.089-13.596,13.599-13.596h290.313c7.51,0,13.599,6.086,13.599,13.596v985.374
						C2843.552,3242.527,2837.462,3248.616,2829.953,3248.616z M2553.239,3221.418h263.115V2263.24h-263.115V3221.418z"/>
				</g>
				<g>
					<path style="fill:#F9C710;" d="M2744.003,2607.785h-110.911c-5.917,0-10.714-4.797-10.714-10.714v-18.455
						c0-5.917,4.797-10.714,10.714-10.714h110.911c5.917,0,10.714,4.797,10.714,10.714v18.455
						C2754.717,2602.988,2749.92,2607.785,2744.003,2607.785z"/>
				</g>
				<g style="opacity:0.55;">
					<path style="fill:#FFFFFF;" d="M2754.734,2578.634v17.186c0-5.874-4.84-10.714-10.714-10.714h-110.947
						c-5.874,0-10.714,4.841-10.714,10.714v-17.186c0-5.928,4.84-10.714,10.714-10.714h110.947
						C2749.895,2567.92,2754.734,2572.706,2754.734,2578.634z"/>
				</g>
				<g>
					<path style="fill:#390075;" d="M2744,2618.665h-110.908c-11.904,0-21.592-9.688-21.592-21.592v-18.457
						c0-11.904,9.688-21.592,21.592-21.592H2744c11.909,0,21.597,9.688,21.597,21.592v18.457
						C2765.597,2608.977,2755.91,2618.665,2744,2618.665z M2744,2596.907v10.879V2596.907L2744,2596.907L2744,2596.907z
						 M2743.839,2578.616l-110.747,0.166l0.166,18.291l110.581-0.166V2578.616z"/>
				</g>
				<g>
					<path style="fill:#F9C710;" d="M2744.003,3013.867h-110.911c-5.917,0-10.714-4.797-10.714-10.714v-18.455
						c0-5.917,4.797-10.714,10.714-10.714h110.911c5.917,0,10.714,4.797,10.714,10.714v18.455
						C2754.717,3009.07,2749.92,3013.867,2744.003,3013.867z"/>
				</g>
				<g>
					<path style="fill:#390075;" d="M2732.575,2578.782h-88.052c-6.006,0-10.879-4.873-10.879-10.879v-99.192
						c0-30.273,24.629-54.902,54.902-54.902s54.907,24.629,54.907,54.902v99.192
						C2743.454,2573.909,2738.581,2578.782,2732.575,2578.782z M2655.402,2557.024h66.294v-88.313
						c0-18.279-14.868-33.149-33.149-33.149c-18.276,0-33.145,14.871-33.145,33.149V2557.024z"/>
				</g>
				<g style="opacity:0.55;">
					<path style="fill:#FFFFFF;" d="M2754.734,2984.698v17.186c0-5.874-4.84-10.714-10.714-10.714h-110.947
						c-5.874,0-10.714,4.841-10.714,10.714v-17.186c0-5.928,4.84-10.714,10.714-10.714h110.947
						C2749.895,2973.984,2754.734,2978.77,2754.734,2984.698z"/>
				</g>
				<g>
					<path style="fill:#390075;" d="M2744,3024.744h-110.908c-11.904,0-21.592-9.688-21.592-21.592V2984.7
						c0-11.909,9.688-21.597,21.592-21.597H2744c11.909,0,21.597,9.688,21.597,21.597v18.452
						C2765.597,3015.056,2755.91,3024.744,2744,3024.744z M2744,3002.986v10.879V3002.986L2744,3002.986L2744,3002.986z
						 M2743.839,2984.7l-110.747,0.161l0.166,18.291l110.581-0.166V2984.7z"/>
				</g>
				<g>
					<path style="fill:#390075;" d="M2732.575,2984.861h-88.052c-6.006,0-10.879-4.873-10.879-10.879v-99.189
						c0-30.273,24.629-54.902,54.902-54.902s54.907,24.629,54.907,54.902v99.189
						C2743.454,2979.988,2738.581,2984.861,2732.575,2984.861z M2655.402,2963.103h66.294v-88.311
						c0-18.276-14.868-33.145-33.149-33.145c-18.276,0-33.145,14.868-33.145,33.145V2963.103z"/>
				</g>
				<g style="opacity:0.4;">
					<path style="fill:#390075;" d="M2688.547,2424.685L2688.547,2424.685c-24.315,0-44.026,19.711-44.026,44.025v99.191h88.051
						v-99.191C2732.573,2444.396,2712.862,2424.685,2688.547,2424.685z"/>
				</g>
				<g style="opacity:0.4;">
					<path style="fill:#390075;" d="M2688.547,2830.767L2688.547,2830.767c-24.315,0-44.026,19.711-44.026,44.025v99.191h88.051
						v-99.191C2732.573,2850.478,2712.862,2830.767,2688.547,2830.767z"/>
				</g>
				<g>
					<polygon style="fill:#ED2957;" points="2892.494,2038.146 2484.6,2038.146 2500.317,2009.43 2500.372,2009.375 
						2688.547,1665.602 2855.838,1971.142 					"/>
				</g>
				<g style="opacity:0.55;">
					<polygon style="fill:#FFFFFF;" points="2708.993,1695.628 2536.209,2011.23 2536.154,2011.284 2520.436,2040 2489.6,2040 
						2505.317,2011.284 2505.372,2011.23 2693.547,1667.456 					"/>
				</g>
				<g style="opacity:0.3;">
					<polygon style="fill:#390075;" points="2892.494,2038.146 2814.541,2038.146 2671.89,1696.018 2688.547,1665.602 					"/>
				</g>
				<g>
					<path style="fill:#390075;" d="M2892.497,2051.724h-407.895c-4.805,0-9.248-2.534-11.699-6.665
						c-2.446-4.131-2.534-9.248-0.229-13.459l203.945-372.544c2.388-4.358,6.963-7.068,11.928-7.068
						c4.966,0,9.541,2.71,11.929,7.068l203.95,372.544c2.305,4.211,2.217,9.329-0.229,13.459
						C2901.745,2049.189,2897.302,2051.724,2892.497,2051.724z M2507.545,2024.531h362.007l-181.006-330.632L2507.545,2024.531z"/>
				</g>
				<g>
					<path style="fill:#390075;" d="M2850.798,2231.453h-326.314c-7.51,0-13.599-6.086-13.599-13.596v-179.729
						c0-7.51,6.089-13.596,13.599-13.596h326.314c7.51,0,13.598,6.086,13.598,13.596v179.729
						C2864.396,2225.366,2858.307,2231.453,2850.798,2231.453z M2538.083,2204.26h299.116v-152.537h-299.116V2204.26z"/>
				</g>
				<g>
					<rect x="1757.861" y="1742.371" style="fill:#AAB2CE;" width="471.907" height="259.916"/>
				</g>
				<g style="opacity:0.55;">
					<rect x="1757.836" y="1742.398" style="fill:#FFFFFF;" width="39.326" height="259.863"/>
				</g>
				<g style="opacity:0.3;">
					<rect x="2058.833" y="1742.398" style="fill:#390075;" width="170.91" height="259.863"/>
				</g>
				<g>
					<polygon style="fill:#ED2957;" points="2290.061,1742.413 1700.191,1742.413 1722.924,1700.862 1722.978,1700.808 
						1990.72,1081.134 1995.126,1073.085 2237.034,1645.497 					"/>
				</g>
				<g style="opacity:0.55;">
					<polygon style="fill:#FFFFFF;" points="2008.613,1113.874 1758.765,1700.808 1758.656,1700.862 1735.923,1742.413 
						1700.191,1742.413 1722.924,1700.862 1722.978,1700.808 1990.72,1081.134 					"/>
				</g>
				<g style="opacity:0.3;">
					<polygon style="fill:#390075;" points="2290.068,1742.398 2177.334,1742.398 1971.037,1117.097 1995.126,1073.111 					"/>
				</g>
				<g>
					<path style="fill:#390075;" d="M2290.07,1755.967h-589.888c-4.595,0-8.877-2.319-11.387-6.169
						c-2.51-3.848-2.91-8.706-1.055-12.91l294.941-669.287c2.173-4.932,7.051-8.113,12.441-8.113c5.391,0,10.269,3.181,12.441,8.113
						l294.946,669.287c1.855,4.204,1.455,9.063-1.055,12.91C2298.947,1753.647,2294.665,1755.967,2290.07,1755.967z
						 M1721.032,1728.774h548.188l-274.097-621.975L1721.032,1728.774z"/>
				</g>
				<g>
					<path style="fill:#390075;" d="M2229.767,2015.884h-471.904c-7.51,0-13.599-6.086-13.599-13.596v-259.917
						c0-7.51,6.089-13.596,13.599-13.596h471.904c7.51,0,13.599,6.086,13.599,13.596v259.917
						C2243.366,2009.797,2237.277,2015.884,2229.767,2015.884z M1771.462,1988.691h444.707v-232.725h-444.707V1988.691z"/>
				</g>
				<g>
					<path style="fill:#80869E;" d="M2892.494,2127.982v83.582c0,21.031-17.049,38.079-38.079,38.079h-331.737
						c-21.031,0-38.079-17.049-38.079-38.079v-83.582h87.018v45.521h73.421v-45.521h87.018v45.521h73.421v-45.521H2892.494z"/>
					<path style="fill:#390075;" d="M2854.416,2252.144h-331.738c-22.373,0-40.576-18.203-40.576-40.579v-86.082h92.017v45.52
						h68.423v-45.52h92.017v45.52h68.418v-45.52h92.021v86.082C2894.997,2233.94,2876.793,2252.144,2854.416,2252.144z
						 M2487.101,2130.483v81.082c0,19.619,15.957,35.579,35.576,35.579h331.738c19.619,0,35.581-15.959,35.581-35.579v-81.082
						h-82.021v45.52h-78.418v-45.52h-82.017v45.52h-78.423v-45.52H2487.101z"/>
				</g>
				<g style="opacity:0.55;">
					<path style="fill:#FFFFFF;" d="M2484.6,2127.991h87.018v24.474h-63.468v83.591c0,3.916,0.597,7.723,1.74,11.312
						c-14.739-5.167-25.29-19.252-25.29-35.786V2127.991z"/>
				</g>
				<g style="opacity:0.55;">
					<path style="fill:#FFFFFF;" d="M2645.038,2127.991h87.018v24.474h-63.468v26.993c0,10.232-8.295,18.528-18.528,18.528h-39.274
						c-8.626,0-15.619-6.993-15.619-15.619v-8.855h49.872V2127.991z"/>
				</g>
				<g style="opacity:0.55;">
					<path style="fill:#FFFFFF;" d="M2892.494,2127.991v24.474h-63.468v26.993c0,10.232-8.295,18.528-18.528,18.528h-39.274
						c-8.626,0-15.619-6.993-15.619-15.619v-8.855h49.872v-45.521H2892.494z"/>
				</g>
				<g>
					<path style="fill:#390075;" d="M2854.416,2263.24h-331.738c-28.491,0-51.675-23.181-51.675-51.675v-83.582
						c0-7.51,6.089-13.596,13.599-13.596h87.017c7.51,0,13.598,6.086,13.598,13.596v31.924h46.226v-31.924
						c0-7.51,6.089-13.596,13.599-13.596h87.017c7.51,0,13.599,6.086,13.599,13.596v31.924h46.221v-31.924
						c0-7.51,6.089-13.596,13.598-13.596h87.021c7.51,0,13.599,6.086,13.599,13.596v83.582
						C2906.095,2240.059,2882.912,2263.24,2854.416,2263.24z M2498.2,2141.58v69.985c0,13.499,10.981,24.482,24.478,24.482h331.738
						c13.501,0,24.482-10.984,24.482-24.482v-69.985h-59.824v31.924c0,7.51-6.089,13.596-13.599,13.596h-73.418
						c-7.51,0-13.599-6.086-13.599-13.596v-31.924h-59.819v31.924c0,7.51-6.089,13.596-13.599,13.596h-73.423
						c-7.51,0-13.599-6.086-13.599-13.596v-31.924H2498.2z"/>
				</g>
				<g>
					<path style="fill:#80869E;" d="M2268.636,1839.129v112.091c0,28.204-22.864,51.067-51.067,51.067h-444.886
						c-28.204,0-51.067-22.864-51.067-51.067v-112.091h116.698v61.047h98.464v-61.047h116.698v61.047h98.464v-61.047H2268.636z"/>
					<path style="fill:#390075;" d="M2217.57,2004.788h-444.888c-29.536,0-53.564-24.031-53.564-53.567v-114.592h121.694v61.047
						h93.467v-61.047h121.694v61.047h93.467v-61.047h121.695v114.592C2271.135,1980.757,2247.106,2004.788,2217.57,2004.788z
						 M1724.118,1841.628v109.592c0,26.78,21.787,48.567,48.564,48.567h444.888c26.778,0,48.565-21.787,48.565-48.567v-109.592
						H2154.44v61.047h-103.467v-61.047h-111.694v61.047h-103.467v-61.047H1724.118z"/>
				</g>
				<g style="opacity:0.55;">
					<path style="fill:#FFFFFF;" d="M1717.763,1835.289h116.698v32.821h-85.116v112.103c0,5.252,0.801,10.357,2.334,15.171
						c-19.766-6.929-33.916-25.819-33.916-47.992V1835.289z"/>
				</g>
				<g style="opacity:0.55;">
					<path style="fill:#FFFFFF;" d="M1932.925,1835.289h116.698v32.821h-85.116v36.2c0,13.723-11.124,24.847-24.847,24.847h-53.069
						c-11.348,0-20.547-9.199-20.547-20.547v-12.274h66.882V1835.289z"/>
				</g>
				<g style="opacity:0.55;">
					<path style="fill:#FFFFFF;" d="M2264.784,1835.289v32.821h-85.116v36.2c0,13.723-11.125,24.847-24.847,24.847h-53.069
						c-11.348,0-20.547-9.199-20.547-20.547v-12.274h66.882v-61.047H2264.784z"/>
				</g>
				<g>
					<path style="fill:#390075;" d="M2217.57,2015.884h-444.888c-35.654,0-64.663-29.009-64.663-64.663v-112.092
						c0-7.51,6.089-13.596,13.599-13.596h116.694c7.51,0,13.599,6.086,13.599,13.596v47.451h71.27v-47.451
						c0-7.51,6.089-13.596,13.599-13.596h116.694c7.51,0,13.599,6.086,13.599,13.596v47.451h71.269v-47.451
						c0-7.51,6.089-13.596,13.599-13.596h116.695c7.51,0,13.598,6.086,13.598,13.596v112.092
						C2282.233,1986.875,2253.224,2015.884,2217.57,2015.884z M1735.216,1852.725v98.496c0,20.662,16.807,37.471,37.466,37.471
						h444.888c20.659,0,37.466-16.809,37.466-37.471v-98.496h-89.497v47.451c0,7.51-6.089,13.596-13.599,13.596h-98.467
						c-7.51,0-13.599-6.086-13.599-13.596v-47.451h-89.497v47.451c0,7.51-6.089,13.596-13.599,13.596h-98.467
						c-7.51,0-13.599-6.086-13.599-13.596v-47.451H1735.216z"/>
				</g>
				<g>
					<rect x="1163.945" y="2249.653" style="fill:#AAB2CE;" width="290.312" height="985.365"/>
				</g>
				<g style="opacity:0.55;">
					<path style="fill:#FFFFFF;" d="M1195.597,2346.895v888.123h-31.652v-927.335c7.669,1.632,14.521,5.493,19.905,10.823
						C1191.083,2325.739,1195.597,2335.8,1195.597,2346.895z"/>
				</g>
				<g style="opacity:0.3;">
					<path style="fill:#390075;" d="M1454.257,2249.653v985.365h-97.351v-167.509l-99.526-17.621v-36.003h99.526v-322.683
						c0-17.204-12.341-31.929-29.28-34.938l-50.226-8.92c-11.582-2.057-20.02-12.126-20.02-23.889v-15.67h99.526v-246.803
						c0-29.912-24.31-54.223-54.277-54.223h-138.684v-57.105H1454.257z"/>
				</g>
				<g>
					<rect x="1148.789" y="2038.128" style="fill:#AAB2CE;" width="326.316" height="179.728"/>
				</g>
				<g style="opacity:0.55;">
					<rect x="1148.771" y="2038.146" style="fill:#FFFFFF;" width="27.193" height="179.691"/>
				</g>
				<g style="opacity:0.3;">
					<rect x="1356.906" y="2038.146" style="fill:#390075;" width="118.181" height="179.691"/>
				</g>
				<g>
					<path style="fill:#390075;" d="M1454.259,3248.616h-290.313c-7.51,0-13.599-6.089-13.599-13.599v-985.374
						c0-7.51,6.089-13.596,13.599-13.596h290.313c7.51,0,13.599,6.086,13.599,13.596v985.374
						C1467.858,3242.527,1461.769,3248.616,1454.259,3248.616z M1177.546,3221.418h263.115V2263.24h-263.115V3221.418z"/>
				</g>
				<g>
					<path style="fill:#F9C710;" d="M1368.309,2607.785h-110.911c-5.917,0-10.714-4.797-10.714-10.714v-18.455
						c0-5.917,4.797-10.714,10.714-10.714h110.911c5.917,0,10.714,4.797,10.714,10.714v18.455
						C1379.023,2602.988,1374.226,2607.785,1368.309,2607.785z"/>
				</g>
				<g style="opacity:0.55;">
					<path style="fill:#FFFFFF;" d="M1379.041,2578.634v17.186c0-5.874-4.84-10.714-10.714-10.714H1257.38
						c-5.874,0-10.714,4.841-10.714,10.714v-17.186c0-5.928,4.84-10.714,10.714-10.714h110.947
						C1374.201,2567.92,1379.041,2572.706,1379.041,2578.634z"/>
				</g>
				<g>
					<path style="fill:#390075;" d="M1368.307,2618.665h-110.908c-11.904,0-21.592-9.688-21.592-21.592v-18.457
						c0-11.904,9.688-21.592,21.592-21.592h110.908c11.909,0,21.597,9.688,21.597,21.592v18.457
						C1389.904,2608.977,1380.216,2618.665,1368.307,2618.665z M1368.307,2596.907v10.879V2596.907L1368.307,2596.907
						L1368.307,2596.907z M1368.146,2578.616l-110.747,0.166l0.166,18.291l110.581-0.166V2578.616z"/>
				</g>
				<g>
					<path style="fill:#F9C710;" d="M1368.309,3013.867h-110.911c-5.917,0-10.714-4.797-10.714-10.714v-18.455
						c0-5.917,4.797-10.714,10.714-10.714h110.911c5.917,0,10.714,4.797,10.714,10.714v18.455
						C1379.023,3009.07,1374.226,3013.867,1368.309,3013.867z"/>
				</g>
				<g>
					<path style="fill:#390075;" d="M1356.877,2578.782h-88.047c-6.006,0-10.879-4.873-10.879-10.879v-99.192
						c0-30.273,24.629-54.902,54.902-54.902s54.902,24.629,54.902,54.902v99.192
						C1367.755,2573.909,1362.882,2578.782,1356.877,2578.782z M1279.709,2557.024h66.289v-88.313
						c0-18.279-14.868-33.149-33.144-33.149c-18.276,0-33.145,14.871-33.145,33.149V2557.024z"/>
				</g>
				<g style="opacity:0.55;">
					<path style="fill:#FFFFFF;" d="M1379.041,2984.698v17.186c0-5.874-4.84-10.714-10.714-10.714H1257.38
						c-5.874,0-10.714,4.841-10.714,10.714v-17.186c0-5.928,4.84-10.714,10.714-10.714h110.947
						C1374.201,2973.984,1379.041,2978.77,1379.041,2984.698z"/>
				</g>
				<g>
					<path style="fill:#390075;" d="M1368.307,3024.744h-110.908c-11.904,0-21.592-9.688-21.592-21.592V2984.7
						c0-11.909,9.688-21.597,21.592-21.597h110.908c11.909,0,21.597,9.688,21.597,21.597v18.452
						C1389.904,3015.056,1380.216,3024.744,1368.307,3024.744z M1368.307,3002.986v10.879V3002.986L1368.307,3002.986
						L1368.307,3002.986z M1368.146,2984.7l-110.747,0.161l0.166,18.291l110.581-0.166V2984.7z"/>
				</g>
				<g>
					<path style="fill:#390075;" d="M1356.877,2984.861h-88.047c-6.006,0-10.879-4.873-10.879-10.879v-99.189
						c0-30.273,24.629-54.902,54.902-54.902s54.902,24.629,54.902,54.902v99.189
						C1367.755,2979.988,1362.882,2984.861,1356.877,2984.861z M1279.709,2963.103h66.289v-88.311
						c0-18.276-14.868-33.145-33.144-33.145c-18.276,0-33.145,14.868-33.145,33.145V2963.103z"/>
				</g>
				<g style="opacity:0.4;">
					<path style="fill:#390075;" d="M1312.854,2424.685L1312.854,2424.685c-24.315,0-44.026,19.711-44.026,44.025v99.191h88.051
						v-99.191C1356.879,2444.396,1337.168,2424.685,1312.854,2424.685z"/>
				</g>
				<g style="opacity:0.4;">
					<path style="fill:#390075;" d="M1312.854,2830.767L1312.854,2830.767c-24.315,0-44.026,19.711-44.026,44.025v99.191h88.051
						v-99.191C1356.879,2850.478,1337.168,2830.767,1312.854,2830.767z"/>
				</g>
				<g>
					<polygon style="fill:#ED2957;" points="1516.801,2038.146 1108.906,2038.146 1124.624,2009.43 1124.678,2009.375 
						1312.853,1665.602 1480.145,1971.142 					"/>
				</g>
				<g style="opacity:0.55;">
					<polygon style="fill:#FFFFFF;" points="1328.3,1693.774 1155.515,2009.375 1155.461,2009.43 1139.742,2038.146 
						1108.906,2038.146 1124.624,2009.43 1124.678,2009.375 1312.853,1665.602 					"/>
				</g>
				<g style="opacity:0.3;">
					<polygon style="fill:#390075;" points="1516.801,2038.146 1438.848,2038.146 1296.197,1696.018 1312.853,1665.602 					"/>
				</g>
				<g>
					<path style="fill:#390075;" d="M1516.803,2051.724h-407.896c-4.805,0-9.248-2.534-11.699-6.665
						c-2.446-4.131-2.534-9.248-0.229-13.459l203.945-372.544c2.388-4.358,6.963-7.068,11.929-7.068
						c4.966,0,9.541,2.71,11.929,7.068l203.95,372.544c2.305,4.211,2.217,9.329-0.23,13.459
						C1526.051,2049.189,1521.608,2051.724,1516.803,2051.724z M1131.852,2024.531h362.007l-181.006-330.632L1131.852,2024.531z"/>
				</g>
				<g>
					<path style="fill:#390075;" d="M1475.104,2231.453h-326.313c-7.51,0-13.599-6.086-13.599-13.596v-179.729
						c0-7.51,6.089-13.596,13.599-13.596h326.313c7.51,0,13.599,6.086,13.599,13.596v179.729
						C1488.703,2225.366,1482.614,2231.453,1475.104,2231.453z M1162.389,2204.26h299.116v-152.537h-299.116V2204.26z"/>
				</g>
				<g>
					<path style="fill:#80869E;" d="M1516.801,2127.982v83.582c0,21.031-17.049,38.079-38.079,38.079h-331.736
						c-21.031,0-38.079-17.049-38.079-38.079v-83.582h87.018v45.521h73.421v-45.521h87.018v45.521h73.421v-45.521H1516.801z"/>
					<path style="fill:#390075;" d="M1478.722,2252.144h-331.738c-22.373,0-40.576-18.203-40.576-40.579v-86.082h92.017v45.52
						h68.418v-45.52h92.021v45.52h68.418v-45.52h92.021v86.082C1519.303,2233.94,1501.1,2252.144,1478.722,2252.144z
						 M1111.408,2130.483v81.082c0,19.619,15.957,35.579,35.576,35.579h331.738c19.619,0,35.581-15.959,35.581-35.579v-81.082
						h-82.021v45.52h-78.418v-45.52h-82.021v45.52h-78.418v-45.52H1111.408z"/>
				</g>
				<g style="opacity:0.55;">
					<path style="fill:#FFFFFF;" d="M1269.345,2127.991h87.018v24.474h-63.468v26.993c0,10.232-8.295,18.528-18.528,18.528h-34.521
						c-11.251,0-20.372-9.121-20.372-20.372v-4.101h49.871V2127.991z"/>
				</g>
				<g style="opacity:0.55;">
					<path style="fill:#FFFFFF;" d="M1516.801,2127.991v24.474h-63.468v26.993c0,10.232-8.295,18.528-18.528,18.528h-31.655
						c-12.835,0-23.239-10.404-23.239-23.239v-1.235h49.872v-45.521H1516.801z"/>
				</g>
				<g>
					<path style="fill:#390075;" d="M1478.722,2263.24h-331.738c-28.491,0-51.675-23.181-51.675-51.675v-83.582
						c0-7.51,6.089-13.596,13.599-13.596h87.017c7.51,0,13.599,6.086,13.599,13.596v31.924h46.221v-31.924
						c0-7.51,6.089-13.596,13.599-13.596h87.021c7.51,0,13.599,6.086,13.599,13.596v31.924h46.221v-31.924
						c0-7.51,6.089-13.596,13.599-13.596h87.021c7.51,0,13.599,6.086,13.599,13.596v83.582
						C1530.402,2240.059,1507.218,2263.24,1478.722,2263.24z M1122.506,2141.58v69.985c0,13.499,10.982,24.482,24.478,24.482
						h331.738c13.501,0,24.482-10.984,24.482-24.482v-69.985h-59.824v31.924c0,7.51-6.089,13.596-13.599,13.596h-73.418
						c-7.51,0-13.599-6.086-13.599-13.596v-31.924h-59.824v31.924c0,7.51-6.089,13.596-13.599,13.596h-73.418
						c-7.51,0-13.599-6.086-13.599-13.596v-31.924H1122.506z"/>
				</g>
				<g>
					<path style="fill:#F9C710;" d="M2081.69,2295.972h-173.129c-10.763,0-19.488-8.725-19.488-19.488v-23.567
						c0-10.763,8.725-19.489,19.488-19.489h173.129c10.763,0,19.488,8.725,19.488,19.489v23.567
						C2101.178,2287.247,2092.453,2295.972,2081.69,2295.972z"/>
				</g>
				<g style="opacity:0.55;">
					<path style="fill:#FFFFFF;" d="M2101.178,2252.916v20.829c0-10.768-8.702-19.47-19.471-19.47h-173.164
						c-10.769,0-19.471,8.701-19.471,19.47v-20.829c0-10.769,8.702-19.47,19.471-19.47h173.164
						C2092.477,2233.446,2101.178,2242.147,2101.178,2252.916z"/>
				</g>
				<g>
					<path style="fill:#390075;" d="M2081.691,2306.848h-173.13c-16.743,0-30.366-13.621-30.366-30.364v-23.569
						c0-16.743,13.623-30.364,30.366-30.364h173.13c16.743,0,30.366,13.621,30.366,30.364v23.569
						C2112.057,2293.228,2098.434,2306.848,2081.691,2306.848z M1908.561,2244.304c-4.746,0-8.608,3.862-8.608,8.611v23.569
						c0,4.749,3.862,8.611,8.608,8.611h173.13c4.746,0,8.608-3.862,8.608-8.611v-23.569c0-4.749-3.862-8.611-8.608-8.611H1908.561z"
						/>
				</g>
				<g style="opacity:0.4;">
					<path style="fill:#390075;" d="M1995.827,2065.058L1995.827,2065.058c-48.393,0-87.622,39.23-87.622,87.622v80.766h175.244
						v-80.766C2083.448,2104.288,2044.219,2065.058,1995.827,2065.058z"/>
				</g>
				<g>
					<path style="fill:#390075;" d="M2083.449,2244.321h-175.244c-6.006,0-10.879-4.868-10.879-10.876v-80.764
						c0-54.312,44.189-98.499,98.501-98.499c54.312,0,98.501,44.187,98.501,98.499v80.764
						C2094.328,2239.453,2089.455,2244.321,2083.449,2244.321z M1919.084,2222.568h153.486v-69.888
						c0-42.317-34.424-76.746-76.743-76.746c-42.319,0-76.743,34.429-76.743,76.746V2222.568z"/>
				</g>
				<g>
					<path style="fill:#33AEF1;" d="M2218.108,987.082h-222.983V838.427h182.646c22.277,0,40.336,18.059,40.336,40.336V987.082z"/>
				</g>
				<g style="opacity:0.55;">
					<path style="fill:#FFFFFF;" d="M2218.108,873.745v38.995c0-22.298-18.057-40.355-40.354-40.355h-182.629v-38.94h182.629
						C2200.052,833.445,2218.108,851.502,2218.108,873.745z"/>
				</g>
				<g>
					<path style="fill:#390075;" d="M2218.107,1000.679h-222.983c-7.51,0-13.599-6.086-13.599-13.596V838.428
						c0-7.51,6.089-13.596,13.599-13.596h182.646c29.741,0,53.936,24.194,53.936,53.933v108.318
						C2231.706,994.592,2225.617,1000.679,2218.107,1000.679z M2008.722,973.486h195.786v-94.722
						c0-14.744-11.992-26.741-26.738-26.741h-169.048V973.486z"/>
				</g>
				<g>
					<path style="fill:#390075;" d="M2145.612,895.061c-7.51,0-13.599-6.086-13.599-13.596c0-28.308,21.147-52.434,49.189-56.121
						c7.422-0.989,14.277,4.265,15.254,11.709c0.977,7.446-4.263,14.275-11.709,15.254c-14.561,1.912-25.537,14.448-25.537,29.158
						C2159.21,888.975,2153.122,895.061,2145.612,895.061z"/>
				</g>
				<g>
					<path style="fill:#33AEF1;" d="M2285.167,998.775l83.427,74.346h-174.08c-27.008,0-48.902-21.894-48.902-48.902V881.464
						c0,11.856,4.841,22.625,12.618,30.348c7.777,7.832,18.546,12.618,30.402,12.618h179.962L2285.167,998.775z"/>
				</g>
				<g style="opacity:0.55;">
					<path style="fill:#FFFFFF;" d="M2368.594,919.43l-43.78,38.995h-136.182c-11.856,0-22.625-4.786-30.402-12.618
						c-7.777-7.723-12.618-18.491-12.618-30.347v-38.995c0,11.856,4.841,22.625,12.618,30.348
						c7.777,7.832,18.546,12.618,30.402,12.618H2368.594z"/>
				</g>
				<g>
					<path style="fill:#390075;" d="M2368.595,1086.716h-174.082c-34.463,0-62.5-28.037-62.5-62.498V881.465
						c0-7.51,6.089-13.596,13.599-13.596s13.599,6.086,13.599,13.596c0,7.842,3.052,15.193,8.599,20.698
						c5.576,5.615,12.944,8.669,20.82,8.669h179.966c5.64,0,10.698,3.484,12.705,8.757c2.007,5.271,0.552,11.235-3.657,14.99
						l-72.041,64.194l72.041,64.194c4.209,3.755,5.664,9.719,3.657,14.99C2379.293,1083.233,2374.235,1086.716,2368.595,1086.716z
						 M2159.21,929.805v94.414c0,19.468,15.835,35.305,35.303,35.305h138.389l-56.782-50.598c-2.891-2.581-4.551-6.274-4.551-10.151
						c0-3.877,1.66-7.571,4.551-10.151l56.782-50.598h-144.272C2178.068,938.025,2167.965,935.164,2159.21,929.805z"/>
				</g>
				<g>
					<path style="fill:#390075;" d="M1995.124,1090.388c-7.51,0-13.599-6.086-13.599-13.596V776.79
						c0-7.51,6.089-13.596,13.599-13.596s13.599,6.086,13.599,13.596v300.002
						C2008.722,1084.302,2002.633,1090.388,1995.124,1090.388z"/>
				</g>
				<g>
					<path style="fill:#390075;" d="M1995.126,745L1995.126,745c-11.358,0-21.852,6.059-27.531,15.895h0
						c-5.679,9.836-5.679,21.954,0,31.79l0,0c5.679,9.836,16.173,15.895,27.531,15.895h0c11.357,0,21.852-6.059,27.531-15.895v0
						c5.679-9.836,5.679-21.954,0-31.79l0,0C2016.978,751.059,2006.483,745,1995.126,745z"/>
				</g>
				<g>
					<path style="fill:#3AB4FF;" d="M2843.702,1617.588H2688.13v-103.714h127.43c15.542,0,28.142,12.6,28.142,28.142V1617.588z"/>
					<path style="fill:#390075;" d="M2846.203,1620.088h-160.571v-108.713h129.927c16.899,0,30.645,13.745,30.645,30.642V1620.088z
						 M2690.631,1615.088h150.571v-73.071c0-14.138-11.504-25.642-25.645-25.642h-124.927V1615.088z"/>
				</g>
				<g style="opacity:0.55;">
					<path style="fill:#FFFFFF;" d="M2843.702,1542.003v27.206c0-15.557-12.598-28.155-28.154-28.155H2688.13v-27.168h127.417
						C2831.104,1513.886,2843.702,1526.484,2843.702,1542.003z"/>
				</g>
				<g>
					<path style="fill:#390075;" d="M2843.703,1628.464h-155.571c-6.006,0-10.879-4.868-10.879-10.876v-103.713
						c0-6.008,4.873-10.876,10.879-10.876h127.427c21.519,0,39.023,17.502,39.023,39.019v75.571
						C2854.582,1623.596,2849.708,1628.464,2843.703,1628.464z M2699.01,1606.712h133.813v-64.695
						c0-9.519-7.744-17.266-17.266-17.266H2699.01V1606.712z"/>
				</g>
				<g>
					<path style="fill:#390075;" d="M2793.122,1554.778c-6.006,0-10.879-4.868-10.879-10.877c0-20.447,15.278-37.873,35.532-40.532
						c5.908-0.789,11.416,3.408,12.202,9.368c0.781,5.955-3.413,11.418-9.37,12.2c-9.468,1.245-16.606,9.397-16.606,18.965
						C2804,1549.91,2799.127,1554.778,2793.122,1554.778z"/>
				</g>
				<g>
					<path style="fill:#3AB4FF;" d="M2890.487,1625.746l58.206,51.87H2827.24c-18.843,0-34.118-15.275-34.118-34.118V1543.9
						c0,8.272,3.378,15.785,8.803,21.173c5.426,5.464,12.939,8.803,21.211,8.803h125.557L2890.487,1625.746z"/>
					<path style="fill:#390075;" d="M2955.256,1680.117h-128.018c-20.19,0-36.616-16.428-36.616-36.619v-99.6h5
						c0,7.344,2.866,14.233,8.066,19.399c5.176,5.215,12.08,8.079,19.448,8.079h132.119l-61.006,54.37L2955.256,1680.117z
						 M2795.622,1561.211v82.288c0,17.434,14.185,31.619,31.616,31.619h114.893l-55.401-49.37l55.401-49.37h-118.994
						c-8.711,0-16.875-3.389-22.983-9.543C2798.415,1565.112,2796.901,1563.228,2795.622,1561.211z"/>
				</g>
				<g style="opacity:0.55;">
					<path style="fill:#FFFFFF;" d="M2948.693,1573.876l-30.545,27.206h-95.012c-8.272,0-15.785-3.339-21.211-8.803
						c-5.426-5.388-8.803-12.901-8.803-21.173V1543.9c0,8.272,3.378,15.785,8.803,21.173c5.426,5.464,12.939,8.803,21.211,8.803
						H2948.693z"/>
				</g>
				<g>
					<path style="fill:#390075;" d="M2948.693,1688.494h-121.455c-24.81,0-44.995-20.183-44.995-44.995v-99.6
						c0-6.008,4.873-10.877,10.879-10.877s10.879,4.868,10.879,10.877c0,5.095,1.982,9.875,5.591,13.457
						c3.633,3.66,8.423,5.645,13.545,5.645h125.557c4.511,0,8.559,2.786,10.166,7.004c1.606,4.219,0.439,8.989-2.93,11.992
						l-49.092,43.75l49.092,43.75c3.369,3.003,4.536,7.773,2.93,11.992S2953.205,1688.494,2948.693,1688.494z M2804,1580.024v63.474
						c0,12.815,10.425,23.242,23.237,23.242h92.9l-36.885-32.874c-2.314-2.063-3.643-5.017-3.643-8.12s1.328-6.057,3.643-8.12
						l36.885-32.874h-97.002C2816.344,1584.753,2809.816,1583.115,2804,1580.024z"/>
				</g>
				<g>
					<path style="fill:#390075;" d="M2688.131,1691.052c-6.006,0-10.879-4.868-10.879-10.876v-209.307
						c0-6.008,4.873-10.876,10.879-10.876s10.879,4.868,10.879,10.876v209.307
						C2699.01,1686.184,2694.137,1691.052,2688.131,1691.052z"/>
				</g>
				<g>
					<path style="fill:#390075;" d="M2688.13,1448.691L2688.13,1448.691c-7.924,0-15.246,4.227-19.208,11.09l0,0
						c-3.962,6.862-3.962,15.317,0,22.179l0,0c3.962,6.862,11.284,11.09,19.208,11.09h0c7.924,0,15.246-4.227,19.208-11.09l0,0
						c3.962-6.862,3.962-15.317,0-22.179l0,0C2703.376,1452.918,2696.054,1448.691,2688.13,1448.691z"/>
				</g>
				<g>
					<path style="fill:#33AEF1;" d="M1467.76,1619.427h-155.572v-103.714h127.43c15.542,0,28.142,12.599,28.142,28.142V1619.427z"/>
				</g>
				<g style="opacity:0.55;">
					<path style="fill:#FFFFFF;" d="M1467.76,1543.841v27.206c0-15.557-12.598-28.155-28.154-28.155h-127.417v-27.168h127.417
						C1455.162,1515.725,1467.76,1528.322,1467.76,1543.841z"/>
				</g>
				<g>
					<path style="fill:#390075;" d="M1467.76,1630.303h-155.571c-6.006,0-10.879-4.868-10.879-10.877v-103.713
						c0-6.008,4.873-10.876,10.879-10.876h127.427c21.519,0,39.023,17.502,39.023,39.018v75.571
						C1478.639,1625.435,1473.766,1630.303,1467.76,1630.303z M1323.068,1608.55h133.813v-64.695
						c0-9.519-7.744-17.266-17.266-17.266h-116.548V1608.55z"/>
				</g>
				<g>
					<path style="fill:#390075;" d="M1417.179,1556.616c-6.006,0-10.879-4.868-10.879-10.876c0-20.447,15.278-37.874,35.532-40.532
						c5.894-0.786,11.416,3.408,12.202,9.368c0.781,5.955-3.413,11.418-9.37,12.2c-9.468,1.245-16.606,9.397-16.606,18.965
						C1428.058,1551.748,1423.185,1556.616,1417.179,1556.616z"/>
				</g>
				<g>
					<path style="fill:#33AEF1;" d="M1514.546,1627.584l58.206,51.87h-121.453c-18.843,0-34.118-15.275-34.118-34.118v-99.598
						c0,8.272,3.378,15.785,8.803,21.173c5.426,5.464,12.939,8.803,21.211,8.803h125.557L1514.546,1627.584z"/>
				</g>
				<g style="opacity:0.55;">
					<path style="fill:#FFFFFF;" d="M1572.752,1575.715l-30.545,27.206h-95.012c-8.272,0-15.786-3.339-21.211-8.803
						c-5.426-5.388-8.803-12.901-8.803-21.173v-27.206c0,8.272,3.378,15.785,8.803,21.173c5.426,5.464,12.939,8.803,21.211,8.803
						H1572.752z"/>
				</g>
				<g>
					<path style="fill:#390075;" d="M1572.751,1690.33H1451.3c-24.815,0-45-20.183-45-44.993v-99.6
						c0-6.008,4.873-10.876,10.879-10.876c6.006,0,10.879,4.868,10.879,10.876c0,5.095,1.982,9.875,5.591,13.457
						c3.633,3.66,8.423,5.644,13.545,5.644h125.557c4.512,0,8.559,2.786,10.166,7.004c1.606,4.219,0.439,8.989-2.93,11.992
						l-49.092,43.75l49.092,43.748c3.369,3.003,4.536,7.773,2.93,11.992C1581.31,1687.544,1577.262,1690.33,1572.751,1690.33z
						 M1428.058,1581.863v63.474c0,12.815,10.425,23.24,23.242,23.24h92.896l-36.885-32.871c-2.314-2.063-3.643-5.017-3.643-8.12
						c0-3.103,1.328-6.057,3.643-8.12l36.885-32.874h-97.002C1440.402,1586.592,1433.874,1584.954,1428.058,1581.863z"/>
				</g>
				<g>
					<path style="fill:#390075;" d="M1312.189,1692.891c-6.006,0-10.879-4.868-10.879-10.877v-209.307
						c0-6.008,4.873-10.876,10.879-10.876s10.879,4.868,10.879,10.876v209.307
						C1323.068,1688.022,1318.195,1692.891,1312.189,1692.891z"/>
				</g>
				<g>
					<path style="fill:#390075;" d="M1312.189,1450.529L1312.189,1450.529c-7.924,0-15.246,4.227-19.208,11.09l0,0
						c-3.962,6.862-3.962,15.317,0,22.179l0,0c3.962,6.862,11.284,11.09,19.208,11.09l0,0c7.924,0,15.246-4.227,19.208-11.09l0,0
						c3.962-6.862,3.962-15.317,0-22.179l0,0C1327.434,1454.757,1320.113,1450.529,1312.189,1450.529z"/>
				</g>
			</g>
			<g>
				<path style="fill:#390075;" d="M3347.734,3240.017c-56.155,7.766-112.312,9.626-168.467,10.581
					c-28.079,0.525-56.155,0.627-84.233,0.493c-28.079,0.037-56.155-0.32-84.233-0.574c-56.155-0.457-112.312-0.571-168.467-0.5
					h-168.467H2000h-673.867H989.199l-84.233,0.029l-42.117,0.359l-42.117,0.623c-56.155,0.176-112.312-0.273-168.467-11.011
					c-2.761-0.527-4.573-3.193-4.045-5.955c0.403-2.104,2.063-3.66,4.045-4.045c56.155-10.735,112.312-11.184,168.467-11.008
					l42.117,0.623l42.117,0.359l84.233,0.027h336.934H2000h673.867h168.467c56.155,0.073,112.312-0.042,168.467-0.498
					c28.079-0.254,56.155-0.61,84.233-0.574c28.079-0.134,56.155-0.032,84.233,0.493c56.155,0.955,112.312,2.815,168.467,10.579
					c2.761,0.383,4.69,2.932,4.309,5.693C3351.726,3237.998,3349.917,3239.714,3347.734,3240.017z"/>
			</g>
		</g>
	</g>
</g>
</svg>
