<?xml version="1.0" encoding="utf-8"?>
<!-- Generator: Adobe Illustrator 27.5.0, SVG Export Plug-In . SVG Version: 6.00 Build 0)  -->
<svg version="1.1" id="Layer_1" xmlns="http://www.w3.org/2000/svg" xmlns:xlink="http://www.w3.org/1999/xlink" x="0px" y="0px"
	 viewBox="0 0 4000 4000" style="enable-background:new 0 0 4000 4000;" xml:space="preserve">
<g>
	<g>
		<!-- <rect style="fill:#FFA9DE;" width="4000" height="4000"/> -->
	</g>
	<g style="opacity:0.3;">
		<ellipse style="fill:#760153;" cx="1992.5" cy="3385" rx="632.5" ry="90"/>
	</g>
	<g>
		<g>
			<path style="fill:#FBC100;" d="M2671.77,2261.235c154.272,42.939,48.077-306.569-123.658-384.507l35.441,246.444
				L2671.77,2261.235z"/>
		</g>
		<g style="opacity:0.3;">
			<path style="fill:#760153;" d="M2671.77,2261.235c154.272,42.939,48.077-306.569-123.658-384.507l35.441,246.444
				L2671.77,2261.235z"/>
		</g>
		<g>
			<path style="fill:#955447;" d="M2577.991,2828.006c-2,46.25-38.45,83.7-84.65,87.3l-825.3,64.4
				c-37.05,2.85-74.2-2.35-108.95-15.25c-0.05,0-0.1-0.05-0.2-0.05c-2.9-1.1-5.8-2.2-8.65-3.4l-107.65-44.5
				c-28.9-12-47.45-40.6-46.45-71.85c19.8-616.25-50.35-1190.5-152.3-1655.35c-5.8-26.55,3.15-54.1,23.4-72.2l92.15-82.2l0.1-0.05
				l9.6-8.6c25.75-22.95,58.25-36.8,92.6-39.5l13.2-1.05l355.6-27.75l114.6-8.95l326.3-25.45l27.85-2.15
				c44.6-3.45,85.2,25.7,96.2,69.05C2538.341,1552.706,2603.991,2226.656,2577.991,2828.006z"/>
		</g>
		<g>
			<path style="fill:#B68662;" d="M2178.341,1863.356c10.85,100.3,19.75,197,28.25,302.9l-83.9,39.7
				c-2.7-62.7-1.35-27.35-5.85-90.25c-18.5-261.2-51.8-522.25-98.85-770.05l86-6.8l0.8,4.05l261-25.15l9.3-0.75l1.7-0.15l0.65,4.1
				h40.25l27.55,23.5l-55.1,54.6l-256.55,18c-8.3,0.6-14.25,8.15-12.9,16.35c12.5,74.7,23.85,151.75,34.2,230.8l-70.6,94.499
				l81.8-4.599c0.15,1.1,0.25,2.2,0.4,3.3l237.45-21.15l36.35-2l2.95-0.15l24.8-1.35l49.15,28.65l-66.85,58.75l-254.95,22.45
				C2184.891,1843.505,2177.241,1852.906,2178.341,1863.356z"/>
		</g>
		<g style="opacity:0.2;">
			<path style="fill:#FFFFFF;" d="M1359.491,1034.855c3.1-2.8,6.5-5,10.05-6.6L1359.491,1034.855z"/>
		</g>
		<g>
			<path style="fill:#B68662;" d="M2009.641,1362.255l-72,74.7l-280.7,23.601c-23.65,1.949-40.45,23.7-36.55,47.099
				c10.7,64.75,20.45,130.1,29.2,195.8l-85.35,97.7c-32.1-259.449-78.65-512.65-138.6-746.3c-6.5-25.25-34.15-36.799-56.1-26.6
				l46.7-30.6c7.1-6.35,44.55-9.65,59-10.25l-0.35-1.7l267.5-20.85l17.5-1.05c0.05,0,0.1-0.05,0.15-0.05c0.05,0,0.1,0.05,0.15,0.05
				l70.7-4.35l44.65-2.7l26.8,20.15l-48.45,65.95l-297.95,20.4c-13.35,0.9-22.65,13.6-19.5,26.6
				c16.4,68.201,31.7,137.901,45.9,208.8l-81.7,87l109.65-8.15l-2.5-7.1l312.9-25.451l1.45,7.85h0.05l84.15-8.35
				C2007.441,1350.356,2008.541,1356.306,2009.641,1362.255z"/>
		</g>
		<g style="opacity:0.2;">
			<path style="fill:#FFFFFF;" d="M2016.691,1354.906l-7.05,7.35c-1.1-5.95-2.2-11.899-3.3-17.8L2016.691,1354.906z"/>
		</g>
		<g style="opacity:0.2;">
			<polygon style="fill:#FFFFFF;" points="1758.891,963.806 1759.891,963.806 1742.391,964.855 1830.491,957.956 1830.891,959.456 
							"/>
		</g>
		<g>
			<path style="fill:#B68662;" d="M1673.141,1901.105c34.45,332.55,44.75,670.3,29.5,990.25c-1.3,27.3-65.3,45-90.55,34.55
				l-2.2,1.45c17.1-360,1.05-747.05-45-1121.2l96.3-11.1c0.15,1.2,0.3,2.45,0.45,3.65l308.6-27.5l17.15-1.55h82.5
				c0.2,1.75,0.4,3.5,0.6,5.3l-73.4,77.15l-302.05,22.75C1681.591,1875.856,1671.741,1887.756,1673.141,1901.105z"/>
		</g>
		<g style="opacity:0.2;">
			<path style="fill:#FFFFFF;" d="M2075.541,1769.656l-5.05,5.3c-0.2-1.8-0.4-3.55-0.6-5.3H2075.541z"/>
		</g>
		<g style="opacity:0.3;">
			<path style="fill:#760153;" d="M2220.541,928.056c-1.1-0.1-2.15-0.15-3.25-0.15l55.5-3.65l18.1-1.2c6.4-0.5,12.75-0.3,18.9,0.5
				l-79.6,5.55h-0.05c-1.05-0.2-2.1-0.35-3.15-0.45C2224.841,928.356,2222.691,928.156,2220.541,928.056z"/>
		</g>
		<g style="opacity:0.3;">
			<path style="fill:#760153;" d="M2339.691,932.756l-29.9-9.2C2320.341,924.856,2330.441,928.056,2339.691,932.756z"/>
		</g>
		<g style="opacity:0.3;">
			<path style="fill:#760153;" d="M2569.641,2829.656c-2,46.25-38.45,83.7-104.4,87.95l-509.25,39.75l446.2-35.35
				c46.15-3.6,82.6-41,84.6-87.3c14.15-326.6,1.25-674.6-36.45-1014.55l66.85-58.75l-49.15-28.65l-24.8,1.35l-2.95,0.15
				c-0.3-2.4-0.6-4.801-0.9-7.2l-260.7,16.9l-0.5,9.45l-12.1,0.7l-81.8,4.599l70.6-94.499l1.2-1.6l247.95-18.9
				c13.1-1,22.7-12.85,20.85-25.9c-10.4-73.65-22-146.701-34.75-218.75l55.1-54.6l-27.55-23.5h-40.25l-0.65-4.1l-1.7,0.15
				c-0.05-0.05-0.05-0.1-0.05-0.15l-9.25,0.9l-261,25.15l-0.8-4.05l-86,6.8l-1.3,0.1l1.1-1.3l71-84.1l-0.15-0.75l245.45-19.75
				c13.45-1.1,22.9-13.75,20.15-26.949c-14.9-70.85-30.9-140.5-48.1-208.45l51.9-59.35c13.9,11.95,24.25,28.15,29.05,47
				C2529.991,1554.356,2595.641,2228.306,2569.641,2829.656z"/>
		</g>
		<g style="opacity:0.3;">
			<path style="fill:#760153;" d="M2017.791,1344.456c0.05,0.4,0.15,0.8,0.2,1.2l-1.3,0.1L2017.791,1344.456z"/>
		</g>
		<g style="opacity:0.3;">
			<polygon style="fill:#760153;" points="2156.091,1662.606 2154.891,1664.206 2154.691,1662.706 			"/>
		</g>
		<g style="opacity:0.3;">
			<path style="fill:#760153;" d="M1645.441,2981.956c1.9-0.05,3.1-0.05,3.7-0.05c-0.85,0.05-2.7,0.05-4.55,0.1L1645.441,2981.956z"
				/>
		</g>
		<g style="opacity:0.3;">
			<path style="fill:#760153;" d="M1955.991,2957.355l-310.55,24.6c-1.4,0-3.2,0-5.5,0.05L1955.991,2957.355z"/>
		</g>
		<g style="opacity:0.3;">
			<path style="fill:#760153;" d="M1645.441,2981.956c1.9-0.05,3.1-0.05,3.7-0.05c-0.85,0.05-2.7,0.05-4.55,0.1L1645.441,2981.956z"
				/>
		</g>
		<g style="opacity:0.3;">
			<path style="fill:#760153;" d="M1955.991,2957.355l-310.55,24.6c-1.4,0-3.2,0-5.5,0.05L1955.991,2957.355z"/>
		</g>
		<g>
			<path style="fill:#B68662;" d="M2038.891,1045.006c0,0.05,0.05,0.15,0.05,0.2c18.05,68.45,34.6,140.05,49.7,214.4l0.15,0.75
				l-71,84.1c-21.2-111.5-45.2-220.35-71.85-325.3c-10.25-40.5-46.35-68.6-87.45-69.25l113.9-3.4c0,0,0.25,0.1,0.7,0.3l298.3-23.25
				l1.4,0.7l-55.5,3.65c1.1,0,2.15,0.05,3.25,0.15c2.15,0.1,4.3,0.3,6.45,0.6c1.05,0.1,2.1,0.25,3.15,0.45h0.05l79.6-5.55l29.9,9.2
				c6.6,3.35,12.75,7.5,18.35,12.35l-51.9,59.35l-251.3,18.5C2043.841,1023.756,2036.341,1034.256,2038.891,1045.006z"/>
		</g>
		<g style="opacity:0.2;">
			<path style="fill:#FFFFFF;" d="M2362.641,939.856l-4.6,5.25c-5.6-4.85-11.75-9-18.35-12.35L2362.641,939.856z"/>
		</g>
		<g style="opacity:0.2;">
			<polygon style="fill:#FFFFFF;" points="2443.241,1734.106 2403.941,1736.256 2440.141,1733.006 2443.141,1732.756 			"/>
		</g>
		<g>
			<path style="fill:#B68662;" d="M1609.841,2928.555c-1.25,25.95-26.55,43.201-50.75,35.9c-0.05,0-0.1-0.05-0.2-0.05
				c-2.9-1.1-5.8-2.2-8.65-3.4l-107.65-44.5c-28.9-12-47.45-40.6-46.45-71.85c19.8-616.25-50.35-1190.5-152.3-1655.35
				c-5.8-26.55,3.15-54.1,23.4-72.2l92.15-82.2l0.1-0.05c22.6-20.149,58.6-9.299,66.15,20
				C1572.491,1627.156,1638.991,2316.956,1609.841,2928.555z"/>
		</g>
		<g style="opacity:0.2;">
			<path style="fill:#FFFFFF;" d="M1858.491,949.906l-8.75,0.25C1852.691,949.906,1855.591,949.856,1858.491,949.906z"/>
		</g>
		<g>
			<path style="fill:#ED2957;" d="M2577.991,2828.006c-2,46.25-38.45,83.7-84.65,87.3l-825.3,64.4c-16.75,1.3-33.55,0.95-50.1-1.05
				c-23.2-2.75-45.95-8.65-67.7-17.65l-107.65-44.5c-28.9-12-47.45-40.6-46.45-71.85c4.8-149.2,4.3-295.9-0.6-439.2
				c-1.4-40.75-3.15-81.2-5.25-121.35c26.1,2.05,54.25,8.6,82.4,22.55c75.9,179,169.3,233.45,308.35-37.5c0,0,8.45-14.7,28-29.05
				c25.85-19.1,71.15-37.55,141.85-20.5c54.7,13.15,124.65,47.65,212.65,119.55c142.65,116.6,213.9,102.1,249.45,57.9
				c13.05-16.1,21.25-36.15,26.45-55.3c9.35-34.1,9.1-65.1,9.1-65.1s51.6-59,131.75,82.7c0.1,2.899,0.2,5.75,0.25,8.65
				c1.2,39.249,2.05,78.35,2.5,117.35C2584.491,2601.306,2582.841,2715.906,2577.991,2828.006z"/>
		</g>
		<g style="opacity:0.55;">
			<path style="fill:#FFFFFF;" d="M1390.267,2284.1c0.75,14.8,1.5,29.65,2.15,44.55c-5.9-129.2-15.35-255.35-27.75-377.85
				c10.35,49,28.3,86.45,51.45,114.901c6.55,74,12,149.25,16.25,225.65C1417.967,2287.45,1403.817,2285.15,1390.267,2284.1z"/>
		</g>
		<g style="opacity:0.55;">
			<path style="fill:#FFFFFF;" d="M1455.067,2921.65l-12.5-5.15c-28.9-12.001-47.45-40.601-46.45-71.851
				c5.15-160.9,4.2-318.9-1.85-472.85c0.45,11.2,0.85,22.4,1.25,33.65c0.137,0.014,0.275,0.028,0.413,0.042
				c24.164,2.503,42.66,22.83,43.436,47.11c4.388,137.425,4.622,277.983,0.052,420.797
				C1438.867,2891.2,1444.617,2908.15,1455.067,2921.65z"/>
		</g>
		<g style="opacity:0.55;">
			<path style="fill:#FFFFFF;" d="M2376.667,953.9c-10.8-3.3-22.35-4.65-34.15-3.75l-27.85,2.15l-326.3,25.45l-114.6,8.95
				l-355.6,27.75l-13.2,1.05c-34.35,2.7-66.85,16.55-92.6,39.5l-9.6,8.6l-0.1,0.05l-92.15,82.2c-20.25,18.101-29.2,45.651-23.4,72.2
				c44.55,203.1,83,427.05,110.55,666.25c-13.65-3.85-28-12.05-42.85-25.35v0.599c-27.55-240.699-66.2-466.05-111-670.25
				c-5.8-26.55,3.15-54.1,23.4-72.2l92.15-82.2l0.1-0.05l9.6-8.6c25.75-22.95,58.25-36.8,92.6-39.5l13.2-1.05l355.6-27.75
				l114.6-8.95l326.3-25.45l27.85-2.15C2329.567,919.05,2358.117,931.8,2376.667,953.9z"/>
		</g>
		<g>
			<path style="fill:#760153;" d="M1648.337,2995.452c-35.513,0-71.03-7.002-103.843-20.576l-107.642-44.531
				c-34.497-14.268-56.875-48.901-55.679-86.182c22.163-691.377-70.42-1279.775-151.987-1651.638
				c-6.963-31.765,3.794-64.951,28.076-86.609l101.855-90.847c27.993-24.971,64.009-40.33,101.411-43.247l837.534-65.349
				c52.031-4.099,99.063,29.709,111.919,80.3c142.637,561.196,209.331,1232.537,182.979,1841.882
				c-2.324,53.716-44.638,97.393-98.428,101.592l-825.337,64.395C1662.257,2995.178,1655.295,2995.452,1648.337,2995.452z
				 M2306.471,936.143c-2.011,0-4.038,0.078-6.074,0.237l-837.534,65.349c-30.899,2.412-60.649,15.1-83.774,35.728l-101.855,90.847
				c-16.211,14.455-23.389,36.601-18.74,57.795c81.934,373.525,174.927,964.56,152.661,1659.021
				c-0.796,24.873,14.141,47.979,37.163,57.5l107.642,44.531c34.902,14.438,73.252,20.537,110.903,17.578l825.337-64.395
				c38.687-3.018,69.121-34.39,70.791-72.979c26.23-606.541-40.137-1274.714-182.08-1833.196
				C2372.16,959.744,2341.413,936.143,2306.471,936.143z M2493.366,2915.291h0.049H2493.366z"/>
		</g>
		<g>
			<path style="fill:#760153;" d="M1500.646,1407.962c-5.991,0-11.646-3.613-13.97-9.524c-3.022-7.712,0.771-16.416,8.486-19.443
				c15.879-6.235,32.583-10.085,49.639-11.443l837.573-65.349c51.997-4.004,99.077,29.753,111.909,80.315
				c2.036,8.03-2.822,16.191-10.85,18.228c-8.042,2.041-16.196-2.82-18.232-10.85c-9.229-36.379-43.228-60.693-80.503-57.783
				l-837.539,65.347c-14.087,1.123-27.905,4.307-41.04,9.46C1504.323,1407.627,1502.467,1407.962,1500.646,1407.962z"/>
		</g>
		<g>
			<path style="fill:#760153;" d="M1564.943,1821.812c-6.162,0-11.938-3.831-14.131-9.968c-2.778-7.803,1.289-16.384,9.097-19.165
				c14.365-5.122,29.355-8.328,44.551-9.526l837.515-65.349c52.012-4.002,99.067,29.751,111.953,80.298
				c2.046,8.03-2.803,16.196-10.83,18.242c-8.032,2.046-16.197-2.803-18.242-10.83c-9.268-36.379-43.164-60.693-80.557-57.8
				l-837.49,65.347c-12.554,0.991-24.951,3.643-36.826,7.876C1568.317,1821.528,1566.613,1821.812,1564.943,1821.812z"/>
		</g>
		<g>
			<path style="fill:#760153;" d="M2127.633,2326.106c-7.988,0-14.629-6.296-14.976-14.355
				c-2.685-62.319-6.309-125.596-10.776-188.076c-27.168-383.601-86.118-761.873-170.478-1093.926
				c-9.229-36.394-43.13-60.698-80.488-57.739c-8.247,0.698-15.478-5.525-16.128-13.779c-0.645-8.259,5.522-15.481,13.784-16.128
				c52.056-4.08,99.072,29.675,111.909,80.264c84.79,333.747,144.038,713.84,171.323,1099.18
				c4.487,62.751,8.13,126.313,10.825,188.916c0.357,8.276-6.064,15.273-14.341,15.63
				C2128.068,2326.101,2127.848,2326.106,2127.633,2326.106z"/>
		</g>
		<g style="opacity:0.3;">
			<path style="fill:#760153;" d="M1758.891,963.806l1.15-0.05c-0.05,0-0.1,0.05-0.15,0.05H1758.891z"/>
		</g>
		<g style="opacity:0.3;">
			<path style="fill:#760153;" d="M1830.891,959.456l-70.7,4.35c-0.05,0-0.1-0.05-0.15-0.05L1830.891,959.456z"/>
		</g>
		<g style="opacity:0.3;">
			<path style="fill:#760153;" d="M1902.341,976.906l-26.8-20.15C1875.541,956.756,1887.791,961.606,1902.341,976.906z"/>
		</g>
		<g style="opacity:0.3;">
			<path style="fill:#760153;" d="M1610.291,1377.506l-109.65,8.15l81.7-87l299.85-21.849c13.05-0.95,22.25-13.201,19.6-25.95
				c-14.8-70.75-30.75-140.2-47.9-208l48.45-65.95c14.1,14.75,30.3,39.3,39.75,78.601c24.05,91,45.35,187.6,64.25,288.949
				l-84.15,8.35c-0.5-2.65-1-5.25-1.5-7.85l-312.9,25.451L1610.291,1377.506z"/>
		</g>
		<g style="opacity:0.3;">
			<path style="fill:#760153;" d="M1987.441,1769.656l-1.45-10.95c0.5,3.65,0.95,7.3,1.4,10.95l-294.8,16.3l2.65,5.149l-34.05,3.95
				l-96.3,11.1c-0.2-1.7-0.4-3.35-0.65-5l85.35-97.7l282.85-23.8c23.3-1.95,40.05-23.15,36.7-46.3c-9.5-66.101-20-131.65-31.5-196.4
				l72-74.7c23.55,128.85,43.35,265.2,60.25,407.401H1987.441z"/>
		</g>
		<g style="opacity:0.3;">
			<path style="fill:#760153;" d="M2109.691,2176.506l-81.55,43.35c-2.7-62.7-1.3-27.4-5.8-90.3c-6.6-92.699-15-185.35-25.25-277.45
				l73.4-77.15C2085.741,1904.406,2098.641,2038.656,2109.691,2176.506z"/>
		</g>
		<g style="opacity:0.3;">
			<path style="fill:#760153;" d="M1564.891,1806.156l-5.6,0.651l4.95-5.651C1564.491,1802.806,1564.691,1804.456,1564.891,1806.156
				z"/>
		</g>
		<g style="opacity:0.3;">
			<path style="fill:#760153;" d="M1987.441,1769.656h-0.05c-0.45-3.651-0.9-7.3-1.4-10.95L1987.441,1769.656z"/>
		</g>
		<g>
			<path style="fill:#760153;" d="M1570.417,2981.121c-7.051,0.005-14.121-1.362-20.806-4.126
				c-7.656-3.169-11.294-11.943-8.13-19.595c3.169-7.661,11.948-11.304,19.595-8.13c7.451,3.096,15.64,2.378,22.461-1.948
				c6.807-4.321,10.933-11.416,11.313-19.468c29.463-618.096-37.515-1299.414-183.755-1869.258
				c-2.246-8.75-8.506-15.283-17.178-17.922c-8.594-2.627-17.749-0.615-24.453,5.366c-6.186,5.513-15.659,4.978-21.177-1.208
				c-5.518-6.182-4.976-15.664,1.206-21.179c14.585-13.01,34.453-17.375,53.164-11.68c18.643,5.676,32.661,20.317,37.5,39.168
				c146.953,572.624,214.258,1257.18,184.663,1878.14c-0.845,17.676-10.269,33.892-25.21,43.374
				C1590.768,2978.264,1580.617,2981.121,1570.417,2981.121z"/>
		</g>
		<g>
			<path style="fill:#FBC100;" d="M2603.591,2375.406v0.05c-6.2,5.599-10.15,8.45-10.15,8.45
				c-87.6-172.75-144.9-107.25-144.9-107.25s0.95,115.4-67.75,145.699c-41.6,18.3-108.8,5.45-217.25-83.199
				c-287.5-235-382.5-70-382.5-70c-139.05,270.95-232.45,216.5-308.35,37.5c-105.9-52.5-211.35,0-211.35,0l69.7-165l-97.5-47.5
				c35-97.5,131.6-138.95,131.6-138.95s29.5,194.55,238.1,194.65c208.65,0.15,264.1-95.2,518.85-25.85
				c167.5,45.6,322.5,2.15,409.05-33h0.05c45.1-18.3,71.6-34.349,71.6-34.349l75.75,137.5
				C2682.491,2293.006,2626.991,2354.156,2603.591,2375.406z"/>
		</g>
		<g style="opacity:0.55;">
			<path style="fill:#FFFFFF;" d="M1661.441,2435.306c-77.05,57.65-136.95-6.5-188.75-128.65c-105.9-52.5-211.35,0-211.35,0
				l69.7-165l-97.5-47.5c35-97.5,131.6-138.95,131.6-138.95s0.6,3.85,2.15,10.5c-26.103,20.404-56.137,51.04-74.766,93.355
				c-3.33,7.563,0.039,16.435,7.467,20.054l58.992,28.74c14.331,6.982,20.698,23.954,14.495,38.64l-58.637,138.812
				c0,0,64.841-32.282,143.895-20.904c37.407,5.384,69.732,29.006,86.724,62.764
				C1579.641,2395.07,1617.513,2436.523,1661.441,2435.306z"/>
		</g>
		<g style="opacity:0.55;">
			<path style="fill:#FFFFFF;" d="M2402.641,2408.106c-38.5,34.7-109.15,37.25-239.1-68.95c-141.7-115.85-236.65-134.5-296.5-123.6
				c48.15-32.45,154.65-57.45,350,102.25C2301.441,2386.756,2360.841,2409.855,2402.641,2408.106z"/>
		</g>
		<g>
			<path style="fill:#760153;" d="M1606.017,2471.702c-1.001,0-1.987-0.02-2.988-0.054c-52.246-1.907-97.417-50.842-141.929-153.887
				c-96.016-44.468-192.114,1.87-193.096,2.354c-5.605,2.766-12.378,1.77-16.938-2.532c-4.561-4.299-5.977-10.972-3.54-16.746
				l64.165-151.904l-84.717-41.274c-6.885-3.352-10.137-11.348-7.549-18.552c36.782-102.463,135.62-145.881,139.81-147.678
				c4.272-1.831,9.15-1.58,13.208,0.674c4.058,2.258,6.846,6.27,7.539,10.864c1.147,7.397,30.425,181.782,223.276,181.907
				c0.142,0,0.288,0,0.43,0c78.037,0,134.165-13.677,188.447-26.904c89.058-21.699,173.179-42.195,333.906,1.553
				c245.718,66.88,466.792-64.348,468.999-65.681c7.095-4.287,16.309-2.012,20.601,5.071c4.287,7.087,2.017,16.311-5.073,20.598
				c-9.448,5.72-234.404,139.182-492.407,68.958c-153.252-41.714-230.029-23.01-318.921-1.35
				c-56.006,13.645-113.921,27.756-195.547,27.756c-0.151,0-0.298,0-0.454,0c-177.881-0.115-233.452-135.535-248.213-187.476
				c-25.845,14.941-76.406,50.244-102.397,109.39l84.98,41.404c7.168,3.491,10.351,11.978,7.251,19.321l-56.138,132.9
				c41.582-12.429,115.542-24.404,190.615,12.825c3.208,1.592,5.742,4.28,7.143,7.578c39.048,92.041,78.628,139.429,117.642,140.852
				c46.841,1.606,101.631-58.643,163.574-179.341c0.107-0.215,0.225-0.427,0.347-0.637c1.133-1.973,28.589-48.452,95.996-60.828
				c83.472-15.317,187.402,27.31,308.994,126.699c89.653,73.281,160.034,101.03,203.525,80.229
				c56.987-27.246,56.987-129.971,56.982-131.003c-0.024-3.667,1.299-7.229,3.711-9.988c6.719-7.683,24.546-19.88,48.813-16.826
				c36.968,4.634,74.57,41.719,111.919,110.315c23.432-22.51,69.072-77.922,65.566-165.513c-0.327-8.279,6.113-15.256,14.389-15.588
				c8.286-0.315,15.259,6.111,15.591,14.387c5.259,131.558-87.383,199.688-91.328,202.522c-3.56,2.556-8.047,3.43-12.31,2.393
				c-4.253-1.038-7.842-3.884-9.824-7.791c-46.104-90.928-80.625-108.494-97.1-110.874c-9.058-1.287-15.742,1.541-19.57,3.972
				c-1.04,26.997-9.331,120.11-73.818,151.021c-55.508,26.616-134.761-1.658-235.532-84.028
				c-141.948-116.028-232.612-129.619-283.686-120.583c-52.051,9.209-73.984,42.666-76.206,46.27
				C1726.706,2407.781,1665.119,2471.694,1606.017,2471.702z"/>
		</g>
		<g>
			<path style="fill:#760153;" d="M2695.666,2279.807c-8.657,0-17.993-1.357-27.92-4.121c-7.979-2.222-12.646-10.491-10.425-18.472
				s10.483-12.637,18.472-10.43c35.772,9.954,46.206-6.194,50.943-19.209c13.008-35.771-1.343-106.016-35.708-174.797
				c-38.892-77.847-93.242-137.036-149.116-162.39c-7.544-3.423-10.884-12.314-7.456-19.858c3.423-7.539,12.305-10.891,19.858-7.461
				c62.022,28.149,121.636,92.407,163.55,176.301c38.994,78.047,53.198,154.092,37.065,198.457
				C2744.948,2265.281,2723.971,2279.805,2695.666,2279.807z"/>
		</g>
		<g style="opacity:0.3;">
			<path style="fill:#760153;" d="M1987.441,1769.656h-0.05c-0.45-3.651-0.9-7.3-1.4-10.95L1987.441,1769.656z"/>
		</g>
		<g style="opacity:0.2;">
			<polygon style="fill:#FFFFFF;" points="1987.391,1769.656 1970.241,1771.205 1970.391,1769.656 			"/>
		</g>
		<g style="opacity:0.3;">
			<path style="fill:#760153;" d="M1354.792,1858.948c99.867,89.536,176.999-52.142,191.086-194.742l57.372,485.668
				C1479.329,2140.506,1359.477,2084.006,1354.792,1858.948z"/>
		</g>
		<g style="opacity:0.3;">
			<path style="fill:#760153;" d="M1364.667,1950.8c-5.7-26.799-9.1-57.1-9.85-91.25
				C1358.267,1889.7,1361.567,1920.15,1364.667,1950.8z"/>
		</g>
		<g style="opacity:0.3;">
			<path style="fill:#760153;" d="M2603.591,2375.406c7-18.8-10.15,8.5-10.15,8.5c-87.6-172.75-144.9-107.25-144.9-107.25
				s0.95,115.4-67.75,145.699l-15.25-4.6c18.8-38.35,28.2-87.8,28.15-148.25c-0.05-59.25,54.4-88.554,108.1-63.554
				c18,8.4,34.566,25.643,62.5,33.055c97.5,25.87,14.95-131-33.1-148c45.1-18.3,71.6-34.349,71.6-34.349l75.75,137.5
				C2682.491,2293.006,2626.991,2354.156,2603.591,2375.406z"/>
		</g>
		<g style="opacity:0.3;">
			<path style="fill:#760153;" d="M2577.991,2828.006c-2,46.25-38.45,83.7-84.65,87.3l-825.3,64.4c-16.75,1.3-33.55,0.95-50.1-1.05
				c-4.5-1.35-7-2.15-7-2.15c350.113-27.479,632.977-99.125,732.258-291.427c28.87-55.92,1.885-124.174-56.67-147.232
				c-33.593-13.229-74.158-37.805-123.137-77.841c-287.5-235-382.5-70-382.5-70c-139.05,270.95-232.45,216.5-308.35,37.5
				c-26.25-13-52.45-19.55-77-22.05c-1.4-40.75-3.15-81.2-5.25-121.35c26.1,2.05,54.25,8.6,82.4,22.55
				c75.9,179,169.3,233.45,308.35-37.5c0,0,8.45-14.7,28-29.05c44.4-10.7,88.1-20.2,141.85-20.5
				c54.7,13.15,124.65,47.65,212.65,119.55c142.6,116.55,213.85,102.1,249.45,57.95v-0.05c13.05-16.1,21.25-36.15,26.45-55.3h0.05
				c9.3-34.1,9.05-65.1,9.05-65.1s51.6-59,131.75,82.7c0.1,2.899,0.2,5.75,0.25,8.65c0.3,9.8,0.6,19.6,0.85,29.399
				c0.75,29.401,1.3,58.7,1.65,87.95C2584.491,2601.306,2582.841,2715.906,2577.991,2828.006z"/>
		</g>
	</g>
</g>
</svg>
