<?xml version="1.0" encoding="utf-8"?>
<!-- Generator: Adobe Illustrator 27.5.0, SVG Export Plug-In . SVG Version: 6.00 Build 0)  -->
<svg version="1.1" id="Layer_1" xmlns="http://www.w3.org/2000/svg" xmlns:xlink="http://www.w3.org/1999/xlink" x="0px" y="0px"
	 viewBox="0 0 4000 4000" style="enable-background:new 0 0 4000 4000;" xml:space="preserve">
<g>
	<g>
		<!-- <rect style="fill:#E7C0FF;" width="4000" height="4000"/> -->
	</g>
	<g>
		<g>
			<path style="fill:#FFFFFF;" d="M881.804,2388.762c0-6.017,13.436-11.215,32.996-13.741c6.828-0.882,12.167-6.22,13.048-13.048
				c2.526-19.56,7.724-32.996,13.741-32.996c6.017,0,11.215,13.436,13.741,32.996c0.882,6.829,6.22,12.167,13.048,13.048
				c19.56,2.526,32.996,7.724,32.996,13.741s-13.436,11.215-32.996,13.741c-6.828,0.882-12.167,6.22-13.048,13.048
				c-2.526,19.56-7.724,32.996-13.741,32.996c-6.017,0-11.215-13.436-13.741-32.996c-0.882-6.829-6.22-12.167-13.048-13.048
				C895.24,2399.977,881.804,2394.78,881.804,2388.762z"/>
		</g>
		<g>
			<path style="fill:#FFFFFF;" d="M3404.746,2674.229c0-6.017,13.436-11.215,32.996-13.741c6.828-0.882,12.167-6.22,13.048-13.048
				c2.526-19.559,7.724-32.996,13.741-32.996s11.215,13.436,13.741,32.996c0.882,6.828,6.22,12.167,13.048,13.048
				c19.56,2.526,32.996,7.724,32.996,13.741s-13.436,11.215-32.996,13.741c-6.828,0.882-12.167,6.22-13.048,13.048
				c-2.526,19.56-7.724,32.996-13.741,32.996s-11.215-13.436-13.741-32.996c-0.882-6.829-6.22-12.167-13.048-13.048
				C3418.183,2685.444,3404.746,2680.246,3404.746,2674.229z"/>
		</g>
		<g>
			<path style="fill:#FFFFFF;" d="M633.866,2642.386c0-4.663,10.414-8.692,25.573-10.65c5.292-0.683,9.43-4.821,10.113-10.113
				c1.958-15.16,5.987-25.573,10.65-25.573c4.663,0,8.692,10.414,10.65,25.573c0.683,5.292,4.821,9.429,10.113,10.113
				c15.16,1.958,25.573,5.987,25.573,10.65c0,4.664-10.414,8.692-25.573,10.65c-5.292,0.683-9.43,4.821-10.113,10.113
				c-1.958,15.16-5.986,25.573-10.65,25.573c-4.664,0-8.692-10.414-10.65-25.573c-0.683-5.292-4.821-9.43-10.113-10.113
				C644.279,2651.079,633.866,2647.05,633.866,2642.386z"/>
		</g>
		<g>
			
				<ellipse transform="matrix(0.7071 -0.7071 0.7071 0.7071 -1467.9811 1201.314)" style="fill:#FFFFFF;" cx="716.124" cy="2372.667" rx="25.232" ry="25.232"/>
		</g>
		<g>
			
				<ellipse transform="matrix(0.9732 -0.2298 0.2298 0.9732 -481.7822 824.6626)" style="fill:#FFFFFF;" cx="3300.439" cy="2481.238" rx="25.232" ry="25.232"/>
		</g>
		<g>
			<g>
				<path style="fill:#5DCBED;" d="M2562.5,3017.84c61.803,153.398,131.931,192.418,218.904,0"/>
				<path style="fill:#000072;" d="M2668.62,3150.432c-0.337,0-0.674-0.005-1.011-0.01c-36.909-0.767-72.046-43.833-107.427-131.65
					l4.639-1.865c34.551,85.757,68.208,127.793,102.891,128.516c35.132,0.742,72.515-42.544,111.411-128.613l4.561,2.061
					C2743.679,3107.371,2706.027,3150.432,2668.62,3150.432z"/>
			</g>
			<g>
				<path style="fill:#000072;" d="M2668.679,3165.432c-0.464,0-0.918-0.005-1.382-0.015
					c-44.175-0.918-82.632-45.732-121.025-141.04c-3.613-8.965,0.728-19.16,9.692-22.769c8.945-3.613,19.155,0.728,22.769,9.692
					c39.38,97.739,70.293,118.73,89.292,119.121c15.806,0.435,49.971-14.785,97.432-119.79c3.984-8.813,14.351-12.705,23.154-8.74
					c8.809,3.979,12.72,14.346,8.74,23.154C2754.094,3120.75,2713.161,3165.432,2668.679,3165.432z"/>
			</g>
			<g>
				<path style="fill:#10CDF9;" d="M2839.687,3017.84H1291.279c-56.469,0-102.246-45.777-102.246-102.246V1367.187
					c0-56.469,45.777-102.246,102.246-102.246h1548.407c56.469,0,102.246,45.777,102.246,102.246v1548.407
					C2941.933,2972.063,2896.156,3017.84,2839.687,3017.84z"/>
				<path style="fill:#000072;" d="M2839.685,3020.339H1291.281c-57.759,0-104.746-46.987-104.746-104.746V1367.187
					c0-57.756,46.987-104.746,104.746-104.746h1548.403c57.759,0,104.746,46.99,104.746,104.746v1548.406
					C2944.431,2973.352,2897.443,3020.339,2839.685,3020.339z M1291.281,1267.441c-55,0-99.746,44.746-99.746,99.746v1548.406
					c0,55,44.746,99.746,99.746,99.746h1548.403c55,0,99.746-44.746,99.746-99.746V1367.187c0-55-44.746-99.746-99.746-99.746
					H1291.281z"/>
			</g>
			<g style="opacity:0.3;">
				<path style="fill:#000072;" d="M2936.95,1367.2v1548.4c0,56.45-45.8,102.25-102.25,102.25H1286.3c-43.7,0-80.95-27.4-95.55-65.9
					c11.85,4.85,24.8,7.5,38.35,7.5h1178.3v-81.65h400.25v77.1c41.8-12.85,72.1-51.7,72.1-97.65V1308.8c0-12.8-2.35-25.05-6.7-36.35
					C2910.5,1287.55,2936.95,1324.25,2936.95,1367.2z"/>
			</g>
			<g style="opacity:0.55;">
				<path style="fill:#FFFFFF;" d="M2926.9,1313.75c-15.55-9.55-33.85-15.05-53.45-15.05h-1548.4
					c-56.5,0-102.25,45.75-102.25,102.25v1548.4c0,19.6,5.5,37.9,15.05,53.45c-29.3-18-48.8-50.35-48.8-87.2V1367.2
					c0-56.5,45.75-102.25,102.25-102.25h1548.4C2876.55,1264.95,2908.9,1284.45,2926.9,1313.75z"/>
			</g>
			<g>
				<path style="fill:#DAD6FC;" d="M2709.895,2870.907H1421.071c-47.002,0-85.105-38.103-85.105-85.105V1496.978
					c0-47.002,38.103-85.105,85.105-85.105h1288.824c47.002,0,85.105,38.103,85.105,85.105v1288.824
					C2795,2832.805,2756.897,2870.907,2709.895,2870.907z"/>
				<path style="fill:#000072;" d="M2709.895,2873.406H1421.071c-48.306,0-87.607-39.297-87.607-87.603V1496.978
					c0-48.306,39.302-87.605,87.607-87.605h1288.823c48.306,0,87.607,39.299,87.607,87.605v1288.826
					C2797.502,2834.109,2758.2,2873.406,2709.895,2873.406z M1421.071,1414.373c-45.552,0-82.607,37.056-82.607,82.605v1288.826
					c0,45.547,37.056,82.603,82.607,82.603h1288.823c45.552,0,82.607-37.056,82.607-82.603V1496.978
					c0-45.549-37.056-82.605-82.607-82.605H1421.071z"/>
			</g>
			<g>
				<path style="fill:#B59BF0;" d="M2709.895,2870.907H1421.071c-47.002,0-85.105-38.103-85.105-85.105V1496.978
					c0-47.002,38.103-85.105,85.105-85.105h1288.824c47.002,0,85.105,38.103,85.105,85.105v1288.824
					C2795,2832.805,2756.897,2870.907,2709.895,2870.907z"/>
			</g>
			<g>
				<path style="fill:#5DCBED;" d="M1348.864,3017.84c61.803,153.398,131.931,192.418,218.904,0"/>
				<path style="fill:#000072;" d="M1454.983,3150.432c-0.337,0-0.674-0.005-1.011-0.01c-36.909-0.767-72.046-43.833-107.427-131.65
					l4.639-1.865c34.551,85.757,68.208,127.793,102.891,128.516c35.22,0.742,72.515-42.544,111.411-128.613l4.561,2.061
					C1530.041,3107.371,1492.39,3150.432,1454.983,3150.432z"/>
			</g>
			<g style="opacity:0.3;">
				<path style="fill:#000072;" d="M2562.5,3017.84c61.803,153.398,131.931,192.418,218.904,0"/>
			</g>
			<g style="opacity:0.3;">
				<path style="fill:#000072;" d="M1348.864,3017.84c61.803,153.398,131.931,192.418,218.904,0"/>
			</g>
			<g>
				<g>
					<path style="fill:#F9C710;" d="M1422.66,2103.817l0.99,219.992c0.057,12.805-10.276,23.232-23.081,23.29l-44.477,0.2
						c-12.805,0.058-23.232-10.276-23.29-23.081l-0.99-219.992c-0.058-12.805,10.276-23.232,23.081-23.29l44.477-0.2
						C1412.175,2080.679,1422.602,2091.012,1422.66,2103.817z"/>
					<path style="fill:#000072;" d="M1355.983,2349.797c-6.816,0-13.232-2.642-18.076-7.441c-4.873-4.829-7.573-11.27-7.603-18.13
						l-0.991-219.99c-0.029-6.86,2.612-13.32,7.441-18.193s11.265-7.578,18.13-7.607l44.478-0.2c0.034,0,0.073,0,0.108,0
						c14.116,0,25.63,11.45,25.688,25.571l0.991,219.995c0.029,6.86-2.612,13.32-7.441,18.193s-11.27,7.573-18.13,7.603l-44.478,0.2
						C1356.062,2349.797,1356.022,2349.797,1355.983,2349.797z M1399.47,2083.235c-0.029,0-0.059,0-0.088,0l-44.478,0.2
						c-5.522,0.024-10.708,2.202-14.6,6.128c-3.887,3.921-6.016,9.126-5.991,14.653l0.991,219.99
						c0.024,5.527,2.197,10.708,6.123,14.6c3.901,3.867,9.067,5.991,14.556,5.991c0.029,0,0.063,0,0.098,0l44.478-0.2
						c5.522-0.024,10.708-2.197,14.6-6.123c3.887-3.921,6.016-9.126,5.991-14.653l-0.991-219.995
						C1420.109,2092.454,1410.837,2083.235,1399.47,2083.235z"/>
				</g>
				<g style="opacity:0.55;">
					
						<rect x="1357.48" y="2120.753" transform="matrix(-0.0045 -1 1 -0.0045 -781.5155 3550.5955)" style="fill:#FFFFFF;" width="38.179" height="87.096"/>
					<path style="fill:#000072;" d="M1330.617,2186.096l-0.19-43.179l92.095-0.41l0.19,43.179L1330.617,2186.096z
						 M1335.446,2147.898l0.151,33.179l82.095-0.371l-0.151-33.179L1335.446,2147.898z"/>
				</g>
				<g>
					
						<rect x="1341.927" y="2265.551" transform="matrix(-0.0045 -1 1 -0.0045 -925.658 3696.6958)" style="fill:#F89F1D;" width="70.587" height="87.096"/>
					<path style="fill:#000072;" d="M1331.34,2347.097l-0.337-75.586l92.095-0.41l0.337,75.586L1331.34,2347.097z
						 M1336.022,2276.492l0.298,65.586l82.095-0.371l-0.298-65.586L1336.022,2276.492z"/>
				</g>
				<g style="opacity:0.55;">
					
						<rect x="1367.139" y="2074.575" transform="matrix(-0.0045 -1 1 -0.0045 -733.6608 3505.8796)" style="fill:#FFFFFF;" width="22.197" height="87.096"/>
					<path style="fill:#000072;" d="M1332.248,2131.926l-0.117-27.197l92.095-0.41l0.117,27.197L1332.248,2131.926z
						 M1337.15,2109.709l0.078,17.197l82.095-0.371l-0.078-17.197L1337.15,2109.709z"/>
				</g>
				<g>
					<path style="fill:#000072;" d="M1355.979,2362.297c-10.132,0-19.668-3.926-26.87-11.06
						c-7.246-7.183-11.26-16.758-11.304-26.958l-0.991-219.985c-0.049-10.2,3.882-19.805,11.06-27.051
						c7.183-7.246,16.753-11.26,26.953-11.309l44.478-0.2c0.054,0,0.112,0,0.166,0c10.142,0,19.682,3.926,26.885,11.064
						c7.246,7.183,11.26,16.753,11.304,26.953l0.991,219.99c0.049,10.2-3.882,19.805-11.06,27.051
						c-7.182,7.246-16.758,11.26-26.958,11.304l-44.473,0.2C1356.101,2362.297,1356.037,2362.297,1355.979,2362.297z
						 M1399.47,2095.735c-0.01,0-0.025,0-0.034,0l-44.473,0.2c-2.188,0.01-4.238,0.869-5.776,2.427
						c-1.543,1.553-2.383,3.608-2.373,5.796l0.991,219.99c0.01,2.192,0.869,4.243,2.422,5.781c1.543,1.528,3.584,2.368,5.757,2.368
						c0.015,0,0.024,0,0.039,0l44.478-0.2c2.192-0.01,4.243-0.869,5.781-2.422c1.538-1.553,2.378-3.608,2.368-5.796l-0.991-219.995
						v-0.005c-0.01-2.183-0.869-4.233-2.422-5.771C1403.693,2096.575,1401.643,2095.735,1399.47,2095.735z"/>
				</g>
			</g>
			<g>
				<g>
					<path style="fill:#F9C710;" d="M1422.66,2344.335l0.99,219.992c0.057,12.805-10.276,23.232-23.081,23.29l-44.477,0.2
						c-12.805,0.058-23.232-10.276-23.29-23.081l-0.99-219.992c-0.058-12.805,10.276-23.232,23.081-23.29l44.477-0.2
						C1412.175,2321.197,1422.602,2331.531,1422.66,2344.335z"/>
					<path style="fill:#000072;" d="M1355.993,2590.32c-14.116,0-25.63-11.45-25.688-25.571l-0.991-219.995
						c-0.029-6.86,2.612-13.32,7.441-18.193s11.265-7.578,18.13-7.607l44.478-0.2c0.034,0,0.073,0,0.108,0
						c14.116,0,25.63,11.45,25.688,25.571l0.991,219.995c0.029,6.86-2.612,13.32-7.441,18.193s-11.265,7.578-18.13,7.607
						l-44.478,0.2C1356.066,2590.32,1356.027,2590.32,1355.993,2590.32z M1399.47,2323.752c-0.029,0-0.059,0-0.088,0l-44.478,0.2
						c-5.522,0.024-10.708,2.202-14.6,6.128c-3.887,3.921-6.016,9.126-5.991,14.653l0.991,219.995
						c0.049,11.372,9.321,20.591,20.688,20.591c0.029,0,0.059,0,0.088,0l44.478-0.2c5.522-0.024,10.708-2.202,14.6-6.128
						c3.887-3.921,6.016-9.126,5.991-14.653l-0.991-219.995C1420.109,2332.971,1410.837,2323.752,1399.47,2323.752z"/>
				</g>
				<g style="opacity:0.55;">
					
						<rect x="1357.48" y="2361.271" transform="matrix(-0.0045 -1 1 -0.0045 -1022.0311 3792.1958)" style="fill:#FFFFFF;" width="38.179" height="87.096"/>
					<path style="fill:#000072;" d="M1330.617,2426.614l-0.19-43.179l92.095-0.41l0.19,43.179L1330.617,2426.614z
						 M1335.446,2388.416l0.151,33.179l82.095-0.371l-0.151-33.179L1335.446,2388.416z"/>
				</g>
				<g>
					
						<rect x="1341.927" y="2506.069" transform="matrix(-0.0045 -1 1 -0.0045 -1166.1736 3938.2959)" style="fill:#F89F1D;" width="70.587" height="87.096"/>
					<path style="fill:#000072;" d="M1331.34,2587.615l-0.337-75.586l92.095-0.41l0.337,75.586L1331.34,2587.615z
						 M1336.022,2517.009l0.298,65.586l82.095-0.371l-0.298-65.586L1336.022,2517.009z"/>
				</g>
				<g style="opacity:0.55;">
					
						<rect x="1367.139" y="2315.093" transform="matrix(-0.0045 -1 1 -0.0045 -974.1764 3747.4802)" style="fill:#FFFFFF;" width="22.197" height="87.096"/>
					<path style="fill:#000072;" d="M1332.248,2372.444l-0.117-27.197l92.095-0.41l0.117,27.197L1332.248,2372.444z
						 M1337.15,2350.227l0.078,17.197l82.095-0.371l-0.078-17.197L1337.15,2350.227z"/>
				</g>
				<g>
					<path style="fill:#000072;" d="M1355.993,2602.82c-10.142,0-19.683-3.926-26.885-11.064
						c-7.246-7.183-11.26-16.753-11.304-26.953l-0.991-219.99c-0.049-10.2,3.882-19.805,11.06-27.051
						c7.183-7.246,16.753-11.26,26.953-11.309l44.478-0.2c0.054,0,0.112,0,0.166,0c10.142,0,19.682,3.926,26.885,11.064
						c7.246,7.183,11.26,16.753,11.304,26.953l0.991,219.99c0.049,10.2-3.882,19.805-11.06,27.051
						c-7.182,7.246-16.753,11.26-26.953,11.309l-44.478,0.2C1356.105,2602.82,1356.047,2602.82,1355.993,2602.82z M1399.47,2336.252
						c-0.01,0-0.025,0-0.034,0l-44.473,0.2c-2.188,0.01-4.238,0.869-5.776,2.427c-1.543,1.553-2.383,3.608-2.373,5.796
						l0.991,219.995c0.01,2.188,0.869,4.238,2.422,5.776c1.543,1.533,3.594,2.373,5.767,2.373c0.01,0,0.024,0,0.034,0l44.473-0.2
						c2.188-0.01,4.238-0.869,5.776-2.427c1.543-1.553,2.383-3.608,2.373-5.796l-0.991-219.995v-0.005
						c-0.01-2.183-0.869-4.233-2.422-5.771C1403.693,2337.092,1401.643,2336.252,1399.47,2336.252z"/>
				</g>
			</g>
			<g>
				<g>
					<path style="fill:#F9C710;" d="M1422.66,2482.573l0.99,219.992c0.057,12.805-10.276,23.232-23.081,23.29l-44.477,0.2
						c-12.805,0.058-23.232-10.276-23.29-23.081l-0.99-219.992c-0.058-12.805,10.276-23.232,23.081-23.29l44.477-0.2
						C1412.175,2459.435,1422.602,2469.769,1422.66,2482.573z"/>
					<path style="fill:#000072;" d="M1355.983,2728.557c-6.816,0-13.232-2.642-18.076-7.441c-4.873-4.829-7.573-11.27-7.603-18.13
						l-0.991-219.995c-0.029-6.86,2.612-13.32,7.441-18.193s11.27-7.573,18.13-7.603l44.478-0.2
						c6.89,0.186,13.325,2.612,18.193,7.441c4.873,4.829,7.573,11.27,7.603,18.13l0.991,219.99c0.029,6.86-2.612,13.32-7.441,18.193
						s-11.265,7.578-18.13,7.607l-44.478,0.2C1356.062,2728.557,1356.022,2728.557,1355.983,2728.557z M1399.479,2461.995
						c-0.029,0-0.063,0-0.098,0l-44.478,0.2c-5.522,0.024-10.708,2.197-14.6,6.123c-3.887,3.921-6.016,9.126-5.991,14.653
						l0.991,219.995c0.024,5.522,2.197,10.708,6.123,14.6c3.901,3.867,9.067,5.991,14.556,5.991c0.029,0,0.063,0,0.098,0l44.478-0.2
						c5.522-0.024,10.708-2.202,14.6-6.128c3.887-3.921,6.016-9.126,5.991-14.653l-0.991-219.99
						c-0.024-5.527-2.197-10.708-6.123-14.6C1410.134,2464.119,1404.968,2461.995,1399.479,2461.995z"/>
				</g>
				<g style="opacity:0.55;">
					
						<rect x="1357.48" y="2499.51" transform="matrix(-0.0045 -1 1 -0.0045 -1160.2678 3931.0562)" style="fill:#FFFFFF;" width="38.179" height="87.096"/>
					<path style="fill:#000072;" d="M1330.617,2564.851l-0.19-43.179l92.095-0.41l0.19,43.179L1330.617,2564.851z
						 M1335.446,2526.653l0.151,33.179l82.095-0.371l-0.151-33.179L1335.446,2526.653z"/>
				</g>
				<g>
					
						<rect x="1341.927" y="2644.308" transform="matrix(-0.0045 -1 1 -0.0045 -1304.4104 4077.1563)" style="fill:#F89F1D;" width="70.587" height="87.096"/>
					<path style="fill:#000072;" d="M1331.34,2725.852l-0.337-75.586l92.095-0.41l0.337,75.586L1331.34,2725.852z
						 M1336.022,2655.247l0.298,65.586l82.095-0.371l-0.298-65.586L1336.022,2655.247z"/>
				</g>
				<g style="opacity:0.55;">
					
						<rect x="1367.139" y="2453.332" transform="matrix(-0.0045 -1 1 -0.0045 -1112.4132 3886.3406)" style="fill:#FFFFFF;" width="22.197" height="87.096"/>
					<path style="fill:#000072;" d="M1332.248,2510.681l-0.117-27.192l92.095-0.415l0.117,27.197L1332.248,2510.681z
						 M1337.15,2488.469l0.078,17.192l82.095-0.371l-0.078-17.197L1337.15,2488.469z"/>
				</g>
				<g>
					<path style="fill:#000072;" d="M1355.979,2741.057c-10.132,0-19.668-3.926-26.87-11.064
						c-7.246-7.183-11.26-16.753-11.304-26.953l-0.991-219.99c-0.049-10.2,3.882-19.805,11.06-27.051
						c7.183-7.246,16.758-11.26,26.958-11.304l44.473-0.2c0.059,0,0.122,0,0.181,0c10.132,0,19.668,3.926,26.87,11.06
						c7.246,7.183,11.26,16.758,11.304,26.958l0.991,219.985c0.049,10.2-3.882,19.805-11.06,27.051
						c-7.182,7.246-16.753,11.26-26.953,11.309l-44.478,0.2C1356.101,2741.057,1356.037,2741.057,1355.979,2741.057z
						 M1399.479,2474.495c-0.015,0-0.024,0-0.039,0l-44.478,0.2c-2.192,0.01-4.243,0.869-5.781,2.422
						c-1.538,1.553-2.378,3.608-2.368,5.796l0.991,219.995c0.01,2.188,0.869,4.238,2.422,5.776c1.553,1.548,3.623,2.559,5.796,2.373
						l44.478-0.2c2.188-0.01,4.238-0.869,5.776-2.427c1.543-1.553,2.383-3.608,2.373-5.796l-0.991-219.99v-0.005
						c-0.01-2.188-0.869-4.238-2.422-5.776C1403.693,2475.334,1401.652,2474.495,1399.479,2474.495z"/>
				</g>
			</g>
			<g>
				<g>
					<circle style="fill:#F9C710;" cx="1702.726" cy="2063.167" r="150.852"/>
					<path style="fill:#000072;" d="M1702.727,2216.516c-84.561,0-153.354-68.794-153.354-153.35
						c0-84.561,68.794-153.352,153.354-153.352c84.556,0,153.35,68.792,153.35,153.352
						C1856.076,2147.722,1787.282,2216.516,1702.727,2216.516z M1702.727,1914.814c-81.802,0-148.354,66.55-148.354,148.352
						s66.553,148.35,148.354,148.35c81.802,0,148.35-66.548,148.35-148.35S1784.528,1914.814,1702.727,1914.814z"/>
				</g>
				<g style="opacity:0.55;">
					<path style="fill:#FFFFFF;" d="M1808.878,2167.712c13.815-22.866,21.834-49.622,21.834-78.284
						c0-31.599-9.766-60.976-26.439-85.191c-25.486,17.546-56.292-15.165-39.301-39.301c-24.216-16.594-53.513-26.359-85.112-26.359
						c-41.365,0-78.681,16.593-105.914,43.588c26.439-43.35,74.235-72.329,128.78-72.329c83.286,0,150.852,67.566,150.852,150.852
						C1853.577,2102.528,1836.507,2140.479,1808.878,2167.712z"/>
				</g>
				<g>
					<circle style="fill:#F89F1D;" cx="1702.726" cy="2063.167" r="79.088"/>
				</g>
				<g style="opacity:0.55;">
					<path style="fill:#FFFFFF;" d="M1757.863,2119.775c-14.45,18.181-36.76,29.773-61.77,29.773
						c-17.943,0-34.537-5.955-47.796-16.038c-16.593,10.718-35.41-12.068-22.31-26.359c-5.796-10.957-9.051-23.422-9.051-36.681
						c0-22.31,9.289-42.556,24.216-56.847c-10.957,13.497-17.547,30.806-17.547,49.543c0,43.667,35.411,79.078,79.158,79.078
						C1724.199,2142.244,1743.651,2133.67,1757.863,2119.775z"/>
				</g>
				<g style="opacity:0.3;">
					<path style="fill:#000072;" d="M1781.84,2063.167c0,23.58-10.321,44.779-26.756,59.15c9.766-13.1,15.482-29.376,15.482-46.923
						c0-43.668-35.411-79.078-79.078-79.078c-20.166,0-38.586,7.622-52.56,20.087c14.371-19.611,37.633-32.314,63.834-32.314
						C1746.43,1984.088,1781.84,2019.499,1781.84,2063.167z"/>
				</g>
				<g>
					<path style="fill:#000072;" d="M1702.727,2229.016c-91.45,0-165.854-74.399-165.854-165.85
						c0-91.45,74.404-165.852,165.854-165.852s165.85,74.402,165.85,165.852C1868.576,2154.617,1794.177,2229.016,1702.727,2229.016
						z M1702.727,1927.314c-74.912,0-135.854,60.945-135.854,135.852c0,74.907,60.942,135.85,135.854,135.85
						c74.907,0,135.85-60.942,135.85-135.85C1838.576,1988.259,1777.634,1927.314,1702.727,1927.314z"/>
				</g>
			</g>
			<g style="opacity:0.3;">
				<path style="fill:#000072;" d="M2795,1497v269.95c0-47-38.1-85.1-85.1-85.1H1421.05c-47,0-85.1,38.1-85.1,85.1V1497
					c0-47,38.1-85.15,85.1-85.15H2709.9C2756.9,1411.85,2795,1450,2795,1497z"/>
			</g>
			<g>
				<path style="fill:#000072;" d="M2839.685,3035.339H1291.281c-66.03,0-119.746-53.716-119.746-119.746V1367.187
					c0-66.028,53.716-119.746,119.746-119.746h1548.403c66.03,0,119.746,53.718,119.746,119.746v1548.406
					C2959.431,2981.624,2905.715,3035.339,2839.685,3035.339z M1291.281,1282.441c-46.728,0-84.746,38.018-84.746,84.746v1548.406
					c0,46.729,38.018,84.746,84.746,84.746h1548.403c46.729,0,84.746-38.018,84.746-84.746V1367.187
					c0-46.729-38.018-84.746-84.746-84.746H1291.281z"/>
			</g>
			<g>
				<g>
					<circle style="fill:#F9C710;" cx="1698.121" cy="2232.138" r="150.852"/>
				</g>
				<g style="opacity:0.55;">
					<path style="fill:#FFFFFF;" d="M1804.273,2336.684c13.815-22.866,21.834-49.622,21.834-78.284
						c0-31.599-9.766-60.976-26.439-85.191c-25.486,17.546-56.292-15.165-39.301-39.301c-24.215-16.594-53.512-26.359-85.112-26.359
						c-41.365,0-78.681,16.594-105.914,43.588c26.439-43.35,74.235-72.329,128.78-72.329c83.286,0,150.852,67.566,150.852,150.852
						C1848.972,2271.5,1831.902,2309.451,1804.273,2336.684z"/>
				</g>
				<g>
					<circle style="fill:#F89F1D;" cx="1698.121" cy="2232.138" r="79.088"/>
				</g>
				<g style="opacity:0.55;">
					<path style="fill:#FFFFFF;" d="M1753.258,2288.747c-14.45,18.181-36.76,29.773-61.77,29.773
						c-17.943,0-34.537-5.955-47.796-16.038c-16.593,10.718-35.41-12.068-22.31-26.36c-5.796-10.957-9.051-23.422-9.051-36.681
						c0-22.31,9.289-42.556,24.215-56.847c-10.957,13.497-17.547,30.805-17.547,49.543c0,43.667,35.411,79.078,79.158,79.078
						C1719.594,2311.216,1739.046,2302.641,1753.258,2288.747z"/>
				</g>
				<g style="opacity:0.3;">
					<path style="fill:#000072;" d="M1777.236,2232.138c0,23.58-10.321,44.779-26.756,59.15c9.766-13.1,15.482-29.376,15.482-46.923
						c0-43.667-35.411-79.078-79.078-79.078c-20.166,0-38.586,7.622-52.56,20.087c14.371-19.611,37.634-32.314,63.834-32.314
						C1741.825,2153.06,1777.236,2188.47,1777.236,2232.138z"/>
				</g>
				<g>
					<path style="fill:#000072;" d="M1698.122,2397.991c-91.45,0-165.854-74.404-165.854-165.854s74.404-165.85,165.854-165.85
						s165.85,74.399,165.85,165.85S1789.572,2397.991,1698.122,2397.991z M1698.122,2096.287
						c-74.912,0-135.854,60.942-135.854,135.85c0,74.912,60.942,135.854,135.854,135.854c74.907,0,135.85-60.942,135.85-135.854
						C1833.972,2157.229,1773.029,2096.287,1698.122,2096.287z"/>
				</g>
			</g>
			<g>
				<g>
					<circle style="fill:#F9C710;" cx="1488.679" cy="2318.173" r="150.852"/>
				</g>
				<g style="opacity:0.55;">
					<path style="fill:#FFFFFF;" d="M1594.831,2422.719c13.815-22.866,21.834-49.622,21.834-78.284
						c0-31.599-9.766-60.976-26.439-85.191c-25.486,17.546-56.292-15.165-39.301-39.301c-24.216-16.594-53.513-26.359-85.112-26.359
						c-41.365,0-78.681,16.594-105.914,43.588c26.439-43.35,74.235-72.329,128.78-72.329c83.286,0,150.852,67.566,150.852,150.852
						C1639.531,2357.535,1622.461,2395.486,1594.831,2422.719z"/>
				</g>
				<g>
					<circle style="fill:#F89F1D;" cx="1488.679" cy="2318.173" r="79.088"/>
				</g>
				<g style="opacity:0.55;">
					<path style="fill:#FFFFFF;" d="M1543.817,2374.782c-14.45,18.181-36.76,29.773-61.77,29.773
						c-17.943,0-34.537-5.955-47.796-16.038c-16.593,10.718-35.41-12.068-22.31-26.359c-5.796-10.957-9.051-23.422-9.051-36.681
						c0-22.31,9.289-42.556,24.216-56.847c-10.957,13.497-17.547,30.805-17.547,49.543c0,43.667,35.411,79.078,79.158,79.078
						C1510.153,2397.251,1529.605,2388.677,1543.817,2374.782z"/>
				</g>
				<g style="opacity:0.3;">
					<path style="fill:#000072;" d="M1567.794,2318.173c0,23.58-10.321,44.779-26.756,59.15c9.766-13.1,15.482-29.376,15.482-46.923
						c0-43.667-35.411-79.078-79.078-79.078c-20.166,0-38.586,7.622-52.56,20.087c14.371-19.611,37.633-32.314,63.834-32.314
						C1532.384,2239.095,1567.794,2274.506,1567.794,2318.173z"/>
				</g>
				<g>
					<path style="fill:#000072;" d="M1488.679,2484.026c-91.45,0-165.85-74.404-165.85-165.854s74.399-165.85,165.85-165.85
						s165.854,74.399,165.854,165.85S1580.129,2484.026,1488.679,2484.026z M1488.679,2182.322
						c-74.907,0-135.85,60.942-135.85,135.85c0,74.912,60.942,135.854,135.85,135.854c74.912,0,135.854-60.942,135.854-135.854
						C1624.533,2243.264,1563.591,2182.322,1488.679,2182.322z"/>
				</g>
			</g>
			<g>
				<g>
					<circle style="fill:#F9C710;" cx="1499.715" cy="2533.625" r="150.852"/>
				</g>
				<g style="opacity:0.55;">
					<path style="fill:#FFFFFF;" d="M1605.867,2638.17c13.815-22.866,21.834-49.622,21.834-78.284
						c0-31.599-9.766-60.976-26.439-85.191c-25.486,17.546-56.292-15.165-39.301-39.301c-24.215-16.594-53.512-26.359-85.112-26.359
						c-41.365,0-78.681,16.594-105.914,43.588c26.439-43.35,74.235-72.329,128.78-72.329c83.286,0,150.852,67.566,150.852,150.852
						C1650.567,2572.986,1633.497,2610.938,1605.867,2638.17z"/>
				</g>
				<g>
					<circle style="fill:#F89F1D;" cx="1499.715" cy="2533.625" r="79.088"/>
				</g>
				<g style="opacity:0.55;">
					<path style="fill:#FFFFFF;" d="M1554.853,2590.233c-14.45,18.181-36.76,29.773-61.77,29.773
						c-17.943,0-34.537-5.955-47.796-16.038c-16.593,10.718-35.41-12.068-22.31-26.359c-5.796-10.957-9.051-23.422-9.051-36.681
						c0-22.31,9.289-42.556,24.216-56.847c-10.957,13.497-17.547,30.805-17.547,49.543c0,43.667,35.411,79.078,79.158,79.078
						C1521.189,2612.702,1540.641,2604.128,1554.853,2590.233z"/>
				</g>
				<g style="opacity:0.3;">
					<path style="fill:#000072;" d="M1578.83,2533.625c0,23.58-10.321,44.779-26.756,59.15c9.766-13.1,15.482-29.376,15.482-46.923
						c0-43.668-35.411-79.078-79.078-79.078c-20.166,0-38.586,7.622-52.56,20.087c14.371-19.611,37.634-32.314,63.834-32.314
						C1543.42,2454.546,1578.83,2489.957,1578.83,2533.625z"/>
				</g>
				<g>
					<path style="fill:#000072;" d="M1499.714,2699.475c-91.45,0-165.85-74.399-165.85-165.85s74.399-165.854,165.85-165.854
						s165.854,74.404,165.854,165.854S1591.164,2699.475,1499.714,2699.475z M1499.714,2397.771
						c-74.907,0-135.85,60.942-135.85,135.854c0,74.907,60.942,135.85,135.85,135.85c74.912,0,135.854-60.942,135.854-135.85
						C1635.568,2458.713,1574.626,2397.771,1499.714,2397.771z"/>
				</g>
			</g>
			<g>
				<path style="fill:#000072;" d="M2709.895,2888.406H1421.071c-56.577,0-102.607-46.025-102.607-102.603V1496.978
					c0-56.577,46.03-102.605,102.607-102.605h1288.823c56.577,0,102.607,46.028,102.607,102.605v1288.826
					C2812.502,2842.38,2766.472,2888.406,2709.895,2888.406z M1421.071,1429.373c-37.28,0-67.607,30.327-67.607,67.605v1288.826
					c0,37.275,30.327,67.603,67.607,67.603h1288.823c37.28,0,67.607-30.327,67.607-67.603V1496.978
					c0-37.278-30.327-67.605-67.607-67.605H1421.071z"/>
			</g>
			<g>
				<g>
					
						<ellipse transform="matrix(0.835 -0.5503 0.5503 0.835 -1257.3292 1270.007)" style="fill:#F9C710;" cx="1488.679" cy="2731.211" rx="157.69" ry="139.377"/>
				</g>
				<g style="opacity:0.55;">
					<path style="fill:#FFFFFF;" d="M1525.954,2589.179c-26.982,2.497-54.412,11.702-79.428,28.19
						c-27.58,18.178-48.254,42.611-60.912,69.404c28.273,9.568,15.386,52.15-14.319,52.927
						c-2.171,28.227,4.202,56.446,20.269,80.823c21.032,31.911,54.489,51.153,91.896,56.633
						c-51.279,4.542-100.875-15.66-128.608-57.739c-42.347-64.25-17.73-155.242,54.963-203.153
						C1446.333,2592.194,1488.137,2583.531,1525.954,2589.179z"/>
				</g>
				<g>
					
						<ellipse transform="matrix(0.835 -0.5503 0.5503 0.835 -1257.3268 1270.0024)" style="fill:#F89F1D;" cx="1488.679" cy="2731.211" rx="82.673" ry="73.073"/>
				</g>
				<g style="opacity:0.55;">
					<path style="fill:#FFFFFF;" d="M1510.053,2656.111c23.216,0.688,44.677,11.231,57.394,30.525
						c9.124,13.842,12.363,30.069,10.304,46.098c17.792,6.635,7.471,34.259-11.663,32.375
						c-6.616,10.774-15.841,20.456-27.413,28.083c-19.473,12.834-41.866,17.314-61.929,14.021
						c17.351,0.688,35.809-4.185,52.163-14.964c38.113-25.12,51.015-72.808,28.771-106.556
						C1546.781,2669.155,1529.406,2659.082,1510.053,2656.111z"/>
				</g>
				<g style="opacity:0.3;">
					<path style="fill:#000072;" d="M1448.453,2670.178c20.581-13.565,44.332-17.797,65.231-13.385
						c-16.4,0.002-33.512,4.955-48.827,15.049c-38.113,25.12-51.015,72.808-28.812,106.495
						c10.254,15.557,26.272,25.383,44.257,28.992c-24.423,0.195-47.339-10.443-60.661-30.656
						C1397.438,2742.986,1410.34,2695.299,1448.453,2670.178z"/>
				</g>
				<g>
					<path style="fill:#000072;" d="M1471.711,2891.296c-51.123,0-99.19-22.52-127.222-65.049
						c-46.841-71.079-20.269-171.533,59.233-223.936l0,0c79.517-52.397,182.295-37.207,229.146,33.862
						c22.886,34.727,29.15,77.3,17.627,119.883c-11.338,41.904-38.633,78.857-76.855,104.053
						C1541.711,2881.15,1506.018,2891.296,1471.711,2891.296z M1420.236,2627.361c-65.693,43.301-88.438,125.112-50.698,182.378
						c37.744,57.256,121.89,68.613,187.593,25.322c32.109-21.162,54.981-52.002,64.409-86.841
						c9.238-34.16,4.37-68.091-13.721-95.532C1570.08,2595.427,1485.935,2584.055,1420.236,2627.361L1420.236,2627.361z"/>
				</g>
			</g>
			<g>
				<g>
					<circle style="fill:#F9C710;" cx="1601.042" cy="2542.349" r="150.852"/>
				</g>
				<g style="opacity:0.55;">
					<path style="fill:#FFFFFF;" d="M1707.194,2646.895c13.815-22.866,21.834-49.622,21.834-78.284
						c0-31.599-9.766-60.976-26.439-85.191c-25.486,17.546-56.292-15.165-39.301-39.301c-24.216-16.594-53.513-26.359-85.112-26.359
						c-41.365,0-78.681,16.593-105.914,43.588c26.439-43.35,74.235-72.329,128.78-72.329c83.286,0,150.852,67.566,150.852,150.852
						C1751.894,2581.711,1734.824,2619.662,1707.194,2646.895z"/>
				</g>
				<g>
					
						<ellipse transform="matrix(0.7071 -0.7071 0.7071 0.7071 -1328.7777 1876.7448)" style="fill:#F89F1D;" cx="1601.042" cy="2542.349" rx="79.088" ry="79.088"/>
				</g>
				<g style="opacity:0.55;">
					<path style="fill:#FFFFFF;" d="M1656.18,2598.958c-14.45,18.181-36.76,29.773-61.77,29.773
						c-17.943,0-34.537-5.955-47.796-16.038c-16.593,10.718-35.41-12.068-22.31-26.359c-5.796-10.957-9.051-23.422-9.051-36.681
						c0-22.31,9.289-42.556,24.215-56.847c-10.957,13.497-17.547,30.806-17.547,49.543c0,43.668,35.411,79.078,79.158,79.078
						C1622.516,2621.427,1641.968,2612.852,1656.18,2598.958z"/>
				</g>
				<g style="opacity:0.3;">
					<path style="fill:#000072;" d="M1680.157,2542.349c0,23.58-10.321,44.779-26.756,59.15
						c9.766-13.101,15.482-29.376,15.482-46.923c0-43.667-35.411-79.078-79.078-79.078c-20.166,0-38.586,7.622-52.56,20.087
						c14.371-19.61,37.633-32.314,63.834-32.314C1644.747,2463.271,1680.157,2498.681,1680.157,2542.349z"/>
				</g>
				<g>
					<path style="fill:#000072;" d="M1601.042,2708.201c-91.45,0-165.85-74.399-165.85-165.85s74.399-165.854,165.85-165.854
						s165.85,74.404,165.85,165.854S1692.492,2708.201,1601.042,2708.201z M1601.042,2406.497
						c-74.907,0-135.85,60.942-135.85,135.854c0,74.907,60.942,135.85,135.85,135.85c74.907,0,135.85-60.942,135.85-135.85
						C1736.892,2467.439,1675.949,2406.497,1601.042,2406.497z"/>
				</g>
			</g>
			<g>
				<g>
					<polygon style="fill:#FF3E84;" points="2008.304,2561.226 1761.809,2648.974 1696.432,2395.651 1787.298,2368.275 
						1980.042,2470.604 					"/>
				</g>
				<g style="opacity:0.55;">
					<polygon style="fill:#FFFFFF;" points="1761.809,2648.974 1920.294,2514.5 1920.461,2438.972 1980.042,2470.604 
						2008.304,2561.226 					"/>
				</g>
				<g style="opacity:0.55;">
					<polygon style="fill:#FFFFFF;" points="2008.304,2561.226 1984.346,2569.775 1957.595,2483.906 1764.852,2381.578 
						1698.012,2401.701 1696.432,2395.651 1787.298,2368.275 1980.042,2470.604 					"/>
				</g>
				<g style="opacity:0.3;">
					<polygon style="fill:#6B184E;" points="1761.809,2648.974 1696.432,2395.651 1787.298,2368.275 1846.912,2399.924 
						1784.442,2442.376 					"/>
					<path style="fill:#000072;" d="M1762.805,2662.834l-69.395-268.882l94.15-28.369l64.185,34.077l-64.946,44.136
						L1762.805,2662.834z M1699.455,2397.351l61.357,237.759l21.27-194.155l59.995-40.767l-55.044-29.224L1699.455,2397.351z"/>
				</g>
				<g>
					<path style="fill:#000072;" d="M1752.79,2665.984l-72.065-279.16l107.959-32.529l202.183,107.344l33.535,107.642
						L1752.79,2665.984z M1712.131,2404.5l58.716,227.471l221.318-78.794l-22.93-73.599l-183.296-97.314L1712.131,2404.5z"/>
				</g>
				<g>
					
						<rect x="1839.363" y="2301.904" transform="matrix(0.4689 -0.8832 0.8832 0.4689 -1205.3138 2952.3308)" style="fill:#000072;" width="25.985" height="353.081"/>
				</g>
				<g>
					<polygon style="fill:#000072;" points="1770.227,2658.884 1753.41,2639.07 1907.312,2508.484 1907.468,2438.943 
						1933.454,2439.001 1933.269,2520.535 					"/>
				</g>
				<g>
					<polygon style="fill:#000072;" points="1774.733,2650.388 1748.903,2647.566 1772.155,2435.002 1839.592,2389.167 
						1854.201,2410.662 1796.687,2449.749 					"/>
				</g>
			</g>
			<g>
				<g>
					<path style="fill:#F9C710;" d="M1893.769,2611.594l83.418,203.566c4.855,11.849-0.814,25.39-12.663,30.246l-41.156,16.865
						c-11.849,4.855-25.39-0.814-30.246-12.663l-83.418-203.566c-4.855-11.849,0.814-25.39,12.663-30.246l41.156-16.865
						C1875.372,2594.076,1888.914,2599.745,1893.769,2611.594z"/>
					<path style="fill:#000072;" d="M1914.616,2866.501c-10.122,0-19.736-6.016-23.809-15.947l-83.418-203.564
						c-2.598-6.348-2.573-13.33,0.078-19.658s7.607-11.245,13.955-13.848l41.152-16.865c6.343-2.603,13.325-2.578,19.658,0.073
						c6.328,2.646,11.25,7.603,13.853,13.955l83.418,203.564c5.366,13.105-0.928,28.135-14.033,33.511l-41.152,16.865
						C1921.145,2865.886,1917.854,2866.501,1914.616,2866.501z M1872.321,2599.69c-2.661,0-5.317,0.518-7.851,1.558l-41.152,16.865
						c-10.552,4.321-15.625,16.426-11.299,26.982l83.418,203.564c4.321,10.547,16.426,15.63,26.987,11.299l41.152-16.865
						c10.552-4.326,15.62-16.431,11.299-26.987l-83.418-203.564c-2.095-5.112-6.055-9.106-11.152-11.235
						C1877.731,2600.227,1875.026,2599.69,1872.321,2599.69z"/>
				</g>
				<g style="opacity:0.55;">
					
						<rect x="1854.635" y="2641.4" transform="matrix(-0.3792 -0.9253 0.9253 -0.3792 99.7692 5436.8335)" style="fill:#FFFFFF;" width="38.179" height="87.096"/>
					<path style="fill:#000072;" d="M1839.299,2722.385l-16.372-39.956l85.225-34.917l16.367,39.956L1839.299,2722.385z
						 M1829.45,2685.164l12.583,30.698l75.962-31.128l-12.578-30.698L1829.45,2685.164z"/>
				</g>
				<g>
					
						<rect x="1893.337" y="2775.386" transform="matrix(-0.3792 -0.9253 0.9253 -0.3792 51.5129 5672.4297)" style="fill:#F89F1D;" width="70.587" height="87.096"/>
					<path style="fill:#000072;" d="M1900.349,2871.365l-28.657-69.941l85.22-34.922l28.657,69.946L1900.349,2871.365z
						 M1878.215,2804.158l24.868,60.684l75.962-31.128l-24.868-60.688L1878.215,2804.158z"/>
				</g>
				<g style="opacity:0.55;">
					
						<rect x="1846.855" y="2597.967" transform="matrix(-0.3792 -0.9253 0.9253 -0.3792 118.21 5362.3384)" style="fill:#FFFFFF;" width="22.197" height="87.096"/>
					<path style="fill:#000072;" d="M1820.5,2671.56l-10.313-25.171l85.22-34.917l10.313,25.166L1820.5,2671.56z M1816.711,2649.124
						l6.523,15.913l75.962-31.133l-6.523-15.908L1816.711,2649.124z"/>
				</g>
				<g>
					<path style="fill:#000072;" d="M1914.631,2879.001c-15.044,0-29.336-8.945-35.386-23.706l-83.423-203.564
						c-3.867-9.443-3.823-19.819,0.117-29.229c3.936-9.409,11.304-16.719,20.747-20.586l41.147-16.865
						c19.473-7.979,41.826,1.372,49.815,20.854h0.005l83.418,203.564c7.979,19.482-1.377,41.831-20.859,49.814l-41.152,16.87
						C1924.338,2878.088,1919.445,2879.001,1914.631,2879.001z M1872.307,2612.2c-1.035,0-2.08,0.195-3.096,0.61l-41.152,16.87
						c-4.18,1.709-6.187,6.499-4.473,10.679l83.418,203.56c1.709,4.18,6.504,6.182,10.684,4.473l41.147-16.865
						c4.18-1.709,6.187-6.504,4.473-10.684l-83.418-203.56h0.005C1878.596,2614.119,1875.529,2612.2,1872.307,2612.2z"/>
				</g>
			</g>
			<g>
				<g>
					
						<ellipse transform="matrix(0.104 -0.9946 0.9946 0.104 -1211.0223 4106.5967)" style="fill:#F9C710;" cx="1673.795" cy="2725.458" rx="139.377" ry="157.69"/>
					<path style="fill:#000072;" d="M1678.142,2867.566c-6.328,0-12.705-0.332-19.106-1.001
						c-87.852-9.189-152.7-79.971-144.561-157.773c3.945-37.749,24.272-71.484,57.227-94.99
						c32.856-23.442,74.36-33.892,116.855-29.448c42.5,4.443,80.938,23.267,108.232,52.998
						c27.373,29.814,40.273,67.026,36.323,104.775c-3.945,37.749-24.267,71.484-57.222,94.99
						C1747.98,2857.024,1713.84,2867.566,1678.142,2867.566z M1669.445,2588.352c-34.658,0-67.783,10.22-94.844,29.521
						c-31.768,22.661-51.357,55.132-55.156,91.436c-7.852,75.063,55,143.379,140.108,152.285
						c41.269,4.307,81.567-5.82,113.432-28.55c31.772-22.661,51.357-55.132,55.156-91.436c3.799-36.309-8.642-72.134-35.034-100.879
						c-26.47-28.828-63.784-47.085-105.068-51.406C1681.813,2588.674,1675.603,2588.352,1669.445,2588.352z"/>
				</g>
				<g style="opacity:0.55;">
					<path style="fill:#FFFFFF;" d="M1792.691,2639.284c-22.445-15.182-49.491-25.461-79.29-28.578
						c-32.852-3.437-64.333,2.342-91.111,15.03c15.792,25.328-21.178,50.078-44.638,31.84
						c-19.58,20.448-32.549,46.307-35.587,75.344c-3.977,38.011,9.688,74.107,35.135,102.067
						c-42.528-29.01-68.061-76.083-62.818-126.205c8.006-76.533,84.747-131.272,171.336-122.214
						C1729.219,2591.119,1767.035,2610.933,1792.691,2639.284z"/>
				</g>
				<g>
					
						<ellipse transform="matrix(0.104 -0.9946 0.9946 0.104 -1211.0216 4106.5986)" style="fill:#F89F1D;" cx="1673.795" cy="2725.458" rx="73.073" ry="82.674"/>
				</g>
				<g style="opacity:0.55;">
					<path style="fill:#FFFFFF;" d="M1737.95,2680.948c17.513,15.256,27.42,37.018,25.016,60
						c-1.725,16.489-9.511,31.089-21.269,42.177c9.548,16.414-15.951,31.227-29.549,17.635c-11.948,4.134-25.221,5.77-39.005,4.327
						c-23.195-2.427-43.351-13.164-56.774-28.435c12.979,11.536,30.34,19.475,49.821,21.512
						c45.399,4.75,85.618-23.939,89.823-64.139C1758.073,2714.327,1751.029,2695.519,1737.95,2680.948z"/>
				</g>
				<g style="opacity:0.3;">
					<path style="fill:#000072;" d="M1681.401,2652.758c24.515,2.565,45.563,14.355,58.923,31.02
						c-12.681-10.399-29.053-17.422-47.295-19.331c-45.399-4.749-85.618,23.939-89.816,64.066
						c-1.939,18.531,4.215,36.287,15.831,50.483c-19.007-15.338-29.978-38.097-27.459-62.173
						C1595.782,2676.697,1636.001,2648.009,1681.401,2652.758z"/>
				</g>
				<g>
					<path style="fill:#000072;" d="M1678.142,2880.066c-6.763,0-13.574-0.352-20.41-1.069
						c-94.702-9.907-164.546-86.846-155.688-171.509c4.326-41.362,26.484-78.247,62.398-103.862
						c35.347-25.21,79.917-36.475,125.42-31.704c45.532,4.761,86.777,24.995,116.138,56.973
						c29.829,32.495,43.877,73.169,39.546,114.536c-4.326,41.362-26.484,78.247-62.393,103.862
						C1753.112,2868.718,1716.433,2880.066,1678.142,2880.066z M1669.445,2600.852c-32.065,0-62.651,9.414-87.583,27.197
						c-28.813,20.552-46.563,49.873-49.985,82.563c-7.134,68.208,50.728,130.361,128.979,138.55
						c38.232,3.999,75.488-5.337,104.873-26.294c28.809-20.552,46.558-49.873,49.98-82.563c3.418-32.69-7.876-65.049-31.811-91.118
						c-24.404-26.582-58.911-43.428-97.163-47.432C1680.944,2601.15,1675.168,2600.852,1669.445,2600.852z"/>
				</g>
			</g>
			<g>
				<g>
					<path style="fill:#10CDF9;" d="M2792.691,1510.679v1264.65c0,46.35-30.1,87.3-74.35,101.1l-633.1,197.6
						c-6.05,1.9-12.15,2.75-18.05,2.75c-31.8-0.1-59.5-25.85-59.5-59.75v-1752.1c0-33.9,27.65-59.6,59.35-59.75h0.8
						c5.85,0.05,11.75,0.95,17.7,2.85l633.35,201.7C2762.842,1423.729,2792.691,1464.53,2792.691,1510.679z"/>
					<path style="fill:#000072;" d="M2067.189,3079.28c-34.189-0.112-61.997-28.037-61.997-62.251v-1752.1
						c0-34.163,27.739-62.087,61.841-62.249h0.811c6.25,0.051,12.451,1.05,18.457,2.969l633.35,201.697
						c45.186,14.395,75.542,55.92,75.542,103.333V2775.33c0,47.7-30.586,89.287-76.108,103.486l-633.096,197.603
						C2079.938,3078.318,2073.61,3079.28,2067.189,3079.28z M2067.824,1207.681h-0.781c-31.343,0.147-56.851,25.828-56.851,57.249
						v1752.1c0,31.465,25.571,57.148,57.007,57.251c5.903,0,11.724-0.889,17.295-2.637l633.101-197.603
						c43.423-13.54,72.598-53.208,72.598-98.711V1510.679c0-45.225-28.96-84.836-72.056-98.567l-633.354-201.699
						C2079.255,1208.647,2073.552,1207.729,2067.824,1207.681z"/>
				</g>
				<g style="opacity:0.3;">
					<path style="fill:#000072;" d="M2792.7,2717.35v58c0,46.35-30.1,87.3-74.35,101.1l-633.1,197.6
						c-6.05,1.9-12.15,2.75-18.05,2.75c-31.8-0.1-59.5-25.85-59.5-59.75v-57.95c0,33.85,27.7,59.6,59.5,59.7
						c5.9,0,12-0.85,18.05-2.75l633.1-197.55C2762.6,2804.65,2792.7,2763.7,2792.7,2717.35z"/>
				</g>
				<g style="opacity:0.55;">
					<path style="fill:#FFFFFF;" d="M2792.7,1510.7v46.65c0-46.15-29.85-86.95-73.8-100.95l-633.35-201.7
						c-5.95-1.9-11.85-2.8-17.7-2.85h-0.8c-31.7,0.15-59.35,25.85-59.35,59.75v-46.65c0-33.9,27.65-59.6,59.35-59.75h0.8
						c5.85,0.05,11.75,0.95,17.7,2.85l633.35,201.7C2762.85,1423.75,2792.7,1464.55,2792.7,1510.7z"/>
				</g>
				<g>
					<path style="fill:#10CDF9;" d="M2067.2,3076.8l-84.05-1.05l-23.15-0.3c-26.35-5.6-47.3-28.9-47.3-58.4v-1752.1
						c0-0.55,0-1.05,0.05-1.6c0.75-30.1,23.45-53.4,51-57.5l16.4-0.1l86.9-0.55c-31.2,0.15-58.45,25.05-59.3,58.15
						c-0.05,0.55-0.05,1.05-0.05,1.6v1752.1C2007.7,3050.95,2035.4,3076.7,2067.2,3076.8z"/>
					<path style="fill:#000072;" d="M2067.189,3079.299c-0.391,0-0.781-0.005-1.177-0.015l-106.045-1.333
						c-29.038-6.123-49.766-31.714-49.766-60.903V1264.951c0-0.627,0.005-1.199,0.059-1.824
						c0.742-30.083,23.086-55.278,53.125-59.751l103.496-0.676c0.039,0,0.083,0,0.122,0h0.029c0,0,0,0,0.005,0l0.024,5h-0.005
						c-30.537,0.146-56.021,25.139-56.807,55.713c-0.054,0.632-0.049,1.062-0.049,1.538v1752.097
						c0,31.108,24.98,56.558,55.913,57.236l1.113,0.015L2067.189,3079.299z M2042.8,1207.854l-79.033,0.496
						c-27.275,4.084-47.827,27.254-48.516,55.061c-0.054,0.635-0.049,1.064-0.049,1.54v1752.097
						c0,26.846,19.058,50.376,45.318,55.957l81.758,0.981c-21.811-9.688-37.075-31.587-37.075-56.938V1264.951
						c0-0.627,0.005-1.199,0.059-1.824C2005.886,1238.572,2021.311,1217.273,2042.8,1207.854z"/>
				</g>
				<g>
					<path style="fill:#10CDF9;" d="M1831.716,2911.28h80.975V1393.23h-80.975c-21.553,0-39.025,17.472-39.025,39.025v1440
						C1792.691,2893.808,1810.163,2911.28,1831.716,2911.28z"/>
					<path style="fill:#000072;" d="M1915.192,2913.782h-83.476c-22.896,0-41.524-18.628-41.524-41.528v-1440
						c0-22.896,18.628-41.524,41.524-41.524h83.476V2913.782z M1831.716,1395.73c-20.137,0-36.524,16.384-36.524,36.524v1440
						c0,20.142,16.387,36.528,36.524,36.528h78.476V1395.73H1831.716z"/>
				</g>
				<g style="opacity:0.3;">
					<path style="fill:#000072;" d="M1912.7,2801.95v109.35h-81c-21.55,0-39-17.5-39-39.05v-109.3c0,21.55,17.45,39,39,39H1912.7z"
						/>
				</g>
				<g style="opacity:0.55;">
					<path style="fill:#FFFFFF;" d="M1912.7,1393.25v79.85h-81c-21.55,0-39,17.5-39,39.05v-79.9c0-21.55,17.45-39,39-39H1912.7z"/>
				</g>
				<g>
					<path style="fill:#000072;" d="M2067.189,3094.28c-42.48-0.137-76.997-34.79-76.997-77.251v-1752.1
						c0-42.395,34.438-77.048,76.768-77.249h0.884c7.886,0.066,15.581,1.304,23.018,3.679l633.345,201.694
						c51.431,16.384,85.986,63.655,85.986,117.625V2775.33c0,54.302-34.819,101.646-86.641,117.808l-633.096,197.598
						C2082.976,3093.083,2075.139,3094.28,2067.189,3094.28z M2067.697,1222.681h-0.654c-23.037,0.107-41.851,19.06-41.851,42.249
						v1752.1c0,23.223,18.867,42.178,42.056,42.251c4.331,0,8.638-0.654,12.749-1.943l633.13-197.612
						c37.124-11.577,62.065-45.493,62.065-84.395V1510.679c0-38.667-24.761-72.537-61.611-84.275l-633.354-201.699
						C2076.071,1223.376,2071.975,1222.715,2067.697,1222.681z"/>
				</g>
				<g>
					<path style="fill:#10CDF9;" d="M2706.025,1604.101v1077.051c0,37.69-22.061,70.989-54.493,82.211l-464.018,145.681
						c-4.434,1.545-8.905,2.236-13.229,2.236c-23.307-0.081-43.609-21.02-43.609-48.586V1419.266
						c0-27.566,20.266-48.465,43.499-48.586h0.587c4.288,0.04,8.612,0.772,12.973,2.317l464.201,149.015
						C2684.147,1533.396,2706.025,1566.573,2706.025,1604.101z"/>
					<path style="fill:#000072;" d="M2174.284,2913.782c-25.43-0.093-46.108-23.008-46.108-51.089V1419.265
						c0-28.037,20.63-50.952,45.981-51.087h0.601c4.683,0.044,9.321,0.872,13.809,2.461l464.136,148.992
						c33.413,11.809,55.82,45.745,55.82,84.47V2681.15c0,38.96-22.573,72.949-56.177,84.575l-464.087,145.703
						C2183.806,2912.981,2179.079,2913.782,2174.284,2913.782z M2174.172,1373.179c-22.598,0.12-40.996,20.793-40.996,46.087
						v1443.428c0,25.332,18.447,46.006,41.118,46.089c4.224,0,8.398-0.708,12.397-2.1l464.092-145.703
						c31.519-10.908,52.739-42.998,52.739-79.829V1604.101c0-36.609-21.064-68.652-52.422-79.734l-464.136-148.992
						c-4.033-1.426-8.125-2.158-12.231-2.197H2174.172z"/>
				</g>
				<g style="opacity:0.3;">
					<path style="fill:#000072;" d="M2706,2613.1v68.05c0,37.7-22.05,71-54.45,82.2l-464.05,145.7c-4.4,1.55-8.9,2.25-13.2,2.25
						c-23.3-0.1-43.65-21.05-43.65-48.6v-68.05c0,27.55,20.35,48.5,43.65,48.6c4.3,0,8.8-0.7,13.2-2.25l464.05-145.65
						C2683.95,2684.1,2706,2650.8,2706,2613.1z"/>
				</g>
				<g style="opacity:0.55;">
					<path style="fill:#FFFFFF;" d="M2706,1604.1v41.2c0-37.55-21.85-70.7-54.05-82.1l-464.2-149c-4.4-1.55-8.7-2.3-13-2.35h-0.6
						c-23.2,0.15-43.5,21.05-43.5,48.6v-41.2c0-27.55,20.3-48.45,43.5-48.55h0.6c4.3,0,8.6,0.75,13,2.3l464.2,149
						C2684.15,1533.4,2706,1566.55,2706,1604.1z"/>
				</g>
				<g>
					<path style="fill:#000072;" d="M2174.284,2926.282c-32.339-0.117-58.608-28.643-58.608-63.589V1419.265
						c0-34.893,26.206-63.418,58.418-63.587h0.664c6.187,0.059,12.188,1.128,17.979,3.176l463.784,148.875
						c38.745,13.687,64.502,52.361,64.502,96.372V2681.15c0,44.287-25.957,83.022-64.59,96.387l-464.429,145.82
						C2186.589,2925.247,2180.48,2926.282,2174.284,2926.282z M2174.611,1385.679h-0.439c-15.679,0.083-28.496,15.149-28.496,33.587
						v1443.428c0,18.467,12.856,33.535,28.662,33.589c2.778,0,5.566-0.474,8.242-1.401l464.458-145.83
						c26.143-9.053,43.984-36.392,43.984-67.9V1604.101c0-31.323-17.715-58.628-44.087-67.947l-463.789-148.877
						C2180.031,1386.182,2177.375,1385.705,2174.611,1385.679z"/>
				</g>
				<g>
					<path style="fill:#000072;" d="M1972.233,3094.236c-5.366,0-10.693-0.566-15.942-1.704l7.402-34.209
						c5.283,1.143,10.752,1.216,16.289,0.195l6.318,34.424C1981.604,3093.806,1976.901,3094.236,1972.233,3094.236z"/>
				</g>
				<g>
					<ellipse style="fill:#FFFFFF;" cx="2465.658" cy="2128.478" rx="130.628" ry="223.778"/>
				</g>
				<g style="opacity:0.3;">
					<path style="fill:#262F6A;" d="M2596.3,2128.5c0,123.55-58.5,223.75-130.65,223.75c-72.15,0-130.6-100.2-130.6-223.75
						c0-17.2,1.15-33.95,3.3-50.05c13.25,99.5,65.2,173.75,127.3,173.75c62.1,0,114.1-74.25,127.35-173.75
						C2595.15,2094.55,2596.3,2111.3,2596.3,2128.5z"/>
					<path style="fill:#000072;" d="M2465.651,2354.749c-73.394,0-133.101-101.494-133.101-226.25
						c0-16.943,1.118-33.896,3.325-50.381l2.48-18.569l2.476,18.569c13.232,99.424,65.728,171.582,124.819,171.582
						c59.116,0,111.631-72.158,124.868-171.582l2.476-18.584l2.485,18.584c2.202,16.523,3.32,33.472,3.32,50.381
						C2598.801,2253.254,2539.069,2354.749,2465.651,2354.749z M2338.825,2097.351c-0.845,10.308-1.274,20.728-1.274,31.147
						c0,121.997,57.466,221.25,128.101,221.25c70.664,0,128.149-99.253,128.149-221.25c0-10.4-0.43-20.82-1.279-31.143
						c-17.378,93.555-68.042,157.344-126.87,157.344C2406.843,2254.7,2356.198,2190.906,2338.825,2097.351z"/>
				</g>
				<g style="opacity:0.55;">
					<path style="fill:#FFFFFF;" d="M2570.75,2261.35c9.15-30.5,14.25-65.05,14.25-101.6c0-123.6-58.5-223.8-130.65-223.8
						c-43.05,0-81.3,35.75-105.05,90.9c21.55-72.5,65.55-122.15,116.35-122.15c72.15,0,130.65,100.2,130.65,223.8
						C2596.3,2178.25,2586.85,2224.2,2570.75,2261.35z"/>
				</g>
				<g style="opacity:0.55;">
					<path style="fill:#FFFFFF;" d="M2067.05,1205.2c-31.2,0.15-58.45,25.05-59.3,58.15h-95c0.75-30.1,23.45-53.4,51-57.5l16.4-0.1
						L2067.05,1205.2z"/>
				</g>
				<g>
					<path style="fill:#000072;" d="M2465.656,2367.258c-81.66,0-145.625-104.883-145.625-238.779s63.965-238.779,145.625-238.779
						s145.63,104.883,145.63,238.779S2547.316,2367.258,2465.656,2367.258z M2465.656,1919.7
						c-62.676,0-115.625,95.61-115.625,208.779s52.949,208.779,115.625,208.779s115.63-95.61,115.63-208.779
						S2528.332,1919.7,2465.656,1919.7z"/>
				</g>
				<g>
					<path style="fill:#000072;" d="M1966.359,1223.132l-5.234-34.604c7.246-1.096,14.478-1.13,21.519-0.12l-5,34.644
						C1974.006,1222.522,1970.202,1222.556,1966.359,1223.132z"/>
				</g>
				<g>
					<path style="fill:#000072;" d="M2067.131,3094.28c-0.444,0-0.889-0.005-1.338-0.015l-107.749-1.362l-1.685-0.356
						c-35.444-7.524-61.167-39.287-61.167-75.518v-1752.1c0-37.996,28.369-70.845,65.986-76.411l2.456-0.188l103.296-0.649
						c0.01,0,0.02,0,0.029,0l0.195,35l-0.239,0.002c-23.027,0.22-41.724,19.129-41.724,42.246v1752.1
						c0,22.939,18.403,41.709,41.201,42.241l1.016,0.01L2067.131,3094.28z M1962.087,3057.952l40.195,0.518
						c-7.651-11.987-12.09-26.211-12.09-41.44v-1752.1c0-15.393,4.541-29.768,12.349-41.841l-37.354,0.234
						c-20.347,3.545-34.995,20.867-34.995,41.606v1752.1C1930.192,3036.624,1943.229,3053.235,1962.087,3057.952z"/>
				</g>
				<g>
					<path style="fill:#F9C710;" d="M2657.5,2128.478c0,68.6-32.45,124.2-72.5,124.2c-21.5,0-40.85-16.05-54.05-41.5
						c-11.5-21.95-18.45-50.95-18.45-82.7c0-31.75,6.95-60.75,18.45-82.7c13.2-25.45,32.55-41.5,54.05-41.5
						C2625.05,2004.278,2657.5,2059.878,2657.5,2128.478z"/>
					<path style="fill:#F9C710;" d="M2585.002,2255.178c-21.636,0-42.144-15.615-56.27-42.847
						c-12.08-23.057-18.73-52.837-18.73-83.853c0-31.021,6.65-60.801,18.73-83.862c14.126-27.222,34.634-42.837,56.27-42.837
						c41.357,0,75,56.836,75,126.699S2626.359,2255.178,2585.002,2255.178z M2585.002,2006.78
						c-19.702,0-38.594,14.634-51.836,40.151c-11.714,22.363-18.164,51.318-18.164,81.548c0,30.225,6.45,59.18,18.164,81.538
						c13.242,25.527,32.134,40.161,51.836,40.161c38.599,0,70-54.595,70-121.699S2623.601,2006.78,2585.002,2006.78z"/>
				</g>
				<g style="opacity:0.55;">
					<path style="fill:#FFFFFF;" d="M2641.85,2205.55c3.5-14.5,5.4-30.4,5.4-47.1c0-68.6-32.45-124.2-72.5-124.2
						c-21.5,0-40.8,16.05-54.05,41.5c-1,1.9-1.95,3.85-2.85,5.85c3.15-13.25,7.6-25.3,13.1-35.8c13.2-25.45,32.55-41.5,54.05-41.5
						c40.05,0,72.5,55.6,72.5,124.2C2657.5,2157.6,2651.65,2184.4,2641.85,2205.55z"/>
				</g>
				<g>
					<path style="fill:#F9C710;" d="M2585,2252.7h-108.15c-32.8,0-60.5-37.35-69.45-88.55c-2-11.3-3.05-23.25-3.05-35.65
						c0-28.65,5.7-55,15.2-76c13.25-29.35,34-48.2,57.3-48.2H2585c-21.5,0-40.85,16.05-54.05,41.5c-1.15,2.15-2.2,4.4-3.25,6.7
						c-9.55,21-15.2,47.35-15.2,76c0,12.4,1.05,24.35,3.05,35.65c3.05,17.65,8.4,33.65,15.4,47.05
						C2544.15,2236.65,2563.5,2252.7,2585,2252.7z"/>
					<path style="fill:#F9C710;" d="M2585.002,2255.198h-108.154c-33.535,0-62.437-36.416-71.909-90.62
						c-2.051-11.597-3.091-23.735-3.091-36.079c0-28.086,5.332-54.722,15.425-77.026c14.248-31.568,35.967-49.673,59.575-49.673
						h108.154v5c-19.702,0-38.594,14.634-51.836,40.151c-1.133,2.134-2.163,4.331-3.188,6.587
						c-9.795,21.538-14.976,47.461-14.976,74.961c0,12.07,1.011,23.921,3.008,35.215c2.93,16.934,8.169,32.949,15.156,46.328
						c13.242,25.522,32.134,40.156,51.836,40.156V2255.198z M2476.848,2006.799c-21.558,0-41.611,17.031-55.02,46.733
						c-9.8,21.665-14.98,47.588-14.98,74.966c0,12.051,1.016,23.901,3.013,35.215c8.901,50.923,36.45,86.484,66.987,86.484h87.207
						c-13.579-6.626-25.879-19.644-35.322-37.847c-7.222-13.828-12.632-30.352-15.649-47.778
						c-2.041-11.572-3.081-23.711-3.081-36.074c0-28.213,5.332-54.849,15.425-77.031c1.074-2.354,2.144-4.648,3.315-6.846
						c9.438-18.188,21.733-31.196,35.313-37.822H2476.848z"/>
				</g>
				<g style="opacity:0.55;">
					<path style="fill:#FFFFFF;" d="M2585,2004.3c-21.5,0-40.85,16.05-54.05,41.5c-1.15,2.15-2.2,4.4-3.25,6.7h-108.15
						c13.25-29.35,34-48.2,57.3-48.2H2585z"/>
				</g>
				<g>
					<rect x="2067.043" y="1187.681" style="fill:#000072;" width="0.801" height="35"/>
				</g>
				<g>
					<path style="fill:#000072;" d="M2585.002,2267.678c-26.46,0-51.016-18.076-67.368-49.59
						c-12.974-24.771-20.132-56.611-20.132-89.609c0-33.003,7.158-64.849,20.161-89.663c16.323-31.46,40.879-49.536,67.339-49.536
						c49.067,0,87.5,61.143,87.5,139.199S2634.069,2267.678,2585.002,2267.678z M2585.002,2019.28
						c-14.873,0-29.722,12.178-40.737,33.408c-10.82,20.649-16.763,47.549-16.763,75.791c0,28.237,5.942,55.137,16.733,75.742
						c11.045,21.279,25.894,33.457,40.767,33.457c27.769,0,57.5-43.877,57.5-109.199S2612.771,2019.28,2585.002,2019.28z"/>
				</g>
				<g>
					<path style="fill:#000072;" d="M2585.002,2267.678h-108.154c-49.067,0-87.5-61.143-87.5-139.199s38.433-139.199,87.5-139.199
						h108.154v30c-14.873,0-29.722,12.178-40.737,33.408c-10.82,20.649-16.763,47.549-16.763,75.791
						c0,28.237,5.942,55.137,16.733,75.742c11.045,21.279,25.894,33.457,40.767,33.457V2267.678z M2476.848,2019.28
						c-30.63,0-57.5,51.026-57.5,109.199s26.87,109.199,57.5,109.199h53.32c-4.561-5.781-8.765-12.329-12.534-19.59
						c-12.974-24.771-20.132-56.611-20.132-89.609c0-33.003,7.158-64.849,20.161-89.663c3.755-7.241,7.949-13.77,12.5-19.536
						H2476.848z"/>
				</g>
				<g>
					<path style="fill:#000072;" d="M1930.192,2928.782h-98.476c-31.167,0-56.524-25.356-56.524-56.528v-1440
						c0-31.167,25.357-56.524,56.524-56.524h98.476V2928.782z M1831.716,1410.73c-11.87,0-21.524,9.656-21.524,21.524v1440
						c0,11.87,9.653,21.528,21.524,21.528h63.476V1410.73H1831.716z"/>
				</g>
				<g>
					<circle style="fill:#000072;" cx="1871.025" cy="1701.563" r="41.667"/>
				</g>
				<g>
					<circle style="fill:#000072;" cx="1871.025" cy="2648.655" r="41.667"/>
				</g>
				<g style="opacity:0.3;">
					<path style="fill:#000072;" d="M2585,2252.7h-108.15c-32.8,0-60.5-37.35-69.45-88.55h108.15c3.05,17.65,8.4,33.65,15.4,47.05
						C2544.15,2236.65,2563.5,2252.7,2585,2252.7z"/>
				</g>
			</g>
			<g>
				<path style="fill:#000072;" d="M1455.041,3165.432c-0.464,0-0.918-0.005-1.382-0.015
					c-44.175-0.918-82.632-45.732-121.025-141.04c-3.613-8.965,0.728-19.16,9.692-22.769c8.975-3.613,19.155,0.728,22.769,9.692
					c39.38,97.739,70.293,118.73,89.292,119.121c16.001,0.435,49.971-14.785,97.432-119.79c3.984-8.813,14.351-12.705,23.154-8.74
					c8.809,3.979,12.72,14.346,8.74,23.154C1540.456,3120.75,1499.524,3165.432,1455.041,3165.432z"/>
			</g>
			<g>
				<path style="fill:#FFFFFF;" d="M2826.346,1869.241L2826.346,1869.241c-18.587,0-33.654-15.068-33.654-33.654v-211.025
					c0-18.587,15.067-33.654,33.654-33.654l0,0c18.587,0,33.654,15.068,33.654,33.654v211.025
					C2860,1854.174,2844.933,1869.241,2826.346,1869.241z"/>
			</g>
			<g style="opacity:0.55;">
				<path style="fill:#FFFFFF;" d="M2860,1624.55v54.4c0-9.3-3.75-17.7-9.85-23.8c-6.1-6.1-14.5-9.85-23.8-9.85
					c-18.6,0-33.65,15.05-33.65,33.65v-54.4c0-18.55,15.05-33.65,33.65-33.65c9.3,0,17.7,3.8,23.8,9.85
					C2856.25,1606.85,2860,1615.3,2860,1624.55z"/>
			</g>
			<g>
				<path style="fill:#FFFFFF;" d="M2826.346,2708.942L2826.346,2708.942c-18.587,0-33.654-15.068-33.654-33.654v-211.025
					c0-18.587,15.067-33.654,33.654-33.654l0,0c18.587,0,33.654,15.067,33.654,33.654v211.025
					C2860,2693.874,2844.933,2708.942,2826.346,2708.942z"/>
			</g>
			<g style="opacity:0.55;">
				<path style="fill:#FFFFFF;" d="M2860,2464.25v76.25c0-9.3-3.75-17.7-9.85-23.8c-6.1-6.1-14.5-9.85-23.8-9.85
					c-18.6,0-33.65,15.1-33.65,33.65v-76.25c0-18.55,15.05-33.65,33.65-33.65c9.3,0,17.7,3.8,23.8,9.85
					C2856.25,2446.55,2860,2455,2860,2464.25z"/>
			</g>
			<g>
				<path style="fill:#000072;" d="M2826.345,1886.741c-28.203,0-51.152-22.947-51.152-51.152v-211.025
					c0-28.208,22.949-51.155,51.152-51.155c28.208,0,51.157,22.947,51.157,51.155v211.025
					C2877.502,1863.794,2854.553,1886.741,2826.345,1886.741z M2826.345,1608.408c-8.906,0-16.152,7.246-16.152,16.155v211.025
					c0,8.906,7.246,16.152,16.152,16.152c8.911,0,16.157-7.246,16.157-16.152v-211.025
					C2842.502,1615.654,2835.256,1608.408,2826.345,1608.408z"/>
			</g>
			<g>
				<path style="fill:#000072;" d="M2826.345,2726.443c-28.203,0-51.152-22.949-51.152-51.157V2464.26
					c0-28.203,22.949-51.152,51.152-51.152c28.208,0,51.157,22.949,51.157,51.152v211.025
					C2877.502,2703.494,2854.553,2726.443,2826.345,2726.443z M2826.345,2448.108c-8.906,0-16.152,7.246-16.152,16.152v211.025
					c0,8.911,7.246,16.157,16.152,16.157c8.911,0,16.157-7.246,16.157-16.157V2464.26
					C2842.502,2455.354,2835.256,2448.108,2826.345,2448.108z"/>
			</g>
			<g>
				<path style="fill:#000072;" d="M3431.65,3153.784c-58.682,9.058-117.361,11.228-176.04,12.341
					c-58.682,1.252-117.361,0.588-176.042-0.093l-88.02-0.549l-88.02-0.034h-176.04h-704.163h-704.163H967.08l-88.02,0.034
					l-44.009,0.42l-44.011,0.725c-29.338,0.376-58.679-0.208-88.02-1.675c-29.341-1.897-58.679-4.556-88.02-11.169
					c-3.223-0.728-5.244-3.928-4.519-7.148c0.525-2.324,2.341-4.023,4.519-4.519c29.341-6.614,58.679-9.272,88.02-11.169
					c29.341-1.467,58.682-2.053,88.02-1.675l44.011,0.725l44.009,0.42l88.02,0.032h352.083h704.163h704.163h176.04l88.02-0.034
					l88.02-0.547c58.682-0.684,117.361-1.345,176.042-0.093c58.679,1.113,117.358,3.281,176.04,12.341
					c3.22,0.498,5.43,3.513,4.932,6.733C3436.182,3151.455,3434.124,3153.398,3431.65,3153.784z"/>
			</g>
			<g>
				<g>
					<polygon style="fill:#FF3E84;" points="1617.346,2042.93 1531.717,2290.17 1293.136,2182.813 1328.581,2094.78 
						1528.949,2008.329 					"/>
				</g>
				<g style="opacity:0.55;">
					<polygon style="fill:#FFFFFF;" points="1531.717,2290.17 1525.854,2082.405 1467.012,2035.053 1528.949,2008.329 
						1617.346,2042.93 					"/>
				</g>
				<g style="opacity:0.55;">
					<polygon style="fill:#FFFFFF;" points="1617.346,2042.93 1609.039,2066.973 1525.298,2034.165 1324.929,2120.615 
						1298.845,2185.363 1293.136,2182.813 1328.581,2094.78 1528.949,2008.329 					"/>
				</g>
				<g style="opacity:0.3;">
					<polygon style="fill:#6B184E;" points="1531.717,2290.17 1293.136,2182.813 1328.581,2094.78 1390.552,2068.042 
						1384.628,2143.338 					"/>
					<path style="fill:#000072;" d="M1543.161,2298.059l-253.242-113.95l36.729-91.221l66.724-28.789l-6.162,78.286
						L1543.161,2298.059z M1296.354,2181.521l223.916,100.757l-138.228-137.988l5.693-72.31l-57.222,24.688L1296.354,2181.521z"/>
				</g>
				<g>
					<path style="fill:#000072;" d="M1539.353,2307.844l-262.925-118.291l42.104-104.595l210.185-90.679l104.98,41.123
						L1539.353,2307.844z M1309.855,2176.096l214.243,96.387l76.875-221.992l-71.777-28.115l-190.547,82.212L1309.855,2176.096z"/>
				</g>
				<g>
					
						<rect x="1278.697" y="2099.894" transform="matrix(0.9182 -0.3961 0.3961 0.9182 -717.9467 749.335)" style="fill:#000072;" width="353.083" height="25.983"/>
				</g>
				<g>
					<polygon style="fill:#000072;" points="1518.737,2290.53 1513.039,2088.777 1458.864,2045.173 1475.163,2024.929 
						1538.674,2076.052 1544.714,2289.797 					"/>
				</g>
				<g>
					<polygon style="fill:#000072;" points="1522.546,2299.363 1371.193,2148.313 1377.585,2067.029 1403.493,2069.07 
						1398.039,2138.391 1540.905,2280.964 					"/>
				</g>
			</g>
			<g>
				<g>
					<circle style="fill:#F9C710;" cx="2896.468" cy="2999.706" r="150.852"/>
					<path style="fill:#000072;" d="M2896.467,3153.059c-84.556,0-153.35-68.794-153.35-153.354
						c0-84.556,68.794-153.35,153.35-153.35c84.561,0,153.354,68.794,153.354,153.35
						C3049.821,3084.265,2981.027,3153.059,2896.467,3153.059z M2896.467,2851.355c-81.802,0-148.35,66.548-148.35,148.35
						s66.548,148.354,148.35,148.354s148.354-66.553,148.354-148.354S2978.269,2851.355,2896.467,2851.355z"/>
				</g>
				<g style="opacity:0.55;">
					<path style="fill:#FFFFFF;" d="M3002.619,3104.251c13.815-22.866,21.834-49.622,21.834-78.284
						c0-31.599-9.766-60.976-26.439-85.191c-25.486,17.546-56.292-15.165-39.301-39.301c-24.216-16.594-53.512-26.359-85.112-26.359
						c-41.365,0-78.681,16.593-105.914,43.588c26.439-43.35,74.235-72.329,128.78-72.329c83.286,0,150.852,67.566,150.852,150.852
						C3047.319,3039.067,3030.249,3077.019,3002.619,3104.251z"/>
				</g>
				<g>
					<circle style="fill:#F89F1D;" cx="2896.468" cy="2999.706" r="79.088"/>
				</g>
				<g style="opacity:0.55;">
					<path style="fill:#FFFFFF;" d="M2951.605,3056.315c-14.45,18.181-36.76,29.773-61.77,29.773
						c-17.944,0-34.537-5.955-47.796-16.038c-16.593,10.718-35.41-12.068-22.31-26.359c-5.796-10.957-9.051-23.422-9.051-36.681
						c0-22.31,9.289-42.556,24.216-56.847c-10.957,13.497-17.547,30.806-17.547,49.543c0,43.667,35.411,79.078,79.158,79.078
						C2917.941,3078.783,2937.393,3070.209,2951.605,3056.315z"/>
				</g>
				<g style="opacity:0.3;">
					<path style="fill:#000072;" d="M2975.582,2999.706c0,23.58-10.321,44.779-26.756,59.15
						c9.766-13.101,15.482-29.376,15.482-46.923c0-43.667-35.411-79.078-79.078-79.078c-20.166,0-38.586,7.622-52.56,20.087
						c14.371-19.611,37.633-32.314,63.834-32.314C2940.172,2920.627,2975.582,2956.038,2975.582,2999.706z"/>
				</g>
				<g>
					<path style="fill:#000072;" d="M2896.467,3165.559c-91.45,0-165.85-74.404-165.85-165.854s74.399-165.85,165.85-165.85
						s165.854,74.399,165.854,165.85S2987.917,3165.559,2896.467,3165.559z M2896.467,2863.855
						c-74.907,0-135.85,60.942-135.85,135.85c0,74.912,60.942,135.854,135.85,135.854c74.912,0,135.854-60.942,135.854-135.854
						C3032.321,2924.797,2971.379,2863.855,2896.467,2863.855z"/>
				</g>
			</g>
			<g>
				<g>
					<path style="fill:#F9C710;" d="M3253.502,3147.931h-244.661c-14.241,0-25.785-11.545-25.785-25.785v-49.464
						c0-14.241,11.544-25.785,25.785-25.785h244.661c14.241,0,25.785,11.545,25.785,25.785v49.464
						C3279.287,3136.387,3267.743,3147.931,3253.502,3147.931z"/>
				</g>
				<g style="opacity:0.55;">
					<rect x="3165.238" y="3047.94" style="fill:#FFFFFF;" width="42.46" height="96.861"/>
				</g>
				<g>
					<rect x="2986.182" y="3047.94" style="fill:#F89F1D;" width="78.502" height="96.861"/>
				</g>
				<g style="opacity:0.55;">
					<rect x="3225.472" y="3050.027" style="fill:#FFFFFF;" width="24.686" height="96.861"/>
				</g>
				<g>
					<path style="fill:#000072;" d="M3253.503,3162.932H3008.84c-22.49,0-40.786-18.296-40.786-40.786v-49.463
						c0-22.49,18.296-40.786,40.786-40.786h244.663c22.49,0,40.786,18.296,40.786,40.786v49.463
						C3294.289,3144.636,3275.993,3162.932,3253.503,3162.932z M3008.84,3061.897c-5.947,0-10.786,4.839-10.786,10.786v49.463
						c0,5.947,4.839,10.786,10.786,10.786h244.663c5.947,0,10.786-4.839,10.786-10.786v-49.463c0-5.947-4.839-10.786-10.786-10.786
						H3008.84z"/>
				</g>
			</g>
			<g>
				<g>
					<path style="fill:#F9C710;" d="M1213.036,3147.931H968.374c-14.241,0-25.785-11.545-25.785-25.785v-49.464
						c0-14.241,11.544-25.785,25.785-25.785h244.661c14.241,0,25.785,11.545,25.785,25.785v49.464
						C1238.821,3136.387,1227.276,3147.931,1213.036,3147.931z"/>
				</g>
				<g style="opacity:0.55;">
					<rect x="1124.772" y="3047.94" style="fill:#FFFFFF;" width="42.46" height="96.861"/>
				</g>
				<g>
					<rect x="945.716" y="3047.94" style="fill:#F89F1D;" width="78.502" height="96.861"/>
				</g>
				<g style="opacity:0.55;">
					<rect x="1185.005" y="3050.027" style="fill:#FFFFFF;" width="24.686" height="96.861"/>
				</g>
				<g>
					<path style="fill:#000072;" d="M1213.034,3162.932H968.376c-22.49,0-40.786-18.296-40.786-40.786v-49.463
						c0-22.49,18.296-40.786,40.786-40.786h244.658c22.49,0,40.786,18.296,40.786,40.786v49.463
						C1253.82,3144.636,1235.524,3162.932,1213.034,3162.932z M968.376,3061.897c-5.947,0-10.786,4.839-10.786,10.786v49.463
						c0,5.947,4.839,10.786,10.786,10.786h244.658c5.947,0,10.786-4.839,10.786-10.786v-49.463c0-5.947-4.839-10.786-10.786-10.786
						H968.376z"/>
				</g>
			</g>
			<g>
				<g>
					<path style="fill:#F9C710;" d="M1014.948,3026.434L797.834,3139.22c-12.637,6.565-28.204,1.642-34.769-10.995l-22.802-43.895
						c-6.565-12.637-1.642-28.204,10.995-34.769l217.114-112.786c12.637-6.565,28.204-1.642,34.769,10.995l22.802,43.895
						C1032.508,3004.303,1027.585,3019.869,1014.948,3026.434z"/>
				</g>
				<g style="opacity:0.55;">
					
						<rect x="910.462" y="2963.15" transform="matrix(0.8874 -0.461 0.461 0.8874 -1283.3994 768.5833)" style="fill:#FFFFFF;" width="42.46" height="96.861"/>
				</g>
				<g>
					
						<rect x="749.538" y="3037.385" transform="matrix(0.8874 -0.461 0.461 0.8874 -1333.7148 711.0683)" style="fill:#F89F1D;" width="78.501" height="96.861"/>
				</g>
				<g style="opacity:0.55;">
					
						<rect x="965.877" y="2941.332" transform="matrix(0.8874 -0.461 0.461 0.8874 -1268.0999 787.5723)" style="fill:#FFFFFF;" width="24.686" height="96.861"/>
				</g>
				<g>
					<path style="fill:#000072;" d="M786.018,3157.117c-14.746,0-29.009-8.013-36.265-21.973l-22.803-43.901
						c-5.019-9.668-5.977-20.713-2.695-31.099c3.286-10.386,10.42-18.872,20.088-23.892l217.114-112.788
						c19.961-10.361,44.629-2.559,54.995,17.388l22.803,43.901c5.02,9.668,5.977,20.713,2.695,31.099
						c-3.286,10.386-10.42,18.872-20.088,23.892l-217.114,112.788C798.757,3155.642,792.341,3157.117,786.018,3157.117z
						 M980.236,2948.875c-1.67,0-3.369,0.391-4.951,1.211l-217.114,112.788c-5.278,2.739-7.339,9.263-4.6,14.541l22.803,43.896
						c2.744,5.273,9.277,7.344,14.546,4.6l217.114-112.788l0,0c5.278-2.739,7.339-9.263,4.6-14.541l-22.803-43.896
						C987.912,2950.994,984.138,2948.875,980.236,2948.875z"/>
				</g>
			</g>
			<g>
				<g>
					<path style="fill:#F9C710;" d="M3177.058,3046.896h-244.661c-14.241,0-25.785-11.544-25.785-25.785v-49.464
						c0-14.241,11.545-25.785,25.785-25.785h244.661c14.241,0,25.785,11.545,25.785,25.785v49.464
						C3202.843,3035.352,3191.298,3046.896,3177.058,3046.896z"/>
				</g>
				<g style="opacity:0.55;">
					<rect x="3088.794" y="2946.905" style="fill:#FFFFFF;" width="42.46" height="96.861"/>
				</g>
				<g>
					<rect x="2909.738" y="2946.905" style="fill:#F89F1D;" width="78.502" height="96.861"/>
				</g>
				<g style="opacity:0.55;">
					<rect x="3149.027" y="2948.992" style="fill:#FFFFFF;" width="24.686" height="96.861"/>
				</g>
				<g>
					<path style="fill:#000072;" d="M3177.058,3061.897h-244.663c-22.485,0-40.781-18.296-40.781-40.786v-49.463
						c0-22.49,18.296-40.786,40.781-40.786h244.663c22.49,0,40.786,18.296,40.786,40.786v49.463
						C3217.844,3043.601,3199.548,3061.897,3177.058,3061.897z M2932.395,2960.862c-5.942,0-10.781,4.839-10.781,10.786v49.463
						c0,5.947,4.839,10.786,10.781,10.786h244.663c5.947,0,10.786-4.839,10.786-10.786v-49.463c0-5.947-4.839-10.786-10.786-10.786
						H2932.395z"/>
				</g>
			</g>
			<g>
				<g>
					<path style="fill:#F9C710;" d="M3253.502,2944.279h-244.661c-14.241,0-25.785-11.544-25.785-25.785v-49.464
						c0-14.241,11.544-25.785,25.785-25.785h244.661c14.241,0,25.785,11.544,25.785,25.785v49.464
						C3279.287,2932.735,3267.743,2944.279,3253.502,2944.279z"/>
				</g>
				<g style="opacity:0.55;">
					<rect x="3165.238" y="2844.288" style="fill:#FFFFFF;" width="42.46" height="96.861"/>
				</g>
				<g>
					<rect x="2986.182" y="2844.288" style="fill:#F89F1D;" width="78.502" height="96.861"/>
				</g>
				<g style="opacity:0.55;">
					<rect x="3225.472" y="2846.375" style="fill:#FFFFFF;" width="24.686" height="96.861"/>
				</g>
				<g>
					<path style="fill:#000072;" d="M3253.503,2959.28H3008.84c-22.49,0-40.786-18.296-40.786-40.786v-49.463
						c0-22.49,18.296-40.786,40.786-40.786h244.663c22.49,0,40.786,18.296,40.786,40.786v49.463
						C3294.289,2940.984,3275.993,2959.28,3253.503,2959.28z M3008.84,2858.245c-5.947,0-10.786,4.839-10.786,10.786v49.463
						c0,5.947,4.839,10.786,10.786,10.786h244.663c5.947,0,10.786-4.839,10.786-10.786v-49.463c0-5.947-4.839-10.786-10.786-10.786
						H3008.84z"/>
				</g>
			</g>
			<g style="opacity:0.3;">
				<path style="fill:#000072;" d="M3580,3198.65c0,52.15-701.75,94.4-1567.4,94.4s-1567.4-42.25-1567.4-94.4
					c0-18.65,90-36.05,245.35-50.7h2644.1C3490,3162.6,3580,3180,3580,3198.65z"/>
			</g>
		</g>
	</g>
</g>
</svg>
