<?xml version="1.0" encoding="utf-8"?>
<!-- Generator: Adobe Illustrator 27.5.0, SVG Export Plug-In . SVG Version: 6.00 Build 0)  -->
<svg version="1.1" id="Layer_1" xmlns="http://www.w3.org/2000/svg" xmlns:xlink="http://www.w3.org/1999/xlink" x="0px" y="0px"
	 viewBox="0 0 4000 4000" style="enable-background:new 0 0 4000 4000;" xml:space="preserve">
<g>
	<g>
		<!-- <rect style="fill-rule:evenodd;clip-rule:evenodd;fill:#A89FFF;" width="4000" height="4000"/> -->
	</g>
	<g>
		<g>
			<defs>
				<path id="SVGID_1_" d="M1554.772,1438.094c-94.805,123.851-172.96,136.135-244.546,29.31
					c-106.559,230.455-166.389,479.764-176.05,733.485c18.061,132.317,112.428,300.781,339.044,404.233
					c710.792,324.442,1157.302,252.947,1287.701-110.839c61.505-171.685,112.557-361.539,159.729-567.228
					c-7.719-44.679-28.912-64.22-63.578-58.682c-93.462,73.126-141.472-4.876-176.049-229.816
					c-44.35-288.674-196.25-298.796-423.794-35.858c-116.175,101.047-200.662,88.058-236.277-43.974
					C1924.14,1199.724,1771.178,1155.463,1554.772,1438.094"/>
			</defs>
			<clipPath id="SVGID_00000172415577425175917620000015345316552620044935_">
				<use xlink:href="#SVGID_1_"  style="overflow:visible;"/>
			</clipPath>
			
				<linearGradient id="SVGID_00000003063989148938257900000006686010322741293721_" gradientUnits="userSpaceOnUse" x1="2279.146" y1="1253.3888" x2="1744.6245" y2="2928.9932">
				<stop  offset="0" style="stop-color:#FFCC00"/>
				<stop  offset="1" style="stop-color:#FF9966"/>
			</linearGradient>
			
				<rect x="1134.176" y="1155.463" style="clip-path:url(#SVGID_00000172415577425175917620000015345316552620044935_);fill:url(#SVGID_00000003063989148938257900000006686010322741293721_);" width="1786.475" height="1774.102"/>
		</g>
		<g>
			<path style="fill:#3B1942;" d="M2246.265,2833.799c-213.486,0.01-478.188-70.259-782.046-208.955
				c-196.362-89.644-327.773-247.031-351.523-421.025c-0.171-1.24-0.229-2.5-0.181-3.755
				c9.824-257.947,69.722-507.51,178.032-741.758c3.291-7.112,10.161-11.897,17.974-12.512c7.852-0.576,15.352,3.032,19.712,9.543
				c27.393,40.876,55.264,62.041,82.837,62.91c35.713,1.106,78.218-30.276,126.489-93.33c0-0.002,0-0.002,0-0.002
				c110.889-144.822,206.392-206.997,291.875-190.117c89.995,17.778,159.487,121.887,212.451,318.281
				c14.15,52.463,35.684,83.44,64.004,92.068c33.457,10.198,80.449-9.802,135.967-57.813
				c130.576-150.559,239.131-214.717,322.671-190.654c70.308,20.254,116.714,100.525,137.92,238.586
				c22.046,143.391,50.156,222.808,83.56,236.038c14.165,5.62,33.579-1.123,57.705-20.002c2.896-2.263,6.313-3.755,9.941-4.333
				c21.963-3.511,74.629-3.101,88.359,76.396c0.488,2.832,0.41,5.735-0.234,8.538c-52.969,230.969-103.955,411.99-160.444,569.69
				c-48.174,134.385-136.919,229.653-263.774,283.169C2439.908,2817.52,2349.005,2833.794,2246.265,2833.799z M1155.914,2199.8
				c8.862,61.89,58.213,263.218,326.309,385.601c438.755,200.273,790.942,255.391,1018.481,159.414
				c115.225-48.608,195.908-135.356,239.814-257.847c55.542-155.044,105.781-333.218,157.998-560.373
				c-7.168-35.642-21.826-38.55-32.847-37.517c-35.659,26.511-66.987,33.879-95.63,22.536
				c-52.168-20.667-84.165-98.821-110.444-269.763c-18.154-118.191-55.181-188.562-107.07-203.508
				c-65.122-18.777-161.582,42.964-278.906,178.54c-0.669,0.774-1.392,1.499-2.163,2.17
				c-68.848,59.888-128.799,82.617-178.203,67.568c-43.56-13.271-74.927-54.404-93.228-122.251
				c-47.573-176.401-107.793-272.974-178.989-287.039c-66.787-13.181-150.576,45.325-249.053,173.94v-0.002
				c-58.052,75.84-111.05,111.929-162.276,110.313c-34.038-1.072-65.239-18.167-94.702-52.053
				C1218.76,1728.353,1165.264,1960.359,1155.914,2199.8z"/>
		</g>
		<g style="opacity:0.6;">
			<path style="fill-rule:evenodd;clip-rule:evenodd;fill:#FFFFFF;" d="M2012.859,2191.229l24.457-265.695l-236.342,195.61
				l91.278,278.729L2012.859,2191.229z M1313.225,2505.552c43.864,36.784,96.77,70.701,159.996,99.57
				c56.788,25.911,111.898,49.288,165.287,70.215c5.844-6.197,11.646-12.481,17.312-18.922
				c-238.722-83.801-271.34-303.294-97.804-658.526c99.613-28.844,165.818-77.363,220.044-123.871
				c261.375-224.215,429.55-157.107,513.461,171.154c36.213,141.711,122.703,205.842,231.404,200.527
				c-119.858-66.688-204.431-201.697-253.699-405.048c-101.399-146.586-226.616-185.444-375.65-116.572
				c-228.161,192.634-374.13,251.206-437.907,175.763l-129.453-370.183c-59.08,205.689-120.872,394.949-139.728,549.85
				c-17.244,182.201,56.347,324.641,165.4,420.815C1338.675,2502.309,1325.796,2504.03,1313.225,2505.552z"/>
		</g>
		<g>
			<path style="fill:#000072;" d="M2246.265,2833.799c-213.486,0.01-478.188-70.259-782.046-208.955
				c-196.362-89.644-327.773-247.031-351.523-421.025c-0.171-1.24-0.229-2.5-0.181-3.755
				c9.824-257.947,69.722-507.51,178.032-741.758c3.291-7.112,10.161-11.897,17.974-12.512c7.852-0.576,15.352,3.032,19.712,9.543
				c27.393,40.876,55.264,62.041,82.837,62.91c35.713,1.106,78.218-30.276,126.489-93.33c0-0.002,0-0.002,0-0.002
				c110.889-144.822,206.392-206.997,291.875-190.117c89.995,17.778,159.487,121.887,212.451,318.281
				c14.15,52.463,35.684,83.44,64.004,92.068c33.457,10.198,80.449-9.802,135.967-57.813
				c130.576-150.559,239.131-214.717,322.671-190.654c70.308,20.254,116.714,100.525,137.92,238.586
				c22.046,143.391,50.156,222.808,83.56,236.038c14.165,5.62,33.579-1.123,57.705-20.002c2.896-2.263,6.313-3.755,9.941-4.333
				c21.963-3.511,74.629-3.101,88.359,76.396c0.488,2.832,0.41,5.735-0.234,8.538c-52.969,230.969-103.955,411.99-160.444,569.69
				c-48.174,134.385-136.919,229.653-263.774,283.169C2439.908,2817.52,2349.005,2833.794,2246.265,2833.799z M1155.914,2199.8
				c8.862,61.89,58.213,263.218,326.309,385.601c438.755,200.273,790.942,255.391,1018.481,159.414
				c115.225-48.608,195.908-135.356,239.814-257.847c55.542-155.044,105.781-333.218,157.998-560.373
				c-7.168-35.642-21.826-38.55-32.847-37.517c-35.659,26.511-66.987,33.879-95.63,22.536
				c-52.168-20.667-84.165-98.821-110.444-269.763c-18.154-118.191-55.181-188.562-107.07-203.508
				c-65.122-18.777-161.582,42.964-278.906,178.54c-0.669,0.774-1.392,1.499-2.163,2.17
				c-68.848,59.888-128.799,82.617-178.203,67.568c-43.56-13.271-74.927-54.404-93.228-122.251
				c-47.573-176.401-107.793-272.974-178.989-287.039c-66.787-13.181-150.576,45.325-249.053,173.94v-0.002
				c-58.052,75.84-111.05,111.929-162.276,110.313c-34.038-1.072-65.239-18.167-94.702-52.053
				C1218.76,1728.353,1165.264,1960.359,1155.914,2199.8z"/>
		</g>
		<g style="opacity:0.2;">
			<path style="fill-rule:evenodd;clip-rule:evenodd;fill:#000072;" d="M2128.594,2235.226l-63.558-306.429l-148.328,236.344
				v247.764L2128.594,2235.226z M1351.886,2500.324c-9.218-4.939-18.481-9.968-27.81-15.105
				C1333.404,2490.356,1342.667,2495.385,1351.886,2500.324z M1399.85,1563.07l3.859-23.639l-0.398-0.068
				c-2.337-0.287-4.697-0.684-7.057-1.167c-76.238-10.63-80.759,50.986-13.586,184.913
				c24.084,183.725,109.913,245.671,257.558,185.821c70.814-29.42,164.253-99.505,280.339-210.278
				c81.838-35.262,168.243-27.677,259.189,22.804c42.012,23.267,119.881,159.996,233.564,410.165
				c-1.19,7.96-2.448,15.812-3.726,23.619l0.197-1.014c55.686,47.721,112.273,66.29,169.742,55.749
				c65.498-20.069,138.45-87.816,218.857-203.264c14.202-10.121,26.22-19.427,36.078-27.918
				c-91.763,128.9-173.292,205.226-244.589,228.978c84.153-20.509,170.183-103.23,258.107-248.209
				c-95.421,291.344-310.704,414.135-455.131,280.384l0.156-0.817c-102.393,439.299-396.227,552.429-881.483,339.354
				c8.446,3.704,16.849,7.321,25.184,10.828c31.338,27.873,71.055,50.237,119.108,67.106l-15.128,16.519
				c80.296,35.373,163.855,63.93,250.7,85.655c-1.985-7.366-3.925-14.755-5.691-22.207
				c476.148,106.801,752.098-19.01,859.012-368.374c90.284-294.982,150.844-437.533,150.909-437.711
				c-10.365-14.554-20.464-16.207-30.256-4.984c-5.713-7.85-20.731-12.217-45.034-13.12
				c-85.366,27.28-139.683-21.634-162.993-146.72c-37.006-324.158-160.879-379.026-371.64-164.625
				c-37.688,29.066-72.774,47.127-105.235,54.272c-69.093,32.329-121.182,9.945-150.69-68.761
				c-18.524-26.135-13.364,7.52-28.515-32.771c-126.54-318.754-273.612-263.974-450.698-37.491
				C1529.279,1544.148,1435.224,1567.04,1399.85,1563.07z"/>
		</g>
		<g>
			<path style="fill-rule:evenodd;clip-rule:evenodd;fill:#EB1A21;" d="M1245.037,1626.738
				c-79.214,79.788-131.899,135.361-158.054,166.743c8.534,113.77,27.787,202.71,57.714,266.842
				C1161.259,1912.346,1194.934,1766.862,1245.037,1626.738z"/>
		</g>
		<g>
			<path style="fill:#000072;" d="M1144.693,2076.583c-6.235,0-12.026-3.594-14.732-9.385
				c-30.635-65.657-50.552-157.339-59.194-272.5c-0.313-4.211,1.021-8.381,3.726-11.626c26.313-31.57,79.81-88.022,159.004-167.788
				c5.366-5.403,13.774-6.36,20.21-2.297c6.445,4.063,9.204,12.053,6.636,19.226c-49.614,138.767-83.086,283.413-99.487,429.917
				c-0.811,7.241-6.338,13.057-13.525,14.238C1146.446,2076.514,1145.562,2076.583,1144.693,2076.583z M1103.707,1798.875
				c6.069,76.365,17.202,141.514,33.228,194.636c15.132-103.369,38.623-205.52,70.161-305.093
				C1158.927,1737.752,1124.283,1774.766,1103.707,1798.875z"/>
		</g>
		<g>
			<path style="fill-rule:evenodd;clip-rule:evenodd;fill:#EB1A21;" d="M2930.488,2275.958l-42.1-213.473
				c-31.888,128.634-66.049,250.391-104.244,364.646L2930.488,2275.958z"/>
		</g>
		<g>
			<path style="fill:#000072;" d="M2784.136,2443.389c-2.9,0-5.82-0.776-8.438-2.363c-6.489-3.94-9.385-11.851-6.978-19.053
				c35.913-107.417,69.893-226.284,103.887-363.398c1.802-7.266,8.325-12.349,15.776-12.349c0.132,0,0.264,0,0.396,0.005
				c7.617,0.186,14.087,5.635,15.562,13.11l42.1,213.472c1.03,5.225-0.566,10.625-4.272,14.453l-146.348,151.172
				C2792.672,2441.695,2788.424,2443.389,2784.136,2443.389z M2886.397,2136.426c-21.436,82.49-43.013,158.281-65.21,229.058
				l91.704-94.727L2886.397,2136.426z"/>
		</g>
		<g>
			<path style="fill:#000072;" d="M2847.985,1970.401c15.02,6.617-171.506,287.97-325.061,286.138
				c-91.145-5.183-157.458-96.327-214.2-259.893c-59.897-172.764-126.409-267.196-214.336-285.698
				c-89.534-18.834-206.394,38.042-365.748,168.177c-151.769,123.916-240.82,110.353-299.085,39.011
				c-37.756-46.246-116.331-339.175-97.409-369.036c13.54-1.213,94.586,286.667,136.135,337.545
				c39.914,48.891,106.604,53.588,228.865-46.246c171.684-140.169,301.51-200.617,407.408-178.344
				c107.487,22.627,185.202,127.732,251.316,318.359c49.598,143.014,102.702,222.427,169.788,226.264
				C2673.702,2215.103,2832.835,1954.656,2847.985,1970.401z"/>
		</g>
		<g>
			<polygon style="fill-rule:evenodd;clip-rule:evenodd;fill:#EB1A21;" points="2078.07,2210.79 2048.74,1946.728 
				1866.162,2140.705 1911.812,2383.576 			"/>
		</g>
		<g style="opacity:0.3;">
			<path style="fill-rule:evenodd;clip-rule:evenodd;fill:#000072;" d="M1943.417,2290.397
				c-21.582-54.327-43.164-108.655-64.746-162.982l-12.509,13.29l45.65,242.871l166.258-172.787l-1.922-17.307
				C2031.904,2225.787,1987.661,2258.092,1943.417,2290.397z"/>
		</g>
		<g style="opacity:0.45;">
			<polygon style="fill-rule:evenodd;clip-rule:evenodd;fill:#FFFFFF;" points="1930.91,2155.481 1985.514,2173.542 
				2042.41,1977.844 2049.467,1953.541 2044.109,1959.231 1876.371,2137.465 			"/>
		</g>
		<g style="opacity:0.3;">
			<polygon style="fill-rule:evenodd;clip-rule:evenodd;fill:#FFFFFF;" points="1985.514,2173.542 1939.135,2333.141 
				1926.897,2375.241 2088.26,2207.526 2023.247,2186.026 			"/>
		</g>
		<g>
			<path style="fill:#000072;" d="M1911.812,2399.834c-1.553,0-3.12-0.225-4.653-0.679c-5.83-1.743-10.2-6.597-11.328-12.578
				l-45.649-242.871c-0.957-5.107,0.581-10.361,4.141-14.146l182.578-193.979c4.346-4.614,10.991-6.282,16.992-4.277
				c6.011,2.007,10.308,7.327,11.011,13.628l29.331,264.062c0.532,4.8-1.099,9.59-4.448,13.071l-166.26,172.783
				C1920.416,2398.082,1916.168,2399.834,1911.812,2399.834z M1883.668,2145.826l38.296,203.75l139.106-144.565l-24.605-221.519
				L1883.668,2145.826z"/>
		</g>
		<g>
			<path style="fill:#000072;" d="M2309.604,1998.983c-5.777-12.526-0.286-27.368,12.24-33.146
				c12.527-5.779,27.368-0.309,33.146,12.217c7.035,15.151,14.378,28.648,22.009,40.445l0.815,1.369
				c21.415,32.704,45.364,53.082,71.87,61.13c26.552,8.071,57.163,4.058,91.809-12.018c11.578-5.381,23.463-11.998,35.615-19.87
				c91.124-59.168-99.965,213.629-241.039-2.096l-0.926-1.323C2326.056,2031.664,2317.544,2016.073,2309.604,1998.983z"/>
		</g>
		<g>
			<path style="fill:#000072;" d="M1768.997,1784.604c10.894-8.423,26.596-6.395,34.998,4.498
				c8.423,10.894,6.418,26.598-4.478,34.998c-21.546,16.65-42.078,29.816-61.528,39.499
				c-37.733,18.788-72.598,25.227-104.574,19.382c-99.791-30.432-107.09-201.762-66.778-120.761
				c6.727,13.495,13.784,25.053,21.171,34.623c16.21,20.995,34.424,33.365,54.604,37.048c20.95,3.837,45.386-1.19,73.282-15.062
				C1732.543,1810.43,1750.339,1799.028,1768.997,1784.604z"/>
		</g>
		
			<linearGradient id="SVGID_00000165926599609400514800000008675167298941242497_" gradientUnits="userSpaceOnUse" x1="2129.959" y1="1463.7563" x2="2138.4956" y2="1769.08">
			<stop  offset="0" style="stop-color:#FFCC00"/>
			<stop  offset="1" style="stop-color:#FF9966"/>
		</linearGradient>
		<path style="fill-rule:evenodd;clip-rule:evenodd;fill:url(#SVGID_00000165926599609400514800000008675167298941242497_);" d="
			M2133.379,1465.839c66.622,0,120.63,54.008,120.63,120.63c0,66.622-54.008,120.63-120.63,120.63
			c-66.6,0-120.608-54.008-120.608-120.63C2012.771,1519.847,2066.779,1465.839,2133.379,1465.839z"/>
		<g>
			<path style="fill:#000072;" d="M2133.38,1728.777c-78.457,0-142.29-63.838-142.29-142.307c0-78.469,63.833-142.31,142.29-142.31
				c78.467,0,142.31,63.84,142.31,142.31C2275.689,1664.939,2211.846,1728.777,2133.38,1728.777z M2133.38,1487.515
				c-54.551,0-98.931,44.392-98.931,98.955c0,54.563,44.38,98.953,98.931,98.953c54.561,0,98.95-44.39,98.95-98.953
				C2232.33,1531.907,2187.94,1487.515,2133.38,1487.515z"/>
		</g>
		<g style="opacity:0.3;">
			<path style="fill-rule:evenodd;clip-rule:evenodd;fill:#000072;" d="M2036.699,1602.986
				c-0.948,41.459,23.397,79.325,61.505,95.688c38.108,16.34,82.324,7.895,111.721-21.37c29.373-29.242,38.04-73.435,21.853-111.611
				c-6.615,44.196-40.422,79.413-84.309,87.793C2103.563,1661.89,2059.171,1641.645,2036.699,1602.986"/>
		</g>
		<g style="opacity:0.65;">
			<path style="fill-rule:evenodd;clip-rule:evenodd;fill:#FFFFFF;" d="M2118.14,1497.109c33.831-6.483,64.504,5.293,68.542,26.288
				c4.013,20.995-20.135,43.268-53.965,49.751c-33.828,6.483-64.504-5.271-68.519-26.266
				C2060.162,1525.868,2084.312,1503.592,2118.14,1497.109"/>
		</g>
		
			<linearGradient id="SVGID_00000007415800854126961950000005604806114797069969_" gradientUnits="userSpaceOnUse" x1="1281.1184" y1="1282.6179" x2="1347.5989" y2="1546.2208">
			<stop  offset="0" style="stop-color:#FFCC00"/>
			<stop  offset="1" style="stop-color:#FF9966"/>
		</linearGradient>
		<path style="fill-rule:evenodd;clip-rule:evenodd;fill:url(#SVGID_00000007415800854126961950000005604806114797069969_);" d="
			M1307.8,1289.81c54.471,0,98.621,44.151,98.621,98.601c0,54.471-44.151,98.619-98.621,98.619
			c-54.471,0-98.622-44.148-98.622-98.619C1209.179,1333.961,1253.329,1289.81,1307.8,1289.81z"/>
		<g>
			<path style="fill:#000072;" d="M1307.798,1508.707c-66.333,0-120.298-53.965-120.298-120.295
				c0-66.323,53.965-120.278,120.298-120.278c66.333,0,120.303,53.955,120.303,120.278
				C1428.101,1454.742,1374.132,1508.707,1307.798,1508.707z M1307.798,1311.487c-42.427,0-76.938,34.509-76.938,76.924
				c0,42.424,34.512,76.941,76.938,76.941c42.427,0,76.943-34.517,76.943-76.941
				C1384.742,1345.997,1350.225,1311.487,1307.798,1311.487z"/>
		</g>
		<g style="opacity:0.3;">
			<path style="fill-rule:evenodd;clip-rule:evenodd;fill:#000072;" d="M1232.599,1395.511
				c-0.727,31.028,17.51,59.389,46.025,71.629c28.515,12.217,61.616,5.887,83.604-15.988c22.009-21.9,28.47-54.979,16.386-83.559
				c-4.964,33.101-30.258,59.432-63.118,65.717C1282.639,1439.596,1249.405,1424.446,1232.599,1395.511"/>
		</g>
		<g style="opacity:0.65;">
			<path style="fill-rule:evenodd;clip-rule:evenodd;fill:#FFFFFF;" d="M1293.555,1316.274c25.315-4.851,48.274,3.948,51.273,19.672
				c3.021,15.702-15.062,32.397-40.379,37.247c-25.317,4.853-48.275-3.97-51.273-19.671
				C1250.155,1337.797,1268.216,1321.127,1293.555,1316.274"/>
		</g>
		
			<linearGradient id="SVGID_00000087388204496038922820000006207477187118733199_" gradientUnits="userSpaceOnUse" x1="2593.1116" y1="1247.1235" x2="2596.3772" y2="1444.3176">
			<stop  offset="0" style="stop-color:#FFCC00"/>
			<stop  offset="1" style="stop-color:#FF9966"/>
		</linearGradient>
		<path style="fill-rule:evenodd;clip-rule:evenodd;fill:url(#SVGID_00000087388204496038922820000006207477187118733199_);" d="
			M2594.575,1236.839c-54.471,0-98.622,44.151-98.622,98.622c0,54.451,44.151,98.599,98.622,98.599
			c54.471,0,98.62-44.148,98.62-98.599C2693.195,1280.989,2649.047,1236.839,2594.575,1236.839z"/>
		<g>
			<path style="fill:#000072;" d="M2594.576,1455.735c-66.333,0-120.303-53.955-120.303-120.276
				c0-66.333,53.97-120.298,120.303-120.298s120.298,53.965,120.298,120.298C2714.874,1401.78,2660.909,1455.735,2594.576,1455.735z
				 M2594.576,1258.516c-42.427,0-76.943,34.517-76.943,76.943c0,42.415,34.517,76.921,76.943,76.921s76.938-34.507,76.938-76.921
				C2671.514,1293.033,2637.003,1258.516,2594.576,1258.516z"/>
		</g>
		<g style="opacity:0.3;">
			<path style="fill-rule:evenodd;clip-rule:evenodd;fill:#000072;" d="M2669.775,1342.562c0.729,31.028-17.51,59.367-46.023,71.606
				c-28.515,12.24-61.618,5.91-83.604-15.988c-22.009-21.9-28.469-54.956-16.363-83.539c4.939,33.081,30.236,59.435,63.093,65.719
				C2619.737,1386.645,2652.971,1371.474,2669.775,1342.562"/>
		</g>
		<g style="opacity:0.65;">
			<path style="fill-rule:evenodd;clip-rule:evenodd;fill:#FFFFFF;" d="M2608.82,1263.303c-25.317-4.851-48.274,3.947-51.296,19.672
				c-2.999,15.724,15.085,32.397,40.402,37.247c25.317,4.853,48.275-3.948,51.296-19.672
				C2652.221,1284.849,2634.137,1268.156,2608.82,1263.303"/>
		</g>
		
			<linearGradient id="SVGID_00000095315587573845765070000011886697494387082932_" gradientUnits="userSpaceOnUse" x1="2910.3213" y1="1744.5475" x2="2905.5857" y2="1941.7122">
			<stop  offset="0" style="stop-color:#FFCC00"/>
			<stop  offset="1" style="stop-color:#FF9966"/>
		</linearGradient>
		<path style="fill-rule:evenodd;clip-rule:evenodd;fill:url(#SVGID_00000095315587573845765070000011886697494387082932_);" d="
			M2908.036,1740.598c54.471,0,98.622,44.148,98.622,98.619c0,54.45-44.151,98.601-98.622,98.601
			c-54.448,0-98.599-44.151-98.599-98.601C2809.437,1784.747,2853.588,1740.598,2908.036,1740.598z"/>
		<g>
			<path style="fill:#000072;" d="M2908.038,1959.495c-66.318,0-120.278-53.955-120.278-120.278
				c0-66.33,53.96-120.295,120.278-120.295c66.333,0,120.298,53.965,120.298,120.295
				C3028.336,1905.54,2974.371,1959.495,2908.038,1959.495z M2908.038,1762.276c-42.412,0-76.919,34.517-76.919,76.941
				c0,42.415,34.507,76.924,76.919,76.924c42.427,0,76.938-34.509,76.938-76.924
				C2984.976,1796.792,2950.465,1762.276,2908.038,1762.276z"/>
		</g>
		<g style="opacity:0.3;">
			<path style="fill-rule:evenodd;clip-rule:evenodd;fill:#000072;" d="M2832.835,1846.297
				c-0.705,31.028,17.511,59.367,46.025,71.606c28.537,12.24,61.638,5.932,83.627-15.966c21.986-21.898,28.469-54.979,16.363-83.536
				c-4.941,33.079-30.258,59.41-63.117,65.717C2882.875,1890.382,2849.641,1875.232,2832.835,1846.297"/>
		</g>
		<g style="opacity:0.65;">
			<path style="fill-rule:evenodd;clip-rule:evenodd;fill:#FFFFFF;" d="M2893.791,1767.06c25.318-4.851,48.274,3.947,51.293,19.672
				c3.021,15.724-15.06,32.374-40.377,37.227c-25.317,4.873-48.297-3.947-51.296-19.651
				C2850.391,1788.586,2868.474,1771.913,2893.791,1767.06"/>
		</g>
		
			<linearGradient id="SVGID_00000088124370905930955250000018282797961633913249_" gradientUnits="userSpaceOnUse" x1="1840.443" y1="1081.5573" x2="1867.4434" y2="1335.6255">
			<stop  offset="0" style="stop-color:#FFCC00"/>
			<stop  offset="1" style="stop-color:#FF9966"/>
		</linearGradient>
		<path style="fill-rule:evenodd;clip-rule:evenodd;fill:url(#SVGID_00000088124370905930955250000018282797961633913249_);" d="
			M1850.77,1080.196c54.471,0,98.619,44.151,98.619,98.622c0,54.448-44.148,98.599-98.619,98.599
			c-54.471,0-98.601-44.151-98.601-98.599C1752.169,1124.347,1796.299,1080.196,1850.77,1080.196z"/>
		<g>
			<path style="fill:#000072;" d="M1850.772,1299.095c-66.323,0-120.283-53.955-120.283-120.276c0-66.333,53.96-120.3,120.283-120.3
				c66.333,0,120.298,53.967,120.298,120.3C1971.07,1245.14,1917.105,1299.095,1850.772,1299.095z M1850.772,1101.873
				c-42.417,0-76.924,34.519-76.924,76.946c0,42.415,34.507,76.922,76.924,76.922c42.427,0,76.938-34.507,76.938-76.922
				C1927.711,1136.392,1893.199,1101.873,1850.772,1101.873z"/>
		</g>
		<g style="opacity:0.3;">
			<path style="fill-rule:evenodd;clip-rule:evenodd;fill:#000072;" d="M1775.568,1185.92c-0.727,31.005,17.51,59.367,46.025,71.606
				c28.515,12.217,61.616,5.91,83.602-15.99c22.009-21.898,28.492-54.977,16.363-83.536c-4.939,33.081-30.233,59.412-63.093,65.719
				C1825.606,1229.98,1792.372,1214.83,1775.568,1185.92"/>
		</g>
		<g style="opacity:0.65;">
			<path style="fill-rule:evenodd;clip-rule:evenodd;fill:#FFFFFF;" d="M1836.523,1106.66c25.317-4.853,48.274,3.947,51.296,19.672
				c2.999,15.724-15.085,32.374-40.402,37.225c-25.317,4.873-48.274-3.948-51.273-19.649
				C1793.122,1128.184,1811.206,1111.511,1836.523,1106.66"/>
		</g>
		<g style="opacity:0.2;">
			<path style="fill-rule:evenodd;clip-rule:evenodd;fill:#000072;" d="M1976.459,3200c468.64,0,848.541,55.968,848.541,125
				s-379.901,125-848.541,125c-468.622,0-848.541-55.968-848.541-125S1507.837,3200,1976.459,3200"/>
		</g>
		<g>
			<path style="fill:#FCFCFC;" d="M1308.224,983.719c6.565,2.026,6.111,11.641-0.616,13.037c-9.585,1.99-19.134,3.238-28.668,4.173
				c-9.292,0.845-18.529,1.292-27.772,1.367c-3.463,0.028-6.303,2.618-6.656,6.064c-0.939,9.17-2.295,18.343-3.976,27.465
				c-1.852,9.453-4.021,18.892-6.942,28.294c-2.036,6.553-11.631,6.1-13.038-0.616c-2.021-9.641-3.278-19.247-4.219-28.836
				c-0.801-9.226-1.274-18.473-1.334-27.677c-0.023-3.481-2.624-6.344-6.087-6.699c-9.156-0.939-18.316-2.293-27.423-3.972
				c-9.456-1.853-18.897-4.022-28.301-6.955c-6.551-2.043-6.085-11.637,0.633-13.037c9.638-2.009,19.24-3.266,28.828-4.207
				c9.258-0.848,18.533-1.293,27.767-1.368c3.445-0.028,6.266-2.591,6.623-6.017c0.957-9.184,2.287-18.374,4.015-27.509
				c1.842-9.401,3.997-18.788,6.893-28.139c2.033-6.563,11.647-6.096,13.036,0.633c1.978,9.582,3.226,19.128,4.161,28.66
				c0.849,9.265,1.294,18.546,1.369,27.786c0.028,3.437,2.584,6.258,6.001,6.624c9.213,0.988,18.386,2.318,27.576,4.05
				C1289.492,978.681,1298.875,980.835,1308.224,983.719z"/>
		</g>
		<g>
			<path style="fill:#FCFCFC;" d="M1071.161,1251.143c6.565,2.026,6.111,11.641-0.616,13.037c-9.585,1.99-19.134,3.238-28.668,4.173
				c-9.292,0.845-18.529,1.292-27.772,1.367c-3.463,0.028-6.304,2.618-6.656,6.064c-0.939,9.17-2.295,18.343-3.976,27.465
				c-1.852,9.453-4.021,18.891-6.941,28.294c-2.036,6.553-11.631,6.1-13.038-0.616c-2.021-9.642-3.278-19.247-4.219-28.837
				c-0.801-9.226-1.274-18.473-1.334-27.677c-0.022-3.481-2.624-6.344-6.087-6.699c-9.156-0.938-18.316-2.293-27.423-3.972
				c-9.456-1.853-18.897-4.022-28.302-6.955c-6.55-2.043-6.085-11.637,0.633-13.038c9.638-2.009,19.24-3.266,28.828-4.206
				c9.258-0.848,18.533-1.293,27.767-1.368c3.445-0.028,6.266-2.591,6.623-6.018c0.957-9.184,2.287-18.374,4.015-27.509
				c1.842-9.401,3.997-18.788,6.893-28.139c2.033-6.563,11.647-6.096,13.036,0.633c1.978,9.582,3.226,19.128,4.161,28.66
				c0.848,9.264,1.294,18.546,1.369,27.786c0.028,3.437,2.584,6.258,6.001,6.624c9.213,0.988,18.386,2.318,27.576,4.05
				C1052.429,1246.104,1061.812,1248.258,1071.161,1251.143z"/>
		</g>
		<g>
			<path style="fill:#FCFCFC;" d="M3131.421,1117.455c6.565,2.026,6.112,11.641-0.616,13.037c-9.585,1.99-19.134,3.238-28.668,4.173
				c-9.292,0.845-18.529,1.292-27.772,1.367c-3.463,0.028-6.304,2.618-6.656,6.064c-0.939,9.17-2.295,18.343-3.976,27.465
				c-1.852,9.453-4.021,18.891-6.942,28.294c-2.036,6.553-11.631,6.1-13.038-0.616c-2.021-9.642-3.278-19.247-4.219-28.837
				c-0.801-9.226-1.274-18.473-1.333-27.677c-0.022-3.481-2.624-6.344-6.087-6.699c-9.156-0.938-18.315-2.293-27.423-3.972
				c-9.456-1.853-18.897-4.022-28.302-6.955c-6.551-2.043-6.085-11.637,0.633-13.038c9.638-2.009,19.24-3.266,28.828-4.206
				c9.258-0.848,18.533-1.293,27.767-1.368c3.445-0.028,6.266-2.591,6.623-6.018c0.957-9.184,2.287-18.374,4.015-27.509
				c1.842-9.401,3.997-18.788,6.893-28.139c2.033-6.563,11.647-6.096,13.036,0.633c1.978,9.582,3.226,19.128,4.161,28.66
				c0.848,9.264,1.294,18.546,1.369,27.786c0.028,3.437,2.584,6.258,6.001,6.624c9.213,0.988,18.386,2.318,27.576,4.05
				C3112.689,1112.417,3122.073,1114.571,3131.421,1117.455z"/>
		</g>
		<g>
			<path style="fill:#FCFCFC;" d="M2590.425,785.674c6.566,2.026,6.112,11.641-0.616,13.037c-9.585,1.99-19.134,3.238-28.668,4.173
				c-9.292,0.845-18.529,1.292-27.772,1.367c-3.463,0.028-6.303,2.618-6.656,6.064c-0.939,9.17-2.295,18.343-3.976,27.465
				c-1.852,9.453-4.021,18.891-6.942,28.294c-2.036,6.553-11.631,6.1-13.038-0.616c-2.021-9.642-3.278-19.247-4.219-28.837
				c-0.801-9.226-1.274-18.473-1.333-27.677c-0.022-3.481-2.624-6.344-6.087-6.699c-9.156-0.938-18.316-2.293-27.423-3.972
				c-9.456-1.853-18.897-4.022-28.302-6.955c-6.551-2.043-6.085-11.637,0.633-13.038c9.638-2.009,19.24-3.266,28.828-4.206
				c9.258-0.848,18.533-1.293,27.767-1.368c3.445-0.028,6.265-2.591,6.623-6.018c0.957-9.184,2.287-18.374,4.015-27.509
				c1.842-9.401,3.997-18.788,6.893-28.139c2.033-6.563,11.647-6.096,13.036,0.633c1.978,9.582,3.226,19.128,4.161,28.66
				c0.848,9.264,1.294,18.546,1.368,27.786c0.028,3.437,2.584,6.258,6.001,6.624c9.213,0.988,18.386,2.318,27.577,4.05
				C2571.693,780.636,2581.077,782.79,2590.425,785.674z"/>
		</g>
		<g>
			<path style="fill:#FCFCFC;" d="M3456.607,1983.914c6.565,2.026,6.112,11.641-0.616,13.037c-9.585,1.99-19.134,3.238-28.668,4.173
				c-9.292,0.845-18.529,1.292-27.772,1.367c-3.463,0.028-6.303,2.618-6.656,6.064c-0.939,9.17-2.295,18.343-3.976,27.465
				c-1.852,9.453-4.021,18.892-6.941,28.294c-2.036,6.553-11.631,6.1-13.039-0.616c-2.021-9.642-3.278-19.247-4.219-28.837
				c-0.801-9.226-1.274-18.473-1.334-27.677c-0.022-3.481-2.624-6.344-6.086-6.699c-9.156-0.938-18.316-2.293-27.423-3.972
				c-9.456-1.853-18.897-4.022-28.302-6.955c-6.551-2.043-6.085-11.637,0.633-13.038c9.638-2.009,19.24-3.266,28.828-4.207
				c9.258-0.848,18.533-1.293,27.767-1.368c3.445-0.028,6.266-2.591,6.623-6.017c0.957-9.184,2.287-18.374,4.015-27.509
				c1.842-9.401,3.997-18.788,6.893-28.139c2.033-6.563,11.647-6.096,13.036,0.633c1.978,9.582,3.226,19.128,4.161,28.66
				c0.849,9.265,1.294,18.546,1.368,27.786c0.028,3.437,2.584,6.258,6.001,6.624c9.213,0.988,18.386,2.318,27.576,4.05
				C3437.875,1978.875,3447.258,1981.029,3456.607,1983.914z"/>
		</g>
		<g>
			<path style="fill:#FCFCFC;" d="M3143.776,2565.546c6.565,2.026,6.112,11.641-0.616,13.037c-9.585,1.99-19.134,3.238-28.668,4.173
				c-9.292,0.845-18.529,1.292-27.772,1.367c-3.463,0.028-6.304,2.618-6.656,6.064c-0.939,9.17-2.295,18.344-3.976,27.465
				c-1.852,9.453-4.021,18.892-6.942,28.294c-2.036,6.553-11.631,6.1-13.038-0.616c-2.021-9.642-3.278-19.247-4.219-28.836
				c-0.801-9.226-1.274-18.473-1.333-27.677c-0.022-3.481-2.624-6.344-6.087-6.699c-9.156-0.939-18.316-2.293-27.423-3.972
				c-9.456-1.853-18.897-4.022-28.302-6.955c-6.551-2.043-6.085-11.637,0.633-13.038c9.638-2.009,19.24-3.266,28.827-4.206
				c9.258-0.848,18.533-1.293,27.767-1.368c3.445-0.028,6.265-2.591,6.623-6.018c0.957-9.184,2.287-18.374,4.015-27.509
				c1.842-9.401,3.997-18.788,6.893-28.139c2.033-6.563,11.647-6.096,13.036,0.633c1.978,9.581,3.226,19.128,4.161,28.66
				c0.848,9.264,1.294,18.546,1.368,27.786c0.028,3.437,2.584,6.258,6.001,6.624c9.213,0.989,18.386,2.318,27.577,4.051
				C3125.044,2560.508,3134.427,2562.662,3143.776,2565.546z"/>
		</g>
		<g>
			<circle style="fill-rule:evenodd;clip-rule:evenodd;fill:#FCFCFC;" cx="3125.677" cy="1505.386" r="27.099"/>
		</g>
		<g>
			<circle style="fill-rule:evenodd;clip-rule:evenodd;fill:#FCFCFC;" cx="963.544" cy="1009.679" r="19.872"/>
		</g>
		<g>
			
				<ellipse transform="matrix(0.7071 -0.7071 0.7071 0.7071 -797.929 2999.4807)" style="fill-rule:evenodd;clip-rule:evenodd;fill:#FCFCFC;" cx="3221.729" cy="2462.926" rx="21.679" ry="21.679"/>
		</g>
		<g>
			<circle style="fill-rule:evenodd;clip-rule:evenodd;fill:#FCFCFC;" cx="2376.247" cy="909.261" r="18.066"/>
		</g>
	</g>
</g>
</svg>
