<?xml version="1.0" encoding="utf-8"?>
<!-- Generator: Adobe Illustrator 27.5.0, SVG Export Plug-In . SVG Version: 6.00 Build 0)  -->
<svg version="1.1" id="Layer_1" xmlns="http://www.w3.org/2000/svg" xmlns:xlink="http://www.w3.org/1999/xlink" x="0px" y="0px"
	 viewBox="0 0 4000 4000" style="enable-background:new 0 0 4000 4000;" xml:space="preserve">
<g>
	<g>
		<!-- <rect style="fill-rule:evenodd;clip-rule:evenodd;fill:#0BCAFE;" width="4000" height="4000"/> -->
	</g>
	<g>
		<g>
			<path style="fill-rule:evenodd;clip-rule:evenodd;fill:#FFFFFF;" d="M1421.76,2409.4
				c-18.941-201.975,32.384-365.541,151.684-490.462c-48.363,332.55-59.304,629.883,40.04,865.469
				c74.022,175.495,156.422,140.992,177.865-68.545c15.54-401.105,197.357-804.363,434.24-789.981
				c125.467,7.595,98.525,284.009-133.194,692.186c-108.547,191.2-20.953,231.182,187.891,52.364
				c265.59-227.383,375.341-439.98,394.212-589.806c18.705-148.387,83.76-292.212,183.258-426.562
				c69.438-93.748,102.168-209.571,78.95-323.916c-23.216-114.323-96.189-212.37-199.059-267.436
				c-5.584-109.668-72.603-206.811-173.137-250.945c-100.524-44.137-204.131-7.574-301.929,42.301
				c-98.464,50.209-173.52-19.87-248.695-107.022c-96.998-112.441-268.531-125.54-406.474-70.557
				c-137.944,54.971-235.371,182.736-246.468,330.824c-7.764,103.511-16.622,214.894-1.536,331.063
				c13.406,103.226-6.038,219.417-89.32,354.181c-127.432,286.95-112.823,564.993,61.591,822.344
				C1402.794,2619.863,1437.822,2580.61,1421.76,2409.4z"/>
		</g>
		<g>
			<path style="fill:#000171;" d="M1708.256,2923.48c-42.939,0-82.939-43.267-119.033-128.838
				c-99.204-235.249-87.91-522.31-54.707-785.183c-72.061,108.406-101.152,241.687-86.538,397.478l0,0
				c11.191,119.316-0.21,176.025-38.13,189.629c-39.424,14.16-75.923-31.411-99.966-66.899
				c-176.528-260.469-198.013-545.708-63.857-847.798c0.483-1.089,1.04-2.144,1.665-3.157
				c71.934-116.399,99.937-226.616,85.605-336.948c-15.127-116.467-6.602-229.946,0.918-330.068l0.479-6.355
				c11.655-155.61,114.878-294.294,262.974-353.313c136.694-54.487,324.565-51.548,436.157,77.817
				c82.099,95.178,140.962,139.431,216.797,100.764c96.616-49.275,210.732-92.896,324.478-42.952
				c105.825,46.455,176.709,144.814,187.759,258.97c103.35,60.002,175.767,160.647,199.658,278.281
				c23.838,117.4-5.85,239.861-83.599,344.827c-100.825,136.143-160.811,275.493-178.296,414.18
				c-13.774,109.385-84.473,333.633-403.208,606.514c-86.611,74.16-201.416,153.042-256.504,107.622
				c-36.597-30.176-26.978-95.107,28.594-192.983c186.831-329.116,229.688-556.89,190.439-629.25
				c-8.218-15.151-19.639-22.666-35.942-23.655c-54.048-3.262-107.265,18.386-158.101,64.411
				c-137.056,124.07-236.816,405.505-248.242,700.31c-0.02,0.552-0.059,1.108-0.112,1.66
				c-12.871,125.767-47.305,196.382-99.58,204.204C1714.716,2923.236,1711.474,2923.475,1708.256,2923.48z M1573.456,1892.608
				c3.906,0,7.847,0.869,11.523,2.661c10.303,5.017,16.172,16.121,14.522,27.458c-57.661,396.499-46.226,651.138,38.247,851.45
				c33.682,79.854,61.963,97.988,72.422,96.489c10.952-1.641,42.124-33.008,54.897-156.67
				c12.099-307.744,118.74-603.623,265.488-736.465c61.733-55.889,127.886-82.134,196.631-77.935
				c34.712,2.1,62.046,19.776,79.043,51.108c58.862,108.516-14.302,369.214-190.933,680.356
				c-50.888,89.629-45.059,122.92-40.888,126.357c6.455,5.308,60.288,3.008,188.755-106.992
				c222.983-190.903,363.384-399.79,385.21-573.096c18.628-147.766,81.953-295.447,188.223-438.94
				c68.75-92.815,95.137-200.425,74.306-303.005c-21.729-107.002-89.409-197.927-185.684-249.461
				c-8.139-4.358-13.398-12.659-13.872-21.877c-5.103-100.357-65.425-187.788-157.422-228.174
				c-93.614-41.111-193.765-2.017-279.38,41.648c-127.036,64.775-223.155-46.69-280.596-113.279
				c-94.15-109.146-261.323-109.326-376.787-63.296c-129.531,51.619-219.795,172.644-229.961,308.33l-0.474,6.362
				c-7.69,102.368-15.64,208.223-1.206,319.341c15.889,122.322-14.233,243.323-92.085,369.873
				c-125.488,283.762-105.293,551.321,60.039,795.271c19.697,29.072,32.232,40.068,38.252,44.131
				c4.238-10.317,12.227-42.773,3.818-132.397c-19.541-208.315,33.906-380.273,158.858-511.106
				C1559.491,1895.426,1566.42,1892.608,1573.456,1892.608z"/>
		</g>
		<g>
			<path style="fill-rule:evenodd;clip-rule:evenodd;fill:#FFFFFF;" d="M1988.967,2062.741
				c21.133,113.823-8.083,227.239-75.187,347.444c-74.019,132.611-27.978,158.184,120.122,61.603
				c167.626-109.346,254.303-248.124,265.446-408.059c4.001-85.509-21.823-134.718-73.758-137.848
				C2137.091,1920.499,2056.285,1973.421,1988.967,2062.741z"/>
		</g>
		<g>
			<path style="fill:#000171;" d="M1905.111,2553.573c-14.438,0-25.928-4.233-34.883-12.593
				c-25.234-23.555-17.891-68.745,23.11-142.202c68.711-123.086,91.787-228.506,72.617-331.763
				c-1.201-6.455,0.366-13.115,4.321-18.359c76.25-101.184,165.015-151.731,256.733-146.14
				c30.967,1.868,102.31,21.418,95.723,162.307c-0.01,0.176-0.02,0.356-0.034,0.532
				c-11.919,171.001-104.781,314.341-276.011,426.035C1982.509,2533.246,1936.737,2553.573,1905.111,2553.573z M1902.631,2506.454
				c5.918,0.859,34.336,0.601,118.481-54.272c158.198-103.198,243.945-234.341,254.868-389.814
				c2.31-50.11-4.829-110.291-51.797-113.123c-91.084-5.518-163.76,60.154-210.405,119.626
				c17.583,109.907-8.496,225.42-79.561,352.725C1901.508,2480.194,1901.801,2501.405,1902.631,2506.454z"/>
		</g>
		<g>
			<path style="fill:#000171;" d="M2168.904,1953.753c-12.428,1.963-24.086-6.501-26.061-18.919
				c-1.965-12.419,6.501-24.086,18.919-26.064c58.209-9.405,102.938-5.679,147.719,18.11
				c44.325,23.55,88.188,66.626,117.941,122.265C2477.69,2143.417,2264.274,1900.84,2168.904,1953.753"/>
		</g>
		<g>
			<path style="fill:#000171;" d="M1582.885,1947.835c-4.37,10.775-16.656,15.966-27.432,11.609
				c-10.787-4.357-21.823-15.623-17.466-26.408c11.382-17.849,58.77-122.67,38.851-140.553
				c-20.658-24.086-231.467,94.26-120.014,13.55c43.659-31.672,77.95-49.911,102.833-54.673c18.8-3.609,33.874-0.334,45.195,9.822
				c10.668,9.573,16.215,24.086,16.586,43.53C1622.021,1835.49,1609.176,1883.196,1582.885,1947.835"/>
		</g>
		<g>
			<path style="fill:#000171;" d="M1716.342,1249.076c0,126.386-116.264-363.754,333.679-358.563
				c65.509,4.297,130.397,25.966,188.44,62.018c193.843,120.395,159.123,220.073,440.787,221.455
				c107.703,0.405-206.689,72.449-328.751-73.034c-85.414-83.009-179.698-156.838-303.343-164.934
				c-54.746-3.597-109.883,6.703-160.698,33.135c-52.303,27.205-94.831,67.745-124.215,116.12
				C1732.784,1133.777,1716.364,1190.213,1716.342,1249.076"/>
		</g>
		<g>
			<path style="fill:#000171;" d="M2730.873,1040.946c12.026-3.75,24.813,2.965,28.551,14.991
				c1.928,6.167,1.095,12.548-1.809,17.798c34.503,14.884,49.313,35.993,44.444,63.342c-27.251-31.277-60.564-45.232-99.951-41.85
				l-0.012-0.012c-264.781,58.614-285.948-105.452-239.014-51.196c17.037,19.704,46.458,29.836,88.235,30.372
				C2597.453,1074.986,2657.305,1063.842,2730.873,1040.946"/>
		</g>
		<g>
			<path style="fill:#000171;" d="M2185.68,893.156c-12.56-0.585-22.265-11.263-21.679-23.826
				c0.583-12.56,11.263-22.277,23.823-21.679c224.694,16.323,296.76,183.329,247.79,134.693
				c-28.539-26.754-63.327-47.541-104.37-62.33C2289.323,904.907,2240.795,895.941,2185.68,893.156"/>
		</g>
		<g>
			<path style="fill-rule:evenodd;clip-rule:evenodd;fill:#000171;" d="M2543.77,1318.43
				c-23.611,207.096-93.416,354.922-209.441,443.516C2498.538,1696.865,2568.331,1549.027,2543.77,1318.43"/>
		</g>
		<g style="opacity:0.2;">
			<path style="fill-rule:evenodd;clip-rule:evenodd;fill:#000171;" d="M1425.2,1834.465
				c-169.72,156.839-180.759,402.878-33.123,738.12c28.873,4.118,40.16-51.411,29.682-163.186
				c-17.31-184.58,24.062-337.064,122.348-457.302c-5.525-5.323-8.859-12.287-6.12-19.061
				c11.382-17.849,58.77-122.67,38.851-140.553C1561.145,1774.196,1435.749,1838.072,1425.2,1834.465"/>
		</g>
		<g style="opacity:0.2;">
			<path style="fill-rule:evenodd;clip-rule:evenodd;fill:#000171;" d="M2427.542,2144.488c-0.454,2.667-0.953,5.347-1.49,8.061
				 M2431.519,2077.196c-0.168-2.097-0.359-4.179-0.561-6.24C2431.161,2073.016,2431.351,2075.099,2431.519,2077.196z
				 M2432.09,2098.792c0.132-6.964-0.024-13.74-0.488-20.324C2432.065,2085.052,2432.221,2091.838,2432.09,2098.792z
				 M2431.863,2105.971c0.119-2.392,0.178-4.762,0.227-7.13C2432.041,2101.209,2431.97,2103.579,2431.863,2105.971z
				 M2430.756,2121.082c0.512-5.072,0.868-10.049,1.107-14.942C2431.624,2111.033,2431.268,2116.01,2430.756,2121.082z
				 M2428.827,2136.463c0.785-5.191,1.417-10.285,1.929-15.311C2430.244,2126.178,2429.612,2131.271,2428.827,2136.463z
				 M2427.601,2144.178c0.417-2.453,0.81-4.891,1.178-7.322C2428.41,2139.286,2428.018,2141.725,2427.601,2144.178z
				 M2288.716,1975.494c8.681,22.431,12.311,52.088,10.631,88.235c0,0.037-0.01,0.061-0.01,0.107
				c-5.703,121.121-71.176,315.047-206.942,554.23c-39.646,69.83-53.137,119.502-44.088,145.695
				c223.384-263.591,349.268-467.148,377.638-610.664c-0.405,1.999-0.81,4.023-1.249,6.047
				c32.016-110.978,23.145-277.187-177.772-292.105c-200.914-14.918-370.803,176.675-403.055,510.415
				c34.527-123.835,84.329-234.108,145.098-314.713c16.693-22.17,34.23-42.089,52.508-59.435
				c31.908-30.265,66.09-52.708,102.046-65.519c-0.285-0.953-0.512-1.941-0.678-2.953c-1.965-12.419,6.501-24.086,18.919-26.064
				c58.209-9.405,102.938-5.679,147.719,18.11c44.325,23.55,88.188,66.626,117.941,122.265c9.156,17.156,9.561,23.157,3.536,21.811
				C2414.838,2067.337,2352.782,2011.248,2288.716,1975.494z"/>
		</g>
		<g style="opacity:0.2;">
			<path style="fill-rule:evenodd;clip-rule:evenodd;fill:#000171;" d="M2033.901,2471.788
				c167.592-109.31,254.256-248.053,265.436-407.952c1.702-36.195-1.941-65.887-10.622-88.342
				c-43.635-24.362-88.201-39.268-119.812-21.741c-11.404,1.809-22.179-5.191-25.384-15.966
				c-35.956,12.811-70.137,35.254-102.046,65.519c48.053,183.914-0.668,359.077-146.137,525.501
				C1918.256,2535.188,1965.061,2516.686,2033.901,2471.788"/>
		</g>
		<g style="opacity:0.2;">
			<path style="fill-rule:evenodd;clip-rule:evenodd;fill:#000171;" d="M2442.163,971.272c0.856,1.273,1.631,2.512,2.346,3.68
				C2443.794,973.784,2443.006,972.545,2442.163,971.272 M2322.946,880.06c5.716,2.512,11.251,5.094,16.573,7.774
				C2334.197,885.154,2328.674,882.571,2322.946,880.06z M2297.182,869.904c2.07,0.724,4.131,1.475,6.167,2.238
				C2301.313,871.379,2299.252,870.628,2297.182,869.904z M2283.359,865.332c2.263,0.702,4.499,1.417,6.703,2.141
				C2287.848,866.749,2285.622,866.034,2283.359,865.332z M1440.238,837.674c2.192-0.775,4.37-1.524,6.525-2.226
				C1444.608,836.149,1442.43,836.898,1440.238,837.674z M1407.973,851.08c2.582-1.214,5.155-2.404,7.715-3.536
				C1413.128,848.675,1410.556,849.865,1407.973,851.08z M2785.559,1670.446c-77.772,115.025-109.524,223.489-95.284,325.43
				c29.134-118.395,87.045-233.206,167.482-341.813c15.384-20.763,28.956-42.61,40.528-65.292
				c40.66-79.688,56.495-169.603,38.421-258.623c-18.775-92.5-70.15-174.341-143.564-231.397
				c8.537,11.014,11.502,23.789,8.917,38.326c-27.251-31.277-60.564-45.232-99.963-41.862
				c-264.781,58.614-285.948-105.452-239.014-51.196c4.821,5.572,10.631,10.383,17.442,14.43
				c-7.357-27.79-17.929-52.876-31.74-75.27l-0.181-0.441c4.348,10.288-0.178,12.358-12.989-0.393
				c-28.539-26.754-63.327-47.541-104.37-62.33c-41.921-15.108-90.449-24.074-145.564-26.859
				c-6.286-0.297-11.845-3.109-15.776-7.417c-70.649-6.179-130.241-44.91-195.855-96.642
				c-165.388-130.348-345.969-108.132-526.072,45.946c179.771-109.383,390.544-83.212,256.9,333.881
				c11.833-113.416,80.698-281.459,345.144-278.411c65.509,4.297,130.397,25.966,188.44,62.018
				c193.843,120.395,159.123,220.073,440.787,221.455c14.801,0.046,21.633,1.463,22.074,3.475
				C2915.263,1262.911,2927.323,1496.378,2785.559,1670.446z"/>
		</g>
		<g style="opacity:0.2;">
			<path style="fill-rule:evenodd;clip-rule:evenodd;fill:#000171;" d="M2543.77,1318.43
				c-23.586,207.06-93.392,354.886-209.441,443.516C2428.208,1619.179,2498.014,1471.353,2543.77,1318.43"/>
		</g>
	</g>
	<g style="opacity:0.2;">
		<path style="fill-rule:evenodd;clip-rule:evenodd;fill:#000171;" d="M1984.998,3255c396.171,0,717.323,50.355,717.323,112.5
			c0,62.142-321.152,112.5-717.323,112.5c-396.167,0-717.319-50.358-717.319-112.5C1267.679,3305.355,1588.831,3255,1984.998,3255"
			/>
	</g>
</g>
</svg>
