<?xml version="1.0" encoding="utf-8"?>
<!-- Generator: Adobe Illustrator 27.5.0, SVG Export Plug-In . SVG Version: 6.00 Build 0)  -->
<svg version="1.1" id="Layer_1" xmlns="http://www.w3.org/2000/svg" xmlns:xlink="http://www.w3.org/1999/xlink" x="0px" y="0px"
	 viewBox="0 0 4000 4000" style="enable-background:new 0 0 4000 4000;" xml:space="preserve">
<g>
	<g>
		<!-- <rect style="fill:#66FEFF;" width="4000" height="4000"/> -->
	</g>
	<g>
		<g>
			<g>
				<g>
					<g>
						<path style="fill:#53BC0F;" d="M1393.274,2260.101c0,0-30.292-34.878-91.614-21.462c-61.322,13.416-203.388-5.54-203.388-5.54
							l-93.447,122.153l10.195,76.979c145.608,12.064,330.455-7.854,384.254-99.566"/>
					</g>
					<g style="opacity:0.21;">
						<path style="fill:#1B3D07;" d="M1399.274,2301.086c0,0-99.545,92.274-320.897,64.233l-14.592,22.968l22.449,26.042
							C1240.338,2414.329,1386.434,2374.168,1399.274,2301.086z"/>
					</g>
					<g>
						<path style="fill:#1B3D07;" d="M1391.582,2261.571c-20.103-12.913-43.857-16.922-67.073-14.188
							c-12.086,1.378-24.008,5.306-36.189,7.062c-38.477,5.65-77.425,4.418-116.013,1.816c-25.457-1.956-50.608-4.724-75.911-9.112
							l13.135-5.438c-26.427,35.924-64.842,87.108-92.274,123.051c0.001,0,3.087-11.566,3.087-11.566
							c3.463,25.66,6.699,51.343,8.799,77.163c0.017,0.002-13.005-12.354-12.93-12.323c111.645,7.357,305.483,7.989,381.126-86.505
							c1.411-2.188,5.102-0.081,3.869,2.268c-23.091,49.542-76.791,75.684-126.604,91.013
							c-84.302,25.046-173.601,28.866-260.759,21.615c-6.996-0.136-12.295-5.677-12.947-12.328
							c-2.39-12.738-4.363-25.532-6.326-38.326c-1.77-12.821-3.682-25.623-5.266-38.467c-0.583-4.25,0.649-8.412,3.086-11.569
							c28.035-35.857,66.408-86.415,94.62-121.253c3.283-4.172,8.21-5.76,13.134-5.439c43.728,3.495,105.387,9.176,148.589,9.601
							c15.25,0.136,30.151,0.141,44.907-1.988c9.622-1.18,20.142-2.869,29.883-2.637c27.576,0.334,56.219,11.99,71.441,34.608
							C1396.327,2260.865,1393.618,2263.235,1391.582,2261.571L1391.582,2261.571z"/>
					</g>
				</g>
				<g>
					<g>
						<g>
							<path style="fill:#94DB23;" d="M892.779,2078.446c0,0,69.41-55.954,74.785-83.381c5.375-27.427-14.935-41.571-73.667-39.689
								s-99.795-64.549-126.508-59.8s-32.091,23.221-24.784,66.984c0,0-13.402,17.172-65.356,11.828
								c-51.955-5.343-46.968,28.76-37.701,50.656c9.267,21.896,93.308,48.404,107.831,86.485
								c14.523,38.08-5.903,153.982-56.362,195.313s-259.478,193.126-201.898,434.754
								c57.58,241.628,372.596,230.496,521.943,172.759c149.347-57.737,277.45-339.032,42.862-521.415
								S892.779,2078.446,892.779,2078.446z"/>
						</g>
					</g>
					<g style="opacity:0.21;">
						<path style="fill:#1B3D07;" d="M790.008,1908.868c0,0,34.063,26.163,24.443,66.185c-9.619,40.022-26.756,92.58-3.441,103.223
							c23.315,10.643,36.216-104.002,72.904-113.236c36.689-9.233-43.709-28.709-43.709-28.709"/>
					</g>
					<g>
						<g>
							<path style="fill:#1B3D07;" d="M813.227,2964.559c-71.934,0.005-144.551-12.974-203.408-43.911
								c-71.431-37.554-117.178-96.572-135.967-175.415c-56.885-238.706,135.127-392.681,198.228-443.281
								c3.379-2.715,6.396-5.132,8.989-7.256c45.298-37.1,64.004-145.176,51.646-177.573c-6.333-16.606-35.776-33.652-59.434-47.349
								c-23.565-13.643-42.178-24.419-48.184-38.613c-9.614-22.71-9.448-42.598,0.464-56.011
								c9.961-13.481,27.925-18.984,53.296-16.377c25.747,2.651,39.844-0.801,46.675-3.647c-3.979-27.456-5.322-67.1,39.107-75.005
								c18.164-3.232,34.853,9.697,54.194,24.658c21.709,16.787,46.235,35.737,74.561,34.907
								c42.183-1.353,68.066,5.259,81.289,20.811c5.806,6.826,11.948,18.887,8.281,37.588
								c-5.713,29.175-57.622,74.024-77.559,90.327c-3.511,8.12-13.145,35.786-4.063,78.594
								c10.127,47.759,46.489,123.57,162.217,213.54c102.109,79.385,148.97,186.845,131.953,302.583
								c-16.221,110.337-89.741,211.436-178.789,245.864C960.033,2950.911,886.991,2964.559,813.227,2964.559z M667.031,1989.524
								c-9.468,0-14.561,2.031-16.226,4.282c-2.354,3.184-2.275,12.183,3.198,25.117c2.778,5.024,22.173,16.255,35.005,23.682
								c29.404,17.026,62.734,36.323,73.037,63.33c17.398,45.615-6.216,168.106-61.084,213.047
								c-2.666,2.182-5.767,4.668-9.243,7.456c-59.263,47.525-239.609,192.149-187.329,411.519
								c16.592,69.639,56.982,121.758,120.039,154.902c110.918,58.316,275.615,47.583,380.977,6.855
								c77.739-30.059,144.629-123.061,159.053-221.152c15.298-104.058-27.378-201.094-120.166-273.233
								c-242.427-188.476-168.496-328.638-165.234-334.512c0.982-1.763,2.295-3.325,3.867-4.59
								c31.245-25.205,66.602-60.728,69.233-74.18c1.528-7.783-0.591-10.278-1.392-11.216c-2.881-3.384-14.141-11.143-56.367-9.771
								c-39.697,1.177-71.46-23.423-94.771-41.455c-9.849-7.622-24.814-19.058-29.512-18.579
								c-10.518,1.875-19.619,3.491-12.026,48.945c0.723,4.341-0.405,8.779-3.11,12.246c-3.135,4.009-21.631,23.677-79.336,17.783
								C672.446,1989.671,669.579,1989.524,667.031,1989.524z M730.947,1952.078L730.947,1952.078L730.947,1952.078z"/>
						</g>
					</g>
					<g>
						<g>
							<path style="fill:#FFFFFF;" d="M819.419,2124.104c0,0-10.352-17.364-41.616-21.004c-31.265-3.64-58.811-8.704-67.074,16.944
								c-8.263,25.648,7.478,47.046,7.478,47.046s-26.365,7.517-21.472,38.691s17.811,33.371,17.811,33.371
								s-21.975,12.888-12.179,39.118c9.796,26.23,65.979,17.778,79.125,14.87c23.003-5.089,32.418-39.332,7.232-53.755
								c0,0,26.591-6.922,30.614-28.83c5.304-28.89-14.103-39.146-14.103-39.146S841.004,2146.727,819.419,2124.104z"/>
						</g>
						<g>
							<path style="fill:#1B3D07;" d="M746.923,2312.576c-23.481,0-50.542-5.474-59.258-28.813
								c-6.958-18.623-2.666-33.648,4.356-44.073c-4.468-6.885-8.506-16.899-10.796-31.479
								c-3.647-23.252,5.606-38.481,16.289-47.319c-4.277-11.236-7.554-27.573-1.729-45.664
								c11.724-36.372,48.545-31.948,78.13-28.398l5.698,0.679c33.135,3.862,47.954,20.942,52.129,26.802
								c9.697,10.771,10.869,21.821,10.102,29.292c-1.177,11.465-7.617,21.313-14.014,28.472
								c6.167,9.531,10.264,23.247,6.943,41.319c-2.539,13.818-10.982,23.857-20.308,30.669c4.248,8.066,5.879,17.383,4.414,26.997
								c-2.822,18.501-16.484,33.535-33.999,37.412C781.244,2309.271,765.16,2312.576,746.923,2312.576z M751.088,2235.921
								l-28.604,16.772c-2.969,1.904-9.932,7.979-5.415,20.088c3.54,9.478,36.289,10.503,61.04,5.034
								c5.679-1.255,9.028-6.836,9.736-11.489c0.601-3.926-0.117-9.419-6.924-13.32L751.088,2235.921z M719.511,2224.075
								l39.756,6.763l25.503-6.641c0.063-0.02,17.021-5.005,19.126-16.475c2.939-16.001-4.814-21.685-6.401-22.661l-25.366-11.431
								l24.19-15.142c5.61-3.935,13.745-12.461,14.302-18.12c0.083-0.81,0.249-2.49-2.559-5.43l-1.538-1.611l-0.508-1.025
								c-1.191-1.597-9.16-11.181-30.029-13.613l-5.81-0.693c-33.491-4.014-41.392-2.803-44.512,6.86
								c-5.596,17.383,4.824,32.422,5.268,33.052l12.783,18.086l-21.206,6.191c-3.691,1.226-12.666,5.903-10.269,21.162
								C714.443,2217.381,718.119,2222.561,719.511,2224.075z"/>
						</g>
						<g>
							<path style="fill:#1B3D07;" d="M699.761,2159.358c35.245,14.499,73.203,10.376,106.875-6.206
								c0-0.001-2.803,36.515-2.803,36.515c-21.236-16.896-49.889-18.351-74.495-9.529c-7.986,3.161-16.235,7.597-22.603,15.172
								L699.761,2159.358L699.761,2159.358z"/>
						</g>
						<g>
							<path style="fill:#1B3D07;" d="M705.828,2221.372c29.568,13.247,61.588,14.677,91.465-0.042c0-0.001-7.673,35.81-7.673,35.81
								c-16.364-24.331-52.669-22.646-72.676-4.479c-1.379,1.35-2.952,2.86-3.794,4.595L705.828,2221.372L705.828,2221.372z"/>
						</g>
						<g>
							<path style="fill:#FFFFFF;" d="M890.607,2158.763c0.051-0.054,0.051-0.054,0.051-0.054s0.002,0.052-0.047,0.158
								c-0.301,3.674-5.382,65.657,53.37,108.74l74.867,85.333l35.098,40.019c47.106-62.231,103.534-217.465,0.85-205.432
								c-4.226,0.449-8.755,1.223-13.588,2.32c0,0-4.258-7.087-11.378-16.909c-7.504-10.386-18.194-23.81-30.499-35.351
								c-23.963-22.526-45.602-68.892-90.469-67.454c-44.867,1.438-70.812,41.214-99.471,55.115
								C793.7,2161.555,859.626,2194.933,890.607,2158.763z"/>
						</g>
						<g style="opacity:0.21;">
							<path style="fill:#1B3D07;" d="M943.981,2267.608l74.867,85.333c-0.58-34.425,15.339-65.296,15.339-65.296
								c21.563-22.99,22.262-99.176,22.262-99.176l-1.653-0.941l-24.965-14.59l-9.868-5.756
								c13.379,128.395-89.736,69.774-129.304-8.472c0,0,0,0-0.051,0.054c0.002,0.052,0.002,0.052,0.003,0.104
								C890.31,2162.542,885.229,2224.525,943.981,2267.608z"/>
						</g>
						<g>
							<path style="fill:#1B3D07;" d="M1053.925,2408.631c-4.316,0.005-8.457-1.777-11.431-4.937l-108.677-115.513
								c-41.231-30.83-53.984-73.179-57.686-101.299c-19.717,6.567-41.816,2.514-58.354-7.803
								c-22.974-14.321-32.129-38.462-22.783-60.068c1.489-3.448,4.17-6.25,7.554-7.891c8.135-3.95,16.934-11.172,26.245-18.819
								c19.937-16.362,44.746-36.733,79.57-37.847c40.825-1.221,65.112,28.311,84.502,52.119c6.05,7.427,11.768,14.438,17.227,19.56
								c17.08,16.021,31.055,35.19,38.569,46.357c39.761-5.942,59.175,9.316,68.569,23.887
								c32.222,49.99-15.195,159.033-50.796,206.035c-2.788,3.682-7.061,5.948-11.675,6.196
								C1054.482,2408.626,1054.203,2408.631,1053.925,2408.631z M906.308,2160.169c-0.254,2.866-5.01,65.283,47.256,103.574
								c0.771,0.566,1.494,1.206,2.153,1.904l96.357,102.417c32.676-51.333,56.235-127.588,38.77-154.677
								c-6.963-10.811-22.515-13.574-46.191-8.213c-6.641,1.504-13.447-1.431-16.929-7.241
								c-0.166-0.274-17.085-28.242-39.106-48.897c-6.997-6.563-13.354-14.37-20.088-22.636
								c-16.997-20.865-33.066-40.591-57.666-40.591c-0.493,0-0.991,0.01-1.494,0.024c-24.16,0.771-42.715,16.006-60.654,30.732
								c-8.711,7.148-17.026,13.98-25.947,19.277c-0.371,8.364,8.506,14.658,11.616,16.597c10.762,6.714,31.455,11.196,44.355-3.911
								c4.453-5.21,11.763-6.934,18.066-4.263C903.095,2146.936,906.938,2153.367,906.308,2160.169z"/>
						</g>
						<g>
							<path style="fill:#1B3D07;" d="M1056.062,2184.852c4.942,31.017-3.307,63.62-20.283,89.625
								c-1.321,2.204-4.903,0.545-4.068-1.885c3.663-13.455,5.243-27.337,4.138-41.075c-0.866-11.487-3.346-22.669-7.773-33.157
								c-0.552-1.305-1.326-2.966-1.763-3.48c-5.913-6.964-5.063-17.405,1.902-23.32c9.024-8.069,24.34-2.923,26.816,8.816
								C1055.032,2180.376,1056.062,2184.852,1056.062,2184.852L1056.062,2184.852z"/>
						</g>
					</g>
					<g>
						<path style="fill:#1B3D07;" d="M757.783,1958.564l13.957,105.869c0.405,2.539-3.446,3.565-4.336,1.141
							c0,0-39.978-99.018-39.978-99.018c-3.271-8.102,0.645-17.323,8.747-20.594C745.57,1942.008,756.583,1948.475,757.783,1958.564
							L757.783,1958.564z"/>
					</g>
					<g>
						<path style="fill:#1B3D07;" d="M845.332,2212.351c28.341,68.315,51.33,141.129,77.196,210.458
							c0.557,1.486-1.566,2.767-2.587,1.487c-12.593-14.48-23.054-30.671-31.995-47.527c-17.807-33.7-30.506-69.927-38.416-107.145
							C848.352,2265.794,837.171,2203.052,845.332,2212.351L845.332,2212.351z"/>
					</g>
					<g>
						<path style="fill:#1B3D07;" d="M808.85,2239.446c-1.278,45.495-13.223,89.525-29.767,131.616
							c-5.836,13.908-12.196,27.696-20.694,40.588c-0.469,0.71-1.423,0.906-2.134,0.438c-0.491-0.325-0.735-0.894-0.684-1.442
							c1.484-15.287,4.258-29.968,7.295-44.603c3.159-14.585,6.741-29.043,10.845-43.357c8.431-28.886,17.878-57.194,32.243-83.986
							C806.651,2237.329,808.918,2237.885,808.85,2239.446L808.85,2239.446z"/>
					</g>
					<g>
						<path style="fill:#1B3D07;" d="M857.488,2006.785c-8.564,41.609-29.262,80.25-46.599,118.594
							c-0.535,1.368-2.707,1.18-2.977-0.269c-4.597-22.343,1.717-45.056,10.017-65.501c8.782-20.36,20.21-39.293,36.975-54.331
							C855.978,2004.29,857.83,2005.365,857.488,2006.785L857.488,2006.785z"/>
					</g>
					<g>
						<path style="fill:#53BC0F;" d="M998.483,2652.854c2.955,92.226-52.38,160.793-144.606,163.748s-169.385-69.413-172.34-161.638
							c-2.955-92.226,69.413-169.385,161.638-172.34C935.401,2479.667,995.527,2560.628,998.483,2652.854z"/>
					</g>
					<g>
						<g>
							<path style="fill:#1B3D07;" d="M865.996,2778.503c-2.931-2.85-5.111-7.641-6.551-14.383
								c-0.972-3.882-3.523-5.802-7.663-5.771c-14.159,0.813-26.375-0.167-36.654-2.947c-10.274-2.774-18.366-6.995-24.267-12.68
								c-5.905-5.676-9.492-12.392-10.775-20.151c-0.929-5.624-0.573-11.194,1.082-16.708c1.653-5.506,4.633-10.231,8.954-14.158
								c4.313-3.932,9.868-6.459,16.665-7.582c5.944-0.982,10.955-1.051,15.023-0.198c4.07,0.86,7.771,2.808,11.111,5.858
								c3.341,3.05,6.919,7.533,10.736,13.448c4.131,6.514,8.595,10.933,13.398,13.248c4.8,2.316,10.864,2.866,18.191,1.659
								c8.178-1.355,13.949-4.566,17.308-9.645c3.358-5.086,4.478-11.024,3.355-17.821c-0.898-5.418-3.462-9.903-7.705-13.46
								c-4.243-3.557-9.215-6.413-14.915-8.577c-5.705-2.169-14.068-4.906-25.087-8.211c-15.001-4.285-27.375-8.52-37.115-12.685
								c-9.748-4.171-18.54-10.331-26.373-18.474c-7.839-8.142-12.836-18.748-14.993-31.81c-2.65-16.03,0.242-29.71,8.681-41.034
								c8.441-11.317,20.473-19.857,36.106-25.608c3.825-1.281,5.421-3.836,4.789-7.665c-0.963-5.835-0.447-10.479,1.547-13.917
								c1.994-3.438,5.754-5.612,11.277-6.528c8.921-1.47,15.016,3.416,18.295,14.654c0.567,2.092,1.438,3.607,2.638,4.553
								c1.19,0.949,2.82,1.415,4.892,1.4c11.557-0.053,21.458,1.612,29.71,4.992c8.251,3.388,14.626,7.788,19.118,13.208
								c4.496,5.419,7.235,11.104,8.222,17.054c1.052,6.367,0.54,12.046-1.529,17.021c-2.07,4.982-5.251,9.003-9.541,12.057
								c-4.3,3.056-9.264,5.044-14.888,5.97c-8.711,1.441-15.55,0.474-20.527-2.907c-4.976-3.374-9.254-8.965-12.838-16.775
								c-2.292-5.949-5.202-10.025-8.731-12.22c-3.527-2.203-8.531-2.767-15.008-1.7c-6.797,1.123-12.051,3.826-15.766,8.089
								c-3.71,4.269-5.075,9.38-4.09,15.323c1.053,6.374,3.993,11.67,8.838,15.884c4.846,4.221,10.558,7.616,17.149,10.183
								c6.588,2.567,15.614,5.521,27.074,8.861c14.982,4.176,27.347,8.356,37.089,12.521c9.746,4.178,18.477,10.289,26.188,18.341
								c7.711,8.052,12.658,18.67,14.832,31.834c2.666,16.14-0.114,30.183-8.342,42.123c-8.226,11.947-21.388,20.936-39.477,26.979
								c-3.936,1.308-5.552,4.031-4.868,8.174c1.245,7.541,1.008,13.033-0.714,16.484c-1.723,3.444-5.609,5.669-11.662,6.67
								C872.984,2782.337,868.92,2781.341,865.996,2778.503z"/>
						</g>
					</g>
					<g style="opacity:0.7;">
						<path style="fill:#FFFFFF;" d="M574.331,2843.5c-142.44-227.559,6.571-408.243,121.123-505.172
							C659.228,2463.37,486.582,2542.986,574.331,2843.5z"/>
					</g>
					<g style="opacity:0.21;">
						<path style="fill:#1B3D07;" d="M945.644,2345.433c0,0,115.271,97.927,144.172,125.033
							c28.902,27.107,119.972,211.391-31.149,372.518c0,0-108.404,105.407-302.641,65.294
							C1067.619,2914.058,1164.878,2576.632,945.644,2345.433z"/>
					</g>
				</g>
				<g>
					<g>
						<path style="fill:#53BC0F;" d="M2122.918,3154.953c0,0-37.908-47.657-43.611-242.232
							c-5.702-194.575,210.484-8.646,210.484-8.646s-4.162,134.212,30.052,237.466s-168.997,70.047-168.997,70.047"/>
					</g>
					<g style="opacity:0.32;">
						<path style="fill:#1B3D07;" d="M2090.712,2955.528c0,0,112.751-15.177,129.858,57.594
							c17.107,72.771,17.366,150.212,17.366,150.212s60.17,1.991,51.855-6.331c-8.315-8.322-32.674-125.98-28.009-222.49h-182.587"
							/>
					</g>
					<g>
						<path style="fill:#1B3D07;" d="M2217.026,3232.508c-33.481,0-62.388-4.399-68.711-5.435
							c-8.55-1.396-14.346-9.458-12.954-18.008c1.396-8.55,9.492-14.351,18.008-12.959c45.825,7.451,126.777,9.61,148.916-16.357
							c2.437-2.856,9.858-11.563,2.666-33.271c-30.381-91.689-31.338-204.785-30.986-235.225
							c-44.653-36.899-121.812-84.805-156.382-68.32c-20.073,9.575-23.364,42.988-22.593,69.331
							c5.376,183.54,40.039,232.686,40.391,233.159c5.396,6.782,4.18,16.533-2.603,21.929c-6.787,5.4-16.743,4.15-22.134-2.632
							c-4.214-5.293-41.328-57.348-47.021-251.538c-1.519-51.885,12.095-85.049,40.464-98.579
							c66.108-31.504,182.842,66.319,195.933,77.578c3.594,3.091,5.596,7.642,5.454,12.378
							c-0.044,1.313-3.652,132.725,29.263,232.046c10.542,31.826,1.147,52.109-8.589,63.521
							C2303.915,3226.175,2257.182,3232.503,2217.026,3232.508z"/>
					</g>
					<g>
						<path style="fill:#53BC0F;" d="M1921.714,2904.075c0,0,17.625,105.674,54.95,201.664s0.518,121.415-6.221,121.415
							c-6.739,0-166.785-21.42-171.708-26.348c-4.923-4.927-36.688-69.124-36.688-69.124s-49.248-135.943-59.097-235.565
							C1693.101,2796.495,1921.714,2904.075,1921.714,2904.075z"/>
					</g>
					<g style="opacity:0.32;">
						<path style="fill:#1B3D07;" d="M1723.687,2977.32c0,0,74.649-24.127,118.194,0c43.545,24.127,72.316,164.221,72.316,164.221
							s56.625,0.856,47.99-7.787c-8.635-8.643-44.491-108.18-61.209-199.241l-188.696-6.037"/>
					</g>
					<g>
						<path style="fill:#1B3D07;" d="M1970.444,3242.844c-5.991,0-60.142-7.363-88.77-11.484
							c-87.129-12.549-89.585-15.005-94.038-19.463c-1.846-1.846-6.743-6.748-39.648-73.257c-0.259-0.527-0.488-1.064-0.688-1.616
							c-2.036-5.625-50.029-138.941-59.961-239.365c-2.651-26.807,8.935-41.011,19.121-48.203
							c51.782-36.543,193.96,27.261,221.934,40.425c4.658,2.192,7.944,6.533,8.794,11.611c0.176,1.04,17.827,105.273,54.102,198.564
							c27.28,70.156,17.847,107.041,5.132,125.63C1989.179,3236.267,1979.223,3242.844,1970.444,3242.844z M1808.764,3187.669
							c23.784,5.664,136.094,21.143,158.921,23.521c4.907-4.78,22.222-28.101-5.645-99.766
							c-31.899-82.041-49.395-169.59-54.346-196.538c-62.949-28.54-156.982-58.267-183.14-39.795
							c-2.022,1.43-7.402,5.229-5.996,19.482c9.16,92.569,53.911,219.629,57.954,230.962
							C1788.573,3149.885,1803.007,3177.913,1808.764,3187.669z"/>
					</g>
					<g>
						<g>
							<path style="fill:#FFFFFF;" d="M2358.204,3199.135c125.383-58.952,253.776,49.788,212.018,184.345
								c-5.67,18.271-22.939,30.466-42.054,30.466h-357.155c-22.102,0-41.642-14.867-46.992-36.331
								c-20.868-83.723-20.868-234.517-20.868-234.517c68.428,50.849,212.882,32.574,222.91-24.906
								C2326.064,3118.192,2358.204,3107.685,2358.204,3199.135z"/>
						</g>
						<g style="opacity:0.32;">
							<path style="fill:#1B3D07;" d="M2319.843,3141.542c0,0,12.701,42.806,5.702,66.415s-52.368,57.594-52.368,51.368
								s19.191-68.49-21.244-80.424"/>
						</g>
						<g>
							<path style="fill:#1B3D07;" d="M2528.168,3429.637h-357.153c-29.561,0-55.142-19.834-62.217-48.228
								c-21.089-84.614-21.333-232.075-21.333-238.311c0-5.927,3.345-11.352,8.643-14.019c5.303-2.656,11.65-2.109,16.401,1.426
								c42.202,31.362,119.023,33.096,164.292,15.044c19.795-7.896,31.802-18.57,33.809-30.054
								c0.996-5.718,5.063-10.415,10.576-12.217c2.246-0.737,14.043-3.926,26.572,5.156c14.624,10.601,22.993,32.9,25.4,67.866
								c58.228-19.209,119.609-8.052,164.624,31.118c50.269,43.745,68.442,112.988,47.427,180.708
								C2577.499,3412.957,2554.574,3429.637,2528.168,3429.637z M2119.247,3170.652c1.089,47.036,5.122,143.486,20,203.169
								c3.584,14.39,16.646,24.438,31.768,24.438h357.153c12.388,0,23.521-7.993,27.075-19.434
								c17.534-56.509,3.311-111.738-38.057-147.739c-41.128-35.786-99.492-42.583-152.31-17.754
								c-4.849,2.285-10.547,1.929-15.083-0.952c-4.536-2.881-7.28-7.876-7.28-13.247c0-34.307-4.741-50.957-8.56-58.804
								c-8.823,14.082-24.39,25.933-45.532,34.365C2242.314,3193.084,2171.84,3194.91,2119.247,3170.652z M2373.891,3199.134h0.049
								H2373.891z"/>
						</g>
						<g>
							<path style="fill:#1B3D07;" d="M2363.501,3213.903c-39.358,12.42-76.004,36.765-101.428,69.539
								c-9.045,11.053-15.727,23.764-22.019,36.805c-0.993,2.568-5.083,1.266-4.236-1.469
								c11.818-44.061,40.69-82.243,76.902-109.675c12.785-9.514,25.564-17.965,40.239-24.759
								C2373.789,3175.981,2384.985,3207.152,2363.501,3213.903L2363.501,3213.903z"/>
						</g>
						<g style="opacity:0.32;">
							<path style="fill:#1B3D07;" d="M2467.068,3211.588c0,0,81.259,32.559,81.259,107.924s-27.993,66.026-27.993,66.026
								s-356.007,0.525-350.825,0.368C2443.221,3377.626,2614.496,3329.2,2467.068,3211.588z"/>
						</g>
					</g>
					<g>
						<g>
							<path style="fill:#FFFFFF;" d="M1666.145,3413.946c-105.406-83.816-59.097-205.471,88.128-205.471
								c0,0-6.998-18.16-12.96-50.849c-5.962-32.688,20.736-25.943,20.736-25.943c14.182,51.39,208.914,45.143,214.616-25.943
								c0,0,22.291-8.172,41.731,57.594c19.44,65.766,55.209,209.622,14.256,250.612H1666.145z"/>
						</g>
						<g style="opacity:0.32;">
							<path style="fill:#1B3D07;" d="M1970.443,3141.542c0,0,31.363,56.038,46.785,164.221c0,0,9.461,65.637-13.608,74.458
								h-291.339c166.345-6.805,244.683-46.179,216.654-119.34c0,0,41.508-67.453-4.111-92.877"/>
						</g>
						<g>
							<path style="fill:#1B3D07;" d="M2032.651,3429.637h-366.504c-3.545,0-6.987-1.201-9.766-3.408
								c-53.32-42.398-74.78-97.417-57.407-147.178c16.851-48.276,67.402-79.961,134.302-85.425
								c-2.305-8.574-4.941-19.717-7.398-33.188c-2.974-16.294-0.044-28.701,8.701-36.88c12.256-11.47,29.395-7.569,31.314-7.085
								c5.474,1.382,9.78,5.596,11.279,11.035c3.34,12.1,43.174,26.377,97.993,21.157c48.838-4.634,84.146-22.802,85.859-44.18
								c0.493-6.104,4.487-11.367,10.239-13.477c2.373-0.869,10.972-3.276,21.919,2.237c16.484,8.286,29.648,29.756,40.254,65.639
								c28.774,97.324,53.921,222.505,10.313,266.153C2040.805,3427.981,2036.816,3429.637,2032.651,3429.637z M1671.743,3398.26
								h353.506c19.478-29.731,11.265-118.291-21.899-230.479c-6.362-21.518-12.598-33.218-17.227-39.526
								c-16.807,31.719-64.106,47.485-107.993,51.646c-46.548,4.419-99.36-2.847-121.728-27.266
								c0.088,0.664,0.205,1.392,0.347,2.173c5.571,30.556,12.109,47.881,12.173,48.052c1.841,4.82,1.196,10.254-1.733,14.502
								c-2.93,4.253-7.754,6.802-12.915,6.802c-63.472,0-111.631,24.995-125.674,65.229
								C1616.249,3324.759,1632.363,3365.154,1671.743,3398.26z"/>
						</g>
						<g>
							<path style="fill:#1B3D07;" d="M1753.345,3192.814c62.727,2.14,125.638,22.689,175.303,61.257
								c16.626,12.26,30.483,27.673,43.489,43.223c1.75,2.043-1.283,5.014-3.262,3.055c-41.589-42.577-98.104-67.642-156.721-74.758
								c-18.502-2.078-38.893-3.271-57.258-1.423C1733.073,3225.677,1731.359,3193.518,1753.345,3192.814L1753.345,3192.814z"/>
						</g>
					</g>
				</g>
			</g>
			<g>
				<g>
					<path style="fill:#53BC0F;" d="M2773.967,2828.683l-315.432,73.665l-31.705,1.727l-159.259,8.633l-766.317-84.025
						c-153.347-599.315,5.912-1363.801,270.803-1970.649c0,0,363.199-39.658,816.491,37.879
						c135.716,23.177,279.541,56.923,424.098,105.318c0,0,22.602,187.564,107.411,319.094
						C2883.471,1698.592,2626.427,2123.737,2773.967,2828.683z"/>
				</g>
				<g style="opacity:0.32;">
					<path style="fill:#1B3D07;" d="M2773.967,2828.683l-315.432,73.665l-31.705,1.727c2.407-86.431-3.244-299.422-3.244-299.422
						c46.617-849.295,414.367-1382.479,523.295-1569.467l-377.011-107.463c0,0,6.592-12.504,18.678-31.81
						c135.716,23.177,279.541,56.923,424.098,105.318c0,0,22.602,187.564,107.411,319.094
						C2883.471,1698.592,2626.427,2123.737,2773.967,2828.683z"/>
				</g>
				<g>
					<path style="fill:#1B3D07;" d="M2267.577,2928.416c-0.571,0-1.143-0.029-1.714-0.093l-766.299-84.058
						c-6.494-0.713-11.87-5.376-13.491-11.709c-72.851-284.644-80.176-617.329-21.758-988.818
						c51.431-327.09,152.876-670.122,293.359-992.007c2.251-5.156,7.09-8.716,12.681-9.321
						c6.172-0.679,623.931-64.897,1247.3,143.926c5.747,1.924,9.873,6.987,10.596,13.003c0.225,1.841,23.188,185.61,105.015,312.476
						c3.301,5.112,3.345,11.67,0.117,16.831c-230.854,369.072-492.515,787.392-344.033,1496.802
						c1.748,8.35-3.486,16.563-11.792,18.501l-315.469,73.677c-0.894,0.21-1.802,0.342-2.72,0.39l-190.942,10.381
						C2268.144,2928.411,2267.861,2928.416,2267.577,2928.416z M1513.827,2814.251l754.185,82.729l188.281-10.234l299.238-69.888
						c-63.208-312.398-52.559-596.987,32.461-869.551c76.943-246.65,207.295-457.046,313.555-626.958
						c-71.538-116.196-97.29-267.158-103.115-307.329C2425.805,823.68,1860.419,865.779,1782.763,872.752
						C1483.017,1563.543,1382.787,2287.571,1513.827,2814.251z"/>
				</g>
				<g>
					<path style="fill:#1B3D07;" d="M2570.366,925.929c87.746,21.981,196.405,51.86,284.414,74.9
						c0,0.001,94.631,25.572,94.631,25.572c5.726,1.482,8.512,8.374,5.4,13.41c-17.246,30.535-35.332,60.316-52.922,90.383
						c-272.865,451.549-435.878,948.062-476.413,1474.575c-0.073,1.039-0.987,1.823-2.025,1.733
						c-0.999-0.085-1.748-0.946-1.709-1.94c1.396-30.859,2.617-74.474,5.186-104.59
						c28.926-454.364,172.061-899.016,403.141-1290.657c35.216-60.385,72.792-119.462,108.925-178.719l5.4,13.409
						c-83.732-24.809-197.908-59.887-281.426-85.383c-31.277-9.461-62.424-19.377-93.628-29.099
						c-0.984-0.307-1.536-1.355-1.228-2.34C2568.411,926.227,2569.407,925.683,2570.366,925.929L2570.366,925.929z"/>
				</g>
				<g>
					<path style="fill:#1B3D07;" d="M3044.397,1113.039c-48.688,73.501-94.632,149.038-139.036,225.272
						c-1.08,1.919-4.37,0.456-3.308-1.738c18.908-39.991,38.327-79.767,58.254-119.32c20.062-39.65,40.333-78.867,61.79-117.891
						C3031.266,1083.881,3054.069,1097.733,3044.397,1113.039L3044.397,1113.039z"/>
				</g>
				<g>
					<path style="fill:#1B3D07;" d="M3058.708,1189.182c-42.196,59.607-83.918,119.844-122.62,181.849
						c-1.141,1.935-4.344,0.299-3.276-1.8c16.072-32.975,33.147-65.467,50.532-97.779c17.439-32.303,35.164-64.377,53.333-96.376
						c3.572-6.291,11.567-8.495,17.859-4.923C3061.278,1173.925,3063.242,1182.933,3058.708,1189.182L3058.708,1189.182z"/>
				</g>
				<g>
					<path style="fill:#1B3D07;" d="M2580.938,2866.887c-5.199-93.174-5.205-186.356-1.695-279.496
						c0.042-1.031,0.911-1.835,1.941-1.794c0.979,0.038,1.753,0.834,1.797,1.794c1.921,46.388,4.854,92.692,8.809,138.87
						c3.983,46.012,8.803,92.377,15.181,137.994C2608.964,2882.032,2582.588,2884.821,2580.938,2866.887L2580.938,2866.887z"/>
				</g>
				<g>
					<path style="fill:#1B3D07;" d="M2530.278,2874.08c1.123-43.313,3.027-86.359,5.576-129.468
						c2.634-43.075,5.952-86.129,11.086-128.959c0.122-1.025,1.052-1.757,2.078-1.633c0.969,0.116,1.675,0.97,1.648,1.926
						c-1.396,42.981-0.969,85.964,0.134,128.92c1.192,42.958,3.024,86.003,5.637,128.756
						C2556.995,2891.558,2530.383,2892.145,2530.278,2874.08L2530.278,2874.08z"/>
				</g>
				<g>
					<path style="fill:#1B3D07;" d="M2783.521,1651.696c-59.543,204.168-109.93,410.96-134.059,622.426
						c-1.964,21.211-4.165,44.782-6.802,65.921c-0.096,1.265-1.251,2.231-2.522,2.061c-1.079-0.134-1.885-1.016-1.963-2.061
						c-1.116-14.755-1.89-29.552-2.6-44.379c-5.524-163.266,25.846-326.508,76.327-481.255
						c18.944-56.173,40.396-111.552,67.477-164.43c0.566-1.105,1.921-1.542,3.027-0.977
						C2783.402,1649.516,2783.851,1650.665,2783.521,1651.696L2783.521,1651.696z"/>
				</g>
				<g>
					<g>
						<path style="fill:#53BC0F;" d="M1731.588,769.283c0,0,534.692,1.557,1014.903,73.16c0,0,5.387,94.988,78.849,194.686
							c23.62,32.055,24.81,75.362,2.242,108.166c-277.866,403.906-437.709,1175.024-402.27,1771.577
							c-421.708,21.236-820.396,14.33-1189.242-29.057C1136.311,2260.633,1301.188,1102.876,1731.588,769.283z"/>
					</g>
					<g style="opacity:0.7;">
						<path style="fill:#FFFFFF;" d="M1774.794,796.975c122.095,2.073,562.882,12.929,848.466,64.148l-835.365-41.651
							c-24.865-1.24-48.833,9.306-64.879,28.339c-209.134,248.059-269.892,454.263-372.276,718.97
							c55.168-300.853,228.977-610.973,365.934-746.436C1732.135,805.052,1753.049,796.606,1774.794,796.975z"/>
					</g>
					<g>
						<path style="fill:#94DB23;" d="M2746.5,1099.801c-291.208,452.455-423.523,992.858-433.254,1601.224
							c-84.338-61.475-171.502,35.054-117.77,99.615c-319.879,8.58-734.716-59.12-734.716-59.12
							c8.528-180.606-145.813-142.203-145.813-142.203c-95.116-414.785,115.416-1326.183,374.447-1645.225
							c64.457,53.627,207.445,19.672,200.853-81.932c189.814,6.017,577.655,24.381,784.106,77.171L2746.5,1099.801z"/>
					</g>
					<g>
						<path style="fill:#1B3D07;" d="M1978.642,2944.309c-266.064,0-512.144-13.584-744.409-40.908
							c-6.977-0.82-12.559-6.182-13.667-13.12c-51.079-321.157-32.28-771.362,49.067-1174.932
							c93.643-464.575,254.287-804.966,452.339-958.472c2.759-2.139,6.142-3.335,9.658-3.286
							c5.361,0.015,541.338,2.373,1017.173,73.33c7.358,1.094,12.935,7.207,13.354,14.634c0.054,0.879,6.284,91.89,75.82,186.265
							c27.676,37.563,28.696,88.345,2.534,126.372c-264.59,384.604-436.348,1141.992-399.531,1761.748
							c0.249,4.18-1.187,8.286-3.979,11.406c-2.793,3.12-6.719,4.99-10.898,5.2
							C2270.551,2940.384,2121.698,2944.309,1978.642,2944.309z M1249.74,2873.606c343.384,39.575,733.149,49.111,1159.009,28.374
							c-15.62-292.358,14.409-627.744,84.883-946.528c74.028-334.868,188.037-625.747,321.021-819.053
							c18.579-27.007,17.798-63.159-1.948-89.956c-60.293-81.836-76.377-160.122-80.518-190.244
							c-444.814-65.122-938.208-70.752-995.229-71.187C1317.157,1117.22,1155.624,2254.837,1249.74,2873.606z"/>
					</g>
					<g>
						<path style="fill:#1B3D07;" d="M2138.124,2817.078c-308.047,0-675.977-59.428-679.893-60.063
							c-7.866-1.289-13.525-8.267-13.149-16.235c2.451-51.948-8.965-88.731-33.935-109.321
							c-36.46-30.069-91.89-17.041-92.451-16.904c-4.077,1.006-8.413,0.313-11.977-1.89c-3.574-2.207-6.133-5.747-7.07-9.839
							c-45.02-196.309-24.673-519.868,54.414-865.527c78.818-344.473,199.624-640.962,323.145-793.101
							c2.646-3.257,6.484-5.322,10.659-5.727c4.19-0.41,8.345,0.874,11.567,3.555c31.016,25.801,86.226,29.058,128.428,7.568
							c18.687-9.507,49.6-32.085,46.724-76.416c-0.283-4.414,1.304-8.75,4.385-11.929c3.076-3.184,7.427-4.907,11.777-4.775
							c206.255,6.538,582.822,25.317,787.49,77.651c4.502,1.147,8.257,4.233,10.269,8.418l72.144,150.474
							c2.358,4.917,1.997,10.698-0.952,15.283c-279.658,434.507-420.562,955.576-430.757,1592.974
							c-0.093,5.865-3.442,11.182-8.691,13.799c-5.244,2.617-11.504,2.09-16.245-1.362c-39.272-28.618-74.663-15.898-93.037,3.696
							c-16.968,18.096-24.609,47.744-3.423,73.198c3.843,4.619,4.712,11.03,2.236,16.509c-2.48,5.479-7.871,9.058-13.882,9.219
							C2176.952,2816.839,2157.66,2817.078,2138.124,2817.078z M1476.796,2728.152c71.611,11.031,413.516,61.06,691.826,57.334
							c-11.304-29.902-4.653-63.857,19.443-89.556c24.702-26.338,66.245-40.737,109.99-21.724
							c6.636-300.967,43.984-582.168,111.089-836.269c71.401-270.381,178.857-519.053,319.419-739.238l-65.181-135.942
							c-198.081-48.94-552.173-67.524-757.622-74.385c-3.228,37.983-25.762,69.907-63.662,89.199
							c-48.188,24.526-108.389,23.11-149.643-2.07c-117.476,151.821-231.953,437.354-307.793,768.799
							c-76.157,332.851-97.388,643.877-57.554,837.08c23.589-2.729,68.682-3.125,103.804,25.688
							C1461.523,2632.18,1476.928,2672.874,1476.796,2728.152z"/>
					</g>
					<g>
						<ellipse style="fill:#53BC0F;" cx="2065.479" cy="1198.905" rx="165.778" ry="132.311"/>
					</g>
					<g>
						<ellipse style="fill:#53BC0F;" cx="1772.059" cy="2472.354" rx="165.778" ry="132.311"/>
					</g>
					<g>
						<g>
							<path style="fill:#1B3D07;" d="M2176.007,1235.3c-3.307,1.235-7.85,1.169-13.644-0.196c-3.388-0.674-5.829,0.608-7.333,3.851
								c-4.592,11.351-9.866,20.524-15.83,27.521c-5.958,6.995-12.239,11.753-18.854,14.26c-6.61,2.514-13.176,2.834-19.706,0.972
								c-4.732-1.35-8.948-3.685-12.641-7.012c-3.687-3.323-6.275-7.393-7.745-12.215c-1.477-4.817-1.399-10.086,0.234-15.806
								c1.428-5.002,3.224-8.938,5.391-11.799c2.173-2.859,5.06-5.028,8.674-6.51s8.433-2.62,14.459-3.415
								c6.609-0.819,11.706-2.673,15.286-5.567c3.58-2.891,6.248-7.421,8.01-13.586c1.961-6.883,1.585-12.572-1.139-17.069
								c-2.73-4.498-6.951-7.564-12.671-9.197c-4.56-1.299-9.008-0.953-13.35,1.046c-4.342,1.999-8.407,4.825-12.2,8.475
								c-3.799,3.652-9.022,9.169-15.669,16.55c-8.882,10.127-16.755,18.221-23.601,24.286
								c-6.854,6.068-14.907,10.657-24.154,13.764c-9.248,3.113-19.371,3.099-30.362-0.04c-13.49-3.849-23.1-11.156-28.823-21.923
								c-5.717-10.766-7.941-23.309-6.66-37.633c0.412-3.458-0.993-5.647-4.215-6.567c-4.91-1.403-8.344-3.519-10.291-6.345
								c-1.947-2.825-2.256-6.562-0.932-11.212c2.146-7.505,8.208-10.459,18.191-8.87c1.842,0.33,3.346,0.209,4.527-0.378
								c1.18-0.578,2.146-1.679,2.898-3.301c4.224-9.039,9.179-16.153,14.863-21.346c5.69-5.189,11.477-8.541,17.366-10.047
								c5.889-1.508,11.337-1.548,16.345-0.122c5.358,1.53,9.601,4.025,12.72,7.476c3.124,3.455,5.089,7.422,5.888,11.897
								c0.798,4.484,0.517,9.093-0.836,13.824c-2.091,7.331-5.37,12.311-9.846,14.948c-4.47,2.638-10.413,3.913-17.831,3.828
								c-5.489-0.407-9.744,0.359-12.761,2.304c-3.022,1.94-5.309,5.637-6.867,11.086c-1.633,5.72-1.462,10.818,0.494,15.292
								c1.963,4.472,5.447,7.424,10.45,8.849c5.364,1.531,10.583,1.191,15.66-1.035c5.083-2.224,9.842-5.429,14.278-9.626
								c4.436-4.194,10.073-10.149,16.91-17.86c8.79-10.152,16.616-18.26,23.463-24.326c6.859-6.064,14.851-10.623,23.982-13.67
								c9.131-3.046,19.244-2.988,30.322,0.174c13.582,3.877,23.516,11.23,29.798,22.059c6.288,10.83,8.445,24.422,6.485,40.77
								c-0.432,3.555,1.097,5.821,4.582,6.817c6.346,1.812,10.545,4.025,12.603,6.642c2.052,2.616,2.354,6.47,0.901,11.564
								C2181.579,1231.261,2179.301,1234.065,2176.007,1235.3z"/>
						</g>
					</g>
					<g>
						<path style="fill:#1B3D07;" d="M2255.326,1423.068c-29.352-9.672-54.823,25.061-27.553,49.087
							c5.584,4.92,12.519,8.112,19.733,9.938c22.928,5.802,33.582,13.291,43,27.407c2.775,4.159,9.347,2.539,9.718-2.448
							c1.934-25.957-7.821-51.177-31.706-75.507C2264.823,1427.78,2260.337,1424.719,2255.326,1423.068z"/>
					</g>
					<g>
						<path style="fill:#1B3D07;" d="M1694.948,1343.207c29.345,9.696,29.142,52.767-7.072,55.845
							c-7.415,0.63-14.888-0.932-21.772-3.758c-21.879-8.983-34.897-9.305-50.867-3.566c-4.705,1.691-9.022-3.522-6.353-7.75
							c13.894-22.01,36.743-36.472,70.417-41.809C1684.511,1341.342,1689.938,1341.551,1694.948,1343.207z"/>
					</g>
					<g>
						<circle style="fill:#53BC0F;" cx="1910.114" cy="1785.26" r="341.969"/>
					</g>
					<g>
						<g>
							<path style="fill:#FFFFFF;" d="M1539.088,2160.365c0,0,21.663,92.747,62.523,113.372
								c40.861,20.625,137.028-86.051,137.028-86.051l135.4,14.627c0,0,47.454,108.393,99.211,113.063
								c51.757,4.67,137.759-88.726,137.759-88.726S1716.281,2097.582,1539.088,2160.365z"/>
						</g>
						<g>
							<path style="fill:#1B3D07;" d="M1976.84,2331.229c-1.684,0-3.354-0.073-5-0.225c-51.953-4.683-94.971-85.952-108.345-114.043
								l-118.643-12.813c-29.624,31.88-105.532,106.196-150.313,83.604c-46.074-23.257-68.35-113.594-70.737-123.818
								c-1.821-7.783,2.505-15.694,10.039-18.365c180.186-63.843,565.723,60.82,582.046,66.162c5.078,1.66,8.96,5.786,10.308,10.952
								c1.353,5.171-0.02,10.669-3.638,14.595C2113.481,2247.132,2034.345,2331.229,1976.84,2331.229z M1738.642,2171.99
								c0.557,0,1.123,0.034,1.685,0.093l135.396,14.624c5.591,0.606,10.43,4.156,12.69,9.307
								c16.948,38.623,55.352,100.942,86.25,103.73c26.729,2.281,74.014-33.916,107.09-65.708
								c-85.41-25.591-373.73-105.269-523.662-63.223c9.736,33.252,28.911,77.969,50.596,88.911
								c17.764,8.975,76.602-36.304,118.296-82.544C1729.975,2173.86,1734.223,2171.99,1738.642,2171.99z"/>
						</g>
						<g>
							<path style="fill:#52AD9C;" d="M1833.916,2247.534l75.643,448.301l-133.868,132.83l-149.434-121.415
								c0,0,70.566-316.875,141.651-477.54L1833.916,2247.534z"/>
						</g>
						<g>
							<path style="fill:#1B3D07;" d="M1775.688,2844.363c-3.491,0-6.997-1.162-9.893-3.516l-149.434-121.416
								c-4.614-3.75-6.714-9.79-5.425-15.596c2.896-12.998,71.724-320.234,142.617-480.478c3.14-7.085,10.981-10.835,18.447-8.799
								l66.006,17.822c5.918,1.597,10.366,6.494,11.387,12.539l75.645,448.301c0.849,5.029-0.801,10.161-4.424,13.755
								l-133.867,132.832C1783.705,2842.825,1779.702,2844.363,1775.688,2844.363z M1643.725,2701.219l130.923,106.372
								l118.081-117.168l-72.617-430.361l-43.179-11.655C1715.907,2393.098,1655.712,2648.992,1643.725,2701.219z"/>
						</g>
						<g>
							<path style="fill:#52AD9C;" d="M1738.64,2187.686c0,0-14.416,49.989,23.042,72.947c34.182,20.95,85.529,17.744,112.357-58.32
								L1738.64,2187.686z"/>
						</g>
						<g>
							<path style="fill:#1B3D07;" d="M1799.238,2287.385c-15.503,0-31.338-4.531-45.757-13.369
								c-47.109-28.877-30.645-88.169-29.922-90.679c2.119-7.329,9.209-12.071,16.768-11.255l135.396,14.624
								c4.771,0.518,9.038,3.184,11.597,7.241c2.554,4.058,3.115,9.063,1.519,13.584c-17.583,49.868-44.531,68.584-64.043,75.503
								C1816.591,2285.95,1807.968,2287.385,1799.238,2287.385z M1751.694,2204.885c-0.884,12.788,1.113,31.899,18.193,42.363
								c8.477,5.2,25.523,12.906,44.414,6.201c14.565-5.166,27.197-18.096,37.109-37.793L1751.694,2204.885z"/>
						</g>
					</g>
					<g>
						<g>
							<path style="fill:#FFFFFF;" d="M2840.517,1912.943c-2.668,9.365-5.284,19.097-7.848,28.985
								c-21.817,83.92-40.547,183.169-51.22,243.964c-1.779,10.15-3.349,19.201-4.656,26.944
								c-2.93,17.265-17.474,30.188-34.949,31.078l-313.287,16.533c-7.324,0.366-14.702,0.157-22.026-0.628l-1204.175-130.065
								c0-18.573,0.523-37.565,1.413-56.766c8.057-165.433,47.924-348.759,69.741-439.062c8.633-35.577,14.44-56.766,14.44-56.766
								c604.756,0,1134.957,106.731,1248.019,131.059c14.492,3.087,28.409,8.58,41.175,16.167l246.475,146.075
								C2838.215,1879.145,2845.173,1896.567,2840.517,1912.943z"/>
						</g>
						<g>
							<path style="fill:#52AD9C;" d="M2781.449,2185.892c-1.779,10.15-3.349,19.201-4.656,26.944
								c-2.93,17.265-17.474,30.188-34.949,31.078l-313.287,16.533c-7.324,0.366-14.702,0.157-22.026-0.628l-1204.175-130.065
								c0-18.573,0.523-37.565,1.413-56.766c8.423,0,13.917,0,13.917,0l1204.176,130.065c7.324,0.785,14.701,0.994,22.026,0.628
								L2781.449,2185.892z"/>
						</g>
						<g>
							<path style="fill:#52AD9C;" d="M2840.517,1912.943c-2.668,9.365-5.284,19.097-7.848,28.985
								c-2.145,0.157-3.296,0.209-3.296,0.209l-271.588-160.986c-12.766-7.586-26.631-13.027-41.175-16.167
								c-112.695-24.276-640.385-130.484-1243.101-131.059c8.633-35.577,14.44-56.766,14.44-56.766
								c604.756,0,1134.957,106.731,1248.019,131.059c14.492,3.087,28.409,8.58,41.175,16.167l246.475,146.075
								C2838.215,1879.145,2845.173,1896.567,2840.517,1912.943z"/>
						</g>
						<g>
							<circle style="fill:#53BC0F;" cx="1595.654" cy="1851.389" r="113.122"/>
						</g>
						<g>
							<path style="fill:#1B3D07;" d="M2421.347,2276.326c-5.522,0-11.045-0.293-16.504-0.884l-1204.185-130.083
								c-7.969-0.859-14.009-7.588-14.009-15.605c0-240.61,85.313-553.623,86.177-556.753c1.87-6.816,8.066-11.538,15.132-11.538
								c610.078,0,1149.385,109.458,1251.304,131.401c16.162,3.472,31.597,9.531,45.879,17.998l246.465,146.118
								c20.703,12.271,30.586,37.031,24.033,60.21c-28.96,102.524-53.97,242.724-63.379,298.242
								c-4.18,24.692-24.585,42.856-49.614,44.175l-313.242,16.509C2426.723,2276.258,2424.037,2276.326,2421.347,2276.326z
								 M1218.134,2115.672l1190.078,128.56c6.455,0.698,13.027,0.879,19.546,0.537l313.237-16.509
								c10.249-0.542,18.604-7.974,20.317-18.071c9.492-56.021,34.741-197.544,64.121-301.533
								c2.681-9.502-1.362-19.648-9.834-24.673l-246.47-146.118c-11.362-6.738-23.628-11.553-36.475-14.312
								c-100.698-21.68-630.713-129.253-1232.627-130.684C1285.131,1649.993,1220.976,1907.552,1218.134,2115.672z"/>
						</g>
						<g>
							<g>
								<path style="fill:#1B3D07;" d="M1570.806,1983.825c-2.134-3.487-3.06-8.668-2.786-15.557
									c0.019-4.002-1.977-6.493-5.996-7.489c-13.919-2.717-25.513-6.692-34.784-11.93c-9.267-5.231-16.063-11.324-20.372-18.293
									c-4.316-6.961-6.129-14.356-5.451-22.192c0.492-5.678,2.217-10.987,5.185-15.92c2.965-4.925,7.022-8.766,12.18-11.5
									c5.152-2.742,11.16-3.815,18.023-3.22c6.002,0.521,10.874,1.694,14.605,3.528c3.731,1.84,6.833,4.645,9.315,8.427
									c2.482,3.782,4.839,9.011,7.072,15.688c2.39,7.334,5.621,12.721,9.701,16.153c4.077,3.432,9.816,5.467,17.214,6.111
									c8.259,0.711,14.645-0.971,19.157-5.06c4.512-4.096,7.068-9.573,7.662-16.436c0.472-5.472-0.903-10.452-4.133-14.949
									s-7.341-8.495-12.327-12.002c-4.99-3.514-12.416-8.236-22.274-14.166c-13.473-7.865-24.414-15.032-32.819-21.479
									c-8.412-6.454-15.406-14.599-20.978-24.428c-5.579-9.829-7.795-21.342-6.651-34.532c1.401-16.188,7.59-28.726,18.57-37.607
									c10.98-8.875,24.752-14.17,41.322-15.872c4.023-0.294,6.202-2.375,6.537-6.241c0.512-5.892,2.161-10.264,4.945-13.101
									s6.964-4.013,12.542-3.533c9.007,0.784,13.703,7.027,14.098,18.727c0.031,2.167,0.5,3.85,1.428,5.064
									c0.917,1.214,2.382,2.069,4.393,2.567c11.21,2.81,20.391,6.874,27.549,12.192c7.155,5.325,12.243,11.166,15.253,17.53
									c3.014,6.363,4.261,12.549,3.744,18.559c-0.558,6.429-2.459,11.805-5.695,16.112c-3.239,4.314-7.316,7.423-12.229,9.319
									c-4.922,1.896-10.224,2.593-15.903,2.098c-8.797-0.76-15.183-3.391-19.168-7.898c-3.986-4.5-6.746-10.977-8.285-19.431
									c-0.748-6.331-2.558-11-5.434-14.001c-2.872-3.008-7.58-4.793-14.12-5.363c-6.864-0.595-12.623,0.724-17.278,3.934
									c-4.651,3.218-7.239,7.831-7.756,13.833c-0.558,6.436,0.98,12.296,4.63,17.578c3.65,5.289,8.344,9.993,14.095,14.111
									c5.747,4.119,13.761,9.215,24.038,15.288c13.482,7.755,24.427,14.866,32.835,21.313
									c8.408,6.461,15.355,14.543,20.832,24.254c5.478,9.71,7.642,21.223,6.489,34.516c-1.413,16.298-7.583,29.216-18.51,38.747
									c-10.927,9.538-25.905,14.989-44.927,16.366c-4.137,0.293-6.377,2.531-6.74,6.714c-0.661,7.615-2.25,12.877-4.773,15.794
									c-2.522,2.91-6.838,4.104-12.95,3.575C1576.628,1989.27,1572.937,1987.299,1570.806,1983.825z"/>
							</g>
						</g>
						<g>
							<path style="fill:#1B3D07;" d="M1753.378,1928.95c0,0,36.313,16.799,89.6,16.799c22.363,0,47.705-2.954,74.624-11.353
								c-12.656,86.855-52.139,121.494-89.575,121.494C1781.435,2055.892,1738.012,2002.273,1753.378,1928.95 M1753.422,1902.83
								c-4.067,0-8.13,0.94-11.836,2.822c-7.07,3.591-12.183,10.171-13.813,17.932c-9.497,45.332-0.391,89.25,24.985,120.498
								c19.6,24.131,47.031,37.969,75.269,37.969c45.684,0,100.005-37.798,115.459-143.882c1.299-8.896-2.065-17.834-8.901-23.669
								c-4.8-4.097-10.84-6.262-16.983-6.262c-2.607,0-5.234,0.391-7.793,1.187c-21.621,6.746-44.107,10.166-66.831,10.166
								c-46.245,0-78.398-14.285-78.721-14.429C1760.82,1903.606,1757.118,1902.83,1753.422,1902.83L1753.422,1902.83z"/>
						</g>
						<g>
							<path style="fill:#1B3D07;" d="M1745.186,1971.78c17.008,12.937,37.056,23.24,58.159,27.709
								c6.911,5.877-31.792-1.306-34.013-2.448c-11.379-3.033-21.917-6.759-32.664-12.077c-3.894-1.959-5.464-6.704-3.503-10.598
								C1735.341,1969.897,1741.366,1968.613,1745.186,1971.78L1745.186,1971.78z"/>
						</g>
						<g>
							<circle style="fill:#53BC0F;" cx="2138.961" cy="1908.923" r="113.122"/>
						</g>
						<g>
							<path style="fill:#1B3D07;" d="M1919.299,1998.75c-28.348,3.331-57.096,6.567-85.496,2.485
								c-1.323-0.211-1.138-2.287,0.225-2.231c27.855-0.442,55.293-8.046,81.914-15.589
								C1926.756,1980.543,1930.361,1996.819,1919.299,1998.75L1919.299,1998.75z"/>
						</g>
						<g>
							
								<ellipse transform="matrix(0.1359 -0.9907 0.9907 0.1359 -669.1766 3283.0854)" style="fill:#94DB23;" cx="1547.52" cy="2025.164" rx="35.319" ry="60.318"/>
						</g>
						<g>
							<g>
								<path style="fill:#1B3D07;" d="M2114.113,2041.36c-2.134-3.487-3.06-8.668-2.786-15.557
									c0.019-4.002-1.977-6.493-5.996-7.489c-13.919-2.717-25.513-6.692-34.784-11.93c-9.268-5.231-16.063-11.324-20.372-18.293
									c-4.317-6.961-6.129-14.356-5.451-22.192c0.492-5.678,2.217-10.987,5.185-15.919c2.965-4.926,7.021-8.766,12.18-11.5
									c5.152-2.741,11.16-3.815,18.023-3.22c6.002,0.521,10.874,1.694,14.604,3.527c3.731,1.84,6.833,4.645,9.315,8.427
									c2.482,3.782,4.839,9.011,7.072,15.688c2.389,7.334,5.621,12.721,9.701,16.153c4.077,3.432,9.816,5.467,17.214,6.111
									c8.259,0.711,14.645-0.971,19.157-5.06c4.512-4.096,7.068-9.573,7.662-16.436c0.472-5.472-0.903-10.452-4.133-14.949
									c-3.23-4.497-7.341-8.495-12.327-12.002c-4.99-3.514-12.416-8.236-22.273-14.166c-13.473-7.865-24.414-15.032-32.819-21.479
									c-8.412-6.454-15.406-14.599-20.978-24.428c-5.58-9.829-7.795-21.342-6.651-34.532c1.401-16.187,7.59-28.725,18.57-37.607
									c10.98-8.875,24.752-14.17,41.322-15.872c4.023-0.294,6.202-2.375,6.537-6.24c0.512-5.892,2.161-10.264,4.945-13.101
									s6.964-4.013,12.542-3.533c9.007,0.784,13.703,7.027,14.098,18.727c0.031,2.167,0.5,3.85,1.428,5.064
									c0.917,1.214,2.382,2.069,4.393,2.567c11.21,2.81,20.391,6.874,27.549,12.192c7.155,5.325,12.243,11.166,15.253,17.529
									c3.014,6.363,4.26,12.549,3.743,18.559c-0.558,6.43-2.459,11.805-5.695,16.112c-3.239,4.314-7.316,7.423-12.229,9.319
									c-4.922,1.896-10.224,2.593-15.903,2.098c-8.797-0.76-15.183-3.391-19.168-7.898c-3.986-4.5-6.746-10.977-8.285-19.431
									c-0.748-6.331-2.558-11-5.433-14.001c-2.872-3.008-7.58-4.793-14.12-5.363c-6.864-0.595-12.623,0.724-17.278,3.934
									c-4.652,3.218-7.24,7.831-7.756,13.834c-0.558,6.436,0.98,12.295,4.63,17.578c3.65,5.289,8.344,9.993,14.094,14.111
									c5.747,4.119,13.761,9.215,24.038,15.288c13.482,7.755,24.427,14.866,32.835,21.313
									c8.408,6.461,15.354,14.543,20.832,24.254c5.478,9.71,7.642,21.223,6.489,34.516c-1.413,16.298-7.583,29.216-18.51,38.747
									c-10.927,9.538-25.906,14.989-44.927,16.366c-4.137,0.293-6.377,2.531-6.74,6.714c-0.661,7.615-2.25,12.877-4.773,15.794
									c-2.522,2.91-6.838,4.104-12.95,3.575C2119.934,2046.804,2116.243,2044.833,2114.113,2041.36z"/>
							</g>
						</g>
						<g>
							
								<ellipse transform="matrix(0.1359 -0.9907 0.9907 0.1359 -256.7086 3871.0696)" style="fill:#94DB23;" cx="2090.826" cy="2082.699" rx="35.319" ry="60.318"/>
						</g>
					</g>
					<g>
						<path style="fill:#53BC0F;" d="M2746.491,1200.98c-4.753-102.409-129.967-120.536-246.462-144.764l179.528-186.792
							l77.83,153.585C2802.628,1094.771,2772.976,1147.473,2746.491,1200.98z"/>
					</g>
					<g>
						<path style="fill:#1B3D07;" d="M2681.174,870.978c-52.465,68.87-110.506,133.195-169.897,196.047c0,0-8.072-26.08-8.072-26.08
							c50.966,10.443,102.527,19.797,151.387,39.829c36.492,14.91,75.833,40.4,89.14,80.248c4.439,13.045,6.013,26.691,4.998,39.855
							c-0.085,1.244-1.165,2.182-2.407,2.096c-1.06-0.073-1.899-0.886-2.073-1.888c-7.844-53.871-51.501-80.553-98.939-95.537
							c-48.091-15.521-98.851-23.25-148.651-34.101c-11.745-2.171-16.354-17.793-7.875-26.039
							c45.17-46.461,91.581-91.786,139.831-135.11c16.167-14.405,32.41-28.74,49.324-42.427
							C2679.894,866.268,2682.787,868.906,2681.174,870.978L2681.174,870.978z"/>
					</g>
					<g>
						<path style="fill:#1B3D07;" d="M2550.979,1760.19c-12.246,113.858-38.7,225.077-69.379,335.131
							c-10.689,36.531-21.761,72.972-35.526,108.849c-0.819,2.311-4.661,1.603-4.377-0.979
							c10.192-114.133,35.699-225.944,67.489-335.768c10.992-36.48,22.77-72.766,37.44-108.316
							C2547.51,1756.825,2551.314,1757.621,2550.979,1760.19L2550.979,1760.19z"/>
					</g>
					<g style="opacity:0.23;">
						<path style="fill:#1B3D07;" d="M2746.491,842.444c0,0-84.705,105.719-171.745,192.759
							c128.151,30.492,207.228,79.777,190.424,165.778c0,0,105.497-76.766,71.687-143.194
							C2803.047,991.358,2746.491,922.868,2746.491,842.444z"/>
					</g>
					<g style="opacity:0.23;">
						<path style="fill:#1B3D07;" d="M2577.135,1724.362c-71.5,176.67-111.633,352.789-120.69,528.361l285.376-8.791
							c0,0,34.962-31.145,34.967-31.121s65.045-312.817,65.045-312.817l-18.232-29.513"/>
					</g>
					<g style="opacity:0.21;">
						<path style="fill:#1B3D07;" d="M1814.088,2295.27l59.952,380.848l-101.98,104.858l-48.255-36.173
							C1824.97,2703.79,1832.217,2518.959,1814.088,2295.27z"/>
					</g>
				</g>
			</g>
			<g>
				<g>
					<g>
						<path style="fill:#53BC0F;" d="M2962.472,2498.341l-10.202,76.961c-145.604,12.085-330.447-7.848-384.283-99.563
							c-9.928-27.783-16.445-54.534,6.017-72.514c0,0,30.293-34.897,91.611-21.503c61.318,13.446,203.417-5.546,203.417-5.546
							L2962.472,2498.341z"/>
					</g>
					<g style="opacity:0.21;">
						<path style="fill:#1B3D07;" d="M2568.012,2444.185c0,0,99.545,92.274,320.897,64.232l14.592,22.968l-22.449,26.042
							C2726.948,2557.427,2580.852,2517.266,2568.012,2444.185z"/>
					</g>
					<g>
						<path style="fill:#1B3D07;" d="M2572.319,2401.729c19.25-28.631,58.67-38.792,92.07-33.142c0,0,9.255,1.17,9.255,1.17
							c26.861,3.471,54.62,1.939,81.858,0.721c26.182-1.316,86.597-6.484,113.494-8.335c4.541,0.001,8.635,2.158,11.279,5.44
							c15.964,20.06,31.87,40.165,47.59,60.411l47.029,60.842c2.644,3.424,3.627,7.584,3.086,11.569
							c-1.587,12.844-3.499,25.646-5.269,38.467c-1.96,12.794-3.933,25.588-6.323,38.326c-0.687,6.809-6.194,12.257-12.947,12.326
							c-102.656,8.004-215.622,3.01-310.342-40.896c-31.645-15.526-62.194-39.001-77.021-71.732
							c-1.017-2.448,2.232-4.422,3.867-2.269c75.588,94.458,269.387,93.875,381.127,86.508c0.065-0.029-12.944,12.324-12.929,12.322
							c2.101-25.819,5.334-51.503,8.796-77.163l3.086,11.567c-27.684-36.126-65.732-86.932-92.271-123.052
							c0,0,13.133,5.438,13.133,5.438c-25.3,4.388-50.452,7.156-75.908,9.111c-44.916,2.8-91.226,4.762-135.369-5.755
							c-5.005-1.442-11.693-2.361-16.836-3.123c-23.211-2.732-46.971,1.275-67.07,14.188
							C2573.924,2406.359,2570.768,2403.942,2572.319,2401.729L2572.319,2401.729z"/>
					</g>
				</g>
				<g>
					<g>
						<g>
							<path style="fill:#94DB23;" d="M3063.563,2223.926c0,0-71.167-53.703-77.417-80.943c-6.25-27.24,13.596-42.028,72.358-42.028
								s97.677-67.712,124.528-63.821s32.818,22.182,26.916,66.155c0,0,13.945,16.734,65.702,9.729
								c51.757-7.005,47.865,27.24,39.304,49.422c-8.561,22.181-91.71,51.368-105.006,89.894
								c-13.296,38.526,10.832,153.714,62.588,193.408c51.757,39.693,265.53,184.717,215.719,428.065
								c-49.811,243.348-365.023,242.311-516.143,189.386c-151.12-52.924-288.166-329.972-59.54-519.775
								C3141.198,2353.616,3063.563,2223.926,3063.563,2223.926z"/>
						</g>
					</g>
					<g style="opacity:0.21;">
						<path style="fill:#1B3D07;" d="M3160.85,2051.143c0,0-33.208,27.24-22.311,66.934s29.708,91.675,6.745,103.06
							s-39.528-102.79-76.493-110.843c-36.966-8.053,42.767-30.094,42.767-30.094"/>
					</g>
					<g>
						<g>
							<path style="fill:#1B3D07;" d="M3152.05,3107.346c-67.104,0-132.793-11.016-185.122-29.341
								c-90.107-31.558-166.831-130.249-186.577-240.005c-20.713-115.137,22.681-224.043,122.197-306.66
								c112.783-93.633,146.699-170.572,155.293-218.628c7.705-43.076-2.808-70.42-6.582-78.428
								c-20.444-15.654-73.76-58.813-80.41-87.793c-4.263-18.579,1.494-30.83,7.075-37.832
								c12.715-15.967,38.32-23.398,80.581-23.398c28.267,0,52.241-19.81,73.398-37.285c18.857-15.576,35.122-29.023,53.379-26.377
								c44.658,6.47,44.585,46.142,41.494,73.711c6.909,2.627,21.089,5.625,46.768,2.158c25.288-3.447,43.403,1.499,53.789,14.653
								c10.337,13.086,11.143,32.964,2.266,55.967c-5.552,14.38-23.809,25.747-46.924,40.137
								c-23.208,14.448-52.09,32.427-57.886,49.229c-11.313,32.778,10.84,140.2,57.3,175.83c2.661,2.041,5.752,4.36,9.219,6.963
								c64.688,48.55,261.533,196.299,212.324,436.709c-16.255,79.404-60.088,139.858-130.283,179.678
								C3310.317,3092.39,3230.224,3107.342,3152.05,3107.346z M3180.536,2052.654c-5,0-19.194,11.723-28.638,19.526
								c-22.725,18.77-53.843,44.468-93.394,44.468c-42.256,0-53.257,8.091-56.03,11.568c-0.767,0.967-2.803,3.525-1.03,11.255
								c3.066,13.359,39.541,47.739,71.577,71.924c1.611,1.216,2.974,2.735,4.009,4.468c3.452,5.767,81.831,143.491-154.434,339.629
								c-90.43,75.078-129.976,173.432-111.353,276.948c17.559,97.573,87.393,188.389,166.055,215.938
								c106.611,37.339,271.558,42.778,380.562-19.048c61.963-35.152,100.664-88.535,115.02-158.672
								c45.22-220.932-139.663-359.702-200.415-405.302c-3.564-2.676-6.743-5.063-9.478-7.158
								c-56.274-43.159-83.804-164.829-67.876-210.986c9.434-27.319,42.129-47.676,70.977-65.635
								c12.583-7.837,31.606-19.678,34.292-24.946c4.99-12.945,4.775-21.944,2.319-25.049c-2.197-2.783-9.902-5.034-24.946-3.008
								c-57.417,7.783-76.611-11.328-79.863-15.234c-2.813-3.379-4.082-7.779-3.496-12.134c6.128-45.679-3.022-47.002-13.613-48.54
								C3180.702,2052.659,3180.619,2052.654,3180.536,2052.654z M3221.274,2092.439L3221.274,2092.439L3221.274,2092.439z"/>
						</g>
					</g>
					<g>
						<g>
							<path style="fill:#FFFFFF;" d="M3138.348,2267.211c0,0,9.79-17.687,40.922-22.326c31.132-4.639,58.502-10.583,67.583,14.787
								c9.08,25.371-5.967,47.262-5.967,47.262s26.592,6.669,22.7,37.983c-3.891,31.314-16.733,33.924-16.733,33.924
								s22.376,12.178,13.426,38.708c-8.951,26.53-65.375,19.883-78.608,17.397c-23.155-4.349-33.662-38.273-8.95-53.496
								c0,0-26.8-6.067-31.521-27.835c-6.226-28.705,12.842-39.578,12.842-39.578S3117.498,2290.514,3138.348,2267.211z"/>
						</g>
						<g>
							<path style="fill:#1B3D07;" d="M3211.835,2453.357c-16.123,0-29.746-2.364-33.071-2.989
								c-17.622-3.306-31.758-17.896-35.171-36.304c-1.772-9.556-0.439-18.926,3.545-27.119
								c-9.536-6.509-18.296-16.27-21.274-30.005c-3.901-17.954-0.249-31.792,5.615-41.519
								c-6.626-6.948-13.374-16.582-14.922-28.003c-1.006-7.447-0.186-18.526,9.16-29.605c3.984-5.991,18.252-23.54,51.24-28.452
								l5.679-0.864c29.443-4.482,66.123-10.103,78.994,25.884c6.406,17.89,3.652,34.321-0.259,45.688
								c10.957,8.491,20.698,23.418,17.793,46.777c-1.821,14.644-5.537,24.785-9.78,31.812c7.354,10.19,12.119,25.073,5.767,43.906
								C3266.606,2447.893,3236.342,2453.357,3211.835,2453.357z M3210.239,2376.78l-29.287,18.037
								c-6.675,4.112-7.217,9.629-6.494,13.53c0.859,4.629,4.39,10.098,10.107,11.172c24.771,4.653,57.695,2.349,60.84-6.987
								c4.131-12.246-3.027-18.096-6.294-20.039L3210.239,2376.78z M3215.976,2256.487c-6.514,0-15.635,1.064-28.599,3.047
								l-5.791,0.874c-22.09,3.291-29.443,14.292-29.507,14.404l-0.854,1.543l-1.177,1.318c-2.71,3.027-2.49,4.707-2.383,5.508
								c0.737,5.645,9.141,13.902,14.927,17.69l23.047,15.108l-23.823,11.689c-1.152,0.791-8.726,6.724-5.278,22.617
								c2.451,11.294,19.478,15.82,19.648,15.86l25.249,5.718l39.985-7.944c1.348-1.577,4.844-6.88,6.592-20.938
								c2.119-17.041-9.6-20.488-10.942-20.825l-21.914-5.498l12.798-18.618c0.347-0.527,10.278-15.884,4.121-33.081
								C3229.985,2259.119,3226.205,2256.487,3215.976,2256.487z M3138.349,2267.21h0.049H3138.349z"/>
						</g>
						<g>
							<path style="fill:#1B3D07;" d="M3253.252,2334.772c-24.75-24.876-70.839-24.917-97.227-2.532
								c0,0.001-3.972-36.406-3.972-36.406c25.707,12.101,51.776,15.157,79.233,11.404c8.923-1.454,17.515-3.781,27.788-8.623
								L3253.252,2334.772L3253.252,2334.772z"/>
						</g>
						<g>
							<path style="fill:#1B3D07;" d="M3248.826,2396.891c-18.393-22.433-60.113-23.923-76.433,2.332
								c0,0.001-8.816-35.545-8.816-35.545c22.967,10.464,44.192,11.035,67.764,5.903c8.197-1.923,15.804-4.971,23.657-8.79
								C3254.998,2360.791,3248.826,2396.891,3248.826,2396.891L3248.826,2396.891z"/>
						</g>
						<g>
							<path style="fill:#FFFFFF;" d="M3068.306,2304.133c-0.052-0.052-0.052-0.052-0.052-0.052s0,0.052,0.052,0.157
								c0.418,3.662,7.481,65.451-49.86,110.393l-72.095,87.687l-33.798,41.123c-49.075-60.69-110.446-214.037-7.429-205.3
								c4.238,0.314,8.79,0.942,13.655,1.883c0,0,4.029-7.22,10.83-17.265c7.168-10.621,17.422-24.381,29.351-36.309
								c23.23-23.282,43.373-70.317,88.262-70.317s72.096,38.926,101.185,51.9
								C3165.253,2303.819,3100.43,2339.291,3068.306,2304.133z"/>
						</g>
						<g style="opacity:0.21;">
							<path style="fill:#1B3D07;" d="M3018.446,2414.631l-72.095,87.687c-0.523-34.426-17.422-64.771-17.422-64.771
								c-22.288-22.288-25.427-98.412-25.427-98.412l1.622-0.994l24.485-15.382l9.679-6.069
								c-9.26,128.757,91.925,66.864,128.967-12.609c0,0,0,0,0.052,0.052c0,0.052,0,0.052,0,0.104
								C3068.724,2307.9,3075.787,2369.688,3018.446,2414.631z"/>
						</g>
						<g>
							<path style="fill:#1B3D07;" d="M2912.573,2559.109c-0.112,0-0.225,0-0.332,0c-4.624-0.097-8.965-2.226-11.87-5.82
								c-37.085-45.835-87.974-153.305-57.368-204.302c8.921-14.868,27.856-30.718,67.769-26.074
								c7.153-11.396,20.508-31.006,37.065-47.563c5.293-5.293,10.781-12.49,16.592-20.108
								c18.618-24.414,41.792-54.795,82.793-54.795c34.844,0,60.293,19.561,80.742,35.283c9.551,7.344,18.574,14.282,26.836,17.969
								c3.428,1.533,6.196,4.243,7.798,7.642c10.029,21.294,1.655,45.713-20.84,60.761c-16.211,10.84-38.159,15.606-58.086,9.673
								c-2.793,28.222-14.185,70.957-54.409,103.091l-104.917,118.935C2921.362,2557.18,2917.07,2559.109,2912.573,2559.109z
								 M2897.035,2353.43c-13.35,0-22.437,3.916-27.114,11.714c-16.587,27.637,9.404,103.096,43.706,153.35l93.022-105.449
								c0.64-0.718,1.338-1.382,2.095-1.973c51.113-40.014,44.229-102.407,43.911-105.044c-0.815-6.782,2.837-13.34,9.043-16.182
								c6.211-2.827,13.535-1.377,18.135,3.672c13.389,14.692,33.921,9.546,44.468,2.495c3.047-2.036,11.714-8.613,11.074-16.963
								c-9.082-5.01-17.617-11.567-26.548-18.433c-18.403-14.15-37.437-28.784-61.606-28.784c-25.459,0-41.187,20.62-57.832,42.446
								c-6.465,8.477-12.573,16.484-19.355,23.267c-21.348,21.348-37.363,49.849-37.524,50.137
								c-3.301,5.913-10.044,9.067-16.685,7.768C2908.837,2354.104,2902.573,2353.43,2897.035,2353.43z"/>
						</g>
						<g>
							<path style="fill:#1B3D07;" d="M2933.826,2344.578c-10.973,24.082-10.629,52.635-2.906,77.845
								c0.421,1.217-0.262,2.561-1.504,2.916c-0.964,0.281-1.968-0.114-2.502-0.902c-17.229-24.454-26.097-55.184-23.652-85.228
								c0.048-1.934,0.999-5.991,1.384-8.133c1.768-8.965,10.469-14.798,19.434-13.031
								C2936.054,2320.093,2941.524,2335.334,2933.826,2344.578L2933.826,2344.578z"/>
						</g>
					</g>
					<g>
						<path style="fill:#1B3D07;" d="M3225.247,2106.797l-36.787,100.248c-0.822,2.435-4.706,1.561-4.37-1.002
							c0,0,10.559-106.261,10.559-106.261c0.864-8.695,8.613-15.044,17.31-14.18
							C3222.117,2086.464,3228.864,2097.303,3225.247,2106.797L3225.247,2106.797z"/>
					</g>
					<g>
						<path style="fill:#1B3D07;" d="M3118.22,2356.75c-0.385,57.265-15.77,113.695-40.272,165.192
							c-8.395,17.134-18.333,33.651-30.458,48.528c-0.977,1.254-3.163,0.144-2.632-1.404
							c16.862-51.483,34.783-108.205,51.503-159.619c5.804-17.746,11.842-35.494,18.912-53.204
							C3115.788,2354.728,3118.261,2355.099,3118.22,2356.75L3118.22,2356.75z"/>
					</g>
					<g>
						<path style="fill:#1B3D07;" d="M3155.476,2381.317c22.325,39.413,35.834,82.363,47.146,125.898
							c3.5,14.531,6.745,29.115,8.718,44.347c0.249,1.524-1.926,2.408-2.783,1.094c-25.29-37.866-39.721-81.447-49.783-125.462
							c-3.061-14.73-5.588-29.612-6.169-45.039C3152.506,2380.619,3154.735,2379.942,3155.476,2381.317L3155.476,2381.317z"/>
					</g>
					<g>
						<path style="fill:#1B3D07;" d="M3099.075,2149.583c30.725,26.715,56.87,76.882,50.807,118.265
							c-0.242,1.453-2.394,1.721-2.968,0.364c-13.817-27.48-29.525-57.232-40.625-85.84c-3.83-9.969-7.366-20.177-9.753-31.23
							C3096.183,2149.741,3097.99,2148.628,3099.075,2149.583L3099.075,2149.583z"/>
					</g>
					<g>
						<path style="fill:#53BC0F;" d="M3293.161,2801.424c0,92.273-57.503,159.033-149.776,159.033
							c-92.273,0-167.075-74.802-167.075-167.075c0-92.273,74.802-167.075,167.075-167.075
							C3235.659,2626.307,3293.161,2709.151,3293.161,2801.424z"/>
					</g>
					<g>
						<g>
							<path style="fill:#1B3D07;" d="M3156.718,2922.767c-2.838-2.943-4.864-7.801-6.087-14.586
								c-0.847-3.911-3.335-5.912-7.475-6.014c-14.177,0.359-26.356-1.012-36.541-4.12c-10.18-3.102-18.133-7.58-23.848-13.45
								c-5.721-5.862-9.091-12.69-10.125-20.486c-0.749-5.65-0.214-11.207,1.617-16.664c1.829-5.45,4.958-10.078,9.403-13.864
								c4.437-3.792,10.07-6.139,16.899-7.044c5.973-0.791,10.983-0.699,15.022,0.283c4.041,0.99,7.677,3.056,10.918,6.211
								c3.241,3.155,6.675,7.75,10.3,13.785c3.92,6.643,8.241,11.203,12.967,13.671c4.723,2.469,10.767,3.213,18.128,2.241
								c8.218-1.093,14.088-4.117,17.608-9.086c3.519-4.975,4.828-10.875,3.924-17.705c-0.724-5.444-3.144-10.009-7.27-13.7
								c-4.127-3.691-9.005-6.705-14.633-9.05c-5.632-2.351-13.904-5.354-24.811-9.01c-14.856-4.763-27.088-9.392-36.689-13.867
								c-9.609-4.481-18.2-10.919-25.768-19.309c-7.574-8.389-12.229-19.149-13.967-32.274c-2.135-16.107,1.193-29.688,9.991-40.735
								c8.799-11.041,21.099-19.191,36.907-24.439c3.864-1.158,5.542-3.661,5.031-7.507c-0.775-5.863-0.111-10.488,1.992-13.861
								c2.103-3.373,5.931-5.425,11.481-6.164c8.963-1.184,14.898,3.895,17.816,15.233c0.5,2.109,1.322,3.651,2.49,4.635
								c1.158,0.986,2.773,1.505,4.844,1.556c11.552,0.317,21.395,2.298,29.535,5.941c8.138,3.651,14.369,8.252,18.685,13.813
								c4.32,5.56,6.875,11.33,7.671,17.309c0.847,6.398,0.154,12.057-2.073,16.963c-2.229,4.913-5.536,8.831-9.922,11.745
								c-4.396,2.917-9.421,4.744-15.072,5.49c-8.753,1.161-15.557-0.025-20.424-3.563c-4.865-3.531-8.962-9.257-12.294-17.177
								c-2.1-6.019-4.878-10.186-8.335-12.494c-3.455-2.315-8.438-3.039-14.946-2.18c-6.83,0.905-12.167,3.438-16.017,7.58
								c-3.845,4.148-5.373,9.212-4.579,15.184c0.848,6.404,3.618,11.792,8.325,16.159c4.708,4.374,10.309,7.95,16.814,10.727
								c6.502,2.777,15.429,6.018,26.777,9.724c14.84,4.653,27.065,9.228,36.669,13.702c9.607,4.488,18.138,10.876,25.587,19.17
								c7.449,8.295,12.053,19.066,13.805,32.293c2.148,16.217-1.081,30.164-9.686,41.834c-8.604,11.677-22.048,20.24-40.321,25.701
								c-3.976,1.181-5.678,3.851-5.128,8.013c1.003,7.577,0.59,13.059-1.241,16.453c-1.833,3.387-5.787,5.487-11.87,6.293
								C3163.58,2926.822,3159.55,2925.697,3156.718,2922.767z"/>
						</g>
					</g>
					<g style="opacity:0.21;">
						<path style="fill:#1B3D07;" d="M3302.501,2502.317c254.245,320.121-98.206,660.086-433.486,439.46
							C3186.275,3259.038,3732.123,2900.269,3302.501,2502.317z"/>
					</g>
					<g style="opacity:0.7;">
						<path style="fill:#FFFFFF;" d="M3057.077,2434.326c0,0-45.66,67.971-98.844,109.092s-137.145,122.665-140.353,239.465
							c0,0,2.854,82.362,32.429,129.838c0,0-38.72-162.081,59.929-260.73C3008.887,2553.341,3039.306,2472.722,3057.077,2434.326z"
							/>
					</g>
				</g>
			</g>
			<g>
				<g>
					<path style="fill:#FFC20F;" d="M1273.141,3334.93c0,0,17.642,25.8,0,71.362c-38.853,41.104-235.191,40.101-259.333,0
						c-17.641-45.562,0-71.362,0-71.362c15.137-27.929,71.48-35.547,128.231-36.133
						C1199.28,3298.207,1256.937,3304.898,1273.141,3334.93z"/>
				</g>
				<g style="opacity:0.3;">
					<path style="fill:#FFFFFF;" d="M1238.398,3325.71c36.317,36.947-227.653,45.141-193.018,0
						C1081.311,3308.068,1201.099,3298.127,1238.398,3325.71z"/>
				</g>
				<g style="opacity:0.7;">
					<path style="fill:#FFFFFF;" d="M1104.636,3380.238c3.717,0.367,32.595,3.042,63.361,0.748c5.133-0.383,9.77,3.114,10.709,8.174
						c1.938,10.437,4.078,28.028,0.111,41.981c-6.042,21.254-101.044,1.873-102.918,0c-1.452-1.453-5.6-29.525-3.553-45.897
						c0.729-5.83,6.168-9.861,11.944-8.78l19.519,3.653C1104.097,3380.171,1104.343,3380.208,1104.636,3380.238z"/>
				</g>
				<g>
					<path style="fill:#1B3D07;" d="M1148.72,3298.763c54.985,0,108.848,7.302,124.419,36.167c0,0,17.642,25.801,0,71.363
						c-19.307,20.425-77.5,30.454-134.126,30.454c-57.334,0-113.061-10.279-125.205-30.454c-17.642-45.562,0-71.363,0-71.363
						c15.137-27.929,71.479-35.547,128.232-36.133C1144.267,3298.775,1146.493,3298.763,1148.72,3298.763 M1148.725,3266.472
						c-0.005,0-0.005,0-0.005,0c-2.339,0-4.678,0.015-7.012,0.037c-86.816,0.899-136.382,17.493-155.83,52.207
						c-5.547,9.267-23.13,45.127-2.183,99.233c0.674,1.733,1.489,3.403,2.451,4.995c24.141,40.103,106.138,46.089,152.866,46.089
						c35.855,0,122.988-3.953,157.593-40.562c2.876-3.044,5.132-6.616,6.646-10.522c20.923-54.043,3.408-89.878-2.163-99.199
						C1274.985,3271.914,1201.708,3266.472,1148.725,3266.472L1148.725,3266.472z"/>
				</g>
				<g>
					<path style="fill:#1B3D07;" d="M1046.863,3326.847c-1.329,3.57-1.872,7.022,1.333,9.092c10.477,5.984,24.79,5.802,37.258,6.854
						c36.818,1.481,74.603,0.844,111.443-1.388c12.893-1.23,27.198-1.472,38.655-6.662c1.467-0.853,2.351-1.454,2.698-2.515
						c0.486-1.165-0.134-3.217-1.184-5.206c-0.593-0.94-0.264-2.202,0.723-2.717c0.637-0.337,1.382-0.273,1.943,0.098
						c2.197,1.459,4.561,3.508,5.564,7.172c1.871,9.933-9.512,16.686-16.272,20.438c-46.7,22.181-129.068,24.789-175.759,1.617
						c-7.506-4.243-17.339-12.003-14.431-21.995c0.939-2.749,5.059-9.499,7.754-6.83
						C1047.095,3325.396,1047.143,3326.179,1046.863,3326.847L1046.863,3326.847z"/>
				</g>
				<g>
					<path style="fill:#1B3D07;" d="M1142.808,3382.03c5.185,13.18,5.402,27.237,3.596,41.036c-0.742,4.561-1.69,9.12-3.596,13.679
						c-0.178,0.425-0.667,0.625-1.091,0.448c-7.136-17.214-6.696-37.605-0.448-55.164
						C1141.528,3381.366,1142.551,3381.365,1142.808,3382.03L1142.808,3382.03z"/>
				</g>
				<g>
					<path style="fill:#1B3D07;" d="M1194.155,3382.03c5.186,13.18,5.403,27.237,3.597,41.036c-0.743,4.561-1.69,9.12-3.597,13.679
						c-0.178,0.425-0.667,0.625-1.089,0.448c-7.14-17.209-6.698-37.606-0.451-55.164
						C1192.878,3381.366,1193.901,3381.366,1194.155,3382.03L1194.155,3382.03z"/>
				</g>
				<g>
					<path style="fill:#1B3D07;" d="M1233.589,3374.894c5.186,13.18,5.403,27.237,3.597,41.036c-0.743,4.561-1.69,9.12-3.597,13.679
						c-0.178,0.425-0.664,0.625-1.089,0.448c-7.139-17.209-6.698-37.606-0.451-55.164
						C1232.312,3374.23,1233.334,3374.229,1233.589,3374.894L1233.589,3374.894z"/>
				</g>
				<g>
					<path style="fill:#1B3D07;" d="M1094.282,3382.03c5.192,13.179,5.4,27.237,3.599,41.036c-0.745,4.561-1.692,9.12-3.599,13.679
						c-0.176,0.425-0.664,0.625-1.089,0.448c-7.136-17.213-6.696-37.605-0.448-55.164
						C1093.004,3381.365,1094.028,3381.366,1094.282,3382.03L1094.282,3382.03z"/>
				</g>
				<g>
					<path style="fill:#1B3D07;" d="M1045.759,3367.754c5.186,13.18,5.403,27.237,3.597,41.036c-0.743,4.561-1.69,9.12-3.597,13.679
						c-0.178,0.425-0.664,0.625-1.089,0.448c-7.139-17.209-6.698-37.606-0.451-55.164
						C1044.482,3367.09,1045.505,3367.089,1045.759,3367.754L1045.759,3367.754z"/>
				</g>
			</g>
			<g>
				<g>
					<path style="fill:#FFC20F;" d="M1179.682,3232.917c0,0,17.641,25.8,0,71.362c-38.853,41.105-235.191,40.101-259.333,0
						c-17.641-45.562,0-71.362,0-71.362c15.137-27.929,71.48-35.548,128.231-36.133
						C1105.821,3196.194,1163.478,3202.885,1179.682,3232.917z"/>
				</g>
				<g style="opacity:0.3;">
					<path style="fill:#FFFFFF;" d="M1144.939,3223.697c36.317,36.947-227.653,45.141-193.018,0
						C987.852,3206.055,1107.64,3196.113,1144.939,3223.697z"/>
				</g>
				<g style="opacity:0.7;">
					<path style="fill:#FFFFFF;" d="M1011.177,3278.224c3.717,0.367,32.595,3.043,63.361,0.748c5.133-0.383,9.77,3.114,10.709,8.175
						c1.938,10.437,4.078,28.027,0.111,41.981c-6.042,21.254-101.044,1.873-102.918,0c-1.453-1.452-5.6-29.525-3.553-45.897
						c0.729-5.83,6.168-9.861,11.944-8.78l19.519,3.653C1010.638,3278.158,1010.884,3278.195,1011.177,3278.224z"/>
				</g>
				<g>
					<path style="fill:#1B3D07;" d="M1055.258,3196.751c54.985,0,108.848,7.302,124.424,36.167c0,0,17.642,25.799,0,71.362
						c-19.307,20.425-77.5,30.452-134.126,30.452c-57.334,0-113.062-10.276-125.205-30.452c-17.642-45.564,0-71.362,0-71.362
						c15.137-27.93,71.479-35.549,128.227-36.133C1050.805,3196.763,1053.031,3196.751,1055.258,3196.751 M1055.263,3164.461
						c-0.005,0-0.005,0-0.005,0c-2.339,0-4.678,0.015-7.012,0.037c-86.812,0.894-136.377,17.488-155.825,52.207
						c-5.547,9.267-23.13,45.122-2.183,99.233c0.674,1.733,1.494,3.404,2.451,4.995c24.141,40.1,106.138,46.089,152.866,46.089
						c35.854,0,122.988-3.953,157.593-40.562c2.876-3.044,5.132-6.616,6.646-10.522c20.923-54.041,3.413-89.873-2.163-99.199
						C1181.528,3169.9,1108.251,3164.461,1055.263,3164.461L1055.263,3164.461z"/>
				</g>
				<g>
					<path style="fill:#1B3D07;" d="M953.403,3224.834c-1.33,3.57-1.87,7.022,1.333,9.092c10.478,5.982,24.788,5.802,37.261,6.854
						c36.814,1.479,74.604,0.845,111.44-1.389c12.893-1.23,27.198-1.471,38.655-6.662c1.467-0.853,2.351-1.454,2.698-2.514
						c0.488-1.165-0.132-3.217-1.184-5.208c-0.589-0.944-0.266-2.199,0.723-2.717c0.637-0.336,1.382-0.273,1.943,0.098
						c2.197,1.459,4.561,3.51,5.566,7.173c1.864,9.935-9.512,16.685-16.274,20.438c-46.696,22.179-129.072,24.791-175.757,1.615
						c-7.508-4.24-17.342-12.001-14.434-21.995c0.941-2.746,5.061-9.498,7.754-6.829
						C953.635,3223.382,953.683,3224.167,953.403,3224.834L953.403,3224.834z"/>
				</g>
				<g>
					<path style="fill:#1B3D07;" d="M1049.348,3280.017c5.186,13.179,5.403,27.239,3.596,41.036
						c-0.742,4.559-1.69,9.12-3.596,13.679c-0.178,0.425-0.667,0.625-1.089,0.447c-7.139-17.208-6.698-37.606-0.451-55.162
						C1048.071,3279.353,1049.094,3279.352,1049.348,3280.017L1049.348,3280.017z"/>
				</g>
				<g>
					<path style="fill:#1B3D07;" d="M1100.696,3280.017c5.186,13.179,5.403,27.239,3.597,41.036
						c-0.743,4.559-1.69,9.12-3.597,13.679c-0.176,0.425-0.664,0.625-1.089,0.447c-7.139-17.208-6.698-37.606-0.451-55.162
						C1099.419,3279.353,1100.441,3279.352,1100.696,3280.017L1100.696,3280.017z"/>
				</g>
				<g>
					<path style="fill:#1B3D07;" d="M1140.129,3272.881c5.19,13.178,5.401,27.239,3.597,41.036c-0.743,4.559-1.69,9.12-3.597,13.679
						c-0.176,0.425-0.664,0.625-1.089,0.447c-7.137-17.21-6.699-37.606-0.448-55.162
						C1138.852,3272.216,1139.876,3272.216,1140.129,3272.881L1140.129,3272.881z"/>
				</g>
				<g>
					<path style="fill:#1B3D07;" d="M1000.825,3280.017c5.186,13.179,5.401,27.239,3.596,41.036
						c-0.745,4.559-1.692,9.12-3.596,13.679c-0.178,0.425-0.667,0.625-1.091,0.447c-7.136-17.211-6.696-37.604-0.448-55.162
						C999.546,3279.351,1000.569,3279.354,1000.825,3280.017L1000.825,3280.017z"/>
				</g>
				<g>
					<path style="fill:#1B3D07;" d="M952.3,3265.741c5.186,13.179,5.403,27.238,3.596,41.036c-0.743,4.559-1.69,9.119-3.596,13.679
						c-0.176,0.425-0.664,0.625-1.089,0.447c-7.136-17.211-6.701-37.606-0.448-55.162
						C951.022,3265.076,952.046,3265.076,952.3,3265.741L952.3,3265.741z"/>
				</g>
			</g>
			<g>
				<g>
					<path style="fill:#FFC20F;" d="M1251.368,3128.583c0,0,17.641,25.8,0,71.362c-38.853,41.105-235.191,40.101-259.333,0
						c-17.641-45.562,0-71.362,0-71.362c15.137-27.929,71.48-35.548,128.231-36.133
						C1177.507,3091.86,1235.163,3098.551,1251.368,3128.583z"/>
				</g>
				<g style="opacity:0.3;">
					<path style="fill:#FFFFFF;" d="M1216.625,3119.363c36.317,36.947-227.653,45.141-193.018,0
						C1059.538,3101.721,1179.326,3091.779,1216.625,3119.363z"/>
				</g>
				<g style="opacity:0.7;">
					<path style="fill:#FFFFFF;" d="M1082.862,3173.89c3.717,0.367,32.595,3.043,63.361,0.748c5.133-0.383,9.77,3.114,10.709,8.175
						c1.938,10.437,4.078,28.027,0.111,41.981c-6.042,21.254-101.045,1.873-102.918,0c-1.453-1.452-5.601-29.525-3.553-45.897
						c0.729-5.83,6.168-9.86,11.944-8.78l19.519,3.653C1082.323,3173.824,1082.57,3173.861,1082.862,3173.89z"/>
				</g>
				<g>
					<path style="fill:#1B3D07;" d="M1126.918,3092.415c55,0,108.877,7.3,124.448,36.167c0,0,17.642,25.801,0,71.362
						c-19.307,20.425-77.5,30.454-134.126,30.454c-57.334,0-113.061-10.278-125.205-30.454c-17.642-45.561,0-71.362,0-71.362
						c15.137-27.927,71.479-35.547,128.228-36.133C1122.48,3092.427,1124.702,3092.415,1126.918,3092.415 M1126.923,3060.127h-0.005
						c-2.324,0-4.658,0.012-6.987,0.034c-86.812,0.898-136.377,17.493-155.825,52.205c-5.547,9.267-23.135,45.124-2.183,99.236
						c0.674,1.733,1.489,3.403,2.451,4.995c24.141,40.103,106.138,46.089,152.866,46.089c35.854,0,122.988-3.952,157.593-40.561
						c2.876-3.045,5.132-6.616,6.646-10.523c20.923-54.038,3.413-89.873-2.158-99.197
						C1253.212,3065.569,1179.921,3060.127,1126.923,3060.127L1126.923,3060.127z"/>
				</g>
				<g>
					<path style="fill:#1B3D07;" d="M1025.088,3120.5c-1.325,3.568-1.871,7.023,1.333,9.092c10.479,5.981,24.79,5.802,37.26,6.852
						c36.816,1.482,74.604,0.845,111.441-1.388c12.895-1.23,27.196-1.47,38.655-6.662c1.467-0.853,2.351-1.454,2.7-2.514
						c0.486-1.165-0.134-3.217-1.184-5.208c-0.593-0.94-0.264-2.202,0.72-2.717c0.637-0.337,1.382-0.273,1.943,0.098
						c2.2,1.459,4.563,3.508,5.566,7.172c1.868,9.934-9.512,16.688-16.274,20.438c-46.692,22.181-129.074,24.791-175.757,1.617
						c-7.506-4.244-17.34-12.001-14.433-21.995c0.94-2.746,5.061-9.5,7.754-6.829
						C1025.317,3119.048,1025.375,3119.834,1025.088,3120.5L1025.088,3120.5z"/>
				</g>
				<g>
					<path style="fill:#1B3D07;" d="M1121.035,3175.682c5.188,13.182,5.399,27.236,3.596,41.038
						c-0.745,4.559-1.692,9.119-3.596,13.678c-0.178,0.425-0.667,0.625-1.091,0.448c-7.136-17.214-6.696-37.604-0.448-55.163
						C1119.757,3175.018,1120.776,3175.021,1121.035,3175.682L1121.035,3175.682z"/>
				</g>
				<g>
					<path style="fill:#1B3D07;" d="M1172.383,3175.682c5.187,13.182,5.401,27.237,3.596,41.038
						c-0.745,4.559-1.692,9.119-3.596,13.678c-0.178,0.425-0.667,0.625-1.091,0.448c-7.136-17.214-6.696-37.604-0.448-55.163
						C1171.104,3175.018,1172.126,3175.021,1172.383,3175.682L1172.383,3175.682z"/>
				</g>
				<g>
					<path style="fill:#1B3D07;" d="M1211.816,3168.546c5.186,13.182,5.402,27.237,3.596,41.038
						c-0.745,4.559-1.692,9.119-3.596,13.678c-0.178,0.425-0.667,0.625-1.091,0.448c-7.136-17.215-6.696-37.603-0.448-55.164
						C1210.539,3167.881,1211.56,3167.885,1211.816,3168.546L1211.816,3168.546z"/>
				</g>
				<g>
					<path style="fill:#1B3D07;" d="M1072.51,3175.682c5.186,13.182,5.403,27.237,3.597,41.038
						c-0.743,4.559-1.69,9.119-3.597,13.678c-0.178,0.425-0.664,0.625-1.089,0.448c-7.139-17.211-6.698-37.605-0.451-55.163
						C1071.233,3175.019,1072.254,3175.019,1072.51,3175.682L1072.51,3175.682z"/>
				</g>
				<g>
					<path style="fill:#1B3D07;" d="M1023.987,3161.406c5.186,13.182,5.402,27.237,3.596,41.038
						c-0.745,4.559-1.692,9.119-3.596,13.678c-0.178,0.425-0.667,0.625-1.091,0.448c-7.136-17.214-6.696-37.604-0.448-55.164
						C1022.709,3160.741,1023.73,3160.745,1023.987,3161.406L1023.987,3161.406z"/>
				</g>
			</g>
			<g>
				<g>
					<path style="fill:#FFC20F;" d="M1154.318,2985.545c0,0,24.923,18.86,22.667,67.667
						c-23.784,51.317-210.273,112.729-245.903,82.374c-31.2-37.599-22.667-67.667-22.667-67.667
						c5.481-31.291,56.487-56.411,110.113-74.993C1072.617,2974.185,1129.413,2962.216,1154.318,2985.545z"/>
				</g>
				<g style="opacity:0.3;">
					<path style="fill:#FFFFFF;" d="M1118.446,2987.838c46.172,23.498-201.525,115.115-183.022,61.31
						C963.89,3021.007,1074.317,2973.531,1118.446,2987.838z"/>
				</g>
				<g style="opacity:0.7;">
					<path style="fill:#FFFFFF;" d="M1008.93,3082.03c3.641-0.832,31.873-7.468,60.317-19.417c4.746-1.993,10.253-0.151,12.751,4.35
						c5.153,9.281,12.769,25.281,13.44,39.772c1.022,22.072-95.217,33.872-97.588,32.69c-1.839-0.916-14.689-26.217-17.948-42.391
						c-1.161-5.76,2.717-11.309,8.536-12.119l19.668-2.736C1008.398,3082.138,1008.644,3082.095,1008.93,3082.03z"/>
				</g>
				<g>
					<path style="fill:#1B3D07;" d="M1112.304,2972.664c17.529,0,32.231,3.718,42.012,12.881c0,0,24.927,18.86,22.671,67.666
						c-19.399,41.863-147.08,90.447-212.813,90.447c-14.844,0-26.523-2.478-33.091-8.072c-31.201-37.6-22.666-67.666-22.666-67.666
						c5.478-31.292,56.484-56.411,110.112-74.993C1051.371,2981.548,1085.214,2972.664,1112.304,2972.664 M1112.309,2940.376
						L1112.309,2940.376c-27.417,0-61.548,7.209-104.351,22.044c-82.036,28.425-123.765,59.902-131.177,98.997
						c-2.314,10.556-7.598,50.136,29.453,94.788c1.187,1.43,2.495,2.756,3.911,3.96c12.461,10.62,30.137,15.781,54.028,15.781
						c35.659,0,87.769-12.232,135.986-31.922c39.57-16.157,90.103-42.673,106.123-77.236c1.758-3.799,2.764-7.903,2.959-12.085
						c2.676-57.89-25.318-86.306-33.565-93.379C1160.424,2947.422,1139.106,2940.376,1112.309,2940.376L1112.309,2940.376z"/>
				</g>
				<g>
					<path style="fill:#1B3D07;" d="M937.19,3049.756c-0.126,3.807,0.457,7.255,4.153,8.197c11.834,2.345,25.348-2.373,37.505-5.336
						c35.381-10.291,71.01-22.895,105.23-36.716c11.833-5.261,25.323-10.032,34.536-18.595c1.123-1.275,1.767-2.126,1.76-3.241
						c0.093-1.259-1.147-3.008-2.776-4.562c-0.859-0.706-0.949-2.003-0.178-2.805c0.498-0.521,1.223-0.698,1.873-0.525
						c2.549,0.685,5.442,1.877,7.556,5.033c4.928,8.824-3.719,18.844-8.938,24.548c-37.056,35.788-114.701,64.554-166.142,57.36
						c-8.466-1.638-20.255-5.87-20.672-16.271c0.017-2.902,1.781-10.616,5.183-8.938
						C936.946,3048.306,937.248,3049.033,937.19,3049.756L937.19,3049.756z"/>
				</g>
				<g>
					<path style="fill:#1B3D07;" d="M1045.693,3071.605c9.107,10.848,13.775,24.111,16.446,37.769
						c0.744,4.559,1.294,9.185,0.935,14.113c-0.034,0.459-0.432,0.804-0.891,0.771c-12.236-14.054-18.293-33.53-17.948-52.164
						C1044.274,3071.381,1045.241,3071.055,1045.693,3071.605L1045.693,3071.605z"/>
				</g>
				<g>
					<path style="fill:#1B3D07;" d="M1094.382,3055.295c9.106,10.849,13.775,24.11,16.446,37.768
						c0.744,4.56,1.294,9.184,0.935,14.113c-0.034,0.459-0.432,0.804-0.891,0.77c-12.236-14.052-18.293-33.529-17.948-52.163
						C1092.96,3055.071,1093.931,3054.745,1094.382,3055.295L1094.382,3055.295z"/>
				</g>
				<g>
					<path style="fill:#1B3D07;" d="M1129.509,3036.002c9.102,10.85,13.775,24.112,16.443,37.77
						c0.744,4.56,1.294,9.184,0.935,14.113c-0.032,0.459-0.432,0.804-0.891,0.77c-12.233-14.054-18.295-33.529-17.948-52.164
						C1128.088,3035.776,1129.055,3035.456,1129.509,3036.002L1129.509,3036.002z"/>
				</g>
				<g>
					<path style="fill:#1B3D07;" d="M999.683,3087.018c9.107,10.85,13.774,24.111,16.446,37.77
						c0.744,4.559,1.294,9.183,0.935,14.113c-0.034,0.459-0.432,0.803-0.891,0.77c-12.237-14.053-18.293-33.53-17.948-52.164
						C998.26,3086.793,999.23,3086.47,999.683,3087.018L999.683,3087.018z"/>
				</g>
				<g>
					<path style="fill:#1B3D07;" d="M949.138,3088.894c9.103,10.851,13.774,24.111,16.446,37.77
						c0.742,4.559,1.294,9.183,0.935,14.113c-0.034,0.459-0.435,0.803-0.894,0.77c-12.232-14.055-18.295-33.531-17.946-52.164
						C947.715,3088.67,948.684,3088.346,949.138,3088.894L949.138,3088.894z"/>
				</g>
			</g>
			<g>
				<g>
					<path style="fill:#FFC20F;" d="M1534.394,3380.715c0,0,1.472,31.22-37.461,60.739c-54.647,14.59-221.23-89.332-220.727-136.137
						c8.903-48.04,37.462-60.739,37.462-60.739c27.545-15.826,79.5,7.268,128.109,36.561
						C1490.807,3310.686,1536.368,3346.648,1534.394,3380.715z"/>
				</g>
				<g style="opacity:0.3;">
					<path style="fill:#FFFFFF;" d="M1509.664,3354.629c11.515,50.511-217.46-81.085-164.284-101.325
						C1385.223,3257.152,1492.397,3311.572,1509.664,3354.629z"/>
				</g>
				<g style="opacity:0.7;">
					<path style="fill:#FFFFFF;" d="M1367.19,3330.821c2.971,2.264,26.145,19.7,53.536,33.897c4.57,2.369,6.681,7.779,4.824,12.579
						c-3.83,9.901-11.242,25.996-21.943,35.79c-16.3,14.918-86.986-51.449-87.597-54.027c-0.474-1.999,10.732-28.07,21.069-40.93
						c3.681-4.58,10.426-5.155,14.774-1.203l14.695,13.355C1366.766,3330.482,1366.956,3330.643,1367.19,3330.821z"/>
				</g>
				<g>
					<path style="fill:#1B3D07;" d="M1335.595,3239.434c28.774,0,68.486,18.987,106.182,41.704
						c49.028,29.548,94.59,65.51,92.617,99.578c0,0,1.47,31.22-37.461,60.737c-3.53,0.943-7.534,1.392-11.929,1.392
						c-63.56,0-209.268-93.748-208.799-137.527c8.901-48.042,37.461-60.74,37.461-60.74
						C1319.848,3241.026,1327.265,3239.434,1335.595,3239.434 M1335.595,3207.146L1335.595,3207.146
						c-13.965,0-26.47,3.015-37.183,8.965c-9.58,4.973-43.384,26.257-53.955,83.325c-0.337,1.826-0.518,3.677-0.537,5.535
						c-0.215,19.866,10.825,40.788,33.755,63.962c48.584,49.111,149.736,106.198,207.329,106.198c7.271,0,14.082-0.835,20.259-2.483
						c4.043-1.082,7.842-2.937,11.177-5.466c46.182-35.015,50.083-74.71,50.239-85.566c2.417-54.9-60.537-99.385-108.237-128.133
						C1406.698,3222.302,1366.518,3207.146,1335.595,3207.146L1335.595,3207.146z"/>
				</g>
				<g>
					<path style="fill:#1B3D07;" d="M1346.045,3255.051c-3.004,2.34-5.282,4.994-3.638,8.438
						c5.775,10.593,18.054,17.952,28.115,25.392c30.558,20.587,63.054,39.882,95.579,57.319
						c11.621,5.722,23.923,13.026,36.399,14.622c1.697,0.045,2.764-0.004,3.616-0.724c1.025-0.735,1.575-2.808,1.726-5.052
						c-0.007-1.112,0.93-2.011,2.041-1.935c0.72,0.049,1.318,0.493,1.604,1.104c1.104,2.396,2.039,5.382,0.972,9.027
						c-1.075,3.487-4.547,6.003-7.764,7.198c-47.322,11.469-144.19-47.728-167.258-89.235c-4.161-7.553-8.459-19.316-0.74-26.298
						c2.243-1.844,9.295-5.428,10.186-1.742C1347.002,3253.937,1346.634,3254.631,1346.045,3255.051L1346.045,3255.051z"/>
				</g>
				<g>
					<path style="fill:#1B3D07;" d="M1398.738,3352.385c-2.504,13.94-9.701,26.02-18.481,36.815
						c-3.025,3.491-6.226,6.874-10.242,9.754c-0.374,0.269-0.894,0.183-1.162-0.192c2.96-18.395,14.04-35.523,28.575-47.186
						C1398,3351.149,1398.867,3351.686,1398.738,3352.385L1398.738,3352.385z"/>
				</g>
				<g>
					<path style="fill:#1B3D07;" d="M1442.441,3379.34c-2.503,13.943-9.7,26.018-18.481,36.816
						c-3.025,3.49-6.226,6.874-10.242,9.755c-0.374,0.267-0.894,0.182-1.162-0.192c2.961-18.395,14.041-35.522,28.575-47.187
						C1441.703,3378.103,1442.573,3378.642,1442.441,3379.34L1442.441,3379.34z"/>
				</g>
				<g>
					<path style="fill:#1B3D07;" d="M1479.751,3393.967c-2.503,13.94-9.701,26.02-18.481,36.815
						c-3.025,3.491-6.226,6.875-10.242,9.754c-0.374,0.269-0.894,0.183-1.162-0.192c2.961-18.395,14.042-35.522,28.575-47.186
						C1479.012,3392.731,1479.883,3393.269,1479.751,3393.967L1479.751,3393.967z"/>
				</g>
				<g>
					<path style="fill:#1B3D07;" d="M1357.437,3326.913c-2.501,13.941-9.701,26.017-18.479,36.815
						c-3.028,3.491-6.228,6.874-10.242,9.754c-0.376,0.269-0.896,0.182-1.165-0.192c2.966-18.398,14.039-35.521,28.575-47.187
						C1356.699,3325.676,1357.57,3326.212,1357.437,3326.913L1357.437,3326.913z"/>
				</g>
				<g>
					<path style="fill:#1B3D07;" d="M1323.633,3289.288c-2.506,13.942-9.702,26.017-18.481,36.817
						c-3.028,3.49-6.228,6.874-10.242,9.754c-0.376,0.267-0.896,0.182-1.165-0.192c2.966-18.397,14.039-35.524,28.578-47.187
						C1322.894,3288.052,1323.761,3288.59,1323.633,3289.288L1323.633,3289.288z"/>
				</g>
			</g>
			<g>
				<g>
					<path style="fill:#53BC0F;" d="M2649.463,3152.438l176.415-67.453c0,0,79.691,198.154,220.303,227.729l-171.182,80.813
						C2790.514,3393.528,2676.071,3277.781,2649.463,3152.438z"/>
				</g>
				<g>
					<path style="fill:#1B3D07;" d="M2825.878,3084.986c0,0,79.688,198.154,220.303,227.729l-171.182,80.813
						c-84.487,0-198.931-115.747-225.537-241.091L2825.878,3084.986 M2825.854,3053.589c-3.726,0-7.505,0.669-11.187,2.075
						l-176.416,67.451c-14.434,5.52-22.705,20.723-19.497,35.84c29.019,136.712,153.55,265.965,256.245,265.965
						c4.634,0,9.209-1.026,13.403-3.006l171.182-80.813c12.192-5.754,19.346-18.655,17.773-32.046
						c-1.572-13.393-11.519-24.284-24.717-27.06c-122.339-25.73-196.909-206.924-197.651-208.75
						C2850.058,3061.043,2838.295,3053.589,2825.854,3053.589L2825.854,3053.589z"/>
				</g>
				<g>
					<path style="fill:#A6E828;" d="M2703.944,3170.079l79.387-32.689c0,0,13.231,28.797,43.585,16.863
						c0,0,55.259,95.212,111.037,127.122c0,0-15.307,33.208,14.01,33.208l-70.566,39.953c0,0-28.148-22.7-50.849,0
						c0,0-89.505-51.108-126.604-139.056C2728.029,3209.556,2723.096,3179.403,2703.944,3170.079z"/>
				</g>
				<g>
					
						<ellipse transform="matrix(0.7838 -0.621 0.621 0.7838 -1408.8956 2450.1294)" style="fill:#53BC0F;" cx="2814.671" cy="3248.66" rx="24.802" ry="28.927"/>
				</g>
				<g>
					<ellipse style="fill:#53BC0F;" cx="2869.657" cy="3295.158" rx="14.399" ry="10.604"/>
				</g>
				<g>
					<ellipse style="fill:#53BC0F;" cx="2774.639" cy="3189.407" rx="14.658" ry="12.064"/>
				</g>
			</g>
			<g>
				<g>
					<path style="fill:#53BC0F;" d="M893.759,1269.902l176.618,66.919c0,0-72.233,200.992,13.129,316.578l-181.593-53.46
						C838.81,1543.764,830.291,1381.215,893.759,1269.902z"/>
				</g>
				<g>
					<path style="fill:#1B3D07;" d="M893.759,1269.903l176.616,66.917c0,0-72.231,200.994,13.13,316.58l-181.592-53.459
						C838.808,1543.763,830.292,1381.214,893.759,1269.903 M893.769,1238.506c-11.001,0-21.558,5.808-27.28,15.847
						c-69.224,121.409-62.153,300.752,14.551,369.033c3.462,3.081,7.563,5.356,12.007,6.667l181.592,53.459
						c2.935,0.862,5.918,1.279,8.867,1.279c10.063,0,19.741-4.854,25.723-13.398c7.729-11.047,7.539-25.798-0.469-36.643
						c-74.268-100.564-9.497-285.488-8.833-287.344c5.752-16.106-2.437-33.884-18.428-39.944l-176.616-66.917
						C901.24,1239.168,897.475,1238.506,893.769,1238.506L893.769,1238.506z"/>
				</g>
				<g>
					<path style="fill:#A6E828;" d="M922.722,1319.303l81.031,28.37c0,0-9.265,30.307,21.342,41.576
						c0,0-22.034,107.858-1.589,168.781c0,0-33.513,14.626-11.616,34.118l-79.272-17.079c0,0-5.931-35.672-37.98-33.81
						c0,0-32.87-97.687-2.102-188.044C914.463,1364.803,930.828,1339.002,922.722,1319.303z"/>
				</g>
				<g>
					
						<ellipse transform="matrix(0.0573 -0.9984 0.9984 0.0573 -550.7148 2319.988)" style="fill:#53BC0F;" cx="953.177" cy="1451.621" rx="28.927" ry="24.802"/>
				</g>
				<g>
					<path style="fill:#53BC0F;" d="M974.084,1532.486c-3.894,4.375-11.866,3.634-17.805-1.653
						c-5.94-5.288-7.598-13.12-3.704-17.495c3.894-4.374,11.866-3.634,17.806,1.653
						C976.32,1520.279,977.979,1528.112,974.084,1532.486z"/>
				</g>
				<g>
					<path style="fill:#53BC0F;" d="M973.623,1390.493c-4.43,4.976-12.923,4.647-18.97-0.736
						c-6.047-5.383-7.357-13.781-2.927-18.757c4.43-4.976,12.923-4.647,18.97,0.736
						C976.743,1377.118,978.053,1385.516,973.623,1390.493z"/>
				</g>
			</g>
			<g>
				<g>
					<path style="fill:#53BC0F;" d="M3418.185,1597.676l-186.64,28.941c0,0,29.099,211.586-78.324,307.017l188.724-14.745
						C3415.302,1876.981,3457.257,1719.709,3418.185,1597.676z"/>
				</g>
				<g>
					<path style="fill:#1B3D07;" d="M3418.183,1597.676c39.072,122.034-2.881,279.304-76.24,321.213l-188.721,14.744
						c107.422-95.43,78.325-307.017,78.325-307.017L3418.183,1597.676 M3418.202,1566.282c-1.597,0-3.208,0.122-4.829,0.374
						l-186.636,28.94c-16.924,2.625-28.623,18.33-26.289,35.298c0.259,1.921,25.386,196.245-68.076,279.27
						c-10.078,8.955-13.315,23.347-8.037,35.757c4.956,11.648,16.372,19.104,28.877,19.104c0.815,0,1.631-0.032,2.456-0.095
						l188.721-14.744c4.619-0.361,9.102-1.741,13.125-4.041c89.17-50.94,133.179-224.941,90.566-358.042
						C3443.866,1574.949,3431.655,1566.282,3418.202,1566.282L3418.202,1566.282z"/>
				</g>
				<g>
					<path style="fill:#A6E828;" d="M3379.63,1640.019l-85.146,10.996c0,0,2.796,31.568-29.479,36.262
						c0,0-0.752,110.083-33.355,165.46c0,0,29.763,21.241,4.308,35.783l81.09-0.313c0,0,13.181-33.674,44.152-25.224
						c0,0,52.364-88.776,40.951-183.543C3378.3,1686.244,3367.625,1657.616,3379.63,1640.019z"/>
				</g>
				<g>
					
						<ellipse transform="matrix(0.1504 -0.9886 0.9886 0.1504 1079.6838 4782.6968)" style="fill:#53BC0F;" cx="3322.466" cy="1763.177" rx="28.927" ry="24.802"/>
				</g>
				<g>
					
						<ellipse transform="matrix(0.8683 -0.496 0.496 0.8683 -473.8434 1876.9568)" style="fill:#53BC0F;" cx="3297.787" cy="1830.826" rx="14.399" ry="10.604"/>
				</g>
				<g>
					<path style="fill:#53BC0F;" d="M3315.105,1699.141c3.305,5.785,11.683,7.219,18.712,3.204
						c7.029-4.016,10.048-11.961,6.743-17.746c-3.305-5.785-11.682-7.219-18.712-3.204
						C3314.82,1685.411,3311.8,1693.356,3315.105,1699.141z"/>
				</g>
			</g>
		</g>
	</g>
</g>
</svg>
