<?xml version="1.0" encoding="utf-8"?>
<!-- Generator: Adobe Illustrator 27.5.0, SVG Export Plug-In . SVG Version: 6.00 Build 0)  -->
<svg version="1.1" id="Layer_1" xmlns="http://www.w3.org/2000/svg" xmlns:xlink="http://www.w3.org/1999/xlink" x="0px" y="0px"
	 viewBox="0 0 4000 4000" style="enable-background:new 0 0 4000 4000;" xml:space="preserve">
<g>
	<g>
		<!-- <rect y="0" style="fill:#FFD194;" width="4000" height="4000"/> -->
	</g>
	<g id="Teen_dragon">
		<g style="opacity:0.2;">
			<ellipse style="fill:#2D0106;" cx="1833.95" cy="3407.482" rx="1068.692" ry="128.48"/>
		</g>
		<g id="Body_3_">
			<g>
				<g>
					<path style="fill:#2D0106;" d="M2184.24,3083.462l1.573,4.746c0.713-0.235,17.68-5.913,32.32-15.674l-2.774-4.16
						C2201.296,3077.754,2184.411,3083.408,2184.24,3083.462z"/>
				</g>
			</g>
			<g>
				<g>
					<g>
						<g>
							<path style="fill:#FFFFFF;" d="M2090.104,3283.365c-22.348-24.992-52.146-14.899-52.146-14.899
								c-10.573,16.341-42.293,58.635-37.488,73.052c4.792,14.375,22.021,3.909,96.433,0.036
								C2100.969,3323.083,2103.127,3297.927,2090.104,3283.365z"/>
						</g>
						<g>
							<path style="fill:#F7941E;" d="M2277.518,3311.264l11.455,12.41c0,0,11.594-41.504,54.51-28.051l5.383,3.915
								c0,0,3.171-17.616,20.713-22.422l0,0c0-11.535,0.962-14.418-34.604-41.332c-35.565-26.914-89.393-79.781-118.23-165.33
								c34.603-23.069,148.99-97.083,150.911-154.756l-341.713,76.897c0,0-57.672,44.697-57.672,82.184s15.86,44.697,38.928,80.742
								c23.071,36.046,35.565,66.804,37.488,74.495c1.922,7.689-14.417,10.573-6.729,38.448c0,0,29.798-10.093,52.146,14.899
								c13.022,14.563,10.865,39.719,6.8,58.189c0.22-0.011,0.428-0.025,0.65-0.036c67.813-3.478,81.375,22.137,128.154,34.177
								C2225.708,3375.659,2222.717,3302.639,2277.518,3311.264z"/>
						</g>
						<g style="opacity:0.4;">
							<path style="fill:#FFFFFF;" d="M2240.437,3136.25l-15.698-8.942c0,0-8.613-4.271-20.301,2.489
								c10.166,20.203,56.102,90.203,92.509,116.036c36.407,25.833,46.537,49.79,46.537,49.79l14.87,12.036l11.226-30.543
								L2240.437,3136.25z"/>
						</g>
						<g>
							<path style="fill:#FFFFFF;" d="M2369.579,3277.116c-17.542,4.806-20.713,22.422-20.713,22.422l-5.383-3.915
								c-42.917-13.453-54.51,28.051-54.51,28.051l-11.455-12.41c-54.801-8.625-51.811,64.395-51.81,64.431
								c4.94,1.271,10.244,2.393,16.028,3.311c60.557,9.612,84.587,19.224,91.316,14.418c6.729-4.806-8.651-24.991-8.651-24.991
								s49.984,14.418,73.053,13.457c8.651,1.922,0-28.837,0-28.837s36.525-2.884,43.254-8.65
								C2447.437,3338.635,2412.833,3306.915,2369.579,3277.116z"/>
						</g>
						<g style="opacity:0.2;">
							<path style="fill:#2D0106;" d="M2031.687,3013.606c0,0-27.5,40.476-23.75,64.685s50,74.209,68.75,117.959
								s3.458,47.933,0,61.25s-47.5,80.204-47.5,80.204s98.75-5.489,122.5,4.653c23.75,10.143,162.5,46.393,162.5,46.393v-30
								l87.104,16.945l-139.654-77.557l23.928,39.567c0,0-46.271-27.704-101.325-95.204c-55.053-67.5,14.799-124.134,40.498-115.192
								c-17.107-37.969,0.941-62.8,0.941-62.8s99.757-48.746,124.757-119.752C2312.937,2955,2067.937,3017.212,2031.687,3013.606z"
								/>
						</g>
					</g>
					<g>
						<path style="fill:#2D0106;" d="M2384.197,3269.013c-1.739-13.847-10.142-22.461-40.171-45.19
							c-28.667-21.694-79.824-69.048-109.224-147.377c69.15-46.368,146.025-105.601,147.847-160.249l0.65-19.395l-363.901,81.895
							l-2.641,2.045c-6.499,5.035-63.487,50.459-63.487,94.039c0,32.29,10.982,46.962,24.883,65.546
							c4.897,6.538,10.439,13.946,16.416,23.281c19.248,30.073,30.61,55.82,34.355,66.25c-5.728,8.354-10.176,18.628-7.031,35.669
							c-0.938,1.386-1.948,2.866-3.007,4.423c-26.431,38.765-38.057,60.069-32.642,76.309c6.91,20.737,25.796,18.544,51.963,15.498
							c14.068-1.641,33.34-3.887,60.117-5.259c40.435-2.061,58.926,6.768,80.406,17.002c15.766,7.514,33.633,16.031,60.655,20.318
							c25.014,3.969,43.833,7.969,57.568,10.888c14.165,3.008,23.653,5.024,30.894,5.024c5.611,0,9.878-1.211,13.926-4.102
							c4.204-2.998,6.953-7.544,7.744-12.798c0.122-0.815,0.196-1.641,0.22-2.48c15.625,3.506,34.155,6.812,47.031,6.567
							c5.279,0.381,10.376-1.499,14.024-5.356c2.373-2.51,7.256-7.671,4.854-25.313c17.778-2.354,29.463-5.86,34.829-10.459
							c4.141-3.55,6.348-8.794,6.055-14.385C2455.52,3322.378,2413.273,3289.478,2384.197,3269.013z M2396.271,3338.101
							l-18.203,1.44l4.946,17.573c0.816,2.9,1.563,6.152,2.139,9.16c-18.863-2.178-45.865-9.16-56.597-12.256l-39.582-11.406
							l23.303,34.658c-2.925-0.601-6.021-1.255-9.092-1.909c-14.058-2.989-33.315-7.08-59.102-11.172
							c-22.734-3.608-37.168-10.489-52.451-17.769c-20.894-9.956-42.427-20.224-81.998-20.224c-4.082,0-8.364,0.112-12.846,0.342
							c-27.754,1.421-47.578,3.73-62.055,5.42c-6.993,0.815-14.141,1.646-18.858,1.875c4.155-12.314,21.562-37.842,27.793-46.982
							c2.71-3.969,5.088-7.466,6.88-10.235l3.657-5.649l-1.787-6.485c-3.169-11.479-0.996-14.526,1.748-18.379
							c2.588-3.633,7.407-10.385,5.073-19.731c-2.236-8.936-15.264-41.216-39.404-78.936c-6.568-10.259-12.461-18.135-17.661-25.088
							c-12.983-17.344-18.906-25.258-18.906-47.568c0-20.958,29.229-52.031,49.312-68.301l314.092-70.684
							c-15.425,30.381-60.45,70.479-134.405,119.619l-13.408,8.936l3.671,10.893c31.153,92.417,90.679,147.749,123.389,172.505
							c17.881,13.531,27.486,21.865,28.54,24.761c0.127,0.469,0.122,2.329,0.117,3.687v8.799l6.49,4.473
							c28.027,19.306,47.168,35.674,57.422,45.947C2411.916,3336.499,2403.913,3337.495,2396.271,3338.101z"/>
					</g>
				</g>
				<g>
					<g>
						<path style="fill:#2D0106;" d="M2261.637,3298.137c0,0,27.415,47.546,49.7,78.142l0.723,0.991l20.195-14.737l-0.713-0.976
							C2308.144,3329.434,2261.637,3298.137,2261.637,3298.137z"/>
					</g>
				</g>
				<g>
					<g>
						<path style="fill:#2D0106;" d="M2324.518,3283.162c0,0,48.835,37.671,54.9,61.174l29.763,4.395
							c-1.918-5.208-7.267-14.174-16.204-24.86C2379.968,3308.313,2324.518,3283.162,2324.518,3283.162z"/>
					</g>
				</g>
			</g>
			<g>
				<g>
					<g>
						<g>
							<path style="fill:#FFFFFF;" d="M2765.602,2815.251c-12.978-35.565-49.708-26.948-49.708-26.948l-32.517,4.253l23.59,36.633
								c0,0,5.768,44.216,9.613,64.401c0,7.69,26.433-20.666,36.045-38.929C2762.237,2836.398,2765.602,2815.251,2765.602,2815.251
								s12.495,43.255,16.821,65.363c4.325,22.108,15.859,8.17,33.642-20.186c17.782-28.355,21.627-61.037,21.627-61.037
								C2802.608,2761.904,2768.485,2797.949,2765.602,2815.251z"/>
						</g>
						<g>
							<path style="fill:#F7941E;" d="M2906.9,2792.663L2906.9,2792.663L2906.9,2792.663c5.768-10.573,9.612-43.255-21.147-125.92
								c-22.777-61.216-57.68-120.852-102.365-158.607c0,0-12.74-92.271-57.438-182.385l-75.696,245.832L2607,2673.952
								l76.376,118.604l32.517-4.253c0,0,36.731-8.617,49.708,26.948c2.883-17.302,37.006-53.347,72.091-15.86
								C2845.863,2786.415,2875.18,2759.02,2906.9,2792.663z"/>
						</g>
						<g style="opacity:0.4;">
							<path style="fill:#FFFFFF;" d="M2743.736,2383.333l-13.746,60.833l6.873,46.55l-8.509,1.441
								c0,0,80.832,73.676,116.666,169.509c35.833,95.833,35,139.834,35,139.834h15.862c0,0,13.305-44.001-5.862-104.834
								c-19.167-60.833-83.263-165.395-106.632-188.531C2771.687,2453.333,2743.736,2383.333,2743.736,2383.333z"/>
						</g>
						<g style="opacity:0.2;">
							<path style="fill:#2D0106;" d="M2699.317,2520.811l-3.066,48.301c-5.879,13.901-7.957,59.639,33.739,107.139
								s78.718,106.816,64.582,189.658c-14.135-13.408-24.411-34.434-24.411-34.434l-53.582,62.116c0,0,23.857-176.09-74.893-243.59
								C2657.937,2625,2699.317,2520.811,2699.317,2520.811z"/>
						</g>
						<g>
							<path style="fill:#FFFFFF;" d="M2906.9,2792.663c-31.72-33.643-61.037-6.248-69.208,6.729c0,0,14.418,37.968,17.782,56.231
								c3.365,18.263,0.481,40.851,15.86,25.952C2886.715,2866.677,2903.055,2847.452,2906.9,2792.663L2906.9,2792.663z"/>
						</g>
					</g>
					<g>
						<path style="fill:#2D0106;" d="M2797.38,2500.406c-3.559-21.822-18.555-101.807-57.993-181.319l-16.709-33.687l-86.533,281.04
							L2590.1,2675.41l102.431,159.073c1.416,10.64,5.869,43.535,9.16,61.099c0.761,6.767,5.385,12.198,11.987,13.833
							c1.031,0.254,2.075,0.371,3.14,0.371c17.583,0,39.692-32.963,46.782-44.336c1.646,6.656,3.105,12.959,4.101,18.047
							c2.608,13.31,8.711,20.948,18.155,22.7c15.943,2.998,27.383-13.032,42.92-37.798c3.877-6.187,7.148-12.534,9.907-18.74
							c0.879,3.252,1.587,6.216,2.041,8.677c0.669,3.643,1.074,7.744,1.47,11.709c1.25,12.652,2.544,25.738,14.897,30.264
							c7.935,2.905,16.23,0.234,24.682-7.959c16.938-16.411,35.332-38.706,39.878-95.805c9.858-23.487,2.358-69.99-21.841-135.03
							C2874.572,2593.677,2838.327,2536.733,2797.38,2500.406z M2893.732,2785.479l-1.567,2.871l-0.225,3.262
							c-2.666,37.924-11.592,56.484-20.688,68.076c-0.279-2.231-0.605-4.517-1.025-6.787c-3.57-19.375-17.905-57.231-18.51-58.838
							l-17.842-31.25l-11.074,34.795c-0.04,0.298-3.78,29.863-19.438,54.854c-3.536,5.635-6.431,10.025-8.79,13.447
							c-5.375-22.969-14.121-53.311-14.561-54.824l-17.295-38.844l-9.746,36.357c-2.211,4.483-5.385,23.438-13.617,39.078
							c-2.862,5.429-7.49,11.875-12.193,17.68c-2.773-18.614-5.283-37.817-5.322-38.105l-0.434-3.344l-97.505-151.417l40.176-95.068
							l64.517-209.278c30.234,74.096,39.834,141.27,39.941,142.051l0.791,5.688l4.385,3.706
							c38.833,32.817,73.633,86.933,97.989,152.382C2905.348,2762.431,2894.226,2784.58,2893.732,2785.479z"/>
					</g>
				</g>
				<g>
					<g>
						<path style="fill:#2D0106;" d="M2728.354,2492.158c16.006,6.226,31.802,15.865,46.938,28.653l16.133-19.102
							C2761.999,2483.438,2728.354,2492.158,2728.354,2492.158z"/>
					</g>
				</g>
			</g>
			<g>
				<g>
					<g>
						<path style="fill:#F7941E;" d="M2045.649,1766.081c0,0,19.224-21.147,5.766-49.952
							c-13.457-28.806-49.983-52.898-164.367-56.743c-114.386-3.844-284.521,5.767-323.451,7.69
							c-38.929,1.922-50.464,2.883-46.619,23.069c3.845,20.186,44.216,17.302,64.402,26.913
							c20.185,9.613,28.837,56.713,28.837,56.713s211.467-28.837,236.46-28.837c24.991,0,59.595,11.535,109.579,92.277
							c49.983,80.742,249.916,261.451,249.916,261.451l13.457-107.657C2092.748,1929.489,2045.649,1766.081,2045.649,1766.081z"/>
					</g>
					<g style="opacity:0.4;">
						<path style="fill:#FFFFFF;" d="M1546.687,1697.5c0,0,250.731-17.473,372.866-10.403c122.134,7.069,117.42,53.944,109.36,75.09
							c3.607,39.479,35.817,144.479,123.462,211.146c2.645-19.167,1.528-36.816,1.528-36.816s-94.598-91.337-106.74-165.594
							c14.524-24.257,24.231-80.968-65.622-98.446c-89.853-17.478-460.434,0.995-460.434,0.995S1504.187,1680.833,1546.687,1697.5z"
							/>
					</g>
					<g>
						<path style="fill:#2D0106;" d="M2062.199,1768.562c6.533-10.876,15.113-32.448,2.808-58.784
							c-19.512-41.75-74.244-61.914-177.456-65.386c-105.586-3.549-255.938,4.177-312.535,7.083l-12.163,0.618
							c-30.005,1.484-46.538,2.302-56.01,14.345c-6.963,8.853-5.962,19.375-4.6,26.514c4.395,23.091,29.654,27.908,49.947,31.777
							c8.54,1.631,17.368,3.316,22.739,5.871c7.764,3.699,17.051,27.146,20.537,45.882l2.588,14.087l14.189-1.933
							c84.6-11.538,216.846-28.702,234.434-28.702c12.061,0,44.097,0,96.826,85.174c50.518,81.611,244.384,257.246,252.612,264.682
							l21.373,19.316l18.359-146.907l-9.672-4.689C2121.076,1926.555,2072.527,1799.089,2062.199,1768.562z M2194.895,2067.945
							c-52.627-48.746-187.129-176.018-225.884-238.628c-54.531-88.086-94.023-99.383-122.334-99.383
							c-22.397,0-175.278,20.422-224.946,27.139c-4.795-17.479-15.034-44.571-33.901-53.557c-8.858-4.219-19.614-6.27-30.02-8.255
							c-8.34-1.589-23.857-4.551-26.094-7.922c-0.176-0.918-0.283-1.656-0.347-2.239c5.859-1.704,20.732-2.439,32.964-3.042
							l12.221-0.622c56.25-2.891,205.684-10.578,309.99-7.058c117.295,3.943,142.515,29.341,151.284,48.098
							c8.74,18.714-2.138,32.182-3.281,33.516l-5.635,6.197l2.319,8.05c1.948,6.76,48.081,162.529,172.212,229.336
							L2194.895,2067.945z"/>
					</g>
				</g>
				<g>
					<g>
						<path style="fill:#EF4136;" d="M761.082,2061.175c-16.238,0-50.085,43.255-86.131,106.696
							c-36.046,63.44-34.604,93.719-14.418,99.486c20.185,5.768,63.44,27.395,63.44,27.395h28.837c0,0,23.069-10.093,54.789-21.627
							c31.72-11.534,25.953-25.953,14.418-77.859C810.483,2143.36,777.321,2061.175,761.082,2061.175z"/>
					</g>
					<g style="opacity:0.4;">
						<path style="fill:#FFFFFF;" d="M648.562,2228.125l11.329,6.89c4.482-15.983,52.81-101.341,93.484-127.515
							c10.813-6.25,55.712,91.531,63.574,146.078c13.488-9.203,7.863-28.578,7.863-28.578s-33.084-123.899-63.729-163.825
							C729.187,2088.125,648.562,2228.125,648.562,2228.125z"/>
					</g>
					<g style="opacity:0.2;">
						<path style="fill:#2D0106;" d="M704.812,2278.75c0,0-36.385-12.94-37.568-22.407c-1.182-9.468,13.818-53.843,13.818-53.843
							c2.5,16.875,28.125,8.75,31.25,5s50.246,1.819,50.246,1.819c5.01,13.105,31.629,4.431,33.504-12.444
							c6.875,23.75,13.75,65-15.625,76.875c-11.875-16.875-33.125-58.75-33.125-58.75s-25.625-1.875-28.125,1.25
							S704.812,2278.75,704.812,2278.75z"/>
					</g>
					<g>
						<path style="fill:#2D0106;" d="M834.22,2192.549c-0.322-1.436-36.347-143.872-73.139-143.872
							c-21.753,0-54.389,38.027-96.997,113.018c-26.596,46.806-35.512,79.389-27.251,99.609
							c3.716,9.097,10.727,15.347,20.269,18.076c18.833,5.376,60.859,26.343,61.279,26.553l2.641,1.318h31.787h2.612l2.397-1.05
							c0.225-0.097,23.12-10.083,54.053-21.328c39.902-14.507,34.468-38.57,24.61-82.256L834.22,2192.549z M803.327,2261.377
							c-26.196,9.527-46.333,17.979-53.1,20.874h-23.33c-9.937-4.893-44.619-21.679-62.93-26.914c-2.115-0.6-3.198-1.548-3.99-3.486
							c-1.801-4.414-5.263-23.062,25.845-77.802c37.822-66.573,64.625-95.752,73.882-99.908
							c11.933,10.845,39.165,74.6,50.113,123.833l2.28,10.152C822.536,2254.395,821.452,2254.785,803.327,2261.377z"/>
					</g>
				</g>
				<g>
					<g>
						<path style="fill:#EF4136;" d="M876.327,2337.044c-5.768-5.286,10.573-26.913,3.844-32.681
							c-6.728-5.767-88.913,41.333-88.913,41.333c12.015,45.658,68.727,92.276,68.727,92.276
							c38.449-45.177,53.348-99.486,48.542-103.812C903.721,2329.835,882.094,2342.332,876.327,2337.044z"/>
					</g>
					<g style="opacity:0.4;">
						<path style="fill:#FFFFFF;" d="M818.746,2357.5l33.878-19.688c0,0,2.813,19.063,24.375,21.563
							c21.563,2.5-14.062,60.085-14.062,60.085s34.375-41.647,41.25-77.897c-17.813-1.563-27.188-7.5-27.188-7.5l-0.625-26.812
							l-70.034,36.844L818.746,2357.5z"/>
					</g>
					<g>
						<path style="fill:#2D0106;" d="M916.892,2324.873c-7.266-6.538-16.714-4.023-25.918-1.392
							c3.184-8.804,6.548-20.713-2.666-28.608c-6.611-5.654-13.443-11.489-103.266,39.98l-8.311,4.761l2.437,9.268
							c12.901,48.999,70.44,96.738,72.881,98.75l9.492,7.802l7.969-9.361c23.403-27.5,36.714-56.079,42.568-70.674
							C928.249,2335.097,920.29,2327.929,916.892,2324.873z M858.464,2419.893c-14.356-13.379-41.128-40.801-52.124-68.374
							c21.279-11.924,44.272-23.892,58.857-30.337c-2.837,8.189-5.02,18.018,2.681,25.079c7.588,6.958,17.793,4.702,27.139,2.065
							C890.783,2363.906,879.245,2392.368,858.464,2419.893z"/>
					</g>
				</g>
				<g>
					<g>
						<path style="fill:#EF4136;" d="M1041.176,2441.097c-10.093,9.372-15.861,9.372-20.186-3.125
							c-4.326-12.495-7.931-29.317-24.512-9.131c-16.581,20.186-59.115,68.487-59.115,68.487s24.992,26.194,70.65,34.845
							c45.659,8.651,70.65,6.969,70.65,6.969s-5.767-48.301-14.418-87.231C1055.594,2412.981,1051.268,2431.725,1041.176,2441.097z"
							/>
					</g>
					<g style="opacity:0.4;">
						<path style="fill:#FFFFFF;" d="M970.437,2487.5l30-32.065c0,0,18.75,25.489,43.334,10.86
							c9.583,15.789,14.167,39.413,14.167,39.413l12.105-4.385l-16.688-63.351l-23.333,9.111l-20.236-23.75l-50.598,59.583
							L970.437,2487.5z"/>
					</g>
					<g>
						<path style="fill:#2D0106;" d="M1076.447,2449.199c-4.458-20.063-8.633-30.684-19.067-33.052
							c-10.132-2.285-16.553,5.854-20.371,10.738c-1.451,1.851-2.955,3.764-4.341,5.053c-0.137,0.127-0.268,0.249-0.401,0.366
							l-0.434-1.289c-3.018-9.077-7.154-21.513-19.253-23.755c-11.269-2.104-20.122,6.782-25.761,13.647
							c-16.255,19.79-58.409,67.681-58.833,68.159l-7.573,8.599l7.91,8.291c1.133,1.191,28.325,29.204,77.364,38.496
							c33.667,6.382,56.596,7.32,67.178,7.32c4.091,0,6.337-0.141,6.641-0.161l13.13-0.884l-1.558-13.067
							C1090.837,2535.659,1085.134,2488.286,1076.447,2449.199z M1010.344,2519.893c-26.162-4.961-44.995-16.313-55.19-23.877
							c13.295-15.171,38.814-44.419,50.981-59.238c0.313-0.381,0.611-0.733,0.894-1.065c0.4,1.143,0.776,2.271,1.084,3.194
							l1.064,3.159c1.28,3.701,5.181,14.966,16.031,17.671c9.966,2.504,18.315-3.755,24.472-9.478
							c0.376-0.347,0.738-0.698,1.094-1.055c0.396,1.587,0.816,3.384,1.27,5.415c5.61,25.259,10.034,54.883,12.373,71.948
							C1053.069,2526.084,1034.748,2524.517,1010.344,2519.893z"/>
					</g>
				</g>
				<g>
					<g>
						<path style="fill:#EF4136;" d="M1265.019,2424.515c-40.163-27.978-35.324-7.569-34.964-3.337
							c0.36,4.232,0.722,15.232-2.162,15.954c-2.884,0.721-10.333-6.849-15.62-11.175c-5.287-4.325-14.32-8.605-18.263,2.403
							c-11.535,32.201-18.744,94.199-18.744,94.199l150.31-39.65C1325.576,2482.91,1297.1,2446.864,1265.019,2424.515z"/>
					</g>
					<g style="opacity:0.4;">
						<path style="fill:#FFFFFF;" d="M1196.374,2494.063l9.688-38.75c0,0,13.75,9.063,29.375,3.125s16.25-16.875,16.25-16.875
							s29.688,15.938,37.188,29.375c7.5-0.313,10.812-9.915,10.812-9.915l-60.5-47.273l-13.125,25.625
							c0,0-27.813-14.121-26.875-13.936s-16.563,72.061-16.563,72.061L1196.374,2494.063z"/>
					</g>
					<g>
						<path style="fill:#2D0106;" d="M1272.16,2414.258c-22.998-16.026-36.441-20.108-46.367-14.141
							c-4.942,2.974-7.749,7.691-8.398,14.068c-6.948-4.756-14.214-6.392-20.728-4.575c-3.823,1.059-10.781,4.36-14.424,14.536
							c-11.884,33.169-19.091,94.38-19.394,96.968l-2.114,18.208l186.479-49.189l-11.827-14.971
							C1334.177,2473.628,1305.383,2437.397,1272.16,2414.258z M1190.134,2505.708c2.817-19.316,7.91-49.707,14.516-69.834
							c1.079,0.894,2.251,1.924,3.443,2.973c7.661,6.734,14.262,12.563,22.841,10.411c11.045-2.769,12.207-15.328,11.924-23.819
							c3.457,1.792,8.33,4.677,15.014,9.336c17.603,12.26,34.302,29.146,45.205,41.143L1190.134,2505.708z"/>
					</g>
				</g>
				<g>
					<g>
						<path style="fill:#EF4136;" d="M1446.329,2309.169c0.72,15.14-1.442,17.302-20.186,10.813
							c-18.744-6.488-20.186-8.65-16.581,35.325c3.604,43.976,9.371,82.664,9.371,82.664l132.648-92.757
							c0,0-41.092-30.279-73.533-44.697C1445.608,2286.101,1445.608,2294.031,1446.329,2309.169z"/>
					</g>
					<g style="opacity:0.4;">
						<path style="fill:#FFFFFF;" d="M1426.999,2400.313l1.563-53.75c0,0,28.761,8.217,40.807-25
							c11.693,3.125,40.755,20.625,40.755,20.625l8.438-10.625l-68.125-32.813l-2.813,24.375l-39.637,3.438l14.324,73.75H1426.999z"
							/>
					</g>
					<g>
						<path style="fill:#2D0106;" d="M1483.127,2289.096c-18.257-8.11-31.484-11.826-40.996-5.317
							c-9.087,6.22-8.721,16.895-8.306,25.585c-1.03-0.327-2.221-0.718-3.594-1.191l-1.992-0.694
							c-8.579-3.008-17.461-6.104-25.229-0.083c-9.326,7.207-8.325,19.419-5.903,48.93c3.594,43.882,9.404,83.096,9.463,83.487
							l2.979,19.976l163.467-114.312l-14.014-10.327C1557.278,2333.882,1516.428,2303.896,1483.127,2289.096z M1428.562,2415.987
							c-1.958-15.323-4.58-37.793-6.543-61.699c-0.542-6.641-1.328-16.245-1.509-23.027l1.548,0.537
							c11.308,3.916,21.313,6.66,29.385,0.62c8.213-6.147,7.71-16.792,7.373-23.843c-0.029-0.605-0.063-1.362-0.093-2.158
							c2.934,0.874,7.446,2.5,14.248,5.522c19.341,8.599,42.319,23.379,56.831,33.252L1428.562,2415.987z"/>
					</g>
				</g>
				<g>
					<g>
						<path style="fill:#EF4136;" d="M1629.441,2161.142c2.885,12.496,7.691,28.836-8.651,23.069
							c-16.341-5.767-37.487-7.689-36.526,10.573c0.961,18.264,4.806,58.635,20.186,111.501c0,0,102.85-59.595,148.028-99.005
							C1622.712,2112.12,1626.557,2148.646,1629.441,2161.142z"/>
					</g>
					<g style="opacity:0.4;">
						<path style="fill:#FFFFFF;" d="M1601.062,2260.625l10-5.625v-47.903c0,0,20.625,4.778,33.75-6.472s8.75-32.5,8.75-32.5
							l47.5,29.048l14.375-6.548c0,0-81.875-58.75-81.25-45s-4.375,38.75-4.375,38.75l-44.375,1.875L1601.062,2260.625z"/>
					</g>
					<g>
						<path style="fill:#2D0106;" d="M1625.52,2135.02c-5.913,3.896-12.149,12.075-8.257,28.936l0.542,2.329
							c0.274,1.157,0.625,2.637,0.962,4.185c-11.177-3.121-26.817-5.196-37.475,2.773c-6.626,4.956-10,12.842-9.507,22.203
							c1.04,19.746,5.108,60.859,20.664,114.331l4.458,15.327l13.809-8.003c4.243-2.456,104.419-60.654,149.98-100.401
							l11.768-10.263l-12.593-9.234C1664.748,2127.447,1639.089,2126.089,1625.52,2135.02z M1612.151,2287.212
							c-11.328-43.384-14.521-76.367-15.406-93.086c-0.02-0.454-0.015-0.805,0.005-1.054c2.281-0.732,9.189-0.85,19.878,2.925
							c11.431,4.038,18.345,0.835,22.124-2.554c9.199-8.257,5.977-21.919,3.389-32.895l-0.518-2.212
							c-0.18-0.781-0.307-1.446-0.4-2.012c7.183,0.889,29.634,7.91,90.82,51.597
							C1695.832,2236.353,1638.435,2271.504,1612.151,2287.212z"/>
					</g>
				</g>
				<g>
					<g>
						<path style="fill:#EF4136;" d="M1897.621,2075.594l-91.316-6.729c-4.806,51.906-10.573,111.501-10.573,111.501l166.29-45.177
							C1921.651,2084.244,1897.621,2075.594,1897.621,2075.594z"/>
					</g>
					<g style="opacity:0.4;">
						<polygon style="fill:#FFFFFF;" points="1916.062,2112.813 1926.999,2122.898 1939.997,2120.313 1924.812,2107.813 						"/>
					</g>
					<g style="opacity:0.4;">
						<polygon style="fill:#FFFFFF;" points="1804.812,2151.875 1818.874,2146.563 1822.312,2114.688 1809.905,2103.438 						"/>
					</g>
					<g>
						<path style="fill:#2D0106;" d="M1901.853,2063.833l-1.611-0.576l-105.254-7.759l-1.128,12.217
							c-4.805,51.875-10.572,111.44-10.572,111.445l-1.743,18.013l202.046-54.888l-11.772-14.858
							C1930.432,2075.196,1904.656,2064.844,1901.853,2063.833z M1809.905,2163.56c1.836-19.072,4.849-50.615,7.715-81.323
							l76.85,5.659c4.531,2.324,20.708,11.875,45.527,40.327L1809.905,2163.56z"/>
					</g>
				</g>
				<g>
					<g>
						<path style="fill:#EF4136;" d="M2219.628,1911.946c-38.448,0-43.735,4.325-40.13,15.139
							c3.604,10.814,18.743,28.837-5.768,21.628c-24.511-7.209-22.348,8.651-14.418,39.65c7.93,30.999,20.186,80.502,20.186,80.502
							c111.741-57.193,108.137-152.594,108.137-152.594S2258.077,1911.946,2219.628,1911.946z"/>
					</g>
					<g style="opacity:0.4;">
						<path style="fill:#FFFFFF;" d="M2187.707,2038.125l-9.146-64.792c0,0,26.054-0.208,31.778-15.208
							c5.722-15,4.264-21.875,4.264-21.875l47.083,3.75l8.333-23.75l-85.208,2.464l2.604,27.895l-28.539,2.991l13.675,74.151
							L2187.707,2038.125z"/>
					</g>
					<g>
						<path style="fill:#2D0106;" d="M2299.733,1905.41l-10.288-1.506c-1.246-0.184-30.904-4.458-69.814-4.458
							c-27.627,0-42.955,1.806-50.073,11.679c-3.882,5.385-4.527,12.083-1.919,19.912c0.43,1.282,0.938,2.561,1.495,3.831
							c-6.402-0.889-14.712-0.562-20.957,5.461c-10.484,10.12-7.193,26.814-0.972,51.133c7.92,30.954,20.161,80.398,20.161,80.408
							l3.79,15.307l14.038-7.182c117.485-60.132,115.093-159.973,114.932-164.194L2299.733,1905.41z M2187.707,2050.059
							c-4.272-17.173-11.177-44.819-16.284-64.793c-1.285-5.029-4.79-18.728-5.059-25.503c0.981,0.181,2.241,0.472,3.843,0.943
							c5.522,1.629,18.471,5.428,26.079-3.662c7.354-8.792,1.968-19.578-1.967-27.453c-0.625-1.25-1.26-2.522-1.802-3.682
							c4.106-0.732,11.992-1.462,27.115-1.462c23.095,0,43.042,1.618,54.844,2.846
							C2271.697,1950.733,2257.677,2008.344,2187.707,2050.059z"/>
					</g>
				</g>
				<g>
					<g>
						<path style="fill:#EF4136;" d="M2184.064,1737.245c-58.635,67.285-49.983,79.781-30.161,77.859
							c19.823-1.922,29.2-1.922,21.51,4.806c-19.224,20.185-21.146,36.526,11.535,39.41c32.681,2.884,61.518,3.845,111.501,0
							l-15.379-88.432L2184.064,1737.245z"/>
					</g>
					<g style="opacity:0.4;">
						<polygon style="fill:#FFFFFF;" points="2159.187,1780.733 2175.026,1786.967 2159.187,1805 2145.135,1805 2156.999,1784.688 
													"/>
					</g>
					<g style="opacity:0.2;">
						<path style="fill:#2D0106;" d="M2166.364,1765.12l-7.177,15.613c0,0,57.5,14.267,70.833,76.767c11.667,0.833,40,2.5,40,2.5
							l-17.5-75.833L2166.364,1765.12z"/>
					</g>
					<g>
						<path style="fill:#2D0106;" d="M2180.148,1722.71l-5.508,6.321c-47.412,54.409-52.617,74.316-45.844,87.468
							c2.954,5.747,9.712,12.295,24.981,11.157c-4.029,7.327-6.519,16.086-3.228,24.809c6.318,16.748,28.129,18.672,35.297,19.304
							c17.935,1.582,34.663,2.59,54.097,2.59c16.914,0,35.878-0.765,59.462-2.578l13.716-1.054l-19.009-109.287L2180.148,1722.71z
							 M2188.044,1846.868c-9.156-0.808-12.744-2.586-13.906-3.357c0.352-1.533,2.021-6.182,9.996-14.631
							c8.198-7.485,6.879-14.546,5.332-18.128c-4.83-11.189-18.233-9.883-36.768-8.091c-0.112,0.01-0.215,0.02-0.322,0.03
							c2.207-6.118,9.79-20.515,35.655-50.899l83.994,28.545l11.738,67.487C2242.995,1850.429,2217.146,1849.433,2188.044,1846.868z
							"/>
					</g>
				</g>
			</g>
			<g>
				<g>
					<path style="fill:#FFBC73;" d="M1878.877,1765.12l-436.874,34.43l-34.604,28.049c58.634,16.341,106.695,44.216,140.338,79.781
						c33.643,35.565,51.656,119.521,53.222,150.115l34.693-6.441c25.869-6.821,74.531-15.502,124.514,6.441
						c49.983,21.943,91.797,76.733,91.797,76.733h9.612c0,0,38.93-24.511,78.339-44.697c39.411-20.186,110.541-9.132,129.284,17.782
						c2.884,0,75.937-18.744,75.937-18.744l-176.384-200.414L1878.877,1765.12z"/>
				</g>
				<g style="opacity:0.2;">
					<path style="fill:#2D0106;" d="M1509.187,1814.912c37.5,27.588,95.464,48.765,113.75,195.088
						c5,3.75,68.618,18.408,68.618,18.408s56.099-20.341,89.99,0c33.892,20.342,58.313,69.496,58.313,69.496
						s44.798,0.202,105.188-10.726c60.39-10.927,111.64,19.073,111.64,19.073l54.19-19.073l-133.46-152.496l-102.466-147.452
						C1874.951,1787.229,1665.437,1782.324,1509.187,1814.912z"/>
				</g>
				<g>
					<path style="fill:#2D0106;" d="M1886.052,1749.507l-449.873,35.457l-60.801,49.285l27.993,7.8
						c55.01,15.33,101.162,41.487,133.467,75.64c29.111,30.774,47.465,107.874,49.141,140.573l52.412,7.54l1.084-0.245
						c42.173-11.123,80.752-9.209,114.663,5.674c45.738,20.078,85.513,71.587,85.904,72.1l4.502,5.898h17.031h4.332l3.662-2.304
						c0.38-0.245,38.857-24.41,77.182-44.043c33.833-17.325,96.391-6.729,110.136,13.003l4.478,6.43h7.833
						c2.241,0,4.78,0,79.667-19.214l23.687-6.079l-192.09-218.264L1886.052,1749.507z M2074.592,2090.811
						c-29.521-27.763-99.57-36.113-141.514-14.629c-31.777,16.275-62.769,35.02-74.561,42.286
						c-13.301-15.918-49.565-55.933-92.319-74.707c-23.306-10.229-48.266-15.352-74.644-15.352c-19.023,0-38.779,2.666-59.179,7.999
						l-18.242,3.389c-5.376-37.334-22.48-107.818-55.498-142.722c-30.522-32.266-71.694-58.016-120.171-75.347l9.365-7.588
						l423.877-33.405l84.932,116.272l161.05,183.083C2100.094,2084.551,2083.786,2088.623,2074.592,2090.811z"/>
				</g>
			</g>
			<g>
				<g>
					<g>
						<path style="fill:#FFBC73;" d="M2647.372,2124.616c-65.364,0-111.501,61.518-125.92,97.083
							c-14.418,35.565-58.635,115.346-78.489,136.635c0,0-168.544,232.472-182.001,241.123
							c-13.457,8.651-99.006,51.906-163.407,77.859c-64.402,25.953-86.029,61.518-100.389,90.776l-515.692,66.624
							c-78.76,38.208-316.3,36.766-473.46-48.302c-157.159-85.068-219.158-183.112-254.639-254.963v0
							c19.248,66.668,88.373,256.825,333.94,363.432c257.606,111.833,464.269,49.651,464.269,49.651s208.584,28.837,352.767,59.596
							c144.183,30.759,378.72-15.38,517.136-109.247c138.415-93.868,213.39-200.266,282.597-386.748
							c37.598-101.31,44.531-216.195,39.654-315.855C2736.947,2152.236,2704.93,2124.616,2647.372,2124.616z"/>
					</g>
					<g style="opacity:0.2;">
						<path style="fill:#2D0106;" d="M2369.581,2794.244c0,0-129.788-96.981-138.679-157.849
							c-4.951,103.061,16.618,160.272,41.618,186.168c-186.667,44.229-275.355-54.47-275.355-54.47l-47.978,243.574
							c0,0,79.655,10.623,235.053-35.286c168.28-49.714,269.113-137.455,269.113-137.455s80.833-52.26,125.527-131.726
							c41.713-74.167,69.699-140.999,86.689-187.092C2554.422,2670.849,2369.581,2794.244,2369.581,2794.244z"/>
					</g>
					<g>
						<path style="fill:#F7941E;" d="M2659.866,1744.934l-418.105,11.916c91.822,155.619-9.618,275.575-102.771,318.743
							c-93.155,43.168-273.089,67.766-319.228,80.742c-46.138,12.977-147.066,51.906-256.645,149.95
							c-109.578,98.044-185.996,149.95-318.643,188.88c-132.649,38.929-269.878,26.529-352.528-41.813
							c-82.649-68.342-122.591-165.513-133.369-207.623c-10.779-42.11-16.581-42.534-25.953-41.813
							c-9.372,0.72-17.371,11.534-17.302,50.463c-1.442,77.859,20.185,211.468,35.565,268.18c0.719,2.65,1.543,5.624,2.487,8.892v0
							c35.481,71.851,97.48,169.895,254.639,254.963c157.16,85.067,394.7,86.51,473.46,48.302l515.692-66.624
							c14.361-29.259,35.988-64.823,100.389-90.776c64.401-25.953,149.95-69.208,163.407-77.859
							c13.457-8.651,182.001-241.123,182.001-241.123c19.854-21.29,64.071-101.071,78.489-136.635
							c14.419-35.565,60.557-97.083,125.92-97.083c57.558,0,89.575,27.62,96.365,67.665c-4.1-83.786-16.538-156.821-26.196-201.875
							C2696.394,1891.76,2659.866,1744.934,2659.866,1744.934z"/>
					</g>
					<g style="opacity:0.4;">
						<path style="fill:#FFFFFF;" d="M1971.819,2127.427h56.583c0,0-52.234,20.942-108.849,36.133
							c-56.616,15.19-175.811,47.241-271.838,121.841c-96.028,74.6-139.436,118.164-177.107,225.132
							c8.579-65.532,2.047-72.56,2.047-72.56s-114.717,94.528-322.217,119.528s-331.25-99.985-363.75-159.992
							c-32.5-60.008-54.395-138.67-52.198-177.464c18.885,33.706,93.814,167.456,93.814,167.456s134.567,174.814,348.35,123.032
							c213.783-51.782,332.533-150.926,332.533-150.926s121.25-138.356,255-182.106S1971.819,2127.427,1971.819,2127.427z"/>
					</g>
					<g style="opacity:0.4;">
						<path style="fill:#FFFFFF;" d="M2280.02,1899.446l12.609-14.891l28.181-4.844c0,0,14.848,114.573-110.471,201.598
							c-10.319-13.809-22.632-31.25-22.632-31.25S2284.666,1953.453,2280.02,1899.446z"/>
					</g>
					<g style="opacity:0.4;">
						<path style="fill:#FFFFFF;" d="M2697.053,1899.446l-18.462-13.04l-36.905-5.161c0,0,58.75,126.255,66.25,310.005
							s-8.917,297.408-69.459,432.454c19.459-6.204,79.459-138.704,86.959-187.454s19.108-229.395,4.554-349.073
							C2715.437,1967.5,2697.053,1899.446,2697.053,1899.446z"/>
					</g>
					<g style="opacity:0.2;">
						<path style="fill:#2D0106;" d="M753.374,2387.5c12.063,86.25,24.167,161.629,105.614,291.439
							c81.448,129.811,342.114,290.398,656.156,258.229c-5.957-20.919-66.374-170.75-66.374-170.75
							c-64.583,28.581-227.917,43.581-407.917-28.085C860.853,2666.667,773.173,2449.795,753.374,2387.5z"/>
					</g>
				</g>
				<g>
					<path style="fill:#2D0106;" d="M2674.421,1741.313l-2.915-11.716l-455.581,12.983l12.915,21.892
						c33.637,57.007,42.427,112.454,26.128,164.797c-20.406,65.527-76.548,111.521-122.285,132.718
						c-64.771,30.01-175.181,51.323-248.242,65.425c-30.674,5.918-54.902,10.596-68.74,14.487
						c-40.053,11.26-145.82,48.736-262.583,153.208c-105.752,94.619-179.541,146.538-312.866,185.664
						c-132.749,38.955-262.549,24.019-338.745-38.974c-77.354-63.97-117.104-155.684-128.398-199.79
						c-9.956-38.906-17.983-54.873-41.636-53.047c-31.26,2.412-31.177,48.208-31.143,65.142
						c-1.479,79.59,20.381,214.482,36.079,272.383c26.685,98.383,106.973,278.857,344.932,382.158
						c245.181,106.44,442.759,58.999,471.298,51.187c26.529,3.725,216.123,30.713,348.58,58.97
						c31.679,6.757,66.962,9.965,104.267,9.965c142.617,0,314.458-46.894,424.419-121.464
						c138.369-93.838,216.489-200.611,288.242-393.946c74.604-201.015,29.624-453.496,14.063-526.094
						C2711.252,1889.507,2674.787,1742.783,2674.421,1741.313z M2690.021,2502.915c-69.316,186.777-144.38,289.644-276.953,379.555
						c-130.635,88.589-362.154,137.579-505.591,106.992c-143.061-30.522-351.748-59.497-353.838-59.785l-3.242-0.439l-3.12,0.927
						c-2.026,0.611-204.922,59.087-453.995-49.043c-226.44-98.306-302.651-269.307-327.92-362.49
						c-14.883-54.888-36.45-188.164-35.039-264.278c-0.039-21.743,2.588-30.825,4.165-34.312c1.816,3.526,4.976,11.499,9.556,29.404
						c12.193,47.617,55.049,146.587,138.339,215.469c83.78,69.262,224.146,86.363,366.314,44.644
						c138.037-40.512,217.554-96.479,324.419-192.1c112.085-100.278,212.666-135.986,250.708-146.684
						c12.627-3.55,37.5-8.35,66.299-13.912c74.497-14.375,187.075-36.104,255.176-67.661
						c66.796-30.957,118.505-87.41,138.311-151.016c16.523-53.059,10.571-110.374-17.115-167.036l381.709-10.879
						c9.057,36.753,37.261,152.075,54.668,233.276C2718.01,2064.14,2761.803,2309.502,2690.021,2502.915z"/>
				</g>
			</g>
			<g>
				<g>
					<path style="fill:#2D0106;" d="M1470.608,2510.532c14.8-75.649,41.807-131.181,90.313-185.684l-18.672-16.621
						c-20.266,22.771-37.162,46.11-51.139,70.946C1461.808,2432.5,1470.608,2510.532,1470.608,2510.532z"/>
				</g>
			</g>
			<g>
				<g>
					<g>
						<g>
							<path style="fill:#FFFFFF;" d="M1774.345,3343.68c-24.871-5.406-46.859,6.489-55.871,22.349
								c-9.011,15.86-4.686,37.488-4.686,37.488s-20.906-40.371-44.696-43.255c-23.79-2.884-44.698,13.697-55.51,26.674
								c-10.814,12.977-13.698,35.325,0.72,38.929l0,0c25.233,9.372,94.44,33.162,99.486,30.279c5.046-2.884,4.326-36.767,0-52.627
								c14.419,13.698,69.208,41.813,80.743,39.65c11.535-2.163,20.185-58.394,20.185-58.394
								C1812.553,3370.354,1799.216,3349.087,1774.345,3343.68z"/>
						</g>
						<g>
							<path style="fill:#F7941E;" d="M1961.062,2973.852c23.069-85.068,51.905-262.413,34.603-335.946
								c-17.302-73.533-76.89-166.089-160.516-185.313l-373.34,157.724c0,78.534-0.581,190.698,43.155,284.566
								c26.237,56.313,73.404,108.593,118.983,146.394c0,0-11.086,17.643-30.55,44.316c-19.466,26.674-21.628,33.163-11.535,95.882
								c10.093,62.719-1.442,153.555-7.209,183.112c-5.767,29.558,0.721,66.324,39.65,61.278l0,0l0,0
								c-14.418-3.604-11.534-25.953-0.72-38.929c10.813-12.977,31.72-29.558,55.51-26.674c23.79,2.884,44.696,43.255,44.696,43.255
								s-4.325-21.627,4.686-37.488c9.011-15.86,31-27.755,55.871-22.349c24.871,5.407,38.208,26.674,40.371,41.093
								c1.443-12.977,7.931-71.731,59.115-64.883c-7.208-29.557-27.394-64.882-28.836-83.626
								c-1.442-18.743-12.255-66.247-23.07-81.064C1845.715,3139.662,1937.992,3058.92,1961.062,2973.852z"/>
						</g>
						<g style="opacity:0.4;">
							<path style="fill:#FFFFFF;" d="M1913.77,2485.417c0,0-51.827-32.314-78.622-32.823c35.288,23.24,92.202,91.3,118.12,182.271
								c25.918,90.97,13.086,204.033,6.169,280.835c18.916-24.865,40.543-149.032,40.563-212.365
								C2000.02,2640,1950.02,2521.667,1913.77,2485.417z"/>
						</g>
						<g style="opacity:0.4;">
							<path style="fill:#FFFFFF;" d="M1841.062,3223.125l-15.195-9.124c0,0-23.031-15.062-35.563-18.145
								c8.257,32.268,23.257,62.126,30.132,81.26s20.625,47.259,20.625,67.884c11.875-4.375,31.25-18.75,31.25-18.75
								L1841.062,3223.125z"/>
						</g>
						<g style="opacity:0.2;">
							<path style="fill:#2D0106;" d="M1515.144,2801.501c24.043,91.833,80.827,198.436,199.101,280.968l-66.531-25.643
								c0,0-20.012,39.008-33.02,53.174c-13.008,14.167,2.64,68.333,4.399,126.667c1.76,58.333-11.857,127.041-14.631,140.604
								c-2.776,13.563,97.825,61.889,97.825,61.889l18.566-33.326c0,0,54.18,23.031,67.923,21.515
								c-12.923-17.348-80.423-120.281-92.923-160.898c0,31.883,1.667,71.883,1.667,71.883s-21.667,0.833-23.333-47.5
								C1672.52,3242.5,1702.52,3185,1758.353,3190c55.833,5,73.333,30,73.333,30l-13.32-80.61
								c23.32-14.39,89.57-90.64,112.07-166.89s31.25-163.75,31.25-163.75s-28.583,111.406-107.5,136.007
								C1765.185,2972.5,1612.937,2939.463,1515.144,2801.501z"/>
						</g>
						<g>
							<path style="fill:#FFFFFF;" d="M1814.716,3384.773c0,0,28.116,23.069,65.603,30.999c37.488,7.93,43.255,7.93,37.488-15.86
								c-5.767-23.79-28.116-62.72-43.976-80.022C1822.646,3313.042,1816.158,3371.796,1814.716,3384.773z"/>
						</g>
					</g>
					<g>
						<path style="fill:#2D0106;" d="M1835.149,2452.593c78.726,18.095,130.396,122.792,145.918,188.745
							c15.722,66.836-9.488,236.426-34.483,328.589c-21.543,79.428-109.809,157.656-132.861,172.715l-13.223,8.638l9.307,12.759
							c8.091,11.089,18.823,55.088,20.229,73.379c0.948,12.285,7.188,27.407,14.414,44.912c5.743,13.916,11.68,28.301,14.805,41.118
							l0.913,3.74l2.608,2.842c13.862,15.122,35.254,51.972,40.449,73.418c0.132,0.532,0.249,1.035,0.356,1.509
							c-6.25-0.918-14.741-2.715-20.156-3.862c-33.232-7.027-58.965-27.725-59.199-27.916l-20.327-16.675l-4.009,25.986
							c-2.749,17.823-7.481,36.577-11.113,44.858c-15.259-4.521-53.472-24.082-64.659-34.707l-27.015-22.715l2.21,37.534
							c2.271,8.321,3.188,22.149,2.974,31.699c-18.618-4.995-55.932-17.387-82.759-27.358l-3.477-1.29l-3.677,0.479
							c-12.368,1.582-16.499-2.832-17.866-4.287c-6.436-6.856-8.448-22.26-5.137-39.248c6.724-34.468,17.359-125.86,7.3-188.364
							c-9.566-59.434-7.823-61.822,8.843-84.654c19.541-26.787,30.669-44.438,31.133-45.176l6.997-11.133l-10.122-8.398
							c-50.943-42.246-92.846-93.706-114.961-141.181c-52.661-113.022-56.753-241.539-56.753-278.233
							c0,0-28.455,67.183-11.2,167.899c8.845,39.823,21.803,82.319,40.756,123c29.512,63.344,79.795,114.13,112.783,142.91
							c-5.127,7.652-12.896,18.96-22.866,32.627c-23.13,31.689-24.589,42.7-14.229,107.104
							c9.419,58.526-0.732,145.098-7.124,177.857c-2.524,12.939-6.338,45.224,12.701,65.517
							c6.889,7.339,19.282,15.484,39.726,13.906c66.631,24.639,91.035,29.824,101.25,29.824c4.483,0,6.23-1.001,7.613-1.792
							c9.15-5.22,11.372-20.381,11.108-35.229c23.052,13.203,52.349,26.362,64.966,23.969c5.728-1.069,18.14-3.403,28.027-47.988
							c12.847,7.47,30.986,16.103,51.895,20.522c25.645,5.434,41.123,8.701,51.333-1.822c9.326-9.604,5.888-23.775,3.838-32.246
							c-6.245-25.747-28.174-64.053-44.932-83.711c-3.794-13.969-9.863-28.681-15.269-41.782
							c-5.732-13.877-11.655-28.232-12.236-35.767c-1.084-14.126-8.452-51.787-18.672-75.439
							c36.762-28.647,113.135-103.994,134.262-181.899c20.894-77.031,53.658-262.847,34.727-343.311
							c-8.232-34.981-28.613-89.123-62.091-134.286C1896.687,2437.972,1835.149,2452.593,1835.149,2452.593z"/>
					</g>
				</g>
				<g>
					<g>
						<path style="fill:#2D0106;" d="M1619.094,3050.432c38.218,32.037,95.151,32.037,95.151,32.037
							c-22.021-9.116-50.889-27.808-79.194-51.284L1619.094,3050.432z"/>
					</g>
				</g>
				<g>
					<g>
						<path style="fill:#2D0106;" d="M1765.185,3166.972c0,0,25.12,15.528,50.239,4.327l-14.121-20.635
							C1797.944,3152.964,1776.547,3163.633,1765.185,3166.972z"/>
					</g>
				</g>
			</g>
			<g>
				<g>
					<g>
						<g>
							<path style="fill:#F7941E;" d="M2680.052,2802.274c21.628-5.286,36.527,18.263,36.527,18.263l0,0l0,0
								c3.844-28.836-7.691-106.695-58.635-158.601c-39.742-40.491-119.99-100.432-198.537-108.067c0,0,14.86-74.564,4.448-140.167
								c-10.41-65.603-66.434-94.707-93.829-98.312l-99.41,23.711c-21.147,76.897-32.725,187.784-25.516,236.806
								c7.209,49.022-14.418,98.044,28.836,149.95c43.255,51.906,109.098,81.223,183.112,91.796
								c6.806,28.837,25.953,57.433,47.58,63.921c-0.48-13.938,3.365-28.355,24.031-36.526c20.667-8.171,46.408,4.615,50.224,11.294
								c2.163-13.936,18.504-30.038,31.48-32.922c12.976-2.884,31.269,1.425,39.89,13.938
								C2653.138,2824.383,2658.425,2807.562,2680.052,2802.274z"/>
						</g>
						<g style="opacity:0.4;">
							<path style="fill:#FFFFFF;" d="M2436.687,2351.25c0,0-20.821-34.219-66.66-35.86c50.41,55.86,77.763,83.36,48.462,238.36
								l-34.185,20.479c0,0,67.383,2.021,131.133,30.771s126.226,71.446,156.25,142.5s20,138.915,20,138.915l10.005,9.166
								c0,0,37.495-98.081-11.255-171.831s-122.058-143.51-231.029-169.881C2465.437,2485,2480.437,2407.5,2436.687,2351.25z"/>
						</g>
						<g>
							<path style="fill:#FFFFFF;" d="M2610.365,2823.421c-12.977,2.884-29.317,18.986-31.48,32.922
								c-3.815-6.679-29.557-19.465-50.224-11.294c-20.666,8.17-24.51,22.588-24.031,36.526c2.163,16.581,0,57.674,6.489,62.719
								c6.489,5.047,73.533-31.72,67.766-87.951c0,0,13.698,22.348,19.946,44.457c6.248,22.108,9.131,37.488,14.418,39.89
								c5.286,2.403,25.952-18.743,33.642-39.41c7.69-20.666,7.69-52.386,3.364-63.921
								C2641.633,2824.846,2623.341,2820.538,2610.365,2823.421z"/>
						</g>
						<g style="opacity:0.2;">
							<path style="fill:#2D0106;" d="M2242.956,2423.75l27.661-84.648c-5.813,25.304-2.68,138.291,14.82,203.345
								c17.5,65.053-1.25,106.303,38.75,148.803s145.915,66.804,145.915,66.804s13.46,41.946,41.585,68.196s35,78.125,8.125,104.375
								c-8.75-27.5-21.25-49.05-21.25-49.05l-41.512-63.921c0,0-137.736-24.063-183.112-91.796
								c-45.376-67.733-29.525-155.357-29.525-155.357L2242.956,2423.75z"/>
						</g>
						<g>
							<path style="fill:#FFFFFF;" d="M2716.579,2820.538c0,0-14.899-23.55-36.527-18.263
								c-21.627,5.287-26.914,22.108-29.798,35.084c0,0,14.899,20.666,24.511,38.449c9.613,17.782,14.419,39.41,20.666,39.89
								C2701.68,2916.179,2727.152,2875.327,2716.579,2820.538L2716.579,2820.538z"/>
						</g>
					</g>
					<g>
						<path style="fill:#2D0106;" d="M2668.649,2651.43c-43.11-43.926-117.544-97.124-191.885-110.302
							c3.887-25.981,9.82-79.883,1.905-129.775c-3.925-24.727-13.467-46.93-25.764-65.562
							c-36.218-45.272-82.878-30.401-82.878-30.401c19.257,2.53,69.36,39.834,79.013,100.66
							c9.848,62.08-4.204,134.169-4.345,134.892l-3.228,16.25l16.489,1.607c76.411,7.427,154.931,68.642,189.287,103.647
							c49.668,50.61,57.305,124.81,54.468,146.108l-0.323,2.422l0.464,2.402c5.259,27.26,0.415,50.215-5.122,64.497
							c-2.471-6.108-5.279-12.744-8.77-19.204c-9.961-18.418-24.907-39.209-25.537-40.083l-34.8-32.339l8.589,46.377
							c2.832,7.559,3.359,35.318-3.379,53.423c-3.056,8.212-8.681,16.381-13.687,22.246c-0.781-2.778-1.567-5.708-2.29-8.413
							c-1.084-4.048-2.261-8.453-3.594-13.164c-6.733-23.829-20.986-47.231-21.591-48.213l-25.923-28.819l-1.787,38.184
							c3.35,32.671-25.473,57.934-42.217,67.671c-0.503-6.787-0.737-15.205-0.899-21.23c-0.259-9.389-0.503-18.252-1.343-24.673
							l-1.255-9.638l-9.307-2.788c-14.956-4.492-31.338-27.768-37.295-53.003l-2.354-9.956l-10.122-1.445
							c-75.44-10.781-135.508-40.708-173.711-86.553c-26.299-31.557-25.313-60.747-24.175-94.551
							c0.528-15.523,1.07-31.572-1.347-47.979c-6.538-44.492-10.122-158.989,10.678-234.624c0,0-41.43,50.898-45.283,115.044
							c-1.81,48.744,0.693,95.146,4.927,123.946c2.017,13.73,1.548,27.759,1.045,42.603c-1.177,34.882-2.51,74.423,31.109,114.771
							c41.347,49.609,104.414,82.534,182.823,95.546c7.788,23.882,23.691,49.385,45.166,60.821c0.2,4.077,0.327,8.735,0.454,13.305
							c0.806,29.258,1.612,43.653,11.054,51.001c3.081,2.393,6.68,3.599,10.909,3.599c6.04,0,13.359-2.452,22.275-7.393
							c15.146-8.394,36.348-25.522,48.819-49.106c0.166,0.546,0.327,1.094,0.483,1.64c1.289,4.566,2.431,8.838,3.481,12.764
							c5.503,20.552,8.535,31.875,19.16,36.699c3.213,1.464,8.428,2.617,15.044-0.122c13.305-5.532,31.469-27.827,38.867-47.71
							c1.816-4.874,3.262-10.269,4.371-15.898c1.796,3.999,3.432,8.081,4.946,11.855c5.855,14.589,10.904,27.182,24.019,28.188
							c5.987,0.454,11.622-2.227,16.768-8.003c12.676-14.209,29.233-54.41,20.684-102.647
							C2734.792,2788.448,2723.512,2707.329,2668.649,2651.43z"/>
					</g>
				</g>
				<g>
					<g>
						<path style="fill:#2D0106;" d="M2384.303,2574.229c17.964-6.67,37.974-8.979,59.521-6.899l2.413-24.883
							C2393.874,2542.32,2384.303,2574.229,2384.303,2574.229z"/>
					</g>
				</g>
				<g>
					<g>
						<path style="fill:#2D0106;" d="M2445.618,2813.063l24.414-5.39c-2.124-9.614-3.281-32.207,0.069-49.619
							C2470.101,2758.054,2438.562,2773.958,2445.618,2813.063z"/>
					</g>
				</g>
			</g>
			<g>
				<g>
					<g>
						<path style="fill:#F7941E;" d="M2039.881,1889.117c-51.905-66.323-29.797-60.904-27.875-89.567
							c1.922-28.663-9.612-41.159-26.914-46.926c-7.208,21.627-42.774,25.953-70.169,8.171
							c-27.395-17.783-24.031-32.201-20.906-39.17c0,0-6.489-9.372-89.393-2.162c-82.905,7.209-204.74,23.79-272.505,34.604
							c-67.766,10.814-132.648,29.557-149.95,37.487c-17.302,7.93-26.673,37.488,11.535,36.046
							c38.208-1.442,65.603-8.518,223.484-28.049c157.879-19.531,209.064-20.973,233.575-19.531
							c24.511,1.442,41.594,14.418,17.193,31.72c-24.401,17.302-139.027,113.183-209.677,172.298s-57.672,77.859-54.068,81.464
							c3.604,3.604,12.978,2.163,80.022-51.906c67.045-54.068,158.601-118.229,194.646-141.299
							c36.046-23.07,55.51-30.253,50.464-10.441s-40.59,115.694-61.387,178.414s-22.959,77.137-23.681,84.347
							c-0.72,7.209,9.153,30.999,23.681,7.93c14.527-23.069,51.294-100.928,63.55-125.439c12.256-24.511,25.713-54.79,30.519-64.161
							c4.806-9.372,11.295-18.744,30.038,6.488c18.744,25.232,60.993,99.424,147.502,172.236l70.777-40.361
							C2168.955,2053.433,2091.787,1955.442,2039.881,1889.117z"/>
					</g>
				</g>
				<g style="opacity:0.4;">
					<path style="fill:#FFFFFF;" d="M1983.591,1756.12l-14.321,7.042c0,0-3.621,5.438-11.858,6.568
						c20.525,6.52,32.4,14.216,29.275,28.805c-3.125,14.59-23.125,39.182,21.875,94.386c45,55.203,111.054,143.445,201.777,188.387
						c-10.528-16.934-43.975-53.184-43.975-53.184L2007.52,1842.5l4.37-55.533L1983.591,1756.12z"/>
				</g>
				<g style="opacity:0.4;">
					<path style="fill:#FFFFFF;" d="M1394.024,1786.967l-18.646,27.945c0,0,176.319-39.3,323.809-54.639
						c147.49-15.339,195.893-10.816,195.893-10.816v-32.722L1394.024,1786.967z"/>
				</g>
				<g>
					<path style="fill:#FFCF9F;" d="M1969.27,1763.161c1.922-25.953,13.419-85.512,12.698-99.931
						c-0.721-14.418-7.668-36.045-41.321,0c-33.654,36.046-46.63,58.394-46.63,58.394c-2.276,5.077-6.383,15.026,1.064,27.833
						C1904.187,1765.12,1953.353,1780.733,1969.27,1763.161z"/>
				</g>
				<g style="opacity:0.2;">
					<path style="fill:#2D0106;" d="M1966.419,1660.749c-21.396,33.085-39.307,67.332-45.484,105.49
						c11.984,4.14,25.682,6.064,36.193,3.554C1952.964,1732.289,1956.485,1695.139,1966.419,1660.749z"/>
				</g>
				<g>
					<path style="fill:#FFCF9F;" d="M1971.878,1643.749c-2.013,5.574-3.8,11.259-5.459,17c3.18-4.916,6.424-9.81,9.728-14.685
						C1974.954,1644.958,1973.565,1644.115,1971.878,1643.749z"/>
				</g>
				<g>
					<path style="fill:#2D0106;" d="M2051.691,1879.87c-34.263-43.784-32.104-50.214-29.111-59.116
						c1.602-4.759,3.794-11.275,4.39-20.201c1.855-27.661-7.036-46.97-26.455-57.561c0.415-21.314-1.509-49.578-2.734-67.571
						c-0.372-5.469-0.679-9.958-0.831-12.944c-1.137-22.734-12.216-30.117-18.72-32.495c-18.095-6.614-36.367,9.965-48.55,23.01
						c-21.333,22.854-34.692,40.481-41.899,50.81c-13.843-2.465-38.672-3.269-84.458,0.716
						c-79.78,6.938-200.493,23.074-273.569,34.734c-68.628,10.952-134.526,29.814-153.838,38.664
						c-16.621,7.62-26.738,25.774-23.037,41.326c1.773,7.424,9.204,24.517,41.392,23.347c21.733-0.823,39.375-3.301,78.027-8.73
						c31.914-4.485,75.63-10.627,146.729-19.424c162.188-20.061,209.438-20.688,230.859-19.443c5.454,0.322,9.561,1.292,12.28,2.273
						c-0.757,0.655-1.709,1.401-2.885,2.236c-25.132,17.82-141.25,114.981-210.625,173.032
						c-41.265,34.526-61.777,61.484-62.705,82.417c-0.366,8.34,2.349,15.854,7.656,21.157c13.891,13.902,29.8,5.806,100.039-50.84
						c64.302-51.851,155.122-115.894,193.32-140.34c10.664-6.823,18.408-11.274,23.984-14.177
						c-5.156,15.725-14.257,41.463-23.745,68.294c-11.225,31.75-23.945,67.736-33.486,96.501
						c-19.654,59.263-23.326,77.114-24.37,87.573c-0.918,9.155,4.8,28.037,19.453,33.071c1.66,0.571,4.116,1.172,7.08,1.172
						c6.748,0,16.132-3.115,24.766-16.826c11.426-18.14,34.702-66.04,51.699-101.016c5.191-10.683,9.609-19.771,12.578-25.708
						c7.188-14.385,14.717-30.578,20.766-43.589c3.589-7.713,6.753-14.524,8.775-18.632c1.46,1.567,3.301,3.75,5.557,6.784
						c13.481,18.156,64.839,83.587,159.541,163.293c0,0-0.573-36.67-45.542-81.512c-53.361-51.775-83.066-90.446-89.917-99.669
						c-8.145-10.964-19.385-23.359-33.55-22.222c-13.296,1.101-19.312,12.828-21.875,17.829c-2.158,4.205-5.703,11.829-10.19,21.479
						c-5.972,12.84-13.399,28.819-20.401,42.82c-3.003,6.011-7.471,15.205-12.724,26.016
						c-13.194,27.149-32.036,65.923-44.004,87.641c2.495-10.693,8.052-30.518,20.835-69.063
						c9.443-28.486,22.114-64.326,33.296-95.944c14.234-40.259,25.479-72.061,28.389-83.489c3.979-15.632-2.701-23.215-7.031-26.345
						c-12.129-8.753-28.179-3.786-66.055,20.449c-38.765,24.807-130.854,89.741-195.981,142.258
						c-25.879,20.874-42.217,33.076-52.515,40.191c6.474-9.688,19.487-24.712,45.605-46.568
						c64.506-53.974,184.575-154.441,208.73-171.568c19.672-13.948,19.243-27.778,17.236-34.78
						c-3.95-13.799-19.736-22.828-42.222-24.148c-24.541-1.453-73.535-0.52-236.304,19.619
						c-71.348,8.825-117.006,15.24-147.222,19.485c-37.612,5.286-54.776,7.698-74.985,8.459c-6.001,0.246-9.262-0.559-10.747-1.119
						c0.732-1.85,2.896-4.868,6.025-6.303c15.191-6.96,78.745-25.567,146.065-36.311c72.563-11.577,192.354-27.593,271.44-34.47
						c53.369-4.639,72.5-2.063,78.159-0.791l11.001,15.843l11.89-20.271c0.127-0.213,12.847-21.662,44.639-55.72
						c7.158-7.661,12.036-11.431,14.98-13.269c0.176,1.037,0.327,2.295,0.4,3.776c0.151,3.108,0.469,7.788,0.859,13.487
						c1.391,20.437,3.721,54.643,2.281,74.055l-0.859,11.646l11.079,3.694c9.312,3.103,18.271,8.106,16.689,31.695
						c-0.337,5.051-1.523,8.569-2.891,12.644c-7.168,21.313-6.123,35.999,33.921,87.168
						c52.124,66.599,138.999,153.796,182.271,182.947c0,0,0.496-34.662-37.792-70.656
						C2132.061,1972.639,2084.248,1921.465,2051.691,1879.87z M1881.682,1730.163c0.01,0.013,0.015,0.022,0.024,0.032
						C1881.697,1730.186,1881.692,1730.176,1881.682,1730.163z M1886.111,1734.192c0.005,0,0.005,0,0.005,0
						S1886.115,1734.192,1886.111,1734.192z"/>
				</g>
			</g>
			<g style="opacity:0.2;">
				<g>
					<path style="fill:#2D0106;" d="M2383.036,1895.845c-16.821-4.325-30.582,9.669-35.085,23.551
						c-5.766,17.782-2.402,37.968,12.977,41.813c15.38,3.845,30.279-1.922,37.488-21.627
						C2405.625,1919.876,2399.857,1900.171,2383.036,1895.845z"/>
				</g>
			</g>
			<g style="opacity:0.2;">
				<g>
					<path style="fill:#2D0106;" d="M2297.007,2102.989c-5.047,6.127-10.454,19.825,0,35.685c10.453,15.86,31.72,18.744,39.29,8.651
						c7.569-10.093,3.604-27.395-9.373-38.569C2313.948,2097.582,2302.554,2096.252,2297.007,2102.989z"/>
				</g>
			</g>
			<g style="opacity:0.2;">
				<g>
					<path style="fill:#2D0106;" d="M2006.72,2207.761c-25.953-4.806-46.087,17.362-51.426,37.488
						c-6.247,23.55,6.249,45.177,24.992,50.464c18.744,5.287,41.813-5.767,49.503-24.991
						C2037.478,2251.497,2032.672,2212.567,2006.72,2207.761z"/>
				</g>
			</g>
			<g style="opacity:0.2;">
				<g>
					<path style="fill:#2D0106;" d="M1747.671,2257.744c-21.147,0.961-37.968,20.186-37.007,45.178
						c0.962,24.991,24.512,32.681,41.813,31.72c17.302-0.962,43.255,2.883,43.255-34.123
						C1795.732,2263.511,1764.023,2257.001,1747.671,2257.744z"/>
				</g>
			</g>
			<g style="opacity:0.2;">
				<g>
					<path style="fill:#2D0106;" d="M1606.372,2543.707c-21.147,2.403-39.409,22.588-34.604,61.999
						c4.807,39.41,32.201,44.216,46.139,42.774c13.938-1.441,30.278-18.263,29.798-55.27S1625.497,2541.533,1606.372,2543.707z"/>
				</g>
			</g>
			<g style="opacity:0.2;">
				<g>
					<path style="fill:#2D0106;" d="M1312.719,2532.653c-21.146,3.845-31.72,29.797-31.72,40.851
						c0,18.744,12.976,35.085,32.681,36.527c19.705,1.442,40.852-9.613,43.736-32.681
						C1360.3,2554.281,1333.867,2528.808,1312.719,2532.653z"/>
				</g>
			</g>
		</g>
		<g id="Head_6_">
			<g>
				<g>
					<g>
						<path style="fill:#FFCF9F;" d="M1979.805,718.834c-49.022,1.442-102.37-28.836-119.672-44.696
							c-17.302-15.86-66.323-73.534-53.347-12.977c12.976,60.557,37.968,128.323,99.486,157.159
							c61.518,28.836,107.657,49.984,136.493,105.734l219.639-120.153C2119.663,698.648,2028.827,717.393,1979.805,718.834z"/>
					</g>
					<g style="opacity:0.4;">
						<path style="fill:#FFFFFF;" d="M1814.187,636.667l7.266,21.354c0,0,25.127,68.646,108.931,82.813
							c83.804,14.167,141.303-5,195.47,24.167c54.167,29.167,60.633,36.355,60.633,36.355l39.693-22.286
							c0,0-105.531-63.025-186.262-62.297c-80.73,0.728-145.523-16.461-185.626-48.283
							C1814.187,636.667,1814.187,636.667,1814.187,636.667z"/>
					</g>
					<g style="opacity:0.2;">
						<path style="fill:#2D0106;" d="M1850.02,709.729c10.833,30.271,28.333,66.679,86.667,87.641
							c58.333,20.963,94.815,49.296,122.398,83.463l51.773-41.385c0,0-26.443-23.148-89.875-48.583
							C1958.562,765.833,1898.353,775.112,1850.02,709.729z"/>
					</g>
					<g>
						<path style="fill:#2D0106;" d="M1995.569,703.008c-5.85,0.357-11.245,0.686-16.202,0.833
							c-43.662,1.336-93.398-26.367-109.096-40.76c-2.485-2.278-5.655-5.471-9.209-9.04c-21.656-21.734-42.104-42.237-60.015-32.53
							c-16.211,8.799-11.109,32.62-8.931,42.796c18.77,87.573,54.029,142.395,107.788,167.595l2.046,0.96
							c58.818,27.563,101.318,47.48,127.49,98.086l7.055,13.635l253.731-138.804l-18.921-13.951
							C2139.031,694.292,2049.206,699.753,1995.569,703.008z M2048.518,903.811c-31.006-49.924-76.904-71.435-133.838-98.115
							l-2.041-0.957c-45.313-21.241-74.287-67.862-91.186-146.719c-0.039-0.174-0.073-0.344-0.108-0.513
							c6.744,5.945,14.244,13.474,18.462,17.708c3.931,3.945,7.446,7.463,10.19,9.98c17.373,15.925,74.448,50.232,130.249,48.63
							c5.244-0.154,10.952-0.498,17.139-0.872c46.963-2.861,123.892-7.514,236.772,69.302L2048.518,903.811z"/>
					</g>
				</g>
				<g>
					<g>
						<path style="fill:#FFCF9F;" d="M2255.194,626.557c-73.533-10.093-138.415-67.766-145.624-77.859
							c-7.209-10.093-40.372-34.604-27.395,18.744c31.72,112.463,114.343,144.593,155.717,165.81
							c56.231,28.836,54.789,87.951,54.789,87.951l262.413-50.464C2467.143,640.976,2328.728,636.65,2255.194,626.557z"/>
					</g>
					<g style="opacity:0.4;">
						<path style="fill:#FFFFFF;" d="M2089.812,538.75c0,0,12.223,41.679,12.728,43.042c26.022,19.458,49.147,46.195,127.272,64.39
							c78.125,18.194,131.538,19.248,188.125,48.194s66.25,44.375,66.25,44.375l35-5.625c0,0-57.5-60-131.875-80.625
							s-138.476-19.563-182.051-39.781S2089.812,538.75,2089.812,538.75z"/>
					</g>
					<g style="opacity:0.2;">
						<path style="fill:#2D0106;" d="M2125.853,605.833c14.167,25,37.5,56.667,84.167,80.833
							c46.667,24.167,100.548,42.562,106.94,104.198c9.726-3.365,58.239-43.981,58.239-43.981s-20.554-40.345-112.796-63.55
							C2170.162,660.128,2125.853,605.833,2125.853,605.833z"/>
					</g>
					<g>
						<path style="fill:#2D0106;" d="M2279.201,614.451c-7.822-0.94-15.176-1.821-21.968-2.753
							c-66.49-9.126-127.998-61.702-135.459-71.714c-6.548-9.167-26.665-26.621-43.828-18.755
							c-20.2,9.248-13.042,38.679-10.347,49.758l0.137,0.527c30.922,109.632,107.036,147.227,152.514,169.69
							c3.838,1.897,7.456,3.682,10.796,5.396c46.63,23.914,46.665,71.932,46.64,74.292l-0.454,18.557l303.052-58.279l-12.773-18.846
							C2483.938,639.023,2355.773,623.64,2279.201,614.451z M2305.979,803.372c-4.004-22.634-17.31-60.938-61.24-83.466
							c-3.467-1.778-7.222-3.633-11.201-5.599c-43.618-21.543-109.507-54.089-136.851-150.671c-0.86-3.563-1.436-6.511-1.816-8.936
							c1.025,0.955,1.909,1.902,2.495,2.72c8.755,12.256,77.266,73.22,155.787,83.999c6.953,0.954,14.472,1.858,22.47,2.818
							c71.67,8.601,177.832,21.35,253.345,116.253L2305.979,803.372z"/>
					</g>
				</g>
				<g>
					<g>
						<path style="fill:#2D0106;" d="M1992.419,868.762l14.424,4.116c5.326-18.678,23.359-46.719,49.753-71.525
							c17.011-15.987,57.525-46.911,57.525-46.911s-44.925,11.391-71.677,39.649
							C2017.994,819.919,1998.658,846.894,1992.419,868.762z"/>
					</g>
				</g>
				<g>
					<g>
						<path style="fill:#2D0106;" d="M1956.897,784.038c0,0,49.374-48.622,89.121-59.978l-4.424-14.331
							C2007.204,720.354,1965.588,760.135,1956.897,784.038z"/>
					</g>
				</g>
				<g>
					<g>
						<path style="fill:#2D0106;" d="M1870.163,801.355l14.795-2.49c-0.083-0.483-7.544-48.843,45.425-82.573l-8.057-12.651
							C1861.067,742.651,1869.763,798.977,1870.163,801.355z"/>
					</g>
				</g>
				<g>
					<g>
						<path style="fill:#2D0106;" d="M2308.101,737.841c0,0,26.086-20.757,69.119-39.569c19.62-8.576,43.966-14.633,73.881-14.782
							l-0.078-15c-32.373,0.162-58.544,6.975-79.818,15.932C2326.687,703.164,2308.101,737.841,2308.101,737.841z"/>
					</g>
				</g>
				<g>
					<g>
						<path style="fill:#2D0106;" d="M2215.387,725.61l15,0.322c1.436-67.204,65.313-86.267,68.032-87.046l-4.087-14.431
							C2293.562,624.673,2217.067,647.166,2215.387,725.61z"/>
					</g>
				</g>
				<g>
					<g>
						<path style="fill:#2D0106;" d="M2141.311,679.643l14.502-3.82c-1.209-29.642,17.814-63.104,17.814-63.104
							S2141.311,640.833,2141.311,679.643z"/>
					</g>
				</g>
			</g>
			<g>
				<g>
					<path style="fill:#F7941E;" d="M2475.313,738.299c-86.51,4.566-142.26,46.379-166.771,74.071h303.264
						C2590.659,763.164,2561.823,733.733,2475.313,738.299z"/>
				</g>
				<g style="opacity:0.4;">
					<path style="fill:#FFFFFF;" d="M2475.313,738.299c-86.51,4.566-142.26,46.379-166.771,74.071h303.264
						C2590.659,763.164,2561.823,733.733,2475.313,738.299z"/>
				</g>
				<g>
					<path style="fill:#2D0106;" d="M2474.523,723.32c-104.336,5.505-162.021,61.943-177.212,79.109l-22.08,24.941h359.345
						l-8.994-20.92C2602.61,752.984,2568.196,718.381,2474.523,723.32z M2347.585,797.37
						c25.927-19.038,68.296-40.915,128.521-44.094c64.995-3.409,92.573,11.924,111.523,44.094H2347.585z"/>
				</g>
			</g>
			<g>
				<g>
					<path style="fill:#FFBC73;" d="M1567.722,1008.888c38.65,38.202,144.384,156.669,42.495,286.795
						c0.961,10.936,12.441,28.792,12.441,28.792s50.999,20.592,100.021,66.731c49.022,46.138,53.828,159.563,53.828,159.563
						s46.139-5.768,74.014-4.807c27.876,0.961,71.44,25.363,109.579,70.169c-7.689-33.643-96.121-259.529,17.302-526.748
						C1979.778,1083.787,1684.789,961.073,1567.722,1008.888z"/>
				</g>
				<g style="opacity:0.2;">
					<path style="fill:#2D0106;" d="M1634.187,1017.5c0,0,103.75,128.75,35,241.25c-11.25,16.25,9.493,51.74,9.493,51.74
						s106.757,40.629,123.007,165.069c0,16.941,33.771,37.336,33.771,37.336s38.766-8.568,69.373,28.018
						c-13.143-40.913-56.161-277.724,23.107-428.413C1879.187,1086.25,1634.187,1017.5,1634.187,1017.5z"/>
				</g>
				<g>
					<path style="fill:#2D0106;" d="M1562.048,995l-21.026,8.589l16.157,15.966c52.671,52.063,128.072,155.965,41.226,266.88
						l-3.648,4.663l0.518,5.898c1.225,13.916,12.514,32.088,14.766,35.589l2.578,4.014l4.424,1.785
						c0.484,0.195,48.926,20.043,95.357,63.745c43.96,41.372,49.072,148.208,49.121,149.282l0.703,16.257l16.142-2.014
						c0.449-0.061,45.249-5.613,71.636-4.703c21.548,0.745,61.621,21.372,98.677,64.902l39.688,46.624l-13.642-59.69
						c-0.869-3.801-2.446-9.091-4.624-16.418c-19.536-65.618-78.989-265.307,21.114-501.123v-0.007
						c2.432-5.728,1.094-12.371-3.404-16.927C1973.83,1064.143,1683.332,945.459,1562.048,995z M1906.198,1412.427
						c3.584,64.418,14.693,117.255,24.36,154.333c-27.666-21.768-56.23-34.985-79.521-35.789c-2.31-0.081-4.727-0.117-7.227-0.117
						c-17.651,0-39.209,1.833-53.53,3.288c-3.37-34.311-15.538-114.536-57.32-153.86c-42.359-39.868-85.786-61.289-99.966-67.675
						c-2.568-4.448-5.078-9.544-6.548-13.489c64.62-87.483,53.252-189.197-30.927-282.832
						c107.09-21.384,314.931,56.777,363.042,79.387C1917.732,1196.709,1900.114,1303.205,1906.198,1412.427z"/>
				</g>
			</g>
			<g>
				<g>
					<path style="fill:#F7941E;" d="M1591.953,1317.193c2.884,10.573,24.992,11.535,59.595,0
						c34.604-11.535,186.477-33.642,247.995-33.642l5.287-73.053c-109.579,15.86-166.771,30.759-241.746,55.751
						C1588.109,1291.24,1589.07,1306.619,1591.953,1317.193z"/>
				</g>
				<g>
					<path style="fill:#2D0106;" d="M1658.342,1252.016c-66.636,22.212-88.55,40.948-80.859,69.119
						c1.729,6.345,6.089,11.665,12.276,14.978c5.479,2.932,12.476,4.397,20.947,4.397c12.182,0,27.427-3.032,45.591-9.087
						c30.947-10.318,181.142-32.873,243.247-32.873h13.955l7.642-105.569l-18.457,2.671
						C1790.271,1211.922,1732.199,1227.4,1658.342,1252.016z M1885.569,1268.855c-68.37,2.713-204.814,22.791-238.765,34.107
						c-22.172,7.395-34.897,7.99-40.273,7.321c2.124-3.156,12.446-13.522,61.293-29.804
						c68.032-22.676,122.412-37.425,220.693-52.395L1885.569,1268.855z"/>
				</g>
			</g>
			<g>
				<g>
					<path style="fill:#F7941E;" d="M1782.777,1519.048c-26.455,50.945-3.252,48.061,10.137,32.682
						c13.391-15.38,72.986-76.897,106.629-99.005l-5.767-74.014C1859.172,1409.469,1809.233,1468.104,1782.777,1519.048z"/>
				</g>
				<g>
					<path style="fill:#2D0106;" d="M1883.811,1367.5c-36.216,32.193-87.124,92.212-114.345,144.636
						c-6.714,12.927-24.551,47.269-4.497,60.918c3.51,2.391,7.505,3.545,11.729,3.545c9.003,0,19.028-5.256,27.534-15.022
						c13.399-15.388,71.87-75.5,103.55-96.316l7.407-4.868l-8.803-112.959L1883.811,1367.5z M1795.793,1526.533
						c0.098-0.19,0.196-0.38,0.293-0.571c20.029-38.567,54.981-82.827,85.215-114.28l2.622,33.657
						C1856.477,1465.464,1817.893,1503.408,1795.793,1526.533z"/>
				</g>
			</g>
			<g>
				<g>
					<path style="fill:#F7941E;" d="M3053.005,1144.173c-71.13-31.72-128.803-43.255-128.803-43.255s-5.767-72.091-40.371-141.299
						c-34.604-69.208-146.105-134.57-262.413-157.64c-116.307-23.07-246.072-12.496-304.273-0.961
						c-31.288-19.224-76.369-25.953-119.624-5.767c-43.255,20.186-125.92,71.13-153.714,99.005
						c-27.793,27.875-25.073,66.324-17.316,78.885c-26.521,26.2-55.901,61.17-85.615,108.553
						c-71.13,113.424-101.89,407.557,14.417,538.282c116.307,130.726,346.999,184.554,456.579,188.399h96.362
						c96.362,0,196.809-13.938,263.855-34.124c67.044-20.185,121.834-54.789,143.461-59.835s100.928-23.069,131.207-37.488
						c30.278-14.418,37.968-56.953,37.968-56.953c60.556-9.612,77.858-53.828,96.122-115.346
						c18.263-61.518,17.302-156.678,0-214.352C3163.545,1232.605,3124.135,1175.893,3053.005,1144.173z"/>
				</g>
				<g style="opacity:0.4;">
					<path style="fill:#FFFFFF;" d="M2183.342,1437.5c0,0-4.448,16.626,6.635,36.125c-22.041-15.5-38.916-43.625-27.041-76.75
						s51.914-61.026,93.232-33.347C2224.812,1363.125,2184.372,1387.5,2183.342,1437.5z"/>
				</g>
				<g style="opacity:0.4;">
					<path style="fill:#FFFFFF;" d="M2776.532,1038.89l-19.157-35.945c-0.688,28.722,0.978,73.722,74.312,108.722
						s106.574,17.851,181.667,51.667c75.092,33.816,103.333,71.667,124.167,116.667c20.833,45,43.599,119.009,28.947,220.361
						c21.886-26.195,40.208-153.971,14.38-210.083c-25.827-56.112-51.927-91.118-89.885-118.612
						c-37.958-27.494-105.875-54.707-178.625-72.927C2839.586,1080.518,2776.532,1038.89,2776.532,1038.89z"/>
				</g>
				<g style="opacity:0.4;">
					<path style="fill:#FFFFFF;" d="M2064.144,943.432c0,0-8.877-24.265,53.083-62.598c61.959-38.333,118.317-74.677,145.763-59.63
						c-15.053,8.797-76.504,43.186-76.504,43.186s118.951-35.64,296.451-30.64s326.25,57.5,375,156.25
						c30,16.25,44.094,12.945,44.094,12.945s-42.844-133.941-209.094-175.318c-166.25-41.377-339.084-35.591-375.792-26.609
						c-31.708-11.018-66.054-38.611-168.256,20.185c-102.202,58.797-127.456,79.054-121.137,136.794
						C2046.687,953.75,2064.144,943.432,2064.144,943.432z"/>
				</g>
				<g style="opacity:0.4;">
					<path style="fill:#FFFFFF;" d="M1567.722,968.99c0,0-19.632,15.056-13.667,22.616c41.799-5.773,212.893-5.546,466.929,65.591
						l-4.006-14.444c0,0,45.79-76.429,100.25-137.925c-36.374,25.171-133.04,124.338-133.04,124.338
						S1790.424,943.814,1567.722,968.99z"/>
				</g>
				<g style="opacity:0.4;">
					<path style="fill:#FFFFFF;" d="M1890.819,1483.607l23.596,29.287c0,0-36.378-211.528,29.263-346.645l-31.99-13.75
						C1911.687,1152.5,1848.656,1350.729,1890.819,1483.607z"/>
				</g>
				<g style="opacity:0.2;">
					<path style="fill:#2D0106;" d="M1920.416,1347.434c-5.228,112.959,10.438,225.748,127.104,313.323
						c116.667,87.576,364.352,147.622,364.352,147.622l-148.882-23.428l20.771,101.455c0,0,82.141-19.072,188.759-15.698
						c115.417,3.652,221.486,15.698,221.486,15.698l-24.025-87.871c0,0,92.844-12.988,141.858-38.261
						c49.013-25.274,219.26-77.005,219.26-77.005l15.177,6.876c0,0,42.32-25.193,38.448-70.169l-76.72-5.979
						c0,0,131.182,36.354,152.848-178.821c-15,26.841-71.727,91.574-211.32,106.161c-115.346,12.052-221.121-16.624-292.788-56.348
						c-71.667-39.725-110.892-34.288-222.559-22.972c-111.667,11.317-239.368-61.627-178.018-98.489c0,0-56.149-3.528-66.149,36.472
						s-0.042,73.625-0.042,73.625s9.196-58.281,45.869-25.953c36.674,32.328,183.34,41.208,183.34,41.208l112.925,12.511
						c0,0,26.681-0.164,31.466,11.503c4.785,11.667,37.445,30.422,76.519,40.494c39.073,10.072,67.623,23.594,61.591,34.945
						l23.926,84.145c0,0-117.209,42.662-283.485,44.258c-166.275,1.597-331.014-51.199-421.144-157.301
						C1930.853,1453.333,1924.978,1378.202,1920.416,1347.434z"/>
				</g>
				<g>
					<path style="fill:#2D0106;" d="M3059.114,1130.474c-54.546-24.326-100.958-36.953-121.191-41.833
						c-3.062-23.425-12.867-80.115-40.674-135.73c-36.446-72.885-148.672-141.001-272.91-165.644
						c-120.313-23.857-248.32-12.283-304.477-2.031c-39.068-21.729-86.724-23.159-128.682-3.577
						c-42.377,19.778-127.393,71.324-157.993,102.007c-26.528,26.607-30.781,63.218-24.311,85.938
						c-28.77,29.565-55.884,64.546-80.708,104.123c-69.556,110.909-109.795,414.92,15.923,556.221
						c78.697,88.45,207.092,142.927,318.953,170.739c71.144,20.148,148.83,7.694,148.83,7.694s-94.428-24.513-158.318-41.747
						c-100.594-27.136-215.868-76.621-287.053-156.627c-107.92-121.297-84.698-405.886-12.915-520.342
						c25.615-40.844,53.692-76.457,83.447-105.849l8.497-8.393l-6.275-10.161c-4.155-6.727-7.485-37.686,15.171-60.41
						c25.239-25.31,105.585-75.539,149.438-96.005c40.801-19.036,81.211-9.922,105.43,4.956l5.005,3.076l5.761-1.143
						c59.029-11.701,187.231-21.101,298.438,0.962c113.916,22.592,219.858,85.522,251.914,149.633
						c32.807,65.608,38.779,135.103,38.838,135.786l0.908,11.281l11.094,2.229c0.562,0.113,57.056,11.66,125.645,42.246
						c74.97,33.432,106.411,92.801,119.585,136.719c16.924,56.416,16.919,148.726-0.014,205.771
						c-17.725,59.714-31.249,97.271-83.114,105.503l-22.274,4.506l8.884,6.936c-0.063,0.349-6.958,35.268-29.658,46.079
						c-27.255,12.981-100.366,29.964-124.389,35.545l-3.775,0.879c-10.258,2.393-24.238,9.148-43.579,18.496
						c-26.031,12.578-61.67,29.802-100.801,41.584c-31.507,9.487-69.522,17.323-110.286,23.023
						c-47.985,6.71-149.24,25.461-149.24,25.461s103.508,11.17,152.764,4.31c42.591-5.931,82.395-14.126,115.414-24.069
						c41.396-12.465,78.271-30.286,105.2-43.298c16.27-7.864,30.327-14.656,37.344-16.294l3.745-0.872
						c43.062-10.002,103.433-24.79,130.503-37.681c26.865-12.793,38.97-41.965,43.697-57.58
						c60.962-14.019,80.078-62.531,98.325-123.991c18.652-62.827,18.642-160.75-0.015-222.93
						C3174.045,1215.393,3125.71,1160.171,3059.114,1130.474z"/>
				</g>
			</g>
			<g>
				<g>
					<path style="fill:#2D0106;" d="M2805.26,1600.188c-49.36-12.798-75.84-26.214-97.119-36.99
						c-12.153-6.157-22.652-11.474-34.912-15.608l-1.309-0.439l-1.372-0.146c-59.458-6.286-95.816-49.534-97.334-51.37
						c-11.499-13.923-24.873-21.629-59.151-19.829c-12.099,0.637-22.607,1.274-32.271,1.86c-34.36,2.083-57.061,3.449-102.192,1.975
						c-59.428-1.948-150.146-44.221-173.672-93.794l-22.587,10.718c29.917,63.037,135.732,106.106,195.439,108.062
						c46.29,1.521,70.728,0.042,104.527-2.007c9.599-0.583,20.049-1.215,32.07-1.848c28.51-1.516,33.344,4.468,38.56,10.784
						c4.444,5.376,45.093,52.422,112.553,60.154c10.083,3.521,19.507,8.296,30.352,13.792
						c22.354,11.321,50.166,25.41,102.148,38.886c42.994,11.148,105.928,15.555,164.707,15.555c48.238,0,93.677-2.969,122.983-7.62
						l-3.916-24.693C3021.325,1617.383,2879.323,1619.387,2805.26,1600.188z"/>
				</g>
			</g>
			<g>
				<g>
					<path style="fill:#2D0106;" d="M2021.041,964.25l17.568,17.783c33.926-33.516,78.619-77.205,78.619-77.205
						S2056.807,928.911,2021.041,964.25z"/>
				</g>
			</g>
			<g>
				<g>
					<path style="fill:#2D0106;" d="M2186.56,1386.667c-30.498,53.958,3.418,86.958,3.418,86.958
						c-4.59-20.661-2.246-52.182,13.325-76.021c11.768-18.01,29.551-29.475,52.866-34.077
						C2256.169,1363.528,2210.349,1344.578,2186.56,1386.667z"/>
				</g>
			</g>
			<g>
				<g>
					<path style="fill:#2D0106;" d="M2186.486,864.39c0,0,50.826-24.942,135.729-49.082l-5.254-24.443
						C2234.157,818.75,2186.486,864.39,2186.486,864.39z"/>
				</g>
			</g>
			<g>
				<g>
					<path style="fill:#2D0106;" d="M2757.375,1002.945c0,0,4.312,61.222,59.565,85.546c41.775,18.391,98.506,26.148,104.736,27.212
						l5.049-29.57c-21.529-3.677-66.616-13.218-99.043-25.652C2795.617,1048.178,2766.774,1018.875,2757.375,1002.945z"/>
				</g>
			</g>
			<g>
				<g>
					<path style="fill:#FFCF9F;" d="M3050.362,1064.873c-10.093,7.209-38.233,28.082-49.022,36.046
						c-20.201,14.909-30.279,24.511-30.279,35.325c0,10.813,12.365,36.429,40.371,51.906c27.395,15.139,64.161,8.651,74.975-6.489
						s0-59.836-7.93-94.44C3070.548,1052.617,3060.455,1057.663,3050.362,1064.873z"/>
				</g>
				<g style="opacity:0.4;">
					<polygon style="fill:#FFFFFF;" points="2981.27,1151.667 3059.187,1080 3076.27,1178.75 3089.187,1160.417 3064.603,1062.083 
						2971.062,1136.243 					"/>
				</g>
				<g style="opacity:0.2;">
					<path style="fill:#2D0106;" d="M2998.562,1170.625c0,0,40.625-36.25,58.75-86.875c-0.625,25-7.5,76.875-20,105.625
						C3026.062,1189.375,2998.562,1170.625,2998.562,1170.625z"/>
				</g>
				<g>
					<path style="fill:#2D0106;" d="M3090.661,1084.428c-4.887-21.34-11.313-32.092-21.474-35.947
						c-11.377-4.314-21.309,2.8-26.089,6.221c-8.164,5.83-27.89,20.42-40.947,30.073l-8.232,6.084v0.003
						c-20.034,14.785-35.356,27.514-35.356,45.38c0,15.351,14.526,45,46.826,62.847c12.535,6.928,27.266,10.237,41.421,10.237
						c20.766,0,40.288-7.127,49.771-20.4c12.71-17.789,5.928-52.937-5.034-100.65L3090.661,1084.428z M3076.238,1174.395
						c-6.187,8.659-35.264,15.801-58.76,2.815c-25.435-14.055-33.916-36.26-33.916-40.967c0-5.874,12.74-16.069,25.2-25.269
						l8.252-6.099c12.989-9.604,32.618-24.119,40.615-29.832c1.294-0.923,2.26-1.563,2.988-2.004
						c1.265,2.19,3.389,6.992,5.679,16.975l0.884,3.86C3072.844,1118.518,3083.381,1164.392,3076.238,1174.395z"/>
				</g>
			</g>
			<g>
				<g>
					<path style="fill:#F7941E;" d="M1539.087,992.3c0.961,18.263,24.031,16.341,51.906,17.302
						c27.876,0.961,117.269,15.38,223.003,51.906c105.734,36.526,151.295,84.605,151.295,84.605l55.694-88.916
						c-77.926-30.759-198.338-83.16-326.18-91.811C1566.962,956.735,1538.125,974.037,1539.087,992.3z"/>
				</g>
				<g>
					<g style="opacity:0.4;">
						<path style="fill:#FFFFFF;" d="M1567.722,968.99c0,0-19.632,15.056-13.667,22.617c41.799-5.773,212.892-5.546,466.929,65.591
							c-77.307-30.515-196.439-82.275-323.147-91.542C1656.553,963.331,1612.73,963.902,1567.722,968.99z"/>
					</g>
				</g>
				<g>
					<path style="fill:#2D0106;" d="M1533.63,969.307c-6.7,6.602-9.995,14.822-9.526,23.782
						c1.582,29.997,32.251,30.693,56.899,31.252c3.071,0.071,6.24,0.142,9.473,0.252c25.635,0.886,112.798,14.538,218.623,51.094
						c102.324,35.349,155.674,70.088,156.191,70.427c0,0-5.472-39.427-45.321-58.115c-25.702-12.053-59.397-26.27-101.076-40.667
						c-109.043-37.669-200.283-51.785-227.383-52.72c-3.354-0.117-6.641-0.19-9.829-0.264c-9.483-0.215-23.599-0.535-27.627-2.742
						c-0.005-0.044-0.01-0.091-0.015-0.141c0.088-0.201,10.235-19.878,139.751-11.114c144.35,9.771,276.904,56.994,327.193,76.846
						c0,0,0-31.364-46.423-48.766c-67.103-22.48-169.544-50.622-278.748-58.012C1575.876,942.297,1545.808,957.312,1533.63,969.307z
						"/>
				</g>
			</g>
			<g>
				<g>
					<g>
						<path style="fill:#2D0106;" d="M2411.626,1010.677c-41.328,2.565-72.138,48.026-68.818,101.541
							c3.321,53.514,39.516,94.818,80.844,92.252c41.328-2.564,72.139-48.026,68.818-101.541
							C2489.15,1049.416,2452.955,1008.112,2411.626,1010.677z"/>
					</g>
				</g>
				<g>
					<g>
						<path style="fill:#FFFFFF;" d="M2445.776,1067.046c-9.853,0.612-17.235,10.863-16.487,22.897
							c0.746,12.035,9.339,21.295,19.192,20.683c9.853-0.611,17.234-10.863,16.488-22.897
							C2464.221,1075.694,2455.628,1066.434,2445.776,1067.046z"/>
					</g>
				</g>
			</g>
			<g>
				<g>
					<g>
						<g>
							<path style="fill:#2D0106;" d="M2836.319,968.763c-32.008,2.894-56.202,35.279-60.705,76.79
								c13.464,11.562,29.674,22.401,46.699,28.931c29.299,11.238,66.919,19.779,90.024,24.255
								c2.732-12.295,3.697-25.681,2.439-39.589C2909.949,1005.75,2874.822,965.282,2836.319,968.763z"/>
						</g>
					</g>
				</g>
				<g>
					<g>
						<path style="fill:#FFFFFF;" d="M2870.719,1029.906c-8.981,0.812-15.399,10.994-14.337,22.741
							c1.063,11.748,9.203,20.614,18.183,19.802c8.98-0.812,15.399-10.993,14.337-22.741
							C2887.84,1037.959,2879.698,1029.094,2870.719,1029.906z"/>
					</g>
				</g>
			</g>
			<g>
				<g>
					<path style="fill:#2D0106;" d="M3132.787,1255.675c-8.494,0-15.38,14.201-15.38,31.72c0,17.519,6.886,31.72,15.38,31.72
						c8.493,0,15.379-14.201,15.379-31.72C3148.166,1269.876,3141.28,1255.675,3132.787,1255.675z"/>
				</g>
			</g>
			<g>
				<g>
					<path style="fill:#2D0106;" d="M2928.046,1249.907c-12.209,0-22.107,15.493-22.107,34.604s9.898,34.604,22.107,34.604
						c12.211,0,22.108-15.493,22.108-34.604S2940.257,1249.907,2928.046,1249.907z"/>
				</g>
			</g>
			<g>
				<g>
					<g>
						<path style="fill:#FFFFFF;" d="M3084.431,1619.976c-18.779,2.981-45.58,5.313-75.933,6.512
							c3.984,6.893,8.75,15.677,16.632,30.495c12.015,22.589,10.573,37.969,21.147,33.162c29.333-17.111,46.2-48.016,54.766-74.02
							c-5.097,1.567-10.448,2.919-16.318,3.85H3084.431z"/>
					</g>
					<g style="opacity:0.2;">
						<path style="fill:#2D0106;" d="M3029.147,1647.083c2.539,0,15.873-6.25,17.956,20.417c4.167-8.75,7.755-21.053,7.755-21.053
							s13.759-0.197,25.711-2.28c11.951-2.083,9.451-23.439,9.451-23.439l-75,8.439L3029.147,1647.083z"/>
					</g>
					<g>
						<path style="fill:#2D0106;" d="M3083.708,1607.475l-1.236,0.154c-18.525,2.942-44.97,5.203-74.468,6.367l-20.688,0.818
							l10.361,17.927c3.677,6.368,8.125,14.529,16.416,30.11c3.911,7.356,6.299,14.026,8.218,19.385
							c3.188,8.899,5.942,16.582,13.93,19.961c1.68,0.71,3.906,1.32,6.587,1.32c2.5,0,5.396-0.527,8.623-1.994l1.123-0.581
							c36.289-21.167,53.379-59.776,60.342-80.906l7.559-22.964l-23.105,7.104
							C3092.497,1605.674,3088.132,1606.731,3083.708,1607.475z M3046.36,1675.224c-0.176-0.481-0.347-0.957-0.508-1.416
							c-2.08-5.798-4.922-13.737-9.688-22.695c-2.7-5.081-5.005-9.393-7.017-13.125c19.551-1.157,37.217-2.801,51.421-4.797
							C3073.4,1647.608,3062.472,1663.755,3046.36,1675.224z"/>
					</g>
				</g>
			</g>
			<g>
				<g>
					<g>
						<path style="fill:#FFFFFF;" d="M2854.151,1621.574c46.543,67.984,39.995,89.23,62.842,73.377
							c20.68-14.35,41.724-44.259,54.684-67.609C2932.528,1627.626,2890.768,1625.985,2854.151,1621.574z"/>
					</g>
					<g style="opacity:0.2;">
						<path style="fill:#2D0106;" d="M2878.864,1647.5c0,0,30.635,8.77,70.669,6.076c5.719-0.385,10.487-20.385,10.487-20.385
							l-90.417-6.909L2878.864,1647.5z"/>
					</g>
					<g>
						<path style="fill:#2D0106;" d="M2855.646,1609.165l-27.397-3.301l15.591,22.771c16.538,24.157,26.035,41.936,32.969,54.919
							c8.877,16.624,13.769,25.779,24.385,28.34c1.563,0.378,3.1,0.549,4.599,0.549c6.855,0,13.032-3.55,18.33-7.224
							c28.11-19.509,51.87-59.897,58.481-71.812l10.391-18.723l-21.411,0.156
							C2929.094,1615.139,2889.035,1613.186,2855.646,1609.165z M2909.87,1684.68c-1.123,0.776-2.012,1.345-2.705,1.758
							c-2.114-3.076-5.249-8.945-8.305-14.663c-4.654-8.716-10.938-20.479-19.996-35.144c25.156,2.085,49.785,2.925,70.669,3.164
							C2938.03,1657.314,2923.684,1675.095,2909.87,1684.68z"/>
					</g>
				</g>
			</g>
			<g>
				<g>
					<g>
						<path style="fill:#FFFFFF;" d="M2707.719,1576.982c2.901,11.112,6.51,27.53,10.302,50.397
							c6.248,37.682,6.729,57.959,39.41,43.542c28.062-12.38,48.661-36.084,62.144-54.713c-6.099-1.201-11.954-2.497-17.448-3.922
							C2755.386,1600.168,2728.695,1587.538,2707.719,1576.982z"/>
					</g>
					<g style="opacity:0.2;">
						<path style="fill:#2D0106;" d="M2721.687,1606.267c0,0,23.75,10.047,29.375,20.016c5.625,9.968-2.5,27.926-2.5,27.926
							s26.06-11.576,40.53-21.017c14.47-9.441,18.845-17.066,18.845-17.066l-90.625-28L2721.687,1606.267z"/>
					</g>
					<g>
						<path style="fill:#2D0106;" d="M2805.26,1600.186c-44.976-11.66-71.03-23.855-91.924-34.368l-24.698-12.429l6.983,26.75
							c2.373,9.089,6.045,25.017,10.068,49.287l1.284,7.927c3.721,23.271,6.416,40.085,20.205,47.588
							c4.141,2.253,8.55,3.125,12.939,3.125c8.13,0,16.192-2.991,22.354-5.711c24.371-10.75,46.358-29.988,67.232-58.816
							l11.455-15.825l-19.17-3.772C2815.739,1602.713,2810.265,1601.484,2805.26,1600.186z M2752.385,1659.485
							c-10.2,4.5-13.232,3.499-13.242,3.505c-3.091-2.143-5.63-18.005-7.486-29.587l-1.303-8.066
							c-1.523-9.172-3.115-17.896-4.741-25.979c18.056,8.003,40.605,16.453,71.938,24.653
							C2783.097,1640.828,2768.21,1652.502,2752.385,1659.485z"/>
					</g>
				</g>
			</g>
			<g>
				<g>
					<g>
						<path style="fill:#FFFFFF;" d="M2632.952,1440.229c-24.03,15.38-69.375,63.366-69.375,63.366
							c5.689,6.885,44.143,49.337,105.658,55.841c0,0,1.679-36.543,0-74.991C2667.557,1445.995,2656.983,1424.849,2632.952,1440.229
							z"/>
					</g>
					<g style="opacity:0.2;">
						<path style="fill:#2D0106;" d="M2599.812,1526.25c0,0,28.75-21.875,43.75-45c1.875,18.125-6.475,56.724-8.55,63.675
							C2624.187,1541.25,2599.812,1526.25,2599.812,1526.25z"/>
					</g>
					<g>
						<path style="fill:#2D0106;" d="M2659.22,1425.598c-6.694-3.477-17.871-5.586-33.008,4.101
							c-25.034,16.023-69.829,63.304-71.724,65.308l-7.587,8.032l7.036,8.516c4.472,5.413,45.664,53.089,113.985,60.313
							l13.193,1.394l0.605-13.251c0.073-1.514,1.689-37.547,0.005-76.111C2680.3,1451.358,2673.152,1432.832,2659.22,1425.598z
							 M2657.195,1544.925c-37.403-7.725-64.024-29.322-76.343-41.226c13.916-14.216,42.261-42.332,58.838-52.942
							c4.473-2.866,7.28-3.354,8.012-2.971c0.073,0.039,7.608,4.324,9.043,37.203
							C2657.76,1508.218,2657.521,1530.945,2657.195,1544.925z"/>
					</g>
				</g>
			</g>
			<g>
				<g>
					<g>
						<path style="fill:#FFFFFF;" d="M2389.153,1492.422c8.09,13.891,20.914,38.735,30.41,63.153
							c13.457,34.604,29.798,47.1,44.293,31.72c13.052-13.847,43.014-61.168,60.791-99.231c-3.046-0.026-6.317,0.036-9.924,0.225
							C2463.157,1491.003,2440.519,1493.714,2389.153,1492.422z"/>
					</g>
					<g style="opacity:0.2;">
						<path style="fill:#2D0106;" d="M2424.812,1497.973l26.717,72.027c0,0,0.783-54.375,15.158-66.25
							C2451.687,1501.25,2424.812,1497.973,2424.812,1497.973z"/>
					</g>
					<g>
						<path style="fill:#2D0106;" d="M2514.064,1475.806c-12.065,0.635-22.554,1.269-32.198,1.853
							c-31.084,1.885-53.535,3.238-92.402,2.269l-22.383-0.564l11.27,19.35c7.89,13.549,20.371,37.759,29.561,61.391
							c10.679,27.453,23.55,42.829,38.266,45.696c1.338,0.261,2.994,0.466,4.878,0.466c5.854,0,13.96-1.977,21.895-10.398
							c13.887-14.734,44.438-62.724,63.022-102.517l-11.215-17.788C2521.467,1475.54,2517.947,1475.603,2514.064,1475.806z
							 M2454.758,1578.723c-1.558,1.648-2.999,2.713-3.799,2.539c-2.993-0.583-10.971-7.648-19.746-30.219
							c-6.25-16.062-13.935-32.383-20.845-45.796c27.593,0.105,47.466-1.086,73.013-2.632c6.44-0.391,13.261-0.803,20.683-1.223
							C2486.394,1535.063,2464.015,1568.896,2454.758,1578.723z"/>
					</g>
				</g>
			</g>
			<g>
				<g>
					<g>
						<path style="fill:#FFFFFF;" d="M2297.488,1391.206c-18.56,16.418-42.923,40.761-54.249,52.218
							c32.45,22.495,73.735,38.805,108.625,45.457c-1.87-39.063-8.489-87.651-11.121-103.442
							C2337.858,1368.137,2322.479,1369.098,2297.488,1391.206z"/>
					</g>
					<g style="opacity:0.2;">
						<path style="fill:#2D0106;" d="M2281.062,1456.875l33.958-49.375c0,0-13.533,53.577,6.667,68.059
							C2301.261,1479.417,2281.062,1456.875,2281.062,1456.875z"/>
					</g>
					<g>
						<path style="fill:#2D0106;" d="M2353.073,1383.384c-2.393-14.344-10.908-19.378-15.771-21.102
							c-12.47-4.421-28.212,1.971-48.095,19.561c-18.516,16.379-42.32,40.107-54.859,52.792l-10.459,10.582l12.232,8.479
							c32.197,22.321,74.595,40.063,113.403,47.46l15.581,2.972l-0.757-15.847
							C2362.478,1449.175,2355.822,1399.873,2353.073,1383.384z M2262.99,1441.311c12.075-12.011,29.15-28.684,42.779-40.742
							c12.803-11.326,19.756-13.89,22.344-14.465c0.103,0.361,0.205,0.82,0.302,1.391c2.295,13.785,7.402,51.157,9.947,85.522
							C2312.424,1466.257,2285.754,1455.042,2262.99,1441.311z"/>
					</g>
				</g>
			</g>
		</g>
	</g>
</g>
</svg>
