<?xml version="1.0" encoding="utf-8"?>
<!-- Generator: Adobe Illustrator 27.5.0, SVG Export Plug-In . SVG Version: 6.00 Build 0)  -->
<svg version="1.1" id="Layer_1" xmlns="http://www.w3.org/2000/svg" xmlns:xlink="http://www.w3.org/1999/xlink" x="0px" y="0px"
	 viewBox="0 0 4000 4000" style="enable-background:new 0 0 4000 4000;" xml:space="preserve">
<g>
	<g>
		<!-- <rect style="fill:#7DD4FF;" width="4000" height="4000"/> -->
	</g>
	<g>
		<g>
			<path style="fill:#D3D3D3;" d="M1746.859,2027.067L3408.205,615.015l-594.796,78.789L1560.46,1964.365
				C1595.924,1963.912,1690.335,1968.654,1746.859,2027.067z"/>
		</g>
		<g>
			<path style="fill:#D3D3D3;" d="M1785.381,2194.52l1475.157-986.599l155.524-585.344L1754.1,2035.152
				C1786.784,2074.212,1797.321,2127.74,1785.381,2194.52z"/>
		</g>
		<g>
			<path style="fill:#FEBD1C;" d="M1548.964,1975.615l-221.301,168.886c-1.152,0.886-2.629,1.259-4.029,1.062
				c-1.432-0.196-2.724-0.953-3.595-2.106l-211.02-280.057c-1.037-1.375-1.356-3.161-0.865-4.81l28.691-96.713l-244.819-76.156
				l-31.332,261.448l115.389-3.852c1.715-0.057,3.352,0.699,4.419,2.041l247.018,309.667c1.703,2.127,1.557,5.19-0.339,7.15
				l-394.008,407.956c-0.891,0.926-2.086,1.501-3.364,1.628l-149.516,14.759c-56.028,85.103-70.906,263.314-59.575,290.314
				c1.065,2.54,12.466,15.738,132.651,26.479c62.463,5.583,122.024,7.57,133.885,7.412c8.362-14.79,47.598-117.277,71.381-181.148
				c0.399-1.073,1.126-1.993,2.08-2.624c4.78-3.175,477.805-317.367,483.507-321.363c5.398-3.869,5.626-4.025,49.867,52.763
				c21.794,27.981,51.881,67.207,89.424,116.587c63.907,84.066,128.133,169.59,128.776,170.443c0.582,0.77,0.941,1.686,1.053,2.646
				l11.368,100.951l171.181-9.356l12.49-160.866l-95.67-22.213c-1.18-0.273-2.236-0.938-2.994-1.882l-265.908-330.04
				c-1.786-2.209-1.559-5.417,0.512-7.357l228.271-213.774c14.765-69.866,5.153-124.89-28.578-163.565
				C1683.718,1970.804,1564.017,1974.885,1548.964,1975.615z M1034.605,1795.277l-22.076,87.234
				c-0.356,1.411-1.264,2.618-2.522,3.354c-0.785,0.456-1.662,0.707-2.556,0.737c-0.535,0.018-1.072-0.044-1.596-0.185
				l-79.498-21.502c-2.818-0.759-4.525-3.612-3.872-6.453l19.266-83.626c0.672-2.895,3.521-4.712,6.441-4.084l82.308,17.894
				c1.436,0.313,2.685,1.198,3.458,2.444C1034.73,1792.342,1034.966,1793.855,1034.605,1795.277z M890.878,2752.161
				c-0.018,0.1,0.025,0.199,0.002,0.299l-41.138,183.609c-0.544,2.43-2.665,4.154-5.105,4.235c-0.18,0.006-0.36,0.001-0.541-0.009
				c-122.564-8.015-154.061-12.901-162.791-16.424c-0.607-0.161-1.141-0.434-1.667-0.804c-0.484-0.287-0.838-0.564-1.104-0.834
				c-0.011-0.014-0.027-0.017-0.038-0.03c-0.011-0.012-0.011-0.027-0.022-0.04c-0.453-0.486-0.649-0.948-0.826-1.389
				c-0.049-0.125-0.104-0.264-0.155-0.449c-0.009-0.025-0.01-0.051-0.016-0.076c-0.074-0.297-0.127-0.717-0.133-1.37
				c-0.008-0.318-0.023-0.623,0.024-0.938c0.363-7.467,5.621-36.171,38.778-162.563c0.606-2.32,2.666-3.963,5.064-4.043
				l164.198-5.482c0.106-0.004,0.195,0.057,0.299,0.059c0.546,0.012,1.065,0.138,1.584,0.313c0.214,0.072,0.432,0.09,0.634,0.188
				c0.644,0.308,1.231,0.744,1.729,1.314c0.03,0.036,0.081,0.048,0.112,0.085c0.003,0.002,0.003,0.006,0.006,0.01c0,0,0,0,0,0
				c0.514,0.623,0.837,1.329,1.031,2.062c0.058,0.221,0.033,0.444,0.065,0.671C890.941,2751.096,890.969,2751.625,890.878,2752.161z
				 M1769.451,2881.188l14.442-62.69c0.616-2.67,3.168-4.489,5.844-4.175l71.055,7.363c1.585,0.159,3.017,1.012,3.915,2.323
				c0.902,1.311,1.18,2.955,0.765,4.49l-17.573,64.793c-0.632,2.332-2.71,3.922-5.05,4c-0.307,0.01-0.62-0.006-0.934-0.048
				l-67.924-9.466c-1.507-0.209-2.854-1.044-3.718-2.298C1769.409,2884.226,1769.114,2882.673,1769.451,2881.188z
				 M1539.079,2201.174c-0.034,0.483-0.135,0.966-0.302,1.435c-0.199,0.558-20.196,56.22-40.826,111.199
				c-42.993,114.552-46.26,114.661-51.209,114.827c-6.42,0.405-129.851,21.994-211.24,36.407c-0.255,0.046-0.506,0.069-0.758,0.078
				l-0.003,0.001c-0.003,0-0.005,0-0.005,0c-0.034,0.001-0.067-0.02-0.101-0.021c-0.773,0.011-1.544-0.133-2.259-0.447
				c-0.307-0.135-0.53-0.401-0.809-0.591c-0.38-0.259-0.797-0.448-1.111-0.812c-0.019-0.022-0.023-0.052-0.042-0.075
				c-0.017-0.019-0.041-0.024-0.057-0.044c-0.39-0.476-0.654-1.016-0.858-1.576c-0.058-0.156-0.095-0.307-0.137-0.464
				c-0.133-0.503-0.198-1.013-0.186-1.535c0.004-0.111-0.018-0.217-0.008-0.328c0.047-0.515,0.151-1.027,0.347-1.523l79.415-201.173
				c0.63-1.606,1.994-2.812,3.665-3.249l219.701-57.751c0.554-0.152,1.117-0.184,1.675-0.154c0.109,0.006,0.211,0.035,0.32,0.049
				c0.527,0.061,1.03,0.2,1.516,0.411c0.14,0.06,0.277,0.112,0.412,0.185c0.534,0.285,1.036,0.63,1.457,1.089
				c0.022,0.024,0.034,0.054,0.053,0.078c0.014,0.015,0.032,0.02,0.046,0.035c0.044,0.051,0.054,0.116,0.096,0.169
				c0.359,0.448,0.63,0.942,0.831,1.468c0.061,0.16,0.119,0.31,0.161,0.474c0.166,0.595,0.268,1.206,0.223,1.828
				C1539.082,2201.167,1539.079,2201.17,1539.079,2201.174z"/>
		</g>
		<g style="opacity:0.4;">
			<path style="fill:#FFFFFF;" d="M692.109,2700.381c5.776-2.625,156.419-13.122,158.519-13.647
				c2.1-0.524,410.783-398.568,408.261-406.966c-2.521-8.398-20.567-21.432-20.567-21.432c1.631,2.182,1.382,5.239-0.577,7.135
				l-407.401,394.583c-0.922,0.895-2.135,1.43-3.416,1.515l-149.925,9.762c-39.758,56.209-62.131,155.487-69.26,222.438
				c1.536,7.927,4.338,14.232,8.785,18.145C616.527,2911.913,686.336,2703.006,692.109,2700.381z"/>
		</g>
		<g>
			<g>
				<polygon style="fill:#FC3C53;" points="1849.536,2835.684 1789.837,2827.479 1776.065,2879.292 1833.09,2889.191 				"/>
			</g>
			<g>
				<path style="fill:#021168;" d="M1836.881,2905.593c-0.58,0-1.168-0.051-1.758-0.154l-67.573-11.726
					c-2.83-0.491-5.323-2.146-6.873-4.565c-1.549-2.419-2.011-5.378-1.273-8.154l16.527-62.173c1.328-4.993,6.166-8.23,11.291-7.512
					l70.769,9.729c2.975,0.408,5.621,2.104,7.238,4.636c1.616,2.532,2.038,5.645,1.156,8.516l-19.723,64.17
					C1845.323,2902.717,1841.305,2905.593,1836.881,2905.593z M1782.07,2875.448l47.667,8.271l13.534-44.036l-49.871-6.855
					L1782.07,2875.448z"/>
			</g>
		</g>
		<g style="opacity:0.2;">
			<path style="fill:#021168;" d="M963.93,2652.192l198.759-147.67c0,0-32.893,2.799-53.189,13.297
				C1089.205,2528.318,963.93,2652.192,963.93,2652.192z"/>
		</g>
		<g>
			<path style="fill:#FFFFFF;" d="M3406.216,615.279l-592.807,78.525L1560.46,1964.365c15.235-0.195,41.362,0.584,70.681,6.151
				l415.19-405.753l188.277,12.612l-525.627,431.633c5.922,4.595,32.545,12.55,37.878,18.059L3406.958,616.076L3406.216,615.279z
				 M2152.949,1460.569l127.883-124.977l201.029,28.884l-132.417,114.021L2152.949,1460.569z M2533.949,1319.624l-200.739-35.22
				l540.81-528.517l411.074-83.048L2533.949,1319.624z"/>
		</g>
		<g>
			<polygon style="fill:none;" points="693.529,2827.849 688.685,2834.258 817.601,2734.894 714.875,2744.566 			"/>
		</g>
		<g>
			<path style="fill:none;" d="M1233.982,2409.606c-1.12,0.907-2.294,1.855-3.35,2.712L1233.982,2409.606z"/>
		</g>
		<g>
			<polygon style="fill:none;" points="1298.145,2392.804 1295.893,2399.43 1487.969,2233.164 1334.92,2288.289 			"/>
		</g>
		<g>
			<polygon style="fill:none;" points="1803.09,2879.191 1819.536,2825.684 1759.837,2817.479 1746.065,2869.292 			"/>
		</g>
		<g>
			<path style="fill:none;" d="M1229.914,2412.896c-1.012,0.818-1.819,1.471-2.254,1.823L1229.914,2412.896z"/>
		</g>
		<g>
			<path style="fill:none;" d="M1234.141,2409.479l1.187-0.96c0,0-0.003,0.001-0.003,0.001
				C1234.949,2408.825,1234.549,2409.149,1234.141,2409.479z"/>
		</g>
		<g>
			<polygon style="fill:none;" points="3446.231,663.017 3447.513,661.999 3445.516,662.196 			"/>
		</g>
		<g>
			<path style="fill:none;" d="M2874.02,755.887L1631.141,1970.516c32.487,6.169,68.893,18.224,98.794,41.417L3285.094,672.839
				L2874.02,755.887z"/>
		</g>
		<g>
			<path style="fill:none;" d="M786.609,2864.592l-108.827-3.972c-0.212-1.581,1.441-4.248,4.402-7.657l-23.984,18.485
				c24.921,4.792,96.687,12.838,145.497,17.728l42.104-162.323l-27.125,20.906L786.609,2864.592z"/>
		</g>
		<g>
			<path style="fill:none;" d="M1426.574,2390.792l-130.328,29.034c2.542-4.833,8.799-12.332,17.546-21.545l-60.829,52.657
				c49.926-8.817,171.856-30.266,191.083-32.883c8.831-13.665,49.206-121.502,77.483-199.598l-42.603,36.878L1426.574,2390.792z"/>
		</g>
		<g>
			<path style="fill:none;" d="M1561.88,2006.917c0,0-226.85,179.834-238.763,179.531
				c-11.913-0.302-249.277-314.294-249.277-314.294l19.954-94.423l-183.154-53.679l-38.02,161.626
				c-1.605-1.501-2.594-5.799-3.105-12.128l-8.823,73.621l115.389-3.852c1.715-0.057,3.352,0.699,4.419,2.041l247.018,309.667
				c0,0,18.471,12.425,21.271,20.734c2.8,8.309-392.374,419.767-394.455,420.362c-2.081,0.595-152.29,16.113-157.975,18.929
				c-5.683,2.816-68.482,213.936-68.482,213.936c-4.575-3.762-7.586-9.971-9.385-17.842c-2.348,32.228-1.449,56.934,2.225,65.69
				c0.153,0.366,0.538,0.959,1.414,1.728l35.647-34.818c0,0,187.39,28.406,208.671,20.868
				c21.281-7.538,61.646-245.743,61.646-245.743l266.219-216.51c0,0,269.57-42.612,279.806-50.656
				c10.235-8.044,124.049-290.542,128.081-295.578c4.035-5.036,117.508-87.952,117.508-87.952s46.346,43.725,31.643,113.784
				c0,0-244.428,224.537-248.974,245.695c-4.546,21.16,282.331,386.782,282.331,386.782l-0.483,3.299
				c0.899-2.216,3.115-3.688,5.509-3.408l71.055,7.363c1.585,0.159,3.017,1.012,3.915,2.323c0.902,1.311,1.18,2.955,0.765,4.49
				l-17.573,64.793c-0.241,0.886-0.736,1.617-1.33,2.246l27.265,24.238l-132.444,7.572c0,0-5.6-83.842-7.677-93.576
				c-2.074-9.734-269.57-355.829-279.815-358.637c-10.248-2.809-498.92,325.29-504.989,332.32
				c-4.661,5.401-24.499,94.331-33.663,136.002c14.271-36.472,30.943-80.455,43.39-113.879c0.399-1.073,1.126-1.993,2.08-2.624
				c4.78-3.175,477.805-317.367,483.507-321.363c5.398-3.869,5.626-4.025,49.867,52.763c21.794,27.981,51.881,67.207,89.424,116.587
				c63.907,84.066,128.133,169.59,128.776,170.443c0.582,0.77,0.941,1.686,1.053,2.646l11.368,100.951l160.217-8.756l-0.108-142.308
				l-86.011-17.436c0,0-224.403-282.41-247.161-313.862c-22.758-31.452-18.936-42.783-18.936-42.783s7.254,1.396,12.637,2.7
				l-1.54-1.911c-1.786-2.209-1.559-5.417,0.512-7.357l228.271-213.774c10.742-50.824,8.516-93.751-6.442-128.286
				C1692.798,2000.854,1561.88,2006.917,1561.88,2006.917z M890.878,2752.161c-0.018,0.1,0.025,0.199,0.002,0.299l-41.138,183.609
				c-0.544,2.43-2.665,4.154-5.105,4.235c-0.18,0.006-0.36,0.001-0.541-0.009c-122.564-8.015-154.061-12.901-162.791-16.424
				c-0.607-0.161-1.141-0.434-1.667-0.804c-0.484-0.287-0.838-0.564-1.104-0.834c-0.011-0.014-0.027-0.017-0.038-0.03
				c-0.011-0.012-0.011-0.027-0.022-0.04c-0.453-0.486-0.649-0.948-0.826-1.389c-0.049-0.125-0.104-0.264-0.155-0.449
				c-0.009-0.025-0.01-0.051-0.016-0.076c-0.074-0.297-0.127-0.717-0.133-1.37c-0.008-0.318-0.023-0.623,0.024-0.938
				c0.363-7.467,5.621-36.171,38.778-162.563c0.606-2.32,2.666-3.963,5.064-4.043l164.198-5.482
				c0.106-0.004,0.195,0.057,0.299,0.059c0.546,0.012,1.065,0.138,1.584,0.313c0.214,0.072,0.432,0.09,0.634,0.188
				c0.644,0.308,1.231,0.744,1.729,1.314c0.03,0.036,0.081,0.048,0.112,0.085c0.003,0.002,0.003,0.006,0.006,0.01c0,0,0,0,0,0
				c0.514,0.623,0.837,1.329,1.031,2.062c0.058,0.221,0.033,0.444,0.065,0.671C890.941,2751.096,890.969,2751.625,890.878,2752.161z
				 M953.999,1785.276c0.664-1.073,65.297,12.036,66.212,12.235c0.913,0.199,3.942,16.947,3.576,18.388
				c-0.365,1.441-55.472-10.794-55.472-10.794l-13.696,51.225l-15.191-4.111C939.429,1852.219,953.336,1786.348,953.999,1785.276z
				 M1245.509,2227.673l-254.956-312.322l-95.291-1.721l17.74-55.912c0,0,97.005,28.146,101.092,28.661
				c4.087,0.516,231.512,293.974,231.512,293.974L1245.509,2227.673z M1539.079,2201.174c-0.034,0.483-0.135,0.966-0.302,1.435
				c-0.199,0.558-20.196,56.22-40.826,111.199c-42.993,114.552-46.26,114.661-51.209,114.827
				c-6.42,0.405-129.851,21.994-211.24,36.407c-0.255,0.046-0.506,0.069-0.758,0.078l-0.003,0.001c-0.003,0-0.005,0-0.005,0
				c-0.034,0.001-0.067-0.02-0.101-0.021c-0.773,0.011-1.544-0.133-2.259-0.447c-0.307-0.135-0.53-0.401-0.809-0.591
				c-0.38-0.259-0.797-0.448-1.111-0.812c-0.019-0.022-0.023-0.052-0.042-0.075c-0.017-0.019-0.041-0.024-0.057-0.044
				c-0.39-0.476-0.654-1.016-0.858-1.576c-0.058-0.156-0.095-0.307-0.137-0.464c-0.133-0.503-0.198-1.013-0.186-1.535
				c0.004-0.111-0.018-0.217-0.008-0.328c0.047-0.515,0.151-1.027,0.347-1.523l79.415-201.173c0.63-1.606,1.994-2.812,3.665-3.249
				l219.701-57.751c0.554-0.152,1.117-0.184,1.675-0.154c0.109,0.006,0.211,0.035,0.32,0.049c0.527,0.061,1.03,0.2,1.516,0.411
				c0.14,0.06,0.277,0.112,0.412,0.185c0.534,0.285,1.036,0.63,1.457,1.089c0.022,0.024,0.034,0.054,0.053,0.078
				c0.014,0.015,0.032,0.02,0.046,0.035c0.044,0.051,0.054,0.116,0.096,0.169c0.359,0.448,0.63,0.942,0.831,1.468
				c0.061,0.16,0.119,0.31,0.161,0.474c0.166,0.595,0.268,1.206,0.223,1.828C1539.082,2201.167,1539.079,2201.17,1539.079,2201.174z
				"/>
		</g>
		<g>
			<path style="fill:none;" d="M1786.522,2193.757c-0.136-0.192-0.422-0.818-0.761-1.608c-0.138,0.797-0.236,1.571-0.379,2.371
				L1786.522,2193.757L1786.522,2193.757z"/>
		</g>
		<g>
			<path style="fill:none;" d="M3364.533,666.374l-4.672,3.97c-0.069,0.07-360.94,366.383-505.569,480.44
				c-144.645,114.067-1084.742,906.787-1084.742,906.787l-0.04-0.007c12.571,22.468,19.435,48.598,20.489,78.269l1419.532-957.694
				L3364.533,666.374z"/>
		</g>
		<g style="opacity:0.2;">
			<path style="fill:#021168;" d="M1453.899,2475.135c10.245,2.809,277.741,348.904,279.815,358.637
				c2.077,9.734,7.677,93.576,7.677,93.576l132.444-7.572l-27.265-24.238c-0.967,1.027-2.27,1.706-3.72,1.754
				c-0.307,0.01-0.62-0.006-0.934-0.048l-67.924-9.466c-1.507-0.209-2.854-1.044-3.718-2.298c-0.863-1.254-1.159-2.807-0.822-4.292
				l14.442-62.69c0.065-0.281,0.23-0.506,0.335-0.767l0.483-3.299c0,0-286.877-365.623-282.331-386.782
				c4.546-21.158,248.974-245.695,248.974-245.695c14.702-70.059-31.643-113.784-31.643-113.784s-113.473,82.916-117.508,87.952
				c-4.032,5.036-117.846,287.534-128.081,295.578c-10.235,8.045-279.806,50.656-279.806,50.656l-266.219,216.51
				c0,0-40.365,238.205-61.646,245.743c-21.281,7.538-208.671-20.868-208.671-20.868l-35.647,34.818
				c5.211,4.569,28.364,15.556,131.236,24.751c62.463,5.583,122.024,7.57,133.885,7.412c3.986-7.051,14.993-34.044,27.992-67.269
				c9.163-41.671,29.002-130.601,33.663-136.002C954.979,2800.425,1443.651,2472.326,1453.899,2475.135z"/>
		</g>
		<g style="opacity:0.25;">
			<path style="fill:#021168;" d="M1786.522,2193.757l1474.017-985.836l155.524-585.344l-51.53,43.797l-155.002,511.764
				l-1419.532,957.694c0.625,17.544-0.814,36.344-4.238,56.316C1786.1,2192.939,1786.386,2193.565,1786.522,2193.757
				L1786.522,2193.757z"/>
		</g>
		<g style="opacity:0.2;">
			<path style="fill:#021168;" d="M1012.315,1852.774c-4.068-0.651-100.08-32.018-100.08-32.018l-19.595,55.289l95.18,4.899
				l244.393,320.655l1.676-47.289C1233.889,2154.31,1016.383,1853.426,1012.315,1852.774z"/>
		</g>
		<g style="opacity:0.4;">
			<path style="fill:#FFFFFF;" d="M910.642,1724.051l183.154,53.679l-19.954,94.423c0,0,237.363,313.992,249.277,314.294
				c11.913,0.302,238.763-179.531,238.763-179.531s130.918-6.063,204.271,68.291c-5.607-12.94-12.941-24.738-22.135-35.279
				c-1.628-1.867-3.32-3.656-5.033-5.417l-17.271-15.121c-63.532-47.668-159.383-44.423-172.748-43.775l-221.301,168.886
				c-1.152,0.886-2.629,1.259-4.029,1.062c-1.432-0.196-2.724-0.953-3.595-2.106l-211.02-280.057
				c-1.037-1.375-1.356-3.161-0.865-4.81l28.691-96.713l-244.819-76.156l-22.51,187.826c0.511,6.329,1.5,10.627,3.105,12.128
				L910.642,1724.051z"/>
		</g>
		<g>
			<path style="fill:#FFFFFF;" d="M2854.292,1150.784c144.629-114.057,505.5-480.37,505.569-480.44L1754.1,2035.152
				c5.859,7.001,14.026,33.146,18.459,41.071l11.909,2.04C1784.469,2078.263,2709.647,1264.851,2854.292,1150.784z"/>
		</g>
		<g style="opacity:0.4;">
			<path style="fill:#FFFFFF;" d="M1721.712,2019.39l17.271,15.121C1733.593,2028.965,1727.798,2023.955,1721.712,2019.39z"/>
		</g>
		<g style="opacity:0.4;">
			<path style="fill:#FFFFFF;" d="M1721.712,2019.39l17.271,15.121C1733.593,2028.965,1727.798,2023.955,1721.712,2019.39z"/>
		</g>
		<g style="opacity:0.4;">
			<path style="fill:#FFFFFF;" d="M1551.648,2466.619c22.758,31.452,247.161,313.862,247.161,313.862l86.011,17.436l0.108,142.308
				l10.964-0.599l12.49-160.866l-95.67-22.213c-1.18-0.273-2.236-0.938-2.994-1.882l-264.368-328.129
				c-5.383-1.304-12.637-2.7-12.637-2.7S1528.891,2435.167,1551.648,2466.619z"/>
		</g>
		<g>
			<path style="fill:#FEBD1C;" d="M1571.166,2526.89l-1.024,97.08l28.753,41.344l-0.786-107.461l27.34,42.853l-0.31,95.594
				l14.258,18.081l-1.801-106.377C1637.596,2608.001,1583.127,2528.591,1571.166,2526.89z"/>
		</g>
		<g>
			<path style="fill:#FEBD1C;" d="M1133.39,1985.922l-4.262,96.991l27.358,42.28l2.799-107.428l25.895,43.741l-3.499,95.53
				l13.647,18.546l1.75-106.378C1197.076,2069.205,1145.287,1988.022,1133.39,1985.922z"/>
		</g>
		<g>
			<polygon style="fill:#FEBD1C;" points="1740.492,2079.731 1568.89,2216.877 1549.795,2264.311 1756.12,2095.666 			"/>
		</g>
		<g>
			<path style="fill:#021168;" d="M882.567,3031.391c-26.655,0-90.236-3.787-128.546-7.156
				c-141.161-12.415-148.239-29.28-152.468-39.355c-14.648-34.905,4.038-225.361,62.947-312.129c2.56-3.77,6.663-6.208,11.198-6.658
				l146.447-14.463l380.719-394.192l-233.8-293.091l-113.997,3.806c-4.487,0.088-8.801-1.667-11.83-4.968
				c-3.03-3.301-4.467-7.761-3.933-12.212l32.861-274.192c0.543-4.529,3.071-8.582,6.898-11.062
				c3.828-2.48,8.561-3.135,12.915-1.775l256.149,79.68c8.024,2.495,12.553,10.977,10.163,19.033l-28.009,94.419l197.059,261.526
				l210.323-160.51c2.355-1.797,5.179-2.876,8.133-3.106c5.8-0.442,142.885-10.061,213.85,71.248
				c38.573,44.197,49.644,105.867,32.905,183.298c-0.66,3.054-2.234,5.833-4.514,7.966l-219.102,205.19l253.639,314.814
				l95.049,22.065c7.396,1.716,12.428,8.579,11.84,16.15l-13.223,170.251c-0.596,7.678-6.786,13.728-14.476,14.148l-181.033,9.895
				c-8.116,0.427-15.19-5.53-16.101-13.618l-11.475-101.88c-87.234-116.138-215.01-284.7-248.068-324.509
				c-64.608,43.071-388.436,258.174-468.724,311.501c-4.801,12.842-18.784,50.132-33.07,87.158
				c-38.199,98.999-39.852,99.473-49.022,102.095C892.743,3031.198,888.598,3031.391,882.567,3031.391z M629.367,2971.525
				c23.848,17.542,207.319,29.197,251.677,29.37c10.618-22.925,41.546-102.993,68.279-174.785c1.131-3.04,3.195-5.642,5.895-7.437
				c164.352-109.165,476.88-316.792,483.34-321.245c12.308-8.813,20.567,1.284,33.068,16.572
				c7.096,8.679,17.291,21.548,30.299,38.245c21.822,28.013,51.933,67.271,89.497,116.685
				c63.923,84.084,128.17,169.629,128.812,170.483c1.646,2.192,2.675,4.783,2.981,7.505l10.32,91.631l153.121-8.369l11.158-143.674
				l-87.349-20.278c-3.345-0.776-6.333-2.651-8.487-5.325l-265.908-330.042c-5.045-6.26-4.407-15.352,1.461-20.847l225.967-211.621
				c13.176-65.154,4.127-116.235-26.922-151.873c-54.314-62.344-161.182-61.963-184.062-61.118l-218.823,166.997
				c-3.251,2.483-7.358,3.555-11.41,3.008c-4.052-0.557-7.714-2.708-10.176-5.974l-211.02-280.056
				c-2.932-3.892-3.844-8.941-2.458-13.611l25.901-87.312l-224.057-69.697l-28.536,238.098l103.813-3.467
				c4.872-0.115,9.494,1.978,12.52,5.774l247.022,309.666c4.812,6.033,4.401,14.697-0.959,20.249L840.32,2677.033
				c-2.531,2.62-5.912,4.255-9.539,4.614l-144.723,14.292C633.699,2779.97,621.557,2945.099,629.367,2971.525z M888.306,3000.756
				c-0.001,0-0.002,0-0.003,0C888.305,3000.756,888.304,3000.756,888.306,3000.756z M829.272,2666.362h0.05H829.272z
				 M1456.304,2522.502c-0.073,0.054-0.273,0.19-0.594,0.408C1455.909,2522.78,1456.108,2522.643,1456.304,2522.502z"/>
		</g>
		<g>
			<path style="fill:#021168;" d="M1777.553,2221.65c-4.956,0-9.82-2.393-12.781-6.821c-4.716-7.053-2.823-16.592,4.229-21.306
				l1482.899-991.777l153.114-576.282l-586.92,77.744L1557.918,1981.086c-5.956,6.045-15.681,6.106-21.721,0.154
				c-6.04-5.957-6.108-15.681-0.151-21.721L2799.919,677.888c2.397-2.432,5.535-3.994,8.919-4.443l614.897-81.45
				c5.082-0.662,10.165,1.233,13.55,5.083c3.386,3.85,4.628,9.133,3.311,14.089l-160.496,604.07
				c-0.959,3.608-3.201,6.746-6.306,8.823l-1487.716,994.997C1783.455,2220.81,1780.488,2221.65,1777.553,2221.65z"/>
		</g>
		<g>
			<path style="fill:#021168;" d="M1746.44,2049.906c-4.351,0-8.672-1.836-11.711-5.412c-5.494-6.462-4.708-16.157,1.756-21.65
				l1679.32-1427.327c6.464-5.488,16.157-4.71,21.651,1.758c5.494,6.462,4.708,16.157-1.756,21.65L1756.38,2046.252
				C1753.49,2048.708,1749.956,2049.906,1746.44,2049.906z"/>
		</g>
		<g>
			<g>
				<polygon style="fill:#FC3C53;" points="933.515,1854.553 1001.986,1875.549 1023.872,1799.784 952.843,1781.844 				"/>
			</g>
			<g style="opacity:0.4;">
				<path style="fill:#FFFFFF;" d="M969.273,1805.016c0,0,54.668,14.067,55.081,12.639c0.413-1.428-2.055-18.268-2.961-18.497
					c-0.908-0.229-65.068-15.487-65.767-14.437c-0.699,1.05-16.796,66.42-16.796,66.42l15.045,4.615L969.273,1805.016z"/>
			</g>
			<g>
				<path style="fill:#021168;" d="M1005.665,1892.59c-1.008,0-2.02-0.149-3.002-0.449l-78.734-24.146
					c-5.263-1.614-8.308-7.1-6.894-12.422l22.045-82.93c1.44-5.422,6.968-8.694,12.404-7.297l81.663,20.625
					c2.691,0.681,4.991,2.424,6.373,4.832c1.382,2.407,1.727,5.274,0.957,7.939l-24.974,86.45c-0.762,2.637-2.551,4.858-4.965,6.164
					C1009.028,1892.175,1007.352,1892.59,1005.665,1892.59z M939.361,1851.306l59.355,18.203l19.146-66.274l-61.588-15.557
					L939.361,1851.306z"/>
			</g>
		</g>
		<g>
			<g>
				<path style="fill:#FC3C53;" d="M724.774,2753.323c-13.819,46.437-33.428,114.226-40.292,142.296L869.1,2753.323H724.774z"/>
			</g>
			<g>
				<path style="fill:#FC3C53;" d="M833.697,2924.176l42.104-162.323L688.2,2906.448
					C713.121,2911.24,784.887,2919.286,833.697,2924.176z"/>
			</g>
			<g style="opacity:0.25;">
				<path style="fill:#021168;" d="M816.609,2899.592l32.067-116.833l-136.492,105.204c-2.961,3.409-4.613,6.076-4.402,7.657
					L816.609,2899.592z"/>
			</g>
			<g style="opacity:0.4;">
				<path style="fill:#FFFFFF;" d="M724.774,2753.323c-13.819,46.437-33.428,114.226-40.292,142.296l34.204-26.362l4.844-6.409
					l21.346-83.282l102.725-9.672l21.5-16.571H724.774z"/>
			</g>
			<g>
				<path style="fill:#021168;" d="M837.79,2942.836c-0.421,0-0.844-0.02-1.27-0.063c-167.058-16.541-168.578-20.723-171.91-29.883
					c-1.743-4.795-3.545-9.753,43.855-168.652c1.618-5.422,6.606-9.141,12.266-9.141h164.291c3.961,0,7.699,1.833,10.123,4.968
					c2.424,3.132,3.261,7.212,2.266,11.045l-47.241,182.139C848.695,2938.94,843.562,2942.836,837.79,2942.836z M691.135,2899.482
					c22.284,4.089,80.961,11.042,137.01,16.724l40.334-155.508H730.276C713.672,2816.618,696.607,2876.442,691.135,2899.482z"/>
			</g>
			<g>
				<path style="fill:#021168;" d="M676.646,2918.754c-3.067,0-6.1-1.372-8.118-3.987c-3.452-4.48-2.62-10.911,1.859-14.363
					l208.383-160.618c4.481-3.452,10.909-2.615,14.362,1.858c3.452,4.48,2.62,10.911-1.859,14.363L682.89,2916.625
					C681.028,2918.061,678.828,2918.754,676.646,2918.754z"/>
			</g>
		</g>
		<g>
			<g>
				<path style="fill:#FC3C53;" d="M1439.046,2413.056c8.831-13.665,49.206-121.502,77.483-199.598l-268.566,232.48
					C1297.889,2437.121,1419.819,2415.673,1439.046,2413.056z"/>
			</g>
			<g>
				<polygon style="fill:#FC3C53;" points="1313.007,2258.071 1242.715,2436.135 1507.469,2206.955 				"/>
			</g>
			<g style="opacity:0.2;">
				<path style="fill:#021168;" d="M1421.574,2385.792l52.352-135.456l-165.134,142.945c-8.747,9.213-15.005,16.712-17.546,21.545
					L1421.574,2385.792z"/>
			</g>
			<g style="opacity:0.4;">
				<path style="fill:#FFFFFF;" d="M1245.262,2433.93l0.698-0.602c1.028-0.892,2.168-1.878,3.258-2.822l0.155-0.132
					c0.397-0.343,0.786-0.68,1.151-0.998c0-0.001,0.003-0.001,0.003-0.001l40.367-34.944l2.251-6.626l36.775-104.515l153.049-55.125
					l24.5-21.208l-194.463,51.116l-70.292,178.064l0.355-0.308C1243.493,2435.461,1244.278,2434.782,1245.262,2433.93z"/>
			</g>
			<g>
				<path style="fill:#021168;" d="M1229.554,2467.499c-3.802,0-7.456-1.697-9.911-4.702c-2.933-3.589-3.696-8.486-1.993-12.798
					l79.414-201.169c1.497-3.792,4.71-6.643,8.651-7.681l219.7-57.754c4.598-1.204,9.483,0.232,12.693,3.735
					c3.21,3.503,4.214,8.496,2.609,12.969c-0.2,0.557-20.21,56.272-40.863,111.299c-44.723,119.165-47.245,119.25-57.861,119.607
					c-8.003,0.75-130.15,22.122-210.204,36.296C1231.043,2467.433,1230.296,2467.499,1229.554,2467.499z M1318.495,2264.26
					l-68.629,173.85c60.562-10.698,157.627-27.732,184.485-31.799c10.126-19.663,43.267-107.065,74.015-191.963L1318.495,2264.26z
					 M1441.125,2405.419c-0.54,0.02-1.057,0.071-1.552,0.151C1440.299,2405.483,1440.822,2405.431,1441.125,2405.419z"/>
			</g>
			<g>
				<path style="fill:#021168;" d="M1229.56,2464.938c-2.869,0-5.721-1.199-7.747-3.538c-3.701-4.275-3.235-10.742,1.041-14.443
					l299.114-258.923c4.275-3.706,10.742-3.237,14.444,1.04c3.701,4.275,3.235,10.742-1.041,14.443l-299.114,258.923
					C1234.321,2464.118,1231.935,2464.938,1229.56,2464.938z"/>
			</g>
		</g>
		<g style="opacity:0.2;">
			<ellipse style="fill:#021168;" cx="1904.932" cy="3470.003" rx="1149.976" ry="69.997"/>
		</g>
	</g>
</g>
</svg>
