<?xml version="1.0" encoding="utf-8"?>
<!-- Generator: Adobe Illustrator 27.5.0, SVG Export Plug-In . SVG Version: 6.00 Build 0)  -->
<svg version="1.1" id="Layer_1" xmlns="http://www.w3.org/2000/svg" xmlns:xlink="http://www.w3.org/1999/xlink" x="0px" y="0px"
	 viewBox="0 0 4000 4000" style="enable-background:new 0 0 4000 4000;" xml:space="preserve">
<g>
	<g>
		<!-- <rect x="0.026" style="fill:#A3A3F3;" width="3999.948" height="4000"/> -->
	</g>
	<g>
		<g>
			<g>
				<path style="fill:#FFFFFF;" d="M708.952,3101.341c70.231,149.497,306.166,206.096,543.512,89.597
					c-68.688,224.614,268.933,284.964,470.513,191.944c22.591-10.477,43.516-22.853,61.913-37.108
					c65.619,113.633,283.056,127.658,451.302-55.044c78.334,39.395,156.971,60.116,236.265,50.431
					c356.796-30.156,766.932-1008.579,513.498-1913.9c-127.973-404.816-301.717-926.146-951.586-932.222
					c-182.309-1.672-361.853,50.903-510.82,157.351c-2.186,1.515-4.372,3.077-6.556,4.684
					c-262.222,191.119-408.429,525.068-336.244,990.365c136.6,807.385-372.277,1151.468-471.46,1355.728
					C694.344,3033.998,694.349,3070.322,708.952,3101.341z"/>
			</g>
			<g>
				<path style="fill:#000072;" d="M1746.932,3351.223c14.046-18.618,30.12-34.027,45.705-50.996
					c21.406-23.521,40.382-49.338,60.138-74.59c5.071-6.46,9.919-13.074,15.268-19.475c-11.902,30.234-24.66,60.273-40.622,89.231
					c-15.937,28.872-35.49,56.814-60.903,80.449c-6.206,5.769-15.913,5.417-21.684-0.789c-5.137-5.522-5.42-13.826-1.042-19.651
					L1746.932,3351.223L1746.932,3351.223z"/>
			</g>
			<g>
				<path style="fill:#DAEBF7;" d="M708.952,3101.341c70.231,149.497,306.166,206.096,543.512,89.597
					c-68.688,224.614,268.933,284.964,470.513,191.944c0.26-0.603,0.564-1.207,0.824-1.81
					c-54.077,10.558-109.329,21.186-163.866,13.315c-54.492-7.872-109.111-37.766-132.387-88.475
					c-27.818-60.595-5.006-132.093,24.012-192.036c32.056-66.258,71.561-128.849,98.641-197.398
					c93.548-237.023,26.238-504.656-41.858-750.571c-10.207-33.403-25.39-86.163-40.081-151.803
					c-33.509-149.723-32.068-221.764-57.406-380.484c-24.609-154.147-32.856-129.353-52.914-261.715
					c-26.262-173.305-38.33-272.761-16.851-388.517c23.799-128.257,86.822-252.015,188.925-331.129l-6.468,0.13
					c-2.186,1.515-4.372,3.077-6.556,4.684c-262.222,191.119-408.429,525.068-336.244,990.365
					c136.6,807.384-372.277,1151.468-471.46,1355.728C694.344,3033.997,694.349,3070.322,708.952,3101.341z"/>
			</g>
			<g>
				
					<ellipse transform="matrix(0.992 -0.1265 0.1265 0.992 -182.8589 261.2569)" style="fill:#FF8CC3;" cx="1965.239" cy="1570.131" rx="102.776" ry="57.705"/>
			</g>
			<g>
				<path style="fill:#000072;" d="M1954.948,3447.27c-10.493,0-20.903-0.562-31.22-1.704
					c-61.166-6.772-112.313-33.823-143.299-75.156c-60.365,40.962-144.285,66.665-233.63,71.133
					c-96.512,4.819-185.642-15.645-244.362-56.167c-57.924-39.976-83.641-97.388-74.447-164.131
					c-128.255,54.888-261.74,64.673-370.884,26.353c-76.161-26.743-134.354-76.06-163.855-138.872
					c-16.767-35.688-16.596-77.974,0.459-113.115c23.169-47.725,67.65-102.544,119.159-166.016
					c181.336-223.452,455.375-561.143,350.791-1179.265c-68.051-438.767,53.813-796.406,343.101-1007.271
					c148.553-108.281,327.779-165.376,518.826-165.376c2.988,0,5.967,0.015,8.955,0.041
					c294.674,2.749,518.753,108.496,685.04,323.284c146.331,189.006,222.053,428.55,282.902,621.028
					c0.059,0.183,0.112,0.366,0.166,0.552c181.565,648.594,25.61,1349.492-222.278,1706.636
					c-97.972,141.147-203.825,220.391-306.134,229.185c-73.632,8.921-150.379-6.299-234.216-46.484
					C2156.552,3398.271,2052.706,3447.265,1954.948,3447.27z M1784.892,3328.442c1.113,0,2.231,0.107,3.34,0.327
					c4.912,0.962,9.165,4.004,11.67,8.34c23.471,40.645,69.994,67.617,127.64,73.999c99.003,10.952,209.617-38.423,295.9-132.119
					c5.244-5.693,13.628-7.222,20.537-3.745c82.201,41.343,156.253,57.295,226.379,48.711c0.21-0.024,0.425-0.049,0.64-0.063
					c90.463-7.646,190.222-83.804,280.895-214.438c243.239-350.439,396.03-1039.019,217.453-1677.234
					c-121.937-385.733-289.029-913.801-935.125-919.827c-186.96-1.838-362.232,53.127-507.039,158.679
					c-278.278,202.839-395.229,548.643-329.302,973.711c47.192,278.923,23.74,526.975-71.732,758.098
					c-80.517,194.912-194.651,335.552-286.359,448.56c-50.156,61.807-93.47,115.181-114.886,159.307
					c-12.529,25.815-12.632,56.934-0.273,83.242c25.517,54.326,76.644,97.261,143.963,120.898
					c109.564,38.472,246.701,24.067,376.235-39.512c6.211-3.047,13.618-2.114,18.877,2.368c5.259,4.482,7.358,11.655,5.337,18.262
					c-20.815,68.047-2.954,122.163,53.09,160.835c112.191,77.437,336.158,65.161,452.143-24.761
					C1777.334,3329.701,1781.079,3328.442,1784.892,3328.442z"/>
			</g>
			<g>
				<path style="fill:#000072;" d="M2211.325,3291.714c133.713-135.838,206.308-318.199,262.068-497.707
					c18.756-61.055,35.8-122.827,52.22-185c-20.124,167.91-59.74,335.727-133.911,488.628c-5.815,12.97-15.709,30.76-22.576,43.418
					c-2.793,5.402-8.924,16.125-12.173,21.277c-33.266,56.267-73.419,109.224-121.651,154.421
					c-6.985,6.545-17.954,6.191-24.499-0.796C2204.332,3309.063,2204.619,3298.262,2211.325,3291.714L2211.325,3291.714z"/>
			</g>
			<g>
				<path style="fill:#000072;" d="M2098.029,2493.447c1.149,113.792-26.771,226.772-71.956,330.703
					c-15.485,34.548-33.182,68.161-55.128,99.465c16.899-73.639,39.598-143.973,60.9-215.879
					C2051.221,2644.17,2076.144,2555.684,2098.029,2493.447L2098.029,2493.447z"/>
			</g>
			<g>
				<path style="fill:#000072;" d="M1225.379,3184.854c74.267-59.1,129.972-171.92,169.594-257.848
					c43.467-97.255,77.701-198.422,103.999-301.979c-10.63,107.28-37.822,212.687-75.956,313.613
					c-29.65,75.865-65.267,151.028-116.324,215.667c-17.814,22.133-37.573,42.72-61.457,58.962
					C1226.315,3225.432,1207.386,3198.499,1225.379,3184.854L1225.379,3184.854z"/>
			</g>
			<g>
				<g>
					<g>
						
							<ellipse transform="matrix(0.9693 -0.246 0.246 0.9693 -191.5045 663.0464)" style="fill:#000072;" cx="2557.714" cy="1097.911" rx="121.657" ry="173.731"/>
					</g>
				</g>
				<g>
					<g>
						
							<ellipse transform="matrix(0.9688 -0.248 0.248 0.9688 -183.8641 656.3301)" style="fill:#FFFFFF;" cx="2513.073" cy="1057.93" rx="39.665" ry="62.094"/>
					</g>
				</g>
				<g style="opacity:0.2;">
					<g>
						
							<ellipse transform="matrix(0.9682 -0.2503 0.2503 0.9682 -202.7269 691.1948)" style="fill:#FFFFFF;" cx="2616.347" cy="1142.7" rx="21.968" ry="42.022"/>
					</g>
				</g>
			</g>
			<g>
				<g>
					<g>
						
							<ellipse transform="matrix(0.9788 -0.2047 0.2047 0.9788 -213.1857 424.8275)" style="fill:#000072;" cx="1947.067" cy="1242.975" rx="142.397" ry="185.706"/>
					</g>
				</g>
				<g>
					<g>
						
							<ellipse transform="matrix(0.9782 -0.2075 0.2075 0.9782 -202.3566 435.3074)" style="fill:#FFFFFF;" cx="1973.378" cy="1182.03" rx="46.427" ry="66.374"/>
					</g>
				</g>
				<g style="opacity:0.2;">
					<g>
						
							<ellipse transform="matrix(0.9776 -0.2104 0.2104 0.9776 -234.1345 431.0798)" style="fill:#FFFFFF;" cx="1908.575" cy="1315.737" rx="25.714" ry="44.918"/>
					</g>
				</g>
			</g>
			<g>
				
					<ellipse transform="matrix(0.9682 -0.2503 0.2503 0.9682 -253.3019 729.6219)" style="fill:#FF8CC3;" cx="2742.018" cy="1360.723" rx="101.043" ry="56.538"/>
			</g>
			<g>
				<path style="fill:#000072;" d="M2390.626,1556.076c-18.828,0-39.609-4.314-61.308-12.996
					c-8.891-3.555-13.213-13.643-9.658-22.532c3.554-8.887,13.657-13.21,22.529-9.656c35.878,14.351,66.625,14.175,84.379-0.471
					c10.195-8.408,14.555-20.974,11.968-34.473c-4.399-22.937-26.982-43.047-60.414-53.794c-5.556-1.785-9.844-6.248-11.401-11.87
					c-1.558-5.623-0.186-11.653,3.657-16.045c21.24-24.272,29.59-47.246,22.915-63.035c-4.355-10.308-15.571-16.909-30-17.661
					c-24.526-1.309-59.945,14.202-86.029,61.482c-4.624,8.384-15.166,11.423-23.55,6.802c-8.384-4.624-11.426-15.168-6.802-23.55
					c33.818-61.289,83.197-81.079,118.187-79.355c28.003,1.462,50.478,15.959,60.126,38.784
					c6.099,14.429,11.157,42.542-14.121,80.396c33.422,16.287,55.834,41.9,61.479,71.318c4.97,25.94-3.979,51.265-23.95,67.742
					C2433.39,1549.74,2413.439,1556.076,2390.626,1556.076z"/>
			</g>
			<g>
				<g>
					<path style="fill:#FFFFFF;" d="M3168.841,1968.864c-3.771,60.191-23.79,119.559-68.726,173.813
						c-38.698,46.714-109.548,49.228-151.061,5.027c-22.317-23.79-42.987-54.211-62.964-87.708
						c-138.667,47.667-182-65.001-195-225.337l-86.667-91.001c13.953-54.904,40.691-97.892,73.32-129.742
						c112.234-109.722,294.148-87.925,264.377,32.37c-2.816,11.396-7.54,23.703-14.429,36.877c0,0.043-0.087,0.087-0.087,0.087
						c-4.29,8.233-9.448,16.813-15.514,25.74c38.438,15.471,71.76,41.211,99.667,78.001l-26-299.005
						C3007.424,1549.911,3181.711,1764.458,3168.841,1968.864z"/>
				</g>
				<g>
					<path style="fill:#DAEBF7;" d="M3168.841,1968.864c-3.771,60.191-23.79,119.559-68.726,173.813
						c-38.698,46.714-109.548,49.228-151.061,5.027c-22.317-23.79-42.987-54.211-62.964-87.708
						c-138.667,47.667-182-65.001-195-225.337l-86.667-91.001c13.953-54.904,40.691-97.892,73.32-129.742l2.08,3.12
						c-1.863,27.907-2.816,58.804,14.821,80.514c17.983,22.1,49.703,27.257,78.13,25.957
						c63.526-2.947,125.493-31.244,169.346-77.221c0.39-0.434,0.78-0.867,1.213-1.3c-0.476,14.56-6.674,26.954-15.643,38.177
						c0,0.043-0.087,0.087-0.087,0.087c-13.043,16.38-31.937,30.29-47.406,44.85c-44.764,42.078-67.688,106.255-59.757,167.183
						c1.473,11.181,4.203,22.837,12.046,30.984c7.628,7.93,18.807,11.093,28.904,15.513
						c69.55,30.247,101.226,124.889,175.76,138.712c31.894,5.893,65.781-5.85,89.528-27.907
						c23.747-22.014,37.7-53.474,41.643-85.628C3168.494,1967.607,3168.667,1968.215,3168.841,1968.864z"/>
				</g>
				<g>
					<path style="fill:#000072;" d="M2985.756,1487.986c25.199,33.408,51.493,64.786,73.104,100.608
						c65.28,107.016,125.283,225.019,126.962,353.559c1.3,64.818-17.852,130.743-54.48,184.573
						c-13.229,18.32-26.609,37.352-46.237,49.409c-20.085,12.825-44.05,19.173-67.772,18.216
						c-29.78-0.963-58.748-14.356-79.291-35.914c-25.555-27.184-46.333-58.759-65.415-90.415l18.557,6.794
						c-46.69,17.084-104.971,19.025-143.36-18.009c-56.52-54.462-66.029-147.266-73.675-220.774
						c0.001-0.001,4.633,10.346,4.633,10.346l-86.913-90.764c-4.278-4.471-5.684-10.638-4.25-16.226
						c28.397-124.251,150.794-229.105,282.104-211.689c42.107,5.24,84.759,33.496,90.587,78.367
						c5.73,40.763-14.219,79.996-35.67,111.457l-6.882-22.612c41.457,17.16,77.303,50.114,93.998,92.08
						c-32.938-25.325-66.487-49.182-105.336-63.923c-9.013-3.338-12.461-14.829-6.879-22.613
						c21.347-33.372,44.733-78.971,17.662-113.946c-11.739-14.023-31.507-22.458-52.483-25.314
						c-65.832-8.263-133.592,23.038-179.448,69.89c-31.318,32.042-52.885,72.991-64.047,116.839l-4.248-16.223
						c-0.002,0.039,86.465,91.259,86.476,91.299c2.762,2.915,4.283,6.573,4.576,10.286c2.324,29.507,5.62,58.867,11.284,87.424
						c8.587,41.196,20.196,83.319,50.175,112.527c30.412,28.701,72.59,25.175,111.647,11.889c7.114-2.387,14.741,0.64,18.418,6.844
						c10.378,17.488,21.203,34.592,32.888,50.828c11.512,15.391,22.866,31.19,37.777,43.265
						c27.416,22.224,69.011,23.836,98.324,4.323c15.904-9.987,26.23-26.168,37.104-41.052
						c60.824-88.497,55.885-199.906,23.636-298.655c-16.949-53.143-40.258-104.016-65.974-153.474
						c-18.909-36.575-40.473-71.461-57.699-109.124C2997.184,1528.871,2988.3,1509.098,2985.756,1487.986L2985.756,1487.986z"/>
				</g>
				<g>
					<path style="fill:#000072;" d="M2932.298,1705.415c-26.361,27.015-66.426,36.786-102.541,33.907
						c16.931-4.156,33.394-9.982,47.151-18.895c13.659-8.617,23.965-20.233,31.806-34.087
						C2921.634,1666.601,2948.9,1688.63,2932.298,1705.415L2932.298,1705.415z"/>
				</g>
			</g>
			<g>
				<g>
					<path style="fill:#FFFFFF;" d="M2067.088,2159.664c169,264.337,303.334,43.334,346.667,17.334
						c149.488,48.152,223.784-56.02,221-316.338c112.667-4.333,172.668-92.815,117-143.002
						c-160.334-112.668-318.198-89.532-429.001,91.001c-70.715-5.024-142.937-5.024-216.667,0L2067.088,2159.664z"/>
				</g>
				<g>
					<path style="fill:#DAEBF7;" d="M2513.861,1826.371c-6.27,22.87-8.26,46.907-5.837,70.497
						c1.25,12.171,3.792,24.546,10.398,34.844c11.114,17.327,33.24,26.227,53.607,23.238c20.366-2.989,38.374-16.93,48.135-35.053
						c9.761-18.123,11.645-39.942,7.114-60.022c-20.177,2.115-39.876-5.95-58.562-13.851c-16.372-6.923-32.744-13.845-49.116-20.768
						"/>
				</g>
				<g>
					<path style="fill:#DAEBF7;" d="M2518.496,1826.317c8.717-25.004,31.833-47.449,58.227-45.315
						c10.144,0.82,19.626,5.099,29.196,8.56c33.19,12.004,69.765,14.483,104.271,7.065c25.653-5.514,53.01-19.636,59.531-45.053
						c6.772,17.89-5.738,36.867-17.986,51.56c-14.552,17.457-30.183,34.742-50.224,45.458
						c-24.095,12.884-52.821,15.122-79.799,10.792c-26.978-4.33-52.561-14.821-77.354-26.303"/>
				</g>
				<g>
					<path style="fill:#000072;" d="M2067.089,2159.663c45.745,46.457,96.577,112.494,166.353,112.955
						c60.976-0.962,106.229-50.413,147.279-90.474c7.819-7.466,14.167-13.666,24.116-20.01c4.253-2.666,9.245-3.169,13.694-1.804
						c17.715,5.736,35.843,9.665,53.564,10.466c141.665,7.458,145.121-209.333,145.331-309.951
						c-0.071-9.41,7.364-17.122,16.666-17.508c17.958-0.787,35.843-3.813,52.758-9.7c41.324-12.548,95.755-63.35,53.302-103.106
						c-55.723-39.87-145.24-78.359-222.187-59.387c-79.082,16.697-139.079,79.1-180.427,146.566
						c-3.513,5.664-9.794,8.626-16.011,8.239c-35.629-2.283-71.217-6.04-107.096-9.124l-53.974-4.319l-54.369-3.848
						c71.492-14.345,144.984-22.209,217.895-17.291c0,0.001-16.001,8.221-16.001,8.221
						c72.27-120.979,192.639-200.45,336.285-155.213c42.704,12.947,81.778,34.2,117.454,59.097
						c9.87,8.103,17.939,18.931,23.127,31.533c14.731,35.203-3.198,74.817-29.881,98.298c-24.96,22.548-55.584,35.216-87.801,41.221
						c-10.532,1.909-21.142,2.922-31.743,3.455l16.665-17.507c0.269,39.678-0.769,79.519-5.207,119.419
						c-14.233,140.64-75.223,266.284-238.421,213.61c-0.098-0.014,14.232-1.637,14.212-1.642
						c-5.31,3.634-11.896,10.479-17.111,15.532c-45.827,47.208-101.832,99.53-172.935,95.999
						C2153.237,2298.122,2095.057,2228.008,2067.089,2159.663L2067.089,2159.663z"/>
				</g>
				<g>
					<path style="fill:#000072;" d="M2349.751,1798.706c-14.031,22.327-28.989,44.331-41.071,68.342
						c-12.247,24.193-21.821,49.692-29.258,75.945c0.4-27.74,4.21-55.572,11.421-82.5c7.396-27.279,16.893-54.658,31.982-78.723
						C2334.415,1764.33,2360.483,1780.654,2349.751,1798.706L2349.751,1798.706z"/>
				</g>
				<g>
					<path style="fill:#000072;" d="M2660.775,1875.571c-31.043,1.079-61.803-6.219-89.855-18.103
						c-27.519-10.455-50.713-28.637-79.164-35.812c7.275-1.019,14.767-0.016,22.094,1.066
						c47.387,10.469,95.239,26.302,143.907,18.314C2681.839,1838.443,2685.021,1873.92,2660.775,1875.571L2660.775,1875.571z"/>
				</g>
			</g>
			<g>
				<g>
					<path style="fill:#E23B3B;" d="M2842.375,1192.575c-0.79-0.087-1.58-0.174-2.356-0.298
						C2840.36,1192.288,2841.215,1192.335,2842.375,1192.575z"/>
				</g>
				<g>
					<g>
						<path style="fill:#FF67A0;" d="M2980.348,1116.384c191.186-218.654,377.804,177.942,20.784,323.91l-0.288,0.025
							c-378.646-82.07-269.684-504.339-40.489-322.199l0.162,0.138C2966.596,1123.443,2975.429,1122.608,2980.348,1116.384
							L2980.348,1116.384z"/>
					</g>
					<g>
						<path style="fill:#F53B6B;" d="M2993.686,1394.471l-0.288,0.025c-157.294-34.093-230.434-126.892-245.774-210.683
							c0.469,90.869,70.652,204.875,248.887,243.507l0.288-0.025c168.054-68.709,215.644-192.945,199.012-282.41
							C3196.484,1229.949,3141.996,1333.834,2993.686,1394.471z"/>
					</g>
					<g style="opacity:0.6;">
						<path style="fill:#FFFFFF;" d="M3167.093,1317.289c97.118-164.56-45.649-354.226-191.078-187.904
							c-4.919,6.223-13.752,7.058-19.832,1.874l-0.161-0.138c-92.501-73.51-165.406-48.562-194.588,12.729
							c32.847-51.603,101.767-68.074,187.524,0.077l0.161,0.138c6.08,5.184,14.913,4.349,19.832-1.874
							c49.707-56.849,99.103-72.105,138.717-60.994c-2.539,0.641-4.673,1.865-6.263,3.731c-8.092,9.504,0.845,31.822,19.962,49.849
							c19.117,18.027,41.174,24.936,49.266,15.433c2.444-2.87,3.31-6.921,2.836-11.657
							C3197.709,1185.198,3200.342,1252.411,3167.093,1317.289z"/>
					</g>
					<g>
						<path style="fill:#000072;" d="M3000.96,1453.3c-0.977,0-2.002-0.088-2.871-0.276
							c-212.156-45.984-250.08-184.536-256.647-225.903c-10.508-66.182,12.31-126.231,58.134-152.981
							c27.197-15.881,85.302-32.607,168.865,33.804c0.112,0.088,0.381,0.313,0.488,0.403c0.273,0.232,0.493,0.295,0.718,0.31
							c0.112-0.012,0.288-0.058,0.508-0.337c0.132-0.168,0.269-0.332,0.41-0.493c69.638-79.644,129.866-73.352,159.554-62.529
							c51,18.594,84.799,74.702,86.112,142.939c0.801,41.467-11.997,183.064-210.178,264.092c-1.22,0.498-2.51,0.808-3.823,0.92
							C3001.83,1453.283,3001.4,1453.3,3000.96,1453.3z M2853.472,1085.842c-14.756,0-28.457,3.557-40.786,10.752
							c-35.932,20.976-54.242,71.792-45.566,126.448c5.879,37.009,39.995,160.471,232.683,203.735
							c179.436-74.958,191.15-200.999,190.437-238.04c-1.089-56.528-28.833-104.356-69.027-119.011
							c-40.444-14.746-86.908,4.792-130.897,55.012c-4.565,5.62-10.991,9.094-18.13,9.795c-7.344,0.703-14.448-1.555-20.102-6.382
							C2916.87,1100.168,2883.071,1085.842,2853.472,1085.842z"/>
					</g>
				</g>
				<g>
					<path style="fill:none;stroke:#000072;stroke-width:13.4193;stroke-linecap:round;stroke-miterlimit:10;" d="
						M3184.269,1196.198"/>
				</g>
			</g>
		</g>
		<g>
			<path style="fill:#000072;" d="M1954.948,3464.77c-11.142,0-22.295-0.61-33.144-1.812
				c-59.687-6.606-110.521-31.064-144.984-69.404c-62.06,38.022-142.713,61.147-229.147,65.469
				c-100.38,5-193.371-16.597-255.172-59.243c-54.413-37.554-83.505-90.728-83.807-151.86
				c-125.135,47.642-251.095,53.506-357.378,16.191c-80.624-28.306-142.386-80.845-173.904-147.944
				c-18.989-40.43-18.779-88.354,0.557-128.198c24.057-49.556,69.125-105.093,121.312-169.399
				c179.353-221.006,450.395-554.99,347.124-1165.322c-69.13-445.713,55.199-809.409,350.049-1024.333
				c151.438-110.383,334.41-168.728,529.134-168.728c3.037,0,6.06,0.015,9.097,0.039c300.406,2.803,528.958,110.769,698.741,330.068
				c55.746,72.004,105.042,155.593,150.55,255.313c27.119,5.727,55.126,19.018,83.519,39.639
				c72.372-75.754,136.214-68.211,168.621-56.387c57.841,21.089,96.161,83.518,97.611,159.043
				c0.825,42.724-11.689,186.238-202.79,272.693c7.036,27.437,13.633,55.588,19.673,83.928
				c9.082,12.688,16.499,23.872,23.193,34.958l0,0c63.056,103.372,127.757,227.271,129.52,362.446
				c1.387,68.928-19.038,138.098-57.509,194.646l-1.519,2.119c-13.139,18.208-28.032,38.843-50.029,52.358
				c-0.591,0.376-1.206,0.762-1.841,1.147c-27.051,363.618-138.055,717.026-297.682,947.007
				c-100.936,145.415-211.135,227.227-318.697,236.611c-73.754,8.867-149.818-5.161-232.282-42.822
				C2158.916,3416.806,2053.927,3464.765,1954.948,3464.77z M1780.415,3352.909c5.337,0,10.591,2.432,14.018,7.002
				c28.325,37.788,74.926,62.026,131.219,68.262c9.58,1.06,19.438,1.597,29.297,1.597c91.195-0.005,188.792-45.645,267.765-125.22
				c0.21-0.21,0.43-0.42,0.649-0.62c0.137-0.122,0.278-0.249,0.43-0.376c0.576-0.552,1.255-1.226,1.934-1.899
				c0.776-0.771,1.548-1.543,2.339-2.3c5.259-5.039,13.1-6.299,19.673-3.145c80.697,38.662,154.09,53.306,224.401,44.824
				c0.2-0.024,0.4-0.044,0.601-0.063c96.947-8.33,198.352-85.005,293.253-221.729c157.576-227.026,266.813-578.047,292.203-938.979
				c0.429-6.113,4.023-11.558,9.477-14.351c3.198-1.636,5.742-3.076,8.008-4.521c16.294-10.015,27.919-26.128,40.229-43.184
				l1.25-1.729c34.135-50.19,52.407-112.117,51.167-173.975c-1.655-126.851-63.818-245.474-124.408-344.797
				c-0.015-0.024-0.029-0.049-0.044-0.076c-6.714-11.13-14.277-22.449-23.803-35.62c-1.435-1.985-2.436-4.246-2.944-6.641
				c-7.183-34.023-15.195-67.793-23.818-100.369c-2.231-8.445,2.1-17.244,10.156-20.618
				c184.104-77.119,196.008-207.642,195.271-245.808c-1.177-60.955-30.458-110.742-74.613-126.838
				c-25.488-9.304-77.616-14.185-140.384,57.607c-3.032,3.848-7.549,6.309-12.578,6.746c-5.117,0.322-9.839-1.235-13.569-4.417
				c-0.015-0.01-0.024-0.019-0.039-0.032c-30.927-24.58-60.619-39.089-88.251-43.123c-5.913-0.864-10.977-4.685-13.428-10.134
				c-45.419-100.896-94.525-184.853-150.125-256.667c-162.791-210.273-382.402-313.799-671.368-316.494
				c-2.925-0.024-5.854-0.039-8.794-0.039c-187.268,0-363.11,56.023-508.519,162.012
				c-283.732,206.819-403.1,558.567-336.114,990.447c105.873,625.701-171.174,967.083-354.497,1192.976
				c-50.82,62.627-94.711,116.709-117.005,162.632c-14.765,30.43-14.897,67.075-0.361,98.032
				c27.495,58.535,82.123,104.634,153.816,129.8c103.895,36.489,234.45,27.036,358.198-25.928c5.801-2.476,12.48-1.646,17.5,2.173
				c5.015,3.828,7.583,10.054,6.724,16.304c-8.315,60.381,14.868,111.328,67.05,147.339c55.6,38.369,140.726,57.773,233.552,53.091
				c85.243-4.258,167.136-29.092,224.675-68.135C1773.608,3353.891,1777.026,3352.909,1780.415,3352.909z M2956.508,1097.365
				c-0.029,0.037-0.059,0.073-0.088,0.11C2956.449,1097.438,2956.479,1097.402,2956.508,1097.365z"/>
		</g>
	</g>
</g>
</svg>
