<?xml version="1.0" encoding="utf-8"?>
<!-- Generator: Adobe Illustrator 27.5.0, SVG Export Plug-In . SVG Version: 6.00 Build 0)  -->
<svg version="1.1" id="Layer_1" xmlns="http://www.w3.org/2000/svg" xmlns:xlink="http://www.w3.org/1999/xlink" x="0px" y="0px"
	 viewBox="0 0 4000 4000" style="enable-background:new 0 0 4000 4000;" xml:space="preserve">
<g>
	<g>
		<!-- <rect y="2.497" style="fill:#80B0FF;" width="4000" height="3995.006"/> -->
	</g>
	<g>
		<g>
			<g>
				<g>
					<g>
						<g>
							<g>
								<path style="fill:#C4612B;" d="M2667.049,2773.595c-42.797,44.671-45.052,87.394-37.386,111.985
									c6.07,19.468,16.729,37.222,41.773,47.438c26.398,10.768,75.277,11.177,119.625-16.751
									c18.092-11.393,40.224-27.521,73.144-28.054c2.176-7.096-2.813-14.456-11.346-21.463
									c13.269-11.48,30.112-23.17,59.273-35.373c0.298-0.125-34.458-78.959-167.115-87.8c-0.7-18.925-13.09-27.979-29.301-27.444
									C2712.505,2749.589,2695.75,2743.637,2667.049,2773.595z"/>
							</g>
							<g>
								<path style="fill:#C4612B;" d="M2671.446,2933.011c26.382,10.77,75.269,11.2,119.602-16.74
									c18.053-11.341,40.079-27.435,72.838-28.062c0.112-0.022,0.247-0.022,0.337-0.021c0.318-1.078,0.501-2.156,0.504-3.234
									c0.008-2.921-1.063-5.845-2.945-8.772c-2.083-3.174-5.179-6.329-8.928-9.418c13.284-11.489,30.123-23.194,59.27-35.38
									c0-0.09-0.692-1.777-2.281-4.59c-0.246-0.473-0.56-0.968-0.896-1.531c-1.097-1.868-2.531-4.074-4.279-6.596
									c-0.358-0.495-0.717-1.035-1.12-1.576c-0.852-1.126-1.726-2.32-2.712-3.581c-0.426-0.563-0.897-1.126-1.367-1.689
									c-3.139-3.874-6.929-8.086-11.461-12.503c-23.648-22.986-67.463-50.68-142.997-55.747
									c-0.711-18.922-13.082-27.967-29.305-27.451c-3.199,33.471-19.943,27.515-48.668,57.476
									c-35.404,36.998-43.064,72.614-40.278,97.721c0,0.045,0,0.045-0.023,0.067c0.57,5.215,1.591,9.981,2.929,14.209
									C2635.754,2905.048,2646.39,2922.806,2671.446,2933.011z"/>
							</g>
							<g>
								<path style="fill:#915320;" d="M2671.446,2933.011c26.382,10.77,75.269,11.2,119.602-16.74
									c18.053-11.341,40.079-27.435,72.838-28.062c0.112-0.022,0.247-0.022,0.337-0.021c0.318-1.078,0.501-2.156,0.504-3.234
									c0.008-2.921-1.063-5.845-2.945-8.772c-2.083-3.174-5.179-6.329-8.928-9.418c13.284-11.489,30.123-23.194,59.27-35.38
									c0-0.09-0.692-1.777-2.281-4.59c-0.246-0.473-0.56-0.968-0.896-1.531c-1.097-1.868-2.531-4.074-4.279-6.596
									c-0.358-0.495-0.717-1.035-1.12-1.576c-0.852-1.126-1.726-2.32-2.712-3.581c-0.426-0.563-0.897-1.126-1.367-1.689
									c-3.139-3.874-6.929-8.086-11.461-12.503c-23.648-22.986-67.463-50.68-142.997-55.747c-0.021-0.562-0.042-1.079-0.085-1.618
									c-0.498-6.9-2.642-12.388-5.983-16.51c-0.247-0.292-0.471-0.563-0.718-0.856c-5.001-5.609-12.351-8.394-20.877-8.485
									c-0.54-0.001-1.08-0.003-1.643,0.018c-3.199,33.471-19.943,27.515-48.668,57.476
									c-35.404,36.998-43.064,72.614-40.278,97.721c0,0.045,0,0.045-0.023,0.067c0.57,5.215,1.591,9.981,2.929,14.209
									c1.449,4.656,3.169,9.222,5.294,13.61C2641.67,2913.108,2652.413,2925.25,2671.446,2933.011z"/>
							</g>
							<g style="opacity:0.4;">
								<path style="fill:#FFFFFF;" d="M2744.931,2741.948c0.268,0.517,0.538,1.075,0.77,1.675c-0.225-0.01-0.471-0.04-0.695-0.05
									C2745.001,2743.024,2744.955,2742.477,2744.931,2741.948z"/>
							</g>
							<g>
								<path style="fill:#7A431A;" d="M2671.446,2933.011c26.382,10.77,75.269,11.2,119.602-16.74
									c18.053-11.341,40.079-27.435,72.838-28.062c0.112-0.022,0.247-0.022,0.337-0.021c0.318-1.078,0.501-2.156,0.504-3.234
									c0.008-2.921-1.041-5.868-2.945-8.772c-2.083-3.174-5.179-6.329-8.928-9.418c13.284-11.489,30.123-23.194,59.27-35.38
									c0-0.09-0.692-1.777-2.281-4.59c-0.246-0.473-0.56-0.968-0.896-1.531c-1.097-1.868-2.531-4.074-4.279-6.596
									c-0.358-0.495-0.717-1.035-1.12-1.576c-0.852-1.126-1.726-2.32-2.712-3.581c-0.426-0.563-0.897-1.126-1.367-1.689
									c-3.139-3.874-6.929-8.086-11.461-12.503c5.877,14.15,1.645,22.834-13.012,26.77c-29.304,7.874-56.599,6.957-81.976,23.016
									c17.26,13.806-17.769,37.911-29.961,39.391c-47.788,5.799-61.538-30.556-90.274-40.004
									c-30.014-9.867-46.027,22.87-46.049,22.892c0.57,5.215,1.591,9.981,2.929,14.209
									C2635.754,2905.048,2646.39,2922.806,2671.446,2933.011z"/>
							</g>
							<g>
								<path style="fill:#512717;" d="M2710.931,2955.692c-17.402,0-33.096-3.004-45.473-8.056
									c-33.897-13.825-45.279-39.36-50.889-57.36c-4.677-15.001-15.537-68.528,41.06-127.594
									c11.445-11.948,21.421-18.902,28.706-23.979c11.826-8.247,14.287-9.958,15.645-24.076
									c0.762-7.905,7.275-14.016,15.22-14.274c21.343-0.658,37.29,10.353,43.193,28.514
									c125.742,12.879,167.388,88.444,169.326,99.856c1.226,7.203-2.656,14.318-9.385,17.181
									c-19.614,8.208-32.793,15.903-42.583,22.876c5.776,9.534,5.449,17.937,3.569,24.062c-2.012,6.54-8.008,11.046-14.858,11.158
									c-25.557,0.419-43.877,12.143-60.034,22.487l-4.932,3.141C2769.915,2948.255,2738.309,2955.692,2710.931,2955.692z
									 M2727.406,2736.425c-5.43,14.547-15,21.219-24.98,28.173c-6.88,4.799-14.683,10.236-23.955,19.912l0,0
									c-44.639,46.592-37.09,85.547-33.716,96.374c6.06,19.434,15.825,30.655,32.656,37.521
									c23.579,9.607,66.553,8.856,105.22-15.493l4.736-3.014c13.252-8.485,30.166-19.312,52.28-24.481
									c-1.641-2.487-2.554-5.418-2.593-8.466c-0.063-4.647,1.934-9.09,5.454-12.133c9.756-8.447,23.599-19.126,46.812-30.455
									c-15.591-20.526-56.377-59.096-145.356-65.026c-8.076-0.542-14.443-7.091-14.741-15.171
									C2729.1,2740.887,2728.519,2738.332,2727.406,2736.425z M2667.049,2773.595h0.049H2667.049z"/>
							</g>
							<g>
								<path style="fill:#512717;" d="M2760.439,2747.043c-8.889,14.106-17.729,28.594-30.224,39.72
									c2.823-15.325,0.971-31.333-0.622-46.648c-1.334-9.229,5.075-17.79,14.316-19.122
									C2758.106,2718.65,2768.488,2735.359,2760.439,2747.043L2760.439,2747.043z"/>
							</g>
							<g>
								<path style="fill:#512717;" d="M2844.897,2880.394c-13.733-13.354-29.954-27.131-49.348-31.219
									c21.694-6.456,44.934-1.574,66.445,4.3c8.718,2.71,13.584,11.964,10.874,20.668
									C2869.488,2886.146,2853.012,2889.691,2844.897,2880.394L2844.897,2880.394z"/>
							</g>
						</g>
						<g>
							<path style="fill:#FECF1F;" d="M2670.02,2891.925c-23.051,36.213-7.156,76.906-7.807,129.185
								c-0.16,12.627-1.274,25.945-4.163,40.01c-29.527,144.901-203.021,135.122-203.021,135.122l-4.619-98.335
								c50.691,20.032,86.97,14.7,111.567-6.246c32.622-27.815,44.808-83.063,43.034-143.131
								c-1.446-48.524,20.11-71.169,43.457-81.529C2664.138,2860.074,2679.227,2877.478,2670.02,2891.925z"/>
						</g>
						<g style="opacity:0.4;">
							<path style="fill:#FFFFFF;" d="M2672.796,2882.714c-29.157-1.083-44.347,30.775-45.963,77.447
								c-2.184,60.061-17.921,114.386-52.313,140.048c-21.885,16.269-51.392,20.916-89.728,7.894
								c33.24,6.338,58.554-0.569,77.16-16.447c32.642-27.813,44.848-83.072,43.044-143.101
								c-1.446-48.531,20.121-71.183,43.488-81.539C2660.859,2861.522,2672.861,2871.26,2672.796,2882.714z"/>
						</g>
						<g>
							<path style="fill:#FCA822;" d="M2662.213,3021.11c-0.16,12.627-1.274,25.945-4.163,40.01
								c-29.527,144.901-203.021,135.122-203.021,135.122l-4.619-98.335c50.691,20.032,86.97,14.7,111.567-6.246
								C2593.484,3095.164,2646.318,3089.976,2662.213,3021.11z"/>
						</g>
						<g>
							<path style="fill:#512717;" d="M2460.316,3212.119c-3.789,0-5.967-0.103-6.162-0.112
								c-8.721-0.492-15.386-7.949-14.897-16.654c0.498-8.705,7.866-15.366,16.67-14.879c6.758,0.361,160.259,6.998,186.626-122.493
								c6.128-30.08,3.701-56.17,1.353-81.402c-3.047-32.762-5.928-63.714,12.788-93.131c0.313-0.483,0.581-0.907-0.073-1.663
								c-0.693-0.8-1.226-0.571-1.743-0.341c-23.931,10.592-35.078,32.386-34.082,66.635
								c2.256,77.155-17.505,134.358-55.645,161.063c-30.947,21.677-71.509,22.838-120.547,3.433
								c-8.12-3.209-12.095-12.382-8.877-20.492c3.213-8.105,12.397-12.075,20.518-8.866c38.53,15.235,69.058,15.254,90.752,0.068
								c28.721-20.112,44.102-69.059,42.197-134.29c-1.738-59.584,27.793-85.323,52.871-96.423
								c13.462-5.969,28.931-2.497,38.516,8.607c9.546,11.07,10.674,26.827,2.803,39.204c-12.925,20.307-10.747,43.681-7.998,73.273
								c2.441,26.237,5.21,55.965-1.846,90.614C2644.989,3204.458,2492.972,3212.119,2460.316,3212.119z"/>
						</g>
					</g>
					<g style="opacity:0.4;">
						<path style="fill:#FFFFFF;" d="M2700.395,2774.129c-7.426-0.031-34.3,26.639-32.231,43.593
							c1.648,13.508,18.551,11.72,23.309,1.819C2699.125,2803.619,2704.008,2774.144,2700.395,2774.129z"/>
					</g>
					<g style="opacity:0.4;">
						<path style="fill:#FFFFFF;" d="M2854.672,2799.32c-4.322-10.359-67.885-36.515-88.479-31.436
							c-13.228,3.262-12.713,16.506,2.986,22.6C2780.916,2795.04,2856.062,2802.65,2854.672,2799.32z"/>
					</g>
				</g>
				<g>
					<g>
						<path style="fill:#FECF1F;" d="M2568.909,3062.66c57.922,53.508,256.908,175.615,381.638,231.494
							c99.659-8.987,133.534,34.618,129.068,91.494c-6.191,78.839-77.885,172.792-161.466,208.314
							c-160.787,68.334-455.205-48.575-607.114-45.932C2150.351,3550.826,2508.002,3006.396,2568.909,3062.66z"/>
					</g>
					<g>
						<path style="fill:#FECF1F;" d="M2311.019,3548.026c93.529-1.608,241.003,42.047,378.076,59.938
							c85.645,11.172,167.245,12.284,229.074-14.015c83.581-35.494,155.234-129.441,161.425-208.301
							c4.499-56.888-29.388-100.461-129.066-91.474c-3.591-1.608-7.223-3.257-10.896-4.989
							c-125.104-57.835-314.472-174.539-370.729-226.521C2508.023,3006.396,2150.337,3550.83,2311.019,3548.026z"/>
					</g>
					<g>
						<path style="fill:#FECF1F;" d="M2311.019,3548.026c93.529-1.608,241.003,42.047,378.076,59.938
							c85.645,11.172,167.245,12.284,229.074-14.015c83.581-35.494,155.234-129.441,161.425-208.301
							c4.499-56.888-29.388-100.461-129.066-91.474c-3.591-1.608-7.223-3.257-10.896-4.989
							c-30.502-14.098-64.884-31.701-100.174-51.034c-64.265-35.205-131.667-76.015-185.034-111.673
							c-37.477-25.063-67.979-47.613-85.521-63.814C2508.023,3006.396,2150.337,3550.83,2311.019,3548.026z"/>
					</g>
					<g>
						<path style="fill:#FECF1F;" d="M2311.019,3548.026c93.529-1.608,241.003,42.047,378.076,59.938
							c85.645,11.172,167.245,12.284,229.074-14.015c40.037-16.984,77.307-47.406,105.952-83.106
							c31.245-38.874,52.254-84.095,55.473-125.195c4.499-56.888-29.388-100.461-129.066-91.474
							c-3.591-1.608-7.223-3.257-10.896-4.989c-30.502-14.098-64.884-31.701-100.174-51.034
							c-64.265-35.205-131.667-76.015-185.034-111.673c-37.477-25.063-67.979-47.613-85.521-63.814
							c-12.96-11.996-39.376,3.257-71.364,34.669C2379.205,3213.418,2184.553,3550.252,2311.019,3548.026z"/>
					</g>
					<g>
						<path style="fill:#FCA822;" d="M2311.019,3548.026c93.529-1.608,241.003,42.047,378.076,59.938
							c85.645,11.172,167.245,12.284,229.074-14.015c40.037-16.984,77.307-47.406,105.952-83.106
							c-38.427,22.095-91.919,42.955-145.204,31.453c-76.812-16.613-94.519-98.194-55.886-173.178
							c-37.478,24.775-60.591,78.035-148.094,83.188c-128.282,7.544-74.625-202.694-98.316-341.822
							c-3.962-23.332-36.198-23.786-79.082-13.15C2379.205,3213.418,2184.553,3550.252,2311.019,3548.026z"/>
					</g>
					<g>
						<path style="fill:#B25414;" d="M2566.22,3437.713c10.112,4.535,42.554,8.162,64.43,5.483
							c-36.239-21.354-44.081-77.376-45.98-142.962c-20.844,12.985-41.811,43.902-47.879,60.804
							C2527.463,3387.215,2552.393,3431.489,2566.22,3437.713z"/>
					</g>
					<g>
						<path style="fill:#7A431A;" d="M2689.095,3607.964c85.645,11.172,167.245,12.284,229.074-14.015
							c40.037-16.984,77.307-47.406,105.952-83.106c-38.427,22.095-91.919,42.955-145.204,31.453
							c-76.152-16.49-94.23-96.833-56.835-171.282c-7.058,8.74-13.621,18.221-19.523,28.527
							C2770.819,3455.027,2766.113,3574.615,2689.095,3607.964z"/>
					</g>
					<g>
						<path style="fill:#D3691A;" d="M2678.24,3269.688c21.009,9.481,107.108,16.324,124.319-1.525
							c7.636-7.956,22.66-19.581,36.9-30.01c-64.265-35.205-131.667-76.015-185.034-111.673
							c-9.576,10.47-17.088,20.612-20.06,28.938C2620.455,3194.497,2657.602,3260.454,2678.24,3269.688z"/>
					</g>
					<g>
						<path style="fill:#D3691A;" d="M2649.656,3436.666c-11.538,11.985-69.306,7.382-83.423,1.037
							c-13.846-6.223-38.769-50.475-29.423-76.684c7.767-21.781,40.476-66.901,65.581-66.865
							c30.899,0.045,78.88,51.698,78.88,77.927C2681.271,3398.312,2661.194,3424.68,2649.656,3436.666z"/>
					</g>
					<g>
						<path style="fill:#B25414;" d="M2566.22,3437.713c10.112,4.535,42.554,8.162,64.43,5.483
							c-36.239-21.354-44.081-77.376-45.98-142.962c-20.844,12.985-41.811,43.902-47.879,60.804
							C2527.463,3387.215,2552.393,3431.489,2566.22,3437.713z"/>
					</g>
					<g>
						<path style="fill:#915320;" d="M2689.095,3607.964c85.645,11.172,167.245,12.284,229.074-14.015
							c83.581-35.494,155.234-129.441,161.425-208.301c4.499-56.888-29.388-100.461-129.066-91.474
							c-3.591-1.608-7.223-3.257-10.896-4.989c-46.352,17.808-102.939,50.704-137.073,110.354
							C2770.819,3455.027,2766.113,3574.615,2689.095,3607.964z"/>
					</g>
					<g>
						<path style="fill:#7A431A;" d="M2689.095,3607.964c85.645,11.172,167.245,12.284,229.074-14.015
							c40.037-16.984,77.307-47.406,105.952-83.106c-38.427,22.095-91.919,42.955-145.204,31.453
							c-76.152-16.49-94.23-96.833-56.835-171.282c-7.058,8.74-13.621,18.221-19.523,28.527
							C2770.819,3455.027,2766.113,3574.615,2689.095,3607.964z"/>
					</g>
					<g>
						<path style="fill:#512717;" d="M2791.346,3631.156c-86.494,0-183.955-19.58-273.77-37.619
							c-78.462-15.767-152.52-30.719-206.27-29.719c-27.749,0.463-46.914-12.635-54.082-36.941
							c-19.072-64.699,55.361-198.692,88.247-253.297c51.66-85.772,127.358-186.929,180.02-219.564
							c28.359-17.585,45.103-11.309,54.155-2.946c53.028,48.991,246.143,169.232,373.662,227.006
							c52.954-4.077,92.129,5.974,116.436,29.967c19.322,19.073,28.184,46.334,25.63,78.837
							c-6.665,84.948-83.394,184.359-171.035,221.608C2885.78,3624.88,2840.316,3631.156,2791.346,3631.156z M2316.141,3532.198
							c56.445,0,129.966,14.771,207.671,30.382c136.172,27.349,290.503,58.355,388.145,16.854
							c77.915-33.113,146.055-120.601,151.895-195.02c1.831-23.267-3.667-41.408-16.333-53.907
							c-17.754-17.527-50.791-24.671-95.552-20.624l-4.116,0.371l-3.774-1.692c-122.314-54.795-324.072-177.283-385.767-234.18
							c-5.537-1.097-32.271,9.87-85.811,73.682c-101.699,121.216-208.432,321.6-183.394,373.99
							c2.334,4.877,6.846,10.514,21.655,10.192C2312.533,3532.212,2314.329,3532.198,2316.141,3532.198z M2558.485,3074.42h0.049
							H2558.485z M2568.909,3062.663l-10.737,11.587c0,0.005,0,0.005,0.005,0.005L2568.909,3062.663z"/>
					</g>
					<g>
						<path style="fill:#512717;" d="M2954.048,3309.552c-43.618,6.06-87.506,25.573-121.431,54.996
							c-11.523,10.101-22.083,21.539-30.059,35.013c11.633-29.607,34.093-54.055,58.457-74.298
							c25.015-20.356,54.151-36.341,86.033-46.507L2954.048,3309.552L2954.048,3309.552z"/>
					</g>
				</g>
				<g>
					<g>
						<path style="fill:#FECF1F;" d="M1509.945,3062.66c-57.922,53.508-256.908,175.615-381.638,231.494
							c-99.66-8.987-133.534,34.618-129.068,91.494c6.191,78.839,77.885,172.792,161.466,208.314
							c160.787,68.334,455.205-48.575,607.114-45.932C1928.503,3550.826,1570.851,3006.396,1509.945,3062.66z"/>
					</g>
					<g>
						<path style="fill:#FECF1F;" d="M1767.835,3548.026c-93.529-1.608-241.003,42.047-378.076,59.938
							c-85.645,11.172-167.245,12.284-229.074-14.015c-83.581-35.494-155.234-129.441-161.425-208.301
							c-4.499-56.888,29.388-100.461,129.066-91.474c3.591-1.608,7.223-3.257,10.896-4.989
							c125.103-57.835,314.472-174.539,370.729-226.521C1570.83,3006.396,1928.517,3550.83,1767.835,3548.026z"/>
					</g>
					<g>
						<path style="fill:#FECF1F;" d="M1767.835,3548.026c-93.529-1.608-241.003,42.047-378.076,59.938
							c-85.645,11.172-167.245,12.284-229.074-14.015c-83.581-35.494-155.234-129.441-161.425-208.301
							c-4.499-56.888,29.388-100.461,129.066-91.474c3.591-1.608,7.223-3.257,10.896-4.989
							c30.502-14.098,64.884-31.701,100.174-51.034c64.265-35.205,131.666-76.015,185.034-111.673
							c37.477-25.063,67.979-47.613,85.521-63.814C1570.83,3006.396,1928.517,3550.83,1767.835,3548.026z"/>
					</g>
					<g>
						<path style="fill:#FECF1F;" d="M1767.835,3548.026c-93.529-1.608-241.003,42.047-378.076,59.938
							c-85.645,11.172-167.245,12.284-229.074-14.015c-40.036-16.984-77.307-47.406-105.952-83.106
							c-31.245-38.874-52.254-84.095-55.473-125.195c-4.499-56.888,29.388-100.461,129.066-91.474
							c3.591-1.608,7.223-3.257,10.896-4.989c30.502-14.098,64.884-31.701,100.174-51.034
							c64.265-35.205,131.666-76.015,185.034-111.673c37.477-25.063,67.979-47.613,85.521-63.814
							c12.96-11.996,39.376,3.257,71.364,34.669C1699.649,3213.418,1894.3,3550.252,1767.835,3548.026z"/>
					</g>
					<g>
						<path style="fill:#FCA822;" d="M1767.835,3548.026c-93.529-1.608-241.003,42.047-378.076,59.938
							c-85.645,11.172-167.245,12.284-229.074-14.015c-40.036-16.984-77.307-47.406-105.952-83.106
							c38.427,22.095,91.919,42.955,145.204,31.453c76.812-16.613,94.519-98.194,55.886-173.178
							c37.477,24.775,60.591,78.035,148.094,83.188c128.282,7.544,74.625-202.694,98.316-341.822
							c3.962-23.332,36.198-23.786,79.082-13.15C1699.649,3213.418,1894.3,3550.252,1767.835,3548.026z"/>
					</g>
					<g>
						<path style="fill:#B25414;" d="M1512.633,3437.713c-10.112,4.535-42.554,8.162-64.43,5.483
							c36.239-21.354,44.081-77.376,45.98-142.962c20.844,12.985,41.811,43.902,47.879,60.804
							C1551.39,3387.215,1526.46,3431.489,1512.633,3437.713z"/>
					</g>
					<g>
						<path style="fill:#7A431A;" d="M1389.759,3607.964c-85.645,11.172-167.245,12.284-229.074-14.015
							c-40.036-16.984-77.307-47.406-105.952-83.106c38.427,22.095,91.919,42.955,145.204,31.453
							c76.152-16.49,94.23-96.833,56.835-171.282c7.058,8.74,13.62,18.221,19.523,28.527
							C1308.035,3455.027,1312.74,3574.615,1389.759,3607.964z"/>
					</g>
					<g>
						<path style="fill:#D3691A;" d="M1400.614,3269.688c-21.009,9.481-107.108,16.324-124.319-1.525
							c-7.636-7.956-22.66-19.581-36.9-30.01c64.265-35.205,131.666-76.015,185.034-111.673
							c9.576,10.47,17.088,20.612,20.059,28.938C1458.398,3194.497,1421.251,3260.454,1400.614,3269.688z"/>
					</g>
					<g>
						<path style="fill:#D3691A;" d="M1429.198,3436.666c11.538,11.985,69.306,7.382,83.423,1.037
							c13.846-6.223,38.769-50.475,29.423-76.684c-7.767-21.781-40.476-66.901-65.581-66.865
							c-30.899,0.045-78.88,51.698-78.88,77.927C1397.583,3398.312,1417.659,3424.68,1429.198,3436.666z"/>
					</g>
					<g>
						<path style="fill:#B25414;" d="M1512.633,3437.713c-10.112,4.535-42.554,8.162-64.43,5.483
							c36.239-21.354,44.081-77.376,45.98-142.962c20.844,12.985,41.811,43.902,47.879,60.804
							C1551.39,3387.215,1526.46,3431.489,1512.633,3437.713z"/>
					</g>
					<g>
						<path style="fill:#915320;" d="M1389.759,3607.964c-85.645,11.172-167.245,12.284-229.074-14.015
							c-83.581-35.494-155.234-129.441-161.425-208.301c-4.499-56.888,29.388-100.461,129.066-91.474
							c3.591-1.608,7.223-3.257,10.896-4.989c46.352,17.808,102.939,50.704,137.073,110.354
							C1308.035,3455.027,1312.74,3574.615,1389.759,3607.964z"/>
					</g>
					<g>
						<path style="fill:#7A431A;" d="M1389.759,3607.964c-85.645,11.172-167.245,12.284-229.074-14.015
							c-40.036-16.984-77.307-47.406-105.952-83.106c38.427,22.095,91.919,42.955,145.204,31.453
							c76.152-16.49,94.23-96.833,56.835-171.282c7.058,8.74,13.62,18.221,19.523,28.527
							C1308.035,3455.027,1312.74,3574.615,1389.759,3607.964z"/>
					</g>
					<g>
						<path style="fill:#512717;" d="M1287.508,3631.156c-48.979,0-94.429-6.276-132.993-22.667
							c-87.642-37.243-164.37-136.66-171.04-221.608c-2.549-32.508,6.314-59.769,25.64-78.842
							c24.302-23.989,63.506-34.034,116.426-29.962c127.5-57.765,320.61-178,373.672-227.006h-0.005
							c9.053-8.364,25.796-14.635,54.155,2.946c52.661,32.635,128.359,133.793,180.02,219.564
							c32.886,54.604,107.319,188.597,88.247,253.297c-7.168,24.306-26.577,37.4-54.082,36.941
							c-53.716-0.771-127.808,13.952-206.27,29.719C1471.473,3611.576,1373.997,3631.151,1287.508,3631.156z M1103.656,3308.781
							c-33.032,0-57.788,7.383-72.319,21.721c-12.666,12.504-18.164,30.64-16.338,53.912
							c5.845,74.424,73.984,161.907,151.899,195.02c97.637,41.496,251.982,10.5,388.145-16.854
							c80.195-16.113,155.947-31.338,213.052-30.333c14.951,0.307,19.326-5.316,21.655-10.192
							c25.039-52.391-81.694-252.775-183.393-373.99c-53.535-63.807-80.166-74.794-85.815-73.682
							c-61.699,56.901-263.462,179.39-385.767,234.18l-3.775,1.692l-4.116-0.371
							C1118.748,3309.146,1110.995,3308.781,1103.656,3308.781z M1509.945,3062.663h0.049H1509.945z"/>
					</g>
					<g>
						<path style="fill:#512717;" d="M1131.807,3278.757c60.466,19.989,119.173,61.683,144.488,120.804
							c-16.032-26.557-41.082-46.028-67.425-61.292c-26.397-14.938-55.213-24.656-84.063-28.716L1131.807,3278.757
							L1131.807,3278.757z"/>
					</g>
				</g>
				<g>
					<path style="fill:#FECF1F;" d="M2253.07,1799.917c-16.679,759.345,288.923,945.603,325.594,1329.254l-82.45,320.099
						c0,0-124.427,135.893-458.007,135.893S1580.2,3449.272,1580.2,3449.272l-82.45-320.1
						c36.671-383.651,342.273-569.91,325.594-1329.254"/>
				</g>
				<g>
					<path style="fill:#FECF1F;" d="M1497.743,3129.158l82.467,320.097c0,0,124.402,135.913,457.984,135.913
						s458.025-135.913,458.025-135.913l82.425-320.097c-36.652-383.623-342.25-569.91-325.574-1329.24h-429.711
						c5.778,263.952-27.365,458.649-74.625,616.492c-31.08,103.841-68.268,191.688-104.508,272.815
						C1577.114,2839.524,1513.304,2966.656,1497.743,3129.158z"/>
				</g>
				<g>
					<path style="fill:#FECF1F;" d="M1497.743,3129.158l82.467,320.097c0,0,124.402,135.913,457.984,135.913
						s458.025-135.913,458.025-135.913l82.425-320.097c-27.695-289.84-208.932-467.058-288.675-863.914
						c-25.797-128.368-40.986-279.74-36.899-465.327h-429.711c1.775,80.797-0.124,155.123-4.912,223.883
						c-10.938,155.823-36.9,283.08-69.713,392.609c-31.08,103.841-68.268,191.688-104.508,272.815
						C1577.114,2839.524,1513.304,2966.656,1497.743,3129.158z"/>
				</g>
				<g>
					<path style="fill:#FECF1F;" d="M1497.743,3129.158l82.467,320.097c0,0,124.402,135.913,457.984,135.913
						s458.025-135.913,458.025-135.913l82.425-320.097c-0.908-9.564-1.981-18.963-3.26-28.28
						c-36.281-273.474-208.313-451.846-285.415-835.634c-25.797-128.368-40.986-279.74-36.899-465.327h-429.711
						c1.775,80.797-0.124,155.123-4.912,223.883c-10.938,155.823-36.9,283.08-69.713,392.609
						c-31.08,103.841-68.268,191.688-104.508,272.815c-63.15,141.395-123.37,262.302-143.223,411.448
						C1499.765,3110.071,1498.651,3119.553,1497.743,3129.158z"/>
				</g>
				<g>
					<path style="fill:#FECF1F;" d="M1497.743,3129.158l82.467,320.097c0,0,72.231,78.902,254.211,116.497
						c56.835,11.708,124.402,19.416,203.773,19.416s146.938-7.708,203.773-19.416c181.98-37.595,254.252-116.497,254.252-116.497
						l82.425-320.097c-0.908-9.564-1.981-18.963-3.26-28.28c-36.281-273.474-208.313-451.846-285.415-835.634
						c-25.797-128.368-40.986-279.74-36.899-465.327h-429.711c1.775,80.797-0.124,155.123-4.912,223.883
						c-10.938,155.823-36.9,283.08-69.713,392.609c-31.08,103.841-68.268,191.688-104.508,272.815
						c-63.15,141.395-123.37,262.302-143.223,411.448C1499.765,3110.071,1498.651,3119.553,1497.743,3129.158z"/>
				</g>
				<g>
					<path style="fill:#FECF1F;" d="M1497.743,3129.158l82.467,320.097c0,0,72.231,78.902,254.211,116.497
						c56.835,11.708,124.402,19.416,203.773,19.416s146.938-7.708,203.773-19.416c181.98-37.595,254.252-116.497,254.252-116.497
						l82.425-320.097c-0.908-9.564-1.981-18.963-3.26-28.28c-36.281-273.474-208.313-451.846-285.415-835.634
						c-25.797-128.368-40.986-279.74-36.899-465.327h-429.711c1.775,80.797-0.124,155.123-4.912,223.883
						c-10.938,155.823-36.9,283.08-69.713,392.609c-31.08,103.841-68.268,191.688-104.508,272.815
						c-63.15,141.395-123.37,262.302-143.223,411.448C1499.765,3110.071,1498.651,3119.553,1497.743,3129.158z"/>
				</g>
				<g>
					<path style="fill:#FECF1F;" d="M2578.656,3129.151l-82.445,320.091c0,0-72.248,78.907-254.25,116.526
						c-56.834,11.684-124.378,19.381-203.78,19.381c-79.362,0-146.946-7.697-203.78-19.381
						c-181.963-37.618-254.211-116.526-254.211-116.526l-82.445-320.091c0.909-9.592,2.016-19.065,3.241-28.46
						c19.88-149.17,80.073-270.077,143.231-411.471c31.302-70.065,63.316-145.184,91.455-231.236
						c4.466-13.579,8.813-27.434,13.043-41.565c12.845-42.789,24.623-88.263,34.859-137.131
						c15.967-76.184,28.219-160.538,34.859-255.472c4.782-68.762,6.68-143.091,4.94-223.893h429.692
						c-0.356,17.25-0.593,34.224-0.633,50.881c-0.237,71.684,2.49,138.039,7.589,199.815v0.039
						c6.521,78.434,16.876,149.447,29.958,214.578c5.928,29.527,12.411,57.829,19.366,85.065
						c18.853,73.934,41.104,139.894,64.58,200.644c28.259,73.026,58.296,138.513,86.555,201.236
						c23.792,52.777,46.281,103.618,65.252,155.289c22.726,61.617,40.511,124.499,49.64,193.42
						C2576.68,3110.204,2577.748,3119.599,2578.656,3129.151z"/>
				</g>
				<g>
					<path style="fill:#FECF1F;" d="M2578.655,3129.17l-82.445,320.09c0,0-72.248,78.908-254.25,116.525
						c-56.834,11.684-124.379,19.382-203.779,19.382c-79.362,0-146.946-7.698-203.78-19.382
						c-181.963-37.617-254.211-116.525-254.211-116.525l-81.733-317.327l-0.711-2.763c0.909-9.592,2.016-19.066,3.241-28.461
						c6.561-49.46,17.587-95.802,31.697-140.802c28.417-90.789,69.323-176.13,111.534-270.669
						c31.302-70.065,63.315-145.183,91.456-231.235c4.466-13.579,8.814-27.434,13.043-41.566
						c12.845-42.789,24.623-88.263,34.859-137.131c15.967-76.184,28.219-160.538,34.859-255.472
						c4.782-68.763,6.679-143.091,4.94-223.893h429.692c-0.355,17.249-0.592,34.223-0.632,50.881
						c-0.237,71.684,2.49,138.039,7.588,199.815v0.039c6.521,78.433,16.876,149.446,29.959,214.577
						c5.928,29.526,12.41,57.829,19.366,85.065c18.852,73.934,41.104,139.894,64.581,200.644
						c28.259,73.026,58.296,138.512,86.555,201.236c23.793,52.776,46.281,103.618,65.252,155.289
						c22.726,61.618,40.511,124.499,49.641,193.42C2576.679,3110.223,2577.746,3119.617,2578.655,3129.17z"/>
				</g>
				<g>
					<path style="fill:#FCA822;" d="M2254.253,1954.697c-112.6,199.381-285.947,255.433-457.99,257.328
						c9.802-57.908,17.429-120.354,22.172-188.21c4.782-68.762,6.68-143.091,4.94-223.893h429.692
						c-0.356,17.25-0.593,34.224-0.633,50.881C2252.316,1886.724,2252.949,1921.342,2254.253,1954.697z"/>
				</g>
				<g>
					<path style="fill:#B25414;" d="M2254.253,1954.736c-24.899,44.013-52.723,81.079-82.84,112.066
						c-32.527-14.25-73.433-40.737-77.86-49.737c-9.327-18.947-15.453-93.473-11.857-104.526
						c6.482-20.013,93.669-84.868,108.688-84.868c5.77,0,37.191,10.737,62.051,23.131c-0.04,15.237,0.04,30.276,0.277,45.039
						c0.04,3.789,0.119,7.539,0.198,11.289c-0.04,0.908,0,1.777,0.04,2.684c0.079,4.105,0.158,8.21,0.276,12.315
						C2253.463,1933.105,2253.819,1944,2254.253,1954.736z"/>
				</g>
				<g>
					<path style="fill:#FCA822;" d="M1497.743,3129.158l82.467,320.097c0,0,124.402,135.913,457.984,135.913
						s458.025-135.913,458.025-135.913l82.425-320.097c-0.908-9.564-1.981-18.963-3.26-28.28
						c-1.625,5.31-62.435,208.599-110.926-38.218c-64.327,231.494-234.907,348.711-426.264,348.711
						c-444.281,0-537.19-310.699-537.19-310.699C1499.765,3110.071,1498.651,3119.553,1497.743,3129.158z"/>
				</g>
				<g>
					<path style="fill:#F9D3B7;" d="M1834.42,3565.752c5.324,1.113,10.773,2.185,16.303,3.174c3.096,0.577,6.233,1.154,9.369,1.69
						c3.426,0.618,6.893,1.195,10.36,1.731c1.032,0.206,2.105,0.371,3.137,0.535c3.509,0.536,7.099,1.072,10.69,1.608
						c2.848,0.412,5.696,0.824,8.544,1.195c2.683,0.412,5.366,0.742,8.09,1.072c3.508,0.495,7.099,0.907,10.69,1.319
						c3.632,0.454,7.347,0.866,11.062,1.237h0.165c3.509,0.371,7.058,0.742,10.649,1.072c3.096,0.289,6.274,0.577,9.452,0.824
						c3.426,0.33,6.893,0.577,10.401,0.865c0.743,0.041,1.486,0.124,2.27,0.165c3.591,0.248,7.182,0.495,10.814,0.742
						c1.115,0.042,2.229,0.123,3.384,0.165c3.674,0.248,7.347,0.454,11.062,0.619c5.448,0.288,10.979,0.494,16.551,0.7
						c8.296,0.289,16.716,0.495,25.302,0.618c5.077,0.041,10.277,0.082,15.478,0.082s10.401-0.041,15.478-0.082
						c8.585-0.124,17.005-0.33,25.302-0.618c5.572-0.207,11.103-0.412,16.551-0.7c3.715-0.165,7.388-0.372,11.062-0.619
						c1.156-0.041,2.27-0.123,3.385-0.165c3.632-0.247,7.223-0.495,10.814-0.742c0.784-0.041,1.527-0.124,2.27-0.165
						c3.508-0.288,6.975-0.535,10.401-0.865c3.178-0.247,6.356-0.535,9.452-0.824c3.591-0.33,7.14-0.701,10.649-1.072h0.165
						c3.715-0.371,7.429-0.783,11.062-1.237c3.591-0.412,7.182-0.824,10.69-1.319c2.724-0.33,5.407-0.66,8.09-1.072
						c2.848-0.371,5.696-0.784,8.543-1.195c3.591-0.536,7.182-1.072,10.69-1.608c1.032-0.165,2.105-0.33,3.137-0.535
						c3.467-0.536,6.934-1.113,10.36-1.731c3.137-0.536,6.273-1.113,9.369-1.69c5.531-0.989,10.979-2.061,16.303-3.174
						c16.469-51.034,31.658-119.176,26.622-187.977c-63.604,20.653-139.674,33.597-230.395,33.597
						c-90.68,0-166.75-12.944-230.354-33.597C1802.804,3446.535,1817.952,3514.718,1834.42,3565.752z"/>
				</g>
				<g>
					<path style="fill:#FFF3E9;" d="M1834.42,3565.752c56.835,11.708,124.402,19.416,203.773,19.416s146.938-7.708,203.773-19.416
						c18.78-58.207,35.868-138.633,23.32-216.875c-24.063-149.763-108.883-290.293-227.093-290.293s-202.989,140.53-227.052,290.293
						C1798.594,3427.119,1815.641,3507.545,1834.42,3565.752z"/>
				</g>
				<g>
					<path style="fill:#F9D3B7;" d="M1834.42,3565.752c5.324,1.113,10.773,2.185,16.303,3.174c3.096,0.577,6.233,1.154,9.369,1.69
						c3.426,0.618,6.893,1.195,10.36,1.731c1.032,0.206,2.105,0.371,3.137,0.535c3.509,0.536,7.099,1.072,10.69,1.608
						c2.848,0.412,5.696,0.824,8.544,1.195c2.683,0.412,5.366,0.742,8.09,1.072c3.508,0.495,7.099,0.907,10.69,1.319
						c3.632,0.454,7.347,0.866,11.062,1.237h0.165c3.509,0.371,7.058,0.742,10.649,1.072c3.096,0.289,6.274,0.577,9.452,0.824
						c3.426,0.33,6.893,0.577,10.401,0.865c0.743,0.041,1.486,0.124,2.27,0.165c3.591,0.248,7.182,0.495,10.814,0.742
						c1.115,0.042,2.229,0.123,3.384,0.165c3.674,0.248,7.347,0.454,11.062,0.619c5.448,0.288,10.979,0.494,16.551,0.7
						c8.296,0.289,16.716,0.495,25.302,0.618c5.077,0.041,10.277,0.082,15.478,0.082s10.401-0.041,15.478-0.082
						c8.585-0.124,17.005-0.33,25.302-0.618c5.572-0.207,11.103-0.412,16.551-0.7c3.715-0.165,7.388-0.372,11.062-0.619
						c1.156-0.041,2.27-0.123,3.385-0.165c3.632-0.247,7.223-0.495,10.814-0.742c0.784-0.041,1.527-0.124,2.27-0.165
						c3.508-0.288,6.975-0.535,10.401-0.865c3.178-0.247,6.356-0.535,9.452-0.824c3.591-0.33,7.14-0.701,10.649-1.072h0.165
						c3.715-0.371,7.429-0.783,11.062-1.237c3.591-0.412,7.182-0.824,10.69-1.319c2.724-0.33,5.407-0.66,8.09-1.072
						c2.848-0.371,5.696-0.784,8.543-1.195c3.591-0.536,7.182-1.072,10.69-1.608c1.032-0.165,2.105-0.33,3.137-0.535
						c3.467-0.536,6.934-1.113,10.36-1.731c3.137-0.536,6.273-1.113,9.369-1.69c5.531-0.989,10.979-2.061,16.303-3.174
						c16.469-51.034,31.658-119.176,26.622-187.977c-42.556,13.818-98.041-278.892-105.719-224.867
						c-28.444,200.135-93.122,235.03-120.796,246.654c-55.205,23.188-170.63-1.134-234.234-21.787
						C1802.804,3446.535,1817.952,3514.718,1834.42,3565.752z"/>
				</g>
				<g>
					<path style="fill:#512717;" d="M1580.2,3449.272c135.357,86.994,298.8,116.832,458.007,116.527
						c124.758,0.337,249.95-17.657,364.697-67.371c32.555-13.742,63.821-29.017,93.308-49.157
						c-11.89,16.974-27.354,31.348-43.679,44.152c-65.43,51.897-148.271,77.336-229.055,93.601
						c-17.083,4.053-43.822,7.26-61.411,9.962c-17.355,2.335-44.162,4.004-61.861,5.719c0,0-62,1.824-62,1.824l-62.002-1.824
						c-17.709-1.833-44.412-3.286-61.86-5.719c-17.536-2.75-44.255-5.893-61.408-9.962
						C1755.79,3567.523,1642.471,3530.891,1580.2,3449.272L1580.2,3449.272z"/>
				</g>
				<g>
					<g>
						<path style="fill:#FECF1F;" d="M2168.993,3093.995c-16.74,113.364-20.287,422.537,61.231,516.835
							c16.696,19.313,64.51,57.241,148.476,60.635c127.37,5.15,159.702-53.25,154.994-90.801
							c-4.552-36.31-74.402-251.011-69.235-518.004"/>
					</g>
					<g>
						<path style="fill:#FECF1F;" d="M2170.025,3431.653c10.319,75.81,29.016,143.168,60.178,179.197
							c16.716,19.293,64.512,57.218,148.506,60.598c127.374,5.153,159.691-53.219,154.986-90.773
							c-1.816-14.511-14.033-57.383-27.737-120.66c-20.637-95.308-44.618-236.869-41.522-397.35l-295.444,31.33
							C2158.633,3164.074,2153.309,3308.932,2170.025,3431.653z"/>
					</g>
					<g>
						<path style="fill:#FECF1F;" d="M2170.025,3431.653c10.319,75.81,29.016,143.168,60.178,179.197
							c16.716,19.293,64.512,57.218,148.506,60.598c127.374,5.153,159.691-53.219,154.986-90.773
							c-1.816-14.511-14.033-57.383-27.737-120.66c-20.637-95.308-44.618-236.869-41.522-397.35l-295.444,31.33
							C2158.633,3164.074,2153.309,3308.932,2170.025,3431.653z"/>
					</g>
					<g>
						<path style="fill:#FCA822;" d="M2261.806,3341.787c1.32,22.851,24.895,93.096,104.077,82.894
							c61.276-7.895,68.325-81.206,58.093-107.236C2402.77,3263.498,2257.853,3273.366,2261.806,3341.787z"/>
					</g>
					<g>
						<path style="fill:#D3691A;" d="M2326.737,3229.964c18.177-0.266,80.438-25.701,88.006-56.618
							c7.567-30.917-40.54-125.804-74.294-125.593c-23.098,0.145-115.424,45.708-113.36,87.618
							C2229.152,3177.281,2297.845,3230.386,2326.737,3229.964z"/>
					</g>
					<g>
						<path style="fill:#915320;" d="M2170.025,3431.653c10.319,75.81,29.016,143.168,60.178,179.197
							c16.716,19.293,64.512,57.218,148.506,60.598c127.374,5.153,159.691-53.219,154.986-90.773
							c-1.816-14.511-14.033-57.383-27.737-120.66C2438.475,3482.564,2299.173,3511.832,2170.025,3431.653z"/>
					</g>
					<g>
						<path style="fill:#7A431A;" d="M2170.025,3431.653c10.319,75.81,29.016,143.168,60.178,179.197
							c16.716,19.293,64.512,57.218,148.506,60.598c127.374,5.153,159.691-53.219,154.986-90.773
							c-0.784-6.142-3.426-17.438-7.264-33.226c-15.85,29.763-58.445,57.382-147.722,53.755
							c-83.994-3.381-131.79-41.306-148.506-60.598c-19.688-22.796-34.423-58.083-45.196-100.172
							C2179.972,3437.672,2175.019,3434.745,2170.025,3431.653z"/>
					</g>
					<g>
						<path style="fill:#512717;" d="M2168.992,3093.995c1.069,118.014,3.011,235.297,20.709,351.694
							c4.823,28.574,10.624,56.933,19.198,83.937c8.158,25.481,18.907,52.325,36.343,71.911
							c30.191,31.681,75.354,47.734,118.521,52.428c52.228,4.83,147.369,0.689,154.481-64.891
							c0.093-11.734-5.012-26.866-7.752-39.312c0,0-10.738-43.228-10.738-43.228c-22.224-86.769-37.288-175.588-41.24-265.174
							c-2.828-59.665-1.627-119.572,5.944-178.699c8.117,88.803,18.44,175.956,33.682,263.348
							c12.404,71.483,26.393,145.656,43.516,216.218c3.309,15.601,8.532,31.421,8.24,47.836
							c-6.92,90.021-118.961,103.434-189.375,96.545c-51.815-5.186-103.561-23.367-140.772-61.513
							c-41.867-47.949-54.513-113.701-64.467-174.056c-10.697-74.399-12.88-149.572-7.648-224.4
							C2151.333,3181.977,2156.732,3137.229,2168.992,3093.995L2168.992,3093.995z"/>
					</g>
					<g>
						<path style="fill:#512717;" d="M2420.769,3540.75c10.482,31.67,49.703,130.764,2.582,145.415
							c-0.001,0-7.032-30.788-7.032-30.788c-0.708,0.245-1.143,1.384-0.657,1.29c0.232,0.011,0.598-0.349,1.033-0.671
							c8.28-13.057,7.669-31.218,8.458-47.201C2425.349,3586.359,2423.606,3563.477,2420.769,3540.75L2420.769,3540.75z"/>
					</g>
				</g>
				<g>
					<g>
						<path style="fill:#FECF1F;" d="M1916.944,3093.995c16.74,113.364,20.287,422.537-61.231,516.835
							c-16.695,19.313-64.509,57.241-148.475,60.635c-127.37,5.15-159.702-53.25-154.994-90.801
							c4.552-36.31,74.402-251.011,69.235-518.004"/>
					</g>
					<g>
						<path style="fill:#FECF1F;" d="M1915.912,3431.653c-10.319,75.81-29.016,143.168-60.178,179.197
							c-16.716,19.293-64.512,57.218-148.506,60.598c-127.374,5.153-159.692-53.219-154.986-90.773
							c1.816-14.511,14.033-57.383,27.737-120.66c20.637-95.308,44.618-236.869,41.522-397.35l295.444,31.33
							C1927.304,3164.074,1932.628,3308.932,1915.912,3431.653z"/>
					</g>
					<g>
						<path style="fill:#FECF1F;" d="M1915.912,3431.653c-10.319,75.81-29.016,143.168-60.178,179.197
							c-16.716,19.293-64.512,57.218-148.506,60.598c-127.374,5.153-159.692-53.219-154.986-90.773
							c1.816-14.511,14.033-57.383,27.737-120.66c20.637-95.308,44.618-236.869,41.522-397.35l295.444,31.33
							C1927.304,3164.074,1932.628,3308.932,1915.912,3431.653z"/>
					</g>
					<g>
						<path style="fill:#FCA822;" d="M1824.131,3341.787c-1.32,22.851-24.895,93.096-104.077,82.894
							c-61.276-7.895-68.325-81.206-58.093-107.236C1683.166,3263.498,1828.083,3273.366,1824.131,3341.787z"/>
					</g>
					<g>
						<path style="fill:#D3691A;" d="M1759.199,3229.964c-18.177-0.266-80.439-25.701-88.006-56.618
							c-7.567-30.917,40.54-125.804,74.294-125.593c23.098,0.145,115.424,45.708,113.36,87.618
							C1856.785,3177.281,1788.092,3230.386,1759.199,3229.964z"/>
					</g>
					<g>
						<path style="fill:#915320;" d="M1915.912,3431.653c-10.319,75.81-29.016,143.168-60.178,179.197
							c-16.716,19.293-64.512,57.218-148.506,60.598c-127.374,5.153-159.692-53.219-154.986-90.773
							c1.816-14.511,14.033-57.383,27.737-120.66C1647.462,3482.564,1786.764,3511.832,1915.912,3431.653z"/>
					</g>
					<g>
						<path style="fill:#7A431A;" d="M1915.912,3431.653c-10.319,75.81-29.016,143.168-60.178,179.197
							c-16.716,19.293-64.512,57.218-148.506,60.598c-127.374,5.153-159.692-53.219-154.986-90.773
							c0.784-6.142,3.426-17.438,7.264-33.226c15.849,29.763,58.445,57.382,147.722,53.755
							c83.994-3.381,131.79-41.306,148.506-60.598c19.688-22.796,34.423-58.083,45.196-100.172
							C1905.965,3437.672,1910.918,3434.745,1915.912,3431.653z"/>
					</g>
					<g>
						<path style="fill:#512717;" d="M1916.943,3093.995c12.259,43.234,17.661,87.982,21.36,132.643
							c5.23,74.829,3.05,150.001-7.651,224.4c-4.361,29.918-10.489,59.771-19.759,89.287c-9.958,30.503-22.23,60.115-44.704,84.77
							c-37.206,38.148-88.96,56.327-140.772,61.514c-70.38,6.911-182.491-6.555-189.376-96.546
							c-0.292-16.414,4.935-32.234,8.238-47.835c17.145-70.556,31.095-144.745,43.518-216.218
							c15.242-87.392,25.564-174.541,33.682-263.348c7.571,59.127,8.772,119.033,5.943,178.699
							c-3.946,89.587-19.018,178.405-41.239,265.174c0.001,0-10.737,43.229-10.737,43.229c-2.758,12.442-7.854,27.593-7.755,39.311
							c7.122,65.605,102.25,69.702,154.48,64.893c43.159-4.689,88.343-20.748,118.524-52.429
							c17.432-19.598,28.172-46.425,36.343-71.911c8.574-27.004,14.373-55.363,19.194-83.937
							C1913.933,3329.286,1915.874,3212.019,1916.943,3093.995L1916.943,3093.995z"/>
					</g>
					<g>
						<path style="fill:#512717;" d="M1665.168,3540.75c-2.837,22.727-4.583,45.61-4.382,68.045
							c0.785,15.972,0.179,34.154,8.456,47.202c0.433,0.322,0.802,0.681,1.034,0.67c0.486,0.094,0.049-1.045-0.657-1.29
							l-7.031,30.788C1615.492,3671.512,1654.63,3572.575,1665.168,3540.75L1665.168,3540.75z"/>
					</g>
				</g>
				<g>
					<path style="fill:#B25414;" d="M1832.06,2100.87c0,0,27.155,80.877,47.487,86.969c6.634,1.988,68.786,2.471,94.859-4.969
						c13.93-3.975,58.371-89.782,55.058-98.054c-7.96-19.876-74.296-85.134-103.208-83.325
						C1907.719,2002.651,1832.06,2066.419,1832.06,2100.87z"/>
				</g>
				<g>
					<path style="fill:#D3691A;" d="M2374.757,2553.094c-43.001,6.079-95.289,11.013-102.759,9.276
						c-26.48-6-84.381-41.802-91.416-60.157c-10.434-27.513,19.683-101.289,30.867-118.854
						c6.522-10.302,57.783-23.605,98.492-30.671c18.734,72.987,40.748,138.197,63.987,198.276
						C2374.204,2551.673,2374.48,2552.383,2374.757,2553.094z"/>
				</g>
				<g>
					<path style="fill:#D3691A;" d="M2028.096,2241.67c0,0,24.983,86.437,45.316,92.529c6.634,1.988,97,0.377,123.073-7.063
						c13.93-3.975,39.376-115.455,36.063-123.726c-7.96-19.876-89.052-76.343-117.965-74.534
						C2096.045,2130.035,2028.096,2207.219,2028.096,2241.67z"/>
				</g>
				<g>
					<path style="fill:#D3691A;" d="M1729.793,2698.182c-3.434,15.113,2.54,94.09,18.044,103.359
						c5.058,3.024,79.966,20.546,103.038,19.845c12.327-0.374,56.638-87.06,55.634-94.577
						c-2.412-18.062-57.521-81.576-81.759-86.115C1809.211,2637.784,1733.227,2683.07,1729.793,2698.182z"/>
				</g>
				<g>
					<path style="fill:#D3691A;" d="M2260.024,2050.618v0.039c-18.536,9.789-45.412,22.184-51.735,24.671
						c-19.682,7.895-108.095-44.763-114.735-58.263c-9.327-18.947-15.453-93.473-11.857-104.526
						c6.482-20.013,93.669-84.868,108.688-84.868c5.77,0,37.191,10.737,62.051,23.131
						C2252.198,1922.487,2254.926,1988.842,2260.024,2050.618z"/>
				</g>
				<g>
					<path style="fill:#B25414;" d="M2254.253,1954.736c-24.899,44.013-52.723,81.079-82.84,112.066
						c-32.527-14.25-73.433-40.737-77.86-49.737c-9.327-18.947-15.453-93.473-11.857-104.526
						c6.482-20.013,93.669-84.868,108.688-84.868c5.77,0,37.191,10.737,62.051,23.131c-0.04,15.237,0.04,30.276,0.277,45.039
						c0.04,3.789,0.079,7.539,0.198,11.289c-0.04,0.908,0,1.777,0.04,2.684c0.079,4.105,0.158,8.21,0.276,12.315
						C2253.463,1933.105,2253.819,1944,2254.253,1954.736z"/>
				</g>
				<g>
					<path style="fill:#D3691A;" d="M1957.989,2413.437c-8.221,16.737-98.294,64.302-124.695,63.276
						c-19.208-0.829-63.474-19.737-90.546-40.816c2.016-6.434,3.992-12.907,5.968-19.46c12.845-42.789,24.623-88.263,34.859-137.131
						c0.237-1.105,0.474-2.171,0.672-3.277c0.395-0.04,0.83-0.079,1.225-0.118c18.852-17.013,38.732-28.855,46.163-28.855
						c18.734,0,101.099,23.723,109.122,33.552C1949.847,2291.819,1969.569,2389.832,1957.989,2413.437z"/>
				</g>
				<g>
					<path style="fill:#D3691A;" d="M2143.122,2833.031c0,0-29.337-71.954-47.353-75.336c-5.878-1.104-83.332,8.5-105.044,17.261
						c-11.6,4.681-23.285,102.728-19.686,109.53c8.648,16.344,85.364,42.613,110.028,38.43
						C2096.881,2920.233,2146.264,2862.616,2143.122,2833.031z"/>
				</g>
				<g>
					<path style="fill:#D3691A;" d="M1717.116,2919.884c0,0-46.98-37.634-60.441-33.144c-4.392,1.465-53.16,37.098-64.542,51.192
						c-6.081,7.53,22.992,78.245,27.992,81.491c12.014,7.802,73.811-3.289,88.916-15.397
						C1718.725,2996.263,1730.398,2938.713,1717.116,2919.884z"/>
				</g>
				<g>
					<path style="fill:#D3691A;" d="M1847.48,3047.605c17.667-3.288,72.507-25.422,78.906-35.147
						c2.721-4.135,4.09-60.436-0.348-79.296c-2.371-10.077-81.268-32.021-87.299-29.938c-14.491,5.006-57.644,60.964-57.332,81.66
						C1781.608,2998.154,1829.813,3050.893,1847.48,3047.605z"/>
				</g>
				<g>
					<path style="fill:#D3691A;" d="M2277.829,3007.085c17-1.98,62-49.047,59.825-62.716c-0.709-4.459-27.267-57.081-39.037-70.288
						c-6.288-7.056-79.143,9.591-83.074,13.88c-9.448,10.308-25.771,64.907-16.513,81.377
						C2204.966,2979.898,2252.412,3010.046,2277.829,3007.085z"/>
				</g>
				<g>
					<path style="fill:#D3691A;" d="M2240.368,2626.217c-17.799,4.932-66.606,64.887-61.586,82.71
						c1.638,5.815,34.67,67.84,52.368,83.556c9.455,8.396,110.26-12.346,114.815-18.657c10.946-15.165,14.668-101.308-0.202-121.751
						C2336.229,2638.968,2258.167,2621.285,2240.368,2626.217z"/>
				</g>
				<g>
					<path style="fill:#D3691A;" d="M2525.735,2907.469c-31.895,7.302-86.95,15.276-93.748,9.197
						c-17.706-15.71-53.119-66.631-54.778-72.473c-5.02-17.802,47.665-86.723,65.45-91.657c3.715-1.026,10.038-1.066,17.825-0.356
						C2484.276,2804.956,2506.765,2855.798,2525.735,2907.469z"/>
				</g>
				<g>
					<path style="fill:#D3691A;" d="M1946.15,2642.143c0,0,101.671,32.754,122.323,24.462
						c18.369-7.375,50.928-63.449,66.028-100.753c5.694-14.066-44.513-97.123-71.234-107.479
						c-20.952-8.121-129.057,39.797-138.677,65.489C1917.769,2542.081,1919.736,2617.465,1946.15,2642.143z"/>
				</g>
				<g>
					<g>
						<g>
							<path style="fill:#512717;" d="M2578.665,3129.172c-15.468-55.703-30.795-110.045-49.849-164.205
								c-57.263-162.46-139.644-315.814-195.4-479.311c-76.612-219.88-101.282-454.301-96.148-686.086
								c0.102-8.718,7.265-15.703,15.995-15.598c8.843,0.097,15.897,7.467,15.613,16.291c-0.679,57.229-0.962,114.5,2.131,171.602
								c8.599,228.683,61.256,454.347,154.675,663.327C2493.164,2792.617,2590.468,2951.359,2578.665,3129.172L2578.665,3129.172z"
								/>
						</g>
					</g>
					<g>
						<g>
							<path style="fill:#512717;" d="M1497.749,3129.172c-13.645-177.843,86.341-336.431,152.984-493.98
								c93.418-208.977,146.077-434.648,154.672-663.327c3.095-57.101,2.812-114.372,2.133-171.601
								c-0.285-8.813,6.773-16.205,15.615-16.291c8.73-0.104,15.891,6.88,15.996,15.598c5.13,231.782-19.542,466.208-96.151,686.086
								c-55.687,163.497-138.382,316.761-195.033,479.426C1529.467,3019.143,1514.046,3074.315,1497.749,3129.172L1497.749,3129.172
								z"/>
						</g>
					</g>
				</g>
			</g>
			<g>
				<g>
					<g>
						<path style="fill:#FFFFFF;" d="M2382.467,669.452c0,0,76.515-159.328,203.887-189.017
							c116.277-27.103,172.493,58.49,155.24,177.525c-17.192,118.612-121.134,229.796-220.771,252.493
							c0,0-101.522,3.007-138.52-89.04C2345.304,729.364,2382.467,669.452,2382.467,669.452z"/>
					</g>
					<g>
						<path style="fill:#FECF1F;" d="M2594.696,878.239c-23.948,15.396-49.044,26.544-73.879,32.219
							c0,0-101.511,3.018-138.521-89.041c-36.975-92.05,0.151-151.958,0.151-151.958s76.54-159.337,203.912-189.022
							c96.501-22.476,151.61,32.618,157.723,120.025c1.285,17.939,0.451,37.244-2.482,57.504
							C2728.69,747.017,2666.885,831.865,2594.696,878.239z"/>
					</g>
					<g>
						<path style="fill:#FCA822;" d="M2594.696,878.239c-52.515,8.11-121.17,11.293-121.043-80.875
							c0.111-84.946,65.11-192.365,142.082-228.589c53.523-25.192,107.184-10.428,128.347,31.687
							c1.285,17.939,0.451,37.244-2.482,57.504C2728.69,747.017,2666.885,831.865,2594.696,878.239z"/>
					</g>
					<g>
						<path style="fill:#512717;" d="M2520.809,926.968c-7.544,0-14.355-5.189-16.104-12.843c-2.031-8.89,3.54-17.742,12.441-19.77
							c97.246-22.155,192.539-131.493,208.086-238.762c8.96-61.812-3.154-113.081-33.232-140.657
							c-23.994-21.996-59.209-28.37-101.89-18.424c-118.008,27.507-192.007,178.568-192.739,180.09
							c-3.96,8.212-13.823,11.672-22.061,7.73c-8.223-3.948-11.694-13.801-7.749-22.018c3.267-6.798,81.479-166.828,215.034-197.958
							c67.969-15.84,109.16,5.535,131.763,26.254c38.257,35.071,54.146,96.93,43.599,169.715
							c-17.608,121.484-122.339,240.912-233.457,266.227C2523.265,926.834,2522.025,926.968,2520.809,926.968z"/>
					</g>
					<g>
						<path style="fill:#FF8080;" d="M2533.925,839.399c-20.88,1.135-40.216-13.804-57.335-49.379
							c-22.512-46.78-14.708-80.243,26.814-137.139c41.877-57.382,149.313-133.645,181.484-49.416
							C2717.217,688.109,2618.763,834.788,2533.925,839.399z"/>
					</g>
					<g>
						<path style="fill:#FF8080;" d="M2533.925,839.399c-20.88,1.135-40.216-13.804-57.335-49.379
							c-22.512-46.78-14.708-80.243,26.814-137.139c41.877-57.382,149.313-133.645,181.484-49.416
							C2717.217,688.109,2618.763,834.788,2533.925,839.399z"/>
					</g>
					<g>
						<path style="fill:#FF8080;" d="M2686.224,678.009c-9.658,38.792-32.515,78.846-60.896,109.393
							c-27.59,29.665-60.385,50.328-91.397,52.007c-20.889,1.137-40.219-13.811-57.356-49.379
							c-22.504-46.809-14.692-80.237,26.83-137.149c41.865-57.385,149.31-133.645,181.484-49.416
							C2693.241,625.329,2692.855,651.353,2686.224,678.009z"/>
					</g>
					<g>
						<path style="fill:#FF5C64;" d="M2686.224,678.009c-2.02-3.249-3.979-7.112-5.973-11.692
							c-53.542-123.191-106.841,7.633-140.863,33.367c-27.885,21.065-32.078,72.05,1.593,91.419
							c20.619,11.861,53.657,8.198,84.347-3.7c-27.59,29.665-60.385,50.328-91.397,52.007
							c-20.889,1.137-40.219-13.811-57.356-49.379c-22.504-46.809-14.692-80.237,26.83-137.149
							c41.865-57.385,149.31-133.645,181.484-49.416C2693.241,625.329,2692.855,651.353,2686.224,678.009z"/>
					</g>
					<g>
						<path style="fill:#512717;" d="M2531.624,855.973c-27.637,0-51.147-19.76-69.937-58.801
							c-28.076-58.335-11.694-99.134,28.359-154.016c31.411-43.035,100.444-100.295,155.41-92.997
							c17.671,2.355,41.538,12.497,54.873,47.424c16.865,44.147,4.546,104.932-32.954,162.597
							c-36.802,56.589-87.593,93.262-132.554,95.706v0.002C2533.748,855.943,2532.684,855.973,2531.624,855.973z M2533.924,839.399
							h0.049H2533.924z M2635.472,582.533c-35.806,0-89.961,40.684-118.706,80.073c-38.872,53.263-44.541,80.237-25.274,120.26
							c13.159,27.351,27.051,40.782,41.533,40.048v-0.002c34.087-1.851,75.938-33.535,106.621-80.717
							c31.294-48.123,42.71-99.027,29.795-132.842c-8.184-21.418-20.103-25.359-28.359-26.461
							C2639.271,582.65,2637.396,582.533,2635.472,582.533z"/>
					</g>
				</g>
				<g>
					<g>
						<path style="fill:#FFFFFF;" d="M1663.75,683.097c0,0-82.523-156.309-210.932-181.142
							c-117.224-22.67-170.143,64.995-148.372,183.289c21.693,117.874,129.79,225.032,230.219,243.931
							c0,0,101.563-0.849,135.032-94.234C1703.166,741.555,1663.75,683.097,1663.75,683.097z"/>
					</g>
					<g>
						<path style="fill:#FECF1F;" d="M1459.619,899.788c24.517,14.476,50.019,24.663,75.052,29.391
							c0,0,101.552-0.838,135.033-94.234c33.445-93.387-5.933-151.843-5.933-151.843s-82.547-156.317-210.958-181.145
							c-97.287-18.797-150.259,38.349-153.042,125.925c-0.601,17.975,0.966,37.234,4.669,57.368
							C1320.728,773.748,1385.717,856.188,1459.619,899.788z"/>
					</g>
					<g>
						<path style="fill:#FCA822;" d="M1459.619,899.788c52.786,6.111,121.512,6.685,117.878-85.411
							c-3.343-84.88-72.383-189.755-150.678-223.031c-54.443-23.143-107.503-6.352-127.049,36.536
							c-0.601,17.975,0.966,37.234,4.669,57.368C1320.728,773.748,1385.717,856.188,1459.619,899.788z"/>
					</g>
					<g>
						<path style="fill:#512717;" d="M1534.686,945.69c-1.016,0-2.046-0.095-3.081-0.29
							c-112.002-21.077-221.196-136.443-243.418-257.171c-13.31-72.329,0.21-134.744,37.104-171.243
							c21.802-21.565,62.183-44.488,130.674-31.24c134.643,26.037,218.887,182.984,222.407,189.653
							c4.258,8.066,1.162,18.054-6.914,22.306c-8.066,4.253-18.071,1.161-22.334-6.905c-1.079-2.026-80.693-149.669-199.448-172.633
							c-42.993-8.317-77.979-0.612-101.118,22.279c-29.004,28.699-39.155,80.388-27.851,141.815
							c19.619,106.6,119.004,212.244,217.021,230.691c8.97,1.687,14.873,10.322,13.184,19.282
							C1549.417,940.159,1542.479,945.69,1534.686,945.69z"/>
					</g>
					<g>
						<path style="fill:#FF8080;" d="M1518.868,858.67c20.909,0.341,39.661-15.321,55.415-51.519
							c20.716-47.601,11.644-80.743-32.014-136.023c-44.031-55.751-154.291-127.881-183.233-42.492
							C1329.952,714.447,1433.916,857.283,1518.868,858.67z"/>
					</g>
					<g>
						<path style="fill:#FF8080;" d="M1518.868,858.67c20.909,0.341,39.661-15.321,55.415-51.519
							c20.716-47.601,11.644-80.743-32.014-136.023c-44.031-55.751-154.291-127.881-183.233-42.492
							C1329.952,714.447,1433.916,857.283,1518.868,858.67z"/>
					</g>
					<g>
						<path style="fill:#FF8080;" d="M1360.538,703.177c11.127,38.397,35.492,77.555,65.015,107.003
							c28.699,28.596,62.256,47.999,93.31,48.5c20.917,0.343,39.664-15.327,55.435-51.521
							c20.707-47.629,11.628-80.737-32.029-136.031c-44.018-55.754-154.287-127.881-183.233-42.492
							C1351.522,650.802,1352.897,676.792,1360.538,703.177z"/>
					</g>
					<g>
						<path style="fill:#FF5C64;" d="M1360.538,703.177c1.895-3.323,3.705-7.258,5.523-11.91
							c48.816-125.135,107.054,3.572,142.031,27.996c28.667,19.991,34.796,70.78,1.887,91.413
							c-20.152,12.635-53.306,10.228-84.427-0.496c28.699,28.596,62.256,47.999,93.31,48.5
							c20.917,0.343,39.664-15.327,55.435-51.521c20.707-47.629,11.628-80.737-32.029-136.031
							c-44.018-55.754-154.287-127.881-183.233-42.492C1351.522,650.802,1352.897,676.792,1360.538,703.177z"/>
					</g>
					<g>
						<path style="fill:#512717;" d="M1519.578,875.187c-0.327,0-0.654-0.002-0.977-0.007l0,0
							c-45.029-0.736-97.183-35.456-136.108-90.612c-39.663-56.199-54.287-116.471-39.116-161.224
							c12.002-35.407,35.464-46.446,53.032-49.469c54.78-9.429,125.825,45.222,158.838,87.028
							c42.109,53.32,60.029,93.467,34.199,152.831C1571.693,854.517,1548.192,875.187,1519.578,875.187z M1519.139,842.159
							c14.648,0.266,27.866-13.75,39.985-41.591c17.725-40.728,11.03-67.469-29.834-119.214
							c-31.851-40.328-91.948-81.024-127.266-74.938c-8.208,1.412-19.971,5.803-27.329,27.514
							c-11.621,34.281,1.724,84.711,34.824,131.61C1441.976,811.529,1485.003,841.603,1519.139,842.159L1519.139,842.159z"/>
					</g>
				</g>
				<g style="opacity:0.35;">
					<path style="fill:#FFFFFF;" d="M2402.053,987.05l1.087,6.355c-0.683-0.616-1.153-1.069-1.451-1.273
						c-0.086-0.124-0.171-0.164-0.214-0.206c-0.043-0.041-0.086-0.082-0.086-0.082L2402.053,987.05z"/>
				</g>
				<g>
					<g>
						<polyline style="fill:#FECF1F;" points="2424.772,406.906 2345.038,763.676 2274.588,739.222 2204.138,714.768 
							2363.128,385.509 						"/>
					</g>
					<g>
						<polygon style="fill:#FECF1F;" points="2345.032,763.649 2274.577,739.216 2204.122,714.784 2282.517,552.469 
							2363.136,385.532 2424.771,406.911 2385.466,582.725 						"/>
					</g>
					<g>
						<path style="fill:#FCA822;" d="M2345.032,763.649l-70.456-24.433l-70.455-24.432l78.395-162.314
							c32.129,2.438,72.297,9.949,102.949,30.256L2345.032,763.649z"/>
					</g>
					<g>
						<path style="fill:#512717;" d="M2357.132,785.355l-175.942-61.074l167.046-345.944c3.975-8.217,13.867-11.655,22.075-7.7
							c8.223,3.96,11.675,13.83,7.71,22.043l-150.933,312.573l105.854,36.746l75.698-338.69
							c1.987-8.897,10.796-14.506,19.736-12.518c8.911,1.987,14.521,10.812,12.529,19.712L2357.132,785.355z"/>
					</g>
					<g>
						<ellipse style="fill:#915320;" cx="2374.435" cy="424.4" rx="80.799" ry="80.698"/>
					</g>
					<g>
						<path style="fill:#7A431A;" d="M2357.372,473.466c-2.044-0.737-4.045-1.562-5.983-2.514
							c-23.471-11.539-34.674-38.848-26.07-63.578c2.805-8.079,7.419-15.161,13.523-20.816
							c-2.101,21.088,8.955,41.966,28.679,51.663c1.938,0.953,3.918,1.82,5.983,2.514c18.867,6.551,38.993,1.538,52.674-11.24
							c-0.362,3.99-1.26,7.984-2.63,11.958C2414.12,468.504,2384.457,482.882,2357.372,473.466z"/>
					</g>
					<g>
						<path style="fill:#512717;" d="M2374.349,521.615c-10.581,0-21.323-1.734-31.865-5.394
							c-50.693-17.598-77.603-73.104-59.985-123.735c8.535-24.527,26.118-44.266,49.522-55.58
							c23.398-11.321,49.814-12.85,74.37-4.328c50.689,17.595,77.598,73.102,59.98,123.732
							C2452.415,496.412,2414.642,521.615,2374.349,521.615z M2374.383,360.179c-9.57,0-19.092,2.163-27.954,6.449
							c-15.454,7.471-27.065,20.504-32.7,36.7c-11.631,33.43,6.138,70.081,39.609,81.702c33.457,11.607,70.171-6.128,81.802-39.56
							c11.631-33.43-6.138-70.081-39.604-81.7C2388.621,361.371,2381.488,360.179,2374.383,360.179z"/>
					</g>
				</g>
				<g>
					<g>
						<polyline style="fill:#FECF1F;" points="1611.458,422.347 1704.711,775.833 1774.179,748.722 1843.647,721.612 
							1672.243,398.626 						"/>
					</g>
					<g>
						<polygon style="fill:#FECF1F;" points="1704.715,775.806 1774.189,748.716 1843.664,721.627 1759.149,562.406 
							1672.236,398.649 1611.459,422.352 1657.426,596.547 						"/>
					</g>
					<g>
						<path style="fill:#FCA822;" d="M1704.715,775.806l69.475-27.089l69.474-27.089l-84.515-159.222
							c-32.013,3.655-71.866,12.686-101.723,34.142L1704.715,775.806z"/>
					</g>
					<g>
						<path style="fill:#512717;" d="M1693.45,797.954l-97.978-371.401c-2.324-8.817,2.944-17.849,11.772-20.173
							c8.833-2.324,17.871,2.941,20.2,11.76l88.525,335.572l104.38-40.738l-162.715-306.616c-4.273-8.056-1.201-18.051,6.865-22.321
							c8.076-4.27,18.076-1.2,22.354,6.857l180.088,339.354L1693.45,797.954z"/>
					</g>
					<g>
						<ellipse style="fill:#915320;" cx="1662.425" cy="437.918" rx="80.799" ry="80.698"/>
					</g>
					<g>
						<path style="fill:#7A431A;" d="M1681.342,486.301c2.014-0.814,3.983-1.714,5.883-2.74
							c23.014-12.422,33.171-40.136,23.631-64.522c-3.11-7.967-7.99-14.869-14.306-20.288c2.902,20.993-7.352,42.276-26.692,52.715
							c-1.9,1.026-3.846,1.967-5.883,2.739c-18.604,7.262-38.906,3.017-53.063-9.232c0.513,3.974,1.563,7.93,3.083,11.85
							C1624.446,483.497,1654.635,496.738,1681.342,486.301z"/>
					</g>
					<g>
						<path style="fill:#512717;" d="M1662.396,535.18c-13.267,0-26.509-2.746-39.028-8.222
							c-23.814-10.419-42.139-29.477-51.602-53.663c-9.458-24.184-8.926-50.601,1.509-74.385
							c10.43-23.784,29.512-42.086,53.731-51.535c24.209-9.453,50.659-8.919,74.477,1.502
							c23.813,10.419,42.139,29.477,51.602,53.663c9.458,24.184,8.926,50.601-1.509,74.385
							c-10.43,23.784-29.512,42.086-53.73,51.535C1686.361,532.944,1674.369,535.18,1662.396,535.18z M1662.445,373.697
							c-7.905,0-15.82,1.475-23.408,4.435c-15.991,6.24-28.589,18.324-35.479,34.03c-6.89,15.703-7.241,33.147-0.991,49.116l0,0
							c6.245,15.969,18.345,28.551,34.068,35.432c15.728,6.881,33.184,7.235,49.18,0.992c15.991-6.24,28.589-18.324,35.479-34.03
							c6.89-15.703,7.241-33.147,0.991-49.116c-6.245-15.969-18.345-28.551-34.067-35.432
							C1679.949,375.509,1671.204,373.697,1662.445,373.697z"/>
					</g>
				</g>
				<g>
					<path style="fill:#FECF1F;" d="M2021.459,589.769c511.745-9.716,644.09,447.35,634.383,785.686
						c35.421,92.291,47.537,190.225,7.266,282.059c-88.746,202.287-391.191,253.374-616.333,262.405
						c-225.323-0.479-529.493-40.049-625.873-238.821c-43.736-90.239-35.355-188.562-3.472-282.131
						C1396.144,1056.166,1509.714,599.485,2021.459,589.769z"/>
				</g>
				<g>
					<path style="fill:#FECF1F;" d="M2663.128,1657.529c-88.749,202.252-391.228,253.376-616.357,262.39
						c-225.31-0.462-529.474-40.068-625.855-238.806c-43.754-90.268-35.378-188.571-3.48-282.162
						c-0.968-15.5-1.644-31.215-2.032-47.188c-2.064-84.139,4.302-173.344,22.642-259.968
						c54.909-259.196,217.223-495.056,583.409-502.009c365.136-6.932,537.126,223.714,602.17,479.374
						c0.001,0.042,0.001,0.042,0.001,0.042c21.924,86.236,31.726,175.345,32.605,259.086c0.177,15.935,0.015,31.666-0.404,47.151
						C2691.264,1467.752,2703.374,1565.666,2663.128,1657.529z"/>
				</g>
				<g>
					<path style="fill:#FECF1F;" d="M2663.14,1657.517c-88.748,202.252-391.227,253.376-616.357,262.39
						c-225.309-0.462-529.473-40.068-625.854-238.806c-43.755-90.268-35.379-188.571-3.481-282.162
						c-0.967-15.5-1.644-31.216-2.032-47.188c-2.063-84.139,4.302-173.344,22.643-259.968
						c25.392-119.933,73.849-234.936,154.873-324.51c93.936-103.955,231.82-173.763,428.535-177.498
						c196.253-3.726,336.701,61.176,434.697,161.696c84.459,86.517,137.422,199.426,167.473,317.677
						c0.001,0.042,0.001,0.042,0.001,0.042c21.925,86.236,31.726,175.345,32.606,259.086c0.177,15.935,0.014,31.666-0.405,47.151
						C2691.276,1467.74,2703.386,1565.654,2663.14,1657.517z"/>
				</g>
				<g>
					<path style="fill:#FECF1F;" d="M2663.129,1657.512c-88.744,202.274-391.202,253.374-616.342,262.392
						c-225.32-0.466-529.459-40.05-625.836-238.809c-43.786-90.247-35.389-188.577-3.516-282.158
						c-0.973-15.477-1.635-31.232-2.029-47.172c-2.054-84.172,4.3-173.338,22.645-259.976
						c25.4-119.932,73.874-234.926,154.902-324.515c62.154-68.811,143.59-122.673,248.559-152.269
						c53.63-15.159,113.443-23.975,179.958-25.237c66.47-1.262,126.577,5.367,180.747,18.57
						c105.796,25.776,189.136,76.69,253.955,143.135c84.469,86.493,137.417,199.425,167.486,317.672
						c0.001,0.045,0.001,0.045,0.001,0.045c21.906,86.235,31.7,175.365,32.57,259.108c0.212,15.898,0.014,31.624-0.369,47.127
						C2691.271,1467.729,2703.404,1565.67,2663.129,1657.512z"/>
				</g>
				<g>
					<path style="fill:#FECF1F;" d="M2663.129,1657.512c-88.744,202.274-391.202,253.374-616.342,262.392
						c-225.32-0.466-529.459-40.05-625.836-238.809c-43.786-90.247-35.389-188.577-3.516-282.158
						c-0.973-15.477-1.635-31.232-2.029-47.172c-2.054-84.172,4.3-173.338,22.645-259.976
						c25.4-119.932,73.874-234.926,154.902-324.515c62.154-68.811,143.59-122.673,248.559-152.269
						c53.63-15.159,113.443-23.975,179.958-25.237c66.47-1.262,126.577,5.367,180.747,18.57
						c19.086,4.652,37.419,10.087,55.044,16.348c63.528,22.377,117.835,54.687,164.094,94.243
						c12.139,10.341,23.744,21.189,34.817,32.544c84.469,86.493,137.417,199.425,167.486,317.672
						c0.001,0.045,0.001,0.045,0.001,0.045c21.906,86.235,31.7,175.365,32.57,259.108c0.212,15.898,0.014,31.624-0.369,47.127
						C2691.271,1467.729,2703.404,1565.67,2663.129,1657.512z"/>
				</g>
				<g>
					<path style="fill:#D3691A;" d="M2202.218,608.338c-5.771,24.777-12.23,89.452-20.136,97.101
						c-25.539,24.745-119.697,49.483-157.454,50.2c-37.802,0.718-132.789-20.429-159.296-44.186
						c-8.191-7.344-17.154-71.862-23.819-96.447c53.63-15.159,113.443-23.975,179.958-25.237
						C2087.941,588.506,2148.048,595.135,2202.218,608.338z"/>
				</g>
				<g>
					<path style="fill:#D3691A;" d="M2421.356,718.929c-48.785,13.079-118,15.071-133.814,4.167
						c-13.978-9.538-28.206-58.376-30.28-98.409C2320.79,647.063,2375.098,679.373,2421.356,718.929z"/>
				</g>
				<g>
					<path style="fill:#D3691A;" d="M1625.707,734.035c49.248,11.218,118.489,10.581,133.876-0.915
						c13.605-10.062,25.965-59.405,26.513-99.488C1723.466,658.404,1670.427,692.752,1625.707,734.035z"/>
				</g>
				<g style="opacity:0.35;">
					<path style="fill:#FFFFFF;" d="M2624.534,1116.196c0,0,0,0-0.001-0.048c-30.04-118.22-82.993-231.189-167.481-317.665
						c-11.054-11.331-22.673-22.221-34.806-32.53c-46.257-39.561-100.54-71.865-164.088-94.264
						c-17.643-6.246-35.937-11.669-55.03-16.361c-54.206-13.182-114.303-19.814-180.744-18.553
						c-66.536,1.263-126.339,10.076-179.958,25.258c-105.006,29.605-186.441,83.465-248.588,152.266
						c-81.042,89.571-129.514,204.56-154.877,324.501c-16.253,76.752-23.112,155.425-22.964,230.912
						c-0.257-5.956-0.418-11.962-0.58-17.967c-2.079-84.13,4.292-173.332,22.65-259.948c25.363-119.94,73.835-234.93,154.877-324.5
						c62.146-68.849,143.581-122.709,248.587-152.314c53.619-15.134,113.422-23.947,179.958-25.21
						c66.44-1.261,126.538,5.371,180.744,18.553c19.092,4.645,37.387,10.115,55.03,16.361
						c63.549,22.399,117.832,54.702,164.088,94.264c12.133,10.308,23.751,21.152,34.806,32.53
						c84.489,86.476,137.44,199.397,167.481,317.665c0.001,0.048,0.001,0.048,0.001,0.048
						c21.934,86.233,31.699,175.367,32.577,259.09c0.042,4.72,0.084,9.441,0.078,14.162
						C2653.502,1268.486,2643.629,1191.276,2624.534,1116.196z"/>
				</g>
				<g>
					<path style="fill:#D3691A;" d="M1461.012,1320.949c-4.583,4.113-25.902,18.108-45.608,30.813
						c-2.064-84.139,4.302-173.344,22.642-259.968c22.375,41.475,47.614,90.026,51.564,105.638
						C1493.471,1212.668,1470.014,1312.935,1461.012,1320.949z"/>
				</g>
				<g>
					<path style="fill:#D3691A;" d="M2656.231,1328.288c-20.217-11.947-42.18-25.203-46.959-29.139
						c-9.259-7.667-36.513-106.972-33.236-122.343c3.354-15.75,26.767-65.309,47.59-107.604
						C2645.55,1155.438,2655.352,1244.547,2656.231,1328.288z"/>
				</g>
				<g>
					<path style="fill:#FFFFFF;" d="M1413.499,1321.861c0.867,26.223,2.255,52.028,3.916,77.095
						c-0.581,1.681-1.159,3.404-1.657,5.084C1414.428,1377.133,1413.62,1349.646,1413.499,1321.861z"/>
				</g>
				<g>
					<path style="fill:#FFFFFF;" d="M2657.68,1380.461c-0.562-1.66-1.206-3.359-1.849-5.017c0.704-25.152,1.11-50.992,0.978-77.27
						C2657.745,1325.985,2657.983,1353.524,2657.68,1380.461z"/>
				</g>
				<g>
					<path style="fill:#FFFFFF;" d="M1415.907,1404.264c0.665,13.734,1.49,27.345,2.39,40.712
						c-3.554,10.468-6.825,21.012-9.773,31.55c-9.106,32.625-14.976,65.714-16.489,98.598c-4.181-47.934,2.276-96.716,15.613-144.62
						c2.494-8.957,5.269-17.959,8.247-26.885L1415.907,1404.264z"/>
				</g>
				<g>
					<path style="fill:#FFFFFF;" d="M2687.908,1550.682c-2.509-30.027-8.691-60.024-17.61-89.606
						c-4.007-13.308-8.578-26.525-13.59-39.612c0.387-13.593,0.69-27.386,0.828-41.378c4.377,11.568,8.353,23.223,11.886,34.968
						C2682.908,1459.789,2690.115,1505.448,2687.908,1550.682z"/>
				</g>
				<g>
					<path style="fill:#FFFFFF;" d="M1415.032,1358.242c0.665,13.734,1.49,27.345,2.39,40.712c-0.535,1.542-1.031,3.124-1.526,4.665
						c-1.421-28.031-2.33-56.718-2.48-85.781C1413.795,1331.416,1414.375,1344.91,1415.032,1358.242z"/>
				</g>
				<g>
					<path style="fill:#FFFFFF;" d="M2657.537,1380.086c-0.515-1.563-1.108-3.083-1.704-4.644
						c0.754-26.138,1.172-52.954,0.975-80.283C2657.717,1323.885,2657.896,1352.303,2657.537,1380.086z"/>
				</g>
				<g>
					<path style="fill:#FFF3E9;" d="M2663.108,1657.514c-88.745,202.286-391.191,253.382-616.332,262.413
						c-225.323-0.479-529.493-40.058-625.873-238.829c-38.862-80.132-36.593-166.648-13.245-250.581
						c41.071-45.568,279.49-169.222,622.182-175.608c342.687-6.627,585.64,107.888,628.374,151.865
						c3.088,3.166,6.894,5.916,11.218,8.293C2693.647,1495.438,2697.653,1578.73,2663.108,1657.514z"/>
				</g>
				<g>
					<path style="fill:#FFB6B8;" d="M2658.615,1553.891c-3.413,26.467-10.378,52.757-21.678,78.518
						c-85.078,193.927-375.056,242.907-590.859,251.567c-215.979-0.463-507.569-38.401-599.965-228.959
						c-12.272-25.313-20.232-51.279-24.65-77.638c99.115,194.138,399.749,224.978,623.071,225.464
						C2267.674,1793.881,2566.959,1751.651,2658.615,1553.891z"/>
				</g>
				<g>
					<path style="fill:#F9D3B7;" d="M2658.615,1553.891c-3.413,26.467-10.378,52.757-21.678,78.518
						c-85.078,193.927-375.056,242.907-590.859,251.567c-215.979-0.463-507.569-38.401-599.965-228.959
						c-12.272-25.313-20.232-51.279-24.65-77.638c99.115,194.138,399.749,224.978,623.071,225.464
						C2267.674,1793.881,2566.959,1751.651,2658.615,1553.891z"/>
				</g>
				<g>
					<path style="fill:#512717;" d="M2046.776,1935.08c-0.01,0-0.024,0-0.034,0c-237.261-0.505-540.806-43.829-639.502-247.374
						c-40.303-83.155-41.992-181.085-5.029-291.106c-8.55-529.914,199.595-806.458,618.687-821.98
						c0.088-0.005,0.181-0.007,0.273-0.01c182.979-3.472,331.953,51.376,442.666,163.026
						c196.23,197.88,210.562,507.832,207.261,635.231c40.991,108.392,42.983,206.195,5.918,290.728
						c-90.879,207.143-392.554,261.96-629.629,271.472C2047.181,1935.075,2046.976,1935.08,2046.776,1935.08z M2021.883,604.927
						c-221.733,8.242-382.7,93.357-478.457,252.982c-77.544,129.257-114.824,311.205-110.82,540.796
						c0.034,1.748-0.239,3.492-0.806,5.147c-35.171,103.23-34.243,194.286,2.764,270.641
						c91.811,189.343,383.369,229.74,611.919,230.264c228.369-9.2,518.184-60.635,602.725-253.326
						c34.072-77.708,31.538-168.734-7.539-270.551c-0.718-1.868-1.055-3.86-1.001-5.859
						c3.491-121.555-8.862-424.913-198.398-616.046C2337.65,653.472,2196.283,601.564,2021.883,604.927z"/>
				</g>
				<g>
					<path style="fill:none;stroke:#6B184E;stroke-width:33.0434;stroke-linecap:round;stroke-miterlimit:10;" d="M2515.334,850.174
						"/>
				</g>
				<g>
					<path style="fill:#512717;" d="M2130.546,1358.726c-10.765-19.374,11.01-74.374,32.455-55.087
						C2192.507,1330.174,2168.812,1386.8,2130.546,1358.726z"/>
				</g>
				<g>
					<path style="fill:#512717;" d="M1927.959,1362.572c10.02-19.768-13.832-73.902-34.528-53.816
						C1864.956,1336.393,1890.789,1392.078,1927.959,1362.572z"/>
				</g>
				<g>
					<g>
						<path style="fill:#371A45;" d="M2039.449,1757.662c-125.623,2.414-205.7-111.902-193.194-178.577
							c10.976-58.479,89.068-8.453,189.589-8.537c100.45-3.778,176.589-56.769,189.777,1.246
							C2240.686,1637.939,2165.072,1755.247,2039.449,1757.662z"/>
					</g>
					<g>
						<path style="fill:#371A45;" d="M2175.137,1699.514c-32.589,32.628-79.056,57.065-135.688,58.154
							c-56.631,1.088-104.006-21.545-137.792-52.828c-41.21-38.114-62.275-89.146-55.411-125.768
							c10.971-58.449,89.083-8.444,189.597-8.512c100.442-3.794,176.605-56.765,189.785,1.22
							C2233.899,1608.11,2214.814,1659.88,2175.137,1699.514z"/>
					</g>
					<g>
						<path style="fill:#512717;" d="M2175.137,1699.514c-32.589,32.628-79.056,57.065-135.688,58.154
							c-56.631,1.088-104.006-21.545-137.792-52.828c-41.21-38.114-62.275-89.146-55.411-125.768
							c6.803-36.172,39.295-30.789,86.932-21.452c29.352,5.719,64.367,12.952,102.665,12.94c38.27-1.46,72.98-10.033,102.09-16.875
							c47.243-11.161,79.537-17.788,87.694,18.096C2233.899,1608.11,2214.814,1659.88,2175.137,1699.514z"/>
					</g>
					<g>
						<path style="fill:#FFFFFF;" d="M2137.934,1553.684c-4.259,21.106-23.186,55.957-101.308,57.458
							c-78.122,1.501-98.378-32.597-103.447-53.523c29.352,5.719,64.367,12.952,102.665,12.94
							C2074.114,1569.099,2108.824,1560.526,2137.934,1553.684z"/>
					</g>
					<g>
						<path style="fill:#F27E80;" d="M2175.137,1699.514c-32.589,32.628-79.056,57.065-135.688,58.154
							c-56.631,1.088-104.006-21.545-137.792-52.828c-2.803-34.261,15.395-81.871,136.436-17.536
							C2156.5,1618.435,2176.583,1665.172,2175.137,1699.514z"/>
					</g>
					<g>
						<path style="fill:#512717;" d="M2035.653,1770.33c-61.729,0-120.088-27.219-160.659-75.087
							c-32.017-37.78-47.798-83.18-41.172-118.485c2.603-13.869,8.75-24.169,18.276-30.618c19.878-13.448,49.736-7.581,87.52-0.159
							c28.467,5.594,60.728,11.933,95.967,11.933c0.083,0,0.166,0,0.249,0c34.844-1.322,66.919-8.915,95.22-15.613
							c37.485-8.878,67.1-15.886,87.476-3.202c9.766,6.081,16.304,16.14,19.429,29.897c7.978,35.02-6.04,80.992-36.577,119.972
							c-39.536,50.464-98.477,80.105-161.685,81.322l0,0C2038.348,1770.318,2036.995,1770.33,2035.653,1770.33z M1883.436,1563.316
							c-7.314,0-13.198,1.07-17.144,3.743c-2.417,1.634-5.83,4.901-7.607,14.354c-5.176,27.595,8.809,65.867,35.62,97.503
							c36.514,43.083,89.292,67.047,144.902,66.114l0,0c55.571-1.068,107.422-27.178,142.246-71.632
							c25.576-32.642,38.071-71.424,31.836-98.802c-2.134-9.378-5.669-12.511-8.144-14.05c-11.411-7.12-37.764-0.878-68.257,6.345
							c-27.974,6.62-62.783,14.862-100.566,16.283c-0.112,0-0.23,0-0.342,0c-38.149,0-73.125-6.874-101.245-12.399
							C1914.881,1566.874,1896.776,1563.316,1883.436,1563.316z"/>
					</g>
				</g>
				<g>
					<path style="fill:#512717;" d="M2337.031,913.2c9.754-9.493-22.465-57.224-69.07-63.237
						c-32.532-4.198-78.874,12.928-77.615,52.161c0.846,26.369,32.099,28.12,63.301,24.047
						C2294.332,920.861,2327.266,922.703,2337.031,913.2z"/>
				</g>
				<g>
					<path style="fill:#512717;" d="M1681.159,930.593c-10.342-8.849,18.749-58.544,64.873-67.526
						c32.197-6.27,79.541,7.856,80.8,47.088c0.847,26.369-30.23,30.116-61.628,28.048
						C1724.262,935.506,1691.513,939.452,1681.159,930.593z"/>
				</g>
				<g>
					<path style="fill:#512717;" d="M2172.327,1225.632c-19.546-45.212-1.883-99.469,30.876-134.549
						c50.194-55.701,144.137-58.35,195.684-3.898c26.395,27.362,42.057,61.969,45.547,99.086
						c-19.986-26.573-42.96-51.638-70.62-67.995c-36.209-22.192-80.76-18.977-116.907,0.332
						c-25.979,14.282-43.76,36.842-60.352,61.947C2187.822,1194.098,2179.768,1208.471,2172.327,1225.632L2172.327,1225.632z"/>
				</g>
				<g>
					<path style="fill:#512717;" d="M1869.141,1236.638c-8.528-16.65-17.488-30.478-27.07-43.435
						c-18.159-23.985-37.364-45.372-64.202-57.959c-37.318-16.956-81.968-17.314-116.687,7.149
						c-26.559,18.1-47.86,44.563-66.114,72.373c1.101-37.268,14.516-72.798,39.096-101.799
						c47.961-57.637,141.87-61.004,195.533-8.625C1864.646,1137.245,1885.746,1190.274,1869.141,1236.638L1869.141,1236.638z"/>
				</g>
			</g>
		</g>
		<g>
			<path style="fill:#512717;" d="M1692.508,3705.706c-72.119,0-147.432-22.574-168.545-86.913
				c-79.053,15.547-161.48,29.836-236.46,29.841c-56.006,0-101.748-7.871-139.844-24.062
				c-93.023-39.536-174.502-145.546-181.631-236.326c-2.969-37.795,7.676-69.825,30.781-92.633
				c27.324-26.973,69.522-38.828,125.518-35.283c121.216-55.58,302.134-167.662,359.692-217.375
				c12.3-111.009,60.723-214.707,107.583-315.07c15.273-32.708,31.064-66.533,45.01-99.495
				c93.218-208.538,144.751-429.536,153.306-657.184c0.669-12.387,1.196-25.176,1.597-38.882
				c-204.966-35.227-338.828-114.92-398.027-237.004c-42.012-86.679-44.307-188.071-6.821-301.425
				c-2.646-181.399,20.376-335.54,68.462-458.511c-90.376-48.304-164.18-146.34-182.153-243.997
				c-14.375-78.103,0.938-146.197,42.002-186.825c24.795-24.53,70.293-50.686,146.313-35.978
				c61.558,11.904,112.827,48.389,152.573,88.707l-5.039-19.097c-23.467-12.926-41.538-33.445-51.357-58.538
				c-11.162-28.541-10.527-59.708,1.777-87.764c12.305-28.058,34.814-49.65,63.389-60.801c28.55-11.143,59.756-10.519,87.866,1.773
				c28.096,12.294,49.717,34.776,60.879,63.31c12.749,32.577,9.858,68.767-7.466,98.839l50.83,95.776
				c62.422-19.539,132.144-30.848,207.505-33.64c0.107-0.005,0.483-0.017,0.591-0.02c75.205-1.404,145.571,6.932,209.634,24.844
				l46.68-96.661c-2.231-3.548-4.258-7.201-6.069-10.929c-13.369-27.58-15.186-58.701-5.112-87.637
				c10.068-28.938,30.815-52.227,58.418-65.575c27.607-13.348,58.77-15.159,87.739-5.106c28.975,10.056,52.295,30.779,65.659,58.352
				c13.369,27.566,15.185,58.686,5.112,87.627c-8.853,25.432-26.128,46.616-49.092,60.43l-4.316,19.326
				c38.188-41.813,88.042-80.232,149.121-94.469c75.429-17.583,121.88,6.832,147.583,30.401
				c42.583,39.038,60.469,106.503,49.077,185.091c-14.16,97.695-83.687,198.146-171.563,250.039
				c78.608,171.595,87.241,357.668,84.966,457.041c41.484,111.535,42.959,212.688,4.37,300.696
				c-56.113,127.894-192.778,213.825-406.328,255.54c0.415,15.918,0.996,30.675,1.763,44.778
				c8.574,227.928,60.107,448.931,153.184,657.147c13.374,31.196,28.145,62.944,42.432,93.643
				c32.475,69.795,65.713,141.22,87.656,215.531c1.035-26.763,8.262-49.396,21.553-67.499c-1.631-26.607,4.36-71.844,49.678-119.148
				c12.593-13.148,23.809-20.975,31.23-26.154c3.242-2.263,6.797-4.735,7.593-5.681c-0.19,0.171,0.293-1.068,0.747-5.794
				c1.592-16.595,15.371-29.529,32.056-30.08c24.15-0.897,44.775,10.256,55.62,29.802c119.746,15.879,170.659,89.054,174.741,113.11
				c2.593,15.24-5.542,30.119-19.78,36.185c-10.669,4.462-19.932,9.012-28.047,13.777c1.812,8.827,0.654,16.522-1.089,22.199
				c-4.253,13.835-16.831,23.281-31.304,23.521c-20.596,0.332-35.996,10.192-50.894,19.726l-4.956,3.155
				c-37.827,23.818-74.146,28.807-97.964,28.807c-6.191,0-12.236-0.336-18.115-1.005c2.549,27.402,5.425,58.457-2.139,95.594
				c-2.524,12.416-6.079,24.344-10.605,35.62c74.448,49.24,187.7,116.28,276.44,156.952c55.957-3.58,98.169,8.295,125.522,35.283
				l0,0c23.106,22.809,33.75,54.839,30.781,92.633c-7.129,90.78-88.608,196.79-181.631,236.326
				c-38.091,16.191-83.833,24.062-139.844,24.062c-73.94,0-156.382-14.196-229.868-28.543
				c-25.327,73.687-122.588,91.755-202.661,83.914c-62.744-6.281-115.156-29.353-151.602-66.713
				c-0.225-0.229-0.444-0.468-0.654-0.707c-6.86-7.856-13.13-16.313-18.989-25.627c-2.568,0.371-5.107,0.731-7.593,1.083
				c-5.483,0.78-10.679,1.517-15.249,2.219c-11.987,1.619-27.075,2.843-41.67,4.028c-7.642,0.619-14.966,1.214-21.157,1.814
				c-0.396,0.039-0.786,0.063-1.182,0.073l-61.997,1.824c-0.352,0.01-0.684,0.01-1.035,0l-61.997-1.824
				c-0.434-0.01-0.864-0.039-1.294-0.083c-6.777-0.702-14.898-1.346-23.296-2.014c-13.77-1.092-28.013-2.224-39.18-3.78
				c-4.395-0.692-9.116-1.37-14.067-2.077c-5.732,9.037-11.909,17.166-18.726,24.642c-0.132,0.141-0.268,0.288-0.405,0.429
				c-36.441,37.361-88.848,60.427-151.558,66.708C1715.863,3705.111,1704.227,3705.706,1692.508,3705.706z M1537.015,3580.911
				c3.555,0,7.051,1.083,10.01,3.141c3.911,2.726,6.538,6.92,7.275,11.621c13.584,86.308,153.477,75.101,169.404,73.541
				c37.842-3.789,91.069-16.605,129.741-56.102c7.422-8.178,13.97-17.449,20.025-28.329c3.525-6.344,10.586-9.861,17.803-8.812
				l8.452,1.209c6.25,0.888,12.188,1.731,17.334,2.536c9.844,1.371,23.555,2.463,36.821,3.516
				c8.432,0.668,16.592,1.322,23.481,2.019l60.845,1.79l60.898-1.79c6.226-0.595,13.521-1.19,21.118-1.804
				c14.141-1.151,28.765-2.336,39.507-3.784c4.365-0.673,9.697-1.429,15.317-2.229c6.108-0.868,12.568-1.785,18.921-2.76
				c7.217-1.107,14.365,2.375,17.935,8.739c6.328,11.299,13.11,21.058,20.718,29.826c38.667,39.399,91.816,52.191,129.648,55.98
				c15.708,1.531,154.492,12.621,169.136-72.429c0.801-4.647,3.442-8.773,7.334-11.441c3.892-2.668,8.701-3.653,13.32-2.741
				c75.786,15.03,163.027,31.07,239.287,31.07c51.206,0,92.466-6.959,126.143-21.272c82.256-34.957,154.229-127.765,160.439-206.89
				c2.139-27.207-4.946-49.699-20.488-65.041l0,0c-20.547-20.273-55.098-28.675-102.773-24.974
				c-2.983,0.229-5.908-0.293-8.589-1.507c-96.123-43.549-221.758-118.548-297.807-169.797c-7.285-4.911-9.795-14.455-5.86-22.306
				c6.274-12.533,10.977-26.359,13.975-41.096c6.543-32.138,3.902-60.501,1.573-85.523c-0.84-9.041-1.514-16.547-1.885-23.935
				c-0.283-5.686,2.222-11.153,6.719-14.655c4.502-3.501,10.425-4.599,15.874-2.936c9.58,2.921,20.737,4.467,32.271,4.467
				c27.148,0,55.283-8.3,79.224-23.374l4.839-3.082c16.958-10.855,38.032-24.344,67.881-25.203c0.376-1.97,0.273-4.809-2.1-8.725
				c-4.741-7.827-2.642-17.976,4.814-23.281c12.246-8.719,26.714-16.586,44.18-24.008c-5.62-11.329-40.972-71.966-150.957-84.021
				c-5.459-0.6-10.317-3.721-13.13-8.437c-2.168-1.726-3.97-4.019-5.112-6.545c-4.009-8.841-12.261-13.684-23.335-13.733
				c-2.217,19.99-9.106,25.622-22.9,35.234c-7.114,4.965-15.869,11.075-26.064,21.721c-39.922,41.676-41.909,79.388-39.541,98.163
				c0.615,4.896-0.869,9.827-4.087,13.572c-12.686,14.752-18.73,35.61-17.964,61.998c1.147,39.067-3.77,73.829-14.214,100.524
				c-2.925,7.471-10.547,12.006-18.521,10.978c-7.964-1.019-14.214-7.315-15.156-15.279
				c-12.671-106.771-60.337-209.206-106.436-308.272c-14.399-30.938-29.287-62.929-42.764-94.369
				c-94.8-212.074-147.349-437.427-156.074-669.554c-1.006-18.483-1.704-38.353-2.129-60.457
				c-0.166-8.563,5.908-15.986,14.341-17.529c209.839-38.387,342.822-118.448,395.254-237.957
				c35.166-80.193,33.062-173.57-6.26-277.534c-0.801-2.117-1.182-4.367-1.123-6.627c2.544-98.149-5.566-288.329-88.452-459.287
				c-4.131-8.529-0.713-18.792,7.715-23.145c85.356-44.061,154.341-139.533,167.769-232.166
				c9.712-66.974-4.179-123.227-38.11-154.331c-19.487-17.876-55.43-36.227-115.957-22.111
				c-84.883,19.785-147.115,97.971-176.651,142.815c-4.648,7.052-13.677,9.778-21.445,6.489
				c-7.779-3.292-12.095-11.665-10.254-19.899l23.145-103.574c1.138-5.099,4.502-9.419,9.165-11.782
				c18.555-9.4,32.52-25.327,39.316-44.851c6.997-20.119,5.737-41.754-3.559-60.918c-9.292-19.17-25.498-33.576-45.64-40.567
				c-20.151-6.991-41.812-5.733-61.001,3.548s-33.613,25.469-40.615,45.588c-6.997,20.119-5.737,41.754,3.555,60.92
				c2.358,4.862,5.269,9.558,8.643,13.95c4.023,5.235,4.751,12.289,1.88,18.234l-57.554,119.187
				c-3.75,7.776-12.632,11.643-20.903,9.115c-64.316-19.741-136.055-29.024-213.144-27.546
				c-77.691,2.882-148.931,15.14-211.699,36.434c-8.11,2.746-17.066-0.78-21.094-8.364l-62.495-117.763
				c-3.096-5.833-2.637-12.909,1.187-18.293c15.664-22.07,19.17-50.181,9.38-75.199c-7.764-19.836-22.793-35.468-42.324-44.012
				c-19.536-8.551-41.23-8.983-61.084-1.234c-19.863,7.751-35.513,22.762-44.067,42.269c-8.56,19.507-8.999,41.174-1.24,61.013
				c7.544,19.266,22.1,34.659,40.996,43.339c4.751,2.182,8.276,6.374,9.609,11.426l27.056,102.55
				c2.153,8.159-1.841,16.688-9.487,20.275c-7.666,3.587-16.768,1.2-21.68-5.667c-31.221-43.673-96.377-119.411-181.924-135.956
				c-61.001-11.804-96.226,7.891-115.029,26.498c-32.715,32.367-44.458,89.105-32.207,155.667
				c17.021,92.509,89.961,185.466,177.373,226.053c8.511,3.953,12.388,13.908,8.779,22.565
				c-50.664,121.574-74.834,277.227-71.841,462.63c0.029,1.985-0.278,3.962-0.908,5.842
				c-35.459,105.535-34.048,199.043,4.189,277.931c55.352,114.157,185.61,188.249,387.149,220.213
				c8.643,1.37,14.941,8.905,14.751,17.642c-0.435,19.997-1.094,37.943-2.012,54.865c-8.711,231.839-61.26,457.192-156.167,669.51
				c-14.053,33.23-29.985,67.347-45.391,100.343c-46.572,99.748-94.736,202.896-105.181,310.53
				c-0.415,4.287-2.402,8.271-5.576,11.182c-54.946,50.42-248.018,170.826-377.798,229.62c-2.681,1.214-5.644,1.741-8.579,1.507
				c-47.671-3.662-82.256,4.711-102.773,24.974c-15.547,15.342-22.632,37.833-20.493,65.041
				c6.211,79.125,78.189,171.933,160.44,206.89c33.677,14.313,74.941,21.272,126.143,21.272
				c77.017-0.005,163.799-16.025,246.084-32.43C1534.725,3581.023,1535.872,3580.911,1537.015,3580.911z"/>
		</g>
	</g>
</g>
</svg>
