<?xml version="1.0" encoding="utf-8"?>
<!-- Generator: Adobe Illustrator 27.5.0, SVG Export Plug-In . SVG Version: 6.00 Build 0)  -->
<svg version="1.1" id="Layer_1" xmlns="http://www.w3.org/2000/svg" xmlns:xlink="http://www.w3.org/1999/xlink" x="0px" y="0px"
	 viewBox="0 0 4000 4000" style="enable-background:new 0 0 4000 4000;" xml:space="preserve">
<g>
	<g>
		<!-- <rect style="fill:#CCEEFF;" width="4000" height="4000"/> -->
	</g>
	<g>
		<g>
			<g>
				<polygon style="fill:#FC2B4A;" points="2555.975,852.284 2540.104,1160.79 2525.756,1440.324 1366.563,1622.189 
					1346.078,1239.82 1342.111,1165.496 1329.7,933.436 1332.33,933.252 				"/>
				<path style="fill:#000072;" d="M1364.214,1625.087l-0.146-2.769l-36.992-691.204l5.078-0.356l1226.465-81.155l-30.469,592.876
					L1364.214,1625.087z M1332.329,935.759l36.582,683.528l1154.453-181.118l29.971-583.203L1332.329,935.759z"/>
			</g>
			<g style="opacity:0.2;">
				<polygon style="fill:#000072;" points="2555.975,852.284 2540.104,1160.79 2525.756,1440.324 1366.563,1622.189 
					1346.078,1239.82 1342.111,1165.496 1329.7,933.436 1332.33,933.252 				"/>
			</g>
			<g>
				<polygon style="fill:#FC2B4A;" points="2555.975,852.284 2540.104,1160.79 1346.078,1239.82 1345.248,1239.866 
					1342.111,1165.496 1332.33,933.252 				"/>
				<path style="fill:#000072;" d="M1342.856,1242.494l-13.13-311.577l1228.892-81.313l-16.133,313.535L1342.856,1242.494z
					 M1334.932,935.585l12.71,301.628l1190.078-78.772l15.615-303.477L1334.932,935.585z"/>
			</g>
			<g>
				<polygon style="fill:#FC2B4A;" points="2555.975,852.284 2540.104,1160.79 1346.078,1239.82 1345.248,1239.866 
					1342.111,1165.496 1332.33,933.252 				"/>
				<path style="fill:#000072;" d="M1342.856,1242.494l-13.13-311.577l1228.892-81.313l-16.133,313.535L1342.856,1242.494z
					 M1334.932,935.585l12.71,301.628l1190.078-78.772l15.615-303.477L1334.932,935.585z"/>
			</g>
			<g style="opacity:0.6;">
				<polygon style="fill:#FFFFFF;" points="2555.975,852.284 2553.99,890.622 1333.945,971.359 1332.33,933.252 				"/>
			</g>
			<g>
				<path style="fill:#000072;" d="M1329.683,949.589c-8.433,0-15.532-6.545-16.099-15.081c-0.586-8.899,6.147-16.589,15.049-17.178
					l1226.26-81.162c8.843-0.547,16.587,6.15,17.178,15.046c0.586,8.899-6.147,16.589-15.049,17.18l-1226.26,81.157
					C1330.4,949.577,1330.039,949.589,1329.683,949.589z"/>
			</g>
			<g>
				<path style="fill:#000072;" d="M1345.21,1253.7c-7.227,0-13.311-5.61-13.794-12.927c-0.508-7.627,5.269-14.219,12.896-14.724
					l1226.26-81.16c7.515-0.515,14.219,5.271,14.722,12.898c0.508,7.627-5.269,14.219-12.896,14.724l-1226.26,81.16
					C1345.83,1253.691,1345.518,1253.7,1345.21,1253.7z"/>
			</g>
			<g>
				<polygon style="fill:#FC2B4A;" points="1349.617,1764.042 1183.757,1772.047 1361.821,1657.446 				"/>
				<path style="fill:#000072;" d="M1174.556,1774.99l190.352-122.5l-13.047,113.945L1174.556,1774.99z M1358.735,1662.402
					l-165.781,106.699l154.424-7.451L1358.735,1662.402z"/>
			</g>
			<g>
				<g>
					<path style="fill:#08C6F2;" d="M2783.816,814.191l-104.822,624.002c-6.122,36.444-69.137,56.219-140.751,44.189
						c-71.614-12.03-124.708-51.31-118.586-87.754l104.822-624.002c6.122-36.444,69.137-56.22,140.751-44.19
						C2736.843,738.467,2789.938,777.748,2783.816,814.191z"/>
				</g>
				<g>
					<path style="fill:#FFFFFF;" d="M2756.55,976.591c-6.121,36.435-69.137,56.219-140.751,44.19
						c-71.614-12.03-124.707-51.319-118.586-87.754l-16.138,96.068c-6.12,36.435,46.972,75.724,118.586,87.754
						c71.614,12.03,134.63-7.754,140.751-44.19"/>
				</g>
				<g style="opacity:0.3;">
					<path style="fill:#000072;" d="M2576.252,1485.867c-12.181-0.175-24.952-1.291-38.01-3.485
						c-71.614-12.03-124.708-51.31-118.586-87.754l104.822-624.002c6.122-36.444,69.137-56.22,140.751-44.19
						c13.058,2.193,25.492,5.312,37.062,9.126c-54.699-0.768-97.735,17.873-102.741,47.674l-104.822,624.002
						C2489.722,1437.041,2524.305,1468.72,2576.252,1485.867z"/>
				</g>
				<g style="opacity:0.6;">
					<path style="fill:#FFFFFF;" d="M2783.816,814.191l-104.822,624.002c-6.122,36.444-69.137,56.219-140.751,44.189
						c-5.141-0.864-10.169-1.849-15.074-3c65.112,7.009,119.792-12.437,125.478-46.287l104.822-624.002
						c5.686-33.851-39.638-70.094-103.467-84.746c5.013,0.515,10.086,1.227,15.227,2.09
						C2736.843,738.467,2789.938,777.748,2783.816,814.191z"/>
				</g>
				<g>
					<path style="fill:#000072;" d="M2579.316,1499.745c-13.843,0-28.403-1.199-43.369-3.713
						c-36.743-6.172-70.264-19.399-94.38-37.244c-26.797-19.832-39.429-43.43-35.557-66.453l104.819-624.001
						c7.5-44.648,76.323-69.038,156.694-55.547c36.743,6.174,70.264,19.402,94.38,37.246c26.797,19.829,39.429,43.43,35.557,66.45
						l-104.819,624.002C2686.538,1476.821,2639.814,1499.745,2579.316,1499.745z M2623.76,736.716
						c-48.345,0-82.314,16.453-85.635,36.204l-104.819,624.001c-2.021,12.051,6.987,26.489,24.727,39.614
						c20.674,15.3,49.976,26.733,82.505,32.197c68.384,11.492,120.649-8.083,124.81-32.832l104.819-624.001l0,0
						c2.021-12.051-6.987-26.489-24.727-39.612c-20.679-15.3-49.976-26.736-82.505-32.2
						C2649.136,737.768,2635.986,736.716,2623.76,736.716z"/>
				</g>
				<g>
					<path style="fill:#000072;" d="M2657.104,1035.844c-13.994,0-28.54-1.223-43.213-3.689
						c-79.092-13.286-135.337-57.668-128.057-101.038c1.055-6.282,7.012-10.53,13.286-9.465c6.284,1.055,10.522,7.002,9.468,13.284
						c-4.341,25.825,39.409,62.759,109.121,74.47c32.871,5.518,64.683,4.263,89.57-3.55c21.909-6.88,35.723-18.242,37.891-31.174
						c1.055-6.282,7.026-10.532,13.286-9.465c6.284,1.055,10.522,7.002,9.468,13.284c-3.716,22.122-22.798,39.651-53.735,49.363
						C2697.31,1033.163,2677.817,1035.844,2657.104,1035.844z"/>
				</g>
				<g>
					<path style="fill:#000072;" d="M2640.972,1131.911c-13.994,0-28.545-1.223-43.218-3.689
						c-79.092-13.284-135.337-57.666-128.057-101.038c1.055-6.284,7.031-10.54,13.286-9.465c6.284,1.055,10.522,7.002,9.468,13.284
						c-4.341,25.825,39.409,62.761,109.121,74.47c32.886,5.525,64.692,4.26,89.57-3.55c21.909-6.877,35.723-18.242,37.891-31.174
						c1.055-6.284,7.026-10.542,13.286-9.465c6.284,1.055,10.522,7.002,9.468,13.284c-3.716,22.122-22.798,39.651-53.735,49.365
						C2681.172,1129.23,2661.68,1131.911,2640.972,1131.911z"/>
				</g>
				<g>
					<path style="fill:#08C6F2;" d="M2573.974,747.74l82.096-211.381c16.234-41.8,78.098-31.344,79.694,13.469l8.03,225.555
						c0.238,6.694-2.516,13.276-7.803,17.389c-38.101,29.64-134.295,25.017-161.12-27.362
						C2572.06,759.925,2571.742,753.485,2573.974,747.74z"/>
				</g>
				<g style="opacity:0.3;">
					<path style="fill:#000072;" d="M2718.3,802.624c-44.476,17.744-120.128,8.311-143.453-37.197
						c-2.769-5.517-3.094-11.934-0.865-17.688l82.101-211.368c9.824-25.343,36.447-31.49,56.2-22.371
						c-3.577,3.749-6.556,8.395-8.71,13.975l-82.101,211.368c-2.23,5.754-1.904,12.171,0.865,17.688
						C2638.475,788.513,2679.732,802.742,2718.3,802.624z"/>
				</g>
				<g style="opacity:0.6;">
					<path style="fill:#FFFFFF;" d="M2735.999,792.779c-30.885,24.004-100.005,25.538-139.325-2.727
						c38.12,11.737,84.825,6.624,108.718-11.958c5.276-4.119,8.068-10.714,7.834-17.397l-8.054-225.53
						c-0.389-10.217-3.882-18.664-9.259-25.087c19.757,0.746,38.973,15.015,39.867,39.772l8.009,225.523
						C2744.022,782.057,2741.276,788.66,2735.999,792.779z"/>
				</g>
				<g>
					<path style="fill:#000072;" d="M2670.61,824.931c-11.943,0.003-24.155-1.277-36.084-3.921
						c-33.999-7.537-59.556-25.042-71.978-49.289c-4.604-8.992-5.142-19.558-1.475-28.992v0.002l82.095-211.382
						c9.727-25.046,34.053-38.865,60.547-34.382c26.489,4.48,44.922,25.525,45.879,52.371l8.032,225.552
						c0.405,11.318-4.507,22.087-13.135,28.804C2726.836,817.431,2699.531,824.931,2670.61,824.931z M2694.263,523.859
						c-9.38,0-20.225,4.461-25.293,17.512l-82.095,211.379v0.003c-0.806,2.073-0.688,4.39,0.313,6.353
						c11.592,22.632,38.389,31.567,53.33,34.878c32.178,7.131,68.765,2.034,86.973-12.134c1.611-1.253,2.559-3.543,2.471-5.974
						l-8.032-225.554c-0.586-16.484-12.661-24.341-22.827-26.059C2697.563,524.001,2695.938,523.859,2694.263,523.859z
						 M2573.975,747.741h0.049H2573.975z"/>
				</g>
				<g>
					<path style="fill:#000072;" d="M2682.93,881.755c-13.77,0-28.262-1.194-43.169-3.699
						c-36.396-6.116-69.565-19.192-93.394-36.826c-26.064-19.287-38.374-42.09-34.653-64.214c1.05-6.282,7.012-10.505,13.281-9.463
						c6.284,1.055,10.522,7.004,9.463,13.286c-2.173,12.935,7.168,28.188,25.63,41.848c20.962,15.51,50.615,27.095,83.491,32.62
						c69.702,11.699,123.125-8.904,127.471-34.727c1.05-6.282,7.007-10.508,13.281-9.463c6.284,1.055,10.522,7.004,9.463,13.286
						C2787.881,859.599,2742.202,881.755,2682.93,881.755z"/>
				</g>
			</g>
			<g>
				<g>
					<path style="fill:#F75CB8;" d="M2332.007,780.862l143.223,616.322c8.365,35.995-42.198,78.485-112.931,94.922
						c-70.732,16.437-134.85,0.598-143.215-35.398l-143.223-616.322c-8.365-35.995,42.198-78.485,112.931-94.922
						C2259.524,729.027,2323.643,744.867,2332.007,780.862z"/>
					<path style="fill:#000072;" d="M2307.749,1501.12c-14.678,0-28.56-1.538-41.045-4.624
						c-28.008-6.921-45.781-20.85-50.054-39.221l-143.228-616.321c-4.268-18.372,5.547-38.713,27.632-57.275
						c21.626-18.176,52.588-32.612,87.173-40.647c34.585-8.039,68.74-8.73,96.162-1.958c28.008,6.921,45.781,20.852,50.054,39.221
						l143.223,616.323c8.657,37.273-42.837,81.199-114.8,97.922C2344.028,1498.92,2325.313,1501.12,2307.749,1501.12z
						 M2243.345,741.447c-17.178,0-35.503,2.158-53.984,6.453c-33.838,7.864-64.053,21.929-85.088,39.604
						c-20.571,17.292-29.8,35.871-25.977,52.317l143.228,616.321c3.818,16.445,20.293,29.053,46.382,35.5
						c26.68,6.592,60,5.891,93.828-1.97c69.277-16.101,119.097-57.336,111.06-91.921L2329.57,781.427
						c-3.818-16.445-20.293-29.053-46.382-35.498C2271.089,742.939,2257.612,741.447,2243.345,741.447z"/>
				</g>
				<g>
					<path style="fill:#FFFFFF;" d="M2369.296,941.257c8.363,35.987-42.198,78.485-112.931,94.922s-134.852,0.589-143.215-35.398
						l22.05,94.886c8.363,35.987,72.482,51.835,143.215,35.398c70.733-16.437,121.293-58.935,112.931-94.922"/>
				</g>
				<g style="opacity:0.3;">
					<path style="fill:#000072;" d="M2398.726,1480.705c-11.311,4.523-23.529,8.404-36.426,11.401
						c-70.732,16.437-134.85,0.598-143.215-35.398l-143.223-616.322c-8.365-35.995,42.198-78.485,112.931-94.922
						c12.897-2.997,25.574-4.901,37.721-5.829c-50.787,20.328-83.344,54.086-76.504,83.52l143.223,616.322
						C2300.073,1468.912,2344.179,1484.855,2398.726,1480.705z"/>
				</g>
				<g style="opacity:0.6;">
					<path style="fill:#FFFFFF;" d="M2332.007,780.862l143.223,616.322c8.365,35.995-42.198,78.485-112.931,94.922
						c-5.078,1.18-10.098,2.204-15.069,3.028c62.8-18.572,105.795-57.551,98.026-90.984l-143.224-616.322
						c-7.77-33.434-63.547-49.459-128.101-38.436c4.825-1.453,9.782-2.747,14.86-3.927
						C2259.524,729.027,2323.643,744.867,2332.007,780.862z"/>
				</g>
				<g>
					<path style="fill:#000072;" d="M2307.754,1512.45c-15.615,0-30.42-1.646-43.77-4.944
						c-32.363-7.998-53.096-24.927-58.379-47.666L2062.378,843.52c-5.283-22.739,5.859-47.075,31.382-68.523
						c22.969-19.304,55.605-34.58,91.899-43.013c36.304-8.438,72.324-9.114,101.45-1.919c32.363,7.998,53.096,24.924,58.379,47.664
						l143.223,616.323c10.249,44.097-43.901,93.088-123.276,111.536C2345.776,1510.156,2326.196,1512.45,2307.754,1512.45z
						 M2243.345,752.778c-16.294,0-33.75,2.063-51.416,6.169c-32.129,7.466-60.669,20.691-80.356,37.239
						c-16.895,14.199-24.995,29.167-22.231,41.069l143.228,616.321c2.764,11.902,16.636,21.765,38.057,27.058
						c24.976,6.167,56.421,5.454,88.54-2.009c67.529-15.693,108.262-53.865,102.583-78.308l-143.223-616.323
						c-2.764-11.899-16.636-21.763-38.057-27.056C2269.229,754.159,2256.675,752.778,2243.345,752.778z"/>
				</g>
				<g>
					<path style="fill:#000072;" d="M2202.002,1054.218c-52.397,0.002-92.661-18.875-100.088-50.825
						c-1.44-6.206,2.422-12.405,8.623-13.848c6.221-1.426,12.402,2.419,13.848,8.623c5.928,25.51,60.527,42.781,129.37,26.775
						c68.853-15.999,110.234-55.569,104.307-81.077c-1.44-6.206,2.422-12.402,8.628-13.845c6.191-1.433,12.402,2.422,13.843,8.626
						c9.951,42.839-43.442,90.615-121.553,108.767C2239.126,1052.026,2219.858,1054.218,2202.002,1054.218z"/>
				</g>
				<g>
					<path style="fill:#000072;" d="M2224.053,1149.103c-52.397,0.002-92.661-18.875-100.088-50.828
						c-1.44-6.204,2.422-12.402,8.623-13.845c6.221-1.423,12.402,2.419,13.848,8.625c5.928,25.503,60.527,42.778,129.365,26.772
						c68.857-15.999,110.239-55.569,104.312-81.077c-1.44-6.206,2.422-12.402,8.628-13.845c6.177-1.431,12.402,2.419,13.843,8.625
						c9.951,42.839-43.442,90.615-121.558,108.767C2261.172,1146.911,2241.904,1149.103,2224.053,1149.103z"/>
				</g>
				<g>
					<path style="fill:#F75CB8;" d="M2112.748,800.224l-5.513-226.696c-1.09-44.828,60.037-58.969,78.744-18.216l94.158,205.119
						c2.794,6.088,2.783,13.223-0.515,19.053c-23.771,42.014-114.345,74.741-159.251,36.707
						C2115.668,812.208,2112.898,806.385,2112.748,800.224z"/>
					<path style="fill:#000072;" d="M2172.061,835.505c-21.313,0-39.766-5.94-53.306-17.407c-5.234-4.434-8.335-10.925-8.506-17.813
						l-5.513-226.697c-0.596-24.631,16.587-39.695,33.882-43.696c17.3-3.992,39.351,1.985,49.634,24.377l94.155,205.12
						c3.213,7,2.983,14.971-0.605,21.326c-13.779,24.346-49.546,46.013-86.978,52.693
						C2186.958,834.811,2179.341,835.505,2172.061,835.505z M2115.249,800.163c0.132,5.462,2.588,10.608,6.738,14.121
						c17.002,14.402,42.549,19.448,71.958,14.202c36.069-6.435,70.41-27.092,83.501-50.232c2.808-4.963,2.964-11.235,0.42-16.78
						l-94.155-205.12c-9.731-21.199-29.775-24.868-43.965-21.592c-14.199,3.286-30.576,15.393-30.01,38.704L2115.249,800.163z"/>
				</g>
				<g style="opacity:0.3;">
					<path style="fill:#000072;" d="M2267.081,795.381c-34.231,33.484-107.692,53.871-146.725,20.834
						c-4.678-4.028-7.446-9.826-7.601-15.995l-5.503-226.686c-0.678-27.172,21.533-43.085,43.274-42.264
						c-1.86,4.837-2.823,10.271-2.666,16.25l5.503,226.686c0.155,6.169,2.923,11.967,7.601,15.995
						C2187.969,813.055,2231.525,810.323,2267.081,795.381z"/>
				</g>
				<g style="opacity:0.6;">
					<path style="fill:#FFFFFF;" d="M2279.634,779.487c-19.278,34.035-82.492,62.035-129.658,51.065
						c39.702-3.826,80.849-26.508,95.757-52.85c3.286-5.831,3.327-12.993,0.541-19.072l-94.171-205.087
						c-4.288-9.282-10.761-15.735-18.195-19.596c18.524-6.91,41.75-1.129,52.096,21.381l94.126,205.097
						C2282.916,766.503,2282.92,773.655,2279.634,779.487z"/>
				</g>
				<g>
					<path style="fill:#000072;" d="M2172.07,846.843c-24.019,0-45.024-6.86-60.645-20.09c-7.705-6.523-12.266-16.069-12.515-26.189
						v-0.002l-5.513-226.697c-0.649-26.855,16.494-48.965,42.666-55.02c26.162-6.06,51.284,6.274,62.495,30.693l94.155,205.12
						c4.727,10.298,4.336,22.124-1.04,31.638c-15.571,27.512-53.691,50.93-94.858,58.276
						C2188.291,846.093,2180.015,846.843,2172.07,846.843z M2126.587,799.885c0.054,2.227,1.05,4.321,2.729,5.745
						c19.399,16.433,47.573,14.38,62.637,11.692c32.456-5.791,64.263-24.57,75.625-44.653c1.001-1.772,0.996-4.251-0.02-6.465
						l-94.155-205.117c-6.88-14.983-21.04-17.598-31.099-15.273c-10.044,2.324-21.631,10.889-21.23,27.378l5.513,226.697V799.885z"
						/>
				</g>
				<g>
					<path style="fill:#000072;" d="M2166.436,902.021c-15.425,0-30.039-1.624-43.218-4.878
						c-31.475-7.781-51.606-24.099-56.685-45.95c-1.44-6.204,2.422-12.402,8.623-13.845c6.211-1.421,12.402,2.422,13.848,8.625
						c2.969,12.776,17.456,23.264,39.751,28.774c25.317,6.255,57.148,5.549,89.614-2.002c32.476-7.544,61.353-20.94,81.318-37.72
						c17.578-14.775,25.957-30.579,22.988-43.357c-1.44-6.204,2.422-12.402,8.623-13.845c6.226-1.428,12.402,2.419,13.848,8.626
						c5.078,21.851-5.796,45.373-30.62,66.235c-22.69,19.075-54.985,34.177-90.933,42.532
						C2204.102,899.745,2184.702,902.021,2166.436,902.021z"/>
				</g>
			</g>
			<g>
				<g>
					<path style="fill:#E0D1D1;" d="M2220.941,1336.331l-104.822,624.002c-6.122,36.444-69.137,56.219-140.751,44.19
						c-71.614-12.03-124.708-51.31-118.586-87.754l104.822-624.002c6.122-36.444,69.137-56.219,140.751-44.189
						C2173.968,1260.607,2227.063,1299.888,2220.941,1336.331z"/>
					<path style="fill:#000072;" d="M2016.191,2010.502c-13.184,0-27.051-1.133-41.24-3.516
						c-35.015-5.879-66.807-18.374-89.517-35.176c-23.188-17.163-34.243-36.855-31.118-55.459l104.819-623.999
						c3.125-18.599,20.005-33.604,47.534-42.244c26.953-8.459,61.069-9.875,96.099-3.997
						c72.856,12.236,126.973,52.896,120.64,90.635l-104.824,623.999C2113.477,1991.132,2070.698,2010.502,2016.191,2010.502z
						 M2060.977,1247.536c-19.243,0-37.266,2.466-52.808,7.344c-25.645,8.049-41.304,21.653-44.102,38.303l-104.819,623.999
						c-2.798,16.65,7.559,34.624,29.165,50.61c22.085,16.343,53.11,28.511,87.368,34.263
						c70.171,11.807,131.992-7.119,137.871-42.139l104.824-623.999c5.879-35.02-46.401-73.093-116.538-84.873
						C2087.993,1248.7,2074.194,1247.536,2060.977,1247.536z"/>
				</g>
				<g>
					<path style="fill:#000072;" d="M2078.047,1654.062c-13.765,0-28.267-1.196-43.169-3.701
						c-79.092-13.286-135.337-57.666-128.057-101.035l16.138-96.047c0-0.01,0-0.015,0-0.022l0.005-0.002
						c1.05-6.282,7.021-10.522,13.281-9.463c6.284,1.055,10.522,7.002,9.468,13.284c-4.341,25.825,39.409,62.759,109.121,74.473
						c69.707,11.699,123.125-8.901,127.471-34.729c1.05-6.282,7.007-10.525,13.281-9.463c6.284,1.055,10.522,7.004,9.463,13.286
						c-7.29,43.367-74.961,66.931-154.033,53.65c-50.112-8.418-91.055-29.316-112.476-54.536l-8.97,53.389
						c-4.336,25.825,39.414,62.759,109.126,74.473c69.702,11.694,123.125-8.901,127.471-34.727
						c1.05-6.284,7.007-10.562,13.281-9.463c6.284,1.055,10.522,7.002,9.463,13.281
						C2182.998,1631.908,2137.324,1654.062,2078.047,1654.062z"/>
				</g>
				<g style="opacity:0.3;">
					<path style="fill:#000072;" d="M2013.378,2008.007c-12.181-0.175-24.952-1.291-38.01-3.484
						c-71.614-12.03-124.708-51.31-118.586-87.754l104.822-624.002c6.122-36.444,69.137-56.219,140.751-44.189
						c13.058,2.193,25.492,5.312,37.062,9.126c-54.699-0.768-97.735,17.873-102.741,47.674l-104.822,624.002
						C1926.847,1959.181,1961.43,1990.86,2013.378,2008.007z"/>
				</g>
				<g style="opacity:0.6;">
					<path style="fill:#FFFFFF;" d="M2220.941,1336.331l-104.822,624.002c-6.122,36.444-69.137,56.219-140.751,44.19
						c-5.141-0.864-10.169-1.849-15.074-3.001c65.112,7.009,119.792-12.437,125.478-46.287l104.822-624.002
						c5.686-33.851-39.638-70.094-103.467-84.746c5.013,0.515,10.086,1.227,15.227,2.09
						C2173.968,1260.607,2227.063,1299.888,2220.941,1336.331z"/>
				</g>
				<g>
					<path style="fill:#000072;" d="M2016.44,2021.884c-13.843,0-28.403-1.201-43.369-3.716
						c-36.743-6.167-70.264-19.395-94.38-37.241c-26.797-19.829-39.429-43.428-35.557-66.455l104.819-623.997
						c3.867-23.025,23.516-41.201,55.322-51.187c28.623-8.984,64.614-10.532,101.372-4.36
						c80.361,13.499,137.437,59.045,129.941,103.696l0,0l-104.824,624.001C2123.662,1998.959,2076.938,2021.884,2016.44,2021.884z
						 M2060.933,1258.869c-18.062,0-34.907,2.292-49.37,6.831c-21.05,6.609-34.287,17.31-36.313,29.36l-104.819,624.001
						c-2.021,12.051,6.987,26.489,24.727,39.614c20.679,15.298,49.976,26.733,82.5,32.197
						c68.403,11.494,120.654-8.081,124.814-32.837l104.824-623.997c4.15-24.749-38.862-60.33-107.236-71.812
						C2086.699,1259.982,2073.521,1258.869,2060.933,1258.869z M2220.942,1336.332h0.049H2220.942z"/>
				</g>
				<g>
					<path style="fill:#000072;" d="M2094.185,1557.992c-13.77,0-28.262-1.191-43.169-3.701
						c-79.092-13.286-135.337-57.666-128.057-101.035c1.055-6.282,7.026-10.549,13.286-9.465c6.284,1.055,10.522,7.002,9.468,13.284
						c-4.341,25.825,39.409,62.759,109.121,74.473c69.707,11.699,123.125-8.901,127.471-34.729
						c1.05-6.282,7.007-10.525,13.281-9.463c6.284,1.055,10.522,7.004,9.463,13.286
						C2199.136,1535.834,2153.457,1557.992,2094.185,1557.992z"/>
				</g>
				<g>
					<path style="fill:#000072;" d="M2078.047,1654.062c-13.77,0-28.262-1.191-43.169-3.701
						c-79.092-13.286-135.337-57.666-128.057-101.035c1.055-6.284,7.021-10.513,13.286-9.468c6.284,1.06,10.522,7.007,9.468,13.286
						c-4.341,25.825,39.409,62.759,109.121,74.473c69.702,11.694,123.125-8.901,127.471-34.727
						c1.05-6.284,7.007-10.562,13.281-9.463c6.284,1.055,10.522,7.002,9.463,13.281
						C2182.998,1631.904,2137.319,1654.062,2078.047,1654.062z"/>
				</g>
				<g>
					<path style="fill:#E0D1D1;" d="M2011.099,1269.88l82.096-211.381c16.234-41.8,78.098-31.344,79.694,13.469l8.03,225.555
						c0.238,6.694-2.516,13.276-7.803,17.389c-38.101,29.64-134.295,25.017-161.12-27.362
						C2009.186,1282.065,2008.868,1275.625,2011.099,1269.88z"/>
					<path style="fill:#000072;" d="M2107.446,1335.671c-11.084,0-22.397-1.167-33.345-3.596
						c-30.635-6.792-53.481-22.2-64.331-43.384c-3.13-6.108-3.496-13.296-1.001-19.717l82.095-211.382
						c8.921-22.961,30.552-30.249,48.086-27.305c17.505,2.959,35.562,16.968,36.44,41.592l8.027,225.557
						c0.273,7.695-3.003,14.968-8.77,19.448C2159.087,1328.993,2133.936,1335.671,2107.446,1335.671z M2131.279,1034.65
						c-13.262,0-28.589,6.304-35.757,24.753l-82.095,211.382c-1.978,5.09-1.689,10.786,0.796,15.625
						c10.156,19.836,31.807,34.319,60.957,40.784c35.786,7.932,75.415,2.068,96.401-14.255c4.497-3.499,7.056-9.229,6.836-15.325
						l-8.027-225.559c-0.83-23.303-17.905-34.407-32.275-36.836C2135.942,1034.85,2133.643,1034.65,2131.279,1034.65z"/>
				</g>
				<g style="opacity:0.3;">
					<path style="fill:#000072;" d="M2155.425,1324.764c-44.476,17.744-120.128,8.311-143.453-37.197
						c-2.769-5.517-3.094-11.934-0.865-17.688l82.101-211.368c9.824-25.343,36.447-31.49,56.2-22.371
						c-3.577,3.75-6.556,8.395-8.71,13.975l-82.101,211.368c-2.23,5.754-1.904,12.171,0.865,17.688
						C2075.6,1310.653,2116.857,1324.882,2155.425,1324.764z"/>
				</g>
				<g style="opacity:0.6;">
					<path style="fill:#FFFFFF;" d="M2173.125,1314.92c-30.885,24.003-100.005,25.538-139.325-2.727
						c38.12,11.737,84.825,6.624,108.718-11.958c5.276-4.119,8.068-10.714,7.834-17.397l-8.054-225.53
						c-0.389-10.217-3.882-18.663-9.259-25.087c19.757,0.746,38.973,15.015,39.867,39.772l8.009,225.523
						C2181.148,1304.197,2178.401,1310.8,2173.125,1314.92z"/>
				</g>
				<g>
					<path style="fill:#000072;" d="M2107.734,1347.07c-11.938,0-24.16-1.277-36.089-3.923
						c-33.994-7.537-59.551-25.039-71.968-49.287c-4.604-8.984-5.146-19.553-1.479-28.992v0.002l82.095-211.382
						c9.722-25.042,34.004-38.865,60.547-34.382c26.484,4.478,44.927,25.522,45.884,52.368l8.027,225.557
						c0.405,11.326-4.507,22.097-13.14,28.809C2163.955,1339.572,2136.66,1347.07,2107.734,1347.07z M2131.392,1045.998
						c-9.385,0-20.229,4.46-25.298,17.512l-82.095,211.379v0.002c-0.806,2.073-0.688,4.385,0.313,6.345
						c11.592,22.637,38.384,31.572,53.325,34.885c32.183,7.139,68.774,2.036,86.978-12.134c1.616-1.255,2.559-3.54,2.471-5.972
						l-8.027-225.557c-0.586-16.487-12.666-24.341-22.832-26.06C2134.688,1046.139,2133.062,1045.998,2131.392,1045.998z
						 M2011.099,1269.88h0.049H2011.099z"/>
				</g>
				<g>
					<path style="fill:#000072;" d="M2120.059,1403.893c-13.774,0-28.267-1.194-43.174-3.699
						c-36.396-6.113-69.565-19.192-93.394-36.824c-26.064-19.287-38.374-42.092-34.653-64.216c1.05-6.282,7.026-10.522,13.281-9.463
						c6.284,1.055,10.522,7.004,9.463,13.286c-2.173,12.935,7.168,28.188,25.63,41.848c20.962,15.513,50.615,27.097,83.491,32.62
						c69.717,11.711,123.125-8.899,127.471-34.727c1.05-6.282,7.021-10.503,13.281-9.463c6.284,1.055,10.522,7.004,9.463,13.286
						C2225.005,1381.738,2179.326,1403.893,2120.059,1403.893z"/>
				</g>
			</g>
			<g>
				<g>
					<path style="fill:#FFB717;" d="M1980.989,1338.899L1876.167,1962.9c-6.122,36.444-69.137,56.219-140.751,44.19
						c-71.614-12.03-124.708-51.31-118.586-87.754l104.822-624.002c6.122-36.444,69.137-56.219,140.751-44.19
						C1934.016,1263.175,1987.111,1302.455,1980.989,1338.899z"/>
					<path style="fill:#000072;" d="M1776.24,2013.071c-13.184,0-27.051-1.133-41.24-3.516
						c-72.856-12.241-126.973-52.9-120.635-90.635l104.819-624.001c6.348-37.732,70.771-58.464,143.633-46.24
						c72.856,12.239,126.973,52.898,120.64,90.635l-104.824,624.001C1873.525,1993.7,1830.747,2013.071,1776.24,2013.071z
						 M1820.962,1250.107c-51.782,0-92.148,17.683-96.846,45.642l-104.819,624.001c-5.884,35.015,46.392,73.091,116.533,84.873
						c70.166,11.807,131.987-7.119,137.871-42.139l104.824-624.001c5.879-35.017-46.401-73.091-116.538-84.873
						C1847.847,1251.235,1834.038,1250.107,1820.962,1250.107z"/>
				</g>
				<g>
					<path style="fill:#FFFFFF;" d="M1953.724,1501.298c-6.12,36.435-69.137,56.219-140.751,44.19
						c-71.614-12.03-124.707-51.319-118.586-87.754l-16.138,96.068c-6.12,36.435,46.972,75.724,118.586,87.754
						s134.63-7.754,140.751-44.189"/>
				</g>
				<g style="opacity:0.3;">
					<path style="fill:#000072;" d="M1773.426,2010.574c-12.181-0.175-24.952-1.291-38.01-3.484
						c-71.614-12.03-124.708-51.31-118.586-87.754l104.822-624.002c6.122-36.444,69.137-56.219,140.751-44.19
						c13.058,2.194,25.492,5.312,37.062,9.126c-54.699-0.768-97.735,17.873-102.741,47.674l-104.822,624.002
						C1686.895,1961.748,1721.478,1993.427,1773.426,2010.574z"/>
				</g>
				<g style="opacity:0.6;">
					<path style="fill:#FFFFFF;" d="M1980.989,1338.899L1876.167,1962.9c-6.122,36.444-69.137,56.219-140.751,44.19
						c-5.141-0.864-10.169-1.849-15.074-3c65.112,7.009,119.792-12.437,125.478-46.287l104.822-624.002
						c5.686-33.851-39.638-70.094-103.466-84.746c5.013,0.515,10.086,1.227,15.227,2.09
						C1934.016,1263.175,1987.111,1302.455,1980.989,1338.899z"/>
				</g>
				<g>
					<path style="fill:#000072;" d="M1776.489,2024.452c-13.843,0-28.403-1.201-43.369-3.716
						c-80.361-13.501-137.441-59.048-129.937-103.696l104.819-623.999c7.5-44.646,76.318-69.048,156.694-55.547
						c80.361,13.501,137.437,59.05,129.941,103.696l0,0l-104.824,624.004C1883.711,2001.528,1836.987,2024.452,1776.489,2024.452z
						 M1820.933,1261.423c-48.35,0-82.314,16.453-85.635,36.204l-104.819,624.004c-4.155,24.746,38.857,60.322,107.231,71.812
						c68.384,11.489,120.649-8.086,124.81-32.837l104.824-623.999c4.15-24.746-38.862-60.327-107.236-71.812
						C1846.309,1262.475,1833.154,1261.423,1820.933,1261.423z M1980.991,1338.898h0.049H1980.991z"/>
				</g>
				<g>
					<path style="fill:#000072;" d="M1854.238,1560.561c-13.77,0-28.267-1.191-43.174-3.701
						c-79.092-13.286-135.337-57.666-128.057-101.035c1.055-6.284,7.007-10.535,13.286-9.465c6.284,1.055,10.522,7.002,9.468,13.284
						c-4.341,25.825,39.409,62.759,109.121,74.473c69.712,11.689,123.125-8.901,127.471-34.729c1.05-6.282,7.017-10.51,13.281-9.463
						c6.284,1.055,10.522,7.004,9.463,13.286C1959.185,1538.403,1913.506,1560.561,1854.238,1560.561z"/>
				</g>
				<g>
					<path style="fill:#000072;" d="M1838.091,1656.63c-13.77,0-28.257-1.196-43.164-3.696
						c-79.092-13.291-135.337-57.671-128.057-101.04c1.055-6.284,7.031-10.522,13.286-9.468c6.284,1.06,10.522,7.007,9.468,13.286
						c-4.341,25.825,39.409,62.759,109.121,74.473c69.712,11.685,123.125-8.906,127.471-34.727
						c1.05-6.284,7.017-10.571,13.281-9.463c6.284,1.055,10.522,7.002,9.463,13.281
						C1943.047,1634.472,1897.363,1656.63,1838.091,1656.63z"/>
				</g>
				<g>
					<path style="fill:#FFB717;" d="M1771.147,1272.447l82.096-211.381c16.234-41.8,78.098-31.344,79.694,13.469l8.03,225.555
						c0.238,6.694-2.516,13.276-7.803,17.389c-38.101,29.64-134.295,25.017-161.12-27.362
						C1769.234,1284.633,1768.916,1278.192,1771.147,1272.447z"/>
					<path style="fill:#000072;" d="M1867.495,1338.239c-11.079,0-22.393-1.167-33.345-3.594
						c-30.635-6.792-53.481-22.2-64.336-43.386c-3.125-6.113-3.491-13.298-0.996-19.717l82.095-211.382
						c8.911-22.964,30.552-30.251,48.086-27.305c17.505,2.961,35.562,16.968,36.436,41.592l8.032,225.554
						c0.273,7.695-3.003,14.968-8.77,19.451C1919.136,1331.562,1893.984,1338.239,1867.495,1338.239z M1891.328,1037.219
						c-13.262,0-28.589,6.304-35.757,24.753l-82.095,211.382c-1.978,5.088-1.689,10.784,0.791,15.625
						c10.156,19.836,31.812,34.321,60.967,40.784c35.771,7.935,75.415,2.07,96.396-14.255c4.497-3.501,7.056-9.231,6.836-15.327
						l-8.032-225.557c-0.825-23.301-17.9-34.407-32.271-36.836C1895.991,1037.419,1893.691,1037.219,1891.328,1037.219z"/>
				</g>
				<g style="opacity:0.3;">
					<path style="fill:#000072;" d="M1915.473,1327.332c-44.476,17.744-120.128,8.311-143.453-37.197
						c-2.769-5.517-3.094-11.934-0.865-17.688l82.101-211.368c9.824-25.343,36.447-31.49,56.2-22.371
						c-3.577,3.75-6.556,8.395-8.71,13.975l-82.101,211.368c-2.23,5.754-1.904,12.171,0.865,17.688
						C1835.648,1313.22,1876.905,1327.449,1915.473,1327.332z"/>
				</g>
				<g style="opacity:0.6;">
					<path style="fill:#FFFFFF;" d="M1933.173,1317.487c-30.885,24.004-100.005,25.538-139.325-2.727
						c38.12,11.737,84.825,6.624,108.718-11.958c5.276-4.119,8.068-10.714,7.834-17.397l-8.054-225.53
						c-0.389-10.217-3.882-18.663-9.259-25.087c19.757,0.746,38.973,15.015,39.867,39.772l8.009,225.523
						C1941.196,1306.765,1938.45,1313.367,1933.173,1317.487z"/>
				</g>
				<g>
					<path style="fill:#000072;" d="M1867.783,1349.638c-11.943,0.002-24.155-1.277-36.084-3.921
						c-33.999-7.537-59.556-25.042-71.978-49.29c-4.604-8.992-5.142-19.558-1.475-28.992v0.002l82.095-211.382
						c9.727-25.046,34.058-38.865,60.547-34.382c26.489,4.48,44.922,25.525,45.879,52.371l8.032,225.552
						c0.405,11.323-4.507,22.095-13.14,28.809C1924.009,1342.138,1896.704,1349.638,1867.783,1349.638z M1891.436,1048.566
						c-9.38,0-20.225,4.46-25.293,17.512l-82.095,211.379v0.002c-0.806,2.073-0.688,4.39,0.313,6.353
						c11.592,22.632,38.389,31.567,53.33,34.878c32.183,7.136,68.765,2.034,86.973-12.134c1.611-1.255,2.559-3.542,2.471-5.974
						l-8.032-225.554c-0.586-16.484-12.661-24.341-22.827-26.06C1894.736,1048.708,1893.11,1048.566,1891.436,1048.566z
						 M1771.147,1272.448h0.049H1771.147z"/>
				</g>
				<g>
					<path style="fill:#000072;" d="M1880.103,1406.462c-13.77,0-28.262-1.194-43.169-3.699
						c-36.396-6.116-69.565-19.192-93.394-36.826c-26.064-19.287-38.374-42.09-34.653-64.214c1.05-6.282,7.012-10.508,13.281-9.463
						c6.284,1.055,10.522,7.004,9.463,13.286c-2.173,12.935,7.168,28.188,25.63,41.848c20.962,15.51,50.615,27.095,83.491,32.62
						c69.707,11.704,123.125-8.904,127.471-34.727c1.05-6.284,7.007-10.513,13.281-9.463c6.284,1.055,10.522,7.004,9.463,13.286
						C1985.054,1384.306,1939.375,1406.462,1880.103,1406.462z"/>
				</g>
			</g>
			<g>
				<g>
					<path style="fill:#FF2444;" d="M1737.053,1340.797l-104.822,624.002c-6.122,36.444-69.137,56.219-140.751,44.189
						c-71.614-12.03-124.708-51.31-118.586-87.754l104.822-624.002c6.122-36.444,69.137-56.219,140.751-44.189
						C1690.08,1265.073,1743.175,1304.353,1737.053,1340.797z"/>
				</g>
				<g>
					<path style="fill:#FFFFFF;" d="M1709.787,1503.196c-6.121,36.435-69.137,56.22-140.751,44.19s-124.707-51.319-118.586-87.754
						l-16.138,96.068c-6.121,36.435,46.972,75.724,118.586,87.754c71.614,12.03,134.63-7.754,140.751-44.19"/>
				</g>
				<g style="opacity:0.3;">
					<path style="fill:#000072;" d="M1529.489,2012.472c-12.181-0.175-24.952-1.291-38.01-3.485
						c-71.614-12.03-124.708-51.31-118.586-87.754l104.822-624.002c6.122-36.444,69.137-56.219,140.751-44.189
						c13.058,2.193,25.492,5.312,37.062,9.126c-54.699-0.768-97.735,17.873-102.741,47.674l-104.822,624.002
						C1442.959,1963.646,1477.542,1995.325,1529.489,2012.472z"/>
				</g>
				<g style="opacity:0.6;">
					<path style="fill:#FFFFFF;" d="M1737.053,1340.797l-104.822,624.002c-6.122,36.444-69.137,56.219-140.751,44.189
						c-5.141-0.864-10.169-1.849-15.074-3c65.112,7.009,119.792-12.437,125.478-46.287l104.822-624.002
						c5.686-33.851-39.638-70.094-103.466-84.746c5.013,0.515,10.086,1.227,15.227,2.09
						C1690.08,1265.073,1743.175,1304.353,1737.053,1340.797z"/>
				</g>
				<g>
					<path style="fill:#000072;" d="M1532.554,2026.352c-13.843,0-28.403-1.201-43.369-3.716
						c-80.361-13.501-137.441-59.048-129.937-103.696l104.819-623.999c7.5-44.651,76.318-69.058,156.694-55.547
						c36.743,6.172,70.264,19.399,94.38,37.244c26.797,19.832,39.429,43.43,35.557,66.453l-104.819,624.004
						C1639.775,2003.427,1593.052,2026.352,1532.554,2026.352z M1576.992,1263.322c-48.34,0-82.31,16.453-85.63,36.204
						l-104.819,624.004c-4.155,24.746,38.857,60.322,107.231,71.812c68.384,11.489,120.649-8.086,124.81-32.837l104.819-623.999l0,0
						c2.021-12.051-6.987-26.489-24.727-39.614c-20.674-15.3-49.976-26.733-82.505-32.197
						C1602.368,1264.374,1589.219,1263.322,1576.992,1263.322z"/>
				</g>
				<g>
					<path style="fill:#000072;" d="M1610.342,1562.45c-13.994,0-28.54-1.226-43.213-3.687
						c-79.092-13.291-135.337-57.671-128.057-101.042c1.055-6.282,7.021-10.535,13.286-9.465c6.284,1.055,10.522,7.002,9.468,13.284
						c-4.341,25.825,39.409,62.761,109.121,74.475c32.886,5.518,64.692,4.253,89.57-3.555c21.909-6.88,35.723-18.242,37.891-31.174
						c1.055-6.287,7.012-10.515,13.286-9.465c6.284,1.055,10.522,7.002,9.468,13.284c-3.716,22.122-22.798,39.651-53.735,49.363
						C1650.547,1559.77,1631.05,1562.45,1610.342,1562.45z"/>
				</g>
				<g>
					<path style="fill:#000072;" d="M1594.209,1658.515c-13.994,0-28.545-1.226-43.218-3.691
						c-79.092-13.281-135.337-57.661-128.057-101.035c1.055-6.284,7.017-10.522,13.286-9.468c6.284,1.06,10.522,7.007,9.468,13.286
						c-4.341,25.83,39.409,62.764,109.121,74.468c32.886,5.527,64.692,4.268,89.57-3.545c21.909-6.88,35.723-18.242,37.891-31.177
						c1.055-6.284,7.012-10.522,13.286-9.468c6.284,1.06,10.522,7.007,9.468,13.286c-3.716,22.119-22.798,39.653-53.735,49.365
						C1634.409,1655.834,1614.917,1658.515,1594.209,1658.515z"/>
				</g>
				<g>
					<path style="fill:#FF2444;" d="M1527.211,1274.345l82.096-211.381c16.234-41.8,78.098-31.344,79.694,13.469l8.03,225.555
						c0.238,6.694-2.516,13.276-7.803,17.389c-38.101,29.64-134.295,25.017-161.12-27.362
						C1525.297,1286.531,1524.979,1280.09,1527.211,1274.345z"/>
				</g>
				<g style="opacity:0.3;">
					<path style="fill:#000072;" d="M1671.536,1329.229c-44.476,17.744-120.128,8.311-143.453-37.197
						c-2.769-5.517-3.094-11.934-0.865-17.688l82.101-211.368c9.824-25.343,36.447-31.49,56.2-22.371
						c-3.577,3.75-6.556,8.395-8.71,13.975l-82.101,211.368c-2.23,5.754-1.904,12.171,0.865,17.688
						C1591.712,1315.118,1632.969,1329.347,1671.536,1329.229z"/>
				</g>
				<g style="opacity:0.6;">
					<path style="fill:#FFFFFF;" d="M1689.236,1319.385c-30.885,24.004-100.005,25.538-139.325-2.727
						c38.12,11.737,84.825,6.625,108.718-11.958c5.276-4.119,8.068-10.714,7.834-17.397l-8.054-225.53
						c-0.389-10.217-3.882-18.663-9.259-25.087c19.757,0.746,38.973,15.015,39.867,39.772l8.009,225.522
						C1697.26,1308.662,1694.513,1315.265,1689.236,1319.385z"/>
				</g>
				<g>
					<path style="fill:#000072;" d="M1623.848,1351.535c-11.943,0.002-24.155-1.277-36.084-3.921
						c-33.999-7.537-59.556-25.042-71.978-49.29c-4.604-8.992-5.142-19.558-1.475-28.992v0.002l82.095-211.382
						c9.727-25.046,34.048-38.857,60.547-34.382c26.489,4.48,44.922,25.525,45.879,52.371l8.032,225.554
						c0.405,11.321-4.507,22.09-13.135,28.804C1680.073,1344.035,1652.769,1351.535,1623.848,1351.535z M1647.5,1050.463
						c-9.38,0-20.225,4.46-25.293,17.512l-82.095,211.379v0.002c-0.806,2.075-0.688,4.39,0.313,6.353
						c11.592,22.632,38.389,31.567,53.33,34.878c32.178,7.139,68.77,2.036,86.973-12.134c1.611-1.255,2.559-3.542,2.471-5.972
						l-8.032-225.557c-0.586-16.484-12.661-24.341-22.827-26.06C1650.801,1050.605,1649.175,1050.463,1647.5,1050.463z
						 M1527.212,1274.345h0.049H1527.212z"/>
				</g>
				<g>
					<path style="fill:#000072;" d="M1636.172,1408.359c-13.774,0-28.267-1.194-43.174-3.699
						c-36.396-6.113-69.565-19.192-93.394-36.824c-26.064-19.287-38.374-42.092-34.653-64.216c1.05-6.282,7.021-10.51,13.281-9.463
						c6.284,1.055,10.522,7.004,9.463,13.286c-2.173,12.935,7.168,28.188,25.63,41.848c20.962,15.513,50.615,27.097,83.491,32.62
						c69.717,11.709,123.125-8.899,127.471-34.727c1.05-6.284,7.017-10.513,13.281-9.463c6.284,1.055,10.522,7.004,9.463,13.286
						C1741.118,1386.203,1695.439,1408.359,1636.172,1408.359z"/>
				</g>
			</g>
			<g>
				<g>
					<path style="fill:#FFB717;" d="M2856.892,1434.87l-104.822,624.002c-6.122,36.444-69.137,56.219-140.751,44.19
						c-71.614-12.03-124.708-51.31-118.586-87.754l104.822-624.002c6.122-36.444,69.137-56.219,140.751-44.189
						C2809.919,1359.146,2863.014,1398.426,2856.892,1434.87z"/>
					<path style="fill:#000072;" d="M2652.144,2109.042c-13.184,0-27.051-1.133-41.24-3.516
						c-72.856-12.241-126.973-52.9-120.635-90.635l104.819-624.001c6.343-37.729,70.791-58.469,143.633-46.24
						c35.015,5.884,66.807,18.376,89.517,35.178c23.188,17.163,34.243,36.855,31.118,55.457l-104.819,624.001
						C2749.429,2089.672,2706.65,2109.042,2652.144,2109.042z M2696.87,1346.078c-51.787,0-92.153,17.686-96.851,45.642
						L2495.2,2015.722c-5.884,35.015,46.392,73.091,116.533,84.873c70.166,11.802,131.987-7.119,137.871-42.139l104.819-624.001
						c2.798-16.648-7.559-34.622-29.165-50.605c-22.085-16.343-53.11-28.513-87.368-34.268
						C2723.75,1347.206,2709.941,1346.078,2696.87,1346.078z"/>
				</g>
				<g>
					<path style="fill:#FFFFFF;" d="M2829.627,1597.27c-6.121,36.435-69.137,56.219-140.751,44.189s-124.707-51.319-118.586-87.754
						l-16.138,96.068c-6.121,36.435,46.972,75.724,118.586,87.754c71.614,12.03,134.63-7.754,140.751-44.19"/>
				</g>
				<g style="opacity:0.3;">
					<path style="fill:#000072;" d="M2649.329,2106.546c-12.181-0.175-24.952-1.291-38.01-3.484
						c-71.614-12.03-124.708-51.31-118.586-87.754l104.822-624.002c6.122-36.444,69.137-56.219,140.751-44.189
						c13.058,2.193,25.492,5.312,37.062,9.126c-54.699-0.768-97.735,17.873-102.741,47.674l-104.822,624.002
						C2562.798,2057.719,2597.381,2089.399,2649.329,2106.546z"/>
				</g>
				<g style="opacity:0.55;">
					<path style="fill:#FED7DC;" d="M2856.892,1434.87l-104.822,624.002c-6.122,36.444-69.137,56.219-140.751,44.19
						c-5.141-0.864-10.169-1.849-15.074-3.001c65.112,7.009,119.792-12.437,125.478-46.287l104.822-624.002
						c5.686-33.851-39.638-70.094-103.467-84.746c5.012,0.515,10.086,1.226,15.227,2.09
						C2809.919,1359.146,2863.014,1398.426,2856.892,1434.87z"/>
				</g>
				<g>
					<path style="fill:#000072;" d="M2652.393,2120.424c-13.843,0-28.403-1.201-43.369-3.716
						c-80.361-13.501-137.441-59.048-129.937-103.696l104.819-623.999c7.5-44.646,76.313-69.043,156.694-55.547
						c36.743,6.174,70.264,19.402,94.38,37.246c26.797,19.829,39.429,43.43,35.557,66.45l-104.819,624.004
						C2759.614,2097.499,2712.891,2120.424,2652.393,2120.424z M2696.836,1357.394c-48.345,0-82.314,16.453-85.635,36.204
						l-104.819,624.004c-4.155,24.746,38.857,60.322,107.231,71.812c68.379,11.494,120.649-8.091,124.81-32.837l104.819-623.999l0,0
						c2.021-12.051-6.987-26.489-24.727-39.612c-20.679-15.3-49.976-26.736-82.505-32.2
						C2722.212,1358.447,2709.063,1357.394,2696.836,1357.394z"/>
				</g>
				<g>
					<path style="fill:#000072;" d="M2730.142,1656.532c-13.77,0-28.267-1.191-43.174-3.701
						c-79.092-13.286-135.337-57.666-128.057-101.035c1.055-6.284,7.026-10.518,13.286-9.468c6.284,1.06,10.522,7.007,9.468,13.286
						c-4.341,25.825,39.409,62.759,109.121,74.473c69.717,11.694,123.125-8.901,127.471-34.727
						c1.05-6.284,7.012-10.571,13.281-9.463c6.284,1.055,10.522,7.002,9.463,13.281
						C2835.088,1634.374,2789.409,1656.532,2730.142,1656.532z"/>
				</g>
				<g>
					<path style="fill:#000072;" d="M2713.994,1752.602c-13.77,0-28.257-1.196-43.164-3.696
						c-79.092-13.291-135.337-57.671-128.057-101.04c1.055-6.284,7.021-10.532,13.286-9.468c6.284,1.06,10.522,7.007,9.468,13.286
						c-4.341,25.825,39.409,62.759,109.121,74.473c69.702,11.689,123.125-8.906,127.471-34.727
						c1.05-6.279,7.007-10.557,13.281-9.463c6.284,1.055,10.522,7.002,9.463,13.281
						C2818.95,1730.444,2773.267,1752.602,2713.994,1752.602z"/>
				</g>
				<g>
					<path style="fill:#FFB717;" d="M2647.05,1368.419l82.096-211.381c16.234-41.8,78.098-31.344,79.694,13.469l8.03,225.555
						c0.238,6.694-2.516,13.276-7.803,17.389c-38.101,29.64-134.295,25.017-161.12-27.362
						C2645.137,1380.604,2644.819,1374.164,2647.05,1368.419z"/>
					<path style="fill:#000072;" d="M2743.398,1434.211c-11.079,0-22.393-1.167-33.345-3.594
						c-30.635-6.792-53.481-22.2-64.336-43.386c-3.125-6.113-3.491-13.298-0.996-19.717l82.095-211.382
						c8.916-22.961,30.562-30.247,48.086-27.305c17.505,2.961,35.562,16.968,36.436,41.592l8.032,225.554
						c0.273,7.69-3.003,14.963-8.765,19.451C2795.039,1427.533,2769.888,1434.211,2743.398,1434.211z M2767.231,1133.19
						c-13.262,0-28.589,6.304-35.757,24.753l-82.095,211.382c-1.978,5.088-1.689,10.784,0.791,15.625
						c10.156,19.836,31.812,34.321,60.967,40.784c35.767,7.932,75.415,2.068,96.396-14.255c4.497-3.503,7.056-9.236,6.836-15.327
						l-8.032-225.557c-0.825-23.301-17.9-34.407-32.271-36.836C2771.895,1133.39,2769.595,1133.19,2767.231,1133.19z"/>
				</g>
				<g style="opacity:0.3;">
					<path style="fill:#000072;" d="M2791.376,1423.303c-44.476,17.744-120.128,8.311-143.453-37.197
						c-2.769-5.517-3.094-11.934-0.865-17.688l82.101-211.368c9.824-25.343,36.447-31.49,56.2-22.371
						c-3.577,3.75-6.556,8.395-8.71,13.975l-82.101,211.368c-2.23,5.754-1.904,12.171,0.865,17.688
						C2711.551,1409.192,2752.808,1423.421,2791.376,1423.303z"/>
				</g>
				<g style="opacity:0.55;">
					<path style="fill:#FED7DC;" d="M2809.076,1413.458c-30.885,24.004-100.005,25.538-139.325-2.727
						c38.12,11.737,84.825,6.624,108.718-11.958c5.276-4.119,8.069-10.714,7.834-17.397l-8.054-225.53
						c-0.389-10.217-3.882-18.664-9.259-25.087c19.757,0.746,38.973,15.015,39.867,39.772l8.009,225.523
						C2817.099,1402.736,2814.352,1409.339,2809.076,1413.458z"/>
				</g>
				<g>
					<path style="fill:#000072;" d="M2743.687,1445.61c-11.943,0.002-24.155-1.277-36.084-3.921
						c-33.999-7.537-59.556-25.042-71.978-49.29c-4.604-8.992-5.142-19.558-1.475-28.992v0.002l82.095-211.382
						c9.727-25.049,34.053-38.85,60.547-34.382c26.489,4.48,44.922,25.525,45.879,52.371l8.032,225.552
						c0.405,11.318-4.507,22.087-13.135,28.804C2799.912,1438.11,2772.607,1445.61,2743.687,1445.61z M2767.339,1144.538
						c-9.38,0-20.225,4.46-25.293,17.512l-82.095,211.379v0.002c-0.806,2.073-0.688,4.39,0.313,6.353
						c11.592,22.632,38.389,31.567,53.33,34.878c32.183,7.134,68.765,2.034,86.973-12.134c1.611-1.252,2.559-3.542,2.471-5.974
						L2795.005,1171c-0.586-16.484-12.661-24.341-22.827-26.06C2770.64,1144.679,2769.014,1144.538,2767.339,1144.538z
						 M2647.051,1368.42h0.049H2647.051z"/>
				</g>
				<g>
					<path style="fill:#000072;" d="M2756.006,1502.433c-13.77,0-28.262-1.194-43.169-3.699
						c-36.396-6.116-69.565-19.192-93.394-36.826c-26.064-19.287-38.374-42.09-34.653-64.214c1.05-6.284,7.002-10.518,13.281-9.463
						c6.284,1.055,10.522,7.004,9.463,13.286c-2.173,12.935,7.168,28.188,25.63,41.848c20.962,15.51,50.615,27.095,83.491,32.62
						c69.702,11.709,123.125-8.901,127.471-34.727c1.05-6.284,7.021-10.52,13.281-9.463c6.284,1.055,10.522,7.004,9.463,13.286
						C2860.957,1480.278,2815.278,1502.433,2756.006,1502.433z"/>
				</g>
			</g>
			<g>
				<g>
					<path style="fill:#7BBC2F;" d="M2618.177,1454.202l-104.822,624.002c-6.122,36.444-69.137,56.219-140.751,44.19
						c-71.614-12.03-124.708-51.31-118.586-87.754l104.822-624.002c6.122-36.444,69.137-56.219,140.751-44.189
						C2571.204,1378.478,2624.299,1417.759,2618.177,1454.202z"/>
				</g>
				<g>
					<path style="fill:#FFFFFF;" d="M2590.912,1616.602c-6.121,36.435-69.137,56.219-140.751,44.189
						c-71.614-12.03-124.707-51.319-118.587-87.754l-16.138,96.068c-6.121,36.435,46.972,75.724,118.586,87.754
						s134.63-7.754,140.751-44.19"/>
				</g>
				<g style="opacity:0.3;">
					<path style="fill:#000072;" d="M2410.614,2125.878c-12.181-0.175-24.952-1.291-38.01-3.485
						c-71.614-12.03-124.708-51.31-118.586-87.754l104.822-624.002c6.122-36.444,69.137-56.219,140.751-44.189
						c13.058,2.193,25.492,5.312,37.062,9.126c-54.699-0.768-97.735,17.873-102.741,47.674l-104.822,624.002
						C2324.083,2077.052,2358.666,2108.731,2410.614,2125.878z"/>
				</g>
				<g style="opacity:0.55;">
					<path style="fill:#FED7DC;" d="M2618.177,1454.202l-104.822,624.002c-6.122,36.444-69.137,56.219-140.751,44.19
						c-5.141-0.864-10.169-1.849-15.074-3c65.112,7.009,119.792-12.437,125.478-46.287l104.822-624.002
						c5.686-33.851-39.638-70.094-103.467-84.746c5.013,0.515,10.086,1.227,15.227,2.09
						C2571.204,1378.478,2624.299,1417.759,2618.177,1454.202z"/>
				</g>
				<g>
					<path style="fill:#000072;" d="M2413.677,2139.755c-13.843,0-28.403-1.201-43.369-3.716
						c-36.743-6.167-70.264-19.395-94.38-37.241c-26.797-19.829-39.429-43.428-35.557-66.455l104.819-623.997
						c3.867-23.025,23.516-41.201,55.322-51.187c28.618-8.987,64.614-10.532,101.372-4.36
						c80.361,13.499,137.437,59.045,129.941,103.696l0,0l-104.824,624.001C2520.898,2116.83,2474.175,2139.755,2413.677,2139.755z
						 M2458.169,1376.74c-18.062,0-34.907,2.292-49.37,6.831c-21.05,6.609-34.287,17.31-36.313,29.36l-104.819,624.001
						c-2.021,12.051,6.987,26.489,24.727,39.614c20.679,15.298,49.976,26.733,82.5,32.197
						c68.403,11.489,120.654-8.086,124.814-32.837l104.824-623.997c4.15-24.749-38.862-60.33-107.236-71.812
						C2483.936,1377.853,2470.757,1376.74,2458.169,1376.74z M2618.179,1454.203h0.049H2618.179z"/>
				</g>
				<g>
					<path style="fill:#000072;" d="M2491.426,1675.864c-13.77,0-28.267-1.191-43.174-3.701
						c-79.092-13.286-135.337-57.666-128.057-101.035c1.055-6.279,7.031-10.508,13.286-9.468c6.284,1.06,10.522,7.007,9.468,13.286
						c-4.341,25.825,39.409,62.759,109.121,74.473c69.717,11.694,123.125-8.901,127.471-34.727
						c1.05-6.284,7.017-10.562,13.281-9.463c6.284,1.055,10.522,7.002,9.463,13.281
						C2596.372,1653.705,2550.693,1675.864,2491.426,1675.864z"/>
				</g>
				<g>
					<path style="fill:#000072;" d="M2475.288,1771.933c-13.77,0-28.267-1.191-43.174-3.701
						c-79.092-13.286-135.337-57.666-128.057-101.035c1.055-6.284,7.026-10.522,13.286-9.468c6.284,1.06,10.522,7.007,9.468,13.286
						c-4.341,25.825,39.409,62.759,109.121,74.473c69.712,11.699,123.13-8.901,127.471-34.727c1.05-6.284,7.012-10.571,13.281-9.463
						c6.284,1.055,10.522,7.002,9.463,13.281C2580.234,1749.775,2534.556,1771.933,2475.288,1771.933z"/>
				</g>
				<g>
					<path style="fill:#7BBC2F;" d="M2408.335,1387.751l82.096-211.381c16.234-41.8,78.098-31.344,79.694,13.469l8.03,225.555
						c0.238,6.694-2.516,13.276-7.803,17.389c-38.101,29.64-134.295,25.017-161.12-27.362
						C2406.422,1399.936,2406.104,1393.496,2408.335,1387.751z"/>
				</g>
				<g style="opacity:0.3;">
					<path style="fill:#000072;" d="M2552.661,1442.635c-44.476,17.744-120.128,8.311-143.453-37.197
						c-2.769-5.517-3.094-11.934-0.865-17.688l82.101-211.368c9.824-25.343,36.447-31.49,56.2-22.371
						c-3.577,3.75-6.556,8.396-8.71,13.975l-82.101,211.368c-2.23,5.754-1.904,12.171,0.865,17.688
						C2472.836,1428.524,2514.093,1442.753,2552.661,1442.635z"/>
				</g>
				<g style="opacity:0.55;">
					<path style="fill:#FED7DC;" d="M2570.361,1432.791c-30.885,24.003-100.005,25.538-139.325-2.727
						c38.12,11.737,84.825,6.624,108.718-11.958c5.276-4.119,8.068-10.714,7.834-17.397l-8.054-225.53
						c-0.389-10.217-3.882-18.663-9.259-25.087c19.757,0.746,38.973,15.015,39.867,39.772l8.009,225.523
						C2578.384,1422.068,2575.637,1428.671,2570.361,1432.791z"/>
				</g>
				<g>
					<path style="fill:#000072;" d="M2504.971,1464.941c-11.938,0.002-24.155-1.277-36.084-3.921
						c-33.999-7.537-59.556-25.042-71.978-49.29c-4.604-8.992-5.142-19.558-1.475-28.992v0.002l82.095-211.382
						c9.722-25.042,34.014-38.865,60.547-34.382c26.484,4.478,44.927,25.522,45.884,52.368l8.027,225.557
						c0.405,11.326-4.507,22.097-13.14,28.809C2561.196,1457.443,2533.892,1464.941,2504.971,1464.941z M2528.628,1163.869
						c-9.385,0-20.229,4.46-25.298,17.512l-82.095,211.379v0.002c-0.806,2.073-0.688,4.39,0.313,6.353
						c11.592,22.632,38.389,31.567,53.33,34.878c32.183,7.134,68.765,2.034,86.973-12.134c1.616-1.255,2.559-3.54,2.471-5.972
						l-8.027-225.557c-0.586-16.487-12.666-24.341-22.832-26.06C2531.924,1164.01,2530.298,1163.869,2528.628,1163.869z
						 M2408.335,1387.751h0.049H2408.335z"/>
				</g>
				<g>
					<path style="fill:#000072;" d="M2517.29,1521.762c-13.77,0-28.262-1.191-43.169-3.696
						c-36.396-6.113-69.565-19.192-93.394-36.824c-26.064-19.287-38.374-42.092-34.653-64.216c1.05-6.282,7.007-10.508,13.281-9.463
						c6.284,1.055,10.522,7.004,9.463,13.286c-2.173,12.937,7.168,28.191,25.63,41.851c20.962,15.51,50.615,27.095,83.491,32.617
						c69.702,11.704,123.125-8.904,127.471-34.727c1.05-6.282,7.026-10.513,13.281-9.463c6.284,1.055,10.522,7.004,9.463,13.286
						C2622.241,1499.609,2576.563,1521.762,2517.29,1521.762z"/>
				</g>
			</g>
			<g>
				<g>
					<path style="fill:#2389F7;" d="M2375.196,1471.083l-104.822,624.002c-6.122,36.444-69.137,56.219-140.751,44.189
						c-71.614-12.03-124.708-51.31-118.586-87.754l104.822-624.002c6.122-36.444,69.137-56.22,140.751-44.19
						C2328.223,1395.359,2381.318,1434.639,2375.196,1471.083z"/>
				</g>
				<g>
					<path style="fill:#FFFFFF;" d="M2347.93,1633.482c-6.12,36.435-69.137,56.22-140.751,44.19
						c-71.614-12.03-124.707-51.319-118.586-87.754l-16.138,96.068c-6.12,36.435,46.972,75.724,118.586,87.754
						s134.63-7.754,140.751-44.19"/>
				</g>
				<g style="opacity:0.3;">
					<path style="fill:#000072;" d="M2167.632,2142.759c-12.181-0.175-24.952-1.291-38.01-3.485
						c-71.614-12.03-124.708-51.31-118.586-87.754l104.822-624.002c6.122-36.444,69.137-56.22,140.751-44.19
						c13.058,2.193,25.492,5.312,37.062,9.126c-54.699-0.768-97.735,17.873-102.741,47.674l-104.822,624.002
						C2081.102,2093.932,2115.685,2125.612,2167.632,2142.759z"/>
				</g>
				<g style="opacity:0.55;">
					<path style="fill:#FED7DC;" d="M2375.196,1471.083l-104.822,624.002c-6.122,36.444-69.137,56.219-140.751,44.189
						c-5.141-0.864-10.169-1.849-15.074-3c65.112,7.009,119.792-12.437,125.478-46.287l104.822-624.002
						c5.687-33.851-39.638-70.094-103.467-84.746c5.013,0.515,10.086,1.227,15.227,2.09
						C2328.223,1395.359,2381.318,1434.639,2375.196,1471.083z"/>
				</g>
				<g>
					<path style="fill:#000072;" d="M2170.688,2156.635c-13.843,0-28.398-1.196-43.354-3.711
						c-36.753-6.172-70.273-19.399-94.39-37.246c-26.797-19.829-39.429-43.428-35.557-66.45l104.824-624.001
						c7.5-44.651,76.313-69.058,156.694-55.547c36.743,6.174,70.264,19.399,94.38,37.244c26.797,19.829,39.429,43.43,35.557,66.453
						l-104.819,624.001C2277.92,2133.71,2231.191,2156.635,2170.688,2156.635z M2215.137,1393.608
						c-48.345,0-82.31,16.45-85.63,36.204l-104.824,624.006c-2.021,12.046,6.987,26.484,24.727,39.609
						c20.679,15.298,49.98,26.733,82.51,32.202c68.364,11.47,120.649-8.086,124.81-32.842l104.819-623.997l0,0
						c2.021-12.051-6.987-26.489-24.727-39.614c-20.674-15.3-49.976-26.733-82.505-32.197
						C2240.518,1394.66,2227.363,1393.608,2215.137,1393.608z"/>
				</g>
				<g>
					<path style="fill:#000072;" d="M2248.486,1692.734c-13.994,0-28.545-1.226-43.218-3.691
						c-36.396-6.108-69.561-19.189-93.394-36.826c-26.064-19.287-38.374-42.09-34.653-64.209c1.05-6.284,7.002-10.562,13.281-9.463
						c6.284,1.055,10.522,7.002,9.463,13.281c-2.173,12.935,7.168,28.188,25.63,41.851c20.967,15.513,50.615,27.1,83.491,32.617
						c32.881,5.532,64.692,4.263,89.575-3.545c21.909-6.88,35.723-18.242,37.891-31.177c1.055-6.284,7.026-10.518,13.286-9.468
						c6.284,1.06,10.522,7.007,9.468,13.286c-3.716,22.119-22.798,39.653-53.735,49.365
						C2288.691,1690.053,2269.199,1692.734,2248.486,1692.734z"/>
				</g>
				<g>
					<path style="fill:#000072;" d="M2232.349,1788.803c-13.994,0-28.545-1.226-43.218-3.691
						c-36.396-6.113-69.561-19.189-93.394-36.826c-26.064-19.287-38.374-42.09-34.653-64.209c1.05-6.284,7.026-10.552,13.281-9.463
						c6.284,1.055,10.522,7.002,9.463,13.281c-2.173,12.935,7.168,28.188,25.63,41.846c20.967,15.518,50.615,27.1,83.491,32.627
						c32.871,5.513,64.692,4.258,89.575-3.55c21.909-6.88,35.723-18.242,37.891-31.177c1.055-6.284,7.026-10.532,13.286-9.468
						c6.284,1.06,10.522,7.007,9.468,13.286c-3.716,22.119-22.798,39.653-53.735,49.365
						C2272.554,1786.122,2253.062,1788.803,2232.349,1788.803z"/>
				</g>
				<g>
					<path style="fill:#2389F7;" d="M2165.354,1404.631l82.096-211.381c16.234-41.8,78.098-31.344,79.694,13.469l8.029,225.555
						c0.238,6.694-2.516,13.276-7.803,17.389c-38.101,29.64-134.295,25.017-161.12-27.362
						C2163.44,1416.817,2163.122,1410.376,2165.354,1404.631z"/>
				</g>
				<g style="opacity:0.3;">
					<path style="fill:#000072;" d="M2309.679,1459.516c-44.476,17.744-120.128,8.311-143.453-37.197
						c-2.769-5.517-3.094-11.934-0.865-17.688l82.101-211.368c9.824-25.343,36.446-31.49,56.2-22.371
						c-3.577,3.75-6.556,8.396-8.71,13.975l-82.101,211.368c-2.23,5.754-1.904,12.171,0.865,17.688
						C2229.854,1445.405,2271.112,1459.634,2309.679,1459.516z"/>
				</g>
				<g style="opacity:0.55;">
					<path style="fill:#FED7DC;" d="M2327.379,1449.671c-30.885,24.004-100.005,25.538-139.325-2.727
						c38.12,11.737,84.825,6.624,108.718-11.958c5.276-4.119,8.068-10.714,7.834-17.397l-8.054-225.53
						c-0.389-10.217-3.882-18.664-9.259-25.087c19.757,0.746,38.973,15.015,39.867,39.772l8.009,225.523
						C2335.402,1438.949,2332.656,1445.552,2327.379,1449.671z"/>
				</g>
				<g>
					<path style="fill:#000072;" d="M2261.992,1481.823c-11.943,0-24.16-1.279-36.089-3.923
						c-33.994-7.537-59.556-25.042-71.973-49.29c-4.604-8.997-5.142-19.563-1.479-28.992l82.1-211.379
						c9.722-25.039,34.043-38.857,60.537-34.38c26.489,4.475,44.932,25.52,45.889,52.368l8.027,225.554
						c0.405,11.323-4.507,22.095-13.14,28.809C2318.213,1474.323,2290.913,1481.823,2261.992,1481.823z M2285.645,1180.751
						c-9.38,0-20.225,4.458-25.293,17.51l-82.1,211.382l0,0c-0.806,2.07-0.688,4.387,0.317,6.353
						c11.592,22.632,38.384,31.567,53.325,34.88c32.178,7.136,68.765,2.031,86.978-12.136c1.606-1.252,2.554-3.54,2.466-5.972
						l-8.027-225.554c-0.586-16.487-12.666-24.343-22.832-26.062C2288.94,1180.893,2287.314,1180.751,2285.645,1180.751z
						 M2165.352,1404.631h0.049H2165.352z"/>
				</g>
				<g>
					<path style="fill:#000072;" d="M2274.307,1538.647c-13.77,0-28.257-1.196-43.164-3.696
						c-36.401-6.118-69.565-19.194-93.398-36.829c-26.064-19.287-38.374-42.092-34.653-64.216c1.05-6.284,7.017-10.515,13.281-9.463
						c6.284,1.055,10.522,7.004,9.463,13.286c-2.173,12.937,7.168,28.191,25.63,41.851c20.962,15.51,50.615,27.095,83.496,32.62
						c69.712,11.697,123.125-8.906,127.471-34.729c1.05-6.284,7.007-10.518,13.281-9.463c6.284,1.055,10.522,7.004,9.463,13.286
						C2379.263,1516.489,2333.579,1538.647,2274.307,1538.647z"/>
				</g>
			</g>
			<g>
				<g>
					<path style="fill:#8B68FC;" d="M2135.244,1473.65l-104.822,624.002c-6.122,36.444-69.137,56.219-140.751,44.189
						c-71.614-12.03-124.708-51.31-118.586-87.754l104.822-624.002c6.122-36.444,69.137-56.219,140.751-44.19
						C2088.271,1397.926,2141.366,1437.207,2135.244,1473.65z"/>
				</g>
				<g>
					<path style="fill:#FFFFFF;" d="M2107.979,1636.05c-6.12,36.435-69.137,56.219-140.751,44.19
						c-71.614-12.03-124.707-51.319-118.586-87.754l-16.138,96.068c-6.12,36.435,46.972,75.724,118.586,87.754
						s134.63-7.754,140.751-44.19"/>
				</g>
				<g style="opacity:0.3;">
					<path style="fill:#000072;" d="M1927.681,2145.326c-12.181-0.175-24.952-1.291-38.01-3.485
						c-71.614-12.03-124.708-51.31-118.586-87.754l104.822-624.002c6.122-36.444,69.137-56.219,140.751-44.19
						c13.058,2.194,25.492,5.312,37.062,9.126c-54.699-0.768-97.735,17.873-102.741,47.674l-104.822,624.002
						C1841.15,2096.5,1875.733,2128.179,1927.681,2145.326z"/>
				</g>
				<g style="opacity:0.55;">
					<path style="fill:#FED7DC;" d="M2135.244,1473.65l-104.822,624.002c-6.122,36.444-69.137,56.219-140.751,44.189
						c-5.141-0.864-10.169-1.849-15.074-3c65.112,7.009,119.792-12.437,125.478-46.287l104.822-624.002
						c5.687-33.851-39.638-70.094-103.466-84.746c5.013,0.515,10.086,1.227,15.227,2.09
						C2088.271,1397.926,2141.366,1437.207,2135.244,1473.65z"/>
				</g>
				<g>
					<path style="fill:#000072;" d="M1930.981,2159.208c-14.126,0-28.799-1.23-43.604-3.721
						c-36.748-6.167-70.269-19.395-94.385-37.241c-26.797-19.829-39.429-43.428-35.557-66.455l104.824-623.999
						c3.862-23.022,23.511-41.199,55.317-51.184c28.618-8.984,64.619-10.535,101.372-4.363
						c36.748,6.174,70.269,19.402,94.385,37.246c26.797,19.829,39.429,43.428,35.557,66.45l-104.824,624.004
						c-3.862,23.022-23.511,41.201-55.317,51.182C1971.655,2156.493,1951.929,2159.208,1930.981,2159.208z M1975.239,1396.186
						c-18.062,0-34.912,2.292-49.37,6.833c-21.055,6.609-34.287,17.307-36.313,29.358l-104.824,624.004
						c-2.021,12.051,6.987,26.489,24.727,39.614c20.679,15.298,49.98,26.733,82.505,32.197c32.534,5.454,63.96,4.224,88.496-3.472
						c21.055-6.611,34.287-17.31,36.313-29.36l104.824-624.004l0,0c2.021-12.051-6.987-26.489-24.727-39.612
						c-20.679-15.3-49.98-26.736-82.51-32.2C2001.006,1397.302,1987.827,1396.186,1975.239,1396.186z"/>
				</g>
				<g>
					<path style="fill:#000072;" d="M2008.535,1695.302c-13.994,0-28.545-1.226-43.218-3.691
						c-36.396-6.113-69.561-19.189-93.394-36.826c-26.064-19.287-38.374-42.09-34.653-64.209c1.05-6.284,7.012-10.571,13.281-9.463
						c6.284,1.055,10.522,7.002,9.463,13.281c-2.173,12.935,7.168,28.188,25.63,41.846c20.967,15.518,50.615,27.1,83.491,32.627
						c32.871,5.513,64.692,4.258,89.575-3.55c21.909-6.88,35.723-18.242,37.891-31.177c1.055-6.284,7.012-10.527,13.286-9.468
						c6.284,1.06,10.522,7.007,9.468,13.286c-3.716,22.119-22.798,39.653-53.735,49.365
						C2048.74,1692.621,2029.248,1695.302,2008.535,1695.302z"/>
				</g>
				<g>
					<path style="fill:#000072;" d="M1992.397,1791.371c-13.994,0-28.545-1.226-43.218-3.691
						c-36.396-6.113-69.561-19.189-93.394-36.826c-26.064-19.287-38.374-42.09-34.653-64.209c1.05-6.279,7.012-10.562,13.281-9.463
						c6.284,1.055,10.522,7.002,9.463,13.281c-2.173,12.935,7.168,28.188,25.63,41.846c20.967,15.518,50.615,27.1,83.491,32.627
						c32.866,5.513,64.688,4.263,89.575-3.55c21.909-6.88,35.723-18.242,37.891-31.177c1.055-6.284,7.007-10.513,13.286-9.468
						c6.284,1.06,10.522,7.007,9.468,13.286c-3.716,22.119-22.798,39.653-53.735,49.365
						C2032.603,1788.691,2013.11,1791.371,1992.397,1791.371z"/>
				</g>
				<g>
					<path style="fill:#8B68FC;" d="M1925.402,1407.199l82.096-211.381c16.234-41.8,78.098-31.344,79.694,13.469l8.03,225.555
						c0.238,6.694-2.516,13.276-7.803,17.389c-38.101,29.64-134.295,25.017-161.12-27.362
						C1923.489,1419.384,1923.171,1412.944,1925.402,1407.199z"/>
				</g>
				<g style="opacity:0.3;">
					<path style="fill:#000072;" d="M2069.728,1462.083c-44.476,17.744-120.128,8.311-143.453-37.197
						c-2.769-5.517-3.094-11.934-0.865-17.688l82.101-211.368c9.824-25.343,36.446-31.49,56.2-22.371
						c-3.577,3.749-6.556,8.395-8.71,13.975l-82.101,211.368c-2.23,5.754-1.904,12.171,0.865,17.688
						C1989.903,1447.972,2031.16,1462.201,2069.728,1462.083z"/>
				</g>
				<g style="opacity:0.55;">
					<path style="fill:#FED7DC;" d="M2087.427,1452.238c-30.885,24.004-100.005,25.538-139.325-2.727
						c38.12,11.737,84.825,6.624,108.718-11.958c5.276-4.119,8.068-10.714,7.834-17.397l-8.054-225.53
						c-0.389-10.217-3.882-18.663-9.259-25.087c19.757,0.746,38.973,15.015,39.867,39.772l8.009,225.522
						C2095.451,1441.516,2092.704,1448.119,2087.427,1452.238z"/>
				</g>
				<g>
					<path style="fill:#000072;" d="M2022.041,1484.389c-11.943,0.002-24.155-1.277-36.089-3.921
						c-33.994-7.537-59.551-25.042-71.973-49.29c-4.604-8.984-5.146-19.553-1.479-28.992l82.1-211.379
						c9.717-25.042,34.043-38.872,60.537-34.382c26.489,4.475,44.932,25.52,45.889,52.368l8.027,225.557
						c0.405,11.326-4.507,22.097-13.14,28.809C2078.262,1476.891,2050.957,1484.389,2022.041,1484.389z M2045.693,1183.317
						c-9.38,0-20.225,4.458-25.293,17.51l-82.1,211.382c0,0.002,0,0.002,0,0.002c-0.806,2.073-0.688,4.385,0.313,6.345
						c11.597,22.639,38.394,31.575,53.33,34.885c32.188,7.134,68.77,2.034,86.973-12.134c1.616-1.255,2.559-3.54,2.471-5.972
						l-8.027-225.557c-0.586-16.487-12.666-24.343-22.832-26.06C2048.989,1183.459,2047.363,1183.317,2045.693,1183.317z
						 M1925.4,1407.199h0.049H1925.4z"/>
				</g>
				<g>
					<path style="fill:#000072;" d="M2034.419,1541.2c-13.999,0-28.55-1.221-43.228-3.691
						c-36.396-6.108-69.565-19.185-93.398-36.819c-26.064-19.287-38.374-42.092-34.653-64.216c1.05-6.282,7.021-10.522,13.281-9.463
						c6.284,1.055,10.522,7.004,9.463,13.286c-2.173,12.935,7.168,28.188,25.63,41.848c20.967,15.513,50.615,27.095,83.496,32.617
						c32.886,5.515,64.697,4.26,89.57-3.545c21.909-6.877,35.723-18.242,37.891-31.177c1.055-6.284,7.021-10.552,13.286-9.465
						c6.284,1.055,10.522,7.002,9.468,13.284c-3.716,22.124-22.798,39.656-53.735,49.368
						C2074.614,1538.525,2055.122,1541.2,2034.419,1541.2z"/>
				</g>
			</g>
			<g>
				<g>
					<path style="fill:#F23300;" d="M1891.307,1475.548l-104.822,624.002c-6.122,36.444-69.137,56.219-140.751,44.19
						c-71.614-12.03-124.708-51.31-118.587-87.754l104.822-624.002c6.122-36.444,69.137-56.219,140.751-44.19
						C1844.334,1399.824,1897.429,1439.104,1891.307,1475.548z"/>
				</g>
				<g>
					<path style="fill:#FFFFFF;" d="M1864.042,1637.947c-6.121,36.435-69.137,56.219-140.751,44.19
						c-71.614-12.03-124.707-51.319-118.586-87.754l-16.138,96.068c-6.12,36.435,46.973,75.724,118.587,87.754
						c71.614,12.03,134.63-7.754,140.751-44.19"/>
				</g>
				<g style="opacity:0.3;">
					<path style="fill:#000072;" d="M1683.744,2147.224c-12.181-0.175-24.952-1.291-38.01-3.485
						c-71.614-12.03-124.708-51.31-118.587-87.754l104.822-624.002c6.122-36.444,69.137-56.219,140.751-44.19
						c13.058,2.193,25.492,5.312,37.062,9.126c-54.699-0.768-97.735,17.873-102.741,47.674l-104.822,624.002
						C1597.213,2098.397,1631.796,2130.077,1683.744,2147.224z"/>
				</g>
				<g style="opacity:0.6;">
					<path style="fill:#FFFFFF;" d="M1891.307,1475.548l-104.822,624.002c-6.122,36.444-69.137,56.219-140.751,44.19
						c-5.141-0.864-10.169-1.849-15.074-3c65.112,7.009,119.792-12.437,125.478-46.287l104.822-624.002
						c5.686-33.851-39.638-70.094-103.467-84.746c5.013,0.515,10.086,1.227,15.227,2.09
						C1844.334,1399.824,1897.429,1439.104,1891.307,1475.548z"/>
				</g>
				<g>
					<path style="fill:#000072;" d="M1686.807,2161.103c-13.843,0-28.403-1.201-43.369-3.716
						c-80.361-13.501-137.441-59.048-129.937-103.696l104.819-623.999c3.867-23.025,23.516-41.201,55.322-51.187
						c28.623-8.987,64.614-10.535,101.372-4.36c36.748,6.172,70.269,19.399,94.385,37.244c26.797,19.829,39.429,43.43,35.557,66.453
						l-104.824,624.004C1794.028,2138.178,1747.305,2161.103,1686.807,2161.103z M1731.299,1398.085
						c-18.062,0-34.907,2.292-49.37,6.831c-21.05,6.609-34.287,17.31-36.313,29.36l-104.819,624.004
						c-4.155,24.746,38.857,60.322,107.231,71.812c68.389,11.489,120.649-8.086,124.81-32.837l104.824-623.999l0,0
						c2.021-12.051-6.987-26.489-24.727-39.614c-20.679-15.3-49.98-26.733-82.51-32.197
						C1757.065,1399.198,1743.887,1398.085,1731.299,1398.085z"/>
				</g>
				<g>
					<path style="fill:#000072;" d="M1764.551,1697.211c-13.77,0-28.262-1.191-43.169-3.701
						c-36.396-6.113-69.565-19.189-93.394-36.826c-26.064-19.287-38.374-42.09-34.653-64.209c1.05-6.284,7.021-10.552,13.281-9.463
						c6.284,1.055,10.522,7.002,9.463,13.281c-2.173,12.935,7.168,28.188,25.63,41.846c20.962,15.518,50.615,27.1,83.491,32.627
						c69.702,11.689,123.125-8.901,127.471-34.727c1.05-6.284,7.017-10.557,13.281-9.463c6.284,1.055,10.522,7.002,9.463,13.281
						C1869.502,1675.053,1823.823,1697.211,1764.551,1697.211z"/>
				</g>
				<g>
					<path style="fill:#000072;" d="M1748.413,1793.276c-13.77,0-28.262-1.191-43.169-3.701
						c-36.396-6.108-69.565-19.189-93.398-36.826c-26.06-19.287-38.369-42.09-34.648-64.209c1.05-6.279,7.021-10.557,13.281-9.463
						c6.284,1.055,10.522,7.002,9.463,13.281c-2.173,12.935,7.168,28.188,25.63,41.851c20.962,15.513,50.615,27.1,83.491,32.617
						c69.707,11.719,123.13-8.896,127.471-34.722c1.05-6.284,7.017-10.562,13.281-9.463c6.284,1.055,10.522,7.002,9.463,13.281
						C1853.364,1771.117,1807.686,1793.276,1748.413,1793.276z"/>
				</g>
				<g>
					<path style="fill:#F23300;" d="M1681.465,1409.097l82.096-211.381c16.234-41.8,78.098-31.344,79.694,13.469l8.03,225.555
						c0.238,6.694-2.516,13.276-7.803,17.389c-38.101,29.64-134.295,25.017-161.12-27.362
						C1679.552,1421.282,1679.234,1414.842,1681.465,1409.097z"/>
				</g>
				<g style="opacity:0.3;">
					<path style="fill:#000072;" d="M1825.791,1463.981c-44.476,17.744-120.128,8.311-143.453-37.197
						c-2.769-5.517-3.094-11.934-0.865-17.688l82.101-211.368c9.824-25.343,36.447-31.49,56.2-22.371
						c-3.577,3.749-6.557,8.395-8.71,13.975l-82.101,211.368c-2.23,5.754-1.904,12.171,0.865,17.688
						C1745.966,1449.87,1787.223,1464.099,1825.791,1463.981z"/>
				</g>
				<g style="opacity:0.6;">
					<path style="fill:#FFFFFF;" d="M1843.491,1454.136c-30.885,24.004-100.005,25.538-139.325-2.727
						c38.12,11.737,84.825,6.624,108.718-11.958c5.276-4.119,8.068-10.714,7.834-17.397l-8.054-225.53
						c-0.389-10.217-3.882-18.663-9.259-25.087c19.757,0.746,38.973,15.015,39.867,39.772l8.009,225.523
						C1851.514,1443.414,1848.768,1450.017,1843.491,1454.136z"/>
				</g>
				<g>
					<path style="fill:#000072;" d="M1778.105,1486.288c-11.948,0-24.16-1.279-36.099-3.926
						c-33.989-7.537-59.546-25.042-71.963-49.287c-4.604-8.984-5.146-19.553-1.479-28.992l82.095-211.377
						c9.722-25.042,34.004-38.862,60.547-34.385c26.484,4.478,44.927,25.522,45.884,52.371l8.027,225.554
						c0.405,11.323-4.507,22.095-13.14,28.809C1834.326,1478.788,1807.026,1486.286,1778.105,1486.288z M1801.758,1185.217
						c-9.38,0-20.229,4.458-25.298,17.51l-82.095,211.379c0,0.002,0,0.002,0,0.002c-0.806,2.073-0.688,4.385,0.313,6.345
						c11.592,22.637,38.384,31.572,53.325,34.885c32.178,7.136,68.77,2.031,86.982-12.134c1.606-1.252,2.554-3.54,2.466-5.972
						l-8.027-225.554c-0.586-16.487-12.666-24.343-22.832-26.062C1805.054,1185.358,1803.428,1185.217,1801.758,1185.217z
						 M1681.465,1409.096h0.049H1681.465z"/>
				</g>
				<g>
					<path style="fill:#000072;" d="M1790.425,1543.11c-13.774,0-28.267-1.191-43.174-3.701
						c-36.396-6.113-69.565-19.189-93.394-36.821c-26.064-19.287-38.374-42.092-34.653-64.216c1.05-6.282,7.012-10.522,13.281-9.463
						c6.284,1.055,10.522,7.004,9.463,13.286c-2.173,12.937,7.168,28.191,25.63,41.851c20.962,15.51,50.615,27.095,83.491,32.617
						c69.712,11.707,123.125-8.901,127.471-34.727c1.05-6.282,7.007-10.503,13.281-9.463c6.284,1.055,10.522,7.004,9.463,13.286
						C1895.371,1520.951,1849.692,1543.11,1790.425,1543.11z"/>
				</g>
			</g>
			<g>
				<path style="fill:#FC2B4A;" d="M2903.281,1501.084l-123.827,737.056l-129.409,770.412l-16.24,1.43l-1227.75,107.726
					l131.762-784.345l55.224-328.806l62.144-370.05c0,0,86.734-15.086,131.162,54.763c56.239,110.078,61.544,248.254,179.881,272.29
					c15.778,3.183,31.972,3.599,48.027,2.122l446.912-41.66c45.535-4.244,89.133-21.545,124.335-50.841
					c4.244-3.552,8.35-7.197,12.318-10.842c32.433-30.126,57.623-67.219,75.155-107.864l60.253-139.605
					C2784.99,1481.199,2903.281,1501.084,2903.281,1501.084z"/>
				<path style="fill:#000072;" d="M1403.052,3120.483l0.537-3.188l249.424-1484.946l1.743-0.303
					c0.884-0.166,88.896-14.551,133.701,55.884c16.167,31.626,28.081,65.298,39.604,97.866
					c28.457,80.425,55.332,156.392,138.667,173.315c14.546,2.93,30.454,3.638,47.295,2.08l446.909-41.66
					c46.089-4.292,88.608-21.675,122.969-50.273c3.901-3.267,7.905-6.787,12.227-10.757c31.431-29.194,56.519-65.205,74.551-107.017
					l60.254-139.604c51.875-131.956,171.558-113.459,172.764-113.262l2.466,0.415l-124.243,739.521l-129.731,772.319l-18.164,1.602
					L1403.052,3120.483z M1657.349,1636.723l-248.291,1478.213L2647.9,3006.235l252.485-1502.996
					c-17.183-1.812-118.569-7.136-164.829,110.544l-60.288,139.683c-18.311,42.451-43.794,79.028-75.752,108.706
					c-4.385,4.033-8.442,7.603-12.407,10.923c-35.146,29.248-78.613,47.026-125.708,51.416l-446.914,41.66
					c-17.329,1.592-33.73,0.869-48.75-2.158c-86.113-17.49-113.447-94.756-142.388-176.553
					c-11.47-32.412-23.325-65.928-39.229-97.051C1744.619,1628.324,1669.692,1635.131,1657.349,1636.723z"/>
			</g>
			<g style="opacity:0.6;">
				<path style="fill:#FFFFFF;" d="M2903.281,1501.084l-123.827,737.056l-129.409,770.412l-1243.99,109.156l0.738-4.522
					l1192.503-104.635l129.41-770.412l123.365-734.38C2881.274,1497.393,2903.281,1501.084,2903.281,1501.084z"/>
			</g>
			<g>
				<path style="fill:#FFB717;" d="M2903.281,1501.084l-123.827,737.056l-1232.503,94.531l-9.135,0.692l117.368-698.856
					c0,0,86.734-15.086,131.162,54.763c56.239,110.078,61.544,248.254,179.881,272.29c15.778,3.183,31.972,3.599,48.027,2.122
					l446.912-41.66c45.535-4.244,89.133-21.545,124.335-50.841c4.244-3.552,8.35-7.197,12.318-10.842
					c32.433-30.126,57.623-67.219,75.155-107.864l60.253-139.605c41.66-105.972,126.41-113.769,157.921-112.754
					C2898.76,1500.346,2903.281,1501.084,2903.281,1501.084z"/>
				<path style="fill:#000072;" d="M1534.824,2336.098l0.527-3.149l117.661-700.601l1.743-0.303
					c0.884-0.166,88.896-14.551,133.701,55.884c16.167,31.626,28.081,65.298,39.604,97.866
					c28.457,80.425,55.332,156.387,138.667,173.315c14.546,2.93,30.454,3.638,47.295,2.08l446.909-41.66
					c46.089-4.292,88.608-21.675,122.974-50.273c3.896-3.267,7.896-6.787,12.222-10.757c31.431-29.194,56.519-65.205,74.551-107.017
					l60.254-139.604c41.836-106.426,126.011-115.374,160.293-114.263c7.686,0.232,12.266,0.969,12.456,0.999l2.48,0.405
					l-0.415,2.478l-124.15,738.984l-1.953,0.146L1534.824,2336.098z M1657.349,1636.723l-116.538,693.906l5.952-0.454
					l1230.547-94.38l123.076-732.561c-2.026-0.22-5.22-0.496-9.316-0.62c-33.301-1.084-114.814,7.634-155.518,111.169
					l-60.283,139.683c-18.311,42.451-43.794,79.028-75.752,108.706c-4.385,4.033-8.442,7.603-12.407,10.923
					c-35.146,29.248-78.613,47.026-125.708,51.416l-446.914,41.66c-17.314,1.592-33.721,0.874-48.75-2.158
					c-86.113-17.49-113.447-94.756-142.388-176.553c-11.47-32.412-23.325-65.928-39.229-97.051
					C1744.658,1628.388,1669.702,1635.151,1657.349,1636.723z"/>
			</g>
			<g style="opacity:0.6;">
				<path style="fill:#FFFFFF;" d="M1654.953,1635.798l0.231-1.291c0,0,86.734-15.086,131.162,54.763
					c56.239,110.078,61.544,248.254,179.881,272.29c2.445,0.508,4.89,0.922,7.335,1.292l-8.95,0.83
					c-16.055,1.477-32.249,1.061-48.027-2.122c-118.337-24.036-123.642-162.212-179.881-272.29
					C1714.606,1654.576,1682.081,1640.828,1654.953,1635.798z"/>
			</g>
			<g style="opacity:0.6;">
				<path style="fill:#FFFFFF;" d="M2903.281,1501.084l-123.827,737.056l-1232.503,94.531l0.507-3.183l1191.35-91.348
					l123.412-734.611c10.934-2.307,20.853-3.229,28.927-3.414C2898.76,1500.346,2903.281,1501.084,2903.281,1501.084z"/>
			</g>
			<g>
				<path style="fill:#000072;" d="M1537.773,2347.201c-7.163,0-13.228-5.522-13.784-12.783
					c-0.586-7.622,5.117-14.277,12.739-14.858l1241.675-95.22c7.642-0.596,14.277,5.117,14.858,12.739
					c0.586,7.622-5.117,14.277-12.739,14.858l-1241.675,95.22C1538.486,2347.187,1538.13,2347.201,1537.773,2347.201z"/>
			</g>
			<g>
				<path style="fill:#000072;" d="M1406.011,3133.857c-8.281,0-15.327-6.333-16.064-14.736
					c-0.781-8.882,5.791-16.719,14.673-17.495l1231.572-108.052l248.193-1477.517c-31.46,0.325-100.469,12.019-136.113,102.712
					c-0.063,0.161-0.132,0.327-0.205,0.488l-60.254,139.609c-19.063,44.17-45.645,82.285-79.019,113.301
					c-4.282,3.979-8.647,7.827-12.974,11.431c-37.212,30.991-83.262,49.834-133.169,54.487l-446.919,41.665
					c-18.643,1.738-36.387,0.942-52.715-2.378c-93.672-19.009-123.594-103.564-152.529-185.342
					c-11.24-31.758-22.856-64.59-38.179-94.727c-38.315-59.351-113.594-47.041-114.355-46.909
					c-8.799,1.509-17.148-4.355-18.672-13.145c-1.528-8.789,4.36-17.148,13.145-18.672c3.989-0.693,97.915-16.001,147.534,62.017
					c0.269,0.43,0.522,0.869,0.752,1.318c16.475,32.231,28.545,66.353,40.22,99.346c28.311,80,52.759,149.092,128.511,164.463
					c13.228,2.681,27.788,3.325,43.291,1.87l446.919-41.665c43.384-4.043,83.32-20.347,115.498-47.139
					c3.877-3.232,7.803-6.689,11.66-10.273c30.068-27.949,54.077-62.417,71.353-102.441l60.146-139.37
					c55.942-141.907,186.338-121.77,187.642-121.55c8.794,1.479,14.727,9.805,13.247,18.601l-253.232,1507.49
					c-1.216,7.251-7.183,12.769-14.512,13.408l-1244.014,109.141C1406.963,3133.837,1406.484,3133.857,1406.011,3133.857z"/>
			</g>
			<g style="opacity:0.2;">
				<path style="fill:#000072;" d="M2492.01,2959.055c7.148,2.023,6.207,12.414-1.193,13.066l0,0l-1001.994,87.921
					c-12.852,1.127-23.306-10.186-21.169-22.909l116.791-695.311l41.592-247.69c1.776-10.576,16.809-10.844,19.038-0.354
					c57.493,270.578,184.067,480.105,374.933,632.719C2148.65,2829.429,2306.469,2906.527,2492.01,2959.055z"/>
			</g>
			<g>
				<polygon style="fill:#FC2B4A;" points="1368.215,1653.331 1183.757,1772.047 1111.572,1282.748 1329.697,933.441 				"/>
				<path style="fill:#000072;" d="M1181.846,1776.244l-72.881-494.041l0.488-0.779l222.319-356.023l0.42,7.905l38.594,721.34
					L1181.846,1776.244z M1114.18,1283.293l71.484,484.553l179.976-115.835l-38.018-710.53L1114.18,1283.293z"/>
			</g>
			<g style="opacity:0.3;">
				<polygon style="fill:#000072;" points="1349.617,1764.042 1183.757,1772.047 1361.821,1657.446 				"/>
			</g>
			<g style="opacity:0.3;">
				<polygon style="fill:#000072;" points="1368.215,1653.331 1183.757,1772.047 1111.572,1282.748 1329.697,933.441 				"/>
			</g>
			<g>
				<path style="fill:#000072;" d="M1183.755,1788.193c-2.271,0-4.546-0.479-6.675-1.445c-4.995-2.266-8.501-6.919-9.302-12.344
					l-72.183-489.299c-0.557-3.792,0.249-7.659,2.28-10.908l218.125-349.307c3.73-5.977,10.898-8.85,17.729-7.083
					c6.821,1.758,11.714,7.737,12.09,14.773l38.516,719.885c0.313,5.791-2.51,11.304-7.383,14.443l-184.458,118.716
					C1189.849,1787.328,1186.807,1788.193,1183.755,1788.193z M1128.413,1286.266l67.661,458.65l155.513-100.088l-35.283-659.456
					L1128.413,1286.266z"/>
			</g>
			<g>
				<path style="fill:#000072;" d="M1183.74,1788.193c-8.56,0-15.698-6.729-16.113-15.371c-0.43-8.906,6.44-16.475,15.352-16.904
					l165.864-8.003c8.779-0.449,16.475,6.445,16.904,15.352s-6.44,16.475-15.352,16.904l-165.864,8.003
					C1184.268,1788.188,1184.004,1788.193,1183.74,1788.193z"/>
			</g>
			<g>
				<polygon style="fill:#FC2B4A;" points="1655.184,1634.507 1537.816,2333.317 1406.054,3117.708 1172.287,2819.583 
					1338.189,1832.012 1414.312,1378.825 				"/>
				<path style="fill:#000072;" d="M1407.583,3123.71l-237.944-303.452l0.181-1.089l242.861-1445.723l245.176,260.249l-0.205,1.226
					L1407.583,3123.71z M1174.932,2818.91l229.595,292.798l247.988-1476.392l-236.572-251.113L1174.932,2818.91z"/>
			</g>
			<g>
				<polygon style="fill:#FFB717;" points="1655.184,1634.507 1537.816,2333.317 1537.77,2333.363 1338.189,1832.012 
					1414.312,1378.825 				"/>
				<path style="fill:#000072;" d="M1536.821,2337.577l-1.377-3.291l-199.839-502.002l0.117-0.688l76.958-458.149l245.176,260.249
					l-0.205,1.226l-117.515,699.673L1536.821,2337.577z M1340.771,1831.738l196.04,492.466l115.703-688.887l-236.572-251.113
					L1340.771,1831.738z"/>
			</g>
			<g>
				<path style="fill:#000072;" d="M1406.03,3133.857c-4.888,0-9.604-2.222-12.71-6.187L1159.6,2829.55
					c-2.803-3.569-3.97-8.159-3.218-12.637l242.021-1440.762c1.016-6.045,5.366-10.996,11.235-12.776
					c5.845-1.787,12.231-0.088,16.44,4.38l240.864,255.657c3.467,3.677,5.01,8.765,4.17,13.75l-249.16,1483.223
					c-1.06,6.309-5.742,11.396-11.938,12.974C1408.691,3133.696,1407.354,3133.857,1406.03,3133.857z M1189.409,2815.234
					l206.758,263.721l241.772-1439.233l-213.076-226.16L1189.409,2815.234z"/>
			</g>
			<g>
				<path style="fill:#000072;" d="M1537.793,2347.201c-5.503,0-10.703-3.301-12.866-8.726l-199.59-501.343
					c-2.827-7.1,0.64-15.146,7.744-17.979c7.075-2.808,15.142,0.64,17.979,7.744l199.59,501.343c2.827,7.1-0.64,15.146-7.744,17.979
					C1541.23,2346.884,1539.497,2347.201,1537.793,2347.201z"/>
			</g>
			<g style="opacity:0.3;">
				<polygon style="fill:#000072;" points="1655.184,1634.507 1537.816,2333.317 1406.054,3117.708 1172.287,2819.583 
					1338.189,1832.012 1414.312,1378.825 				"/>
			</g>
		</g>
		<g style="opacity:0.3;">
			<ellipse style="fill:#000072;" cx="1867.115" cy="3498.043" rx="766.917" ry="110.725"/>
		</g>
	</g>
</g>
</svg>
