<?xml version="1.0" encoding="utf-8"?>
<!-- Generator: Adobe Illustrator 27.5.0, SVG Export Plug-In . SVG Version: 6.00 Build 0)  -->
<svg version="1.1" id="Layer_1" xmlns="http://www.w3.org/2000/svg" xmlns:xlink="http://www.w3.org/1999/xlink" x="0px" y="0px"
	 viewBox="0 0 4000 4000" style="enable-background:new 0 0 4000 4000;" xml:space="preserve">
<g>
	<g>
		<g>
			<!-- <rect style="fill:#BCFA7B;" width="4000" height="4000"/> -->
		</g>
	</g>
	<g>
		<g style="opacity:0.25;">
			<g>
				<ellipse style="fill:#35374D;" cx="2020" cy="3445.335" rx="1100" ry="224.541"/>
			</g>
		</g>
		<g>
			<g>
				<g>
					<g>
						<g>
							<path style="fill:#6C6A74;" d="M2131.009,3003.821c60.55,28.463,116.202,61.389,164.341,101.161
								c11.107,9.176,17.86,22.593,18.886,36.963l13.561,189.858l329.584-12.453l-72.245-683.877L2131.009,3003.821z"/>
						</g>
					</g>
					<g>
						<g>
							<path style="fill:#585463;" d="M2131.009,3003.821c60.55,28.463,116.202,61.389,164.341,101.161
								c11.107,9.176,17.86,22.593,18.886,36.963l13.561,189.858l329.584-12.453l-72.245-683.877L2131.009,3003.821z"/>
						</g>
					</g>
					<g>
						<g>
							<path style="fill:#35374D;" d="M2327.783,3351.986c-10.537,0-19.36-8.147-20.117-18.745l-13.56-189.858
								c-0.64-8.948-4.868-17.273-11.611-22.842c-43.848-36.228-96.211-68.433-160.073-98.452
								c-6.284-2.957-10.61-8.936-11.445-15.83c-0.84-6.895,1.924-13.735,7.319-18.113l454.126-368.35
								c5.742-4.661,13.584-5.806,20.425-2.976c6.841,2.827,11.582,9.172,12.363,16.531l72.246,683.877
								c0.586,5.559-1.157,11.113-4.819,15.337c-3.657,4.226-8.906,6.743-14.492,6.953l-329.585,12.454
								C2328.301,3351.981,2328.042,3351.986,2327.783,3351.986z M2168.296,2999.567c54.248,27.524,100.234,57.075,139.912,89.856
								c15.205,12.563,24.741,31.184,26.162,51.086l12.168,170.388l288.506-10.901l-66.074-625.425L2168.296,2999.567z"/>
						</g>
					</g>
					<g>
						<g>
							<g>
								<path style="fill:#85808C;" d="M2374.004,3288.928c0,0-98.713,24.254-90.162,82.643
									c3.651,24.93,22.686,42.564,70.359,33.433c36.555-7.002,76.038-16.93,115.158,5.201
									c22.005,12.448,51.618,44.364,83.18,58.878c24.549,11.289,58.224,12.383,74.524-15.059c0,0,49.308,23.901,66.831-19.032
									c0,0,47.678,2.877,42.177-45.811c-5.625-49.778-132.052-117.947-194.68-117.928
									C2491.254,3271.267,2374.004,3288.928,2374.004,3288.928z"/>
							</g>
						</g>
						<g>
							<g>
								<path style="fill:#85808C;" d="M2283.838,3371.56c3.664,24.946,22.692,42.575,70.36,33.461
									c36.559-7.017,76.033-16.945,115.153,5.177c22.022,12.452,51.608,44.373,83.203,58.879
									c24.543,11.296,58.226,12.409,74.496-15.062c0,0,49.323,23.919,66.854-19.042c0,0,47.668,2.91,42.153-45.785
									c-0.748-6.633-3.624-13.564-8.273-20.667c-7.682,27.771-40.971,25.76-40.971,25.76
									c-17.531,42.918-66.854,19.041-66.854,19.041c-16.27,27.428-49.953,26.316-74.497,15.062
									c-31.595-14.549-61.181-46.469-83.203-58.879c-39.12-22.165-78.594-12.238-115.152-5.22
									c-32.698,6.247-51.923-0.086-61.929-12.709C2283.365,3357.739,2282.775,3364.371,2283.838,3371.56z"/>
							</g>
						</g>
						<g>
							<g>
								<path style="fill:#35374D;" d="M2584.961,3494.056c-13.75,0-27.661-3.347-39.8-8.928
									c-20.61-9.478-39.58-24.917-56.313-38.54c-10.503-8.55-20.425-16.624-28.184-21.013
									c-30.757-17.397-62.217-11.233-95.518-4.709l-7.622,1.484c-29.189,5.586-52.202,2.603-68.359-8.887
									c-12.441-8.843-20.322-22.444-22.798-39.331c-10.752-73.428,98.755-101.206,103.423-102.354
									c0.522-0.127,1.05-0.232,1.582-0.313c4.844-0.73,119.141-17.859,170.015-17.876c0.005,0,0.02,0,0.024,0
									c68.545,0,205.112,70.762,212.212,133.608c2.813,24.907-5.815,39.851-13.555,48c-10.85,11.433-25.049,15.461-35.088,16.826
									c-6.563,10.522-15.64,18.176-26.694,22.412c-16.411,6.292-33.53,3.804-45.107,0.557
									C2620.132,3488.5,2602.676,3494.056,2584.961,3494.056z M2415.503,3378.91c20.283,0,41.299,3.901,62.554,15.923
									c10.352,5.857,21.396,14.846,33.086,24.363c15.112,12.297,32.236,26.235,48.774,33.843
									c13.77,6.328,40.205,11.76,51.963-8.035c4.688-7.891,14.634-10.879,22.891-6.873c4.902,2.307,20.19,7.485,30.972,3.286
									c3.296-1.282,8.105-4.036,11.802-13.101c2.861-7.007,9.756-11.372,17.417-10.955c3.472,0.159,14.146-0.735,19.575-6.57
									c3.672-3.94,5.015-10.544,3.989-19.629c-4.106-36.326-118.301-102.251-177.109-102.251c-0.005,0-0.015,0-0.02,0
									c-45.923,0.015-152.676,15.686-163.823,17.341c-7.871,2.151-81.992,23.594-76.255,62.759
									c1.074,7.327,3.789,12.451,8.311,15.664c7.891,5.61,22.158,6.646,41.255,2.981l7.471-1.453
									C2376.372,3382.675,2395.586,3378.91,2415.503,3378.91z"/>
							</g>
						</g>
						<g>
							<g>
								<path style="fill:#35374D;" d="M2549.639,3355.984c42.764,17.19,96.235,47.116,93.507,100.905
									c-0.187,9.54-8.35,17.135-17.914,16.324c-9.106-0.735-15.894-8.711-15.159-17.817c2.262-9.239,4.782-17.616,1.059-28.54
									C2601.322,3397.197,2574.75,3374.018,2549.639,3355.984L2549.639,3355.984z"/>
							</g>
						</g>
						<g>
							<g>
								<path style="fill:#35374D;" d="M2610.764,3333.191c37.153,15.78,86.819,39.836,98.592,82.389
									c3.741,14.8,1.624,42.56-20.163,38.431c-8.916-2.063-14.472-10.962-12.409-19.878c0.334-1.445,0.891-2.874,1.555-4.124
									c3.88-7.055,3.252-15.245,0.435-23.323C2666.37,3376.032,2637.319,3352.484,2610.764,3333.191L2610.764,3333.191z"/>
							</g>
						</g>
					</g>
				</g>
				<g>
					<g>
						<g>
							<path style="fill:#6C6A74;" d="M1883.761,3003.821c-60.55,28.463-116.202,61.389-164.341,101.161
								c-11.107,9.176-17.86,22.593-18.886,36.963l-13.561,189.858l-329.584-12.453l72.245-683.877L1883.761,3003.821z"/>
						</g>
					</g>
					<g>
						<g>
							<path style="fill:#585463;" d="M1883.761,3003.821c-60.55,28.463-116.202,61.389-164.341,101.161
								c-11.107,9.176-17.86,22.593-18.886,36.963l-13.561,189.858l-329.584-12.453l72.245-683.877L1883.761,3003.821z"/>
						</g>
					</g>
					<g>
						<g>
							<path style="fill:#35374D;" d="M1686.987,3351.986c-0.259,0-0.518-0.005-0.776-0.015l-329.585-12.454
								c-5.586-0.21-10.835-2.727-14.492-6.953c-3.662-4.224-5.405-9.778-4.819-15.337l72.246-683.877
								c0.781-7.358,5.522-13.704,12.363-16.531c6.831-2.83,14.678-1.685,20.425,2.976l454.126,368.35
								c5.396,4.377,8.159,11.218,7.319,18.113c-0.835,6.895-5.161,12.874-11.445,15.83
								c-63.862,30.02-116.226,62.224-160.073,98.452c-6.738,5.569-10.972,13.896-11.611,22.847l-13.56,189.854
								C1706.347,3343.837,1697.519,3351.986,1686.987,3351.986z M1379.726,3299.996l288.506,10.901l12.168-170.391
								c1.426-19.905,10.962-38.521,26.162-51.082c39.678-32.783,85.664-62.334,139.912-89.858l-400.674-324.995L1379.726,3299.996z
								"/>
						</g>
					</g>
					<g>
						<g>
							<g>
								<path style="fill:#85808C;" d="M1640.766,3288.928c0,0,98.714,24.254,90.162,82.643
									c-3.651,24.93-22.686,42.564-70.359,33.433c-36.555-7.002-76.038-16.93-115.158,5.201
									c-22.005,12.448-51.618,44.364-83.18,58.878c-24.549,11.289-58.224,12.383-74.524-15.059c0,0-49.308,23.901-66.831-19.032
									c0,0-47.678,2.877-42.177-45.811c5.624-49.778,132.052-117.947,194.68-117.928
									C1523.517,3271.267,1640.766,3288.928,1640.766,3288.928z"/>
							</g>
						</g>
						<g>
							<g>
								<path style="fill:#85808C;" d="M1730.932,3371.56c-3.664,24.946-22.692,42.575-70.36,33.461
									c-36.559-7.017-76.033-16.945-115.153,5.177c-22.022,12.452-51.608,44.373-83.203,58.879
									c-24.543,11.296-58.226,12.409-74.496-15.062c0,0-49.323,23.919-66.854-19.042c0,0-47.668,2.91-42.153-45.785
									c0.748-6.633,3.624-13.564,8.273-20.667c7.682,27.771,40.971,25.76,40.971,25.76c17.531,42.918,66.854,19.041,66.854,19.041
									c16.27,27.428,49.953,26.316,74.497,15.062c31.595-14.549,61.181-46.469,83.203-58.879
									c39.12-22.165,78.594-12.238,115.153-5.22c32.698,6.247,51.923-0.086,61.929-12.709
									C1731.405,3357.739,1731.996,3364.371,1730.932,3371.56z"/>
							</g>
						</g>
						<g>
							<g>
								<path style="fill:#35374D;" d="M1429.336,3494.323c-17.666,0-34.839-5.671-47.808-19.312
									c-11.582,3.24-28.657,5.703-45.044-0.574c-11.055-4.236-20.132-11.89-26.694-22.412
									c-10.039-1.365-24.238-5.393-35.088-16.829c-7.734-8.149-16.367-23.093-13.55-47.998
									c7.095-62.842,143.657-133.608,212.202-133.608c0.015,0,0.015,0,0.029,0c50.874,0.017,165.171,17.146,170.015,17.876
									c0.532,0.081,1.06,0.186,1.582,0.313c4.668,1.147,114.18,28.928,103.423,102.354c-2.476,16.887-10.356,30.488-22.798,39.331
									c-16.162,11.489-39.165,14.47-68.359,8.887l-7.622-1.484c-33.296-6.521-64.756-12.686-95.518,4.709
									c-7.759,4.39-17.681,12.463-28.184,21.013c-16.733,13.623-35.703,29.063-56.313,38.54
									C1457.055,3490.9,1443.047,3494.323,1429.336,3494.323z M1387.661,3436.393c6.069,0,11.953,3.101,15.229,8.608
									c11.748,19.795,38.188,14.365,51.963,8.037c16.538-7.607,33.662-21.545,48.774-33.843
									c11.69-9.517,22.734-18.506,33.086-24.363c42.119-23.831,83.335-15.754,119.702-8.628l7.471,1.453
									c19.092,3.66,33.359,2.627,41.255-2.981c4.521-3.213,7.236-8.337,8.311-15.667c5.737-39.163-68.384-60.605-76.255-62.756
									c-11.147-1.655-117.9-17.327-163.823-17.341c-0.005,0-0.02,0-0.024,0c-58.804,0-172.998,65.923-177.1,102.251
									c-1.035,9.15,0.337,15.784,4.072,19.719c5.645,5.952,16.914,6.631,19.487,6.479c7.607-0.454,14.56,3.955,17.417,10.955
									c3.696,9.065,8.506,11.819,11.802,13.101c10.786,4.207,26.074-0.977,31.055-3.325
									C1382.519,3436.942,1385.107,3436.393,1387.661,3436.393z"/>
							</g>
						</g>
						<g>
							<g>
								<path style="fill:#35374D;" d="M1465.132,3355.984c-25.101,18.021-51.691,41.222-61.495,70.871
									c-2.775,8.919-2.358,17.286,0.15,24.302c3.074,8.604-1.409,18.071-10.012,21.145c-10.497,3.953-22.096-4.287-22.148-15.413
									C1368.908,3403.088,1422.354,3373.188,1465.132,3355.984L1465.132,3355.984z"/>
							</g>
						</g>
						<g>
							<g>
								<path style="fill:#35374D;" d="M1404.006,3333.191c-26.542,19.279-55.616,42.852-68.011,73.495
									c-2.817,8.074-3.445,16.275,0.435,23.323c4.341,8.057,1.326,18.108-6.731,22.446c-8.059,4.341-18.108,1.326-22.449-6.731
									c-4.094-9.324-3.969-20.782-1.836-30.144C1317.199,3373.019,1366.821,3348.991,1404.006,3333.191L1404.006,3333.191z"/>
							</g>
						</g>
					</g>
				</g>
			</g>
			<g>
				<g>
					<g>
						<path style="fill:#6C6A74;" d="M2689.251,1979.509c26.895,358.711-46.523,732.156-275.051,868.596
							c-0.051,0.051-0.051,0.051-0.051,0.051c-24.472,14.583-50.66,26.44-78.716,35.321c-4.793,1.514-9.637,2.977-14.532,4.289
							c-63.931,96.729-146.33,150.619-249.266,157.128c-0.151,0.051-0.353,0.051-0.605,0.051c-3.784,0.252-7.569,0.404-11.404,0.505
							c-3.481,0.101-6.963,0.151-10.495,0.151c-2.725,0-5.449-0.051-8.225-0.101c-7.417-0.252-14.936-0.656-22.605-1.312
							c-0.807,0.05-1.665,0.151-2.473,0.202c-11.252,0.908-22.303,1.312-33.101,1.16c-111.261-1.16-199.463-55.555-267.078-157.784
							c-12.161-3.33-23.968-7.165-35.473-11.555c-32.899-12.564-63.073-29.468-90.725-50.156
							c-202.693-151.376-267.734-505.596-242.151-846.546"/>
					</g>
				</g>
				<g>
					<g>
						<ellipse style="fill:#585463;" cx="2020" cy="2199.004" rx="782.11" ry="325.459"/>
					</g>
				</g>
				<g>
					<g>
						<path style="fill:#B2AFB5;" d="M2552.424,2547.926c-12.917-102.582-100.413-182.61-211.927-200.069
							c-121.505-19.073-253.656,25.683-322.229,122.564c-70.188-99.151-206.931-143.656-330.757-121.151
							c-104.803,19.074-187.454,94.51-202.339,191.138c-12.06,78.009,10.445,163.335,58.028,225.046
							c14.179,20.89,30.83,41.931,49.954,60.601c27.651,20.688,57.826,37.592,90.725,50.156c11.505,4.39,23.312,8.225,35.472,11.555
							c67.615,102.229,155.817,156.624,267.078,157.784c9.991-0.101,20.133-0.555,30.427-1.362c0.908,0.05,1.816,0.151,2.674,0.202
							c8.477,0.605,16.853,1.009,25.078,1.11c2.775,0.05,5.5,0.101,8.225,0.101c3.532,0,7.014-0.051,10.495-0.151
							c3.835-0.101,7.619-0.252,11.404-0.505c0.252,0,0.454,0,0.605-0.05c102.936-6.509,185.335-60.399,249.266-157.128
							c4.894-1.312,9.739-2.775,14.532-4.289c28.055-8.881,54.243-20.739,78.715-35.321c0,0,0,0,0.051-0.05
							c30.174-23.01,55.252-52.931,75.436-82.651C2539.456,2705.711,2561.96,2623.867,2552.424,2547.926z M1680.043,2773.376
							c-0.353,0.404-0.605,0.757-0.807,1.11c0.454-1.11,1.009-2.17,1.564-3.28L1680.043,2773.376z"/>
					</g>
				</g>
				<g>
					<g>
						<path style="fill:#B2AFB5;" d="M2552.44,2547.926c-2.674-21.092-8.477-41.174-16.954-59.995
							c-6.055-13.473-13.523-26.239-22.252-38.248c-38.298-52.931-100.463-90.523-172.72-101.826
							c-14.936-2.321-30.073-3.734-45.211-4.188c-3.482-0.101-7.014-0.151-10.496-0.151h-0.051
							c-104.399,0-208.293,44.706-266.472,126.903c-58.179-82.197-162.073-126.853-266.422-126.903h-0.303
							c-21.445,0-42.94,1.917-64.032,5.752c-68.371,12.413-127.307,48.844-164.091,99.505
							c-8.679,11.908-16.096,24.523-22.151,37.844c-7.72,16.954-13.22,34.968-16.096,53.789
							c-12.06,78.009,10.445,163.335,58.027,225.046c14.179,20.89,30.83,41.931,49.954,60.601
							c27.652,20.688,57.826,37.592,90.725,50.156c11.504,4.39,23.312,8.225,35.472,11.555
							c67.615,102.229,155.816,156.624,267.078,157.784c9.991-0.101,20.133-0.555,30.427-1.362c0.908,0.05,1.816,0.151,2.674,0.202
							c8.477,0.605,16.853,1.009,25.078,1.11c2.775,0.05,5.5,0.101,8.225,0.101c3.532,0,7.014-0.051,10.496-0.151
							c3.834-0.101,7.619-0.252,11.403-0.505c0.252,0,0.454,0,0.605-0.05c102.936-6.509,185.335-60.399,249.266-157.128
							c4.895-1.312,9.739-2.775,14.532-4.289c28.055-8.881,54.243-20.739,78.715-35.321c0,0,0,0,0.051-0.05
							c30.174-23.01,55.252-52.931,75.436-82.651C2539.472,2705.711,2561.977,2623.867,2552.44,2547.926z M1680.06,2773.376
							c-0.353,0.404-0.605,0.757-0.808,1.11c0.454-1.11,1.009-2.17,1.565-3.28L1680.06,2773.376z"/>
					</g>
				</g>
				<g>
					<g>
						<path style="fill:#9A94A2;" d="M1851.205,3006.95c-15.635-16.775-21.869-41.79-15.936-63.941
							c8.774-32.755,40.236-54.084,71.444-67.347c71.889-30.553,157.422-32.951,226.856,2.832
							c22.045,11.361,42.65,26.783,55.918,47.735c13.268,20.952,18.313,48.027,9.176,71.082
							c44.745-23.263,82.404-59.946,106.832-104.066c-43.187,2.456-86.037-4.337-127.263-17.47
							c-91.373-29.107-117.525-55.51-117.526-55.51c-7.364-4.52-21.635-13.553-40.706-13.233
							c-23.506,0.395-39.054,14.744-51.75,24.017c-78.044,56.999-232.078,55.778-237.952,55.836c-1.761,0.017-3.674,0.083-5.035,1.2
							c-1.675,1.375-1.907,3.833-1.774,5.997c1.015,16.479,14.838,28.87,27.619,39.322c30.427,24.883,60.855,49.766,91.282,74.649
							c-0.448,1.879-0.897,3.758-1.345,5.636"/>
					</g>
				</g>
				<g>
					<g>
						<path style="fill:#35374D;" d="M2049.131,3065.858c-2.803,0-5.605-0.049-8.452-0.103c-8.252-0.276-15.483-0.681-22.402-1.243
							l-1.162,0.095c-11.67,0.942-23.472,1.355-34.668,1.196c-113.55-1.182-207.559-55.193-279.468-160.579
							c-10.298-3.02-20.366-6.404-30.024-10.09c-33.862-12.932-66.035-30.715-95.635-52.859
							c-99.419-74.248-171.479-196.511-214.17-363.384c-37.246-145.591-49.712-318.799-36.05-500.901
							c0.835-11.152,10.566-19.548,21.714-18.684c11.157,0.837,19.521,10.559,18.686,21.716
							c-13.335,177.764-1.269,346.45,34.897,487.827c40.342,157.676,107.354,272.397,199.175,340.974
							c26.606,19.905,55.483,35.869,85.83,47.461c10.713,4.087,22.017,7.769,33.599,10.94c4.736,1.299,8.838,4.27,11.543,8.364
							c65.474,98.989,147.378,147.629,250.396,148.704c10.039,0.144,20.518-0.227,31.26-1.094l2.817-0.229
							c0.996-0.061,2.007-0.051,3.013,0.034c6.733,0.576,13.789,0.986,21.568,1.25c5.6,0.098,11.645,0.115,17.451-0.054
							c3.584-0.095,7.085-0.234,10.581-0.464c0.244-0.024,0.483-0.044,0.728-0.061c95.352-6.028,171.777-54.465,233.647-148.081
							c2.729-4.128,6.875-7.117,11.655-8.396c4.604-1.235,9.165-2.615,13.677-4.038c25.771-8.159,50.596-19.265,73.784-33.015
							c0.229-0.149,0.459-0.295,0.693-0.435c232.139-138.596,289.224-529.797,265.239-849.69
							c-0.835-11.155,7.529-20.877,18.687-21.714c11.187-0.82,20.884,7.532,21.714,18.687
							c14.453,192.751-0.225,374.167-42.437,524.636c-48.682,173.511-130.01,295.449-241.748,362.456
							c-0.244,0.164-0.498,0.32-0.747,0.471c-26.055,15.525-53.97,28.052-82.974,37.231c-2.876,0.908-5.503,1.714-7.974,2.444
							c-67.632,99.172-155.005,152.932-259.795,159.822c-0.698,0.081-1.338,0.117-1.904,0.134c-3.882,0.251-7.769,0.405-11.704,0.51
							C2056.538,3065.804,2052.861,3065.858,2049.131,3065.858z M2065.171,3025.695c-0.01,0.005-0.024,0.01-0.034,0.012
							C2065.146,3025.704,2065.161,3025.699,2065.171,3025.695z M2065.205,3025.685c-0.005,0.002-0.01,0.002-0.015,0.005
							C2065.195,3025.687,2065.2,3025.687,2065.205,3025.685z M2414.15,2848.156h0.049H2414.15z"/>
					</g>
				</g>
				<g>
					<g>
						<path style="fill:#35374D;" d="M1616.309,2820.505c75.644,58.087,180.878,64.445,269.849,35.014
							c27.299-8.048,63.579-27.426,89.388-39.937c11.901-5.576,21.001,11.492,9.523,18.219c0,0-43.762,24.287-43.762,24.287
							c-106.142,58.521-246.139,66.175-348.835-4.825C1570.369,2836.972,1593.85,2804.431,1616.309,2820.505L1616.309,2820.505z"/>
					</g>
				</g>
				<g>
					<g>
						<path style="fill:#35374D;" d="M2446.353,2853.264c-87.923,60.926-204.839,64.058-302.195,26.345
							c-28.084-9.816-64.14-31.382-90.403-45.808c-11.377-6.533-2.462-23.863,9.525-18.217c8.873,4.275,47.691,23.665,55.734,27.204
							c68.789,29.931,148.789,39.733,221.121,18.823c29.974-8.755,58.101-22.628,82.5-41.197
							C2444.868,2804.575,2468.528,2836.924,2446.353,2853.264L2446.353,2853.264z"/>
					</g>
				</g>
				<g>
					<g>
						<path style="fill:#B2AFB5;" d="M1713.413,2771.206l-0.707,2.17c-0.303,0.404-0.555,0.757-0.757,1.11
							C1712.404,2773.376,1712.908,2772.316,1713.413,2771.206z"/>
					</g>
				</g>
				<g>
					<g>
						<path style="fill:#B2AFB5;" d="M1713.413,2771.206l-0.707,2.17c-0.303,0.404-0.555,0.757-0.757,1.11
							C1712.404,2773.376,1712.908,2772.316,1713.413,2771.206z"/>
					</g>
				</g>
				<g>
					<g>
						<path style="fill:#9A94A2;" d="M2513.234,2449.683C2378.661,2483.844,2207,2504.28,2020,2504.28
							c-188.514,0-361.486-20.789-496.564-55.505c36.784-50.661,95.72-87.092,164.091-99.505
							c21.092-3.835,42.587-5.752,64.032-5.752h0.303c104.349,0.05,208.243,44.706,266.422,126.903
							c58.179-82.197,162.074-126.903,266.472-126.903h0.051c3.482,0,7.014,0.05,10.496,0.151
							c15.138,0.454,30.275,1.867,45.211,4.188C2412.771,2359.16,2474.936,2396.752,2513.234,2449.683z"/>
					</g>
				</g>
				<g>
					<g>
						<ellipse style="fill:#73707A;" cx="1787.89" cy="2819.647" rx="70.642" ry="17.661"/>
					</g>
				</g>
				<g>
					<g>
						<ellipse style="fill:#73707A;" cx="2262.202" cy="2819.647" rx="70.642" ry="17.661"/>
					</g>
				</g>
			</g>
			<g>
				<g>
					<g>
						<path style="fill:#B2AFB5;" d="M2906.567,3443.215c-16.651,39.913-57.472,64.587-100.615,61.358
							c-25.583-1.917-46.17-7.468-63.931-12.11c-21.496-5.55-44.051-6.307-65.748-1.413
							c-66.403,15.037-142.949,13.826-185.032-18.518c-9.738-7.468-16.399-18.316-19.225-30.225
							c-9.587-39.963-12.564-88.252-6.509-133.513c2.22-16.954,5.752-33.454,10.596-48.945l335.197-65.193l71.651-13.927
							l-5.651,101.725C2924.935,3310.307,2930.737,3385.339,2906.567,3443.215z"/>
					</g>
				</g>
				<g>
					<g>
						<path style="fill:#9A94A2;" d="M2875.081,3285.982c0,69.889-93.59,126.555-208.996,126.555
							c-100.981,0-185.242-43.39-204.765-101.037c2.243-17.356,5.811-34.247,10.705-50.105l338.625-66.738
							C2850.359,3217.642,2875.081,3250.082,2875.081,3285.982z"/>
					</g>
				</g>
				<g>
					<g>
						<path style="fill:#35374D;" d="M2813.696,3525.04c-3.066,0-6.138-0.115-9.233-0.347c-26.313-1.98-47.876-7.573-65.2-12.068
							l-2.31-0.601c-18.906-4.893-38.33-5.344-56.201-1.296c-31.313,7.097-138.442,26.47-201.792-22.168
							c-13.154-10.1-22.593-24.866-26.592-41.577c-15-62.673-13.276-136.702,4.497-193.191c2.222-7.063,8.135-12.341,15.4-13.755
							l406.851-79.109c6.094-1.179,12.422,0.508,17.119,4.6c4.688,4.092,7.231,10.117,6.885,16.331l-5.02,90.391
							c48.169,37.915,52.397,118.201,27.09,178.77C2906.333,3496.161,2862.275,3525.038,2813.696,3525.04z M2705.693,3467.631
							c13.76,0,27.705,1.775,41.377,5.317l2.329,0.603c16.587,4.304,35.386,9.182,58.091,10.889
							c34.883,2.622,67.124-17.073,80.454-48.982c19.922-47.681,17.627-113.076-20.82-135.586
							c-6.533-3.823-10.376-10.979-9.956-18.535l4.209-75.837l-369.272,71.804c-12.573,48.259-12.881,108.474-0.479,160.288
							c1.851,7.744,6.084,14.473,11.919,18.955c32.339,24.827,98.403,30.645,168.291,14.812
							C2682.812,3468.871,2694.189,3467.631,2705.693,3467.631z"/>
					</g>
				</g>
				<g>
					<g>
						<path style="fill:#35374D;" d="M2888.933,3254.443l-28.389,102.864c-2.88,10.012-17.849,6.799-16.404-3.487
							c0,0,11.221-106.513,11.221-106.513c0.996-9.473,9.485-16.343,18.958-15.344
							C2885.118,3232.973,2892.322,3244.186,2888.933,3254.443L2888.933,3254.443z"/>
					</g>
				</g>
				<g>
					<g>
						<path style="fill:#6C6A74;" d="M2982.003,2405.986c-4.34,48.945-12.464,101.675-24.675,158.087
							c-1.514,7.014-2.876,14.078-3.835,21.142c-10.293,74.427-12.514,147.239-5.55,218.133
							c16.854,146.835,3.784,268.743-32.041,360.477c-64.184,164.596-201.633,232.211-371.074,172.973
							c-44.454-15.542-77.504-53.84-85.78-100.514c-26.945-152.587,63.729-374.353,113.633-580.982
							c4.491-18.72,8.275-37.642,11.303-56.615c5.954-36.734,9.083-73.922,9.537-111.211l1.413-119.284
							c6.762-161.417,38.551-293.317,101.675-388.179c72.408-9.688,133.564,5.248,180.743,42.587
							C2958.792,2087.087,2998.503,2218.481,2982.003,2405.986z"/>
					</g>
				</g>
				<g style="opacity:0.5;">
					<g>
						<path style="fill:#FFFFFF;" d="M2877.352,2022.601c-47.179-37.339-108.335-52.275-180.743-42.587
							c-4.979,7.483-9.694,15.279-14.286,23.219c60.716-5.197,113.029,8.894,155.004,40.861
							c81.845,62.361,124.375,192.685,113.055,380.551c-2.987,49.04-9.6,101.961-20.138,158.67
							c-1.306,7.051-2.462,14.148-3.22,21.234c-8.179,74.667-8.454,147.511,0.259,218.201
							c20.438,146.349,10.774,268.553-22.079,361.181c-2.815,7.951-5.855,15.614-9.008,23.126
							c7.174-13.565,13.759-27.976,19.707-43.231c35.825-91.734,48.895-213.642,32.041-360.477
							c-6.963-70.895-4.743-143.707,5.55-218.133c0.959-7.064,2.321-14.128,3.835-21.142
							c12.211-56.413,20.335-109.142,24.675-158.087C2998.503,2218.481,2958.792,2087.087,2877.352,2022.601z"/>
					</g>
				</g>
				<g style="opacity:0.5;">
					<g>
						<g>
							<path style="fill:#FFFFFF;" d="M2982.562,2365.619c-4.16,48.945-11.95,101.674-23.658,158.087
								c-1.451,7.014-2.758,14.078-3.677,21.142c-4.826,36.39-7.769,72.387-8.77,107.97c1.606-22.385,3.897-44.909,7.036-67.603
								c0.959-7.064,2.321-14.128,3.835-21.142c12.211-56.413,20.335-109.142,24.675-158.087c2.813-31.975,3.954-62.275,3.57-90.933
								C2985.021,2331.425,2984.025,2348.279,2982.562,2365.619z"/>
						</g>
					</g>
					<g>
						<g>
							<path style="fill:#FFFFFF;" d="M2919.185,3123.458c-61.539,164.596-193.325,232.211-355.784,172.972
								c-42.622-15.541-74.311-53.839-82.245-100.514c-25.835-152.587,61.103-374.353,108.951-580.982
								c4.306-18.72,7.934-37.642,10.837-56.615c5.709-36.734,8.708-73.922,9.144-111.211l1.354-119.284
								c3.981-99.114,17.055-187.042,40.531-262.157c-33.862,83.307-52.117,185.052-57.038,302.524l-1.413,119.284
								c-0.454,37.289-3.583,74.477-9.537,111.211c-3.027,18.972-6.812,37.895-11.303,56.615
								c-49.904,206.629-140.578,428.395-113.633,580.982c8.275,46.674,41.326,84.972,85.78,100.514
								c169.44,59.238,306.89-8.376,371.074-172.973c23.624-60.491,37.273-134.181,39.052-219.41
								C2950.467,3012.72,2938.182,3072.725,2919.185,3123.458z"/>
						</g>
					</g>
				</g>
				<g>
					<g>
						<path style="fill:#585463;" d="M2877.352,2022.601c-11.152,0.858-22.152,3.28-32.445,7.165
							c-39.711,14.885-70.491,46.977-96.124,80.785c-56.362,74.427-94.711,162.326-110.908,254.261
							c-13.977,79.271-13.573,166.009-53.89,233.876c5.954-36.734,9.083-73.922,9.537-111.211l1.413-119.284
							c6.762-161.417,38.551-293.317,101.675-388.179C2769.017,1970.325,2830.173,1985.261,2877.352,2022.601z"/>
					</g>
				</g>
				<g>
					<g>
						<path style="fill:#585463;" d="M2953.494,2585.215c-10.293,74.427-12.514,147.239-5.55,218.133
							c16.854,146.835,3.784,268.743-32.041,360.477c-2.927,3.936-5.904,7.872-8.83,11.808
							c19.679-103.794,39.358-211.372,14.482-314.055c-12.514-51.519-36.129-101.573-34.363-154.555
							c1.211-36.481,14.482-71.399,28.307-105.257c27.349-66.908,58.028-135.33,56.867-207.587l9.638,11.807
							c-4.34,48.945-12.464,101.675-24.675,158.087C2955.815,2571.087,2954.453,2578.151,2953.494,2585.215z"/>
					</g>
				</g>
				<g>
					<g>
						<path style="fill:#35374D;" d="M2693.94,1959.956c191.446-26.15,290.292,110.68,308.8,285.824
							c9.849,90.969,1.846,182.792-14.325,272.433c-3.65,21.733-8.949,43.435-12.654,65.171
							c-9.794,64.492-12.714,130.192-8.348,195.212c3.848,44.484,8.735,89.891,9.101,134.636
							c0.515,76.349-6.818,153.628-29.897,226.782c-54.76,178.482-197.783,277.631-383.77,223.497
							c-23.276-6.802-47.869-15.451-67.077-31.094c-42.948-33.225-58.483-79.765-60.112-132.233c-0.001,0-0.822-23.393-0.822-23.393
							c0.599-13.573,0.718-32.957,2.368-46.179c14.306-142.253,64.687-277.405,101.244-414.185
							c15.719-56.19,29.777-113.243,35.296-171.462c6.166-58.124,6.388-118.295,13.578-176.846
							c1.179-8.71,14.162-9.207,15.217,0.181c4.491,59.833,8.465,119.63,4.757,179.66c-3.218,45.189-11.638,90.495-23.167,134.343
							c-35.144,143.52-87.377,283.597-106.709,430.029c-0.256,4.585-2.593,27.208-2.946,32.275c-0.396,8.633-0.647,23.754-0.96,32.1
							c1.328,48.683,4.738,92.308,46.507,124.301c20.3,16.192,49.459,22.831,74.338,29.016
							c156.942,35.475,267.243-56.644,311.877-202.758c21.496-68.438,28.213-141.892,27.6-213.502
							c-0.418-43.825-5.431-88.554-9.202-132.17c-4.743-66.405-1.552-133.181,7.428-199.028
							c5.351-30.916,12.553-62.644,17.566-93.657c16.56-106.121,24.453-217.806-5.766-321.975
							c-34.238-118.226-119.585-183.738-244.547-166.823C2672.876,2002.89,2667.504,1964.434,2693.94,1959.956L2693.94,1959.956z"/>
					</g>
				</g>
				<g>
					<g>
						<path style="fill:#585463;" d="M2968.884,2055.702l-1.917-0.252C2967.623,2054.692,2968.43,2054.49,2968.884,2055.702z"/>
					</g>
				</g>
			</g>
			<g>
				<g>
					<g>
						<path style="fill:#B2AFB5;" d="M1120.435,3443.215c16.651,39.913,57.473,64.587,100.615,61.358
							c25.583-1.917,46.17-7.468,63.931-12.11c21.495-5.55,44.05-6.307,65.748-1.413c66.404,15.037,142.949,13.826,185.032-18.518
							c9.739-7.468,16.399-18.316,19.225-30.225c9.587-39.963,12.564-88.252,6.509-133.513c-2.22-16.954-5.752-33.454-10.596-48.945
							l-335.197-65.193l-71.651-13.927l5.651,101.725C1102.068,3310.307,1096.265,3385.339,1120.435,3443.215z"/>
					</g>
				</g>
				<g>
					<g>
						<path style="fill:#9A94A2;" d="M1151.921,3285.982c0,69.889,93.589,126.555,208.996,126.555
							c100.981,0,185.242-43.39,204.765-101.037c-2.243-17.356-5.811-34.247-10.705-50.105l-338.625-66.738
							C1176.644,3217.642,1151.921,3250.082,1151.921,3285.982z"/>
					</g>
				</g>
				<g>
					<g>
						<path style="fill:#35374D;" d="M1213.305,3525.04c-48.584,0.002-92.637-28.877-111.494-74.021
							c-25.308-60.569-21.074-140.854,27.095-178.77l-5.024-90.388c-0.347-6.216,2.197-12.241,6.885-16.333
							c4.697-4.092,11.021-5.779,17.119-4.6l406.855,79.109c7.266,1.414,13.179,6.692,15.4,13.755
							c17.773,56.501,19.497,130.53,4.492,193.196c-3.999,16.714-13.442,31.479-26.592,41.575
							c-63.33,48.625-170.464,29.258-201.792,22.166c-17.871-4.05-37.3-3.599-56.201,1.296l-2.295,0.596
							c-17.324,4.497-38.892,10.093-65.215,12.073C1219.448,3524.926,1216.367,3525.04,1213.305,3525.04z M1165.625,3205.502
							l4.214,75.833c0.42,7.559-3.423,14.714-9.956,18.538c-38.447,22.512-40.747,87.905-20.825,135.586
							c13.335,31.917,45.728,51.609,80.454,48.982c22.715-1.707,41.519-6.587,58.105-10.891l2.314-0.601
							c25.103-6.506,51.113-7.056,75.234-1.589c69.907,15.835,135.952,10.015,168.296-14.814c5.83-4.478,10.059-11.206,11.914-18.95
							c12.402-51.807,12.099-112.021-0.474-160.291L1165.625,3205.502z"/>
					</g>
				</g>
				<g>
					<g>
						<path style="fill:#35374D;" d="M1166.951,3248.306l15.911,105.515c1.446,10.084-13.107,13.489-16.287,3.847
							c-0.09-0.097-33.089-102.034-33.196-102.226c-2.942-9.06,2.017-18.789,11.077-21.731
							C1154.732,3230.243,1165.881,3237.556,1166.951,3248.306L1166.951,3248.306z"/>
					</g>
				</g>
				<g>
					<g>
						<path style="fill:#6C6A74;" d="M1044.999,2405.986c4.339,48.945,12.464,101.675,24.674,158.087
							c1.514,7.014,2.876,14.078,3.835,21.142c10.294,74.427,12.514,147.239,5.55,218.133
							c-16.853,146.835-3.784,268.743,32.041,360.477c64.184,164.596,201.633,232.211,371.074,172.973
							c44.454-15.542,77.505-53.84,85.78-100.514c26.945-152.587-63.729-374.353-113.633-580.982
							c-4.491-18.72-8.275-37.642-11.303-56.615c-5.954-36.734-9.083-73.922-9.537-111.211l-1.413-119.284
							c-6.762-161.417-38.551-293.317-101.674-388.179c-72.408-9.688-133.564,5.248-180.743,42.587
							C1068.21,2087.087,1028.499,2218.481,1044.999,2405.986z"/>
					</g>
				</g>
				<g style="opacity:0.5;">
					<g>
						<path style="fill:#FFFFFF;" d="M1149.651,2022.601c47.179-37.339,108.335-52.275,180.743-42.587
							c4.979,7.483,9.694,15.279,14.286,23.219c-60.716-5.197-113.029,8.894-155.004,40.861
							c-81.845,62.361-124.375,192.685-113.054,380.551c2.987,49.04,9.6,101.961,20.138,158.67
							c1.306,7.051,2.462,14.148,3.22,21.234c8.179,74.667,8.454,147.511-0.259,218.201
							c-20.438,146.349-10.774,268.553,22.079,361.181c2.816,7.951,5.855,15.614,9.008,23.126
							c-7.174-13.565-13.758-27.976-19.707-43.231c-35.826-91.734-48.895-213.642-32.041-360.477
							c6.964-70.895,4.743-143.707-5.55-218.133c-0.959-7.064-2.321-14.128-3.835-21.142
							c-12.211-56.413-20.335-109.142-24.674-158.087C1028.499,2218.481,1068.21,2087.087,1149.651,2022.601z"/>
					</g>
				</g>
				<g style="opacity:0.5;">
					<g>
						<g>
							<path style="fill:#FFFFFF;" d="M1044.44,2365.619c4.161,48.945,11.95,101.674,23.658,158.087
								c1.451,7.014,2.758,14.078,3.677,21.142c4.826,36.39,7.769,72.387,8.77,107.97c-1.606-22.385-3.897-44.909-7.036-67.603
								c-0.959-7.064-2.321-14.128-3.835-21.142c-12.211-56.413-20.335-109.142-24.674-158.087
								c-2.814-31.975-3.954-62.275-3.57-90.933C1041.982,2331.425,1042.977,2348.279,1044.44,2365.619z"/>
						</g>
					</g>
					<g>
						<g>
							<path style="fill:#FFFFFF;" d="M1107.818,3123.458c61.539,164.596,193.325,232.211,355.784,172.972
								c42.622-15.541,74.311-53.839,82.245-100.514c25.834-152.587-61.103-374.353-108.951-580.982
								c-4.306-18.72-7.934-37.642-10.837-56.615c-5.709-36.734-8.708-73.922-9.144-111.211l-1.354-119.284
								c-3.981-99.114-17.055-187.042-40.531-262.157c33.862,83.307,52.117,185.052,57.038,302.524l1.413,119.284
								c0.454,37.289,3.583,74.477,9.537,111.211c3.027,18.972,6.812,37.895,11.303,56.615
								c49.904,206.629,140.578,428.395,113.633,580.982c-8.275,46.674-41.326,84.972-85.78,100.514
								c-169.441,59.238-306.89-8.376-371.074-172.973c-23.624-60.491-37.273-134.181-39.052-219.41
								C1076.536,3012.72,1088.82,3072.725,1107.818,3123.458z"/>
						</g>
					</g>
				</g>
				<g>
					<g>
						<path style="fill:#585463;" d="M1149.651,2022.601c11.151,0.858,22.151,3.28,32.445,7.165
							c39.711,14.885,70.491,46.977,96.124,80.785c56.362,74.427,94.711,162.326,110.908,254.261
							c13.977,79.271,13.573,166.009,53.89,233.876c-5.954-36.734-9.083-73.922-9.537-111.211l-1.413-119.284
							c-6.762-161.417-38.551-293.317-101.674-388.179C1257.986,1970.325,1196.83,1985.261,1149.651,2022.601z"/>
					</g>
				</g>
				<g>
					<g>
						<path style="fill:#585463;" d="M1073.509,2585.215c10.294,74.427,12.514,147.239,5.55,218.133
							c-16.853,146.835-3.784,268.743,32.041,360.477c2.927,3.936,5.904,7.872,8.83,11.808
							c-19.679-103.794-39.358-211.372-14.482-314.055c12.514-51.519,36.129-101.573,34.362-154.555
							c-1.211-36.481-14.482-71.399-28.307-105.257c-27.349-66.908-58.028-135.33-56.867-207.587l-9.637,11.807
							c4.339,48.945,12.464,101.675,24.674,158.087C1071.188,2571.087,1072.55,2578.151,1073.509,2585.215z"/>
					</g>
				</g>
				<g>
					<g>
						<path style="fill:#35374D;" d="M1327.686,2000.112c-167.721-21.95-245.077,99.254-261.059,250.406
							c-10.599,101.133,2.352,203.89,22.97,303.105c2.964,14.587,5.876,31.04,7.515,45.862
							c7.317,60.325,9.579,121.388,5.256,182.112c-4.488,50.795-10.275,102.858-9.089,153.95
							c1.174,92.207,15.395,188.285,60.624,269.595c63.958,114.949,173.978,155.448,299.247,119.798
							c0,0.001,20.266-6.337,20.266-6.337c36.524-11.555,65.361-42.629,74.018-79.834c4.16-18.798,5.422-42.415,6.052-62.06
							c-0.091-7.763-0.8-24.761-0.957-32.1c-0.462-6.174-2.426-25.681-2.949-32.275c-20.488-153.806-76.579-300.765-112.126-451.844
							c-8.922-36.944-14.925-74.66-17.75-112.529c-3.704-60.032,0.261-119.823,4.757-179.661c0.379-4.207,4.095-7.31,8.302-6.931
							c3.679,0.332,6.514,3.218,6.914,6.75c10.073,87.792,7.477,176.643,27.122,262.864c19.866,86.634,46.714,170.851,71.039,256.67
							c24.026,86.21,48.845,175.545,53.531,265.972c1.526,30.712,0.278,63.693-5.855,94.048
							c-11.113,50.14-50.432,92.948-99.117,108.73c0,0-22.246,7.11-22.246,7.11c-186.005,54.056-328.893-44.836-383.769-223.5
							c-23.073-73.145-30.423-150.436-29.895-226.781c0.379-44.756,5.246-90.144,9.1-134.636
							c4.037-57.915,1.77-116.209-5.313-173.884l-1.394-10.835l-0.715-5.415c-1.032-5.674-2.674-14.637-3.708-20.31
							c-22.509-105.615-35.856-214.384-24.197-322.373c10.67-92.642,43.263-191.983,123.633-247.681
							c53.2-37.791,122.31-47.068,185.169-38.142C1359.522,1964.562,1354.12,2002.736,1327.686,2000.112L1327.686,2000.112z"/>
					</g>
				</g>
				<g>
					<g>
						<path style="fill:#585463;" d="M1058.119,2055.702l1.917-0.252C1059.38,2054.692,1058.573,2054.49,1058.119,2055.702z"/>
					</g>
				</g>
			</g>
			<g>
				<g>
					<g>
						<g>
							
								<ellipse transform="matrix(0.2571 -0.9664 0.9664 0.2571 646.0922 3867.4707)" style="fill:#B2AFB5;" cx="2838.501" cy="1513.508" rx="244.751" ry="172.047"/>
						</g>
					</g>
					<g>
						<g>
							<path style="fill:#9A94A2;" d="M2746.585,1439.36c20.49-25.396,41.648-51.373,69.92-67.667
								c28.272-16.294,65.671-20.979,92.887-2.977c18.349,12.137,29.654,32.919,34.465,54.386
								c4.812,21.467,3.785,43.785,1.88,65.702c-3.558,40.925-10.264,82.167-27.262,119.565
								c-16.998,37.398-45.293,70.918-82.881,87.493c-4.806,2.119-9.827,3.974-15.068,4.313
								c-18.976,1.225-33.121-16.757-42.359-33.378c-38.891-69.963-55.933-154.892-32.441-231.414"/>
						</g>
					</g>
					<g>
						<g>
							<path style="fill:#35374D;" d="M2806.894,1774.42c-12.246,0-24.468-1.545-36.538-4.758
								c-102.505-27.268-155.327-164.363-117.749-305.608c37.583-141.248,151.538-233.97,254.043-206.699
								c102.5,27.268,155.322,164.363,117.744,305.608l0,0C2991.24,1687.567,2898.628,1774.42,2806.894,1774.42z M2869.267,1293.109
								c-73.33,0-149.077,74.924-177.402,181.389c-31.816,119.597,8.081,234.395,88.931,255.906
								c80.879,21.506,172.52-58.296,204.341-177.886l0,0c31.816-119.597-8.081-234.395-88.931-255.906
								C2887.324,1294.252,2878.31,1293.109,2869.267,1293.109z M3004.765,1557.74h0.049H3004.765z"/>
						</g>
					</g>
					<g>
						<g>
							<g>
								<path style="fill:#35374D;" d="M2735.6,1482.087c10.867-12.912,19.38-27.956,29.473-41.7
									c10.11-13.767,20.806-26.777,33.591-38.18c12.534-11.179,26.677-21.685,42.251-28.204
									c15.525-6.498,30.519-7.149,45.948-2.07c7.917,2.606,14.639,6.259,21.825,10.434c3.724,2.164,6.979,4.353,9.95,7.517
									c3.178,3.385,7.121,5.672,10.127,9.158c1.715,1.988,5.546,0.443,5.333-2.209c-0.274-3.406,0.139-7.375-0.701-10.64
									c-1.085-4.217-3.605-8.313-5.68-12.117c-4.83-8.85-11.179-15.41-19.266-21.344c-17.103-12.55-38.62-15.529-59.14-11.715
									c-21.62,4.018-40.946,16.798-57.918,30.174c-16.198,12.766-30.077,28.385-41.817,45.301
									c-6.326,9.116-11.427,19.424-15.021,29.914c-1.815,5.297-2.755,10.611-4.119,16.001c-1.559,6.163-1.893,10.581-1.424,16.952
									C2729.234,1482.371,2733.268,1484.857,2735.6,1482.087L2735.6,1482.087z"/>
							</g>
						</g>
					</g>
					<g>
						<g>
							<g>
								<path style="fill:#35374D;" d="M2809.096,1709.27c7.379,1.568,15.315-2.138,21.911-5.078
									c6.598-2.941,13.064-6.106,19.382-9.612c12.745-7.074,25.02-15.113,35.932-24.811c10.194-9.059,18.436-19.757,24.665-31.878
									c5.969-11.614,11.183-22.646,11.847-35.947c0.095-1.904-2.765-2.698-3.636-0.985c-5.334,10.485-11.286,21.89-19.58,30.365
									c-8.637,8.826-18.14,17.115-27.964,24.597c-10.33,7.869-21.172,15.02-32.547,21.287c-5.732,3.158-11.551,6.189-17.423,9.079
									c-5.415,2.665-14.496,6.164-17.013,12.102C2802.939,1702.469,2803.918,1708.17,2809.096,1709.27L2809.096,1709.27z"/>
							</g>
						</g>
					</g>
					<g>
						<g>
							<path style="fill:#B2AFB5;" d="M2767.125,1523.343c6.126-14.238,13.623-27.938,22.368-40.871
								c6.436-9.519,13.732-18.798,23.499-25.242c9.767-6.444,22.428-9.724,33.761-6.336c12.488,3.734,21.175,14.717,26.293,26.205
								c14.875,33.395,5.647,72.389-11.157,104.942c-4.485,8.687-9.538,17.2-16.23,24.481
								c-12.53,13.634-30.741,22.381-49.687,23.865"/>
						</g>
					</g>
					<g>
						<g>
							<g>
								<path style="fill:#35374D;" d="M2770.888,1527.105c16.263-17.575,24.753-43.182,44.49-57.679
									c7.552-5.547,18.839-9.933,28.151-6.84c9.001,2.99,14.897,11.545,18.606,19.85c9.656,21.62,6.865,46.453-0.225,68.346
									c-6.726,20.769-17.427,44.672-36.381,56.943c-4.295,2.781-8.832,5.182-13.666,6.87c-6.075,2.12-13.282,2.366-18.148,6.992
									c-3.74,3.554-5.398,8.893-2.618,13.523c4.179,6.96,12.851,6.852,19.739,5.205c24.297-5.81,43.819-21.715,56.514-42.926
									c24.282-40.572,39.422-100.894,6.906-141.453c-18.88-23.55-50.587-22.88-72.643-4.352
									c-10.186,8.557-18.102,19.797-24.773,31.225c-3.771,6.461-7.364,13.108-10.235,20.021
									c-2.887,6.952-4.233,13.056-4.799,20.512C2761.456,1527.94,2767.869,1530.367,2770.888,1527.105L2770.888,1527.105z"/>
							</g>
						</g>
					</g>
				</g>
				<g>
					<g>
						<g>
							
								<ellipse transform="matrix(0.9664 -0.2571 0.2571 0.9664 -349.17 356.4389)" style="fill:#B2AFB5;" cx="1188.501" cy="1513.508" rx="172.047" ry="244.751"/>
						</g>
					</g>
					<g>
						<g>
							<path style="fill:#9A94A2;" d="M1280.417,1439.36c-20.49-25.396-41.648-51.373-69.92-67.667
								c-28.272-16.294-65.671-20.979-92.887-2.977c-18.349,12.137-29.654,32.919-34.466,54.386
								c-4.812,21.467-3.785,43.785-1.88,65.702c3.558,40.925,10.264,82.167,27.262,119.565
								c16.998,37.398,45.293,70.918,82.881,87.493c4.806,2.119,9.827,3.974,15.068,4.313c18.976,1.225,33.12-16.757,42.359-33.378
								c38.891-69.963,55.933-154.892,32.441-231.414"/>
						</g>
					</g>
					<g>
						<g>
							<path style="fill:#35374D;" d="M1220.102,1774.42c-91.738,0-184.341-86.843-217.495-211.457l0,0
								c-37.578-141.245,15.244-278.34,117.749-305.608c102.5-27.268,216.455,65.457,254.038,206.699
								c37.578,141.245-15.244,278.34-117.749,305.608C1244.58,1772.872,1232.348,1774.42,1220.102,1774.42z M1041.865,1552.518
								c31.816,119.592,123.452,199.392,204.336,177.886c80.854-21.511,120.752-136.309,88.935-255.906
								c-31.826-119.602-123.472-199.39-204.341-177.886C1049.946,1318.124,1010.049,1432.921,1041.865,1552.518L1041.865,1552.518z
								"/>
						</g>
					</g>
					<g>
						<g>
							<g>
								<path style="fill:#35374D;" d="M1297.991,1479.358c0.368-4.998,0.87-9.265-0.581-14.139
									c-1.392-4.677-2.059-9.516-3.477-14.206c-2.956-9.772-7.21-19.014-12.26-27.877c-9.989-17.531-24.692-33.786-39.934-46.915
									c-30.987-26.691-77.406-51.283-117.195-27.504c-9.214,5.507-17.358,12.452-22.997,21.626
									c-2.603,4.236-5.311,8.763-7.088,13.428c-1.589,4.17-1.198,8.646-1.553,13.062c-0.212,2.638,3.609,4.208,5.333,2.209
									c2.486-2.882,5.72-4.522,8.366-7.216c2.717-2.766,5.175-5.635,8.492-7.743c5.909-3.754,12.509-7.791,19.116-10.147
									c15.529-5.539,28.795-7.385,44.907-2.405c32.138,9.934,58.953,37.152,78.604,63.321
									c11.606,15.456,21.369,32.608,33.68,47.236C1293.74,1484.864,1297.768,1482.387,1297.991,1479.358L1297.991,1479.358z"/>
							</g>
						</g>
					</g>
					<g>
						<g>
							<g>
								<path style="fill:#35374D;" d="M1222.333,1698.388c-2.399-5.657-10.947-9.136-16.126-11.668
									c-6.176-3.019-12.289-6.198-18.311-9.512c-11.377-6.263-22.217-13.418-32.547-21.287
									c-9.823-7.482-19.332-15.768-27.964-24.597c-8.292-8.482-14.245-19.878-19.58-30.365c-0.871-1.712-3.731-0.921-3.636,0.985
									c0.647,12.979,5.625,23.808,11.431,35.162c6.351,12.421,14.647,23.375,25.08,32.662
									c10.658,9.488,22.645,17.382,35.08,24.337c6.301,3.525,12.744,6.724,19.329,9.682c6.876,3.088,15.1,7.121,22.817,5.481
									C1223.084,1708.17,1224.063,1702.469,1222.333,1698.388L1222.333,1698.388z"/>
							</g>
						</g>
					</g>
					<g>
						<g>
							<path style="fill:#B2AFB5;" d="M1259.877,1523.343c-6.125-14.238-13.623-27.938-22.368-40.871
								c-6.436-9.519-13.732-18.798-23.499-25.242c-9.767-6.444-22.429-9.724-33.761-6.336
								c-12.488,3.734-21.175,14.717-26.292,26.205c-14.875,33.395-5.647,72.389,11.157,104.942
								c4.485,8.687,9.537,17.2,16.23,24.481c12.53,13.634,30.741,22.381,49.687,23.865"/>
						</g>
					</g>
					<g>
						<g>
							<g>
								<path style="fill:#35374D;" d="M1265.198,1523.343c-1-13.18-5.967-24.153-12.302-35.684
									c-5.959-10.845-12.89-21.604-21.511-30.546c-16.969-17.601-44.244-27.083-66.305-12.415
									c-20.484,13.62-29.2,39.46-30.61,63.013c-1.526,25.487,6.036,50.853,16.768,73.694
									c10.318,21.96,24.688,42.055,47.269,52.553c9.779,4.546,28.222,13.146,36.604,2.181c3.627-4.745,2.307-10.531-1.823-14.552
									c-4.782-4.656-12.115-4.9-18.149-6.992c-22.235-7.71-34.429-27.054-43.75-47.472c-9.525-20.867-15.9-45.708-11.384-68.646
									c2.238-11.367,6.578-23.493,15.562-31.305c8.529-7.416,19.455-6.443,29.101-1.73c24.56,12,33.795,42.586,51.447,61.662
									C1259.118,1530.351,1265.548,1527.956,1265.198,1523.343L1265.198,1523.343z"/>
							</g>
						</g>
					</g>
				</g>
				<g>
					<g>
						<g>
							<path style="fill:#6C6A74;" d="M2840.007,1794.774c0,274.803-367.594,497.579-821.074,497.579
								s-821.074-222.776-821.074-497.579c0-35.618,6.183-70.377,17.934-103.89c39.411-112.388,58.772-230.599,51.636-349
								c-0.555-9.198-1.184-18.436-1.887-27.718c-3.162-41.693-3.258-83.602,0.283-125.266
								c35.837-421.728,390.352-639.509,753.109-642.368c362.757,2.859,717.272,220.64,753.109,642.368
								c3.541,41.664,3.444,83.573,0.283,125.266c-0.704,9.281-1.333,18.519-1.887,27.718c-7.137,118.401,12.225,236.612,51.636,349
								C2833.824,1724.397,2840.007,1759.156,2840.007,1794.774z"/>
						</g>
					</g>
					<g>
						<g>
							<g>
								<path style="fill:#585463;" d="M2018.932,2181.344c-422.527,0-770.433-193.413-815.967-442.1
									c-3.344,18.236-5.107,36.76-5.107,55.53c0,274.803,367.594,497.579,821.074,497.579s821.074-222.776,821.074-497.579
									c0-18.771-1.763-37.294-5.107-55.53C2789.366,1987.931,2441.459,2181.344,2018.932,2181.344z"/>
							</g>
						</g>
					</g>
					<g style="opacity:0.5;">
						<g>
							<g>
								<path style="fill:#FFFFFF;" d="M1265.823,1234.313c35.837-421.728,390.352-639.509,753.109-642.368
									c362.757,2.859,717.272,220.64,753.109,642.368c1.157,13.617,1.887,27.261,2.288,40.914
									c0.827-28.792,0.152-57.617-2.288-86.327c-35.837-421.728-390.352-639.509-753.109-642.368
									c-362.757,2.859-717.272,220.64-753.109,642.368c-2.44,28.71-3.115,57.535-2.288,86.327
									C1263.936,1261.574,1264.667,1247.93,1265.823,1234.313z"/>
							</g>
						</g>
						<g>
							<g>
								<path style="fill:#FFFFFF;" d="M2822.073,1736.297c9.251,26.383,14.992,53.547,17.041,81.286
									c0.563-7.563,0.893-15.162,0.893-22.809c0-35.619-6.182-70.377-17.934-103.89c-31.5-89.828-50.142-183.378-52.733-277.769
									C2766.263,1522.855,2785.527,1632.08,2822.073,1736.297z"/>
							</g>
						</g>
						<g>
							<g>
								<path style="fill:#FFFFFF;" d="M1215.793,1736.297c36.545-104.217,55.809-213.442,52.733-323.182
									c-2.591,94.391-21.233,187.941-52.733,277.769c-11.752,33.513-17.934,68.271-17.934,103.89
									c0,7.647,0.33,15.246,0.893,22.809C1200.8,1789.844,1206.541,1762.68,1215.793,1736.297z"/>
							</g>
						</g>
					</g>
					<g>
						<g>
							<path style="fill:#B2AFB5;" d="M2568.529,1961.849c0,41.376-17.408,80.683-48.693,116.106
								c-86.587,98.192-279.592,166.463-503.83,166.463c-227.821,0-423.399-70.491-507.917-171.156
								c-28.711-34.211-44.606-71.853-44.606-111.412c0-52.073,27.601-100.917,75.688-142.798
								c-35.825-39.055-67.362-85.074-92.541-136.996c-109.445-225.803-56.363-477.592,118.629-562.413
								c126.349-61.307,281.761-18.669,399.583,94.762c23.514,22.706,60.803,22.706,84.367,0.101
								c117.72-112.927,272.679-155.262,398.825-94.106c174.991,84.821,228.073,336.66,118.629,562.463
								c-23.16,47.785-51.771,90.573-84.115,127.56C2536.992,1854.22,2568.529,1906.142,2568.529,1961.849z"/>
						</g>
					</g>
					<g style="opacity:0.5;">
						<g>
							<g>
								<path style="fill:#FFFFFF;" d="M1565.259,1160.009c126.353-61.291,281.752-18.685,399.566,94.786
									c23.544,22.677,60.808,22.7,84.396,0.069c117.719-112.941,272.681-155.236,398.813-94.098
									c107.971,52.335,169.449,168.282,175.058,302.437c6.125-150.931-56.389-285.283-175.058-342.804
									c-126.133-61.138-281.094-18.842-398.813,94.098c-23.588,22.631-60.852,22.608-84.396-0.069
									c-117.815-113.472-273.214-156.078-399.566-94.786c-118.67,57.521-181.184,191.851-175.058,342.768
									C1395.81,1328.27,1457.289,1212.344,1565.259,1160.009z"/>
							</g>
						</g>
					</g>
					<g>
						<g>
							<g>
								<g>
									<g>
										<g>
											<path style="fill:#35374D;" d="M1698.358,1311.084c-61.31-4.665-118.135,56.762-126.921,137.197
												c-8.787,80.436,33.793,149.423,95.104,154.087c61.309,4.664,118.135-56.76,126.921-137.197
												C1802.248,1384.736,1759.668,1315.748,1698.358,1311.084z"/>
										</g>
									</g>
								</g>
							</g>
							<g>
								<g>
									<g>
										<g>
											<path style="fill:#FFFFFF;" d="M1693.939,1344.789c-19.567,7.665-28.07,35.13-18.992,61.345
												c9.078,26.215,32.297,41.252,51.865,33.586c19.566-7.664,28.07-35.13,18.992-61.344
												C1736.726,1352.161,1713.507,1337.123,1693.939,1344.789z"/>
										</g>
									</g>
								</g>
							</g>
							<g>
								<g>
									<g>
										<g>
											<path style="fill:#B199C5;" d="M1627.607,1518.465c-9.273,6.32-10.447,21.407-2.625,33.696
												c7.822,12.291,21.68,17.13,30.951,10.809c9.272-6.319,10.447-21.406,2.624-33.695
												C1650.737,1516.985,1636.877,1512.146,1627.607,1518.465z"/>
										</g>
									</g>
								</g>
							</g>
						</g>
						<g>
							<g>
								<g>
									<g>
										<g>
											<path style="fill:#35374D;" d="M2312.413,1311.084c61.31-4.665,118.135,56.762,126.921,137.197
												c8.787,80.436-33.793,149.423-95.104,154.087c-61.309,4.664-118.135-56.76-126.921-137.197
												C2208.523,1384.736,2251.104,1315.748,2312.413,1311.084z"/>
										</g>
									</g>
								</g>
							</g>
							<g>
								<g>
									<g>
										<g>
											<path style="fill:#FFFFFF;" d="M2316.832,1344.789c19.567,7.665,28.07,35.13,18.992,61.345
												c-9.078,26.215-32.297,41.252-51.865,33.586c-19.566-7.664-28.07-35.13-18.992-61.344
												C2274.045,1352.161,2297.264,1337.123,2316.832,1344.789z"/>
										</g>
									</g>
								</g>
							</g>
							<g>
								<g>
									<g>
										<g>
											<path style="fill:#B199C5;" d="M2383.164,1518.465c9.273,6.32,10.447,21.407,2.625,33.696
												c-7.822,12.291-21.68,17.13-30.951,10.809c-9.272-6.319-10.447-21.406-2.624-33.695
												C2360.034,1516.985,2373.894,1512.146,2383.164,1518.465z"/>
										</g>
									</g>
								</g>
							</g>
						</g>
					</g>
					<g>
						<g>
							<g>
								<path style="fill:#35374D;" d="M2130.352,1703.562c17.357-14.292,31.972-34.665,31.396-57.3
									c-0.239-32.415-32.789-55.335-63.599-49.999c-33.068,4.936-58.026,30.334-80.505,53.734
									c-3.603,4.287-8.172,5.847-13.506,5.344c-4.462-0.069-8.346-2.152-10.979-5.368c-20.903-24.899-47.257-49.598-80.515-53.941
									c-46.09-6.299-79.221,40.228-54.884,81.212c5.38,9.965,13.383,18.757,22.313,26.813c3.365,2.787-0.476,8.117-4.165,5.95
									c-111.33-67.321,2.778-206.475,112.798-106.342c9.949,8.918,18.482,18.901,26.409,29.233l-10.977-5.369l2.495-0.042
									l-11.008,5.386c14.788-22.021,34.96-41.599,59.263-53.198c38.252-19.827,91.855-13.716,114.868,26.085
									c23.554,39.253,2.132,83.878-34.547,104.742C2130.676,1713.216,2126.317,1706.788,2130.352,1703.562L2130.352,1703.562z"/>
							</g>
						</g>
						<g>
							<g>
								<path style="fill:#35374D;" d="M2105.325,1668.699c-1.79-5.354-7.894-6.134-10.381-2.788
									c-15.853,17.377-35.185,31.505-55.288,43.629c-9.208,5.704-21.285,11.63-32.996,11.203
									c-11.717,0.316-23.694-5.659-32.849-11.46c-20.027-12.253-39.129-26.562-55.056-43.847
									c-2.965-3.454-9.221-2.362-10.845,3.261c-0.509,2.192-3.912,2.08-4.336-0.078c-2.785-11.982,13.245-19.767,22.634-12.551
									c0,0,6.409,4.902,6.409,4.902c15.595,12.657,31.905,24.33,49.473,34.006c8.397,4.703,15.297,8.717,24.57,8.438
									c9.269,0.149,16.066-3.913,24.421-8.694c8.596-5.027,17.151-10.18,25.303-15.976c8.242-5.679,15.952-12.068,23.884-18.259
									l6.465-4.893c3.474-2.419,7.859-3.301,11.689-2.62c7.254,0.93,13.613,8.764,11.406,15.645
									C2109.216,1670.798,2105.997,1670.802,2105.325,1668.699L2105.325,1668.699z"/>
							</g>
						</g>
						<g>
							<g>
								<path style="fill:#35374D;" d="M1884.114,1577.163c16.391-28.873,48.936-48.754,81.817-48.866
									c5.756-0.231,6.624,8.391,0.939,9.298c-28.839,4.072-52.897,22.414-64.379,48.956
									C1896.343,1599.857,1876.914,1589.983,1884.114,1577.163L1884.114,1577.163z"/>
							</g>
						</g>
						<g>
							<g>
								<path style="fill:#35374D;" d="M2106.436,1588.643c-9.753-26.583-32.04-45.477-60.289-51.047
									c-5.84-1.031-4.77-9.745,1.153-9.292c32.432,1.816,63.146,22.465,77.836,51.544
									C2131.715,1592.788,2112.234,1601.991,2106.436,1588.643L2106.436,1588.643z"/>
							</g>
						</g>
					</g>
					<g>
						<g>
							<g>
								<path style="fill:#35374D;" d="M2005.083,2044.498c-139.009,0-266.533-57.681-350.557-158.752
									c-5.347-6.431-4.468-15.974,1.963-21.318c6.426-5.352,15.977-4.463,21.318,1.963
									c79.204,95.276,200.161,149.126,332.085,147.808c128.091-1.304,247.939-56.47,320.586-147.568
									c5.21-6.538,14.736-7.607,21.274-2.397c6.538,5.212,7.607,14.739,2.397,21.274
									c-78.267,98.145-206.846,157.571-343.95,158.965C2008.496,2044.489,2006.782,2044.498,2005.083,2044.498z"/>
							</g>
						</g>
						<g>
							<g>
								<path style="fill:#35374D;" d="M1643.013,1934.46c-7.947-38.107,9.407-82.938,47.395-98.086
									c12.827-5.281,26.853-6.663,39.919-5.059c6.922,0.408,12.209,6.553,11.331,13.479c-0.809,6.623-6.891,11.321-13.503,10.43
									c-9.998-1.34-20.029-0.818-29.319,2.302c-30.702,10.402-45.364,44.453-44.834,76.206
									C1654.04,1940.616,1643.893,1941.288,1643.013,1934.46L1643.013,1934.46z"/>
							</g>
						</g>
						<g>
							<g>
								<path style="fill:#35374D;" d="M2359.294,1933.733c-1.987-20.481-8.485-42.778-22.324-58.069
									c-13.191-15.286-31.901-21.267-51.831-20.439c-7.021,0.81-13.469-4.427-13.638-11.585
									c-0.193-6.56,4.929-12.043,11.465-12.324c13.157-0.562,26.836,1.404,39.177,6.926c24.407,10.568,40.65,34.374,46.089,59.404
									c2.769,12.178,3.382,24.646,2.049,36.814c-0.33,3.003-3.03,5.173-6.035,4.844
									C2361.312,1938.997,2359.417,1936.499,2359.294,1933.733L2359.294,1933.733z"/>
							</g>
						</g>
						<g>
							<g>
								<path style="fill:#35374D;" d="M1926.428,2077.373c55.069,19.2,115.823,20.522,170.53,0.13
									c6.749-2.764,12.068,6.437,6.308,10.893c-39.267,29.099-93.033,32.465-139.079,20.162
									c-15.459-4.317-30.459-10.782-43.601-20.032c-2.866-2.019-3.555-5.979-1.538-8.845
									C1920.74,2077.278,1923.799,2076.404,1926.428,2077.373L1926.428,2077.373z"/>
							</g>
						</g>
					</g>
					<g>
						<g>
							<g>
								<path style="fill:#9A94A2;" d="M2519.836,2077.954c-86.587,98.192-279.592,166.463-503.83,166.463
									c-227.821,0-423.399-70.491-507.917-171.156c140.174,67.666,317.688,108.083,510.844,108.083
									C2207.547,2181.344,2381.226,2142.844,2519.836,2077.954z"/>
							</g>
						</g>
					</g>
					<g>
						<g>
							<path style="fill:#35374D;" d="M2016.006,2259.554c-149.946,0-291.147-29.98-397.593-84.419
								c-109.668-56.086-170.063-131.833-170.063-213.286c0-50.759,23.989-100.244,69.565-143.884
								c-33.369-38.425-61.895-81.858-84.902-129.304c-112.915-232.959-56.548-494.329,125.645-582.639
								c127.422-61.821,290.986-23.547,416.67,97.502c17.754,17.104,45.615,17.127,63.418,0.051
								c125.508-120.427,288.76-158.425,415.894-96.797c182.202,88.318,238.569,349.71,125.649,582.686
								c-20.928,43.167-46.572,83.191-76.348,119.172c52.227,45.945,79.727,98.662,79.727,153.213
								c0,81.453-60.396,157.2-170.063,213.286C2307.153,2229.574,2165.952,2259.554,2016.006,2259.554z M1688.677,1107.115
								c-40.903,0-80.532,8.547-116.812,26.147c-167.173,81.033-217.241,324.258-111.611,542.19
								c24.014,49.519,54.321,94.39,90.078,133.367c2.759,3.008,4.185,7.002,3.955,11.079c-0.225,4.077-2.09,7.888-5.171,10.569
								c-46.118,40.161-70.493,85.591-70.493,131.382c0,69.509,54.541,135.684,153.574,186.333
								c102.261,52.297,238.564,81.099,383.809,81.099s281.553-28.801,383.809-81.099
								c99.038-50.649,153.579-116.824,153.579-186.333c0-49.07-27.778-97.353-80.332-139.634
								c-3.213-2.583-5.234-6.367-5.591-10.474c-0.361-4.106,0.967-8.184,3.682-11.287c32.285-36.914,59.834-78.701,81.89-124.197
								c105.64-217.954,55.571-461.201-111.606-542.239c-115.61-56.03-265.449-20.161-381.733,91.401
								c-29.58,28.376-75.869,28.335-105.381-0.09C1874.336,1148.29,1778.442,1107.115,1688.677,1107.115z"/>
						</g>
					</g>
					<g>
						<g>
							<path style="fill:#35374D;" d="M2018.93,2312.535c-222.954,0-432.861-52.795-591.05-148.66
								c-161.348-97.781-250.21-228.862-250.21-369.102c0-37.271,6.416-74.47,19.072-110.566
								c40.259-114.8,57.261-229.563,50.537-341.108c-0.547-9.101-1.167-18.232-1.865-27.41
								c-3.325-43.806-3.223-87.041,0.298-128.499c17.217-202.612,107.71-372.913,261.689-492.493
								c137.852-107.048,319.458-166.836,511.367-168.35c192.236,1.514,373.843,61.301,511.694,168.35
								c153.979,119.578,244.473,289.88,261.689,492.493c3.521,41.458,3.623,84.693,0.298,128.504
								c-0.698,9.172-1.318,18.303-1.865,27.397c-6.724,111.548,10.278,226.313,50.532,341.113
								c12.651,36.084,19.072,73.284,19.072,110.569c0,140.239-88.857,271.321-250.205,369.102
								C2451.797,2259.74,2241.889,2312.535,2018.93,2312.535z M2018.769,566.715c-327.476,2.583-696.724,198.921-732.832,623.894
								c-3.34,39.312-3.432,80.369-0.269,122.029c0.708,9.392,1.348,18.733,1.904,28.037
								c7.051,116.924-10.693,237.002-52.734,356.89c-11.148,31.792-16.797,64.5-16.797,97.209
								c0,263.237,359.277,477.395,800.889,477.395s800.889-214.158,800.889-477.395c0-32.724-5.649-65.43-16.797-97.209
								c-42.036-119.893-59.78-239.971-52.729-356.897c0.557-9.297,1.196-18.638,1.904-28.025
								c3.164-41.665,3.071-82.722-0.269-122.034C2715.82,765.636,2346.567,569.298,2018.769,566.715z"/>
						</g>
					</g>
					<g>
						<g>
							<path style="fill:#6C6A74;" d="M2239.485,657.491c14.849-38.255,41.102-70.757,75.417-99.191
								c7.421-6.149,6.907-18.244-1.143-23.429c-72.62-46.771-156.82-31.307-245.64,11.61
								c48.13-46.381,60.063-97.026,28.406-155.853c-4.194-7.794-14.256-9.55-20.442-3.426
								c-72.648,71.929-283.316,150.977-436.853,270.467L2239.485,657.491z"/>
						</g>
					</g>
					<g style="opacity:0.5;">
						<g>
							<g>
								<path style="fill:#FFFFFF;" d="M2083.633,574.392c80.186-35.97,156.221-47.595,222.888-8.803
									c2.764-2.444,5.502-4.903,8.382-7.289c7.422-6.149,6.907-18.244-1.143-23.429c-62.372-40.171-133.29-34.408-208.337-4.797
									c-37.173,2.178-61.71,14.073-62.521,26.499c-0.251,3.839,1.775,7.559,4.818,10.927
									C2056.704,577.446,2071.404,579.878,2083.633,574.392z"/>
							</g>
						</g>
						<g>
							<g>
								<path style="fill:#FFFFFF;" d="M2076.084,422.345c6.186-6.125,16.248-4.368,20.442,3.426
									c8.407,15.623,13.65,30.653,16.047,45.195c4.335-25.154-0.676-51.774-16.047-80.337c-4.194-7.794-14.256-9.55-20.442-3.426
									c-72.648,71.929-283.316,150.977-436.853,270.467l48.343-0.015C1834.139,557.365,2010.811,486.972,2076.084,422.345z"/>
							</g>
						</g>
					</g>
					<g>
						<g>
							<path style="fill:#35374D;" d="M1586.416,641.401c125.057-91.865,269.074-150.533,402.274-227.164
								c21.564-12.746,42.268-26.885,60.949-43.468c15.787-13.143,41.242-7.968,50.972,9.82
								c15.799,27.893,25.243,59.663,19.641,92.204c-5.693,35.729-28.228,65.431-53.682,88.623c0,0-21.948-33.301-21.948-33.301
								c33.442-15.115,68.547-27.9,105.698-35.01c37.509-6.871,77.091-7.917,114.299,2.581
								c21.788,6.204,43.109,15.213,61.355,28.522c14.444,12.323,12.621,36.952-3.187,47.217
								c-33.019,24.146-59.453,54.505-81.703,88.867c-2.166,3.303-6.597,4.226-9.9,2.06c-2.559-1.675-3.684-4.727-3.059-7.544
								c4.114-18.342,12.368-35.745,22.893-51.372c13.312-19.51,29.79-36.253,47.402-51.641l5.322-4.504l1.333-1.128
								c-0.097-0.069-0.199,0.047-0.31,0.127c-0.798,0.523-0.458,1.779,0.122,2.373c-76.043-44.58-168.396-18.47-243.523,16.183
								c-20.869,8.999-38.332-17.966-21.926-33.324c46.4-42.17,52.492-82.154,27.174-129.516c2.239,2.213,6.165,2.311,8.583-0.039
								c0,0-0.3,0.254-0.3,0.254l-1.194,1.016c-13.601,11.962-28.893,23.481-44.102,33.044
								c-85.066,53.531-177.992,93.592-265.139,142.091c-53.448,29.217-105.677,60.277-154.293,95.666
								C1588.614,689.008,1565.068,658.007,1586.416,641.401L1586.416,641.401z"/>
						</g>
					</g>
				</g>
			</g>
		</g>
	</g>
</g>
</svg>
