<?xml version="1.0" encoding="utf-8"?>
<!-- Generator: Adobe Illustrator 27.5.0, SVG Export Plug-In . SVG Version: 6.00 Build 0)  -->
<svg version="1.1" id="Layer_1" xmlns="http://www.w3.org/2000/svg" xmlns:xlink="http://www.w3.org/1999/xlink" x="0px" y="0px"
	 viewBox="0 0 4000 4000" style="enable-background:new 0 0 4000 4000;" xml:space="preserve">
<g>
	<g>
		<!-- <rect style="fill:#02DAFF;" width="4000" height="4000"/> -->
	</g>
	<g>
		<g>
			<path style="fill:#FFFFFF;" d="M1679.248,1599.912c-51.65-0.667-103.291-2.285-154.91-4.595
				c-25.811-1.118-51.616-2.432-77.415-3.943c-25.791-1.619-51.57-3.459-77.341-5.42c-103.064-8.008-206.035-18.677-308.333-34.897
				c-51.157-8.013-102.183-17.114-152.922-27.993c-50.701-10.989-101.296-23.191-150.893-39.536
				c-24.827-8.044-49.431-17.09-73.484-27.771c-24.014-10.745-47.754-22.708-69.688-38.484c-10.93-7.905-21.445-16.78-30.618-27.449
				c-9.08-10.542-17.058-23.538-19.504-38.643c-1.282-7.454-1.05-15.283,0.774-22.549c0.659-3.721,2.18-7.114,3.418-10.574
				c1.626-3.247,3.071-6.626,5.09-9.553c7.566-12.153,17.576-21.716,28.14-29.897c21.279-16.311,44.819-27.988,68.625-38.408
				c23.982-10.042,48.284-19.023,72.974-26.721c24.697-7.637,49.487-14.875,74.49-21.292c25-6.418,50.132-12.241,75.244-18.169
				c50.229-11.819,100.627-23.184,151.245-33.928c50.605-10.811,101.609-19.785,152.874-26.577
				c102.634-12.737,205.691-21.353,308.848-27.661c103.167-6.179,206.479-9.873,309.822-10.767
				c103.337-0.92,206.711,0.371,310.029,4.321c103.308,4.172,206.528,11.248,309.529,21.335
				c102.996,10.107,205.754,23.806,307.729,43.32c50.986,9.724,101.777,20.955,152.122,34.68
				c25.168,6.882,50.22,14.407,75.042,23.018c24.814,8.633,49.453,18.132,73.547,29.744c24.06,11.465,47.605,25.891,67.063,46.619
				c9.609,10.327,18.213,22.539,22.971,36.882c5.095,14.165,4.182,30.562-1.604,43.523c-2.896,6.523-6.721,12.327-10.879,17.673
				c-4.395,5.154-8.879,10.088-13.887,14.409c-9.722,8.945-20.474,16.367-31.313,23.538c-21.87,14.109-45.049,25.842-68.398,37.363
				c-46.887,22.571-95.432,42.861-145.542,57.039c-25.024,7.209-50.41,12.852-75.786,18.354
				c-25.388,5.461-50.847,10.488-76.355,15.171c-102.061,18.616-204.927,31.333-307.981,40.461
				c-103.081,8.848-206.401,14.194-309.744,15.186l-1.104-29.978c102.629-6.643,205.12-13.85,307.295-23.848
				c102.173-9.802,204.07-22.095,305.117-38.682c25.259-4.148,50.449-8.635,75.535-13.54c25.1-4.863,50.015-10.444,75.024-15.562
				l37.534-7.666c12.551-2.439,25.063-5.063,37.566-7.778c24.998-5.417,50.01-11.265,74.309-19.358
				c24.329-7.913,48.115-17.93,69.771-31.489c10.82-6.724,21.067-14.504,29.695-23.682c4.297-4.6,8.14-9.548,11.353-14.785
				c3.093-5.295,5.486-10.874,6.838-16.528c2.551-11.423,0.237-22.593-5.667-31.763c-5.703-9.319-14.368-17.026-23.84-23.877
				c-9.487-6.855-19.805-13.005-30.483-18.76c-10.593-5.894-21.692-11.279-32.866-16.616
				c-22.429-10.581-46.023-19.465-69.937-27.546c-23.936-8.074-48.325-15.171-72.917-21.665
				c-49.209-12.954-99.219-23.567-149.539-32.705c-50.322-9.165-100.979-16.873-151.792-23.567
				c-50.811-6.729-101.755-12.715-152.817-17.756c-102.131-10.073-204.644-16.875-307.268-21.331
				c-102.612-4.79-205.383-6.946-308.157-6.897c-205.513,0.286-411.213,8.633-615.522,30.315
				c-102.065,10.457-205.264,16.296-306.252,36.902c-25.234,5.039-50.256,11.096-75.083,17.81
				c-24.819,6.724-49.539,13.872-73.755,22.437c-24.233,8.469-48.171,17.813-71.15,28.984
				c-22.808,11.299-45.293,23.833-63.997,40.205c-9.326,8.103-17.625,17.278-23.091,27.419c-1.531,2.473-2.405,5.142-3.557,7.7
				c-0.715,2.656-1.782,5.247-2.031,7.927c-1.013,5.298-0.818,10.642,0.398,15.803c2.295,10.361,8.711,20.027,16.868,28.396
				c8.149,8.43,17.881,15.796,28.228,22.375c42.051,25.935,90.698,42.461,139.133,57.319
				c97.627,28.884,198.682,47.827,300.085,62.661c203.098,29.209,408.43,43.586,613.872,51.323L1679.248,1599.912z"/>
		</g>
		<g>
			<path style="fill:#000072;" d="M1548.228,2862.119c-47.031,0-91.787-19.399-124.268-54.38l-12.28-13.23
				c-9.395-10.12-8.809-25.938,1.309-35.33c10.122-9.397,25.933-8.806,35.332,1.311l12.28,13.228
				c25.103,27.026,60.542,40.859,97.368,38.01l891.982-61.226c13.95-0.903,25.713,9.458,26.655,23.23
				c0.947,13.774-9.453,25.708-23.228,26.653l-891.748,61.208C1557.148,2861.946,1552.676,2862.119,1548.228,2862.119z"/>
		</g>
		<g>
			<path style="fill:#000072;" d="M983.394,2727.568c-47.026,0-91.782-19.402-124.258-54.382l-12.285-13.223
				c-9.395-10.117-8.809-25.935,1.309-35.332c10.112-9.395,25.933-8.811,35.332,1.304l12.285,13.228
				c25.098,27.039,60.61,40.879,97.363,38.015l891.987-61.226c13.906-0.942,25.713,9.458,26.655,23.23
				c0.947,13.774-9.453,25.708-23.228,26.653l-891.753,61.208C992.319,2727.395,987.847,2727.568,983.394,2727.568z"/>
		</g>
		<g>
			<path style="fill:#000072;" d="M1648.838,2854.7c-7.28,0-14.497-3.164-19.438-9.263c-22.598-27.891-26.885-73.098-31.846-125.444
				c-7.109-75.015-15.166-160.039-74.805-216.899c-9.995-9.526-10.371-25.352-0.845-35.344c9.526-9.988,25.356-10.376,35.347-0.842
				c73.154,69.741,82.539,168.784,90.083,248.369c4.019,42.439,7.817,82.522,20.913,98.687c8.691,10.728,7.041,26.47-3.687,35.161
				C1659.932,2852.876,1654.365,2854.7,1648.838,2854.7z"/>
		</g>
		<g>
			<path style="fill:#000072;" d="M2345.068,2807.761c-7.383,0-14.692-3.254-19.629-9.497
				c-34.888-44.141-40.889-92.517-47.246-143.735c-7.129-57.49-14.507-116.938-64.541-180.916
				c-8.506-10.876-6.587-26.587,4.292-35.093c10.884-8.511,26.592-6.58,35.093,4.292c58.564,74.883,67.178,144.307,74.78,205.559
				c5.703,45.996,10.635,85.718,36.851,118.887c8.56,10.833,6.719,26.555-4.111,35.117
				C2355.967,2806.001,2350.498,2807.761,2345.068,2807.761z"/>
		</g>
		<g>
			<path style="fill:#000072;" d="M971.519,2727.004c-5.239,0-10.518-1.641-15.024-5.037c-11.03-8.311-13.232-23.984-4.922-35.012
				c20.957-27.81,37.344-66.226,53.193-103.376c29.99-70.298,60.996-142.988,128.789-161.665c13.306-3.667,27.07,4.15,30.742,17.461
				c3.667,13.311-4.15,27.075-17.461,30.742c-44.546,12.273-69.575,70.955-96.079,133.081
				c-17.021,39.907-34.629,81.172-59.253,113.85C986.592,2723.567,979.102,2727.004,971.519,2727.004z"/>
		</g>
		<g>
			<path style="fill:#000072;" d="M1707.505,2678.21c-2.563,0-5.166-0.398-7.734-1.233c-13.13-4.268-20.313-18.374-16.045-31.504
				c17.646-54.285,20.469-104.883,8.618-154.688c-3.193-13.433,5.103-26.912,18.535-30.107c13.428-3.186,26.909,5.107,30.107,18.535
				c14.038,59.004,10.859,118.442-9.712,181.719C1727.842,2671.494,1718.042,2678.21,1707.505,2678.21z"/>
		</g>
		<g>
			<path style="fill:#EC1C24;" d="M3440,2080.95l-27.5,81.55l-97.4,4.7l-269.9,13l-113.85,5.5l-64.8,3.1l-164.55,7.95l-54.4,2.6
				c-58.25,2.8-114,22.9-160.25,57.2c-13.65,10.05-26.5,21.399-38.3,33.899l-72.6,76.65c-74.35,78.45-177.65,122.9-285.75,122.9
				h-713.35c-67.2,0-134.05-9.4-198.65-27.75c-312.25-88.75-412.05-170.35-386.65-247.75c15.85-48.25,80.4-94.9,172.5-140.549
				c31.2-15.5,57.75-39.05,76.4-68.5l133.5-210.65c15.75-24.85,37.25-44.8,62.25-58.55c24.95-13.75,53.35-21.25,82.75-21.25
				l47.05-57.45c21.2-25.9,52.9-40.9,86.35-40.9h213.8c10.25-46.25,51.25-79.15,98.6-79.15h73.5c172.45,0,336.65,65.5,460.95,180.3
				c33.45,30.9,64.05,65.35,91.1,103.099l51.75,72.1c27.15,36.45,67.8,60.5,112.85,66.65l39.65,4.65l177.75,20.75l70,8.15
				l122.95,14.35l123.7,14.449c39.4,4.601,77.45-15.85,95.35-51.2l110.15-217.45l17.95-35.499l80.45,25.499l-8.45,36.951
				l-57.5,252.05c-3.95,17.25,7.75,34.2,25.35,36.65L3440,2080.95z"/>
		</g>
		<g>
			<polygon style="fill:#FFFFFF;" points="2866.55,2188.8 2702,2196.75 2595.05,1964.3 2772.8,1985.05 			"/>
		</g>
		<g>
			<polygon style="fill:#FFFFFF;" points="3045.2,2180.2 2931.35,2185.7 2842.8,1993.2 2965.75,2007.55 			"/>
		</g>
		<g>
			<path style="fill:#FFFFFF;" d="M2487.35,2256.55c-13.65,10.05-26.5,21.399-38.3,33.899l-72.6,76.65
				c-74.35,78.45-177.65,122.9-285.75,122.9h-713.35c-67.2,0-134.05-9.4-198.65-27.75c-312.25-88.75-412.05-170.35-386.65-247.75
				l0.05-0.049l42.3-15.05c14.45-5.1,29.7-7.75,45.05-7.75h55.1c47.75,0,94.7,12.7,135.95,36.85l236.25,138
				c29.15,17,62.3,26,96.05,26h685.15c66.4,0,131.15-20.65,185.25-59.05l94.95-67.35c27.7-19.65,62.85-25.65,95.55-16.35
				L2487.35,2256.55z"/>
			<path style="fill:#000072;" d="M2090.698,2492.5h-713.35c-67.222,0-134.287-9.368-199.331-27.844
				c-223.023-63.389-348.149-125.657-382.524-190.361c-10.542-19.836-12.5-40.217-5.815-60.574l0.186-0.566l1.396-1.06l42.3-15.051
				c14.844-5.237,30.278-7.893,45.889-7.893h55.103c48.203,0,95.649,12.861,137.212,37.192l236.245,138
				c28.784,16.785,61.563,25.657,94.79,25.657h685.151c66.25,0,129.805-20.259,183.804-58.589l94.951-67.349
				c28.457-20.19,64.067-26.279,97.681-16.716l28.535,8.206l-4.087,3.013c-13.594,10.01-26.367,21.313-37.969,33.601l-72.598,76.653
				C2303.77,2447.419,2198.955,2492.5,2090.698,2492.5z M794.067,2216.404c-5.806,18.643-3.843,37.322,5.84,55.547
				c33.706,63.438,157.832,124.897,379.478,187.896c64.6,18.35,131.206,27.654,197.964,27.654h713.35
				c106.895,0,210.386-44.512,283.936-122.119l72.598-76.65c10.649-11.277,22.271-21.746,34.6-31.165l-18.818-5.413
				c-32.158-9.146-66.201-3.32-93.418,15.986l-94.951,67.349C2219.8,2374.421,2155.239,2395,2087.949,2395h-685.151
				c-34.111,0-67.764-9.109-97.31-26.338l-236.25-138.003c-40.796-23.884-87.373-36.509-134.688-36.509h-55.103
				c-15.044,0-29.917,2.559-44.219,7.607L794.067,2216.404z"/>
		</g>
		<g style="opacity:0.55;">
			<path style="fill:#FFFFFF;" d="M1238.75,2476.6c-20.2-3.95-40.2-8.75-60.05-14.351c-312.25-88.75-412.05-170.35-386.65-247.75
				c15.85-48.25,80.4-94.9,172.5-140.549c16.7-8.3,32.05-18.9,45.55-31.45c0.1-0.1,0.2-0.2,0.3-0.25l72.05-15.649
				c0,0.049-0.05,0.099-0.1,0.15c-18.05,24.7-41.95,44.65-69.45,58.3c-92.1,45.65-156.65,92.3-172.5,140.55
				c-25.4,77.4,74.4,159,386.65,247.75C1230.95,2474.45,1234.85,2475.5,1238.75,2476.6z"/>
		</g>
		<g>
			<path style="fill:#959AAF;" d="M3440,2080.95l-1.45,4.301l-37.45-5.15c-5.7-0.8-10.8-3.15-14.95-6.55L3440,2080.95z"/>
			<path style="fill:#000072;" d="M3440.259,2088.01l-39.502-5.435c-5.957-0.835-11.553-3.289-16.191-7.092l-6.841-5.615
				l65.61,9.016L3440.259,2088.01z"/>
		</g>
		<g>
			<path style="fill:#959AAF;" d="M2565.4,1960.8l-10-1.15c-45.05-6.15-85.7-30.2-112.85-66.65l-51.75-72.1
				c-92.5-128.95-225.95-219.9-375.8-260.15c169.3,32.451,321.8,128.55,424.15,271.25l51.75,72.101
				C2510.05,1929.85,2535.95,1949.4,2565.4,1960.8z"/>
		</g>
		<g style="opacity:0.55;">
			<path style="fill:#FFFFFF;" d="M2295.4,1772.5c-153.45-75.95-394.15-98.7-646.8-114.2h-213.8c-29.5,0-57.65,11.65-78.4,32.2
				l10.1-32.95c21.2-25.9,52.9-40.9,86.35-40.9H1620c0,0,22.45,0.55,48,0.85c31.85,0.45,68.45,0.6,72-0.85
				c6.35-2.599,293.65,36.1,293.65,36.1l180.25,51.799C2242.7,1724.95,2269.95,1747.65,2295.4,1772.5z"/>
		</g>
		<g style="opacity:0.3;">
			<path style="fill:#000072;" d="M3297.4,2113.7l-3,45.25l-648.45,31.25c-58.25,2.8-114,22.9-160.25,57.2
				c-13.65,10.05-26.5,21.4-38.3,33.9l-72.6,76.65c-74.35,78.45-177.65,122.9-285.75,122.9H1375.7
				c-67.2,0-134.05-9.399-198.65-27.75C872.1,2366.45,769.8,2286.6,788.8,2210.8c46.65,52.9,160.1,107.95,364.75,166.151
				c64.6,18.35,131.45,27.75,198.65,27.75h713.35c108.1,0,211.4-44.449,285.75-122.95l72.6-76.6c11.8-12.5,24.65-23.85,38.3-33.9
				c46.25-34.3,102-54.45,160.25-57.2l671.7,0.95L3297.4,2113.7z"/>
		</g>
		<g style="opacity:0.55;">
			<path style="fill:#FFFFFF;" d="M3179.1,1980.5l-12.35,31.95c-17.9,35.35-55.95,55.8-95.35,51.2l-534.05-62.35
				c-45.05-6.15-85.7-30.2-112.85-66.65l-51.75-72.1c-23.3-32.5-49.25-62.6-77.35-90.05c-25.45-24.85-44.251-57.587-73.051-77.988
				c-113.45-80.549-258.949-115.362-401.649-115.362h-73.5c-31.7,0-60.5,14.75-79.2,38.35c-25.55-0.3-48-0.85-48-0.85h46.65
				c10.25-46.25,51.25-79.15,98.6-79.15h73.5c218.9,0,424.45,105.5,552.05,283.4l51.75,72.1c27.15,36.45,67.8,60.5,112.85,66.65
				l534.05,62.35C3125.1,2026.15,3159.65,2009.8,3179.1,1980.5z"/>
		</g>
		<g>
			<path style="fill:#959AAF;" d="M1930.1,1397.7v81.5c-15.65-17.8-42.9-29.5-70.95-32.599h-0.05c-13.2-1.55-26.65-1.1-39.1,1.5
				c-20.45,4.2-38.3,14.2-48.65,31.1v-85.25c0-13.75,6.7-26.75,18.1-34.451c8.85-6,19.3-10.049,30.55-12.35
				c12.45-2.6,25.9-3,39.15-1.5c18.2,2,36.05,7.65,50.6,16.2C1922.45,1369.3,1930.1,1383,1930.1,1397.7z"/>
			<path style="fill:#000072;" d="M1768.848,1488.066v-94.116c0-14.746,7.178-28.398,19.199-36.521
				c8.833-5.984,19.414-10.266,31.45-12.727c12.295-2.571,26.108-3.105,39.937-1.538c18.604,2.048,36.929,7.917,51.582,16.531
				c13.311,7.808,21.582,22.371,21.582,38.005v88.127l-4.38-4.978c-14.697-16.716-40.62-28.591-69.341-31.763
				c-13.174-1.538-26.416-1.035-38.364,1.46c-21.47,4.409-37.729,14.768-47.031,29.958L1768.848,1488.066z M1843.965,1443.213
				c5.112,0,10.283,0.3,15.43,0.906c27.31,3.01,52.261,13.662,68.203,28.877V1397.7c0-13.87-7.324-26.78-19.111-33.694
				c-14.063-8.264-31.68-13.899-49.609-15.872c-13.306-1.506-26.567-1.001-38.364,1.462c-11.401,2.332-21.377,6.357-29.663,11.973
				c-10.645,7.195-17.002,19.297-17.002,32.38v77.385c10.376-12.83,25.991-21.648,45.649-25.684
				C1827.256,1444.031,1835.532,1443.213,1843.965,1443.213z"/>
		</g>
		<g style="opacity:0.55;">
			<path style="fill:#FFFFFF;" d="M1859.15,1345.65v100.95h-0.05l-39.1,1.5v-100.95C1832.45,1344.55,1845.9,1344.15,1859.15,1345.65
				z"/>
		</g>
		<g>
			<path style="fill:#000072;" d="M1771.348,1494.202c-1.348,0-2.715-0.183-4.063-0.564c-6.47-1.819-10.938-7.72-10.938-14.438
				v-85.249c0-18.879,9.233-36.404,24.702-46.875c40.205-27.227,100.244-19.377,136.323,1.829
				c17.1,10.054,27.725,28.75,27.725,48.794v81.501c0,6.245-3.872,11.838-9.717,14.038c-5.835,2.209-12.441,0.547-16.558-4.146
				c-16.66-18.989-52.104-30.762-84.341-27.988c-13.604,1.172-38.223,6.094-50.337,25.916
				C1781.372,1491.56,1776.479,1494.199,1771.348,1494.202z M1844.375,1430.684c25.361,0,50.537,6.501,70.723,17.83v-50.815
				c0-9.456-4.956-18.242-12.93-22.93c-32.026-18.831-78.809-20.105-104.302-2.854c-7.212,4.885-11.519,13.123-11.519,22.036v50.732
				c12.764-7.356,28.184-11.973,45.562-13.467C1836.055,1430.857,1840.22,1430.684,1844.375,1430.684z"/>
		</g>
		<g>
			<path style="fill:#000072;" d="M1850.176,1523.406c-6.807,0-13.54-0.352-20.073-1.023c-18.345-1.895-62.163-9.38-72.813-37.947
				c-1.606-4.314-1.143-9.128,1.26-13.057c14.077-23.04,40.127-37.305,73.359-40.166c42.275-3.638,86.274,11.665,109.463,38.093
				c4.38,4.993,4.956,12.271,1.416,17.888C1926.611,1512.871,1887.456,1523.406,1850.176,1523.406z M1790.151,1479.287
				c7.061,5.251,21.543,11.038,43.032,13.252c30.405,3.13,59.717-2.148,75.352-12.664c-18.618-13.428-47.432-21.067-74.053-18.772
				C1822.856,1462.104,1803.184,1465.845,1790.151,1479.287z"/>
		</g>
		<g style="opacity:0.55;">
			<polygon style="fill:#FFFFFF;" points="3393.35,1743.35 3384.9,1780.3 3294.95,1753.35 3312.9,1717.85 			"/>
		</g>
		<g>
			<path style="fill:#000072;" d="M1930.1,1479.2c-26.75,42.45-145.6,35.3-158.75,0C1801.35,1430.1,1895,1439.2,1930.1,1479.2z"/>
			<path style="fill:#000072;" d="M1849.941,1510.886c-6.333,0-12.573-0.322-18.555-0.938
				c-25.767-2.659-55.684-11.902-62.383-29.875l-0.425-1.14l0.635-1.038c11.953-19.561,34.6-31.716,63.765-34.226
				c37.93-3.279,78.628,10.667,98.999,33.882l1.23,1.401l-0.996,1.58C1918.628,1502.09,1883.032,1510.886,1849.941,1510.886z
				 M1774.15,1479.436c5.708,12.522,28.12,22.483,57.749,25.537c34.941,3.594,79.028-2.927,95.039-25.542
				c-19.785-21.24-57.881-33.862-93.53-30.781C1806.406,1450.974,1785.425,1461.89,1774.15,1479.436z"/>
		</g>
		<g>
			<path style="fill:#959AAF;" d="M1804.167,1527.5v-20.22c0-16.69,13.53-30.221,30.22-30.221h22.892
				c16.69,0,30.22,13.53,30.22,30.221v21.977"/>
			<path style="fill:#000072;" d="M1890,1529.255h-5v-21.975c0-15.286-12.437-27.722-27.72-27.722h-22.896
				c-15.283,0-27.72,12.437-27.72,27.722v20.22h-5v-20.22c0-18.042,14.678-32.722,32.72-32.722h22.896
				c18.042,0,32.72,14.68,32.72,32.722V1529.255z"/>
		</g>
		<g>
			<path style="fill:#000072;" d="M1887.5,1544.255c-8.286,0-15-6.716-15-15v-21.975c0-8.394-6.826-15.222-15.22-15.222h-22.896
				c-8.394,0-15.22,6.829-15.22,15.222v20.22c0,8.284-6.714,15-15,15s-15-6.716-15-15v-20.22c0-24.937,20.283-45.222,45.22-45.222
				h22.896c24.937,0,45.22,20.286,45.22,45.222v21.975C1902.5,1537.539,1895.786,1544.255,1887.5,1544.255z"/>
		</g>
		<g>
			<path style="fill:#0DD1FF;" d="M1641,1922.9l-56.3,203.6c-7.9,28.55-29.2,50.549-55.95,60.05c-9.35,3.3-19.35,5.1-29.7,5.1
				h-10.15c-3.25,0-6.5-0.1-9.7-0.35c-20.25-1.35-39.9-6.95-57.75-16.4c-5.3-2.8-10.45-5.95-15.4-9.4l-101.5-71.3l-59.5-41.8
				l-0.05-0.05l-27.3-19.2c-13.7-9.65-30-14.8-46.75-14.8h-37.8c-7.6,0-15.2,1.05-22.55,3.151l-106.95,30.85
				c16.55-13.1,30.9-28.9,42.3-46.9l133.5-210.65c14.85-23.4,34.8-42.5,57.95-56.1c1.4-0.85,2.85-1.65,4.3-2.45
				c24.95-13.75,53.35-21.25,82.75-21.25h174.1c26.45,0,51.6,7.15,73.3,19.9c32.15,18.85,56.7,49.9,66.75,87.85l2.85,10.9
				C1649.25,1862.9,1649.1,1893.7,1641,1922.9z"/>
			<path style="fill:#000072;" d="M1499.048,2194.15h-10.146c-3.574,0-6.807-0.117-9.897-0.356
				c-20.645-1.377-40.415-6.99-58.726-16.685c-5.337-2.822-10.605-6.038-15.659-9.558l-188.359-132.356
				c-13.325-9.385-28.994-14.346-45.308-14.346h-37.803c-7.417,0-14.775,1.028-21.86,3.057l-119.146,34.365l9.956-7.881
				c16.538-13.093,30.581-28.665,41.738-46.279l133.501-210.649c14.819-23.347,35.151-43.03,58.799-56.917
				c1.392-0.847,2.871-1.665,4.355-2.483c25.596-14.106,54.624-21.563,83.955-21.563h174.102c26.24,0,52.026,7,74.565,20.244
				c33.77,19.8,57.886,51.538,67.9,89.368l2.852,10.906c7.905,29.653,7.749,60.969-0.459,90.552l-56.299,203.599
				c-7.935,28.684-29.438,51.765-57.524,61.738C1519.727,2192.385,1509.453,2194.15,1499.048,2194.15z M1133.149,2015.85h37.803
				c17.354,0,34.014,5.276,48.188,15.256l188.345,132.349c4.878,3.398,9.971,6.506,15.132,9.236
				c17.69,9.363,36.782,14.785,56.748,16.116c2.983,0.232,6.094,0.344,9.536,0.344h10.146c9.839,0,19.551-1.667,28.872-4.958
				c26.543-9.426,46.87-31.243,54.375-58.357l56.299-203.604c7.969-28.723,8.12-59.131,0.439-87.937l-2.852-10.911
				c-9.678-36.538-32.974-67.2-65.596-86.328c-21.777-12.793-46.685-19.556-72.036-19.556h-174.102
				c-28.486,0-56.685,7.241-81.543,20.94c-1.416,0.781-2.837,1.565-4.204,2.397c-22.998,13.506-42.744,32.622-57.144,55.303
				l-133.496,210.647c-9.365,14.788-20.708,28.169-33.809,39.905l95.654-27.593
				C1117.446,2016.943,1125.264,2015.85,1133.149,2015.85z"/>
		</g>
		<g style="opacity:0.3;">
			<path style="fill:#000072;" d="M1641,1922.9l-56.3,203.6c-10.65,38.5-45.7,65.15-85.65,65.15h-10.15
				c-29.65,0-58.6-9.15-82.85-26.15l-27.1-19.05c12.4,3.4,25.25,5.2,38.3,5.2h10.15c39.95,0,75-26.65,85.65-65.15l56.3-203.6
				c8.1-29.2,8.25-60,0.45-89.25l-2.85-10.9c-6.6-24.85-19.4-46.75-36.5-64.2c14.7,3.3,28.65,8.85,41.4,16.35
				c32.15,18.85,56.7,49.9,66.75,87.85l2.85,10.9C1649.25,1862.9,1649.1,1893.7,1641,1922.9z"/>
		</g>
		<g style="opacity:0.55;">
			<path style="fill:#FFFFFF;" d="M1628.8,1796.5c-26.9-31.901-67-51.5-110.75-51.5h-174.1c-29.4,0-57.8,7.5-82.75,21.25
				c-25,13.75-46.5,33.7-62.25,58.55l-132.8,209.5l-62.5,18.05c16.55-13.1,30.9-28.9,42.3-46.9l133.5-210.65
				c15.75-24.85,37.25-44.8,62.25-58.55c24.95-13.75,53.35-21.25,82.75-21.25h174.1C1554.75,1715,1604.95,1747.35,1628.8,1796.5z"/>
		</g>
		<g style="opacity:0.45;">
			<path style="fill:#FFFFFF;" d="M1431.45,2174.9c-5.3-2.8-10.45-5.95-15.4-9.4l-101.5-71.3l-67.15-355.5
				c1.4-0.85,2.85-1.65,4.3-2.45c24.95-13.75,53.35-21.25,82.75-21.25h10.1L1431.45,2174.9z"/>
		</g>
		<g style="opacity:0.45;">
			<path style="fill:#FFFFFF;" d="M1538.75,2186.55c-9.35,3.3-19.35,5.1-29.7,5.1h-10.15c-3.25,0-6.5-0.1-9.7-0.35l-90-476.3h50.4
				L1538.75,2186.55z"/>
		</g>
		<g>
			<polygon style="fill:#E55353;" points="1340,1715 1415,1715 1217.98,2024.85 1172.206,2018.59 1119.618,2018.842 			"/>
			<path style="fill:#000072;" d="M1219.229,2027.546l-47.358-6.479l-57.168,0.3l224.023-308.867h80.825L1219.229,2027.546z
				 M1172.197,2016.089l44.531,6.069l193.721-304.658h-69.175l-216.738,298.818L1172.197,2016.089z"/>
		</g>
		<g>
			<path style="fill:#000072;" d="M998.652,2067.351h-0.054c-8.286,0-15-6.716-15-15s6.714-15,15-15c8.286,0,15.029,6.716,15.029,15
				S1006.938,2067.351,998.652,2067.351z"/>
		</g>
		<g>
			<path style="fill:#FFFFFF;" d="M2299.7,1717.8c-2.15,9.9-4.3,15.95-4.3,15.95l-141.2-50.45l-295.05-55.15l-192.5-11.5
				c10.25-46.25,51.25-79.15,98.6-79.15h73.5C2011.2,1537.5,2175.4,1603,2299.7,1717.8z"/>
		</g>
		<g>
			<path style="fill:#000072;" d="M1212.705,2048.127c-2.754,0-5.537-0.757-8.032-2.344c-6.992-4.446-9.058-13.716-4.609-20.708
				l202.28-318.125c4.438-6.99,13.716-9.055,20.703-4.609c6.992,4.446,9.058,13.716,4.609,20.708l-202.28,318.125
				C1222.52,2045.669,1217.666,2048.127,1212.705,2048.127z"/>
		</g>
		<g>
			<path style="fill:#000072;" d="M1118.364,2033.965c-3.184,0-6.392-1.008-9.111-3.093c-6.577-5.037-7.822-14.453-2.788-21.03
				l232.876-303.965c5.039-6.577,14.463-7.822,21.03-2.783c6.577,5.037,7.822,14.453,2.788,21.03l-232.876,303.965
				C1127.329,2031.941,1122.871,2033.965,1118.364,2033.965z"/>
		</g>
		<g>
			<path style="fill:#000072;" d="M2400.625,1851.636c-4.346,0-8.652-1.877-11.616-5.5
				c-111.812-136.621-334.731-202.769-722.798-214.475c-8.276-0.249-14.79-7.166-14.541-15.444
				c0.254-8.284,7.207-14.817,15.449-14.541c397.51,11.992,627.31,81.526,745.103,225.461c5.249,6.411,4.307,15.862-2.104,21.108
				C2407.329,1850.525,2403.965,1851.636,2400.625,1851.636z"/>
		</g>
		<g>
			<path style="fill:#000072;" d="M2087.954,2407.5h-685.137c-36.396,0-72.236-9.705-103.657-28.062l-236.226-138.01
				c-38.921-22.742-83.32-34.761-128.403-34.761h-55.098c-13.672,0-27.134,2.317-40.01,6.89l-42.329,15.027
				c-7.817,2.771-16.382-1.309-19.155-9.119c-2.773-7.805,1.309-16.382,9.116-19.153l42.329-15.027
				c16.113-5.718,32.949-8.618,50.049-8.618h55.098c50.396,0,100.029,13.438,143.54,38.857l236.226,138.01
				c26.831,15.679,57.441,23.965,88.521,23.965h685.137c63.633,0,124.692-19.463,176.587-56.284l94.907-67.339
				c31.602-22.419,71.089-29.182,108.35-18.525l23.672,6.76c7.964,2.275,12.578,10.579,10.303,18.545
				c-2.275,7.964-10.566,12.583-18.545,10.303l-23.672-6.763c-28.433-8.13-58.608-2.974-82.744,14.148l-94.907,67.339
				C2224.907,2386.123,2157.842,2407.5,2087.954,2407.5z"/>
		</g>
		<g>
			<path style="fill:#EC1C24;" d="M1779.657,1820.624l105.815,12.501c22.215,2.625,39.813,20.308,41.875,42.583
				c14.011,151.371-26.885,336.473-90.306,468.791c-14.022,29.255-43.42,48.001-75.862,48.001h-103.725
				c-31.858,0-53.422-32.182-41.623-61.774c61.529-154.318,108.116-326.479,110.578-463.921
				C1726.913,1838.719,1751.761,1817.328,1779.657,1820.624z"/>
		</g>
		<g style="opacity:0.55;">
			<path style="fill:#FFFFFF;" d="M1615.83,2363.225c61.531-154.319,108.118-326.479,110.579-463.921
				c0.505-28.086,25.354-49.475,53.25-46.179l105.815,12.5c22.214,2.625,39.812,20.308,41.873,42.583
				c1.375,14.856,2.205,30.044,2.551,45.469c0.559-26.653-0.22-52.783-2.551-77.969c-2.061-22.275-19.658-39.958-41.873-42.583
				l-105.815-12.5c-27.896-3.296-52.744,18.093-53.25,46.179c-2.461,137.441-49.048,309.602-110.579,463.921
				c-4.502,11.294-4.119,22.952-0.186,33.069C1615.718,2363.604,1615.757,2363.413,1615.83,2363.225z"/>
		</g>
		<g style="opacity:0.3;">
			<path style="fill:#263069;" d="M1670.35,2175.45c-9.3,30.8-19.55,61.55-30.5,91.9c-0.75-6.15-0.1-12.5,2.35-18.6
				C1651.8,2224.65,1661.25,2200.15,1670.35,2175.45z"/>
			<path style="fill:#000072;" d="M1638.633,2278.083l-1.265-10.432c-0.84-6.914,0.005-13.589,2.515-19.834
				c10.083-25.317,19.546-49.961,28.125-73.232l4.736,1.587c-9.067,30.027-19.346,60.991-30.542,92.029L1638.633,2278.083z"/>
		</g>
		<g>
			<path style="fill:#4CC7ED;" d="M2217.75,2077.3c-0.35,3.25-0.7,6.45-1.05,9.7c-1.65,14.551-10.15,26.801-22.05,33.75
				c-6.65,3.95-14.4,6.15-22.6,6.201h-7.1c-19.9,0.099-41.05,0.149-62.3,0.199c-19.1,0.05-38.3,0.05-56.8,0.1
				c-28.25,0.05-49.7-25.6-44.45-53.3c9.65-50.5,15.65-99.25,17-144.451c0.15-3.849,0.25-7.65,0.3-11.45
				c0.3-22.65,17.3-40.75,38.55-43.85c3.85-0.55,7.8-0.6,11.85-0.15l21.55,2.55l43.75,5.15l45.4,5.35c20.9,2.5,37.55,19.1,39.6,40.1
				C2223.95,1974.75,2223.1,2025.65,2217.75,2077.3z"/>
			<path style="fill:#000072;" d="M2045.771,2129.751c-14.238,0-27.617-6.284-36.719-17.249
				c-9.053-10.913-12.739-25.134-10.107-39.019c9.951-52.097,15.659-100.564,16.953-144.06c0.151-3.85,0.254-7.627,0.303-11.406
				c0.308-23.428,17.422-42.898,40.688-46.292c4.033-0.579,8.242-0.63,12.485-0.161l110.718,13.052
				c22.08,2.642,39.658,20.447,41.797,42.339c4.443,46.453,3.887,97.119-1.655,150.603v0.007l-1.05,9.702
				c-1.68,14.79-10.376,28.11-23.276,35.64c-7.109,4.224-15.361,6.489-23.843,6.543h-7.114c-19.116,0.095-39.399,0.144-59.814,0.195
				l-59.282,0.105C2045.83,2129.751,2045.801,2129.751,2045.771,2129.751z M2063.696,1876.248c-2.065,0-4.102,0.142-6.094,0.427
				c-20.811,3.037-36.128,20.452-36.401,41.406c-0.049,3.823-0.151,7.644-0.303,11.516c-1.304,43.735-7.041,92.468-17.041,144.822
				c-2.354,12.41,0.947,25.127,9.043,34.89c8.149,9.817,20.122,15.442,32.871,15.442c0.024,0,0.049,0,0.073,0l59.277-0.105
				c20.415-0.051,40.688-0.1,59.814-0.195h7.114c7.578-0.046,14.956-2.07,21.323-5.85c11.558-6.75,19.341-18.665,20.84-31.882
				l1.05-9.68c5.508-53.149,6.06-103.484,1.646-149.6c-1.909-19.57-17.642-35.493-37.407-37.856l-110.693-13.049
				C2067.095,1876.343,2065.386,1876.248,2063.696,1876.248z"/>
		</g>
		<g style="opacity:0.3;">
			<path style="fill:#000072;" d="M2219.2,1925.9c-2.05-0.649-4.2-1.05-6.4-1.3l-110.65-13.049c-26.5-3.101-50.05,17.3-50.4,44
				c-0.65,48.35-6.85,101.1-17.3,155.9c-0.95,4.85-1.05,9.65-0.4,14.25c-22.1-5.9-37.15-28.05-32.65-51.75
				c10.45-54.8,16.65-107.55,17.3-155.9c0.4-26.7,23.9-47.1,50.4-44l110.7,13.049C2200.25,1889.55,2216.65,1905.5,2219.2,1925.9z"/>
		</g>
		<g>
			<path style="fill:#0DD1FF;" d="M2328.271,1944.28c33.442,36.906,60.561,80.089,81.356,129.551
				c8.214,19.537-6.066,41.169-27.26,41.169h-59.45c-16.339,0-29.583-13.245-29.583-29.583v-127.879
				C2293.333,1939.155,2315.927,1930.657,2328.271,1944.28z"/>
			<path style="fill:#000072;" d="M2382.368,2117.5h-59.453c-17.69,0-32.08-14.392-32.08-32.083v-127.878
				c0-9.497,5.483-17.512,14.316-20.916c8.94-3.452,18.516-1.155,24.971,5.977c33.477,36.941,61.001,80.767,81.812,130.261
				c4.194,9.976,3.125,21.309-2.861,30.315C2403.115,2112.146,2393.13,2117.5,2382.368,2117.5z M2313.467,1940.081
				c-2.358,0-4.595,0.464-6.519,1.206c-5.371,2.073-11.113,7.429-11.113,16.252v127.878c0,14.934,12.148,27.083,27.08,27.083h59.453
				c9.082,0,17.51-4.519,22.539-12.09c5.059-7.61,5.962-17.183,2.417-25.61c-20.591-48.972-47.813-92.322-80.903-128.84l0,0
				C2322.515,1941.65,2317.793,1940.081,2313.467,1940.081z"/>
		</g>
		<g style="opacity:0.3;">
			<path style="fill:#000072;" d="M2328.35,1980.75v127.9c0,2.2,0.25,4.3,0.7,6.35h-6.15c-16.3,0-29.55-13.25-29.55-29.6v-127.85
				c0-18.4,22.6-26.9,34.9-13.25c5.1,5.6,10,11.35,14.75,17.25C2334.95,1963.8,2328.35,1970.85,2328.35,1980.75z"/>
		</g>
		<g>
			<path style="fill:#000072;" d="M1761.177,2407.5h-103.721c-19.863,0-38.369-9.807-49.507-26.235
				c-11.206-16.526-13.467-37.498-6.055-56.094c67.407-169.055,107.324-336.221,109.517-458.635
				c0.317-17.52,8.091-34.194,21.328-45.752c13.34-11.648,31.084-17.136,48.677-15.056l105.815,12.5
				c29.209,3.452,52.358,27.043,55.054,56.096c13.442,145.271-22.559,332.371-91.719,476.66
				C1834.106,2385.315,1799.019,2407.5,1761.177,2407.5z M1774.063,1835.295c-7.891,0-15.596,2.852-21.597,8.088
				c-6.963,6.082-10.894,14.495-11.06,23.689c-2.29,127.749-41.938,294.385-111.641,469.207c-3.784,9.485-2.681,19.746,3.018,28.152
				c5.63,8.306,14.624,13.069,24.673,13.069h103.721c26.372,0,50.84-15.498,62.339-39.485
				c66.982-139.746,101.875-320.671,88.896-460.925c-1.396-15.042-13.462-27.268-28.696-29.067l-105.815-12.5l0,0
				C1776.621,1835.371,1775.337,1835.295,1774.063,1835.295z"/>
		</g>
		<g style="opacity:0.45;">
			<path style="fill:#FFFFFF;" d="M2164.95,2126.95c-19.9,0.099-41.05,0.149-62.3,0.199l-84.25-197.65
				c0.15-3.849,0.25-7.65,0.3-11.45c0.3-22.65,17.3-40.75,38.55-43.85L2164.95,2126.95z"/>
		</g>
		<g style="opacity:0.45;">
			<path style="fill:#FFFFFF;" d="M2217.75,2077.3c-0.35,3.25-0.7,6.45-1.05,9.7c-1.65,14.551-10.15,26.801-22.05,33.75
				l-104-244.149l43.75,5.15L2217.75,2077.3z"/>
		</g>
		<g>
			<path style="fill:#000072;" d="M2045.791,2142.256c-18.003,0-34.912-7.952-46.401-21.821
				c-11.421-13.787-16.06-31.753-12.72-49.292c10.679-56.06,16.416-107.634,17.046-153.298c0.234-16.897,7.666-32.991,20.4-44.153
				c12.798-11.221,29.814-16.506,46.753-14.521l110.664,13.057c27.905,3.293,50.107,25.806,52.783,53.53
				c4.814,49.983,3.911,104.795-2.695,162.915c-3.438,30.266-29.038,53.169-59.546,53.274h0.005
				c-39.526,0.139-84.634,0.266-126.23,0.31C2045.83,2142.256,2045.811,2142.256,2045.791,2142.256z M2063.696,1888.748
				c-7.29,0-14.214,2.6-19.805,7.5c-6.445,5.652-10.059,13.469-10.176,22.009c-0.659,47.407-6.567,100.732-17.573,158.499
				c-1.66,8.721,0.654,17.666,6.348,24.543c5.771,6.963,14.263,10.957,23.301,10.957c0.01,0,0.02,0,0.029,0
				c41.567-0.044,86.655-0.171,126.152-0.31c0,0,0,0,0.005,0c15.288-0.051,28.115-11.514,29.839-26.663
				c6.367-56.042,7.256-108.745,2.637-156.648c-1.328-13.77-12.446-24.963-26.436-26.614l-110.664-13.057
				C2066.128,1888.818,2064.907,1888.748,2063.696,1888.748z"/>
		</g>
		<g>
			<path style="fill:#000072;" d="M2382.368,2130h-59.453c-24.58,0-44.58-20-44.58-44.583v-127.878
				c0-14.563,8.76-27.351,22.314-32.581c13.682-5.264,28.867-1.641,38.735,9.25c34.429,37.988,62.71,83.008,84.072,133.809
				c5.82,13.845,4.336,29.575-3.97,42.075C2411.206,2122.559,2397.329,2130,2382.368,2130z M2313.418,1952.568
				c-0.786,0-1.475,0.19-1.973,0.381c-1.421,0.549-3.11,1.79-3.11,4.59v127.878c0,8.042,6.543,14.583,14.58,14.583h59.453
				c4.961,0,9.38-2.373,12.129-6.509c2.773-4.172,3.247-9.221,1.304-13.848c-20.039-47.666-46.499-89.822-78.643-125.291v-0.002
				C2315.903,1952.971,2314.561,1952.568,2313.418,1952.568z"/>
		</g>
		<g>
			<path style="fill:#000072;" d="M1494.048,2206.65h-10.146c-32.896,0-64.526-9.983-91.46-28.867l-188.364-132.361
				c-11.221-7.9-24.399-12.073-38.125-12.073h-37.803c-6.255,0-12.456,0.867-18.423,2.573l-106.919,30.84
				c-6.88,1.992-14.219-1.179-17.495-7.549c-3.276-6.372-1.592-14.175,4.028-18.623c15.435-12.219,28.535-26.743,38.94-43.169
				l133.496-210.652c16.831-26.55,40.239-48.562,67.695-63.662c27.427-15.115,58.545-23.108,89.976-23.108h174.102
				c72.432,0,135.986,48.896,154.546,118.906l2.866,10.947c8.462,31.748,8.296,65.332-0.508,97.056l-56.294,203.589
				C1581.753,2175.337,1540.586,2206.65,1494.048,2206.65z M1128.149,2003.35h37.803c19.941,0,39.092,6.064,55.386,17.537
				l188.335,132.341c21.855,15.32,47.524,23.423,74.229,23.423h10.146c33.096,0,62.373-22.268,71.196-54.15l56.299-203.596
				c0-0.005,0.005-0.01,0.005-0.012c7.373-26.582,7.515-54.722,0.41-81.377l-2.871-10.967
				c-15.068-56.826-66.694-96.548-125.537-96.548h-174.102c-26.382,0-52.495,6.704-75.508,19.387
				c-23.047,12.676-42.695,31.155-56.821,53.445l-133.496,210.647c-1.978,3.123-4.038,6.184-6.177,9.187l53.999-15.576
				C1110.127,2004.604,1119.102,2003.35,1128.149,2003.35z"/>
		</g>
		<g>
			<path style="fill:#263069;" d="M2090.698,2505h-713.35c-68.379,0-136.592-9.529-202.744-28.32
				c-265.986-75.605-393.398-149.199-400.982-231.604c-5.591-60.786,52.959-119.431,184.263-184.563
				c11.201-5.557,21.758-12.251,31.377-19.902c1.724-1.37,3.716-2.334,5.825-2.844l106.357-30.676
				c8.682-2.485,17.656-3.74,26.704-3.74h37.803c19.941,0,39.092,6.064,55.386,17.537l188.335,132.341
				c21.855,15.32,47.524,23.423,74.229,23.423h10.146c33.096,0,62.373-22.268,71.196-54.15l56.299-203.596
				c7.378-26.594,7.52-54.734,0.415-81.389l-2.871-10.967c-15.068-56.826-66.694-96.548-125.537-96.548h-174.102
				c-5.796,0-11.074-3.34-13.555-8.579c-2.485-5.239-1.724-11.44,1.948-15.925l47.051-57.449
				c24.136-29.485,59.844-46.396,97.959-46.396h202.393c15.649-47.163,59.297-79.15,110.005-79.15h73.501
				c223.213,0,434.146,108.284,564.238,289.658l51.748,72.097c24.458,32.83,61.943,54.971,102.695,60.535l533.755,62.31
				c32.969,3.867,65.234-13.457,80.229-43.076l128.101-252.949c3.325-6.555,10.913-9.749,17.915-7.522l80.449,25.498
				c7.441,2.358,11.831,10.027,10.093,17.637l-65.947,289.001c-0.962,4.197-0.142,8.452,2.3,11.995
				c2.461,3.567,6.187,5.862,10.493,6.462l87.217,11.943c4.429,0.605,8.359,3.159,10.713,6.96c2.358,3.801,2.896,8.455,1.465,12.693
				l-27.5,81.55c-1.973,5.85-7.324,9.893-13.491,10.19l-764.902,36.851c-71.938,3.43-138.838,34.126-188.384,86.431l-72.598,76.65
				C2310.493,2458.499,2202.373,2505,2090.698,2505z M1005.523,2065.981c-10.615,8.179-22.144,15.374-34.307,21.406
				c-115.478,57.283-171.909,109.412-167.72,154.939c6.128,66.555,133.745,135.693,379.307,205.496
				c63.486,18.035,128.94,27.178,194.546,27.178h713.35c103.477,0,203.662-43.088,274.863-118.218l72.598-76.648
				c54.893-57.954,129.019-91.965,208.726-95.767l754.673-36.357l18.433-54.661l-69.277-9.487
				c-12.583-1.753-23.901-8.73-31.084-19.15c-7.168-10.396-9.663-23.411-6.846-35.708l62.871-275.527l-55.132-17.473
				l-122.339,241.575c-20.654,40.786-65.054,64.651-110.474,59.319l-534.048-62.346c-48.97-6.682-93.745-33.127-123.145-72.59
				l-51.904-72.312c-124.473-173.542-326.294-277.148-539.863-277.148h-73.501c-40.64,0-75.161,27.715-83.955,67.395
				c-1.519,6.868-7.612,11.755-14.644,11.755h-213.799c-29.087,0-56.328,12.903-74.746,35.403L1351.123,1700h142.427
				c72.432,0,135.986,48.896,154.546,118.906l2.866,10.947c8.462,31.748,8.296,65.332-0.508,97.056l-56.294,203.589
				c-12.407,44.839-53.574,76.152-100.112,76.152h-10.146c-32.896,0-64.526-9.983-91.46-28.867l-188.364-132.361
				c-11.221-7.9-24.399-12.073-38.125-12.073h-37.803c-6.255,0-12.456,0.867-18.423,2.573L1005.523,2065.981z"/>
		</g>
		<g>
			<path style="fill:#000072;" d="M2090.698,2505h-713.35c-68.379,0-136.592-9.529-202.744-28.32
				c-265.986-75.605-393.398-149.199-400.982-231.604c-5.591-60.786,52.959-119.431,184.263-184.563
				c11.201-5.557,21.758-12.251,31.377-19.902c1.724-1.37,3.716-2.334,5.825-2.844l106.357-30.676
				c8.682-2.485,17.656-3.74,26.704-3.74h37.803c19.941,0,39.092,6.064,55.386,17.537l188.335,132.341
				c21.855,15.32,47.524,23.423,74.229,23.423h10.146c33.096,0,62.373-22.268,71.196-54.15l56.299-203.596
				c7.378-26.594,7.52-54.734,0.415-81.389l-2.871-10.967c-15.068-56.826-66.694-96.548-125.537-96.548h-174.102
				c-5.796,0-11.074-3.34-13.555-8.579c-2.485-5.239-1.724-11.44,1.948-15.925l47.051-57.449
				c24.136-29.485,59.844-46.396,97.959-46.396h202.393c15.649-47.163,59.297-79.15,110.005-79.15h73.501
				c223.213,0,434.146,108.284,564.238,289.658l51.748,72.097c24.458,32.83,61.943,54.971,102.695,60.535l533.755,62.31
				c32.969,3.867,65.234-13.457,80.229-43.076l128.101-252.949c3.325-6.555,10.913-9.749,17.915-7.522l80.449,25.498
				c7.441,2.358,11.831,10.027,10.093,17.637l-65.947,289.001c-0.962,4.197-0.142,8.452,2.3,11.995
				c2.461,3.567,6.187,5.862,10.493,6.462l87.217,11.943c4.429,0.605,8.359,3.159,10.713,6.96c2.358,3.801,2.896,8.455,1.465,12.693
				l-27.5,81.55c-1.973,5.85-7.324,9.893-13.491,10.19l-764.902,36.851c-71.938,3.43-138.838,34.126-188.384,86.431l-72.598,76.65
				C2310.493,2458.499,2202.373,2505,2090.698,2505z M1005.523,2065.981c-10.615,8.179-22.144,15.374-34.307,21.406
				c-115.478,57.283-171.909,109.412-167.72,154.939c6.128,66.555,133.745,135.693,379.307,205.496
				c63.486,18.035,128.94,27.178,194.546,27.178h713.35c103.477,0,203.662-43.088,274.863-118.218l72.598-76.648
				c54.893-57.954,129.019-91.965,208.726-95.767l754.673-36.357l18.433-54.661l-69.277-9.487
				c-12.583-1.753-23.901-8.73-31.084-19.15c-7.168-10.396-9.663-23.411-6.846-35.708l62.871-275.527l-55.132-17.473
				l-122.339,241.575c-20.654,40.786-65.054,64.651-110.474,59.319l-534.048-62.346c-48.97-6.682-93.745-33.127-123.145-72.59
				l-51.904-72.312c-124.473-173.542-326.294-277.148-539.863-277.148h-73.501c-40.64,0-75.161,27.715-83.955,67.395
				c-1.519,6.868-7.612,11.755-14.644,11.755h-213.799c-29.087,0-56.328,12.903-74.746,35.403L1351.123,1700h142.427
				c72.432,0,135.986,48.896,154.546,118.906l2.866,10.947c8.462,31.748,8.296,65.332-0.508,97.056l-56.294,203.589
				c-12.407,44.839-53.574,76.152-100.112,76.152h-10.146c-32.896,0-64.526-9.983-91.46-28.867l-188.364-132.361
				c-11.221-7.9-24.399-12.073-38.125-12.073h-37.803c-6.255,0-12.456,0.867-18.423,2.573L1005.523,2065.981z"/>
		</g>
		<g>
			<path style="fill:#959AAF;" d="M3476.984,2123.379c-10.408,43.334-37.181,75.083-63.038,77.309h-5.368
				c-1.636-0.066-3.339-0.328-4.975-0.72c-11.194-2.684-20.096-11.259-26.053-23.632c-9.492-19.311-11.718-47.982-4.517-77.963
				c5.04-21.144,14.009-39.473,24.875-53.023c10.081-12.633,21.798-21.078,33.581-23.63h14.99
				C3475.151,2028.658,3488.832,2074.153,3476.984,2123.379z"/>
			<path style="fill:#000072;" d="M3408.579,2203.188c-1.841-0.073-3.677-0.337-5.562-0.789
				c-11.606-2.786-21.196-11.423-27.72-24.98c-10.02-20.378-11.777-50.151-4.697-79.629c4.966-20.833,13.73-39.509,25.356-54.004
				c10.684-13.386,22.788-21.863,35.005-24.512l0.527-0.056l15.576,0.071c29.985,7.256,44.497,54.211,32.349,104.675v-0.002
				c-10.459,43.547-37.9,76.86-65.254,79.216L3408.579,2203.188z M3431.763,2024.219c-10.991,2.466-22.017,10.308-31.904,22.69
				c-11.167,13.928-19.6,31.924-24.395,52.043c-6.816,28.384-5.2,56.897,4.326,76.279c5.864,12.175,14.297,19.883,24.395,22.305
				c1.548,0.371,3.101,0.598,4.497,0.654l5.264-0.002c25.059-2.168,50.64-33.879,60.605-75.393v-0.002
				c11.465-47.617-1.265-91.729-28.374-98.574H3431.763z"/>
		</g>
		<g>
			<path style="fill:#959AAF;" d="M3403.6,2199.95c1.65,0.4,3.35,0.65,5,0.75h-74.9c-1.6-0.15-3.15-0.35-4.7-0.75
				c-24.3-5.85-37.85-39.2-34.3-79.1c0.65-7.35,1.85-14.9,3.7-22.5c1.6-6.6,3.55-12.95,5.85-18.95c14.75-38.7,42.7-63.65,67.6-57.7
				h59.65c-11.8,2.55-23.5,11-33.6,23.651c-7.45,9.299-14.05,20.9-19,34.05c-2.35,6-4.3,12.35-5.85,18.95
				c-1.85,7.65-3.05,15.15-3.65,22.5c-1.95,21.5,1.05,41.101,8.15,55.5C3383.5,2188.7,3392.4,2197.3,3403.6,2199.95z"/>
			<path style="fill:#000072;" d="M3408.599,2203.201h-74.897c-1.733-0.154-3.511-0.361-5.327-0.828
				c-25.02-6.025-39.907-39.644-36.162-81.746c0.684-7.747,1.948-15.442,3.76-22.869c1.641-6.772,3.643-13.252,5.942-19.253
				c15.591-40.908,44.482-65.227,70.225-59.307h82.749l-22.861,4.944c-11.069,2.393-22.192,10.266-32.173,22.769
				c-7.476,9.329-13.911,20.867-18.613,33.369c-2.285,5.835-4.219,12.095-5.757,18.64c-1.787,7.405-2.998,14.846-3.594,22.131
				c-1.885,20.801,0.923,40.039,7.9,54.192c5.879,12.192,14.307,19.888,24.385,22.275l0.015,0.002
				c1.484,0.359,3.018,0.591,4.561,0.684L3408.599,2203.201z M3364.502,2023.34c-21.357,0-44.824,22.595-57.92,56.951
				c-2.227,5.808-4.16,12.083-5.752,18.65c-1.753,7.185-2.974,14.629-3.638,22.129c-3.521,39.575,9.8,71.013,32.393,76.45
				c1.509,0.391,2.983,0.564,4.351,0.693l58.979-0.01c-7.104-4.346-13.091-11.372-17.617-20.767
				c-7.373-14.949-10.352-35.132-8.389-56.812c0.615-7.524,1.865-15.222,3.711-22.864c1.587-6.76,3.589-13.25,5.952-19.275
				c4.873-12.957,11.577-24.966,19.375-34.697c6.924-8.674,14.438-15.286,22.183-19.59l-46.86-0.068
				C3369.048,2023.601,3366.787,2023.34,3364.502,2023.34z"/>
		</g>
		<g style="opacity:0.55;">
			<path style="fill:#FFFFFF;" d="M3378.9,2079.4c-2.35,6-4.3,12.35-5.85,18.95c-1.85,7.65-3.05,15.15-3.65,22.5h-74.7
				c0.65-7.35,1.85-14.9,3.7-22.5c1.6-6.6,3.55-12.95,5.85-18.95H3378.9z"/>
		</g>
		<g>
			<path style="fill:#000072;" d="M3413.945,2215.688h-5.366c-0.2,0-0.4-0.005-0.605-0.012c-2.554-0.103-5.2-0.481-7.876-1.123
				c-15.161-3.638-27.969-14.9-36.064-31.711c-11.387-23.162-13.442-55.266-5.586-87.971c5.386-22.598,14.985-42.974,27.754-58.904
				c12.485-15.64,27.051-25.645,42.109-28.909c1.045-0.225,2.109-0.339,3.179-0.339h14.99c1.187,0,2.373,0.142,3.53,0.42
				c37.295,9.026,55.547,61.626,41.558,119.751c-11.865,49.402-43.257,85.896-76.333,88.743
				C3414.805,2215.669,3414.375,2215.688,3413.945,2215.688z M3408.97,2185.688h4.238c16.973-1.951,39.839-26.873,49.189-65.811
				c0-0.005,0-0.007,0-0.01c10.283-42.717-1.104-77.349-18.008-83.149h-11.094c-7.739,2.158-16.089,8.491-23.667,17.988
				c-9.893,12.336-17.7,29.07-22.007,47.144c-6.162,25.659-4.893,51.021,3.389,67.866c2.959,6.15,8.101,13.75,16.094,15.664
				C3407.944,2185.583,3408.584,2185.662,3408.97,2185.688z"/>
		</g>
		<g>
			<path style="fill:#FFFFFF;" d="M3577.117,2156.765c-4.749,19.763-10.461,39.299-17.019,58.567
				c-6.55,19.275-14.058,38.25-22.473,56.907c-8.445,18.638-17.788,36.99-28.513,54.717c-10.442,17.939-22.502,35.02-35.61,51.914
				h-0.002c0.286,0.303-0.664-0.64,0.635,0.686l-0.024,0.022l-0.044,0.046l-0.09,0.093l-0.181,0.186l-0.361,0.369l-0.725,0.735
				l-1.499,1.428l-3.003,2.854c-1.997,1.909-3.989,3.821-6.101,5.623c-4.109,3.713-8.386,7.263-12.764,10.715
				c-8.796,6.853-18.052,13.24-27.878,18.879c-19.702,11.094-41.833,19.382-65.488,21.58c-0.396,0.037-0.789,0.056-1.179,0.059
				h-0.151l-20.229,0.042c-8.03-0.413-15.356-1.628-22.566-3.616c-14.412-3.718-28.113-10.078-40.227-18.406
				c-12.222-8.218-22.805-18.354-31.958-29.343c-9.158-10.999-16.938-22.915-23.381-35.3c-12.983-24.58-21.677-51.062-27.349-77.688
				c-5.75-26.682-8.376-53.755-8.77-80.728c-0.803-53.999,7.336-107.581,21.975-159.175
				c14.971-51.563,37.151-101.394,68.276-146.079c15.691-22.19,33.464-43.22,54.47-61.511c10.508-9.109,21.753-17.559,33.916-24.883
				c3.032-1.841,6.138-3.589,9.277-5.286c3.23-1.724,6.621-3.391,10.024-4.863c6.824-2.974,13.857-5.439,21.03-7.29
				c28.65-7.476,59.258-6.257,87.087,3.665c13.916,4.885,27.036,12.009,38.923,20.798c11.772,8.911,22.273,19.756,30.483,31.934
				c15.889,23.601,26.582,49.485,33.853,75.784c7.097,26.399,10.039,53.472,10.002,80.229c0.027,26.787-2.942,53.252-6.934,79.26
				C3588.345,2105.693,3583.203,2131.335,3577.117,2156.765z M3573.052,2155.786c12.1-50.522,12.795-103.467,4.99-153.777
				c-3.843-25.171-9.409-49.805-17.129-73.359c-7.566-23.56-18.081-45.977-32.109-65.093c-6.772-9.138-14.951-16.897-23.955-23.655
				c-9.175-6.509-19.27-11.812-30-15.366c-21.401-7.068-45.051-8.147-66.826-2.48c-5.442,1.389-10.735,3.25-15.852,5.466
				c-2.576,1.111-5.032,2.314-7.549,3.652c-2.588,1.396-5.164,2.837-7.698,4.375c-10.166,6.099-19.839,13.323-29.021,21.255
				c-18.374,15.896-34.463,34.929-48.962,55.137c-28.699,40.725-49.792,87.192-64.072,135.52
				c-14.031,48.496-21.924,98.958-21.421,149.197c0.229,25.093,2.554,50.132,7.671,74.412c5.056,24.307,12.678,47.791,23.943,69.385
				c11.06,21.367,25.837,40.569,44.546,53.494c9.287,6.523,19.512,11.357,30.308,14.255c5.313,1.572,10.925,2.468,15.891,2.778
				l18.838,0.115l-1.331,0.056c18.24-1.514,36.355-7.908,53.208-17.18c8.411-4.724,16.504-10.188,24.304-16.14
				c3.884-3.005,7.705-6.111,11.406-9.397c1.897-1.577,3.701-3.281,5.51-4.978l2.72-2.537l1.362-1.27l0.662-0.657l0.327-0.332
				l0.166-0.166l0.081-0.083l0.042-0.042l0.02-0.02c1.313,1.309,0.378,0.352,0.676,0.64h0.002
				c15.571-11.711,29.463-25.935,42.117-41.267c12.466-15.479,23.892-32.021,33.652-49.568
				c9.854-17.495,18.337-35.811,25.596-54.612C3562.412,2194.736,3568.318,2175.403,3573.052,2155.786z"/>
		</g>
		<g>
			<path style="fill:#000072;" d="M3408.579,2215.688h-74.888c-0.42,0-0.835-0.017-1.255-0.051
				c-1.704-0.144-4.302-0.415-7.104-1.121c-37.222-8.984-55.513-61.56-41.504-119.658c13.75-57.139,52.817-95.347,89.624-88.14
				h58.037c7.666,0,14.097,5.781,14.917,13.403c0.815,7.622-4.248,14.631-11.738,16.257c-8.115,1.758-17.007,8.267-25.039,18.328
				c-9.893,12.336-17.7,29.07-22.007,47.144c-6.162,25.659-4.893,51.021,3.389,67.866c2.959,6.15,8.101,13.75,16.094,15.664
				c0,0.002,0,0.002,0.005,0.002c1.016,0.244,1.733,0.303,2.075,0.317c8.159,0.33,14.556,7.124,14.39,15.291
				C3423.413,2209.155,3416.748,2215.688,3408.579,2215.688z M3334.375,2185.688h31.104c-0.498-0.93-0.977-1.877-1.445-2.847
				c-11.387-23.162-13.442-55.266-5.586-87.971c5.298-22.241,14.683-42.336,27.158-58.152h-13.75c-1.177,0-2.344-0.139-3.486-0.41
				c-17.715-4.243-44.805,21.655-55.376,65.574c-10.581,43.884,1.792,79.229,19.507,83.506
				C3333.105,2185.537,3333.789,2185.63,3334.375,2185.688z"/>
		</g>
		<g style="opacity:0.55;">
			<path style="fill:#FFFFFF;" d="M1010.4,2042.25l72.05-15.649c0,0.049-0.05,0.099-0.1,0.15c-21.25,4.65-48.8,10.65-72.25,15.75
				C1010.2,2042.4,1010.3,2042.3,1010.4,2042.25z"/>
			<path style="fill:#000072;" d="M1002.119,2046.792l7.749-6.985l75.083-16.306v4.17l-1.382,1.372l-0.688,0.149
				c-21.25,4.651-48.799,10.652-72.251,15.752L1002.119,2046.792z"/>
		</g>
		<g>
			<path style="fill:#FFFFFF;" d="M1628.801,1422.5l-41.643,14.973l-41.75,14.609c-2.124,0.745-4.448-0.376-5.19-2.5
				c-0.325-0.928-0.295-1.892,0.02-2.747l0.115-0.313l19.28-52.427l19.668-52.266l9.351,10.427
				c-22.341,7.192-44.768,14.084-67.183,21.021c-22.429,6.882-44.792,14.001-67.278,20.688l-67.397,20.266
				c-22.446,6.831-44.973,13.374-67.495,19.932c-6.428,1.87-13.154-1.824-15.027-8.25c-0.996-3.428-0.413-6.938,1.326-9.756
				l0.068-0.11l51.941-83.403l13.315,18.772l-80.078,17.847c-26.675,6.028-53.403,11.821-80.159,17.493l-80.251,17.085
				l-80.376,16.531l-0.41,0.083c-4.604,0.947-9.104-2.017-10.051-6.621c-0.481-2.339,0.061-4.673,1.301-6.504l29.07-42.705
				c9.697-14.233,19.368-28.481,29.226-42.607l6.421,8.223c-20.061,5.918-40.076,11.97-60.2,17.695
				c-20.078,5.862-40.244,11.47-60.413,17.063c19.448-7.739,38.899-15.466,58.435-22.935c19.492-7.61,39.092-14.893,58.647-22.307
				c2.817-1.067,5.964,0.352,7.031,3.167c0.605,1.594,0.413,3.296-0.378,4.666l-0.229,0.393
				c-8.711,14.863-17.607,29.607-26.477,44.365l-26.631,44.27l-9.158-13.042l79.629-19.824l79.756-19.265
				c26.58-6.448,53.186-12.773,79.846-18.862l79.929-18.506c6.692-1.55,13.374,2.62,14.924,9.312c0.779,3.359,0.09,6.755-1.609,9.46
				l-52.49,83.059l-13.63-18.115c22.568-6.396,45.134-12.805,67.781-18.928l67.881-18.596c22.607-6.265,45.337-12.1,68-18.169
				c22.678-6.021,45.344-12.08,68.096-17.842l0.454-0.115c4.106-1.04,8.279,1.445,9.319,5.552c0.439,1.731,0.249,3.477-0.422,4.99
				l-22.632,51.055l-23.018,50.894l-5.056-5.559l42.847-10.989L1628.801,1422.5z"/>
		</g>
		<g>
			<path style="fill:#FFFFFF;" d="M2042.817,1328.843l41.641-14.973l41.75-14.612c2.126-0.742,4.451,0.376,5.193,2.5
				c0.325,0.928,0.295,1.895-0.02,2.749l-0.115,0.313l-19.28,52.424l-19.668,52.266l-9.351-10.427
				c22.341-7.19,44.768-14.084,67.183-21.018c22.429-6.882,44.79-14.001,67.278-20.691l67.397-20.266
				c22.444-6.829,44.973-13.372,67.495-19.929c6.428-1.873,13.154,1.821,15.024,8.25c0.999,3.425,0.413,6.938-1.323,9.753
				l-0.068,0.112l-51.943,83.401l-13.315-18.772l80.078-17.847c26.675-6.028,53.403-11.819,80.159-17.49l80.251-17.087
				l80.378-16.528l0.41-0.085c4.604-0.947,9.104,2.019,10.051,6.624c0.481,2.339-0.063,4.67-1.301,6.504l-29.072,42.705
				c-9.695,14.231-19.365,28.479-29.224,42.607l-6.421-8.223c20.061-5.92,40.076-11.973,60.2-17.695
				c20.078-5.864,40.244-11.47,60.413-17.063c-19.448,7.737-38.899,15.466-58.438,22.935c-19.49,7.61-39.092,14.89-58.647,22.305
				c-2.815,1.069-5.964-0.349-7.031-3.164c-0.605-1.597-0.413-3.298,0.381-4.668l0.229-0.391
				c8.708-14.863,17.605-29.607,26.477-44.368l26.628-44.27l9.16,13.042l-79.629,19.824l-79.756,19.268
				c-26.58,6.445-53.186,12.771-79.849,18.86l-79.927,18.508c-6.694,1.55-13.376-2.62-14.924-9.314
				c-0.779-3.357-0.09-6.753,1.609-9.458l52.49-83.059l13.63,18.113c-22.568,6.396-45.134,12.808-67.783,18.931l-67.878,18.594
				c-22.607,6.265-45.337,12.1-68,18.171c-22.678,6.018-45.344,12.078-68.096,17.842l-0.457,0.115
				c-4.106,1.04-8.276-1.445-9.316-5.552c-0.439-1.731-0.249-3.479,0.422-4.993l22.629-51.052l23.02-50.896l5.056,5.559
				l-42.847,10.989L2042.817,1328.843z"/>
		</g>
		<g>
			<path style="fill:#FFFFFF;" d="M3393.35,2006.25c6.917-6.333,14.075-12.295,21.213-18.281
				c7.266-5.793,14.414-11.768,21.797-17.378l1.296,11.968c-9.233-2.634-18.547-5.056-27.717-7.866
				c-9.209-2.7-18.352-5.581-27.495-8.459c-5.518-1.738-8.582-7.617-6.843-13.135c1.079-3.423,3.752-5.901,6.943-6.875l1.055-0.313
				c17.52-5.203,35.122-10.076,52.778-14.724c17.668-4.609,35.391-8.997,53.186-13.086l-0.405,23.691
				c-26.36-7.905-52.542-16.436-78.503-25.742l-1.086-0.388c-4.485-1.606-6.819-6.545-5.21-11.03c0.75-2.095,2.244-3.73,4.065-4.702
				c7.036-3.75,14.231-7.236,21.34-10.869c7.087-3.662,14.351-7.043,21.57-10.491l-2.146,3.254
				c1.379-5.544,2.991-11.055,4.548-16.572c1.528-5.522,3.245-11.016,5.015-16.501c0.103,5.764,0.154,11.519,0.015,17.249
				c-0.107,5.73-0.166,11.472-0.452,17.178c-0.054,1.091-0.588,2.046-1.389,2.671l-0.759,0.583
				c-6.335,4.885-12.632,9.839-19.102,14.509c-6.45,4.702-12.813,9.546-19.333,14.131l-2.231-16.121
				c26.985,5.693,53.752,12.163,80.342,19.258c6.514,1.738,10.383,8.425,8.645,14.939c-1.167,4.377-4.573,7.561-8.657,8.65
				l-0.391,0.103c-17.654,4.661-35.383,9.023-53.164,13.164c-17.793,4.102-35.642,7.979-53.572,11.526l1.157-20.322
				c8.806,3.787,17.612,7.576,26.353,11.541c8.779,3.857,17.417,8.103,26.13,12.134l0.952,0.439
				c3.232,1.497,4.639,5.327,3.145,8.557c-0.61,1.318-1.611,2.334-2.798,2.971c-8.169,4.392-16.57,8.416-24.854,12.622
				C3410.376,1998.545,3401.982,2002.583,3393.35,2006.25z"/>
		</g>
		<g>
			<path style="fill:#FFFFFF;" d="M3368.779,2200.701c5.647,9.902,10.886,19.966,16.101,30.037
				c5.034,10.142,10.247,20.215,15.01,30.464c1.577,3.396,0.105,7.429-3.293,9.009c-1.414,0.657-2.939,0.786-4.351,0.466
				l-0.962-0.22c-13.154-2.974-26.274-6.055-39.326-9.358c-13.052-3.301-26.06-6.743-39.045-10.259l11.172-19.041
				c14.338,12.935,28.596,25.955,42.615,39.226c14.053,13.232,27.961,26.616,41.67,40.212l0.298,0.298
				c4.727,4.688,4.756,12.319,0.068,17.046c-2.883,2.905-6.951,4.023-10.698,3.374c-13.923-2.512-27.82-5.173-41.689-7.998
				c-13.877-2.786-27.727-5.737-41.548-8.87l7.429-15.505c5.764,5.725,11.343,11.658,17.007,17.495
				c5.659,5.845,11.304,11.704,16.799,17.729l0.691,0.759c1.27,1.392,1.506,3.364,0.757,4.973
				c-3.293,7.048-6.553,14.109-10.051,21.084c-3.408,7.007-6.936,13.972-10.632,20.876c1.538-7.678,3.245-15.298,5.068-22.874
				c1.736-7.607,3.708-15.129,5.649-22.664l1.448,5.73c-6.587-4.807-13.025-9.783-19.451-14.771
				c-6.418-4.998-12.925-9.895-19.241-15.005c-3.782-3.057-4.37-8.601-1.311-12.383c1.929-2.388,4.849-3.501,7.69-3.23l1.047,0.107
				c14.097,1.45,28.164,3.083,42.202,4.88c14.048,1.758,28.066,3.682,42.061,5.752l-10.332,20.715
				c-14.209-13.069-28.215-26.353-42.08-39.785c-13.899-13.394-27.556-27.041-41.135-40.774l-0.5-0.505
				c-4.368-4.417-4.326-11.538,0.088-15.903c3.145-3.11,7.671-3.977,11.587-2.632c12.712,4.402,25.403,8.877,38.052,13.491
				s25.227,9.448,37.773,14.392l-8.606,9.255c-3.425-10.769-6.404-21.714-9.561-32.588
				C3374.272,2222.769,3371.321,2211.814,3368.779,2200.701z"/>
		</g>
		<g style="opacity:0.3;">
			<path style="fill:#000072;" d="M1378.95,2392.5l79.135-68.475c23.889-20.671,54.129-32.552,85.7-33.67l602.178-21.328
				c29.415-1.042,57.245,13.332,73.421,37.923l22.283,33.875l-49.822,43.046l-103.889,8.629H1378.95z"/>
		</g>
	</g>
	<g style="opacity:0.3;">
		<ellipse style="fill:#000072;" cx="2000" cy="3310" rx="907.239" ry="110"/>
	</g>
</g>
</svg>
