<?xml version="1.0" encoding="utf-8"?>
<!-- Generator: Adobe Illustrator 27.5.0, SVG Export Plug-In . SVG Version: 6.00 Build 0)  -->
<svg version="1.1" id="Layer_1" xmlns="http://www.w3.org/2000/svg" xmlns:xlink="http://www.w3.org/1999/xlink" x="0px" y="0px"
	 viewBox="0 0 4000 4000" style="enable-background:new 0 0 4000 4000;" xml:space="preserve">
<g>
	<g>
		<!-- <g>
			<rect style="fill-rule:evenodd;clip-rule:evenodd;fill:#9EEF79;" width="4000" height="4000"/>
		</g> -->
	</g>
	<g>
		<g style="opacity:0.2;">
			<g>
				<path style="fill-rule:evenodd;clip-rule:evenodd;fill:#380072;" d="M2000,3434.24c466.318,0,844.344,50.531,844.344,112.88
					c0,62.348-378.026,112.88-844.344,112.88s-844.344-50.532-844.344-112.88C1155.657,3484.77,1533.682,3434.24,2000,3434.24"/>
			</g>
		</g>
		<g>
			<g>
				<g>
					<path style="fill-rule:evenodd;clip-rule:evenodd;fill:#89BAD6;" d="M1705.58,1955.998
						c-228.261,146.567-586.908-111.555-588.104-372.49c-0.643-145.66,86.018-277.549,219.981-334.757
						c-10.643-153.654,32.556-303.012,117.569-424.974l-108.69-45.846c-21.646-9.143-27.685-38.832-14.94-58.618l97.71-151.936
						c12.721-19.784,42.818-32.314,58.619-14.94l110.98,121.937c17.733-13.415,36.254-26.04,55.515-37.781
						c106.183-64.609,226.018-96.805,345.782-96.59c119.764-0.215,239.574,31.982,345.76,96.59
						c19.259,11.741,37.781,24.366,55.537,37.781l110.959-121.937c15.822-17.374,45.895-4.844,58.616,14.94l97.734,151.936
						c12.721,19.786,6.706,49.476-14.94,58.618l-108.713,45.846c85.035,121.961,128.21,271.319,117.592,424.974
						c133.963,57.208,220.624,189.097,219.957,334.757c-1.195,260.935-359.818,519.057-588.104,372.49
						c-91.935-59.046-193.178-88.569-294.397-88.569C1898.758,1867.428,1797.514,1896.952,1705.58,1955.998z"/>
				</g>
			</g>
			<g>
				<g>
					<path style="fill:#380072;" d="M1555.419,2022.262c-64.485,0-133.093-18.501-200.999-55.396
						c-155.093-84.268-259.741-238.284-260.405-383.252c-0.662-149.924,84.8-285.371,219.104-349.597
						c-6.33-140.608,31.187-280.906,106.667-399.641l-82.568-34.829c-15.649-6.609-27.646-20.203-32.925-37.3
						c-5.774-18.701-3.015-39.502,7.378-55.64l97.703-151.921c12.061-18.76,33.379-32.012,54.302-33.757
						c16.24-1.367,30.947,4.224,41.404,15.72l96.782,106.338c13.088-9.28,26.531-18.13,40.149-26.431
						c107.559-65.444,230.916-100.017,356.799-100.017c0.828,0,1.643,0,2.466,0c125.791,0,249.126,34.568,356.68,100.01
						c13.616,8.301,27.065,17.153,40.178,26.443l96.772-106.348c10.466-11.499,25.156-17.092,41.423-15.715
						c20.913,1.753,42.217,15.005,54.277,33.76l97.732,151.931c10.388,16.157,13.135,36.965,7.351,55.667
						c-5.281,17.078-17.271,30.657-32.896,37.256l-82.598,34.834c75.479,118.701,112.998,258.997,106.685,399.641
						c134.316,64.231,219.768,199.68,219.082,349.597c-0.664,144.966-105.305,298.979-260.386,383.247
						c-129.998,70.64-262.62,73.872-363.855,8.877c-86.428-55.51-183.845-84.849-281.721-84.849
						c-97.891,0-195.317,29.338-281.743,84.849h-0.002C1669.906,2006.783,1614.386,2022.262,1555.419,2022.262z M2000.002,1843.966
						c106.885,0,213.069,31.914,307.075,92.29c86.382,55.466,201.599,51.589,316.099-10.625
						c138.296-75.144,235.288-215.876,235.864-342.231c0.627-136.553-80.117-259.441-205.708-313.071
						c-9.185-3.923-14.88-13.23-14.192-23.196c10.027-145.061-30.256-290.644-113.43-409.936
						c-4.048-5.808-5.259-13.132-3.293-19.934c1.968-6.799,6.899-12.349,13.423-15.1l108.711-45.847
						c3.679-1.555,5.466-5.149,6.313-7.891c1.689-5.466,0.908-11.914-1.99-16.423l-97.732-151.931
						c-4.121-6.409-12.349-11.848-18.73-12.383c-2.161-0.159-2.576,0.293-2.808,0.544l-110.955,121.934
						c-8.159,8.97-21.816,10.244-31.494,2.927c-17.231-13.02-35.269-25.291-53.606-36.47
						c-100.178-60.952-215.09-93.162-332.354-93.162c-0.769,0-1.536,0-2.305,0c-117.371,0-232.278,32.207-332.476,93.171
						c-18.35,11.184-36.372,23.452-53.555,36.45c-9.673,7.327-23.337,6.06-31.506-2.917l-110.981-121.938
						c-0.229-0.254-0.664-0.715-2.793-0.54c-6.389,0.535-14.622,5.972-18.74,12.378l-97.71,151.938
						c-2.908,4.509-3.689,10.942-2.005,16.404c0.85,2.744,2.637,6.348,6.34,7.913l108.679,45.842
						c6.521,2.751,11.453,8.301,13.418,15.1c1.968,6.799,0.757,14.123-3.291,19.932
						c-83.179,119.331-123.455,264.917-113.408,409.937c0.688,9.966-5.005,19.275-14.192,23.198
						c-125.581,53.625-206.338,176.516-205.735,313.076c0.579,126.353,97.578,267.087,235.886,342.231
						c114.5,62.217,229.712,66.084,316.082,10.62C1786.908,1875.88,1893.102,1843.966,2000.002,1843.966z M1705.58,1955.997h0.049
						H1705.58z"/>
				</g>
			</g>
			<g style="opacity:0.6;">
				<g>
					<path style="fill-rule:evenodd;clip-rule:evenodd;fill:#FFFFFF;" d="M1820.69,1259.443
						c107.974-76.804,252.821-76.494,360.485,0.765C2065.634,1241.089,1945.489,1240.828,1820.69,1259.443"/>
				</g>
			</g>
			<g style="opacity:0.3;">
				<g>
					<path style="fill-rule:evenodd;clip-rule:evenodd;fill:#380072;" d="M1684.268,1968.313
						c-228.574,118.452-565.621-131.864-566.792-384.805c-0.117-30.574,3.58-60.552,10.79-89.359
						c65.967,375.618,361.939,446.309,589.939,259.742c155.16-126.971,395.187-131.124,546.837,0
						c245.208,211.987,568.867,45.419,608.963-250.076c5.704,25.825,8.617,52.531,8.498,79.693
						c-1.146,252.271-336.405,501.895-564.952,385.711c7.564-5.369,15.011-10.954,22.338-16.756
						c-89.596-89.977-211.339-140.574-338.335-140.574s-248.742,50.597-338.338,140.574
						C1670.137,1957.955,1677.154,1963.205,1684.268,1968.313"/>
				</g>
			</g>
			<g>
				<g>
					<path style="fill-rule:evenodd;clip-rule:evenodd;fill:#89BAD6;" d="M2000.002,2952.117
						c-11.766,70.525-48.975,132.866-123.655,157.33c-606.384,198.572-1084.676-309.03-664.475-621.637
						c-425.45,72.246-586.862-419.817-428.149-564.688c15.705-14.322,42.029-5.8,58.379,7.755
						c16.372,13.557,23.533,35.301,18.45,55.92c4.558-28.998,18.496-57.279,42.769-83.987c13.459-14.845,36.134-16.851,52.577-5.37
						c45.538,31.767-11.289,64.059-14.344,104.01c-1.598,20.598,5.274,40.956,19.046,56.399
						c11.408,19.664,35.799,27.59,56.588,18.376c20.788-9.211,39.714-37.52,24.369-54.273
						c-38.832-42.413-59.572-72.053-42.769-109.978c51.6-61.981,114.49-19.212,188.645,128.308
						c61.407,94.132,142.889,89.596,244.467-13.557c4.893-17.469,10.142-34.296,15.727-50.526
						c88.308,27.614,180.602,24.464,257.953-25.202c91.935-59.046,193.178-88.569,294.422-88.569
						c101.219,0,202.463,29.523,294.397,88.569c77.351,49.666,169.67,52.817,257.953,25.202
						c5.609,16.23,10.859,33.057,15.751,50.526c101.554,103.153,183.036,107.688,244.468,13.557
						c74.155-147.52,137.021-190.289,188.645-128.308c16.778,37.925-3.962,67.566-42.77,109.978
						c-15.37,16.753,3.581,45.062,24.369,54.273c20.764,9.214,45.179,1.288,56.588-18.376c13.747-15.443,20.62-35.802,19.046-56.399
						c-3.079-39.952-59.882-72.244-14.344-104.01c16.443-11.482,39.094-9.475,52.577,5.37c24.249,26.708,38.187,54.989,42.77,83.987
						c-5.083-20.62,2.077-42.364,18.427-55.92c16.372-13.554,42.696-22.076,58.376-7.755
						c158.716,144.871-2.696,636.934-428.146,564.688c420.198,312.607-58.069,820.209-664.477,621.637
						C2048.952,3084.983,2011.745,3022.642,2000.002,2952.117z"/>
				</g>
			</g>
			<g style="opacity:0.3;">
				<g>
					<path style="fill-rule:evenodd;clip-rule:evenodd;fill:#380072;" d="M1180.223,2497.226
						c46.518-89.119,98.047-152.343,164.777-292.226c-111.936,41.386-177.164,58.451-246.973,109.119
						c-145.756,105.802-339.029-27.209-359.268-316.212C730,2345,886.375,2513.478,1180.223,2497.226"/>
				</g>
			</g>
			<g style="opacity:0.3;">
				<g>
					<path style="fill-rule:evenodd;clip-rule:evenodd;fill:#380072;" d="M1085.709,2633.863
						c-117.256,380.892,424.998,710.397,875.245,420.296c-497.384,190.791-1013.815-191.89-743.092-459.104l-0.144-0.046
						c1.075-0.98,2.148-1.958,3.199-2.96l1.026-1.026c20.573-20.407,33.006-47.831,37.351-82.247v0.024
						c13.938-118.522,22.84-185.146,85.705-298.801C1252.469,2397.88,1185.69,2506.225,1085.709,2633.863"/>
				</g>
			</g>
			<g style="opacity:0.3;">
				<g>
					<path style="fill-rule:evenodd;clip-rule:evenodd;fill:#380072;" d="M2820.377,2517.059
						C2773.861,2427.964,2716.708,2349.883,2650,2210c111.912,41.386,182.739,73.284,252.551,123.976
						c145.756,105.802,339.029-27.209,359.268-316.237C3261.364,2366.914,3114.2,2533.335,2820.377,2517.059"/>
				</g>
			</g>
			<g style="opacity:0.3;">
				<g>
					<path style="fill-rule:evenodd;clip-rule:evenodd;fill:#380072;" d="M2915.843,2633.863
						c117.259,380.892-424.996,710.397-875.245,420.296c492.899,189.073,1004.653-185.064,750.351-451.896h0.024
						c-18.855-20.334-34.631-47.327-47.33-80.956h-0.022C2730.996,2398.441,2710.061,2322.64,2645,2205
						C2737.531,2392.88,2815.865,2506.225,2915.843,2633.863"/>
				</g>
			</g>
			<g>
				<g>
					<path style="fill:#380072;" d="M2394.936,3182.931c-81.616,0.005-175.237-12.344-278.606-46.191
						c-52.117-17.07-91.909-52.314-116.338-101.899c-24.438,49.585-64.233,84.829-116.343,101.899
						c-221.894,72.661-398.994,46.235-508.484,11.27c-141.296-45.122-253.979-132.08-309.158-238.574
						c-68.625-132.451-40.442-272.681,74.063-386.021c-80.356,1.973-154.092-16.123-220.232-54.048
						c-73.892-42.373-133.904-107.705-173.55-188.945c-68.452-140.259-59.36-295.71,21.619-369.626
						c25.227-23.008,63.948-13.887,89.165,7.019c1.885,1.558,3.684,3.201,5.396,4.912c6.633-10.525,14.468-20.767,23.494-30.696
						c21.206-23.399,57.056-27.2,83.369-8.826c6.494,4.531,11.631,9.207,15.618,13.95c26.353-28.887,52.925-32.72,70.959-30.666
						c48.982,5.62,97.263,58.716,151.877,167.048c22.751,34.492,46.963,52.578,73.989,55.288
						c35.845,3.589,79.28-19.741,129.211-69.346c4.478-15.596,9.331-31.013,14.456-45.911c4.131-12.009,17.056-18.56,29.187-14.758
						c62.322,19.487,154.258,31.394,238.276-22.554c94.004-60.376,200.198-92.29,307.097-92.29
						c106.885,0,213.069,31.914,307.075,92.29c84.023,53.95,175.955,42.043,238.271,22.554c12.117-3.799,25.037,2.739,29.18,14.729
						c5.105,14.775,9.971,30.203,14.49,45.94c49.912,49.6,93.381,72.949,129.182,69.346c27.034-2.705,51.255-20.796,74.019-55.288
						c54.614-108.328,102.886-161.421,151.855-167.046c18.04-2.075,44.619,1.775,70.981,30.664
						c3.989-4.746,9.126-9.421,15.627-13.955c26.274-18.35,62.112-14.558,83.364,8.836c9.014,9.927,16.843,20.168,23.474,30.691
						c1.707-1.712,3.503-3.352,5.383-4.91c25.259-20.903,63.982-30.024,89.172-7.017c80.972,73.909,90.066,229.358,21.616,369.622
						c-39.646,81.235-99.658,146.572-173.55,188.945c-66.135,37.92-139.934,56.089-220.232,54.048
						c114.507,113.34,142.69,253.569,74.065,386.021c-55.176,106.494-167.859,193.452-309.155,238.574
						C2566.335,3166.691,2488.532,3182.931,2394.936,3182.931z M1211.884,2469.347c9.26,0,17.825,5.498,21.56,14.243
						c4.263,9.971,1.133,21.567-7.568,28.042c-143.635,106.855-186.719,243.984-118.206,376.216
						c98.774,190.64,410.571,319.194,761.375,204.302c74.004-24.243,99.478-88.911,107.815-138.896
						c1.887-11.309,11.675-19.6,23.142-19.6c0.002,0,0.002,0,0.005,0c11.467,0.005,21.255,8.296,23.137,19.609
						c8.323,49.976,33.777,114.644,107.791,138.887c350.803,114.868,662.605-13.662,761.379-204.297
						c68.513-132.236,25.427-269.36-118.208-376.221c-8.701-6.475-11.831-18.071-7.568-28.042
						c4.258-9.976,14.792-15.752,25.5-13.911c271.694,46.167,389.771-148.945,419.487-209.839
						c58.564-120.005,53.799-255.163-11.086-314.392c-3.711-3.386-17.173-0.129-27.598,8.499
						c-8.152,6.76-12.368,17.239-11.387,27.644c0.435,2.173,0.825,4.353,1.172,6.543c1.96,12.415-6.208,24.17-18.53,26.658
						c-12.3,2.5-24.412-5.171-27.422-17.378c-0.669-2.712-1.187-5.444-1.558-8.184c-4.919-22.82-16.941-44.876-35.806-65.649
						c-5.417-5.969-14.785-6.787-21.772-1.904c-10.276,7.168-10.889,7.595,3.757,31.646c8.904,14.617,18.992,31.184,20.544,51.328
						c1.992,26.06-6.523,52.188-23.411,72.07c-17.942,28.55-54.082,39.722-85.132,25.952c-20.903-9.268-38.516-30.151-42.82-50.791
						c-3.193-15.313,0.601-29.8,10.681-40.788c38.464-42.036,47.744-60.515,39.805-81.685
						c-16.135-18.066-27.627-16.748-31.536-16.304c-17.5,2.012-55.83,23.225-115.896,142.717c-0.396,0.786-0.835,1.548-1.316,2.285
						c-30.793,47.188-67.583,73.228-109.346,77.407c-52.38,5.244-108.477-23.325-171.484-87.329
						c-2.781-2.827-4.802-6.308-5.872-10.127c-2.668-9.526-5.474-18.94-8.386-28.164c-93.665,23.804-183.611,11.943-255.405-34.155
						c-86.428-55.51-183.845-84.851-281.721-84.851c-97.891,0-195.317,29.341-281.743,84.851
						c-71.78,46.089-161.733,57.964-255.388,34.158c-2.925,9.275-5.727,18.684-8.381,28.157c-1.069,3.818-3.091,7.305-5.874,10.132
						c-63.03,64.009-119.124,92.637-171.518,87.324c-41.755-4.18-78.533-30.225-109.312-77.407c-0.481-0.732-0.918-1.494-1.313-2.28
						c-60.066-119.497-98.406-140.708-115.911-142.717c-3.884-0.444-15.391-1.77-31.526,16.309
						c-7.956,21.167,1.323,39.644,39.827,81.699c10.066,10.989,13.848,25.476,10.647,40.789
						c-4.309,20.635-21.917,41.514-42.815,50.776c-31.042,13.745-67.178,2.588-85.112-25.947
						c-16.924-19.893-25.439-46.035-23.418-72.095c1.541-20.129,11.636-36.704,20.542-51.328
						c14.643-24.041,14.028-24.468,3.77-31.626c-7.009-4.898-16.367-4.08-21.773,1.885c-18.879,20.774-30.898,42.808-35.806,65.596
						c-0.371,2.761-0.894,5.518-1.567,8.252c-3.01,12.2-15.115,19.829-27.415,17.383c-12.317-2.485-20.491-14.231-18.54-26.643
						c0.347-2.209,0.74-4.409,1.179-6.601c0.964-10.391-3.257-20.85-11.416-27.608c-10.415-8.633-23.884-11.89-27.607-8.486
						c-64.875,59.219-69.641,194.377-11.074,314.387c29.714,60.889,147.8,255.938,419.487,209.834
						C1209.262,2469.454,1210.58,2469.347,1211.884,2469.347z M2976.342,2042.15c0.579,4.19,7.412,13.833,15.979,17.627
						c9.861,4.39,21.377,0.63,26.79-8.701c0.791-1.367,1.721-2.646,2.771-3.828c9.456-10.62,14.258-24.839,13.174-39.006
						c-0.649-8.435-6.65-18.696-12.764-28.755C3012.614,2000.861,2995.541,2021.134,2976.342,2042.15z M977.695,1979.496
						c-6.108,10.051-12.102,20.305-12.747,28.743c-1.101,14.18,3.696,28.384,13.159,38.994c1.057,1.182,1.99,2.471,2.786,3.843
						c5.415,9.331,16.919,13.091,26.787,8.701c8.572-3.799,15.403-13.452,15.972-17.637
						C1004.45,2021.134,987.372,2000.861,977.695,1979.496z"/>
				</g>
			</g>
			<g style="opacity:0.7;">
				<g>
					<path style="fill-rule:evenodd;clip-rule:evenodd;fill:#FFFFFF;" d="M2584.86,2048.003
						c47.278,43.891,90.001,65.445,128.188,64.609c38.258-0.191,71.958-22.626,101.124-67.329
						c52.054-103.534,98.545-155.446,139.477-155.778c14.058,0.357,27.47,6.826,40.216,19.427
						c1.17,11.553,1.122,25.085-0.166,40.646c-30.955-37.114-61.649-29.596-92.054,22.531
						c-98.69,202.771-215.399,233.44-350.056,91.959C2562.83,2058.6,2573.927,2053.255,2584.86,2048.003"/>
				</g>
			</g>
			<g style="opacity:0.7;">
				<g>
					<path style="fill-rule:evenodd;clip-rule:evenodd;fill:#FFFFFF;" d="M1007.928,1907.214
						c49.835-46.851,109.668-0.86,179.504,138.069c58.115,89.048,134.203,89.786,228.237,2.219
						c11.289,5.394,22.746,10.908,34.37,16.565c-134.682,141.481-251.367,110.812-350.078-91.959
						c-30.408-52.127-61.077-59.645-92.054-22.531C1006.569,1933.252,1006.569,1919.147,1007.928,1907.214"/>
				</g>
			</g>
			<g>
				<g>
					<path style="fill:#380072;" d="M2394.936,3182.931c-81.616,0.005-175.237-12.344-278.606-46.191
						c-52.117-17.07-91.909-52.314-116.338-101.899c-24.438,49.585-64.233,84.829-116.343,101.899
						c-221.894,72.661-398.994,46.235-508.484,11.27c-141.296-45.122-253.979-132.08-309.158-238.574
						c-68.625-132.451-40.442-272.681,74.063-386.021c-80.356,1.973-154.092-16.123-220.232-54.048
						c-73.892-42.373-133.904-107.705-173.55-188.945c-68.452-140.259-59.36-295.71,21.619-369.626
						c25.227-23.008,63.948-13.887,89.165,7.019c1.885,1.558,3.684,3.201,5.396,4.912c6.633-10.525,14.468-20.767,23.494-30.696
						c21.206-23.399,57.056-27.2,83.369-8.826c6.494,4.531,11.631,9.207,15.618,13.95c26.353-28.887,52.925-32.72,70.959-30.666
						c48.982,5.62,97.263,58.716,151.877,167.048c22.751,34.492,46.963,52.578,73.989,55.288
						c35.845,3.589,79.28-19.741,129.211-69.346c4.478-15.596,9.331-31.013,14.456-45.911c4.131-12.009,17.056-18.56,29.187-14.758
						c62.322,19.487,154.258,31.394,238.276-22.554c94.004-60.376,200.198-92.29,307.097-92.29
						c106.885,0,213.069,31.914,307.075,92.29c84.023,53.95,175.955,42.043,238.271,22.554c12.117-3.799,25.037,2.739,29.18,14.729
						c5.105,14.775,9.971,30.203,14.49,45.94c49.912,49.6,93.381,72.949,129.182,69.346c27.034-2.705,51.255-20.796,74.019-55.288
						c54.614-108.328,102.886-161.421,151.855-167.046c18.04-2.075,44.619,1.775,70.981,30.664
						c3.989-4.746,9.126-9.421,15.627-13.955c26.274-18.35,62.112-14.558,83.364,8.836c9.014,9.927,16.843,20.168,23.474,30.691
						c1.707-1.712,3.503-3.352,5.383-4.91c25.259-20.903,63.982-30.024,89.172-7.017c80.972,73.909,90.066,229.358,21.616,369.622
						c-39.646,81.235-99.658,146.572-173.55,188.945c-66.135,37.92-139.934,56.089-220.232,54.048
						c114.507,113.34,142.69,253.569,74.065,386.021c-55.176,106.494-167.859,193.452-309.155,238.574
						C2566.335,3166.691,2488.532,3182.931,2394.936,3182.931z M1211.884,2469.347c9.26,0,17.825,5.498,21.56,14.243
						c4.263,9.971,1.133,21.567-7.568,28.042c-143.635,106.855-186.719,243.984-118.206,376.216
						c98.774,190.64,410.571,319.194,761.375,204.302c74.004-24.243,99.478-88.911,107.815-138.896
						c1.887-11.309,11.675-19.6,23.142-19.6c0.002,0,0.002,0,0.005,0c11.467,0.005,21.255,8.296,23.137,19.609
						c8.323,49.976,33.777,114.644,107.791,138.887c350.803,114.868,662.605-13.662,761.379-204.297
						c68.513-132.236,25.427-269.36-118.208-376.221c-8.701-6.475-11.831-18.071-7.568-28.042
						c4.258-9.976,14.792-15.752,25.5-13.911c271.694,46.167,389.771-148.945,419.487-209.839
						c58.564-120.005,53.799-255.163-11.086-314.392c-3.711-3.386-17.173-0.129-27.598,8.499
						c-8.152,6.76-12.368,17.239-11.387,27.644c0.435,2.173,0.825,4.353,1.172,6.543c1.96,12.415-6.208,24.17-18.53,26.658
						c-12.3,2.5-24.412-5.171-27.422-17.378c-0.669-2.712-1.187-5.444-1.558-8.184c-4.919-22.82-16.941-44.876-35.806-65.649
						c-5.417-5.969-14.785-6.787-21.772-1.904c-10.276,7.168-10.889,7.595,3.757,31.646c8.904,14.617,18.992,31.184,20.544,51.328
						c1.992,26.06-6.523,52.188-23.411,72.07c-17.942,28.55-54.082,39.722-85.132,25.952c-20.903-9.268-38.516-30.151-42.82-50.791
						c-3.193-15.313,0.601-29.8,10.681-40.788c38.464-42.036,47.744-60.515,39.805-81.685
						c-16.135-18.066-27.627-16.748-31.536-16.304c-17.5,2.012-55.83,23.225-115.896,142.717c-0.396,0.786-0.835,1.548-1.316,2.285
						c-30.793,47.188-67.583,73.228-109.346,77.407c-52.38,5.244-108.477-23.325-171.484-87.329
						c-2.781-2.827-4.802-6.308-5.872-10.127c-2.668-9.526-5.474-18.94-8.386-28.164c-93.665,23.804-183.611,11.943-255.405-34.155
						c-86.428-55.51-183.845-84.851-281.721-84.851c-97.891,0-195.317,29.341-281.743,84.851
						c-71.78,46.089-161.733,57.964-255.388,34.158c-2.925,9.275-5.727,18.684-8.381,28.157c-1.069,3.818-3.091,7.305-5.874,10.132
						c-63.03,64.009-119.124,92.637-171.518,87.324c-41.755-4.18-78.533-30.225-109.312-77.407c-0.481-0.732-0.918-1.494-1.313-2.28
						c-60.066-119.497-98.406-140.708-115.911-142.717c-3.884-0.444-15.391-1.77-31.526,16.309
						c-7.956,21.167,1.323,39.644,39.827,81.699c10.066,10.989,13.848,25.476,10.647,40.789
						c-4.309,20.635-21.917,41.514-42.815,50.776c-31.042,13.745-67.178,2.588-85.112-25.947
						c-16.924-19.893-25.439-46.035-23.418-72.095c1.541-20.129,11.636-36.704,20.542-51.328
						c14.643-24.041,14.028-24.468,3.77-31.626c-7.009-4.898-16.367-4.08-21.773,1.885c-18.879,20.774-30.898,42.808-35.806,65.596
						c-0.371,2.761-0.894,5.518-1.567,8.252c-3.01,12.2-15.115,19.829-27.415,17.383c-12.317-2.485-20.491-14.231-18.54-26.643
						c0.347-2.209,0.74-4.409,1.179-6.601c0.964-10.391-3.257-20.85-11.416-27.608c-10.415-8.633-23.884-11.89-27.607-8.486
						c-64.875,59.219-69.641,194.377-11.074,314.387c29.714,60.889,147.8,255.938,419.487,209.834
						C1209.262,2469.454,1210.58,2469.347,1211.884,2469.347z M2976.342,2042.15c0.579,4.19,7.412,13.833,15.979,17.627
						c9.861,4.39,21.377,0.63,26.79-8.701c0.791-1.367,1.721-2.646,2.771-3.828c9.456-10.62,14.258-24.839,13.174-39.006
						c-0.649-8.435-6.65-18.696-12.764-28.755C3012.614,2000.861,2995.541,2021.134,2976.342,2042.15z M977.695,1979.496
						c-6.108,10.051-12.102,20.305-12.747,28.743c-1.101,14.18,3.696,28.384,13.159,38.994c1.057,1.182,1.99,2.471,2.786,3.843
						c5.415,9.331,16.919,13.091,26.787,8.701c8.572-3.799,15.403-13.452,15.972-17.637
						C1004.45,2021.134,987.372,2000.861,977.695,1979.496z"/>
				</g>
			</g>
			<g style="opacity:0.7;">
				<g>
					<path style="fill-rule:evenodd;clip-rule:evenodd;fill:#FFFFFF;" d="M2098.476,2665.415
						c-104.895,136.019-117.09,272.346-36.54,409.007c-99.55-220.077,89.906-476.048,325.854-432.015
						c54.799,10.216,98.14,8.043,132.891-19.117c33.319-32.268,95.18-53.677,185.587-64.13
						c-86.802-30.359-166.185-18.019-238.142,36.97C2298.41,2592,2175.185,2615.103,2098.476,2665.415"/>
				</g>
			</g>
			<g style="opacity:0.7;">
				<g>
					<path style="fill-rule:evenodd;clip-rule:evenodd;fill:#FFFFFF;" d="M1946.491,3071.177l-0.882,0.882
						c97.138-219.527-91.768-473.542-326.88-429.651c-54.799,10.216-98.14,8.043-132.866-19.117
						c-33.343-32.268-95.205-53.677-185.612-64.13c86.802-30.359,166.185-18.019,238.142,36.97
						c169.741-4.13,292.941,18.973,369.65,69.284C2012.126,2800.358,2024.918,2935.588,1946.491,3071.177"/>
				</g>
			</g>
			<g style="opacity:0.3;">
				<g>
					<path style="fill-rule:evenodd;clip-rule:evenodd;fill:#380072;" d="M1408.007,2054.472
						c19.762-13.007,2.317-0.836,23.892-22.746c4.893-17.469,10.142-34.296,15.727-50.526
						c88.308,27.614,180.602,24.464,257.953-25.202c91.935-59.046,193.178-88.569,294.422-88.569
						c101.219,0,202.463,29.523,294.397,88.569c77.351,49.666,169.67,52.817,257.953,25.202
						c5.609,16.23,10.859,33.057,15.751,50.526c10.24,10.406-9.5,6.039,0.335,14.439h-0.024
						c-29.261,62.245-62.125,115.661-130.908,115.492c-68.785-0.19-131.243-40.191-160.148-102.603
						c-169.36,106.948-385.14,106.948-554.497,0c-36.659,59.882-99.98,98.379-170.029,103.343
						c-70.025,4.964-100.049-53.821-144.8-107.925H1408.007z"/>
				</g>
			</g>
			<g>
				<g>
					<path style="fill-rule:evenodd;clip-rule:evenodd;fill:#89BAD6;" d="M1696.701,1963.611v-0.071
						c2.984-1.742,5.944-3.534,8.879-5.418c183.872-118.07,404.95-118.07,588.82,0c3.436,2.219,6.897,4.296,10.382,6.325
						C2135.231,2128.554,1865.869,2128.268,1696.701,1963.611z"/>
				</g>
			</g>
			<g>
				<g>
					<path style="fill:#380072;" d="M2001.171,2110.778c-0.205,0-0.398,0-0.603,0c-120.3-0.156-234.026-46.45-320.232-130.356
						c-4.536-4.416-7.097-10.478-7.097-16.811v-0.071c0-8.342,4.431-16.06,11.638-20.264c2.698-1.575,5.376-3.193,8.032-4.897
						c192.283-123.474,421.877-123.476,614.165,0.003c3.179,2.053,6.333,3.943,9.507,5.788c6.35,3.696,10.603,10.154,11.489,17.446
						c0.889,7.292-1.692,14.58-6.973,19.69C2234.826,2064.806,2121.222,2110.778,2001.171,2110.778z M1735.551,1967.184
						c153.672,129.624,376.194,129.961,530.261,0.82C2098.566,1868.129,1902.997,1867.85,1735.551,1967.184z"/>
				</g>
			</g>
			<g style="opacity:0.8;">
				<g>
					<path style="fill-rule:evenodd;clip-rule:evenodd;fill:#FFFFFF;" d="M1974.606,1868.071
						c16.421-0.811,32.866-0.811,49.263-0.071c74.798,4.917,148.402,32.554,209.787,82.96
						c-68.854-27.541-141.386-42.434-214.228-44.703c5.658,1.767,9.214,4.321,9.214,7.185c0,5.345-12.506,9.69-27.925,9.69
						c-15.395,0-27.9-4.345-27.9-9.69c0-2.889,3.627-5.489,9.404-7.256c-73.583,2.028-146.877,16.946-216.474,44.773
						C1826.871,1900.745,1900.144,1873.133,1974.606,1868.071"/>
				</g>
			</g>
			<g>
				<g>
					<path style="fill-rule:evenodd;clip-rule:evenodd;fill:#FFFFFF;" d="M1424.357,1973.206
						c73.558,28.521,145.707,32.84,216.425,12.936C1683.743,2127.122,1414.547,2161.753,1424.357,1973.206z"/>
				</g>
			</g>
			<g>
				<g>
					<path style="fill:#380072;" d="M1539.094,2120.944c-21.667,0-43.394-4.639-62.683-14.185
						c-47.471-23.501-72.849-72.51-69.626-134.468c0.293-5.637,3.274-10.791,8.013-13.86c4.741-3.064,10.659-3.674,15.923-1.633
						c69.595,26.987,138.665,31.165,205.295,12.405c9.214-2.598,18.811,2.656,21.602,11.809
						c12.942,42.476,2.124,82.31-29.682,109.287C1604.22,2110.416,1571.733,2120.944,1539.094,2120.944z M1442.475,1998.253
						c3.738,35.874,20.864,62.764,49.551,76.968c35.74,17.69,84.387,12.637,113.144-11.758
						c12.456-10.566,25.249-28.349,22.231-55.793C1566.867,2021.271,1504.845,2018.102,1442.475,1998.253z"/>
				</g>
			</g>
			<g>
				<g>
					<path style="fill-rule:evenodd;clip-rule:evenodd;fill:#FFFFFF;" d="M2318.289,1973.396
						c73.559,28.521,145.685,32.84,216.401,12.936C2577.65,2127.312,2308.457,2161.968,2318.289,1973.396z"/>
				</g>
			</g>
			<g>
				<g>
					<path style="fill:#380072;" d="M2432.997,2121.144c-21.665,0-43.391-4.639-62.676-14.185
						c-47.466-23.501-72.837-72.515-69.607-134.478c0.295-5.637,3.274-10.791,8.013-13.857c4.736-3.064,10.659-3.672,15.923-1.633
						c69.583,26.98,138.65,31.15,205.271,12.402c9.214-2.603,18.809,2.654,21.602,11.809c12.944,42.48,2.124,82.319-29.688,109.297
						C2498.122,2110.616,2465.634,2121.144,2432.997,2121.144z M2336.403,1998.444c3.73,35.884,20.852,62.773,49.534,76.978
						c35.735,17.686,84.373,12.632,113.135-11.758c12.458-10.571,25.256-28.354,22.236-55.803
						C2460.783,2021.442,2398.766,2018.292,2336.403,1998.444z"/>
				</g>
			</g>
			<g>
				<g>
					<path style="fill:#380072;" d="M1960.814,3009.153c8.083-39.39,13.127-79.316,12.819-118.85
						c-0.072-19.773-1.849-39.331-4.698-58.601c-3.181-19.197-8.036-37.92-14.541-55.891c-6.454-18.01-15.359-34.836-25.779-50.466
						c-10.518-15.564-22.784-29.932-37.128-42.073c-14.238-12.236-29.993-22.788-46.899-31.543
						c-17.114-8.403-35.099-15.334-53.804-20.557c-37.511-10.215-77.273-14.136-117.178-13.604c-9.993,0.2-20.009,0.752-30.001,1.25
						c-10.013,0.952-20.022,1.738-30.022,2.805l-30.562,3.857c-12.563,1.609-26.234,1.169-39.359-1.843
						c-13.188-2.93-25.204-8.621-35.566-14.731c-2.607-1.538-5.112-3.108-7.529-4.746l-6.714-4.602
						c-3.89-2.559-7.653-5.354-11.732-7.632c-15.97-9.695-33.105-17.656-51.294-23.623c-18.201-5.85-37.286-10.171-57.02-12.61
						c-19.725-2.48-39.979-3.596-60.684-4.048l-0.105-0.002c-4.37-0.095-7.834-3.713-7.739-8.083
						c0.076-3.494,2.417-6.409,5.581-7.39c40.876-12.59,85.763-16.638,130.189-8.03c22.222,4.009,43.99,11.833,64.315,22.444
						c5.159,2.527,9.999,5.615,14.968,8.506l6.403,3.85l5.82,3.33c7.659,4.224,14.891,7.065,22.067,8.579
						c7.17,1.65,14.609,1.78,22.683,0.957l31.444-3.296c10.715-0.828,21.478-1.36,32.205-2.043
						c10.797-0.188,21.578-0.513,32.384-0.608c21.656,0.266,43.362,1.165,65.092,3.857c21.738,2.151,43.411,6.667,64.844,12.227
						c21.395,5.964,42.38,13.984,62.603,23.972c20.071,10.361,39.114,23.057,56.41,37.957c17.408,14.797,32.48,32.349,45.219,51.218
						c12.653,18.926,23.257,39.224,30.88,60.398c7.682,21.143,13.256,42.852,16.869,64.717c3.273,21.88,5.211,43.855,5.3,65.71
						c0.331,43.733-5.187,86.836-13.826,128.914c-2.605,12.693-15.006,20.869-27.699,18.264
						c-12.692-2.605-20.869-15.007-18.263-27.7L1960.814,3009.153z"/>
				</g>
			</g>
			<g>
				<g>
					<path style="fill:#380072;" d="M1995.114,3018.831c-8.641-42.078-14.163-85.181-13.834-128.914
						c0.088-21.858,2.026-43.833,5.298-65.713c3.615-21.868,9.188-43.577,16.87-64.719c7.622-21.174,18.228-41.472,30.881-60.398
						c12.739-18.867,27.811-36.418,45.221-51.216c17.296-14.9,36.34-27.595,56.411-37.957c20.222-9.988,41.208-18.008,62.603-23.972
						c21.433-5.559,43.105-10.076,64.845-12.227c21.73-2.69,43.435-3.591,65.092-3.857c10.806,0.095,21.587,0.42,32.384,0.608
						c10.728,0.684,21.49,1.216,32.205,2.043l31.447,3.296c8.074,0.823,15.513,0.693,22.683-0.955
						c7.175-1.514,14.408-4.358,22.065-8.582l5.822-3.33l6.403-3.848c4.968-2.891,9.808-5.979,14.968-8.508
						c20.325-10.608,42.094-18.433,64.315-22.444c44.426-8.608,89.314-4.561,130.19,8.03c4.176,1.287,6.52,5.715,5.233,9.893
						c-1.029,3.34-4.067,5.508-7.378,5.583h-0.118c-20.704,0.452-40.958,1.567-60.684,4.048c-19.734,2.439-38.821,6.76-57.02,12.61
						c-18.19,5.967-35.325,13.928-51.295,23.623c-4.08,2.278-7.842,5.076-11.732,7.632l-6.714,4.604
						c-2.417,1.638-4.923,3.208-7.531,4.744c-10.361,6.111-22.378,11.802-35.566,14.734c-13.125,3.01-26.796,3.45-39.359,1.841
						l-30.562-3.857c-10.001-1.067-20.009-1.853-30.022-2.805c-9.994-0.498-20.01-1.05-30.001-1.25
						c-39.906-0.532-79.669,3.389-117.18,13.604c-18.705,5.222-36.689,12.153-53.804,20.557
						c-16.908,8.755-32.662,19.307-46.902,31.541c-14.344,12.144-26.611,26.509-37.129,42.073
						c-10.421,15.63-19.326,32.456-25.78,50.469c-6.505,17.969-11.36,36.694-14.541,55.891c-2.849,19.268-4.626,38.828-4.697,58.601
						c-0.306,39.531,4.74,79.46,12.826,118.848l0.05,0.242c2.606,12.693-5.57,25.093-18.263,27.7
						C2010.121,3039.697,1997.72,3031.523,1995.114,3018.831z"/>
				</g>
			</g>
			<g>
				<g>
					<path style="fill-rule:evenodd;clip-rule:evenodd;fill:#FFFFFF;" d="M2054.346,2711.073
						c-28.902,40.765-45.323,95.251-49.285,163.44c42.747,7.278,84.25-18.449,96.757-59.977
						C2114.347,2773.008,2093.989,2728.662,2054.346,2711.073z"/>
				</g>
			</g>
			<g>
				<g>
					<path style="fill:#380072;" d="M2019.484,2893.331c-5.742,0-11.55-0.479-17.378-1.47c-8.84-1.509-15.132-9.419-14.612-18.369
						c4.138-71.23,21.802-129.302,52.495-172.598c4.844-6.831,13.828-9.316,21.494-5.908c47.654,21.147,72.236,74.727,57.18,124.634
						C2105.329,2863.898,2064.421,2893.331,2019.484,2893.331z M2060.041,2734.611c-19.277,32.578-31.375,73.945-36.077,123.379
						c27.876-1.841,52.644-20.767,61.006-48.525C2093.454,2781.339,2082.88,2751.451,2060.041,2734.611z"/>
				</g>
			</g>
			<g>
				<g>
					<path style="fill-rule:evenodd;clip-rule:evenodd;fill:#FFFFFF;" d="M2009.167,2875.109
						c-5.465,46.445-2.459,93.511,8.903,138.881c26.515,0.787,51.169-13.508,63.675-36.921c12.506-23.391,10.67-51.839-4.702-73.439
						C2061.651,2882.006,2035.373,2870.981,2009.167,2875.109z"/>
				</g>
			</g>
			<g>
				<g>
					<path style="fill:#380072;" d="M2020.212,3031.617c-0.886,0-1.772-0.01-2.664-0.039c-7.874-0.234-14.634-5.669-16.548-13.315
						c-11.914-47.578-15.046-96.436-9.309-145.21c0.92-7.837,6.946-14.102,14.739-15.327c33.027-5.176,65.569,8.481,84.949,35.698
						c19.387,27.241,21.641,62.471,5.884,91.938C2081.933,3014.073,2052.58,3031.617,2020.212,3031.617z M2025.192,2892.076
						c-2.666,34.59-0.452,69.131,6.606,103.057c14.565-3.291,27.139-12.715,34.424-26.357c9.419-17.612,8.069-38.662-3.516-54.941
						C2053.744,2901.246,2040.068,2893.502,2025.192,2892.076z"/>
				</g>
			</g>
			<g>
				<g>
					<path style="fill-rule:evenodd;clip-rule:evenodd;fill:#FFFFFF;" d="M2019.764,3021.891
						c21.766,47.948,64.201,83.366,115.277,96.207c22.267-32.077,16.372-75.848-13.603-100.863
						C2091.46,2992.2,2047.329,2994.228,2019.764,3021.891z"/>
				</g>
			</g>
			<g>
				<g>
					<path style="fill:#380072;" d="M2135.041,3135.695c-1.426,0-2.864-0.176-4.29-0.532
						c-56.597-14.229-102.891-52.866-127.012-105.996c-3.025-6.67-1.609-14.512,3.56-19.697
						c34.255-34.375,88.176-36.846,125.417-5.737c37.229,31.06,44.446,84.546,16.78,124.399
						C2146.159,3132.941,2140.717,3135.695,2135.041,3135.695z M2041.806,3026.52c18.655,33.301,48.625,58.315,84.731,70.713
						c9.626-22.964,3.528-49.878-16.372-66.484C2090.248,3014.113,2062.675,3012.931,2041.806,3026.52z"/>
				</g>
			</g>
			<g>
				<g>
					<path style="fill-rule:evenodd;clip-rule:evenodd;fill:#FFFFFF;" d="M1946.97,2711.073
						c28.878,40.765,45.323,95.251,49.285,163.44c-42.769,7.278-84.251-18.449-96.781-59.977
						C1886.968,2773.008,1907.327,2728.662,1946.97,2711.073z"/>
				</g>
			</g>
			<g>
				<g>
					<path style="fill:#380072;" d="M1981.84,2893.331c-44.937,0-85.852-29.434-99.211-73.711
						c-15.032-49.917,9.563-103.491,57.202-124.634c7.666-3.408,16.653-0.923,21.497,5.913
						c30.698,43.33,48.359,101.401,52.493,172.593c0.52,8.95-5.774,16.86-14.614,18.369
						C1993.388,2892.853,1987.577,2893.331,1981.84,2893.331z M1941.269,2734.615c-22.832,16.841-33.413,46.724-24.946,74.849
						c8.374,27.754,33.154,46.675,61.028,48.525C1972.651,2808.585,1960.551,2767.213,1941.269,2734.615z"/>
				</g>
			</g>
			<g>
				<g>
					<path style="fill-rule:evenodd;clip-rule:evenodd;fill:#FFFFFF;" d="M1992.149,2875.109
						c5.465,46.445,2.459,93.511-8.901,138.881c-26.517,0.787-51.172-13.508-63.677-36.921
						c-12.506-23.391-10.668-51.839,4.702-73.439C1939.643,2882.006,1965.943,2870.981,1992.149,2875.109z"/>
				</g>
			</g>
			<g>
				<g>
					<path style="fill:#380072;" d="M1981.108,3031.617c-32.373,0-61.724-17.544-77.058-46.26
						c-15.752-29.458-13.498-64.688,5.884-91.929c19.356-27.227,51.919-40.908,84.954-35.703c7.793,1.226,13.818,7.49,14.739,15.327
						c5.737,48.77,2.607,97.627-9.307,145.21c-1.914,7.642-8.674,13.081-16.548,13.315
						C1982.88,3031.608,1981.994,3031.617,1981.108,3031.617z M1976.125,2892.076c-14.885,1.416-28.562,9.16-37.512,21.748
						c-11.587,16.289-12.937,37.339-3.523,54.946c7.288,13.647,19.863,23.071,34.431,26.362
						C1976.577,2961.207,1978.791,2926.661,1976.125,2892.076z"/>
				</g>
			</g>
			<g>
				<g>
					<path style="fill-rule:evenodd;clip-rule:evenodd;fill:#FFFFFF;" d="M1981.552,3021.891
						c-21.766,47.948-64.201,83.366-115.277,96.207c-22.267-32.077-16.372-75.848,13.606-100.863
						C1909.856,2992.2,1953.987,2994.228,1981.552,3021.891z"/>
				</g>
			</g>
			<g>
				<g>
					<path style="fill:#380072;" d="M1866.276,3135.695c-5.676,0-11.116-2.754-14.456-7.563
						c-27.668-39.854-20.452-93.335,16.787-124.404c37.229-31.104,91.155-28.633,125.408,5.742
						c5.169,5.186,6.584,13.027,3.56,19.697c-24.119,53.13-70.41,91.768-127.007,105.996
						C1869.142,3135.519,1867.699,3135.695,1866.276,3135.695z M1928.198,3017.208c-13.074,0-26.194,4.478-37.036,13.535
						c-19.91,16.611-26.011,43.525-16.382,66.489c36.106-12.397,66.077-37.412,84.729-70.713
						C1950.009,3020.333,1939.118,3017.208,1928.198,3017.208z"/>
				</g>
			</g>
			<g>
				<g>
					<path style="fill:#380072;" d="M904.734,1942.085c-3.75,9.768-8.198,18.63-12.496,27.988
						c-4.259,9.321-8.812,18.906-12.722,29.16c-3.9,10.234-7.516,20.996-10.746,32.202c-3.387,11.206-6.288,22.822-9.831,34.88
						l-0.011,0.037c-0.531,1.804-2.425,2.839-4.232,2.307c-1.01-0.295-1.783-1.033-2.173-1.929
						c-5.017-11.731-8.278-23.979-10.526-36.58c-2.09-12.598-3.06-25.586-2.379-38.74c0.668-13.13,2.642-26.57,7.181-39.402
						c4.489-12.793,11.111-25.188,20.695-35.183c8.715-9.089,23.148-9.392,32.238-0.679c6.824,6.543,8.696,16.311,5.518,24.619
						L904.734,1942.085z"/>
				</g>
			</g>
			<g>
				<g>
					<path style="fill:#380072;" d="M3138.256,1925.779c10.326,10.952,16.925,25.042,20.443,39.209
						c3.596,14.246,3.795,28.721,2.415,42.407c-1.375,13.733-4.664,26.831-9.044,39.255c-4.543,12.405-10.084,24.202-17.235,35.176
						c-1.024,1.572-3.127,2.017-4.698,0.994c-0.898-0.586-1.428-1.523-1.526-2.512l-0.006-0.063
						c-1.206-12.866-1.838-25.178-3.104-37.129c-1.112-11.919-2.767-23.428-5.017-34.263c-2.255-10.857-5.487-20.903-8.752-30.261
						c-3.315-9.421-7.052-17.947-10.558-27.319l-0.728-1.948c-4.396-11.75,1.569-24.844,13.322-29.238
						C3122.585,1916.787,3132.169,1919.341,3138.256,1925.779z"/>
				</g>
			</g>
			<g>
				<g>
					<path style="fill:#380072;" d="M2645.081,2193.066c20.804,19.221,39.924,40.222,57.85,62.366
						c17.784,22.241,34.263,45.732,48.928,70.496c14.629,24.756,27.971,50.603,38.032,77.864
						c10.138,27.185,17.99,55.474,21.234,84.475c1.447,12.92-7.856,24.568-20.778,26.013c-11.511,1.289-22.012-5.955-25.188-16.687
						l-0.067-0.239c-7.626-25.686-14.756-51.248-23.197-76.624c-8.512-25.308-17.329-50.742-27.806-75.757
						c-10.442-25.017-22.012-49.8-34.594-74.312c-12.445-24.612-26.01-48.845-39.678-73.442c-0.917-1.636-0.334-3.704,1.3-4.622
						C2642.428,2191.865,2644.03,2192.104,2645.081,2193.066z"/>
				</g>
			</g>
			<g>
				<g>
					<path style="fill:#380072;" d="M1349.49,2202.93c-12.363,24.414-24.906,48.347-36.521,72.537
						c-11.753,24.092-22.692,48.347-32.534,72.751c-9.856,24.412-18.158,49.124-25.747,73.669
						c-7.687,24.568-13.645,49.224-19.559,74.016l-0.105,0.442c-3.018,12.644-15.713,20.449-28.359,17.434
						c-11.206-2.673-18.607-12.957-18.048-24.063c1.431-28.862,8.365-57.014,17.662-83.835
						c9.402-26.863,22.159-52.166,36.196-76.326c14.061-24.175,29.857-47.078,46.787-68.894
						c17.079-21.721,35.182-42.461,54.83-61.709c1.34-1.311,3.49-1.289,4.802,0.051
						C1349.938,2200.068,1350.126,2201.667,1349.49,2202.93z"/>
				</g>
			</g>
			<g>
				<g>
					<path style="fill-rule:evenodd;clip-rule:evenodd;fill:#380072;" d="M1567.51,1466.704
						c55.92,57.375,74.846,129.667,42.244,161.458c-32.624,31.816-104.416,11.074-160.361-46.301
						c-55.945-57.377-74.871-129.669-42.244-161.482C1439.752,1388.587,1511.543,1409.327,1567.51,1466.704"/>
				</g>
			</g>
			<g>
				<g>
					<path style="fill-rule:evenodd;clip-rule:evenodd;fill:#380072;" d="M2416.24,1477.562
						c-55.92,57.399-74.846,129.691-42.246,161.483c32.627,31.816,104.418,11.076,160.385-46.301
						c55.92-57.377,74.846-129.669,42.246-161.482C2543.999,1399.446,2472.208,1420.188,2416.24,1477.562"/>
				</g>
			</g>
			<g>
				<g>
					<path style="fill-rule:evenodd;clip-rule:evenodd;fill:#380072;" d="M1818.972,1251.52
						c116.445-45.252,245.589-45.252,362.037,0C2075.349,1166.362,1924.63,1166.362,1818.972,1251.52z"/>
				</g>
			</g>
			<g>
				<g>
					<path style="fill:#380072;" d="M1818.974,1260.316c-3.062,0-6.003-1.606-7.615-4.392c-2.173-3.755-1.284-8.53,2.095-11.252
						c108.086-87.109,264.988-87.109,373.074,0c3.379,2.722,4.268,7.497,2.095,11.252c-2.173,3.757-6.755,5.359-10.798,3.794
						c-114.678-44.566-240.989-44.566-355.667,0C1821.115,1260.121,1820.038,1260.316,1818.974,1260.316z M1999.99,1208.702
						c39.507,0,79.004,4.622,117.747,13.872c-74.36-34.229-161.133-34.229-235.493,0
						C1920.986,1213.324,1960.483,1208.702,1999.99,1208.702z"/>
				</g>
			</g>
			<g>
				<g>
					<path style="fill:#380072;" d="M1686.799,1192.189c-66.069,0-125.339-36.78-154.678-95.984
						c-5.754-11.609-1.006-25.686,10.603-31.438c11.602-5.762,25.686-1.006,31.438,10.603
						c21.365,43.113,64.526,69.895,112.637,69.895c48.108,0,91.267-26.782,112.632-69.895c5.754-11.614,19.829-16.362,31.438-10.603
						c11.609,5.752,16.358,19.829,10.603,31.438C1812.133,1155.409,1752.865,1192.189,1686.799,1192.189z"/>
				</g>
			</g>
			<g>
				<g>
					<path style="fill:#380072;" d="M2300.104,1197.533c-63.162,0-122.915-33.435-155.942-87.256
						c-6.777-11.042-3.318-25.491,7.725-32.266c11.045-6.78,25.491-3.32,32.266,7.725c24.558,40.015,68.987,64.873,115.952,64.873
						c46.943,0,91.375-24.861,115.955-64.88c6.78-11.042,21.23-14.5,32.268-7.712c11.042,6.78,14.495,21.228,7.712,32.268
						C2422.988,1164.1,2363.237,1197.533,2300.104,1197.533z"/>
				</g>
			</g>
			<g style="opacity:0.3;">
				<g>
					<path style="fill-rule:evenodd;clip-rule:evenodd;fill:#380072;" d="M1771.716,2020.103l0.142-0.071
						c-64.677-41.552-66.539-74.275-5.585-98.118c-9.786,55.087,24.393,74.204,102.485,57.377c10.167-2.96,20.429-5.56,30.716-7.804
						l0.24-0.073l-0.025,0.024c33.033-7.207,66.684-10.717,100.313-10.573c33.629-0.144,67.258,3.365,100.288,10.573v-0.024
						l0.215,0.073c10.311,2.244,20.549,4.844,30.74,7.804c78.07,16.827,112.247-2.29,102.485-57.377
						c60.93,23.843,59.071,56.566-5.584,98.118l0.117,0.071c-69.76,43.771-149.048,65.444-228.261,65.061
						C1920.788,2085.547,1841.479,2063.874,1771.716,2020.103"/>
				</g>
			</g>
			<g style="opacity:0.6;">
				<g>
					<path style="fill-rule:evenodd;clip-rule:evenodd;fill:#FFFFFF;" d="M1144.448,1444.674
						c-12.435,58.284-12.22,99.215,0.643,122.795c54.894-225.47,194.85-328.359,419.841-308.692
						c-80.001-35.802-171.434-35.992-251.579-0.55C1233.183,1293.668,1171.823,1361.427,1144.448,1444.674 M2662.546,1245.004
						c16.802-245.543-104.658-479.963-314.925-607.841c-210.291-127.878-474.305-127.878-684.572,0
						c-210.266,127.878-331.749,362.298-314.924,607.841c0,0,8.046-2.674,24.154-7.997
						c-5.299-229.122,114.06-443.086,311.774-558.962c71.792-42.053,149.788-68.759,229.503-80.167
						c-10.573,6.706-16.682,14.678-16.682,23.198c0,24.058,48.569,43.532,108.451,43.532c59.904,0,108.451-19.473,108.451-43.532
						c0-8.163-5.584-15.776-15.299-22.316c78.402,12.005,155.038,38.854,225.59,80.551
						c197.211,116.614,315.687,330.937,309.552,559.939c-70.838-19.689-147.664-13.843-216.186,18.855
						c248.023-12.244,394.71,94.227,440.009,319.434c14.749-112.459-33.199-223.965-124.992-290.602
						c-24.965-18.115-52.076-32.123-80.382-41.934C2660.302,1246.532,2662.546,1245.004,2662.546,1245.004z"/>
				</g>
			</g>
			<g>
				<g>
					<path style="fill:#380072;" d="M1555.419,2022.262c-64.485,0-133.093-18.501-200.999-55.396
						c-155.093-84.268-259.741-238.284-260.405-383.252c-0.662-149.924,84.8-285.371,219.104-349.597
						c-6.33-140.608,31.187-280.906,106.667-399.641l-82.568-34.829c-15.649-6.609-27.646-20.203-32.925-37.3
						c-5.774-18.701-3.015-39.502,7.378-55.64l97.703-151.921c12.061-18.76,33.379-32.012,54.302-33.757
						c16.24-1.367,30.947,4.224,41.404,15.72l96.782,106.338c13.088-9.28,26.531-18.13,40.149-26.431
						c107.559-65.444,230.916-100.017,356.799-100.017c0.828,0,1.643,0,2.466,0c125.791,0,249.126,34.568,356.68,100.01
						c13.616,8.301,27.065,17.153,40.178,26.443l96.772-106.348c10.466-11.499,25.156-17.092,41.423-15.715
						c20.913,1.753,42.217,15.005,54.277,33.76l97.732,151.931c10.388,16.157,13.135,36.965,7.351,55.667
						c-5.281,17.078-17.271,30.657-32.896,37.256l-82.598,34.834c75.479,118.701,112.998,258.997,106.685,399.641
						c134.316,64.231,219.768,199.68,219.082,349.597c-0.664,144.966-105.305,298.979-260.386,383.247
						c-129.998,70.64-262.62,73.872-363.855,8.877c-86.428-55.51-183.845-84.849-281.721-84.849
						c-97.891,0-195.317,29.338-281.743,84.849h-0.002C1669.906,2006.783,1614.386,2022.262,1555.419,2022.262z M2000.002,1843.966
						c106.885,0,213.069,31.914,307.075,92.29c86.382,55.466,201.599,51.589,316.099-10.625
						c138.296-75.144,235.288-215.876,235.864-342.231c0.627-136.553-80.117-259.441-205.708-313.071
						c-9.185-3.923-14.88-13.23-14.192-23.196c10.027-145.061-30.256-290.644-113.43-409.936
						c-4.048-5.808-5.259-13.132-3.293-19.934c1.968-6.799,6.899-12.349,13.423-15.1l108.711-45.847
						c3.679-1.555,5.466-5.149,6.313-7.891c1.689-5.466,0.908-11.914-1.99-16.423l-97.732-151.931
						c-4.121-6.409-12.349-11.848-18.73-12.383c-2.161-0.159-2.576,0.293-2.808,0.544l-110.955,121.934
						c-8.159,8.97-21.816,10.244-31.494,2.927c-17.231-13.02-35.269-25.291-53.606-36.47
						c-100.178-60.952-215.09-93.162-332.354-93.162c-0.769,0-1.536,0-2.305,0c-117.371,0-232.278,32.207-332.476,93.171
						c-18.35,11.184-36.372,23.452-53.555,36.45c-9.673,7.327-23.337,6.06-31.506-2.917l-110.981-121.938
						c-0.229-0.254-0.664-0.715-2.793-0.54c-6.389,0.535-14.622,5.972-18.74,12.378l-97.71,151.938
						c-2.908,4.509-3.689,10.942-2.005,16.404c0.85,2.744,2.637,6.348,6.34,7.913l108.679,45.842
						c6.521,2.751,11.453,8.301,13.418,15.1c1.968,6.799,0.757,14.123-3.291,19.932
						c-83.179,119.331-123.455,264.917-113.408,409.937c0.688,9.966-5.005,19.275-14.192,23.198
						c-125.581,53.625-206.338,176.516-205.735,313.076c0.579,126.353,97.578,267.087,235.886,342.231
						c114.5,62.217,229.712,66.084,316.082,10.62C1786.908,1875.88,1893.102,1843.966,2000.002,1843.966z M1705.58,1955.997h0.049
						H1705.58z"/>
				</g>
			</g>
			<g>
				<g>
					<path style="fill-rule:evenodd;clip-rule:evenodd;fill:#FF6666;" d="M2597.937,745.35l-52.365-81.433
						c-6.826-10.621-22.934-17.328-31.407-8.019l-60.454,66.444c27.732,24.535,53.222,51.218,76.254,79.693l59.977-25.276
						C2601.542,771.843,2604.763,755.947,2597.937,745.35z"/>
				</g>
			</g>
			<g>
				<g>
					<path style="fill:#380072;" d="M2529.97,816.701c-4.331,0-8.557-1.921-11.406-5.444c-22.566-27.898-47.656-54.119-74.57-77.932
						c-2.939-2.6-4.714-6.269-4.927-10.188c-0.21-3.918,1.157-7.759,3.796-10.662l60.454-66.443
						c6.057-6.655,14.534-9.895,23.918-9.099c11.829,0.991,23.87,8.472,30.674,19.055l52.361,81.431
						c5.891,9.155,7.461,20.942,4.199,31.533c-3.003,9.751-9.858,17.517-18.804,21.309l-60.007,25.288
						C2533.815,816.325,2531.882,816.701,2529.97,816.701z M2474.452,721.334c21.265,19.666,41.335,40.759,59.893,62.942
						l49.905-21.03c1.287-0.544,1.926-2.068,2.19-2.927c0.728-2.356,0.4-5.115-0.833-7.029c0-0.002-0.002-0.005-0.005-0.007
						l-52.363-81.433c-2.268-3.53-6.677-5.689-8.56-5.718L2474.452,721.334z"/>
				</g>
			</g>
			<g>
				<g>
					<path style="fill-rule:evenodd;clip-rule:evenodd;fill:#FF6666;" d="M1400.585,749.982l52.364-81.433
						c6.826-10.597,22.937-17.303,31.41-7.997l60.454,66.422c-27.734,24.559-53.222,51.218-76.254,79.715l-59.977-25.298
						C1396.983,776.499,1393.759,760.579,1400.585,749.982z"/>
				</g>
			</g>
			<g>
				<g>
					<path style="fill:#380072;" d="M1468.554,821.354c-1.914,0-3.848-0.376-5.693-1.155l-59.978-25.298
						c-8.948-3.774-15.806-11.528-18.818-21.274c-3.276-10.608-1.711-22.41,4.187-31.577l52.363-81.433
						c6.814-10.579,18.855-18.047,30.681-19.033c9.38-0.791,17.854,2.454,23.906,9.097l60.457,66.423
						c2.642,2.903,4.009,6.741,3.799,10.659c-0.212,3.919-1.985,7.588-4.922,10.19c-27,23.909-52.087,50.137-74.573,77.954
						C1477.114,819.43,1472.887,821.354,1468.554,821.354z M1473.844,670.785c-1.882,0.024-6.296,2.178-8.567,5.703l-52.358,81.426
						c-0.002,0.002-0.005,0.005-0.005,0.007c-1.235,1.917-1.56,4.683-0.83,7.046c0.264,0.852,0.898,2.366,2.195,2.913l49.9,21.047
						c18.506-22.136,38.582-43.235,59.895-62.956L1473.844,670.785z M1400.585,749.982h0.049H1400.585z"/>
				</g>
			</g>
			<g>
				<g>
					<path style="fill:#380072;" d="M1292.945,1299.133c-10.834,7.017-25.322,3.94-32.363-6.872
						c-7.016-10.836-3.937-25.324,6.875-32.363c212.175-116.448,382.297,18.376,290.411-2.292
						c-50.241-11.313-97.473-13.461-141.674-6.467C1372.448,1258.06,1331.347,1274.051,1292.945,1299.133"/>
				</g>
			</g>
			<g>
				<g>
					<path style="fill:#380072;" d="M2706.342,1299.133c10.834,7.017,25.322,3.94,32.363-6.872
						c7.017-10.836,3.937-25.324-6.875-32.363c-212.175-116.448-382.297,18.376-290.412-2.292
						c50.241-11.313,97.473-13.461,141.674-6.467C2626.84,1258.06,2667.94,1274.051,2706.342,1299.133"/>
				</g>
			</g>
			<g style="opacity:0.3;">
				<g>
					<path style="fill-rule:evenodd;clip-rule:evenodd;fill:#380072;" d="M1982.913,2789.236
						c91.578-93.963,169.025-162.509,232.318-205.635c-149.764,44.297-292.846,44.822-429.221,1.527
						C1896.062,2637.013,1961.695,2705.058,1982.913,2789.236"/>
				</g>
			</g>
		</g>
	</g>
</g>
</svg>
