<?xml version="1.0" encoding="utf-8"?>
<!-- Generator: Adobe Illustrator 27.5.0, SVG Export Plug-In . SVG Version: 6.00 Build 0)  -->
<svg version="1.1" id="Layer_1" xmlns="http://www.w3.org/2000/svg" xmlns:xlink="http://www.w3.org/1999/xlink" x="0px" y="0px"
	 viewBox="0 0 4000 4000" style="enable-background:new 0 0 4000 4000;" xml:space="preserve">
<g>
	<!-- <g>
		<rect style="fill:#FFFFFF;" width="4000" height="4000"/>
	</g> -->
	<g>
		<!-- <g>
			<circle style="fill:#40E6FF;" cx="2022.5" cy="1919.593" r="1277.5"/>
		</g> -->
		<g style="opacity:0.3;">
			<path style="fill:#000072;" d="M3212.914,3072.451c0,99.303-189.702,187.542-483.132,243.068
				c-1.634,106.309-327.725,192.389-729.782,192.389s-728.149-86.08-729.782-192.389
				c-293.43-55.525-483.132-143.765-483.132-243.068c0-168.103,543.03-304.334,1212.914-304.334
				S3212.914,2904.348,3212.914,3072.451z"/>
		</g>
		<g>
			<g>
				<path style="fill:#DFE8ED;" d="M1367.313,2814.969h-381.74v-530.965c0-55.595,45.045-100.64,100.641-100.64h1846.231
					c55.595,0,100.64,45.045,100.64,100.64v530.965h-381.74"/>
				<path style="fill:#000072;" d="M3035.585,2817.468h-384.238v-5h379.238v-528.462c0-54.116-44.026-98.145-98.14-98.145h-1846.23
					c-54.116,0-98.142,44.028-98.142,98.145v528.462h379.241v5H983.073v-533.462c0-56.875,46.269-103.145,103.142-103.145h1846.23
					c56.87,0,103.14,46.27,103.14,103.145V2817.468z"/>
			</g>
			<g style="opacity:0.3;">
				<path style="fill:#263069;" d="M985.591,2630.302h337.69c-7.798,18.341-12.103,38.554-12.103,59.765v124.895H985.591V2630.302z"
					/>
				<path style="fill:#000072;" d="M1313.679,2817.463H983.09V2627.8h343.97l-1.479,3.477
					c-7.898,18.584-11.902,38.359-11.902,58.789V2817.463z M988.09,2812.463h320.588v-122.397c0-19.834,3.655-39.082,10.872-57.266
					H988.09V2812.463z"/>
			</g>
			<g style="opacity:0.3;">
				<path style="fill:#000072;" d="M3033.069,2630.302v184.66h-325.588v-124.895c0-21.211-4.304-41.424-12.103-59.765H3033.069z"/>
			</g>
			<g>
				<polyline style="fill:#4089FF;" points="2651.346,2814.969 3033.086,2814.969 2977.56,3023.191 2651.346,3023.191 
					2561.117,3023.191 1457.543,3023.191 1367.313,3023.191 1041.1,3023.191 985.574,2814.969 1367.313,2814.969 				"/>
			</g>
			<g style="opacity:0.3;">
				<path style="fill:#000072;" d="M3033.069,2814.963l-55.522,208.241H1041.114l-55.522-208.241h29.071
					c42.235,77.045,123.834,127.141,214.792,127.141h1559.751c90.958,0,172.557-50.095,214.792-127.141H3033.069z"/>
			</g>
			<g>
				<path style="fill:#000072;" d="M3033.085,2836.804h-381.738c-12.058,0-21.833-9.775-21.833-21.836s9.775-21.836,21.833-21.836
					h359.902v-509.126c0-43.457-35.352-78.809-78.804-78.809h-1846.23c-43.455,0-78.806,35.352-78.806,78.809v509.126h359.905
					c12.058,0,21.836,9.775,21.836,21.836s-9.778,21.836-21.836,21.836H985.573c-12.058,0-21.836-9.775-21.836-21.836v-530.962
					c0-67.534,54.944-122.48,122.478-122.48h1846.23c67.532,0,122.476,54.946,122.476,122.48v530.962
					C3054.921,2827.029,3045.144,2836.804,3033.085,2836.804z"/>
			</g>
			<g>
				<path style="fill:#000072;" d="M2977.561,3045.027h-1936.46c-9.893,0-18.55-6.65-21.099-16.211l-55.527-208.223
					c-1.746-6.553-0.349-13.55,3.784-18.926c4.133-5.381,10.53-8.535,17.315-8.535h381.741c12.058,0,21.836,9.775,21.836,21.836
					s-9.778,21.836-21.836,21.836h-353.32l43.882,164.551h1902.91l43.879-164.551h-353.318c-12.058,0-21.833-9.775-21.833-21.836
					s9.775-21.836,21.833-21.836h381.738c6.785,0,13.181,3.154,17.314,8.535c4.133,5.376,5.532,12.373,3.784,18.926l-55.525,208.223
					C2996.11,3038.376,2987.453,3045.027,2977.561,3045.027z"/>
			</g>
			<g>
				<path style="fill:#4089FF;" d="M2554.176,2592.866H1464.484c-53.666,0-97.17,43.504-97.17,97.17v333.155h1284.033v-333.155
					C2651.346,2636.371,2607.842,2592.866,2554.176,2592.866z"/>
			</g>
			<g style="opacity:0.55;">
				<path style="fill:#FFFFFF;" d="M2651.334,2690.005v37.431c0-53.651-43.482-97.134-97.133-97.134H1464.459
					c-53.651,0-97.133,43.483-97.133,97.134v-37.431c0-53.651,43.482-97.134,97.133-97.134h1089.743
					C2607.852,2592.872,2651.334,2636.354,2651.334,2690.005z"/>
			</g>
			<g style="opacity:0.3;">
				<rect x="1367.325" y="2853.142" style="fill:#000072;" width="1284.009" height="170.062"/>
			</g>
			<g>
				<path style="fill:#000072;" d="M2651.347,3045.027H1367.314c-12.058,0-21.836-9.775-21.836-21.836v-333.154
					c0-65.62,53.386-119.004,119.006-119.004h1089.692c65.62,0,119.006,53.384,119.006,119.004v333.154
					C2673.183,3035.251,2663.405,3045.027,2651.347,3045.027z M1389.15,3001.355h1240.361v-311.318
					c0-41.538-33.794-75.332-75.334-75.332H1464.484c-41.541,0-75.334,33.794-75.334,75.332V3001.355z"/>
			</g>
			<g>
				<path style="fill:#000072;" d="M2561.118,3045.027H1457.543c-12.058,0-21.836-9.775-21.836-21.836v-333.154
					c0-15.869,12.91-28.779,28.777-28.779h1089.692c15.867,0,28.777,12.91,28.777,28.779v333.154
					C2582.954,3035.251,2573.176,3045.027,2561.118,3045.027z M1479.379,3001.355h1059.902v-296.426H1479.379V3001.355z"/>
			</g>
			<g>
				<path style="fill:#FFFFFF;" d="M2556.109,3256.836H1469.476c-26.269,0-46.984-22.353-44.988-48.546l27.058-355.148
					l12.913-170.062h1096.667l12.914,170.062l27.057,355.148C2603.092,3234.483,2582.378,3256.836,2556.109,3256.836z"/>
			</g>
			<g>
				<path style="fill:#000072;" d="M2556.103,3278.699H1469.497c-18.579,0-36.477-7.817-49.106-21.445
					c-12.63-13.628-19.065-32.07-17.654-50.596l39.975-525.22c0.867-11.387,10.356-20.181,21.772-20.181h1096.633
					c11.416,0,20.906,8.794,21.772,20.181l39.973,525.225c1.411,18.521-5.024,36.963-17.654,50.591
					S2574.682,3278.699,2556.103,3278.699z M1484.721,2704.929l-38.44,505.044c-0.498,6.538,1.682,12.788,6.138,17.598
					c4.458,4.81,10.522,7.456,17.078,7.456h1086.606c6.555,0,12.62-2.646,17.078-7.456c4.456-4.81,6.636-11.06,6.138-17.593
					l-38.438-505.049H1484.721z"/>
			</g>
			<g>
				<path style="fill:#4089FF;" d="M2580.782,1882.599H1437.877c-40.569,0-73.456,32.887-73.456,73.456v227.309h1289.817v-227.309
					C2654.238,1915.487,2621.351,1882.599,2580.782,1882.599z"/>
			</g>
			<g style="opacity:0.3;">
				<rect x="1364.393" y="2056.547" style="fill:#000072;" width="1289.874" height="126.829"/>
			</g>
			<g style="opacity:0.55;">
				<path style="fill:#FFFFFF;" d="M2654.267,1956.045v45.291c0-40.55-32.939-73.489-73.49-73.489H1437.883
					c-40.55,0-73.49,32.939-73.49,73.489v-45.291c0-40.55,32.94-73.427,73.49-73.427h1142.894
					C2621.327,1882.618,2654.267,1915.495,2654.267,1956.045z"/>
			</g>
			<g>
				<path style="fill:#000072;" d="M2654.238,2205.198H1364.421c-12.058,0-21.836-9.775-21.836-21.836v-227.305
					c0-52.544,42.749-95.293,95.293-95.293h1142.905c52.542,0,95.288,42.749,95.288,95.293v227.305
					C2676.071,2195.422,2666.296,2205.198,2654.238,2205.198z M1386.257,2161.526h1246.145v-205.469
					c0-28.464-23.154-51.621-51.619-51.621H1437.878c-28.464,0-51.621,23.157-51.621,51.621V2161.526z"/>
			</g>
			<g>
				<circle style="fill:#F2355D;" cx="2654.238" cy="2400.84" r="57.55"/>
				<path style="fill:#000072;" d="M2654.238,2460.891c-33.11,0-60.049-26.938-60.049-60.054c0-33.11,26.938-60.049,60.049-60.049
					c33.113,0,60.051,26.938,60.051,60.049C2714.289,2433.953,2687.351,2460.891,2654.238,2460.891z M2654.238,2345.789
					c-30.354,0-55.049,24.692-55.049,55.049s24.695,55.054,55.049,55.054c30.356,0,55.051-24.697,55.051-55.054
					S2684.594,2345.789,2654.238,2345.789z"/>
			</g>
			<g>
				<circle style="fill:#8AC457;" cx="2862.656" cy="2400.84" r="57.55"/>
				<path style="fill:#000072;" d="M2862.656,2460.891c-33.11,0-60.049-26.938-60.049-60.054c0-33.11,26.938-60.049,60.049-60.049
					c33.113,0,60.051,26.938,60.051,60.049C2922.707,2433.953,2895.769,2460.891,2862.656,2460.891z M2862.656,2345.789
					c-30.354,0-55.049,24.692-55.049,55.049s24.695,55.054,55.049,55.054c30.356,0,55.051-24.697,55.051-55.054
					S2893.012,2345.789,2862.656,2345.789z"/>
			</g>
			<g style="opacity:0.3;">
				<path style="fill:#000072;" d="M2753.147,2435.162c0,31.754-25.765,57.519-57.581,57.519c-23.956,0-44.543-14.723-53.215-35.56
					c3.868,0.811,7.798,1.248,11.916,1.248c31.754,0,57.519-25.765,57.519-57.519c0-7.798-1.56-15.284-4.367-22.022
					C2733.558,2384.256,2753.147,2407.401,2753.147,2435.162z"/>
			</g>
			<g style="opacity:0.3;">
				<path style="fill:#000072;" d="M2961.513,2435.162c0,31.754-25.765,57.519-57.519,57.519c-24.018,0-44.605-14.723-53.277-35.56
					c3.868,0.811,7.861,1.248,11.916,1.248c31.816,0,57.581-25.765,57.581-57.519c0-7.798-1.56-15.284-4.367-22.022
					C2941.924,2384.256,2961.513,2407.401,2961.513,2435.162z"/>
			</g>
			<g style="opacity:0.55;">
				<path style="fill:#E9F0F4;" d="M2705.235,2374.15c-7.236-3.306-15.284-5.116-23.706-5.116
					c-31.754,0-57.519,25.765-57.519,57.519c0,9.67,2.37,18.778,6.551,26.763c-19.963-9.046-33.875-29.134-33.875-52.466
					c0-31.817,25.765-57.582,57.581-57.582C2676.413,2343.269,2695.628,2355.808,2705.235,2374.15z"/>
			</g>
			<g style="opacity:0.55;">
				<path style="fill:#E9F0F4;" d="M2913.664,2374.15c-7.237-3.306-15.284-5.116-23.707-5.116
					c-31.816,0-57.581,25.765-57.581,57.519c0,9.67,2.371,18.716,6.55,26.701c-19.963-9.046-33.813-29.134-33.813-52.403
					c0-31.817,25.765-57.582,57.519-57.582C2884.78,2343.269,2904.056,2355.808,2913.664,2374.15z"/>
			</g>
			<g>
				<path style="fill:#000072;" d="M2654.238,2480.227c-43.772,0-79.385-35.615-79.385-79.39s35.613-79.385,79.385-79.385
					c43.774,0,79.387,35.61,79.387,79.385S2698.012,2480.227,2654.238,2480.227z M2654.238,2365.125
					c-19.692,0-35.713,16.021-35.713,35.713c0,19.697,16.021,35.718,35.713,35.718c19.695,0,35.715-16.021,35.715-35.718
					C2689.953,2381.145,2673.933,2365.125,2654.238,2365.125z"/>
			</g>
			<g>
				<path style="fill:#000072;" d="M2862.656,2480.227c-43.772,0-79.385-35.615-79.385-79.39s35.613-79.385,79.385-79.385
					c43.774,0,79.387,35.61,79.387,79.385S2906.43,2480.227,2862.656,2480.227z M2862.656,2365.125
					c-19.692,0-35.713,16.021-35.713,35.713c0,19.697,16.021,35.718,35.713,35.718c19.695,0,35.715-16.021,35.715-35.718
					C2898.371,2381.145,2882.351,2365.125,2862.656,2365.125z"/>
			</g>
			<g>
				<path style="fill:#FFFFFF;" d="M2561.117,1813.215v370.149H1464.484v-528.247c0-25.152,20.39-45.543,45.543-45.543h830.168
					L2561.117,1813.215z"/>
			</g>
			<g style="opacity:0.3;">
				<path style="fill:#000072;" d="M2561.117,1896.655h-182.332c-21.313,0-38.591-17.278-38.591-38.591v-165.05l220.923,116.364
					V1896.655z"/>
			</g>
			<g>
				<path style="fill:#000072;" d="M2561.118,2205.198H1464.484c-12.058,0-21.836-9.775-21.836-21.836v-528.245
					c0-37.151,30.227-67.378,67.378-67.378h830.168c5.483,0,10.767,2.065,14.8,5.781l220.923,203.64
					c4.485,4.133,7.036,9.956,7.036,16.055v370.146C2582.954,2195.422,2573.176,2205.198,2561.118,2205.198z M1486.32,2161.526
					h1052.961v-338.74l-207.615-191.375h-821.641c-13.071,0-23.706,10.635-23.706,23.706V2161.526z"/>
			</g>
			<g>
				<polygon style="fill:#FFFFFF;" points="2561.117,1813.215 2340.194,1813.215 2340.194,1609.574 				"/>
			</g>
			<g>
				<path style="fill:#000072;" d="M2561.118,1835.051h-220.923c-12.058,0-21.836-9.778-21.836-21.836v-203.64
					c0-8.669,5.132-16.518,13.071-19.997c7.942-3.479,17.19-1.931,23.564,3.943l220.923,203.64
					c6.611,6.096,8.811,15.622,5.54,23.999C2578.186,1829.536,2570.112,1835.051,2561.118,1835.051z M2362.031,1791.379h143.184
					l-143.184-131.982V1791.379z"/>
			</g>
			<g>
				<path style="fill:#000072;" d="M2561.113,1835.051c-5.293,0-10.596-1.911-14.795-5.781l-220.923-203.64
					c-8.865-8.174-9.429-21.987-1.255-30.854c8.174-8.865,21.985-9.426,30.854-1.255l220.923,203.64
					c8.865,8.174,9.429,21.987,1.255,30.854C2572.868,1832.683,2566.999,1835.051,2561.113,1835.051z"/>
			</g>
			<g style="opacity:0.3;">
				<polygon style="fill:#000072;" points="2574.04,2853.142 1451.545,2853.142 1464.459,2683.081 2561.126,2683.081 				"/>
			</g>
			<g style="opacity:0.3;">
				<rect x="1479.057" y="2001.336" style="fill:#000072;" width="1082.06" height="182.027"/>
			</g>
			<g style="opacity:0.31;">
				<g>
					<path style="fill:#000072;" d="M1901.196,3137.141H1595.51c-8.613,0-15.596-6.982-15.596-15.596s6.982-15.596,15.596-15.596
						h305.686c8.613,0,15.596,6.982,15.596,15.596S1909.809,3137.141,1901.196,3137.141z"/>
				</g>
				<g>
					<path style="fill:#000072;" d="M1994.772,2953.767h-390.945c-8.613,0-15.596-6.982-15.596-15.596s6.982-15.596,15.596-15.596
						h390.945c8.613,0,15.596,6.982,15.596,15.596S2003.386,2953.767,1994.772,2953.767z"/>
				</g>
				<g>
					<path style="fill:#000072;" d="M1823.215,3038.801h-219.387c-8.613,0-15.596-6.982-15.596-15.596s6.982-15.596,15.596-15.596
						h219.387c8.613,0,15.596,6.982,15.596,15.596S1831.828,3038.801,1823.215,3038.801z"/>
				</g>
				<g>
					<path style="fill:#000072;" d="M2432.509,3137.141h-219.387c-8.613,0-15.596-6.982-15.596-15.596s6.982-15.596,15.596-15.596
						h219.387c8.613,0,15.596,6.982,15.596,15.596S2441.123,3137.141,2432.509,3137.141z"/>
				</g>
			</g>
		</g>
	</g>
</g>
</svg>
