<?xml version="1.0" encoding="utf-8"?>
<!-- Generator: Adobe Illustrator 27.5.0, SVG Export Plug-In . SVG Version: 6.00 Build 0)  -->
<svg version="1.1" id="Layer_1" xmlns="http://www.w3.org/2000/svg" xmlns:xlink="http://www.w3.org/1999/xlink" x="0px" y="0px"
	 viewBox="0 0 4000 4000" style="enable-background:new 0 0 4000 4000;" xml:space="preserve">
<g>
	<g>
		<!-- <rect style="fill:#BBEFFF;" width="4000" height="4000"/> -->
	</g>
	<g>
		<g style="opacity:0.2;">
			<ellipse style="fill:#390075;" cx="2095" cy="3337.5" rx="827.5" ry="95"/>
		</g>
		<g>
			<g>
				<g>
					<path style="fill:#390075;" d="M1891.932,875.958c-4.256-12.945-1.611-27.135,5.358-38.656
						c7.75-12.812,19.844-20.551,33.371-23.893c32.714-8.083,67.016,12.197,86.436,37.545
						c44.598,58.21,20.754,145.271-27.899,193.179c-46.767,46.05-114.922,51.068-172.336,25.018
						c-29.676-13.464-55.546-33.146-75.573-58.952c-21.503-27.706-35.874-60.367-44.493-94.212
						c-8.914-35.002-11.617-71.236-9.947-107.259c1.736-37.448,7.183-76.144,26.877-108.74
						c38.259-63.323,112.793-91.402,184.028-92.429c75.05-1.082,155.331,20.61,209.016,75.416
						c25.65,26.185,44.764,57.876,60.531,90.78c16.624,34.692,29.832,71.11,41.369,107.775
						c24.494,77.837,39.661,158.532,44.974,239.957c5.335,81.756,0.142,163.036-12.702,243.858
						c-1.615,10.16-2.734,20.289-3.84,30.513c-0.521,4.81-0.736,9.539-0.754,14.376c-0.015,4.113,0.987,9.658,0.076,13.531
						c-2.104,8.949,11.678,12.768,13.786,3.801c0.871-3.706,3.973-8.296,5.68-12.039c2.434-5.339,4.604-10.656,6.316-16.271
						c3.206-10.509,5.794-20.926,7.833-31.723c4.154-22.001,6.979-44.317,9.38-66.571c4.729-43.831,6.644-87.964,5.771-132.04
						c-1.747-88.273-14.501-176.561-38.103-261.646c-11.617-41.879-25.851-83.062-42.865-123.059
						c-15.769-37.071-34.848-72.642-60.373-103.969c-54.361-66.72-138.027-97.099-222.118-101.721
						c-83.014-4.562-169.696,21.624-221.803,89.548c-26.509,34.556-36.904,75.835-41.032,118.561
						c-3.818,39.516-2.331,79.586,5.249,118.587c14.614,75.196,56.012,145.987,124.861,183.017
						c31.519,16.952,67.346,26.962,103.273,26.35c37.677-0.642,73.338-13.374,102.966-36.58
						c62.916-49.278,95.477-145.443,60.558-219.915c-16.966-36.184-51.863-66.658-91.799-73.685
						c-20.241-3.562-42.012-2.086-60.062,8.537c-15.592,9.176-27.073,24.334-32.504,41.53c-5.14,16.275-3.898,33.295,5.282,47.894
						C1881.563,890.064,1894.988,885.253,1891.932,875.958L1891.932,875.958z"/>
				</g>
			</g>
			<g>
				<g>
					<path style="fill:#390075;" d="M1123.969,996.122c-35.265-19.487-57.153-60.558-55.059-100.338
						c2.017-38.324,27.849-74.313,63.208-87.456c40.986-15.234,87.547-3.839,121.474,22.41
						c35.198,27.233,58.385,68.638,70.995,110.712c7.277,24.283,10.929,49.91,7.423,75.192
						c-3.084,22.237-11.182,43.687-23.234,62.584c-22.479,35.245-58.905,58.076-98.841,67.739
						c-39.316,9.512-82.013,5.557-118.872-11.19c-33.253-15.109-59.508-37.13-82.471-65.634c-0.567-0.704-3.455-4.38-1.732-2.148
						c-1.031-1.336-2.045-2.686-3.05-4.042c-2.147-2.897-4.24-5.833-6.281-8.805c-3.391-4.938-6.635-9.977-9.739-15.101
						c-7.935-13.098-15.28-26.706-20.93-40.947c-16.155-40.722-21.141-84.066-18.151-127.579c0.541-7.872,1.325-15.725,2.255-23.561
						c0.374-3.15,0.771-6.297,1.173-9.443c0.214-1.673,0.431-3.344,0.647-5.017c0.063-0.484,0.39-2.86,0.031-0.252
						c0.199-1.45,0.402-2.9,0.612-4.348c2.93-20.162,7.403-40.083,14.485-59.217c6.78-18.32,16.345-35.464,27.181-51.678
						c1.963-2.937,3.981-5.838,6.061-8.693c1.074-1.474,2.161-2.939,3.27-4.386c-1.344,1.753,2.484-3.088,3.12-3.86
						c5.909-7.175,12.256-13.99,19.024-20.362c64.175-60.421,158.798-60.93,237.562-32.076
						c34.792,12.745,68.334,32.419,98.548,54.994c5.636,4.211,10.214,7.812,16.92,13.362c5.63,4.66,11.163,9.437,16.602,14.318
						c8.194,7.353,16.157,14.955,23.994,22.687c31.174,30.757,58.228,64.715,80.558,102.415
						c22.342,37.721,39.996,77.93,56.563,118.448c15.125,36.991,29.644,74.138,41.859,112.208
						c14.312,44.609,26.023,90.049,35.124,136.004c2.441,12.324,4.695,24.685,6.761,37.077c2.132,12.788,4.856,25.631,6.561,38.466
						c0.996,7.496,5.724,14.004,14.004,14.004c6.792,0,15.007-6.453,14.004-14.004c-2.002-15.069-3.411-30.149-5.901-45.166
						c-2.24-13.513-4.703-26.988-7.388-40.42c-5.073-25.376-10.942-50.594-17.606-75.6c-11.258-42.24-24.791-83.874-40.562-124.645
						c-34.084-88.111-70.871-176.286-133.509-248.357c-45.487-52.337-101.11-99.48-163.841-129.545
						c-82.902-39.732-189.416-52.119-269.892,0.377c-32.604,21.269-58.049,50.885-77.629,84.269
						c-13.139,22.403-22.863,46.952-28.861,72.213c-4.297,18.1-6.643,36.596-8.864,55.045c-5.034,41.823-4.485,84.189,5.655,125.274
						c8.924,36.157,25.391,70.46,46.806,100.886c21.375,30.369,47.862,57.133,79.73,76.487
						c39.009,23.691,85.453,35.49,131.033,31.353c46.424-4.213,91.756-22.783,125.006-56.004
						c37.104-37.072,56.706-90.767,52.414-143.012c-8.087-98.457-80.681-206.91-187.651-209.659
						c-47.958-1.232-92.88,22.818-117.166,64.394c-24.268,41.545-22.09,94.354,5.974,133.505
						c12.765,17.808,32.359,31.49,52.314,40.287C1125.109,1014.442,1133.431,1001.351,1123.969,996.122L1123.969,996.122z"/>
				</g>
			</g>
			<g>
				<g>
					<g>
						<path style="fill:#FFBB94;" d="M1425,2605c16.45,16.75,29.1,36.1,35,60c14.45,57.8-21.95,100.7-74.35,110.1
							c-41.85,7.5-84-13.051-105.6-49.6c-6.05-10.25-9.95-20.45-11.75-30.6c-2.15-11.65-1.5-23.3,1.7-34.9c-12.6-34.75,5-75,40-95
							l151.05-141l73.95-69l20,110C1505.95,2508.3,1462.05,2554.65,1425,2605z"/>
					</g>
					<g>
						<path style="fill:#390075;" d="M1368.459,2791.622c-40.688,0.005-79.761-21.973-101.345-58.496
							c-13.997-23.677-18.267-48.062-12.717-72.559c-11.926-39.868,7.109-84.258,46.599-107.681l223.77-208.853
							c4.006-3.745,9.746-5,14.954-3.271c5.208,1.724,9.058,6.157,10.039,11.553l20,110c0.94,5.171-0.893,10.454-4.831,13.931
							c-47.434,41.865-86.951,83.774-120.471,127.793c15.09,17.705,24.978,36.572,30.107,57.368
							c7.473,29.893,3.433,58.076-11.697,81.46c-15.869,24.531-42.361,41.221-74.587,46.997
							C1381.677,2791.046,1375.043,2791.622,1368.459,2791.622z M1525.156,2384.708l-204.922,191.26
							c-0.847,0.791-1.785,1.479-2.793,2.056c-28.899,16.514-43.23,49.561-33.338,76.87c1.057,2.92,1.182,6.104,0.357,9.097
							c-5.005,18.135-2.232,35.752,8.479,53.872c18.738,31.699,54.927,48.804,90.046,42.471
							c23.962-4.292,43.384-16.284,54.692-33.765c10.5-16.226,13.188-36.26,7.768-57.93c-4.748-19.258-14.934-36.621-31.147-53.125
							c-5.161-5.254-5.745-13.477-1.379-19.404c34.875-47.383,76.086-92.168,125.815-136.719L1525.156,2384.708z"/>
					</g>
					<g>
						<path style="fill:#390075;" d="M1280.652,2644.743c8.282,8.767,17.203,15.207,27.349,19.118
							c5.038,1.937,10.289,3.379,15.613,3.884c5.275,0.718,10.626,0.751,15.585-0.1c4.944-0.781,9.565-2.142,13.126-4.26
							c3.485-2.208,6.368-4.269,8.346-7.391c0.594-0.741,1.251-1.524,1.658-2.478c0.591-0.877,0.948-1.912,1.324-3.013
							c1.064-2.166,1.603-4.77,2.055-7.678c0.999-5.876,0.865-12.819,0.878-20.876l0.003-1.909c0.003-2.046,1.665-3.702,3.711-3.699
							c1.299,0.002,2.455,0.693,3.115,1.707c4.124,6.44,7.77,13.425,9.884,21.283c2.118,7.796,2.498,16.666-0.167,25.164
							c-2.531,8.552-8.3,16.048-15.261,21.31c-6.966,5.35-15.001,8.833-23.228,10.841c-16.503,3.89-33.958,2.363-49.904-3.969
							c-15.966-6.322-30.099-17.998-39.868-32.597c-4.528-6.766-2.713-15.921,4.053-20.448c6.07-4.062,14.063-3.02,18.912,2.123
							L1280.652,2644.743z"/>
					</g>
					<g>
						<path style="fill:#390075;" d="M1461.52,2684.659c-5.823,0.005-11.033-4.087-12.236-10.01
							c-1.267-6.23-5.127-10.747-11.804-13.813c-13.948-6.392-37.122-4.565-52.742,4.175c-6.026,3.369-13.643,1.216-17.012-4.805
							c-3.372-6.025-1.221-13.643,4.805-17.012c22.566-12.632,54.265-14.761,75.373-5.078c14.045,6.44,22.993,17.354,25.877,31.553
							c1.375,6.768-2.996,13.364-9.761,14.741C1463.183,2684.581,1462.343,2684.659,1461.52,2684.659z"/>
					</g>
					<g style="opacity:0.25;">
						<g>
							<path style="fill:#390075;" d="M1425,2605c16.45,16.75,29.1,36.1,35,60c14.45,57.8-21.95,100.7-74.35,110.1
								c-41.85,7.5-84-13.051-105.6-49.6c-6.05-10.25-9.95-20.45-11.75-30.6c1.65-5.2,3.401-10.35,5.2-15.45
								c8,20.55,21.05,39.65,39.5,51.75s42.7,16.35,63.15,8.05c18.15-7.4,31.25-23.4,42.4-39.45c8.5-12.25,16.65-27.85,10.4-41.35
								c-7.9-17-31.4-17.65-50.05-15.649c14.449-9.65,10.25-31.55,15.25-48.151c2.1-6.849,5.95-13,9.9-19
								c15-22.7,32.15-44,51.15-63.45c13.5-13.8,28.55-27.85,33.099-46.6c4.551-18.8-8.049-42.85-27.25-41.6l73.95-69l20,110
								C1505.95,2508.3,1462.05,2554.65,1425,2605z"/>
						</g>
					</g>
				</g>
				<g>
					<g>
						<g>
							<path style="fill:#FC3C53;" d="M2916.7,2303.55c-4.601,51.9-13.75,103.5-27.55,154.25
								c-6.851,25.149-14.601,49.399-23.251,72.75c-42.05,113.551-104.85,206.4-183.35,278.75c-107,98.75-243.1,159.5-395.3,183.15
								c-58.65,9.15-119.65,12.8-182.3,10.9c-19.85-0.549-39.8-1.65-59.95-3.35l-213.5-1253.95l-0.2-1.05l378.7-310
								c133.2,5,246.95,37.05,342.1,90.75c96.2,54.301,173.45,130.801,232.65,223.85c24.451,38.4,45.85,79.6,64.2,123.251
								c13.149,31.1,24.399,62.85,33.9,95c1.749,5.85,3.4,11.649,5,17.5C2916.3,2089,2926.2,2196.85,2916.7,2303.55z"/>
						</g>
						<g>
							<path style="fill:#FEFFFF;" d="M2916.7,2303.55c-17.55,13.65-37.75,21.45-59.2,21.45c-67.65,0-122.5-77.25-122.5-172.5
								s54.85-172.5,122.5-172.5c10.45,0,20.65,1.85,30.35,5.35C2916.3,2089,2926.2,2196.85,2916.7,2303.55z"/>
						</g>
						<g>
							<path style="fill:#FEFFFF;" d="M2865.9,2530.55c-42.05,113.551-104.85,206.4-183.35,278.75
								c-59.7-26.449-102.55-99-102.55-184.3c0-107.7,68.3-195,152.5-195C2789.9,2430,2839.9,2470.6,2865.9,2530.55z"/>
						</g>
						<g>
							<path style="fill:#FEFFFF;" d="M2784.75,1749.6c-5,114.301-99.2,205.4-214.75,205.4c-118.75,0-215-96.25-215-215
								c0-112.7,86.75-205.15,197.1-214.25C2648.3,1580.05,2725.55,1656.55,2784.75,1749.6z"/>
						</g>
						<g>
							<path style="fill:#390075;" d="M2136.305,3018.678c-30.469,0-61.345-1.299-92.539-3.906
								c-6.741-0.562-12.244-5.615-13.379-12.28L1816.74,1747.777c-1.018-5.337,0.967-10.803,5.171-14.246l378.699-310
								c2.795-2.29,6.309-3.499,9.946-3.342c131.265,4.927,248.628,36.101,348.828,92.654
								c95.569,53.943,175.598,130.923,237.869,228.801c24.639,38.689,46.631,80.903,65.361,125.461
								c15.552,36.873,28.853,75.347,39.531,114.331c29.116,106.064,38.979,214.888,29.321,323.428
								c-4.697,52.974-14.121,105.742-28.013,156.821c-6.924,25.425-14.883,50.322-23.652,74.009
								c-41.772,112.793-104.756,208.516-187.207,284.502c-105.916,97.754-245.298,162.383-403.069,186.904
								C2240.094,3014.811,2188.815,3018.678,2136.305,3018.678z M2057.673,2986.129c78.594,5.757,154.998,2.964,227.292-8.32
								c154.114-23.95,284.497-84.312,387.532-179.404c78.984-72.793,139.375-164.644,179.502-273.003
								c8.472-22.871,16.157-46.924,22.852-71.499c13.433-49.395,22.544-100.42,27.085-151.66v-0.005
								c9.351-105.01-0.2-210.308-28.379-312.959c-10.337-37.744-23.208-74.975-38.261-110.669
								c-18.091-43.037-39.302-83.76-63.047-121.047c-59.639-93.733-136.152-167.38-227.434-218.904
								c-94.624-53.406-205.559-83.21-329.785-88.618l-367.654,300.957L2057.673,2986.129z"/>
						</g>
						<g>
							<path style="fill:#390075;" d="M2136.305,3016.358c-30.403,0-61.221-1.299-92.346-3.901
								c-5.684-0.474-10.325-4.736-11.282-10.356l-213.499-1253.953c-0.73-4.285,0.82-8.643,4.092-11.504
								c85.354-74.673,184.502-114.143,286.729-114.143c290.867,0,527.502,319.624,527.502,712.5
								c0,297.217-138.516,565.923-344.677,668.638c-1.148,0.576-2.378,0.967-3.648,1.162
								C2239.855,3012.501,2188.7,3016.358,2136.305,3016.358z M2287.25,2992.452h0.049H2287.25z M2055.688,2988.307
								c78.706,5.898,155.254,3.242,227.712-7.905c196.919-99.243,329.102-358.286,329.102-645.4
								c0-379.087-225.422-687.5-502.502-687.5c-93.994,0-185.481,35.73-264.993,103.406L2055.688,2988.307z"/>
						</g>
						<g style="opacity:0.25;">
							<g>
								<path style="fill:#390075;" d="M2916.7,2303.55c-4.601,51.9-13.75,103.5-27.55,154.25
									c-6.851,25.149-14.601,49.399-23.251,72.75c-42.05,113.551-104.85,206.4-183.35,278.75c-107,98.75-243.1,159.5-395.3,183.15
									c-58.65,9.15-119.65,12.8-182.3,10.9c116.45-48.149,233.05-103.6,313.8-199.299c54.05-64.1,89-144.1,99.2-227.351l22.2-7.15
									c54.85,32.7,127.5,25.25,182.2-7.65c54.7-32.95,93.25-87.75,119.2-146.1c61.799-138.8,58.25-295.449,41.3-447.949
									c1.749,5.85,3.4,11.649,5,17.5C2916.3,2089,2926.2,2196.85,2916.7,2303.55z"/>
							</g>
						</g>
					</g>
					<g>
						<g>
							<path style="fill:#FFBB94;" d="M2565,2342.5c0,363.15-231.7,657.5-517.5,657.5c-154.95,0-294.05-86.55-388.8-223.65
								c-78.6-113.55-126.8-261.75-128.6-424.25c-0.1-3.199-0.1-6.399-0.1-9.6c0-363.15,231.7-657.5,517.5-657.5
								S2565,1979.35,2565,2342.5z"/>
						</g>
						<g>
							<path style="fill:#390075;" d="M1600.822,2451.191c73.605,10.136,147.197,15.966,220.99,17.349l27.656,0.575
								c9.216,0.194,18.453-0.118,27.674-0.152l27.667-0.055c9.223-0.106,18.45-0.493,27.673-0.725l27.67-0.804l27.666-1.315
								l27.669-1.301l27.646-1.958l27.646-2l27.619-2.496l27.632-2.437c9.209-0.837,18.393-1.978,27.592-2.952
								c18.395-2.005,36.79-4.014,55.159-6.37c18.372-2.304,36.783-4.367,55.106-7.131c73.463-9.883,146.704-21.928,220.085-34.125
								c2.626-0.441,5.113,1.331,5.553,3.957c0.413,2.459-1.143,4.803-3.495,5.453c-71.965,19.482-144.887,35.471-218.391,48.629
								c-18.35,3.441-36.824,6.184-55.264,9.167c-18.416,3.155-36.965,5.435-55.495,7.868c-9.271,1.177-18.52,2.519-27.81,3.559
								l-27.884,3.045c-9.296,1.015-18.59,2.057-27.906,2.87l-27.983,2.181l-27.989,2.135l-28.047,1.476
								c-9.352,0.443-18.694,1.093-28.054,1.364l-28.102,0.46c-9.368,0.116-18.729,0.386-28.099,0.374l-28.117-0.422
								c-9.371-0.287-18.738-0.297-28.104-0.814l-28.088-1.55c-74.786-4.846-149.566-15.421-221.517-36.237
								c-2.072-0.6-3.266-2.765-2.667-4.837c0.546-1.889,2.393-3.047,4.284-2.785L1600.822,2451.191z"/>
						</g>
						<g style="opacity:0.25;">
							<g>
								<path style="fill:#390075;" d="M2565,2342.5c0,363.15-231.7,657.5-517.5,657.5c-154.95,0-294.05-86.55-388.8-223.65
									c52,50,113.6,89.3,182.15,112.45c160.5,54.15,355.95,7.4,458.65-127.3c66.5-87.15,90.35-205.25,62.95-311.4
									c-27.4-106.1-105.45-197.9-205.8-242c-116.151-51-250.05-38.05-374-11.101c-99.65,21.65-210.551,63.4-245.3,159.25
									l-7.25-4.15c-0.1-3.199-0.1-6.399-0.1-9.6c0-363.15,231.7-657.5,517.5-657.5S2565,1979.35,2565,2342.5z"/>
							</g>
						</g>
						<g>
							<path style="fill:#390075;" d="M1731.241,2780.862c54.64,12.728,109.839,21.469,165.432,25.833
								c55.556,4.683,111.399,5.013,167.112,2.274c27.856-1.518,55.66-3.984,83.413-7.07c13.836-1.857,27.736-3.33,41.536-5.497
								c13.787-2.234,27.652-4.11,41.402-6.637c55.103-9.657,109.664-22.651,163.721-38.116c1.881-0.541,3.845,0.544,4.386,2.426
								c0.507,1.763-0.435,3.607-2.101,4.276c-52.592,20.815-107.103,36.944-162.509,49.103c-13.842,3.092-27.82,5.532-41.738,8.33
								c-13.942,2.669-28.039,4.411-42.06,6.661c-7.007,1.167-14.069,1.916-21.124,2.733l-21.17,2.427
								c-7.053,0.865-14.139,1.375-21.229,1.859l-21.261,1.541c-56.727,3.7-113.85,2.446-170.399-3.917
								c-56.472-6.707-112.544-18.514-165.895-37.95c-2.245-0.818-3.403-3.302-2.585-5.547
								C1726.931,2781.51,1729.138,2780.369,1731.241,2780.862z"/>
						</g>
					</g>
					<g>
						<path style="fill:#390075;" d="M2047.499,3014.825c-293.523,0-532.322-301.606-532.322-672.324
							s238.799-672.322,532.322-672.322s532.322,301.604,532.322,672.322S2341.022,3014.825,2047.499,3014.825z M2047.499,1699.823
							c-277.178,0-502.678,288.303-502.678,642.678s225.501,642.676,502.678,642.676s502.678-288.301,502.678-642.676
							S2324.677,1699.823,2047.499,1699.823z"/>
					</g>
					<g>
						<g>
							<g>
								<g>
									<path style="fill:#FFBB94;" d="M2108.946,2260h-564.217C1326.726,2260,1150,2083.274,1150,1865.271v-0.001
										c0-350.85,284.42-635.27,635.27-635.27h165.785c328.027,0,593.945,265.918,593.945,593.945v0.001
										C2545,2064.772,2349.772,2260,2108.946,2260z"/>
								</g>
								<g style="opacity:0.6;">
									<path style="fill:#FFFFFF;" d="M1951.055,1230H1785.27c-350.85,0-635.27,284.42-635.27,635.27v0.001
										c0,61.197,13.933,119.138,38.79,170.833c-15.386-42.146-23.79-87.653-23.79-135.125v-1.848
										c0-261.819,158.683-486.555,385.11-583.34c-0.726,2.675-0.894,5.304-0.382,7.854c4.89,24.368,66.603,32.534,137.841,18.241
										s125.024-45.634,120.135-70c-0.494-2.467-1.599-4.758-3.209-6.886h157.626c263.291,0,486.456,171.644,563.806,409.124
										C2459.527,1418.632,2227.327,1230,1951.055,1230z"/>
								</g>
								<g style="opacity:0.25;">
									<path style="fill:#390075;" d="M2427.92,1469.835c45.915,83.06,72.08,178.559,72.08,280.181v9.155
										C2500,1994.35,2309.35,2185,2074.171,2185h-538.699c-203.404,0-369.893-157.577-384.337-357.297
										c-0.725,12.433-1.135,24.952-1.135,37.567v0.001c0,218.003,176.726,394.729,394.729,394.729h564.217
										c240.826,0,436.054-195.228,436.054-436.055v-0.001C2545,1691.242,2501.467,1568.714,2427.92,1469.835z"/>
								</g>
								<g>
									<path style="fill:#390075;" d="M2108.945,2275.001h-564.216c-225.925,0-409.729-183.804-409.729-409.729
										c0-358.56,291.712-650.271,650.271-650.271h165.784c335.774,0,608.945,273.171,608.945,608.943
										C2559.999,2072.657,2357.658,2275.001,2108.945,2275.001z M1785.27,1245.001c-342.019,0-620.271,278.252-620.271,620.269
										c0,209.385,170.347,379.731,379.729,379.731h564.216c232.17,0,421.055-188.887,421.055-421.055
										c0-319.231-259.714-578.945-578.945-578.945H1785.27z"/>
								</g>
								<g>
									<ellipse style="fill:#FFFFFF;" cx="2137.5" cy="1632.5" rx="252.5" ry="282.5"/>
								</g>
								<g>
									<path style="fill:#390075;" d="M2143.749,1927.501c-142.676,0-258.75-132.336-258.75-295s116.074-295,258.75-295
										s258.75,132.336,258.75,295S2286.425,1927.501,2143.749,1927.501z M2143.749,1362.501
										c-128.889,0-233.75,121.121-233.75,270s104.861,270,233.75,270s233.75-121.121,233.75-270
										S2272.638,1362.501,2143.749,1362.501z"/>
								</g>
								<g>
									<ellipse style="fill:#390075;" cx="2112.5" cy="1630" rx="167.5" ry="195"/>
								</g>
								<g>
									<ellipse style="fill:#FFFFFF;" cx="2067.5" cy="1605" rx="62.5" ry="80"/>
								</g>
								<g>
									
										<ellipse transform="matrix(0.07 -0.9975 0.9975 0.07 -344.1848 2900.2358)" style="fill:#FFFFFF;" cx="1383.332" cy="1634.708" rx="255.599" ry="215.807"/>
								</g>
								<g>
									<path style="fill:#390075;" d="M1380.893,1903.177c-4.429,0-8.867-0.154-13.337-0.469
										c-60.481-4.243-115.212-36.484-154.116-90.789c-38.386-53.584-56.77-122.393-51.763-193.75
										c10.398-148.203,119.724-261.699,243.594-253.005c60.481,4.243,115.212,36.484,154.116,90.789
										c38.386,53.584,56.77,122.393,51.763,193.75C1601.127,1792.56,1499.218,1903.177,1380.893,1903.177z M1391.899,1389.693
										c-105.317,0-196.184,100.518-205.286,230.225c-4.6,65.564,12.146,128.582,47.148,177.441
										c34.49,48.142,82.625,76.699,135.542,80.413c3.887,0.271,7.771,0.405,11.624,0.408
										c105.317,0.007,196.184-100.518,205.286-230.225c4.6-65.564-12.146-128.581-47.148-177.441
										c-34.49-48.142-82.625-76.699-135.542-80.413C1399.636,1389.83,1395.751,1389.693,1391.899,1389.693z"/>
								</g>
								<g>
									<ellipse style="fill:#390075;" cx="1415.47" cy="1630" rx="147.599" ry="195"/>
								</g>
								<g>
									<ellipse style="fill:#FFFFFF;" cx="1455.124" cy="1605" rx="55.074" ry="80"/>
								</g>
								<g>
									<g>
										<path style="fill:#390075;" d="M1612.909,1913.043c19.32,14.081,41.104,21.89,63.053,24.323
											c21.932,2.515,44.038-0.28,64.136-7.399c20.1-7.2,37.974-19.201,51.141-34.888c13.243-15.709,21.154-35.14,24.594-56.202
											l0.028-0.17c1.115-6.827,7.552-11.457,14.379-10.342c6.241,1.019,10.645,6.49,10.502,12.637
											c-0.569,25.776-10.161,52.312-27.431,72.588c-17.07,20.483-40.771,34.325-65.527,41.044
											c-24.813,6.856-51.169,6.69-75.338-0.273C1648.375,1947.416,1626.317,1932.974,1612.909,1913.043z"/>
									</g>
									<g>
										<path style="fill:#390075;" d="M1785.693,1837.302c5.511-7.076,13.456-10.805,21.83-12.39
											c8.409-1.483,17.671-0.292,25.829,3.697c8.103,3.952,15.176,10.447,18.924,18.29c2.238,3.721,3.087,8.04,3.958,12.097
											c0.38,2.056,0.296,4.243,0.208,6.38c-0.109,2.141-0.295,4.248-0.821,6.398c-4.103-2.218-7.029-4.609-10.052-6.678
											c-3.216-1.871-5.555-4.15-8.399-5.618c-5.076-3.616-9.941-5.915-14.673-8.358c-4.788-2.361-9.877-4.527-15.872-6.639
											L1785.693,1837.302z"/>
									</g>
								</g>
							</g>
							<g>
								<g>
									<g>
										<path style="fill:#AD5833;" d="M2377.15,3338.95c-69.9,10.5-187.999,16.15-234-6.4c-12.8-6.25-18.3-21.45-12.6-34.55
											c1.7-3.95,3.651-7.65,5.8-11.2c26.5-42.85,86.55-55.199,153.65-46.8c-34-53.95-64.55-105.45-86-150.3
											c-13.5-28.199-15.15-60.599-4.7-90.1c15.85-44.75,36.051-87.05,60.75-127c5.05-8.25,10.3-16.35,15.75-24.4
											c8.151-12,23.95-16.9,36.801-10.3c2.15,1.1,4.15,2.45,6.05,4c12.75,10.55,15.5,29.1,7.85,43.75
											c-23.6,45.4-41.851,96.55-56.75,151.3c-3.099,11.349-1.2,23.5,5.15,33.35c58.6,91.05,107.55,176.399,121.5,240.85
											C2399.25,3324.25,2390.4,3336.95,2377.15,3338.95z"/>
									</g>
									<g>
										<path style="fill:#390075;" d="M2252.98,3363.16c-46.467,0-90.703-4.502-116.445-17.124
											c-19.966-9.78-28.647-33.496-19.763-53.989c20.461-47.178,72.422-71.675,144.751-69.365
											c-31.917-51.733-54.724-92.378-71.04-126.494c-15.288-31.963-17.178-68.042-5.32-101.587
											c19.412-54.897,45.735-106.997,78.24-154.844c12.632-18.604,36.738-25.132,56.074-15.181
											c3.086,1.592,6.016,3.525,8.721,5.762c17.834,14.727,22.72,40.903,11.624,62.241
											c-21.536,41.431-39.719,89.937-55.586,148.291c-1.97,7.246-0.771,15.024,3.291,21.338
											c52.419,81.484,108.088,174.409,123.538,245.762c2.222,10.254,0.078,21.089-5.881,29.722
											c-5.974,8.657-15.371,14.517-25.784,16.084C2345.031,3358.937,2297.961,3363.16,2252.98,3363.16z M2252.66,3252.633
											c-39.302,0-89.963,8.911-108.364,51.348c-2.498,5.757-0.105,12.402,5.442,15.117c41.836,20.518,156.875,15.273,225.2,5.01
											c3.074-0.464,4.8-2.363,5.552-3.457c0.747-1.079,1.902-3.34,1.252-6.333c-14.519-67.061-71.46-161.284-119.446-235.879
											c-8.652-13.442-11.208-30.005-7.012-45.439c16.438-60.449,35.383-110.903,57.92-154.258
											c4.612-8.872,2.886-19.497-4.104-25.269c-1.052-0.869-2.185-1.621-3.357-2.227c-5.767-2.964-13.467-0.615-17.527,5.366
											l0,0c-31.06,45.723-56.216,95.513-74.768,147.988c-9.187,25.981-7.732,53.916,4.099,78.643
											c18.374,38.428,45.43,85.698,85.144,148.765c3.088,4.907,3.076,11.152-0.037,16.045s-8.772,7.554-14.517,6.831
											C2279.015,3253.746,2266.542,3252.633,2252.66,3252.633z M2275.81,2848.185h0.049H2275.81z"/>
									</g>
									<g style="opacity:0.25;">
										<g>
											<path style="fill:#390075;" d="M2377.15,3338.95c-69.9,10.5-187.999,16.15-234-6.4c-12.8-6.25-18.3-21.45-12.6-34.55
												c1.7-3.95,3.651-7.65,5.8-11.2c5.1,5.95,11,11.15,17.8,15.15c10.35,6.1,22.2,9.3,34.05,11.449
												c42.85,7.9,87.9,3.45,128.4-12.65c7.55-2.949,15.15-6.5,20.499-12.549c15-16.9,6.35-43.15-3.049-63.701
												c-21.05-46.05-42.35-92.45-72.1-133.45c-6.55-9.05-13.651-18-17.6-28.45c-10.45-27.75,2.95-58.101,14.85-85.2
												c8.049-18.3,15.549-36.85,22.4-55.6c3.149-8.55,6.2-17.55,4.7-26.5c-1.95-11.75-12.45-21.5-24.25-22.6
												c-0.649-0.05-1.3-0.1-2-0.1c5.05-8.25,10.3-16.35,15.75-24.4c8.151-12,23.95-16.9,36.801-10.3c2.15,1.1,4.15,2.45,6.05,4
												c12.75,10.55,15.5,29.1,7.85,43.75c-23.6,45.4-41.851,96.55-56.75,151.3c-3.099,11.349-1.2,23.5,5.15,33.35
												c58.6,91.05,107.55,176.399,121.5,240.85C2399.25,3324.25,2390.4,3336.95,2377.15,3338.95z"/>
										</g>
									</g>
								</g>
								<g>
									<g>
										<path style="fill:#AD5833;" d="M1810.809,2843.184c-31.927,46.995-57.428,97.468-76.503,151.419
											c-10.435,29.514-8.796,61.876,4.709,90.117c21.447,44.846,52.002,96.317,85.984,150.28
											c-72.617-9.077-136.957,6.104-159.467,58.014c-5.674,13.084-0.2,28.279,12.606,34.556
											c45.996,22.548,164.12,16.876,234.029,6.371c13.243-1.99,22.069-14.711,19.235-27.8
											c-13.953-64.445-62.921-149.768-121.493-240.818c-6.367-9.898-8.239-22.033-5.15-33.39
											c14.885-54.739,33.148-105.864,56.754-151.272c7.626-14.67,4.885-33.228-7.862-43.757c-1.9-1.569-3.913-2.896-6.036-3.988
											C1834.736,2826.292,1818.948,2831.204,1810.809,2843.184z"/>
									</g>
									<g>
										<path style="fill:#390075;" d="M1787.98,3358.16c-46.467,0-90.703-4.502-116.445-17.124
											c-19.966-9.78-28.648-33.496-19.763-53.989c20.461-47.178,72.424-71.66,144.751-69.365
											c-31.917-51.733-54.724-92.378-71.04-126.494c-15.288-31.963-17.178-68.042-5.32-101.587
											c19.412-54.897,45.735-106.997,78.24-154.844c12.632-18.604,36.738-25.127,56.074-15.181
											c3.086,1.592,6.016,3.525,8.721,5.762c17.834,14.727,22.72,40.903,11.623,62.241
											c-21.536,41.431-39.719,89.937-55.586,148.291c-1.97,7.246-0.771,15.024,3.291,21.338
											c52.419,81.484,108.088,174.409,123.538,245.762c2.222,10.254,0.078,21.089-5.881,29.722
											c-5.974,8.657-15.371,14.517-25.784,16.084C1880.031,3353.937,1832.961,3358.16,1787.98,3358.16z M1787.661,3247.633
											c-39.302,0-89.963,8.911-108.364,51.348c-2.497,5.757-0.105,12.402,5.442,15.117c41.836,20.518,156.873,15.278,225.2,5.01
											c3.074-0.464,4.8-2.363,5.552-3.457c0.747-1.079,1.902-3.34,1.252-6.333c-14.519-67.061-71.46-161.284-119.446-235.879
											c-8.652-13.442-11.208-30.005-7.012-45.439c16.438-60.449,35.383-110.903,57.92-154.258
											c4.612-8.872,2.886-19.497-4.104-25.269c-1.052-0.869-2.185-1.621-3.357-2.227c-5.767-2.964-13.469-0.61-17.527,5.366l0,0
											c-31.06,45.723-56.216,95.513-74.768,147.988c-9.187,25.981-7.732,53.916,4.099,78.643
											c18.374,38.428,45.43,85.698,85.144,148.765c3.088,4.907,3.076,11.152-0.037,16.045s-8.767,7.549-14.517,6.831
											C1814.016,3248.746,1801.542,3247.633,1787.661,3247.633z M1810.81,2843.185h0.049H1810.81z"/>
									</g>
									<g style="opacity:0.25;">
										<g>
											<path style="fill:#390075;" d="M1912.15,3333.95c-69.9,10.5-187.999,16.15-234-6.4c-12.8-6.25-18.3-21.45-12.6-34.55
												c1.7-3.95,3.651-7.65,5.8-11.2c5.1,5.95,11,11.15,17.8,15.15c10.35,6.1,22.2,9.3,34.05,11.449
												c42.85,7.9,87.9,3.45,128.4-12.65c7.55-2.949,15.15-6.5,20.499-12.549c15-16.9,6.35-43.15-3.049-63.701
												c-21.05-46.05-42.35-92.45-72.1-133.45c-6.55-9.05-13.651-18-17.6-28.45c-10.45-27.75,2.95-58.101,14.85-85.2
												c8.049-18.3,15.549-36.85,22.4-55.6c3.149-8.55,6.2-17.55,4.7-26.5c-1.95-11.75-12.45-21.5-24.25-22.6
												c-0.649-0.05-1.299-0.1-2-0.1c5.05-8.25,10.3-16.35,15.75-24.4c8.151-12,23.95-16.9,36.801-10.3
												c2.15,1.1,4.15,2.45,6.05,4c12.75,10.55,15.5,29.1,7.85,43.75c-23.6,45.4-41.851,96.55-56.75,151.3
												c-3.099,11.349-1.2,23.5,5.15,33.35c58.6,91.05,107.55,176.399,121.5,240.85
												C1934.25,3319.25,1925.4,3331.95,1912.15,3333.95z"/>
										</g>
									</g>
								</g>
								<g>
									<g>
										<path style="fill:#FFBB94;" d="M2740.5,2683.8c-23.4,32.35-49.6,57.15-79.65,71.65c-15.8,7.6-33.149,11.85-50.649,12.301
											c-17.6,0.45-31.95-2.65-42.85-8.101c-19.1-9.55-27.8-26.3-25.649-43.5c0-0.05,0-0.15,0.05-0.2
											c0.85-7.05,3.6-14.2,8.25-20.95c-25-5-45-45-35-70c7.55-20.75,24.85-36.2,45-50c-51.95-103.95-126.55-196.65-210-285
											c0.7-2,1.4-3.9,2.15-5.75c12.4-29.85,35.4-40.5,67.85-34.25c9.45,7.8,19.05,16.05,28.7,24.85
											c77.8,70.4,161.85,171.55,248.95,287.85c14.05,18.7,28.149,37.85,42.35,57.3c6,6.85,9.3,14.65,10.7,23.05
											C2753.1,2657.35,2749,2672.05,2740.5,2683.8z"/>
									</g>
									<g>
										<path style="fill:#390075;" d="M2353.298,2286.885c11.02,9.994,21.872,20.183,32.405,30.692l15.752,15.832
											c5.185,5.345,10.215,10.834,15.334,16.248c20.38,21.752,39.739,44.496,58.376,67.889
											c9.299,11.714,18.405,23.599,27.312,35.658l12.983,18.369l12.592,18.669c16.566,25.062,31.784,51.107,45.36,78.041
											l0.005,0.01c3.47,6.682,1.322,14.796-4.737,18.945l-0.196,0.133c-10.094,6.928-19.44,14.298-26.792,22.508
											c-3.694,4.091-6.78,8.41-9.23,12.9c-1.269,2.24-2.236,4.487-3.242,7.061c-0.74,2.145-1.289,3.813-1.536,5.898
											c-1.051,8.219,1.427,18.97,6.55,27.641c4.821,8.728,12.78,15.977,18.693,16.906l0.015,0.006l2.168,0.834
											c7.799,2.998,11.691,11.751,8.693,19.55c-0.373,0.97-0.882,1.948-1.42,2.792c-5.824,8.998-7.719,19.039-3.851,27.196
											c1.838,4.082,4.683,7.927,8.719,11.104c0.987,0.805,2.195,1.439,3.259,2.198l1.646,1.108l1.884,0.883l3.754,1.81
											l4.121,1.384c11.03,3.625,24.38,4.258,37.069,2.889c12.758-1.445,25.245-5.09,36.801-10.894
											c23.659-11.682,44.326-30.229,61.937-51.687c2.232-2.659,4.361-5.426,6.515-8.169l3.151-4.195l1.516-2.044l1.175-1.704
											c3.031-4.614,5.184-9.777,6.228-15.028c2.111-10.458-0.359-21.591-6.932-29.03c-0.272-0.309-0.54-0.646-0.777-0.973
											c-23.854-33.061-48.038-65.859-72.43-98.473c-24.464-32.559-49.396-64.743-75.074-96.28
											c-25.685-31.525-52.106-62.421-79.729-92.124c-27.789-29.614-56.287-58.071-83.875-88.38l-0.028-0.031
											c-1.485-1.631-1.366-4.157,0.265-5.642c1.348-1.228,3.311-1.356,4.789-0.443c35.342,21.857,65.634,50.369,94.165,79.942
											c28.672,29.542,56.053,60.216,82.659,91.485c53.104,62.634,103.52,127.347,152.066,193.315l-0.776-0.971
											c6.315,7.083,10.964,16.12,13.134,25.218c2.248,9.01,2.487,18.75,0.756,27.793c-1.702,9.098-5.211,17.688-10.1,25.34
											l-1.9,2.827l-1.719,2.376l-3.376,4.603c-2.319,3.03-4.614,6.074-7.04,9.04c-19.138,23.718-42.352,45.821-71.24,60.171
											c-14.542,7.324-30.51,12.059-46.772,13.918c-16.262,1.703-32.793,1.255-49.647-4.044l-6.251-2.14
											c-2.061-0.874-4.1-1.909-6.139-2.883l-3.048-1.501l-2.944-1.878c-1.938-1.311-3.931-2.488-5.783-3.966
											c-7.47-5.842-13.931-13.779-17.894-23.071c-3.974-9.257-5.35-19.841-3.672-29.584c1.553-9.786,5.515-18.685,10.623-26.398
											l9.44,23.175l-0.05-0.013c-9.848-2.02-17.724-7.036-23.9-12.608c-6.213-5.645-11.028-12.055-14.94-18.855
											c-3.91-6.807-6.863-14.063-8.686-21.825c-1.822-7.74-2.663-15.995-1.525-24.711c0.405-2.183,0.609-4.399,1.283-6.535
											c0.64-2.073,1.334-4.43,2.036-6.239c1.332-3.43,2.943-7.115,4.842-10.494c3.724-6.833,8.249-13.036,13.19-18.522
											c9.903-11.018,21.08-19.605,32.208-27.275l-4.933,19.077l-0.005-0.01c-12.914-26.029-27.118-51.46-42.269-76.398
											l-11.618-18.561l-12.031-18.326c-8.083-12.191-16.388-24.253-24.909-36.183c-17.081-23.837-35.145-47.021-53.398-70.14
											l-55.65-68.972c-1.58-1.954-1.276-4.819,0.679-6.399C2349.149,2285.288,2351.665,2285.403,2353.298,2286.885z"/>
									</g>
									<g>
										<path style="fill:#390075;" d="M2541.561,2680.994c5.62,0.107,10.928,0.889,15.919,1.354
											c2.485,0.252,4.87,0.482,7.104,0.592l1.635,0.069l2.281,0.024c2.217-0.008,4.434,0.3,6.583,0.8
											c8.65,2.089,15.677,8.641,18.123,16.656c1.188,4.004,1.258,8.315,0.004,12.058c-1.218,3.745-3.647,6.788-6.343,8.572
											c-1.112,0.735-2.609,0.431-3.345-0.681c-0.31-0.467-0.435-1.004-0.393-1.523l0.002-0.033
											c0.486-6.05-1.434-9.441-3.939-11.601c-2.471-2.154-5.444-3.093-7.919-2.994c-0.635,0.074-1.232,0.075-1.836,0.258
											l-0.624,0.084l-1.319,0.157l-2.593,0.223c-3.407,0.171-6.662,0.057-9.786-0.283c-6.229-0.743-12.025-2.028-17.468-4.118
											c-5.231-2.009-7.843-7.877-5.834-13.108c1.571-4.091,5.503-6.581,9.645-6.51L2541.561,2680.994z"/>
									</g>
									<g style="opacity:0.25;">
										<g>
											<path style="fill:#390075;" d="M2740.5,2683.8c-23.4,32.35-49.6,57.15-79.65,71.65c-15.8,7.6-33.149,11.85-50.649,12.301
												c-17.6,0.45-31.95-2.65-42.85-8.101c-10.9-12.75-19.55-27.95-25.649-43.5c-0.05-0.15-0.1-0.25-0.15-0.4
												c0.05,0.05,0.15,0.15,0.2,0.2c21.1,21.901,55.65,27.3,84.75,18.45c29.2-8.95,53.25-30.35,71.25-55
												c11.25-15.4,20.75-33.35,20.3-52.4c-0.55-21.25-13.15-40-25.3-57.45l4.9-6.849c14.05,18.7,28.149,37.85,42.35,57.3
												c6,6.85,9.3,14.65,10.7,23.05C2753.1,2657.35,2749,2672.05,2740.5,2683.8z"/>
										</g>
									</g>
									<g style="opacity:0.25;">
										<g>
											<path style="fill:#390075;" d="M2519.61,2619.584c-4.409,18.754,7.797,39.878,26.247,45.424
												c8.604,2.586,17.797,2.072,26.703,3.255s18.352,4.708,22.741,12.547c5.936,10.6,0.247,23.695-5.417,34.442
												c0.312-10.318-6.801-20.424-16.619-23.612c-7.491-2.432-15.64-1.069-23.466-1.954
												c-22.304-2.524-39.745-26.321-35.435-48.349"/>
										</g>
									</g>
								</g>
							</g>
						</g>
						<g style="opacity:0.25;">
							<g>
								<path style="fill:#390075;" d="M2454.05,2407.7c-24.7-39.401-56.55-73.75-89-107c-4-4.1-8.05-8.25-11.1-13.15
									c-0.651-1.05-1.25-2.15-1.801-3.3c12.4-29.85,35.4-40.5,67.85-34.25c9.45,7.8,19.05,16.05,28.7,24.85l-2.05,2.4
									c-11.7-5.4-25.9,4.45-29.7,16.801c-3.8,12.3-0.2,25.549,3.899,37.8C2429.65,2358.05,2440.75,2383.45,2454.05,2407.7z"/>
							</g>
						</g>
					</g>
				</g>
			</g>
		</g>
	</g>
</g>
</svg>
