<?xml version="1.0" encoding="utf-8"?>
<!-- Generator: Adobe Illustrator 27.5.0, SVG Export Plug-In . SVG Version: 6.00 Build 0)  -->
<svg version="1.1" id="Layer_1" xmlns="http://www.w3.org/2000/svg" xmlns:xlink="http://www.w3.org/1999/xlink" x="0px" y="0px"
	 viewBox="0 0 4000 4000" style="enable-background:new 0 0 4000 4000;" xml:space="preserve">
<g>
	<g>
		<g>
			<g>
				<!-- <rect style="fill:#BCFA7B;" width="4000" height="4000"/> -->
			</g>
		</g>
	</g>
	<g style="opacity:0.3;">
		<g>
			<g>
				<ellipse style="fill:#68174A;" cx="2000" cy="3590.617" rx="858.332" ry="85.831"/>
			</g>
		</g>
	</g>
	<g>
		<g>
			<g>
				<path style="fill:#18C653;" d="M1105.187,2659.397l77.497,204.675c76.159,201.143,373.07,284.489,721.39,225.535
					c94.331-15.942,192.459-42.326,290.96-79.621c462.256-175.025,758.59-524.169,661.799-779.801l-77.497-204.675
					c-15.973-42.186-41.645-79.213-75.466-110.788c-171.202-159.865-550.88-181.279-936.845-35.14
					C1304.73,2054.621,1008.397,2403.766,1105.187,2659.397z"/>
			</g>
		</g>
	</g>
	<g style="opacity:0.6;">
		<g>
			<g>
				<path style="fill:#FFFFFF;" d="M2380.275,1787.257c-0.246,1.068-0.532,2.151-0.762,3.26c17.402,0.839,34.489,2.075,51.237,3.765
					C2414.328,1791.494,2397.471,1789.149,2380.275,1787.257z"/>
			</g>
		</g>
	</g>
	<g style="opacity:0.6;">
		<g>
			<g>
				<path style="fill:#FFFFFF;" d="M1105.187,2659.397l77.497,204.675c51.701,136.546,205.121,218.792,407.271,239.09
					c-172.916-29.278-302.021-108.244-348.587-231.227l-77.497-204.676c-29.255-77.266-22.592-163.025,13.702-249.977l75.913-208.4
					C1114.392,2358.432,1053.302,2522.365,1105.187,2659.397z"/>
			</g>
		</g>
	</g>
	<g>
		<g>
			<g>
				<path style="fill:#68174A;" d="M1692.903,3128.252c-49.722,0-97.881-3.281-143.965-9.927
					c-198.74-28.643-335.454-116.426-384.961-247.173l-77.495-204.673c-49.502-130.747-5.215-287.061,124.717-440.151
					c127.158-149.824,322.036-279.609,548.735-365.449c226.709-85.83,458.672-117.651,653.164-89.629
					c198.736,28.643,335.449,116.426,384.956,247.173l77.5,204.678c49.502,130.747,5.21,287.061-124.717,440.151
					c-127.163,149.824-322.036,279.609-548.736,365.444C2029.119,3094.194,1853.04,3128.247,1692.903,3128.252z M2268.924,1801.303
					c-155.21,0-326.299,33.174-494.829,96.987c-220.474,83.477-409.551,209.17-532.402,353.921
					c-120.083,141.489-161.919,283.584-117.798,400.107l0,0l77.495,204.673c44.116,116.519,169.575,195.269,353.257,221.743
					c187.891,27.085,412.822-3.97,633.296-87.451c220.469-83.477,409.546-209.165,532.397-353.916
					c120.083-141.494,161.924-283.584,117.803-400.107l-77.5-204.678c-44.116-116.518-169.57-195.268-353.252-221.743
					C2363.118,1804.458,2316.76,1801.303,2268.924,1801.303z"/>
			</g>
		</g>
	</g>
	<g style="opacity:0.3;">
		<g>
			<g>
				<path style="fill:#68174A;" d="M1853.025,2954.784l51.049,134.823c94.331-15.942,192.459-42.326,290.96-79.621
					c462.256-175.025,758.59-524.169,661.799-779.801l-77.497-204.675c-15.973-42.186-41.645-79.213-75.466-110.788l-0.081,0.031
					c257.124,275.305-115.286,786.142-807.406,956.894C1859.944,2880.635,1839.735,2919.683,1853.025,2954.784z"/>
			</g>
		</g>
	</g>
	<g style="opacity:0.25;">
		<g>
			<g>
				<path style="fill:#FFFFFF;" d="M1472.232,2873.289c23.198,6.947,45.54,10.369,66.965,10.013
					c8.502-0.141,16.246,4.837,19.257,12.79l43.64,115.256c4.858,12.83-4.48,26.61-18.196,26.862
					c-30.167,0.552-58.849-2.799-83.765-16.047c-4.299-2.286-7.647-6.041-9.371-10.595l-42.479-112.189
					C1442.515,2884.145,1456.628,2868.616,1472.232,2873.289z"/>
			</g>
		</g>
	</g>
	<g>
		<g>
			<g>
				<path style="fill:#9CE556;" d="M1563.468,2606.376c-10.09-3.849-8.558-14.03,4.084-22.816l291.804-202.793
					c13.218-9.186,31.596-12.375,41.285-8.679c3.083,1.176,5.286,3.049,6.165,5.647l61.277,180.421
					c2.851,8.459-10.31,20.392-27.945,25.296c-135.132,37.648-270.612,47.808-374.013,23.725
					C1565.165,2606.954,1564.278,2606.685,1563.468,2606.376 M1481.276,2575.025c-0.81-0.309-1.564-0.666-2.257-1.074
					c-74.899-43.925-95.451-113.601-64.86-191.125c3.975-10.114,22.282-20.085,38.861-21.132l353.051-22.383
					c5.09-0.321,9.219,0.22,12.306,1.398c9.704,3.701,9.132,13.681-4.087,22.868l-291.804,202.793
					C1509.844,2575.156,1491.344,2578.865,1481.276,2575.025 M2044.45,2539.36c-3.137-1.197-5.355-3.087-6.23-5.64l-61.27-180.459
					c-3.67-10.777,18.13-25.927,39.224-27.259l353.151-22.386c4.998-0.313,9.158,0.229,12.294,1.426
					c7.224,2.756,9.03,8.981,3.203,16.238c-31.446,39.277-74.731,78.992-129.477,117.04
					c-54.785,38.073-115.971,70.961-179.79,97.889C2063.77,2541.191,2051.674,2542.115,2044.45,2539.36 M1465.684,2318.6
					c-7.223-2.755-9.045-8.987-3.216-16.244c31.445-39.276,74.762-78.98,129.546-117.054
					c54.747-38.047,115.902-70.946,179.721-97.875c11.785-4.984,23.896-5.902,31.119-3.147c3.137,1.196,5.351,3.085,6.216,5.635
					l61.302,180.472c3.638,10.766-18.162,25.916-39.224,27.259l-353.182,22.375C1472.976,2320.336,1468.82,2319.796,1465.684,2318.6
					 M2028.93,2282.932c-9.691-3.697-9.119-13.676,4.101-22.863l291.804-202.792c12.642-8.786,31.115-12.506,41.204-8.657
					c0.811,0.309,1.567,0.667,2.263,1.076c74.868,43.914,95.49,113.575,64.86,191.125c-3.975,10.114-22.314,20.073-38.824,21.106
					l-353.119,22.397C2036.136,2284.648,2032.013,2284.108,2028.93,2282.932 M1946.666,2251.554
					c-3.088-1.177-5.297-3.052-6.182-5.654l-61.209-180.436c-2.92-8.445,10.273-20.366,27.908-25.27
					c135.132-37.648,270.581-47.82,374.013-23.725c0.958,0.223,1.843,0.49,2.652,0.799c10.07,3.841,8.565,14.032-4.078,22.819
					l-291.804,202.792C1974.746,2252.066,1956.369,2255.255,1946.666,2251.554 M2499.016,1911.956
					c-257.984-98.404-722.188-0.888-1036.896,217.822s-360.723,475.777-102.739,574.18
					c257.984,98.404,722.258,0.873,1036.965-217.836S2757.001,2010.359,2499.016,1911.956"/>
			</g>
		</g>
	</g>
	<g>
		<g>
			<g>
				<path style="fill:#EAEEB3;" d="M2259.641,2226.57c-4.356-1.662-1.801-6.146,5.282-8.684c16.314-5.899,42.7-14.467,63.605-16.608
					c15.851-1.599,25.379-1.041,30.504,0.914c5.417,2.066,5.915,5.694,3.76,9.986c-4.231,8.378-16.839,16.1-49.444,19.389
					c-20.905,2.141-41.104-1.714-52.922-4.748C2260.143,2226.744,2259.882,2226.662,2259.641,2226.57 M2266.74,2192.487
					c-2.8-1.068-2.462-3.861,1.741-6.783c12.79-8.922,34.419-22.745,55.802-30.724c24.283-9.06,37.176-10.544,43.533-8.118
					c2.38,0.908,3.845,2.365,4.647,4.177c2.973,6.662-4.051,15.572-37.467,28.052c-21.345,7.952-47.411,11.934-63.392,13.741
					C2269.504,2193.067,2267.868,2192.917,2266.74,2192.487 M2244.071,2165.566c-2.198-0.838-2.523-2.867-0.063-5.455
					c9.232-9.706,25.508-25.079,44.684-35.619c26.281-14.467,40.32-16.786,48.003-13.856c1.079,0.412,2.032,0.926,2.876,1.526
					c6.896,4.842,4.024,13.451-25.907,29.922c-19.177,10.541-45.688,18.692-62.288,23.213
					C2248.198,2166.157,2245.651,2166.169,2244.071,2165.566 M2366.039,2048.619c-10.09-3.849-28.563-0.128-41.204,8.657
					l-291.804,202.792c-13.22,9.187-13.792,19.167-4.101,22.863c3.083,1.176,7.205,1.716,12.289,1.391l353.119-22.397
					c16.51-1.033,34.849-10.992,38.824-21.106c30.629-77.55,10.008-147.211-64.86-191.125
					C2367.607,2049.287,2366.85,2048.929,2366.039,2048.619"/>
			</g>
		</g>
	</g>
	<g>
		<g>
			<g>
				<path style="fill:#EAEEB3;" d="M1978.979,2117.708c-0.228-0.087-0.446-0.185-0.655-0.295
					c-9.186-4.896-22.347-13.643-24.603-24.495c-3.563-16.962,7.018-25.457,21.323-29.992c7.421-2.361,14.373-3.201,19.849-1.112
					c5.106,1.948,8.929,6.444,10.648,14.629c2.288,10.865-5.815,26.366-11.923,36.116
					C1990.959,2116.801,1983.359,2119.379,1978.979,2117.708 M2045.601,2102.033c-0.791-0.302-1.427-0.762-1.844-1.39
					c-4.823-7.122-10.786-19.226-6.671-31.62c6.362-19.36,19.597-26.678,33.736-28.984c5.294-0.857,9.951-0.888,13.377,0.419
					c5.745,2.192,8.029,8.145,4.044,20.272c-4.047,12.38-19.083,27.899-29.392,37.48
					C2055.038,2101.756,2048.944,2103.308,2045.601,2102.033 M2098.652,2104.061c-1.569-0.598-2.284-1.848-1.615-3.653
					c3.425-9.464,10.711-24.867,24.617-37.417c21.722-19.561,36.859-23.534,47.94-21.601c1.409,0.242,2.685,0.566,3.794,0.99
					c7.646,2.917,7.399,10.5-11.576,27.615c-13.899,12.513-37.667,25.069-52.949,32.467
					C2104.75,2104.458,2100.857,2104.902,2098.652,2104.061 M2283.847,2017.269c-0.809-0.309-1.694-0.576-2.652-0.799
					c-103.432-24.096-238.88-13.924-374.013,23.725c-17.635,4.904-30.828,16.825-27.908,25.27l61.209,180.436
					c0.885,2.602,3.095,4.477,6.182,5.654c9.703,3.701,28.081,0.513,41.299-8.674l291.804-202.792
					C2292.412,2031.301,2293.917,2021.109,2283.847,2017.269"/>
			</g>
		</g>
	</g>
	<g>
		<g>
			<g>
				<path style="fill:#EAEEB3;" d="M2112.158,2478.959c-3.935-1.501-7.876-3.902-11.778-7.405
					c-9.081-8.091-9.49-22.007-8.582-30.997c0.371-4.118,7.951-7.943,13.985-7.033c8.44,1.238,19.694,3.413,29.046,6.98
					c5.144,1.962,9.714,4.345,12.922,7.226c14.162,12.65,7.571,21.561-5.535,28.152
					C2132.731,2480.651,2122.463,2482.89,2112.158,2478.959 M2165.344,2423.911c-9.725-3.709-17.251-8.974-22.102-12.996
					c-3.302-2.775,1.659-7.599,9.196-8.942c16.381-2.925,42.284-6.558,59.835-4.286c7.216,0.947,12.582,2.185,16.414,3.646
					c10.687,4.077,9.441,9.899,3.118,16.048c-8.591,8.354-23.277,14.095-50.658,10.531
					C2175.389,2427.17,2170.103,2425.727,2165.344,2423.911 M2176.01,2372.282c-4.538-1.731-1.646-6.414,5.679-8.866
					c16.439-5.482,42.966-13.343,63.484-14.812c14.715-1.053,23.759-0.325,28.765,1.584c5.912,2.256,6.19,6.16,3.515,10.728
					c-4.871,8.421-17.903,15.899-49.997,18.195c-20.55,1.458-39.778-3.173-51.01-6.68
					C2176.293,2372.385,2176.148,2372.335,2176.01,2372.282 M2381.619,2305.04c-3.137-1.197-7.297-1.738-12.294-1.426
					l-353.151,22.386c-21.094,1.332-42.894,16.482-39.224,27.259l61.27,180.459c0.875,2.553,3.093,4.444,6.23,5.64
					c7.224,2.755,19.319,1.831,31.105-3.152c63.818-26.928,125.005-59.816,179.79-97.889
					c54.747-38.047,98.031-77.763,129.477-117.04C2390.649,2314.022,2388.843,2307.796,2381.619,2305.04"/>
			</g>
		</g>
	</g>
	<g>
		<g>
			<g>
				<path style="fill:#EAEEB3;" d="M1561.498,2260.588c-9.079-3.463-8.249-8.734-2.982-14.473
					c7.738-8.433,22.181-14.677,50.914-12.522c8.655,0.658,16.515,2.731,23.273,5.31c7.589,2.895,13.789,6.427,18.156,9.305
					c3.782,2.508-0.721,7.383-8.274,9.007c-16.567,3.591-42.795,8.289-61.206,6.917
					C1572.193,2263.439,1565.756,2262.212,1561.498,2260.588 M1628.236,2214.876c-19.979-7.621-17.208-15.872-6.673-23.421
					c10.922-7.792,26.055-11.93,48.276-4.109c0.368,0.129,0.73,0.261,1.089,0.398c13.572,5.178,21.029,16.182,24.682,23.52
					c1.71,3.478-4.595,7.994-11.658,8.371c-15.432,0.788-39.357,1-53.624-3.992
					C1629.605,2215.388,1628.91,2215.133,1628.236,2214.876 M1737.091,2191.99c-10.534-4.018-25.628-11.321-30.057-21.294
					c-7.006-15.777,2.418-24.508,16.482-29.75c8.104-3.028,15.984-4.248,22.551-1.743c4.859,1.854,9,5.747,11.98,12.457
					c4.489,10.107-0.956,25.271-5.475,34.891c-2.088,4.405-10.227,7.443-15.061,5.599
					C1737.371,2192.097,1737.232,2192.044,1737.091,2191.99 M1802.853,2084.281c-7.222-2.755-19.333-1.837-31.119,3.147
					c-63.819,26.929-124.974,59.828-179.721,97.875c-54.785,38.073-98.101,77.777-129.546,117.054
					c-5.828,7.257-4.006,13.489,3.216,16.244c3.136,1.196,7.292,1.737,12.281,1.421l353.182-22.375
					c21.062-1.344,42.862-16.493,39.224-27.259l-61.302-180.472C1808.204,2087.365,1805.99,2085.477,1802.853,2084.281"/>
			</g>
		</g>
	</g>
	<g>
		<g>
			<g>
				<path style="fill:#EAEEB3;" d="M1494.01,2515.885c-1.075-0.41-2.026-0.923-2.867-1.52c-6.927-4.854-4.024-13.452,25.908-29.923
					c19.176-10.54,45.726-18.719,62.288-23.213c3.189-0.87,5.736-0.885,7.315-0.283c2.2,0.84,2.515,2.878,0.053,5.469
					c-9.232,9.706-25.508,25.079-44.684,35.619C1515.763,2516.485,1501.697,2518.817,1494.01,2515.885 M1462.887,2479.66
					c-2.385-0.91-3.856-2.37-4.666-4.185c-2.942-6.65,4.121-15.587,37.498-28.04c21.383-7.979,47.411-11.934,63.392-13.741
					c2.099-0.235,3.736-0.084,4.864,0.346c2.8,1.068,2.462,3.861-1.741,6.783c-12.79,8.922-34.419,22.745-55.802,30.724
					C1482.148,2480.606,1469.256,2482.089,1462.887,2479.66 M1471.687,2424.326c-5.412-2.064-5.9-5.698-3.727-10.003
					c4.193-8.352,16.8-16.074,49.444-19.389c20.867-2.115,41.066,1.741,52.883,4.774c0.286,0.074,0.549,0.158,0.791,0.25
					c4.353,1.661,1.83,6.121-5.287,8.682c-16.313,5.899-42.7,14.468-63.598,16.57
					C1486.337,2426.828,1476.808,2426.28,1471.687,2424.326 M1818.377,2340.709c-3.087-1.178-7.216-1.719-12.306-1.398
					l-353.051,22.383c-16.579,1.048-34.886,11.018-38.861,21.132c-30.591,77.523-10.039,147.199,64.86,191.125
					c0.693,0.408,1.447,0.765,2.257,1.074c10.068,3.84,28.568,0.131,41.21-8.655l291.804-202.793
					C1827.509,2354.39,1828.081,2344.411,1818.377,2340.709"/>
			</g>
		</g>
	</g>
	<g>
		<g>
			<g>
				<path style="fill:#EAEEB3;" d="M1651.363,2582.058c-8.026-3.062-7.764-10.754,13.264-28.262
					c14.837-12.359,39.206-24.359,54.821-31.384c4.026-1.819,7.729-2.188,9.848-1.38c1.658,0.633,2.346,1.986,1.457,3.93
					c-4.343,9.564-13.055,25.119-27.893,37.479c-23.136,19.268-38.259,22.795-48.794,20.415
					C1653.087,2582.634,1652.182,2582.37,1651.363,2582.058 M1737.534,2587.21c-5.881-2.243-7.833-8.419-2.464-21.205
					c5.248-12.577,21.493-27.962,32.509-37.397c3.955-3.407,9.783-4.789,12.973-3.572c0.876,0.334,1.553,0.864,1.938,1.602
					c3.888,7.503,8.388,20.154,3.14,32.73c-8.241,19.625-21.855,26.636-35.811,28.479
					C1744.946,2588.486,1740.679,2588.41,1737.534,2587.21 M1826.722,2568.664c-5.233-1.996-8.83-6.8-9.68-15.783
					c-1.09-11.227,8.394-26.815,15.376-36.602c2.92-4.134,10.224-6.492,14.37-4.91c0.351,0.134,0.679,0.296,0.98,0.487
					c8.369,5.362,20.24,14.804,21.33,26.031c1.659,17.546-9.56,25.879-23.927,30.023
					C1838.178,2569.918,1831.709,2570.565,1826.722,2568.664 M1900.641,2372.088c-9.689-3.696-28.067-0.507-41.285,8.679
					l-291.804,202.793c-12.642,8.786-14.174,18.967-4.084,22.816c0.811,0.309,1.697,0.578,2.658,0.801
					c103.401,24.084,238.881,13.924,374.013-23.725c17.635-4.904,30.797-16.837,27.945-25.296l-61.277-180.421
					C1905.928,2375.137,1903.725,2373.264,1900.641,2372.088"/>
			</g>
		</g>
	</g>
	<g>
		<g>
			<g>
				<path style="fill:#000;" d="M2359.032,2202.191c5.417,2.066,5.915,5.694,3.76,9.986c-4.231,8.378-16.839,16.1-49.444,19.389
					c-20.905,2.141-41.104-1.714-52.922-4.748c-0.284-0.074-0.545-0.157-0.787-0.249c-4.356-1.662-1.801-6.146,5.282-8.684
					c16.314-5.899,42.7-14.467,63.605-16.608C2344.378,2199.679,2353.907,2200.237,2359.032,2202.191"/>
			</g>
		</g>
	</g>
	<g>
		<g>
			<g>
				<path style="fill:#000;" d="M2367.815,2146.862c2.38,0.908,3.845,2.365,4.647,4.177c2.973,6.662-4.051,15.572-37.467,28.052
					c-21.345,7.952-47.411,11.934-63.392,13.741c-2.1,0.235-3.736,0.084-4.864-0.346c-2.8-1.068-2.462-3.861,1.741-6.783
					c12.79-8.922,34.419-22.745,55.802-30.724C2348.566,2145.92,2361.459,2144.437,2367.815,2146.862"/>
			</g>
		</g>
	</g>
	<g>
		<g>
			<g>
				<path style="fill:#000;" d="M2336.695,2110.636c1.079,0.412,2.032,0.926,2.876,1.526c6.896,4.842,4.024,13.451-25.907,29.922
					c-19.177,10.541-45.688,18.692-62.288,23.213c-3.177,0.86-5.724,0.872-7.304,0.269c-2.198-0.838-2.523-2.867-0.063-5.455
					c9.232-9.706,25.508-25.079,44.684-35.619C2314.972,2110.026,2329.011,2107.706,2336.695,2110.636"/>
			</g>
		</g>
	</g>
	<g>
		<g>
			<g>
				<path style="fill:#000;" d="M1571.078,2399.958c4.353,1.661,1.83,6.121-5.287,8.682c-16.313,5.899-42.7,14.468-63.598,16.57
					c-15.856,1.618-25.385,1.069-30.506-0.885c-5.412-2.064-5.9-5.698-3.727-10.003c4.193-8.352,16.8-16.074,49.444-19.389
					c20.867-2.115,41.066,1.741,52.883,4.774C1570.573,2399.782,1570.836,2399.866,1571.078,2399.958"/>
			</g>
		</g>
	</g>
	<g>
		<g>
			<g>
				<path style="fill:#000;" d="M1563.975,2434.04c2.8,1.068,2.462,3.861-1.741,6.783c-12.79,8.922-34.419,22.745-55.802,30.724
					c-24.283,9.06-37.175,10.543-43.544,8.114c-2.385-0.91-3.856-2.37-4.666-4.185c-2.942-6.65,4.121-15.587,37.498-28.04
					c21.383-7.979,47.411-11.934,63.392-13.741C1561.21,2433.459,1562.847,2433.61,1563.975,2434.04"/>
			</g>
		</g>
	</g>
	<g>
		<g>
			<g>
				<path style="fill:#000;" d="M1586.653,2460.946c2.2,0.84,2.515,2.878,0.053,5.469c-9.232,9.706-25.508,25.079-44.684,35.619
					c-26.26,14.45-40.325,16.783-48.012,13.851c-1.075-0.41-2.026-0.923-2.867-1.52c-6.927-4.854-4.024-13.452,25.908-29.923
					c19.176-10.54,45.726-18.719,62.288-23.213C1582.528,2460.359,1585.075,2460.344,1586.653,2460.946"/>
			</g>
		</g>
	</g>
	<g>
		<g>
			<g>
				<path style="fill:#000;" d="M1746.066,2139.203c4.859,1.854,9,5.747,11.98,12.457c4.489,10.107-0.956,25.271-5.475,34.891
					c-2.088,4.405-10.227,7.443-15.061,5.599c-0.14-0.053-0.278-0.105-0.42-0.16c-10.534-4.018-25.628-11.321-30.057-21.294
					c-7.006-15.777,2.418-24.508,16.482-29.75C1731.62,2137.918,1739.5,2136.698,1746.066,2139.203"/>
			</g>
		</g>
	</g>
	<g>
		<g>
			<g>
				<path style="fill:#000;" d="M1670.93,2187.744c13.572,5.178,21.029,16.182,24.682,23.52c1.71,3.478-4.595,7.994-11.658,8.371
					c-15.432,0.788-39.357,1-53.624-3.992c-0.725-0.255-1.421-0.51-2.094-0.766c-19.979-7.621-17.208-15.872-6.673-23.421
					c10.922-7.792,26.055-11.93,48.276-4.109C1670.208,2187.474,1670.57,2187.607,1670.93,2187.744"/>
			</g>
		</g>
	</g>
	<g>
		<g>
			<g>
				<path style="fill:#000;" d="M1632.703,2238.902c7.589,2.895,13.789,6.427,18.156,9.305c3.782,2.508-0.721,7.383-8.274,9.007
					c-16.567,3.591-42.795,8.289-61.206,6.917c-9.185-0.692-15.622-1.919-19.881-3.543c-9.079-3.463-8.249-8.734-2.982-14.473
					c7.738-8.433,22.181-14.677,50.914-12.522C1618.084,2234.251,1625.944,2236.324,1632.703,2238.902"/>
			</g>
		</g>
	</g>
	<g>
		<g>
			<g>
				<path style="fill:#000;" d="M1729.295,2521.032c1.658,0.633,2.346,1.986,1.457,3.93
					c-4.343,9.564-13.055,25.119-27.893,37.479c-23.136,19.268-38.259,22.795-48.794,20.415c-0.978-0.221-1.883-0.485-2.702-0.798
					c-8.026-3.062-7.764-10.754,13.264-28.262c14.837-12.359,39.206-24.359,54.821-31.384
					C1723.473,2520.593,1727.177,2520.224,1729.295,2521.032"/>
			</g>
		</g>
	</g>
	<g>
		<g>
			<g>
				<path style="fill:#000;" d="M1780.553,2525.036c0.876,0.334,1.553,0.864,1.938,1.602c3.888,7.503,8.388,20.154,3.14,32.73
					c-8.241,19.625-21.855,26.636-35.811,28.479c-4.874,0.638-9.141,0.563-12.286-0.637c-5.881-2.243-7.833-8.419-2.464-21.205
					c5.248-12.577,21.493-27.962,32.509-37.397C1771.535,2525.201,1777.363,2523.819,1780.553,2525.036"/>
			</g>
		</g>
	</g>
	<g>
		<g>
			<g>
				<path style="fill:#000;" d="M1846.788,2511.368c0.351,0.134,0.679,0.296,0.98,0.487c8.369,5.362,20.24,14.804,21.33,26.031
					c1.659,17.546-9.56,25.879-23.927,30.023c-6.992,2.009-13.462,2.656-18.448,0.754c-5.233-1.996-8.83-6.8-9.68-15.783
					c-1.09-11.227,8.394-26.815,15.376-36.602C1835.339,2512.144,1842.643,2509.786,1846.788,2511.368"/>
			</g>
		</g>
	</g>
	<g>
		<g>
			<g>
				<path style="fill:#000;" d="M2134.829,2440.504c5.144,1.962,9.714,4.345,12.922,7.226
					c14.162,12.65,7.571,21.561-5.535,28.152c-9.485,4.769-19.752,7.008-30.058,3.077c-3.935-1.501-7.876-3.902-11.778-7.405
					c-9.081-8.091-9.49-22.007-8.582-30.997c0.371-4.118,7.951-7.943,13.985-7.033
					C2114.223,2434.762,2125.476,2436.937,2134.829,2440.504"/>
			</g>
		</g>
	</g>
	<g>
		<g>
			<g>
				<path style="fill:#000;" d="M2228.686,2401.333c10.687,4.077,9.441,9.899,3.118,16.048
					c-8.591,8.354-23.277,14.095-50.658,10.531c-5.757-0.742-11.043-2.185-15.803-4.001c-9.725-3.709-17.251-8.974-22.102-12.996
					c-3.302-2.775,1.659-7.599,9.196-8.942c16.381-2.925,42.284-6.558,59.835-4.286
					C2219.489,2398.634,2224.854,2399.872,2228.686,2401.333"/>
			</g>
		</g>
	</g>
	<g>
		<g>
			<g>
				<path style="fill:#000;" d="M2273.937,2350.188c5.912,2.256,6.19,6.16,3.515,10.728
					c-4.871,8.421-17.903,15.899-49.997,18.195c-20.55,1.458-39.778-3.173-51.01-6.68c-0.153-0.047-0.297-0.097-0.435-0.149
					c-4.538-1.731-1.646-6.414,5.679-8.866c16.439-5.482,42.966-13.343,63.484-14.812
					C2259.888,2347.551,2268.932,2348.279,2273.937,2350.188"/>
			</g>
		</g>
	</g>
	<g>
		<g>
			<g>
				<path style="fill:#000;" d="M2173.389,2042.38c7.646,2.917,7.399,10.5-11.576,27.615
					c-13.899,12.513-37.667,25.069-52.949,32.467c-4.114,1.996-8.007,2.44-10.212,1.599c-1.569-0.598-2.284-1.848-1.615-3.653
					c3.425-9.464,10.711-24.867,24.617-37.417c21.722-19.561,36.859-23.534,47.94-21.601
					C2171.004,2041.631,2172.279,2041.956,2173.389,2042.38"/>
			</g>
		</g>
	</g>
	<g>
		<g>
			<g>
				<path style="fill:#000;" d="M2084.199,2040.458c5.745,2.192,8.029,8.145,4.044,20.272
					c-4.047,12.38-19.083,27.899-29.392,37.48c-3.814,3.546-9.907,5.098-13.25,3.823c-0.791-0.302-1.427-0.762-1.844-1.39
					c-4.823-7.122-10.786-19.226-6.671-31.62c6.362-19.36,19.597-26.678,33.736-28.984
					C2076.116,2039.181,2080.773,2039.15,2084.199,2040.458"/>
			</g>
		</g>
	</g>
	<g>
		<g>
			<g>
				<path style="fill:#000;" d="M1994.894,2061.814c5.106,1.948,8.929,6.444,10.648,14.629
					c2.288,10.865-5.815,26.366-11.923,36.116c-2.659,4.242-10.259,6.82-14.639,5.15c-0.228-0.087-0.446-0.185-0.655-0.295
					c-9.186-4.896-22.347-13.643-24.603-24.495c-3.563-16.962,7.018-25.457,21.323-29.992
					C1982.466,2060.565,1989.418,2059.725,1994.894,2061.814"/>
			</g>
		</g>
	</g>
	<g>
		<g>
			<g>
				<path style="fill:#18C653;" d="M1356.955,738.216L1239.526,922.9c-115.403,181.497-4.225,469.146,251.684,712.689
					c69.285,65.97,149.206,128.723,238.086,185.237c417.105,265.213,874.193,293.256,1020.858,62.594l117.429-184.683
					c24.204-38.065,38.466-80.805,43.48-126.802c25.406-232.855-184.948-549.66-533.213-771.101
					C1960.707,535.597,1503.62,507.554,1356.955,738.216z"/>
			</g>
		</g>
	</g>
	<g style="opacity:0.6;">
		<g>
			<g>
				<path style="fill:#FFFFFF;" d="M2819.215,1236.485c-1.002,0.443-2.041,0.863-3.066,1.343
					c9.755,14.434,19.004,28.856,27.687,43.277C2836.228,1266.287,2828.004,1251.386,2819.215,1236.485z"/>
			</g>
		</g>
	</g>
	<g style="opacity:0.6;">
		<g>
			<g>
				<path style="fill:#FFFFFF;" d="M1356.955,738.216L1239.526,922.9c-78.341,123.209-52.261,295.319,52.615,469.325
					c-80.169-155.981-94.307-306.659-23.747-417.63l117.43-184.684c44.33-69.719,116.982-115.77,208.344-138.813l212.333-64.094
					C1603.425,565.252,1435.575,614.568,1356.955,738.216z"/>
			</g>
		</g>
	</g>
	<g>
		<g>
			<g>
				<path style="fill:#68174A;" d="M2391.556,2059.663c-16.836,0-34.029-0.537-51.631-1.616
					c-196.143-12.031-416.817-90.288-621.372-220.356c-204.556-130.063-369.033-296.699-463.13-469.219
					c-96.152-176.274-107.788-338.325-32.773-456.304l117.432-184.683c75.01-117.974,226.665-176.182,427.114-163.887
					c196.143,12.031,416.817,90.283,621.372,220.352c204.555,130.063,369.028,296.699,463.13,469.219
					c96.152,176.279,107.788,338.33,32.773,456.309l-117.432,184.683C2698.616,2001.772,2566.365,2059.653,2391.556,2059.663z
					 M1715.467,601.982c-160.571,0-280.85,51.367-341.636,146.968l0,0l-117.432,184.683
					c-66.851,105.137-54.727,252.764,34.141,415.684c90.908,166.675,250.537,328.13,449.478,454.624
					c198.936,126.494,412.856,202.559,602.354,214.18c185.234,11.348,324.063-40.283,390.918-145.425l117.432-184.683
					c66.851-105.137,54.727-252.768-34.141-415.688c-90.908-166.675-250.537-328.13-449.478-454.624
					c-198.935-126.489-412.856-202.554-602.353-214.175C1747.937,602.495,1731.497,601.982,1715.467,601.982z M1356.956,738.218
					h0.049H1356.956z"/>
			</g>
		</g>
	</g>
	<g style="opacity:0.3;">
		<g>
			<g>
				<path style="fill:#68174A;" d="M1568.562,1513.934l-77.353,121.654c69.285,65.97,149.206,128.723,238.086,185.237
					c417.105,265.213,874.193,293.256,1020.858,62.594l117.429-184.683c24.204-38.065,38.466-80.805,43.48-126.802l-0.073-0.046
					c-66.345,370.815-698.469,378.748-1249.885-73.055C1632.072,1475.044,1588.701,1482.261,1568.562,1513.934z"/>
			</g>
		</g>
	</g>
	<g style="opacity:0.25;">
		<g>
			<g>
				<path style="fill:#FFFFFF;" d="M1405.641,1160.237c8.338,22.735,18.985,42.673,32.108,59.612
					c5.208,6.723,5.861,15.905,1.299,23.081l-66.126,103.998c-7.361,11.577-23.989,12.358-32.409,1.527
					c-18.518-23.821-33.021-48.793-37.344-76.678c-0.746-4.812,0.255-9.741,2.867-13.85l64.367-101.232
					C1379.143,1142.95,1400.032,1144.944,1405.641,1160.237z"/>
			</g>
		</g>
	</g>
	<g>
		<g>
			<g>
				<path style="fill:#9CE556;" d="M1674.001,1073.35c-2.964-10.384,6.104-15.259,20.714-10.401l337.203,112.109
					c15.275,5.078,28.84,17.881,31.687,27.853c0.906,3.173,0.727,6.059-0.827,8.32l-107.73,157.166
					c-5.064,7.351-22.504,3.964-36.997-7.216c-111.111-85.63-200.423-188.008-243.098-285.222
					C1674.555,1075.055,1674.239,1074.184,1674.001,1073.35 M1649.852,988.761c-0.238-0.833-0.404-1.651-0.493-2.45
					c-9.711-86.284,33.757-144.488,114.153-166.447c10.479-2.878,29.431,5.805,40.204,18.45l229.464,269.244
					c3.307,3.883,5.348,7.513,6.255,10.69c2.851,9.987-5.481,15.509-20.757,10.43l-337.203-112.11
					C1666.865,1011.711,1652.81,999.123,1649.852,988.761 M2015.854,1418.273c-0.922-3.229-0.737-6.137,0.782-8.367l107.765-157.183
					c6.429-9.395,31.621-1.02,45.326,15.07l229.527,269.322c3.245,3.814,5.304,7.469,6.225,10.697
					c2.122,7.435-1.78,12.611-11.082,12.294c-50.287-1.642-108.02-12.499-171.284-33.532
					c-63.308-21.048-126.3-50.328-186.099-85.287C2025.963,1434.837,2017.976,1425.707,2015.854,1418.273 M1845.806,822.631
					c-2.122-7.434,1.775-12.626,11.078-12.308c50.287,1.641,108.029,12.531,171.337,33.578
					c63.264,21.033,126.247,50.282,186.046,85.24c11.052,6.449,19.044,15.595,21.166,23.028c0.922,3.228,0.736,6.133-0.786,8.353
					l-107.756,157.215c-6.439,9.363-31.631,0.988-45.327-15.07l-229.536-269.354C1848.785,829.51,1846.727,825.858,1845.806,822.631
					 M2211.852,1252.199c-2.847-9.973,5.485-15.495,20.761-10.416l337.203,112.109c14.609,4.857,28.656,17.417,31.621,27.801
					c0.238,0.834,0.405,1.655,0.494,2.456c9.702,86.252-33.713,144.503-114.153,166.447c-10.479,2.878-29.44-5.837-40.16-18.436
					l-229.517-269.29C2214.796,1258.996,2212.758,1255.371,2211.852,1252.199 M2187.682,1167.535
					c-0.907-3.178-0.73-6.07,0.822-8.338l107.783-157.119c5.011-7.398,22.461-3.978,36.953,7.202
					c111.111,85.63,200.414,187.975,243.098,285.222c0.396,0.9,0.712,1.769,0.949,2.602c2.958,10.363-6.103,15.265-20.712,10.408
					l-337.203-112.109C2204.097,1190.324,2190.533,1177.522,2187.682,1167.535 M2790.529,1406.269
					c-75.799-265.507-432.017-578.721-795.686-699.63s-597.052-3.718-521.253,261.789
					c75.799,265.507,432.07,578.769,795.739,699.678C2632.999,1789.014,2866.327,1671.775,2790.529,1406.269"/>
			</g>
		</g>
	</g>
	<g>
		<g>
			<g>
				<path style="fill:#EAEEB3;" d="M2395.216,1403.135c-1.28-4.483,3.842-5.125,10.117-0.974
					c14.498,9.526,37.168,25.517,51.408,40.971c10.778,11.732,16.041,19.695,17.546,24.969c1.592,5.575-1.014,8.147-5.741,8.994
					c-9.243,1.633-22.979-3.835-45.149-27.967c-14.24-15.454-23.257-33.935-27.909-45.214
					C2395.376,1403.642,2395.286,1403.384,2395.216,1403.135 M2426.756,1388.397c-0.823-2.881,1.616-4.285,6.473-2.67
					c14.807,4.894,38.833,13.927,58.034,26.266c21.804,14.013,30.717,23.446,32.584,29.988c0.699,2.45,0.41,4.496-0.56,6.223
					c-3.553,6.372-14.895,6.087-44.908-13.188c-19.156-12.325-37.962-30.807-48.985-42.519
					C2427.948,1390.958,2427.087,1389.558,2426.756,1388.397 M2434.726,1354.118c-0.646-2.262,0.783-3.738,4.329-3.319
					c13.302,1.575,35.363,5.395,55.291,14.432c27.329,12.372,37.599,22.222,39.856,30.129c0.317,1.11,0.476,2.182,0.502,3.217
					c0.256,8.423-8.358,11.282-39.479-2.813c-19.929-9.037-42.341-25.378-55.906-35.96
					C2436.726,1357.776,2435.19,1355.744,2434.726,1354.118 M2601.437,1381.693c-2.965-10.384-17.012-22.944-31.621-27.801
					l-337.203-112.109c-15.276-5.079-23.608,0.443-20.761,10.416c0.906,3.172,2.944,6.797,6.249,10.672l229.517,269.29
					c10.72,12.599,29.681,21.314,40.16,18.436c80.44-21.945,123.855-80.195,114.153-166.447
					C2601.842,1383.348,2601.675,1382.528,2601.437,1381.693"/>
			</g>
		</g>
	</g>
	<g>
		<g>
			<g>
				<path style="fill:#EAEEB3;" d="M2314.202,1113.208c-0.067-0.234-0.12-0.468-0.156-0.701
					c-1.584-10.288-2.467-26.065,4.869-34.375c11.445-13.015,24.586-9.634,36.789-0.9c6.337,4.527,11.175,9.589,12.784,15.225
					c1.5,5.255,0.191,11.01-5.332,17.29c-7.327,8.342-24.593,11.143-36.059,12.094
					C2322.106,1122.255,2315.489,1117.715,2314.202,1113.208 M2366.671,1157.153c-0.232-0.814-0.245-1.599,0.008-2.309
					c2.813-8.129,8.929-20.155,21.318-24.287c19.312-6.507,33.101-0.295,43.419,9.642c3.859,3.725,6.674,7.435,7.68,10.961
					c1.688,5.913-1.71,11.308-13.807,15.385c-12.336,4.178-33.77,1.438-47.618-1.074
					C2372.546,1164.542,2367.653,1160.593,2366.671,1157.153 M2396.834,1200.841c-0.461-1.615,0.111-2.936,1.957-3.481
					c9.629-2.929,26.327-6.324,44.707-2.712c28.677,5.67,40.927,15.408,46.019,25.438c0.651,1.273,1.155,2.489,1.481,3.631
					c2.246,7.87-3.973,12.215-29.045,7.278c-18.346-3.63-42.64-15.135-57.72-22.938
					C2400.17,1205.96,2397.482,1203.11,2396.834,1200.841 M2577.288,1297.104c-0.238-0.832-0.554-1.701-0.949-2.602
					c-42.684-97.246-131.987-199.592-243.098-285.222c-14.492-11.18-31.942-14.6-36.953-7.202l-107.783,157.119
					c-1.552,2.268-1.729,5.16-0.822,8.338c2.851,9.986,16.415,22.789,31.691,27.867l337.203,112.109
					C2571.185,1312.369,2580.246,1307.468,2577.288,1297.104"/>
			</g>
		</g>
	</g>
	<g>
		<g>
			<g>
				<path style="fill:#EAEEB3;" d="M2104.78,1436.289c-1.156-4.049-1.595-8.644-1.129-13.867
					c1.037-12.118,11.932-20.784,19.674-25.444c3.519-2.171,11.123,1.607,14.01,6.982c4.067,7.499,9.068,17.812,11.816,27.437
					c1.511,5.294,2.341,10.38,1.958,14.675c-1.642,18.918-12.726,18.98-25.855,12.437
					C2115.753,1453.773,2107.808,1446.895,2104.78,1436.289 M2180.72,1445.885c-2.857-10.008-3.152-19.189-2.838-25.482
					c0.243-4.306,7.078-3.225,12.669,2.004c12.157,11.362,30.587,29.924,39.284,45.336c3.565,6.345,5.79,11.382,6.916,15.326
					c3.14,10.999-2.268,13.49-10.98,12.112c-11.835-1.872-25.232-10.19-38.785-34.247
					C2184.131,1455.88,2182.119,1450.784,2180.72,1445.885 M2228.446,1423.49c-1.333-4.671,4.149-5.161,10.501-0.766
					c14.24,9.876,36.427,26.404,49.897,41.951c9.66,11.15,14.497,18.827,15.967,23.979c1.737,6.085-1.223,8.647-6.483,9.242
					c-9.661,1.146-23.456-4.806-44.525-29.125c-13.48-15.579-21.294-33.748-25.217-44.842
					C2228.534,1423.777,2228.487,1423.631,2228.446,1423.49 M2405.479,1547.811c-0.922-3.228-2.98-6.883-6.225-10.697
					l-229.527-269.322c-13.706-16.09-38.897-24.465-45.326-15.07l-107.765,157.183c-1.52,2.23-1.704,5.139-0.782,8.367
					c2.122,7.434,10.11,16.564,21.161,23.014c59.798,34.958,122.791,64.239,186.099,85.287
					c63.264,21.033,120.997,31.89,171.284,33.532C2403.699,1560.422,2407.602,1555.246,2405.479,1547.811"/>
			</g>
		</g>
	</g>
	<g>
		<g>
			<g>
				<path style="fill:#EAEEB3;" d="M1949.661,864.58c-2.667-9.343,2.049-11.838,9.801-11.06
					c11.388,1.143,25.041,8.964,40.532,33.259c4.659,7.324,7.709,14.858,9.694,21.814c2.23,7.81,3.117,14.891,3.429,20.111
					c0.259,4.531-6.343,3.846-12.168-1.227c-12.802-11.112-32.278-29.295-42.212-44.857
					C1953.787,874.852,1950.912,868.963,1949.661,864.58 M2026.247,890.622c-5.87-20.561,2.396-23.288,14.753-19.376
					c12.783,4.075,25.163,13.711,32.217,36.188c0.117,0.372,0.228,0.741,0.334,1.111c3.987,13.968-0.355,26.532-4.041,33.854
					c-1.76,3.453-9.153,1.111-13.687-4.318c-9.878-11.883-24.383-30.911-28.935-45.323
					C2026.658,892.024,2026.445,891.315,2026.247,890.622 M2109.794,964.058c-3.095-10.841-6.292-27.301-0.962-36.823
					c8.433-15.063,21.071-12.749,33.694-4.631c7.28,4.674,12.978,10.252,14.908,17.01c1.428,5.001,0.792,10.649-2.795,17.055
					c-5.402,9.649-20.805,14.377-31.214,16.523c-4.777,0.968-12.087-3.728-13.507-8.703
					C2109.877,964.347,2109.836,964.204,2109.794,964.058 M2235.431,952.17c-2.122-7.433-10.114-16.579-21.166-23.028
					c-59.799-34.959-122.782-64.207-186.046-85.24c-63.308-21.048-121.05-31.937-171.337-33.578
					c-9.302-0.318-13.2,4.875-11.078,12.308c0.921,3.227,2.979,6.879,6.221,10.683l229.536,269.354
					c13.696,16.057,38.887,24.433,45.327,15.07l107.756-157.215C2236.167,958.302,2236.353,955.398,2235.431,952.17"/>
			</g>
		</g>
	</g>
	<g>
		<g>
			<g>
				<path style="fill:#EAEEB3;" d="M1704.83,963.52c-0.316-1.106-0.475-2.175-0.501-3.206c-0.265-8.455,8.358-11.282,39.48,2.813
					c19.929,9.037,42.385,25.392,55.906,35.96c2.608,2.032,4.146,4.062,4.61,5.686c0.646,2.264-0.797,3.738-4.346,3.319
					c-13.302-1.576-35.363-5.395-55.291-14.432C1717.384,981.295,1707.089,971.432,1704.83,963.52 M1715.183,916.897
					c-0.701-2.455-0.413-4.507,0.555-6.243c3.562-6.34,14.948-6.041,44.918,13.22c19.2,12.339,37.962,30.807,48.985,42.519
					c1.446,1.54,2.306,2.941,2.637,4.102c0.823,2.882-1.616,4.285-6.474,2.67c-14.806-4.893-38.833-13.927-58.034-26.266
					C1725.967,932.885,1717.055,923.452,1715.183,916.897 M1764.757,890.787c-1.59-5.57,1.027-8.138,5.776-8.977
					c9.199-1.648,22.935,3.82,45.149,27.967c14.196,15.439,23.213,33.921,27.865,45.2c0.112,0.273,0.203,0.534,0.274,0.783
					c1.279,4.481-3.804,5.133-10.119,0.969c-14.497-9.526-37.168-25.517-51.373-40.989
					C1771.532,904.015,1766.261,896.057,1764.757,890.787 M2039.434,1118.248c-0.907-3.177-2.947-6.807-6.255-10.69
					l-229.464-269.244c-10.772-12.645-29.725-21.328-40.204-18.45c-80.396,21.959-123.864,80.163-114.153,166.447
					c0.089,0.799,0.255,1.617,0.493,2.45c2.958,10.362,17.013,22.95,31.622,27.807l337.203,112.11
					C2033.953,1133.756,2042.285,1128.234,2039.434,1118.248"/>
			</g>
		</g>
	</g>
	<g>
		<g>
			<g>
				<path style="fill:#EAEEB3;" d="M1746.136,1129.148c-2.358-8.26,3.958-12.66,30.574-6.315
					c18.785,4.474,42.994,16.793,57.974,25.085c3.868,2.134,6.383,4.877,7.005,7.058c0.487,1.707-0.184,3.068-2.273,3.521
					c-10.26,2.254-27.933,4.599-46.719,0.125c-29.288-6.978-41.174-16.972-45.581-26.833
					C1746.707,1130.874,1746.376,1129.991,1746.136,1129.148 M1793.643,1201.225c-1.728-6.053,2.047-11.316,15.501-14.678
					c13.214-3.334,35.265,0.453,49.42,3.619c5.098,1.125,9.696,4.963,10.633,8.246c0.257,0.901,0.239,1.761-0.121,2.511
					c-3.677,7.609-11.109,18.791-24.323,22.126c-20.65,5.161-34.42-1.537-44.258-11.606
					C1797.064,1207.923,1794.567,1204.462,1793.643,1201.225 M1861.933,1261.517c-1.537-5.385,0.153-11.144,6.836-17.207
					c8.335-7.6,26.498-9.347,38.517-9.621c5.06-0.139,11.324,4.295,12.542,8.562c0.103,0.361,0.17,0.721,0.197,1.076
					c0.722,9.913,0.275,25.075-8.06,32.675c-13.053,11.841-26.448,7.853-38.374-1.167
					C1867.792,1271.44,1863.398,1266.649,1861.933,1261.517 M2063.604,1202.911c-2.847-9.972-16.412-22.774-31.687-27.853
					l-337.203-112.109c-14.609-4.857-23.678,0.017-20.714,10.401c0.238,0.834,0.554,1.705,0.951,2.608
					c42.675,97.215,131.987,199.593,243.098,285.222c14.493,11.18,31.933,14.568,36.997,7.216l107.73-157.166
					C2064.331,1208.97,2064.51,1206.084,2063.604,1202.911"/>
			</g>
		</g>
	</g>
	<g>
		<g>
			<g>
				<path style="fill:#000;" d="M2474.287,1468.102c1.592,5.575-1.014,8.147-5.741,8.994
					c-9.243,1.633-22.979-3.835-45.149-27.967c-14.24-15.454-23.257-33.935-27.909-45.214c-0.111-0.272-0.201-0.531-0.272-0.779
					c-1.28-4.483,3.842-5.125,10.117-0.974c14.498,9.526,37.168,25.517,51.408,40.971
					C2467.518,1454.865,2472.781,1462.827,2474.287,1468.102"/>
			</g>
		</g>
	</g>
	<g>
		<g>
			<g>
				<path style="fill:#000;" d="M2523.847,1441.981c0.699,2.45,0.41,4.496-0.56,6.223c-3.553,6.372-14.895,6.087-44.908-13.188
					c-19.156-12.325-37.962-30.807-48.985-42.519c-1.446-1.54-2.306-2.94-2.637-4.101c-0.823-2.881,1.616-4.285,6.473-2.67
					c14.807,4.894,38.833,13.927,58.034,26.266C2513.067,1426.006,2521.98,1435.439,2523.847,1441.981"/>
			</g>
		</g>
	</g>
	<g>
		<g>
			<g>
				<path style="fill:#000;" d="M2534.202,1395.36c0.317,1.11,0.476,2.182,0.502,3.217c0.256,8.423-8.358,11.282-39.479-2.813
					c-19.929-9.037-42.341-25.378-55.906-35.96c-2.593-2.028-4.128-4.06-4.592-5.687c-0.646-2.262,0.783-3.738,4.329-3.319
					c13.302,1.575,35.363,5.395,55.291,14.432C2521.676,1377.603,2531.945,1387.452,2534.202,1395.36"/>
			</g>
		</g>
	</g>
	<g>
		<g>
			<g>
				<path style="fill:#000;" d="M1843.82,955.76c1.279,4.481-3.804,5.133-10.119,0.969
					c-14.497-9.526-37.168-25.517-51.373-40.989c-10.796-11.725-16.066-19.683-17.571-24.953c-1.59-5.57,1.027-8.138,5.776-8.977
					c9.199-1.648,22.935,3.82,45.149,27.967c14.196,15.439,23.213,33.921,27.865,45.2
					C1843.658,955.25,1843.749,955.51,1843.82,955.76"/>
			</g>
		</g>
	</g>
	<g>
		<g>
			<g>
				<path style="fill:#000;" d="M1812.278,970.494c0.823,2.882-1.616,4.285-6.474,2.67
					c-14.806-4.893-38.833-13.927-58.034-26.266c-21.804-14.013-30.716-23.445-32.587-30c-0.701-2.455-0.413-4.507,0.555-6.243
					c3.562-6.34,14.948-6.041,44.918,13.22c19.2,12.339,37.962,30.807,48.985,42.519
					C1811.086,967.932,1811.947,969.333,1812.278,970.494"/>
			</g>
		</g>
	</g>
	<g>
		<g>
			<g>
				<path style="fill:#000;" d="M1804.325,1004.773c0.646,2.264-0.797,3.738-4.346,3.319
					c-13.302-1.576-35.363-5.395-55.291-14.432c-27.303-12.365-37.599-22.229-39.858-30.14c-0.316-1.106-0.475-2.175-0.501-3.206
					c-0.265-8.455,8.358-11.282,39.48,2.813c19.929,9.037,42.385,25.392,55.906,35.96
					C1802.323,1001.118,1803.861,1003.148,1804.325,1004.773"/>
			</g>
		</g>
	</g>
	<g>
		<g>
			<g>
				<path style="fill:#000;" d="M2157.434,939.615c1.428,5.001,0.792,10.649-2.795,17.055
					c-5.402,9.649-20.805,14.377-31.214,16.523c-4.777,0.968-12.087-3.728-13.507-8.703c-0.042-0.143-0.082-0.286-0.124-0.432
					c-3.095-10.841-6.292-27.301-0.962-36.823c8.433-15.063,21.071-12.749,33.694-4.631
					C2149.806,927.279,2155.504,932.857,2157.434,939.615"/>
			</g>
		</g>
	</g>
	<g>
		<g>
			<g>
				<path style="fill:#000;" d="M2073.551,908.545c3.987,13.968-0.355,26.532-4.041,33.854c-1.76,3.453-9.153,1.111-13.687-4.318
					c-9.878-11.883-24.383-30.911-28.935-45.323c-0.23-0.733-0.443-1.443-0.641-2.135c-5.87-20.561,2.396-23.288,14.753-19.376
					c12.783,4.075,25.163,13.711,32.217,36.188C2073.334,907.806,2073.445,908.175,2073.551,908.545"/>
			</g>
		</g>
	</g>
	<g>
		<g>
			<g>
				<path style="fill:#000;" d="M2009.688,908.593c2.23,7.81,3.117,14.891,3.429,20.111c0.259,4.531-6.343,3.846-12.168-1.227
					c-12.802-11.112-32.278-29.295-42.212-44.857c-4.95-7.768-7.825-13.657-9.076-18.04c-2.667-9.343,2.049-11.838,9.801-11.06
					c11.388,1.143,25.041,8.964,40.532,33.259C2004.652,894.103,2007.703,901.638,2009.688,908.593"/>
			</g>
		</g>
	</g>
	<g>
		<g>
			<g>
				<path style="fill:#000;" d="M1841.689,1154.975c0.487,1.707-0.184,3.068-2.273,3.521c-10.26,2.254-27.933,4.599-46.719,0.125
					c-29.288-6.978-41.174-16.972-45.581-26.833c-0.409-0.916-0.74-1.798-0.98-2.642c-2.358-8.26,3.958-12.66,30.574-6.315
					c18.785,4.474,42.994,16.793,57.974,25.085C1838.553,1150.051,1841.067,1152.795,1841.689,1154.975"/>
			</g>
		</g>
	</g>
	<g>
		<g>
			<g>
				<path style="fill:#000;" d="M1869.197,1198.412c0.257,0.901,0.239,1.761-0.121,2.511
					c-3.677,7.609-11.109,18.791-24.323,22.126c-20.65,5.161-34.42-1.537-44.258-11.606c-3.431-3.52-5.928-6.981-6.852-10.218
					c-1.728-6.053,2.047-11.316,15.501-14.678c13.214-3.334,35.265,0.453,49.42,3.619
					C1863.661,1191.291,1868.26,1195.129,1869.197,1198.412"/>
			</g>
		</g>
	</g>
	<g>
		<g>
			<g>
				<path style="fill:#000;" d="M1919.827,1243.251c0.103,0.361,0.17,0.721,0.197,1.076c0.722,9.913,0.275,25.075-8.06,32.675
					c-13.053,11.841-26.448,7.853-38.374-1.167c-5.798-4.394-10.193-9.186-11.658-14.318c-1.537-5.385,0.153-11.144,6.836-17.207
					c8.335-7.6,26.498-9.347,38.517-9.621C1912.345,1234.549,1918.61,1238.984,1919.827,1243.251"/>
			</g>
		</g>
	</g>
	<g>
		<g>
			<g>
				<path style="fill:#000;" d="M2149.152,1431.397c1.511,5.294,2.341,10.38,1.958,14.675
					c-1.642,18.918-12.726,18.98-25.855,12.437c-9.501-4.736-17.446-11.614-20.474-22.221c-1.156-4.049-1.595-8.644-1.129-13.867
					c1.037-12.118,11.932-20.784,19.674-25.444c3.519-2.171,11.123,1.607,14.01,6.982
					C2141.403,1411.459,2146.404,1421.772,2149.152,1431.397"/>
			</g>
		</g>
	</g>
	<g>
		<g>
			<g>
				<path style="fill:#000;" d="M2236.751,1483.069c3.14,10.999-2.268,13.49-10.98,12.112
					c-11.835-1.872-25.232-10.19-38.785-34.247c-2.855-5.054-4.867-10.151-6.266-15.049c-2.857-10.008-3.152-19.189-2.838-25.482
					c0.243-4.306,7.078-3.225,12.669,2.004c12.157,11.362,30.587,29.924,39.284,45.336
					C2233.401,1474.089,2235.625,1479.126,2236.751,1483.069"/>
			</g>
		</g>
	</g>
	<g>
		<g>
			<g>
				<path style="fill:#000;" d="M2304.812,1488.652c1.737,6.085-1.223,8.647-6.483,9.242
					c-9.661,1.146-23.456-4.806-44.525-29.125c-13.48-15.579-21.294-33.748-25.217-44.842c-0.054-0.15-0.101-0.296-0.141-0.438
					c-1.333-4.671,4.149-5.161,10.501-0.766c14.24,9.876,36.427,26.404,49.897,41.951
					C2298.505,1475.824,2303.341,1483.501,2304.812,1488.652"/>
			</g>
		</g>
	</g>
	<g>
		<g>
			<g>
				<path style="fill:#000;" d="M2490.998,1223.717c2.246,7.87-3.973,12.215-29.045,7.278
					c-18.346-3.63-42.64-15.135-57.72-22.938c-4.063-2.098-6.751-4.948-7.399-7.217c-0.461-1.615,0.111-2.936,1.957-3.481
					c9.629-2.929,26.327-6.324,44.707-2.712c28.677,5.67,40.927,15.408,46.019,25.438
					C2490.169,1221.359,2490.673,1222.575,2490.998,1223.717"/>
			</g>
		</g>
	</g>
	<g>
		<g>
			<g>
				<path style="fill:#000;" d="M2439.096,1151.16c1.688,5.913-1.71,11.308-13.807,15.385
					c-12.336,4.178-33.77,1.438-47.618-1.074c-5.125-0.928-10.018-4.877-11-8.318c-0.232-0.814-0.245-1.599,0.008-2.309
					c2.813-8.129,8.929-20.155,21.318-24.287c19.312-6.507,33.101-0.295,43.419,9.642
					C2435.274,1143.923,2438.09,1147.633,2439.096,1151.16"/>
			</g>
		</g>
	</g>
	<g>
		<g>
			<g>
				<path style="fill:#000;" d="M2368.487,1092.457c1.5,5.255,0.191,11.01-5.332,17.29c-7.327,8.342-24.593,11.143-36.059,12.094
					c-4.99,0.413-11.607-4.127-12.894-8.635c-0.067-0.234-0.12-0.468-0.156-0.701c-1.584-10.288-2.467-26.065,4.869-34.375
					c11.445-13.015,24.586-9.634,36.789-0.9C2362.04,1081.759,2366.878,1086.821,2368.487,1092.457"/>
			</g>
		</g>
	</g>
</g>
</svg>
