<?xml version="1.0" encoding="utf-8"?>
<!-- Generator: Adobe Illustrator 27.5.0, SVG Export Plug-In . SVG Version: 6.00 Build 0)  -->
<svg version="1.1" id="Layer_1" xmlns="http://www.w3.org/2000/svg" xmlns:xlink="http://www.w3.org/1999/xlink" x="0px" y="0px"
	 viewBox="0 0 4000 4000" style="enable-background:new 0 0 4000 4000;" xml:space="preserve">
<g>
	<g>
		<!-- <rect style="fill:#FFFFFF;" width="4000" height="4000"/> -->
	</g>
	<g>
		<g>
			<!-- <circle style="fill:#FFE809;" cx="2004.964" cy="2000" r="1342.365"/> -->
		</g>
		<g>
			<g>
				<path style="fill:#FC4949;" d="M1571.473,1782.207c-271.96,5.951-532.07,186.97-632.218,439.908
					c-20.243,51.116-35.298,106.149-71.462,147.5c-36.163,41.351-102.792,63.323-133.717,25.787
					c-37.689,61.136,3.255,142.567,58.797,188.089c55.542,45.521,125.579,73.14,173.746,126.443
					c52.286,57.881,72.021,138.651,120.238,199.939c64.494,81.99,169.829,118.052,269.163,150.044
					c219.522,70.699,461.575,140.837,674.688,52.642c66.019-27.313,127.41-69.478,198.159-79.65
					c118.255-17.039,247.75,57.067,352.933,0.458c76.904-41.402,107.878-137.887,178.577-189.157
					c82.651-59.966,195.871-44.097,295.713-65.459c181.985-38.91,320.636-223.743,291.542-422.258
					c-21.261,83.211-125.172,123.697-208.078,101.318c-82.906-22.379-145.771-90.128-193.378-161.589
					s-85.296-150.196-142.72-214.028c-133.259-148.06-345.253-189.767-541.632-223.133
					C2024.401,1818.675,1786.671,1777.477,1571.473,1782.207z"/>
			</g>
			<g>
				<path style="fill:#FC4949;" d="M3351.321,2419.294c-0.407,16.988-2.035,33.772-4.781,50.201
					c-17.598,105.742-80.515,199.075-166.727,256.549c-37.434,24.973-79.294,43.182-123.748,52.693
					c-99.843,21.362-213.062,5.493-295.713,65.46c-70.698,51.269-101.674,147.755-178.577,189.157
					c-105.184,56.61-234.679-17.497-352.933-0.458c-70.749,10.172-132.14,52.337-198.159,79.65
					c-213.113,88.195-455.166,18.056-674.688-52.643c-99.333-31.992-204.67-68.054-269.163-150.043
					c-48.217-61.289-67.951-142.058-120.238-199.94c-48.166-53.303-118.204-80.922-173.746-126.443
					c-38.706-31.738-70.342-80.973-73.14-128.58c-0.61-10.02,0.102-20.04,2.289-29.754c1.424-6.51,3.561-12.919,6.409-19.124
					c1.628-3.611,3.51-7.171,5.646-10.63c30.924,37.536,97.554,15.564,133.716-25.787c36.163-41.351,51.218-96.384,71.461-147.5
					c100.148-252.938,360.258-433.957,632.218-439.907c215.198-4.73,452.928,36.468,690.353,76.853
					c196.38,33.366,408.373,75.073,541.632,223.133c57.424,63.832,95.113,142.567,142.72,214.029
					c47.607,71.461,110.472,139.21,193.378,161.589s186.817-18.107,208.077-101.318
					C3350.71,2377.638,3351.931,2398.593,3351.321,2419.294z"/>
			</g>
			<g>
				<path style="fill:#CE2E51;" d="M3179.816,2726.051c-37.435,24.974-79.294,43.182-123.748,52.693
					c-99.843,21.362-213.062,5.493-295.713,65.46c-70.698,51.269-101.674,147.755-178.577,189.157
					c-105.183,56.609-234.678-17.497-352.933-0.458c-70.749,10.172-132.14,52.337-198.159,79.65
					c-213.113,88.195-455.166,18.056-674.688-52.642c-99.334-31.992-204.67-68.054-269.163-150.044
					c-48.217-61.289-67.952-142.058-120.238-199.939c-48.167-53.303-118.204-80.922-173.746-126.443
					c-52.388-42.928-91.807-117.797-64.443-177.458c16.428,35.146,40.588,66.629,71.309,90.484
					c83.363,64.798,208.688,68.969,296.12,9.766c87.432-59.153,130.157-177.052,101.013-278.471
					c-13.733-47.76-41.555-91.501-47.76-140.787c-6.256-49.336,21.515-109.354,71.156-111.947
					c39.063-2.035,69.834,31.28,94.502,61.696c107.879,133.055,215.757,266.111,323.586,399.167
					c53.965,66.579,111.744,135.955,191.852,166.32c73.191,27.771,154.723,18.921,231.779,5.188
					c77.057-13.732,155.13-31.941,232.746-21.667c77.565,10.325,156.351,56.864,178.272,132.038
					c10.325,35.451,7.273,74.005,19.735,108.744c12.462,34.79,51.32,65.663,84.635,49.794
					c22.125-10.579,31.585-36.621,37.333-60.475c18.463-76.344,20.65-156.554,6.358-233.763
					c-10.986-59.56-25.736-134.988,24.363-168.964c30.72-20.854,73.852-13.275,104.521,7.629
					c30.67,20.904,51.982,52.54,73.598,82.702c63.323,88.195,140.736,172.982,243.223,208.891
					C3103.218,2725.135,3141.924,2729.611,3179.816,2726.051z"/>
			</g>
			<g style="opacity:0.6;">
				<path style="fill:#FFFFFF;" d="M3351.321,2419.294c-49.743,56.05-154.367,86.924-214.283,77.667
					c-149.332-23.04-235.543-174.915-336.505-287.219c-151.01-167.947-368.903-265.094-591.172-304.97
					c-222.319-39.876-450.639-26.754-675.196-3.001c-171.914,18.209-363.665,54.575-461.372,197.142
					c-48.319,70.495-65.765,157.368-103.809,233.865c-38.096,76.548-111.439,148.314-196.379,138.854
					c-19.226-2.136-36.774-7.986-52.897-16.734c-0.61-10.02,0.102-20.04,2.289-29.754c1.424-6.51,3.561-12.919,6.409-19.124
					c1.628-3.611,3.51-7.171,5.646-10.63c30.924,37.536,97.554,15.564,133.716-25.787c36.163-41.351,51.218-96.384,71.461-147.5
					c100.148-252.938,360.258-433.957,632.218-439.907c215.198-4.73,452.928,36.468,690.353,76.853
					c196.38,33.366,408.373,75.073,541.632,223.133c57.424,63.832,95.113,142.567,142.72,214.029
					c47.607,71.461,110.472,139.21,193.378,161.589s186.817-18.107,208.077-101.318
					C3350.71,2377.638,3351.931,2398.593,3351.321,2419.294z"/>
			</g>
			<g>
				<path style="fill:#05015B;" d="M1809.943,3174.367c-147.72,0-302.424-44.282-460.161-95.083
					c-92.817-29.895-208.335-67.102-278.916-156.831c-23.711-30.139-40.706-64.319-57.139-97.375
					c-18.567-37.339-36.103-72.607-62.207-101.506c-26.663-29.507-60.781-50.745-96.904-73.23
					c-25.09-15.618-51.035-31.768-74.639-51.116c-62.949-51.589-106.497-144.3-63.22-214.5c3.447-5.591,9.38-9.172,15.93-9.621
					c6.541-0.462,12.917,2.295,17.092,7.361c6.338,7.695,15.591,11.685,27.497,11.86c24.341,0.327,55.266-15.31,75.2-38.103
					c26.384-30.168,40.689-68.855,55.833-109.814c3.86-10.437,7.849-21.228,12.029-31.782
					c103.123-260.449,370.696-446.631,650.691-452.759h-0.002c213.308-4.685,451.333,35.81,681.521,74.978l12.688,2.158
					c215.696,36.648,420.325,81.785,553.342,229.58c39.653,44.077,70.215,95.034,99.771,144.316
					c14.358,23.938,29.202,48.691,44.758,72.043c56.936,85.461,116.387,135.581,181.75,153.228
					c41.34,11.152,90.186,4.573,127.458-17.19c20.291-11.848,46.409-33.526,55.605-69.524c2.402-9.392,11.045-15.781,20.776-15.281
					c9.68,0.508,17.659,7.776,19.065,17.368c29.727,202.83-108.181,402.502-307.419,445.102
					c-34.021,7.281-69.409,10.381-103.635,13.379c-68.623,6.013-133.44,11.692-184.382,48.652
					c-29.771,21.589-52.156,52.266-75.852,84.743c-29.136,39.932-59.263,81.221-105.029,105.86
					c-67.834,36.509-143.169,23.857-216.023,11.619c-48.13-8.086-97.898-16.438-143.655-9.854
					c-44.966,6.467-86.184,26.934-129.824,48.601c-20.532,10.195-41.763,20.737-63.457,29.712
					C1964.67,3161.908,1888.286,3174.365,1809.943,3174.367z M742.372,2427.287c-12.29,47.632,20.413,105.242,63.396,140.469
					c21.563,17.671,45.261,32.422,70.349,48.04c36.921,22.983,75.098,46.746,105.596,80.498
					c29.856,33.052,49.475,72.51,68.447,110.669c16.233,32.649,31.565,63.486,52.686,90.332
					c62.903,79.966,171.86,115.061,259.412,143.259c233.899,75.33,460.43,136.082,660.669,53.208
					c20.408-8.442,41.003-18.669,60.92-28.56c44.592-22.141,90.703-45.037,142.124-52.429c52.021-7.502,104.98,1.396,156.191,10
					c69.133,11.611,134.431,22.585,189.998-7.319c37.627-20.259,63.767-56.084,91.443-94.014
					c24.517-33.601,49.866-68.342,84.832-93.699c60.059-43.574,133.601-50.017,204.724-56.25
					c32.993-2.891,67.109-5.879,98.674-12.634c156.624-33.489,270.972-175.281,278.857-332.373
					c-10.789,11.26-23.494,21.25-37.856,29.634c-47.041,27.464-106.318,35.44-158.582,21.336
					c-75.305-20.327-142.363-75.92-205.007-169.951c-16.091-24.155-31.189-49.329-45.791-73.674
					c-29.878-49.817-58.098-96.873-95.122-138.027c-124.27-138.074-321.572-181.284-529.915-216.685l-12.693-2.158
					c-228.306-38.845-464.365-78.975-673.804-74.411c0,0,0,0-0.002,0c-264.097,5.781-516.477,181.394-613.748,427.061
					c-4.009,10.122-7.918,20.691-11.697,30.913c-15.757,42.615-32.048,86.68-63.367,122.49
					c-28.098,32.129-69.861,52.556-106.431,52.002C764.067,2434.826,752.526,2432.204,742.372,2427.287z M1571.474,1782.206h0.049
					H1571.474z"/>
			</g>
			<g>
				<path style="fill:#000072;" d="M1809.943,3174.367c-147.72,0-302.424-44.282-460.161-95.083
					c-92.817-29.895-208.335-67.102-278.916-156.831c-23.711-30.139-40.706-64.319-57.139-97.375
					c-18.567-37.339-36.103-72.607-62.207-101.506c-26.663-29.507-60.781-50.745-96.904-73.23
					c-25.09-15.618-51.035-31.768-74.639-51.116c-62.949-51.589-106.497-144.3-63.22-214.5c3.447-5.591,9.38-9.172,15.93-9.621
					c6.541-0.462,12.917,2.295,17.092,7.361c6.338,7.695,15.591,11.685,27.497,11.86c24.341,0.327,55.266-15.31,75.2-38.103
					c26.384-30.168,40.689-68.855,55.833-109.814c3.86-10.437,7.849-21.228,12.029-31.782
					c103.123-260.449,370.696-446.631,650.691-452.759h-0.002c213.308-4.685,451.333,35.81,681.521,74.978l12.688,2.158
					c215.696,36.648,420.325,81.785,553.342,229.58c39.653,44.077,70.215,95.034,99.771,144.316
					c14.358,23.938,29.202,48.691,44.758,72.043c56.936,85.461,116.387,135.581,181.75,153.228
					c41.34,11.152,90.186,4.573,127.458-17.19c20.291-11.848,46.409-33.526,55.605-69.524c2.402-9.392,11.045-15.781,20.776-15.281
					c9.68,0.508,17.659,7.776,19.065,17.368c29.727,202.83-108.181,402.502-307.419,445.102
					c-34.021,7.281-69.409,10.381-103.635,13.379c-68.623,6.013-133.44,11.692-184.382,48.652
					c-29.771,21.589-52.156,52.266-75.852,84.743c-29.136,39.932-59.263,81.221-105.029,105.86
					c-67.834,36.509-143.169,23.857-216.023,11.619c-48.13-8.086-97.898-16.438-143.655-9.854
					c-44.966,6.467-86.184,26.934-129.824,48.601c-20.532,10.195-41.763,20.737-63.457,29.712
					C1964.67,3161.908,1888.286,3174.365,1809.943,3174.367z M742.372,2427.287c-12.29,47.632,20.413,105.242,63.396,140.469
					c21.563,17.671,45.261,32.422,70.349,48.04c36.921,22.983,75.098,46.746,105.596,80.498
					c29.856,33.052,49.475,72.51,68.447,110.669c16.233,32.649,31.565,63.486,52.686,90.332
					c62.903,79.966,171.86,115.061,259.412,143.259c233.899,75.33,460.43,136.082,660.669,53.208
					c20.408-8.442,41.003-18.669,60.92-28.56c44.592-22.141,90.703-45.037,142.124-52.429c52.021-7.502,104.98,1.396,156.191,10
					c69.133,11.611,134.431,22.585,189.998-7.319c37.627-20.259,63.767-56.084,91.443-94.014
					c24.517-33.601,49.866-68.342,84.832-93.699c60.059-43.574,133.601-50.017,204.724-56.25
					c32.993-2.891,67.109-5.879,98.674-12.634c156.624-33.489,270.972-175.281,278.857-332.373
					c-10.789,11.26-23.494,21.25-37.856,29.634c-47.041,27.464-106.318,35.44-158.582,21.336
					c-75.305-20.327-142.363-75.92-205.007-169.951c-16.091-24.155-31.189-49.329-45.791-73.674
					c-29.878-49.817-58.098-96.873-95.122-138.027c-124.27-138.074-321.572-181.284-529.915-216.685l-12.693-2.158
					c-228.306-38.845-464.365-78.975-673.804-74.411c0,0,0,0-0.002,0c-264.097,5.781-516.477,181.394-613.748,427.061
					c-4.009,10.122-7.918,20.691-11.697,30.913c-15.757,42.615-32.048,86.68-63.367,122.49
					c-28.098,32.129-69.861,52.556-106.431,52.002C764.067,2434.826,752.526,2432.204,742.372,2427.287z M1571.474,1782.206h0.049
					H1571.474z"/>
			</g>
			<g>
				<path style="fill:#5FA0FF;" d="M1451.975,1818.312c-9.511,32.806-18.717,65.765-27.72,98.876
					c-15.106,55.898-29.653,112.355-44.047,170.134c-15.818,63.222-31.535,127.918-47.709,194.955
					c-115.559-215.046-231.169-430.091-332.588-647.273c-64.747-29.449-117.543-88.195-131.581-157.927
					c-4.272-21.311-4.527-43.487-1.017-65.053c5.188-32.654,18.921-63.934,40.028-88.755c10.478-12.41,22.838-23.193,36.825-31.738
					c60.679-37.129,149.535-23.956,199.279,40.08c36.315,7.884,67.951,34.79,81.583,69.325
					c13.631,34.586,8.901,75.785-8.698,111.439C1288.046,1620.051,1363.322,1725.336,1451.975,1818.312z"/>
			</g>
			<g style="opacity:0.6;">
				<path style="fill:#FFFFFF;" d="M1451.975,1818.312c-9.511,32.806-18.717,65.765-27.72,98.876l-255.176-392.656
					c47.963-151.519-85.957-182.29-85.957-182.29c-97.961-49.489-170.49,8.138-215.808,69.783
					c5.188-32.654,18.921-63.934,40.028-88.755c10.478-12.41,22.838-23.193,36.825-31.738
					c60.679-37.129,149.535-23.956,199.279,40.08c36.315,7.884,67.951,34.79,81.583,69.325
					c13.631,34.586,8.901,75.785-8.698,111.439C1288.046,1620.051,1363.322,1725.336,1451.975,1818.312z"/>
			</g>
			<g style="opacity:0.2;">
				<path style="fill:#000072;" d="M1380.208,2087.323c-15.818,63.222-31.535,127.918-47.709,194.955
					c-115.559-215.046-231.169-430.091-332.588-647.273c-64.747-29.449-117.543-88.195-131.581-157.927
					c-10.783-53.66,3.967-112.609,39.011-153.807c-11.647,27.008-25.075,52.897-26.703,86.262
					c-1.729,34.535,4.324,71.105,25.991,98.062c21.617,27.008,61.746,40.944,92.467,25.024c30.721-15.92,39.877-65.358,12.258-86.16
					c43.437,11.546,90.179,10.172,132.852-3.917c-53.609,30.721-62.764,116.831-16.836,158.131
					c-24.617,35.858-24.16,84.33-9.511,125.274c14.648,40.944,41.707,76.09,68.308,110.524
					C1250.865,1920.088,1315.511,2003.705,1380.208,2087.323z"/>
			</g>
			<g>
				<path style="fill:#000072;" d="M1332.514,2302.631c-7.417,0-14.338-4.063-17.915-10.715l-1.128-2.102
					c-112.234-208.857-228.242-424.739-328.862-639.544c-70.11-34.382-121.987-98.579-136.199-169.17
					c-16.343-81.182,18.679-166.27,85.166-206.919c70.613-43.206,166.436-25.718,221.406,39.336
					c40.002,11.125,73.699,41.204,88.992,79.958c13.892,35.247,12.192,77.314-4.417,117.024
					c62.542,93.518,138.052,200.32,227.166,293.779c5,5.244,6.833,12.754,4.814,19.712
					c-43.206,148.85-80.139,301.484-119.241,463.079c-1.985,8.196-8.818,14.319-17.182,15.393
					C1334.245,2302.575,1333.376,2302.631,1332.514,2302.631z M1019.411,1291.034c-22.5,0-44.866,5.781-64.602,17.859
					c-51.372,31.406-79.338,100.452-66.511,164.175c12.141,60.308,58.145,115.264,120.059,143.423
					c4.412,2.007,7.961,5.522,10.012,9.912c93.721,200.693,201.357,402.859,306.899,599.392
					c33.721-139.065,66.499-271.821,103.958-401.951c-90.715-96.782-166.941-205.798-229.805-300.185
					c-4.023-6.042-4.524-13.772-1.311-20.281c16.057-32.534,18.98-67.151,8.013-94.976c-11.108-28.144-37.395-50.483-66.97-56.902
					c-4.663-1.013-8.823-3.633-11.75-7.402C1100.69,1309.714,1059.841,1291.034,1019.411,1291.034z"/>
			</g>
			<g>
				<path style="fill:#000072;" d="M1153.96,1355.436c-20.624-4.481-44.252-1.758-65.369,6.487
					c-21.152,8.04-40.404,21.963-51.357,39.103c-2.77,4.258-4.741,8.746-6.396,13.245c-1.462,4.545-2.31,9.156-2.638,13.811
					c-0.018,4.669,0.068,9.379,1.292,14.113c0.336,2.377,1.381,4.723,1.965,7.108l1.436,3.531c0.463,1.103,0.974,2.612,1.343,3.085
					c2.773,5.658,9.319,10.838,17.59,13.182c8.245,2.414,17.672,2.05,26.37-0.876l0.013-0.004l5.079-1.413
					c10.677-2.971,21.741,3.277,24.711,13.954c2.919,10.491-3.091,21.364-13.429,24.557c-4.781,1.472-9.679,4.594-13.628,8.916
					c-3.964,4.31-6.98,9.754-8.385,15.602c-2.936,11.771,1.001,26.958,11.113,36.938l0.248,0.246
					c3.353,3.309,3.389,8.711,0.079,12.064c-2.841,2.879-7.227,3.308-10.532,1.279c-17.25-10.581-29.177-30.225-29.678-52.592
					c-0.183-11.202,2.649-22.368,7.942-32.393c5.302-10.017,13.125-19.063,23.347-25.778l16.361,37.098l-0.023,0.007
					c-16.099,5.456-34.012,6.392-50.972,1.459c-8.464-2.465-16.709-6.395-24.119-12.026c-7.39-5.606-13.946-13.027-18.418-21.896
					c-1.298-2.36-1.815-3.98-2.628-5.891l-2.219-5.588c-1.123-3.933-2.582-7.705-3.303-11.809c-1.953-8.013-2.41-16.513-2.194-24.91
					c0.513-8.427,2.092-16.761,4.69-24.686c2.761-7.822,6.241-15.33,10.597-22.087c8.668-13.543,19.721-24.786,31.873-33.788
					c12.147-9.077,25.355-16.213,39.215-21.52c13.831-5.395,28.35-8.934,43.28-10.519c14.902-1.677,30.347-0.97,45.665,2.29
					c10.99,2.34,18.002,13.145,15.663,24.135c-2.34,10.989-13.146,18.002-24.135,15.662l-0.083-0.018L1153.96,1355.436z"/>
			</g>
			<g>
				<path style="fill:#5FA0FF;" d="M2700.897,1087.32c-236.052,818.628-257.058,1446.624-252.277,1715.024
					c0.611,34.536-9.358,77.056-28.076,124.409c-36.264,91.501-105.539,200.906-195.209,304.766
					c-59.154,68.562-127.207,134.785-200.601,191.802c-61.747,48.065-125.477,51.371-171.355,26.092
					c-5.696-3.154-11.545-6.409-17.496-9.766c-70.902-39.825-155.333-92.518-235.136-154.723
					c-74.31-57.881-144.652-123.951-196.43-195.565c-36.163-50.048-63.273-102.792-76.344-157.317
					c-1.831-7.68-3.408-15.36-4.68-23.091c-101.978-621.639-5.95-1191.499,120.289-1614.164
					c53.66-179.595,112.762-332.537,164.437-451.657c89.264-205.534,301.817-330.248,524.492-304.868
					c120.34,13.733,232.389,44.047,328.875,78.735C2652.782,685.864,2757.253,891.856,2700.897,1087.32z"/>
			</g>
			<g style="opacity:0.2;">
				<path style="fill:#000072;" d="M2700.897,1087.32c-236.052,818.628-257.058,1446.624-252.277,1715.024
					c0.611,34.536-9.358,77.056-28.076,124.409c-36.264,91.501-105.539,200.906-195.209,304.766
					c-59.154,68.562-127.207,134.785-200.601,191.802c-61.747,48.065-125.477,51.371-171.355,26.092
					c-5.696-3.154-11.545-6.409-17.496-9.766c-70.902-39.825-155.333-92.518-235.136-154.723
					c-74.31-57.881-144.652-123.951-196.43-195.565c214.283,157.317,478.054,302.376,599.005,176.34
					c221.098-230.508,292.254-501.756,292.254-501.756c-13.806-502.197,53.372-873.479,101.956-1071.502
					c27.832-113.437-26.957-231.773-132.724-281.331c-277.298-129.933-650.027-126.448-821.226-116.322
					c53.66-179.595,112.762-332.537,164.437-451.657c89.264-205.534,301.817-330.248,524.492-304.868
					c120.34,13.733,232.389,44.047,328.875,78.735C2652.782,685.864,2757.253,891.856,2700.897,1087.32z"/>
			</g>
			<g>
				<path style="fill:#FC4949;" d="M2700.897,1087.32c-30.162,104.624-56.813,206.094-80.363,304.105
					c-158.029-119.831-346.931-203.398-548.397-242.41c-197.447-38.248-399.675-32.246-587.815,17.09
					c26.449-78.836,53.304-151.264,79.396-216.47c1.017-2.695,2.085-5.289,3.154-7.935c14.037-35.044,27.821-67.901,41.147-98.571
					c89.264-205.534,301.817-330.248,524.492-304.868c120.187,13.733,232.084,43.945,328.468,78.582
					c0.153,0.051,0.254,0.102,0.407,0.153c23.244,8.341,45.166,18.717,65.714,30.873
					C2675.771,735.709,2750.437,915.558,2700.897,1087.32z"/>
			</g>
			<g>
				<path style="fill:#CE2E51;" d="M2700.897,1087.32c-30.162,104.624-56.813,206.094-80.363,304.105
					c-158.029-119.831-346.931-203.398-548.397-242.41c-197.447-38.248-399.675-32.246-587.815,17.09
					c26.449-78.836,53.304-151.264,79.396-216.47c62.001,55.542,190.886,66.579,354.053,50.151
					c292.559-29.399,585.373,171.66,658.513-19.633c42.114-110.167-3.154-241.087-49.184-332.283
					C2675.771,735.709,2750.437,915.558,2700.897,1087.32z"/>
			</g>
			<g style="opacity:0.6;">
				<path style="fill:#FFFFFF;" d="M2714.02,1020.589c-12.614-119.831-80.973-229.185-186.919-291.746
					c-20.548-12.156-42.47-22.532-65.714-30.873c-0.153-0.051-0.254-0.102-0.407-0.152
					c-96.384-34.637-208.281-64.849-328.468-78.582c-12.614-1.424-25.227-2.391-37.74-2.848
					c15.157,8.189,24.464,19.226,24.464,31.484c0,25.278-39.825,45.776-89.009,45.776c-49.183,0-89.06-20.498-89.06-45.776
					c0-5.29,1.73-10.376,4.934-15.055c-148.06,39.215-274.402,144.703-338.082,291.288c-13.325,30.67-27.109,63.527-41.147,98.571
					c-1.069,2.645-2.137,5.239-3.154,7.934c-15.97,39.978-32.246,82.651-48.574,127.867c-10.325,2.391-20.599,4.934-30.822,7.629
					c26.449-78.836,53.304-151.264,79.396-216.47c1.017-2.695,2.085-5.289,3.154-7.935c14.037-35.044,27.821-67.901,41.147-98.571
					c89.264-205.534,301.817-330.248,524.492-304.868c120.187,13.733,232.084,43.945,328.468,78.582
					c0.153,0.051,0.254,0.102,0.407,0.153c23.244,8.341,45.166,18.717,65.714,30.873
					C2656.597,724.367,2729.94,870.647,2714.02,1020.589z"/>
			</g>
			<g>
				<path style="fill:#000072;" d="M1915.124,3485.458c-25.098,0-49.377-6.006-71.541-18.218
					c-5.779-3.201-11.672-6.482-17.673-9.866c-87.874-49.355-167.839-101.982-237.647-156.396
					c-157.297-122.505-251.523-245.037-280.054-364.189c-2.034-8.528-3.657-16.545-4.968-24.531
					c-146.895-895.337,116.223-1685.75,286.14-2077.219c45.615-105.032,121.907-190.962,220.632-248.503
					c99.05-57.729,211.365-81.406,324.824-68.479c108.372,12.368,220.562,39.216,333.455,79.802
					c200.64,72.195,311.406,289.67,252.175,495.107l0,0c-231.028,801.199-256.726,1414.656-251.484,1709.024
					c0.647,36.604-9.277,81.099-29.497,132.249c-37.991,95.857-108.564,206.152-198.728,310.586
					c-63.311,73.379-131.785,138.845-203.521,194.573C1998.132,3469.836,1955.576,3485.458,1915.124,3485.458z M2074.169,555.29
					c-193.035,0-368.394,113.887-447.463,295.955c-168.135,387.363-428.518,1169.365-283.313,2054.421
					c1.155,7.019,2.59,14.109,4.392,21.665c26.323,109.934,115.647,224.853,265.486,341.55
					c67.251,52.422,147.678,105.337,232.598,153.035c5.935,3.35,11.741,6.577,17.39,9.707
					c43.152,23.774,98.865,14.678,149.001-24.348c69.626-54.089,136.135-117.688,197.693-189.038
					c86.006-99.617,155.876-208.586,191.699-298.972c17.974-45.471,27.192-85.781,26.648-116.555
					c-5.283-296.648,20.569-914.704,253.071-1721.018l0,0c53.306-184.885-46.338-380.593-226.848-445.544
					c-109.934-39.521-219.045-65.652-324.297-77.661C2111.425,556.342,2092.712,555.29,2074.169,555.29z"/>
			</g>
			<g>
				<path style="fill:#FFC382;" d="M2605.258,1480.696c-10.69,0-21.482-3.336-30.458-10.25
					c-149.413-114.69-331.603-194.47-526.904-230.733c-195.301-36.264-395.393-27.464-578.641,25.433
					c-25.818,7.446-53.048-6.576-60.814-31.332c-7.766-24.756,6.858-50.866,32.676-58.312
					c198.377-57.248,414.605-66.822,625.336-27.705c210.732,39.116,407.595,125.424,569.313,249.542
					c21.028,16.149,24.457,45.595,7.615,65.758C2633.749,1474.7,2619.529,1480.696,2605.258,1480.696z"/>
			</g>
			<g style="opacity:0.2;">
				<path style="fill:#05015B;" d="M2643.375,1454.811c-9.613,11.597-23.854,17.599-38.096,17.599
					c-10.732,0-21.515-3.357-30.467-10.274c-149.433-114.643-331.621-194.446-526.933-230.711s-395.403-27.466-578.609,25.431
					c-25.838,7.426-53.05-6.561-60.831-31.331c-3.917-12.461-2.136-25.279,3.916-35.858c10.783,19.022,34.383,28.839,56.915,22.379
					c183.206-52.897,383.298-61.696,578.609-25.431s377.499,116.017,526.933,230.711c8.952,6.917,19.735,10.274,30.467,10.274
					c14.241,0,28.483-6.002,38.096-17.598c1.78-2.136,3.357-4.425,4.73-6.765C2657.26,1419.309,2656.04,1439.705,2643.375,1454.811z
					"/>
			</g>
			<g>
				<path style="fill:#000072;" d="M2605.258,1501.039c-15.53,0-30.754-5.142-42.874-14.478
					c-146.843-112.715-326.045-191.167-518.201-226.848c-192.2-35.679-389.053-27.043-569.287,24.978
					c-36.311,10.486-74.836-9.619-85.867-44.79c-5.32-16.953-3.601-34.939,4.837-50.645c8.735-16.255,23.513-28.083,41.614-33.303
					c201.379-58.115,420.855-67.852,634.685-28.162c213.843,39.695,413.708,127.322,577.988,253.406
					c14.688,11.282,23.875,27.449,25.869,45.527c1.978,17.896-3.359,35.444-15.027,49.411
					C2645.878,1491.945,2626.276,1501.039,2605.258,1501.039z M1810.217,1197.419c80.31,0,161.248,7.407,241.394,22.29
					c198.44,36.846,383.64,117.969,535.579,234.6c6.487,4.997,13.403,6.042,18.069,6.042c8.875,0,17.063-3.735,22.466-10.249
					c4.541-5.434,6.604-12.131,5.857-18.909c-0.769-6.963-4.395-13.254-10.208-17.72
					c-159.207-122.19-353.074-207.146-560.635-245.676c-207.642-38.54-420.645-29.121-615.979,27.254
					c-7.49,2.158-13.542,6.941-17.048,13.464c-3.208,5.974-3.87,12.795-1.858,19.209c4.473,14.255,20.518,22.275,35.764,17.874
					C1574.641,1213.549,1691.735,1197.419,1810.217,1197.419z"/>
			</g>
			<g>
				<path style="fill:#FFC382;" d="M2420.544,2926.753c-36.264,91.501-105.539,200.906-195.209,304.766
					c-59.154,68.562-127.207,134.785-200.601,191.802c-61.747,48.065-125.477,51.371-171.355,26.092
					c-5.696-3.154-11.545-6.409-17.496-9.766c-69.071-39.164-152.892-93.434-232.542-156.503
					c-72.53-57.424-141.55-122.12-192.819-189.259c0,0,0,0-0.05-0.051c-42.419-55.694-72.631-113.067-82.499-169.422
					c42.266,24.77,97.808,34.841,141.143,11.343c45.827-24.923,80.769-75.887,132.954-78.074
					c56.406-2.339,102.792,55.491,159.097,51.066c63.323-5.035,101.266-85.296,164.691-88.653
					c69.122-3.662,115.458,86.008,184.681,84.788c59.153-1.068,102.284-68.969,160.776-68.359c1.119,0,2.238,0,3.407,0.102
					c44.912,2.492,75.53,44.352,111.846,70.851C2397.097,2915.156,2408.439,2921.565,2420.544,2926.753z"/>
			</g>
			<g>
				<path style="fill:#05015B;" d="M2225.358,3231.527c-59.153,68.562-127.207,134.785-200.6,191.802
					c-61.747,48.065-125.477,51.371-171.355,26.092c-6.815-3.764-144.093-79.905-252.633-164.489c0.865-0.61,1.729-1.221,2.594-1.78
					c97.401-68.41,214.791-108.133,333.758-112.355C2035.845,3167.288,2135.179,3188.294,2225.358,3231.527z"/>
			</g>
			<g style="opacity:0.2;">
				<path style="fill:#000072;" d="M2420.544,2926.753c-36.264,91.501-105.539,200.906-195.209,304.766
					c-59.154,68.562-127.207,134.785-200.601,191.802c-61.747,48.065-125.477,51.371-171.355,26.092
					c-5.696-3.154-11.545-6.409-17.496-9.766c-70.902-39.825-155.333-92.518-235.136-154.723
					c-74.31-57.881-144.652-123.951-196.43-195.565c2.035,1.526,4.12,3.001,6.155,4.476c0.05,0.051,0.05,0.051,0.05,0.051
					c213.164,155.588,473.019,296.629,592.8,171.813c150.603-157.012,231.626-332.944,267.994-429.176c1.119,0,2.238,0,3.407,0.102
					c44.912,2.492,75.53,44.352,111.846,70.851C2397.097,2915.156,2408.439,2921.565,2420.544,2926.753z"/>
			</g>
			<g>
				<path style="fill:#000072;" d="M1915.124,3485.461c-25.098,0-49.377-6.008-71.541-18.22c-5.779-3.201-11.672-6.482-17.673-9.866
					c-80.186-45.466-163.691-101.667-235.176-158.274c-115.393-91.365-258.122-229.927-282.781-371.181l-7.551-43.25l37.878,22.197
					c32.871,19.263,81.961,32.266,121.16,11.013c14.675-7.983,28.462-19.233,43.057-31.145
					c28.728-23.443,58.435-47.683,98.743-49.373c33.276-1.358,61.501,13.577,88.792,28.042
					c24.109,12.781,46.858,24.856,69.565,23.066c24.91-1.98,46.902-20.315,70.186-39.727c26.375-21.987,56.27-46.907,95.024-48.96
					c42.339-2.231,76.47,23.531,106.577,46.27c26.536,20.042,51.501,38.894,78.821,38.494c23.359-0.415,45.576-15.261,69.097-30.979
					c27.6-18.447,58.875-39.387,96.577-37.249c39.333,2.183,68.611,28.181,94.441,51.121c9.68,8.596,18.823,16.716,28.267,23.606
					c9.158,6.685,19.25,12.407,29.995,17.014l18.191,7.795l-7.292,18.398c-37.983,95.84-108.557,206.135-198.721,310.569
					c-63.311,73.379-131.785,138.845-203.521,194.573C1998.132,3469.836,1955.576,3485.461,1915.124,3485.461z M1358.234,2960.126
					c39.546,115.513,159.07,228.933,257.759,307.075c69.9,55.349,151.563,110.31,229.946,154.756
					c5.864,3.308,11.67,6.536,17.319,9.666c43.152,23.774,98.865,14.678,149.001-24.348
					c69.626-54.089,136.135-117.688,197.693-189.038c80.579-93.33,146.992-194.866,184.512-281.641
					c-6.919-3.84-13.56-8.079-19.863-12.681c-11.018-8.04-21.328-17.195-31.301-26.05c-22.886-20.325-44.502-39.521-69.683-40.92
					c-24.067-1.301-47.241,14.099-71.709,30.454c-27.371,18.291-55.674,37.205-90.984,37.832
					c-41.108,0.696-74.624-24.473-104.065-46.709c-26.941-20.344-52.451-39.631-79.902-38.103
					c-25.244,1.335-47.527,19.912-71.121,39.58c-27.144,22.629-55.212,46.028-93.035,49.036
					c-34.458,2.69-63.643-12.737-91.829-27.681c-23.538-12.476-45.786-24.246-68.037-23.337
					c-26.773,1.123-50.059,20.125-74.712,40.244c-15.403,12.568-31.328,25.564-49.368,35.376
					C1440.038,2974.689,1395.805,2972.326,1358.234,2960.126z"/>
			</g>
			<g>
				<path style="fill:#5FA0FF;" d="M2769.103,2591.011c-34.841,81.634-127.359,134.48-215.351,122.985
					c-88.042-11.495-163.878-86.313-176.594-174.152c-9.613-66.426,17.497-135.904,66.375-181.324
					c15.768-14.75,33.823-26.957,53.609-35.705c-6.205-1.475-12.308-2.848-18.26-4.069c-2.747-0.56-5.493-1.119-8.24-1.627
					c-4.882-1.017-9.715-1.882-14.496-2.747c-0.051,0-0.051,0-0.101,0c-22.278-3.866-43.233-6.459-64.239-9.053l16.581-255.125
					c14.343,2.238,28.076,4.781,41.249,7.528c38.706,8.087,72.631,18.26,102.284,29.958
					c72.275,28.534,119.425,66.121,149.332,104.878c53.659,69.63,51.523,142.821,39.164,173.44
					c-5.595,13.834-12.817,26.906-21.464,39.062c-23.804,33.722-58.136,60.119-97.147,73.903c-3.255,1.119-6.51,2.187-9.816,3.154
					c34.078,0.814,59.101,26.194,62.764,53.914c0.966,6.917,0.56,13.936-1.323,20.752c10.477-14.343,21.362-29.042,36.417-38.401
					c15.055-9.359,35.553-12.309,50.302-2.391C2782.887,2531.248,2779.836,2565.834,2769.103,2591.011z"/>
			</g>
			<g style="opacity:0.6;">
				<path style="fill:#FFFFFF;" d="M2740.417,2365.997c-5.595,13.834-12.817,26.906-21.464,39.062
					c7.07-40.537-0.305-84.431-17.903-122.171c-26.602-57.016-73.141-102.182-122.171-141.549
					c-29.297-23.498-59.814-45.471-91.959-64.9c-4.883-2.95-25.533-11.647-37.282-18.717c38.706,8.087,72.631,18.26,102.284,29.958
					c72.275,28.534,119.425,66.121,149.332,104.878C2754.913,2262.187,2752.777,2335.378,2740.417,2365.997z"/>
			</g>
			<g>
				<path style="fill:#000072;" d="M2392.958,2296.177c35.74,0.57,72.277,1.753,108.969,6.865
					c10.793,1.504,18.324,11.473,16.82,22.267c-0.973,6.989-5.496,12.609-11.493,15.295l-1.848,0.819
					c-66.902,29.741-112.822,104.962-109.565,178.387c2.654,73.145,57.258,142.354,127.108,165.927
					c34.663,12.164,72.723,12.186,108.26,1.323c35.494-10.759,67.952-32.169,91.807-60.275c11.904-13.934,21.68-30.15,28.456-46.429
					c2.964-7.71,4.988-16.042,5.348-23.654c0.269-3.831,0.056-7.451-0.525-10.609c-0.518-3.22-1.456-5.919-2.688-7.925
					c-1.26-2.023-2.429-3.707-4.382-4.932c-1.697-1.317-3.611-2.134-6.091-2.621c-4.857-1.05-11.677-0.175-17.794,2.587
					c-5.809,2.463-12.151,7.461-17.931,13.585c-5.884,6.191-11.531,13.793-17.526,22.001c-6.626,9.073-19.354,11.057-28.428,4.43
					c-7.002-5.114-9.783-13.86-7.642-21.757l0.034-0.106c1.448-5.291,1.417-11.077-0.099-16.846
					c-1.505-5.759-4.506-11.416-8.607-16.216c-8.24-9.728-20.552-15.486-33.589-15.833h-0.001l-1.714-0.177
					c-11.15-1.155-19.253-11.129-18.098-22.278c0.876-8.473,6.864-15.186,14.573-17.415c49.866-14.357,93.07-52.576,114.242-100.116
					c0.626-1.442,1.437-3.058,1.918-4.354l1.382-3.767c0.759-2.783,1.616-5.513,2.152-8.549c1.282-5.905,1.934-12.24,2.272-18.608
					c0.573-12.802-0.507-25.933-2.943-38.845c-2.405-12.932-6.228-25.673-11.222-37.998c-5.126-12.283-11.534-24.064-18.826-35.342
					c-7.333-11.273-15.974-21.725-25.1-31.783c-9.484-9.747-19.38-19.218-30.303-27.611c-21.594-17.046-45.491-31.652-70.83-43.726
					c-25.359-12.037-51.893-22.07-79.063-30.509c-27.241-8.268-55.122-14.772-83.236-20.642l-0.376-0.079
					c-5.768-1.204-9.468-6.855-8.263-12.623c1.155-5.532,6.436-9.156,11.952-8.381c14.558,2.079,29.215,3.677,43.699,6.575
					c7.247,1.394,14.564,2.468,21.774,4.133l21.641,5.009c28.737,7.288,57.239,16.329,84.738,28.408
					c27.48,12.02,54.216,26.647,78.638,45.079c12.324,9.044,23.756,19.403,34.747,30.231c10.674,11.177,20.854,22.949,29.692,35.836
					c8.795,12.893,16.633,26.534,23.033,40.931c6.272,14.448,11.21,29.542,14.485,45.092c3.24,15.559,4.792,31.544,4.324,47.773
					c-0.305,8.13-1.012,16.3-2.654,24.626c-0.693,4.132-1.86,8.381-3.013,12.604l-2.256,6.499c-0.775,2.108-1.577,3.756-2.368,5.657
					c-25.175,59.091-77.019,105.164-138.833,123.539l-5.239-39.868h0.002c11.931,0.328,23.995,3.062,34.961,8.236
					c10.974,5.151,20.814,12.653,28.685,21.897c7.869,9.24,13.837,20.247,17.007,32.363c3.185,12.072,3.414,25.385-0.07,37.939
					l-36.035-17.433c6.104-8.315,12.62-17.283,20.844-25.983c8.307-8.658,18.037-17.08,31.082-22.844
					c12.567-5.475,26.895-8.21,42.224-5.231c7.566,1.465,15.356,4.678,21.862,9.513c6.594,4.514,12.031,11.031,15.924,17.783
					c3.971,6.836,6.226,14.061,7.393,20.93c1.241,6.919,1.499,13.616,1.094,20.005c-0.704,12.867-3.691,24.692-8.031,36.09
					c-8.911,21.592-20.714,40.75-35.35,58.033c-29.191,34.319-67.991,59.791-110.959,72.889
					c-21.483,6.517-44.016,9.967-66.692,9.767c-22.678-0.164-45.421-4.159-66.764-11.548
					c-42.799-14.753-80.251-42.411-107.614-77.872c-27.427-35.283-45.055-79.235-46.853-124.862
					c-2.021-45.48,11.147-90.341,34.415-128.463c23.313-38.114,57.62-70.143,99.326-88.773l3.479,38.38
					c-32.563-11.759-66.754-20.194-101.702-28.127c-4.99-1.133-8.116-6.096-6.984-11.085c0.988-4.351,4.888-7.285,9.177-7.214
					L2392.958,2296.177z"/>
			</g>
			<g>
				<path style="fill:#000072;" d="M2490.502,2303.599c14.197-3.154,28.619-6.326,43.884-8.199
					c7.61-0.922,15.339-1.411,22.841-1.501c7.513-0.1,14.794,0.143,21.976,0.426c5.919,0.227,10.533,5.21,10.305,11.129
					c-0.195,5.103-3.942,9.236-8.759,10.133c-14.027,2.605-27.129,5.485-39.425,10.031c-12.38,4.507-24.882,10.393-37.496,16.428
					l-0.044,0.021c-10.203,4.882-22.432,0.568-27.313-9.635c-4.882-10.204-0.568-22.432,9.636-27.313
					C2487.506,2304.447,2489.05,2303.931,2490.502,2303.599z"/>
			</g>
			<g>
				<path style="fill:#000072;" d="M1827.513,1728.191c-10.325,39.367-14.648,89.314-2.035,121.459
					c4.832,12.359,12.207,22.074,22.633,27.567c28.432,14.903,59.814-8.036,73.954-41.961c9.156-22.023,14.242-45.217,17.242-68.817
					c2.849-22.227,3.967-44.81,4.883-67.189c-29.703,19.684-61.543,29.703-93.281,28.941c-31.687-0.763-63.018-12.309-87.687-32.247
					"/>
				<path style="fill:#05015B;" d="M1866.511,1884.384c-6.733,0-13.34-1.643-19.58-4.912c-10.469-5.517-18.481-15.237-23.821-28.896
					c-13.374-34.082-7.807-85.73,1.882-122.793c-23.062-4.734-44.941-14.968-63.367-29.861l3.198-3.955
					c24.346,19.678,54.941,30.93,86.147,31.684c30.779,0.723,62.546-9.124,91.816-28.521l4.148-2.751l-0.203,4.976
					c-0.886,21.68-1.997,44.741-4.902,67.407c-3.398,26.736-9.097,49.458-17.417,69.47c-9.206,22.092-25.203,39.072-42.79,45.425
					C1876.584,1883.476,1871.513,1884.384,1866.511,1884.384z M1828.586,1728.473l1.389,0.364
					c-9.526,36.306-15.085,86.863-2.129,119.885c4.88,12.49,12.1,21.318,21.453,26.245c9.57,5.02,20.154,5.679,30.598,1.904
					c16.267-5.874,31.155-21.799,39.819-42.595c8.145-19.583,13.728-41.877,17.07-68.157c2.661-20.774,3.806-41.948,4.661-62.073
					c-28.987,18.203-60.181,27.415-90.598,26.687C1843.371,1730.553,1835.925,1729.792,1828.586,1728.473z"/>
			</g>
			<g>
				<path style="fill:#000072;" d="M2045.292,1637.783c12.935-15.042,29.039-27.12,46.683-35.672
					c17.635-8.592,36.88-13.636,56.272-14.937c19.381-1.329,38.689,1.145,56.637,6.96c17.975,5.684,34.691,14.709,48.756,26.548
					c3.289,2.769,3.711,7.679,0.942,10.969c-2.355,2.797-6.257,3.521-9.395,1.973l-0.098-0.049
					c-14.771-7.285-30.396-11.997-46.101-14.167c-15.734-2.041-31.505-1.552-46.447,1.49c-29.926,6.205-56.715,22.566-76.909,43.996
					l-0.105,0.112c-7.708,8.179-20.585,8.561-28.763,0.854C2038.823,1658.376,2038.264,1645.981,2045.292,1637.783z"/>
			</g>
			<g>
				<path style="fill:#F786AF;" d="M1939.308,1766.44c-3.001,23.6-8.087,46.793-17.242,68.817
					c-14.14,33.925-45.521,56.864-73.954,41.961c-10.427-5.493-17.802-15.208-22.633-27.567
					c10.427-17.751,23.854-33.773,39.673-46.946C1886.514,1785.005,1912.199,1772.493,1939.308,1766.44z"/>
				<path style="fill:#05015B;" d="M1866.511,1884.384c-6.733,0-13.34-1.643-19.58-4.912c-10.469-5.517-18.481-15.237-23.821-28.896
					l-0.449-1.15l0.625-1.065c10.759-18.315,24.297-34.333,40.237-47.61c21.614-17.91,47.627-30.63,75.232-36.794l3.533-0.789
					l-0.457,3.591c-3.398,26.738-9.097,49.46-17.417,69.473c-9.206,22.092-25.203,39.072-42.79,45.425
					C1876.584,1883.476,1871.513,1884.384,1866.511,1884.384z M1828.305,1849.867c4.868,11.885,11.929,20.325,20.994,25.1
					c9.565,5.015,20.149,5.679,30.598,1.904c16.267-5.874,31.155-21.799,39.819-42.595c7.766-18.674,13.203-39.812,16.589-64.521
					c-25.498,6.26-49.47,18.284-69.531,34.907C1851.601,1817.299,1838.662,1832.504,1828.305,1849.867z"/>
			</g>
			<g>
				<path style="fill:#000072;" d="M1696.871,1639.211c-5.265-6.624-11.464-12.779-18.656-17.778
					c-7.155-5.044-15.172-9.052-23.693-11.713c-8.506-2.776-17.767-3.705-27.198-3.495c-9.435,0.323-19.016,2.199-28.359,5.532
					l-0.334,0.12c-5.275,1.881-11.077-0.87-12.958-6.145c-1.515-4.246-0.015-8.839,3.373-11.448
					c9.828-7.55,21.405-12.997,33.723-16.195c12.321-3.312,25.448-3.969,38.561-2.423c13.098,1.66,25.868,5.969,37.454,12.519
					c11.548,6.592,22.075,15.327,30.288,26.151c6.792,8.951,5.043,21.714-3.909,28.506c-8.823,6.695-21.348,5.091-28.209-3.527
					L1696.871,1639.211z"/>
			</g>
			<g>
				<path style="fill:#000072;" d="M1847.192,1733.353c-3.829,14.79-6.58,30.02-8.03,45.172c-1.387,15.11-1.589,30.308,0.45,44.265
					c1.86,13.882,6.567,26.775,13.081,32.814c1.582,1.566,3.267,2.757,5.051,3.668c0.996,0.327,1.93,0.893,2.888,1.213
					c0.974,0.134,1.884,0.668,2.848,0.701c3.743,0.6,7.777,0.078,12.306-1.905c9.122-3.932,18.391-13.82,24.333-25.262
					c0.829-1.395,1.467-2.9,2.145-4.383l1.028-2.222l1.033-2.565c1.365-3.431,2.648-6.919,3.813-10.461
					c2.372-7.068,4.332-14.349,6.023-21.754c6.636-29.678,8.358-61.625,9.698-94.149l0.002-0.063l31.565,17.791
					c-14.539,10.251-30.858,18.497-48.303,23.883c-17.411,5.427-35.967,7.959-54.336,6.973
					c-18.374-0.923-36.327-5.299-52.787-12.498c-16.315-7.484-31.079-18.55-41.199-33.155c-2.305-3.325-1.477-7.889,1.849-10.193
					c2.048-1.42,4.567-1.65,6.738-0.841l0.253,0.097c15.081,5.745,28.997,10.66,43.147,14.138
					c14.005,3.764,28.344,5.343,42.354,4.715c14.026-0.662,27.832-3.541,41.163-8.243c13.335-4.724,26.176-11.202,38.644-18.794
					l0.701-0.426c9.585-5.836,22.086-2.796,27.921,6.789c2.175,3.573,3.116,7.54,2.946,11.428l-0.002,0.064
					c-1.411,32.966-3.004,66.929-10.659,101.428c-1.958,8.591-4.268,17.176-7.112,25.667c-1.403,4.25-2.948,8.467-4.617,12.659
					l-1.267,3.142l-1.53,3.374c-1.024,2.25-2.03,4.506-3.264,6.664c-4.64,8.751-10.378,17.038-17.509,24.514
					c-7.133,7.437-15.709,14.168-26.237,18.863c-10.41,4.698-23.221,7.002-35.693,4.835c-3.124-0.402-6.066-1.456-9.072-2.278
					c-2.921-0.988-5.653-2.322-8.44-3.569c-5.513-2.821-10.552-6.509-14.813-10.694c-8.619-8.401-14.089-18.303-17.819-27.82
					c-3.713-9.562-5.784-19.033-7.14-28.295c-2.661-18.555-2.272-36.413-0.691-53.948c1.682-17.519,4.784-34.68,9.18-51.66
					c2.816-10.878,13.916-17.413,24.794-14.597c10.878,2.816,17.413,13.917,14.597,24.794v0.001L1847.192,1733.353z"/>
			</g>
			<g>
				<g>
					<path style="fill:#2D6BE8;" d="M1545.51,1708.297c10.936,3.458,22.227,6.154,33.416,8.647
						c-2.441,12.461-4.832,24.871-7.324,37.282c-2.9,15.259-5.392,30.619-8.189,45.878l-4.12,22.939l-3.611,22.99l-7.324,46.03
						l-6.561,46.132c-2.34,15.309-4.018,30.772-6.104,46.183c-1.983,15.36-3.967,30.772-5.544,46.234
						c-7.375,61.696-12.868,123.646-17.548,185.647c-4.984,61.95-7.781,124.104-10.477,186.309l-1.475,46.691l-1.12,46.742
						c-0.661,31.128-1.068,62.306-1.017,93.485c-0.407,62.408,0.61,124.816,2.797,187.376
						c-11.139-61.696-17.496-124.155-22.684-186.614c-2.441-31.28-4.069-62.611-5.646-93.942
						c-1.475-31.382-1.984-62.713-2.492-94.146c-1.17-125.528,4.68-251.31,19.225-376.177
						c7.426-62.459,16.174-124.765,27.924-186.563C1525.878,1795.526,1534.931,1751.733,1545.51,1708.297z"/>
				</g>
				<g>
					<path style="fill:#2D6BE8;" d="M1688.993,1302.417c-24.872,75.174-47.505,150.654-67.342,226.744
						c-8.443-0.152-16.886,0.102-25.227,0.712C1622.312,1452.002,1653.033,1375.862,1688.993,1302.417z"/>
				</g>
				<g>
					<path style="fill:#2D6BE8;" d="M1874.64,1946.434c15.056-3.917,29.754-10.172,43.132-18.209l-3.866,27.313
						c-2.34,15.055-3.967,30.161-6.002,45.268c-1.933,15.055-3.866,30.161-5.442,45.267
						c-7.223,60.424-12.563,121.052-17.192,181.781c-4.883,60.679-7.629,121.561-10.324,182.494l-1.475,45.675l-1.119,45.776
						c-0.661,30.466-1.068,61.035-1.068,91.552c-0.458,61.086,0.509,122.222,2.543,183.511
						c-10.986-60.374-17.293-121.561-22.43-182.748c-2.39-30.67-4.018-61.34-5.595-92.01c-1.475-30.721-1.932-61.442-2.492-92.162
						c-1.221-122.985,4.527-246.173,18.769-368.497C1865.841,2009.707,1869.96,1978.02,1874.64,1946.434z"/>
				</g>
				<g>
					<path style="fill:#2D6BE8;" d="M2057.643,1332.883c-28.28,85.906-53.66,172.219-75.124,259.347
						c-11.088,6.612-22.278,13.479-33.569,19.48C1977.687,1515.936,2013.697,1422.349,2057.643,1332.883z"/>
				</g>
				<g>
					<path style="fill:#2D6BE8;" d="M2286.929,1709.314c-4.221,21.362-8.189,42.775-11.902,64.239
						c-4.984,27.109-8.85,54.422-13.275,81.583c-2.085,13.631-3.713,27.313-5.747,40.944l-2.9,20.447l-2.441,20.497l-4.984,40.995
						l-4.324,41.097c-1.627,13.682-2.645,27.415-3.967,41.097c-1.322,13.733-2.543,27.466-3.509,41.198
						c-4.628,54.881-7.578,109.913-9.918,164.997c-2.594,55.135-3.154,110.269-3.815,165.506l-0.051,41.453l0.356,41.453
						c0.254,27.618,0.762,55.287,1.627,82.905c1.272,55.389,3.815,110.677,7.172,166.218
						c-12.258-54.321-20.193-109.506-27.008-164.743c-3.255-27.669-5.849-55.389-8.291-83.16
						c-2.441-27.771-3.917-55.592-5.442-83.414c-5.29-111.337-4.171-223.133,4.832-334.47
						c4.628-55.643,10.478-111.185,19.073-166.421c8.443-55.185,18.361-110.218,31.483-164.489
						c4.222-18.514,8.748-37.028,13.58-55.389C2267.195,1712.214,2277.316,1711.501,2286.929,1709.314z"/>
				</g>
				<g>
					<path style="fill:#2D6BE8;" d="M2349.795,1450.476c-13.936,49.286-26.957,98.622-38.656,148.162
						c-4.781-4.679-10.02-8.85-15.563-12.665C2311.598,1539.943,2329.603,1494.676,2349.795,1450.476z"/>
				</g>
			</g>
			<g style="opacity:0.2;">
				<path style="fill:#05015B;" d="M2551.922,2087.678c-0.458,0.204-0.864,0.356-1.323,0.56
					c-38.096,15.259-70.393,41.198-87.737,79.243c-22.024,48.421-15.36,108.49,16.022,151.265
					c-31.026-6.51-59.051-9.969-87.076-13.428l16.581-255.125C2464.744,2059.043,2512.147,2071.962,2551.922,2087.678z"/>
			</g>
			<g>
				<path style="fill:none;" d="M2470.644,2317.118c-4.882-1.017-9.715-1.882-14.496-2.747c5.493-0.712,10.936-1.068,16.276-1.017
					C2471.865,2314.626,2471.254,2315.897,2470.644,2317.118z"/>
			</g>
			<g style="opacity:0.2;">
				<path style="fill:#000072;" d="M2769.103,2591.011c-34.841,81.634-127.359,134.48-215.351,122.985
					c-88.042-11.495-163.878-86.313-176.594-174.152c-9.613-66.426,17.497-135.904,66.375-181.324
					c-2.848,4.578-5.442,9.257-7.629,14.14c-9.46,21.209-15.563,43.894-17.395,67.036c-3.713,47.149,11.19,96.18,43.386,130.767
					c32.196,34.637,81.989,53.202,128.427,44.504c5.137-0.966,10.426-2.34,14.292-5.849c8.291-7.375,6.612-21.617-0.56-30.111
					c-6.256-7.426-15.411-11.546-24.567-15.055c25.177,8.799,54.474,4.984,76.446-10.071c7.172-4.934,13.53-10.987,18.819-17.853
					c0.966,6.917,0.56,13.936-1.323,20.752c10.477-14.343,21.362-29.042,36.417-38.401c15.055-9.359,35.553-12.309,50.302-2.391
					C2782.887,2531.248,2779.836,2565.834,2769.103,2591.011z"/>
			</g>
			<g style="opacity:0.2;">
				<path style="fill:#05015B;" d="M2740.417,2365.997c-21.159,52.134-65.562,94.248-118.611,112.965
					c-22.379,1.627-45.166-1.17-67.24-9.156c72.936-21.871,132.395-84.126,150.806-158.029c9.766-39.113,7.884-80.769-4.12-119.221
					C2754.913,2262.187,2752.777,2335.378,2740.417,2365.997z"/>
			</g>
		</g>
	</g>
</g>
</svg>
