<?xml version="1.0" encoding="utf-8"?>
<!-- Generator: Adobe Illustrator 27.5.0, SVG Export Plug-In . SVG Version: 6.00 Build 0)  -->
<svg version="1.1" id="Layer_1" xmlns="http://www.w3.org/2000/svg" xmlns:xlink="http://www.w3.org/1999/xlink" x="0px" y="0px"
	 viewBox="0 0 4000 4000" style="enable-background:new 0 0 4000 4000;" xml:space="preserve">
<g>
	<g>
		<!-- <rect style="fill:#CFCFFF;" width="4000" height="4000"/> -->
	</g>
	<g>
		<g>
			<g>
				<g>
					<path style="fill:#898BA5;" d="M2871.063,2326.003c-8.718-103.026,121.587-205.065,184.05-121.252
						c13.902,18.653,6.38,45.503-14.848,55.02l-13.315,5.969c-10.377,4.652-13.793,17.846-6.81,26.822
						c17.697,22.749,34.402,33.01,48.726,13.254l25.156-69.394c5.447-15.025,23.121-22.305,37.064-14.494
						c29.848,16.721,38.762,54.832,24.76,116.36c146.125-48.708,52.187,190.194-201.791,140.203
						C2889.068,2430.297,2864.933,2379.219,2871.063,2326.003z"/>
				</g>
				<g style="opacity:0.2;">
					<path style="fill:#000072;" d="M3186.811,2331.827c-28.936,51.587-120.45,112.434-261.043,84.761
						c-22.725-16.854-40.35-34.068-53.537-51.595c7.119,39.255,32.872,77.195,81.821,113.498
						C3187.324,2524.406,3285.558,2326.645,3186.811,2331.827z"/>
				</g>
				<g>
					<path style="fill:#000072;" d="M3023.753,2503.569c-22.571,0-46.948-2.285-73.171-7.446c-2.617-0.513-5.09-1.606-7.234-3.198
						c-66.37-49.219-96.755-105.464-90.332-167.202c-5.261-73.779,50.237-141.636,105.244-162.495
						c43.76-16.597,84.319-5.376,111.262,30.786c6.526,8.755,10.134,19.097,10.576,29.756c5.151-9.268,13.455-16.46,23.56-20.215
						c11.992-4.458,25.193-3.477,36.211,2.695c32.605,18.271,45.51,54.639,38.523,108.315c31.902-3.994,47.678,8.091,54.775,16.987
						c14.517,18.198,12.808,46.143-4.573,74.751C3204.315,2446.274,3136.798,2503.564,3023.753,2503.569z M2961.514,2461.62
						c135.918,25.259,213.962-37.104,236.362-73.979c9.666-15.913,10.935-28.984,7.192-33.677
						c-3.074-3.853-15.71-7.896-43.542,1.377c-6.162,2.056-12.944,0.62-17.754-3.735c-4.81-4.36-6.895-10.977-5.454-17.305
						c11.75-51.621,6.36-84.155-16.018-96.694c-2.341-1.318-4.614-0.933-6.111-0.366c-2.461,0.913-4.385,2.847-5.276,5.303
						l-25.151,69.395c-0.574,1.577-1.362,3.066-2.346,4.424c-10.549,14.551-22.534,17.773-30.728,17.91
						c-20.232,0.42-36.365-17.344-46.733-30.674c-6.709-8.623-9.036-19.673-6.384-30.313c2.668-10.708,9.971-19.438,20.029-23.945
						l13.311-5.967c5.315-2.383,9.204-6.997,10.676-12.651c0.818-3.145,1.531-9.307-2.883-15.234
						c-21.653-29.038-49.849-26.172-69.7-18.652c-43.44,16.47-86.77,71.699-82.034,127.656c0.1,1.187,0.083,2.383-0.054,3.569
						C2883.331,2376.547,2907.086,2420.268,2961.514,2461.62z M3034.674,2281.972c9.91,12.646,15.393,15.562,17.056,16.196
						c0.286-0.229,0.701-0.605,1.226-1.196l11.958-32.988c-4.849,5.073-10.691,9.224-17.297,12.188L3034.674,2281.972z
						 M3034.302,2282.138L3034.302,2282.138L3034.302,2282.138L3034.302,2282.138z"/>
				</g>
				<g>
					<path style="fill:#000072;" d="M3029.481,2278.684c-17.444,10.755-23.178,33.408-27.292,52.565
						c-1.395,7.237-2.317,14.62-2.785,22.044c-0.272,4.57-4.209,8.051-8.778,7.764c-4.697-0.283-8.232-4.492-7.704-9.167
						l2.572-23.235c3.647-25.818,7.337-51.872,24.713-73.337C3027.056,2236.687,3050.99,2265.667,3029.481,2278.684
						L3029.481,2278.684z"/>
				</g>
				<g>
					<path style="fill:#000072;" d="M3169.657,2349.785c-23.491,22.289-55.09,30.407-85.559,30.945
						c-3.229,0.076-5.908-2.478-5.985-5.708c-0.062-2.644,1.642-4.922,4.036-5.701c23.905-7.593,47.939-21.021,59.882-42.53
						C3157.65,2302.742,3190.437,2329.912,3169.657,2349.785L3169.657,2349.785z"/>
				</g>
			</g>
			<g>
				<g>
					<path style="fill:#898BA5;" d="M1166.039,2334.29c8.717-103.026-121.587-205.065-184.05-121.252
						c-13.901,18.653-6.38,45.503,14.848,55.019l13.316,5.969c10.377,4.652,13.793,17.846,6.81,26.822
						c-17.697,22.749-34.402,33.01-48.726,13.254l-25.156-69.394c-5.446-15.025-23.121-22.305-37.064-14.494
						c-29.848,16.721-38.762,54.832-24.76,116.36c-146.125-48.708-52.187,190.194,201.791,140.203
						C1148.033,2438.583,1172.168,2387.505,1166.039,2334.29z"/>
				</g>
				<g style="opacity:0.2;">
					<g>
						<path style="fill:#000072;" d="M850.291,2340.113c28.936,51.587,120.451,112.434,261.043,84.761
							c22.725-16.854,40.35-34.068,53.537-51.595c-7.119,39.255-32.872,77.195-81.821,113.498
							C849.777,2532.692,751.543,2334.931,850.291,2340.113z"/>
					</g>
				</g>
				<g>
					<path style="fill:#000072;" d="M1013.348,2511.855c-113.059,0.005-180.559-57.295-204.841-97.271
						c-17.38-28.604-19.089-56.548-4.573-74.746c7.095-8.896,22.866-20.967,54.775-16.987c-6.99-53.677,5.918-90.054,38.525-108.315
						c11.018-6.172,24.219-7.158,36.208-2.695c10.105,3.755,18.408,10.947,23.56,20.215c0.442-10.659,4.05-21.001,10.576-29.756
						c26.948-36.157,67.505-47.373,111.262-30.786c55.007,20.859,110.505,88.716,105.244,162.495
						c6.423,61.738-23.96,117.983-90.33,167.202c-2.144,1.592-4.617,2.686-7.234,3.198
						C1060.308,2509.57,1035.914,2511.855,1013.348,2511.855z M1083.05,2486.777h0.049H1083.05z M846.649,2357.963
						c-8.369,0-12.93,2.173-14.617,4.287c-3.743,4.692-2.473,17.764,7.192,33.677c22.402,36.875,100.444,99.233,236.365,73.979
						c54.426-41.353,78.181-85.073,72.595-133.56c-0.137-1.187-0.154-2.383-0.054-3.569c4.736-55.957-38.594-111.187-82.034-127.656
						c-19.841-7.52-48.047-10.396-69.7,18.652c-4.414,5.928-3.701,12.09-2.883,15.234c1.472,5.654,5.361,10.269,10.674,12.646
						l13.318,5.977c10.054,4.502,17.356,13.228,20.024,23.94c2.651,10.64,0.325,21.689-6.384,30.313
						c-10.271,13.203-26.191,30.679-46.155,30.679c-0.193,0-0.383,0-0.579-0.005c-8.193-0.137-20.178-3.359-30.727-17.91
						c-0.984-1.357-1.773-2.847-2.346-4.424l-25.154-69.395c-0.889-2.456-2.813-4.39-5.273-5.303
						c-1.494-0.566-3.767-0.952-6.111,0.366c-22.38,12.534-27.769,45.068-16.018,96.694c1.44,6.328-0.645,12.944-5.454,17.305
						c-4.807,4.36-11.587,5.796-17.754,3.735C863.008,2359.438,853.538,2357.963,846.649,2357.963z M984.146,2305.258
						c0.525,0.591,0.94,0.967,1.226,1.196c1.663-0.635,7.146-3.55,17.056-16.196l-12.944-5.806
						c-6.604-2.959-12.446-7.109-17.295-12.183L984.146,2305.258z"/>
				</g>
				<g>
					<path style="fill:#000072;" d="M1028.009,2265.024c16.536,21.382,19.989,46.621,23.598,71.917c0,0,2.572,23.235,2.572,23.235
						c1.015,10.8-15.059,12.632-16.447,1.821c-2.449-25.494-7.22-60.057-30.11-75.027c-7.618-3.908-10.625-13.254-6.715-20.871
						C1006.118,2255.358,1021.876,2255.033,1028.009,2265.024L1028.009,2265.024z"/>
				</g>
				<g>
					<path style="fill:#000072;" d="M895.072,2335.078c11.935,21.49,35.906,34.894,59.791,42.502c3.115,0.96,4.85,4.293,3.841,7.393
						c-0.815,2.517-3.185,4.102-5.702,4.043c-30.473-0.54-62.064-8.655-85.559-30.945
						C846.658,2338.273,879.474,2311.001,895.072,2335.078L895.072,2335.078z"/>
				</g>
			</g>
		</g>
		<g>
			<path style="fill:#FFFFFF;" d="M1561.597,3048.022h-67.393C1518.915,3043.17,1541.424,3043.035,1561.597,3048.022z"/>
		</g>
		<g>
			<path style="fill:#FFFFFF;" d="M2540.957,3048.022h-67.393C2493.737,3043.035,2516.246,3043.17,2540.957,3048.022z"/>
		</g>
		<g>
			<path style="fill:#FFFFFF;" d="M2876.037,2416.412c-25.924-43.536-24.127-85.859-22.824-100.73
				c-21.701,8.851-44.659,19.365-68.516,31.81c-31.765,16.624-60.07,34.056-85.006,51.219c-11.996,8.312-28.26,6.469-38.234-4.223
				l-37.965-40.616c64.787-10.603,11.996-44.839-66.989-84.377c-11.412-5.751-18.915-17.747-17.657-30.417
				c2.741-28.26-71.482-57.688-141.571-87.072c-11.682-4.943-16.084-18.601-10.513-30.013c4.538-9.211-0.27-17.657-7.548-25.879
				c-66.36-48.254-92.149-95.654-93.137-153.522c-0.225-14.332,9.345-26.283,22.958-30.911c29.114-9.929-9.21-82.939-24.531-156.487
				c1.034-0.225,2.022-0.539,2.966-0.898c15.995-5.976,17.792-27.452,13.793-56.746c-6.56-48.254-28.755-117.624-28.755-173.74
				h-509.853c0,53.96-20.578,120.23-27.946,168.169c-4.942,32.124-3.999,55.937,13.03,62.317c0.943,0.359,1.932,0.674,2.965,0.898
				c-16.399,78.446-58.812,156.218-17.882,157.61c8.806,0.314,15.68,7.773,16.085,16.579c2.83,63.979-21.611,114.883-92.958,166.731
				c-7.728,8.717-12.625,17.702-6.605,27.632c5.931,9.749,2.561,22.374-7.952,26.777c-71.347,30.012-148.445,60.07-144.986,88.87
				c1.393,11.681-3.684,23.093-14.198,28.305c-80.917,40.301-136.269,75.435-70.538,86.173l-39.358,42.143
				c-9.166,9.795-24.127,11.546-35.134,3.909c-25.34-17.567-54.184-35.449-86.713-52.432c-23.813-12.445-46.816-22.959-68.517-31.81
				c1.348,14.872,3.1,57.194-22.824,100.73c-29.967,50.276-76.739,68.157-89.723,72.65c8.177,11.546,18.241,23.992,30.462,36.617
				c16.579,17.028,33.382,30.417,48.838,40.93c7.593,5.122,7.188,16.399-0.719,21.027c-30.866,18.017,9.884,48.479,143.593,75.121
				c12.49,2.516,21.207,14.242,19.544,26.912c-6.874,52.701,136.404,2.696,260.588-123.51
				c-17.747,44.704-27.047,83.118-11.457,103.156c7.054,9.076,8.986,21.116,4.538,31.72c-21.431,50.859-36.931,95.294-38.19,124.588
				c-0.898,20.218,5.032,33.158,20.398,35.943l-11.008,66.27c-2.516,15.096-17.253,25.026-32.214,21.611
				c-1.797-0.405-3.639-0.809-5.437-1.258c-132.136-29.743-213.278-32.349-198.766,15.815c3.909,12.894-1.303,26.688-13.119,33.157
				c-91.206,49.872-143.368,118.163-97.72,130.789c10.513,2.92,17.477,12.984,17.387,23.902
				c-0.944,113.94,28.62,188.656,59.126,138.426c3.639-5.975,12.49-5.481,15.68,0.809c37.785,74.852,77.053,125.801,120.814,101.629
				c13.344-7.369,29.653-5.796,40.975,4.493c36.932,33.562,74.313,47.715,112.502,24.172c9.839-6.065,21.925-7.278,32.888-3.594
				c45.738,15.365,79.524,12.939,102.483-5.661c7.728-6.246,17.298-9.795,27.227-9.121l188.657,12.805
				c17.792,1.213,35.449-5.032,47.984-17.702c19.858-20.128,32.618-41.918,39.717-65.102h46.861
				c7.054,23.183,19.859,44.974,39.672,65.102c12.535,12.67,30.192,18.916,47.984,17.702l192.071-13.074
				c7.728-0.494,15.456,2.021,21.251,7.189c23.543,21.072,59.261,23.947,108.503,6.694c9.3-3.28,19.454-1.663,27.721,3.684
				c41.515,26.778,82.04,8.851,122.072-30.552c7.054-6.919,18.016-7.459,25.969-1.618c46.322,33.967,87.521-17.343,127.059-95.249
				c3.594-7.054,13.434-7.413,17.747-0.764c29.608,45.783,58.003-25.43,58.003-134.921c0-13.209,7.683-25.655,20.128-30.103
				c40.75-14.692-11.502-81.456-101.09-130.294c-11.457-6.245-16.668-19.679-12.76-32.124
				c14.467-45.737-55.712-46.456-173.56-21.835c-18.196,3.774-37.561,8.132-57.914,13.074l-11.771-70.538
				c-0.225-1.438-0.405-2.921-0.405-4.358c-0.494-9.57,2.741-19.05,9.345-26.103c18.825-20.038,0.494-79.839-30.282-153.028
				c-4.672-11.097-2.426-23.588,4.718-33.337c14.781-20.218,5.526-58.228-12.041-102.393
				c126.655,128.721,273.123,178.143,260.004,120.275c-2.381-10.424,4.942-20.713,15.456-22.734
				c133.484-26.104,177.02-56.071,150.781-74.492c-8.581-6.021-8.806-18.691-0.18-24.666c14.602-10.154,30.327-22.914,45.783-38.864
				c12.265-12.625,22.284-25.071,30.507-36.617C2952.776,2484.569,2906.005,2466.687,2876.037,2416.412z M1494.204,3048.022
				c24.711-4.853,47.22-4.987,67.393,0H1494.204z M2540.957,3048.022h-67.393C2493.737,3043.035,2516.246,3043.17,2540.957,3048.022
				z"/>
		</g>
		<g>
			<path d="M2470.778,2609.695c4.286,10.192,8.297,20.09,12.034,29.691c-0.41-15.309-5.058-33.755-12.162-54.02
				C2467.687,2593.191,2467.45,2601.789,2470.778,2609.695z"/>
		</g>
		<g style="opacity:0.2;">
			<path style="fill:#000072;" d="M1311.118,2689.669c-6.667,51.111,127.893,5.612,249.298-112.302
				c-0.061-0.079-0.267-0.255-0.167-0.246c37.125,3.563,47.552-34.347,11.457-103.156
				c-124.183,126.205-267.462,176.211-260.588,123.51c1.662-12.67-7.054-24.396-19.544-26.912
				c-133.708-26.643-174.459-57.104-143.593-75.121c7.907-4.628,8.312-15.905,0.719-21.027
				c-7.584-5.159-15.496-11.021-23.543-17.656c-23.608,20.36-47.133,29.32-55.756,32.304c8.177,11.546,18.241,23.992,30.462,36.617
				c16.579,17.028,33.382,30.417,48.838,40.93c7.593,5.122,7.188,16.399-0.719,21.027c-30.866,18.017,9.884,48.479,143.593,75.121
				C1304.064,2665.273,1312.781,2676.999,1311.118,2689.669z"/>
		</g>
		<g style="opacity:0.2;">
			<path style="fill:#000072;" d="M2829.086,3065.005c-3.054,64.009-37.702,42.112-58.003,134.921
				c-1.694,7.742-14.152-6.29-17.747,0.764c-39.538,77.906-80.737,129.216-127.059,95.249c-7.953-5.841-18.915-5.301-25.969,1.618
				c-40.032,39.402-80.558,57.329-122.072,30.552c-8.267-5.347-18.421-6.964-27.721-3.684
				c-49.242,17.253-84.96,14.377-108.503-6.694c-5.796-5.167-13.523-7.683-21.251-7.189l-192.071,13.074
				c-17.792,1.213-35.449-5.032-47.984-17.702c-19.813-20.128-32.618-41.918-39.672-65.102h-46.861
				c-7.099,23.184-19.859,44.974-39.717,65.102c-12.535,12.67-30.193,18.916-47.984,17.702l-188.657-12.805
				c-9.929-0.674-19.499,2.875-27.227,9.121c-22.958,18.6-56.745,21.027-102.483,5.661c-10.963-3.685-23.049-2.471-32.888,3.594
				c-38.189,23.543-75.57,9.39-112.502-24.172c-11.322-10.289-27.631-11.861-40.975-4.493
				c-43.761,24.172-83.029-26.777-120.814-101.629c-3.19-6.29-15.094,6.163-15.68-0.809c-6.658-79.175-50.022-79.006-59.126-138.426
				c-0.242-1.578-0.167-3.162-0.445-4.702c-35.315,34.168-46.091,64.934-16.943,72.996c10.513,2.92,17.477,12.984,17.387,23.902
				c-0.944,113.94,28.62,188.656,59.126,138.426c3.639-5.975,12.49-5.481,15.68,0.809c37.785,74.852,77.053,125.801,120.814,101.629
				c13.344-7.369,29.653-5.796,40.975,4.493c36.932,33.562,74.313,47.715,112.502,24.172c9.839-6.065,21.925-7.278,32.888-3.594
				c45.738,15.365,79.524,12.939,102.483-5.661c7.728-6.246,17.298-9.795,27.227-9.121l188.657,12.805
				c17.792,1.213,35.449-5.032,47.984-17.702c19.858-20.128,32.618-41.918,39.717-65.102h46.861
				c7.054,23.183,19.859,44.974,39.672,65.102c12.535,12.67,30.192,18.916,47.984,17.702l192.071-13.074
				c7.728-0.494,15.456,2.021,21.251,7.189c23.543,21.072,59.261,23.947,108.503,6.694c9.3-3.28,19.454-1.663,27.721,3.684
				c41.515,26.778,82.04,8.851,122.072-30.552c7.054-6.919,18.016-7.459,25.969-1.618c46.322,33.967,87.521-17.343,127.059-95.249
				c3.594-7.054,13.434-7.413,17.747-0.764c29.608,45.783,58.003-25.43,58.003-134.921c0-13.209,7.683-25.655,20.128-30.103
				c25.426-9.167,14.639-38.608-18.827-71.316C2829.552,3058.749,2829.237,3061.855,2829.086,3065.005z"/>
		</g>
		<g style="opacity:0.2;">
			<path style="fill:#000072;" d="M2889.516,2472.347c-8.626,5.975-8.402,18.646,0.18,24.666
				c26.239,18.421-17.298,48.388-150.781,74.492c-10.513,2.021-17.837,12.31-15.456,22.734
				c13.119,57.868-133.349,8.446-260.004-120.275c-45.539,58.771-6.917,89.984,12.041,102.393c0.357,0.234-0.45,0.715-0.69,1.065
				c123.877,120.292,261.382,165.159,248.653,109.012c-2.381-10.424,4.942-20.713,15.456-22.734
				c133.484-26.104,177.02-56.071,150.781-74.492c-8.581-6.021-8.806-18.691-0.18-24.666c14.602-10.154,30.327-22.914,45.783-38.864
				c12.265-12.625,22.284-25.071,30.507-36.617c-8.65-2.983-32.174-11.938-55.778-32.286
				C2903.047,2462.533,2896.162,2467.725,2889.516,2472.347z"/>
		</g>
		<g>
			<path d="M1564.787,2608.841c3.277-7.812,3.067-16.398-0.079-24.009c-7.204,20.481-11.938,39.129-12.35,54.582
				C1556.2,2629.544,1560.364,2619.331,1564.787,2608.841z"/>
		</g>
		<g>
			<line style="fill:none;" x1="1994.172" y1="3333.007" x2="1994.127" y2="3333.007"/>
		</g>
		<g>
			<path style="fill:#000072;" d="M1492.861,3041.111c47.112-15.372,100.513-7.442,136.344,29.896
				c10.101,8.489,17.891,6.808,32.126,7.156c13.052,0.433,26.446,2.301,39.78,6.502c21.664,6.375,42.613,21.816,54.254,41.976
				c4.956,7.679,13.003,13.104,21.978,14.399c0,0,8.824,1.861,8.824,1.861c22.148,4.65,82.91,17.491,105.897,22.322
				c0,0,70.839,14.961,70.839,14.961c25.355,5.462,46.248,26.828,51.057,52.378c0,0,0.467,2.358,0.467,2.358l0.928,4.717
				c11.645,54.541,1.53,117-36.317,160.058c-9.209,11.285-20.297,22.297-34.011,28.284c-13.899,6.556-29.513,8.509-44.67,7.031
				c0,0-72-4.648-72-4.648c-23.212-1.683-85.391-5.381-107.998-6.973c-5.585-0.875-11.567,0.147-16.226,3.909
				c-35.048,29.125-83.668,23.317-123.324,9.867c-4.469-1.344-9.344-0.94-13.424,1.124c0,0-7.457,4.165-7.457,4.165
				c-41.517,23.573-88.977,6.843-122.24-22.062c-3.988-2.883-7.215-6.806-11.342-9.444c-4.221-2.611-9.745-2.427-14.182-0.071
				c-68.138,36.145-116.881-47.633-143.601-97.741c0,0-4.279-8.22-4.279-8.22l-2.109-4.114c-0.161-0.33-0.037-0.042,0.083,0.186
				c4.294,7.894,16.278,8.297,20.971,0.444c0.238-0.414-0.163,0.24-0.213,0.308l-0.4,0.618c-1.979,3.291-4.702,6.911-7.296,9.997
				c0,0-2.487,2.61-2.487,2.61c-4.043,4.483-12.169,9.927-19.849,11.633c-9.469,2.136-20.24-0.551-27.64-6.102
				c-37.997-30.46-40.144-123.546-40.584-168.71c0.061-1.111-0.742-2.871-1.489-3.079c-0.071-0.059-0.154-0.051-0.228-0.095
				l-2.977-0.977c-12.344-3.534-24.89-14.41-28.091-27.801c-10.389-44.517,47.076-89.435,77.439-112
				c14.823-10.698,31.407-20.731,47.137-29.457c3.659-2.036,3.522-6.327,2.389-9.91c0,0-0.801-3.267-0.801-3.267
				c-1.622-7.664-1.917-16.076,0.47-23.833c15.776-46.427,85.953-35.74,123.371-32.108c30.575,3.94,60.793,9.85,90.573,16.42
				c0,0,16.289,3.662,16.289,3.662c3.973,0.696,6.872-2.491,7.148-6.284c0.95-6.454,3.899-22.149,4.94-28.891
				c0,0,6.079-35.559,6.079-35.559l0.061-0.361l16.36,23.22c-72.142-16.729-19.963-128.919-4.387-171.772
				c0.001,0,7.1-17.288,7.1-17.288c0.647-2.046,0.723-4.341-0.055-6.653c-1.478-3.474-2.138-3.823-5.127-8.381
				c-21.056-37.155-1.455-82.843,11.531-118.86c0.001,0,33.986,22.166,33.986,22.166c-62.8,61.865-133.36,118.297-219.347,145.578
				c-22.484,6.237-54.282,10.836-70.462-11.205c-6.105-7.974-7.467-18.741-6.441-28.215c0.276-1.635-1.353-3.104-2.889-3.413
				c-42.464-9.466-155.928-29.993-168.952-73.8c-5.345-16.885,5.607-33.271,18.72-40.23c0.171-0.135-0.387,0.188-0.512,0.31
				c-1.505,1.063-2.738,2.818-3.287,4.565c-1.354,3.357,0.451,8.003,3.443,9.91c-32.862-22.244-61.751-50.404-84.742-82.751
				c-8.268-11.262-2.863-28.177,10.424-32.517c30.333-10.639,57.879-31.585,75.277-58.762c17.781-27.02,25.668-60.44,22.854-92.571
				c-1.038-11.826,7.708-22.256,19.534-23.293c3.495-0.308,6.964,0.286,10.009,1.514c56.202,22.914,109.834,52.088,159.767,86.582
				c3.189,1.724,6.137-0.181,8.109-2.735c0,0,2.91-3.12,2.91-3.12c7.135-7.628,27.46-29.464,34.927-37.451l12.351,36.201
				c-12.096-2.08-26.005-5.302-35.966-13.882c-3.949-3.377-8.65-9.182-10.537-17.051c-2.413-13.215,1.715-21.529,8.366-30.603
				c15.651-18.383,35.781-29.296,55.481-40.852c13.534-7.572,33.146-17.818,47.233-24.838c0.881-0.537,1.866-1.741,2.035-4.571
				c-0.703-6.981-0.095-14.292,2.611-20.735c16.157-36.864,79.289-58.735,113.529-74.789c11.002-4.616,31.194-13.173,41.914-17.66
				c-0.604,0.223-1.132,0.651-1.609,1.223c-0.981,1.244-1.209,2.831-0.655,3.626c-4.067-6.654-6.38-14.778-5.802-22.857
				c0.377-12.107,8.368-23.674,14.73-30.777c52.408-39.637,91.029-80.807,87.449-150.035c0.001,0.001-0.01-0.698-0.01-0.698
				c-0.001-0.254-0.007-0.522-0.013-0.342c0.021,0.365,0.089,0.745,0.22,1.086c0.656,1.68,1.95,2.809,4.292,3.215
				c0.195,0.042,0.393,0.076,0.593,0.059l-2.476-0.21c-1.94-0.225-3.58-0.261-5.837-0.85c-41.696-9.523-30.429-59.597-21.265-88.967
				c9.667-32.793,20.341-63.33,26.743-94.058l16.484,25.867c-9.986-2.282-19.192-8.414-25.24-16.724
				c-12.741-19.02-10.726-40.662-8.978-59.51c5.273-41.884,16.614-79.753,23.433-120.131c3.368-19.187,5.76-38.232,5.86-56.401
				c-0.004-12.099,9.829-21.928,21.92-21.919c0,0,509.833,0.085,509.833,0.085c12.061-0.001,21.836,9.789,21.836,21.833
				c0.092,18.179,2.478,37.227,5.84,56.418c3.352,19.221,7.661,38.643,11.981,58.425c6.034,33.942,24.039,88.392,2.449,121.106
				c-6.043,8.321-15.182,14.321-25.149,16.653c0,0,16.36-25.669,16.36-25.669c6.324,30.415,16.832,60.664,26.414,93.052
				c6.205,24.359,19.223,59.889-4.102,81.602c-3.024,2.547-6.269,4.543-9.868,6.005c-4.18,1.338-9.009,4.114-10.008,8.03
				c-0.412,1.442-0.43,1.984-0.379,3.562c0.323,11.21,1.536,22.392,4.312,33.23c10.866,43.83,43.106,75.134,79.793,102.29
				c6.371,5.289,9.9,10.528,14.667,19.789c3.882,8.208,4.942,20.359,1.338,29.22c0,0-1.838,4.399-1.838,4.399
				c-0.009,0.159-0.016,0.276-0.048,0.369c0.043,0.183,0.063,0.144-0.077-0.059c-0.105-0.09-0.204-0.253-0.326-0.295
				c0.044,0.022-0.117-0.024,0.09,0.066l0.771,0.325c9.315,3.74,29.391,12.45,38.782,16.316
				c34.73,16.532,118.195,44.637,115.114,91.708c-0.055,0.744-0.086,1.403-0.025,2.103c0.131,2.034,1.65,4.919,4.293,6.729
				c0.337,0.195,0.641,0.454,0.995,0.618l0.515,0.295l1.519,0.767l6.074,3.064c29.883,16.037,59.395,29.444,85.12,53.01
				c16.031,14.532,22.402,39.063,3.713,54.659c-9.918,8.401-23.663,11.569-35.657,13.65c0,0,12.335-36.155,12.335-36.155
				c8.951,9.758,28.897,30.829,37.757,40.442c2.501,2.548,6.193,3.606,9.436,1.882c0.17-0.068,0.341-0.144,0.488-0.271
				c0.256-0.183,0.103-0.022,0.723-0.444l3.607-2.466c48.151-32.786,99.753-60.521,153.699-82.5
				c11.021-4.504,23.607,0.779,28.113,11.799c1.331,3.257,1.792,6.768,1.52,10.046c-1.41,16.021-0.128,32.556,3.699,48.276
				c11.049,47.647,48.497,87.314,94.484,103.113c13.197,4.42,18.542,21.23,10.291,32.447
				c-20.428,29.814-53.944,62.043-80.489,79.575c2.203-2.448,2.267-6.689-0.384-8.786c13.233,9.044,21.877,28.173,10.584,45.957
				c-23.542,34.832-101.375,50.322-141.049,60.099c-9.487,2.127-19.342,4.08-28.884,5.992c0.167-0.015,0.483-0.164,0.59-0.366
				c0.156-0.132,0.302-0.452,0.41-1.011c0.02-0.271,0.018-0.593-0.009-0.857c0.005-0.029-0.044-0.215-0.048-0.107l0.365,2.144
				c2.607,12.78-0.5,27.445-10.703,36.338c-35.713,30.774-113.382-11.777-147.783-31.427c-50.621-29.972-96-66.998-136.957-108.382
				l33.757-22.019c12.89,35.617,33.084,82.625,10.973,119.7c-3.235,4.28-6.058,9.852-4.18,15.093
				c15.934,41.693,60.79,136.358,27.191,174.524c-3.473,3.575-5.445,8.832-4.499,14.138c1.082,6.057,2.345,14.538,3.37,20.376
				c0,0,8.313,50.22,8.313,50.22l-24.573-16.238c45.604-10.83,91.401-21.05,139.127-26.76
				c36.825-3.225,104.375-12.291,117.631,34.184c1.813,8.01,1.299,14.879-0.354,22.03c0,0-1.332,5.088-1.332,5.088
				c-0.976,3.234,0.322,6.771,3.209,8.428c15.402,8.549,30.511,17.74,44.927,27.981c30.808,22.861,75.182,57.06,80.396,98.647
				c1.559,17.319-10.071,34.165-26.621,39.407c-7.156,2.626-7.842,10.086-7.581,16.749c-1.387,46.474-3.076,93.176-23.552,136.814
				c-11.619,24.37-38.652,37.26-60.744,15.365c-3.62-3.476-6.48-7.343-9.164-11.327c-0.156-0.232-0.304-0.442-0.15-0.193
				c1.695,2.58,5.082,4.184,8.057,3.889c2.824-0.155,6.234-2.156,7.53-5.002c0,0-0.217,0.415-0.217,0.415l-1.022,1.982l-2.043,3.962
				l-4.171,7.905c-26.559,50.625-80.572,135.969-147.48,88.009c0,0.001-0.872-0.578-0.872-0.578
				c-0.109-0.012-0.187-0.103-0.286-0.095c-0.683-0.186-0.753,0.165-1.143,0.474c0,0-0.845,0.798-0.845,0.798
				c-17.797,16.929-36.169,31.881-59.928,40.984c-27.774,11.344-61.336,6.87-85.804-10.072c-5.119-2.861-9.724-1.292-14.781,0.568
				c-38.99,13.329-88.248,18.423-121.86-11.629c-2.301-2.198-5.178-3.177-8.368-2.927l-2.173,0.144l-4.343,0.291l-139.01,9.294
				c-14.462,1.166-39.078,2.782-53.845,3.236c-37.341,0.062-64.198-28.57-82.086-58.513c-26.58-42.911-29.138-95.765-18.629-143.854
				c4.954-25.65,26.185-46.802,51.657-52.036c0,0,17.027-3.657,17.027-3.657l68.105-14.629
				c22.271-4.859,80.552-17.251,102.159-21.946c6.148-0.989,13.4-3.425,16.336-9.253c0,0,2.403-4.16,2.403-4.16
				c19.776-35.666,63.331-49.125,101.317-48.19c11.86,0.511,14.981,0.26,23.494-5.127c37.542-38.372,88.153-47.355,138.332-32.671
				c4.145,1.159,6.566,5.458,5.407,9.604c-1.045,3.748-4.669,6.089-8.409,5.645c-40.335-4.911-81.853,2.563-108.926,33.653
				c-2.188,2.432-4.942,5.227-7.429,7.323c-11.25,9.971-26.871,14.172-41.782,13.969c-26.249,1.259-54.941,7.806-69.46,30.853
				c-0.664,0.879-1.151,1.909-1.716,2.878l-1.924,3.396c-6.448,11.831-17.198,20.358-29.639,24.612
				c-6.371,2.248-37.204,8.265-44.442,10.042c-33.999,7.166-102.176,22.34-136.149,29.56c-6.885,1.786-21.314,3.578-27.103,7.85
				c-6.161,3.93-10.787,10.083-12.821,17.007c-1.14,4.498-2.108,10.161-2.881,14.804c-5.992,35.674-2.744,74.356,16.644,105.347
				c9.924,15.019,21.299,32.748,39.3,38.531c9.505,2.911,16.745,1.817,27.794,1.066c0,0,34.747-2.4,34.747-2.4l138.988-9.602
				c0,0,4.343-0.298,4.343-0.298c11.261-1.241,23.113,1.387,32.562,7.861c1.01,0.669,1.976,1.404,2.935,2.148l2.363,1.975
				c24.784,20.627,58.755,12.641,89.071,2.676c12.885-4.801,28.175-3.378,40.259,3.005c0.993,0.53,1.989,1.055,2.938,1.65
				l1.415,0.869l0.753,0.422c33.097,22.866,70.833-1.783,96.585-27.655c13.309-14.453,36.732-15.992,52.053-4.237
				c0,0,2.616,1.772,2.616,1.772l2.59,1.482c34.61,19.175,71.447-53.138,85.925-78.449c-0.001-0.001,3.936-7.506,3.936-7.506
				l1.938-3.782c1.073-2.188,2.274-4.419,3.698-6.387c11.778-17.264,39.366-15.171,49.448,2.635c1.29,1.815,2.422,3.421,3.998,4.614
				c0.275,0.334-0.078-0.173-0.325-0.063c-0.574-0.347-1.205-0.349-2.242-0.471c-1.938-0.151-3.611,0.933-3.463,0.825
				c7.127-7.865,11.246-22.619,14.292-35.041c6.087-26.124,8.459-54.799,9.051-82.327c0,0,0.112-8.428,0.112-8.428
				c-1.473-24.34,12.084-45.845,34.864-54.086c0.151-0.04-0.552,0.546-0.646,1.025c-0.077,0.647-0.182,0.371-0.085-0.188
				c-1.419-8.81-8.036-17.384-15.461-26.475c-13.498-15.659-30.614-29.866-48.569-42.549c-12.776-9.298-29.586-19.005-43.562-26.916
				c-17.927-10.908-26.088-34.339-19.543-54.058c0,0,0.132-0.588,0.132-0.588l0.3-1.165c0.309-0.85,0.229-1.357,0.347-1.953
				c0.199-1.184,0.01-1.721,0.027-1.868c0.059-0.159-0.132,0.066,0.05-0.02c-0.144,0.081,0.059,0.098-0.033,0.044
				c-0.153-0.056-0.402-0.515-1.458-1.069c-1.901-1.162-5.612-2.546-9.923-3.411c-19.613-3.638-42.429-1.585-63.051,0.705
				c-44.537,5.403-89.582,15.464-134.269,26.204c-10.808,2.607-21.683-4.041-24.291-14.849c-0.106-0.439-0.209-0.95-0.284-1.389
				l-8.423-50.2c-1.316-8.6-3.666-19.215-4.153-27.739c-0.8-14.578,5.161-29.668,14.956-40.566
				c3.642-8.819,1.515-18.277,0.163-28.748c-6.9-35.544-21.979-71.175-35.769-105.154c-6.073-16.921-2.257-36.185,8.174-50.352
				c2.835-4.175,3.213-8.753,3.333-16.35c-1.173-22.448-9.534-44.505-17.983-66.357c-4.185-10.557,0.981-22.51,11.54-26.694
				c7.906-3.131,16.605-1.028,22.217,4.678c57.569,56.515,123.629,109.274,200.851,134.127c10.502,2.579,19.781,4.786,27.479,3.006
				c-0.187-0.029-0.53,0.128-0.589,0.371c-0.569,0.244-0.99,0.722-1.256,1.279c-0.359,0.286-0.634,0.674-0.782,1.106
				c-0.089,0.544-0.291,0.652-0.388,0.894c-0.12,0.186-0.037,0.618-0.063,0.637c-0.219-0.266,0.132-0.072-0.103-0.657
				c-5.152-19.839,6.687-41.472,26.019-47.832c10.886-3.163,22.476-4.654,33.475-7.386c26.581-5.973,53.469-12.803,78.712-22.253
				c12.297-4.833,26.615-10.309,35.311-18.95c-0.723,1.52-1.389,4.124-0.711,6.738c0.248,1.38,0.726,2.292,1.324,3.23
				c0.067,0.166,0.159,0.322,0.272,0.461c0.353,0.334,0.25,0.332,0.313,0.374c0.161,0.061-0.134-0.085-0.25-0.19
				c-17.567-11.629-21.109-38.335-6.657-53.928c9.809-9.349,14.285-10.596,23.46-18.526c20.487-16.603,38.645-36.015,53.901-57.524
				l10.414,32.49c-39.634-13.9-74.434-40.395-97.281-75.713c-23.107-35.108-33.372-77.878-29.814-119.712l29.631,21.846
				c-51.097,20.999-100.014,47.272-145.667,78.376c-6.886,5.036-14.906,9.313-23.51,10.696c-18.545,3.67-37.85-4.354-49.644-18.731
				c0,0-11.623-12.438-11.623-12.438l-23.243-24.88c-11.899-11.841-4.342-33.643,11.963-36.089c3.706-0.653,7.73-1.426,10.616-2.356
				c2.787-0.708,5.42-2.258,4.243-1.538c-0.397,0.369-2.479,2.261-3.195,5.652c-0.941,3.457-0.17,5.981,0.192,6.75
				c-15.987-16.676-43.592-30.731-65.583-42.454c-4-2.102-13.714-7.035-17.627-9.004c-19.424-8.921-33.343-30.081-31.064-52.542
				c0.018-0.254-0.028-0.002-0.028-0.002c-0.159,0.756,0.13,1.755,0.176,1.802c-3.725-5.946-11.819-11.573-19.741-16.565
				c-21.811-13.224-45.441-23.429-69.352-33.735c-9.832-4.099-29.745-12.573-39.296-16.516
				c-22.621-8.746-32.658-37.427-22.135-58.699c0,0,0.327-0.728,0.327-0.728c0.145-0.315,0.013-0.056,0.035-0.112
				c-0.256,0.576-0.49,1.722-0.4,2.612c0.054,0.776,0.237,1.072,0.104,0.776c-0.223-0.61-1.749-2.932-3.977-5.41l3.494,3.174
				c-27.643-20.349-54.647-44.155-74.465-75.603c-17.848-27.721-27.06-61.163-27.604-94.133
				c-1.705-23.616,16.953-46.477,37.258-52.758c-1.617,0.559-3.762,2.977-4.034,3.969c0.77-3.067-0.039-9.756-1.514-17.098
				c-1.411-7.004-3.487-14.533-5.673-22.109c-8.989-30.522-20.156-62.393-27.255-96.292c-1.825-8.713,2.235-17.29,9.48-21.599
				l6.88-4.072c0.775-0.459-0.46,0.354-0.355,0.415c-0.004-0.181,0.055-0.3,0.197-0.393c0.114-0.237,0.211-0.713,0.393-1.028
				c0.22-0.222,0.264-1.089,0.447-1.587l0.259-0.874c1.293-7.149,0.879-15.361-0.21-25.228c-4.963-38.29-16.409-78.32-23.06-117.546
				c-3.581-20.552-6.381-41.699-6.511-63.926l21.833,21.836l-509.833,0.085l21.919-21.921
				c-0.343,62.018-21.45,121.629-29.512,181.489c-1.083,11.412-2.041,20.087,0.888,28.628c0.138,0.083,0.192,0.195,0.183,0.371
				c0.087-0.095-1.191-0.938-0.448-0.486l7.148,4.346c7.549,4.587,11.031,13.342,9.337,21.523
				c-7.164,34.263-18.492,66.472-27.509,97.275c-3.399,12.073-7.753,26.164-6.919,37.99c0.056,0.343,0.07,0.147-0.374-0.695
				c-0.329-0.474-0.639-0.879-1.013-1.34c-0.521-0.422-0.945-0.911-1.494-1.267c-1.062-0.674-1.804-0.879-1.857-0.891
				c-0.272,0.061,0.195-0.032,0.305,0.017l0.139,0.029l0.07,0.022c0,0-0.013,0.015,0.409,0.037
				c19.911,0.764,35.872,17.524,36.88,36.849c0.852,18.901-0.382,38.285-5.002,57.417c-11.996,54.37-54.507,98.375-96.927,128.764
				c0.001,0,3.537-3.21,3.537-3.21c-2.218,2.466-3.784,4.824-3.92,5.325c-0.111,0.259,0.078-0.088,0.131-0.913
				c0.054-0.991-0.144-2.179-0.527-2.791c0,0,0.406,0.715,0.406,0.715l0.846,1.543c2.791,5.24,4.464,11.076,4.775,17.104
				c1.24,18.835-10.984,35.125-28.805,41.001c-27.504,11.828-58.783,24.016-85.142,37.366c-14.799,7.795-32.771,16.216-42.25,28.881
				c-0.042,0.047,0.14-0.177,0.056-0.312c0.181-0.456,0.175-1.111,0.093-1.675c-0.064-0.339-0.004,0.244,0.044,0.74l0.123,1.414
				c1.913,19.64-9.054,40.424-27.524,48.74c-14.292,7.298-29.995,15.059-43.857,22.986c-15.002,8.872-32.423,17.958-43.273,30.561
				c0.074,0-0.042,0.11,0.108-0.229c0.233-0.564,1.168-3.108,0.264-6.514c-0.677-3.506-2.731-5.5-3.252-5.95
				c-0.436-0.303-0.123-0.222-0.304-0.229c0.187,0.085,0.593,0.249,0.85,0.43c4.287,1.852,9.061,2.704,14.299,3.674
				c11.776,2.151,19.58,13.44,17.43,25.215c-0.776,4.255-2.737,7.979-5.492,10.913l-23.32,24.934l-11.661,12.466
				c-5.488,6.36-12.007,12.333-19.767,15.764c-15.104,7.14-33.896,5.528-47.657-3.999c0,0-1.826-1.248-1.826-1.248l-3.423-2.356
				c-45.745-31.24-94.77-57.647-146.029-78.665c0,0,29.541-21.777,29.541-21.777c5.846,62.829-21.816,127.521-72.216,165.654
				c-16.533,12.798-34.876,22.813-54.808,29.781l10.424-32.517c15.272,21.526,33.47,40.928,53.975,57.544
				c5.131,4.148,10.389,8.142,15.792,11.936c5.299,3.549,10.547,7.352,13.879,13.093c7.838,12.49,6.19,29.441-3.738,40.161
				c-1.599,1.794-3.432,3.391-5.326,4.746l-3.149,2.087c-1.309,0.676-1.263,1.467,0.19-1.064c0.949-2.313,1.511-5.328,0.645-7.737
				c0.002-0.425-0.522-1.137-0.446-1.186c7.375,7.022,21.522,13.473,32.947,17.813c25.154,9.605,52.021,16.529,78.563,22.542
				c5.603,1.18,20.824,4.489,25.484,5.407c21.411,3.92,37.879,24.413,36.774,46.231c0,0-0.184,2.49-0.184,2.49
				c-0.063,0.771-0.201,1.958-0.132,1.716c0.017,0.811,0.087,1.055-0.477-0.85c-0.488-0.604-0.896-1.7-1.621-2.097
				c-0.252-0.593-1.231-0.771-0.96-0.83c0.037-0.037-0.186,0.032,0.01,0.066c8.8,1.589,17.593-0.645,26.977-3.056
				c76.441-24.325,143.827-77.856,201-134.076c15.929-16.035,42.195,1.664,33.983,22.165c-6.879,17.467-13.192,34.767-16.494,52.753
				c-1.821,9.711-2.823,21.333,1.385,29.119c12.313,15.484,15.615,37.601,6.729,55.85c-1.758,3.927-4.003,9.798-5.62,13.55
				c-13.213,34.15-28.986,70.523-30.122,105.964c0.077,4.717,1.1,8.657,1.784,9.573c0.332,0.493,0.298,0.442,0.316,0.513
				c0.094,0.012,0.594,0.261,1.664,0.54c10.999,2.085,18.277,12.741,16.3,23.584c-1.543,11.063-7.088,42.53-8.671,53.413
				c-0.001,0-1.447,8.902-1.447,8.902l-0.361,2.227c-2.901,25.349-28.531,44.802-53.771,40.422c0,0-36.369-7.648-36.369-7.648
				c-23.203-4.739-46.454-8.926-69.489-11.79c-21.47-2.449-45.134-4.81-65.579-1.431c-5.186,0.999-9.217,2.214-11.989,4.082
				c-0.199,0.215-0.35,0.33-0.419,0.374c0.034,0.095,0.209-0.334,0.281-0.486c-0.043-0.117,0.103,0.059-0.037,0.1
				c0.139,0.361-0.057,0.461,0.066,1.025c0.177,0.591,0,0.95,0.308,1.78l0.281,1.113l0.12,0.562
				c6.656,20.641-2.134,45.396-21.075,56.582c-2.724,1.656-3.303,1.914-4.71,2.725l-3.749,2.109
				c-2.512,1.387-4.945,2.898-7.423,4.338c-28.193,16.95-57.479,38.452-77.49,63.201c-3.236,4.019-6.046,8.127-8.178,11.987
				c-2.162,3.801-3.478,7.578-3.739,9.363c-0.049,0.754-0.054,1.067-0.133,0.295c-0.144-0.566-0.909-1.743-1.195-2.046
				c-0.566-0.339-0.032-0.1,0.658,0.315c14.775,3.631,27.323,15.251,31.997,29.168c3.016,7.881,2.834,16.702,2.708,24.917
				c0.74,38.726,2.707,80.122,16.842,115.537c2.227,4.523,4.119,8.198,5.891,9.819c-0.27-0.344-0.444-0.261-1.418-0.754
				c-0.703-0.151-2.139-0.593-3.257-0.449c-0.981-0.003-1.932,0.197-2.831,0.544c-1.073,0.383-0.716,0.559,0.134-0.439
				c0.205-0.22,0.421-0.43,0.647-0.632c0.852-1.155,1.605-1.897,2.429-3.279c3.697-6.3,9.175-11.789,16.179-14.287
				c16.948-6.188,33.209,2.741,39.754,18.755c6.701,12.682,13.547,25.995,21.075,37.951c12.943,19.889,39.851,64.177,66.623,51.827
				c19.587-11.657,45.948-10.886,63.981,3.64c11.113,9.76,23.686,20.318,36.5,26.325c17.119,8.446,33.711,9.571,50.448,0.469
				c0,0,8.313-4.583,8.313-4.583c4.158-2.087,8.558-3.669,13.059-4.714c11.142-2.629,22.728-1.832,33.422,1.816
				c25.551,8.393,58.039,15.595,80.986-0.922c6.481-5.102,13.327-9.381,21.303-11.917c8.026-2.727,17.04-3.354,25.524-2.441
				c0,0,35.983,2.568,35.983,2.568c35.959,2.271,108.005,7.918,143.932,10.27c13.832,1.815,28.645-1.69,38.305-12.18
				c39.541-38.898,47.88-92.392,35.907-145.329c-2.405-11.045-11.522-20.039-22.538-22.6l-70.195-15.547
				c-23.077-5.174-83.292-18.368-105.671-23.367c-5.862-1.5-14.225-2.737-19.875-5.063c-11.606-4.366-21.495-11.995-28.93-21.667
				c-4.829-6.414-8.523-13.994-14.636-19.302c-6.615-6.333-15.09-10.987-24.679-14.134c-11.965-4.045-26.083-5.742-39.386-6.084
				c-10.483,0.118-25.023-3.053-34.029-9.681c-5.833-3.392-10.962-9.425-15.559-14.198c-11.054-11.416-24.391-20.041-39.516-25.469
				c-20.242-7.241-43.322-8.386-66.625-6.401c-3.909,0.364-7.383-2.53-7.712-6.448
				C1487.581,3045.095,1489.733,3042.061,1492.861,3041.111L1492.861,3041.111z"/>
		</g>
		<g>
			<path style="fill:#000072;" d="M2041.046,3348.749h-46.912c-8.684,0-15.725-7.041-15.725-15.728s7.041-15.728,15.725-15.728
				h46.912c8.684,0,15.725,7.041,15.725,15.728S2049.73,3348.749,2041.046,3348.749z"/>
		</g>
		<g>
			<path style="fill:#000072;" d="M1561.597,3048.022h-67.393C1518.915,3043.17,1541.469,3043.035,1561.597,3048.022z"/>
		</g>
		<g>
			<path style="fill:#000072;" d="M2540.957,3048.022h-67.393C2493.692,3043.035,2516.246,3043.17,2540.957,3048.022z"/>
		</g>
		<g>
			<line style="fill:none;" x1="1994.172" y1="3333.007" x2="1994.127" y2="3333.007"/>
		</g>
		<g>
			<path style="fill:#000072;" d="M2697.7,2418.315c-31.689,26.353-66.804,42.585-97.924,67.622
				c-9.889,7.879-22.646-5.581-14.302-15.015c25.678-29.204,59.348-52.945,83.928-81.491
				C2689.294,2367.945,2719.615,2398.815,2697.7,2418.315L2697.7,2418.315z"/>
		</g>
		<g>
			<path style="fill:#000072;" d="M1355.674,2389.431c24.586,28.554,58.242,52.28,83.928,81.492
				c8.329,9.467-4.411,22.846-14.253,15.056c-31.199-25.122-66.442-41.376-98.188-67.844
				C1305.664,2398.539,1335.877,2368.036,1355.674,2389.431L1355.674,2389.431z"/>
		</g>
		<g>
			<path style="fill:#000072;" d="M1829.81,1904.878c15.801,34.963,67.103,32.678,83.877-0.962
				c3.696-7.218,14.712-2.966,12.637,4.813c-9.476,39.099-58.595,54.1-90.439,30.748c-10.288-7.245-18.16-19.086-19.287-31.713
				c-0.333-3.748,2.433-7.056,6.18-7.39C1825.948,1900.089,1828.786,1902.03,1829.81,1904.878L1829.81,1904.878z"/>
		</g>
		<g>
			<path style="fill:#000072;" d="M1900.607,1935.791c15.798,34.962,67.106,32.677,83.877-0.965
				c3.695-7.22,14.713-2.962,12.636,4.815c-9.477,39.097-58.595,54.102-90.437,30.746c-10.288-7.243-18.161-19.084-19.287-31.711
				c-0.334-3.748,2.433-7.056,6.179-7.39C1896.745,1931.002,1899.582,1932.941,1900.607,1935.791L1900.607,1935.791z"/>
		</g>
		<g>
			<path style="fill:#000072;" d="M2208.174,2382.866c15.802,34.964,67.104,32.678,83.877-0.965
				c3.695-7.217,14.713-2.962,12.637,4.815c-9.476,39.098-58.595,54.101-90.439,30.749c-10.288-7.245-18.161-19.086-19.287-31.713
				c-0.333-3.748,2.433-7.056,6.18-7.39C2204.313,2378.078,2207.15,2380.018,2208.174,2382.866L2208.174,2382.866z"/>
		</g>
		<g>
			<path style="fill:#000072;" d="M2278.971,2413.779c15.797,34.963,67.107,32.676,83.877-0.965
				c3.695-7.22,14.713-2.962,12.636,4.815c-9.477,39.097-58.596,54.1-90.438,30.746c-10.288-7.243-18.161-19.084-19.287-31.711
				c-0.334-3.748,2.433-7.056,6.179-7.39C2275.109,2408.991,2277.946,2410.929,2278.971,2413.779L2278.971,2413.779z"/>
		</g>
		<g>
			<path style="fill:#000072;" d="M1616.4,2349.866c13.189,32.693,58.091,42.375,86.646,24.595
				c9.718-5.938,17.584-15.117,23.848-26.155c5.116-8.944,18.965-3.277,16.451,6.624c-12.205,51.821-76.999,71.275-119.006,40.533
				c-6.766-4.872-12.703-11.068-17.199-18.234c-4.902-8.71-15.593-30.411,0.036-33.274
				C1611.331,2343.588,1615.054,2346.129,1616.4,2349.866L1616.4,2349.866z"/>
		</g>
		<g>
			<path style="fill:#000072;" d="M1709.519,2390.525c13.191,32.693,58.089,42.374,86.646,24.595
				c9.719-5.938,17.586-15.121,23.848-26.157c5.117-8.94,18.964-3.274,16.451,6.626c-12.207,51.823-76.995,71.272-119.006,40.534
				c-6.767-4.872-12.703-11.069-17.199-18.234c-4.902-8.712-15.594-30.411,0.036-33.274
				C1704.45,2384.248,1708.173,2386.789,1709.519,2390.525L1709.519,2390.525z"/>
		</g>
		<g>
			<path style="fill:#000072;" d="M2129.691,2040.75c15.802,34.964,67.104,32.678,83.877-0.965
				c3.695-7.216,14.713-2.962,12.637,4.815c-9.476,39.098-58.595,54.101-90.438,30.749c-10.288-7.245-18.161-19.086-19.287-31.713
				c-0.333-3.748,2.433-7.056,6.18-7.39C2125.83,2035.961,2128.667,2037.899,2129.691,2040.75L2129.691,2040.75z"/>
		</g>
		<g>
			<path style="fill:#000072;" d="M1878.21,2603.792c15.8,34.962,67.106,32.677,83.877-0.965c3.696-7.219,14.712-2.964,12.637,4.813
				c-9.476,39.1-58.595,54.103-90.438,30.749c-10.288-7.243-18.161-19.084-19.287-31.711c-0.333-3.748,2.433-7.056,6.18-7.39
				C1874.349,2599.003,1877.187,2600.941,1878.21,2603.792L1878.21,2603.792z"/>
		</g>
		<g>
			<path style="fill:#000072;" d="M2243.285,2782.678c15.8,34.962,67.106,32.677,83.879-0.965c3.694-7.22,14.714-2.962,12.636,4.815
				c-9.477,39.098-58.596,54.1-90.438,30.746c-10.289-7.243-18.161-19.084-19.287-31.711c-0.334-3.748,2.433-7.056,6.179-7.39
				C2239.423,2777.89,2242.263,2779.827,2243.285,2782.678L2243.285,2782.678z"/>
		</g>
		<g>
			<path style="fill:#000072;" d="M2146.484,2799.768c15.798,34.962,67.106,32.677,83.877-0.965
				c3.696-7.22,14.713-2.962,12.636,4.815c-9.478,39.097-58.594,54.102-90.437,30.746c-10.288-7.243-18.161-19.084-19.287-31.711
				c-0.334-3.748,2.433-7.056,6.179-7.39C2142.623,2794.979,2145.459,2796.917,2146.484,2799.768L2146.484,2799.768z"/>
		</g>
		<g>
			<path style="fill:#000072;" d="M1659.036,2818.572c15.799,34.963,67.105,32.679,83.877-0.962
				c3.696-7.218,14.712-2.966,12.637,4.813c-9.477,39.101-58.593,54.101-90.438,30.749c-10.288-7.245-18.16-19.086-19.287-31.713
				c-0.333-3.745,2.433-7.056,6.18-7.388C1655.176,2813.783,1658.009,2815.723,1659.036,2818.572L1659.036,2818.572z"/>
		</g>
		<g>
			<path style="fill:#000072;" d="M1786.359,2981.038c15.799,34.96,67.107,32.675,83.877-0.965
				c3.694-7.219,14.713-2.964,12.636,4.813c-9.477,39.101-58.593,54.101-90.437,30.749c-10.289-7.245-18.161-19.086-19.287-31.713
				c-0.334-3.745,2.433-7.053,6.179-7.388C1782.497,2976.247,1785.334,2978.187,1786.359,2981.038L1786.359,2981.038z"/>
		</g>
		<g>
			<path style="fill:#000072;" d="M2159.773,2981.038c15.802,34.959,67.106,32.677,83.877-0.965
				c3.696-7.219,14.712-2.964,12.637,4.813c-9.477,39.101-58.593,54.101-90.438,30.749c-10.288-7.245-18.161-19.086-19.287-31.713
				c-0.333-3.745,2.433-7.053,6.18-7.388C2155.912,2976.246,2158.749,2978.187,2159.773,2981.038L2159.773,2981.038z"/>
		</g>
		<g>
			<path style="fill:#000072;" d="M2095.254,1722.434c15.798,34.961,67.107,32.676,83.877-0.965
				c3.696-7.219,14.712-2.964,12.637,4.813c-9.478,39.1-58.594,54.101-90.439,30.749c-10.288-7.245-18.161-19.084-19.287-31.711
				c-0.333-3.748,2.433-7.056,6.18-7.39C2091.393,1717.643,2094.23,1719.584,2095.254,1722.434L2095.254,1722.434z"/>
		</g>
		<g style="opacity:0.2;">
			<path style="fill:#000072;" d="M2561.804,2951.224c-40.211,58.744-85.949,107.427-143.728,134.24
				c-58.947,4.024-109.267,18.677-128.317,71.909c-130.474,15.484-261.621,30.706-254.208,102.309h-35.943
				c-7.323-82.714-133.394-90.193-245.177-106.727c-20.083-33.461-51.578-55.419-105.852-54.281l-6.425-0.482
				c-70.943-39.542-114.659-88.268-143.817-141.763c1.797,0.438,3.639,0.831,5.437,1.225c14.961,3.324,29.698-6.343,32.214-21.04
				l11.008-64.517c-15.366-2.712-21.296-15.309-20.398-34.992c-17.882,339.306,946.46,317.51,965.118,53.932
				c0,1.4,0.18,2.843,0.405,4.243l11.771,68.672C2524.244,2959.141,2543.608,2954.898,2561.804,2951.224z"/>
		</g>
		<g style="opacity:0.2;">
			<path style="fill:#000072;" d="M2303.61,1666.467c-11.592,3.505-23.677,5.571-36.258,6.156
				c-53.151,23.633-106.617,25.429-160.217,10.513c-49.003,31.312-107.415,37.665-184.208,0
				c-54.678,11.591-107.11,10.783-153.477-24.037c-1.258-0.943-2.516-1.932-3.774-2.921c-10.109,2.831-19.634,4.403-28.62,4.717
				c7.368-47.939,27.946-114.209,27.946-168.169h509.853C2274.856,1548.843,2297.051,1618.213,2303.61,1666.467z"/>
		</g>
		<g>
			<g>
				<path style="fill:#898BA5;" d="M2062.619,3203.493c-131.572-76.845-329.259,20.044-218.06,234.287
					c7.484,61.453,106.706,88.735,156.128,35.943c32.132-29.218,67.188-51.244,107.717-59.804
					C2046.739,3389.482,1998.408,3287.558,2062.619,3203.493z"/>
			</g>
			<g style="opacity:0.2;">
				<g>
					<path style="fill:#000072;" d="M2037.186,3326.949c-28.74,11.156-54.71,29.124-79.005,51.215
						c-37.809,40.387-104.721,33.877-137.45,1.089c5.314,18.393,13.128,37.911,23.829,58.528
						c7.484,61.453,106.706,88.735,156.128,35.943c32.132-29.218,67.188-51.244,107.717-59.804
						C2076.5,3401.276,2048.212,3367.871,2037.186,3326.949z"/>
				</g>
			</g>
			<g>
				<path style="fill:#000072;" d="M1932.694,3524.262c-13.333,0-26.917-2.104-40.212-6.445
					c-37.456-12.231-63.738-39.976-69.585-73.042c-70.205-138.247-12.986-214.956,15.071-241.65
					c59.197-56.313,158.435-64.321,235.984-19.028c5.562,3.252,9.46,8.73,10.708,15.049s-0.276,12.871-4.187,17.988
					c-23.887,31.27-31.489,68.511-21.406,104.858c9.128,32.905,31.743,60.791,57.615,71.045
					c9.214,3.652,14.946,12.905,14.109,22.783c-0.837,9.873-8.047,18.032-17.744,20.078c-32.549,6.875-64.163,24.502-96.626,53.887
					C1995.052,3512.187,1964.61,3524.262,1932.694,3524.262z M1965.994,3200.009c-36.86,0-72.29,12.104-97.058,35.669
					c-44.231,42.08-45.85,111.973-4.438,191.758c1.235,2.383,2.036,4.966,2.361,7.632c2.536,20.82,22.104,34.336,39.57,40.039
					c21.97,7.183,55.547,7.095,77.859-16.733c0.41-0.439,0.84-0.864,1.284-1.27c24.131-21.943,48.228-38.486,72.822-49.927
					c-19.531-19.077-34.7-44.614-42.622-73.174c-11.553-41.655-6.45-83.96,14.236-121.553
					C2009.4,3204.115,1987.457,3200.009,1965.994,3200.009z"/>
			</g>
			<g>
				<path style="fill:#000072;" d="M1839.088,3415.994c19.105-2.766,38.169-12.249,55.337-26.025
					c17.227-13.748,32.614-31.218,46.598-49.946c3.527-4.831,10.337-5.861,15.129-2.278c4.287,3.203,5.504,8.989,3.108,13.586
					c-17.227,33.198-39.754,66.87-71.705,89.299c-11.381,8.007-24.324,14.7-38.214,19.165
					C1818.088,3468.438,1807.202,3422.143,1839.088,3415.994L1839.088,3415.994z"/>
			</g>
		</g>
		<g>
			<g>
				<path style="fill:#FFFFFF;" d="M2239.559,688.131c110.825,35.943,101.839-313.005,221.649-223.147
					c98.844,49.422,109.327,301.024-88.36,404.807L2239.559,688.131z"/>
			</g>
			<g>
				<path style="fill:#FF97AD;" d="M2372.833,869.779l-56.88-77.547c50.725-5.077,78.76-22.375,94.486-42.907
					c39.223-51.084,15.276-139.01,19.409-198.676c1.707-24.306,8.087-43.94,25.295-54.499c12.445-7.638,26.328-7.907,36.167-6.964
					v0.045C2559.738,569.788,2548.011,777.809,2372.833,869.779z"/>
			</g>
			<g>
				<path style="fill:#FFFFFF;" d="M1758.82,697.117c-110.825,35.943-101.839-313.005-221.649-223.147
					c-98.844,49.422-109.327,301.024,88.36,404.807L1758.82,697.117z"/>
			</g>
			<g>
				<path style="fill:#FF97AD;" d="M1682.59,800.993l-57.06,77.772c-65.731-34.505-108.458-85.365-132.54-139.684
					c-39.358-88.69-29.114-186.635,11.547-237.854c8.626-1.887,24.711-4.133,38.729,3.909c5.347,3.01,9.525,7.099,12.805,12.041
					c7.593,11.277,10.423,27.047,11.052,45.423c2.022,59.126-18.825,145.3,20.802,195.71
					C1602.617,777.001,1629.439,795.556,1682.59,800.993z"/>
			</g>
			<g style="opacity:0.2;">
				<path style="fill:#000072;" d="M1682.59,800.993l-57.06,77.772c-65.731-34.505-108.458-85.365-132.54-139.684
					c62.241,32.718,30.701-142.305,63.08-221.904c7.593,11.277,10.423,27.047,11.052,45.423
					c2.022,59.126-18.825,145.3,20.802,195.71C1602.617,777.001,1629.439,795.556,1682.59,800.993z"/>
			</g>
			<g style="opacity:0.2;">
				<path style="fill:#000072;" d="M2316.027,800.993l57.06,77.772c65.731-34.505,108.458-85.365,132.541-139.684
					c-62.241,32.718-30.701-142.305-63.08-221.904c-7.593,11.277-10.424,27.047-11.052,45.423
					c-2.022,59.126,18.825,145.3-20.802,195.71C2396,777.001,2369.177,795.556,2316.027,800.993z"/>
			</g>
			<g>
				<path style="fill:#FCD3AC;" d="M1803.764,794.747c-51.039,8.132-90.487,9.39-121.173,6.245l53.375-72.74L1803.764,794.747z"/>
			</g>
			<g>
				<path style="fill:#FCD3AC;" d="M2261.904,718.548l54.049,73.684c-31.091,3.145-70.718,1.662-121.308-6.47L2261.904,718.548z"/>
			</g>
			<g>
				<path style="fill:#000072;" d="M2372.86,892.258c-6.96,0-13.765-3.235-18.125-9.177l-133.289-181.66
					c-5.767-7.859-5.806-18.543-0.095-26.445c5.71-7.903,15.857-11.226,25.139-8.213c29.673,9.663,49.929-38.252,75.286-106.946
					c22.219-60.2,43.206-117.063,86.123-129.724c20.579-6.069,42.5-0.774,65.186,15.737c48.362,25.356,78.784,88.528,79.546,165.537
					c0.901,91.094-43.11,212.046-169.341,278.315C2379.974,891.423,2376.397,892.258,2372.86,892.258z M2281.812,707.746
					l97.339,132.664c95.474-58.335,129.282-154.934,128.552-228.599c-0.596-60.112-22.788-109.856-56.541-126.733
					c-1.206-0.603-2.354-1.313-3.433-2.122c-11.282-8.464-20.403-11.746-27.119-9.771c-21.289,6.279-40.916,59.458-56.687,102.188
					C2344.7,627.458,2321.988,688.981,2281.812,707.746z"/>
			</g>
			<g>
				<path style="fill:#000072;" d="M2284.317,807.326c-27.053,0-57.617-2.754-91.824-8.245l4.272-26.616
					c105.73,16.97,174.036,6.431,202.993-31.328c24.292-31.675,21.128-81.487,18.069-129.661
					c-3.403-53.606-6.619-104.241,30.261-126.836c12.373-7.578,27.378-10.542,44.578-8.85l-2.656,26.826
					c-11.235-1.121-20.598,0.574-27.839,5.01c-23.03,14.111-20.315,56.87-17.439,102.141c3.215,50.659,6.863,108.076-23.582,147.776
					C2395.631,790.822,2350.518,807.323,2284.317,807.326z"/>
			</g>
			<g>
				<path style="fill:#000072;" d="M1625.518,901.242c-3.538,0-7.114-0.835-10.43-2.576
					c-126.228-66.267-170.242-187.217-169.341-278.311c0.762-77.009,31.184-140.183,79.548-165.542
					c22.686-16.511,44.617-21.804,65.183-15.735c42.917,12.659,63.904,69.522,86.125,129.722
					c25.354,68.696,45.62,116.594,75.283,106.946c9.277-3.008,19.429,0.31,25.139,8.213c5.71,7.903,5.671,18.586-0.095,26.445
					l-133.288,181.66C1639.283,898.007,1632.476,901.242,1625.518,901.242z M1573.721,481.613c-6.177,0-13.911,3.457-23.071,10.327
					c-1.079,0.808-2.227,1.519-3.433,2.122c-33.755,16.877-55.95,66.626-56.543,126.738
					c-0.728,73.662,33.078,170.261,128.552,228.594l97.336-132.661c-40.181-18.76-62.883-80.283-82.109-132.376
					c-15.772-42.727-35.398-95.906-56.687-102.187C1576.505,481.799,1575.155,481.613,1573.721,481.613z"/>
			</g>
			<g>
				<path style="fill:#000072;" d="M1714.847,816.164c-66.194,0-111.516-16.411-137.522-49.512
					c-32.2-40.981-28.55-100.447-25.33-152.915c2.686-43.748,5.22-85.071-15.449-96.926c-7.363-4.221-17.166-5.042-29.126-2.422
					l-5.757-26.333c18.706-4.087,34.946-2.283,48.291,5.369c35.195,20.183,32.161,69.622,28.948,121.965
					c-2.927,47.666-6.243,101.692,19.619,134.607c29.561,37.622,97.883,48.206,203.108,31.45l4.238,26.621
					C1772.027,813.459,1741.712,816.161,1714.847,816.164z"/>
			</g>
		</g>
		<g>
			<g>
				<path style="fill:#FFFFFF;" d="M2109.265,1597.193c-55.697,18.993-116.513,20.944-184.209,0
					c-54.653,11.598-107.096,10.813-153.464-24.025c-1.267-0.952-2.529-1.929-3.787-2.932
					c-56.402,15.83-95.148-7.677-118.313-65.896c-69.77-32.153-113.461-92.567-122.806-190.199
					c-40.063-55.982-40.848-105.455-10.484-149.763c-12.704-76.697-12.247-145.101,29.953-187.204
					c4.04-79.01,30.423-130.686,74.882-160.246c14.318-75.849,49.665-113.415,98.844-125.801
					c21.632-81.246,76.353-111.792,169.232-83.867c53.711-70.841,167.735-85.365,226.142-1.498
					c80.872-35.943,130.294-23.962,170.73,61.403c52.992,19.542,110.825,59.905,110.825,148.265
					c43.884,46.087,76.396,96.86,67.393,164.739c33.125,42.633,60.133,89.868,46.427,167.735
					c11.752,70.22,5.495,139.162-20.967,206.673c-9.977,75.452-35.167,133.36-89.858,157.251
					c-36.555,45.441-79.281,72.5-130.294,74.881C2216.322,1610.349,2162.887,1612.119,2109.265,1597.193z"/>
			</g>
			<g style="opacity:0.2;">
				<g>
					<path style="fill:#000072;" d="M2495.599,1240.04c-9.976,75.452-35.167,133.36-89.858,157.251
						c-36.555,45.441-79.282,72.499-130.294,74.881c-53.19,23.64-106.625,25.41-160.247,10.484
						c-55.697,18.993-116.513,20.944-184.208,0c-54.653,11.598-107.096,10.813-153.464-24.025c-1.267-0.952-2.529-1.929-3.787-2.933
						c-56.402,15.831-95.148-7.677-118.313-65.896c-69.77-32.153-113.461-92.567-122.806-190.199
						c-7.695-10.752-13.91-21.259-18.764-31.54c-27.855,43.367-26.131,91.636,12.829,146.078
						c9.345,97.632,53.036,158.046,122.806,190.199c23.165,58.219,61.91,81.726,118.313,65.896c1.258,1.003,2.52,1.98,3.787,2.933
						c46.368,34.837,98.811,35.622,153.464,24.025c67.695,20.944,128.512,18.993,184.208,0
						c53.622,14.926,107.056,13.156,160.247-10.484c51.012-2.382,93.739-29.441,130.294-74.881
						c54.69-23.891,79.881-81.799,89.858-157.251c22.81-58.192,30.572-117.45,24.763-177.671
						C2510.042,1198.085,2503.794,1219.132,2495.599,1240.04z"/>
				</g>
			</g>
			<g>
				<path style="fill:#FFD7B6;" d="M1731.114,834.15c-580.188,906.763,1165.003,984.422,545.886,0
					c-46.716,42.625-104.116,51.673-178.218,8.237c-52.557,38.056-115.015,39.844-187.204,5.991
					C1857.188,886.906,1796.396,877.383,1731.114,834.15z"/>
			</g>
			<g style="opacity:0.2;">
				<path style="fill:#000072;" d="M1611.684,1157.932c-24.219,486.62,823.918,527.885,799.675,37.121
					C2388.12,1628.575,1635.107,1592.039,1611.684,1157.932z"/>
			</g>
			<g style="opacity:0.2;">
				<path style="fill:#000072;" d="M1731.114,834.15c2.255,6.483,19.186,52.6,69.64,71.886
					c51.548,19.704,95.799-4.763,101.542-8.069c76.746,33.853,143.147,32.065,199.022-5.991
					c49.077,30.465,106.379,29.995,141.986,0.581c23.092-19.076,30.877-45.218,33.697-58.408
					c34.259,69.268,34.259,69.268,102.777,207.803C2311.259,903.418,2311.259,903.418,2277,834.15
					c-46.716,42.625-104.116,51.673-178.218,8.237c-52.557,38.056-115.015,39.844-187.204,5.991
					C1857.188,886.906,1796.396,877.383,1731.114,834.15c-23.408,43.352-23.408,43.352-70.224,130.057
					C1707.706,877.503,1707.706,877.503,1731.114,834.15z"/>
			</g>
			<g>
				<path style="fill:#000072;" d="M2019.403,1634.55c-31.199,0-63.052-4.734-95.386-14.209
					c-43.545,8.65-104.978,13.691-161.194-25.781c-58.076,11.956-103.984-13.855-130.723-73.667
					c-73.896-37.178-116.643-103.953-127.161-198.662c-47.549-69.839-34.566-125.852-12.275-162.773
					c-9.893-63.867-13.472-140.337,31.565-191.724c5.391-74.873,31.118-129.963,76.57-164.006
					c15.034-68.865,48.953-112.732,100.986-130.642c12.673-39.072,33.521-66.914,62.073-82.859
					c30.938-17.268,70.352-20.095,117.302-8.442c32.817-35.73,80.857-56.917,129.067-55.877
					c44.172,0.894,83.408,19.407,112.219,52.564c83.877-32.144,138.625-10.386,179.844,70.923
					c73.567,29.9,113.743,83.899,116.794,156.953c36.66,39.756,74.573,93.755,68.413,167.322
					c32.373,43.294,58.755,95.012,45.903,174.302c11.587,73.059,4.246,144.436-21.831,212.253
					c-12.173,88.354-44.155,144.006-97.661,169.841c-40.496,48.657-87.246,75.154-139.089,78.836
					c-52.322,22.285-107.737,26.221-164.883,11.716C2080.538,1629.904,2050.289,1634.55,2019.403,1634.55z M1925.057,1574.731
					c2.241,0,4.48,0.334,6.638,1.004c60.293,18.645,116.008,18.716,170.32,0.198c4.29-1.462,8.911-1.589,13.274-0.381
					c51.309,14.28,98.774,11.221,145.1-9.37c2.551-1.133,5.288-1.78,8.076-1.909c42.175-1.97,79.412-23.731,113.835-66.524
					c2.273-2.825,5.193-5.056,8.511-6.506c42.085-18.384,66.418-62.747,76.582-139.609c0.237-1.799,0.693-3.564,1.355-5.254
					c24.331-62.07,30.967-127.6,19.727-194.766c-0.422-2.517-0.41-5.088,0.032-7.603c11.467-65.142-7.585-105.713-42.041-150.056
					c-3.689-4.749-5.32-10.776-4.531-16.738c6.677-50.337-11.685-94.089-61.394-146.296c-3.977-4.177-6.194-9.724-6.194-15.491
					c0-61.731-31.445-103.333-96.133-127.188c-5.515-2.034-10.015-6.148-12.532-11.46c-33.557-70.847-67.891-83.12-141.301-50.493
					c-9.836,4.382-21.401,1.152-27.559-7.688c-20.955-30.09-52.031-47.056-87.503-47.773
					c-39.121-0.684-78.318,18.372-102.305,50.005c-5.667,7.476-15.379,10.64-24.368,7.942
					c-41.262-12.407-73.857-12.178-96.885,0.681c-20.432,11.409-35.293,34.102-44.172,67.454c-2.1,7.883-8.311,14.011-16.223,16.003
					c-27.869,7.019-66.716,25.869-82.253,108.184c-1.123,5.945-4.597,11.189-9.636,14.539
					c-40.117,26.675-61.34,73.347-64.888,142.688c-0.283,5.562-2.625,10.82-6.567,14.756
					c-30.52,30.449-37.815,82.146-23.655,167.627c0.947,5.723-0.354,11.587-3.633,16.372
					c-26.204,38.233-22.954,77.632,10.222,123.989c2.305,3.22,3.716,6.992,4.094,10.933c8.171,85.4,44.102,141.643,109.844,171.938
					c5.234,2.412,9.341,6.743,11.472,12.097c19.36,48.66,47.532,64.871,91.37,52.573c6.951-1.956,14.429-0.437,20.083,4.07
					c1.084,0.867,2.175,1.709,3.269,2.532c34.968,26.274,76.694,32.449,135.305,20.01
					C1921.932,1574.892,1923.497,1574.731,1925.057,1574.731z"/>
			</g>
			<g>
				<path style="fill:#000072;" d="M2036.129,1557.121c-5.574,0-11.164-0.09-16.772-0.266
					c-114.507-3.635-224.255-44.06-301.108-110.916c-73.345-63.801-114.858-148.965-120.061-246.282
					c-5.981-111.929,34.922-237.346,121.575-372.773c1.946-3.042,5.032-5.176,8.565-5.923c3.535-0.737,7.219-0.042,10.229,1.951
					c64.568,42.754,118.611,47.488,165.232,14.468c3.96-2.798,9.121-3.264,13.513-1.206c68.24,32.002,125.017,30.464,173.577-4.705
					c4.331-3.135,10.107-3.415,14.722-0.71c64.434,37.768,116.008,35.688,162.317-6.565c2.947-2.693,6.951-3.935,10.896-3.401
					c3.958,0.537,7.473,2.8,9.597,6.182c91.843,146.033,137.937,277.898,137.002,391.931
					c-0.815,99.609-38.469,184.133-108.889,244.433C2246.436,1523.351,2145.001,1557.121,2036.129,1557.121z M1735.303,852.765
					c-146.96,236.155-146.943,444.456,0.637,572.834c151.414,131.714,419.78,139.939,563.047,17.263
					c64.321-55.078,98.716-132.598,99.468-224.18c0.864-105.422-41.089-227.913-124.714-364.238
					c-50.239,38.413-108.752,39.709-174.263,3.831c-53.196,34.88-115.908,36.726-186.628,5.491
					C1861.304,896.679,1801.663,892.978,1735.303,852.765z"/>
			</g>
			<g>
				<g>
					<path style="fill:#000072;" d="M1723.857,1034.075c17.433,33.334,50.047,54.967,87.023,55.415
						c36.777,0.688,68.649-19.333,82.953-54.422c1.918-4.718,7.365-6.955,12.042-4.931c3.627,1.567,5.713,5.225,5.475,8.953
						c-7.054,81.386-109.211,107.595-167.911,59.406c-18.817-14.862-31.82-36.237-36.519-58.412
						C1704.806,1029.79,1719.111,1024.824,1723.857,1034.075L1723.857,1034.075z"/>
				</g>
				<g>
					<path style="fill:#000072;" d="M1738.964,1080.793c-19.911,14.014-46.887,24.719-71.189,16.003
						c-5.185-1.782-3.007-9.725,2.348-8.62c21.978,4.501,41.877-7.262,57.81-21.573
						C1737.55,1058.484,1749.23,1073.441,1738.964,1080.793L1738.964,1080.793z"/>
				</g>
				<g>
					<path style="fill:#000072;" d="M1768.802,1103.813c-13.718,22.153-39.297,40.05-66.127,37.592
						c-4.869-0.293-4.921-7.618-0.063-7.973c23.627-1.449,41.092-17.948,50.606-38.572
						C1759.141,1083.647,1775.514,1093.009,1768.802,1103.813L1768.802,1103.813z"/>
				</g>
			</g>
			<g>
				<g>
					<path style="fill:#000072;" d="M2314.001,1040.083c-20.668,87.377-146.844,111.191-193.433,31.943
						c-5.798-10.351-9.516-21.628-10.998-32.937c-0.647-4.944,2.836-9.475,7.778-10.122c4.362-0.573,8.408,2.079,9.739,6.101
						c6.34,18.062,17.318,33.115,32.136,42.893c30.053,19.889,72.179,17.771,101.943-2.061
						c15.238-10.005,27.37-24.603,35.979-41.992C2301.901,1024.376,2316.54,1029.788,2314.001,1040.083L2314.001,1040.083z"/>
				</g>
				<g>
					<path style="fill:#000072;" d="M2292.988,1066.604c15.931,14.309,35.837,26.075,57.81,21.572
						c5.384-1.109,7.525,6.903,2.322,8.63c-11.896,4.116-25.46,4.004-37.669,0.474c-12.296-3.462-23.362-9.612-33.492-16.487
						c-4.119-2.791-5.195-8.389-2.406-12.507C2282.543,1063.798,2288.982,1063.001,2292.988,1066.604L2292.988,1066.604z"/>
				</g>
				<g>
					<path style="fill:#000072;" d="M2267.703,1094.861c9.512,20.624,26.981,37.124,50.607,38.571
						c2.199,0.174,3.844,2.095,3.673,4.295c-0.158,2.025-1.797,3.574-3.766,3.682c-12.859,0.796-26.547-2.305-38.068-9.426
						c-11.605-7.037-20.772-17.277-28.046-28.193C2245.445,1093.01,2261.761,1083.64,2267.703,1094.861L2267.703,1094.861z"/>
				</g>
			</g>
			<g>
				
					<ellipse transform="matrix(0.2663 -0.9639 0.9639 0.2663 244.4933 2767.9309)" style="fill:#000072;" cx="1940.349" cy="1223.371" rx="17.086" ry="29.093"/>
			</g>
			<g>
				
					<ellipse transform="matrix(0.9639 -0.2663 0.2663 0.9639 -249.8831 603.682)" style="fill:#000072;" cx="2101.344" cy="1223.371" rx="29.093" ry="17.086"/>
			</g>
			<g>
				<path style="fill:#000072;" d="M2024.681,1264.833c-23.941,0-48.787-13.918-73.899-41.409c-2.51-2.749-2.317-7.012,0.43-9.521
					c2.756-2.512,7.012-2.312,9.522,0.43c23.152,25.344,45.349,37.859,65.82,36.985c19.097-0.745,38.084-13.052,56.431-36.582
					c2.285-2.934,6.523-3.459,9.458-1.172c2.937,2.29,3.459,6.523,1.172,9.458c-20.903,26.807-43.289,40.859-66.536,41.765
					C2026.282,1264.819,2025.479,1264.833,2024.681,1264.833z"/>
			</g>
			<g>
				<path style="fill:#000072;" d="M2033.263,1262.568c-0.003,0.213,0.002,58.513,0,58.708c0,3.301-1.863,6.172-4.584,7.625
					c-12.906,6.853-26.545,12.712-41.031,16.401c-28.864,8.023-62.315,3.647-86.455-14.713
					c-12.158-8.734-22.267-19.626-30.935-31.256c-1.923-2.581-1.39-6.23,1.19-8.154c2.542-1.898,6.13-1.399,8.068,1.077
					c25.456,33.135,62.812,50.526,103.831,37.228c12.656-3.729,24.853-9.479,36.528-16.249l-4.583,7.832v-58.499
					C2015.556,1250.757,2032.972,1250.69,2033.263,1262.568L2033.263,1262.568z"/>
			</g>
			<g>
				<path style="fill:#000072;" d="M2033.263,1262.568v58.499l-4.583-7.832c51.88,31.002,101.684,28.513,140.09-21.183
					c2.109-2.706,6.039-3.166,8.715-1.017c2.599,2.085,3.057,5.854,1.08,8.503c-8.707,11.636-18.857,22.529-31.061,31.26
					c-24.216,18.341-57.734,22.678-86.621,14.584c-14.486-3.717-28.115-9.604-41.008-16.481c-2.916-1.555-4.579-4.541-4.586-7.629
					c-0.152-0.164,0.115-58.516,0.002-58.704C2015.511,1250.773,2033.045,1250.735,2033.263,1262.568L2033.263,1262.568z"/>
			</g>
			<g>
				<path style="fill:#000072;" d="M1714.467,796.692c14.55,23.242,36.396,39.056,60.387,51.731
					c10.671,6.105,1.521,21.827-9.073,15.513c-12.107-7.729-24.026-16.184-34.715-26.352
					c-10.719-10.115-19.812-22.102-26.737-34.866c-1.564-2.859-0.513-6.445,2.346-8.008
					C1709.397,793.22,1712.8,794.136,1714.467,796.692L1714.467,796.692z"/>
			</g>
			<g>
				<path style="fill:#000072;" d="M1881.705,777.861c9.799,52.811,67.695,79.858,117.322,81.716
					c25.955,0.979,52.353-3.999,74.44-16.777c22.299-12.468,38.787-33.579,47.366-58.42c2.729-7.984,14.826-4.577,12.964,3.692
					c-25.134,111.573-190.801,119.291-250.568,33.713c-8.327-12.549-13.923-27.185-15.162-42.17
					c-0.32-3.787,2.489-7.117,6.277-7.437C1877.915,771.875,1881.089,774.399,1881.705,777.861L1881.705,777.861z"/>
			</g>
			<g>
				<path style="fill:#000072;" d="M2262.966,827.085c11.228-7.339,16.586-21.678,19.301-34.949
					c1.507-6.963,11.878-5.509,11.437,1.57c-1.118,17.246-5.833,35.441-19.84,47.69
					C2264.119,849.536,2252.514,834.325,2262.966,827.085L2262.966,827.085z"/>
			</g>
			<g>
				
					<ellipse transform="matrix(0.2663 -0.9639 0.9639 0.2663 66.3233 2576.823)" style="fill:#FF97AD;" cx="1725.739" cy="1244.847" rx="38.005" ry="64.382"/>
			</g>
			<g>
				
					<ellipse transform="matrix(0.9639 -0.2663 0.2663 0.9639 -248.5586 656.4135)" style="fill:#FF97AD;" cx="2296.459" cy="1244.847" rx="64.382" ry="38.005"/>
			</g>
		</g>
		<g>
			<g>
				<path style="fill:#FFFFFF;" d="M1274.068,968.724c23.317-38.149,34.814-83.944,29.895-131.854
					c-11.94-116.285-115.886-200.875-232.172-188.935S870.916,763.821,882.856,880.107
					c11.94,116.286,115.886,200.875,232.172,188.935c32.345-3.321,62.224-13.779,88.27-29.622l97.95,21.967L1274.068,968.724z"/>
			</g>
			<g style="opacity:0.5;">
				<g>
					<path style="fill:#FFFFFF;" d="M1075.949,688.431c108.627-11.153,206.462,61.936,228.614,166.4
						c0.026-7.462-0.295-14.99-1.074-22.58c-11.94-116.286-115.886-200.875-232.172-188.935
						c-116.286,11.94-200.875,115.886-188.935,232.172c0.783,7.623,1.983,15.1,3.534,22.433
						C886.324,791.089,967.286,699.587,1075.949,688.431z"/>
				</g>
			</g>
			<g>
				<path style="fill:#000072;" d="M1093.238,1088.779c-116.506,0.01-216.748-88.408-228.904-206.77
					c-12.966-126.311,79.243-239.624,205.554-252.595c126.318-12.957,239.624,79.243,252.595,205.554
					c4.902,47.759-4.866,94.678-28.286,136.238l24.915,84.941c1.855,6.326,0.227,13.161-4.28,17.971
					c-4.507,4.812-11.216,6.868-17.659,5.434l-90.796-20.361c-27.585,15.569-57.639,25.105-89.448,28.372
					C1108.98,1088.378,1101.063,1088.779,1093.238,1088.779z M1093.553,665.434c-6.565,0-13.191,0.334-19.861,1.021
					c-105.886,10.872-183.189,105.864-172.317,211.75c10.874,105.886,105.874,183.223,211.751,172.317
					c28.813-2.957,55.896-12.044,80.496-27.007c4.119-2.505,9.045-3.32,13.75-2.261l67.119,15.051l-18.286-62.341
					c-1.479-5.039-0.759-10.469,1.98-14.949c22.183-36.294,31.609-77.873,27.258-120.244
					C1275.255,739.555,1191.212,665.434,1093.553,665.434z"/>
			</g>
			<g style="opacity:0.3;">
				<path style="fill:#000072;" d="M1275.256,966.691c-57.975,49.037-137.842,70.511-217.155,50.771
					c-87.958-21.892-152.766-88.871-176.076-170.161c-0.557,10.778-0.307,21.734,0.83,32.805
					c11.94,116.286,115.886,200.875,232.172,188.935c32.345-3.321,62.224-13.779,88.27-29.622l97.951,21.967l-27.18-92.663
					C1274.477,968.054,1274.855,967.365,1275.256,966.691z"/>
			</g>
			<g>
				<path style="fill:#FF0068;" d="M1161.09,799.053L1161.09,799.053c-18.318-18.318-48.016-15.035-66.333,3.282l-2.851,2.851
					l-2.851-2.851c-18.318-18.317-48.016-21.6-66.333-3.282l0,0c-18.317,18.317-18.317,48.016,0,66.333l2.851,2.851l57.59,57.59
					c4.829,4.829,12.658,4.829,17.487,0l57.59-57.59l2.851-2.851C1179.408,847.069,1179.408,817.37,1161.09,799.053z"/>
			</g>
		</g>
	</g>
</g>
</svg>
