<?xml version="1.0" encoding="utf-8"?>
<!-- Generator: Adobe Illustrator 27.5.0, SVG Export Plug-In . SVG Version: 6.00 Build 0)  -->
<svg version="1.1" id="Layer_1" xmlns="http://www.w3.org/2000/svg" xmlns:xlink="http://www.w3.org/1999/xlink" x="0px" y="0px"
	 viewBox="0 0 4000 4000" style="enable-background:new 0 0 4000 4000;" xml:space="preserve">
<g>
	<!-- <rect style="fill:#F4A8A8;" width="4000" height="4000"/> -->
	<g>
		<g>
			<path style="fill:#EF492E;" d="M2943.233,2027.827c-16.639,407.894-217.096,931.056-681.941,1052.359
				c-66.084,12.073-121.775,10.813-181.613-17.951c-6.456-3.097-12.86-6.194-19.526-8.818c-21.048-8.451-39.21-12.755-60.153-13.333
				c-20.943,0.577-39.157,4.882-60.205,13.333c-6.614,2.625-13.07,5.721-19.474,8.818c-59.838,28.764-115.529,30.024-181.666,17.951
				c-317.455-82.828-511.614-353.148-608.089-646.144c-44.773-136-68.551-276.881-73.8-406.215
				c-10.917-460.437,341.443-749.495,943.234-617.065c349.369-76.897,614.65-11.705,773.64,146.708
				C2888.487,1671.739,2947.8,1834.719,2943.233,2027.827z"/>
		</g>
		<g>
			<path style="fill:#D8301E;" d="M2205.863,1503.144c-59.68,46.505-128.021,71.91-205.863,74.167
				c-77.894-2.257-146.235-27.662-205.863-74.167c0,0-44.406-59.051-15.904-76.267c20.706-12.469,128.366,9.661,185.715,22.7
				c23.742,5.398,48.364,5.398,72.106,0c57.348-13.04,165.009-35.17,185.715-22.7
				C2250.269,1444.093,2205.863,1503.144,2205.863,1503.144z"/>
		</g>
		<g>
			<path style="fill:#D8301E;" d="M2943.233,2027.827c-8.346,205.128-63.197,439.388-174.789,637.011
				c-109.65,173.372-266.646,312.206-478.545,367.478c-66.084,12.073-121.775,10.813-181.613-17.951
				c-6.456-3.097-12.86-6.194-19.526-8.819c-21.048-8.451-39.21-12.755-60.153-13.332c-20.943,0.577-39.157,4.882-60.205,13.332
				c-6.614,2.625-13.07,5.721-19.474,8.819c-59.838,28.764-115.529,30.024-181.666,17.951
				c-276.251-72.068-459.177-286.172-565.573-533.607c535.916,445.215,1244.365,124.82,1507.808-346.219
				c0.052-0.052,0.052-0.052,0.052-0.052c104.769-187.387,139.149-398.604,64.09-594.967c22.518,22.413,42.936,46.663,61.045,72.698
				C2909.273,1736.826,2946.908,1872.563,2943.233,2027.827z"/>
		</g>
		<g>
			<path style="fill:#54040F;" d="M1776.693,1467.471c55.034,57.105,130.083,89.664,208.971,91.314
				c78.934-0.014,154.605-30.689,213.447-83.421c4.362-3.914,11.071-3.55,14.983,0.813c3.177,3.542,3.524,8.64,1.211,12.524
				c-11.3,18.921-26.664,35.398-43.907,49.321c-115.298,91.58-334.551,76.92-411.547-58.015
				C1753.796,1469.228,1768.165,1458.536,1776.693,1467.471L1776.693,1467.471z"/>
		</g>
		<path style="fill:#C1C202;" d="M2043.619,1278.332c6.404-234.837,178.149-460.489,623.206-344.172l40.574-17.164
			C2786.71,1277.649,2285.752,1518.26,2043.619,1278.332z"/>
		<g>
			<path style="fill:#7BA400;" d="M2043.619,1278.332c188.542-193.948,363.961-133.428,543.58-266.856
				c28.974-21.416,55.376-47.451,79.626-77.317l40.574-17.164C2786.71,1277.649,2285.752,1518.26,2043.619,1278.332z"/>
		</g>
		<g>
			<path style="fill:#54040F;" d="M2286.885,1393.209c-91.23,0-183.013-29.316-256.211-101.833
				c-3.606-3.574-5.574-8.481-5.435-13.555c3.647-133.079,56.426-244.47,148.606-313.66
				c113.86-85.449,283.738-102.466,491.548-49.321l34.871-14.754c5.027-2.124,10.742-1.909,15.593,0.598
				c4.851,2.507,8.335,7.043,9.507,12.375c19.063,86.682,6.931,173.066-35.083,249.814
				c-38.052,69.514-98.362,128.386-174.407,170.251C2449.07,1369.903,2368.196,1393.209,2286.885,1393.209z M2062.253,1270.802
				c124.883,117.756,308.086,100.505,435.901,30.137c113.704-62.598,221.86-188.538,195.435-358.132l-19.612,8.296
				c-3.735,1.58-7.891,1.877-11.804,0.855c-199.355-52.105-360.583-37.727-466.27,41.592
				C2114.702,1054.493,2067.422,1152.733,2062.253,1270.802z"/>
		</g>
		<g>
			<path style="fill:#54040F;" d="M2030.43,1265.52c189.861-192.699,364.811-131.573,550.485-262.458
				c4.695-3.403,11.259-2.354,14.659,2.341c3.345,4.617,2.356,11.062-2.14,14.509c-41.464,31.729-88.42,56.338-137.166,74.336
				c-95.469,35.125-197.395,51.297-284.394,104.002c-42.726,24.931-80.806,57.057-115.098,92.88
				C2039.47,1308.508,2013.404,1283.624,2030.43,1265.52L2030.43,1265.52z"/>
		</g>
		<g>
			<path style="fill:#410C12;" d="M2190.1,3105.685c-43.076,0-80.703-8.779-118.381-26.892l-0.686-0.33
				c-6.069-2.913-11.804-5.667-17.61-7.952c-19.673-7.9-35.652-11.501-53.423-12.048c-17.813,0.549-33.804,4.148-53.359,12.002
				c-5.901,2.341-11.782,5.146-18.318,8.308c-57.832,27.798-115.532,33.621-192.966,19.487c-0.452-0.083-0.898-0.183-1.34-0.298
				c-215.298-56.184-395.254-204.014-520.41-427.507c-103.64-185.073-165.859-413.03-175.195-641.88
				c-5.154-217.268,70.842-401.67,213.982-519.556c85.247-70.205,191.611-116.218,316.135-136.758
				c128.621-21.221,273.787-14.592,431.472,19.695c157.666-34.282,302.815-40.913,431.455-19.692
				c124.524,20.54,230.889,66.553,316.14,136.76c143.147,117.891,219.148,302.29,214.004,519.236
				c-0.002,0.105-0.007,0.21-0.01,0.315c-9.336,228.84-71.563,456.799-175.22,641.88
				c-125.173,223.494-305.137,371.323-520.439,427.507c-0.442,0.115-0.889,0.215-1.338,0.295
				C2237.654,3103.18,2213.098,3105.685,2190.1,3105.685z M2000,3021.712c0.168,0,0.337,0.003,0.505,0.007
				c22.283,0.613,42.791,5.132,66.494,14.649c6.931,2.729,13.542,5.903,19.937,8.972l0.691,0.332
				c50.764,24.404,99.966,29.209,169.69,16.565c436.597-114.353,649.849-602.104,667.554-1035.01
				c4.905-208.328-64.473-377.703-200.632-489.839c-165.107-135.974-420.911-174.575-720.291-108.684
				c-2.598,0.571-5.298,0.571-7.896,0c-299.407-65.891-555.21-27.29-720.3,108.679
				c-136.189,112.158-205.559,281.599-200.618,490.007c17.649,432.637,230.879,920.486,667.493,1034.846
				c69.753,12.637,118.984,7.84,169.736-16.56c7.151-3.459,13.674-6.567,20.657-9.336c23.628-9.49,44.15-14.006,66.475-14.622
				C1999.663,3021.715,1999.832,3021.712,2000,3021.712z M2943.232,2027.826h0.051H2943.232z"/>
		</g>
		<g>
			<path style="fill:#54040F;" d="M2190.1,3105.685c-43.076,0-80.703-8.779-118.381-26.892l-0.686-0.33
				c-6.069-2.913-11.804-5.667-17.61-7.952c-19.673-7.9-35.652-11.501-53.423-12.048c-17.813,0.549-33.804,4.148-53.359,12.002
				c-5.901,2.341-11.782,5.146-18.318,8.308c-57.832,27.798-115.532,33.621-192.966,19.487c-0.452-0.083-0.898-0.183-1.34-0.298
				c-384.724-100.381-554.15-455.454-620.898-658.176c-43.293-131.496-69.126-273.694-74.707-411.216
				c-5.154-217.263,70.842-401.665,213.982-519.551c85.247-70.205,191.611-116.218,316.135-136.758
				c128.621-21.221,273.787-14.592,431.472,19.695c335.42-72.927,614.658-18.826,786.606,152.498
				c119.16,118.562,179.675,285.864,174.993,483.806c-0.002,0.105-0.007,0.21-0.01,0.315
				c-9.336,228.84-71.563,456.799-175.22,641.88c-125.173,223.494-305.137,371.323-520.439,427.507
				c-0.442,0.115-0.889,0.215-1.338,0.295C2237.654,3103.18,2213.098,3105.685,2190.1,3105.685z M2000,3021.712
				c0.168,0,0.337,0.003,0.505,0.007c22.283,0.613,42.791,5.132,66.494,14.649c6.931,2.729,13.542,5.903,19.934,8.972l0.693,0.332
				c50.764,24.404,99.973,29.209,169.69,16.565c436.597-114.353,649.846-602.09,667.554-1034.995
				c4.407-187.559-52.368-345.491-164.189-456.75c-163.457-162.869-432.195-213.223-756.733-141.787
				c-2.598,0.571-5.298,0.571-7.896,0c-299.407-65.891-555.21-27.29-720.3,108.679
				c-136.187,112.158-205.559,281.599-200.618,490.007c5.435,133.858,30.64,272.595,72.883,400.906
				c64.373,195.5,227.209,537.712,594.612,633.94c69.758,12.637,118.982,7.84,169.734-16.56c7.151-3.459,13.674-6.567,20.654-9.336
				c23.63-9.49,44.153-14.006,66.477-14.622C1999.663,3021.715,1999.832,3021.712,2000,3021.712z M2943.232,2027.826h0.051H2943.232
				z"/>
		</g>
		<g>
			<path style="fill:#FEADAC;" d="M1499.213,1921.417c-142.796,91.853-165.898,285.639-244.661,270.689
				c-146.31-27.772-160.936-250.022-65.687-434.339s279.715-278.311,412.016-209.943S1691.818,1797.525,1499.213,1921.417z"/>
		</g>
		<g>
			<path style="fill:#E6E9A4;" d="M2443.24,951.882c14.836,36.179-62.545,55.527-138.912,96.228
				c-76.367,40.7-140.763,73.803-153.473,49.954c-12.71-23.849,32.783-81.536,109.15-122.237
				C2336.372,935.128,2432.987,926.878,2443.24,951.882z"/>
		</g>
		<g>
			<path style="fill:#A04618;" d="M1876.095,1005.239c-46.85-5.206-132.613,75.935-100.988,140.55
				c148.514,82.714,203.777,230.837,181.016,429.782c19.808,2.323,40.4,2.131,61.464,0.422
				C2072.115,1431.278,2077.562,1102.859,1876.095,1005.239z"/>
		</g>
		<g>
			<path style="fill:#87300A;" d="M1960.343,1463.542c54.226,36.326,73.166-59.606,46.932-324.856
				c56.178,154.081,55.053,299.131,10.313,437.307c-21.967,2.62-42.327,1.676-61.229-2.502L1960.343,1463.542z"/>
		</g>
		<g>
			<path style="fill:#C97B59;" d="M1876.095,1005.239c85.241,47.631-46.707,184.818-100.988,140.55
				C1738.798,1091.131,1824.501,1002.064,1876.095,1005.239z"/>
		</g>
		<g>
			<path style="fill:#54040F;" d="M1987.241,1595.668c-11.716,0-22.737-0.618-33.259-1.851
				c-10.056-1.182-17.263-10.276-16.111-20.334c22.554-197.129-35.215-335.625-171.702-411.643
				c-3.276-1.824-5.916-4.607-7.563-7.974c-15.415-31.497-10.007-69.812,14.839-105.122c23.806-33.828,67.434-65.903,104.678-61.763
				c2.078,0.232,4.102,0.815,5.981,1.726c119.788,58.042,162.317,185.117,176.899,281.502
				c15.913,105.176,5.62,227.747-26.223,312.261c-2.507,6.65-8.623,11.26-15.706,11.833
				C2007.874,1595.211,1997.302,1595.668,1987.241,1595.668z M1976.326,1558.714c8.804,0.347,18.105,0.266,28.015-0.247
				c49.514-146.409,47.102-444.331-133.035-535.102c-17.554,0.161-47.737,17.991-67.813,46.521
				c-9.316,13.24-22.871,38.333-13.95,62.966C1931.855,1214.818,1994.644,1357.992,1976.326,1558.714z"/>
		</g>
	</g>
</g>
</svg>
