<?xml version="1.0" encoding="utf-8"?>
<!-- Generator: Adobe Illustrator 27.5.0, SVG Export Plug-In . SVG Version: 6.00 Build 0)  -->
<svg version="1.1" id="Layer_1" xmlns="http://www.w3.org/2000/svg" xmlns:xlink="http://www.w3.org/1999/xlink" x="0px" y="0px"
	 viewBox="0 0 4000 4000" style="enable-background:new 0 0 4000 4000;" xml:space="preserve">
<g>
	<!-- <rect style="fill-rule:evenodd;clip-rule:evenodd;fill:#DC9AFE;" width="4000" height="4000"/> -->
	<path style="opacity:0.2;fill-rule:evenodd;clip-rule:evenodd;fill:#000171;" d="M1989.998,3335
		c396.171,0,717.323,50.355,717.323,112.5c0,62.142-321.152,112.5-717.323,112.5c-396.167,0-717.319-50.358-717.319-112.5
		C1272.679,3385.355,1593.831,3335,1989.998,3335"/>
	<g>
		<g>
			<path style="fill-rule:evenodd;clip-rule:evenodd;fill:#19B5FF;" d="M1541.817,1796.767l1.351-2.883l0.096-0.205l0.556-1.23
				l0.65-1.423l0.17-0.363l0.457-1.038l0.605-1.399l0.24-0.556l0.338-0.833l0.578-1.386l0.289-0.724l0.267-0.64l0.554-1.364
				l0.338-0.892l0.193-0.457l0.507-1.339l0.388-1.05l0.119-0.279l0.484-1.314l0.41-1.206l0.047-0.096l0.459-1.302l0.41-1.292
				l0.047-0.059l0.388-1.208l0.386-1.265l0.072-0.242l0.025-0.049l0.674-2.219l0.121-0.385l0.025-0.121l0.556-1.942l0.143-0.556
				l0.17-0.662l0.314-1.208l0.168-0.699l0.121-0.506l0.289-1.181l0.193-0.833l0.049-0.338l0.24-1.159l0.217-0.976l0.025-0.183
				l0.218-1.156l0.193-1.099v-0.022l0.339-2.1l0.022-0.146l0.025-0.119l0.025-0.23l0.242-1.846l0.022-0.254l0.193-1.893l0.025-0.4
				l0.074-0.674l0.072-1.05l0.025-0.531l0.022-0.506l0.049-1.038l0.025-0.637v-0.375v-1.784v-0.23l-0.049-1.702v-0.168v-0.109
				v-0.059l-0.121-1.87v-0.037l-0.168-1.712l-0.025-0.133v-0.156l-0.121-0.773l-0.119-0.929l-0.049-0.264l-0.096-0.64l-0.168-0.904
				l-0.074-0.388v-0.059l-0.289-1.314l-0.121-0.494l-0.096-0.375c-0.264-1.11-0.578-2.184-0.941-3.232l-0.047-0.146l-0.556-1.532
				l-0.025-0.062v-0.035v-0.012l149.185,397.886l-422.242,243.767c-51.779,29.896-81.094,20.752-103.197-42.865
				c-44.757-128.868-117.673-270.525-168.365-398.706C1067.336,1996.886,1383.223,1995.112,1541.817,1796.767z"/>
		</g>
		<g style="opacity:0.5;">
			<path style="fill-rule:evenodd;clip-rule:evenodd;fill:#FFFFFF;" d="M1536.413,1803.379
				c26.42,78.27,49.704,128.965,59.016,165.351c14.093-6.444,28.52-12.596,43.262-18.447l-84.062-224.189
				c3.135,8.954,3.088,19.148,1.327,29.402c-0.025,0.059-0.025,0.109-0.025,0.156c-2.075,11.98-6.755,25.698-14.115,41.115
				C1540.033,1798.998,1538.246,1801.207,1536.413,1803.379"/>
		</g>
		<g>
			<path style="fill-rule:evenodd;clip-rule:evenodd;fill:#19B5FF;" d="M1490.401,1688.468l-182.266-502.855
				c18.241,50.354-58.776,125.473-178.332,171.669c-124.91,48.252-248.931,46.663-277.016-3.513
				c-1.085-1.924-1.977-3.909-2.75-5.904l180.744,494.919C1032.906,1932.977,1543.435,1851.271,1490.401,1688.468z"/>
		</g>
		<g>
			<path style="fill-rule:evenodd;clip-rule:evenodd;fill:#19B5FF;" d="M1030.781,1848.932
				c-153.116,133.479,307.924,201.834,511.036-52.164c31.511-66.196,14.382-100.724-51.416-103.595
				C1543.435,1857.498,1032.906,1939.968,1030.781,1848.932z"/>
		</g>
		<g style="opacity:0.37;">
			<path style="fill-rule:evenodd;clip-rule:evenodd;fill:#FFFFFF;" d="M1412.032,1828.845
				c-213.775-632.412-350.994-710.72-65.677,18.483c39.112,6.55,42.514,58.752,42.129,81.445
				c24.201,55.194,33.174,74.206,44.732,117.925c71.204-28.399,74.604-67.812,14.671-164.252
				C1440.816,1864.122,1428.85,1846.254,1412.032,1828.845"/>
		</g>
		<g style="opacity:0.5;">
			<path style="fill-rule:evenodd;clip-rule:evenodd;fill:#FFFFFF;" d="M1536.413,1803.379c2.725-3.234,5.282-7.118,7.625-11.437
				c0.047-0.109,0.096-0.217,0.168-0.314c4.704-10.664,9.554-23.452,11.751-36.132c0.314-1.821,0.556-3.607,0.749-5.344
				c0.022-0.41,0.072-0.833,0.119-1.243c0.46-5.947,0.314-11.642-0.603-16.722c-0.41-2.11-0.942-4.136-1.591-6.093l-0.581-1.579
				c-7.504-19.363-28.735-29.822-63.648-31.344c8.998,27.892,1.761,53.432-16.455,76.15
				C1503.478,1779.191,1520.704,1794.959,1536.413,1803.379"/>
		</g>
		<g style="opacity:0.5;">
			<path style="fill-rule:evenodd;clip-rule:evenodd;fill:#FFFFFF;" d="M1473.946,1769.323
				c18.216-22.718,25.453-48.258,16.455-76.15l-182.266-507.559c7.36,20.519-0.796,45.118-21.016,70.223
				C1352.507,1464.751,1414.782,1635.916,1473.946,1769.323"/>
		</g>
		<g>
			<path style="fill-rule:evenodd;clip-rule:evenodd;fill:#FFFFFF;" d="M2709.984,2091.831l96.272-152.528
				c-36.747,5.502-74.411,8.361-112.776,8.361c-182.337,0-348.966-64.506-476.339-170.996l-35.853,103.524
				C2400.081,1901.978,2589.173,1980.72,2709.984,2091.831z"/>
		</g>
		<g>
			<path style="fill:#000171;" d="M2709.984,2109.613c-4.434,0-8.735-1.655-12.041-4.692
				c-120.425-110.757-309.38-186.216-518.418-207.031c-5.415-0.539-10.288-3.528-13.218-8.115
				c-2.935-4.585-3.608-10.259-1.826-15.403l35.854-103.523c1.914-5.525,6.421-9.756,12.056-11.318
				c5.61-1.567,11.67-0.256,16.157,3.494c128.701,107.598,293.818,166.855,464.932,166.855c36.904,0,73.96-2.747,110.137-8.167
				c6.875-1.038,13.73,2.041,17.529,7.871c3.804,5.823,3.862,13.33,0.146,19.212l-96.27,152.527
				c-2.813,4.463-7.466,7.441-12.695,8.14C2711.547,2109.564,2710.76,2109.613,2709.984,2109.613z M2500.575,1941.031
				c78.618,32.996,148.501,74.744,205.547,123.596l65.034-103.037c-25.752,2.566-51.753,3.86-77.676,3.86
				C2627.821,1965.45,2563.007,1957.125,2500.575,1941.031z M2205.394,1864.93c60.981,7.227,120.176,18.992,176.504,34.849
				c-55.601-24.639-108.105-55.918-156.23-93.381L2205.394,1864.93z"/>
		</g>
		<g>
			<path style="fill:#000171;" d="M1233.27,2397.376c-6.9,0-13.379-1.157-19.541-3.447c-21.225-7.905-37.095-28.804-49.936-65.776
				c-25.786-74.238-61.553-154.004-96.143-231.143c-24.892-55.522-50.635-112.935-72.007-166.973c-2.7-6.821,0-14.59,6.343-18.271
				c6.338-3.687,14.419-2.175,19.014,3.552c18.525,23.135,73.218,38.074,139.355,38.074c0.063,0,0.122,0,0.186-0.002
				c114.214-0.046,270.796-43.332,368.608-164.524l1.841-4.002c0.02-0.046,0.215-0.459,0.234-0.505l3.242-7.837
				c0.054-0.132,0.298-0.723,0.352-0.854l0.659-1.794c0.078-0.215,0.166-0.43,0.254-0.64l0.645-1.821
				c0.073-0.222,0.156-0.442,0.239-0.659l0.576-1.738c0.098-0.303,0.2-0.601,0.317-0.896l0.454-1.482
				c0.049-0.159,0.103-0.327,0.161-0.5l0.605-1.99c0.005-0.01,0.01-0.034,0.02-0.066c0.02-0.078,0.044-0.151,0.063-0.222
				l1.636-6.301c0.039-0.225,0.078-0.447,0.107-0.591l0.386-1.812c0.015-0.08,0.029-0.154,0.039-0.217l0.313-1.685
				c0.01-0.059,0.015-0.115,0.024-0.173l0.337-2.102c0.005-0.024,0.01-0.051,0.015-0.078c0-0.005,0-0.01,0-0.012l0.195-1.484
				c0.01-0.081,0.015-0.151,0.019-0.193l0.166-1.631c0.02-0.269,0.044-0.586,0.063-0.737l0.176-5.002l-0.044-1.506
				c0-0.063,0-0.164-0.005-0.269l-0.19-2.383c-0.01-0.093-0.02-0.186-0.029-0.276l-0.161-1.172c-0.02-0.12-0.039-0.234-0.049-0.3
				l-0.19-1.108c-0.02-0.1-0.039-0.203-0.054-0.313l-0.278-1.206c-0.239-0.986-0.42-1.592-0.625-2.182l-0.532-1.484
				c-0.581-1.611-0.903-3.376-0.903-5.09c0-7.168,5.127-13.33,12.178-14.609c7.051-1.277,14.014,2.649,16.528,9.358l149.185,397.888
				c2.544,6.787-0.19,14.419-6.47,18.042l-422.246,243.765C1267.045,2391.327,1249.057,2397.376,1233.27,2397.376z
				 M1041.425,1963.634c16.846,39.985,35.283,81.111,53.281,121.243c34.849,77.72,70.884,158.086,97.095,233.55
				c9.585,27.593,20.142,43.198,32.275,47.715c11.162,4.155,27.353-0.034,49.502-12.822l411.367-237.485l-123.022-328.11
				l-3.701,8.882c-0.049,0.122-0.278,0.605-0.332,0.725l-1.118,2.458c-0.039,0.088-0.176,0.381-0.22,0.469l-1.313,2.805
				c-0.498,1.055-1.118,2.051-1.846,2.961c-104.292,130.434-271.309,176.963-392.837,177.017c-0.068,0-0.142,0-0.21,0
				C1113.021,1983.041,1071.864,1976.112,1041.425,1963.634z"/>
		</g>
		<g>
			<path style="fill-rule:evenodd;clip-rule:evenodd;fill:#FC4F8B;" d="M2832.218,2485.675
				c-61.914,401.108-484.351,533.378-775.722,533.378c-292.314,0-767.615-167.377-775.144-538.974
				c73.954,229.736,393.458,402.541,776.374,402.541C2437.552,2882.62,2754.912,2712.614,2832.218,2485.675z"/>
		</g>
		<g>
			<path style="fill:#000171;" d="M2056.498,3036.834c-165.718,0-358.501-50.742-503.115-132.432
				c-129.78-73.311-285.405-206.372-289.814-423.96c-0.176-8.823,6.143-16.445,14.849-17.905
				c8.652-1.416,17.158,3.691,19.863,12.095c72.788,226.099,392.182,390.205,759.448,390.205
				c363.042,0,681.68-161.875,757.656-384.897c2.974-8.726,12.134-13.76,21.074-11.533c8.955,2.197,14.746,10.874,13.34,19.985
				c-28.418,184.111-135.879,332.778-310.757,429.932C2403.475,2993.641,2227.592,3036.834,2056.498,3036.834z M1317.177,2590.887
				c43.271,136.973,156.25,227.495,253.701,282.544c166.86,94.253,360.264,127.832,485.62,127.832
				c220.435,0,587.339-83.579,717.837-378.716c-51.118,62.261-121.709,117.822-207.72,162.49
				c-143.281,74.395-324.004,115.366-508.886,115.366c-186.47,0-368.413-41.606-512.315-117.158
				C1446.571,2731.356,1368.495,2665.116,1317.177,2590.887z"/>
		</g>
		<g style="opacity:0.5;">
			<path style="fill-rule:evenodd;clip-rule:evenodd;fill:#FFFFFF;" d="M2057.751,2882.62
				c-382.941,0-702.445-172.793-776.399-402.541c1.715,84.833,10.906,131.606,53.637,195.595
				c309.301,234.983,691.732,300.443,1113.446,141.523c-0.05,0.025-0.096,0.035-0.146,0.059
				C2333.005,2858.866,2199.744,2882.62,2057.751,2882.62"/>
		</g>
		<g>
			<path style="fill-rule:evenodd;clip-rule:evenodd;fill:#FFFFFF;" d="M2057.751,1874.099
				c437.684,0,792.513,225.768,792.513,504.268c0,278.498-354.829,504.253-792.513,504.253
				c-437.711,0-792.516-225.755-792.516-504.253C1265.236,2099.866,1620.04,1874.099,2057.751,1874.099z"/>
		</g>
		<g>
			<path style="fill:#000171;" d="M2057.753,2900.409c-215.039,0-417.451-53.438-569.951-150.469
				c-154.995-98.618-240.352-230.581-240.352-371.572c0-140.996,85.357-272.959,240.352-371.582
				c152.5-97.036,354.917-150.476,569.951-150.476c215.024,0,417.432,53.44,569.937,150.476
				c155,98.628,240.361,230.591,240.361,371.582s-85.361,272.949-240.361,371.572
				C2475.184,2846.971,2272.777,2900.409,2057.753,2900.409z M2057.753,1891.888c-427.182,0-774.726,218.232-774.726,486.479
				c0,268.237,347.544,486.465,774.726,486.465s774.722-218.228,774.722-486.465
				C2832.475,2110.121,2484.935,1891.888,2057.753,1891.888z"/>
		</g>
		<g>
			<path style="fill:#000171;" d="M1130.775,1904.374c-34.341,0-63.735-4.041-83.921-12.671
				c-26.069-11.143-32.461-28.103-33.642-39.036l-179.902-497.231c-3.32-9.177,1.372-19.316,10.523-22.722
				c9.136-3.413,19.326,1.191,22.817,10.308c0.542,1.414,1.089,2.61,1.675,3.657c20.513,36.987,130.268,44.277,255.02-4.365
				c116.499-45.437,180.933-114.551,168.066-150.637l-0.02-0.049c0-0.005,0-0.005,0-0.005c-3.32-9.246,1.484-19.431,10.732-22.751
				c9.253-3.316,19.434,1.479,22.754,10.73v0.003c0.015,0.044,0.029,0.083,0.044,0.124l182.222,507.432
				c0.063,0.183,0.127,0.366,0.186,0.549c8.813,27.305,9.565,68.75-36.909,111.143
				C1399.765,1863.302,1240.219,1904.374,1130.775,1904.374z M888.065,1402.206l159.443,440.674
				c0.654,1.809,1.011,3.713,1.055,5.637c0.112,4.763,8.623,8.911,12.275,10.474c67.119,28.696,299.292-7.693,385.601-86.426
				c26.367-24.048,35.239-48.147,27.114-73.664l-160.913-448.101c-28.032,45.295-91.274,91.472-176.372,124.661
				C1038.837,1413.448,945.756,1421.954,888.065,1402.206z"/>
		</g>
		<g>
			<path style="fill-rule:evenodd;clip-rule:evenodd;fill:#FC4F8B;" d="M2806.256,1939.304l-96.272,152.528
				c21.57,19.857,40.97,40.74,57.981,62.527l162.309-244.599C2890.414,1922.97,2848.938,1932.922,2806.256,1939.304z"/>
		</g>
		<g>
			<path style="fill:#000171;" d="M2767.963,2172.147c-5.464,0-10.645-2.515-14.023-6.841
				c-16.245-20.811-35.088-41.128-56.006-60.391c-6.318-5.815-7.578-15.317-2.993-22.583l96.27-152.524
				c2.764-4.378,7.295-7.334,12.412-8.098c41.162-6.155,81.89-15.857,121.055-28.835c7.222-2.393,15.122,0.056,19.732,6.084
				c4.604,6.028,4.883,14.314,0.688,20.637l-162.309,244.597c-3.164,4.766-8.423,7.72-14.141,7.944
				C2768.417,2172.142,2768.188,2172.147,2767.963,2172.147z M2732.841,2088.949c11.919,11.548,23.149,23.428,33.598,35.537
				l121.982-183.831c-23.516,6.116-47.402,11.128-71.445,14.988L2732.841,2088.949z"/>
		</g>
		<g>
			<path style="fill-rule:evenodd;clip-rule:evenodd;fill:#FC4F8B;" d="M3387.552,1073.054
				c54.531,216.95,2.653,446.902-139.702,619.468c-142.356,172.551-358.256,267.147-581.609,254.853
				C3191.897,2125.344,3584.992,1549.369,3387.552,1073.054z"/>
		</g>
		<g>
			<path style="fill:#000171;" d="M2860.35,1995.355c-64.902,0.003-131.67-11.189-198.867-33.938
				c-7.017-2.375-11.206-9.573-9.8-16.85c1.406-7.28,7.939-12.407,15.371-11.992c217.725,12.019,430.591-81.282,569.36-249.485
				c138.789-168.247,189.917-394.946,136.763-606.421c-1.894-7.532,2.344-15.247,9.717-17.688
				c7.378-2.444,15.381,1.226,18.354,8.399c103.77,250.344,50.713,549.775-132.026,745.093
				C3156.659,1932.779,3013.788,1995.35,2860.35,1995.355z M2778.085,1959.439c176.162,26.204,343.032-32.068,469.487-167.224
				c126.929-135.664,188.477-323.855,174.732-508.516c-8.452,151.504-64.61,298.96-163.018,418.257
				C3138.642,1848.187,2964.296,1940.118,2778.085,1959.439z"/>
		</g>
		<g>
			<ellipse style="fill-rule:evenodd;clip-rule:evenodd;fill:#B2A9B6;" cx="2074.179" cy="2364.251" rx="633.752" ry="418.406"/>
		</g>
		<g>
			<path style="fill:#000171;" d="M2072.201,2797.479c-172.148,0-334.194-44.395-456.294-125
				c-123.994-81.865-192.28-191.328-192.28-308.228c0-116.904,68.286-226.367,192.28-308.232c122.1-80.608,284.146-125,456.294-125
				c172.149,0,334.199,44.392,456.299,125c123.994,81.865,192.28,191.328,192.28,308.232c0,116.899-68.286,226.367-192.28,308.228
				C2406.4,2753.084,2244.35,2797.479,2072.201,2797.479z M2072.201,1960.667c-341.279,0-618.926,181.045-618.926,403.584
				c0,222.534,277.647,403.579,618.926,403.579s618.931-181.045,618.931-403.579
				C2691.132,2141.712,2413.48,1960.667,2072.201,1960.667z"/>
		</g>
		<g>
			<path style="fill-rule:evenodd;clip-rule:evenodd;fill:#FFFFFF;" d="M2692.709,575c400.238,0,724.714,310.758,724.714,694.131
				s-324.476,694.156-724.714,694.156s-724.739-310.783-724.739-694.156S2292.471,575,2692.709,575z"/>
		</g>
		<g>
			<path style="fill:#000171;" d="M2692.709,1981.075c-409.429,0-742.524-319.375-742.524-711.943
				c0-392.554,333.096-711.919,742.524-711.919c409.414,0,742.5,319.365,742.5,711.919
				C3435.209,1661.7,3102.123,1981.075,2692.709,1981.075z M2692.709,592.789c-389.809,0-706.948,303.406-706.948,676.343
				c0,372.949,317.139,676.367,706.948,676.367c389.8,0,706.924-303.418,706.924-676.367
				C3399.633,896.195,3082.509,592.789,2692.709,592.789z"/>
		</g>
		<g>
			<path style="fill-rule:evenodd;clip-rule:evenodd;fill:#FBB987;" d="M2074.953,1945.844
				c348.484,0,631.001,170.912,631.001,381.757c0,210.832-282.518,381.742-631.001,381.742
				c-348.506,0-631.024-170.91-631.024-381.742C1443.929,2116.756,1726.447,1945.844,2074.953,1945.844z"/>
		</g>
		<g style="opacity:0.6;">
			<path style="fill-rule:evenodd;clip-rule:evenodd;fill:#FFFFFF;" d="M1636.184,2601.95
				c-145.687-166.146-132.705-326.914,0.724-441.269c18.844-16.154,40.075-31.366,63.602-45.543
				c146.724-88.405,382.577-136.384,681.525-115.971c6.127,0.422,12.28,0.87,18.481,1.339
				c-95.041-34.696-206.442-54.662-325.563-54.662c-0.917,0-1.833,0-2.75,0c-22.004,0.059-43.744,0.808-65.17,2.196
				c-127.42,8.24-243.5,39.438-336.708,86.606c-114.368,57.884-194.352,139.823-218.65,232.958
				c-2.992,11.546-5.164,23.259-6.419,35.107c-0.867,8.227-1.327,16.529-1.327,24.89
				C1443.929,2435.285,1517.641,2532.545,1636.184,2601.95"/>
		</g>
		<g>
			<path style="fill:#000171;" d="M2074.955,2724.168c-171.221,0-332.407-40.469-453.877-113.95
				c-123.794-74.893-191.973-175.259-191.973-282.617c0-107.363,68.179-207.734,191.973-282.632
				c121.465-73.482,282.656-113.95,453.877-113.95c171.211,0,332.393,40.469,453.853,113.955
				c123.794,74.892,191.972,175.264,191.972,282.627c0,107.354-68.179,207.725-191.972,282.617
				C2407.347,2683.7,2246.166,2724.168,2074.955,2724.168z M2074.955,1960.667c-339.775,0-616.201,164.604-616.201,366.934
				c0,202.319,276.426,366.919,616.201,366.919c339.761,0,616.177-164.6,616.177-366.919
				C2691.132,2125.272,2414.716,1960.667,2074.955,1960.667z"/>
		</g>
		<g>
			<ellipse style="fill-rule:evenodd;clip-rule:evenodd;fill:#FC4F8B;" cx="2676.977" cy="1280.931" rx="606.438" ry="598.571"/>
		</g>
		<g>
			<path style="fill:#000171;" d="M2676.976,1894.327c-342.568,0-621.264-275.168-621.264-613.396
				c0-338.23,278.696-613.398,621.264-613.398c342.569,0,621.265,275.168,621.265,613.398
				C3298.241,1619.159,3019.545,1894.327,2676.976,1894.327z M2676.976,697.181c-326.216,0-591.616,261.87-591.616,583.75
				s265.4,583.748,591.616,583.748s591.616-261.868,591.616-583.748S3003.192,697.181,2676.976,697.181z"/>
		</g>
		<g>
			<path style="fill-rule:evenodd;clip-rule:evenodd;fill:#74EDFD;" d="M2693.818,753.814
				c314.415,0,569.305,251.584,569.305,561.935c0,310.348-254.89,561.92-569.305,561.92c-314.39,0-569.305-251.572-569.305-561.92
				C2124.513,1005.398,2379.428,753.814,2693.818,753.814"/>
		</g>
		<g>
			<path style="fill:#000171;" d="M1158.783,1982.818c-29.209,0-55.957-2.664-78.848-7.559
				c-52.398-11.206-85.405-33.435-92.949-62.593c-4.356-16.833-1.982-43.496,34.053-74.91c4.336-3.779,10.449-4.714,15.723-2.39
				c5.259,2.319,8.706,7.471,8.838,13.218c0.142,5.94,7.729,10.417,14.072,13.13c67.754,28.962,301.802-7.632,388.77-86.958
				c27.402-24.998,36.514-50.195,27.852-77.031c-1.494-4.619-0.625-9.675,2.314-13.538c2.944-3.862,7.637-6.079,12.437-5.825
				c36.27,1.582,60.757,12.52,72.778,32.512c13.257,22.048,10.439,52.226-8.623,92.263c-0.488,1.028-1.094,1.997-1.807,2.886
				C1450.316,1934.93,1282.572,1982.813,1158.783,1982.818z M1026.351,1874.5c-7.852,9.624-13.306,20.518-10.659,30.742
				c4.448,17.205,30.786,32.542,70.444,41.023c112.139,23.979,323.315-9.097,443.022-157.415
				c13.442-28.747,16.645-50.408,9.253-62.698c-4.771-7.937-14.707-13.335-29.629-16.125c1.914,24.563-5.996,55.283-40.361,86.633
				c-92.188,84.089-336.538,128.159-420.401,92.317C1038.153,1884.759,1031.195,1879.75,1026.351,1874.5z"/>
		</g>
		<g>
			<path style="fill-rule:evenodd;clip-rule:evenodd;fill:#19B5FF;" d="M1240.022,1143.062
				c31.487,5.319,54.771,17.288,65.074,35.902c28.085,50.645-50.381,131.223-175.293,179.923
				c-124.91,48.703-248.931,47.099-277.016-3.546c-14.765-26.625-0.047-61.491,35.299-95.657
				c-3.207,11.076-2.604,21.498,2.485,30.667c22.103,39.848,119.677,41.103,217.926,2.775
				c98.276-38.304,160.019-101.688,137.941-141.536C1244.726,1148.515,1242.579,1145.669,1240.022,1143.062z"/>
		</g>
		<g style="opacity:0.5;">
			<path style="fill-rule:evenodd;clip-rule:evenodd;fill:#FFFFFF;" d="M1287.119,1255.836
				c20.22-25.105,28.376-49.704,21.016-70.223c-0.82-2.281-1.833-4.489-3.039-6.649c-10.086-18.204-32.55-30.052-62.999-35.529
				c1.448,2.836,2.896,5.562,4.341,8.156c9.436,17.046,3.548,38.388-13.969,60.236
				C1255.632,1217.172,1273.849,1231.843,1287.119,1255.836"/>
		</g>
		<g>
			<path style="fill:#000171;" d="M960.199,1409c-58.418,0-103.286-15.654-120.376-46.467
				c-17.622-31.777-3.789-73.149,37.959-113.506c4.824-4.665,12.188-5.508,17.949-2.041c5.752,3.464,8.462,10.366,6.597,16.819
				c-2.202,7.6-1.807,13.931,1.206,19.355c15.967,28.782,101.856,34.28,199.58-3.845c76.484-29.812,120.762-70.955,130.708-98.503
				c3.149-8.718,3.037-15.928-0.352-22.036c-1.035-1.86-2.397-3.667-4.038-5.339c-4.492-4.59-5.522-11.548-2.549-17.241
				c2.979-5.691,9.277-8.809,15.61-7.749c37.227,6.289,63.359,21.277,75.571,43.337c9.033,16.289,9.961,35.574,2.676,55.759
				c-18.862,52.268-89.961,107.888-185.552,145.156C1072.841,1397.008,1011.332,1409,960.199,1409z M876.508,1295.45
				c-14.404,20.52-18.364,38.982-10.757,52.703c21.084,38.025,132.51,46.108,258.667-3.076
				c85.19-33.215,152.876-84.492,168.438-127.598c4.355-12.07,4.111-22.61-0.723-31.326c-4.663-8.423-13.784-15.488-26.538-20.764
				c0.576,8.145-0.718,16.726-3.887,25.493c-15.151,41.951-71.792,86.421-147.822,116.055
				c-108.301,42.256-209.873,38.21-236.279-9.395C877.225,1296.852,876.859,1296.156,876.508,1295.45z"/>
		</g>
		<defs>
			<filter id="Adobe_OpacityMaskFilter" filterUnits="userSpaceOnUse" x="2127.965" y="753.418" width="1127.994" height="976.671">
				<feColorMatrix  type="matrix" values="1 0 0 0 0  0 1 0 0 0  0 0 1 0 0  0 0 0 1 0"/>
			</filter>
		</defs>
		<mask maskUnits="userSpaceOnUse" x="2127.965" y="753.418" width="1127.994" height="976.671" id="SVGID_1_">
			<g style="filter:url(#Adobe_OpacityMaskFilter);">
				
					<linearGradient id="SVGID_00000067958183637441475050000014195810283896464813_" gradientUnits="userSpaceOnUse" x1="1930.5132" y1="1924.7848" x2="3108.5583" y2="950.8235" gradientTransform="matrix(1 0 0 1 290.2227 -293.4321)">
					<stop  offset="0" style="stop-color:#FFFFFF"/>
					<stop  offset="1" style="stop-color:#000000"/>
				</linearGradient>
				
					<rect x="2127.965" y="753.416" style="fill:url(#SVGID_00000067958183637441475050000014195810283896464813_);" width="1128.016" height="976.674"/>
			</g>
		</mask>
		<path style="mask:url(#SVGID_1_);fill-rule:evenodd;clip-rule:evenodd;fill:#FFFFFF;" d="M3163.642,998.268l-0.917,0.652
			c-18.698-26.914-39.618-52.105-62.468-75.293l0.796-0.566c-46.615-47.1-101.554-86.125-162.431-114.79l-0.314,0.205
			c-70.26-33.37-148.194-52.767-229.99-54.867c-271.876-6.985-510.889,178.826-571.21,444.007
			c102.496-220.302,325.948-358.774,568.87-352.538c50.983,1.305,100.783,8.964,148.508,22.296l-726.522,510.504
			c7.504,67.367,27.072,131.149,56.53,189.201l863.235-606.534c27.168,19.64,52.745,41.535,76.439,65.472l-888.039,623.98
			c21.74,28.952,46.254,55.784,73.131,80.094l883.72-620.928c24.878,36.157,46.086,75.377,62.976,117.192
			c-8.131-46.736-21.814-91.313-40.295-133.128l0.82-0.603C3201.911,1059.386,3184.176,1027.813,3163.642,998.268"/>
		<g style="opacity:0.3;">
			<path style="fill-rule:evenodd;clip-rule:evenodd;fill:#000171;" d="M2133.828,1374.211
				c31.558,302.602,299.647,524.172,602.768,498.198c303.124-25.972,529.591-289.913,509.227-593.469
				c-20.438,276.823-238.87,497.802-515.404,521.494C2453.863,1824.128,2201.049,1643.518,2133.828,1374.211"/>
		</g>
		<g>
			<path style="fill:#000171;" d="M2693.817,1892.494c-322.09,0-584.126-258.728-584.126-576.746
				c0-318.025,262.036-576.758,584.126-576.758s584.131,258.733,584.131,576.758
				C3277.948,1633.766,3015.907,1892.494,2693.817,1892.494z M2693.817,768.639c-305.742,0-554.478,245.432-554.478,547.109
				c0,301.67,248.735,547.097,554.478,547.097s554.483-245.427,554.483-547.097C3248.3,1014.071,2999.559,768.639,2693.817,768.639z
				"/>
		</g>
		<g style="opacity:0.3;">
			<path style="fill-rule:evenodd;clip-rule:evenodd;fill:#000171;" d="M1636.184,2601.95
				c113.57,66.472,268.257,107.393,438.769,107.393c338.786,0,615.221-161.536,630.349-364.237
				c0.435-5.804,0.652-11.63,0.652-17.505c0-78.611-39.28-151.67-106.575-212.389
				C2790.5,2688.945,2010.652,2707.379,1636.184,2601.95"/>
		</g>
		<g style="opacity:0.3;">
			<path style="fill-rule:evenodd;clip-rule:evenodd;fill:#000171;" d="M2074.179,2782.657
				c-350.003,0-633.751-187.331-633.751-418.405c0-4.356,0.096-8.687,0.314-13.006c-31.776,165.581,40.705,296.416,220.582,386.197
				c282.058,140.799,614.038,118.276,887.483-38.583c116.008-66.532,193.339-183.953,191.602-317.634
				c-1.737-133.706-79.165-254.843-199.783-312.545c22.15,14.501,42.467,30.076,60.73,46.531
				c67.295,60.718,106.575,133.778,106.575,212.389c0,5.875-0.218,11.701-0.652,17.505c0.435,6.345,0.652,12.727,0.652,19.146
				C2707.931,2595.326,2424.183,2782.657,2074.179,2782.657"/>
		</g>
		<g style="opacity:0.3;">
			<path style="fill-rule:evenodd;clip-rule:evenodd;fill:#000171;" d="M2771.125,2598.259
				c-236.263,323.233-617.296,431.34-1143.05,324.293c142.02,65.328,302.254,96.501,428.422,96.501
				c291.299,0,713.615-132.199,775.673-533.077C2818.731,2525.318,2798.075,2562.935,2771.125,2598.259"/>
		</g>
		<g>
			<path style="fill:#000171;" d="M2056.498,3036.839c-165.718,0-358.501-50.747-503.115-132.437
				c-129.78-73.306-285.41-206.367-289.819-423.96c-0.176-8.828,6.143-16.45,14.853-17.905c8.652-1.46,17.158,3.687,19.868,12.095
				c72.783,226.094,392.178,390.2,759.443,390.2c363.037,0,681.68-161.87,757.651-384.893c2.979-8.73,12.109-13.76,21.084-11.538
				c8.955,2.197,14.746,10.874,13.34,19.99c-28.423,184.111-135.879,332.783-310.762,429.937
				C2403.475,2993.646,2227.592,3036.839,2056.498,3036.839z M1317.186,2590.912c43.281,136.953,156.25,227.471,253.691,282.515
				c166.86,94.253,360.264,127.837,485.62,127.837c220.42,0,587.3-83.608,717.823-378.691
				c-51.118,62.251-121.699,117.808-207.705,162.466c-143.276,74.399-324.004,115.371-508.886,115.371
				c-186.47,0-368.413-41.606-512.319-117.158C1446.576,2731.361,1368.505,2665.13,1317.186,2590.912z"/>
		</g>
		<g style="opacity:0.3;">
			<path style="fill-rule:evenodd;clip-rule:evenodd;fill:#000171;" d="M1139.142,1967.727
				c-61.842-2.967-110.291-18.879-129.713-43.141c50.692,128.181,123.608,269.838,168.365,398.706
				c19.761,56.871,45.288,70.203,87.466,51.045c0.314-25.854,3.691-51.238,9.893-76.029
				C1239.177,2212.388,1188.339,2089.889,1139.142,1967.727"/>
		</g>
		<g style="opacity:0.3;">
			<path style="fill-rule:evenodd;clip-rule:evenodd;fill:#000171;" d="M1009.429,1924.585
				c19.422,24.263,67.871,40.174,129.713,43.141c-6.081-21.522-5.816-48.582,0.746-81.203
				c-62.635,1.28-108.48-10.446-109.107-37.592C997.219,1878.188,993.167,1904.306,1009.429,1924.585"/>
		</g>
		<g style="opacity:0.3;">
			<path style="fill-rule:evenodd;clip-rule:evenodd;fill:#000171;" d="M1030.781,1848.932
				c0.628,27.146,46.472,38.872,109.107,37.592c-87.246-227.794-137.988-392.253-152.271-493.36
				c-65.944,5.441-117.866-7.252-134.83-37.822c-0.988-1.799-1.858-3.632-2.582-5.502L1030.781,1848.932z"/>
		</g>
		<g style="opacity:0.3;">
			<path style="fill-rule:evenodd;clip-rule:evenodd;fill:#000171;" d="M852.787,1355.342c16.964,30.57,68.886,43.263,134.83,37.822
				c-10.063-19.279-15.202-42.84-15.37-70.697c-43.02,0.808-75.039-9.396-81.675-32.115c-2.557-4.596-3.956-9.505-4.344-14.646
				c-0.988-3.051-1.88-5.584-3.642-10.555c-28.93,29.906-41.743,59.96-32.549,84.232l0.193,0.544L852.787,1355.342z"/>
		</g>
		<g>
			<path style="fill:#000171;" d="M1397.855,2124.764l-24.873-25.43c52.593-51.445,108.774-92.72,166.992-122.678l16.279,31.631
				C1501.195,2036.617,1447.904,2075.804,1397.855,2124.764z"/>
		</g>
		<g>
			<path style="fill-rule:evenodd;clip-rule:evenodd;fill:#FF1B40;" d="M980.643,745.344
				c118.686,47.025,195.825,133.249,172.301,192.581c-23.526,59.342-138.786,69.319-257.45,22.281
				c-118.662-47.025-195.8-133.249-172.274-192.578C746.744,708.283,862.006,698.319,980.643,745.344z"/>
		</g>
		<g style="opacity:0.44;">
			<path style="fill-rule:evenodd;clip-rule:evenodd;fill:#FFFFFF;" d="M980.643,745.344
				c118.686,47.025,195.825,133.249,172.301,192.581c-23.526,59.342-138.786,69.319-257.45,22.281
				c-44.708-17.71-83.505-40.994-113.256-66.317c359.75,113.765,451.679,15.395,157.724-162.515
				C953.403,735.284,967.012,739.929,980.643,745.344"/>
		</g>
		<g>
			<path style="fill:#000171;" d="M1037.66,1004.759c-44.121,0-95.322-10.037-147.632-30.771
				c-59.487-23.577-110.996-57.517-145.039-95.574c-36.479-40.779-49.102-82.063-35.547-116.25
				c13.55-34.192,51.035-55.62,105.542-60.337c50.889-4.38,111.641,6.16,171.123,29.736h-0.005
				c59.502,23.574,111.021,57.515,145.068,95.571c36.484,40.779,49.111,82.065,35.552,116.255
				C1150.77,983.631,1101.669,1004.759,1037.66,1004.759z M838.436,730.489c-7.148,0-14.121,0.29-20.894,0.876
				c-42.119,3.645-71.475,18.853-80.542,41.724c-9.063,22.866,1.899,54.05,30.088,85.557c31.03,34.692,78.574,65.864,133.867,87.778
				c108.994,43.203,218.076,36.812,238.208-13.962c9.067-22.866-1.899-54.053-30.088-85.559
				c-31.04-34.692-78.589-65.864-133.892-87.776h-0.005C927.972,740.414,880.248,730.489,838.436,730.489z"/>
		</g>
		<g>
			<path style="fill-rule:evenodd;clip-rule:evenodd;fill:#FF1B40;" d="M895.494,960.206
				c-85.413-33.864-149.353-88.044-169.667-137.881l156.76,442.826c3.595,10.157,3.595,10.157,7.985,25.201
				c12.764,43.744,119.677,41.103,217.926,2.775c98.276-38.304,160.019-101.688,137.941-141.536
				c-31.534-56.906-65.581-173.517-89.369-239.858C1130.673,1001.887,954.273,983.49,895.494,960.206z"/>
		</g>
		<g style="opacity:0.44;">
			<path style="fill-rule:evenodd;clip-rule:evenodd;fill:#FFFFFF;" d="M1129.61,966.793
				c38.341,130.099,72.627,211.786,102.859,245.034c17.517-21.849,23.405-43.191,13.969-60.236
				c-1.445-2.594-2.893-5.319-4.341-8.156c-30.281-59.295-62.324-168.402-85.028-231.702c-5.238,17.903-16.408,31.524-31.368,41.681
				C1127.006,957.926,1128.308,962.39,1129.61,966.793"/>
		</g>
		<g>
			<path style="fill:#000171;" d="M967.787,1337.213c-25.513,0-47.407-3.75-63.11-11.482c-18.555-9.133-25.649-22.021-28.335-31.226
				c-4.277-14.646-4.277-14.646-7.729-24.412L711.854,827.271c-2.685-7.59,1.177-15.938,8.701-18.801
				c7.524-2.859,15.962,0.801,18.999,8.259c19.404,47.605,82.759,98.513,161.401,129.695c40.02,15.85,145.625,30.3,204.829,1.382
				c19.849-9.695,31.968-22.856,37.056-40.239c1.807-6.162,7.368-10.461,13.789-10.652c6.221-0.22,12.222,3.765,14.395,9.812
				c6.509,18.152,13.774,40.022,21.47,63.179c19.868,59.802,44.595,134.226,66.914,174.499c7.558,13.645,8.354,29.717,2.3,46.477
				c-15.151,41.951-71.792,86.421-147.822,116.057C1063.065,1326.764,1010.385,1337.213,967.787,1337.213z M770.175,903.167
				l126.387,357.036c3.735,10.554,3.818,10.842,8.242,25.996c1.479,5.073,5.84,9.424,12.964,12.932
				c33.911,16.694,113.594,8.174,185.347-19.817c76.484-29.812,120.762-70.955,130.708-98.503
				c3.149-8.718,3.037-15.928-0.352-22.036c-23.647-42.681-47.803-115.381-69.116-179.521c-3.574-10.762-7.056-21.245-10.405-31.179
				c-8.965,10.498-20.703,19.316-35.146,26.372c-71.143,34.756-185.923,16.514-228.77-0.459h-0.005
				C843.246,955.438,801.913,930.699,770.175,903.167z"/>
		</g>
		<g style="opacity:0.3;">
			<path style="fill-rule:evenodd;clip-rule:evenodd;fill:#000171;" d="M969.28,1285.611
				c-31.102-126.118-62.638-237.528-94.607-334.247c-74.92-33.985-130.22-83.338-148.846-129.039l156.76,442.826
				c1.762,4.971,2.654,7.504,3.642,10.555c1.016,3.187,2.1,6.95,4.344,14.646c6.056,20.774,33.394,31.089,70.912,32.08l0,0
				c69.732,9.698,150.005-17.433,240.896-81.373C1130.334,1270.436,1052.618,1285.285,969.28,1285.611"/>
		</g>
	</g>
</g>
</svg>
