<?xml version="1.0" encoding="utf-8"?>
<!-- Generator: Adobe Illustrator 27.5.0, SVG Export Plug-In . SVG Version: 6.00 Build 0)  -->
<svg version="1.1" id="Capa_1" xmlns="http://www.w3.org/2000/svg" xmlns:xlink="http://www.w3.org/1999/xlink" x="0px" y="0px"
	 viewBox="0 0 2295 1962" style="enable-background:new 0 0 2295 1962;" xml:space="preserve">
<path style="fill:#EA4E4E;" d="M1548.246,238.883c-18.168,36.664-36.441,73.273-55.23,109.617
	c-35.684,69.059-72.781,137.285-116.691,201.523c-5.109,7.481-10.293,14.914-15.555,22.301
	c-36.766,51.695-76.887,101.019-119.566,147.938c-10.762,11.828-21.688,23.512-32.762,35.035c-3.16,3.293-6.344,6.574-9.531,9.844
	c-11.164,11.438-22.477,22.734-33.926,33.879c-78.539,76.457-163.652,146.133-252.344,210.457
	c-109.074,79.109-223.469,151.316-342.844,213.879c-42.121,22.074-85.121,43.043-129.359,60.734
	c-0.965,0.387-1.93,0.766-2.891,1.148c-3.855,1.527-7.719,3.023-11.586,4.5c-12.578,4.797-25.266,9.305-38.059,13.488
	c-3.574,1.172-7.172,2.32-10.785,3.441c-3.168,0.984-6.34,1.949-9.531,2.898c-1.398,0.41-2.797,0.82-4.199,1.223
	c-21.02,6.055-42.598,11.074-64.348,14.063l-14.668,38.301l-11.262,29.445c18.629,14.453,40.77,23.02,63.957,28
	c3.633,1.254,118.894,40.664,286.402,29.465c28.043-1.668,55.988-4.977,83.75-9.559c0.063-0.012,0.125-0.023,0.188-0.031l0,0
	c39.226-6.492,78.082-15.539,116.324-26.125c60.195-16.723,118.27-40.488,173.66-69.246c47.973-23.453,94.508-49.902,137.731-81.344
	c31.879-23.207,67.063-41.105,101.375-60.441c1.18-0.766,2.363-1.527,3.551-2.297c74.688-48.273,147.859-100.68,207.969-166.816
	c20.992-22.809,42.047-45.598,62.805-68.656c1.383-1.539,2.766-3.074,4.145-4.613c2.773-3.078,5.523-6.16,8.273-9.254
	c5.496-6.18,10.977-12.383,16.418-18.613c2.723-3.113,5.434-6.234,8.137-9.367c10.816-12.512,21.496-25.152,31.973-37.957
	c16.152-21.644,29.57-45.16,46.473-66.184c21.836-26.637,28.887-61.504,47.848-89.887c11.035-19.402,30.066-34.121,35.867-56.27
	c8.473-31.754,22.156-61.754,31.039-93.34c0.598-2.106,1.16-4.215,1.707-6.344c5.117-24.637,26.953-41.043,32.871-65.309
	c14.227-57.824,29.07-115.465,38.992-174.227c1.422-4.531,2.629-9.098,3.645-13.691c0.313-1.387,0.602-2.777,0.879-4.168
	c0.664-3.367,1.246-6.75,1.762-10.148c0.301-2.035,0.582-4.078,0.836-6.125c0.078-0.594,0.148-1.188,0.223-1.785
	c0.141-1.195,0.277-2.391,0.406-3.582c0.25-2.281,0.469-4.559,0.68-6.844c0.203-2.285,0.391-4.57,0.563-6.863
	c0.043-0.566,0.094-1.141,0.125-1.715c0.137-1.82,0.266-3.645,0.387-5.465c1.848-27.363,2.688-54.848,11.469-81.109
	L1548.246,238.883z"/>
<path style="fill:#9AC663;" d="M2051.043,179.672c0.82-6.309-1.934-14.707-1.148-21.453l-35.66,5.734
	c-15.547,162.035-46.77,323.848-107.039,475.516c-68.555,175.848-179.223,333.668-315.016,464.16
	c-150.59,145.848-319.133,272.727-498.848,380.582c-79.594,47.277-164.988,86.453-256.07,105.602
	c-74.105,14.977-149.269,26.016-224.934,28.387c-96.746,3.805-193.375-8.109-288.133-26.699
	c-39.137-7.734-77.742-17.793-115.535-30.492l-17.469,45.629c10.914,9.16,20.512,21.266,34.254,24.973
	c64.691,14.098,125.637,50.027,193.941,47.094c40.422-3.242,79.906,5.18,119.332,12.73c42.418,0.805,84.211,8.047,126.504,10.227
	c66.129,1.559,131.871-8.73,195.496-25.945c21.395-5.992,40.984-19.781,64.004-18.715c41.418-0.313,82.836-3.559,123.633-10.734
	c87.078-40.668,178.465-71.98,262.492-119.02c83.461-47.906,170.418-92.008,242.215-157.129
	c16.102-14.348,31.633-32.379,54.461-34.559c10.422-7.043,20.586-14.473,30.695-21.957c0.617-4.43,1.867-13.223,2.488-17.652
	c-17.777-14.227-40.172-6.488-57.387,4.363c-31.129,19.586-67.055,30.75-96,53.895c-20.898,16.781-45.73,28.574-63.816,48.66
	c-49.719,55.078-123.137,77.16-184.766,115.211c-33.617,17.09-65,42.48-103.488,46.914c24.391-22.457,54.898-37.121,78.098-61.203
	c54.836-44.906,104.676-95.934,163.496-135.914c25.395-17.41,46.598-39.867,69.617-60.074c24.391-21.461,56.449-30.07,83.211-47.785
	c16.594-10.91,33.313-21.582,50.031-32.246c29.754-19.402,51.715-47.723,73.609-75.109c45.031-52.836,93.07-103.234,133.738-159.567
	c27.574-32.938,66.684-55.199,89.078-92.629c14.977-22.453,23.637-48.094,32.875-73.234c11.227-30.188,35.43-53.524,45.789-84.149
	c13.223-39.609,17.215-82.277,36.551-119.832c23.391-44.477,27.324-95.254,35.246-144.035c3.988-26.695,10.602-53.148,11.602-80.277
	C2039.934,325.703,2058.969,253.215,2051.043,179.672z"/>
<path style="fill:#FEF5E2;" d="M612.328,1618.199c75.664-2.371,150.828-13.41,224.934-28.387
	c91.082-19.148,176.477-58.324,256.07-105.602c179.715-107.855,348.262-234.734,498.848-380.582
	c135.793-130.492,246.461-288.313,315.016-464.16c60.273-151.668,91.5-313.48,107.039-475.516l-107.629,17.301
	c1.793,65.629-5.449,131.5-23.988,194.535c-10.48,58.078-24.645,115.469-41.918,171.918c-15.473,40.051-32.879,79.41-47.652,119.77
	c-19.598,55.828-52.531,105.297-79.918,157.316c-26.203,40.367-51.832,81.223-80.715,119.773
	c-49.16,58.762-96.879,118.77-149.59,174.41c-31.309,36.184-68.359,67.563-109.66,91.824
	c-78.34,59.199-156.945,118.957-242.84,166.988c-98.809,51.152-204.168,88.699-311.09,118.645
	c-90.004,22.953-182.762,33.934-275.465,37.68c-105.07,4.586-211.164-4.082-312.984-30.934l-22.125,57.828
	c37.793,12.699,76.398,22.758,115.535,30.492C418.953,1610.09,515.582,1622.004,612.328,1618.199z"/>
<path style="fill:#4A663F;" d="M2072.5,180.293c-2.637-8.129-4.844-16.758-9.012-24.273v0.012l-13.594,2.188
	c-0.785,6.746,1.969,15.145,1.148,21.453c7.926,73.543-11.109,146.031-12.852,219.266c-1,27.129-7.613,53.582-11.602,80.277
	c-7.922,48.781-11.855,99.559-35.246,144.035c-19.336,37.555-23.328,80.223-36.551,119.832
	c-10.359,30.625-34.563,53.961-45.789,84.149c-9.238,25.141-17.898,50.781-32.875,73.234c-22.395,37.43-61.504,59.691-89.078,92.629
	c-40.668,56.332-88.707,106.73-133.738,159.567c-21.895,27.387-43.855,55.707-73.609,75.109
	c-16.719,10.664-33.438,21.336-50.031,32.246c-26.762,17.715-58.82,26.324-83.211,47.785c-23.02,20.207-44.223,42.664-69.617,60.074
	c-58.82,39.98-108.66,91.008-163.496,135.922c-23.199,24.074-53.707,38.738-78.098,61.195
	c38.488-4.434,69.871-29.824,103.488-46.914c61.629-38.047,135.047-60.133,184.766-115.211c18.09-20.086,42.918-31.879,63.816-48.66
	c28.945-23.145,64.871-34.309,96-53.895c17.215-10.852,39.609-18.59,57.387-4.363c38.555-38.551,77.352-76.851,112.156-118.836
	c21.648-19.961,36.871-51.023,67.563-58.137c27.695-43.289,64.5-86.02,115.523-101.117c-2.746-0.684-8.297-2.059-11.039-2.746
	c23.516-41.793,45.914-84.207,71.797-124.629c3.996-7.113,10.227-12.539,18.094-14.977l0.68-0.309
	c5.738-15.531,10.918-31.25,15.414-47.219c-15.035,12.91-28.258,28.945-46.41,37.43c-13.168,3.117-18.59-13.481-14.039-23.461
	c8.301-24.199,23.023-45.469,33.129-68.926c11.723-28.695,41.727-48.219,44.031-80.848c6.684-58.258,6.051-123.945,48.848-169.484
	C2108.992,408.48,2104.813,291.082,2072.5,180.293z"/>
<path style="fill:#D0333A;" d="M1906.605,181.254l-71.063,11.434c-8.773,26.262-9.629,53.746-11.477,81.109
	c-0.121,1.82-0.25,3.645-0.387,5.465c-0.031,0.574-0.082,1.148-0.125,1.715c-0.172,2.293-0.359,4.578-0.563,6.863
	c-0.211,2.285-0.43,4.563-0.68,6.844c-0.129,1.191-0.266,2.387-0.406,3.582c-0.074,0.598-0.145,1.191-0.223,1.785
	c-0.254,2.047-0.535,4.09-0.836,6.125c-0.516,3.398-1.098,6.781-1.762,10.148c-0.277,1.391-0.566,2.781-0.879,4.168
	c-1.016,4.594-2.223,9.16-3.645,13.691c-9.922,58.762-24.766,116.402-38.992,174.227c-5.918,24.266-27.754,40.672-32.871,65.309
	c-0.547,2.129-1.109,4.238-1.707,6.344c-8.871,31.586-22.566,61.586-31.039,93.34c-5.801,22.148-24.832,36.867-35.867,56.27
	c-18.961,28.383-26.012,63.25-47.848,89.887c-16.902,21.023-30.32,44.539-46.473,66.184c-10.477,12.805-21.156,25.445-31.973,37.957
	c-2.703,3.133-5.414,6.254-8.137,9.367c-5.441,6.23-10.922,12.434-16.418,18.613c-2.75,3.094-5.5,6.176-8.273,9.254
	c-1.379,1.539-2.762,3.074-4.145,4.613c-20.758,23.059-41.813,45.848-62.805,68.656c-60.109,66.137-133.281,118.543-207.969,166.816
	c-1.188,0.77-2.371,1.531-3.551,2.297c-34.313,19.336-69.496,37.234-101.375,60.441c-43.223,31.441-89.758,57.891-137.731,81.344
	c-55.391,28.758-113.465,52.523-173.66,69.246c-38.242,10.586-77.098,19.633-116.324,26.125l0,0
	c-0.063,0.008-0.125,0.02-0.188,0.031c-27.762,4.582-55.707,7.891-83.75,9.559c-167.508,11.199-282.77-28.211-286.402-29.465
	c-23.188-4.98-45.328-13.547-63.957-28l-42.324,110.582c101.82,26.852,207.914,35.52,312.984,30.934
	c92.703-3.746,185.461-14.727,275.469-37.68c106.918-29.945,212.277-67.492,311.086-118.645
	c85.895-48.031,164.492-107.793,242.84-166.988c41.301-24.27,78.352-55.641,109.66-91.824
	c52.719-55.641,100.43-115.648,149.59-174.41c28.883-38.551,54.512-79.406,80.715-119.773
	c27.387-52.02,60.32-101.488,79.918-157.316c14.773-40.359,32.18-79.719,47.652-119.766c17.273-56.453,31.438-113.844,41.91-171.922
	C1901.156,312.754,1908.398,246.883,1906.605,181.254z"/>
<path style="fill:#EB5C5A;" d="M927.152,338.754c-30.895,5.125-61.809,10.109-92.762,14.918l-0.297,0.047l0.004-0.004
	c-23.875,3.703-47.773,7.313-71.695,10.789c-32.742,3.676-66.859,12.91-91,36.734c-25.078,23.27-36.242,56.395-49.219,87.023
	c-12.008,28.434-23.898,56.914-35.672,85.434v0.008l-287.476,751.148c21.75-2.988,43.332-8.008,64.352-14.063
	c1.402-0.402,2.801-0.813,4.199-1.223c3.191-0.949,6.363-1.914,9.531-2.898c3.613-1.121,7.211-2.27,10.785-3.441
	c12.793-4.184,25.48-8.691,38.059-13.488c3.867-1.477,7.73-2.973,11.586-4.5c0.961-0.383,1.926-0.762,2.891-1.148
	c44.238-17.691,87.238-38.66,129.359-60.734c119.375-62.563,233.77-134.77,342.844-213.879
	c88.691-64.324,173.805-134,252.344-210.457c11.449-11.144,22.762-22.441,33.926-33.879c3.188-3.27,6.371-6.551,9.531-9.844
	c11.074-11.523,22-23.207,32.762-35.035c42.68-46.918,82.801-96.242,119.566-147.938c5.262-7.387,10.445-14.82,15.555-22.301
	c43.91-64.238,81.008-132.465,116.691-201.523c18.789-36.344,37.063-72.953,55.23-109.617L927.152,338.754z"/>
<path style="fill:#9BC661;" d="M2047.605,692.176c-2.305,32.629-32.309,52.152-44.031,80.848
	c-10.105,23.457-24.828,44.727-33.129,68.926c-4.551,9.98,0.871,26.578,14.039,23.461c18.152-8.484,31.375-24.52,46.41-37.43
	c32.371-98.809,55.141-201.676,65.559-305.289C2053.656,568.231,2054.289,633.918,2047.605,692.176z"/>
<path style="fill:#3D161B;" d="M1139.313,518.598c20.965-13.305,7.613-44.793-11.805-52.34c-23.613-9.742-53.98-13.727-75.398,3.023
	c-7.371,4.809-7.664,16.559-1.82,22.656C1070.355,518.004,1108.301,529.398,1139.313,518.598z"/>
<path style="fill:#3C161B;" d="M864.051,830.828c-4.055,28.41,4.402,61.574,30.105,77.391c16.57,10.344,40.789-2.734,40.445-22.516
	c-0.727-32.383-24.918-61.84-54.051-74.023C870.625,812.301,863.707,821.051,864.051,830.828z"/>
<path style="fill:#3C161B;" d="M636.598,1099.023c15.43-28.473,9.047-66.051-10.207-91.082c-8.934-4.383-19.281-0.215-23.832,8.441
	c-17.609,22.656-26.719,55.652-12.246,82.137C599.566,1115.723,627.09,1116.375,636.598,1099.023z"/>
<path style="fill:#3C161B;" d="M1063.512,629.949c-5.898,8.019-3.637,18.941,4.086,24.953
	c19.188,21.336,50.043,36.137,78.668,26.574c18.57-6.063,24.082-33.031,8.691-45.461
	C1129.66,615.789,1091.547,615.426,1063.512,629.949z"/>
<path style="fill:#3C161B;" d="M1289.418,436.824c24.73,14.551,58.625,19.352,83.023,1.594
	c15.875-11.387,12.996-38.758-5.434-45.961c-30.227-11.652-66.668-0.492-89.02,21.816
	C1274.785,423.691,1280.242,433.422,1289.418,436.824z"/>
<path style="fill:#3C151A;" d="M861.41,643.66c14.785,1.433,29.316-13.164,23.391-28.074c-8.106-24.512-30.188-40.984-51.965-52.832
	c-7.855-3.496-18.965-11.731-26.262-2.746C797.652,593.879,822.355,642.473,861.41,643.66z"/>
<path style="fill:#3C161A;" d="M717.539,812.141c-6.836-6.5-17.328-10.02-26.012-7.234c-1.644,0.523-3.227,1.281-4.711,2.285
	c-7.566,5.141-10.277,14.941-11.359,24.019c-2.855,24.035,1.828,63.113,20.828,80.836c17.875,16.68,41.352,8.379,46.684-18.598
	c3.469-17.559-2.906-35.414-9.184-52.18C729.852,830.766,725.672,819.875,717.539,812.141z"/>
<path style="fill:#39543C;" d="M1996.707,890.484c-25.883,40.422-48.281,82.836-71.797,124.629
	c2.742,0.688,8.293,2.063,11.039,2.746c8.234-1.559,16.535-3.176,24.828-4.805c20.398-44.785,37.992-91.008,54.023-137.547
	C2006.934,877.945,2000.703,883.371,1996.707,890.484z"/>
<path style="fill:#6FB85C;" d="M1935.949,1017.859c-51.023,15.098-87.828,57.828-115.523,101.117
	c-11.668,25.453-13.785,53.52-20.523,80.223c-8.551,17.461-23.586,30.625-34.559,46.539c-19.023,24.758-30.879,55.262-55.332,75.598
	c-20.332,17.465-46.594,27.137-64.754,47.223c-22.203,24.449-35.492,55.391-57.258,80.152
	c-36.613,42.797-81.16,77.914-127.441,109.605c-46.16,34.059-80.594,80.906-119.527,122.508
	c33.633-14.348,64.133-34.867,95.137-54.016c89.137-58.078,173.168-124.574,248.145-200.238
	c117.961-118.211,209.594-260.809,276.465-413.516C1952.48,1014.684,1944.18,1016.301,1935.949,1017.859z"/>
<path style="fill:#3A593C;" d="M1460.559,1558.316c46.281-31.691,90.828-66.809,127.441-109.605
	c21.766-24.762,35.055-55.703,57.266-80.152c18.152-20.086,44.414-29.758,64.746-47.223c24.453-20.336,36.309-50.84,55.332-75.598
	c10.973-15.914,26.008-29.078,34.559-46.539c6.738-26.703,8.855-54.77,20.523-80.223c-30.691,7.113-45.914,38.176-67.563,58.137
	c-34.805,41.984-73.602,80.285-112.156,118.836c-0.621,4.43-1.871,13.223-2.488,17.652c-10.109,7.484-20.273,14.914-30.695,21.957
	c-15.344,14.531-35.246,26.945-41.426,48.465c-10.414,30.133-31.246,54.898-51.891,78.535
	c-30.383,34.688-74.922,52.902-104.797,88.086c-24.707,29.258-50.219,57.883-77.789,84.457
	c-38.496,39.176-87.086,65.809-129.313,100.309c-0.379,2.18-1.121,6.547-1.496,8.73c47.844-18.148,96.813-35.93,140.219-63.316
	C1379.965,1639.223,1414.398,1592.375,1460.559,1558.316z"/>
<path style="fill:#70B75A;" d="M1553.063,1370.117c-71.797,65.121-158.754,109.223-242.215,157.129
	c-84.027,47.039-175.414,78.352-262.492,119.02c48.094-5.363,96.875-7.609,143.848-20.148c31.191-7.984,62.07-18.09,94.191-21.828
	c10.484-3.184,19.59,2.371,25.328,10.914c-41.922,39.855-99.746,51.961-151.766,72.926c-31.066,12.473-63.945,22.582-97.82,21.02
	c-22.57,0.125-46.031-8.426-67.863,0.746c-25.887,9.48-52.836,15.973-78.098,27.074c-46.848,20.648-96.375,34.496-146.652,43.48
	c-45.473,13.348-93.508,13.906-140.293,9.168l1,0.996c2.367,1.875,7.047,5.555,9.418,7.43c15.535-5.309,31.754,1.426,47.594,2.055
	c172.484,15.223,348.328-1.625,513.316-54.766l0.254-1.191c0.375-2.184,1.117-6.551,1.496-8.73
	c42.227-34.5,90.816-61.133,129.313-100.309c27.57-26.574,53.082-55.199,77.789-84.457c29.875-35.184,74.414-53.398,104.797-88.086
	c20.645-23.637,41.477-48.402,51.891-78.535c6.18-21.52,26.082-33.934,41.426-48.465
	C1584.695,1337.738,1569.164,1355.77,1553.063,1370.117z"/>
<path style="fill:#39583C;" d="M769.523,1780.441c50.277-8.977,99.805-22.824,146.652-43.473
	c25.262-11.102,52.211-17.594,78.098-27.074c21.832-9.172,45.293-0.621,67.863-0.746c33.875,1.563,66.754-8.547,97.82-21.02
	c52.02-20.965,109.844-33.063,151.766-72.926c-5.738-8.543-14.844-14.094-25.328-10.914c-32.121,3.738-63,13.844-94.191,21.828
	c-46.973,12.539-95.754,14.785-143.848,20.148c-40.797,7.176-82.215,10.422-123.633,10.734
	c-23.02-1.066-42.605,12.723-64.004,18.715c-63.625,17.215-129.367,27.504-195.496,25.945c-28.504,7.113-58.074,9.051-87.332,9.797
	c-33.434,0.5-66.555-11.789-99.863-6.613c-17.277,5.801-14.785,26.695-17.156,41.109c55.703,17.465,111.844,34.805,169.363,44.66
	l-1.004-0.996C676.016,1794.355,724.051,1793.797,769.523,1780.441z"/>
<path style="fill:#2F432E;" d="M478.027,1704.844c33.309-5.176,66.43,7.113,99.863,6.613c29.258-0.746,58.828-2.684,87.332-9.797
	c-42.285-2.18-84.086-9.422-126.504-10.227c-39.426-7.547-78.91-15.973-119.332-12.73c-68.305,2.934-129.25-32.996-193.941-47.094
	c70.25,52.527,151.773,88.703,235.426,114.344C463.242,1731.539,460.75,1710.645,478.027,1704.844z"/>
<path style="fill:#FEF5E2;" d="M699.598,590.609c29.445,1.789,52.289-28.012,56.809-57.172c2.926-18.883,0.25-39.406-11.281-54.641
	c-38.223-50.516-87.949,10.434-90.707,52.668C652.625,558.988,672.066,588.926,699.598,590.609z"/>
<path style="fill:#FEF5E2;" d="M693.684,642.191c-12.625-24.59-51.262-27.844-55.809,5.125
	C630.855,698.144,716.894,687.418,693.684,642.191z"/>
<path style="fill:#D0333A;" d="M1700.328,439.813c82.629-23.23,49.809-156.016-32.117-140.441
	C1577.84,316.551,1608.598,465.594,1700.328,439.813z"/>
<path style="fill:#D0333A;" d="M1586.805,556.551c16.691,3.082,33.207-9,40.867-24.148c16.074-31.797-15.262-82.23-51.523-58.906
	C1549.129,490.871,1552.039,550.121,1586.805,556.551z"/>
<path style="fill:#D0333A;" d="M494.348,1405.633c19.902,1.707,41.652-13.535,41.191-33.5c-0.277-11.555-7.664-22.09-17.227-28.574
	c-26.086-17.695-70.762-12.215-62.375,29.398C459.5,1390.633,476.387,1404.098,494.348,1405.633z"/>
</svg>
