<?xml version="1.0" encoding="utf-8"?>
<!-- Generator: Adobe Illustrator 27.5.0, SVG Export Plug-In . SVG Version: 6.00 Build 0)  -->
<svg version="1.1" id="Layer_1" xmlns="http://www.w3.org/2000/svg" xmlns:xlink="http://www.w3.org/1999/xlink" x="0px" y="0px"
	 viewBox="0 0 4000 4000" style="enable-background:new 0 0 4000 4000;" xml:space="preserve">
<g>
	<g>
		<g>
			<!-- <rect style="fill:#BCFA7B;" width="4000" height="4000"/> -->
		</g>
	</g>
	<g>
		<g>
			<g>
				<g>
					<path style="fill:#4CE550;" d="M1416.706,2813.733c0,0-12.612,92.166-57.24,176.57c0,0,10.342,140.815,149.899,172.456
						c26.515,6.011,53.782-7.096,65.244-31.749c25.501-54.85,73.743-154.283,105.981-194.066
						C1726.188,2880.674,1416.706,2813.733,1416.706,2813.733z"/>
				</g>
			</g>
			<g style="opacity:0.25;">
				<g>
					<path style="fill:#390175;" d="M1558.76,2866.987c-29.252,47.578-63.14,117.752-83.108,160.7
						c-11.462,24.653-38.729,37.76-65.244,31.748c-19.803-4.49-36.747-11.343-51.687-19.516
						c13.308,44.043,48.725,113.884,142.047,135.042c26.515,6.011,53.782-7.095,65.245-31.749
						c25.5-54.849,73.742-154.283,105.981-194.066C1694.621,2921.225,1629.801,2890.683,1558.76,2866.987z"/>
				</g>
			</g>
			<g>
				<g>
					<path style="fill:#390175;" d="M1522.035,3191.062c-6.174,0-12.412-0.679-18.613-2.085
						c-125.745-28.508-166.687-141.135-170.767-196.704c-0.371-5.037,0.686-10.073,3.044-14.536
						c41.736-78.938,54.25-166.792,54.373-167.668c1.025-7.412,5.095-14.072,11.228-18.359c6.133-4.285,13.779-5.823,21.089-4.253
						c2.59,0.562,64.189,13.953,129.133,34.009c125.212,38.665,150.117,66.675,157.964,88.977
						c5.232,14.861,2.312,30.691-8.01,43.428c-22.163,27.354-59.519,96.05-102.488,188.474
						C1585.006,3172.412,1554.416,3191.062,1522.035,3191.062z M1387.15,2995.295c4.063,26.338,25.459,117.959,128.159,141.245
						c14.209,3.215,28.884-3.877,34.922-16.865c30.879-66.423,73.726-152.839,105.674-194.817
						c-20.227-20.315-114.397-54.277-217.756-78.708C1431.098,2879.885,1415.946,2938.337,1387.15,2995.295z"/>
				</g>
			</g>
			<g>
				<g>
					<path style="fill:#4CE550;" d="M2157.784,2542.844c0,0,596.776-113.296,762.674-1152.341c0,0-387.095-24.739-969.193,447.488
						L2157.784,2542.844z"/>
				</g>
			</g>
			<g style="opacity:0.25;">
				<g>
					<path style="fill:#390175;" d="M2804.915,1510.036c-67.773,424.608-207.731,694.724-349.321,865.547
						c-161.025,141.263-297.88,167.23-297.88,167.23l-199.076-680.026C2471.598,1488.642,2804.915,1510.036,2804.915,1510.036z"/>
				</g>
			</g>
			<g>
				<g>
					<path style="fill:#390175;" d="M2157.765,2569.731c-11.726,0-22.373-7.7-25.781-19.329l-206.518-704.854
						c-3.047-10.398,0.449-21.609,8.862-28.438c304.006-246.624,554.89-356.702,711.821-405.618
						c172.305-53.704,271.863-48.091,276.023-47.82c7.556,0.481,14.558,4.128,19.287,10.044c4.727,5.913,6.741,13.547,5.547,21.023
						c-38.279,239.753-102.781,450.471-191.714,626.296c-71.575,141.509-159.072,260.933-260.063,354.956
						c-173.616,161.633-326.025,192.048-332.429,193.264C2161.112,2569.577,2159.425,2569.731,2157.765,2569.731z
						 M1982.111,1847.651l194.082,662.407c47.563-14.844,161.309-59.712,285.42-176.245
						c147.757-138.735,340.261-409.722,427.068-915.957c-40.288,2.222-119.741,11.331-230.344,46.167
						C2509.03,1511.049,2271.383,1615.737,1982.111,1847.651z"/>
				</g>
			</g>
			<g>
				<g>
					<path style="fill:#4CE550;" d="M1444.84,2834.106c0,0-376.423-220.253-357.02-750.434
						c19.403-530.181,485.082-835.783,426.872-1241.796c0,0,244.481,245.936,275.526,723.257S1444.84,2834.106,1444.84,2834.106z"/>
				</g>
			</g>
			<g style="opacity:0.25;">
				<g>
					<path style="fill:#390175;" d="M1444.863,2834.159c0,0-358.304-209.69-357.651-712.198
						c87.045-477.848,519.818-748.29,486.993-1135.99c0,0,137.344,155.309,201.362,446.818
						c6.695,41.808,11.758,85.902,14.697,132.282C1821.294,2042.428,1444.863,2834.159,1444.863,2834.159z"/>
				</g>
			</g>
			<g>
				<g>
					<path style="fill:#390175;" d="M1444.84,2860.991c-4.724,0-9.417-1.245-13.577-3.682
						c-4.033-2.358-99.819-59.202-193.66-183.394c-86.279-114.187-186.963-309.451-176.65-591.228
						c9.895-270.388,134.475-486.357,244.387-676.907c113.044-195.977,210.676-365.229,182.739-560.088
						c-1.646-11.472,4.246-22.707,14.617-27.876c10.376-5.173,22.891-3.11,31.062,5.105c2.607,2.625,64.646,65.686,130.745,188.877
						c60.564,112.881,136.194,300.208,152.544,551.589c13.11,201.58-41.563,478.853-162.502,824.114
						c-89.663,255.974-184.478,456.157-185.425,458.149c-3.232,6.799-9.17,11.931-16.367,14.148
						C1450.165,2860.598,1447.497,2860.991,1444.84,2860.991z M1546.474,924.03c-3.914,178.125-96.897,339.314-194.558,508.618
						c-112.004,194.172-227.822,394.956-237.227,652.007c-9.692,264.79,84.016,447.898,164.333,554.875
						c59.868,79.744,121.477,130.405,154.648,154.585c65.955-145.325,356.675-812.788,329.719-1227.236
						C1742.192,1240.942,1618.068,1023.911,1546.474,924.03z"/>
				</g>
			</g>
			<g>
				<g>
					<path style="fill:#FFD629;" d="M1460.363,2593.506c0,0-147.465-23.284-137.763-170.749c0,0-149.89-99.442-46.568-244.966
						c0,0-46.568-193.547,80.038-254.668c0,0-8.732-231.384,148.435-261.944c0,0-20.373-173.174,138.248-206.645
						c0,0-8.731-180.45,146.98-215.376c0,0,8.732-164.443,151.345-212.466c0,0,11.642-161.532,184.816-186.271
						c0,0,11.642-139.703,152.801-177.54c0,0,61.12-129.517,195.003-80.039c0,0,52.389-66.941,144.069-33.471
						c91.68,33.471,65.486,136.793,65.486,136.793s131.457,62.09,65.486,199.854c0,0,95.076,110.599-34.926,234.78
						c0,0,73.732,157.166-42.687,238.66c0,0,81.494,159.107-52.389,269.705c0,0,36.866,155.226-83.434,248.362
						c0,0,77.613,164.928-64.031,228.959c0,0,54.329,205.675-118.36,279.407c0,0-4.792,265.264-224.049,251.681
						c0,0-14.704,91.219-197.095,65.994c0,0-147.371,77.698-256.03-13.044C1675.739,2690.522,1553.499,2773.956,1460.363,2593.506z"
						/>
				</g>
			</g>
			<g>
				<g>
					<path style="fill:#FF9B48;" d="M2721.991,1112.704c99.45-102.089,49.968-193.461,32.206-219.372
						c-3.328-4.855-3.62-11.055-1.312-16.469c46.076-108.096-30.829-167.42-59.517-185.043c-5.873-3.608-8.99-10.228-8.071-17.059
						c3.737-27.801,5.47-98.738-67.53-125.389c-8.366-3.055-16.405-5.271-24.105-6.778c-15.805-3.093-26.373,16.408-15.457,28.25
						c28.287,30.686,53.165,81.395,22.074,154.328c-2.315,5.43-2.008,11.627,1.328,16.496
						c17.777,25.945,67.195,117.291-32.223,219.348c-4.748,4.874-6.374,11.973-3.934,18.325
						c13.374,34.819,48.896,150.441-36.565,220.574c-5.706,4.682-8.139,12.282-5.364,19.121
						c15.139,37.308,53.374,159.694-49.925,252.025c-4.354,3.891-6.699,9.649-5.754,15.411
						c5.458,33.262,17.045,151.48-75.339,231.341c-5.498,4.753-7.822,12.289-5.255,19.089
						c13.877,36.76,48.544,155.675-57.281,212.33c-6.638,3.554-9.887,11.194-8.531,18.6
						c8.305,45.343,24.606,196.946-111.686,262.101c-5.581,2.668-9.515,7.905-9.961,14.074
						c-3.384,46.765-28.483,244.794-210.834,242.359c-6.814-0.091-13.305,3.452-16.068,9.681
						c-10.099,22.764-48.73,74.489-188.573,56.518c-3.239-0.416-6.557,0.06-9.509,1.455c-24.388,11.53-146.31,63.081-242.699-8.134
						c-5.37-3.968-12.371-4.744-18.348-1.767c-11.271,5.614-31.889,13.716-57.337,13.95c-20.202,0.185-24.093,28.84-4.47,33.646
						c0.38,0.093,0.75,0.182,1.107,0.267c4.763,1.132,8.731,4.329,11.062,8.634c77.265,142.735,172.87,109.905,202.46,95.087
						c5.916-2.963,12.8-2.067,18.121,1.865c96.39,71.226,218.321,19.671,242.71,8.14c2.952-1.396,6.271-1.872,9.509-1.455
						c139.843,17.971,178.474-33.754,188.572-56.518c2.763-6.229,9.254-9.772,16.068-9.681
						c182.353,2.437,207.45-195.594,210.834-242.359c0.447-6.169,4.381-11.406,9.961-14.074
						c136.293-65.155,119.992-216.758,111.687-262.101c-1.356-7.406,1.893-15.047,8.531-18.601
						c105.825-56.654,71.157-175.57,57.28-212.329c-2.567-6.799-0.243-14.336,5.255-19.089
						c92.384-79.861,80.797-198.079,75.339-231.341c-0.945-5.762,1.4-11.52,5.754-15.411
						c103.299-92.331,65.064-214.717,49.925-252.025c-2.775-6.839-0.342-14.439,5.364-19.121
						c85.462-70.132,49.94-185.754,36.566-220.574C2715.618,1124.677,2717.243,1117.578,2721.991,1112.704z"/>
				</g>
			</g>
			<g>
				<g style="opacity:0.6;">
					<g>
						<path style="fill:#FFFFFF;" d="M2736.361,741.464c0,0,5.86,2.788,14.439,8.415c-3.82-6.762-8.077-12.961-12.571-18.615
							C2737.32,737.628,2736.361,741.464,2736.361,741.464z"/>
					</g>
				</g>
				<g style="opacity:0.6;">
					<g>
						<path style="fill:#FFFFFF;" d="M1513.471,2648.804c0,0-8.863-1.433-22.004-5.675c14.726,19.205,29.728,33.326,44.514,43.431
							C1528.351,2675.445,1520.814,2663.031,1513.471,2648.804z"/>
					</g>
				</g>
				<g style="opacity:0.6;">
					<g>
						<path style="fill:#FFFFFF;" d="M1326.567,2220.154c-7.33-41.904-22.441-174.556,66.212-232.485
							c9.903-6.471,16.139-17.199,16.563-29.022c1.892-52.815,16.987-195.842,123.584-235.291
							c13.805-5.109,23.551-17.365,23.914-32.081c1.125-45.71,15.761-140.693,114.209-174.624
							c14.094-4.858,24.381-16.954,25.561-31.815c3.777-47.59,23.818-149.561,124.723-184.31
							c12.599-4.339,22.032-14.919,24.297-28.051c7.557-43.817,34.856-141.438,130.611-183.542
							c10.829-4.762,18.529-14.537,20.994-26.107c8.714-40.9,41.246-135.242,158.073-162.665
							c13.497-3.168,24.476-13.384,27.722-26.862c9.44-39.192,39.942-119.017,134.735-150.887
							c8.352-2.808,15.716-7.976,20.332-15.481c17.565-28.557,72.336-99.874,169.563-74.808c11.569,2.982,23.747,0.091,32.941-7.538
							c21.178-17.572,66.102-43.344,130.278-19.915c2.969,1.084,5.483,2.429,8.21,3.654c-8.696-23.403-26.46-46.228-61.318-58.954
							c-64.176-23.429-109.099,2.343-130.278,19.915c-9.194,7.629-21.372,10.52-32.941,7.538
							c-97.228-25.065-151.999,46.252-169.564,74.808c-4.616,7.505-11.98,12.673-20.331,15.481
							c-94.792,31.87-125.294,111.696-134.734,150.887c-3.246,13.478-14.225,23.694-27.722,26.862
							c-116.827,27.423-149.359,121.765-158.073,162.665c-2.465,11.57-10.165,21.346-20.994,26.107
							c-95.756,42.104-123.054,139.725-130.611,183.542c-2.265,13.132-11.698,23.712-24.297,28.051
							c-100.905,34.749-120.946,136.72-124.723,184.31c-1.18,14.861-11.467,26.957-25.561,31.815
							c-98.448,33.931-113.084,128.915-114.21,174.625c-0.362,14.716-10.109,26.972-23.914,32.081
							c-106.597,39.448-121.692,182.476-123.584,235.291c-0.424,11.823-6.659,22.551-16.563,29.022
							c-87.848,57.403-73.806,188.18-66.412,231.322c1.501,8.759-0.017,17.822-4.765,25.333
							c-5.349,8.462-9.849,16.758-13.584,24.877c-19.229,41.8,40.865,72.578,64.882,33.333c0.476-0.777,0.959-1.556,1.449-2.336
							C1325.891,2237.493,1328.074,2228.769,1326.567,2220.154z"/>
					</g>
				</g>
				<g style="opacity:0.6;">
					<g>
						<path style="fill:#FFFFFF;" d="M1375.708,2478.056c0,0-29.339-19.503-53.112-53.824
							c-4.478,76.313,33.243,118.948,70.393,142.381C1380.631,2543.74,1373.294,2514.754,1375.708,2478.056z"/>
					</g>
				</g>
			</g>
			<g>
				<g>
					<path style="fill:#390175;" d="M1469.336,2239.792c-24.1-53.012-1.155-104.259,51.027-127.531
						c0-0.001-10.611,20.217-10.611,20.217c-14.105-65.96,6.234-143.812,77.914-164.308c-0.001-0.001,1.386-0.45,1.386-0.45
						c0.245-0.071,1.586-0.535,0.234-0.063c-4.848,1.679-8.421,7.396-7.679,12.686c0,0-0.19-2.627-0.19-2.627
						c-2.575-36.169,13.536-73.547,41.086-96.653c11.302-9.59,24.057-16.653,37.096-22.063c3.956-1.643,8.494,0.234,10.136,4.192
						c1.488,3.577,0.082,7.608-3.083,9.578c-30.977,19.73-52.274,51.915-50.634,89.053c-0.016,5.024,0.405,10.062,1.054,15.009
						c1.32,10.376-5.562,21.137-15.197,24.514c-47.333,13.538-60.891,61.765-58.698,106.263c0.219,5.57,0.843,12.332,1.678,17.509
						c1.371,8.525-3.146,16.638-10.554,20.195c-39.834,14.787-55.439,46.535-47.986,87.867
						C1489.275,2243.931,1474.349,2249.888,1469.336,2239.792L1469.336,2239.792z"/>
				</g>
			</g>
			<g>
				<g>
					<path style="fill:#390175;" d="M1903.363,2311.726c33.93-13.856,63.833-44.223,64.64-82.334
						c0.609-11.975-0.831-24.348-3.971-36.64c-2.07-8.108,1.974-16.343,9.243-19.827c52.097-26.051,107.472-76.793,95.498-140.53
						c-0.833-5.621-2.771-11.973-4.306-17.51c-3.432-11.698,3.373-25.143,14.698-29.868c32.003-17.755,57.48-47.438,65.281-83.921
						c3.563-15.505,4.43-31.863,3.728-48.457c-0.361-4.367,3.002-8.225,7.398-8.394c3.852-0.161,7.165,2.52,7.914,6.179
						c13.104,55.266-4.106,115.844-48.856,152.595c-6.391,5.347-13.368,10.119-20.569,14.383c1.353-0.725,2.61-1.851,3.534-3.142
						c1.883-2.593,2.347-5.835,1.633-8.601l1.787,5.774c28,86.572-36.966,160.731-112.323,193.854
						c0.001,0,10.349-20.351,10.349-20.351c15.242,68.68-21.374,130.103-91.249,144.465
						C1896.628,2331.312,1892.567,2315.348,1903.363,2311.726L1903.363,2311.726z"/>
				</g>
			</g>
			<g>
				<g>
					<path style="fill:#390175;" d="M2316.336,1716.187c45.6-30.756,61.329-78.568,36.202-128.55
						c-3.84-7.968-0.926-17.291,6.167-21.985c51.813-40.664,95.542-107.772,57.504-172.102c-5.018-9.701-2.47-23.104,6.175-30.183
						c2.158-1.657,4.535-3.844,6.593-5.664c25.612-23.543,42.909-55.954,43.388-91.399c0.463-16.001-1.928-32.342-5.908-48.564
						c-1.014-4.155,1.533-8.347,5.689-9.36c3.745-0.916,7.519,1.067,8.97,4.509c6.968,16.482,12.234,34.106,14.014,52.637
						c4.745,45.935-14.412,94.216-49.406,124.7c3.622-2.84,4.822-8.631,2.768-12.527c42.852,71.142,10.951,148.991-47.217,199.712
						c-7.276,6.465-13.83,11.913-22.099,17.696c0,0,6.165-21.985,6.165-21.985c12.32,29.111,16.903,64.369,4.489,94.644
						c-12.162,30.155-36.256,52.431-65.689,64.89C2313.566,1736.71,2306.457,1721.855,2316.336,1716.187L2316.336,1716.187z"/>
				</g>
			</g>
			<g>
				<g>
					<path style="fill:#390175;" d="M1887.834,1487.502c-18.688-42.077,5.696-80.218,44.635-98.298
						c-0.001-0.001-11.709,17.846-11.709,17.846c-1.048-85.16,57.647-136.04,141.21-129.513c0-0.001-18.597,21.667-18.597,21.667
						c-0.732-3.574-1.103-6.116-1.539-9.111c-7.358-54.484,2.221-114.72,41.003-156.518c24.221-26.183,58.964-42.055,92.858-48.774
						c0,0-14.357,18.108-14.357,18.108c0.079-79.398,43.711-153.83,126.082-168.515c-0.001-0.001-14.512,18.202-14.512,18.202
						c-0.272-28.315,7.039-55.598,19.156-80.901c16.427-32.854,43.886-60.719,78.103-74.704c8.124-3.643,17.024-5.497,25.553-7.862
						c8.518-1.914,13.945,9.465,6.517,14.625c-20.47,12.498-40.124,25.766-55.754,43.931c-24.14,28.579-36.804,66.518-37.75,103.698
						c0.07,8.89-6.184,16.389-14.525,18.208c-29.455,5.62-55.556,21.046-72.108,46.14c-14.723,21.648-22.393,48.979-24.51,75.256
						c-0.288,2.875-0.434,8.29-0.424,10.835c0.256,8.855-5.97,16.407-14.357,18.11c-87.521,16.413-118.013,90.005-104.359,171.9
						c2.527,11.335-7.092,22.356-18.635,21.486c-27.195-1.467-55.19,2.167-75.684,20.483
						c-19.291,17.064-27.883,45.633-27.587,71.199l-11.709,17.849c-31.45,6.828-51.623,27.869-46.447,61.595
						c0.432,3.034-1.678,5.844-4.712,6.276C1891.174,1491.077,1888.823,1489.697,1887.834,1487.502L1887.834,1487.502z"/>
				</g>
			</g>
			<g>
				<g>
					<path style="fill:#390175;" d="M2591.455,837.947c26.798,31.778,31.392,80.544,11.422,116.929
						c-6.385,12.454-16.144,22.698-26.952,30.586c-3.726,2.72-8.951,1.904-11.671-1.824c-1.982-2.694-2.005-6.028-0.688-8.85
						c20.891-43.707,22.312-81.993,13.573-128.982C2574.888,837.304,2585.61,831.39,2591.455,837.947L2591.455,837.947z"/>
				</g>
			</g>
			<g>
				<g>
					<path style="fill:#390175;" d="M2071.678,2403.882c13.252,39.401-0.385,86.445-32.324,112.952
						c-10.513,9.238-23.353,15.183-36.302,18.55c-4.465,1.16-9.025-1.519-10.186-5.984c-0.853-3.232,0.348-6.346,2.611-8.484
						c35.568-33.113,50.805-67.93,59.999-114.981C2056.508,2397.199,2068.65,2395.637,2071.678,2403.882L2071.678,2403.882z"/>
				</g>
			</g>
			<g>
				<g>
					<path style="fill:#390175;" d="M1802.226,2761.655c-41.521,0-87.048-9.683-129.165-39.321
						c-20.874,9.392-58.079,20.776-101.34,9.839c-50.476-12.766-93.86-51.375-129.094-114.839
						c-58.618-14.209-147.698-65.757-147.368-181.558c-22.371-18.228-67.834-62.104-79.612-125.452
						c-8.567-46.069,2.119-92.522,31.763-138.23c-8.247-44.529-27.644-198.428,81.76-264.924
						c1.206-54.834,15.759-223.604,147.234-266.455c-0.444-68.232,27.959-172.412,139.534-206.982
						c3.325-70.503,37.114-180.381,149.16-215.767c7.09-46.755,36.077-162.856,151.36-210.735
						c11.018-63.33,59.778-163.044,185.747-189.898c11.729-56.623,54.658-144.058,157.971-177.031
						c28.499-49.985,99.495-118.252,205.823-88.228c29.66-26.575,87.534-54.773,160.989-27.956
						c78.206,28.552,91.03,100.847,85.911,148.298c21.501,14.229,56.34,43.108,72.519,88.635
						c13.472,37.908,11.436,78.909-6.016,122.063c22.69,36.435,67.398,136.074-33.877,243.884
						c23.399,62.646,36.689,171.011-41.394,240.596c25.613,66.192,38.111,183.958-56.257,271.77
						c6.264,43.237,13.03,161.663-80.466,246.323c10.864,31.128,26.867,94.136,5.268,152.725
						c-12.898,34.988-36.763,62.725-71.076,82.683c3.618,22.283,7.371,59.57,1.906,100.959
						c-11.013,83.423-54.016,145.825-124.744,181.458c-3.569,40.632-19.367,143.44-88.965,207.688
						c-38.274,35.33-86.286,53.369-142.937,53.757c-17.183,32.053-67.447,83.943-210.596,66.309
						C1916.549,2740.358,1863.796,2761.655,1802.226,2761.655z M1675.776,2663.706c6.15,0,12.271,2.068,17.197,6.182
						c93.738,78.279,224.944,10.588,226.257,9.897c4.976-2.627,10.649-3.623,16.223-2.849
						c119.768,16.575,161.413-21.257,166.902-43.945c1.609-14.18,13.872-23.083,28.172-22.251
						c49.961,3.096,91.226-9.99,122.629-38.892c69.511-63.977,72.851-185.264,72.876-186.482
						c0.222-10.562,6.609-20.054,16.323-24.199c148.875-63.564,104.858-240.374,102.913-247.871
						c-3.291-12.666,3.006-25.918,14.932-31.309c31.49-14.236,51.75-34.497,61.941-61.941
						c21.848-58.843-10.854-130.413-11.187-131.128c-5.293-11.382-2.031-24.966,7.893-32.649
						c104.71-81.067,75.032-215.288,73.716-220.962c-2.3-9.929,1.194-20.379,9.053-26.87
						c115.173-95.144,48.445-231.055,45.547-236.792c-6.021-11.931-2.402-26.548,8.548-34.211
						c96.235-67.366,36.335-199.67,33.74-205.269c-4.844-10.442-2.529-22.859,5.794-30.808
						c46.301-44.226,66.035-90.571,58.655-137.747c-5.625-35.955-25.454-59.954-25.652-60.193
						c-6.772-8.079-8.308-19.504-3.755-29.011c52.322-109.258-41.912-158.706-52.827-163.984
						c-11.497-5.559-17.607-18.489-14.47-30.864c1.968-8.086,17.58-80.752-48.648-104.932
						c-71.389-26.062-112.117,22.869-113.816,24.963c-7.258,8.945-19.556,12.461-30.352,8.472
						c-45.366-16.763-85.75-11.382-120.042,15.986c-27.439,21.894-41.24,50.122-41.375,50.405
						c-3.398,7.048-9.748,12.371-17.307,14.395c-121.492,32.566-132.869,152.598-132.969,153.806
						c-1.042,12.495-10.579,22.61-22.991,24.382c-63.127,9.018-109.47,38.97-137.742,89.021
						c-20.999,37.173-24.036,72.224-24.063,72.568c-0.779,10.806-7.966,20.088-18.235,23.545
						c-123.879,41.716-133,186.951-133.079,188.413c-0.637,12.031-9.204,22.17-20.962,24.807
						c-131.372,29.468-126.289,181.453-126.008,187.908c0.571,13.137-8.44,24.827-21.304,27.542
						c-132.234,27.903-117.771,171.189-117.09,177.273c1.555,13.921-7.827,26.782-21.577,29.456
						c-132.554,25.776-126.775,232.485-126.702,234.57c0.378,10.657-5.576,20.559-15.178,25.195
						c-105.859,51.104-66.003,222.444-65.588,224.167c1.819,7.551,0.281,15.52-4.216,21.853
						c-25.959,36.56-35.864,72.607-29.446,107.141c11.165,60.046,68.379,99.478,68.955,99.858
						c8.032,5.327,12.595,14.548,11.963,24.167c-7.935,120.618,110.198,141.611,115.232,142.444
						c8.372,1.389,15.703,6.667,19.595,14.211c28.733,55.667,62.358,88.87,99.944,98.687c41.711,10.894,75.151-10.732,76.553-11.658
						C1665.302,2665.2,1670.548,2663.706,1675.776,2663.706z"/>
				</g>
			</g>
			<g>
				<g>
					<path style="fill:#4CE550;" d="M2678.676,2167.198c-4.573,20.25-154.166,671.698-690.804,803.489
						c-362.061,88.841-515.245-35.602-577.304-129.179c-34.622-52.26-20.903-121.829,30.377-157.758
						c8.655-6.042,18.291-12.249,29.069-18.454c79.696-46.054,218.673-92.271,454.167-89.332
						C2379.164,2581.681,2667.898,2182.059,2678.676,2167.198z"/>
				</g>
			</g>
			<g style="opacity:0.25;">
				<g>
					<path style="fill:#390175;" d="M2501.81,2466.529c-105.498,178.662-275.505,367.613-538.272,431.957
						c-351.772,86.554-506.263-28.579-571.588-121.177c2.613-32.988,19.597-64.507,48.993-85.084
						c8.328-5.879,17.474-11.759,27.6-17.638c67.773,91.455,223.082,199.892,567.342,115.297
						C2245.412,2738.441,2395.822,2607.793,2501.81,2466.529z"/>
				</g>
			</g>
			<g style="opacity:0.6;">
				<g>
					<path style="fill:#FFFFFF;" d="M2678.676,2167.198c-138.325,359.12-535.496,498.098-773.114,482.583
						c-237.78-15.515-424.281,40.828-424.281,40.828s-4.41-9.309-11.269-25.313c79.696-46.054,218.673-92.271,454.167-89.332
						C2379.164,2581.681,2667.898,2182.059,2678.676,2167.198z"/>
				</g>
			</g>
			<g>
				<g>
					<path style="fill:#390175;" d="M1761.359,3027.819c-220.281,0-325.908-100.142-373.176-171.477l0,0
						c-42.749-64.514-26.333-150.024,37.371-194.673c75.942-53.228,224.165-115.862,498.884-112.51
						c231.231,2.998,417.398-104.839,533.023-195.735c126.545-99.478,198.708-201.221,199.424-202.236
						c7.356-10.471,21.079-14.316,32.8-9.167c11.721,5.142,18.196,17.825,15.474,30.33c-1.523,7.004-38.545,173.669-143.972,359.365
						c-140.623,247.693-336.68,408.506-566.973,465.056C1905.087,3018.657,1827.968,3027.819,1761.359,3027.819z M1433.002,2826.64
						c37.727,56.934,92.412,98.147,162.539,122.495c100.933,35.037,230.754,33.501,385.85-4.58
						c218.228-53.586,397.317-200.979,532.292-438.079c47.021-82.598,80.176-162.302,102.278-224.314
						c-32.534,33.889-74.053,73.149-123.919,112.471c-122.685,96.736-320.896,211.36-568.279,208.291
						c-260.554-3.308-397.886,54.087-467.351,102.776c-39.648,27.791-49.932,80.913-23.408,120.94H1433.002z"/>
				</g>
			</g>
		</g>
		<g style="opacity:0.25;">
			<g>
				<ellipse style="fill:#390175;" cx="1964.007" cy="3547.062" rx="641.738" ry="67.938"/>
			</g>
		</g>
	</g>
</g>
</svg>
