<?xml version="1.0" encoding="utf-8"?>
<!-- Generator: Adobe Illustrator 27.5.0, SVG Export Plug-In . SVG Version: 6.00 Build 0)  -->
<svg version="1.1" id="Layer_1" xmlns="http://www.w3.org/2000/svg" xmlns:xlink="http://www.w3.org/1999/xlink" x="0px" y="0px"
	 viewBox="0 0 4000 4000" style="enable-background:new 0 0 4000 4000;" xml:space="preserve">
<g>
	<g>
		<!-- <rect style="fill:#E7C0FF;" width="4000" height="4000"/> -->
	</g>
	<g>
		<g>
			<path style="fill:#CCEEFF;" d="M1670.95,1857.387c-23.231,16.938-38.364,32.901-45.446,47.869
				c-413.266-180.441-619.134-646.815-475.546-1074.263c55.054-163.878,159.799-151.952,312.951,39.132
				c118.68,148.081,176.569,315.953,176.921,501.013C1588.858,1529.983,1599.251,1692.061,1670.95,1857.387z"/>
		</g>
		<g style="opacity:0.25;">
			<path d="M1229.814,734.378c1.618-4.816,3.287-9.451,4.99-13.963c-35.483,11.089-63.805,47.949-84.845,110.578
				c-143.588,427.448,62.28,893.822,475.546,1074.263c7.081-14.968,22.215-30.931,45.445-47.869
				c-11.619-26.792-21.601-53.497-30-80.118C1271.13,1578.424,1093.898,1138.986,1229.814,734.378z"/>
		</g>
		<g>
			<path d="M1625.494,1923.066c-2.38,0-4.797-0.479-7.117-1.492c-203.889-89.021-365.745-250.12-455.752-453.618
				c-89.946-203.367-100.439-431.592-29.546-642.634c25.046-74.556,61.428-116.565,108.137-124.861
				c63.906-11.331,140.989,40.5,235.586,158.525c119.631,149.265,180.474,321.567,180.835,512.117
				c0.002,1.858-0.283,3.706-0.852,5.476c-49.365,153.84-39.104,313.223,30.503,473.723c3.313,7.644,0.886,16.565-5.847,21.472
				c-25.737,18.77-35.872,32.708-39.841,41.099C1638.565,1919.286,1632.176,1923.066,1625.494,1923.066z M1258.272,734.601
				c-3.896,0-7.498,0.334-10.828,0.925c-32.903,5.845-60.024,39.873-80.605,101.138
				c-140.122,417.129,53.848,863.884,451.628,1045.94c7.446-10.176,17.622-20.435,30.701-30.967
				c-67.808-163.394-76.951-325.896-27.156-483.24c-0.928-181.174-59.124-345.054-173.001-487.136
				C1354.1,762.841,1293.99,734.601,1258.272,734.601z"/>
		</g>
		<g>
			<path style="fill-rule:evenodd;clip-rule:evenodd;fill:#373735;" d="M2583.449,1120.196
				c18.986,9.524,31.947,18.448,38.841,26.792c135.43-141.186,315.83-273.448,541.159-396.784
				C2972.821,793.248,2779.502,916.586,2583.449,1120.196z"/>
		</g>
		<g>
			<path d="M2622.291,1159.711c-0.156,0-0.313-0.005-0.471-0.01c-3.628-0.134-7.024-1.812-9.336-4.609
				c-3.928-4.753-13.142-12.693-34.739-23.523c-3.613-1.814-6.152-5.237-6.836-9.224c-0.681-3.984,0.571-8.059,3.376-10.972
				c196.904-204.495,394.185-330.183,586.36-373.579c6.194-1.382,12.461,1.98,14.702,7.91c2.244,5.935-0.227,12.612-5.791,15.659
				c-223.167,122.153-404.207,254.861-538.086,394.431C2629.068,1158.3,2625.75,1159.711,2622.291,1159.711z M2604.276,1117.001
				c6.931,4.072,12.808,8.071,17.686,12.034c113.853-116.67,260.066-228.416,435.715-333.088
				C2908.594,853.679,2756.605,961.242,2604.276,1117.001z"/>
		</g>
		<g>
			<path style="fill-rule:evenodd;clip-rule:evenodd;fill:#C0BFBD;" d="M1670.95,1857.387
				c128.121,185.391,334.424,301.544,559.4,314.939c-5.612,91.888-75.117,167.128-166.28,179.966
				c-181.414,64.991-313.78,241.043-342.311,485.091c-14.08,119.569-55.427,297.175-176.031,349.744
				c-59.051,25.734-129.612,29.152-183.941-5.426c-383.949-244.357-388.42-994.156,246.469-1212.715
				C1609.001,1923.601,1632.586,1881.633,1670.95,1857.387z"/>
		</g>
		<g style="opacity:0.35;">
			<path style="fill-rule:evenodd;clip-rule:evenodd;" d="M2122.988,2157.878c-28.536,17.834-61.926,28.422-97.494,29.348
				c-187.623,43.958-339.135,203.831-395.21,443.056c-27.574,117.194-88.833,288.952-214.629,327.478
				c-61.592,18.858-132.085,14.237-182.133-26.29c-50.277-40.711-91.747-90.717-124.064-146.936
				c30.394,164.614,118.148,311.768,252.33,397.166c54.329,34.577,124.89,31.16,183.941,5.425
				c120.603-52.569,161.951-230.175,176.031-349.744c28.531-244.048,160.897-420.099,342.311-485.091
				c91.163-12.838,160.668-88.078,166.28-179.966C2193.988,2170.161,2158.124,2165.271,2122.988,2157.878z"/>
		</g>
		<g>
			<path style="fill:#010071;" d="M1453.951,3224.877c-37.153,0-72.3-9.424-101.724-28.149
				c-95.662-60.884-171.382-153.711-218.975-268.442c-46.377-111.802-63.12-236.66-48.418-361.069
				c15.667-132.578,66.792-257.183,147.847-360.347c88.833-113.066,209.392-197.383,358.491-250.757
				c4.59-46.594,30.237-88.481,70.264-113.779c8.079-5.105,18.735-2.93,24.163,4.929
				c125.864,182.127,324.805,294.128,545.811,307.292c4.719,0.278,9.131,2.427,12.268,5.962c3.135,3.54,4.734,8.179,4.446,12.896
				c-6.062,99.282-81.509,181.514-179.707,196.245c-179.246,65.015-302.161,240.483-328.967,469.79
				c-16.011,135.938-61.379,309.419-186.604,364.004C1520.008,3217.758,1486.221,3224.872,1453.951,3224.877z M1666.893,1882.438
				c-25.281,21.587-40.276,52.996-40.83,86.841c-0.125,7.493-4.924,14.106-12.009,16.545
				c-281.316,96.841-461.318,310.273-493.85,585.571c-28.625,242.236,72.302,481.46,251.145,595.283
				c44.975,28.628,107.507,30.161,167.266,4.126c115.518-50.356,153.25-231.821,165.461-335.508
				c28.494-243.73,160.828-430.566,353.989-499.766c1.143-0.41,2.322-0.703,3.523-0.869c76.55-10.786,136.78-70.84,149.031-145.908
				c-106.682-9.082-211.765-41.377-305.024-93.882C1812.208,2042.294,1730.015,1969.091,1666.893,1882.438z M1608.257,1968.986
				h0.049H1608.257z"/>
		</g>
		<g>
			<path style="fill-rule:evenodd;clip-rule:evenodd;fill:#383836;" d="M1726.439,2803.592c-1.802,11.12-3.354,22.383-4.679,33.791
				c-3.333,28.406-8.26,60.125-15.363,92.653c-166.693,101.556-374.796,107.043-546.605,14.349
				c-45.363-98.369-66.895-211.147-61.347-325.313C1177.33,2765.971,1386.675,2827.465,1726.439,2803.592"/>
		</g>
		<g>
			<path style="fill-rule:evenodd;clip-rule:evenodd;fill:#383836;" d="M1841.061,2520.207
				c-31.493,42.342-57.891,90.792-78.162,144.582h-0.019c-293.346-38.926-482.793-162.387-568.345-370.407
				c56.006-95.223,137.253-180.939,246.221-247.276C1443.531,2250.715,1576.951,2408.402,1841.061,2520.207"/>
		</g>
		<g>
			<path style="fill-rule:evenodd;clip-rule:evenodd;fill:#918B8D;" d="M1670.95,1857.387
				c128.121,185.391,334.424,301.544,559.4,314.939c-4.927,80.935-59.464,148.971-134.704,172.781
				c-314.588,2.133-536.191-159.364-476.975-425.854v-0.021C1629.189,1894.097,1647.245,1872.357,1670.95,1857.387z"/>
		</g>
		<g>
			<path style="fill:#010071;" d="M2089.566,2362.934c-189.69,0.005-346.199-59.292-430.076-163.13
				c-62.234-77.046-82.378-175.298-58.264-284.143c0.232-1.13,0.571-2.239,1.018-3.303c12.149-29.028,32.62-53.242,59.197-70.027
				c8.079-5.1,18.735-2.92,24.158,4.932c125.864,182.127,324.805,294.128,545.811,307.292c4.717,0.278,9.131,2.422,12.266,5.962
				c3.135,3.535,4.736,8.174,4.448,12.896c-5.276,86.675-64.392,162.5-147.107,188.672c-1.699,0.537-3.469,0.815-5.251,0.83
				C2093.699,2362.929,2091.624,2362.934,2089.566,2362.934z M1635.714,1924.662c-21.25,97.378-3.459,184.746,51.482,252.759
				c77.073,95.415,223.489,149.897,402.329,149.897c1.082,0,2.173,0,3.257-0.005c61.855-20.62,107.366-74.805,117.83-138.56
				c-106.682-9.082-211.758-41.377-305.017-93.882c-93.386-52.578-175.581-125.786-238.704-212.439
				C1653.463,1893.901,1642.838,1908.251,1635.714,1924.662z M1618.67,1919.252h0.049H1618.67z"/>
		</g>
		<g>
			<path style="fill-rule:evenodd;clip-rule:evenodd;fill:#706F6B;" d="M2230.351,2172.326
				c-228.291-28.571-398.151-112.156-509.585-250.775c-133.814-188.764-150.025-436.745-41.905-641.307
				c108.141-204.564,322.186-330.862,553.519-326.617c183.651-137.893,233.86-140.524,150.606-7.828
				c195.598-11.51,238.643,7.703,129.116,57.683c170.026,66.463,187.314,96.444,51.844,89.984
				c185.514,155.762,272.35,399.621,227.006,637.56c302.433,55.964,591.678,168.08,852.826,330.529
				c-292.868-79.485-592.982-129.279-895.83-148.659C2645.769,2098.203,2439.965,2201.355,2230.351,2172.326z"/>
		</g>
		<g>
			<path style="fill:#010071;" d="M2300.992,2195.019c-24.258,0-48.616-1.67-72.949-5.034
				c-231.934-29.043-407.268-115.605-521.157-257.275c-0.225-0.281-0.439-0.566-0.647-0.859
				c-67.563-95.307-107.302-207.3-114.919-323.867c-7.62-116.57,17.209-232.776,71.799-336.057
				c54.6-103.286,136.641-189.26,237.256-248.628c98.843-58.328,211.58-88.555,326.182-87.559
				c157.815-117.954,187.317-113,203.931-97.72c15.847,14.573,11.841,40.266-15.105,88.271c45.1-1.985,80.913-2.024,106.763-0.102
				c31.072,2.314,60.571,7.463,65.996,29.304c4.287,17.263-8.906,31.736-33.027,46.06c103.162,42.632,120.811,62.493,116.218,84.023
				c-3.606,16.904-20.439,24.91-60.315,26.345c161.36,155.938,236.997,382.256,200.54,604.873
				c299.419,57.578,582.476,168.438,841.628,329.641c7.502,4.668,10.447,14.131,6.919,22.231
				c-3.53,8.105-12.483,12.383-20.989,10.078c-287.461-78.018-583.862-127.578-881.169-147.349
				c-51.831,89.463-127.871,161.069-220.527,207.51C2463.367,2176.025,2382.786,2195.019,2300.992,2195.019z M1734.981,1910.815
				c107.92,133.989,275.325,216.025,497.581,243.843c0.078,0.01,0.154,0.02,0.232,0.034
				c200.879,27.793,401.638-72.808,499.561-250.393c3.333-6.04,9.883-9.583,16.731-9.172
				c261.326,16.724,522.048,56.294,776.77,117.813c-230.308-127.478-478.062-216.275-738.145-264.402
				c-4.661-0.862-8.784-3.547-11.46-7.458c-2.673-3.911-3.679-8.73-2.793-13.384c44.087-231.343-40.581-469.138-220.962-620.591
				c-5.852-4.915-7.917-13.013-5.132-20.127c2.783-7.119,9.824-11.689,17.429-11.299c31.292,1.497,49.875,0.74,60.776-0.474
				c-14.656-9.541-47.317-26.743-119.951-55.137c-6.663-2.603-11.121-8.94-11.318-16.091c-0.198-7.148,3.901-13.723,10.408-16.694
				c22.231-10.144,34.541-17.434,41.309-22.217c-16.516-3.635-58.152-7.6-161.985-1.489c-6.611,0.408-12.971-2.966-16.367-8.704
				c-3.396-5.735-3.306-12.888,0.237-18.535c25.679-40.93,33.264-60.703,35.427-69.539c-13.953,3.528-53.718,21.074-160.259,101.069
				c-3.171,2.38-6.978,3.523-11.018,3.564c-225.906-4.126-431.843,117.375-537.449,317.136
				C1589.11,1488.158,1604.593,1726.537,1734.981,1910.815z"/>
		</g>
		<g style="opacity:0.3;">
			<path style="fill-rule:evenodd;clip-rule:evenodd;fill:#FFFFFF;" d="M1909.407,1038.64
				c95.946-56.627,207.294-87.124,322.973-84.991c183.651-137.914,233.86-140.546,150.606-7.868
				c195.598-11.512,238.643,7.722,129.116,57.702c170.026,66.463,187.314,96.444,51.844,89.984
				c185.514,155.762,272.35,399.621,227.006,637.579c262.391,48.533,514.864,139.365,747.667,268.665
				c-15.92,8.014-32.091,15.696-48.509,23.004c-215.786-132.304-567.847-242.64-1056.169-331.006
				c209.366,10.601,335.231,21.863,335.231,21.863c4.12-167.976-20.809-302.744-77.498-411.07
				c0.538,13.52-3.354,24.244-11.678,28.633c-15.549,8.201-40.582-8.778-55.945-37.909c-15.363-29.133-15.216-59.403,0.312-67.58
				c5.279-2.775,11.635-2.65,18.323-0.167c-36.253-47.453-80.541-88.782-133.214-124.786c-29.792-16.44-25.156-27.041,13.893-31.781
				c57.705-3.645,49.298-14.245-25.156-31.802c-27.145-11.057-33.562-25.841-19.234-44.392
				c43.417-21.388,11.387-28.219-96.071-20.538c-35.426-3.5-45.157-21.388-29.173-53.687
				c-28.966,12.545-64.743,36.605-107.312,72.217C2130.139,973.939,2017.796,989.923,1909.407,1038.64"/>
		</g>
		<g style="opacity:0.25;">
			<path style="fill-rule:evenodd;clip-rule:evenodd;" d="M3580.959,2044.994c-235.434-60.272-475.277-101.475-717.253-123.194
				h-0.019h-0.042c-38.51-3.458-77.083-6.439-115.697-8.903c-1.243,2.237-2.485,4.452-3.749,6.687
				c-186.031-8.841-326.14-43.19-420.263-103.089C2752.44,1813.328,3171.442,1889.501,3580.959,2044.994z"/>
		</g>
		<g>
			<path style="fill-rule:evenodd;clip-rule:evenodd;fill:#373735;" d="M1850.233,2508.219
				c-18.034,23.873-30.725,42.134-38.036,54.868c101.454,101.182,126.94,255.64,76.464,463.329
				c168.141,238.58,381.339,2.898,88.014-49.858C1989.265,2721.333,1947.11,2565.22,1850.233,2508.219z"/>
		</g>
		<g>
			<path style="fill:#010071;" d="M2048.106,3148.993c-49.944,0-115.071-28.706-174.001-112.319
				c-2.959-4.199-3.96-9.473-2.749-14.463c48.677-200.269,24.541-350.498-71.733-446.519c-5.701-5.684-6.878-14.487-2.869-21.475
				c7.637-13.301,20.481-31.86,39.27-56.733c5.449-7.212,15.444-9.209,23.24-4.614c102.007,60.02,146.511,213.579,135.896,469.185
				c86.79,18.687,140.491,57.856,144.666,106.289c2.786,32.3-17.944,61.392-52.81,74.116
				C2075.653,3146.606,2062.508,3148.993,2048.106,3148.993z M1907.874,3022.626c62.947,85.552,128.926,100.254,166.929,86.377
				c19.604-7.153,30.923-21.563,29.541-37.598c-2.173-25.205-37.739-60.581-130.82-77.324c-8.811-1.582-15.076-9.463-14.634-18.403
				c11.565-234.453-23.557-383.438-104.434-443.335c-8.074,10.991-14.709,20.464-19.854,28.345
				C1930.863,2664.838,1955.506,2820.112,1907.874,3022.626z"/>
		</g>
		<g style="opacity:0.4;">
			<path style="fill-rule:evenodd;clip-rule:evenodd;fill:#FFFFFF;" d="M1940.298,3084.7
				c151.539,132.137,294.836-53.729,50.314-105.427c-6.191,2.338-12.464,4.802-18.884,7.37
				c184.893,66.297,117.646,180.11-37.082,88.12C1936.53,3078.138,1938.415,3081.449,1940.298,3084.7"/>
		</g>
		<g style="opacity:0.4;">
			<path style="fill-rule:evenodd;clip-rule:evenodd;fill:#FFFFFF;" d="M1605.463,1970.001l2.794-1.016
				c0.269-17.351,3.914-34.205,10.414-49.754c12.257-23.458,32.754-39.732,61.515-48.8
				c-52.633,86.814-46.256,199.178,26.004,333.408c-30.083,9.026-61.781-45.717-95.055-164.211
				C1605.959,2013.543,1604.074,1990.331,1605.463,1970.001"/>
		</g>
		<g>
			<path style="fill-rule:evenodd;clip-rule:evenodd;fill:#373735;" d="M2179.293,2291.937
				c23.353-24.556,39.276-55.82,47.744-93.792c23.5,241.707,203.631,28.779,310.572,178.393
				c30.664,42.92,43.169,102.321,15.384,147.148c-28.76,46.4-46.898,20.684-36.13-64.04
				c-1.408,147.977-84.041,155.429-63.066,10.705c7.474-75.096-19.423-80.956-49.879-29.318
				c-61.162,81.823-92.613,5.362-20.932-62.135C2282.091,2402.376,2214.18,2373.389,2179.293,2291.937z"/>
		</g>
		<g>
			<path d="M2475.223,2592.695c-6.521,0-12.91-2.065-18.608-6.157c-21.941-15.757-29.216-57.769-20.498-118.335
				c2.173-22.129,0.84-34.014-0.571-39.98c-3.765,3.525-9.414,10.2-16.289,21.86c-0.33,0.557-0.688,1.094-1.077,1.616
				c-29.373,39.292-52.271,44.551-66.272,42.065c-12.505-2.227-21.946-11.118-25.901-24.395c-4.783-16.05-1.309-40,13.948-65.669
				c-104.351,8.042-153.733-50.356-177.031-104.751c-2.803-6.543-1.438-14.126,3.467-19.282c20.999-22.08,35.554-50.811,43.267-85.4
				c1.904-8.535,9.736-14.453,18.469-13.896c8.735,0.537,15.789,7.339,16.636,16.05c11.289,116.128,53.928,112.354,124.575,106.074
				c57.488-5.107,129.048-11.455,182.759,63.687c38.862,54.395,45.154,119.897,16.035,166.885
				c-15.813,25.513-32.036,35.532-48.225,29.795c-1.431-0.508-2.898-1.133-4.365-1.938c-6.814,13.418-15.286,23.008-25.159,28.013
				C2485.428,2591.445,2480.286,2592.695,2475.223,2592.695z M2438.438,2389.34c3.049,0,6.086,0.493,9.114,1.484
				c20.889,6.831,28.728,33.423,23.965,81.289c-0.027,0.264-0.059,0.527-0.098,0.791c-7.791,53.76,0.251,76.919,4.573,83.145
				c5.437-4.595,14.946-21.138,19.89-53.823c0.049-12.261,1.055-27.026,3.315-44.824c1.189-9.355,9.448-16.133,18.875-15.522
				c9.409,0.645,16.687,8.506,16.597,17.939c-0.151,16.045-1.213,31.011-3.113,44.683c0.056,7.427,0.522,13.145,1.147,17.412
				c1.494-1.987,3.215-4.482,5.156-7.607c24.48-39.502,10.237-92.456-14.741-127.417c-41.863-58.564-94.69-53.887-150.635-48.921
				c-57.905,5.146-122.236,10.85-150.684-74.536c-6.213,11.382-13.372,21.938-21.458,31.636
				c32.388,65.142,90.942,86.89,178.608,66.484c7.834-1.821,15.93,1.841,19.731,8.931c3.801,7.095,2.373,15.859-3.489,21.377
				c-32.729,30.82-36.987,58.232-35.349,66.392c4.543-1.592,14.929-8.159,29.25-27.134
				C2405.645,2403.339,2422.2,2389.34,2438.438,2389.34z"/>
		</g>
		<g>
			<path d="M2831.957,1757.131c-130.245-25.874-260.613-51.238-391.554-72.983c-3.6-0.586-6.042-3.979-5.457-7.578
				c0.565-3.469,3.778-5.859,7.231-5.503c132.283,14.387,264.075,32.417,395.763,50.957c9.744,1.372,16.53,10.381,15.157,20.125
				s-10.382,16.528-20.125,15.156c-0.314-0.044-0.624-0.095-0.931-0.156L2831.957,1757.131z"/>
		</g>
		<g>
			<path d="M2747.12,1928.291c-37.112-0.095-74.21-1.926-111.266-5.032c-37.052-3.167-74.076-7.583-110.938-13.94
				c-36.835-6.384-73.633-14.341-109.667-26.399c-17.996-6.104-35.831-13.169-52.9-22.598c-8.506-4.722-16.825-10.039-24.614-16.372
				c-7.797-6.265-15.065-13.694-20.605-22.664c-2.418-3.916-1.205-9.05,2.71-11.47c3.503-2.163,7.983-1.421,10.62,1.565l0.283,0.322
				c10.641,12.026,25.837,20.786,42.008,27.339c16.099,6.814,33.309,11.785,50.631,16.294
				c34.865,8.594,70.746,14.531,106.838,19.363c36.115,4.797,72.478,8.628,108.936,12.161c36.464,3.535,73.025,6.714,109.619,10.642
				l0.032,0.002c8.477,0.911,14.611,8.521,13.701,16.997C2761.659,1922.415,2754.9,1928.284,2747.12,1928.291z"/>
		</g>
		<g>
			<path d="M2089.566,2362.934c-189.69,0.005-346.199-59.292-430.076-163.13c-62.234-77.046-82.378-175.298-58.264-284.143
				c0.232-1.13,0.571-2.239,1.018-3.303c12.149-29.028,32.62-53.242,59.197-70.027c8.079-5.1,18.735-2.92,24.158,4.932
				c125.864,182.127,324.805,294.128,545.811,307.292c4.717,0.278,9.131,2.422,12.266,5.962c3.135,3.535,4.736,8.174,4.448,12.896
				c-5.276,86.675-64.392,162.5-147.107,188.672c-1.699,0.537-3.469,0.815-5.251,0.83
				C2093.699,2362.929,2091.624,2362.934,2089.566,2362.934z M1635.714,1924.662c-21.25,97.378-3.459,184.746,51.482,252.759
				c77.073,95.415,223.489,149.897,402.329,149.897c1.082,0,2.173,0,3.257-0.005c61.855-20.62,107.366-74.805,117.83-138.56
				c-106.682-9.082-211.758-41.377-305.017-93.882c-93.386-52.578-175.581-125.786-238.704-212.439
				C1653.463,1893.901,1642.838,1908.251,1635.714,1924.662z M1618.67,1919.252h0.049H1618.67z"/>
		</g>
		<g>
			<path d="M2300.992,2195.019c-24.258,0-48.616-1.67-72.949-5.034c-231.926-29.043-407.268-115.601-521.174-257.275
				c-0.225-0.278-0.442-0.566-0.649-0.859c-67.563-95.305-107.3-207.297-114.912-323.867
				c-7.612-116.567,17.219-232.773,71.812-336.057c54.587-103.284,136.624-189.258,237.239-248.628
				c98.845-58.328,211.516-88.362,326.199-87.559c157.815-117.954,187.317-113,203.931-97.72
				c15.847,14.573,11.841,40.266-15.105,88.271c45.1-1.985,80.913-2.024,106.763-0.102c31.072,2.314,60.571,7.463,65.996,29.304
				c4.287,17.263-8.906,31.736-33.027,46.06c103.157,42.629,120.803,62.493,116.211,84.023
				c-3.606,16.904-20.442,24.91-60.308,26.345c161.36,155.938,236.997,382.256,200.54,604.873
				c299.429,57.583,582.483,168.442,841.628,329.641c7.502,4.668,10.447,14.131,6.919,22.231
				c-3.53,8.105-12.483,12.383-20.989,10.078c-287.461-78.018-583.862-127.578-881.169-147.349
				c-51.831,89.463-127.871,161.069-220.527,207.51C2463.367,2176.025,2382.786,2195.019,2300.992,2195.019z M1734.962,1910.812
				c107.94,133.987,275.352,216.028,497.6,243.845c0.078,0.01,0.154,0.02,0.232,0.034
				c200.879,27.793,401.638-72.808,499.561-250.393c3.333-6.04,9.883-9.583,16.731-9.172
				c261.326,16.724,522.048,56.294,776.77,117.813c-230.303-127.473-478.054-216.27-738.145-264.402
				c-4.661-0.862-8.784-3.547-11.46-7.458c-2.676-3.911-3.679-8.73-2.793-13.384c44.087-231.343-40.581-469.138-220.962-620.591
				c-5.852-4.915-7.917-13.013-5.132-20.127c2.783-7.119,9.824-11.689,17.429-11.299c31.282,1.497,49.875,0.74,60.771-0.474
				c-14.653-9.541-47.31-26.743-119.946-55.137c-6.663-2.603-11.121-8.94-11.318-16.091c-0.198-7.148,3.901-13.723,10.408-16.694
				c22.231-10.144,34.541-17.434,41.309-22.217c-16.516-3.635-58.152-7.6-161.985-1.489c-6.611,0.408-12.971-2.966-16.367-8.704
				c-3.396-5.735-3.306-12.888,0.237-18.535c25.679-40.93,33.264-60.703,35.427-69.539c-13.953,3.528-53.718,21.074-160.259,101.069
				c-3.171,2.38-6.978,3.523-11.018,3.564c-225.923-4.089-431.865,117.375-537.446,317.134
				C1589.105,1488.171,1604.578,1726.547,1734.962,1910.812z"/>
		</g>
		<g>
			<path style="fill-rule:evenodd;clip-rule:evenodd;" d="M2432.097,1872.73c28.904,7.266,52.466,12.339,70.686,15.238
				c-22.713,83.543-101.185,139.509-187.585,133.795c-120.977-8.014-220.463-171.125-148.43-214.999
				c19.607-11.966,44.949-8.281,60.333,8.737C2279.275,1871.571,2358.451,1893.682,2432.097,1872.73z"/>
		</g>
		<g>
			<path d="M2327.159,2039.965c-4.36,0-8.735-0.142-13.135-0.434c-89.382-5.918-168.269-86.746-185.869-158.521
				c-9.705-39.578,0.991-72.183,29.348-89.453c26.86-16.401,61.694-11.353,82.808,12.002
				c47.686,51.243,119.382,71.252,186.914,52.046c3.008-0.857,6.182-0.908,9.214-0.144c28.203,7.09,51.467,12.109,69.143,14.922
				c4.993,0.794,9.412,3.672,12.158,7.92c2.744,4.246,3.555,9.458,2.227,14.338
				C2496.282,1979.748,2416.439,2039.96,2327.159,2039.965z M2191.588,1817.59c-5.349,0-10.728,1.433-15.544,4.375
				c-18.481,11.257-17.432,33.708-13.298,50.564c14.272,58.201,83.005,126.787,153.63,131.465
				c71.025,4.673,136.719-37.439,162.979-102.178c-13.721-2.742-29.458-6.313-47.058-10.681
				c-79.092,20.679-162.317-3.413-218.232-63.504C2208.096,1821.03,2199.876,1817.59,2191.588,1817.59z"/>
		</g>
		<g>
			<path style="fill-rule:evenodd;clip-rule:evenodd;fill:#FF67A0;" d="M2276.604,2192.533
				c8.841,69.278,66.319,72.198,122.283,21.534c108.719-112.615-23.479-319.64-46.688-193.63
				c-60.77-63.17-108.639-54.579-90.853-12.424C2279.854,2061.225,2267.744,2122.823,2276.604,2192.533z"/>
		</g>
		<g>
			<path d="M2327.23,2264.037c-7.764,0-15.19-1.265-22.158-3.843c-23.838-8.809-39.324-32.153-43.608-65.728
				c0-0.005-0.002-0.005-0.002-0.01c-3.711-29.194-3.855-56.372-3.994-82.651c-0.198-37.134-0.369-69.229-10.391-98.35
				c-12.834-30.972,3.569-44.861,8.926-48.391c20.278-13.372,53.76-2.634,88.721,27.292c8.481-18.684,20.398-24.761,30.125-26.194
				c20.92-3.096,43.359,14.421,60.01,46.829c30.005,58.403,34.985,149.556-24.988,211.675c-0.237,0.249-0.483,0.488-0.737,0.718
				C2381.202,2250.668,2352.452,2264.037,2327.23,2264.037z M2291.749,2190.61c1.963,15.376,7.705,34.961,23.909,40.952
				c17.949,6.641,45.728-4.268,72.6-28.462c49.17-51.318,44.58-127.231,19.443-176.157c-12.417-24.168-24.746-31.128-28.406-30.574
				c-1.904,0.278-8.213,5.811-12.085,26.833c-1.038,5.63-5.137,10.21-10.618,11.855c-5.488,1.646-11.426,0.088-15.396-4.038
				c-38.315-39.827-64.431-43.081-68.396-40.461c-0.085,0.439-0.454,4.26,2.61,11.519c0.127,0.303,0.244,0.61,0.354,0.92
				c11.833,34.023,12.026,70.269,12.231,108.647C2288.131,2137.016,2288.27,2163.251,2291.749,2190.61L2291.749,2190.61z"/>
		</g>
		<g>
			<path d="M2369.026,2014.612c3.599,15.881,6.504,32.031,7.463,48.613c0.946,16.484,0.093,33.679-5.533,49.929
				c-1.356,3.921-5.635,5.999-9.554,4.641c-3.378-1.169-5.387-4.507-5.012-7.915l0.034-0.293c1.536-13.975-0.873-28.33-4.891-42.283
				c-4.015-13.979-9.779-27.656-16.161-41.042c-4.259-8.933-0.47-19.626,8.463-23.884c8.933-4.26,19.626-0.471,23.885,8.462
				C2368.29,2012.034,2368.738,2013.374,2369.026,2014.612z"/>
		</g>
		<g>
			<path d="M1616.06,1685.109c-7.429,0-14.36-4.685-16.868-12.114c-98.652-292.068-184.927-516.021-256.428-665.637
				c-90.715-189.819-140.842-224.531-162.649-228.325c-9.688-1.687-16.177-10.908-14.49-20.598
				c1.687-9.69,10.923-16.16,20.598-14.49c62.375,10.857,176.543,117.795,446.709,917.654c3.147,9.316-1.853,19.421-11.172,22.568
				C1619.871,1684.806,1617.95,1685.109,1616.06,1685.109z"/>
		</g>
		<g>
			<path d="M1433.214,1181.574c-0.457,0-0.916-0.024-1.379-0.076c-6.985-0.754-12.036-7.026-11.282-14.011
				c5.447-50.454,23.11-138.418,53.996-268.923c1.616-6.836,8.469-11.074,15.308-9.448c6.836,1.616,11.067,8.472,9.448,15.308
				c-30.212,127.666-48.201,217.092-53.459,265.793C1445.142,1176.738,1439.627,1181.574,1433.214,1181.574z"/>
		</g>
		<g>
			<path d="M1546.854,1480.531c-1.155,0-2.327-0.159-3.491-0.491c-6.758-1.924-10.674-8.96-8.75-15.718
				c9.072-31.865,38.423-92.268,89.729-184.663c3.406-6.145,11.152-8.364,17.295-4.946c6.143,3.411,8.357,11.155,4.946,17.295
				c-49.646,89.412-79.087,149.731-87.502,179.282C1557.489,1476.884,1552.393,1480.531,1546.854,1480.531z"/>
		</g>
		<g>
			<path d="M1446.585,1214.601c-1.907,0-3.84-0.43-5.662-1.338c-72.622-36.167-186.86-86.384-339.536-149.258
				c-6.497-2.676-9.595-10.11-6.919-16.607s10.115-9.595,16.606-6.919c153.235,63.103,268.027,113.572,341.191,150.01
				c6.289,3.132,8.848,10.769,5.715,17.058C1455.757,1212.016,1451.258,1214.601,1446.585,1214.601z"/>
		</g>
		<g>
			<path d="M1549.586,1471.921c-1.091,0-2.2-0.142-3.303-0.437c-112.751-30.239-241.748-42.988-383.381-37.881
				c-7.126,0.193-12.917-5.232-13.171-12.253s5.234-12.917,12.253-13.171c144.175-5.21,275.688,7.834,390.891,38.73
				c6.785,1.821,10.811,8.797,8.992,15.583C1560.34,1468.173,1555.201,1471.921,1549.586,1471.921z"/>
		</g>
		<g>
			<path d="M1454.442,1747.636c-38.323,0-77.988-10.254-118.862-30.791c-6.279-3.154-8.811-10.801-5.657-17.078
				c3.157-6.282,10.813-8.804,17.078-5.657c95.452,47.966,180.171,34.9,258.999-39.932c5.098-4.839,13.149-4.624,17.983,0.469
				c4.837,5.095,4.627,13.147-0.469,17.983C1570.875,1722.599,1514.305,1747.636,1454.442,1747.636z"/>
		</g>
		<g>
			<path style="fill-rule:evenodd;clip-rule:evenodd;fill:#373735;" d="M2068.958,972.696c22.961-5.983,47.704-10.726,74.267-14.224
				c13.955-131.724,97.767-354.548,251.417-668.472C2221.344,534.957,2112.769,762.523,2068.958,972.696z"/>
		</g>
		<g>
			<path d="M2068.958,985.419c-3.225,0-6.375-1.228-8.77-3.508c-3.188-3.035-4.583-7.5-3.684-11.809
				c43.96-210.886,154.231-442.175,327.751-687.449c3.828-5.415,11.177-6.978,16.877-3.594c5.701,3.381,7.849,10.576,4.934,16.533
				c-152.283,311.13-236.46,534.607-250.19,664.219c-0.62,5.845-5.164,10.505-10.991,11.272
				c-25.879,3.408-50.344,8.093-72.72,13.923C2071.107,985.282,2070.028,985.419,2068.958,985.419z M2306.798,445.671
				c-110.854,179.98-184.995,350.881-221.096,509.922c14.705-3.247,30.098-6.047,46.033-8.369
				C2145.662,838.163,2204.415,669.924,2306.798,445.671z"/>
		</g>
		<g style="opacity:0.6;">
			<path style="fill-rule:evenodd;clip-rule:evenodd;fill:#FFFFFF;" d="M1291.931,3127.972
				c-304.773-279.223-278.644-923.988,276.386-1144.08c7.599,3.81,15.176,7.993,22.734,12.611
				c-213.466,87.353-371.215,272.95-423.019,497.719c-51.802,224.75,8.78,460.682,162.491,632.654
				C1317.377,3127.436,1304.561,3127.745,1291.931,3127.972"/>
		</g>
		<g>
			<path d="M1453.951,3224.877c-37.153,0-72.3-9.424-101.724-28.149c-95.662-60.884-171.382-153.711-218.975-268.442
				c-46.377-111.802-63.12-236.66-48.418-361.069c15.667-132.578,66.792-257.183,147.847-360.347
				c88.833-113.066,209.392-197.383,358.491-250.757c4.59-46.594,30.237-88.481,70.264-113.779
				c8.079-5.105,18.735-2.93,24.163,4.929c125.864,182.127,324.805,294.128,545.811,307.292c4.719,0.278,9.131,2.427,12.268,5.962
				c3.135,3.54,4.734,8.179,4.446,12.896c-6.062,99.282-81.509,181.514-179.707,196.245
				c-179.246,65.015-302.161,240.483-328.967,469.79c-16.011,135.938-61.379,309.419-186.604,364.004
				C1520.008,3217.758,1486.221,3224.872,1453.951,3224.877z M1666.893,1882.438c-25.281,21.587-40.276,52.996-40.83,86.841
				c-0.125,7.493-4.924,14.106-12.009,16.545c-281.316,96.841-461.318,310.273-493.85,585.571
				c-28.625,242.236,72.302,481.46,251.145,595.283c44.975,28.628,107.507,30.161,167.266,4.126
				c115.518-50.356,153.25-231.821,165.461-335.508c28.494-243.73,160.828-430.566,353.989-499.766
				c1.143-0.41,2.322-0.703,3.523-0.869c76.55-10.786,136.78-70.84,149.031-145.908c-106.682-9.082-211.765-41.377-305.024-93.882
				C1812.208,2042.294,1730.015,1969.091,1666.893,1882.438z M1608.257,1968.986h0.049H1608.257z"/>
		</g>
		<g style="opacity:0.25;">
			<path style="fill-rule:evenodd;clip-rule:evenodd;" d="M1865.244,2049.092c82.818,55.633,176.713,94.146,276.077,112.428
				l0.206,0.061l0.25,0.021c16.294,2.981,32.712,5.423,49.277,7.308c20.973,4.514,33.666,10.083,38.034,16.688
				c-1.035,7.889-2.525,15.611-4.472,23.188c-3.685,12.547-7.95,24.267-12.755,35.116c-20.063,42.03-54.867,75.8-98.057,94.434
				c-74.08,24.1-179.985-1.098-317.755-75.592c-15.445,1.242-23.935-3.479-25.508-14.163l-4.556-2.589
				c1.45-0.475,2.879-0.992,4.308-1.491c0.165-19.524,18.365-54.535,54.598-105.056c1.925,54.867,13.955,61.909,36.108,21.14
				c9.668-30.768,0.912-63.728-37.268-89.795c-59.443-40.582-104.683-110.978-143.545-200.359
				C1720.952,1939.543,1782.653,1999.09,1865.244,2049.092"/>
		</g>
		<g>
			<path style="fill-rule:evenodd;clip-rule:evenodd;fill:#373735;" d="M1502.332,2542.341c-3.271-16.501,6.77-32.735,23.004-37.124
				c16.253-4.389,33.128,4.575,38.593,20.477c51.471,158.185,30.021,317.776-64.33,478.838
				c246.407,233.922,5.714,363.616-91.163,44.432C1415.621,2989.458,1569.973,2808.457,1502.332,2542.341z"/>
		</g>
		<g>
			<path style="fill:#010071;" d="M1561.382,3256.952c-1.389,0-2.788-0.039-4.202-0.122
				c-48.941-2.778-121.724-57.529-165.784-202.695c-0.718-2.363-0.938-4.854-0.64-7.305c2.153-17.847,13.352-40.747,28.853-72.441
				c42.861-87.646,114.602-234.341,65.464-427.661c-0.078-0.303-0.146-0.61-0.21-0.923c-5.073-25.601,10.664-50.981,35.828-57.778
				c25.215-6.812,51.589,7.197,60.078,31.875c51.66,158.765,31.833,320.596-58.828,481.489
				c98.308,97.339,114.675,176.235,96.462,218.364C1608.24,3243.271,1587.113,3256.952,1561.382,3256.952z M1426.7,3047.773
				c36.14,116.06,93.804,171.304,132.498,173.501c12.793,0.718,21.711-4.536,26.516-15.649
				c10.791-24.961,2.217-92.686-98.376-188.179c-6.001-5.698-7.288-14.775-3.103-21.914
				c91.228-155.728,112.344-311.948,62.761-464.331c-2.324-6.748-9.863-10.728-17.016-8.789
				c-7.036,1.899-11.475,8.926-10.247,16.099c52.078,205.708-23.159,359.57-68.13,451.523
				C1439.813,3014.145,1429.49,3035.253,1426.7,3047.773z"/>
		</g>
		<g style="opacity:0.4;">
			<path style="fill-rule:evenodd;clip-rule:evenodd;fill:#FFFFFF;" d="M1499.599,3004.532
				c222.927,211.622,47.186,337.901-60.085,123.73C1586.165,3252.822,1606.186,3211.579,1499.599,3004.532"/>
		</g>
		<g>
			<path style="fill-rule:evenodd;clip-rule:evenodd;fill:#373735;" d="M1774.35,2111.537c14.534-1.304,28.283,6.772,34.266,20.105
				c5.983,13.334-0.581,26.294-7.806,38.967c-74.992,131.35-44.824,174.498,79.218,123.234
				c44.825-13.045,93.045-6.876,133.11,17.061c40.084,23.935,68.388,63.48,78.16,109.112c16.853,44.515-69.422,49.071-85.635-42.092
				c20.602,166.59-48.656,168.245-66.959,32.299c-21.863,129.052-82.86,110.087-53.729-44.99
				C1507.819,2470.495,1747.433,2113.939,1774.35,2111.537z"/>
		</g>
		<g>
			<path d="M1983.499,2525.717c-18.608,0-34.658-16.406-46.413-46.274c-7.334,15.254-16.9,27.666-29.27,32.178
				c-10.022,3.662-20.498,1.738-28.74-5.244c-23.843-20.22-21.335-76.929-16.001-117.041
				c-93.083,22.402-153.752,16.362-185.039-18.257c-26.748-29.609-28.157-77.739-4.075-139.185
				c15.847-40.435,37.605-74.297,49.165-90.879c31.782-45.601,44.289-46.738,49.634-47.212l0,0
				c22.087-2.031,43.013,10.298,52.102,30.542c10.051,22.402-1.611,42.861-8.581,55.083
				c-51.199,89.678-36.648,110.469-34.819,112.549c2.515,2.856,18.765,15.571,91.765-14.59c0.598-0.249,1.206-0.464,1.826-0.645
				c49.424-14.375,103.076-7.5,147.219,18.872c43.799,26.157,75.151,69.639,86.172,119.443c5.417,15.479,2.996,30.273-6.731,40.771
				c-11.089,11.973-29.91,15.894-49.121,10.269c-9.399-2.759-18.091-7.368-25.889-13.574c-2.844,44.233-16.191,69.976-39.021,72.92
				C1986.275,2525.629,1984.879,2525.717,1983.499,2525.717z M1938.699,2392.416c0.103,0,0.205,0,0.308,0.005
				c8.801,0.146,16.172,6.704,17.346,15.425c6.587,48.94,19.504,73.716,26.526,80.64c4.968-8.511,13.733-38.652,5.11-108.374
				c-1.184-9.58,5.479-18.359,15.02-19.795c9.553-1.455,18.498,4.985,20.186,14.487c6.453,36.284,25.103,53.438,40.405,57.388
				c7.178,1.855,11.36,0.205,11.995-0.576l0,0c-0.012,0,0.476-1.528-0.95-5.298c-0.317-0.835-0.571-1.699-0.759-2.573
				c-8.711-40.679-34.18-76.235-69.878-97.554c-35.41-21.162-78.401-26.797-118.108-15.508
				c-66.902,27.505-109.807,29.077-131.167,4.829c-23.657-26.865-13.928-75.718,30.615-153.73
				c6.267-10.996,9.246-17.896,7.021-22.852c-2.488-5.542-7.773-9.194-13.662-9.668c-21.768,17.573-107.393,147.148-81.533,206.543
				c15.862,36.436,80.854,40.791,183.013,12.275c5.93-1.66,12.29-0.132,16.824,4.028s6.601,10.366,5.464,16.411
				c-11.653,62.046-7.126,93.433-3,105.347c5.791-8.086,15.078-27.69,21.675-66.616
				C1922.601,2398.671,1930.032,2392.416,1938.699,2392.416z M1775.941,2129.272c-0.002,0-0.005,0-0.007,0.005
				C1775.936,2129.272,1775.938,2129.272,1775.941,2129.272z M1780.421,2128.027 M1774.351,2111.537h0.049H1774.351z"/>
		</g>
		<g>
			<path style="fill:#CCEEFF;" d="M1670.95,1857.387C799.282,1093.654,307.69,963.98,406.66,1417.826
				c101.598,465.939,473.102,669.01,1034.096,629.175c49.919-30.395,105.677-56.731,167.501-78.016
				C1609.001,1923.601,1632.586,1881.633,1670.95,1857.387z"/>
		</g>
		<g style="opacity:0.25;">
			<path d="M1618.45,1898.625c-105.166,43.869-218.38,65.842-332.168,59.785c-438.155-23.324-726.936-229.656-814.63-631.831
				c-13.704-62.843-16.036-114.446-7.653-154.778c-65.089,32.415-85.964,114.758-57.339,246.025
				c101.598,465.939,473.102,669.011,1034.096,629.175c49.919-30.395,105.677-56.731,167.501-78.016
				c0.458-27.939,9.599-54.566,25.489-76.578C1628.603,1894.444,1623.504,1896.517,1618.45,1898.625z"/>
		</g>
		<g>
			<path d="M1561.382,3256.952c-1.389,0-2.788-0.039-4.202-0.122c-48.941-2.778-121.724-57.529-165.784-202.695
				c-0.718-2.363-0.938-4.854-0.64-7.305c2.153-17.847,13.352-40.747,28.853-72.441c42.861-87.646,114.602-234.341,65.464-427.661
				c-0.078-0.303-0.146-0.61-0.21-0.923c-5.073-25.601,10.664-50.981,35.828-57.778c25.215-6.812,51.589,7.197,60.078,31.875
				c51.66,158.765,31.833,320.596-58.828,481.489c98.308,97.339,114.675,176.235,96.462,218.364
				C1608.24,3243.271,1587.113,3256.952,1561.382,3256.952z M1426.7,3047.773c36.14,116.06,93.804,171.304,132.498,173.501
				c12.793,0.718,21.711-4.536,26.516-15.649c10.791-24.961,2.217-92.686-98.376-188.179c-6.001-5.698-7.288-14.775-3.103-21.914
				c91.228-155.728,112.344-311.948,62.761-464.331c-2.324-6.748-9.863-10.728-17.016-8.789
				c-7.036,1.899-11.475,8.926-10.247,16.099c52.078,205.708-23.159,359.57-68.13,451.523
				C1439.813,3014.145,1429.49,3035.253,1426.7,3047.773z"/>
		</g>
		<g>
			<path d="M2048.106,3148.993c-49.944,0-115.071-28.706-174.001-112.319c-2.959-4.199-3.96-9.473-2.749-14.463
				c48.677-200.269,24.541-350.498-71.733-446.519c-5.701-5.684-6.878-14.487-2.869-21.475c7.637-13.301,20.481-31.86,39.27-56.733
				c5.449-7.212,15.444-9.209,23.24-4.614c102.007,60.02,146.511,213.579,135.896,469.185
				c86.79,18.687,140.491,57.856,144.666,106.289c2.786,32.3-17.944,61.392-52.81,74.116
				C2075.653,3146.606,2062.508,3148.993,2048.106,3148.993z M1907.874,3022.626c62.947,85.552,128.926,100.254,166.929,86.377
				c19.604-7.153,30.923-21.563,29.541-37.598c-2.173-25.205-37.739-60.581-130.82-77.324c-8.811-1.582-15.076-9.463-14.634-18.403
				c11.565-234.453-23.557-383.438-104.434-443.335c-8.074,10.991-14.709,20.464-19.854,28.345
				C1930.863,2664.838,1955.506,2820.112,1907.874,3022.626z"/>
		</g>
		<g style="opacity:0.25;">
			<g>
				<defs>
					<rect id="SVGID_1_" x="1659.088" y="2100.336" width="107.477" height="108.637"/>
				</defs>
				<use xlink:href="#SVGID_1_"  style="overflow:visible;"/>
				<clipPath id="SVGID_00000084512611658753412300000010389563669210672792_">
					<use xlink:href="#SVGID_1_"  style="overflow:visible;"/>
				</clipPath>
				<g style="clip-path:url(#SVGID_00000084512611658753412300000010389563669210672792_);">
					<path style="fill-rule:evenodd;clip-rule:evenodd;" d="M1689.979,2206.8c-20.188,7.724-30.477-5.135-30.891-38.615
						c19.709-33.728,55.551-56.337,107.477-67.85C1732.774,2148.186,1707.245,2183.673,1689.979,2206.8z"/>
				</g>
				<g style="clip-path:url(#SVGID_00000084512611658753412300000010389563669210672792_);">
					<path d="M1689.979,2206.8c-20.188,7.724-30.477-5.135-30.891-38.615c19.709-33.728,55.551-56.337,107.477-67.85
						C1732.774,2148.186,1707.245,2183.673,1689.979,2206.8z"/>
				</g>
			</g>
		</g>
		<g>
			<path d="M1306.4,2069.721c-508.357,0-824.287-222.278-917.136-648.101c-29.094-133.411-9.536-221.296,58.13-261.216
				c84.607-49.915,234.831-16.372,446.494,99.705c214.031,117.371,486.792,319.275,788.799,583.884
				c4.224,3.701,6.455,9.18,6.018,14.78s-3.491,10.667-8.24,13.667c-33.418,21.118-53.755,57.319-54.402,96.838
				c-0.125,7.49-4.924,14.104-12.009,16.545c-58.911,20.281-114.101,45.981-164.038,76.387c-2.424,1.475-5.166,2.354-7.998,2.554
				C1395.406,2068.075,1350.174,2069.721,1306.4,2069.721z M539.981,1173.976c-30.086,0-55.086,5.654-74.492,17.102
				c-65.942,38.904-58.926,142.717-41.431,222.954c96.306,441.677,445.925,654.487,1011.16,615.503
				c47.905-28.809,100.295-53.472,155.955-73.42c3.823-38.833,22.273-74.392,51.482-99.807
				c-293.479-255.813-558-450.967-765.891-564.973C735.633,1213.942,619.92,1173.976,539.981,1173.976z"/>
		</g>
		<g style="opacity:0.2;">
			<path style="fill-rule:evenodd;clip-rule:evenodd;" d="M1745.259,3526.818c317.884,0,575.569,37.637,575.569,84.102
				c0,46.445-257.685,84.08-575.569,84.08c-317.887,0-575.569-37.635-575.569-84.08
				C1169.69,3564.456,1427.372,3526.818,1745.259,3526.818"/>
		</g>
		<g>
			<ellipse style="fill-rule:evenodd;clip-rule:evenodd;fill:#FF67A0;" cx="1977.33" cy="1739.578" rx="93.287" ry="38.087"/>
		</g>
		<g>
			<path d="M1618.656,1937.06c-3.625,0-7.283-1.101-10.442-3.394c-267.778-194.25-675.728-420.09-1212.517-671.25
				c-8.909-4.167-12.751-14.766-8.584-23.674c4.168-8.906,14.763-12.749,23.677-8.582
				c538.828,252.112,948.735,479.106,1218.337,674.678c7.961,5.774,9.731,16.909,3.958,24.87
				C1629.6,1934.511,1624.166,1937.06,1618.656,1937.06z"/>
		</g>
		<g>
			<path d="M452.466,1581.342c-4.551,0-8.955-2.451-11.24-6.75c-3.301-6.204-0.945-13.906,5.259-17.205
				c73.259-38.96,187.956-80.496,341.045-123.518c-26.231-53.796-60.647-134.626-102.466-240.657
				c-2.578-6.536,0.63-13.923,7.165-16.501c6.538-2.578,13.923,0.63,16.502,7.166c45.293,114.841,81.758,199.751,108.381,252.371
				c1.721,3.401,1.826,7.395,0.286,10.884c-1.541,3.486-4.563,6.099-8.237,7.117c-158.753,44.004-276.755,86.262-350.732,125.601
				C456.527,1580.861,454.483,1581.342,452.466,1581.342z"/>
		</g>
		<g>
			<path d="M582.594,1795.634c-6.585,0-12.158-5.076-12.669-11.751c-0.537-7.004,4.707-13.118,11.711-13.655
				c165.022-12.646,309.827-85.806,430.505-217.493c-11.75-75.842-21.094-146.511-27.781-210.125
				c-0.735-6.987,4.333-13.247,11.321-13.982c6.99-0.711,13.25,4.333,13.982,11.321c6.819,64.878,16.426,137.175,28.552,214.885
				c0.591,3.789-0.557,7.642-3.127,10.488c-126.003,139.495-277.913,216.968-451.509,230.271
				C583.25,1795.622,582.921,1795.634,582.594,1795.634z"/>
		</g>
		<g>
			<path d="M863.538,1981.735c-7.688,0-15.337-0.391-22.964-1.172c-6.99-0.715-12.075-6.961-11.357-13.95
				c0.715-6.985,6.936-12.097,13.95-11.357c118.582,12.139,248.211-82.097,385.298-280.132
				c-12.002-51.335-27.515-117.351-46.499-198.025c-1.609-6.841,2.63-13.689,9.468-15.298c6.843-1.614,13.686,2.627,15.298,9.468
				c19.673,83.596,35.615,151.45,47.791,203.547c0.813,3.486,0.122,7.151-1.904,10.1
				C1117.159,1882.023,986.39,1981.73,863.538,1981.735z"/>
		</g>
		<g>
			<path d="M1272.708,2064.262c-4.106,0-8.137-1.987-10.589-5.654c-3.904-5.845-2.334-13.745,3.508-17.646
				c64.551-43.137,123.316-123.445,174.678-238.706c6.626-36.795-3.284-86.868-29.468-148.87c-2.734-6.472,0.298-13.933,6.77-16.667
				c6.477-2.72,13.936,0.298,16.667,6.77c28.914,68.467,38.975,122.434,30.752,164.985c-0.183,0.945-0.474,1.868-0.864,2.749
				c-53.491,120.457-115.532,204.871-184.399,250.891C1277.594,2063.564,1275.137,2064.262,1272.708,2064.262z M1452.537,1806.059
				h0.049H1452.537z"/>
		</g>
		<g>
			<g>
				<g>
					<g>
						<path d="M2199.13,1363.311c-47.872-10.543-95.482,41.4-106.341,116.015c-10.859,74.616,19.146,143.651,67.018,154.193
							c47.871,10.542,95.483-41.399,106.341-116.015C2277.007,1442.889,2247.001,1373.853,2199.13,1363.311z"/>
					</g>
				</g>
			</g>
			<g>
				<g>
					<g>
						<path style="fill:#FFFFFF;" d="M2194.001,1394.503c-15.729,5.227-23.755,30.152-17.925,55.671
							c5.83,25.519,23.306,41.968,39.035,36.74c15.729-5.226,23.754-30.151,17.924-55.669
							C2227.207,1405.725,2209.731,1389.275,2194.001,1394.503z"/>
					</g>
				</g>
			</g>
			<g>
				<g>
					<g>
						<path style="fill:#B199C5;" d="M2133.397,1550.851c-7.587,5-9.252,19.043-3.721,31.364
							c5.531,12.323,16.165,18.259,23.75,13.258c7.586-4.999,9.252-19.042,3.72-31.363
							C2151.617,1551.788,2140.982,1545.852,2133.397,1550.851z"/>
					</g>
				</g>
			</g>
		</g>
		<g>
			<g>
				<g>
					<g>
						<path d="M2606.502,1483.589c-35.143-7.74-70.094,30.392-78.066,85.168c-7.972,54.776,14.055,105.456,49.199,113.195
							c35.142,7.739,70.095-30.391,78.066-85.168C2663.673,1542.008,2641.645,1491.328,2606.502,1483.589z"/>
					</g>
				</g>
			</g>
			<g>
				<g>
					<g>
						<path style="fill:#FFFFFF;" d="M2602.738,1506.488c-11.547,3.837-17.439,22.135-13.159,40.868
							c4.28,18.734,17.109,30.809,28.656,26.971c11.547-3.837,17.438-22.135,13.158-40.868
							C2627.114,1514.726,2614.285,1502.65,2602.738,1506.488z"/>
					</g>
				</g>
			</g>
			<g>
				<g>
					<g>
						<path style="fill:#B199C5;" d="M2558.248,1621.264c-5.57,3.671-6.792,13.98-2.731,23.025
							c4.06,9.046,11.867,13.404,17.435,9.733c5.569-3.67,6.792-13.979,2.731-23.024
							C2571.623,1621.952,2563.815,1617.595,2558.248,1621.264z"/>
					</g>
				</g>
			</g>
		</g>
	</g>
</g>
</svg>
