<?xml version="1.0" encoding="utf-8"?>
<!-- Generator: Adobe Illustrator 27.5.0, SVG Export Plug-In . SVG Version: 6.00 Build 0)  -->
<svg version="1.1" id="Layer_1" xmlns="http://www.w3.org/2000/svg" xmlns:xlink="http://www.w3.org/1999/xlink" x="0px" y="0px"
	 viewBox="0 0 4000 4000" style="enable-background:new 0 0 4000 4000;" xml:space="preserve">
<g>
	<g>
		<!-- <rect style="fill:#C4C4FF;" width="4000" height="4000"/> -->
	</g>
	<g>
		<g>
			<path style="fill:#FDEBD1;" d="M1657.37,2132.654l-65.541,205.985l-60.859,32.77c-28.089,58.519-72.703,98.452-124.294,120.22
				c-76.776,32.349-165.163,17.415-230.375-34.502c-120.033-95.503-187.166-218.157-203.738-334.913
				c-1.592-10.627-2.668-21.207-3.371-31.694c-28.511-56.318-4.681-121.719,60.859-182.578l-5.899-44.193
				c-1.966-14.794-7.631-28.932-17.087-40.496c-34.503-42.461-28.886-89.744-1.498-110.623c16.573-12.64,40.682-7.069,51.543,10.767
				l66.571,109.641v-103.461c0-18.585,8.099-36.609,23.033-47.61c26.217-19.241,60.345-10.814,77.104,24.718
				c5.15,10.861,7.537,22.799,7.912,34.83l4.307,138.338c177.896-4.682,173.215,112.356,131.081,248.119l9.363,18.726
				c69.427-91.289,148.543-155.285,234.074-201.304l42.133-4.682l2.341,96.252L1657.37,2132.654z"/>
		</g>
		<g>
			<path style="fill:#E2C7A1;" d="M1657.37,2132.654l-65.541,205.985l-60.859,32.77c-28.089,58.519-72.703,98.452-124.294,120.22
				c-76.776,32.349-165.163,17.415-230.375-34.502c-120.033-95.503-187.166-218.157-203.738-334.913
				c1.686-9.083,3.605-18.164,5.664-27.2c39.606,30.804,99.248,27.153,140.679-1.17c41.385-28.276,65.681-76.87,73.874-126.353
				c11.985,7.444,23.922,14.887,35.907,22.284c3.745,2.341,7.631,4.775,10.253,8.333c4.635,6.226,4.728,14.606,4.588,22.378
				c-0.327,19.849-0.89,40.448-9.737,58.191c-24.812,49.811-98.873,52.011-133.563,95.549c-28.183,35.439-21.348,88.48,1.03,127.851
				c38.997,68.491,120.736,108.891,199.244,102.104c78.555-6.788,150.743-58.565,185.948-129.069
				c11.938-23.875,19.896-49.483,29.119-74.529c23.923-64.792,56.74-126.353,97.281-182.297l5.477,0.983
				c11.049-6.367,24.391,3.23,32.724,12.874c1.357,1.592,2.715,3.183,3.979,4.822L1657.37,2132.654z"/>
		</g>
		<g>
			<path style="fill:#381A46;" d="M1321.649,2522.739c-54.409,0-108.94-18.672-154.082-54.604
				c-125.161-99.619-202.373-235.747-212.197-373.896c-28.379-59.243-7.207-126.948,59.81-191.558l-4.941-37.063
				c-1.69-12.698-6.548-24.28-14.043-33.499c-20.327-24.985-29.756-53.621-26.548-80.63c2.451-20.659,12.173-38.423,27.383-50.02
				c10.752-8.196,24.663-11.421,38.174-8.877c14.097,2.666,26.45,11.23,33.901,23.494l40.532,66.76v-53.291
				c0-23.64,10.752-45.657,28.77-58.889c15.786-11.592,34.268-15.493,52.051-10.989c19.57,4.961,35.933,19.526,46.064,41.011
				c5.659,11.992,8.765,25.581,9.229,40.383l3.896,124.614c63.257,0.552,106.357,17.061,131.519,50.288
				c37.778,49.893,24.897,127.722,5.64,195.149c61.714-74.39,133.013-132.839,217.095-178.093c1.582-0.854,3.315-1.394,5.103-1.592
				l42.134-4.683c3.94-0.459,7.827,0.791,10.791,3.379s4.707,6.301,4.8,10.237l4.682,191.943c0.039,1.558-0.181,3.115-0.654,4.6
				l-65.542,205.981c-1.104,3.472-3.516,6.382-6.724,8.105l-56.89,30.64c-28.345,56.689-73.022,99.136-129.468,122.915
				C1383.167,2516.762,1352.42,2522.739,1321.649,2522.739z M1025.985,1719.811c-4.35,0-8.481,1.367-11.924,3.994
				c-9.106,6.943-14.976,17.952-16.523,30.994c-2.3,19.395,4.961,40.557,20.444,59.595c10.776,13.245,17.725,29.673,20.098,47.512
				l5.894,44.18c0.601,4.519-1.025,9.048-4.365,12.151c-62.232,57.786-82.788,116.719-57.886,165.943
				c0.859,1.694,1.362,3.545,1.484,5.439c8.467,131.216,82.036,261.172,201.851,356.543c62.632,49.844,145.454,62.31,216.167,32.505
				c51.401-21.65,91.885-60.84,117.085-113.335c1.284-2.676,3.389-4.878,6.001-6.284l55.859-30.083l63.105-198.32l-4.253-174.282
				l-24.194,2.69c-89.36,48.516-163.687,112.7-227.168,196.148c-2.934,3.862-7.656,5.923-12.485,5.483
				c-4.829-0.454-9.082-3.364-11.25-7.7l-9.37-18.726c-1.621-3.242-1.924-6.987-0.85-10.449
				c18.672-60.156,39.507-145.393,5.068-190.879c-20.815-27.488-61.929-40.647-122.363-39.036
				c-7.915,0.227-14.165-5.876-14.409-13.601l-4.326-138.342c-0.342-10.935-2.549-20.786-6.553-29.277
				c-6.489-13.757-16.279-22.908-27.563-25.767c-9.507-2.407-19.629-0.137-28.521,6.396c-10.84,7.964-17.314,21.516-17.314,36.253
				v103.484c0,6.299-4.194,11.829-10.259,13.525c-6.069,1.711-12.524-0.852-15.791-6.238l-66.582-109.663
				c-3.315-5.466-8.823-9.282-15.107-10.471C1028.636,1719.938,1027.298,1719.811,1025.985,1719.811z"/>
		</g>
		<g>
			<path style="fill:#381A46;" d="M1040.926,2125.942c-31.88,0.005-60.83-10.498-83.833-30.845
				c-5.811-5.137-6.353-14.014-1.211-19.824c5.142-5.801,14.009-6.357,19.824-1.211c33.189,29.365,74.229,25.176,95.742,20.068
				c43.369-10.293,81.694-40.181,95.366-74.365c0.708-1.694,1.289-3.184,1.831-4.668c8.76-24.219,4.863-50.169-10.684-71.189
				c-16.274-22.007-42.422-34.277-69.741-32.954c-18.638,0.932-37.637,5.474-56.475,13.496c-7.144,3.03-15.386-0.283-18.423-7.419
				c-3.042-7.136,0.283-15.386,7.417-18.425c21.895-9.321,44.126-14.607,66.074-15.703c36.768-1.833,71.851,14.719,93.73,44.304
				c21.24,28.711,26.528,64.229,14.512,97.446c-0.693,1.919-1.44,3.828-2.246,5.747c-16.826,42.075-63.022,78.755-114.873,91.06
				C1065.296,2124.462,1052.904,2125.942,1040.926,2125.942z"/>
		</g>
		<g>
			<path style="fill:#381A46;" d="M1040.746,2123.53c-4.39,0-8.594-2.476-10.591-6.704c-15.522-32.852-15.293-76.416,0.635-119.519
				c17.725-47.983,51.807-87.17,91.162-104.827c5.879-2.654,12.822-0.015,15.469,5.889c2.646,5.898,0.01,12.822-5.889,15.469
				c-33.74,15.137-63.193,49.373-78.789,91.58c-13.755,37.244-14.277,74.207-1.426,101.409c2.764,5.845,0.264,12.822-5.581,15.581
				C1044.12,2123.168,1042.42,2123.53,1040.746,2123.53z"/>
		</g>
		<g>
			<path style="fill:#381A46;" d="M1254.558,1893.866c-23.208-0.637-73.359,1.336-74.703,31.483
				c3.448,31.239,39.445,47.831,67.885,53.013c7.123,1.461,11.842,8.134,10.997,15.225l-0.54,4.406
				c-1.328,10.877-4.028,20.616-6.472,30.451c-9.105,31.074-13.771,61.936-15.688,94.848c-27.887-38.494-33.292-97.913-3.44-136.864
				c0.001,0,10.458,19.63,10.458,19.63c-30.471-5.373-61.82-19.87-80.037-46.728c-14.537-19.769-15.979-50.63,3.002-68.785
				c24.416-23.278,58.298-25.175,89.532-24.749C1274.375,1866.691,1273.407,1894.291,1254.558,1893.866L1254.558,1893.866z"/>
		</g>
		<g>
			<path style="fill:#381A46;" d="M1078.812,2310.331c-15.723,0-31.26-1.162-46.406-3.521c-6.387-0.991-10.757-6.978-9.761-13.364
				s6.963-10.791,13.364-9.761c136.338,21.196,285.771-61.201,326.147-180.034c2.08-6.113,8.73-9.404,14.844-7.314
				c6.123,2.075,9.395,8.726,7.314,14.844c-21.738,63.984-71.328,119.595-139.639,156.587
				C1193.348,2295.566,1134.906,2310.331,1078.812,2310.331z"/>
		</g>
		<g>
			<path style="fill:#381A46;" d="M1144.339,1926.196c-7.427,0-13.628-5.82-14.014-13.32c-1.665-32.249-11.851-63.096-30.264-91.685
				c-4.199-6.521-2.319-15.212,4.199-19.411c6.533-4.207,15.215-2.317,19.414,4.202c21.104,32.764,32.778,68.24,34.697,105.444
				c0.4,7.747-5.552,14.351-13.301,14.751C1144.828,1926.188,1144.583,1926.196,1144.339,1926.196z"/>
		</g>
		<g>
			<path style="fill:#381A46;" d="M1175.145,1803.232c-19.468,0-38.999-4.404-56.699-13.259c-5.781-2.891-8.125-9.922-5.234-15.703
				c2.891-5.779,9.922-8.13,15.703-5.229c29.971,14.993,67.9,14.077,96.636-2.339c5.605-3.211,12.759-1.26,15.967,4.355
				c3.208,5.613,1.26,12.761-4.355,15.967C1218.29,1797.807,1196.756,1803.232,1175.145,1803.232z"/>
		</g>
		<g>
			<path style="fill:#381A46;" d="M1024.398,1852.851c-2.378,0-4.785-0.068-7.231-0.21c-6.45-0.371-11.382-5.903-11.011-12.356
				c0.371-6.453,5.898-11.37,12.358-11.013c31.655,1.819,55.395-11.155,72.368-39.668c3.306-5.557,10.483-7.378,16.045-4.075
				c5.552,3.306,7.378,10.488,4.072,16.042C1090.736,1835.624,1061.625,1852.851,1024.398,1852.851z"/>
		</g>
		<g>
			<path style="fill:#381A46;" d="M1242.313,2011.068c-2.441,0-4.897-0.759-7.002-2.334c-5.176-3.875-6.231-11.208-2.358-16.384
				c48.032-64.172,98.364-82.986,153.838-57.495c5.874,2.698,8.452,9.646,5.752,15.52c-2.695,5.874-9.648,8.447-15.518,5.75
				c-45.176-20.73-83.804-5.227-125.332,50.254C1249.393,2009.448,1245.877,2011.068,1242.313,2011.068z"/>
		</g>
		<g>
			<path style="fill:#381A46;" d="M1367.118,2142.016c-50.938,0-100.874-22.021-148.428-65.454
				c-5.728-5.234-6.128-14.116-0.898-19.844c5.229-5.723,14.106-6.133,19.844-0.898c42.212,38.56,85.776,58.11,129.482,58.11
				c7.759,0,14.043,6.284,14.043,14.043S1374.876,2142.016,1367.118,2142.016z"/>
		</g>
		<g>
			<path style="fill:#381A46;" d="M1034.774,2186.957c-21.973,0-42.534-4.233-60.059-13.716c-5.684-3.076-7.798-10.176-4.722-15.864
				c3.076-5.679,10.171-7.798,15.864-4.722c57.192,30.938,177.158-10.664,233.374-80.938c4.038-5.049,11.392-5.869,16.45-1.831
				c5.049,4.038,5.869,11.401,1.831,16.45C1193.167,2141.777,1106.498,2186.957,1034.774,2186.957z"/>
		</g>
		<g>
			<path style="fill:#381A46;" d="M1170.794,2464.418c-5.64,0-10.606-4.082-11.538-9.829c-1.035-6.382,3.301-12.393,9.678-13.428
				c116.06-18.818,204.819-188.872,188.931-306.943c-0.864-6.406,3.628-12.3,10.034-13.164c6.494-0.806,12.305,3.643,13.159,10.039
				c17.383,129.15-77.241,311.909-208.374,333.174C1172.049,2464.369,1171.419,2464.418,1170.794,2464.418z"/>
		</g>
		<g>
			<path style="fill:#381A46;" d="M1329.676,2518.876c-4.043,0-7.979-2.1-10.146-5.854c-3.233-5.601-1.309-12.759,4.287-15.986
				c53.408-30.811,74.287-85.161,82.402-125.332c15.391-76.206-2.007-166.533-42.31-219.658c-3.906-5.151-2.895-12.495,2.251-16.401
				c5.166-3.906,12.495-2.886,16.401,2.251c44.058,58.086,63.223,156.138,46.602,238.442
				c-13.008,64.385-45.386,113.13-93.647,140.972C1333.67,2518.373,1331.664,2518.876,1329.676,2518.876z"/>
		</g>
		<g>
			<path style="fill:#381A46;" d="M1545.013,2289.482c-0.005,0-0.01,0-0.015,0c-6.465-0.01-11.699-5.254-11.689-11.719
				c0.107-87.295-44.912-155.532-114.692-173.853c-6.25-1.641-9.985-8.037-8.345-14.292s8.062-9.995,14.292-8.345
				c80.401,21.104,132.276,98.242,132.153,196.519C1556.708,2284.252,1551.468,2289.482,1545.013,2289.482z"/>
		</g>
		<g>
			<path style="fill:#381A46;" d="M1605.868,2134.999c-4.941,0-9.541-3.164-11.138-8.125c-18.076-56.162-48.96-88.589-94.404-99.136
				c-6.294-1.46-10.215-7.749-8.755-14.048c1.46-6.294,7.744-10.215,14.048-8.755c53.389,12.393,90.869,51.006,111.396,114.771
				c1.978,6.152-1.401,12.744-7.559,14.727C1608.265,2134.814,1607.059,2134.999,1605.868,2134.999z"/>
		</g>
		<g>
			<g>
				<path style="fill:#FDEBD1;" d="M2418.505,2043.705l32.77,383.881l9.363,290.252l81.832,72.235
					c17.088,25.421,37.452,43.585,60.578,55.429c44.615,22.845,98.218,16.9,139.227-11.844c57.302-40.167,73.64-99.81,53.276-131.55
					c-8.521-13.342-23.501-21.722-44.662-21.722c92.506-83.096,133.797-187.072,136.746-298.866
					c2.294-88.479-33.472-173.589-97.094-235.104c-50.607-48.921-108.048-91.43-169.891-129.771
					c-40.729-25.373-83.377-48.874-127.242-71.252l-65.541-23.407L2418.505,2043.705z"/>
			</g>
			<g>
				<path style="fill:#E2C7A1;" d="M2418.505,2043.705l32.77,383.881l9.363,290.252l81.832,72.235
					c17.088,25.421,37.452,43.585,60.578,55.429c44.615,22.845,98.218,16.9,139.227-11.844c57.302-40.167,73.64-99.81,53.276-131.55
					c-20.552,31.6-54.259,54.399-91.476,53.51c-36.563-0.843-70.503-24.344-88.808-56.038
					c-18.258-31.694-22.05-70.362-15.636-106.41c11.704-65.681,55.148-124.106,57.629-190.77
					c3.933-104.678-91.945-187.026-113.058-289.643c-4.821-23.454-5.243-49.296,7.116-69.848
					c12.312-20.552,40.635-32.63,61.468-20.786l5.758-2.575c0.702-0.936,1.405-1.92,2.106-2.902
					c-40.729-25.373-83.377-48.874-127.242-71.252l-65.541-23.407L2418.505,2043.705z"/>
			</g>
			<g>
				<path style="fill:#381A46;" d="M2661.82,2873.608c-22.461,0-44.751-5.146-65.151-15.581
					c-25.21-12.9-47.012-32.598-64.824-58.569l-80.503-71.089c-2.9-2.563-4.614-6.206-4.741-10.073l-9.346-289.883l-32.744-383.511
					c-0.063-0.757-0.068-1.519-0.01-2.275l9.365-121.716c0.337-4.365,2.69-8.323,6.362-10.706s8.252-2.92,12.363-1.443
					l65.537,23.408c0.571,0.203,1.123,0.442,1.66,0.715c130.161,66.421,225.649,131.06,300.508,203.418
					c66.821,64.58,103.77,154.097,101.372,245.596c-2.993,114.204-43.838,211.631-121.499,290
					c16.528,6.934,28.706,20.088,34.351,37.969c11.245,35.605-4.043,93.13-64.175,135.298
					C2723.49,2864.003,2692.499,2873.608,2661.82,2873.608z M2474.481,2711.327l77.28,68.242c0.894,0.791,1.685,1.689,2.354,2.681
					c15.313,22.734,33.936,39.814,55.347,50.767c38.979,19.951,86.782,15.786,124.761-10.85
					c46.387-32.529,62.031-76.86,53.516-103.838c-4.937-15.635-17.676-23.901-36.831-23.901c-0.005,0-0.005,0-0.01,0
					c-5.82,0.005-11.035-3.584-13.12-9.014c-2.08-5.435-0.601-11.587,3.726-15.474c84.619-76.045,129.058-173.203,132.09-288.774
					c2.192-83.652-31.641-165.542-92.817-224.668c-72.646-70.22-165.757-133.213-292.944-198.184l-47.368-16.917l-7.866,102.249
					l32.676,382.744c0.02,0.249,0.034,0.498,0.044,0.742L2474.481,2711.327z"/>
			</g>
			<g>
				<path style="fill:#381A46;" d="M2507.445,2160.746c-2.119,0-4.272-0.483-6.294-1.499c-6.934-3.481-9.727-11.924-6.245-18.853
					c31.694-63.105,73.716-107.876,124.888-133.074c6.963-3.413,15.381-0.562,18.804,6.396c3.428,6.96,0.566,15.378-6.392,18.801
					c-45.562,22.437-83.311,62.969-112.202,120.484C2517.538,2157.909,2512.586,2160.746,2507.445,2160.746z"/>
			</g>
			<g>
				<path style="fill:#381A46;" d="M2535.526,2296.508c-2.583,0-5.2-0.713-7.544-2.212c-6.538-4.17-8.452-12.856-4.277-19.395
					c57.813-90.562,134.302-149.331,227.339-174.668c7.48-2.051,15.205,2.373,17.241,9.858c2.041,7.485-2.373,15.205-9.858,17.241
					c-86.099,23.447-157.104,78.184-211.05,162.686C2544.701,2294.213,2540.16,2296.508,2535.526,2296.508z"/>
			</g>
			<g>
				<path style="fill:#381A46;" d="M2886.766,2363.183c-2.769,0-5.562-0.82-8.008-2.52c-87.9-61.177-230.732-65.957-311.88-10.435
					c-6.396,4.395-15.146,2.739-19.521-3.662c-4.38-6.401-2.739-15.142,3.662-19.521c91.367-62.515,245.591-57.778,343.784,10.562
					c6.367,4.434,7.935,13.184,3.506,19.551C2895.58,2361.078,2891.209,2363.183,2886.766,2363.183z"/>
			</g>
			<g>
				<path style="fill:#381A46;" d="M2840.189,2502.406c-117.178,0-217.793-32.324-285.85-92.378
					c-5.815-5.132-6.372-14.009-1.24-19.824c5.137-5.815,14.009-6.362,19.824-1.24c68.779,60.693,174.78,90.693,298.56,84.565
					c7.764-0.356,14.336,5.581,14.727,13.33c0.386,7.749-5.581,14.341-13.33,14.727
					C2861.854,2502.133,2850.946,2502.406,2840.189,2502.406z"/>
			</g>
			<g>
				<path style="fill:#381A46;" d="M2765.897,2659.072c-98.159,0-174.424-30.63-226.924-91.206
					c-5.078-5.864-4.443-14.731,1.416-19.814c5.854-5.068,14.731-4.448,19.814,1.416c50.322,58.066,126.157,85.405,225.698,81.079
					c7.866-0.156,14.302,5.684,14.634,13.433s-5.684,14.302-13.433,14.634C2779.93,2658.92,2772.85,2659.072,2765.897,2659.072z"/>
			</g>
			<g>
				<path style="fill:#381A46;" d="M2544.896,2755.287c-7.441,0-13.647-5.84-14.019-13.354c-0.381-7.744,5.591-14.336,13.34-14.717
					c79.048-3.887,149.897-26.035,204.888-64.063c6.377-4.414,15.132-2.813,19.541,3.564c4.409,6.382,2.813,15.127-3.564,19.541
					c-59.307,41.006-135.2,64.868-219.487,69.014C2545.36,2755.282,2545.125,2755.287,2544.896,2755.287z"/>
			</g>
			<g>
				<path style="fill:#381A46;" d="M2661.952,2872.333c-5.278,0-10.337-2.988-12.725-8.081c-3.296-7.026-0.273-15.386,6.748-18.682
					c19.424-9.111,27.681-26.533,31.187-39.546c7.305-27.139,1.318-62.095-14.561-85.01c-4.419-6.372-2.832-15.122,3.545-19.541
					c6.372-4.414,15.132-2.827,19.541,3.545c20.576,29.688,28.047,73.213,18.594,108.311c-7.241,26.895-23.276,46.836-46.372,57.671
					C2665.98,2871.904,2663.949,2872.333,2661.952,2872.333z"/>
			</g>
			<g>
				<path style="fill:#E2C7A1;" d="M2885.274,2334.459c40.877,24.801,83.176,36.669,127.78,27.587
					c7.201,51.536-5.302,101.588-42.133,149.807c-37.656-20.359-66.447-45.975-87.894-75.946
					C2891.123,2400.691,2891.08,2367.026,2885.274,2334.459z"/>
			</g>
			<g>
				<path style="fill:#381A46;" d="M2970.912,2525.903c-2.266,0-4.556-0.552-6.67-1.694c-38.198-20.654-69.365-47.612-92.637-80.127
					c-2.344-3.276-3.169-7.397-2.266-11.318c7.271-31.641,7.964-62.988,2.104-95.84c-0.967-5.435,1.338-10.928,5.889-14.048
					c4.551-3.13,10.508-3.286,15.225-0.425c41.353,25.088,79.849,33.545,117.695,25.835c3.799-0.776,7.749,0.054,10.913,2.295
					c3.164,2.236,5.264,5.684,5.801,9.521c7.949,56.953-7.148,110.879-44.883,160.278
					C2979.344,2523.964,2975.169,2525.903,2970.912,2525.903z M2898.099,2432.69c18.076,23.818,41.177,44.199,68.848,60.747
					c25.2-36.577,36.284-74.497,33.652-115.239c-32.148,3.516-64.512-2.539-97.925-18.374
					C2904.583,2384.418,2903.06,2408.495,2898.099,2432.69z"/>
			</g>
		</g>
		<g>
			<g>
				<g>
					<path style="fill:#FDEBD1;" d="M2583.835,3548.236c-3.37,14.1-10.299,27.574-21.347,39.027
						c-13.202,13.619-30.804,21.752-49.343,24.35c-80.521,11.261-181.782,14.245-263.24,1.011
						c-79.351-12.849-138.854-81.76-141.335-164.291c-6.647-222.134-51.403-344.944-55.287-424.105l517.959-332.335
						c-8.988,101.924-23.126,198.554-45.832,286.378c-3.183,12.271-5.946,24.687-8.239,37.151
						c-4.682,24.783-7.63,49.855-8.707,75.072c-5.15,121.317-3.652,237.341,7.958,345.28
						C2565.812,3445.302,2595.306,3500.45,2583.835,3548.236z"/>
				</g>
				<g>
					<path style="fill:#E2C7A1;" d="M2583.835,3548.236c-3.37,14.1-10.299,27.574-21.347,39.027
						c-13.202,13.619-30.804,21.752-49.343,24.35c-80.521,11.261-181.782,14.245-263.24,1.011
						c-79.351-12.849-138.854-81.76-141.335-164.291c-6.647-222.134-51.403-344.944-55.287-424.105l517.959-332.335
						c-8.988,101.924-23.126,198.554-45.832,286.378c-3.183,12.271-5.946,24.687-8.239,37.151c-0.655-0.385-1.311-0.77-1.966-1.155
						l-5.664,0.048c-59.173-11.982-120.736-11.597-179.77,1.107c-45.645,9.865-92.599,29.307-118.816,68.96
						c-29.353,44.417-25.889,102.79-21.301,156.302c4.775,55.293,9.55,110.635,14.325,165.927
						c2.622,30.895,5.571,62.752,20.037,89.941c16.76,31.617,47.329,53.272,79.304,67.998
						C2392.082,3605.454,2500.037,3598.909,2583.835,3548.236z"/>
				</g>
				<g>
					<path style="fill:#E2C7A1;" d="M2506.423,3152.788c38.972-13.693,70.156-32.123,91.926-56.279
						c21.279,42.172,26.484,83.931,9.363,125.119c-35.623,12.007-69.778,18.448-101.959,17.417L2506.423,3152.788z"/>
				</g>
				<g>
					<path style="fill:#381A46;" d="M2512.645,3253.393c-2.466,0-4.912-0.039-7.349-0.117c-7.729-0.249-13.843-6.616-13.784-14.346
						l0.674-86.255c0.044-6.001,3.853-11.333,9.517-13.32c37.739-13.262,66.694-30.884,86.069-52.378
						c3.135-3.491,7.778-5.244,12.466-4.58c4.658,0.62,8.706,3.501,10.825,7.695c24.282,48.13,27.578,94.224,9.8,136.997
						c-1.577,3.794-4.712,6.719-8.604,8.027C2575.853,3247.387,2543.172,3253.393,2512.645,3253.393z M2520.584,3162.753
						l-0.483,62.026c23.555-0.845,48.853-5.654,76.768-14.58c10.078-28.198,9.043-57.612-3.203-89.287
						C2574.413,3137.48,2549.94,3151.498,2520.584,3162.753z"/>
				</g>
				<g>
					<path style="fill:#381A46;" d="M2371.512,3635.424c-44.6,0-87.139-2.974-123.872-8.936
						c-86.04-13.96-150.425-88.716-153.096-177.749c-4.229-141.064-24.136-242.656-38.667-316.831
						c-8.486-43.301-15.186-77.5-16.631-107.002c-0.244-5.024,2.212-9.795,6.445-12.51l517.964-332.344
						c4.502-2.891,10.273-2.964,14.854-0.195c4.585,2.773,7.192,7.915,6.719,13.252c-9.922,112.251-25.034,206.675-46.201,288.662
						c-9.438,36.548-14.995,73.335-16.523,109.336c-5.337,126.04-3.091,235.264,6.875,333.496
						c30.459,9.688,55.132,35.19,65.723,68.726c11.987,37.935,3.56,76.699-22.539,103.696
						c-14.741,15.259-35.151,25.376-57.466,28.496C2467.875,3632.114,2418.543,3635.424,2371.512,3635.424z M2067.826,3031.567
						c2.085,25.884,8.14,56.787,15.615,94.941c14.722,75.127,34.883,178.022,39.18,321.392
						c2.266,75.605,56.738,139.053,129.521,150.864c72.842,11.821,169.688,11.426,259.067-1.064
						c16.133-2.251,30.747-9.424,41.157-20.195c18.818-19.468,24.78-47.769,15.952-75.713
						c-8.657-27.397-29.561-47.407-54.551-52.227c-6.06-1.167-10.649-6.152-11.309-12.29
						c-10.972-102.134-13.594-215.757-8.022-347.358c1.611-37.964,7.466-76.714,17.393-115.166
						c18.965-73.447,32.993-157.266,42.739-255.493L2067.826,3031.567z"/>
				</g>
				<g>
					<path style="fill:#381A46;" d="M2215.125,3101.874c-57.544,0-114.014-7.393-161.812-23.369
						c-7.461-2.495-11.484-10.562-8.994-18.018c2.495-7.456,10.562-11.47,18.018-8.994c143.442,47.939,378.159,13.12,448.501-66.523
						c5.21-5.898,14.204-6.46,20.098-1.25c5.898,5.205,6.455,14.204,1.25,20.098
						C2478.397,3064.721,2344.09,3101.874,2215.125,3101.874z"/>
				</g>
				<g>
					<path style="fill:#381A46;" d="M2291.527,3249.819c-73.413,0-148.486-11.45-213.008-34.536
						c-7.402-2.651-11.255-10.801-8.608-18.208c2.656-7.397,10.801-11.25,18.208-8.608c129.253,46.26,302.417,43.75,411.738-5.952
						c7.168-3.262,15.605-0.088,18.857,7.07s0.088,15.601-7.07,18.857C2451.166,3235.937,2372.352,3249.819,2291.527,3249.819z"/>
				</g>
				<g>
					<path style="fill:#381A46;" d="M2107.411,3431.962c-4.17,0-8.301-1.821-11.113-5.322c-4.922-6.133-3.94-15.098,2.188-20.02
						c119.399-95.85,315.64-119.116,419.951-49.79c6.553,4.355,8.33,13.193,3.979,19.741c-4.355,6.548-13.198,8.335-19.741,3.979
						c-93.394-62.085-277.549-39.063-386.357,48.276C2113.685,3430.937,2110.536,3431.962,2107.411,3431.962z"/>
				</g>
				<g>
					<path style="fill:#381A46;" d="M2301.375,3632.958c-0.21,0-0.415-0.005-0.625-0.015c-7.861-0.337-13.95-6.982-13.608-14.839
						c3.711-85.601,52.075-148.97,131.509-178.447c-103.867,2.275-196.943,49.111-251.108,130.664
						c-4.346,6.558-13.184,8.345-19.736,3.984c-6.553-4.351-8.335-13.188-3.984-19.736
						c76.865-115.742,224.404-167.803,375.82-132.666c6.958,1.616,11.641,8.135,10.957,15.239
						c-0.688,7.109-6.533,12.612-13.672,12.861c-119.839,4.248-196.987,69.131-201.338,169.331
						C2315.262,3626.982,2308.954,3632.958,2301.375,3632.958z"/>
				</g>
			</g>
			<g>
				<g>
					<path style="fill:#FDEBD1;" d="M1520.924,3548.236c3.37,14.1,10.299,27.574,21.347,39.027
						c13.202,13.619,30.805,21.752,49.343,24.35c80.521,11.261,181.782,14.245,263.24,1.011
						c79.351-12.849,138.854-81.76,141.335-164.291c6.647-222.134,51.403-344.944,55.287-424.105l-517.959-332.335
						c8.988,101.924,23.126,198.554,45.832,286.378c3.183,12.271,5.946,24.687,8.24,37.151c4.681,24.783,7.63,49.855,8.707,75.072
						c5.15,121.317,3.652,237.341-7.958,345.28C1538.947,3445.302,1509.453,3500.45,1520.924,3548.236z"/>
				</g>
				<g>
					<path style="fill:#E2C7A1;" d="M1520.924,3548.236c3.37,14.1,10.299,27.574,21.347,39.027
						c13.202,13.619,30.805,21.752,49.343,24.35c80.521,11.261,181.782,14.245,263.24,1.011
						c79.351-12.849,138.854-81.76,141.335-164.291c6.647-222.134,51.403-344.944,55.287-424.105l-517.959-332.335
						c8.988,101.924,23.126,198.554,45.832,286.378c3.183,12.271,5.946,24.687,8.24,37.151c0.655-0.385,1.311-0.77,1.966-1.155
						l5.664,0.048c59.174-11.982,120.736-11.597,179.77,1.107c45.645,9.865,92.599,29.307,118.816,68.96
						c29.353,44.417,25.889,102.79,21.301,156.302c-4.775,55.293-9.55,110.635-14.326,165.927
						c-2.622,30.895-5.571,62.752-20.037,89.941c-16.76,31.617-47.329,53.272-79.304,67.998
						C1712.677,3605.454,1604.722,3598.909,1520.924,3548.236z"/>
				</g>
				<g>
					<path style="fill:#E2C7A1;" d="M1598.336,3152.788c-38.972-13.693-70.156-32.123-91.926-56.279
						c-21.279,42.172-26.484,83.931-9.363,125.119c35.623,12.007,69.778,18.448,101.959,17.417L1598.336,3152.788z"/>
				</g>
				<g>
					<path style="fill:#381A46;" d="M1592.113,3253.393c-30.532,0-63.208-6.001-99.614-18.276c-3.887-1.309-7.021-4.233-8.599-8.022
						c-17.783-42.778-14.487-88.872,9.795-137.002c2.119-4.194,6.167-7.075,10.825-7.695c4.648-0.664,9.321,1.089,12.466,4.58
						c19.38,21.499,48.34,39.121,86.074,52.378c5.664,1.987,9.473,7.319,9.517,13.32l0.669,86.255
						c0.059,7.729-6.055,14.097-13.784,14.346C1597.025,3253.354,1594.579,3253.393,1592.113,3253.393z M1507.894,3210.199
						c27.91,8.926,53.208,13.735,76.763,14.58l-0.479-62.026c-29.355-11.255-53.828-25.273-73.086-41.846
						C1498.846,3152.592,1497.806,3182.001,1507.894,3210.199z"/>
				</g>
				<g>
					<path style="fill:#381A46;" d="M1733.246,3635.424c-47.036,0-96.357-3.306-143.584-9.902
						c-22.31-3.12-42.715-13.237-57.466-28.496c-26.099-26.997-34.521-65.762-22.539-103.696
						c10.596-33.535,35.269-59.038,65.728-68.726c9.966-98.247,12.212-207.466,6.87-333.496
						c-1.528-36.001-7.085-72.788-16.523-109.336c-21.167-81.987-36.279-176.411-46.201-288.662
						c-0.474-5.337,2.134-10.479,6.719-13.252c4.58-2.773,10.342-2.695,14.854,0.195l517.964,332.344
						c4.233,2.715,6.689,7.485,6.445,12.505c-1.445,29.512-8.145,63.716-16.631,107.021
						c-14.531,74.175-34.438,175.762-38.667,316.816c-2.671,89.033-67.056,163.789-153.096,177.749
						C1820.389,3632.45,1777.84,3635.424,1733.246,3635.424z M1550.189,2719.257c9.746,98.228,23.775,182.046,42.739,255.493
						c9.927,38.452,15.781,77.202,17.393,115.166c5.576,131.592,2.954,245.21-8.018,347.358c-0.659,6.138-5.249,11.123-11.309,12.29
						c-24.995,4.819-45.898,24.829-54.556,52.227c-8.828,27.944-2.866,56.245,15.952,75.713
						c10.415,10.771,25.029,17.944,41.157,20.195c89.375,12.485,186.226,12.881,259.067,1.064
						c72.783-11.812,127.256-75.259,129.521-150.864c4.297-143.354,24.458-246.25,39.18-321.377
						c7.476-38.159,13.53-69.067,15.615-94.956L1550.189,2719.257z M1588.338,3435.776h0.049H1588.338z"/>
				</g>
				<g>
					<path style="fill:#381A46;" d="M1889.632,3101.874c-128.975,0-263.262-37.144-317.056-98.057
						c-5.205-5.894-4.648-14.893,1.25-20.098c5.884-5.21,14.883-4.648,20.098,1.25c70.337,79.648,305.063,114.468,448.496,66.523
						c7.466-2.476,15.527,1.538,18.018,8.994s-1.533,15.522-8.994,18.018C2003.651,3094.477,1947.167,3101.874,1889.632,3101.874z"
						/>
				</g>
				<g>
					<path style="fill:#381A46;" d="M1813.236,3249.819c-80.83,0-159.639-13.882-220.122-41.377
						c-7.158-3.257-10.322-11.699-7.07-18.857c3.257-7.163,11.689-10.322,18.857-7.07c109.321,49.707,282.485,52.212,411.738,5.952
						c7.412-2.651,15.557,1.206,18.208,8.608c2.647,7.407-1.206,15.557-8.608,18.208
						C1961.717,3238.368,1886.644,3249.819,1813.236,3249.819z"/>
				</g>
				<g>
					<path style="fill:#381A46;" d="M1997.347,3431.962c-3.125,0-6.274-1.025-8.906-3.135
						c-108.799-87.339-292.959-110.347-386.357-48.276c-6.548,4.36-15.386,2.568-19.741-3.979
						c-4.351-6.548-2.573-15.386,3.979-19.741c104.307-69.321,300.542-46.064,419.951,49.79c6.128,4.922,7.109,13.887,2.188,20.02
						C2005.648,3430.141,2001.517,3431.962,1997.347,3431.962z"/>
				</g>
				<g>
					<path style="fill:#381A46;" d="M1803.382,3632.958c-7.583,0-13.882-5.977-14.214-13.623
						c-4.351-100.2-81.499-165.083-201.333-169.331c-7.139-0.249-12.983-5.752-13.672-12.856
						c-0.684-7.109,3.999-13.628,10.957-15.244c151.436-35.151,298.95,16.924,375.815,132.666
						c4.351,6.548,2.568,15.386-3.984,19.736c-6.553,4.36-15.391,2.568-19.736-3.984c-54.16-81.548-147.251-128.379-251.104-130.664
						c79.429,29.473,127.793,92.847,131.504,178.447c0.342,7.856-5.747,14.502-13.608,14.839
						C1803.797,3632.953,1803.587,3632.958,1803.382,3632.958z"/>
				</g>
			</g>
			<g>
				<g>
					<path style="fill:#FDEBD1;" d="M2204.635,3008.828c-94.472,19.875-191.8,19.779-286.974,3.85
						c-529.148-88.642-465.527-536.809-286.508-1054.802c3.184-9.432,6.508-18.864,9.832-28.344l791.171-19.249
						c4.869,10.346,9.597,20.693,14.232,30.991C2677.793,2454.07,2664.825,2912.006,2204.635,3008.828z"/>
				</g>
				<g>
					<path style="fill:#E2C7A1;" d="M2446.387,1941.274c-60.625,120.788-222.277,207.216-412.158,207.216
						c-181.079,0-336.459-78.584-403.076-190.614c3.184-9.432,6.508-18.864,9.832-28.344l791.171-19.249
						C2437.024,1920.629,2441.753,1930.976,2446.387,1941.274z"/>
				</g>
				<g>
					<path style="fill:#E2C7A1;" d="M2230.142,2835.592c-109.856,19.874-223.005,19.775-333.676,3.825
						c-185.495-26.733-308.316-86.155-383.715-170.31c33.784,175.871,151.185,301.04,404.9,343.552
						c95.19,15.95,192.512,16.048,287.001-3.825c219.789-46.228,337.55-174.851,375.41-352.475
						C2506.873,2743.633,2392.434,2806.232,2230.142,2835.592z"/>
				</g>
				<g>
					<path style="fill:#381A46;" d="M2053.919,3038.29c-45.435,0-91.714-3.926-138.589-11.777
						c-178.091-29.844-297.388-99.771-364.702-213.789c-129.829-219.893-33.877-572.212,77.109-887.849
						c1.934-5.505,7.07-9.241,12.905-9.382l791.172-19.25c0.117-0.003,0.229-0.005,0.342-0.005c5.439,0,10.405,3.144,12.72,8.088
						c169.883,362.72,208.232,673.145,107.993,874.092c-63.438,127.158-179.619,209.307-345.327,244.16
						C2157.762,3033.046,2106.405,3038.29,2053.919,3038.29z M1651.024,1943.337c-107.471,307.166-198.96,647.2-76.211,855.11
						c62.847,106.436,175.747,171.978,345.156,200.361c97.568,16.343,192.373,15.098,281.792-3.721
						c156.885-32.998,266.558-110.112,325.972-229.209c95.581-191.602,58.467-490.137-104.424-841.333L1651.024,1943.337z"/>
				</g>
				<g>
					<path style="fill:#381A46;" d="M1969.769,2140.317c-121.982,0-252.759-14.16-383.325-41.738
						c-7.69-1.626-12.612-9.18-10.986-16.875c1.626-7.69,9.16-12.603,16.875-10.986c344.424,72.744,664.619,47.432,878.457-69.465
						c6.909-3.777,15.552-1.233,19.326,5.664c3.77,6.902,1.235,15.554-5.664,19.324c-116.699,63.794-259.517,101.27-424.473,111.377
						C2030.565,2139.423,2000.438,2140.317,1969.769,2140.317z"/>
				</g>
				<g>
					<path style="fill:#381A46;" d="M1987.035,2310.761c-162.27,0-319.971-27.568-441.597-78.066
						c-7.266-3.013-10.708-11.348-7.69-18.608c3.013-7.271,11.357-10.713,18.608-7.69c289.541,120.195,741.87,94.653,967.993-54.668
						c6.577-4.326,15.405-2.52,19.727,4.038c4.336,6.563,2.529,15.396-4.033,19.731c-114.883,75.859-284.878,123.213-478.667,133.33
						C2036.571,2310.121,2011.742,2310.761,1987.035,2310.761z"/>
				</g>
				<g>
					<path style="fill:#381A46;" d="M1995.082,2494.731c-157.378,0-323.486-21.567-487.261-65.396
						c-7.598-2.031-12.104-9.839-10.073-17.437c2.036-7.598,9.844-12.109,17.437-10.073
						c391.973,104.897,796.802,80.635,1056.519-63.325c6.885-3.804,15.547-1.323,19.36,5.552c3.809,6.88,1.323,15.547-5.552,19.36
						C2428.788,2450.278,2220.951,2494.731,1995.082,2494.731z"/>
				</g>
				<g>
					<path style="fill:#381A46;" d="M1798.875,2483.593c-6.343,0-12.124-4.268-13.779-10.693
						c-1.963-7.612,2.622-15.376,10.239-17.339c136.802-35.239,254.419-95.708,349.595-179.722c5.894-5.21,14.893-4.648,20.098,1.25
						s4.644,14.893-1.25,20.098c-98.574,87.017-220.146,149.58-361.343,185.952
						C1801.244,2483.447,1800.052,2483.593,1798.875,2483.593z"/>
				</g>
				<g>
					<path style="fill:#381A46;" d="M1991.864,2685.81c-199.224,0-378.076-35.005-496.538-97.915
						c-6.943-3.691-9.585-12.31-5.898-19.258c3.687-6.938,12.305-9.585,19.258-5.898
						c254.238,135.024,788.188,122.866,1077.969-24.541c7.002-3.569,15.581-0.776,19.146,6.235
						c3.564,7.007,0.776,15.581-6.235,19.146c-139.204,70.815-341.973,115.088-556.309,121.465
						C2026,2685.556,2008.846,2685.81,1991.864,2685.81z"/>
				</g>
				<g>
					<path style="fill:#381A46;" d="M2015.599,2869.325c-182.114,0-349.497-27.856-473.472-79.009
						c-7.271-3.003-10.732-11.323-7.734-18.594c2.998-7.275,11.318-10.737,18.594-7.734
						c256.03,105.649,697.52,101.558,984.146-9.102c7.339-2.847,15.581,0.815,18.413,8.154c2.832,7.334-0.82,15.576-8.159,18.408
						c-140.239,54.146-320.845,85.298-508.55,87.725C2031.068,2869.272,2023.319,2869.325,2015.599,2869.325z"/>
				</g>
			</g>
		</g>
		<g>
			<g>
				<path style="fill:#E2C7A1;" d="M1286.134,1388.885c-58.29-2.036-107.969-20.222-151.597-49.755
					c-20.949,41.076-32.266,88.781-38.446,140.019c73.729,30.724,154.686,23.44,239.457-3.903L1286.134,1388.885z"/>
			</g>
			<g>
				<path style="fill:#381A46;" d="M1200.14,1513.146c-39.497,0-75.801-7.012-109.448-21.033c-5.806-2.42-9.297-8.401-8.545-14.644
					c7.07-58.625,20.112-105.962,39.878-144.719c1.826-3.589,5.107-6.218,9.009-7.222c3.887-0.999,8.042-0.283,11.372,1.97
					c44.346,30.02,91.519,45.508,144.214,47.349c4.863,0.169,9.287,2.842,11.704,7.061l49.414,86.362
					c2.1,3.674,2.432,8.101,0.903,12.048c-1.528,3.945-4.756,6.995-8.784,8.294
					C1289.144,1504.97,1242.782,1513.146,1200.14,1513.146z M1111.424,1470.06c57.422,20.94,124.16,19.927,203.208-3.083
					l-36.86-64.426c-49.609-2.927-94.775-17.044-137.388-42.974C1126.913,1390.217,1117.381,1426.603,1111.424,1470.06z"/>
			</g>
			<g>
				<g>
					<path style="fill:#FDEBD1;" d="M2784.828,1434.792c0.766,16.997,3.172,33.933,7.196,50.575
						c78.615,327.596-126.255,522.619-727.887,532.096c-603.442,7.25-873.863-174.998-779.03-520.221
						c3.602-13.085,5.618-26.537,6.031-40.026c0.451-12.598-0.514-25.25-2.919-37.719c-0.93-4.849-1.861-9.699-2.697-14.557
						c-80.602-437.775,6.648-873.366,646.199-967.934c152.754-22.624,309.383-2.917,449.476,62.091
						c339.31,157.42,492.206,521.516,410.496,862.814c-3.169,13.186-5.282,26.6-6.311,40.053
						C2784.488,1412.863,2784.306,1423.837,2784.828,1434.792z"/>
				</g>
				<g>
					<path style="fill:#E2C7A1;" d="M1265.286,1049.513c530.662-234.025,1094.928-273.377,1537.055,17.863l-6.723-42.585
						c-279.155-286.988-1238.53-246.35-1521.593,0.149L1265.286,1049.513z"/>
				</g>
				<g>
					<path style="fill:#E2C7A1;" d="M2050.169,1896.522c-391.017,6.832-650.91-56.65-772.172-184.556
						c56.648,205.234,323.525,311.054,786.14,305.496c495.474-7.804,721.804-141.475,742.355-371.378
						C2715.365,1799.136,2474.837,1887.62,2050.169,1896.522z"/>
				</g>
				<g>
					<path style="fill:#E2C7A1;" d="M1265.954,1237.317c114.767-55.022,274.104-117.215,471.293-153.996
						c180.234-33.619,337.755-35.872,458.07-28.806l146.381-27.392c-131.271-22.045-324.364-39.439-553.486-6.255
						c-225.835,32.708-403.929,102.568-522.902,160.079C1265.525,1199.738,1265.739,1218.528,1265.954,1237.317z"/>
				</g>
				<g>
					<path style="fill:#381A46;" d="M2785.382,1401.963c-0.894,10.901-1.076,21.875-0.554,32.829
						c-452.475,237.46-1231.636,203.207-1493.643,22.419l-0.047,0.004c0.451-12.598-0.514-25.25-2.919-37.719
						c-0.93-4.849-1.861-9.699-2.697-14.557C1573.24,1104.716,2532.743,1107.755,2785.382,1401.963z"/>
				</g>
				<g>
					<g style="opacity:0.8;">
						<g>
							<path style="fill:#FFFFFF;" d="M1275.103,1540.513c1.865-6.773,3.284-13.647,4.297-20.571
								c-1.729,7.431-3.309,14.795-4.686,22.068C1274.85,1541.508,1274.965,1541.016,1275.103,1540.513z"/>
						</g>
					</g>
					<g style="opacity:0.8;">
						<g>
							<path style="fill:#FFFFFF;" d="M2785.382,1401.963c1.028-13.453,3.141-26.867,6.311-40.053
								c81.71-341.298-71.187-705.394-410.496-862.814c-140.093-65.009-296.722-84.715-449.476-62.091
								c-420.759,62.216-602.445,272.045-654.575,532.984c63.22-240.664,247.343-430.976,644.572-489.713
								c48.764-7.222,97.919-10.082,146.808-8.58c-6.337,4.468-10.37,9.778-11.612,15.89c-6.482,31.88,64.808,73.288,159.232,92.486
								c94.423,19.199,176.224,8.919,182.706-22.961c0.076-0.375,0.089-0.758,0.144-1.135
								c319.792,164.034,462.136,517.382,382.695,849.206c-3.169,13.186-5.283,26.6-6.311,40.053
								c-0.894,10.901-1.076,21.875-0.554,32.829c0.766,16.997,3.172,33.933,7.196,50.574
								c16.288,67.871,20.363,130.031,11.307,186.051c20.392-66.701,19.303-143.447-1.304-229.322
								c-4.024-16.641-6.429-33.577-7.196-50.575C2784.306,1423.837,2784.488,1412.863,2785.382,1401.963z"/>
						</g>
					</g>
				</g>
				<g>
					<path style="fill:#381A46;" d="M2029.51,2031.713c-364.751,0-604.385-71.023-712.651-211.287
						c-66.118-85.652-81.353-195.64-45.298-326.907c3.301-11.968,5.161-24.324,5.537-36.731c0.42-11.653-0.479-23.279-2.671-34.631
						l-0.122-0.642c-0.908-4.729-1.812-9.46-2.627-14.199c-53.945-293.013-21.196-525.706,97.373-691.453
						c111.396-155.723,300.015-254.219,560.615-292.752c159.272-23.584,317.441-1.721,457.441,63.245
						c166.582,77.285,294.521,204.998,369.98,369.331c72.158,157.141,89.302,338.084,48.262,509.492
						c-2.993,12.451-4.995,25.183-5.962,37.849c-0.85,10.307-1.025,20.74-0.532,31.094c0,0.012,0,0.025,0,0.037
						c0.728,16.074,3.022,32.192,6.821,47.905c33.027,137.629,15.874,251.096-50.977,337.273
						c-106.372,137.124-332.183,206.526-690.347,212.165C2052.625,2031.645,2040.99,2031.713,2029.51,2031.713z M2053.939,441.982
						c-39.78,0-79.927,2.959-120.161,8.916c-252.773,37.378-435.093,132.022-541.885,281.306
						c-113.965,159.312-145.107,384.797-92.558,670.19c0.811,4.729,1.685,9.287,2.558,13.84l0.117,0.622
						c2.588,13.413,3.657,27.17,3.159,40.864c-0.439,14.56-2.637,29.138-6.523,43.25c-33.594,122.29-19.985,224.001,40.444,302.292
						c51.855,67.18,138.809,118.276,258.452,151.87c122.119,34.289,279.185,50.53,466.421,48.284
						c344.189-5.42,569.136-73.147,668.545-201.296c61.362-79.104,76.792-184.573,45.859-313.479
						c-4.214-17.434-6.763-35.349-7.568-53.218c-0.552-11.553-0.352-23.201,0.586-34.614c1.074-14.07,3.315-28.291,6.65-42.18
						c83.726-349.714-81.89-697.932-402.749-846.795C2275.584,465.573,2166.253,441.982,2053.939,441.982z"/>
				</g>
				<g>
					<path style="fill:#381A46;" d="M1978.778,1614.579c-4.092,0-8.159-0.01-12.256-0.032
						c-290.483-1.511-551.528-57.974-681.523-147.385c-0.654-0.405-1.274-0.879-1.846-1.414c-2.466-2.312-3.833-5.576-3.711-8.955
						c0.42-11.75-0.493-23.552-2.715-35.078l-0.127-0.64c-0.898-4.714-1.802-9.431-2.612-14.155c-0.63-3.66,0.513-7.4,3.081-10.081
						c141.714-147.871,465.093-237.109,823.687-227.292c320.908,8.762,580.161,92.795,693.506,224.79
						c2.041,2.375,3.042,5.466,2.788,8.586c-0.85,10.32-1.03,20.854-0.532,31.311c0.22,4.546-2.222,8.804-6.25,10.92
						C2584.72,1553.027,2289.53,1614.579,1978.778,1614.579z M1302.948,1451.044c127.895,85.059,381.143,138.625,663.691,140.098
						c4.053,0.019,8.12,0.032,12.163,0.032c303.818,0,592.065-59.282,794.082-163.364c-0.142-7.295,0.02-14.597,0.474-21.826
						c-109.341-123.157-366.504-204.661-673.242-213.037c-348.872-9.575-662.524,75.066-802.017,215.852
						c0.488,2.627,0.991,5.252,1.494,7.879l0.117,0.62C1301.854,1428.388,1302.938,1439.714,1302.948,1451.044z"/>
				</g>
				<g>
					
						<ellipse transform="matrix(0.9955 -0.0944 0.0944 0.9955 -117.585 167.0379)" style="fill:#FFFFFF;" cx="1706.215" cy="1325.982" rx="93.63" ry="105.333"/>
				</g>
				<g>
					
						<ellipse transform="matrix(0.9955 -0.0944 0.0944 0.9955 -114.5756 230.3815)" style="fill:#FFFFFF;" cx="2376.989" cy="1325.829" rx="93.63" ry="105.333"/>
				</g>
				<g>
					<path style="fill:#381A46;" d="M2798.875,1042.521c-3.14,0-6.265-1.253-8.569-3.728
						c-123.418-132.539-398.975-209.473-737.183-205.979c-319.805,3.369-624.917,80.669-777.31,196.931
						c-5.137,3.928-12.48,2.937-16.406-2.205c-3.921-5.139-2.93-12.483,2.207-16.404
						c332.93-254.004,1265.928-288.872,1545.82,11.704c4.404,4.732,4.141,12.136-0.591,16.54
						C2804.593,1041.481,2801.727,1042.521,2798.875,1042.521z"/>
				</g>
				<g>
					<path style="fill:#381A46;" d="M1330.711,819.582c-3.838,0-7.593-1.882-9.834-5.344c-3.511-5.425-1.963-12.671,3.462-16.184
						c168.535-109.099,409.995-178.94,662.461-191.616c275.156-13.818,529.961,42.847,717.344,159.548
						c5.488,3.418,7.163,10.635,3.75,16.121c-3.418,5.493-10.64,7.166-16.123,3.748
						c-392.119-244.209-1028.662-179.219-1354.707,31.848C1335.096,818.974,1332.889,819.582,1330.711,819.582z"/>
				</g>
				<g>
					<path style="fill:#381A46;" d="M2810.726,1254.455c-3.608,0-7.168-1.663-9.463-4.802
						c-100.117-137.109-361.079-224.17-698.076-232.881c-328.789-8.477-648.999,61.448-835.771,182.546
						c-5.425,3.521-12.671,1.973-16.187-3.452s-1.973-12.671,3.452-16.186c190.527-123.535,515.894-194.844,849.111-186.309
						c344.199,8.899,612.007,99.546,716.377,242.478c3.809,5.22,2.671,12.542-2.549,16.355
						C2815.536,1253.722,2813.119,1254.455,2810.726,1254.455z"/>
				</g>
				<g>
					<path style="fill:#381A46;" d="M1744.271,1217.38c-4.028,0-7.944-2.083-10.122-5.813c-3.252-5.583-1.367-12.749,4.219-16.006
						c196.436-114.509,447.568-177.541,671.714-168.664c6.46,0.256,11.489,5.701,11.23,12.158
						c-0.254,6.457-5.85,11.536-12.158,11.23c-219.902-8.748-466.25,53.142-658.999,165.5
						C1748.304,1216.864,1746.273,1217.38,1744.271,1217.38z"/>
				</g>
				<g>
					<path style="fill:#381A46;" d="M1657.103,1726.745c-140.225,0-280.693-21.504-394.58-70.832
						c-5.928-2.568-8.657-9.461-6.084-15.391c2.564-5.938,9.448-8.667,15.391-6.089c301.362,130.54,740.664,57.009,910.693-50.962
						c5.459-3.462,12.69-1.851,16.152,3.606c3.467,5.457,1.851,12.691-3.604,16.155
						C2076.537,1678.5,1867.108,1726.745,1657.103,1726.745z"/>
				</g>
				<g>
					<path style="fill:#381A46;" d="M2096.791,1771.088c-132.012,0-244.404-17.864-312.153-52.078
						c-5.771-2.913-8.086-9.954-5.176-15.723c2.91-5.764,9.956-8.089,15.723-5.171c103.062,52.043,316.211,64.399,543.018,31.453
						c232.783-33.806,407.476-104.692,455.898-184.997c3.35-5.537,10.542-7.315,16.069-3.977c5.532,3.337,7.314,10.53,3.979,16.067
						c-52.744,87.458-229.409,160.757-472.583,196.074C2256.639,1765.068,2173.407,1771.088,2096.791,1771.088z"/>
				</g>
				<g>
					<path style="fill:#381A46;" d="M1943.387,1905.859c-29.961,0-59.888-0.391-89.634-1.182
						c-260.454-6.921-459.399-44.148-545.83-102.131c-5.371-3.601-6.802-10.872-3.203-16.24c3.604-5.364,10.869-6.797,16.24-3.198
						c179.868,120.657,835.957,126.99,1213.228,43.855c133.706-29.468,221.279-68.628,246.587-110.271
						c3.354-5.522,10.557-7.278,16.079-3.923c5.522,3.357,7.28,10.557,3.921,16.081c-29.487,48.521-117.485,89.221-261.553,120.972
						C2376.527,1885.676,2159.12,1905.859,1943.387,1905.859z"/>
				</g>
			</g>
		</g>
		<g>
			<path style="fill:#66EDD3;" d="M1703.53,1856.493c3.23,5.43,6.601,10.674,10.206,15.73
				C1710.084,1867.167,1706.713,1861.923,1703.53,1856.493z"/>
		</g>
		<g>
			<g>
				<path style="fill:#381A46;" d="M1773.927,1591.192c61.892-17.598,122.901-37.611,187.336-43.731
					c31.734-3.014,63.767-2.814,95.365,1.569c32.331,4.485,64.254,11.967,96.188,18.616c36.142,7.525,72.283,15.05,108.425,22.575
					c0.551-4.074,1.103-8.148,1.654-12.222c-94.858,1.633-189.717,3.275-284.575,4.921c-27.057,0.469-53.824,1.73-80.774,4.068
					c-4.397,0.381-4.494,6.676,0,6.912c47.226,2.488,94.391,1.089,141.666,0.298c47.636-0.796,95.272-1.592,142.909-2.394
					c26.925-0.453,53.85-0.907,80.774-1.361c6.789-0.115,8.736-10.745,1.654-12.222c-32.926-6.868-65.851-13.736-98.777-20.604
					c-32.42-6.763-64.8-14.294-97.544-19.346c-64.322-9.923-128.647-3.437-191.674,11.515
					c-35.613,8.448-71.017,18.805-105.369,31.461C1765.059,1583.503,1767.435,1593.038,1773.927,1591.192L1773.927,1591.192z"/>
			</g>
		</g>
	</g>
</g>
</svg>
