<?xml version="1.0" encoding="utf-8"?>
<!-- Generator: Adobe Illustrator 27.5.0, SVG Export Plug-In . SVG Version: 6.00 Build 0)  -->
<svg version="1.1" id="Layer_1" xmlns="http://www.w3.org/2000/svg" xmlns:xlink="http://www.w3.org/1999/xlink" x="0px" y="0px"
	 viewBox="0 0 4000 4000" style="enable-background:new 0 0 4000 4000;" xml:space="preserve">
<g>
	<g>
		<!-- <rect style="fill:#00EDF9;" width="4000" height="4000"/> -->
	</g>
	<g>
		<g>
			<path style="fill:#6B184E;" d="M3481.101,2970.79c-61.714,8.993-123.425,11.146-185.139,12.251
				c-61.711,1.244-123.425,0.585-185.137-0.093l-92.568-0.544l-92.568-0.033h-185.139H2000h-740.549H889.175l-92.568,0.033
				l-46.284,0.415l-46.284,0.72c-30.857,0.375-61.714-0.205-92.568-1.661c-30.857-1.884-61.714-4.523-92.571-11.088
				c-3.196-0.68-5.237-3.824-4.558-7.021c0.503-2.356,2.346-4.084,4.558-4.558c30.857-6.565,61.714-9.204,92.571-11.088
				c30.854-1.456,61.711-2.036,92.568-1.661l46.284,0.72l46.284,0.415l92.568,0.033h370.276H2000h740.549h185.139l92.568-0.033
				l92.568-0.544c61.711-0.677,123.425-1.337,185.137-0.093c61.714,1.105,123.425,3.258,185.139,12.251
				c3.196,0.465,5.41,3.436,4.946,6.633C3485.664,2968.464,3483.594,2970.425,3481.101,2970.79z"/>
		</g>
		<g>
			<g>
				<path style="fill:#EF3D30;" d="M3389.8,1591.15l71.801,391.7v851.4c0,16.4-13.35,29.75-29.801,29.75h-426.3
					c-1.05,0-2.05-0.05-3.05-0.15c-1.75-0.2-3.4-0.5-5.05-1c-0.5-0.1-1-0.25-1.5-0.45c-3.149-1.05-6.05-2.65-8.65-4.65
					c-0.599-0.45-1.15-0.95-1.7-1.45c-0.6-0.5-1.15-1.05-1.65-1.6c-2.6-2.75-4.75-6.05-6.15-9.7c-0.3-0.7-0.551-1.45-0.75-2.2
					c-0.45-1.5-0.8-3.051-1-4.65c-0.1-0.65-0.2-1.3-0.2-1.95c-0.099-0.65-0.099-1.3-0.099-1.95v-50.35c0-3.051-0.1-6.1-0.3-9.1
					c-0.05-1.85-0.2-3.7-0.4-5.55c-0.1-1.25-0.2-2.5-0.4-3.75c0-0.55-0.1-1.1-0.2-1.65c-0.199-1.75-0.45-3.5-0.75-5.2
					c0-0.5-0.1-1-0.25-1.45c-0.3-1.949-0.649-3.85-1.05-5.75c-0.45-2.25-0.95-4.451-1.5-6.7c-1.1-4.399-2.35-8.75-3.85-13
					c-0.5-1.55-1.05-3.1-1.65-4.6c-0.551-1.6-1.2-3.199-1.901-4.75c-0.599-1.55-1.25-3.05-1.899-4.5c-0.35-0.85-0.751-1.7-1.2-2.55
					c-0.551-1.25-1.15-2.5-1.801-3.7c-0.35-0.8-0.75-1.6-1.25-2.4c-0.699-1.5-1.5-2.95-2.35-4.4c-0.35-0.65-0.7-1.25-1.05-1.85
					c-0.9-1.6-1.851-3.15-2.8-4.65c-0.25-0.4-0.5-0.85-0.75-1.25c-1.3-1.949-2.55-3.899-3.9-5.8c-1.25-1.801-2.55-3.55-3.9-5.25
					c-0.25-0.4-0.55-0.75-0.85-1.15c-2.7-3.5-5.551-6.85-8.551-10.1c-1.65-1.75-3.3-3.5-5-5.2c-1.4-1.399-2.85-2.8-4.35-4.15
					c-3.5-3.2-7.2-6.3-10.95-9.15c-1.45-1.15-2.95-2.25-4.501-3.3c-1.25-0.9-2.55-1.8-3.85-2.65c-0.05-0.05-0.1-0.1-0.15-0.1
					c-1-0.701-2-1.35-3.05-2.001c0,0,0,0-0.05,0c-1.3-0.85-2.65-1.649-4.05-2.45c-1.899-1.1-3.8-2.2-5.8-3.25
					c-1.75-0.95-3.55-1.85-5.4-2.7c-0.35-0.2-0.649-0.35-1-0.5c-1.85-0.85-3.75-1.7-5.65-2.5c-1.55-0.65-3.1-1.3-4.65-1.9
					c-2.75-1.05-5.599-2.05-8.4-2.95c-1.8-0.549-3.65-1.1-5.55-1.6c-2.55-0.7-5.15-1.35-7.75-1.95c-2-0.4-4-0.8-6-1.15
					c-0.5-0.1-1-0.2-1.5-0.25c-1.8-0.3-3.6-0.549-5.4-0.8c-1.85-0.25-3.7-0.45-5.6-0.6c-0.2-0.05-0.35-0.05-0.5-0.05
					c-0.85-0.1-1.75-0.15-2.6-0.2c-1.75-0.15-3.5-0.25-5.25-0.3c-4.55-0.15-9.05-0.1-13.5,0.1c-1.2,0.05-2.45,0.15-3.65,0.25
					c-2.25,0.15-4.5,0.35-6.75,0.65c-1.5,0.15-3.049,0.35-4.5,0.6c-3.101,0.45-6.2,1-9.2,1.6c-1.35,0.3-2.75,0.601-4.1,0.95
					c-4.35,1-8.601,2.25-12.8,3.65c-1.4,0.45-2.8,0.95-4.2,1.45c-2.75,1-5.5,2.1-8.15,3.25c-1.349,0.55-2.699,1.15-4.05,1.8
					c-1.3,0.6-2.6,1.2-3.9,1.9c-1.6,0.75-3.2,1.6-4.75,2.45c-2.2,1.2-4.401,2.45-6.5,3.7c-7.5,4.6-14.6,9.75-21.2,15.5
					c-1.1,0.95-2.15,1.9-3.2,2.85c-2.15,1.951-4.2,3.95-6.2,6.051c-2.2,2.2-4.3,4.45-6.3,6.8c-1.65,1.9-3.2,3.8-4.75,5.75
					c-0.15,0.15-0.25,0.3-0.35,0.45c-1.3,1.65-2.55,3.3-3.75,5c-0.85,1.2-1.7,2.4-2.5,3.6c-0.35,0.5-0.7,1-1.051,1.55
					c-0.9,1.35-1.749,2.7-2.55,4.05c-0.2,0.2-0.3,0.449-0.45,0.699c-0.5,0.75-0.95,1.55-1.4,2.35c-1.851,3.101-3.55,6.3-5.15,9.55
					c-0.9,1.8-1.75,3.6-2.55,5.45c-0.65,1.45-1.3,2.9-1.85,4.401c-0.3,0.599-0.55,1.2-0.75,1.799c-0.8,1.951-1.5,3.9-2.2,5.9
					c-0.551,1.55-1.05,3.1-1.55,4.65c-1.15,3.7-2.2,7.45-3.05,11.3c-0.25,1.1-0.5,2.2-0.75,3.3c-1.35,6.45-2.3,13.051-2.8,19.8
					c-0.15,1.7-0.25,3.45-0.3,5.2v0.15c-0.1,2.2-0.15,4.4-0.15,6.6v54.05c0,16.4-13.3,29.75-29.75,29.75h-941.3
					c-16.4,0-29.75-13.35-29.75-29.75v-50.35c0-6.65-0.4-13.25-1.25-19.7c-9.25-75.3-70.8-136.3-148.2-139.1
					c-82.8-2.9-151.85,59.1-160.1,139.1c-0.5,5.25-0.75,10.6-0.75,16v47.2c0,15.95-12.401,33.8-27.35,36.6
					c-2.8,0.549-5.6,0.549-8.45,0H1287c-16.45,0-29.8-13.35-29.8-29.75v-50.35c0-84.1-65.4-155.75-149.449-158.8
					c-88.2-3.101-160.8,67.55-160.8,155.1v47.2c0,18.85-17.35,33-35.85,29.2l-375.05-63.251c-21.15-3.6-36.65-21.949-36.65-43.45
					V1595.8c0-63.95,51.85-115.8,115.75-115.8H3278.6c11.5,0,22.6,1.75,33.051,5c24.199,7.5,44.8,23.05,58.8,43.5
					c11.1,16.2,17.999,35.551,19.149,56.4C3389.75,1586.95,3389.8,1589.05,3389.8,1591.15z"/>
			</g>
			<g style="opacity:0.55;">
				<path style="fill:#FFFFFF;" d="M2999.575,2533.35h-41.65c-7.138,0-12.925-5.787-12.925-12.925v-7.766
					c0-2.877,2.332-5.209,5.209-5.209h57.082c2.877,0,5.209,2.332,5.209,5.209v7.766
					C3012.5,2527.563,3006.713,2533.35,2999.575,2533.35z"/>
			</g>
			<g style="opacity:0.55;">
				<rect x="2910" y="2465" style="fill:#FFFFFF;" width="305" height="30"/>
			</g>
			<g>
				<path style="fill:#FFFFFF;" d="M2665.3,2790v44.25c0,16.4-13.3,29.75-29.75,29.75h-463.7c-30.65-17.2-60.5-35.601-89.55-55.25
					c-196.75-132.9-335.2-304-469.05-469.45c-251.4-310.7-489.55-605.1-1113.85-649.5v-94c0-63.95,51.85-115.8,115.75-115.8H721.9
					c218.9,37.55,408.2,109.5,573.1,217.3c214.65,140.3,360.2,320.2,500.95,494.15C2020.2,2468.65,2218.2,2713.35,2665.3,2790z"/>
			</g>
			<g>
				<path style="fill:#FFFFFF;" d="M3000.05,2863.5c-12.65-2.35-22.4-12.6-24.05-25.35
					C2985.25,2845.35,2993.35,2853.9,3000.05,2863.5z"/>
				<path style="fill:#6B184E;" d="M3005.592,2867.07l-5.996-1.113c-13.804-2.563-24.282-13.608-26.079-27.488l-0.776-6.023
					l4.79,3.73c9.438,7.341,17.705,16.052,24.57,25.891L3005.592,2867.07z M2980.49,2845.156c2.534,5.85,7.061,10.62,12.783,13.469
					C2989.381,2853.789,2985.109,2849.287,2980.49,2845.156z"/>
			</g>
			<g style="opacity:0.3;">
				<path style="fill:#6B184E;" d="M943,2746.65h7.6c-2.4,10.8-3.65,22.05-3.65,33.55v47.2c0,18.85-17.35,33-35.85,29.2
					l-375.05-63.251c-21.15-3.6-36.65-21.949-36.65-43.45v-95.55c0,21.449,15.5,39.8,36.65,43.4L911.1,2761
					C924.25,2763.7,936.8,2757.35,943,2746.65z"/>
			</g>
			<g style="opacity:0.3;">
				<path style="fill:#6B184E;" d="M1357.85,2746.65c-1.35,5.75-2.3,11.6-2.9,17.55c-0.5,5.25-0.75,10.6-0.75,16v47.2
					c0,15.95-12.401,33.8-27.35,36.6c-2.8,0.549-5.6,0.549-8.45,0H1287c-16.45,0-29.8-13.35-29.8-29.75v-50.35
					c0-12.75-1.5-25.25-4.349-37.25h5.499c3.45,12.55,15,21.75,28.651,21.75h39.85c10.35-1.949,19.45-11.05,24.05-21.75H1357.85z"/>
			</g>
			<g style="opacity:0.3;">
				<path style="fill:#6B184E;" d="M2668.95,2746.65c-2.4,10.8-3.65,22.05-3.65,33.55v54.05c0,16.4-13.3,29.75-29.75,29.75h-941.3
					c-16.4,0-29.75-13.35-29.75-29.75v-50.35c0-6.65-0.4-13.25-1.25-19.7c-0.75-5.95-1.8-11.8-3.2-17.55h5.6
					c3.45,12.55,14.95,21.75,28.6,21.75h941.3c13.651,0,25.15-9.2,28.601-21.75H2668.95z"/>
			</g>
			<g style="opacity:0.3;">
				<path style="fill:#6B184E;" d="M3461.6,2738.65v95.6c0,16.4-13.35,29.75-29.801,29.75h-426.3c-16.5,0-29.8-13.35-29.8-29.75
					v-50.35c0-12.8-1.5-25.25-4.35-37.25h5.5c3.45,12.55,14.95,21.75,28.65,21.75h55.3c0.3,3.5,0.45,7,0.551,10.551
					c-0.05,0.85-0.05,1.65,0.05,2.35c0.55,6.65,5,8.65,11.25,8.65h119.7c13.5,0,24.95-9.15,28.4-21.55h211.05
					C3448.25,2768.4,3461.6,2755.05,3461.6,2738.65z"/>
			</g>
			<g style="opacity:0.55;">
				<path style="fill:#FFFFFF;" d="M1318.4,2864h8.45C1324.05,2864.55,1321.25,2864.55,1318.4,2864z"/>
				<path style="fill:#6B184E;" d="M1322.643,2866.907c-1.567,0-3.145-0.151-4.717-0.452l0.474-4.956h8.452l0.479,4.954
					C1325.783,2866.755,1324.215,2866.907,1322.643,2866.907z"/>
			</g>
			<g style="opacity:0.55;">
				<path style="fill:#FFFFFF;" d="M3370.45,1528.5c-6.5-1.25-13.201-1.85-20.05-1.85H615.15c-63.9,0-115.75,51.85-115.75,115.8
					v-41.65c0-63.95,51.85-115.8,115.75-115.8h2696.5C3335.85,1492.5,3356.45,1508.05,3370.45,1528.5z"/>
			</g>
			<g style="opacity:0.55;">
				<path style="fill:#FFFFFF;" d="M3461.6,1982.85v43.75H3389.8c-30.699,0-55.599-24.901-55.599-55.601v-43.75
					c0,30.7,24.9,55.601,55.599,55.601H3461.6z"/>
			</g>
			<g style="opacity:0.55;">
				<path style="fill:#FFFFFF;" d="M3461.6,2583.9v36.7H3389.8c-30.699,0-55.599-24.9-55.599-55.6v-36.65
					c0,30.701,24.9,55.551,55.599,55.551H3461.6z"/>
			</g>
			<g>
				<path style="fill:#2CBEFF;" d="M3226.9,2178.75v283.7h-323v-283.7c0-24.15,19.6-43.75,43.75-43.75h235.45
					C3207.3,2135,3226.9,2154.6,3226.9,2178.75z"/>
			</g>
			<g style="opacity:0.55;">
				<path style="fill:#FFFFFF;" d="M1318.4,2864h8.45C1324.05,2864.55,1321.25,2864.55,1318.4,2864z"/>
				<path style="fill:#6B184E;" d="M1322.643,2866.907c-1.567,0-3.145-0.151-4.717-0.452l0.474-4.956h8.452l0.479,4.954
					C1325.783,2866.755,1324.215,2866.907,1322.643,2866.907z"/>
			</g>
			<g>
				<path style="fill:#6B184E;" d="M1326.852,2882.236h-8.452c-10.073,0-18.237-8.164-18.237-18.237s8.164-18.237,18.237-18.237
					h8.452c10.073,0,18.237,8.164,18.237,18.237S1336.925,2882.236,1326.852,2882.236z"/>
			</g>
			<g>
				<path style="fill:#6B184E;" d="M1322.687,2882.654c-1.919,0-3.853-0.139-5.781-0.417h-29.907
					c-26.489,0-48.037-21.526-48.037-47.986v-50.352c0-74.873-59.16-137.935-131.87-140.571
					c-37.534-1.333-73.062,12.3-100.044,38.352c-26.992,26.06-41.86,61.047-41.86,98.521v47.2c0,14.487-6.445,28.054-17.69,37.222
					c-11.157,9.097-25.606,12.703-39.697,9.917l-374.783-63.206c-30.059-5.112-51.853-30.947-51.853-61.433V1595.801
					c0-73.909,60.105-134.038,133.987-134.038H3278.6c13.096,0,26.035,1.958,38.467,5.82c27.652,8.572,51.958,26.548,68.433,50.615
					c13.291,19.399,21.011,42.119,22.315,65.696c0.122,1.689,0.19,3.589,0.215,5.537l71.509,390.129
					c0.2,1.086,0.298,2.185,0.298,3.289v851.401c0,26.46-21.548,47.986-48.037,47.986H3005.5c-1.675,0-3.271-0.078-4.868-0.239
					c-2.949-0.334-5.449-0.815-7.808-1.484c-1.06-0.254-2.109-0.576-3.13-0.959c-4.683-1.614-9.111-3.984-13.188-7.061
					c-1.377-0.977-2.481-1.965-3.306-2.759c-0.903-0.796-1.748-1.636-2.539-2.485c-4.238-4.377-7.505-9.465-9.721-15.142
					c-0.64-1.438-1.157-2.939-1.543-4.482c-0.688-2.246-1.172-4.514-1.45-6.765c-0.186-1.096-0.302-2.212-0.356-3.367
					c-0.127-1.367-0.127-2.49-0.127-3.242v-50.352c0-2.642-0.083-5.286-0.259-7.886c-0.014-0.227-0.024-0.457-0.034-0.684
					c-0.039-1.375-0.151-2.744-0.303-4.119c-0.015-0.156-0.044-0.486-0.059-0.642c-0.059-0.728-0.098-1.458-0.215-2.185
					c-0.088-0.53-0.146-1.067-0.186-1.602c-0.073-0.469-0.146-1.028-0.176-1.36c-0.093-1.038-0.234-2.073-0.444-3.076
					c-0.093-0.444-0.166-0.889-0.225-1.335c-0.107-0.498-0.19-0.999-0.254-1.501c-0.166-1.311-0.405-2.585-0.708-3.862
					c-0.078-0.332-0.147-0.667-0.205-1.003c-0.308-1.709-0.684-3.418-1.138-5.088c-0.054-0.19-0.102-0.381-0.146-0.574
					c-0.869-3.638-1.982-7.395-3.315-11.165c-0.053-0.164-0.107-0.325-0.161-0.488c-0.371-1.145-0.776-2.29-1.216-3.396
					c-0.117-0.293-0.229-0.588-0.332-0.889c-0.356-1.05-0.786-2.095-1.25-3.11c-0.19-0.422-0.366-0.85-0.522-1.284
					c-0.371-1.016-0.825-2.031-1.299-3.049c-0.112-0.239-0.22-0.481-0.317-0.728c-0.132-0.315-0.278-0.63-0.444-0.945
					c-0.225-0.415-0.43-0.84-0.615-1.27c-0.342-0.784-0.718-1.57-1.123-2.322c-0.239-0.442-0.464-0.894-0.664-1.355
					c-0.386-0.618-0.757-1.338-1.069-1.997c-0.459-0.979-0.986-1.919-1.543-2.864c-0.137-0.232-0.269-0.469-0.396-0.706
					c-0.21-0.4-0.43-0.764-0.645-1.133c-0.942-1.67-1.723-2.937-2.5-4.165l-0.659-1.089c-1.133-1.711-2.393-3.601-3.652-5.444
					c-0.942-1.362-2.017-2.803-3.125-4.202c-0.273-0.339-0.527-0.688-0.771-1.045l-0.425-0.552
					c-1.885-2.441-4.307-5.295-7.422-8.728c-1.294-1.367-2.817-2.988-4.389-4.563c-1.27-1.221-2.578-2.48-3.882-3.696
					c-3.037-2.771-6.294-5.496-9.565-7.983c-1.348-1.033-2.632-1.975-3.921-2.876c-1.226-0.884-2.295-1.624-3.364-2.324
					c-0.132-0.083-0.259-0.168-0.386-0.256c-0.073-0.051-0.146-0.1-0.22-0.151c-0.503-0.352-1.011-0.688-1.528-1.018
					c-0.283-0.159-0.566-0.322-0.84-0.496c-1.143-0.72-2.163-1.372-3.188-1.941c-0.205-0.112-0.41-0.229-0.605-0.349
					c-1.533-0.928-3.101-1.816-4.678-2.625c-1.753-0.925-3.305-1.699-4.858-2.432c-0.308-0.144-0.61-0.298-0.908-0.459
					c-0.098-0.046-0.195-0.093-0.293-0.139c-1.431-0.696-2.896-1.355-4.361-1.934c-0.273-0.107-0.542-0.22-0.806-0.342
					c-1.24-0.557-2.475-1.028-3.711-1.504c-2.407-0.92-4.941-1.809-7.431-2.61c-1.309-0.383-3.013-0.891-4.722-1.355
					c-2.383-0.654-4.731-1.24-7.09-1.785c-1.318-0.266-3.12-0.627-4.961-0.94c-0.176-0.032-0.356-0.063-0.532-0.1
					c-0.107-0.032,0.117,0,0.318,0.022c-0.41-0.042-0.816-0.095-1.221-0.161c-1.504-0.251-2.959-0.503-4.419-0.664
					c-1.953-0.259-3.53-0.425-5.073-0.549c-0.181-0.017-0.362-0.034-0.547-0.054c-0.161-0.015-0.322-0.029-0.483-0.049
					c-0.562-0.061-1.094-0.085-1.626-0.117c-0.176-0.01-0.351-0.022-0.527-0.037c-1.396-0.122-2.788-0.2-4.185-0.242
					c-3.999-0.125-7.954-0.1-12.173,0.09c-1.021,0.042-2.007,0.125-2.954,0.205c-2.144,0.146-3.999,0.308-5.854,0.554
					c-0.205,0.027-0.406,0.051-0.611,0.071c-1.104,0.11-2.207,0.256-3.31,0.442c-3.14,0.459-5.918,0.952-8.604,1.492l-0.313,0.071
					c-0.923,0.205-1.865,0.408-2.783,0.647c-0.171,0.044-0.342,0.085-0.508,0.125c-3.433,0.789-7.065,1.826-11.108,3.174
					c-1.416,0.457-2.627,0.894-3.843,1.326c-2.31,0.84-4.707,1.802-7.027,2.808c-1.377,0.564-2.383,1.013-3.389,1.497
					c-1.289,0.598-2.236,1.025-3.179,1.533c-0.293,0.156-0.586,0.305-0.889,0.444c-1.265,0.593-2.52,1.272-3.745,1.943
					c-2.061,1.125-4.072,2.295-6.084,3.464c-6.416,3.94-12.725,8.552-18.394,13.489c-0.136,0.117-0.273,0.234-0.415,0.349
					c-0.747,0.613-1.46,1.265-2.173,1.948c-2.446,2.222-4.067,3.799-5.435,5.271c-0.146,0.159-0.298,0.315-0.449,0.466
					c-1.977,1.98-3.716,3.857-5.317,5.735c-1.631,1.838-2.949,3.445-4.185,5.046c-0.049,0.071-0.103,0.139-0.161,0.208
					c-0.107,0.146-0.22,0.293-0.337,0.439c-1.089,1.377-2.134,2.751-3.13,4.172c-0.805,1.13-1.543,2.166-2.226,3.198l-0.821,1.196
					c-0.146,0.229-0.298,0.457-0.454,0.679c-0.596,0.862-1.157,1.758-1.689,2.686c-0.219,0.391-0.459,0.769-0.708,1.14
					c-0.122,0.205-0.254,0.408-0.386,0.608c-0.239,0.361-0.444,0.754-0.664,1.143c-0.063,0.112-0.19,0.33-0.254,0.439
					c-1.499,2.515-2.954,5.217-4.453,8.264c-0.815,1.631-1.519,3.118-2.183,4.651c-0.566,1.267-1.055,2.314-1.45,3.406
					c-0.205,0.566-0.439,1.123-0.703,1.665c-0.098,0.276-0.2,0.549-0.313,0.82c-0.684,1.655-1.27,3.315-1.865,5.015
					c-0.498,1.404-0.947,2.793-1.392,4.18c-1.084,3.484-1.953,6.692-2.607,9.651l-0.767,3.401
					c-1.138,5.444-1.968,11.301-2.402,17.124c-0.127,1.519-0.21,2.844-0.249,4.202c-0.005,0.225-0.01,0.464-0.02,0.645
					c-0.088,1.917-0.132,3.833-0.132,5.75v54.05c0,26.46-21.528,47.986-47.988,47.986H1694.25c-26.46,0-47.988-21.526-47.988-47.986
					v-50.352c0-5.981-0.371-11.807-1.094-17.319c-8.345-67.937-64.561-120.857-130.776-123.252
					c-71.821-2.6-133.94,51.394-141.299,122.742c-0.43,4.509-0.654,9.312-0.654,14.131v47.2c0,25.271-19.341,50.242-42.232,54.526
					C1327.755,2882.41,1325.231,2882.654,1322.687,2882.654z M1102.087,2606.763c2.1,0,4.194,0.037,6.304,0.11
					c92.119,3.342,167.046,82.756,167.046,177.026v50.352c0,6.348,5.186,11.511,11.563,11.511h31.401
					c1.162,0,2.324,0.11,3.467,0.332c0.532,0.103,0.967,0.112,1.46,0.01c5.498-1.028,12.637-10.442,12.637-18.704v-47.2
					c0-5.964,0.278-11.926,0.825-17.722c9.336-90.508,87.934-158.684,178.901-155.605c83.965,3.037,155.176,69.717,165.659,155.103
					c0.913,6.926,1.387,14.355,1.387,21.924v50.352c0,6.348,5.166,11.511,11.514,11.511h941.299c6.348,0,11.514-5.164,11.514-11.511
					v-54.05c0-2.366,0.049-4.731,0.156-7.1c0-0.059,0-0.115,0-0.159c0.058-2.092,0.18-4.121,0.356-6.213
					c0.537-7.256,1.597-14.722,3.125-22.021l0.811-3.582c0.854-3.884,1.983-8.069,3.428-12.7c0.601-1.868,1.157-3.579,1.763-5.293
					c0.742-2.119,1.494-4.202,2.334-6.282c0.298-0.837,0.639-1.672,1.025-2.507c0.61-1.592,1.299-3.147,1.992-4.697
					c0.845-1.958,1.841-4.07,2.9-6.179c1.86-3.792,3.774-7.336,5.771-10.696c0.41-0.723,0.903-1.58,1.445-2.437
					c0.225-0.388,0.483-0.823,0.796-1.284c0.845-1.428,1.729-2.813,2.651-4.158c0.435-0.671,0.869-1.299,1.314-1.926
					c0.635-0.969,1.596-2.336,2.568-3.701c1.226-1.741,2.559-3.513,3.95-5.288c0.283-0.391,0.576-0.767,0.879-1.13
					c1.665-2.148,3.438-4.294,5.259-6.335c1.904-2.241,4.209-4.734,6.782-7.324c2.031-2.168,4.292-4.368,7.08-6.897
					c0.996-0.957,2.295-2.129,3.662-3.259c7.139-6.199,15.029-11.96,23.452-17.126c2.651-1.548,4.947-2.878,7.285-4.158
					c1.733-0.947,3.521-1.895,5.313-2.751c1.45-0.759,2.9-1.44,4.351-2.109c1.514-0.732,3.213-1.484,4.903-2.175
					c2.612-1.138,5.713-2.378,8.809-3.503c1.679-0.601,3.271-1.165,4.863-1.675c4.873-1.628,9.536-2.959,14.053-4.004
					c1.265-0.322,2.559-0.613,3.828-0.894l0.63-0.139c3.682-0.74,7.104-1.345,10.527-1.843c1.45-0.247,3.223-0.483,5.015-0.669
					c2.544-0.332,5.093-0.559,7.637-0.732c1.167-0.098,2.681-0.215,4.131-0.273c5.014-0.227,10.029-0.269,14.839-0.105
					c1.934,0.054,3.945,0.166,5.957,0.334c0.845,0.049,1.694,0.107,2.568,0.19c0.396,0.024,0.865,0.063,1.382,0.132
					c1.953,0.168,3.94,0.383,5.879,0.645c1.601,0.173,3.574,0.488,5.566,0.82c0.732,0.095,1.475,0.225,2.207,0.366
					c2.173,0.376,4.297,0.798,6.367,1.223c3.276,0.752,6.123,1.465,8.911,2.231c1.919,0.518,3.916,1.108,5.908,1.699
					c3.506,1.125,6.675,2.234,9.727,3.403c1.768,0.681,3.491,1.357,5.225,2.124c2.09,0.837,4.18,1.768,6.221,2.754
					c0.566,0.256,1.108,0.52,1.665,0.82c1.865,0.889,3.73,1.826,5.591,2.808c2.041,1.045,4.263,2.292,6.44,3.604
					c1.27,0.713,2.539,1.492,3.804,2.283c0.249,0.139,0.493,0.281,0.732,0.43c1.284,0.793,2.51,1.592,3.736,2.441
					c0.019,0.015,0.044,0.029,0.063,0.044c1.465,0.962,2.92,1.97,4.321,2.981c1.509,1.055,3.223,2.31,4.932,3.623
					c4.077,3.098,8.188,6.533,12.153,10.156c1.592,1.477,3.052,2.888,4.517,4.297c0.078,0.078,0.352,0.344,0.43,0.422
					c1.826,1.824,3.604,3.704,5.376,5.583c4.018,4.426,7.036,7.991,9.721,11.475c0.425,0.547,0.776,1.016,1.089,1.453
					c1.445,1.843,2.847,3.735,4.199,5.679c1.421,2.08,2.759,4.087,4.097,6.099l0.942,1.528c1.157,1.836,2.271,3.665,3.335,5.557
					c0.283,0.479,0.654,1.118,1.035,1.824c0.913,1.555,1.768,3.12,2.549,4.719c0.547,0.947,1.055,1.931,1.538,2.979
					c0.659,1.252,1.279,2.542,1.861,3.833c0.532,1.038,1.01,2.073,1.45,3.108c0.761,1.643,1.469,3.293,2.094,4.937
					c0.771,1.743,1.489,3.53,2.114,5.322c0.659,1.675,1.275,3.396,1.831,5.12c1.685,4.8,3.115,9.617,4.248,14.329
					c0.654,2.424,1.221,4.949,1.689,7.515c0.454,1.978,0.82,3.916,1.104,5.872c0.195,0.85,0.337,1.707,0.435,2.568
					c0.318,1.714,0.566,3.474,0.742,5.256c0.098,0.613,0.205,1.372,0.273,2.246c0.171,1.296,0.288,2.593,0.396,3.889
					c0.21,1.919,0.381,4.109,0.454,6.313c0.21,3.264,0.317,6.624,0.317,9.993v50.352c-0.005-0.063-0.039-0.359-0.088-0.696
					c0.088,0.598,0.146,1.201,0.171,1.804c0.059,0.356,0.103,0.715,0.137,1.074c0.005,0.068,0.034,0.261,0.151,0.625
					c0.107,0.315,0.2,0.635,0.288,0.955c0.093,0.222,0.181,0.444,0.264,0.671c0.449,1.221,1.142,2.31,2.051,3.235
					c0.146,0.154,0.293,0.308,0.439,0.464c0.352,0.293,0.591,0.518,0.879,0.803c0.044,0.037,0.093,0.071,0.137,0.107
					c1.074,0.825,2.183,1.433,3.301,1.804c0.073,0.024,0.142,0.049,0.215,0.073c0.273,0.068,0.542,0.144,0.811,0.225
					c0.449,0.137,1.035,0.244,1.831,0.334c0.146,0.012,0.552,0.032,0.977,0.032h426.299c6.377,0,11.563-5.164,11.563-11.511
					v-849.744l-71.499-390.068c-0.2-1.084-0.298-2.185-0.298-3.289c0-1.663-0.039-3.325-0.156-4.951
					c-0.952-17.205-6.479-33.491-16.001-47.39c-11.855-17.317-29.312-30.237-49.155-36.387c-8.931-2.778-18.233-4.185-27.652-4.185
					H615.151c-53.767,0-97.512,43.767-97.512,97.563V2749.9c0,12.642,9.031,23.352,21.47,25.469l375.024,63.247
					c0.215,0.034,0.425,0.076,0.64,0.12c4.658,0.952,8.076-1.082,9.673-2.383c1.592-1.299,4.268-4.189,4.268-8.953v-47.2
					c0-47.458,18.818-91.768,52.998-124.763C1014.362,2623.914,1056.901,2606.763,1102.087,2606.763z M2997.379,2842.583
					c0.078,0.054,0.156,0.107,0.235,0.161C2997.536,2842.69,2997.458,2842.637,2997.379,2842.583z M2994.04,2836.189
					c0,0.005,0,0.007,0,0.012C2994.04,2836.196,2994.04,2836.194,2994.04,2836.189z M2993.791,2834.136
					c0,0.012,0.005,0.024,0.005,0.034C2993.795,2834.16,2993.791,2834.148,2993.791,2834.136z M2993.82,2833.367
					c0,0.012,0.005,0.022,0.005,0.034C2993.825,2833.389,2993.82,2833.379,2993.82,2833.367z M2956.364,2765.642
					c0,0.002,0,0.005,0,0.007C2956.364,2765.647,2956.364,2765.645,2956.364,2765.642z M2956.364,2765.596c0,0.01,0,0.022,0,0.032
					C2956.364,2765.618,2956.364,2765.605,2956.364,2765.596z M2956.364,2765.549c0,0.012,0,0.027,0,0.039
					C2956.364,2765.576,2956.364,2765.562,2956.364,2765.549z M2956.364,2765.5c0,0.015,0,0.027,0,0.042
					C2956.364,2765.527,2956.364,2765.515,2956.364,2765.5z M2693.405,2729.067c-0.005,0.01-0.01,0.02-0.01,0.027
					C2693.395,2729.087,2693.4,2729.077,2693.405,2729.067z M2701.188,2711.902c-0.015,0.015-0.029,0.029-0.044,0.044
					C2701.159,2711.931,2701.173,2711.917,2701.188,2711.902z M2701.217,2711.873c0,0.002-0.005,0.005-0.005,0.007
					C2701.212,2711.877,2701.217,2711.875,2701.217,2711.873z M2711.594,2697.043c-0.015,0.012-0.025,0.027-0.039,0.039
					C2711.569,2697.07,2711.579,2697.056,2711.594,2697.043z M2711.632,2697.002c-0.005,0.007-0.01,0.012-0.02,0.02
					C2711.623,2697.014,2711.627,2697.009,2711.632,2697.002z M2711.671,2696.963c-0.005,0.005-0.01,0.01-0.015,0.012
					C2711.662,2696.973,2711.667,2696.968,2711.671,2696.963z M2711.701,2696.931l-0.005,0.002L2711.701,2696.931z
					 M2927.658,2696.558c0.01,0.012,0.02,0.022,0.024,0.034L2927.658,2696.558z M2927.135,2695.798
					c0.005,0.005,0.005,0.01,0.01,0.017C2927.14,2695.808,2927.14,2695.803,2927.135,2695.798z M2927.062,2695.681
					c0.024,0.037,0.044,0.071,0.063,0.105C2927.106,2695.752,2927.086,2695.718,2927.062,2695.681z M2713.429,2694.739
					c-0.01,0.012-0.019,0.024-0.024,0.039C2713.41,2694.763,2713.419,2694.751,2713.429,2694.739z M2877.76,2656.091
					c0.015,0.005,0.029,0.01,0.044,0.017C2877.79,2656.101,2877.775,2656.096,2877.76,2656.091z"/>
			</g>
			<g>
				<g>
					<path style="fill:#7C6B6A;" d="M2969.825,2788.505c10.386,82.535-48.124,157.89-130.658,168.276
						c-82.572,10.39-157.89-48.124-168.276-130.658c-2.482-19.723-1.021-39.015,3.74-57.094l-0.004-0.037
						c15.178-57.718,64.074-103.237,126.923-111.145c72.51-9.125,139.485,34.885,161.707,101.71
						C2966.345,2768.797,2968.563,2778.48,2969.825,2788.505z"/>
				</g>
				<g>
					<path style="fill:#6B184E;" d="M2820.226,2976.204c-83.809,0-156.714-62.542-167.447-147.81
						c-11.626-92.395,54.087-177.024,146.48-188.65c44.751-5.635,89.028,6.501,124.658,34.167
						c35.635,27.666,58.359,67.554,63.989,112.31c11.626,92.395-54.087,177.024-146.479,188.65
						C2834.308,2975.767,2827.228,2976.204,2820.226,2976.204z M2820.612,2674.878c-5.571,0-11.181,0.349-16.802,1.057
						c-72.437,9.116-123.95,75.466-114.839,147.903c9.116,72.439,75.43,123.958,147.906,114.841
						c72.436-9.116,123.95-75.466,114.839-147.903c-4.414-35.093-22.231-66.362-50.166-88.054
						C2878.087,2684.507,2849.845,2674.878,2820.612,2674.878z"/>
				</g>
				<g>
					
						<ellipse transform="matrix(0.0689 -0.9976 0.9976 0.0689 -174.6036 5427.5356)" style="fill:#D3DAE2;" cx="2820.344" cy="2807.307" rx="78.544" ry="78.544"/>
					<path style="fill:#6B184E;" d="M2820.29,2888.357c-40.22,0-75.21-30.012-80.356-70.93c-2.7-21.479,3.12-42.725,16.396-59.824
						c13.276-17.097,32.417-28.003,53.897-30.706c21.45-2.708,42.719,3.118,59.819,16.396c17.1,13.276,28.008,32.417,30.708,53.894
						c5.576,44.338-25.952,84.949-70.288,90.53C2827.048,2888.147,2823.649,2888.357,2820.29,2888.357z M2820.5,2731.25
						c-3.203,0-6.421,0.203-9.648,0.608c-20.156,2.537-38.115,12.769-50.572,28.811c-12.456,16.045-17.92,35.979-15.386,56.133
						c5.229,41.602,43.335,71.177,84.946,65.955c41.602-5.237,71.187-43.342,65.952-84.944
						c-2.534-20.154-12.769-38.113-28.813-50.569C2853.507,2736.782,2837.287,2731.25,2820.5,2731.25z"/>
				</g>
				<g style="opacity:0.3;">
					<path style="fill:#6B184E;" d="M2898.3,2797.862c-15.99-23.837-44.577-38.003-75.03-34.143
						c-42.966,5.428-73.419,44.535-68.159,87.415c-6.617-9.882-11.113-21.419-12.682-34.016
						c-5.429-43.05,25.066-82.325,68.117-87.754c43.05-5.386,82.326,25.109,87.712,68.117
						C2898.258,2797.608,2898.3,2797.735,2898.3,2797.862z"/>
				</g>
				<g>
					
						<ellipse transform="matrix(0.6133 -0.7899 0.7899 0.6133 -1126.7175 3313.2864)" style="fill:#6B184E;" cx="2820.344" cy="2807.307" rx="21.854" ry="21.854"/>
				</g>
				<g>
					
						<ellipse transform="matrix(0.6133 -0.7899 0.7899 0.6133 -1092.1906 3296.3823)" style="fill:#6B184E;" cx="2820.344" cy="2763.594" rx="9.373" ry="9.373"/>
				</g>
				<g>
					
						<ellipse transform="matrix(0.6133 -0.7899 0.7899 0.6133 -1161.2438 3330.1904)" style="fill:#6B184E;" cx="2820.344" cy="2851.019" rx="9.373" ry="9.373"/>
				</g>
				<g>
					<path style="fill:#6B184E;" d="M2786.125,2776.812c4.771,2.008,7.01,7.504,5.002,12.275c-2.008,4.771-7.504,7.01-12.275,5.002
						c-4.771-2.008-7.01-7.504-5.002-12.275C2775.858,2777.043,2781.354,2774.803,2786.125,2776.812z"/>
				</g>
				<g>
					<path style="fill:#6B184E;" d="M2861.837,2820.524c4.771,2.008,7.01,7.504,5.002,12.275c-2.008,4.771-7.504,7.011-12.275,5.002
						c-4.771-2.008-7.01-7.504-5.002-12.275C2851.57,2820.755,2857.066,2818.516,2861.837,2820.524z"/>
				</g>
				<g>
					<path style="fill:#6B184E;" d="M2776.825,2821.694c4.125-3.128,10.004-2.319,13.132,1.805
						c3.127,4.125,2.319,10.004-1.805,13.131c-4.125,3.128-10.004,2.319-13.131-1.805
						C2771.892,2830.701,2772.701,2824.822,2776.825,2821.694z"/>
				</g>
				<g>
					<path style="fill:#6B184E;" d="M2852.538,2777.982c4.125-3.128,10.004-2.319,13.131,1.805
						c3.127,4.125,2.319,10.004-1.805,13.131c-4.125,3.127-10.004,2.319-13.131-1.805
						C2847.604,2786.989,2848.413,2781.109,2852.538,2777.982z"/>
				</g>
				<g style="opacity:0.55;">
					<path style="fill:#FFFFFF;" d="M2830.167,2910.342c-43.063,5.401-82.341-25.095-87.742-68.121
						c-0.955-7.679-0.808-15.212,0.404-22.45c6.614,41.63,45.157,70.767,87.338,65.476c35.383-4.482,62.316-31.819,67.717-65.329
						c0.147,0.882,0.294,1.8,0.404,2.682C2903.69,2865.662,2873.194,2904.94,2830.167,2910.342z"/>
				</g>
				<g>
					<path style="fill:#6B184E;" d="M2820.285,2895.857c-43.946,0-82.168-32.788-87.793-77.495
						c-2.954-23.467,3.408-46.677,17.915-65.359c14.507-18.682,35.415-30.596,58.882-33.547
						c23.476-2.966,46.675,3.411,65.356,17.915s30.596,35.415,33.55,58.882c6.094,48.44-28.354,92.808-76.792,98.906
						C2827.667,2895.627,2823.957,2895.857,2820.285,2895.857z M2820.485,2738.752c-2.886,0-5.791,0.181-8.696,0.547
						c-18.169,2.285-34.356,11.509-45.586,25.969c-11.226,14.463-16.152,32.432-13.867,50.598
						c4.722,37.495,39.087,64.185,76.567,59.448c37.5-4.719,64.165-39.067,59.448-76.567c-2.285-18.164-11.509-34.353-25.972-45.581
						C2850.236,2743.738,2835.617,2738.752,2820.485,2738.752z"/>
				</g>
				<g style="opacity:0.3;">
					<path style="fill:#6B184E;" d="M2963.256,2759.557c-26.553-22.33-54.913-12.902-72.13,11.262
						c-8.519-67.698-155.762-49.169-147.243,18.529c-14.318-24.716-41.914-33.203-69.253-20.319l-0.004-0.037
						c15.178-57.718,64.074-103.237,126.923-111.145C2874.059,2648.722,2941.034,2692.732,2963.256,2759.557z"/>
				</g>
			</g>
			<g>
				<g>
					<path style="fill:#7C6B6A;" d="M1655.791,2788.505c10.386,82.535-48.124,157.89-130.658,168.276
						c-82.571,10.39-157.89-48.124-168.276-130.658c-2.482-19.723-1.021-39.015,3.74-57.094l-0.005-0.037
						c15.179-57.718,64.074-103.237,126.923-111.145c72.51-9.125,139.485,34.885,161.707,101.71
						C1652.311,2768.797,1654.529,2778.48,1655.791,2788.505z"/>
				</g>
				<g>
					<path style="fill:#6B184E;" d="M1506.193,2976.204c-83.809,0-156.714-62.542-167.446-147.81
						c-11.626-92.395,54.087-177.024,146.479-188.65c44.751-5.635,89.028,6.501,124.658,34.167
						c35.635,27.666,58.359,67.554,63.989,112.31c11.626,92.395-54.087,177.024-146.48,188.65
						C1520.275,2975.767,1513.195,2976.204,1506.193,2976.204z M1506.579,2674.878c-5.571,0-11.182,0.349-16.802,1.057
						c-72.436,9.116-123.95,75.466-114.839,147.903c9.116,72.439,75.43,123.958,147.905,114.841
						c72.437-9.116,123.95-75.466,114.839-147.903c-4.414-35.093-22.231-66.362-50.166-88.054
						C1564.054,2684.507,1535.812,2674.878,1506.579,2674.878z"/>
				</g>
				<g>
					
						<ellipse transform="matrix(0.0689 -0.9976 0.9976 0.0689 -1398.1051 4116.6245)" style="fill:#D3DAE2;" cx="1506.311" cy="2807.307" rx="78.544" ry="78.544"/>
					<path style="fill:#6B184E;" d="M1506.252,2888.357c-40.22,0-75.205-30.012-80.352-70.93c-2.7-21.479,3.12-42.725,16.396-59.824
						c13.276-17.097,32.417-28.003,53.896-30.706c21.445-2.708,42.72,3.118,59.819,16.396c17.1,13.276,28.008,32.417,30.708,53.894
						c5.576,44.338-25.957,84.949-70.293,90.53C1513.009,2888.147,1509.611,2888.357,1506.252,2888.357z M1506.466,2731.25
						c-3.203,0-6.421,0.203-9.648,0.608c-20.156,2.537-38.115,12.769-50.571,28.811c-12.456,16.045-17.92,35.979-15.386,56.133
						c5.234,41.604,43.364,71.172,84.941,65.955c41.602-5.237,71.191-43.342,65.957-84.944
						c-2.534-20.154-12.769-38.113-28.813-50.569C1539.474,2736.782,1523.254,2731.25,1506.466,2731.25z"/>
				</g>
				<g style="opacity:0.3;">
					<path style="fill:#6B184E;" d="M1584.266,2797.862c-15.99-23.837-44.577-38.003-75.03-34.143
						c-42.966,5.428-73.419,44.535-68.159,87.415c-6.617-9.882-11.112-21.419-12.682-34.016
						c-5.429-43.05,25.067-82.325,68.117-87.754c43.05-5.386,82.326,25.109,87.712,68.117
						C1584.224,2797.608,1584.266,2797.735,1584.266,2797.862z"/>
				</g>
				<g>
					
						<ellipse transform="matrix(0.6133 -0.7899 0.7899 0.6133 -1634.868 2275.386)" style="fill:#6B184E;" cx="1506.311" cy="2807.307" rx="21.854" ry="21.854"/>
				</g>
				<g>
					<path style="fill:#6B184E;" d="M1515.61,2762.424c0.646,5.136-2.993,9.823-8.129,10.469c-5.136,0.646-9.823-2.993-10.469-8.129
						c-0.646-5.136,2.993-9.823,8.129-10.469C1510.276,2753.648,1514.964,2757.288,1515.61,2762.424z"/>
				</g>
				<g>
					<path style="fill:#6B184E;" d="M1515.61,2849.848c0.646,5.136-2.993,9.823-8.129,10.47c-5.136,0.646-9.823-2.993-10.469-8.129
						c-0.646-5.136,2.993-9.823,8.129-10.469C1510.276,2841.073,1514.964,2844.713,1515.61,2849.848z"/>
				</g>
				<g>
					<path style="fill:#6B184E;" d="M1472.091,2776.812c4.771,2.008,7.01,7.504,5.002,12.275s-7.504,7.01-12.275,5.002
						c-4.771-2.008-7.01-7.504-5.002-12.275C1461.824,2777.043,1467.32,2774.803,1472.091,2776.812z"/>
				</g>
				<g>
					<path style="fill:#6B184E;" d="M1547.803,2820.524c4.771,2.008,7.01,7.504,5.002,12.275c-2.008,4.771-7.504,7.011-12.275,5.002
						c-4.771-2.008-7.01-7.504-5.002-12.275C1537.536,2820.755,1543.032,2818.516,1547.803,2820.524z"/>
				</g>
				<g>
					<path style="fill:#6B184E;" d="M1462.791,2821.694c4.125-3.128,10.004-2.319,13.131,1.805
						c3.128,4.125,2.319,10.004-1.805,13.131s-10.004,2.319-13.131-1.805C1457.859,2830.701,1458.667,2824.822,1462.791,2821.694z"
						/>
				</g>
				<g>
					<path style="fill:#6B184E;" d="M1538.504,2777.982c4.125-3.128,10.004-2.319,13.131,1.805
						c3.128,4.125,2.319,10.004-1.805,13.131c-4.125,3.127-10.004,2.319-13.131-1.805
						C1533.571,2786.989,1534.379,2781.109,1538.504,2777.982z"/>
				</g>
				<g style="opacity:0.55;">
					<path style="fill:#FFFFFF;" d="M1516.134,2910.342c-43.063,5.401-82.341-25.095-87.742-68.121
						c-0.955-7.679-0.808-15.212,0.404-22.45c6.614,41.63,45.157,70.767,87.338,65.476c35.383-4.482,62.316-31.819,67.717-65.329
						c0.147,0.882,0.294,1.8,0.404,2.682C1589.656,2865.662,1559.16,2904.94,1516.134,2910.342z"/>
				</g>
				<g>
					<path style="fill:#6B184E;" d="M1506.13,2895.864c-19.551,0-38.433-6.438-54.121-18.621
						c-18.682-14.504-30.596-35.415-33.55-58.882s3.408-46.677,17.915-65.359s35.415-30.596,58.882-33.547
						c23.481-2.966,46.675,3.411,65.356,17.915c18.682,14.504,30.596,35.415,33.55,58.882c6.094,48.44-28.359,92.81-76.797,98.906
						C1513.61,2895.63,1509.855,2895.864,1506.13,2895.864z M1506.452,2738.752c-2.886,0-5.791,0.181-8.696,0.547
						c-18.169,2.285-34.355,11.509-45.586,25.969c-11.226,14.463-16.152,32.432-13.867,50.598
						c4.717,37.495,39.087,64.185,76.563,59.448c37.5-4.719,64.17-39.067,59.453-76.567c-2.285-18.164-11.509-34.353-25.972-45.581
						C1536.203,2743.738,1521.584,2738.752,1506.452,2738.752z"/>
				</g>
				<g style="opacity:0.3;">
					<path style="fill:#6B184E;" d="M1649.222,2759.557c-26.553-22.33-54.913-12.902-72.13,11.262
						c-8.519-67.698-155.762-49.169-147.243,18.529c-14.318-24.716-41.914-33.203-69.253-20.319l-0.005-0.037
						c15.179-57.718,64.074-103.237,126.923-111.145C1560.025,2648.722,1627,2692.732,1649.222,2759.557z"/>
				</g>
			</g>
			<g>
				<path style="fill:#2CBEFF;" d="M3389.782,2583.918h71.797v-448.933h-89.167c-21.105,0-38.215,17.109-38.215,38.214v355.134
					C3334.197,2559.032,3359.083,2583.918,3389.782,2583.918z"/>
			</g>
			<g>
				<path style="fill:#2CBEFF;" d="M3389.8,1591.15l71.801,391.7H3389.8c-30.699,0-55.599-24.901-55.599-55.601l-47.4-304.15
					c0-21.1,17.1-38.2,38.199-38.2h64.6C3389.75,1586.95,3389.8,1589.05,3389.8,1591.15z"/>
			</g>
			<g>
				<path style="fill:#2CBEFF;" d="M2798.5,2173v251.5c0,20.95-17,37.95-38,37.95H1310.2c-41.15,0-80.551-16.45-109.5-45.75
					l-125.85-127.5c-10.55-10.7-16.45-25.099-16.45-40.149v-67.8c0-25.55,20.7-46.25,46.25-46.25H2760.5
					C2781.5,2135,2798.5,2152,2798.5,2173z"/>
			</g>
			<g>
				<path style="fill:#2CBEFF;" d="M3200,1870.2v39.399c0,21-17,38-38,38H793.35c-30.9,0-55.9-25-55.9-55.9V1676
					c0-30.85,25-55.85,55.9-55.85h2156.6C3088.05,1620.15,3200,1732.1,3200,1870.2z"/>
			</g>
			<g style="opacity:0.45;">
				<polygon style="fill:#FFFFFF;" points="1254.45,1947.6 1072.3,1947.6 883.25,1620.15 1065.4,1620.15 				"/>
			</g>
			<g style="opacity:0.45;">
				<polygon style="fill:#FFFFFF;" points="1551.7,2462.45 1369.55,2462.45 1180.5,2135 1362.65,2135 				"/>
			</g>
			<g style="opacity:0.45;">
				<polygon style="fill:#FFFFFF;" points="1273.2,1620.15 1462.25,1947.6 1363.6,1947.6 1174.55,1620.15 				"/>
			</g>
			<g style="opacity:0.45;">
				<polygon style="fill:#FFFFFF;" points="1759.5,2462.45 1660.8,2462.45 1471.75,2135 1570.45,2135 				"/>
			</g>
			<g style="opacity:0.45;">
				<polygon style="fill:#FFFFFF;" points="1886.35,1947.6 1704.2,1947.6 1515.15,1620.15 1697.25,1620.15 				"/>
			</g>
			<g style="opacity:0.45;">
				<polygon style="fill:#FFFFFF;" points="2183.6,2462.45 2001.45,2462.45 1812.4,2135 1994.5,2135 				"/>
			</g>
			<g style="opacity:0.45;">
				<polygon style="fill:#FFFFFF;" points="1905.05,1620.15 2094.1,1947.6 1995.45,1947.6 1806.4,1620.15 				"/>
			</g>
			<g style="opacity:0.45;">
				<path style="fill:#FFFFFF;" d="M3147,2462.45h-132.25l-110.85-192v-91.7c0-24.15,19.6-43.75,43.75-43.75h10.3L3147,2462.45z"/>
			</g>
			<g style="opacity:0.45;">
				<polygon style="fill:#FFFFFF;" points="3226.9,2373.6 3226.9,2462.45 3195.3,2462.45 3006.25,2135 3089.15,2135 				"/>
			</g>
			<g style="opacity:0.45;">
				<polygon style="fill:#FFFFFF;" points="2391.4,2462.45 2292.7,2462.45 2103.65,2135 2202.3,2135 				"/>
			</g>
			<g style="opacity:0.45;">
				<polygon style="fill:#FFFFFF;" points="2639.35,1947.6 2457.2,1947.6 2268.15,1620.15 2450.3,1620.15 				"/>
			</g>
			<g style="opacity:0.45;">
				<path style="fill:#FFFFFF;" d="M2798.5,2223.3v201.2c0,20.95-17,37.95-38,37.95h-6.05L2565.4,2135h182.1L2798.5,2223.3z"/>
			</g>
			<g style="opacity:0.45;">
				<polygon style="fill:#FFFFFF;" points="2847.15,1947.6 2748.45,1947.6 2559.4,1620.15 2658.1,1620.15 				"/>
			</g>
			<g style="opacity:0.3;">
				<path style="fill:#6B184E;" d="M1100.9,2223.75v67.8c0,15.05,5.9,29.449,16.45,40.149l90.9,92.1c-2.6-2.25-5.1-4.65-7.55-7.1
					l-125.85-127.5c-10.55-10.7-16.45-25.099-16.45-40.149v-67.8c0-25.55,20.7-46.25,46.25-46.25H2760.5c21,0,38,17,38,38v4.5
					H1147.15C1121.6,2177.5,1100.9,2198.2,1100.9,2223.75z"/>
			</g>
			<g style="opacity:0.3;">
				<path style="fill:#6B184E;" d="M3146.65,1715.85c-42.45-33.3-96-53.199-154.2-53.199H835.85c-30.9,0-55.9,25-55.9,55.85v215.7
					c0,4.15,0.45,8.2,1.35,12.1c-25.1-5.5-43.85-27.85-43.85-54.6V1676c0-30.85,25-55.85,55.9-55.85h2156.6
					C3029.8,1620.15,3100.9,1657.55,3146.65,1715.85z"/>
			</g>
			<g style="opacity:0.55;">
				<path style="fill:#FFFFFF;" d="M2798.5,2424.5v40c0,20.95-17,37.95-38,37.95H1310.2c-41.15,0-80.551-16.45-109.5-45.75
					l-125.85-127.5c-10.55-10.7-16.45-25.099-16.45-40.149v-40c0,15.05,5.9,29.449,16.45,40.149l125.85,127.5
					c28.95,29.3,68.35,45.75,109.5,45.75h1450.3C2781.5,2462.45,2798.5,2445.45,2798.5,2424.5z"/>
			</g>
			<g style="opacity:0.55;">
				<path style="fill:#FFFFFF;" d="M3200,1909.75v39.85c0,21-17,38-38,38H793.35c-30.9,0-55.9-25-55.9-55.9v-40
					c0,30.9,25,55.9,55.9,55.9H3162C3182.95,1947.6,3199.9,1930.7,3200,1909.75z"/>
			</g>
			<g style="opacity:0.55;">
				<path style="fill:#FFFFFF;" d="M3258.675,2178.75v581.65c0,16.3-13.301,29.55-29.551,29.55h-29.75
					c16.25,0,29.55-13.25,29.55-29.55v-581.65c0-24.15-19.6-43.75-43.8-43.75h29.75C3239.074,2135,3258.675,2154.6,3258.675,2178.75
					z"/>
			</g>
			<g>
				<path style="fill:#6B184E;" d="M3461.579,2601.289h-71.797c-40.229,0-72.954-32.729-72.954-72.957v-355.132
					c0-30.649,24.937-55.586,55.586-55.586h89.165c9.595,0,17.368,7.778,17.368,17.371v448.933
					C3478.947,2593.511,3471.173,2601.289,3461.579,2601.289z M3372.414,2152.356c-11.494,0-20.85,9.351-20.85,20.845v355.132
					c0,21.072,17.143,38.215,38.218,38.215h54.429v-414.192H3372.414z"/>
			</g>
			<g>
				<path style="fill:#6B184E;" d="M3461.598,2000.22h-71.797c-39.756,0-72.193-31.958-72.959-71.536l-47.207-302.908
					c-0.137-0.886-0.205-1.78-0.205-2.676c0-30.642,24.927-55.571,55.571-55.571h64.6c9.111,0,16.675,7.043,17.324,16.133
					c0.142,1.924,0.21,3.887,0.235,5.854l71.523,390.2c0.928,5.071-0.439,10.293-3.74,14.253
					C3471.642,1997.93,3466.754,2000.22,3461.598,2000.22z M3304.201,1621.956l47.163,302.617c0.136,0.886,0.205,1.78,0.205,2.676
					c0,21.079,17.154,38.23,38.233,38.23h50.952l-66.572-363.208h-49.179C3313.898,1602.271,3304.796,1610.999,3304.201,1621.956z
					 M3407.169,1591.15h0.054H3407.169z"/>
			</g>
			<g>
				<path style="fill:#6B184E;" d="M3192.35,2807.319h-119.702c-19.316,0-27.407-12.898-28.521-24.138
					c-0.161-1.37-0.215-2.813-0.161-4.377c-2.466-85.007-54.116-162.515-131.719-197.573c-18.662-8.44-30.718-27.175-30.718-47.732
					V2178.75c0-33.701,27.417-61.121,61.118-61.121h235.454c33.73,0,61.167,27.419,61.167,61.121v581.65
					C3239.269,2786.272,3218.224,2807.319,3192.35,2807.319z M3078.488,2772.578h113.862c6.719,0,12.183-5.464,12.183-12.178
					v-581.65c0-14.546-11.855-26.379-26.431-26.379h-235.454c-14.546,0-26.382,11.833-26.382,26.379v354.749
					c0,6.938,4.043,13.247,10.293,16.074C3014.596,2589.346,3073.717,2676.436,3078.488,2772.578z"/>
			</g>
			<g>
				<path style="fill:#6B184E;" d="M2760.504,2479.846H1310.216c-45.493,0-89.907-18.569-121.86-50.945l-125.854-127.517
					c-13.848-14.026-21.47-32.607-21.47-52.322v-67.813c0-35.081,28.54-63.621,63.618-63.621h1655.854
					c30.522,0,55.352,24.832,55.352,55.352v251.514C2815.856,2455.015,2791.027,2479.846,2760.504,2479.846z M1104.65,2152.371
					c-15.923,0-28.882,12.954-28.882,28.879v67.813c0,10.52,4.072,20.432,11.46,27.917l125.854,127.517
					c25.469,25.808,60.874,40.608,97.134,40.608h1450.288c11.367,0,20.615-9.246,20.615-20.61v-251.514
					c0-11.365-9.248-20.61-20.615-20.61H1104.65z"/>
			</g>
			<g>
				<path style="fill:#6B184E;" d="M3162.018,1964.973H793.334c-40.393,0-73.257-32.864-73.257-73.257v-215.703
					c0-40.393,32.864-73.257,73.257-73.257h2156.614c147.456,0,267.422,119.966,267.422,267.424v39.441
					C3217.37,1940.142,3192.541,1964.973,3162.018,1964.973z M793.334,1637.498c-21.238,0-38.516,17.278-38.516,38.516v215.703
					c0,21.238,17.278,38.516,38.516,38.516h2368.684c11.367,0,20.615-9.246,20.615-20.61v-39.441
					c0-128.301-104.385-232.683-232.686-232.683H793.334z"/>
			</g>
			<g>
				<path style="fill:#6B184E;" d="M3073.102,2807.322h-0.454c-19.316,0-27.407-12.898-28.521-24.138
					c-0.19-1.616-0.229-3.333-0.122-5.229c0.552-9.578,8.843-16.904,18.34-16.345c7.271,0.417,13.237,5.249,15.449,11.741
					c7.149,2.188,12.451,8.794,12.451,16.602C3090.246,2799.543,3082.697,2807.322,3073.102,2807.322z"/>
			</g>
			<g>
				<path style="fill:#EFE63F;" d="M3430.833,2771.667h30.77v-98.333H3390v57.5C3390,2753.385,3408.282,2771.667,3430.833,2771.667z
					"/>
				<path style="fill:#6B184E;" d="M3464.103,2774.167h-33.271c-23.892,0-43.33-19.441-43.33-43.335v-60h76.601V2774.167z
					 M3392.502,2675.833v55c0,21.138,17.192,38.335,38.33,38.335h28.271v-93.335H3392.502z"/>
			</g>
			<g>
				<path style="fill:#6B184E;" d="M3461.603,2789.038h-30.771c-32.09,0-58.198-26.111-58.198-58.206v-57.5
					c0-9.592,7.773-17.371,17.368-17.371h71.601c9.595,0,17.368,7.778,17.368,17.371v98.335
					C3478.971,2781.26,3471.198,2789.038,3461.603,2789.038z M3407.37,2690.703v40.129c0,12.939,10.528,23.464,23.462,23.464h13.404
					v-63.594H3407.37z"/>
			</g>
			<g>
				<path style="fill:#EFE63F;" d="M544.167,2691.667h-44.789v-229.192h97.289v176.692
					C596.667,2668.162,573.162,2691.667,544.167,2691.667z"/>
				<path style="fill:#6B184E;" d="M544.167,2694.167h-47.288v-234.192h102.288v179.192
					C599.167,2669.495,574.494,2694.167,544.167,2694.167z M501.879,2689.167h42.288c27.571,0,50-22.429,50-50v-174.192h-92.288
					V2689.167z"/>
			</g>
			<g style="opacity:0.55;">
				<rect x="499.4" y="2462.45" style="fill:#FFFFFF;" width="97.25" height="31.35"/>
			</g>
			<g>
				<path style="fill:#6B184E;" d="M544.167,2709.038h-44.788c-9.592,0-17.371-7.778-17.371-17.371v-229.192
					c0-9.592,7.778-17.371,17.371-17.371h97.288c9.592,0,17.371,7.778,17.371,17.371v176.692
					C614.037,2677.693,582.692,2709.038,544.167,2709.038z M516.75,2674.297h27.417c19.37,0,35.129-15.759,35.129-35.129v-159.321
					H516.75V2674.297z"/>
			</g>
			<g>
				<path style="fill:#6B184E;" d="M596.667,2607.371h-97.288c-9.592,0-17.371-7.778-17.371-17.371s7.778-17.371,17.371-17.371
					h97.288c9.592,0,17.371,7.778,17.371,17.371S606.259,2607.371,596.667,2607.371z"/>
			</g>
			<g>
				<g>
					<path style="fill:#6B184E;" d="M2526.667,2477.476c-8.286,0-15-6.716-15-15V2135c0-8.284,6.714-15,15-15
						c8.286,0,15,6.716,15,15v327.476C2541.667,2470.759,2534.953,2477.476,2526.667,2477.476z"/>
				</g>
				<g>
					<path style="fill:#6B184E;" d="M2241.667,2477.476c-8.286,0-15-6.716-15-15V2135c0-8.284,6.714-15,15-15
						c8.286,0,15,6.716,15,15v327.476C2256.667,2470.759,2249.953,2477.476,2241.667,2477.476z"/>
				</g>
				<g>
					<path style="fill:#6B184E;" d="M1956.667,2477.476c-8.286,0-15-6.716-15-15V2135c0-8.284,6.714-15,15-15s15,6.716,15,15
						v327.476C1971.667,2470.759,1964.953,2477.476,1956.667,2477.476z"/>
				</g>
				<g>
					<path style="fill:#6B184E;" d="M1671.667,2477.476c-8.286,0-15-6.716-15-15V2135c0-8.284,6.714-15,15-15s15,6.716,15,15
						v327.476C1686.667,2470.759,1679.953,2477.476,1671.667,2477.476z"/>
				</g>
				<g>
					<path style="fill:#6B184E;" d="M1386.667,2477.476c-8.286,0-15-6.716-15-15V2135c0-8.284,6.714-15,15-15s15,6.716,15,15
						v327.476C1401.667,2470.759,1394.953,2477.476,1386.667,2477.476z"/>
				</g>
				<g>
					<path style="fill:#6B184E;" d="M2828.517,1962.603c-8.286,0-15-6.716-15-15v-327.476c0-8.284,6.714-15,15-15s15,6.716,15,15
						v327.476C2843.517,1955.886,2836.803,1962.603,2828.517,1962.603z"/>
				</g>
				<g>
					<path style="fill:#6B184E;" d="M2543.517,1962.603c-8.286,0-15-6.716-15-15v-327.476c0-8.284,6.714-15,15-15s15,6.716,15,15
						v327.476C2558.517,1955.886,2551.803,1962.603,2543.517,1962.603z"/>
				</g>
				<g>
					<path style="fill:#6B184E;" d="M2258.517,1962.603c-8.286,0-15-6.716-15-15v-327.476c0-8.284,6.714-15,15-15s15,6.716,15,15
						v327.476C2273.517,1955.886,2266.803,1962.603,2258.517,1962.603z"/>
				</g>
				<g>
					<path style="fill:#6B184E;" d="M1973.517,1962.603c-8.286,0-15-6.716-15-15v-327.476c0-8.284,6.714-15,15-15
						c8.286,0,15,6.716,15,15v327.476C1988.517,1955.886,1981.803,1962.603,1973.517,1962.603z"/>
				</g>
				<g>
					<path style="fill:#6B184E;" d="M1688.517,1962.603c-8.286,0-15-6.716-15-15v-327.476c0-8.284,6.714-15,15-15
						c8.286,0,15,6.716,15,15v327.476C1703.517,1955.886,1696.803,1962.603,1688.517,1962.603z"/>
				</g>
				<g>
					<path style="fill:#6B184E;" d="M1403.517,1962.603c-8.286,0-15-6.716-15-15v-327.476c0-8.284,6.714-15,15-15
						c8.286,0,15,6.716,15,15v327.476C1418.517,1955.886,1411.803,1962.603,1403.517,1962.603z"/>
				</g>
				<g>
					<path style="fill:#6B184E;" d="M1118.517,1962.603c-8.286,0-15-6.716-15-15v-327.476c0-8.284,6.714-15,15-15
						c8.286,0,15,6.716,15,15v327.476C1133.517,1955.886,1126.803,1962.603,1118.517,1962.603z"/>
				</g>
				<g>
					<path style="fill:#6B184E;" d="M3221.877,2477.476h-322.979c-8.286,0-15-6.716-15-15s6.714-15,15-15h322.979
						c8.286,0,15,6.716,15,15S3230.163,2477.476,3221.877,2477.476z"/>
				</g>
			</g>
			<g>
				<path style="fill:#6B184E;" d="M2994.575,2528.35h-41.65c-7.138,0-12.925-5.787-12.925-12.925v-7.766
					c0-2.877,2.332-5.209,5.209-5.209h57.082c2.877,0,5.209,2.332,5.209,5.209v7.766
					C3007.5,2522.563,3001.713,2528.35,2994.575,2528.35z"/>
			</g>
			<g>
				<path style="fill:#EF3D30;" d="M3726.169,2125.24v127.721c0,31.266-25.377,56.643-56.643,56.643
					c-14.747,0-26.732-11.985-26.732-26.732v-145.646H3334.2v-37.467c0-14.643,11.829-26.472,26.471-26.472h313.544
					C3702.928,2073.287,3726.169,2096.528,3726.169,2125.24z"/>
			</g>
			<g style="opacity:0.55;">
				<path style="fill:#FFFFFF;" d="M3726.169,2128.574v27.775c0-28.713-23.241-51.953-51.953-51.953h-313.544
					c-14.643,0-26.471,11.829-26.471,26.472v-27.774c0-14.643,11.829-26.472,26.471-26.472h313.544
					C3702.928,2076.621,3726.169,2099.861,3726.169,2128.574z"/>
			</g>
			<g style="opacity:0.3;">
				<path style="fill:#6B184E;" d="M3726.169,2184.646v68.316c0,31.266-25.377,56.643-56.643,56.643
					c-14.747,0-26.732-11.985-26.732-26.732v-68.316c0,14.747,11.985,26.732,26.732,26.732
					C3700.792,2241.289,3726.169,2215.912,3726.169,2184.646z"/>
			</g>
			<g>
				<path style="fill:#6B184E;" d="M3669.528,2326.975c-24.316,0-44.101-19.785-44.101-44.104v-128.274h-291.226
					c-9.595,0-17.368-7.778-17.368-17.371v-37.468c0-24.172,19.663-43.84,43.838-43.84h313.545
					c38.223,0,69.321,31.099,69.321,69.324v127.72C3743.537,2293.772,3710.338,2326.975,3669.528,2326.975z M3351.569,2119.856
					h291.226c9.595,0,17.368,7.778,17.368,17.371v145.645c0,5.164,4.204,9.363,9.365,9.363c21.655,0,39.272-17.617,39.272-39.272
					v-127.72c0-19.07-15.518-34.583-34.585-34.583H3360.67c-5.02,0-9.102,4.082-9.102,9.099V2119.856z"/>
			</g>
			<g style="opacity:0.13;">
				<path style="fill:#FFFFFF;" d="M750.6,2335h-97.083c-12.067,0-21.85-9.783-21.85-21.85v-156.3c0-12.067,9.783-21.85,21.85-21.85
					H750.6c12.067,0,21.85,9.783,21.85,21.85v156.3C772.45,2325.217,762.667,2335,750.6,2335z"/>
			</g>
			<g style="opacity:0.13;">
				<path style="fill:#FFFFFF;" d="M879.883,2335h-37.617c-12.067,0-21.85-9.783-21.85-21.85v-156.3
					c0-12.067,9.783-21.85,21.85-21.85h37.617c12.067,0,21.85,9.783,21.85,21.85v156.3C901.733,2325.217,891.951,2335,879.883,2335z
					"/>
			</g>
			<g>
				<g>
					<path style="fill:#7C6B6A;" d="M1255.833,2788.505c10.386,82.535-48.124,157.89-130.658,168.276
						c-82.571,10.39-157.89-48.124-168.276-130.658c-2.482-19.723-1.021-39.015,3.74-57.094l-0.005-0.037
						c15.179-57.718,64.074-103.237,126.923-111.145c72.51-9.125,139.485,34.885,161.707,101.71
						C1252.353,2768.797,1254.571,2778.48,1255.833,2788.505z"/>
				</g>
				<g>
					<path style="fill:#6B184E;" d="M1106.237,2976.204c-83.814,0-156.719-62.542-167.446-147.81
						c-5.635-44.758,6.499-89.031,34.165-124.661c27.671-35.632,67.554-58.357,112.314-63.989
						c92.319-11.624,177.017,54.082,188.647,146.477l0,0c11.626,92.395-54.087,177.024-146.479,188.65
						C1120.319,2975.767,1113.234,2976.204,1106.237,2976.204z M1106.447,2674.89c-5.488,0-11.035,0.342-16.626,1.045
						c-35.088,4.417-66.362,22.231-88.052,50.168c-21.689,27.935-31.206,62.644-26.787,97.734
						c9.111,72.441,75.444,123.97,147.905,114.841c72.437-9.116,123.95-75.466,114.839-147.903l0,0
						C1229.313,2723.926,1172.15,2674.89,1106.447,2674.89z"/>
				</g>
				<g>
					
						<ellipse transform="matrix(0.7071 -0.7071 0.7071 0.7071 -1661.0225 1604.5505)" style="fill:#D3DAE2;" cx="1106.353" cy="2807.307" rx="78.544" ry="78.544"/>
					<path style="fill:#6B184E;" d="M1106.296,2888.357c-40.22,0-75.205-30.012-80.352-70.93
						c-5.576-44.341,25.952-84.951,70.288-90.53c44.321-5.583,84.951,25.955,90.532,70.291l0,0
						c5.576,44.338-25.957,84.949-70.293,90.53C1113.053,2888.147,1109.655,2888.357,1106.296,2888.357z M1106.403,2731.257
						c-3.154,0-6.338,0.198-9.546,0.601c-41.602,5.234-71.187,43.34-65.952,84.944c5.234,41.604,43.359,71.172,84.941,65.955
						c41.601-5.237,71.191-43.342,65.957-84.944C1176.969,2759.421,1144.137,2731.257,1106.403,2731.257z"/>
				</g>
				<g style="opacity:0.3;">
					<path style="fill:#6B184E;" d="M1184.308,2797.862c-15.99-23.837-44.577-38.003-75.03-34.143
						c-42.965,5.428-73.419,44.535-68.159,87.415c-6.617-9.882-11.112-21.419-12.682-34.016
						c-5.429-43.05,25.067-82.325,68.117-87.754c43.05-5.386,82.326,25.109,87.712,68.117
						C1184.266,2797.608,1184.308,2797.735,1184.308,2797.862z"/>
				</g>
				<g>
					
						<ellipse transform="matrix(0.6133 -0.7899 0.7899 0.6133 -1789.5359 1959.4761)" style="fill:#6B184E;" cx="1106.353" cy="2807.307" rx="21.854" ry="21.854"/>
				</g>
				<g>
					
						<ellipse transform="matrix(0.6133 -0.7899 0.7899 0.6133 -1755.0089 1942.572)" style="fill:#6B184E;" cx="1106.353" cy="2763.594" rx="9.373" ry="9.373"/>
				</g>
				<g>
					
						<ellipse transform="matrix(0.6133 -0.7899 0.7899 0.6133 -1824.0621 1976.3801)" style="fill:#6B184E;" cx="1106.353" cy="2851.019" rx="9.373" ry="9.373"/>
				</g>
				<g>
					<path style="fill:#6B184E;" d="M1072.133,2776.812c4.771,2.008,7.01,7.504,5.002,12.275s-7.504,7.01-12.275,5.002
						c-4.771-2.008-7.01-7.504-5.002-12.275C1061.866,2777.043,1067.362,2774.803,1072.133,2776.812z"/>
				</g>
				<g>
					<path style="fill:#6B184E;" d="M1147.845,2820.524c4.771,2.008,7.01,7.504,5.002,12.275c-2.008,4.771-7.504,7.011-12.275,5.002
						c-4.771-2.008-7.01-7.504-5.002-12.275C1137.578,2820.755,1143.074,2818.516,1147.845,2820.524z"/>
				</g>
				<g>
					<path style="fill:#6B184E;" d="M1062.833,2821.694c4.125-3.128,10.004-2.319,13.131,1.805
						c3.128,4.125,2.319,10.004-1.805,13.131c-4.125,3.128-10.004,2.319-13.131-1.805
						C1057.901,2830.701,1058.709,2824.822,1062.833,2821.694z"/>
				</g>
				<g>
					<path style="fill:#6B184E;" d="M1138.546,2777.982c4.125-3.128,10.004-2.319,13.131,1.805
						c3.128,4.125,2.319,10.004-1.805,13.131c-4.125,3.127-10.004,2.319-13.131-1.805
						C1133.613,2786.989,1134.421,2781.109,1138.546,2777.982z"/>
				</g>
				<g style="opacity:0.55;">
					<path style="fill:#FFFFFF;" d="M1116.176,2910.342c-43.063,5.401-82.341-25.095-87.742-68.121
						c-0.955-7.679-0.808-15.212,0.404-22.45c6.614,41.63,45.157,70.767,87.338,65.476c35.383-4.482,62.316-31.819,67.717-65.329
						c0.147,0.882,0.294,1.8,0.404,2.682C1189.698,2865.662,1159.202,2904.94,1116.176,2910.342z"/>
				</g>
				<g>
					<path style="fill:#6B184E;" d="M1106.173,2895.864c-19.551,0-38.432-6.438-54.121-18.621
						c-18.682-14.504-30.596-35.415-33.55-58.882c-6.094-48.442,28.355-92.813,76.792-98.906
						c48.438-6.074,92.813,28.354,98.911,76.794v0.002c6.094,48.44-28.359,92.81-76.797,98.906
						C1113.654,2895.63,1109.899,2895.864,1106.173,2895.864z M1106.398,2738.757c-2.842,0-5.713,0.178-8.603,0.542
						c-37.5,4.717-64.165,39.065-59.448,76.567c4.722,37.495,39.077,64.185,76.563,59.448c37.5-4.719,64.17-39.067,59.453-76.567
						C1170.006,2764.143,1140.407,2738.757,1106.398,2738.757z"/>
				</g>
				<g style="opacity:0.3;">
					<path style="fill:#6B184E;" d="M1249.265,2759.557c-26.553-22.33-54.913-12.902-72.13,11.262
						c-8.519-67.698-155.762-49.169-147.243,18.529c-14.318-24.716-41.914-33.203-69.253-20.319l-0.005-0.037
						c15.179-57.718,64.074-103.237,126.923-111.145C1160.067,2648.722,1227.042,2692.732,1249.265,2759.557z"/>
				</g>
			</g>
		</g>
		<g style="opacity:0.2;">
			<path style="fill:#6B184E;" d="M3660,3005c0,44.193-739.875,80-1652.5,80S355,3049.193,355,3005
				c0-14.566,80.427-28.248,220.954-40h2863.092C3579.573,2976.752,3660,2990.434,3660,3005z"/>
		</g>
	</g>
</g>
</svg>
