<?xml version="1.0" encoding="utf-8"?>
<!-- Generator: Adobe Illustrator 27.5.0, SVG Export Plug-In . SVG Version: 6.00 Build 0)  -->
<svg version="1.1" id="Layer_1" xmlns="http://www.w3.org/2000/svg" xmlns:xlink="http://www.w3.org/1999/xlink" x="0px" y="0px"
	 viewBox="0 0 4000 4000" style="enable-background:new 0 0 4000 4000;" xml:space="preserve">
<g>
	<!-- <rect style="fill-rule:evenodd;clip-rule:evenodd;fill:#3AAAFF;" width="4000" height="4000"/> -->
	<g>
		<g>
			<defs>
				<path id="SVGID_1_" d="M2505.077,1838.393c519.878-477.233,1072.915,344.25,445.345,597.104
					c96.156,361.551-361.241,452.871-566.716,229.5c-91.424-99.363-113.121-229.966-98.484-377.327
					c-345.102-317.33-662.792-537.778-953.07-661.346c-279.232,209.148-668.094-284.38-320.947-447.363
					c-15.053-136.37,61.398-266.406,187.864-319.578c126.463-53.172,272.844-16.809,359.739,89.355
					c86.898,106.162,93.622,256.835,16.528,370.319C1905.851,1585.515,2215.784,1758.609,2505.077,1838.393"/>
			</defs>
			<clipPath id="SVGID_00000182503455426366251800000012003920501192193979_">
				<use xlink:href="#SVGID_1_"  style="overflow:visible;"/>
			</clipPath>
			
				<polyline style="clip-path:url(#SVGID_00000182503455426366251800000012003920501192193979_);fill-rule:evenodd;clip-rule:evenodd;fill:#FFEBD6;" points="
				3784.603,1663.461 3728.69,1804.024 924.309,687.997 980.249,547.461 			"/>
			
				<polyline style="clip-path:url(#SVGID_00000182503455426366251800000012003920501192193979_);fill-rule:evenodd;clip-rule:evenodd;fill:#FFEBD5;" points="
				3730.938,1798.306 3724.137,1815.427 919.784,699.401 926.584,682.28 			"/>
			
				<polyline style="clip-path:url(#SVGID_00000182503455426366251800000012003920501192193979_);fill-rule:evenodd;clip-rule:evenodd;fill:#FFEAD5;" points="
				3726.415,1809.712 3719.585,1826.833 915.231,710.807 922.032,693.712 			"/>
			
				<polyline style="clip-path:url(#SVGID_00000182503455426366251800000012003920501192193979_);fill-rule:evenodd;clip-rule:evenodd;fill:#FEEAD4;" points="
				3721.862,1821.119 3715.059,1838.213 910.705,722.211 917.506,705.116 			"/>
			
				<polyline style="clip-path:url(#SVGID_00000182503455426366251800000012003920501192193979_);fill-rule:evenodd;clip-rule:evenodd;fill:#FEE9D4;" points="
				3717.337,1832.522 3710.533,1849.643 906.153,733.617 912.98,716.496 			"/>
			
				<polyline style="clip-path:url(#SVGID_00000182503455426366251800000012003920501192193979_);fill-rule:evenodd;clip-rule:evenodd;fill:#FEE9D3;" points="
				3712.784,1843.928 3705.983,1861.049 901.627,745.023 908.428,727.902 			"/>
			
				<polyline style="clip-path:url(#SVGID_00000182503455426366251800000012003920501192193979_);fill-rule:evenodd;clip-rule:evenodd;fill:#FEE8D3;" points="
				3708.258,1855.334 3701.458,1872.429 897.075,756.426 903.902,739.332 			"/>
			
				<polyline style="clip-path:url(#SVGID_00000182503455426366251800000012003920501192193979_);fill-rule:evenodd;clip-rule:evenodd;fill:#FEE8D2;" points="
				3703.706,1866.738 3696.905,1883.859 892.549,767.832 899.352,750.711 			"/>
			
				<polyline style="clip-path:url(#SVGID_00000182503455426366251800000012003920501192193979_);fill-rule:evenodd;clip-rule:evenodd;fill:#FDE7D2;" points="
				3699.18,1878.144 3692.379,1895.265 887.999,779.239 894.826,762.117 			"/>
			
				<polyline style="clip-path:url(#SVGID_00000182503455426366251800000012003920501192193979_);fill-rule:evenodd;clip-rule:evenodd;fill:#FDE7D1;" points="
				3694.63,1889.55 3687.827,1906.668 883.473,790.642 890.274,773.547 			"/>
			
				<polyline style="clip-path:url(#SVGID_00000182503455426366251800000012003920501192193979_);fill-rule:evenodd;clip-rule:evenodd;fill:#FDE7D1;" points="
				3690.104,1900.953 3683.274,1918.048 878.947,802.048 885.721,784.953 			"/>
			
				<polyline style="clip-path:url(#SVGID_00000182503455426366251800000012003920501192193979_);fill-rule:evenodd;clip-rule:evenodd;fill:#FDE6D0;" points="
				3685.552,1912.36 3678.749,1929.481 874.395,813.454 881.195,796.333 			"/>
			
				<polyline style="clip-path:url(#SVGID_00000182503455426366251800000012003920501192193979_);fill-rule:evenodd;clip-rule:evenodd;fill:#FDE6D0;" points="
				3681.026,1923.763 3674.223,1940.884 869.842,824.858 876.669,807.737 			"/>
			
				<polyline style="clip-path:url(#SVGID_00000182503455426366251800000012003920501192193979_);fill-rule:evenodd;clip-rule:evenodd;fill:#FCE5CF;" points="
				3676.5,1935.169 3669.673,1952.264 865.316,836.264 872.12,819.169 			"/>
			
				<polyline style="clip-path:url(#SVGID_00000182503455426366251800000012003920501192193979_);fill-rule:evenodd;clip-rule:evenodd;fill:#FCE5CF;" points="
				3671.948,1946.575 3665.147,1963.697 860.764,847.67 867.594,830.573 			"/>
			
				<polyline style="clip-path:url(#SVGID_00000182503455426366251800000012003920501192193979_);fill-rule:evenodd;clip-rule:evenodd;fill:#FCE4CE;" points="
				3667.395,1957.979 3660.594,1975.1 856.238,859.073 863.042,841.952 			"/>
			
				<polyline style="clip-path:url(#SVGID_00000182503455426366251800000012003920501192193979_);fill-rule:evenodd;clip-rule:evenodd;fill:#FCE4CE;" points="
				3662.869,1969.385 3656.069,1986.506 851.688,870.48 858.516,853.385 			"/>
			
				<polyline style="clip-path:url(#SVGID_00000182503455426366251800000012003920501192193979_);fill-rule:evenodd;clip-rule:evenodd;fill:#FCE4CD;" points="
				3658.32,1980.791 3651.516,1997.886 847.162,881.883 853.963,864.788 			"/>
			
				<polyline style="clip-path:url(#SVGID_00000182503455426366251800000012003920501192193979_);fill-rule:evenodd;clip-rule:evenodd;fill:#FBE3CD;" points="
				3653.794,1992.195 3646.99,2009.316 842.61,893.289 849.437,876.168 			"/>
			
				<polyline style="clip-path:url(#SVGID_00000182503455426366251800000012003920501192193979_);fill-rule:evenodd;clip-rule:evenodd;fill:#FBE3CC;" points="
				3649.241,2003.601 3642.441,2020.722 838.084,904.695 844.885,887.574 			"/>
			
				<polyline style="clip-path:url(#SVGID_00000182503455426366251800000012003920501192193979_);fill-rule:evenodd;clip-rule:evenodd;fill:#FBE2CC;" points="
				3644.716,2015.007 3637.915,2032.101 833.532,916.099 840.335,899.004 			"/>
			
				<polyline style="clip-path:url(#SVGID_00000182503455426366251800000012003920501192193979_);fill-rule:evenodd;clip-rule:evenodd;fill:#FBE2CB;" points="
				3640.189,2026.41 3633.362,2043.531 829.006,927.505 835.809,910.384 			"/>
			
				<polyline style="clip-path:url(#SVGID_00000182503455426366251800000012003920501192193979_);fill-rule:evenodd;clip-rule:evenodd;fill:#FBE1CB;" points="
				3635.637,2037.817 3628.836,2054.938 824.453,938.911 831.283,921.79 			"/>
			
				<polyline style="clip-path:url(#SVGID_00000182503455426366251800000012003920501192193979_);fill-rule:evenodd;clip-rule:evenodd;fill:#FAE1CA;" points="
				3631.085,2049.22 3624.284,2066.341 819.93,950.315 826.731,933.22 			"/>
			
				<polyline style="clip-path:url(#SVGID_00000182503455426366251800000012003920501192193979_);fill-rule:evenodd;clip-rule:evenodd;fill:#FAE0CA;" points="
				3626.559,2060.626 3619.758,2077.721 815.378,961.721 822.205,944.626 			"/>
			
				<polyline style="clip-path:url(#SVGID_00000182503455426366251800000012003920501192193979_);fill-rule:evenodd;clip-rule:evenodd;fill:#FAE0C9;" points="
				3622.009,2072.032 3615.206,2089.153 810.852,973.127 817.653,956.006 			"/>
			
				<polyline style="clip-path:url(#SVGID_00000182503455426366251800000012003920501192193979_);fill-rule:evenodd;clip-rule:evenodd;fill:#FAE0C9;" points="
				3617.483,2083.436 3610.68,2100.557 806.299,984.53 813.127,967.409 			"/>
			
				<polyline style="clip-path:url(#SVGID_00000182503455426366251800000012003920501192193979_);fill-rule:evenodd;clip-rule:evenodd;fill:#FADFC8;" points="
				3612.931,2094.842 3606.13,2111.937 801.774,995.937 808.575,978.842 			"/>
			
				<polyline style="clip-path:url(#SVGID_00000182503455426366251800000012003920501192193979_);fill-rule:evenodd;clip-rule:evenodd;fill:#FADFC8;" points="
				3608.405,2106.248 3601.604,2123.343 797.221,1007.343 804.025,990.245 			"/>
			
				<polyline style="clip-path:url(#SVGID_00000182503455426366251800000012003920501192193979_);fill-rule:evenodd;clip-rule:evenodd;fill:#F9DEC7;" points="
				3603.879,2117.652 3597.052,2134.773 792.695,1018.746 799.499,1001.625 			"/>
			
				<polyline style="clip-path:url(#SVGID_00000182503455426366251800000012003920501192193979_);fill-rule:evenodd;clip-rule:evenodd;fill:#F9DEC7;" points="
				3599.327,2129.058 3592.526,2146.179 788.146,1030.152 794.973,1013.058 			"/>
			
				<polyline style="clip-path:url(#SVGID_00000182503455426366251800000012003920501192193979_);fill-rule:evenodd;clip-rule:evenodd;fill:#F9DDC6;" points="
				3594.801,2140.464 3587.973,2157.558 783.62,1041.556 790.42,1024.461 			"/>
			
				<polyline style="clip-path:url(#SVGID_00000182503455426366251800000012003920501192193979_);fill-rule:evenodd;clip-rule:evenodd;fill:#F9DDC6;" points="
				3590.248,2151.867 3583.448,2168.988 779.067,1052.962 785.894,1035.841 			"/>
			
				<polyline style="clip-path:url(#SVGID_00000182503455426366251800000012003920501192193979_);fill-rule:evenodd;clip-rule:evenodd;fill:#F9DCC5;" points="
				3585.698,2163.273 3578.895,2180.395 774.541,1064.368 781.342,1047.247 			"/>
			
				<polyline style="clip-path:url(#SVGID_00000182503455426366251800000012003920501192193979_);fill-rule:evenodd;clip-rule:evenodd;fill:#F8DCC5;" points="
				3581.173,2174.679 3574.369,2191.774 769.989,1075.771 776.816,1058.677 			"/>
			
				<polyline style="clip-path:url(#SVGID_00000182503455426366251800000012003920501192193979_);fill-rule:evenodd;clip-rule:evenodd;fill:#F8DCC4;" points="
				3576.62,2186.083 3569.82,2203.177 765.463,1087.178 772.264,1070.056 			"/>
			
				<polyline style="clip-path:url(#SVGID_00000182503455426366251800000012003920501192193979_);fill-rule:evenodd;clip-rule:evenodd;fill:#F8DBC4;" points="
				3572.094,2197.489 3565.294,2214.61 760.911,1098.584 767.738,1081.463 			"/>
			
				<polyline style="clip-path:url(#SVGID_00000182503455426366251800000012003920501192193979_);fill-rule:evenodd;clip-rule:evenodd;fill:#F8DBC3;" points="
				3567.569,2208.893 3560.741,2226.014 756.385,1109.987 763.188,1092.893 			"/>
			
				<polyline style="clip-path:url(#SVGID_00000182503455426366251800000012003920501192193979_);fill-rule:evenodd;clip-rule:evenodd;fill:#F8DAC3;" points="
				3563.016,2220.299 3556.216,2237.393 751.835,1121.393 758.662,1104.299 			"/>
			
				<polyline style="clip-path:url(#SVGID_00000182503455426366251800000012003920501192193979_);fill-rule:evenodd;clip-rule:evenodd;fill:#F7DAC2;" points="
				3558.467,2231.705 3551.663,2248.826 747.309,1132.8 754.11,1115.678 			"/>
			
				<polyline style="clip-path:url(#SVGID_00000182503455426366251800000012003920501192193979_);fill-rule:evenodd;clip-rule:evenodd;fill:#F7D9C2;" points="
				3553.94,2243.108 3547.137,2260.229 742.757,1144.203 749.584,1127.082 			"/>
			
				<polyline style="clip-path:url(#SVGID_00000182503455426366251800000012003920501192193979_);fill-rule:evenodd;clip-rule:evenodd;fill:#F7D9C1;" points="
				3549.388,2254.514 3542.585,2271.609 738.231,1155.609 745.032,1138.514 			"/>
			
				<polyline style="clip-path:url(#SVGID_00000182503455426366251800000012003920501192193979_);fill-rule:evenodd;clip-rule:evenodd;fill:#F7D8C1;" points="
				3544.862,2265.921 3538.059,2283.015 733.678,1167.013 740.506,1149.918 			"/>
			
				<polyline style="clip-path:url(#SVGID_00000182503455426366251800000012003920501192193979_);fill-rule:evenodd;clip-rule:evenodd;fill:#F7D8C0;" points="
				3540.31,2277.324 3533.509,2294.445 729.153,1178.419 735.956,1161.298 			"/>
			
				<polyline style="clip-path:url(#SVGID_00000182503455426366251800000012003920501192193979_);fill-rule:evenodd;clip-rule:evenodd;fill:#F6D8C0;" points="
				3535.784,2288.73 3528.983,2305.851 724.6,1189.825 731.43,1172.73 			"/>
			
				<polyline style="clip-path:url(#SVGID_00000182503455426366251800000012003920501192193979_);fill-rule:evenodd;clip-rule:evenodd;fill:#F6D7BF;" points="
				3531.231,2300.136 3524.431,2317.231 720.074,1201.228 726.878,1184.134 			"/>
			
				<polyline style="clip-path:url(#SVGID_00000182503455426366251800000012003920501192193979_);fill-rule:evenodd;clip-rule:evenodd;fill:#F6D7BE;" points="
				3526.706,2311.54 3519.878,2328.661 715.548,1212.635 722.352,1195.513 			"/>
			
				<polyline style="clip-path:url(#SVGID_00000182503455426366251800000012003920501192193979_);fill-rule:evenodd;clip-rule:evenodd;fill:#F6D6BE;" points="
				3522.156,2322.946 3515.353,2340.067 710.999,1224.041 717.799,1206.919 			"/>
			
				<polyline style="clip-path:url(#SVGID_00000182503455426366251800000012003920501192193979_);fill-rule:evenodd;clip-rule:evenodd;fill:#F6D6BD;" points="
				3517.63,2334.35 3510.826,2351.447 706.446,1235.444 713.273,1218.349 			"/>
			
				<polyline style="clip-path:url(#SVGID_00000182503455426366251800000012003920501192193979_);fill-rule:evenodd;clip-rule:evenodd;fill:#F5D5BD;" points="
				3513.104,2345.756 3506.277,2362.85 701.92,1246.85 708.721,1229.729 			"/>
			
				<polyline style="clip-path:url(#SVGID_00000182503455426366251800000012003920501192193979_);fill-rule:evenodd;clip-rule:evenodd;fill:#F5D5BC;" points="
				3508.552,2357.162 3501.751,2374.283 697.368,1258.256 704.195,1241.135 			"/>
			
				<polyline style="clip-path:url(#SVGID_00000182503455426366251800000012003920501192193979_);fill-rule:evenodd;clip-rule:evenodd;fill:#F5D5BC;" points="
				3503.999,2368.565 3497.198,2385.66 692.842,1269.66 699.645,1252.565 			"/>
			
				<polyline style="clip-path:url(#SVGID_00000182503455426366251800000012003920501192193979_);fill-rule:evenodd;clip-rule:evenodd;fill:#F5D4BB;" points="
				3499.473,2379.971 3492.673,2397.066 688.29,1281.066 695.12,1263.971 			"/>
			
				<polyline style="clip-path:url(#SVGID_00000182503455426366251800000012003920501192193979_);fill-rule:evenodd;clip-rule:evenodd;fill:#F5D4BB;" points="
				3494.921,2391.377 3488.12,2408.499 683.764,1292.472 690.567,1275.351 			"/>
			
				<polyline style="clip-path:url(#SVGID_00000182503455426366251800000012003920501192193979_);fill-rule:evenodd;clip-rule:evenodd;fill:#F4D3BA;" points="
				3490.395,2402.781 3483.594,2419.902 679.214,1303.876 686.041,1286.755 			"/>
			
				<polyline style="clip-path:url(#SVGID_00000182503455426366251800000012003920501192193979_);fill-rule:evenodd;clip-rule:evenodd;fill:#F4D3BA;" points="
				3485.845,2414.187 3479.042,2431.308 674.688,1315.282 681.489,1298.187 			"/>
			
				<polyline style="clip-path:url(#SVGID_00000182503455426366251800000012003920501192193979_);fill-rule:evenodd;clip-rule:evenodd;fill:#F4D2B9;" points="
				3481.319,2425.593 3474.516,2442.688 670.136,1326.685 676.963,1309.567 			"/>
			
				<polyline style="clip-path:url(#SVGID_00000182503455426366251800000012003920501192193979_);fill-rule:evenodd;clip-rule:evenodd;fill:#F4D2B9;" points="
				3476.794,2436.997 3469.966,2454.118 665.61,1338.091 672.411,1320.97 			"/>
			
				<polyline style="clip-path:url(#SVGID_00000182503455426366251800000012003920501192193979_);fill-rule:evenodd;clip-rule:evenodd;fill:#F4D1B8;" points="
				3472.241,2448.403 3465.44,2465.524 661.057,1349.498 667.885,1332.403 			"/>
			
				<polyline style="clip-path:url(#SVGID_00000182503455426366251800000012003920501192193979_);fill-rule:evenodd;clip-rule:evenodd;fill:#F3D1B8;" points="
				3467.689,2459.809 3460.888,2476.904 656.531,1360.901 663.335,1343.806 			"/>
			
				<polyline style="clip-path:url(#SVGID_00000182503455426366251800000012003920501192193979_);fill-rule:evenodd;clip-rule:evenodd;fill:#F3D1B7;" points="
				3463.163,2471.212 3456.362,2488.333 651.982,1372.307 658.809,1355.186 			"/>
			
				<polyline style="clip-path:url(#SVGID_00000182503455426366251800000012003920501192193979_);fill-rule:evenodd;clip-rule:evenodd;fill:#F3D0B7;" points="
				3458.61,2482.619 3451.81,2499.74 647.456,1383.713 654.257,1366.592 			"/>
			
				<polyline style="clip-path:url(#SVGID_00000182503455426366251800000012003920501192193979_);fill-rule:evenodd;clip-rule:evenodd;fill:#F3D0B6;" points="
				3454.084,2494.022 3447.284,2511.119 642.903,1395.117 649.731,1378.022 			"/>
			
				<polyline style="clip-path:url(#SVGID_00000182503455426366251800000012003920501192193979_);fill-rule:evenodd;clip-rule:evenodd;fill:#F3CFB6;" points="
				3449.535,2505.428 3442.731,2522.523 638.378,1406.523 645.178,1389.402 			"/>
			
				<polyline style="clip-path:url(#SVGID_00000182503455426366251800000012003920501192193979_);fill-rule:evenodd;clip-rule:evenodd;fill:#F2CFB5;" points="
				3445.009,2516.834 3438.205,2533.956 633.825,1417.929 640.652,1400.808 			"/>
			
				<polyline style="clip-path:url(#SVGID_00000182503455426366251800000012003920501192193979_);fill-rule:evenodd;clip-rule:evenodd;fill:#F2CEB5;" points="
				3440.483,2528.238 3433.656,2545.333 629.299,1429.332 636.1,1412.238 			"/>
			
				<polyline style="clip-path:url(#SVGID_00000182503455426366251800000012003920501192193979_);fill-rule:evenodd;clip-rule:evenodd;fill:#F2CEB4;" points="
				3435.931,2539.644 3429.13,2556.739 624.747,1440.739 631.574,1423.644 			"/>
			
				<polyline style="clip-path:url(#SVGID_00000182503455426366251800000012003920501192193979_);fill-rule:evenodd;clip-rule:evenodd;fill:#F2CDB4;" points="
				3431.405,2551.05 3424.577,2568.171 620.221,1452.142 627.024,1435.024 			"/>
			
				<polyline style="clip-path:url(#SVGID_00000182503455426366251800000012003920501192193979_);fill-rule:evenodd;clip-rule:evenodd;fill:#F2CDB3;" points="
				3426.852,2562.454 3420.052,2579.575 615.671,1463.548 622.498,1446.427 			"/>
			
				<polyline style="clip-path:url(#SVGID_00000182503455426366251800000012003920501192193979_);fill-rule:evenodd;clip-rule:evenodd;fill:#F1CDB3;" points="
				3422.302,2573.86 3415.499,2590.954 611.145,1474.954 617.946,1457.86 			"/>
			
				<polyline style="clip-path:url(#SVGID_00000182503455426366251800000012003920501192193979_);fill-rule:evenodd;clip-rule:evenodd;fill:#F1CCB2;" points="
				3417.777,2585.266 3410.973,2602.361 606.593,1486.358 613.42,1469.239 			"/>
			
				<polyline style="clip-path:url(#SVGID_00000182503455426366251800000012003920501192193979_);fill-rule:evenodd;clip-rule:evenodd;fill:#F1CCB2;" points="
				3413.224,2596.669 3406.421,2613.79 602.067,1497.764 608.868,1480.643 			"/>
			
				<polyline style="clip-path:url(#SVGID_00000182503455426366251800000012003920501192193979_);fill-rule:evenodd;clip-rule:evenodd;fill:#F1CBB1;" points="
				3408.698,2608.075 3401.895,2625.197 597.515,1509.17 604.342,1492.075 			"/>
			
				<polyline style="clip-path:url(#SVGID_00000182503455426366251800000012003920501192193979_);fill-rule:evenodd;clip-rule:evenodd;fill:#F1CBB1;" points="
				3404.172,2619.482 3397.345,2636.576 592.989,1520.573 599.792,1503.479 			"/>
			
				<polyline style="clip-path:url(#SVGID_00000182503455426366251800000012003920501192193979_);fill-rule:evenodd;clip-rule:evenodd;fill:#F0CAB0;" points="
				3399.62,2630.885 3392.819,2648.006 588.463,1531.98 595.266,1514.885 			"/>
			
				<polyline style="clip-path:url(#SVGID_00000182503455426366251800000012003920501192193979_);fill-rule:evenodd;clip-rule:evenodd;fill:#F0CAB0;" points="
				3395.094,2642.291 3388.267,2659.412 583.91,1543.386 590.714,1526.265 			"/>
			
				<polyline style="clip-path:url(#SVGID_00000182503455426366251800000012003920501192193979_);fill-rule:evenodd;clip-rule:evenodd;fill:#F0C9AF;" points="
				3390.542,2653.695 3383.741,2670.792 579.361,1554.789 586.188,1537.695 			"/>
			
				<polyline style="clip-path:url(#SVGID_00000182503455426366251800000012003920501192193979_);fill-rule:evenodd;clip-rule:evenodd;fill:#F0C9AF;" points="
				3386.016,2665.101 3379.189,2682.195 574.835,1566.195 581.635,1549.101 			"/>
			
				<polyline style="clip-path:url(#SVGID_00000182503455426366251800000012003920501192193979_);fill-rule:evenodd;clip-rule:evenodd;fill:#F0C9AE;" points="
				3381.466,2676.507 3374.663,2693.628 570.282,1577.602 577.11,1560.48 			"/>
			
				<polyline style="clip-path:url(#SVGID_00000182503455426366251800000012003920501192193979_);fill-rule:evenodd;clip-rule:evenodd;fill:#F0C8AE;" points="
				3376.914,2687.91 3370.11,2705.005 565.756,1589.005 572.557,1571.91 			"/>
			
				<polyline style="clip-path:url(#SVGID_00000182503455426366251800000012003920501192193979_);fill-rule:evenodd;clip-rule:evenodd;fill:#EFC8AD;" points="
				3372.388,2699.317 3365.587,2716.411 561.204,1600.411 568.031,1583.317 			"/>
			
				<polyline style="clip-path:url(#SVGID_00000182503455426366251800000012003920501192193979_);fill-rule:evenodd;clip-rule:evenodd;fill:#EFC7AD;" points="
				3367.835,2710.723 3361.035,2727.841 556.678,1611.815 563.482,1594.696 			"/>
			
				<polyline style="clip-path:url(#SVGID_00000182503455426366251800000012003920501192193979_);fill-rule:evenodd;clip-rule:evenodd;fill:#EFC7AC;" points="
				3363.31,2722.126 3356.509,2739.247 552.152,1623.221 558.956,1606.1 			"/>
			
				<polyline style="clip-path:url(#SVGID_00000182503455426366251800000012003920501192193979_);fill-rule:evenodd;clip-rule:evenodd;fill:#EFC6AC;" points="
				3358.757,2733.532 3351.956,2750.627 547.6,1634.627 554.403,1617.532 			"/>
			
				<polyline style="clip-path:url(#SVGID_00000182503455426366251800000012003920501192193979_);fill-rule:evenodd;clip-rule:evenodd;fill:#EFC6AB;" points="
				3354.231,2744.938 3347.43,2762.033 543.05,1646.03 549.877,1628.912 			"/>
			
				<polyline style="clip-path:url(#SVGID_00000182503455426366251800000012003920501192193979_);fill-rule:evenodd;clip-rule:evenodd;fill:#EEC6AB;" points="
				3349.705,2756.342 3342.878,2773.463 538.524,1657.437 545.325,1640.315 			"/>
			
				<polyline style="clip-path:url(#SVGID_00000182503455426366251800000012003920501192193979_);fill-rule:evenodd;clip-rule:evenodd;fill:#EEC5AA;" points="
				3345.156,2767.748 3338.352,2784.869 533.972,1668.843 540.799,1651.748 			"/>
			
				<polyline style="clip-path:url(#SVGID_00000182503455426366251800000012003920501192193979_);fill-rule:evenodd;clip-rule:evenodd;fill:#EEC5AA;" points="
				3340.603,2779.152 3333.802,2796.249 529.446,1680.246 536.247,1663.151 			"/>
			
				<polyline style="clip-path:url(#SVGID_00000182503455426366251800000012003920501192193979_);fill-rule:evenodd;clip-rule:evenodd;fill:#EEC4A9;" points="
				3336.077,2790.558 3329.277,2807.679 524.893,1691.652 531.721,1674.531 			"/>
			
				<polyline style="clip-path:url(#SVGID_00000182503455426366251800000012003920501192193979_);fill-rule:evenodd;clip-rule:evenodd;fill:#EEC4A9;" points="
				3331.525,2801.964 3324.724,2819.085 520.368,1703.058 527.171,1685.937 			"/>
			
				<polyline style="clip-path:url(#SVGID_00000182503455426366251800000012003920501192193979_);fill-rule:evenodd;clip-rule:evenodd;fill:#EDC3A8;" points="
				3326.999,2813.367 3320.198,2830.462 515.842,1714.462 522.645,1697.367 			"/>
			
				<polyline style="clip-path:url(#SVGID_00000182503455426366251800000012003920501192193979_);fill-rule:evenodd;clip-rule:evenodd;fill:#EDC3A7;" points="
				3322.447,2824.773 3315.646,2841.868 511.292,1725.868 518.093,1708.773 			"/>
			
				<polyline style="clip-path:url(#SVGID_00000182503455426366251800000012003920501192193979_);fill-rule:evenodd;clip-rule:evenodd;fill:#EDC2A7;" points="
				3317.921,2836.18 3311.12,2853.301 506.766,1737.274 513.567,1720.153 			"/>
			
				<polyline style="clip-path:url(#SVGID_00000182503455426366251800000012003920501192193979_);fill-rule:evenodd;clip-rule:evenodd;fill:#EDC2A6;" points="
				3313.395,2847.583 3306.567,2864.678 502.214,1748.678 509.014,1731.583 			"/>
			
				<polyline style="clip-path:url(#SVGID_00000182503455426366251800000012003920501192193979_);fill-rule:evenodd;clip-rule:evenodd;fill:#EDC2A6;" points="
				3308.845,2858.989 3302.042,2876.084 497.661,1760.084 504.488,1742.989 			"/>
			
				<polyline style="clip-path:url(#SVGID_00000182503455426366251800000012003920501192193979_);fill-rule:evenodd;clip-rule:evenodd;fill:#ECC1A5;" points="
				3304.319,2870.395 3297.492,2887.514 493.135,1771.487 499.936,1754.369 			"/>
			
				<polyline style="clip-path:url(#SVGID_00000182503455426366251800000012003920501192193979_);fill-rule:evenodd;clip-rule:evenodd;fill:#ECC1A5;" points="
				3299.767,2881.799 3292.966,2898.893 488.583,1782.893 495.41,1765.772 			"/>
			
				<polyline style="clip-path:url(#SVGID_00000182503455426366251800000012003920501192193979_);fill-rule:evenodd;clip-rule:evenodd;fill:#ECC0A4;" points="
				3295.214,2893.205 3288.414,2910.3 484.057,1794.3 490.861,1777.205 			"/>
			
				<polyline style="clip-path:url(#SVGID_00000182503455426366251800000012003920501192193979_);fill-rule:evenodd;clip-rule:evenodd;fill:#ECC0A4;" points="
				3290.688,2904.611 3283.888,2921.706 479.507,1805.703 486.335,1788.584 			"/>
			
				<polyline style="clip-path:url(#SVGID_00000182503455426366251800000012003920501192193979_);fill-rule:evenodd;clip-rule:evenodd;fill:#ECBFA3;" points="
				3286.139,2916.014 3279.335,2933.135 474.981,1817.109 481.782,1799.988 			"/>
			
				<polyline style="clip-path:url(#SVGID_00000182503455426366251800000012003920501192193979_);fill-rule:evenodd;clip-rule:evenodd;fill:#EBBFA3;" points="
				3281.613,2927.421 3274.81,2944.542 470.456,1828.515 477.256,1811.421 			"/>
			
				<polyline style="clip-path:url(#SVGID_00000182503455426366251800000012003920501192193979_);fill-rule:evenodd;clip-rule:evenodd;fill:#EBBEA2;" points="
				3277.087,2938.824 3270.257,2955.921 465.903,1839.919 472.704,1822.824 			"/>
			
				<polyline style="clip-path:url(#SVGID_00000182503455426366251800000012003920501192193979_);fill-rule:evenodd;clip-rule:evenodd;fill:#EBBEA2;" points="
				3272.534,2950.23 3265.731,2967.351 461.351,1851.325 468.178,1834.204 			"/>
			
				<polyline style="clip-path:url(#SVGID_00000182503455426366251800000012003920501192193979_);fill-rule:evenodd;clip-rule:evenodd;fill:#EBBEA1;" points="
				3268.009,2961.636 3261.181,2978.758 456.825,1862.731 463.626,1845.61 			"/>
			
				<polyline style="clip-path:url(#SVGID_00000182503455426366251800000012003920501192193979_);fill-rule:evenodd;clip-rule:evenodd;fill:#EBBDA1;" points="
				3263.456,2973.04 3256.656,2990.135 452.272,1874.134 459.102,1857.04 			"/>
			
				<polyline style="clip-path:url(#SVGID_00000182503455426366251800000012003920501192193979_);fill-rule:evenodd;clip-rule:evenodd;fill:#EABDA0;" points="
				3258.904,2984.446 3252.103,3001.541 447.747,1885.541 454.55,1868.446 			"/>
			
				<polyline style="clip-path:url(#SVGID_00000182503455426366251800000012003920501192193979_);fill-rule:evenodd;clip-rule:evenodd;fill:#EABCA0;" points="
				3254.378,2995.852 3247.577,3012.971 443.197,1896.944 450.024,1879.826 			"/>
			
				<polyline style="clip-path:url(#SVGID_00000182503455426366251800000012003920501192193979_);fill-rule:evenodd;clip-rule:evenodd;fill:#EABC9F;" points="
				3249.828,3007.256 3243.025,3024.35 438.671,1908.35 445.472,1891.255 			"/>
			
				<polyline style="clip-path:url(#SVGID_00000182503455426366251800000012003920501192193979_);fill-rule:evenodd;clip-rule:evenodd;fill:#EABB9F;" points="
				3245.302,3018.662 3238.499,3035.756 434.145,1919.756 440.946,1902.662 			"/>
			
				<polyline style="clip-path:url(#SVGID_00000182503455426366251800000012003920501192193979_);fill-rule:evenodd;clip-rule:evenodd;fill:#EABB9E;" points="
				3240.776,3030.068 3233.947,3047.186 429.593,1931.16 436.393,1914.041 			"/>
			
				<polyline style="clip-path:url(#SVGID_00000182503455426366251800000012003920501192193979_);fill-rule:evenodd;clip-rule:evenodd;fill:#E9BA9E;" points="
				3236.224,3041.471 3229.42,3058.566 425.067,1942.566 431.867,1925.445 			"/>
			
				<polyline style="clip-path:url(#SVGID_00000182503455426366251800000012003920501192193979_);fill-rule:evenodd;clip-rule:evenodd;fill:#E9BA9D;" points="
				3231.698,3052.877 3224.871,3069.972 420.514,1953.972 427.318,1936.877 			"/>
			
				<polyline style="clip-path:url(#SVGID_00000182503455426366251800000012003920501192193979_);fill-rule:evenodd;clip-rule:evenodd;fill:#E9BA9D;" points="
				3227.146,3064.281 3220.345,3081.378 415.962,1965.375 422.792,1948.254 			"/>
			
				<polyline style="clip-path:url(#SVGID_00000182503455426366251800000012003920501192193979_);fill-rule:evenodd;clip-rule:evenodd;fill:#E9B99C;" points="
				3222.62,3075.687 3215.792,3092.808 411.436,1976.782 418.239,1959.661 			"/>
			
				<polyline style="clip-path:url(#SVGID_00000182503455426366251800000012003920501192193979_);fill-rule:evenodd;clip-rule:evenodd;fill:#E9B99C;" points="
				3218.067,3087.093 3211.267,3104.214 406.886,1988.188 413.714,1971.093 			"/>
			
				<polyline style="clip-path:url(#SVGID_00000182503455426366251800000012003920501192193979_);fill-rule:evenodd;clip-rule:evenodd;fill:#E8B89B;" points="
				3213.518,3098.497 3206.714,3115.591 402.36,1999.591 409.161,1982.47 			"/>
			
				<polyline style="clip-path:url(#SVGID_00000182503455426366251800000012003920501192193979_);fill-rule:evenodd;clip-rule:evenodd;fill:#E8B89B;" points="
				3208.992,3109.903 3202.188,3127.024 397.834,2010.997 404.635,1993.876 			"/>
			
				<polyline style="clip-path:url(#SVGID_00000182503455426366251800000012003920501192193979_);fill-rule:evenodd;clip-rule:evenodd;fill:#E8B79A;" points="
				3204.466,3121.309 3200.353,3131.576 395.996,2015.574 400.083,2005.282 			"/>
		</g>
		<path style="opacity:0.2;fill-rule:evenodd;clip-rule:evenodd;fill:#50124C;" d="M2793.567,2604.299
			c-90.698,116.042-266.793,65.484-365.611-87.594c-53.871-141.932,10.837-167.302,192.13-31.448
			C2644.421,2514.094,2918.121,2377.98,2793.567,2604.299 M1067.274,1366.875c6.75,4.319,13.681,8.249,20.794,11.793
			C1080.955,1375.101,1074.025,1371.195,1067.274,1366.875z M1044.541,1350.297l-0.027-0.024
			c6.234,5.172,12.725,9.981,19.396,14.404C1057.24,1360.255,1050.773,1355.446,1044.541,1350.297z M1391.948,925.903
			c-521.38-57.235-59.356,663.878,161.015,319.499c51.906-81.13,12.285-188.197-45.18-258.257
			C1475.12,956.159,1435.422,936.713,1391.948,925.903z M2171.431,1842.946h-0.026 M1552.706,1574.731
			c22.423,9.568,36.334,27.232,31.138,39.491c-5.225,12.232-27.622,14.43-50.044,4.886c-22.423-9.542-36.337-27.206-31.112-39.465
			C1507.886,1567.385,1530.283,1565.186,1552.706,1574.731z M2110.343,1975.463c11.51-1.086,21.414-8.562,25.604-19.319
			c4.216-10.76,1.991-22.966-5.715-31.552c-152.586-114.077-313.217-216.957-480.646-307.862
			c-12.698-4.603-26.769,1.499-32.044,13.914c-5.275,12.413,0.053,26.819,12.156,32.741
			C1682.559,1697.937,2089.782,1977.428,2110.343,1975.463z M3097.552,2236.024c94.345-106.164,94.162-266.2-0.493-372.131
			c-84.543-86.742-210.75-128.354-336.826-99.697c-47.227,15.31-92.25,38.016-133.32,67.783
			c-37.629,25.76-76.657,57.571-91.864,102.931C2404.654,2323.748,2890.629,2415.765,3097.552,2236.024z M3225.827,1977.505
			c9.155,22.5,14.147,46.967,14.174,72.364c0.024,32.974-8.302,64.396-23.252,91.964l0,0c-3.361,14.07-7.63,28.035-12.879,41.792
			l-0.13,0.233c-52.629,145.682-176.431,263.355-312.828,248.795c23.535,1.576,49.398,3.128,59.51,2.844
			c25.473,67.706,20.871,143.044-12.622,207.13c-33.543,64.086-92.766,110.844-162.904,128.584
			c-32.976,9.311-66.519,14.147-99.776,14.717c-256.345-41.326-446.174-230.585-353.302-576.983
			c-9.234,4.216-42.311,60.595-51,65.561c5.871-26.12-27.492-50.225-70.966-89.07c-274.862-245.638-511.888-413.717-751.785-517.423
			c-51.957-22.447-9.725-39.491-77.87-51.387c-186.052,102.335-380.769,81.363-458.433-152.379
			c-2.974,6.647-5.612,13.345-7.966,20.119c-2.068-2.741-4.11-5.482-6.181-8.3c-34.576-50.974-42.698-115.423-21.854-173.407
			c20.871-57.981,68.175-102.491,127.321-119.766c9.931-13.061,37.317,32.974,43.964,79.086c-0.697,0.879-1.345,1.785-2.042,2.664
			c12.362,19.706,27.179,37.319,43.914,52.526c-13.241-12.442-24.801-26.689-34.708-42.751
			c34.216,47.07,84.078,82.189,142.578,97.708c-31.009-7.14-58.138-18.44-81.413-33.959c48.776,33.646,108.878,49.735,170.12,43.114
			c-32.378,0.05-61.888-2.974-88.551-9.105c-75.984-47.69-147.906-121.524-162.933-209.974c-15-88.423,28.294-183.025,84.26-253.112
			c46.318-39.441,104.406-65.484,168.415-72.208c153.129-16.136,273.877,72.804,327.102,212.485
			c-0.026,0,18.31,123.619,4.836,174.646c-6.181,42.748-22.939,82.629-48,116.458c13.941,1.655,28.864,5.172,44.846,10.577
			c-76.967,45.905-76.241,90.129,2.198,132.697l0,0c199.993,106.63,382.552,228.594,553.76,359.199
			c149.275,108.542,244.24,72.724,240.077-33.363c45.31,18.596,22.111,14.224,55.654,32.044
			c14.303-5.741,29.123-10.241,44.356-13.345c74.507-87.907,184.627-140.793,302.947-141.492
			c45.389-0.283,89.689,7.137,131.302,21.284l0.103,0.026C3123.206,1749.04,3206.275,1856.99,3225.827,1977.505z M1135.292,1576.799
			c-89.536-20.638-158.846-106.68-139.89-208.525c7.992-31.708,22.603-39.234,43.76-22.579c1.706,1.525,3.464,3,5.222,4.476
			l0.156,0.127c80.251,97.475,258.673,62.536,183.311,184.27c-19.526,31.552-56.146,48.207-92.769,42.179L1135.292,1576.799z"/>
		<path style="fill-rule:evenodd;clip-rule:evenodd;fill:#FFFFFF;" d="M1380.232,1618.592c11.25-48.05,12.722-98.844,3.104-149.352
			c-159.596,329.869-588.466,66.594-407.949-275.871c-46.062,21.541-82.139,60.698-99.623,109.292
			c-20.844,57.984-12.722,122.432,21.854,173.407c2.071,2.818,4.113,5.559,6.181,8.3c2.354-6.774,4.992-13.472,7.966-20.119
			c77.663,233.742,272.381,254.714,458.433,152.379C1373.868,1617.273,1377.178,1617.919,1380.232,1618.592"/>
		<path style="fill-rule:evenodd;clip-rule:evenodd;fill:#FFFFFF;" d="M1363.267,1578.145
			c-17.484,20.638-33.313,42.282-47.484,64.758c18.154-7.553,36.311-16.319,54.414-26.276c68.146,11.896,25.913,28.94,77.87,51.387
			c239.897,103.706,476.923,271.785,751.785,517.423c43.474,38.845,76.837,62.95,70.966,89.07
			c5.119-2.924,18.647-23.585,30.802-40.993v-0.024C2032.137,1958.808,1713.954,1736.601,1363.267,1578.145"/>
		<g>
			<path style="fill:#50124C;" d="M1042.057,1171.411c0,0,0.932,5.792,2.511,15.929c0.387,2.534,0.853,5.328,1.319,8.355
				c0.62,2.481,1.292,5.146,2.015,7.99c1.345,5.715,2.717,12.285,5.665,19.759c2.328,7.577,5.561,15.466,9.595,23.665
				c3.39,8.533,8.948,16.422,13.784,25.318c5.924,8.043,11.456,17.068,18.75,24.881c6.674,8.456,14.82,15.696,22.682,23.482
				c8.559,6.801,16.915,14.224,26.276,19.912c8.922,6.517,18.75,11.096,28.008,16.295c9.724,3.904,18.956,8.819,28.397,11.353
				c9.259,3.257,18.231,5.742,26.713,7.293c8.406,2.172,16.295,3.024,23.329,3.827c7.007,1.035,13.188,1.499,18.284,1.422
				c10.241,0.26,16.112,0.413,16.112,0.413s-5.818,0.855-15.982,2.328c-5.119,0.932-11.353,1.528-18.594,1.682
				c-7.216,0.413-15.439,0.906-24.364,0.18c-9.025-0.127-18.723-1.086-28.964-2.818c-10.424-1.035-20.871-4.396-32.094-6.88
				c-10.734-3.774-22.293-7.007-33.183-12.362c-11.327-4.55-21.877-10.99-32.818-17.068c-10.217-7.06-20.897-13.811-30.129-22.087
				c-9.905-7.63-18.104-16.732-26.663-25.138c-7.476-9.232-15.622-17.714-21.493-27.079c-6.491-8.999-12.076-17.894-16.525-26.56
				c-4.939-8.249-8.639-16.938-11.896-24.724c-1.629-3.88-3.154-7.5-4.552-10.861c-1.009-2.95-1.912-5.665-2.741-8.096
				c-3.284-9.751-5.146-15.31-5.146-15.31c-5.638-16.682,3.334-34.785,20.042-40.397c16.682-5.612,34.759,3.361,40.397,20.042
				C1041.361,1167.842,1041.8,1169.703,1042.057,1171.411z"/>
		</g>
		<g>
			<path style="fill:#50124C;" d="M2949.826,2467.256l-55.293-6.128l-57.852-11.432l-54.957-16.369l-52.812-21.131l2.354,0.543
				l-13.371-1.785l-13.758,0.646l-13.631,3.234l-13.059,5.768l-11.976,8.249c-3.414,3.44-7.034,6.827-10.448,10.448
				c-2.794,4.063-5.768,8.149-8.535,12.389l-6.231,13.991l3.646-15.129c1.965-4.809,4.24-9.568,6.438-14.457
				c2.847-4.447,6.001-8.766,9.078-13.241l11.56-11.56l13.681-9.362c5.045-2.275,10.138-4.706,15.389-6.827
				c5.456-1.345,11.017-2.821,16.655-3.983l17.328-0.879l2.378,0.543l53.302,10.63l53.612,5.688l52.216,0.699l55.476-4.06
				c17.585-1.295,32.871,11.896,34.163,29.481c1.292,17.587-11.923,32.873-29.51,34.166
				C2953.759,2467.515,2951.688,2467.462,2949.826,2467.256z"/>
		</g>
		<path style="fill-rule:evenodd;clip-rule:evenodd;fill:#FFFFFF;" d="M2960.716,2487.481
			c40.886,317.87-381.779,389.766-577.01,177.517c-91.424-99.363-113.121-229.966-98.484-377.327
			c-13.241-12.156-26.456-24.181-39.621-36.08c23.638-16.239,49.088-30.566,76.217-42.645
			C2288.456,2811.146,2842.862,2860.049,2960.716,2487.481"/>
		<g>
			<path style="fill:#50124C;" d="M2255.276,2277.067c0,0,3.956-5.251,9.905-13.138c2.871-3.83,6.337-8.535,11.406-14.2
				c4.732-5.405,9.595-11.043,14.611-16.112c5.302-4.526,10.604-9.025,15.569-13.265c4.682-4.269,9.905-7.373,14.07-10.191
				c8.326-5.405,13.861-9.025,13.861-9.025s-2.431,6.102-6.104,15.233c-1.732,4.526-4.007,9.515-5.326,15.439
				c-1.449,5.662-3,11.663-4.552,17.688c-0.959,5.974-1.398,11.716-1.991,16.838c-0.673,4.679-0.853,10.344-0.982,15.466
				c-0.336,9.878-0.57,16.472-0.57,16.472c-0.596,18.39-16.009,32.794-34.422,32.2c-18.39-0.622-32.794-16.035-32.198-34.422
				C2248.784,2288.91,2251.266,2282.369,2255.276,2277.067z"/>
		</g>
		<g>
			<path style="fill:#50124C;" d="M1306.991,1606.929c0,0,2.015-1.811,5.532-4.939c3.077-2.924,9.518-8.096,13.578-12.518
				c2.354-2.378,4.889-4.939,7.579-7.656c2.871-2.585,5.302-6.438,8.196-9.905c6.054-6.984,10.81-15.466,16.319-23.975
				c4.346-8.896,9.468-17.894,12.442-27.026c3.8-8.949,5.922-17.767,7.966-25.447c2.248-7.656,2.585-14.25,3.567-18.88
				c0.75-4.682,1.165-7.344,1.165-7.344s0.567,2.638,1.552,7.214c0.776,4.629,2.921,11.303,3.62,19.475
				c0.93,8.173,2.225,17.897,1.939,28.421c0.543,10.657-0.983,21.827-2.018,33.413c-2.222,11.226-3.98,22.966-7.603,33.39
				c-1.758,5.302-2.791,10.474-5.093,15.439c-2.121,4.992-4.166,9.724-6.027,14.094c-3.983,9.311-6.801,13.784-9.025,18.44
				c-2.148,4.216-3.363,6.594-3.363,6.594c-8.12,15.932-27.592,22.243-43.498,14.121c-15.906-8.12-22.216-27.595-14.097-43.501
				C1301.586,1612.72,1304.12,1609.49,1306.991,1606.929z"/>
		</g>
		<g>
			<g>
				<path style="fill:#50124C;" d="M1597.576,1341.738c0,0-5.249,2.378-13.112,5.922c-1.991,0.906-4.113,1.862-6.361,2.871
					c-1.991,0.983-5.794,2.328-8.715,3.44c-6.311,2.328-12.855,4.499-19.113,6.388c-12.984,1.758-24.594,3.933-33.803,2.794
					c-8.689-0.516-14.483-0.879-14.483-0.879s4.579-3.44,11.459-8.586c6.878-4.372,14.015-13.448,20.688-20.691
					c2.328-4.06,4.682-8.12,6.88-11.922c1.033-1.991,1.759-2.871,2.895-5.379c1.062-2.251,2.071-4.37,3-6.311
					c3.7-7.81,6.181-13.008,6.181-13.008c8.019-16.888,28.217-24.078,45.103-16.059c16.888,8.016,24.078,28.215,16.062,45.103
					C1610.661,1332.946,1604.636,1338.557,1597.576,1341.738z"/>
			</g>
		</g>
		<path style="opacity:0.5;fill-rule:evenodd;clip-rule:evenodd;fill:#FFFFFF;" d="M2680.705,2578.023
			c0.466-11.25-5.895-21.697-16.112-26.403c-19.267-1.785-36.698-10.477-38.638,21.335c-1.655,27.569,15.286,29.094,36.44,30
			C2672.972,2599.127,2680.215,2589.273,2680.705,2578.023"/>
		<path style="opacity:0.5;fill-rule:evenodd;clip-rule:evenodd;fill:#FFFFFF;" d="M2572.189,2571.792
			c8.613-6.157,12.929-16.735,11.094-27.156c-0.983-5.561-3.62-10.553-7.423-14.457c-4.19-2.224-8.276-4.656-12.259-7.293
			c-11.586-7.63-22.267-16.915-31.602-27.751c-7.087-7.137-17.508-9.828-27.156-7.008c-9.648,2.818-16.991,10.654-19.139,20.482
			c-1.655,7.476-0.05,15.183,4.139,21.337c1.552,1.811,3.104,3.543,4.679,5.275c14.303,15.493,30.675,28.318,48.389,38.302
			c0.053,0.026,0.077,0.053,0.207,0.13C2552.378,2578.619,2563.654,2577.893,2572.189,2571.792"/>
		<path style="opacity:0.75;fill-rule:evenodd;clip-rule:evenodd;fill:#FFFFFF;" d="M1432.291,1061.73
			c12.129,10.138,30.156,9.748,41.845-1.398c11.147-10.628,12.775-27.568,4.552-40.034c-1.036-1.369-2.097-2.714-3.183-4.033
			c-23.819-29.51-56.326-51.414-93.569-62.147c-45.569-13.138-94.059-8.353-135.828,12.725c-2.585,1.319-5.119,2.662-7.653,4.086
			c-10.707,7.81-15.726,21.801-11.613,35.069c5.016,16.086,21.724,25.447,38.069,21.311
			C1323.076,1006.074,1387.965,1019.988,1432.291,1061.73"/>
		<path style="opacity:0.75;fill-rule:evenodd;clip-rule:evenodd;fill:#FFFFFF;" d="M1503.154,1089.479
			c14.507-2.844,29.457,10.993,33.36,30.905c3.88,19.915-4.733,38.379-19.266,41.199c-14.533,2.844-29.483-10.993-33.387-30.905
			C1479.982,1110.763,1488.62,1092.299,1503.154,1089.479"/>
		<path style="opacity:0.8;fill-rule:evenodd;clip-rule:evenodd;fill:#FFFFFF;" d="M2969.611,1911.841
			c12.129,10.14,30.183,9.751,41.846-1.396c11.173-10.63,12.802-27.569,4.552-40.034c-1.035-1.372-2.095-2.714-3.183-4.06
			c-23.792-29.51-56.326-51.39-93.569-62.121c-45.542-13.138-94.059-8.379-135.827,12.722c-2.561,1.295-5.119,2.664-7.654,4.086
			c-10.707,7.812-15.726,21.803-11.613,35.071c5.016,16.086,21.75,25.447,38.095,21.308
			C2860.396,1856.161,2925.311,1870.101,2969.611,1911.841"/>
		<path style="opacity:0.8;fill-rule:evenodd;clip-rule:evenodd;fill:#FFFFFF;" d="M2704.99,1872.479
			c-14.534-2.844-29.483,10.993-33.363,30.905c-3.904,19.915,4.735,38.379,19.269,41.226c14.534,2.844,29.457-11.019,33.363-30.932
			C2728.136,1893.764,2719.524,1875.3,2704.99,1872.479"/>
		<path style="opacity:0.46;fill-rule:evenodd;clip-rule:evenodd;fill:#FFFFFF;" d="M1133.894,1460.264
			c7.267-0.286,13.707,4.913,14.82,12.259c1.059,7.007-3.104,13.604-9.595,15.826c-0.776,0.183-1.525,0.389-2.301,0.569
			c-16.941,4.036-34.915,2.844-51.44-3.724c-20.251-8.043-36.544-23.406-45.776-42.802c-0.569-1.215-1.112-2.431-1.631-3.647
			c-1.706-5.845,0.416-12.336,5.638-16.009c6.337-4.423,15.052-3.13,19.811,2.974
			C1078.577,1449.764,1106.066,1462.955,1133.894,1460.264"/>
		<g>
			<path style="fill:#50124C;" d="M2575.267,1812.66c0,0-3.027,2.614-8.276,7.164c-4.862,4.526-13.708,11.147-20.924,18.829
				c-3.877,3.904-8.067,8.12-12.516,12.595c-4.629,4.293-8.689,10.008-13.397,15.336c-9.672,10.604-17.948,23.429-27.052,35.948
				c-7.706,13.241-16.319,26.327-22.24,39.671c-3.051,6.621-6.724,12.828-8.948,19.139c-2.481,6.284-4.809,12.232-6.983,17.714
				c-4.603,10.967-6.594,20.638-8.869,27.235c-2.018,6.671-3.157,10.498-3.157,10.498s0.363-3.957,1.009-10.887
				c0.932-6.88,0.956-17.042,3.337-28.837c1.035-5.948,2.198-12.386,3.387-19.213c1.009-6.933,3.39-13.837,5.148-21.26
				c3.334-14.947,9.362-30.077,14.714-45.672c6.724-14.896,12.881-30.389,20.821-43.784c3.904-6.777,6.981-13.604,11.223-19.656
				c4.086-6.155,7.939-11.973,11.483-17.354c7.214-11.197,13.345-17.818,17.585-23.715c4.242-5.508,6.674-8.662,6.674-8.662
				c8.639-11.173,24.671-13.241,35.845-4.629c11.173,8.612,13.241,24.671,4.629,35.844
				C2577.724,1810.282,2576.482,1811.601,2575.267,1812.66z"/>
		</g>
		
			<path style="fill:none;stroke:#50124C;stroke-width:55;stroke-linecap:round;stroke-linejoin:round;stroke-miterlimit:22.9256;" d="
			M2505.077,1838.393c519.878-477.233,1072.915,344.25,445.345,597.104c96.156,361.551-361.241,452.871-566.716,229.5
			c-91.424-99.363-113.121-229.966-98.484-377.327c-345.102-317.33-662.792-537.778-953.07-661.346
			c-279.232,209.148-668.094-284.38-320.947-447.363c-15.053-136.37,61.398-266.406,187.864-319.578
			c126.463-53.172,272.844-16.809,359.739,89.355c86.898,106.162,93.622,256.835,16.528,370.319
			C1905.851,1585.515,2215.784,1758.609,2505.077,1838.393z"/>
	</g>
	<path style="opacity:0.2;fill-rule:evenodd;clip-rule:evenodd;fill:#50124C;" d="M2056.912,3230
		c493.242,0,893.088,47.717,893.088,106.612c0,58.865-399.846,106.612-893.088,106.612c-493.239,0-893.1-47.746-893.1-106.612
		C1163.812,3277.717,1563.672,3230,2056.912,3230"/>
</g>
</svg>
