<?xml version="1.0" encoding="utf-8"?>
<!-- Generator: Adobe Illustrator 27.5.0, SVG Export Plug-In . SVG Version: 6.00 Build 0)  -->
<svg version="1.1" id="Layer_1" xmlns="http://www.w3.org/2000/svg" xmlns:xlink="http://www.w3.org/1999/xlink" x="0px" y="0px"
	 viewBox="0 0 4000 4000" style="enable-background:new 0 0 4000 4000;" xml:space="preserve">
<g>
	<g>
		<!-- <rect style="fill:#FFEC5E;" width="4000" height="4000"/> -->
	</g>
	<g style="opacity:0.2;">
		<ellipse style="fill:#000072;" cx="2202.746" cy="3393.239" rx="1225.575" ry="156.761"/>
	</g>
	<g>
		<g>
			<path style="fill:#FFEBF6;" d="M3224.819,1966.558c0,0,61.377,87.488-18.599,152.512c0,0,29.61,72.387-55.872,120.372
				c-22.765-62.494-76.479-106.387-139.195-106.387c0,0-15.623-57.508-55.648-108.172c0,0,18.227-135.475,114.942-101.031
				c0,0,6.547-109.807,77.223-127.44C3218.346,1778.78,3289.022,1866.123,3224.819,1966.558z"/>
			<path style="fill:#000072;" d="M3148.811,2243.588l-1.152-3.164c-23.125-63.486-76.707-104.507-136.506-104.507h-2.188
				l-0.573-2.109c-0.154-0.571-15.957-57.563-55.132-107.153l-0.752-0.952l0.163-1.201c0.4-2.979,10.308-73.254,53.398-99.524
				c17.722-10.806,38.508-12.49,61.816-5.012c1.851-19.854,13.806-110.042,79.089-126.328c32.275-8.054,66.438,5.271,87.043,33.94
				c27.234,37.883,25.034,89.714-5.798,138.955c7.834,12.351,54.233,92.578-18.64,153.477c4.011,12.29,20.835,77.769-57.832,121.929
				L3148.811,2243.588z M3013.304,2130.209c60.359,0.952,114.258,41.865,138.542,105.073c78.642-46.074,52.873-112.3,51.723-115.132
				l-0.798-1.958l1.643-1.343c76.938-62.554,20.503-145.166,18.062-148.65l-1.096-1.57l1.03-1.614
				c30.461-47.656,33.066-97.788,6.963-134.099c-19.229-26.753-51.028-39.207-81.01-31.729
				c-67.808,16.917-74.995,123.757-75.059,124.834l-0.229,3.801l-3.586-1.277c-23.037-8.201-43.369-7.087-60.427,3.31
				c-37.834,23.052-49.05,84.912-50.539,94.229C2993.628,2068.959,3010.052,2119.418,3013.304,2130.209z"/>
		</g>
		<g>
			<path style="fill:#FFFFFF;" d="M3233.681,1832.175c-19.153-28.926-52.571-44.104-86.011-35.762
				c-70.676,17.632-77.223,127.439-77.223,127.439c-85.333-30.391-109.552,71.443-114.073,95.845
				c11.734,17.043,20.859,34.082,27.732,48.918c0.72,1.326,1.431,2.649,2.12,3.958c4.95-25.952,29.615-124.941,113.899-94.924
				c0,0,6.546-109.807,77.222-127.439c22.192-5.537,44.378-0.713,62.394,11.604
				C3239.127,1851.226,3237.004,1841.294,3233.681,1832.175z"/>
		</g>
		<g>
			<path style="fill:#FFEBF6;" d="M2916.08,3287.435c0,0-23.958,71.713-32.438,134.431"/>
			<path style="fill:#000072;" d="M2886.477,3422.25l-5.669-0.771c8.418-62.261,32.317-134.229,32.556-134.951l5.43,1.816
				C2918.555,3289.057,2894.822,3360.531,2886.477,3422.25z"/>
		</g>
		<g>
			<path style="fill:#FFEBF6;" d="M2346.02,3181.11c0,0-43.684,62.104-54.855,133.811"/>
			<path style="fill:#000072;" d="M2293.992,3315.361l-5.654-0.879c11.145-71.543,54.902-134.39,55.342-135.015l4.683,3.291
				C2347.927,3183.373,2304.927,3245.17,2293.992,3315.361z"/>
		</g>
		<g>
			<line style="fill:#FFEBF6;" x1="3147.223" y1="3265.364" x2="3147.149" y2="3265.29"/>
			<polygon style="fill:#000072;" points="3145.135,3267.323 3145.061,3267.245 3149.236,3263.329 			"/>
		</g>
		<g>
			<path style="fill:#FFEBF6;" d="M2667.889,3026.998c0,0-48.432,108.098-105.568,188.52l-3.348-2.381
				c-116.578-137.558-300.783-89.35-300.783-89.35c36.453-54.159,73.949-96.789,73.949-96.789l0.074-0.075
				c107.204,63.237,211.88-15.994,211.88-15.994C2586.351,3033.025,2632.626,3032.652,2667.889,3026.998z"/>
			<path style="fill:#000072;" d="M2562.998,3219.506l-6.208-4.517c-114.031-134.556-296.047-88.911-297.876-88.433l-7.322,1.914
				l4.226-6.279c36.138-53.691,73.796-96.655,74.172-97.085l1.563-1.777l2.114,1.128c104.341,61.548,207.666-15.034,208.701-15.811
				l1.445-1.094l1.607,0.84c42.751,22.354,89.953,20.923,122.014,15.776l5.229-0.835l-2.163,4.834
				c-0.486,1.079-49.201,109.277-105.847,189.004L2562.998,3219.506z M2560.921,3211.015l0.72,0.508
				c48.852-69.419,91.484-159.36,101.448-180.913c-32.288,4.517-77.332,4.731-118.75-16.338
				c-13.169,9.229-111.533,73.647-211.523,16.309c-6.811,7.9-37.542,44.082-68.223,88.877
				C2299.798,3112.436,2457.505,3089.301,2560.921,3211.015z"/>
		</g>
		<g>
			<path style="fill:#50506D;" d="M2562.325,3216.721c-26.875,37.173-55.498,68.383-81.985,80.04
				c-43.722,19.207-124.783,25.675-189.828,17.587c-58.949-7.302-104.729-26.495-97.6-58.738
				c9.123-41.53,37.267-90.599,65.885-132.596c0,0,184.514-47.01,300.196,91.303L2562.325,3216.721z"/>
		</g>
		<g style="opacity:0.4;">
			<path style="fill:#FFFFFF;" d="M2217.913,3275.61c9.122-41.528,37.266-90.598,65.885-132.595c0,0,158-40.149,273.252,63.484
				c-115.964-128.54-293.252-83.484-293.252-83.484c-28.619,41.997-56.763,91.067-65.885,132.595
				c-3.397,15.364,5.238,27.759,21.569,37.322C2217.163,3287.644,2216.527,3281.877,2217.913,3275.61z"/>
		</g>
		<g style="opacity:0.3;">
			<path style="fill:#000072;" d="M2555.869,3026.714c0,0-14.949,11.281-39.171,21.703c-18.788,36.76-46.041,86.345-75.761,128.176
				c-25.629,35.939-52.978,66.15-78.393,77.535c-33.739,15.084-90.767,22.373-144.39,20.817
				c5.29,24.039,45.022,38.516,94.302,44.294c62.644,7.376,140.609,0.645,182.561-18.111c25.416-11.384,52.764-41.596,78.393-77.535
				c54.985-77.392,101.591-181.416,101.591-181.416C2641.065,3047.619,2596.533,3047.977,2555.869,3026.714z"/>
		</g>
		<g>
			<path style="fill:#50506D;" d="M3147.149,3265.289v0.074c-9.746,37.645-21.054,70.082-33.925,89.648
				c-28.866,43.82-141.873,71.049-229.586,66.882c-64.948-3.05-116.058-23.36-108.916-66.882
				c7.663-46.646,23.955-98.873,39.355-141.874C2814.077,3213.137,2991.364,3138.518,3147.149,3265.289z"/>
		</g>
		<g style="opacity:0.4;">
			<path style="fill:#FFFFFF;" d="M2802.573,3375.01c7.662-46.646,23.955-98.872,39.355-141.873c0,0,154.764-65.12,302.156,29.724
				c-155.037-123.335-330.008-49.724-330.008-49.724c-15.4,43-31.693,95.227-39.355,141.873
				c-4.033,24.575,10.512,41.746,35.627,52.59C2803.46,3398.65,2800.466,3387.847,2802.573,3375.01z"/>
		</g>
		<g>
			<path style="fill:#FFEBF6;" d="M3190.67,3004.085c-0.595,5.652-15.623,154.074-43.521,261.204
				c-155.785-126.771-333.072-52.152-333.072-52.152c18.376-51.184,35.636-89.35,35.636-89.35
				c56.541,0,104.303-28.418,120.224-67.552c24.328,21.799,56.764,35.265,92.474,35.265
				C3121.408,3091.501,3171.625,3055.12,3190.67,3004.085z"/>
			<path style="fill:#000072;" d="M3148.797,3270.317l-3.455-2.808c-152.593-124.18-328.396-52.466-330.156-51.733l-6.001,2.524
				l2.2-6.128c18.206-50.708,35.549-89.18,35.723-89.561l0.761-1.685h1.846c54.321,0,101.567-26.431,117.571-65.771l1.533-3.765
				l3.028,2.715c24.854,22.271,57.017,34.536,90.566,34.536c56.015,0,106.482-34.38,125.576-85.557l7.881-21.118l-2.41,22.949
				c-2.7,26.05-17.49,161.055-43.542,261.094L3148.797,3270.317z M2938.115,3188.813c61.079,0,136.501,15.273,207.368,71.465
				c21.624-84.888,35.266-193.228,40.41-238.73c-23.755,44.18-71.316,72.817-123.481,72.817c-33.635,0-65.938-11.836-91.409-33.403
				c-18.01,39.004-65.259,65.093-119.429,65.679c-3.352,7.554-17.495,39.907-32.7,81.646
				C2834.512,3202.758,2879.771,3188.813,2938.115,3188.813z"/>
		</g>
		<g>
			<g>
				<path style="fill:#000072;" d="M2973.444,3059.107c-1.157-0.97-2.384-1.865-3.507-2.872c-0.366,0.899-0.834,1.762-1.232,2.65
					C2970.27,3059.011,2971.864,3059.034,2973.444,3059.107z"/>
			</g>
			<g style="opacity:0.3;">
				<path style="fill:#000072;" d="M3079.701,3079.877c-7.093,46.394-16.633,99.498-28.517,145.132v0.074
					c-9.746,37.645-21.055,70.083-33.925,89.648c-28.865,43.82-141.873,71.049-229.585,66.882
					c-6.146-0.289-12.114-0.785-17.973-1.386c16.828,20.842,55.261,31.353,100.457,33.475
					c87.712,4.167,200.72-23.062,229.585-66.882c12.871-19.565,24.179-52.003,33.925-89.647v-0.074
					c27.898-107.13,42.927-255.551,43.521-261.204C3161.562,3037.77,3124.93,3069.737,3079.701,3079.877z"/>
			</g>
		</g>
		<g>
			<path style="fill:#FFEBF6;" d="M1729.462,3215.519c0,0-26.619,74.486-34.698,135.818"/>
			<path style="fill:#000072;" d="M1697.6,3351.713l-5.674-0.752c8.027-60.928,34.575-135.659,34.841-136.406l5.391,1.924
				C1731.892,3217.221,1705.547,3291.391,1697.6,3351.713z"/>
		</g>
		<g>
			<path style="fill:#FFEBF6;" d="M2068.852,3001.332c-1.414,88.756-39.876,198.265-62.567,255.477
				c-137.931-146.487-335.08-104.378-335.08-104.378c45.977-111.52,99.766-183.684,99.766-183.684
				c13.911,0,27.154-2.456,39.652-6.92c18.897,30.801,54.831,51.558,96.121,51.558c38.76,0,72.684-18.229,92.399-45.829
				c16.143,16.143,37.422,26.039,60.781,26.039C2062.901,2996.273,2065.876,2998.876,2068.852,3001.332z"/>
			<path style="fill:#000072;" d="M2007.286,3262.05l-3.083-3.276c-135.264-143.657-330.439-103.965-332.4-103.545l-5.315,1.138
				l2.073-5.024c45.586-110.571,99.575-183.579,100.115-184.302l0.859-1.152h1.436c13.132,0,26.147-2.275,38.689-6.758l2.188-0.781
				l1.216,1.982c18.994,30.957,54.89,50.19,93.682,50.19c36.436,0,70.107-16.685,90.071-44.629l1.965-2.744l2.388,2.388
				c16.248,16.245,37.114,25.195,58.757,25.195h1.098l0.815,0.737c2.947,2.651,5.891,5.225,8.836,7.656l1.062,0.874l-0.022,1.377
				c-1.421,89.043-39.936,198.921-62.771,256.489L2007.286,3262.05z M1736.455,3144.213c69.541,0,181.035,16.538,268.811,107.383
				c22.722-57.905,58.965-163.149,60.701-248.94c-2.383-1.992-4.766-4.072-7.146-6.211c-21.728-0.283-42.632-8.955-59.316-24.561
				c-21.235,27.837-55.652,44.36-92.761,44.36c-39.949,0-77.014-19.473-97.332-50.972c-12.024,4.048-24.446,6.177-36.983,6.328
				c-6.877,9.507-54.829,77.368-96.575,177.09C1685.369,3147.138,1707.207,3144.213,1736.455,3144.213z"/>
		</g>
		<g>
			<path style="fill:#50506D;" d="M2006.285,3256.809c-10.638,26.856-31.767,47.985-58.55,58.772
				c-42.554,17.186-114.123,39.43-199.679,39.43c-21.129,0-38.76-1.339-53.268-3.645c-81.538-12.945-69.486-55.425-69.486-55.425
				c11.829-52.375,28.271-100.807,45.902-143.51C1671.204,3152.431,1868.354,3110.322,2006.285,3256.809z"/>
		</g>
		<g style="opacity:0.4;">
			<path style="fill:#FFFFFF;" d="M1650.303,3315.942c11.829-52.375,28.271-100.808,45.902-143.511
				c0,0,155.435-33.184,286.835,61.926c-135.77-119.502-311.835-81.926-311.835-81.926c-17.631,42.703-34.073,91.135-45.902,143.511
				c0,0-7.536,26.726,30.045,44.241C1647.09,3327.373,1650.303,3315.942,1650.303,3315.942z"/>
		</g>
		<g style="opacity:0.3;">
			<path style="fill:#000072;" d="M2059.924,2993.594c-23.36,0-44.638-9.895-60.781-26.039
				c-12.173,17.042-29.776,30.494-50.578,38.306c-9.368,79.869-40.327,167.286-59.773,216.315
				c-10.638,26.856-31.767,47.985-58.549,58.772c-42.554,17.186-114.124,39.43-199.68,39.43c-0.032,0-0.059-0.002-0.091-0.002
				c7.729,11.832,25.288,24.793,64.317,30.988c14.507,2.307,32.138,3.645,53.267,3.645c85.556,0,157.125-22.244,199.68-39.43
				c26.781-10.787,47.911-31.916,58.549-58.772c22.691-57.212,61.153-166.721,62.568-255.477
				C2065.875,2998.876,2062.9,2996.273,2059.924,2993.594z"/>
		</g>
		<g>
			<path style="fill:#FFEBF6;" d="M1372.361,3128.103c0,0,25.086,93.731,61.83,153.81"/>
			<path style="fill:#000072;" d="M1431.751,3283.407c-36.538-59.741-61.902-153.623-62.153-154.561l5.527-1.484
				c0.249,0.938,25.405,94.033,61.509,153.057L1431.751,3283.407z"/>
		</g>
		<g>
			<path style="fill:#FFEBF6;" d="M1575.458,3039.051c-194.918-38.909-298.255,83.398-298.255,83.398
				c-37.793-126.622-51.556-252.872-51.556-252.872c18.376,13.986,41.29,22.319,66.137,22.319c25.518,0,48.879-8.853,67.478-23.51
				c22.095,44.044,67.552,74.323,120.224,74.323c19.417,0,37.867-4.167,54.532-11.606
				C1543.244,2962.125,1559.685,3002.745,1575.458,3039.051z"/>
		</g>
		<g>
			<path style="fill:#50506D;" d="M1607.076,3150.794c-37.421,74.024-113.901,112.115-172.896,131.085
				c-19.344,6.324-36.827,10.491-50.441,13.243c-17.409,3.496-35.115-4.241-44.043-19.565
				c-25.815-44.563-46.349-98.873-62.493-153.108c0,0,103.336-122.307,298.255-83.398c12.349,28.492,24.402,54.382,32.213,70.9
				C1613.771,3122.896,1613.547,3137.998,1607.076,3150.794z"/>
		</g>
		<g style="opacity:0.4;">
			<path style="fill:#FFFFFF;" d="M1413.739,3285.122c-17.41,3.496-35.115-4.241-44.043-19.565
				c-25.815-44.563-46.349-98.872-62.493-153.108c0,0,39.317-46.438,115.086-72.979c-98.638,22.222-150.086,82.979-150.086,82.979
				c16.144,54.236,36.677,108.545,62.493,153.108c8.928,15.325,26.633,23.062,44.043,19.565
				c13.614-2.751,31.097-6.919,50.441-13.242c0.524-0.168,1.074-0.366,1.601-0.54
				C1424.619,3282.83,1418.899,3284.08,1413.739,3285.122z"/>
		</g>
		<g style="opacity:0.3;">
			<g>
				<path style="fill:#000072;" d="M1607.671,3109.951c-7.812-16.518-19.865-42.407-32.214-70.9
					c-15.773-36.306-32.214-76.926-41.439-107.949c-16.665,7.44-35.115,11.606-54.531,11.606c-15.974,0-31.217-2.924-45.41-8.039
					c-0.554,1.037-1.122,2.069-1.702,3.093c9.448,27.572,22.5,59.511,35.207,88.763c12.349,28.492,24.402,54.382,32.214,70.9
					c6.099,12.945,5.876,28.047-0.596,40.843c-35.671,70.562-106.798,108.43-164.476,128.251c1.655,3.017,3.271,6.101,4.971,9.036
					c8.927,15.324,26.633,23.062,44.042,19.565c13.615-2.752,31.097-6.918,50.441-13.243
					c58.996-18.97,135.475-57.061,172.896-131.085C1613.547,3137.998,1613.77,3122.896,1607.671,3109.951z"/>
			</g>
		</g>
		<g>
			<path style="fill:#FFEBF6;" d="M1671.204,2935.716c-15.4,20.085-39.653,33.031-66.956,33.031
				c-29.312,0-55.127-14.954-70.229-37.645c-16.665,7.44-35.115,11.606-54.532,11.606c-52.672,0-98.129-30.28-120.224-74.323
				c-18.599,14.658-41.959,23.51-67.478,23.51c-24.847,0-47.762-8.333-66.137-22.319c-26.113-19.938-43.001-51.409-43.001-86.82
				c0-52.226,36.751-95.823,85.779-106.536c-4.91-12.277-7.663-25.592-7.663-39.654c0-47.464,31.023-87.711,73.875-101.55
				c-5.058,24.179-36.677,205.26,136.89,219.245C1471.526,2754.263,1493.101,2939.436,1671.204,2935.716z"/>
			<path style="fill:#000072;" d="M1604.248,2971.611c-28.445,0-54.9-13.765-71.252-36.938
				c-16.978,7.231-34.966,10.898-53.508,10.898c-51.101,0-97.227-27.817-121.199-72.842c-19.456,14.424-42.373,22.026-66.504,22.026
				c-24.719,0-48.188-7.92-67.871-22.905c-28.044-21.411-44.128-53.882-44.128-89.092c0-51.099,35.464-96.23,84.795-108.574
				c-4.434-12.109-6.68-24.751-6.68-37.617c0-47.715,30.483-89.619,75.857-104.272l4.688-1.514l-1.008,4.824
				c-3.525,16.846-18.884,103.857,24.995,162.534c23.477,31.396,60.256,49.316,109.324,53.271l2.339,0.19l0.273,2.329
				c0.212,1.807,22.942,178.979,191.66,178.979c1.694,0,3.391-0.015,5.117-0.054l5.952-0.122l-3.623,4.727
				C1656.834,2959.164,1631.602,2971.611,1604.248,2971.611z M1535.061,2927.504l1.34,2.012
				c15.156,22.773,40.52,36.372,67.847,36.372c23.535,0,45.388-9.863,60.842-27.256c-162.317-0.571-192.744-160.386-196.072-181.714
				c-49.641-4.458-87.036-23.076-111.169-55.352c-42.021-56.191-31.606-136.919-26.978-162.207
				c-40.422,15.171-67.249,53.633-67.249,97.207c0,13.237,2.51,26.221,7.458,38.589l1.255,3.14l-3.301,0.718
				c-48.398,10.576-83.528,54.209-83.528,103.745c0,33.408,15.264,64.224,41.875,84.541c18.674,14.219,40.947,21.733,64.402,21.733
				c23.977,0,46.699-7.92,65.708-22.896l2.754-2.173l1.575,3.135c22.507,44.873,67.595,72.749,117.666,72.749
				c18.533,0,36.487-3.823,53.364-11.357L1535.061,2927.504z"/>
		</g>
		<g style="opacity:0.3;">
			<path style="fill:#000072;" d="M1502.399,2842.59c-1.737,0.069-3.436,0.278-5.19,0.278c-52.671,0-98.128-30.28-120.223-74.323
				c-18.599,14.658-41.96,23.51-67.478,23.51c-24.847,0-47.762-8.333-66.137-22.319c-17.607-13.442-30.857-32.199-37.728-53.801
				c-14.374,18.461-22.996,41.612-22.996,66.822c0,35.411,16.888,66.882,43.001,86.82c18.376,13.986,41.29,22.319,66.137,22.319
				c25.519,0,48.879-8.853,67.478-23.51c22.095,44.044,67.552,74.323,120.225,74.323c19.416,0,37.866-4.167,54.531-11.606
				c15.103,22.691,40.918,37.645,70.229,37.645c27.305,0,51.558-12.947,66.956-33.031
				C1579.694,2937.627,1529.569,2889.674,1502.399,2842.59z"/>
		</g>
		<g>
			<path style="fill:#FFEBF7;" d="M3151.315,2858.343c17.26-21.723,27.601-49.547,27.601-79.902
				c0-39.802-17.855-75.141-45.605-98.202c27.899-29.609,45.605-73.206,45.605-121.862c0-55.573-22.989-104.525-58.029-133.541
				c25.444-30.948,41.067-72.685,41.067-118.661c0-23.659-4.167-46.2-11.606-66.733c-22.765-62.494-76.479-106.387-139.195-106.387
				c0,0-15.623-57.508-55.648-108.172c-39.43-49.92-102.667-93.144-198.117-67.923c0,0-104.155-117.77-219.469-16.071
				c0,0-75.66-135.177-218.277-3.72c0,0-25.815-81.836-106.163-67.552v-0.073c-17.558,11.085-39.356,20.532-66.139,27.899
				c0,0-59.677-43.843-120.973-22.435c-26.719,9.332-45.78,57.225-61.297,106.799c0,0-372.202,118.587-720.897,61.006
				c0,0-63.386,131.16,44.489,222.295c0,0-101.031,155.636,46.498,267.23c0,0-0.223,0.894-0.521,2.679
				c-5.058,24.179-36.677,205.26,136.89,219.245c0,0,21.574,185.173,199.678,181.453c5.284-0.076,397.723,62.863,397.649,65.616
				c118.81,97.681,229.734,0.894,229.734,0.894c11.159,9.968,22.393,18.152,33.627,24.698
				c107.204,63.237,211.88-15.994,211.88-15.994c42.257,22.095,88.532,21.723,123.796,16.069
				c34.147-5.58,58.028-16.069,58.028-16.069c-1.264,5.505-2.009,11.01-2.009,16.739c0,53.043,56.318,96.119,125.805,96.119
				c56.541,0,104.304-28.418,120.224-67.552c24.328,21.799,56.765,35.265,92.475,35.265c58.997,0,109.214-36.381,128.259-87.415
				c0,0,0-0.074,0-0.149c5.283-14.062,8.109-29.239,8.109-45.084C3198.779,2918.679,3180.329,2882.67,3151.315,2858.343z"/>
		</g>
		<g style="opacity:0.3;">
			<path style="fill:#000072;" d="M1594.025,2201.59c205.944-27.606,360.031-111.68,468.672-198.273
				c-25.442,2.913-58.199-2.396-100.622-21.509c0,0-383.614,122.223-743.001,62.877c0,0-4.466,9.298-9.074,24.624
				C1237.182,2151.621,1326.806,2237.41,1594.025,2201.59z"/>
		</g>
		<g>
			<g>
				<path style="fill:#FFFFFF;" d="M3161.954,2291.175c0-23.659-4.167-46.2-11.606-66.733
					c-22.765-62.494-76.479-106.387-139.195-106.387c0,0-15.623-57.508-55.648-108.172c-39.43-49.92-102.667-93.144-198.117-67.923
					c0,0-104.155-117.77-219.469-16.071c0,0-75.66-135.177-218.277-3.72c0,0-25.815-81.836-106.163-67.552v-0.073
					c-17.558,11.085-39.356,20.532-66.139,27.899c0,0-1.697,42.811-26.867,74.036c2.949,2.354,5.756,4.842,8.476,7.418
					c26.175-7.313,47.568-16.616,64.834-27.517v0.073c80.348-14.283,106.163,67.552,106.163,67.552
					c142.617-131.457,218.277,3.72,218.277,3.72c115.314-101.699,219.47,16.071,219.47,16.071
					c95.449-25.221,158.686,18.003,198.116,67.923c40.026,50.664,55.648,108.172,55.648,108.172
					c62.717,0,116.431,43.893,139.195,106.387c7.44,20.533,11.606,43.074,11.606,66.733c0,1.233-0.133,2.427-0.154,3.654
					C3154.647,2351.44,3161.954,2322.332,3161.954,2291.175z"/>
			</g>
		</g>
		<g>
			<g style="opacity:0.3;">
				<path style="fill:#000072;" d="M2723.503,2998.625c0.34,4.231,1.035,8.386,2.069,12.451c-0.306,0.129-0.876,0.369-1.598,0.662
					c1.237-0.503,1.945-0.808,1.945-0.808c-0.662,2.886-1.159,5.776-1.504,8.694c0.318-2.607,0.774-5.19,1.339-7.771
					c11.642,43.865,62.409,76.934,123.29,76.934c56.541,0,104.304-28.418,120.223-67.551c24.327,21.799,56.765,35.266,92.475,35.266
					c58.996,0,109.214-36.382,128.259-87.417c0,0,0-0.073,0-0.149c3.583-9.536,5.933-19.619,7.14-30.044
					c0.505,3.223,0.908,6.477,1.19,9.766c-0.928-11.729-3.389-23.037-7.253-33.718c-25.194,34.358-66.93,56.86-114.277,56.86
					c-36.488,0-69.633-13.467-94.491-35.266c-16.266,39.133-65.07,67.551-122.843,67.551c-23.905,0-46.205-4.971-65.378-13.472
					c-14.047,6.414-29.17,10.071-44.718,10.071c-8.891,0-17.528-0.747-25.916-2.068
					C2723.47,2998.618,2723.486,2998.623,2723.503,2998.625z"/>
			</g>
			<g style="opacity:0.3;">
				<path style="fill:#000072;" d="M1329.456,2578.049c5.144,59.851,33.903,132.551,141.4,141.213
					c0,0,21.574,185.173,199.678,181.453c5.283-0.076,397.723,62.864,397.649,65.618c118.81,97.681,229.734,0.894,229.734,0.894
					c11.16,9.966,22.393,18.152,33.627,24.697c107.204,63.237,211.88-15.994,211.88-15.994
					c42.256,22.095,88.532,21.721,123.796,16.067c7.045-1.15,13.621-2.515,19.672-3.948c0.007,0.002,0.013,0.005,0.02,0.007
					c-33.86-14.768-60.009-41.899-72.791-78.318c-22.032-1.882-45.011-7.292-66.936-18.511c0,0-106.957,79.231-216.497,15.994
					c-11.479-6.545-22.958-14.731-34.362-24.697c0,0-113.341,96.787-234.74-0.894c0.077-2.754-400.983-66.475-406.315-65.618
					c-110.917,17.808-121.959-78.098-119.469-133.101c-1.194-13.25-1.144-26.023-0.57-37.024
					c-80.138-7.805-135.099-52.307-170.507-100.437c-10.535-1.636-20.825-3.831-30.849-6.55c-1.449,7.732-3.65,21.868-4.428,39.336
					C1329.452,2578.176,1329.453,2578.11,1329.456,2578.049z"/>
			</g>
		</g>
		<g>
			<path style="fill:#FFEBF6;" d="M2138.114,2839.818c8.11,15.251,12.945,33.031,12.945,52.077
				c0,52.746-36.081,96.119-82.133,101.179c-2.976,0.371-5.951,0.52-9.002,0.52c-23.36,0-44.638-9.895-60.781-26.039
				c-19.715,27.601-53.639,45.829-92.399,45.829c-41.29,0-77.224-20.757-96.121-51.558c-12.498,4.464-25.741,6.92-39.652,6.92
				c-31.916,0-61.08-12.721-83.399-33.851c-26.708-25.147-43.671-62.345-43.671-103.782c0-27.305,7.44-52.673,20.087-74.025
				c-33.404-18.748-56.021-54.457-56.021-95.523c0-60.411,48.953-109.437,109.437-109.437l458.727,101.997
				c15.103,20.086,24.477,47.762,24.477,78.414C2200.608,2784.17,2174.048,2827.395,2138.114,2839.818z"/>
		</g>
		<g>
			<path style="fill:#FFEBF6;" d="M2068.926,2993.074c-2.976,0.372-5.952,0.521-9.002,0.521"/>
			<path style="fill:#000072;" d="M2059.925,2996.454v-5.723c3.144,0,5.974-0.161,8.647-0.493l0.708,5.674
				C2066.367,2996.279,2063.309,2996.454,2059.925,2996.454z"/>
		</g>
		<g>
			<path style="fill:#FFEBF6;" d="M1770.97,2968.747c-31.916,0-61.079-12.722-83.398-33.85"/>
			<path style="fill:#000072;" d="M1770.97,2971.606c-31.458,0-61.775-12.3-85.366-34.629l3.936-4.16
				c22.524,21.323,51.443,33.066,81.431,33.066V2971.606z"/>
		</g>
		<g>
			<path style="fill:#000072;" d="M3150.386,2259.54c-7.036,0-13.865-3.696-17.553-10.269c-5.437-9.683-1.995-21.938,7.688-27.378
				c67.058-37.656,49.292-89.546,47.046-95.337c-3.152-8.13-0.779-17.544,5.984-23.047c63.098-51.362,19.922-117.996,14.79-125.425
				c-4.6-6.66-4.802-15.496-0.444-22.317c26.518-41.509,29.302-84.429,7.441-114.814c-15.32-21.296-39.4-30.891-62.803-25.032
				c-55.408,13.85-61.934,108.167-61.995,109.119c-0.393,6.301-3.726,12.068-8.994,15.544c-5.271,3.477-11.87,4.29-17.817,2.178
				c-18.113-6.445-33.032-5.864-45.606,1.77c-27.959,16.98-40.313,65.745-42.712,83.098c-1.521,10.991-11.614,18.711-22.644,17.188
				c-10.989-1.504-18.691-11.602-17.21-22.593c0.447-3.316,11.514-81.477,61.563-111.99c16.924-10.32,35.789-14.077,56.323-11.287
				c6.663-37.231,27.283-106.531,89.336-122.046c39.153-9.778,80.439,6.138,105.205,40.564
				c23.198,32.246,34.546,87.473,0.396,148.916c20.962,37.644,36.462,105.422-19.217,159.255
				c7.51,34.678,0.315,92.427-68.95,131.323C3157.097,2258.71,3153.719,2259.54,3150.386,2259.54z"/>
		</g>
		<g>
			<path style="fill:#000072;" d="M2918.131,3288.113c-1.828,23.54-4.918,46.438-7.895,69.126
				c-1.584,11.326-2.814,22.637-4.79,33.726c-1.923,11.108-3.788,22.095-6.921,32.913l-0.095,0.327
				c-2.322,8.018-10.706,12.637-18.724,10.315c-6.659-1.929-10.97-8.054-10.911-14.663c0.114-12.029,2.099-23.801,4.749-35.313
				c2.663-11.516,6.42-22.739,10.438-33.801c4.031-11.064,8.537-21.943,13.446-32.644c5.023-10.671,10.313-21.196,16.638-31.343
				c0.643-1.033,2.002-1.348,3.035-0.703C2917.821,3286.501,2918.19,3287.322,2918.131,3288.113z"/>
		</g>
		<g>
			<path style="fill:#000072;" d="M2347.791,3182.344c-8.73,22.966-16.895,45.557-23.605,68.125
				c-3.491,11.238-6.184,22.581-9.218,33.655c-3.147,11.096-5.409,22.156-8.964,33.108l-0.262,0.808
				c-2.568,7.915-11.067,12.251-18.983,9.68c-6.625-2.148-10.737-8.467-10.397-15.107c0.668-12.944,3.315-25.71,7.426-37.803
				c3.975-12.163,9.408-23.74,15.467-34.824c6.029-11.111,12.795-21.743,20.213-31.846c7.539-10.039,15.534-19.651,24.818-28.262
				c0.887-0.823,2.272-0.771,3.095,0.115c0.584,0.632,0.727,1.514,0.443,2.266L2347.791,3182.344z"/>
		</g>
		<g>
			<path style="fill:#000072;" d="M3147.198,3282.88c-3.884,0-7.793-1.284-11.04-3.931
				c-145.911-118.813-313.567-50.41-315.247-49.702c-8.909,3.745-19.17-0.444-22.915-9.351c-3.745-8.911,0.439-19.17,9.35-22.915
				c7.637-3.203,188.875-77.114,350.911,54.829c7.495,6.104,8.623,17.124,2.52,24.619
				C3157.32,3280.678,3152.278,3282.88,3147.198,3282.88z"/>
		</g>
		<g>
			<path style="fill:#000072;" d="M2559.007,3230.615c-4.966,0-9.9-2.1-13.362-6.187c-107.813-127.246-281.257-84.18-282.998-83.726
				c-9.331,2.397-18.901-3.184-21.33-12.534c-2.432-9.346,3.152-18.892,12.492-21.333c7.962-2.075,196.27-49.336,318.54,94.966
				c6.247,7.373,5.334,18.418-2.039,24.663C2567.022,3229.252,2563.003,3230.615,2559.007,3230.615z"/>
		</g>
		<g>
			<path style="fill:#000072;" d="M2346.5,3337.87c-62.383,0-124.114-10.864-153.023-34.243
				c-16.943-13.701-24.018-31.812-19.927-50.986c21.116-98.95,138.516-233.286,143.503-238.955
				c7.331-8.33,20.042-9.146,28.374-1.816c8.34,7.329,9.156,20.034,1.824,28.374c-1.152,1.313-115.449,132.119-134.37,220.786
				c-0.447,2.095-1.194,5.601,5.884,11.328c38.985,31.519,188.472,34.712,253.899,5.4c62.356-27.92,148.823-196.44,176.878-259.014
				c4.541-10.137,16.44-14.673,26.575-10.127c10.132,4.541,14.665,16.44,10.124,26.572
				c-10.959,24.458-109.597,240.078-197.141,279.277C2455.047,3329.716,2400.528,3337.87,2346.5,3337.87z"/>
		</g>
		<g>
			<path style="fill:#000072;" d="M2902.368,3442.323c-36.538,0-70.378-4.629-95.439-14.414
				c-38.521-15.044-57.486-42.798-52.027-76.147c16.97-103.716,74.111-230.913,76.533-236.279
				c4.575-10.117,16.479-14.6,26.604-10.044c10.12,4.575,14.617,16.484,10.046,26.606c-0.571,1.265-57.39,127.788-73.496,226.211
				c-0.911,5.566-3.33,20.356,26.968,32.188c74.455,29.087,244.018,0.4,274.895-46.494c38.94-59.131,66.807-266.938,74.258-342.021
				c1.096-11.05,10.965-19.136,21.995-18.022c11.052,1.099,19.121,10.942,18.025,21.992
				c-1.133,11.426-28.347,280.688-80.688,360.171C3098.262,3414.33,2992.183,3442.323,2902.368,3442.323z"/>
		</g>
		<g>
			<path style="fill:#000072;" d="M1731.735,3216.323c-1.796,23.997-5.024,47.219-8.133,70.171
				c-1.606,11.462-2.904,22.883-4.951,34.043c-2.046,11.165-3.961,22.183-7.255,32.988l-0.135,0.442
				c-2.725,8.936-12.177,13.972-21.113,11.248c-7.248-2.209-11.926-8.87-11.981-16.067c-0.082-12.375,2.094-24.404,4.85-36.14
				c2.888-11.711,6.99-23.064,11.369-34.221c4.398-11.157,9.319-22.09,14.677-32.81c5.485-10.684,11.255-21.196,18.162-31.265
				c0.773-1.125,2.314-1.414,3.442-0.64c0.752,0.515,1.13,1.375,1.069,2.222L1731.735,3216.323z"/>
		</g>
		<g>
			<path style="fill:#000072;" d="M2006.311,3274.335c-4.656,0-9.302-1.846-12.744-5.503
				c-129.268-137.329-316.826-99.692-318.706-99.292c-9.46,1.978-18.735-4.043-20.74-13.486c-2.005-9.448,4.009-18.73,13.452-20.747
				c8.438-1.802,208.43-42.427,351.477,109.531c6.626,7.041,6.291,18.115-0.747,24.741
				C2014.925,3272.758,2010.613,3274.335,2006.311,3274.335z"/>
		</g>
		<g>
			<path style="fill:#000072;" d="M1748.079,3375.116c-67.4,0-111.831-13.569-132.061-40.327
				c-14.602-19.321-11.445-38.413-10.293-43.315c43.23-191.167,144.868-328.955,149.175-334.727
				c6.641-8.901,19.238-10.732,28.142-4.097c8.899,6.641,10.732,19.233,4.099,28.135l0,0
				c-1.004,1.348-100.938,137.07-142.202,319.614c-0.171,0.752-0.022,0.41-0.115,0.654c-0.117,1.382-0.061,5.552,3.992,10.381
				c5.92,7.056,27.441,23.467,99.263,23.467c81.169,0,149.294-20.625,192.153-37.93c21.57-8.711,38.843-26.045,47.388-47.559
				c23.262-58.564,62.148-169.717,61.25-256.138c-0.115-11.104,8.794-20.2,19.897-20.317c0.073,0,0.144,0,0.215,0
				c11.008,0,19.988,8.862,20.102,19.897c0.969,93.306-39.736,210.093-64.087,271.401c-12.583,31.685-37.991,57.202-69.709,70.01
				C1909.124,3352.905,1835.703,3375.116,1748.079,3375.116z M1644.671,3301.449L1644.671,3301.449L1644.671,3301.449z"/>
		</g>
		<g>
			<path style="fill:#000072;" d="M1377.313,3134.004c13.036,23.723,24.819,47.454,36.829,70.669
				c6.011,11.599,12.281,22.935,17.949,34.382c5.727,11.414,11.536,22.534,16.415,34.114l0.212,0.503
				c3.618,8.586-0.411,18.481-8.997,22.097c-7.155,3.015-15.225,0.706-19.808-5.112c-8.789-11.167-15.193-23.623-20.82-36.187
				c-5.444-12.644-9.483-25.762-13.124-38.877c-3.564-13.14-6.471-26.414-8.804-39.775c-2.202-13.408-3.998-26.838-4.476-40.576
				c-0.047-1.355,1.014-2.493,2.37-2.542c0.956-0.032,1.804,0.486,2.238,1.27L1377.313,3134.004z"/>
		</g>
		<g>
			<path style="fill:#000072;" d="M1277.22,3139.902c-4.004,0-8.025-1.367-11.311-4.16c-7.351-6.245-8.276-17.241-2.051-24.609
				c4.49-5.317,112.302-129.683,315.022-89.268c9.48,1.89,15.632,11.104,13.743,20.586c-1.892,9.478-11.104,15.625-20.583,13.74
				c-181.816-36.235-277.495,72.905-281.477,77.568C1287.095,3137.812,1282.173,3139.902,1277.22,3139.902z"/>
		</g>
		<g>
			<path style="fill:#000072;" d="M1375.371,3316.078c-21.628,0-41.975-11.348-53.047-30.474
				c-87.085-150.469-115.457-403.174-116.621-413.862c-1.204-11.035,6.77-20.962,17.808-22.168
				c11.089-1.138,20.967,6.772,22.173,17.808c0.276,2.534,28.645,255.005,111.448,398.076c4.507,7.783,13.594,11.782,22.62,9.961
				c47.529-9.629,163.071-41.934,209.414-133.716c3.696-7.324,3.813-15.767,0.32-23.164
				c-20.874-44.185-58.337-126.543-74.722-181.714c-3.162-10.645,2.908-21.836,13.552-25c10.642-3.159,21.838,2.905,25.002,13.555
				c16.204,54.565,56.121,141.245,72.529,175.981c8.828,18.691,8.542,40-0.784,58.467
				c-54.277,107.5-184.048,144.214-237.322,155.005C1383.609,3315.673,1379.466,3316.078,1375.371,3316.078z"/>
		</g>
		<g>
			<path style="fill:#000072;" d="M1604.273,2988.852c-29.495,0-57.202-12.349-76.819-33.672
				c-15.427,5.073-31.494,7.637-47.944,7.637c-51.267,0-98.083-24.868-126.758-66.147c-18.667,10.083-39.382,15.332-60.945,15.332
				c-71.267,0-129.246-57.979-129.246-129.243c0-52.935,32.971-100.322,80.901-119.775c-1.853-8.657-2.786-17.49-2.786-26.416
				c0-55.225,35.286-103.726,87.805-120.684c10.566-3.423,21.902,2.388,25.315,12.959c3.413,10.566-2.388,21.899-12.957,25.313
				c-35.857,11.577-59.949,44.697-59.949,82.412c0,11.03,2.095,21.855,6.225,32.188c2.197,5.488,1.865,11.665-0.903,16.885
				c-2.771,5.225-7.698,8.965-13.474,10.225c-40.54,8.857-69.963,45.405-69.963,86.895c0,49.092,39.939,89.028,89.031,89.028
				c20.066,0,39.097-6.636,55.034-19.194c4.746-3.735,10.93-5.142,16.816-3.833c5.898,1.318,10.891,5.21,13.601,10.61
				c19.566,39.004,58.745,63.232,102.251,63.232c16.094,0,31.682-3.32,46.333-9.858c8.962-4.019,19.504-0.947,24.937,7.217
				c11.953,17.954,31.948,28.677,53.494,28.677c20.151,0,38.74-9.17,50.998-25.156c6.76-8.809,19.382-10.474,28.193-3.721
				c8.813,6.758,10.479,19.38,3.721,28.193C1667.254,2973.945,1637.034,2988.852,1604.273,2988.852z"/>
		</g>
		<g>
			<path style="fill:#000072;" d="M1665.718,2955.942c-156.626,0.005-200.601-135.986-211.16-183.34
				c-49.197-7.007-86.746-27.969-111.753-62.441c-42.549-58.657-34.812-138.652-29.685-169.658
				c-120.09-99.331-71.416-227.671-49.661-271.172c-101.282-99.302-38.04-233.848-37.363-235.244
				c4.834-10,16.853-14.18,26.855-9.355c9.985,4.829,14.175,16.826,9.373,26.816c-2.334,4.893-54.956,118.54,39.336,198.198
				c7.742,6.538,9.407,17.817,3.889,26.313c-3.662,5.693-88.743,141.519,41.76,240.215c6.375,4.819,9.287,12.959,7.424,20.728
				c-0.208,0.884-21.15,92.139,20.723,149.678c20.344,27.959,53.228,43.955,97.729,47.539c9.563,0.771,17.251,8.188,18.359,17.72
				c0.869,7.188,23.291,176.909,194.414,162.939c11.055-0.884,20.771,7.339,21.675,18.408c0.903,11.069-7.339,20.776-18.408,21.68
				C1681.123,2955.624,1673.286,2955.942,1665.718,2955.942z"/>
		</g>
		<g>
			<path style="fill:#000072;" d="M2420.081,3071.313c-38.154,0.005-80.622-10.903-122.334-43.564
				c-37.292,24.78-143.132,78.472-251.304-19.258c-8.24-7.446-8.884-20.161-1.438-28.403c7.446-8.237,20.159-8.887,28.401-1.44
				c107.646,97.271,207.773,12.119,211.987,8.452c7.646-6.665,19.063-6.597,26.626,0.166c103.701,92.793,215.298,11.157,220,7.637
				c6.197-4.639,14.551-5.342,21.414-1.758c73.247,38.296,163.533-0.205,164.438-0.601c10.168-4.424,22.021,0.21,26.467,10.371
				c4.446,10.156-0.159,21.992-10.31,26.46c-4.219,1.855-100.503,43.286-188.369,4.629
				C2525.301,3046.498,2477.603,3071.308,2420.081,3071.313z"/>
		</g>
		<g>
			<path style="fill:#000072;" d="M2579.786,2664.47c-8.267,14.641-13.104,30.137-14.27,45.413
				c-0.445,7.649-0.25,15.229,1.059,22.583c1.438,7.305,3.21,14.426,6.141,21.113c2.972,6.655,6.626,12.927,10.861,18.787
				c4.433,5.73,9.306,11.096,14.769,15.869c5.509,4.727,11.541,8.828,17.894,12.361c6.436,3.425,13.262,6.003,20.183,8.25
				c11.253,3.647,17.417,15.728,13.769,26.98c-0.528,1.628-1.232,3.149-2.083,4.548l-0.108,0.166
				c-8.804,14.27-13.625,30.281-13.964,46.489c0.194,8.093,0.645,16.24,2.944,24.075c0.754,4.004,2.538,7.744,3.782,11.638
				c1.883,3.672,3.252,7.576,5.551,11.086c8.11,14.573,20.551,27.043,34.913,36.948c14.582,9.692,31.343,16.436,48.792,20.31
				l0.158,0.037c11.028,2.449,17.985,13.362,15.535,24.39c-1.216,5.493-1.967,10.107-1.382,15.244l0.186,3.845
				c0.19,1.27,0.51,2.522,0.733,3.789c0.278,1.257,0.424,2.542,0.77,3.789l1.278,3.696c3.417,9.861,9.697,19.146,17.936,27.039
				c16.567,15.906,40.126,25.781,64.37,29.263c24.389,3.396,50.049,0.72,72.351-8.589c11.133-4.644,21.418-10.896,30.048-18.506
				c8.647-7.605,15.187-16.777,19.346-26.453l0.158-0.369c4.386-10.2,16.21-14.915,26.411-10.53c2.043,0.879,3.926,2.117,5.5,3.521
				c22.634,20.347,53.241,31.56,83.805,29.905c30.518-1.018,60.264-14.397,80.999-36.56c10.386-11.011,18.52-24.065,23.677-38.171
				c5.253-14.097,7.19-29.26,6.583-44.302c-1.717-30.066-16.698-58.85-40.083-78.345c-8.355-6.965-9.612-19.287-2.938-27.786
				l0.11-0.139c8.572-10.894,15.145-23.433,18.955-36.824c3.862-13.347,5.193-27.544,3.765-41.455
				c-1.407-13.867-5.307-27.48-11.86-39.744c-6.48-12.283-15.345-23.293-25.964-32.146c-8.551-7.129-9.703-19.839-2.574-28.391
				c0.241-0.288,0.488-0.569,0.741-0.84l0.061-0.066c13.945-14.858,24.578-33.296,31.301-53.176
				c6.738-19.897,9.64-41.27,8.662-62.505c-0.953-21.191-5.613-42.168-14.133-61.277c-8.504-19.072-20.933-36.235-36.413-49.087
				c-8.522-7.065-9.719-19.695-2.72-28.25c17.82-21.741,29.512-48.743,34.128-76.946c4.724-28.24,2.237-57.81-6.78-84.761
				c-4.595-13.44-10.551-26.494-18.596-38.079c-7.862-11.643-17.012-22.507-27.885-31.118c-10.759-8.65-22.533-16.089-35.349-20.701
				c-12.785-4.624-26.195-7.053-39.757-7.327l-0.275-0.005c-9.163-0.186-16.786-6.443-19.133-14.839
				c-0.703-2.522-1.848-6.04-2.879-9.094c-1.077-3.174-2.241-6.345-3.418-9.517c-2.437-6.326-5-12.629-7.809-18.826
				c-5.558-12.417-11.852-24.492-18.868-36.025c-14.02-23.052-31.101-43.928-51.174-60.349
				c-9.982-8.293-20.913-15.083-32.346-20.542c-11.447-5.42-23.455-9.597-35.953-11.672c-12.44-2.234-25.225-3.157-38.12-2.134
				c-12.888,0.518-25.805,3.269-38.646,6.262l-0.404,0.095c-7.485,1.746-14.985-0.894-19.803-6.213
				c-0.939-1.042-2.805-2.947-4.34-4.426c-1.621-1.58-3.316-3.145-5.032-4.688c-3.427-3.105-7.064-6.03-10.72-8.906
				c-7.393-5.657-15.158-10.798-23.201-15.229c-16.08-8.838-33.292-14.939-50.649-16.76c-8.675-0.894-17.355-0.764-25.939,0.305
				c-8.589,1.108-16.997,3.525-25.259,6.514c-16.408,6.497-31.904,16.467-45.964,28.833c-8.34,7.336-21.047,6.521-28.382-1.819
				c-0.71-0.808-1.344-1.655-1.901-2.534l-0.563-0.908l-1.425-2.283l-1.871-2.754c-1.285-1.843-2.657-3.701-4.101-5.496
				c-2.856-3.616-5.917-7.119-9.172-10.376c-6.451-6.597-13.579-12.368-21.176-16.978c-15.166-9.353-32.189-13.804-49.608-12.686
				c-17.452,1.182-34.982,7.988-51.49,17.498c-16.587,9.543-32.205,21.948-47.482,35.11l-0.782,0.674
				c-8.774,7.559-22.014,6.575-29.573-2.2c-1.966-2.283-3.379-4.968-4.202-7.676c-0.349-1.162-1.344-3.831-2.12-5.884
				c-0.9-2.202-1.8-4.417-2.881-6.58c-2.013-4.392-4.495-8.54-7.007-12.607c-5.161-8.057-11.128-15.325-18.078-21.396
				c-3.399-3.215-7.259-5.62-11.127-8.386l-6.296-3.188c-2.066-1.301-4.366-1.997-6.665-2.839c-2.322-0.737-4.592-1.941-7.074-2.378
				l-7.511-1.753c-2.538-0.767-5.192-0.854-7.864-1.194c-2.679-0.3-5.413-0.684-8.219-1.121l-0.983-0.151
				c-3.701-0.576-6.235-4.043-5.66-7.744c0.388-2.498,2.102-4.465,4.307-5.303c11.54-4.358,24.429-7.642,37.865-6.462
				c13.4,0.479,27.18,4.658,39.034,11.714c11.956,6.958,22.314,16.311,30.597,26.863c4.167,5.273,7.854,10.85,11.15,16.646
				c1.696,2.869,3.217,5.864,4.713,8.884c1.525,3.206,2.729,5.852,4.22,10.129l-34.557-9.199
				c16.328-15.662,34.567-29.983,55.458-41.245c20.9-11.018,44.524-19.5,70.015-20.637c25.385-1.394,51.6,5.586,72.823,18.816
				c10.701,6.516,20.306,14.36,28.831,23.057c4.302,4.324,8.303,8.892,12.08,13.672c1.905,2.38,3.721,4.829,5.497,7.375l2.636,3.889
				c0.919,1.438,1.63,2.527,2.792,4.548l-30.845-5.264c16.798-14.773,36.244-27.593,58.133-36.206
				c11.034-4.055,22.508-7.292,34.343-8.835c11.816-1.506,23.809-1.663,35.589-0.432c23.623,2.507,45.879,10.596,65.768,21.533
				c9.967,5.496,19.388,11.746,28.32,18.586c4.43,3.472,8.802,7.004,13.001,10.801c2.107,1.892,4.19,3.816,6.251,5.823
				c2.147,2.104,3.917,3.84,6.425,6.614l-20.206-6.121c15.156-3.601,30.555-6.814,46.487-7.524
				c15.821-1.208,32.014-0.144,47.87,2.729c15.922,2.7,31.414,8.015,45.942,14.91c14.529,6.929,28.209,15.537,40.403,25.63
				c24.548,20.09,44.286,44.573,60.179,70.667c7.952,13.074,14.988,26.589,21.198,40.452c3.134,6.921,6.002,13.96,8.737,21.072
				c1.329,3.577,2.644,7.163,3.882,10.808c1.259,3.77,2.377,7.092,3.614,11.501l-19.406-14.841
				c18.366,0.266,36.659,3.596,53.857,9.88c17.247,6.272,32.857,16.03,46.843,27.344c14.113,11.289,25.818,25.088,35.741,39.812
				c10.108,14.68,17.581,30.913,23.266,47.59c11.178,33.506,14.1,69.395,8.344,104.099c-5.693,34.692-20.062,68.271-42.727,95.94
				l-2.72-28.25c20.916,17.385,36.742,39.624,47.478,63.643c10.736,24.075,16.443,50.015,17.605,75.989
				c1.175,25.952-2.331,52.219-10.74,77.085c-8.409,24.829-21.762,48.323-40.187,67.947l-1.772-29.294
				c14.755,12.283,26.969,27.466,35.883,44.377c8.992,16.885,14.393,35.598,16.293,54.541c1.917,18.938,0.145,38.208-5.16,56.567
				c-5.249,18.367-14.244,35.64-26.101,50.662l-2.827-27.925c15.633,13.125,28.732,29.358,38.118,47.634
				c9.401,18.254,15.04,38.55,16.278,59.084c0.948,20.488-1.792,41.27-8.961,60.583c-7.062,19.316-18.149,37.058-32.175,51.924
				c-27.956,29.907-68.011,47.798-108.676,49.163c-40.652,2.139-82.004-12.844-112.281-40.181l32.068-7.378
				c-6.831,16.235-17.361,30.303-29.815,41.299c-12.478,11.028-26.617,19.48-41.442,25.662
				c-29.772,12.31-62.08,15.554-93.358,11.255c-31.2-4.573-62.265-16.924-86.608-40.076c-12.045-11.543-22.216-26.03-28.046-42.781
				l-2.091-6.304c-0.59-2.136-0.956-4.351-1.421-6.528c-0.429-2.188-0.921-4.37-1.252-6.572l-0.51-6.685
				c-0.941-8.894,0.276-18.438,2.106-26.638l15.692,24.424c-22.232-4.607-43.863-13.022-63.317-25.518
				c-19.31-12.627-36.758-29.16-49.016-49.844c-3.293-4.998-5.693-10.581-8.349-15.981c-2.07-5.688-4.551-11.245-5.896-17.205
				c-3.486-11.687-4.586-23.992-4.594-36.15c0.275-12.18,2.233-24.38,5.953-35.947c3.729-11.567,9.048-22.507,15.563-32.502
				l11.576,31.697c-9.798-3.264-19.224-7.585-28.127-12.822c-8.815-5.396-17.106-11.636-24.628-18.76
				c-7.338-7.314-13.971-15.366-19.431-24.199c-5.436-8.865-9.549-18.496-12.496-28.408c-5.777-19.91-5.889-41.157-0.344-60.435
				c5.378-19.343,16.457-36.499,30.739-48.872c2.835-2.456,7.125-2.148,9.581,0.686c1.928,2.227,2.154,5.349,0.789,7.776
				L2579.786,2664.47z"/>
		</g>
		<g>
			<path style="fill:#000072;" d="M1717.391,2555.234c-23.26,4.224-44.149,14.136-59.449,29.407
				c-15.435,14.88-25.801,33.982-29.161,53.835c-4.013,19.761-0.883,40.313,7.259,57.759c8.215,17.561,21.885,32.268,38.525,42
				l0.507,0.298c10.197,5.962,13.63,19.065,7.666,29.263c-0.029,0.049-0.118,0.198-0.148,0.249
				c-11.876,19.688-18.832,42.876-18.051,66.404l0.304,8.806l1.15,8.713c0.238,2.937,1.019,5.762,1.656,8.618
				c0.709,2.834,1.1,5.769,2.2,8.486c3.204,11.279,8.702,21.721,14.982,31.436c6.303,9.758,14.286,18.325,23.239,25.449
				c8.957,7.075,18.812,13.135,29.536,16.741c10.654,3.738,21.826,5.767,33.136,5.947c11.234,0.066,22.438-1.924,33.168-5.735
				c9.102-3.237,18.995,0.5,23.86,8.411c7.701,12.52,19.07,23.032,32.354,30.273c13.318,7.239,28.519,11.023,43.835,11.331
				c15.35,0.356,30.643-2.842,44.239-9.36c13.588-6.482,25.497-16.279,33.812-28.284c6.553-9.46,19.536-11.819,28.997-5.264
				c0.953,0.659,1.834,1.384,2.641,2.166l0.447,0.442c12.797,12.544,29.476,19.575,46.232,19.097
				c16.812-0.313,32.969-7.971,45.101-20.603c12.042-12.651,20.297-29.719,22.358-47.869c2.426-18.164-0.573-36.938-8.975-53.074
				l-0.23-0.442c-5.532-10.625-1.404-23.723,9.222-29.258c0.991-0.515,2.12-0.984,3.146-1.333
				c11.509-3.845,22.567-12.654,31.001-24.402c8.453-11.797,14.157-26.228,17.419-41.34c3.453-15.11,4.883-31.169,4.109-47.412
				c-0.826-16.309-3.775-32.822-9.793-50.039l-0.028-0.081c-0.585-1.675,0.297-3.503,1.971-4.089
				c1.039-0.364,2.154-0.149,2.978,0.457c15.537,11.594,26.768,29.036,33.201,47.869c6.514,18.933,8.586,39.436,6.041,59.739
				c-1.272,10.144-3.582,20.264-7.254,30.027c-3.601,9.771-8.038,19.387-14.006,28.345c-11.692,17.791-28.671,34.238-51.335,42.3
				l12.137-31.033c13.15,24.055,18.685,52.319,14.983,79.343c-3.112,27.136-15.171,53.611-34.94,73.596
				c-9.847,9.99-21.63,18.354-34.781,24.143c-13.145,5.737-27.633,8.892-42.036,8.789c-14.406,0.029-28.872-3.113-41.918-8.906
				c-13.076-5.776-24.728-14.111-34.435-24.004l32.083-2.656c-13.165,17.966-30.807,32.073-50.538,41.221
				c-19.735,9.187-41.539,13.406-62.985,12.671c-21.474-0.654-42.94-6.311-61.961-16.782c-19.035-10.381-35.71-25.608-47.34-44.5
				l23.859,8.408c-14.861,5.291-30.808,8.147-46.75,8.054c-15.889-0.186-31.74-3.04-46.695-8.34
				c-15.048-5.168-28.771-13.467-41.038-23.201c-12.267-9.785-23.002-21.421-31.494-34.453
				c-17.338-25.859-26.675-56.589-27.73-87.378c-1.183-30.781,6.054-62.314,21.783-89.414l8.024,29.805
				c-12.576-6.941-23.918-16.057-33.531-26.711c-9.439-10.806-17.17-23.132-22.516-36.418c-5.142-13.352-8.329-27.478-8.708-41.638
				c-0.401-14.119,1.514-28.237,5.714-41.56c4.339-13.264,10.643-25.798,18.959-36.702c8.492-10.762,18.53-20.076,29.752-27.329
				c22.36-14.753,49.642-20.11,74.247-16.448c1.702,0.251,2.876,1.836,2.623,3.538c-0.201,1.353-1.245,2.373-2.52,2.607
				L1717.391,2555.234z"/>
		</g>
		<g>
			<g style="opacity:0.3;">
				<path style="fill:#000072;" d="M1891.791,2983.408c38.696,0,72.683-18.271,92.383-45.874
					c16.131,16.138,37.377,26.035,60.749,26.035c50.332,0,91.135-45.52,91.135-101.675c0-19.055-4.786-36.824-12.961-52.065
					c35.97-12.434,62.559-55.676,62.559-107.266c0-16.155-2.662-31.458-7.343-45.303c1.727,2.473,3.371,5.049,4.926,7.72
					c-2.212-3.809-4.537-7.495-7.096-10.886l-3.836-0.852c-27.429-6.096-54.363,11.67-59.841,39.229
					c-7.85,39.492-37.026,59.773-63.199,68.821c8.175,15.242,12.961,33.01,12.961,52.068c0,56.152-40.803,101.672-91.135,101.672
					c-23.372,0-44.618-9.895-60.748-26.035c-19.702,27.605-53.688,45.876-92.383,45.876c-7.406,0-14.63-0.693-21.625-1.97
					C1815.426,2963.069,1850.978,2983.408,1891.791,2983.408z"/>
			</g>
			<g style="opacity:0.3;">
				<path style="fill:#000072;" d="M1756.018,2938.77c13.199,0,25.873-2.307,37.839-6.357c0.005,0,0.01,0.002,0.015,0.002
					c-30.919-6.321-56.935-24.509-72.062-49.092c-12.48,4.436-25.776,6.912-39.623,6.912c-8.561,0-16.888-1.018-24.971-2.776
					C1680.493,2918.711,1716.049,2938.77,1756.018,2938.77z"/>
			</g>
		</g>
		<g>
			<g>
				<path style="fill:#FFFFFF;" d="M2168.012,1900.974c-21.58,32.58-60.367,59.089-107.426,82.687
					c0,0-602.094,261.379-1038.866,81.481c-313.328-129.09-149.404-560.572-57.709-769.204l1.039-13.347l0.158-0.016
					c13.776-154.303,38.348-193.567,38.348-193.567c30.565,10.378,72.103,7.838,112.736-9.924
					c49.043-21.328,82.833-58.576,89.92-94.071c18.006,56.399,92.837,93.474,178.025,84.83
					c51.871-5.263,96.627-26.396,125.193-55.377c29.464,29.395,72.586,51.102,122.586,58.073
					c45.476,6.394,88.8-0.555,123.732-17.102c0.095,5.653,0.435,11.363,1.02,17.127c9.445,93.083,79.813,162.435,158.263,157.347
					c-1.499,11.957-2.082,24.298-1.683,36.861c2.86,83.224,49.014,148.174,107.998,158.778c-3.612,20.227-4.536,41.777-2.285,63.963
					c7.186,70.818,44.785,129.299,94.081,156.043c-31.019,30.745-48.546,76.553-43.547,125.818
					C2075.9,1833.509,2116.125,1883.268,2168.012,1900.974z"/>
				<path style="fill:#000072;" d="M1377.249,2131.064c-119.404,0-243.63-16.533-356.69-63.101
					c-76.946-31.699-130.581-84.07-159.417-155.649c-55.115-136.819-22.454-338.677,99.866-617.129l1.387-15.415
					c13.723-151.169,37.559-190.762,38.572-192.38l1.282-2.048l2.288,0.776c31.03,10.542,72.354,6.858,110.532-9.829
					c46.44-20.198,81.038-56.257,88.149-91.873l2.312-11.572l3.589,11.243c17.708,55.476,92.856,91.04,174.81,82.72
					c49.165-4.988,94.116-24.846,123.328-54.482l2.156-2.185l2.173,2.168c30.325,30.254,73.245,50.574,120.852,57.212
					c42.993,6.045,86.321,0.066,122.004-16.838l4.277-2.026l0.081,4.734c0.093,5.552,0.432,11.228,1.006,16.87
					c9.309,91.731,77.375,159.646,155.029,154.609l3.684-0.239l-0.459,3.662c-1.489,11.897-2.048,24.138-1.663,36.384
					c2.744,79.819,47.109,145.376,105.488,155.874l3,0.54l-0.535,3.001c-3.665,20.517-4.422,41.753-2.253,63.118
					c6.855,67.551,42.3,126.433,92.5,153.667l3.611,1.958l-2.917,2.893c-31.858,31.577-47.407,76.533-42.659,123.342
					c6.011,59.236,43.838,109.094,96.367,127.019l3.742,1.277l-2.185,3.296c-19.802,29.9-54.314,56.506-108.603,83.731
					c-1.66,0.727-153.311,66.033-356.387,108.459C1611.69,2114.462,1496.89,2131.064,1377.249,2131.064z M967.893,1285.392
					l-1.089,11.775c-121.789,277.104-154.5,477.576-99.997,612.866c28.196,69.998,80.708,121.235,156.077,152.285
					c224.871,92.622,494.619,65.571,681.311,26.582c202.495-42.295,353.672-107.385,355.176-108.04
					c51.164-25.662,84.363-50.664,103.892-78.345c-52.815-19.746-90.596-70.652-96.704-130.835
					c-4.793-47.249,10.344-92.712,41.609-125.415c-50.078-28.977-85.247-88.496-92.144-156.445
					c-2.119-20.903-1.511-41.692,1.809-61.848c-59.719-12.632-104.739-79.758-107.534-161.096
					c-0.359-11.338,0.071-22.666,1.282-33.733c-1.619,0.059-3.232,0.088-4.841,0.088c-77.341,0.007-143.704-68.679-153.008-160.359
					c-0.432-4.248-0.732-8.516-0.903-12.739c-35.911,15.925-78.76,21.399-121.238,15.43c-47.786-6.665-91.033-26.799-122.146-56.807
					c-30.215,29.438-75.535,49.114-124.9,54.124c-81.621,8.271-154.363-24.114-177.813-77.844
					c-11.133,34.304-45.049,67.637-89.221,86.846c-38.538,16.846-80.339,20.828-112.463,10.82
					c-4.897,9.92-24.951,57.458-36.799,190.144L967.893,1285.392z"/>
			</g>
			<g style="opacity:0.3;">
				<g>
					<path style="fill:#000072;" d="M879.227,1909.553c-0.17-0.173-0.345-0.344-0.515-0.52
						C878.882,1909.209,879.056,1909.38,879.227,1909.553z"/>
				</g>
				<g>
					<path style="fill:#000072;" d="M852.863,1878.11c-0.009-0.012-0.017-0.022-0.026-0.034h0
						C852.846,1878.088,852.855,1878.098,852.863,1878.11z"/>
				</g>
				<g>
					<path style="fill:#000072;" d="M2159.283,1897.568c2.871,1.23,5.769,2.395,8.729,3.406
						C2165.054,1899.966,2162.161,1898.784,2159.283,1897.568z"/>
				</g>
				<g>
					<path style="fill:#000072;" d="M1021.721,2025.142c436.772,179.897,1038.866-81.479,1038.866-81.479
						c32.521-16.309,61.083-34.011,82.754-54.141c0.009,0.005,0.018,0.01,0.026,0.015c-18.564-10.884-34.822-26.091-47.347-44.619
						c-20.919,18.13-47.406,34.297-77.274,49.272c0,0-602.094,261.379-1038.866,81.482c-36.571-15.066-66.585-34.285-91.009-56.765
						C917.732,1963.215,960.595,1999.958,1021.721,2025.142z"/>
				</g>
				<g>
					<path style="fill:#000072;" d="M2151.833,1894.102c1.301,0.654,2.6,1.316,3.921,1.929
						C2154.429,1895.425,2153.138,1894.749,2151.833,1894.102z"/>
				</g>
				<g>
					<path style="fill:#000072;" d="M869.515,1899.126c0.03,0.034,0.058,0.071,0.089,0.105
						C869.573,1899.197,869.545,1899.16,869.515,1899.126z"/>
				</g>
				<g>
					<path style="fill:#000072;" d="M860.11,1887.769c0.571,0.728,1.148,1.45,1.728,2.173
						C861.259,1889.219,860.68,1888.496,860.11,1887.769z"/>
				</g>
				<g>
					<path style="fill:#000072;" d="M958.266,2030.659c-9.274-6.545-17.918-13.472-25.962-20.747
						C940.348,2017.188,948.992,2024.114,958.266,2030.659z"/>
				</g>
				<g>
					<path style="fill:#000072;" d="M1021.721,2065.142c-23.836-9.819-44.906-21.392-63.454-34.482
						C976.815,2043.75,997.885,2055.322,1021.721,2065.142c191.088,78.706,413.819,72.949,603.931,41.567
						C1435.54,2138.088,1212.808,2143.848,1021.721,2065.142z"/>
				</g>
				<g>
					<path style="fill:#000072;" d="M1665.867,2099.614c-13.223,2.48-26.636,4.854-40.215,7.095
						C1639.231,2104.468,1652.643,2102.095,1665.867,2099.614z"/>
				</g>
			</g>
			<g>
				<path style="fill:#FFFFFF;" d="M2605.716,1235.53c-39.446,87.668-230.323,89.175-442.567,9.09
					c23.092-97.109-57.082-109.787-57.082-109.787s39.752-53.169,15.889-118.547c-23.941-65.37-128.19-57.503-128.19-57.503
					c51.882-104.969-47.2-175.878-47.2-175.878c88.781,6.306,197.34,34.619,307.996,84.406
					C2491.919,974.042,2649.114,1138.915,2605.716,1235.53z"/>
				<path style="fill:#000072;" d="M2441.673,1306.484c-77.625,0-175.071-19.568-279.6-59.009l-2.514-0.95l0.622-2.612
					c7.427-31.233,4.758-56.699-7.932-75.693c-16.931-25.337-46.367-30.325-46.663-30.371l-4.973-0.801l3.008-4.041
					c0.388-0.52,38.462-52.685,15.469-115.674c-22.861-62.424-124.087-55.583-125.095-55.505l-5.334,0.398l2.368-4.795
					c50.107-101.375-42.283-169.206-46.24-172.046l-8.769-6.289l10.764,0.764c92.544,6.572,202.293,36.643,309.031,84.668
					c238.501,107.244,396.714,274.236,352.686,372.251v0.002C2587.652,1283.117,2526.497,1306.484,2441.673,1306.484z
					 M2166.721,1242.702c211.147,79.097,398.416,75.569,436.211-8.425v0.002c42.649-94.946-114.192-258.32-349.624-364.185
					c-102.403-46.074-207.525-75.518-297.3-83.379c22.112,19.514,81.941,82.883,42.705,168.77
					c21.824-0.701,104.482,0.706,126.108,59.751c20.486,56.121-5.217,103.997-13.745,117.578
					c9.504,2.471,31.707,10.31,46.199,31.943C2170.623,1184.682,2173.799,1210.893,2166.721,1242.702z"/>
			</g>
			<g>
				<path style="fill:#FFFFFF;" d="M871.458,1125.861c9.044-40.324,35.242-71.558,64.905-96.795
					c-33.896-33.558-51.116-81.017-26.598-126.329c-88.105,54.344-343.289,224.531-339.728,370.692
					c3.358,137.917,371.687,3.297,371.687,3.297l-0.022-3.431C894.925,1243.203,863.969,1193.688,871.458,1125.861z"/>
				<path style="fill:#000072;" d="M671.099,1338.732c-32.268,0-60.374-4.978-79.229-17.82
					c-16.011-10.908-24.385-26.86-24.885-47.41c-3.625-148.938,260.225-323.43,341.179-373.362l9.722-5.996l-5.437,10.046
					c-21.379,39.512-11.638,85.383,26.062,122.707l2.361,2.339l-2.532,2.153c-35.337,30.066-56.23,61.135-63.867,94.973
					c-6.602,60.276,17.856,111.541,68.879,144.368l1.392,0.894l0.046,7.231l-2.019,0.737
					C934.346,1282.673,779.363,1338.732,671.099,1338.732z M902.522,910.837c-88.979,55.784-332.861,221.812-329.434,362.52
					c0.457,18.73,7.722,32.634,22.219,42.51c75.464,51.414,316.279-31.687,342.979-41.15
					c-51.921-34.219-76.716-87.117-69.863-149.189l0.056-0.334c7.725-34.429,28.479-65.962,63.411-96.304
					C896.98,992.951,886.38,949.697,902.522,910.837z"/>
			</g>
			<g>
				<path style="fill:#FFFFFF;" d="M940.126,1025.918c-1.258,1.041-2.515,2.086-3.763,3.149c1.263,1.251,2.499,2.525,3.807,3.736
					L940.126,1025.918z"/>
				<path style="fill:#000072;" d="M943.267,1039.826l-5.169-4.783c-0.969-0.898-1.899-1.826-2.83-2.756l-3.42-3.391l2.539-2.156
					c1.26-1.069,2.524-2.124,3.794-3.174l4.956-4.102L943.267,1039.826z"/>
			</g>
			<g>
				<path style="fill:#000072;" d="M671.741,1356.821c-36.201,0.002-68.242-5.727-90.229-20.703
					c-20.891-14.233-32.273-35.728-32.917-62.163c-4.563-187.307,364.353-398.594,380.061-407.495
					c10.308-5.847,23.394-2.224,29.233,8.081c5.842,10.305,2.224,23.394-8.079,29.238
					c-100.776,57.156-361.599,234.89-358.33,369.131c0.31,12.72,4.683,21.279,14.18,27.751
					c52.883,36.038,229.678-7.915,328.704-44.08c11.138-4.067,23.442,1.663,27.507,12.786c4.063,11.126-1.658,23.44-12.783,27.507
					C927.815,1304.648,780.948,1356.813,671.741,1356.821z"/>
			</g>
			<g>
				<path style="fill:#390176;" d="M1417.505,1843.442c-61.304,164.631-161.609,176.005-185.982,112.673
					s-72.935-100.919-72.935-100.919c19.734,1.109,43.485-5.368,71.392-25.907
					C1246.929,1875.267,1347.473,1903.193,1417.505,1843.442z"/>
				<path style="fill:#000072;" d="M1281.419,1994.858c-23.965,0-43.662-14.05-52.744-37.646
					c-23.762-61.748-71.475-99.231-71.953-99.602l-7.754-6.008l9.792,0.549c21.553,1.184,44.934-7.307,69.412-25.32l3.269-2.405
					l1.404,3.809c6.78,18.393,28.562,34.414,56.846,41.807c44.067,11.511,91.106,0.706,125.835-28.921l8.943-7.632l-4.102,11.018
					c-41.155,110.52-98.586,150.132-138.611,150.352C1281.643,1994.858,1281.531,1994.858,1281.419,1994.858z M1166.873,1858.266
					c14.172,12.742,48.391,47.097,67.5,96.753c8.254,21.453,25.391,33.735,47.036,33.735c0.105,0,0.208,0,0.313,0
					c36.743-0.2,89.28-36.282,128.943-136.033c-35.159,25.601-80.149,34.297-122.52,23.225
					c-28.796-7.527-50.681-23.04-59.497-41.934C1207.227,1849.145,1186.499,1857.277,1166.873,1858.266z"/>
			</g>
			<g>
				
					<ellipse transform="matrix(0.8295 -0.5585 0.5585 0.8295 -854.0899 1060.3837)" style="fill:#F34743;" cx="1309.552" cy="1928.94" rx="70.338" ry="46.196"/>
				<path style="fill:#000072;" d="M1285.838,1986.838c-10.056,0-19.187-2.241-26.45-6.711c-9.609-5.913-15.303-15.078-16.47-26.506
					c-2.893-28.396,24.26-62.803,60.532-76.702c21.187-8.12,42.219-7.803,56.267,0.838c9.609,5.913,15.303,15.078,16.47,26.506l0,0
					c2.891,28.398-24.263,62.805-60.532,76.699C1305.425,1984.882,1295.227,1986.838,1285.838,1986.838z M1333.296,1877.123
					c-8.633,0-18.098,1.829-27.663,5.493c-33.865,12.979-59.275,44.551-56.641,70.383c0.964,9.465,5.667,17.048,13.596,21.929
					c12.432,7.649,31.455,7.778,50.884,0.334c33.862-12.976,59.272-44.548,56.641-70.381c-0.964-9.465-5.667-17.048-13.596-21.929
					C1350.205,1879.069,1342.193,1877.123,1333.296,1877.123z"/>
			</g>
			<g>
				<path style="fill:#FDC1E5;" d="M845.693,1847.3c60.906-6.651,106.944-42.795,103.047-81.203
					c-3.685-36.32-50.698-61.716-107.379-59.536C836.785,1755.203,837.445,1802.857,845.693,1847.3z"/>
			</g>
			<g>
				
					<ellipse transform="matrix(0.9949 -0.1009 0.1009 0.9949 -167.4828 176.2687)" style="fill:#FDC1E5;" cx="1657.929" cy="1742.993" rx="112.09" ry="70.428"/>
			</g>
			<g>
				<path style="fill:#000072;" d="M1281.446,2013.227c-31.88,0-57.993-18.45-69.917-49.438
					c-21.775-56.58-65.647-91.309-66.086-91.653c-9.319-7.28-11.008-20.745-3.752-30.083c7.256-9.336,20.674-11.059,30.034-3.821
					c2.178,1.682,53.616,42.007,79.839,110.149c3.86,10.027,12.175,21.951,29.885,21.951c0.076,0,0.149,0,0.225,0
					c30.417-0.176,79.001-35.52,115.823-134.561c4.128-11.101,16.47-16.758,27.581-12.629c11.103,4.128,16.758,16.477,12.629,27.581
					c-37.705,101.413-95.943,162.163-155.786,162.505C1281.761,2013.227,1281.602,2013.227,1281.446,2013.227z"/>
			</g>
			<g>
				<path style="fill:#000072;" d="M1163.069,1876.84c-7.563,0-15.034-0.881-22.402-2.649
					c-48.359-11.597-71.941-57.71-72.922-59.668c-5.303-10.593-1.016-23.479,9.575-28.784c10.566-5.291,23.408-1.045,28.738,9.487
					c0.425,0.808,16.279,30.622,44.895,37.317c19.399,4.539,41.699-2.363,66.292-20.513c9.534-7.029,22.959-5.012,29.995,4.521
					c7.034,9.531,5.01,22.962-4.521,29.995C1215.406,1866.703,1188.709,1876.84,1163.069,1876.84z"/>
			</g>
			<g>
				<path style="fill:#000072;" d="M1325.064,1899.035c-9.641,0-19.377-0.845-29.131-2.566
					c-42.295-7.468-75.281-30.376-86.086-59.783c-21.052-57.295-1.125-105.425-0.266-107.446
					c4.631-10.901,17.229-15.984,28.127-11.353c10.864,4.614,15.95,17.131,11.406,28.005c-0.31,0.771-13.911,35.422,0.999,75.998
					c4.338,11.807,22.861,26.96,53.281,32.332c43.296,7.656,86.384-8.167,115.237-42.302c7.644-9.05,21.179-10.188,30.227-2.536
					c9.048,7.646,10.183,21.179,2.537,30.227C1419.043,1877.892,1373.284,1899.032,1325.064,1899.035z"/>
			</g>
			<g>
				<path style="fill:#390176;" d="M1376.2,1669.165c-1.942-6.86-8.094-15.934-26.354-20.219
					c-27.872-6.542-56.267,14.737-81.313,33.512c-16.46,12.349-35.074,26.428-45.421,24.9
					c-14.653-2.049-38.555-16.333-65.574-39.179c-8.487-7.185-20.145-8.885-30.447-4.474c-10.143,4.363-16.82,13.866-17.426,24.786
					c-0.72,12.941,5.082,26.327,15.524,35.806c14.095,12.778,34.365,8.696,48.015,2.505c9.64,6.803,28.764,18.938,47.116,22.669
					c2.859,0.575,6.094,0.644,9.618,0.286c25.948-2.633,67.361-28.224,85.609-40.272c21.667,4.111,41.922-4.261,52.277-14.558
					C1375.596,1687.196,1378.651,1677.811,1376.2,1669.165z"/>
				<path style="fill:#000072;" d="M1225.828,1753.024c-2.195,0-4.238-0.188-6.108-0.562c-18.01-3.662-36.57-15.056-46.858-22.178
					c-10.503,4.465-33.167,11.282-49.724-3.728c-11.116-10.09-17.29-24.385-16.519-38.235c0.669-12.092,8.052-22.6,19.265-27.422
					c11.382-4.868,24.265-2.971,33.625,4.949c26.592,22.485,49.927,36.514,64.023,38.486c8.996,1.309,27.61-12.642,42.568-23.87
					l0.601-0.449c25.581-19.177,54.563-40.903,83.843-34.043c19.709,4.626,26.428,14.714,28.594,22.358l0,0
					c2.759,9.744-0.581,20.225-9.165,28.757c-10.659,10.603-31.311,19.424-53.767,15.615c-21.575,14.17-60.425,37.498-85.962,40.088
					C1228.714,1752.948,1227.239,1753.024,1225.828,1753.024z M1173.536,1723.3l1.428,1.008c9.539,6.729,28.196,18.557,45.964,22.17
					c2.471,0.496,5.403,0.579,8.699,0.239c25.566-2.593,67.427-28.684,84.236-39.78l1.035-0.684l1.216,0.232
					c20.728,3.936,39.834-4.06,49.558-13.723c6.963-6.924,9.729-15.222,7.593-22.766c-1.719-6.069-7.297-14.133-24.116-18.081
					c-26.477-6.228-54.275,14.609-78.784,32.983l-0.598,0.449c-17.51,13.14-35.586,26.699-47.102,25.029
					c-15.183-2.126-39.648-16.658-67.097-39.868c-7.583-6.426-18.035-7.954-27.275-4.002c-9.065,3.901-15.037,12.39-15.579,22.151
					c-0.669,12.034,4.761,24.512,14.526,33.376c14.773,13.396,36.182,5.845,44.705,1.987L1173.536,1723.3z"/>
			</g>
			<g>
				<path style="fill:#F883A0;" d="M679.881,1242.344c-17.624,25.353,198.445-12.586,198.445-12.586
					c-41.029-68.222-31.411-128.095,23.148-180.56C901.473,1049.198,759.926,1127.208,679.881,1242.344z"/>
				<path style="fill:#000072;" d="M705.838,1253.949c-15.583,0-26.47-1.631-29.102-5.752c-0.83-1.299-1.851-4.014,0.64-7.595l0,0
					c79.534-114.399,221.201-193.293,222.625-194.077l20.276-11.174l-16.689,16.047c-54.983,52.876-62.39,110.703-22.646,176.787
					l2.292,3.809l-4.38,0.769C845.157,1238.681,753.518,1253.949,705.838,1253.949z M682.386,1244.089
					c-0.456,0.654-0.476,0.952-0.476,0.954c5.164,8.826,102.573-2.109,191.55-17.534c-34.529-59.912-30.845-115.171,10.901-164.575
					C843.367,1088.332,743.975,1155.5,682.386,1244.089L682.386,1244.089z"/>
			</g>
			<g style="opacity:0.2;">
				<path style="fill:#000072;" d="M764.979,1215.873c-17.624,25.353,198.445-12.586,198.445-12.586
					c-41.029-68.222-31.411-128.095,23.148-180.56C986.572,1022.727,845.024,1100.737,764.979,1215.873z"/>
			</g>
			<g>
				<path style="fill:#000072;" d="M707.586,1269.174c-35.559,0-40.264-7.366-43.708-12.761c-4.751-7.434-4.38-16.828,0.967-24.519
					c81.555-117.307,221.86-195.464,227.793-198.733c8.85-4.883,19.985-1.66,24.871,7.195c4.883,8.853,1.663,19.99-7.188,24.878
					c-1.296,0.713-122.388,68.255-200.581,167.571c35.278-1.179,105.132-10.495,165.42-21.084
					c9.968-1.753,19.453,4.91,21.204,14.871c1.748,9.961-4.91,19.453-14.871,21.204
					C789.646,1263.92,737.615,1269.174,707.586,1269.174z"/>
			</g>
			<g>
				<path style="fill:#000072;" d="M928.662,1053.366c-10.969,0-20.325-8.372-21.335-19.509
					c-1.074-11.797,7.62-22.229,19.419-23.301c11.726-1.116,22.268,7.612,23.342,19.414c1.072,11.797-7.581,22.227-19.38,23.298
					l-0.081,0.007C929.969,1053.337,929.312,1053.366,928.662,1053.366z"/>
			</g>
			<g>
				<path style="fill:#F883A0;" d="M2455.2,1184.434c-0.587,52.385-123.167,47.832-273.729-10.033
					c-10.042-3.846-19.942-7.867-29.683-11.905c-18.076-23.29-45.72-27.663-45.72-27.663s39.751-53.169,15.889-118.547
					c-23.942-65.37-128.191-57.503-128.191-57.503c3.315-6.638,5.997-13.212,8.144-19.571
					c48.377,3.547,111.908,18.876,181.465,45.638C2334.025,1042.786,2455.717,1132.136,2455.2,1184.434z"/>
				<path style="fill:#000072;" d="M2383.665,1239.006c-53.704,0-127.671-16.348-208.764-47.512
					c-8.831-3.381-18.125-7.109-30.122-12.08c-2.937-1.216-5.508-3.176-7.456-5.689c-13.181-16.982-34.043-20.791-34.253-20.828
					c-6.269-1.094-11.597-5.376-13.948-11.292c-2.349-5.916-1.531-12.639,2.28-17.737c1.323-1.807,33.369-46.465,13.352-101.304
					c-18.653-50.923-108.706-45.593-109.612-45.522c-6.597,0.542-12.905-2.578-16.577-8.049c-3.677-5.471-4.126-12.495-1.182-18.391
					c2.776-5.559,5.19-11.36,7.175-17.246c2.671-7.915,10.337-13.054,18.691-12.407c51.814,3.799,118.12,20.422,186.699,46.812
					c137.976,53.059,284.25,147.095,283.562,216.855c0,0.007,0,0.017,0,0.024c-0.181,16.13-7.654,29.663-21.614,39.138
					C2436.817,1234.015,2413.33,1239.006,2383.665,1239.006z M2162.986,1147.309c9.7,3.994,17.552,7.126,25.034,9.993
					c124.336,47.781,216.509,54.368,243.308,36.177c4.565-3.098,5.525-5.938,5.561-9.248
					c0.288-34.25-98.486-120.142-260.088-182.288c-17.961-6.912-35.718-13.118-53.025-18.555
					c6.328,7.51,11.602,16.301,15.374,26.602c17.693,48.467,5.037,90.733-6.284,114.771
					C2142.481,1129.379,2153.506,1136.498,2162.986,1147.309z M2455.2,1184.435h0.051H2455.2z"/>
			</g>
			<g style="opacity:0.2;">
				<path style="fill:#000072;" d="M2357.504,1165.235c-0.551,49.138-115.534,44.867-256.765-9.411
					c-9.419-3.607-18.706-7.38-27.843-11.167c-16.956-21.847-42.886-25.949-42.886-25.949s37.288-49.874,14.904-111.199
					c-22.458-61.318-120.246-53.939-120.246-53.939c3.109-6.227,5.625-12.393,7.639-18.359
					c45.378,3.327,104.973,17.706,170.219,42.809C2243.839,1032.365,2357.989,1116.178,2357.504,1165.235z"/>
			</g>
			<g>
				<path style="fill:#000072;" d="M2441.333,1324.477c-22.066,0-45.713-1.511-70.796-4.583
					c-66.419-8.159-140.745-27.249-214.949-55.205c-10.105-3.806-15.803-14.529-13.305-25.032c6.15-25.864,4.426-46.35-5.12-60.896
					c-12.212-18.604-34.414-22.734-34.636-22.773c-7.331-1.301-13.564-6.328-16.304-13.25c-2.737-6.924-1.792-14.788,2.666-20.75
					c1.262-1.729,32.327-45.176,12.917-98.347c-17.739-48.445-105.571-43.535-106.467-43.467
					c-7.659,0.547-15.068-3.047-19.358-9.429c-4.29-6.384-4.854-14.573-1.445-21.467c43.311-87.622-37.012-146.467-40.452-148.931
					c-7.81-5.588-10.952-15.688-7.693-24.722c3.259-9.036,12.134-14.788,21.709-14.114c29.622,2.122,60.718,6.489,92.424,12.979
					c71.372,14.441,148.445,39.78,222.842,73.264c117.251,52.72,219.385,121.143,287.578,192.656
					c72.737,76.277,99.135,148.691,74.333,203.904c0,0,0,0,0,0.003C2601.834,1296.496,2536.275,1324.477,2441.333,1324.477z
					 M2187.517,1230.719c65.393,23.413,130.137,39.458,188.24,46.597c111.375,13.623,190.034-5.276,210.391-50.581
					c16.931-37.69-7.214-94.812-66.247-156.719c-64.458-67.595-161.814-132.637-274.133-183.14
					c-71.536-32.197-145.462-56.521-213.799-70.349c-9.971-2.041-19.863-3.857-29.651-5.447
					c21.57,32.344,36.282,76.433,22.37,126.804c37.871,3.157,97.6,16.936,117.41,71.025c17.385,47.629,6.06,89.419-5.129,114.397
					c11.853,6.113,25.313,15.869,35.593,31.213C2186.417,1175.204,2191.421,1200.773,2187.517,1230.719z M2605.713,1235.527h0.049
					H2605.713z"/>
			</g>
			<g>
				<path style="fill:#000072;" d="M964.034,1317.387c-0.52,0-1.045-0.019-1.572-0.056c-11.816-0.857-20.698-11.13-19.844-22.944
					c0.347-4.78,0.794-9.399,1.248-13.943c1.177-11.787,11.66-20.427,23.474-19.211c11.787,1.177,20.388,11.687,19.211,23.474
					c-0.415,4.163-0.828,8.401-1.145,12.781C984.585,1308.774,975.174,1317.387,964.034,1317.387z"/>
			</g>
			<g>
				<path style="fill:#000072;" d="M1377.305,2149.438c-121.553,0-248.21-16.875-363.752-64.463
					c-81.699-33.662-138.718-89.438-169.473-165.786c-56.87-141.177-24.553-346.78,98.828-628.538l0.757-9.724
					c0.076-0.964,0.212-1.912,0.41-2.837c13.879-152.859,38.521-196.021,41.299-200.461c5.276-8.433,15.659-12.131,25.078-8.931
					c26.807,9.094,63.159,5.635,97.248-9.267c40.481-17.605,71.602-49.192,77.478-78.616c1.914-9.59,10.071-16.67,19.834-17.217
					c9.744-0.525,18.66,5.581,21.631,14.893c15.125,47.373,81.958,77.49,155.427,70.012c44.975-4.563,85.828-22.456,112.083-49.092
					c4.009-4.067,9.475-6.37,15.186-6.392c0.032,0,0.061,0,0.09,0c5.679,0,11.128,2.251,15.149,6.262
					c27.515,27.454,66.721,45.925,110.398,52.017c39.492,5.545,79.114,0.139,111.589-15.244c6.582-3.12,14.309-2.683,20.498,1.165
					c6.191,3.845,10.007,10.571,10.129,17.859c0.085,5.037,0.393,10.191,0.913,15.32c8.167,80.474,69.053,142.434,135.537,138.11
					c6.406-0.376,12.62,2.041,17.004,6.699c4.385,4.656,6.462,11.025,5.667,17.373c-1.372,10.945-1.885,22.222-1.528,33.513
					c2.446,71.167,40.447,129.375,90.356,138.347c11.648,2.095,19.399,13.228,17.319,24.88c-3.364,18.838-4.058,38.362-2.061,58.027
					c6.25,61.584,38.042,114.98,82.969,139.355c5.964,3.235,10.047,9.102,11.006,15.818c0.959,6.716-1.313,13.491-6.133,18.269
					c-27.896,27.649-41.492,67.166-37.307,108.418c5.288,52.104,38.262,95.857,84.004,111.465
					c6.292,2.146,11.231,7.09,13.377,13.381c2.143,6.292,1.25,13.22-2.42,18.762c-21.653,32.69-58.416,61.294-115.696,90.017
					c-0.351,0.178-0.71,0.347-1.074,0.503c-6.228,2.703-154.888,66.707-359.797,109.524
					C1614.456,2132.68,1498.413,2149.438,1377.305,2149.438z M986.233,1286.816l-0.837,10.786c-0.186,2.405-0.779,4.761-1.748,6.968
					c-43.994,100.1-177.876,404.719-99.778,598.589c26.277,65.232,75.405,113.057,146.023,142.148
					c220.327,90.747,485.852,64.087,669.805,25.737c194.883-40.625,341.968-102.627,351.833-106.838
					c36.516-18.357,63.684-36.594,82.241-55.271c-47.087-26.909-79.622-77.314-85.518-135.396
					c-4.573-45.083,7.209-88.779,32.673-123.389c-45.422-34.631-76.567-93.054-83.208-158.472
					c-1.716-16.934-1.77-33.809-0.166-50.391c-60.342-21.797-102.764-90.003-105.642-173.779
					c-0.176-5.557-0.178-11.104-0.002-16.619c-77.139-7.734-141.619-75.259-155.1-165.161
					c-33.523,10.371-70.833,13.25-107.781,8.052c-45.405-6.333-87.148-24.053-119.614-50.493
					c-32.407,25.964-76.118,43.137-123.013,47.896c-73.789,7.493-141.321-16.286-177.722-59.001
					c-18.269,27.07-47.71,50.862-83.833,66.572c-36.821,16.096-75.374,21.46-108.721,15.535
					c-7.471,21.667-20.757,71.653-29.553,170.193C986.502,1285.273,986.387,1286.052,986.233,1286.816z"/>
			</g>
			<g>
				<path style="fill:#FFEBF7;" d="M2331.814,1592.501c0,0,133.117,197.227-86.883,282.005c0,0,10.992,174.364-184.345,109.155
					c47.059-23.598,85.846-50.107,107.426-82.687c-51.887-17.706-92.112-67.465-98.417-129.6
					c-4.999-49.265,12.528-95.073,43.547-125.818c-49.296-26.744-86.896-85.224-94.081-156.043
					c-2.251-22.186-1.327-43.735,2.285-63.963c-58.984-10.604-105.138-75.555-107.998-158.778
					c-0.398-12.563,0.185-24.904,1.683-36.861c-78.45,5.088-148.818-64.264-158.263-157.347c-0.585-5.763-0.926-11.473-1.02-17.127
					c-34.932,16.547-78.257,23.496-123.732,17.102c-50.001-6.971-93.123-28.678-122.586-58.073
					c-28.567,28.981-73.322,50.114-125.193,55.377c-85.188,8.644-160.018-28.432-178.025-84.83
					c-7.086,35.495-40.876,72.743-89.92,94.071c-40.632,17.762-82.171,20.302-112.736,9.924c0,0-24.572,39.263-38.348,193.567
					l-0.158,0.016c-58.176-8.932-105.33-56.233-111.547-117.499c-5.824-57.397,25.946-109.834,75.184-133.176
					c-34.982-55.475-16.193-135.23,45.232-183.099c49.296-38.502,111.784-45.242,157.947-21.851
					c-0.049-94.034,75.463-175.238,176.362-185.476c77.292-7.843,148.427,28.171,185.892,86.903
					c14.711-59.399,65.251-106.083,129.675-112.62c64.818-6.577,124.068,29.447,150.16,85.344
					c30.009-24.98,76.924-38.195,127.635-32.093c81.543,9.673,137.303,56.897,134.632,126.482
					c-31.523-6.452-61.534-10.585-89.656-12.598c0,0,99.082,70.907,47.199,175.876c0,0,104.25-7.867,128.191,57.503
					c23.863,65.378-15.889,118.547-15.889,118.547s80.173,12.682,57.082,109.785c74.558,28.089,146.344,46.169,209.992,53.989
					l-0.313,2.425c3.573,35.212-8.515,68.583-30.817,94.056c36.913,14.76,64.059,46.464,68.032,85.623
					C2415.068,1530.213,2381.552,1575.649,2331.814,1592.501z"/>
			</g>
			<g>
				<g style="opacity:0.3;">
					<path style="fill:#000072;" d="M2287.875,1846.411c-58.361-18.301-103.337-70.503-109.985-136.018
						c-5.271-51.943,14.826-100.408,50.021-133.076c-55.374-27.854-97.327-89.282-104.902-163.95
						c-2.374-23.394-1.173-46.138,3.048-67.507c-66.414-10.752-117.961-78.94-120.571-166.733
						c-0.355-13.252,0.393-26.279,2.172-38.904c-88.474,5.947-167.286-66.707-177.245-164.851c-0.617-6.079-0.959-12.1-1.023-18.064
						c-39.502,17.717-88.392,25.369-139.609,18.96c-56.313-6.985-104.765-29.57-137.761-60.369
						c-32.417,30.791-83.026,53.418-141.539,59.356c-96.096,9.751-180.177-28.813-200.058-88.188
						c-8.252,37.502-46.619,77.056-102.062,99.922c-45.936,19.043-92.78,22.029-127.159,11.306c0,0-150.32,51.921-127.792,165.244
						c0.047,0.52,0.043,1.033,0.095,1.555c6.216,61.265,53.371,108.564,111.547,117.498l0.158-0.017
						c13.776-154.302,38.348-193.564,38.348-193.564c8.834,2.998,18.606,4.883,28.987,5.667c-7.884-0.598-15.418-1.826-22.451-3.708
						c7.6-27.544,13.464-36.958,13.464-36.958c30.565,10.378,72.103,7.837,112.736-9.924c28.161-12.249,51.254-29.753,67.189-49.153
						c1.11-3.31,2.073-6.623,2.731-9.919c0.999,3.127,2.2,6.184,3.539,9.19c-0.699-1.567-1.359-3.147-1.966-4.749
						c9.443-12.783,15.79-26.23,18.427-39.441c18.007,56.399,92.837,93.474,178.025,84.832
						c51.871-5.264,96.627-26.396,125.193-55.376c29.464,29.395,72.586,51.101,122.587,58.071
						c45.476,6.394,88.8-0.554,123.732-17.102c0.095,5.654,0.435,11.365,1.02,17.126c9.445,93.083,79.813,162.437,158.263,157.349
						c-1.498,11.956-2.081,24.297-1.683,36.86c2.861,83.223,49.014,148.174,107.998,158.779
						c-3.611,20.227-4.536,41.777-2.285,63.962c7.186,70.818,44.785,129.299,94.081,156.042
						c-9.543,9.458-17.796,20.352-24.522,32.324c-5.875-3.472-11.571-7.4-17.054-11.748c6.892,5.469,14.078,10.354,21.576,14.424
						c-12.665,12.554-23.03,27.646-30.582,44.431c4.812-10.676,10.767-20.667,17.735-29.751
						c-9.358,23.057-13.447,49.067-10.699,76.138c6.304,62.134,46.529,111.895,98.416,129.6
						c-7.479,11.292-17.065,21.838-28.305,31.802c-2.655-1.108-5.26-2.334-7.841-3.611c5.242,2.593,10.61,4.919,16.146,6.809
						c-21.579,32.581-60.367,59.089-107.426,82.688c102.819,34.321,148.436,2.261,168.615-35.801
						c-18.593-1.973,24.43-5.615,0.798-12.861c29.74-14.106-7.437-29.761,14.74-46.318c0.518-8.64,0.19-14.175,0.19-14.175
						c11.51-4.436,21.998-9.194,31.644-14.199C2280.667,1855.781,2284.492,1851.167,2287.875,1846.411z"/>
				</g>
			</g>
			<g>
				<path style="fill:#000072;" d="M2138.558,2019.716c-25.088,0-53.384-5.234-84.763-15.71
					c-8.223-2.744-13.984-10.169-14.602-18.816c-0.618-8.647,4.031-16.816,11.78-20.701c36.797-18.454,64.148-36.782,82.8-55.554
					c-47.087-26.909-79.622-77.314-85.518-135.396c-4.573-45.083,7.209-88.779,32.673-123.389
					c-45.422-34.631-76.567-93.054-83.208-158.472c-1.716-16.934-1.77-33.809-0.166-50.391
					c-60.342-21.797-102.764-90.003-105.642-173.779c-0.176-5.557-0.178-11.104-0.002-16.619
					c-77.139-7.734-141.619-75.259-155.1-165.161c-33.521,10.374-70.825,13.254-107.781,8.052
					c-45.405-6.333-87.148-24.053-119.614-50.493c-32.407,25.964-76.118,43.135-123.013,47.896
					c-73.789,7.493-141.321-16.286-177.722-59.001c-18.269,27.07-47.71,50.862-83.833,66.572
					c-36.821,16.096-75.374,21.46-108.721,15.535c-7.471,21.667-20.757,71.653-29.553,170.193
					c-0.923,10.315-9.082,18.499-19.392,19.451c-1.748,0.164-3.657,0.125-5.386-0.142c-69.248-10.63-122.554-66.775-129.631-136.533
					c-5.806-57.239,21.018-112.522,68.027-143.801c-26.528-63.34-2.781-142.207,60.544-191.558
					c45.44-35.496,102.273-47.983,151.931-34.993c14.048-92.832,92.485-166.516,193.398-176.755
					c68.555-6.951,136.072,18.135,181.482,65.403c26.143-50.19,76.235-85.252,134.084-91.121
					c63.682-6.45,124.956,23.403,159.524,75.742c34.119-19.517,78.333-27.813,122.996-22.449
					c96.262,11.418,156.531,69.751,153.506,148.601c-0.242,6.294-3.237,12.163-8.193,16.052c-4.956,3.887-11.372,5.405-17.541,4.138
					c-9.951-2.036-19.829-3.85-29.604-5.439c21.57,32.344,36.282,76.436,22.37,126.807c37.871,3.157,97.6,16.936,117.41,71.025
					c17.385,47.629,6.06,89.419-5.129,114.397c11.853,6.113,25.313,15.869,35.593,31.213c13.855,20.684,18.86,46.252,14.956,76.199
					c65.393,23.413,130.137,39.458,188.24,46.597c5.669,0.696,10.825,3.623,14.326,8.135c3.503,4.509,5.061,10.229,4.333,15.893
					l-0.012,0.078c2.539,30.32-4.602,60.09-20.386,86.155c32.315,20.884,53.611,53.972,57.366,90.969
					c5.127,50.515-22.537,98.542-69.087,123.943c17.437,33.799,44.219,101.45,23.159,168.425
					c-16.069,51.108-56.152,90.776-119.238,118.062c-1.421,25.544-9.5,75.898-49.285,106.506
					C2195.943,2011.63,2169.729,2019.716,2138.558,2019.716z M2118.438,1975.566c30.75,3.884,54.917-0.767,72.173-13.955
					c35.786-27.349,32.944-85.242,32.91-85.823c-0.525-9.299,5.007-17.947,13.698-21.296c58.037-22.366,94.121-54.744,107.251-96.24
					c23.008-72.712-29.92-152.979-30.457-153.782c-3.713-5.547-4.646-12.52-2.5-18.84c2.144-6.321,7.095-11.299,13.418-13.442
					c41.46-14.048,67.683-50.774,63.772-89.309c-3-29.587-23.943-55.593-54.656-67.874c-6.462-2.585-11.267-8.142-12.893-14.91
					c-1.624-6.765,0.134-13.901,4.719-19.136c16.089-18.379,25.09-40.554,26.042-63.606c-61.536-9.221-128.979-27.29-196.328-52.661
					c-10.105-3.809-15.803-14.531-13.305-25.034c6.15-25.862,4.426-46.35-5.12-60.896c-12.212-18.604-34.414-22.734-34.636-22.773
					c-7.331-1.301-13.564-6.326-16.304-13.25c-2.737-6.924-1.792-14.788,2.666-20.75c1.262-1.729,32.327-45.176,12.917-98.347
					c-17.854-48.753-105.549-43.55-106.428-43.469c-7.7,0.576-15.085-3.01-19.395-9.392c-4.309-6.387-4.861-14.595-1.448-21.501
					c42.991-86.973-37.083-146.482-40.51-148.972c-7.749-5.627-10.859-15.732-7.578-24.729c3.281-8.997,12.09-14.748,21.653-14.065
					c20.818,1.492,42.363,4.092,64.338,7.759c-11.694-49.163-63.667-73.052-113.377-78.95c-43.022-5.173-84.646,5.024-111.384,27.28
					c-5.117,4.258-11.909,5.901-18.403,4.448c-6.492-1.453-11.943-5.833-14.756-11.86c-22.957-49.182-74.619-78.55-128.557-73.076
					c-53.462,5.422-98.079,44.177-111.021,96.435c-2.063,8.325-8.887,14.622-17.351,16.011c-8.452,1.404-16.938-2.4-21.553-9.631
					c-34.177-53.579-99.216-83.838-165.642-77.097c-89.595,9.089-157.122,79.648-157.078,164.124
					c0.002,7.458-3.865,14.38-10.217,18.286c-6.355,3.896-14.282,4.228-20.928,0.859c-40.508-20.523-93.516-12.82-135.051,19.622
					c-51.848,40.405-69.539,108.374-40.293,154.753c3.274,5.19,4.167,11.533,2.456,17.424c-1.711,5.894-5.867,10.769-11.411,13.398
					c-42.432,20.115-67.764,64.976-63.03,111.628c4.321,42.612,32.551,78.176,71.426,92.72
					c14.131-134.702,36.465-173.801,39.104-178.018c5.276-8.433,15.659-12.131,25.078-8.931c26.807,9.094,63.159,5.635,97.248-9.267
					c40.481-17.605,71.602-49.192,77.478-78.616c1.914-9.59,10.071-16.67,19.834-17.217c9.744-0.525,18.66,5.581,21.631,14.893
					c15.125,47.373,81.936,77.49,155.427,70.012c44.975-4.563,85.828-22.456,112.083-49.092c4.009-4.067,9.475-6.37,15.186-6.392
					c0.029-0.002,0.061-0.002,0.09-0.002c5.679,0,11.128,2.253,15.149,6.267c27.515,27.451,66.724,45.923,110.398,52.014
					c39.499,5.549,79.116,0.137,111.589-15.244c6.589-3.123,14.312-2.678,20.498,1.165c6.191,3.845,10.007,10.571,10.129,17.859
					c0.085,5.037,0.393,10.191,0.916,15.32c8.164,80.474,69.05,142.434,135.535,138.11c6.384-0.398,12.617,2.041,17.004,6.699
					c4.385,4.656,6.462,11.025,5.667,17.373c-1.372,10.945-1.885,22.222-1.528,33.513c2.446,71.167,40.447,129.375,90.356,138.347
					c11.648,2.095,19.399,13.23,17.319,24.88c-3.364,18.838-4.058,38.362-2.061,58.027c6.25,61.584,38.042,114.98,82.969,139.355
					c5.964,3.235,10.047,9.102,11.006,15.818c0.959,6.716-1.313,13.491-6.133,18.269c-27.896,27.646-41.492,67.166-37.307,108.418
					c5.288,52.104,38.262,95.857,84.004,111.465c6.292,2.146,11.231,7.09,13.377,13.381c2.143,6.292,1.25,13.22-2.42,18.762
					C2171.07,1935.199,2149.165,1955.663,2118.438,1975.566z"/>
			</g>
			<g>
				<g>
					<g>
						<g>
							<path style="fill:#000072;" d="M1087.216,1287.817c-66.644-4.87-125.041,62.695-130.434,150.908
								c-5.394,88.214,44.26,163.673,110.905,168.543c66.642,4.87,125.042-62.693,130.435-150.908
								C1203.514,1368.147,1153.859,1292.687,1087.216,1287.817z"/>
						</g>
					</g>
				</g>
				<g>
					<g>
						<g>
							<path style="fill:#FFFFFF;" d="M1084.157,1324.785c-20.8,8.48-28.602,38.624-17.426,67.326
								c11.176,28.703,37.096,45.095,57.896,36.614c20.799-8.48,28.601-38.623,17.425-67.324
								C1130.877,1332.697,1104.958,1316.303,1084.157,1324.785z"/>
						</g>
					</g>
				</g>
				<g>
					<g>
						<g>
							<path style="fill:#B199C5;" d="M1021.216,1515.443c-9.719,6.965-10.218,23.509-1.116,36.95
								c9.102,13.443,24.36,18.693,34.077,11.727c9.719-6.964,10.218-23.509,1.115-36.949
								C1046.192,1513.729,1030.933,1508.479,1021.216,1515.443z"/>
						</g>
					</g>
				</g>
			</g>
			<g>
				<g>
					<g>
						<g>
							<path style="fill:#000072;" d="M1606.483,1265.806c-66.644-4.87-125.041,62.695-130.434,150.908
								c-5.394,88.214,44.26,163.673,110.905,168.543c66.642,4.87,125.042-62.693,130.435-150.908
								C1722.781,1346.135,1673.126,1270.675,1606.483,1265.806z"/>
						</g>
					</g>
				</g>
				<g>
					<g>
						<g>
							<path style="fill:#FFFFFF;" d="M1603.425,1302.773c-20.8,8.48-28.602,38.624-17.426,67.326
								c11.176,28.703,37.096,45.095,57.896,36.613c20.799-8.48,28.601-38.623,17.425-67.324
								C1650.145,1310.685,1624.225,1294.292,1603.425,1302.773z"/>
						</g>
					</g>
				</g>
				<g>
					<g>
						<g>
							<path style="fill:#B199C5;" d="M1540.483,1493.431c-9.719,6.965-10.218,23.509-1.116,36.95
								c9.102,13.443,24.36,18.693,34.077,11.727c9.719-6.964,10.218-23.509,1.115-36.949
								C1565.459,1491.718,1550.2,1486.467,1540.483,1493.431z"/>
						</g>
					</g>
				</g>
			</g>
		</g>
		<g style="opacity:0.3;">
			<path style="fill:#000072;" d="M3225,1945c0,0-30,220-235,120l7.5,47.5l15,25l45.698,5.803l68.254,38.531l17.614,40.732
				c0,0,21.609,0.065,27.522,0c5.913-0.066,20.913-25.066,20.913-25.066l20-70l15-35l22.249-63.687L3227.5,1967.5L3225,1945z"/>
		</g>
	</g>
</g>
</svg>
