<?xml version="1.0" encoding="utf-8"?>
<!-- Generator: Adobe Illustrator 27.5.0, SVG Export Plug-In . SVG Version: 6.00 Build 0)  -->
<svg version="1.1" id="Layer_1" xmlns="http://www.w3.org/2000/svg" xmlns:xlink="http://www.w3.org/1999/xlink" x="0px" y="0px"
	 viewBox="0 0 4000 4000" style="enable-background:new 0 0 4000 4000;" xml:space="preserve">
<g>
	<g>
		<!-- <rect style="fill-rule:evenodd;clip-rule:evenodd;fill:#FFCAEC;" width="4000" height="4000"/> -->
	</g>
	<g>
		<g>
			<path style="fill-rule:evenodd;clip-rule:evenodd;fill:#FFFFFF;" d="M1333.819,2226.212c1.896,21.285,17.443,38.869,38.33,43.365
				c59.662,12.902,123.211-145.714,261.243-179.759C1556.076,2081.366,1325.857,2137.586,1333.819,2226.212z"/>
		</g>
		<g>
			<path style="fill-rule:evenodd;clip-rule:evenodd;fill:#FFFFFF;" d="M2306.93,850.336c27.888-3.371,54.699,11.778,66.196,37.371
				c32.851,73.102-153.464,198.068-159.458,384.642C2181.659,1175.363,2190.955,864.339,2306.93,850.336z"/>
		</g>
		<g style="opacity:0.4;">
			<path style="fill-rule:evenodd;clip-rule:evenodd;fill:#FFC022;" d="M2306.93,850.336c27.888-3.371,54.699,11.778,66.196,37.371
				c31.235,69.471-135.505,185.799-157.281,357.339l-4.426,2.412c-3.396-88.159,14.12-179.385,71.651-261.385
				C2326.179,924.586,2340.134,884.007,2306.93,850.336"/>
		</g>
		<g>
			<path style="fill-rule:evenodd;clip-rule:evenodd;fill:#FFFFFF;" d="M958.989,1719.156c-4.779,27.655,8.967,55.215,33.928,68.023
				c71.322,36.572,205.702-143.091,392.346-139.463C1290.032,1610.745,978.962,1604.048,958.989,1719.156z"/>
		</g>
		<g>
			<path style="fill-rule:evenodd;clip-rule:evenodd;fill:#FFFFFF;" d="M2980.446,1759.523
				c-155.149-115.903-302.151-69.402-463.107-51.865c-287,31.283-87.409-233.542-120.658-313.178
				c-14.775-35.381-51.115-56.78-89.212-52.589c-126.513,13.955-118.107,249.442-11.732,343.454
				c-142.503-40.579-191.232-177.091-249.278-390.027c-127.635-468.212-436.739-714.421-826.811-699.694
				c-484.367,18.311-651.834,257.522-440.23,610.552c77.293,128.971,242.018,178.728,432.128,193.973
				c104.572,5.596,209.143,15.242,292.62,68.371c189.451,120.588,228.157,266.372,99.162,302.501
				c-202.775,56.783-313.95,81.556-265.739,153.02c38.893,57.648,119.277,24.749,223.333-9.25
				c184.934-60.411,306.085,24.915,348.184,199.989c37.862,58.773,67.273,98.486,88.205,119.183
				c61.631-47.882,105.066-98.155,130.306-150.816c67.318,51.115,106.797,77.365,118.411,78.698
				c15.127-39.922,25.663-77.106,31.587-111.549c51.374,10.701,89.399,21.308,114.124,31.799
				c38.308-55.917,75.07-106.447,110.309-151.639c76.638,52.848,132.788,75.14,168.473,66.899
				c29.667-90.243,55.143-153.931,76.358-191.069c89.89-2.129,163.344-3.558,220.36-4.309
				C2971.594,1787.037,2975.996,1772.896,2980.446,1759.523z"/>
		</g>
		<g style="opacity:0.4;">
			<path style="fill-rule:evenodd;clip-rule:evenodd;fill:#FFC022;" d="M717.741,809.898
				c-51.769,102.838-33.108,238.132,61.676,396.278c77.293,128.971,242.018,178.728,432.128,193.973
				c104.572,5.596,209.167,15.242,292.62,68.371c71.344,45.403,121.312,94.386,148.989,139.741l0,0
				c-41.608-153.977-204.343-238.858-560.886-282.058C854.135,1297.354,705.659,1116.168,717.741,809.898"/>
		</g>
		<g style="opacity:0.4;">
			<path style="fill-rule:evenodd;clip-rule:evenodd;fill:#FFC022;" d="M1368.591,1845.832
				c-41.025,21.191-53.738,44.514-31.002,78.209c38.869,57.648,119.277,24.749,223.333-9.25
				c184.934-60.411,306.085,24.915,348.184,199.989c37.862,58.773,67.273,98.486,88.205,119.183c2.997-2.34,5.973-4.683,8.876-7.023
				c-1.99-2.132-4.004-4.309-6.16-6.51c-19.295-81.086-54.136-157.492-99.373-232.348c-85.373-141.242-229.96-170.252-438.895-83.92
				C1369.481,1926.404,1338.433,1906.969,1368.591,1845.832"/>
		</g>
		<g style="opacity:0.4;">
			<path style="fill-rule:evenodd;clip-rule:evenodd;fill:#FFC022;" d="M2391.74,2082.093c21.966-32.034,43.413-62.31,64.345-90.852
				C2264.479,2106.818,2374.742,2074.881,2391.74,2082.093 M2980.446,1759.523c-155.149-115.903-302.151-69.402-463.107-51.865
				c-287,31.283-87.409-233.542-120.658-313.178c-14.775-35.381-51.115-56.78-89.212-52.589c-9.061,1.007-17.422,3.184-25.125,6.32
				c-10.771,6.79-21.285,14.096-31.564,22.011l-0.046,0.048c105.929-11.147,113.822,48.515,73.289,195.68
				c-34.256,124.382,28.989,198.023,138.128,193.644c265.621-10.677,295.125,92.42,78.58,195.984
				c57.133,34.63,100.404,48.563,129.791,41.773c29.667-90.243,55.143-153.931,76.358-191.069
				c89.866-2.129,163.344-3.558,220.36-4.309C2971.594,1787.037,2975.996,1772.896,2980.446,1759.523z"/>
		</g>
		<g style="opacity:0.4;">
			<path style="fill-rule:evenodd;clip-rule:evenodd;fill:#FFC022;" d="M958.989,1719.156c-4.779,27.655,8.967,55.215,33.928,68.023
				c64.463,33.038,180.438-110.496,339.919-135.764v-0.021c-104.83-6.745-208.606,24.327-292.526,87.548
				c-19.903,8.454-42.967,0.491-53.457-18.402c-10.42-18.779-5.105-42.358,12.293-54.841
				C977.44,1679.469,962.828,1697.053,958.989,1719.156"/>
		</g>
		<g style="opacity:0.4;">
			<path style="fill-rule:evenodd;clip-rule:evenodd;fill:#FFC022;" d="M1333.819,2226.212c1.896,21.285,17.42,38.869,38.33,43.365
				c48.633,10.514,99.865-92.981,191.959-150.02c-2.834-2.623-5.855-5.27-9.085-7.891
				c-53.107,20.839-107.125,54.462-155.547,107.123c-17.983,19.575-37.582,21.755-65.774,0.775
				C1333.608,2221.765,1333.608,2223.966,1333.819,2226.212"/>
		</g>
		<g style="opacity:0.4;">
			<path style="fill-rule:evenodd;clip-rule:evenodd;fill:#FFC022;" d="M1757.493,877.473
				c77.995,81.978,123.772,191.443,116.443,307.512c-10.49,166.6-116.093,228.744-262.787,139.648
				c-7.354-4.448-15.127-8.898-23.323-13.298c212.049,138.734,325.356,96.259,339.896-127.451
				c25.804,101.692,56.852,221.882,126.513,343.36c59.965,104.55,151.003,150.442,241.503,158.101
				c-142.503-40.579-191.232-177.091-249.278-390.051c-127.635-468.188-436.739-714.397-826.811-699.67
				c-31.636,1.194-61.935,3.326-90.852,6.392c224.505,6.745,422.223,87.363,593.176,241.903
				C1734.43,854.479,1746.301,865.696,1757.493,877.473"/>
		</g>
		<g style="opacity:0.4;">
			<path style="fill-rule:evenodd;clip-rule:evenodd;fill:#FFC022;" d="M2068.774,1741.191
				c-68.747,20.651-121.523,5.62-155.897-36.246c25.03,77.175,67.855,92.254,137.492,65.889
				c33.11-12.526,64.556,9.483,88.603,44.137c70.224,94.41,137.612,110.662,202.192,48.705
				c-70.925,17.093-124.17,6.697-152.996-35.99C2141.08,1757.886,2104.577,1730.442,2068.774,1741.191"/>
		</g>
		<g>
			<path style="fill-rule:evenodd;clip-rule:evenodd;fill:#EFB27B;" d="M2967.239,1801.975
				c23.836-81.719,49.101-140.022,75.794-174.935c1043.194,1445.724-963.488,2111.841-1133.928,487.739
				c37.862,58.773,67.273,98.486,88.205,119.183c61.631-47.882,105.066-98.155,130.306-150.816
				c67.318,51.115,106.797,77.365,118.411,78.698c15.127-39.922,25.663-77.106,31.587-111.549
				c51.374,10.701,89.399,21.308,114.124,31.799c38.308-55.917,75.07-106.447,110.309-151.639
				c76.638,52.848,132.788,75.14,168.473,66.899c29.667-90.243,55.143-153.931,76.358-191.069
				C2836.77,1804.155,2910.224,1802.725,2967.239,1801.975z"/>
		</g>
		<g style="opacity:0.5;">
			<path style="fill-rule:evenodd;clip-rule:evenodd;fill:#FFFFFF;" d="M2672.934,1990.047
				c28.636-86.402,53.292-147.632,73.946-183.763l39.102-0.914h-0.163C2759.875,1879.409,2722.246,1940.944,2672.934,1990.047
				 M2664.223,1998.453h0.024l0,0H2664.223z M2231.908,2156.084l0.187,0.094l0.117,0.07l0.304,0.141l0.304,0.163l0.281,0.166
				l0.166,0.094l0.139,0.046l0.281,0.165l0.283,0.139l0.281,0.141l0.139,0.094l0.141,0.07l0.281,0.142l0.281,0.139l0.283,0.142
				l0.115,0.07l0.142,0.072l0.281,0.115l0.259,0.141l0.257,0.141l0.117,0.046l0.139,0.07l0.259,0.117l0.257,0.117l0.259,0.118
				l0.093,0.045l0.163,0.072l0.235,0.117l0.257,0.115l0.235,0.118l0.093,0.048l0.141,0.045l0.257,0.118l0.468,0.211l0.072,0.024
				l0.374,0.163l0.233,0.094l0.211,0.094l0.072,0.024l0.139,0.07l0.235,0.072l0.211,0.094l0.211,0.069l0.046,0.024l0.165,0.07
				l0.209,0.07l0.189,0.072l0.208,0.07l0.048,0.024l0.163,0.046l0.187,0.069l0.189,0.072l0.187,0.07l0.022,0.024l0.165,0.046
				l0.187,0.048l0.187,0.07l0.187,0.048h0.024l0.141,0.045l0.163,0.048l0.187,0.045l0.163,0.048h0.024l0.141,0.045l0.163,0.048
				l0.165,0.045l0.163,0.024l0,0l0.163,0.024l0.141,0.045l0.163,0.024l0.142,0.024l0,0l0.163,0.024l0.117,0.024l0.142,0.021
				l0.163,0.024c15.127-39.946,25.663-77.13,31.587-111.549c51.374,10.677,89.399,21.284,114.124,31.775l0,0
				c65.657-43.929,111.41-85.958,137.26-126.07l26.811,8.406c-16.623-9.411-34.561-20.745-53.762-33.976
				c-35.239,45.192-72.001,95.722-110.309,151.639c-0.281-0.048-27.324-3.911-74.739-8.922
				c-19.107,33.858-40.51,66.335-64.182,97.383c-2.741-1.218-5.479-2.506-8.243-3.839c-13.439,46.736-17.748,93.216-12.878,139.367
				c0,0,30.698-1.734,92.139-5.198c-2.153,47.861,2.319,94.082,13.418,138.617c24.632-9.975,55.236-22.666,91.811-38.049
				c52.496,46.221,92.701,97.383,120.612,153.509c-30.535-10.84-68.56-52.589-114.081-125.223
				c-3.769,17.889,4.028,79.961,23.392,186.221c-18.474-27.583-35.474-82.446-50.973-164.586
				c-27.701,17.048-60.413,19.201-98.11,6.464c-12.199-11.427-16.508-53.599-12.902-126.513
				c-52.263,3.558-84.529-2.88-96.822-19.364c-9.718-34.374-3.395-87.55,18.918-159.458c-19.036-11.871-38.634-26.835-58.818-44.887
				c-37.184,70.339-94.223,126.396-171.166,168.193c42.008,244.898,147.189,456.175,315.544,633.824
				c-6.977,0.47-13.979,0.726-21.025,0.82c-185.801-146.58-333.481-404.545-374.528-795.672
				c37.862,58.773,67.273,98.486,88.205,119.183c61.631-47.882,105.066-98.155,130.306-150.816
				c50.179,38.097,84.882,62.379,104.104,72.821L2231.908,2156.084z M2968.385,1798.067
				c23.486-79.683,48.376-136.675,74.648-171.027c6.51,9.039,12.365,17.868,18.64,26.835
				C3037.555,1718.431,3006.459,1766.503,2968.385,1798.067z"/>
		</g>
		<g>
			<path style="fill:#390075;" d="M2708.384,3078.961c-55.207,0-110.715-6.836-165.5-20.566
				c-162.702-40.771-307.239-139.697-417.986-286.074c-126.46-167.148-204.839-387.773-232.961-655.742
				c-0.833-7.949,3.899-15.435,11.438-18.086c7.539-2.661,15.915,0.215,20.247,6.934c30.957,48.062,56.248,83.311,75.396,105.112
				c52.778-43.091,90.769-88.403,113.032-134.854c2.244-4.678,6.47-8.101,11.511-9.321c5.042-1.206,10.364-0.103,14.497,3.032
				c56.133,42.622,84.167,61.216,98.052,69.307c11.406-32.417,19.631-63.071,24.492-91.333c0.793-4.619,3.43-8.711,7.302-11.348
				c3.87-2.637,8.65-3.589,13.232-2.627c44.6,9.292,78.877,18.374,104.15,27.617c35.588-51.543,70.254-98.989,103.149-141.172
				c5.623-7.212,15.889-8.774,23.413-3.599c78.452,54.097,121.836,66.465,145.664,65.469
				c28.45-85.498,53.455-147.363,74.377-183.989c3-5.254,8.533-8.55,14.583-8.696c82.485-1.953,152.312-3.34,207.829-4.136
				c23.555-78.037,48.137-133.174,75.02-168.335c3.32-4.336,8.521-6.616,13.953-6.772c5.461,0.073,10.564,2.729,13.76,7.158
				c171.931,238.271,271.668,468.452,296.438,684.15c21.651,188.501-16.143,360.786-109.29,498.218
				c-74.634,110.117-181.028,192.842-307.68,239.224C2863.049,3065.43,2786.021,3078.956,2708.384,3078.961z M1935.259,2184.571
				c65.562,447.52,292.61,759.287,616.018,840.332c254.771,63.838,521.75-34.595,664.324-244.966
				c193.374-285.313,130.442-693.491-172.188-1122.642c-20.576,34.131-40.569,84.263-59.602,149.512
				c-2.124,7.285-8.757,12.329-16.345,12.427c-55.161,0.727-125.852,2.099-210.251,4.077
				c-19.702,37.104-43.32,97.383-70.293,179.433c-1.885,5.737-6.631,10.073-12.517,11.431
				c-38.723,8.936-93.965-10.815-168.621-60.347c-31.921,41.514-65.442,87.871-99.802,138.018
				c-4.644,6.782-13.418,9.351-20.981,6.138c-20.835-8.838-52.327-17.939-93.755-27.109c-6.401,30.415-16.152,62.983-29.075,97.085
				c-2.8,7.388-10.291,11.929-18.11,11.035c-7.304-0.84-20.547-2.354-110.569-69.795c-27.16,48.208-69.319,94.678-125.591,138.394
				c-6.843,5.308-16.57,4.731-22.729-1.357C1971.536,2232.755,1955.034,2212.379,1935.259,2184.571z M2967.239,1801.974h0.049
				H2967.239z"/>
		</g>
		<g style="opacity:0.3;">
			<path style="fill-rule:evenodd;clip-rule:evenodd;fill:#4F0000;" d="M2238.909,2300.345
				c5.925-117.941,21.963-189.475,48.096-214.6c-19.786,126.067-29.691,189.101-29.691,189.101
				c45.895,0.398,72.775,3.841,80.688,10.327c11.684,48.189,18.896,85.301,21.613,111.338
				c60.012-21.306,90.032-31.962,90.032-31.962c81.765,114.875,122.624,172.336,122.624,172.336
				c-90.219-92.185-135.315-138.267-135.315-138.267c-65.985,23.766-98.954,35.639-98.954,35.639
				c-9.435-88.931-14.166-133.373-14.166-133.373C2280.565,2301.352,2252.257,2301.189,2238.909,2300.345"/>
		</g>
		<g style="opacity:0.5;">
			<path style="fill-rule:evenodd;clip-rule:evenodd;fill:#FFFFFF;" d="M2646.59,1998.616c8.804,0.82,16.767,0.374,23.932-1.264
				l0.679-2.084c3.63,18.707,15.993,53.949,37.042,105.742c28.708-2.551,57.696-0.024,86.965,7.634
				c4.565,23.531,13.041,67.107,25.406,130.75c-5.34,11.404,23.109,13.324,85.325,5.759c11.543,26.694,19.832,77.811,24.819,153.3
				c0,0,15.664-3.886,46.947-11.684c4.987,24.891,7.984,49.803,8.991,74.766c15.36-3.748,43.341-5.222,83.92-4.402
				c62.801,5.901,100.006,26.459,111.597,61.674c-33.928-22.081-63.806-34.326-89.586-36.738c0,0,7.212,17.35,21.682,52.028
				c0,0-6.323,16.743-18.92,50.225c0,0,7.867,42.265,23.555,126.818c-3.676-1.616-37.464-37.323-61.3-117.45
				c4.613-19.107,22.454-37.63,31.633-51.654c-6.414-25.125-17.069-47.837-31.962-68.093c-53.527,21.8-86.028,18.779-97.453-9.037
				c1.499-10.279,1.921-26.857,1.288-49.688c-31.4,11.802-48.307,6.112-50.671-17.093c1.194-27.511-5.69-69.028-20.651-124.569
				c0,0-25.476,0.329-76.475,0.962c0,0-10.84-47.861-32.571-143.606c-13.159,0.865-41.984-4.309-86.495-15.501
				c-20.606-35.942-36.505-74.881-47.698-116.771V1998.616z"/>
		</g>
		<g>
			<path style="fill:#390075;" d="M1997.314,2251.226c-4.411,0-8.801-1.685-12.143-4.99
				c-22.092-21.846-51.719-61.787-90.579-122.109c-1.05-1.631-1.816-3.428-2.271-5.313
				c-20.854-86.724-61.885-149.331-118.657-181.05c-55.686-31.118-125.456-33.32-207.383-6.563
				c-8.394,2.739-16.633,5.479-24.709,8.159c-94.028,31.206-175.225,58.169-218.296-5.669
				c-13.838-20.513-17.539-39.912-10.996-57.661c17.261-46.826,98.782-69.478,246.775-110.596
				c12.778-3.55,25.991-7.222,39.617-11.04c25.454-7.129,56.885-22.954,62.048-57.866c6.731-45.488-32.661-128.686-165.825-213.442
				c-79.983-50.908-180.107-60.127-284.273-65.698c-229.704-18.413-375.447-84.59-446.013-202.334
				c-98.352-164.092-118.591-309.419-58.528-420.273c71.292-131.587,248.655-206.416,512.915-216.406
				c197.8-7.412,378.848,52.256,523.518,172.729c148.921,124.009,256.787,305.581,320.601,539.673
				c45.854,168.218,85.569,290.439,174.695,349.458c-38.811-67.163-52.756-156.563-30.566-226.567
				c16.541-52.183,51.462-83.765,98.333-88.936c45.417-5.005,89.436,20.952,107.036,63.1c12.607,30.195,0.271,73.745-14.014,124.18
				c-16.345,57.705-34.871,123.115-7.656,155.313c18.865,22.329,60.755,30.112,124.526,23.169
				c25.332-2.759,50.728-6.299,75.286-9.727c135.684-18.921,263.853-36.802,400.024,64.927c5.959,4.448,8.398,12.222,6.048,19.277
				c-4.378,13.159-8.758,27.231-13.015,41.836c-2.124,7.285-8.757,12.329-16.345,12.427c-55.161,0.727-125.852,2.099-210.251,4.077
				c-19.702,37.104-43.32,97.383-70.293,179.433c-1.885,5.737-6.631,10.073-12.517,11.431c-38.698,8.94-93.96-10.815-168.621-60.347
				c-31.921,41.514-65.442,87.871-99.802,138.018c-4.641,6.777-13.418,9.351-20.981,6.138
				c-20.835-8.838-52.327-17.939-93.755-27.109c-6.401,30.415-16.152,62.983-29.075,97.085c-2.798,7.388-10.276,11.895-18.11,11.035
				c-7.304-0.84-20.547-2.354-110.569-69.795c-27.163,48.208-69.319,94.678-125.591,138.394
				C2004.771,2250.025,2001.035,2251.226,1997.314,2251.226z M1925.191,2107.862c30.244,46.816,55.002,81.245,73.826,102.676
				c52.778-43.091,90.769-88.403,113.035-134.854c2.241-4.678,6.468-8.101,11.509-9.321c5.042-1.206,10.364-0.103,14.497,3.032
				c56.133,42.622,84.165,61.216,98.052,69.307c11.406-32.417,19.631-63.071,24.492-91.333c0.793-4.619,3.43-8.711,7.302-11.348
				c3.87-2.637,8.65-3.589,13.232-2.627c44.6,9.292,78.877,18.374,104.15,27.617c35.588-51.543,70.254-98.989,103.149-141.172
				c5.623-7.212,15.889-8.774,23.413-3.599c78.455,54.097,121.836,66.465,145.664,65.469
				c28.45-85.498,53.457-147.363,74.377-183.989c3-5.254,8.533-8.55,14.583-8.696c82.485-1.953,152.312-3.34,207.832-4.136
				c1.929-6.387,3.875-12.651,5.83-18.765c-121.297-85.098-239.58-68.604-364.612-51.157c-24.81,3.457-50.466,7.036-76.313,9.854
				c-76.936,8.374-127.524-3.13-154.636-35.205c-39.07-46.226-17.886-121.021,0.806-187.012
				c11.472-40.508,23.337-82.392,15.374-101.47c-11.741-28.11-41.116-45.425-71.396-42.085c-41.604,4.59-60.596,37.91-69.199,65.054
				c-22.61,71.328-1.079,188.13,67.014,248.31c6.04,5.337,7.581,14.146,3.711,21.221c-3.867,7.07-12.114,10.542-19.873,8.315
				c-152.915-43.545-202.702-187.475-261.203-402.09C1906.76,848.492,1611.646,598.077,1220.3,612.877
				c-251.389,9.502-418.706,78.091-483.862,198.35c-53.926,99.531-33.943,233.037,57.786,386.074
				c64.419,107.49,201.377,168.213,418.701,185.64c104.138,5.566,213.535,15.659,300.51,71.016
				c122.937,78.252,192.461,173.135,181.441,247.627c-6.143,41.524-37.002,72.09-86.892,86.065
				c-13.65,3.818-26.885,7.5-39.685,11.055c-118.711,32.983-212.478,59.038-223.623,89.272c-0.925,2.51-3.743,10.151,7.224,26.411
				c27.104,40.176,82.761,24.092,178.794-7.793c8.128-2.7,16.419-5.454,24.866-8.213c91.458-29.868,170.505-26.763,234.946,9.243
				C1855.256,1943.8,1901.79,2013.009,1925.191,2107.862z"/>
		</g>
		<g>
			<path style="fill:#390075;" d="M2213.657,1289.615c-7.349,0-14.021-4.702-16.382-11.855
				c-25.085-76.001-27.383-294.268,35.408-393.11c19.512-30.713,43.794-48.022,72.178-51.45
				c35.547-4.302,69.331,14.761,84.011,47.432c18.823,41.885-13.491,89.004-54.407,148.662
				c-44.739,65.234-100.42,146.421-103.54,243.613c-0.271,8.364-6.504,15.332-14.79,16.528
				C2215.305,1289.557,2214.478,1289.615,2213.657,1289.615z M2314.741,867.13c-1.899,0-3.813,0.112-5.74,0.347c0,0-0.003,0-0.005,0
				c-17.607,2.124-33.477,14.131-47.17,35.689c-39.151,61.631-50.218,178.696-45.84,267.944
				c21.975-62.148,58.547-115.479,90.005-161.348c33.411-48.711,62.263-90.781,51.387-114.98
				C2349.722,877.74,2333.042,867.13,2314.741,867.13z M2306.929,850.338h0.049H2306.929z"/>
		</g>
		<g>
			<path style="fill:#390075;" d="M1014.304,1809.459c-10.205,0-19.939-2.139-29.265-6.919
				c-31.853-16.343-49.158-51.035-43.062-86.323c0-0.005,0.003-0.01,0.003-0.01c4.888-28.179,23.438-51.543,55.134-69.453
				c101.958-57.617,319.802-44.092,394.397-15.132c7.805,3.032,12.31,11.226,10.688,19.438c-1.599,8.101-8.706,13.921-16.931,13.921
				c-0.115,0-0.227-0.005-0.339-0.005c-97.434-1.787-181.182,49.546-248.628,90.874
				C1088.699,1785.02,1048.814,1809.459,1014.304,1809.459z M976.001,1722.095c-3.513,20.327,6.453,40.313,24.797,49.722
				c23.599,12.124,67.1-14.546,117.463-45.405c47.422-29.058,102.568-62.842,165.767-81.592
				c-88.909-8.97-206.353-3.935-269.929,31.992C991.858,1689.381,979.038,1704.615,976.001,1722.095L976.001,1722.095z"/>
		</g>
		<g>
			<path style="fill:#390075;" d="M1379.514,2287.642c-3.623,0-7.288-0.386-11.016-1.191c-28.435-6.118-49.292-29.712-51.875-58.706
				c-2.061-22.969,7.393-44.912,28.093-65.22c65.562-64.307,227.683-96.748,290.552-89.868c8.325,0.913,14.795,7.661,15.352,16.016
				c0.554,8.354-4.963,15.903-13.093,17.91c-70.732,17.441-121.919,71.309-163.047,114.585
				C1439.607,2257.867,1411.309,2287.637,1379.514,2287.642z M1539.419,2115.103c-62.637,12.383-135.102,37.329-170.525,72.07
				c-12.959,12.715-18.974,25.327-17.881,37.495c0,0,0,0.005,0,0.01c1.233,13.838,11.187,25.098,24.766,28.018
				c17.49,3.789,44.788-24.917,73.672-55.313C1474.92,2170.582,1503.972,2140.01,1539.419,2115.103z"/>
		</g>
		<g>
			<path style="fill-rule:evenodd;clip-rule:evenodd;fill:#BE7C56;" d="M2489.545,2853.529c15.878,0,28.732,12.854,28.732,28.729
				c0,15.854-12.854,28.708-28.732,28.708c-15.851,0-28.706-12.854-28.706-28.708
				C2460.839,2866.383,2473.694,2853.529,2489.545,2853.529"/>
		</g>
		<g>
			<path style="fill-rule:evenodd;clip-rule:evenodd;fill:#AF6C44;" d="M2910.692,2901.951c15.851,0,28.729,12.856,28.729,28.708
				c0,15.875-12.878,28.729-28.729,28.729c-15.851,0-28.729-12.854-28.729-28.729
				C2881.962,2914.808,2894.841,2901.951,2910.692,2901.951"/>
		</g>
		<g>
			<path style="fill-rule:evenodd;clip-rule:evenodd;fill:#BE7C56;" d="M2701.898,2327.53c15.851,0,28.708,12.854,28.708,28.729
				c0,15.854-12.857,28.708-28.708,28.708c-15.851,0-28.732-12.854-28.732-28.708
				C2673.167,2340.385,2686.047,2327.53,2701.898,2327.53"/>
		</g>
		<g>
			<path style="fill-rule:evenodd;clip-rule:evenodd;fill:#AF6C44;" d="M3208.86,2230.404c10.701,0,19.366,8.663,19.366,19.364
				c0,10.677-8.665,19.364-19.366,19.364c-10.677,0-19.364-8.687-19.364-19.364
				C3189.496,2239.067,3198.183,2230.404,3208.86,2230.404"/>
		</g>
		<g>
			<path style="fill-rule:evenodd;clip-rule:evenodd;fill:#BE7C56;" d="M2137.802,2357.852c15.875,0,28.732,12.878,28.732,28.732
				c0,15.875-12.857,28.729-28.732,28.729c-15.851,0-28.706-12.854-28.706-28.729
				C2109.097,2370.73,2121.951,2357.852,2137.802,2357.852"/>
		</g>
		<g>
			<path style="fill-rule:evenodd;clip-rule:evenodd;fill:#BE7C56;" d="M2145.554,2519.206c7.656,0,13.885,6.229,13.885,13.885
				c0,7.658-6.229,13.885-13.885,13.885c-7.658,0-13.885-6.227-13.885-13.885
				C2131.669,2525.435,2137.896,2519.206,2145.554,2519.206"/>
		</g>
		<g>
			<path style="fill-rule:evenodd;clip-rule:evenodd;fill:#BE7C56;" d="M2956.514,1926.733c7.658,0,13.864,6.205,13.864,13.885
				c0,7.656-6.205,13.861-13.864,13.861c-7.656,0-13.885-6.205-13.885-13.861
				C2942.629,1932.938,2948.858,1926.733,2956.514,1926.733"/>
		</g>
		<g>
			<path style="fill-rule:evenodd;clip-rule:evenodd;fill:#BE7C56;" d="M2446.297,2202.962c7.68,0,13.885,6.227,13.885,13.885
				c0,7.656-6.206,13.861-13.885,13.861c-7.656,0-13.861-6.205-13.861-13.861
				C2432.436,2209.189,2438.641,2202.962,2446.297,2202.962"/>
		</g>
		<g>
			<path style="fill-rule:evenodd;clip-rule:evenodd;fill:#BE7C56;" d="M2798.721,2668.97c7.656,0,13.861,6.205,13.861,13.861
				c0,7.658-6.205,13.885-13.861,13.885c-7.68,0-13.885-6.227-13.885-13.885C2784.835,2675.175,2791.041,2668.97,2798.721,2668.97"
				/>
		</g>
		<g>
			<path style="fill-rule:evenodd;clip-rule:evenodd;fill:#AF6C44;" d="M3195.303,2627.619c5.714,0,10.351,4.637,10.351,10.351
				c0,5.735-4.637,10.373-10.351,10.373c-5.714,0-10.349-4.637-10.349-10.373
				C3184.954,2632.256,3189.589,2627.619,3195.303,2627.619"/>
		</g>
		<g>
			<path style="fill-rule:evenodd;clip-rule:evenodd;fill:#AF6C44;" d="M3085.274,2020.651c12.646,0,22.901,10.255,22.901,22.898
				c0,12.646-10.255,22.925-22.901,22.925c-12.667,0-22.922-10.279-22.922-22.925
				C3062.352,2030.906,3072.607,2020.651,3085.274,2020.651"/>
		</g>
		<g>
			<path style="fill-rule:evenodd;clip-rule:evenodd;fill:#BE7C56;" d="M2346.595,2688.008c8.008,0,14.518,6.486,14.518,14.516
				c0,8.009-6.51,14.518-14.518,14.518c-8.03,0-14.516-6.51-14.516-14.518C2332.08,2694.493,2338.565,2688.008,2346.595,2688.008"/>
		</g>
		<g>
			<path style="fill-rule:evenodd;clip-rule:evenodd;fill:#BE7C56;" d="M2602.501,2629.889c8.008,0,14.516,6.51,14.516,14.542
				c0,8.008-6.508,14.518-14.516,14.518c-8.032,0-14.542-6.51-14.542-14.518C2587.959,2636.399,2594.469,2629.889,2602.501,2629.889
				"/>
		</g>
		<g>
			<path style="fill-rule:evenodd;clip-rule:evenodd;fill:#BE7C56;" d="M2974.241,2139.389c8.03,0,14.518,6.51,14.518,14.518
				c0,8.03-6.489,14.516-14.518,14.516c-8.008,0-14.518-6.486-14.518-14.516C2959.723,2145.898,2966.232,2139.389,2974.241,2139.389
				"/>
		</g>
		<g style="opacity:0.25;">
			<path style="fill-rule:evenodd;clip-rule:evenodd;fill:#390075;" d="M2973.953,1817.32
				c23.836-81.719,49.101-140.046,75.794-174.935c79.518,110.192,141.053,215.749,187.298,316.199
				c278.408,806.421-283.276,1251.262-859.572,1026.148c-42.358-24.469-83.45-53.807-122.506-88.648
				c383.071,217.971,750.643-20.325,824.447-434.869c-14.494,7.001-40.109,11.403-76.871,13.207
				c-9.881-5.057-14.096-29.339-12.622-72.891c-17.772,1.709-33.203,5.174-46.314,10.373
				c-14.401-86.613-24.728-137.097-30.955-151.404c-47.746,0.117-71.605,0.189-71.605,0.189
				c-19.925-42.243-34.772-90.384-44.535-144.45c-54.347,0.094-81.556,0.117-81.556,0.117
				c-25.147-69.097-37.721-103.658-37.721-103.658c16.906-33.367,25.358-50.038,25.358-50.038
				c21.098,84.762,31.633,127.144,31.633,127.144c51.422,2.786,77.13,4.191,77.13,4.191
				c27.116,93.379,40.672,140.046,40.672,140.046c47.535,2.81,71.301,4.191,71.301,4.191
				c29.034,66.124,43.878,111.503,44.535,136.183c25.382,1.288,38.097,1.945,38.097,1.945c9.318,18.357,13.204,39.454,11.612,63.244
				c31.47-6.862,53.505-8.454,66.124-4.707C3110.136,2253.196,3080.961,2039.884,2973.953,1817.32"/>
		</g>
		<g>
			<g>
				<path style="fill:#390075;" d="M1912.877,1704.944c0,0,3.323,7.773,10.301,20.347c6.721,12.293,18.172,30.698,37.958,41.632
					c19.88,10.981,47.557,7.891,75.348-2.364l11.756-4.333l11.473-3.23c4.987-0.54,10.536-0.75,15.852-0.796
					c4.87,0.724,9.6,1.873,14.425,2.925c18.637,6.088,33.108,18.474,45.027,31.635c5.97,6.182,11.334,14.799,15.736,20.136
					c5.057,6.44,9.998,13.394,15.101,19.014c9.835,11.941,20.771,23.088,31.753,32.875c11.401,9.224,22.946,17.28,34.935,22.783
					c12.082,5.011,24.188,7.563,35.661,7.773c11.427-0.281,22.081-2.436,31.214-5.759c9.13-3.326,16.882-7.33,22.876-11.193
					c12.245-7.471,18.873-12.715,18.873-12.715s-1.405,1.544-4.028,4.426c-2.741,2.786-6.251,7.493-12.082,12.034
					c-10.981,9.389-28.895,23.299-55.963,26.95c-13.346,1.453-28.31,0.117-43.012-4.822c-14.518-5.177-28.59-13.183-41.728-23.042
					c-12.643-10.372-25.289-21.213-36.27-34.467c-5.946-6.438-10.607-12.854-15.875-19.316c-6.088-7.399-9.507-12.996-15.079-18.757
					c-9.927-11.449-21.706-21.33-34.326-25.569l-9.413-2.129c-2.762,0.115-5.292-0.189-8.265-0.398l-11.615,2.645l-10.466,3.326
					c-15.525,4.752-31.518,7.563-47.134,7.071c-15.573-0.304-30.698-5.057-41.939-13.02c-11.449-7.773-18.707-17.959-24.047-26.95
					c-5.246-9.155-8.663-17.491-11.005-24.517c-2.623-6.953-3.724-12.574-4.635-16.367
					C1913.369,1706.98,1912.877,1704.944,1912.877,1704.944z"/>
			</g>
		</g>
		<g>
			<path style="fill-rule:evenodd;clip-rule:evenodd;fill:#EFB27B;" d="M2827.17,1690.661
				c55.658,10.701,106.749,33.647,153.276,68.862c7.071-62.542-9.555-120.001-49.805-172.336
				C2899.358,1607.161,2864.89,1641.652,2827.17,1690.661z"/>
		</g>
		<g>
			<path style="fill:#390075;" d="M2980.449,1776.788c-3.701,0-7.371-1.191-10.42-3.501
				c-44.167-33.428-93.328-55.522-146.118-65.674c-5.884-1.133-10.759-5.23-12.883-10.83c-2.124-5.605-1.191-11.904,2.461-16.65
				c39.338-51.113,74.619-86.274,107.861-107.495c7.546-4.814,17.52-3.066,22.974,4.024c42.908,55.791,60.833,117.964,53.276,184.8
				c-0.696,6.167-4.646,11.479-10.349,13.926C2985.066,1776.324,2982.752,1776.788,2980.449,1776.788z M2857.72,1679.996
				c37.727,10.176,73.552,26.089,107.039,47.549c-0.744-41.479-13.35-79.922-38.157-116.494
				C2905.374,1627.105,2882.307,1650.196,2857.72,1679.996z"/>
		</g>
		<g>
			<path style="fill-rule:evenodd;clip-rule:evenodd;fill:#EFB27B;" d="M2823.213,1689.935
				c-58.586-8.804-118.785-8.382-180.579,1.264c29.715-51.163,60.482-86.26,92.326-105.298
				C2788.324,1624.724,2817.732,1659.402,2823.213,1689.935z"/>
		</g>
		<g style="opacity:0.25;">
			<path style="fill-rule:evenodd;clip-rule:evenodd;fill:#390075;" d="M2827.17,1690.661
				c55.658,10.701,106.749,33.647,153.276,68.862c7.071-62.542-9.555-120.001-49.805-172.336
				C2899.358,1607.161,2864.89,1641.652,2827.17,1690.661z"/>
		</g>
		<g style="opacity:0.25;">
			<path style="fill-rule:evenodd;clip-rule:evenodd;fill:#390075;" d="M2823.213,1689.935
				c-58.586-8.804-118.785-8.382-180.579,1.264c29.715-51.163,60.482-86.26,92.326-105.298
				C2788.324,1624.724,2817.732,1659.402,2823.213,1689.935z"/>
		</g>
		<g>
			<path style="fill:#390075;" d="M2642.632,1708.463c-5.642,0-11.001-2.773-14.248-7.519c-3.757-5.498-4.021-12.661-0.679-18.418
				c31.064-53.486,64.17-90.981,98.396-111.445c5.94-3.55,13.425-3.203,19.016,0.859c57.625,41.924,88.728,79.521,95.088,114.941
				c0.984,5.479-0.735,11.094-4.612,15.083c-3.879,3.989-9.431,5.879-14.946,5.039c-56.57-8.496-115.569-8.081-175.352,1.25
				C2644.407,1708.394,2643.516,1708.463,2642.632,1708.463z M2734.338,1606.949c-19.39,13.906-38.687,34.834-57.649,62.51
				c40.491-3.989,80.53-4.077,119.666-0.244C2786.472,1653.209,2767.966,1632.554,2734.338,1606.949z"/>
		</g>
		<g>
			<g>
				<path style="fill:#390075;" d="M2693.046,1989.157l35.124,104.596l-19.927-13.909l85.419,2.038l0.961,0.022
					c8.967,0.211,16.297,6.838,17.724,15.362l24.399,145.196l-15.031-12.363l84.153,1.921l1.007,0.024
					c5.62,0.115,10.255,4.026,11.591,9.224l9.787,38.426c3.654,12.643,5.385,26.013,7.939,39.032
					c1.007,6.627,2.81,12.948,3.16,19.762l1.64,20.184c0.703,6.697,1.194,13.418,0.326,20.443l-1.499,20.745l-11.754-10.162
					l52.73-14.823l0.585-0.163c3.983-1.125,8.102,1.194,9.202,5.15c0.211,0.727,0.304,1.475,0.281,2.201l-1.005,41.164
					c0.115,13.629-3.186,27.864-4.661,41.632l-7.212-6.742l27.842-6.299c9.248-2.156,18.897-2.553,28.286-3.887
					c9.389-1.664,19.035-0.609,28.519-0.914c9.531-0.585,18.966,1.71,28.379,2.738c9.531,0.633,18.429,4.661,27.608,6.908
					c9.178,2.436,17.35,7.634,26.013,11.31c4.378,1.779,7.939,5.081,11.967,7.541l11.66,7.937
					c7.119,6.135,13.861,12.715,20.769,19.014c-7.236-5.97-14.259-12.176-21.613-17.865l-11.965-7.282
					c-4.074-2.225-7.704-5.27-12.13-6.814c-8.732-3.163-16.904-7.845-25.989-9.742c-9.109-1.731-17.796-5.244-27.14-5.362
					c-9.224-0.515-18.333-2.294-27.583-1.242c-9.203,0.774-18.451,0.166-27.535,2.273c-9.061,1.779-18.24,2.599-27.137,5.15
					l-26.67,7.447c-3.045,0.866-6.184-0.914-7.049-3.958c-0.163-0.609-0.235-1.194-0.211-1.779l0.048-1.007
					c0.631-13.276,3.115-25.874,2.319-39.454l-1.055-40.298l10.068,7.188l-51.911,17.491c-4.683,1.571-9.763-0.935-11.334-5.618
					c-0.326-0.985-0.491-1.992-0.468-2.951l0.024-1.592l0.305-18.311c0.515-5.994-0.281-12.221-1.266-18.498l-2.482-18.661
					c-0.585-6.205-2.693-12.432-3.956-18.637c-3.115-12.387-5.316-24.867-9.555-37.09l-11.38-36.786l12.576,9.227l-84.131,2.34
					c-7.212,0.211-13.372-4.798-14.871-11.588l-0.163-0.774l-31.751-143.746l18.686,15.384l-85.418,2.271
					c-8.804,0.235-16.46-5.126-19.53-12.878l-0.398-1.052l-40.368-102.699c1.404-2.969,5.597-10.798,14.771-15.647
					C2676.942,1982.407,2691.114,1988.314,2693.046,1989.157z"/>
			</g>
		</g>
		<g>
			<g>
				<path style="fill:#05064D;" d="M3078.04,2452.403l39.102,88.087l0.142,0.353c0.796,1.731,0.561,3.7-0.398,5.198l-35.028,53.62
					l0.232-3.395l41.61,105.156l-48.446-102.207c-0.491-1.053-0.422-2.223,0.118-3.184l0.115-0.211l31.425-55.821l-0.259,5.551
					l-44.816-85.325c-2.295-4.402-0.609-9.835,3.793-12.154c4.402-2.295,9.835-0.609,12.151,3.793
					C3077.853,2452.029,3077.947,2452.216,3078.04,2452.403z"/>
			</g>
		</g>
		<g>
			<g>
				<path style="fill:#390075;" d="M2277.693,2123.933c-3.218,14.838-6.436,29.676-9.654,44.513
					c-2.599,7.68-4.122,15.034-6.277,22.596l-6.016,22.526c-2.156,7.493-3.045,15.384-4.637,23.085l-4.284,23.229
					c-1.357,7.75-1.662,15.595-2.554,23.392l-2.271,23.486l-17.911-17.235l98.975-2.506l0.842-0.021
					c7.448-0.19,13.628,5.69,13.816,13.111v0.422l-0.796,142.762l-13.041-8.524l110.87-41.49l0.35-0.141
					c2.343-0.866,4.894-0.046,6.347,1.827l112.885,148.289l-121.876-140.983l6.697,1.709l-108.108,48.304
					c-4.658,2.083-10.14-0.024-12.223-4.683c-0.468-1.052-0.724-2.132-0.772-3.208l-0.048-0.633l-8.054-142.527l14.657,13.511
					l-98.601,8.639c-9.085,0.796-17.069-5.922-17.865-14.986l-0.07-1.896l0.024-0.35l0.842-25.24
					c0.422-8.385,0.281-16.882,1.17-25.243l3.021-25.03c1.194-8.337,1.64-16.743,3.443-25.054
					c2.631-7.556,5.261-15.112,7.892-22.668c1.722-4.84,3.408-9.877,5.035-15.106c1.19-3.824,2.295-7.58,3.322-11.26
					c3.928-15.668,7.856-31.336,11.784-47.005c4.179-12.713,15.806-19.146,23.597-16.988
					C2277.025,2095.003,2284.377,2109.418,2277.693,2123.933z"/>
			</g>
		</g>
		<g>
			<g>
				<g>
					<path style="fill:#05064D;" d="M2447.187,2410.35c0,0-1.053,12.785-2.645,31.961c-1.242,18.92-2.436,44.161-1.686,69.567
						c0.444,12.667,1.17,25.334,2.762,37.088c0.491,5.973,1.547,11.591,2.623,16.93c1.17,5.292,1.661,10.536,3.254,15.01
						c2.599,9.155,4.917,16.81,7.517,21.752c2.271,5.15,3.558,8.078,3.558,8.078s-1.638-2.762-4.472-7.586
						c-3.208-4.731-6.438-12.082-10.162-21.073c-2.156-4.426-3.256-9.552-5.081-14.823c-1.734-5.313-3.513-10.934-4.683-16.882
						c-3.045-11.823-5.292-24.586-7.26-37.416c-3.793-25.617-5.596-51.654-6.603-71.112c-0.655-19.249-1.101-32.055-1.101-32.055
						c-0.233-6.627,4.942-12.2,11.569-12.435c6.625-0.235,12.2,4.942,12.432,11.567
						C2447.235,2409.391,2447.211,2409.904,2447.187,2410.35z"/>
				</g>
			</g>
		</g>
		<g>
			<path style="fill:#FFA64D;" d="M1611.149,1324.633c146.695,89.097,252.297,26.953,262.811-139.648
				c11.31-179.642-104.571-343.478-270.141-414.05c-165.545-70.574-381.925-20.419-485.772,91.787
				c-103.821,112.206-55.68,305.311,92,329.146C1357.749,1215.729,1519.079,1268.718,1611.149,1324.633z"/>
		</g>
		<g>
			<path style="fill:#FF6F27;" d="M1850.039,1024.631c3.369,24.849,4.441,50.23,2.821,75.954
				c-10.514,166.6-116.117,228.744-262.811,139.648c-92.07-55.915-253.4-108.905-401.102-132.764
				c-59.197-9.555-102.351-46.337-126.184-94.175c3.061,84.782,56.205,163.874,147.284,178.574
				c147.702,23.86,309.032,76.849,401.102,132.764c146.695,89.097,252.297,26.953,262.811-139.648
				C1877.47,1129.237,1868.711,1075.02,1850.039,1024.631z"/>
		</g>
		<g>
			<path style="fill:#390075;" d="M1733.594,1382.662c-34.602,0.005-78.171-10.938-131.406-43.271l0,0
				c-89.475-54.346-248.171-106.777-394.895-130.479c-69.719-11.25-125.684-59.556-149.705-129.204
				c-27.437-79.565-9.126-167.202,47.788-228.711c113.923-123.096,340.557-166.138,505.212-95.942
				c179.258,76.411,292.021,249.624,280.601,431.016c-5.605,88.828-38.14,153.115-91.606,181.016
				C1783.062,1375.709,1761.174,1382.662,1733.594,1382.662z M1435.027,755.499c-115.945,0-233.762,42.725-304.309,118.95
				c-47.525,51.362-63.418,127.51-40.488,193.999c20.098,58.276,64.771,97.051,122.568,106.382
				c150.703,24.341,314.39,78.613,407.315,135.049l0,0c64.841,39.38,121.377,48.574,163.496,26.597
				c42.339-22.095,68.306-76.279,73.122-152.578c10.503-166.821-93.855-326.397-259.683-397.085
				C1547.246,765.582,1491.355,755.499,1435.027,755.499z"/>
		</g>
		<g style="opacity:0.6;">
			<path style="fill:#FFFFFF;" d="M1227.203,838.283c9.929-2.295,18.616-0.47,23.977,5.994c0.422,0.444,0.796,0.959,1.149,1.475
				c5.244,7.656,3.98,17.093-2.273,26.13c-3.721,5.385-9.622,11.193-16.811,16.086l-0.024-0.024l-0.069,0.048
				c-6.98,4.752-14.262,8.078-20.467,9.646l-0.655,0.165c-9.624,2.247-18.076,0.585-23.486-5.409c-1.1-1.1-2.038-2.388-2.741-3.817
				c-3.932-7.306-2.41-15.993,3.35-24.375c3.724-5.385,9.624-11.169,16.813-16.086v0.024l0.257-0.163l0.069-0.048
				C1213.504,843.059,1220.973,839.733,1227.203,838.283"/>
		</g>
		<g style="opacity:0.6;">
			<path style="fill:#FFFFFF;" d="M1302.071,838.158c-10.005,3.067-20.525-2.927-23.457-13.417
				c-2.934-10.466,2.796-21.472,12.801-24.538c86.064-26.787,167.698-28.029,244.874-3.7
				c76.866,24.234,148.85,73.711,215.955,148.359c7.163,7.961,6.805,20.486-0.804,27.957c-7.612,7.493-19.586,7.095-26.728-0.844
				c-62.449-69.495-128.882-115.342-199.232-137.516C1455.418,812.378,1380.949,813.617,1302.071,838.158"/>
		</g>
	</g>
	<g style="opacity:0.2;">
		<ellipse style="fill-rule:evenodd;clip-rule:evenodd;fill:#390075;" cx="2040" cy="3505" rx="930" ry="95"/>
	</g>
</g>
</svg>
