<?xml version="1.0" encoding="utf-8"?>
<!-- Generator: Adobe Illustrator 27.5.0, SVG Export Plug-In . SVG Version: 6.00 Build 0)  -->
<svg version="1.1" id="Layer_1" xmlns="http://www.w3.org/2000/svg" xmlns:xlink="http://www.w3.org/1999/xlink" x="0px" y="0px"
	 viewBox="0 0 4000 4000" style="enable-background:new 0 0 4000 4000;" xml:space="preserve">
<g>
	<g>
		<g>
			<!-- <rect style="fill:#37DBFF;" width="4000" height="4000"/> -->
		</g>
	</g>
	<g>
		<g>
			<g>
				<path style="fill:#FFFFFF;" d="M2080.138,2525.344c-3.209,52.539-14.457,99.542-1.446,179.409
					c-36.812,5.606-74.224-22.849-81.523-61.954c-2.046-10.966-4.408-21.121-7.088-30.536
					c-26.094-92.948-77.751-116.785-77.751-183.992c0-78.104,87.941-76.939,146.58-83.921c13.928-1.657,26.199-3.773,35.226-7.511
					C2094.137,2336.838,2085.885,2431.444,2080.138,2525.344z"/>
			</g>
		</g>
		<g>
			<g>
				<path style="fill:#FFFFFF;" d="M2080.138,2525.344c-3.209,52.539-14.457,99.542-1.446,179.409
					c-36.812,5.606-74.224-22.849-81.523-61.954c-2.046-10.966-4.408-21.121-7.088-30.536
					c-26.094-92.948-77.751-116.785-77.751-183.992c0-78.104,87.941-76.939,146.58-83.921c13.928-1.657,26.199-3.773,35.226-7.511
					C2094.137,2336.838,2085.885,2431.444,2080.138,2525.344z"/>
			</g>
		</g>
		<g>
			<g>
				<path style="fill:#EFEFEF;" d="M1941.914,2454.927c0,76.587,37.537,107.151,67.297,213.11
					c2.891,10.226,26.851,17.85,29.107,29.698c-20.452-10.438-36.636-30.642-41.149-54.937c-2.046-10.966-4.408-21.121-7.088-30.536
					c-26.094-92.948-77.751-116.785-77.751-183.992c0-78.104,87.941-76.939,146.58-83.921c13.928-1.657,26.199-3.773,35.226-7.511
					c0,0-0.776,9.027-2.045,24.225C2026.506,2367.586,1941.914,2373.157,1941.914,2454.927z"/>
			</g>
		</g>
		<g>
			<g>
				<path style="fill:#DDDDDD;" d="M2067.021,2272.593l-1.798-0.317C2065.223,2272.275,2066.068,2271.958,2067.021,2272.593z"/>
			</g>
		</g>
		<g style="opacity:0.2;">
			<g>
				<g>
					<path style="fill:#000072;" d="M2080.138,2525.344c-3.209,52.539-14.457,99.542-1.446,179.409
						c-36.812,5.606-74.224-22.849-81.523-61.954c-2.046-10.966-4.408-21.121-7.088-30.536c11.918,1.269,23.061,0.529,32.828-4.231
						c39.316-19.147-0.216-158.519,36.001-263.682c13.928-1.657,26.199-3.773,35.226-7.511
						C2094.137,2336.838,2085.885,2431.444,2080.138,2525.344z"/>
				</g>
			</g>
		</g>
		<g>
			<g>
				<path style="fill:#000072;" d="M1959.066,2419.391c11.759-7.619,23.773-13.377,36.559-18.303
					c12.74-4.821,26.08-8.36,39.84-10.304c13.748-2.137,28.015-1.725,42.092,0.355l10.544,2.035
					c3.447,0.966,6.855,2.128,10.294,3.208l5.146,1.681l4.91,2.259l9.834,4.596c6.1,2.85,8.733,10.106,5.883,16.206
					c-2.85,6.099-10.105,8.733-16.205,5.883c-0.265-0.124-0.522-0.256-0.774-0.395l-1.295-0.726l-7.689-4.31l-3.853-2.195
					l-4.094-1.665c-2.742-1.086-5.458-2.285-8.239-3.325l-8.618-2.351c-11.621-2.623-23.815-4.052-36.136-3.079
					c-12.301,0.776-24.674,3.013-36.771,6.548c-11.995,3.542-24.148,8.324-34.891,14.156l-0.326,0.177
					c-2.953,1.603-6.647,0.508-8.248-2.445C1955.505,2424.592,1956.438,2421.105,1959.066,2419.391z"/>
			</g>
		</g>
		<g>
			<g>
				<path style="fill:#000072;" d="M1988.418,2482.927c12.047-7.984,24.415-13.719,37.665-18.377
					c13.19-4.544,27.045-7.464,41.166-8.563c7.056-0.812,14.183-0.427,21.323-0.353c7.08,0.822,14.291,1.175,21.262,2.954
					c14.215,2.531,27.6,8.124,40.631,14.259c6.093,2.868,8.706,10.132,5.837,16.224c-2.869,6.092-10.132,8.706-16.224,5.838
					c-0.25-0.118-0.494-0.243-0.732-0.375l-0.811-0.454c-10.685-5.979-21.721-11.74-33.702-14.776
					c-5.864-2.033-12.026-2.73-18.123-3.969c-6.179-0.493-12.391-1.368-18.665-1.099c-12.526,0.012-25.19,1.65-37.536,4.878
					c-12.228,3.221-24.64,7.987-35.35,13.956l-0.424,0.236c-2.932,1.634-6.635,0.582-8.269-2.351
					C1984.912,2488.165,1985.807,2484.668,1988.418,2482.927z"/>
			</g>
		</g>
		<g>
			<g>
				<path style="fill:#000072;" d="M2010.527,2542.016c11.812-5.893,23.501-9.619,35.83-12.509
					c12.244-2.791,24.789-4.6,37.439-4.925c12.627-0.331,25.403,0.157,37.958,2.32c12.644,1.775,24.949,5.298,37.125,9.25
					c6.406,2.079,9.915,8.959,7.834,15.365c-2.079,6.406-8.959,9.914-15.365,7.835c-0.309-0.1-0.61-0.212-0.906-0.334l-0.547-0.229
					c-10.454-4.361-21.127-8.467-32.257-10.978c-11.049-2.9-22.457-4.284-33.921-4.963c-11.482-0.685-23.063,0.004-34.52,1.613
					c-11.35,1.609-23.07,4.418-33.262,8.464l-0.452,0.18c-3.12,1.239-6.654-0.286-7.893-3.407
					C2006.42,2546.748,2007.743,2543.416,2010.527,2542.016z"/>
			</g>
		</g>
		<g>
			<g>
				<path style="fill:#000072;" d="M2033.646,2609.495c11.813-5.893,23.501-9.619,35.83-12.509c12.245-2.791,24.79-4.6,37.44-4.925
					c12.626-0.331,25.402,0.157,37.957,2.32c12.644,1.775,24.95,5.298,37.125,9.25c6.406,2.08,9.915,8.959,7.834,15.365
					c-2.079,6.406-8.959,9.914-15.365,7.834c-0.309-0.1-0.61-0.212-0.906-0.333l-0.547-0.229
					c-10.454-4.361-21.127-8.467-32.257-10.978c-11.049-2.9-22.457-4.284-33.92-4.963c-11.483-0.685-23.064,0.004-34.521,1.613
					c-11.35,1.609-23.07,4.418-33.26,8.464l-0.453,0.18c-3.12,1.239-6.654-0.286-7.893-3.407
					C2029.539,2614.227,2030.862,2610.895,2033.646,2609.495z"/>
			</g>
		</g>
		<g>
			<g>
				<path style="fill:#000072;" d="M2069.439,2721.674c-41.226,0-80.127-32.432-88.218-75.908
					c-10.864-58.354-31.773-91.758-50.225-121.23c-17.94-28.662-34.883-55.737-34.883-96.274c0-84.141,84.673-92.432,140.703-97.915
					c20.601-2.017,40.054-3.926,51.113-8.501c5.229-2.158,11.235-1.44,15.806,1.914c4.575,3.35,7.07,8.848,6.577,14.502
					c-0.083,0.942-8.296,95.483-13.96,188.066c-0.781,12.803-2.046,25.439-3.267,37.666c-3.901,39.023-7.935,79.375,1.636,138.14
					c0.698,4.277-0.347,8.657-2.896,12.158c-2.554,3.506-6.396,5.845-10.684,6.499
					C2077.237,2721.386,2073.326,2721.674,2069.439,2721.674z M2076.031,2358.344c-10.83,1.851-22.954,3.037-36.05,4.316
					c-65.225,6.392-111.396,14.834-111.396,65.601c0,31.216,12.559,51.274,29.941,79.043c18.989,30.342,42.627,68.105,54.619,132.52
					c4.541,24.395,24.546,43.95,46.768,48.418c-6.606-52.734-2.817-90.669,0.859-127.476c1.245-12.471,2.427-24.243,3.169-36.421
					C2067.955,2458.764,2073.238,2392.221,2076.031,2358.344z"/>
			</g>
		</g>
		<g>
			<g>
				<g>
					<path style="fill:#FFFFFF;" d="M1562.579,2305.583c-53.632,57.875-73.673,149.463-126.557,147.743
						c-61.623-2.007-97.616-62.875-110.618-147.304c-12.75-83-3.321-188.72,25.819-283.777
						c12.243-39.902,19.279-73.018,22.591-100.518c15.719-132.12-55.624-134.489-57.987-134.557l209.859-83.045
						c0,0,60.484,28.502,121.459,90.026c70.351,71.017,141.33,186.03,120.798,351.958c-1.721,14.1-4.126,28.562-7.259,43.407
						C1743.144,2272.979,1626.885,2236.205,1562.579,2305.583z"/>
				</g>
			</g>
			<g style="opacity:0.2;">
				<g>
					<g>
						<path style="fill:#000072;" d="M1562.579,2305.583c-53.632,57.875-73.673,149.463-126.557,147.743
							c-61.623-2.007-97.616-62.875-110.618-147.304c19.77,25.227,48.822,40.821,90.22,19.793
							c98.876-50.207,125.116-136.082,205.27-145.223c52.736-5.975,107.34-10.226,147.051-34.482
							c-1.721,14.1-4.126,28.562-7.259,43.407C1743.144,2272.979,1626.885,2236.205,1562.579,2305.583z"/>
					</g>
				</g>
			</g>
			<g style="opacity:0.2;">
				<g>
					<g>
						<path style="fill:#000072;" d="M1647.146,1794.152c-8.203,9.466,57.008,223.012,44.239,232.549
							c-84.979,63.47-168.362-93.069-317.57-104.973c15.719-132.12-55.624-134.489-57.987-134.557l209.859-83.045
							C1525.687,1704.125,1586.171,1732.627,1647.146,1794.152z"/>
					</g>
				</g>
			</g>
			<g>
				<g>
					<path style="fill:#000072;" d="M1437.603,2469.579c-0.693,0-1.392-0.01-2.095-0.034c-34.048-1.099-63.677-17.954-85.674-48.74
						c-55.874-78.193-61.816-247.803-14.126-403.306c38.769-126.406,22.041-176.99,8.623-195.889
						c-12.334-17.371-28.213-18.174-28.882-18.198l-84.531-0.232l78.877-31.099l216.436-85.642l6.357,2.996
						c3.262,1.536,80.615,38.533,149.8,118.975c64.18,74.617,132.612,201.887,94.199,384.46
						c-11.733,55.771-59.219,67.373-105.142,78.594c-35.029,8.56-71.25,17.412-96.973,45.161
						c-19.121,20.635-33.818,46.04-48.032,70.61C1501.954,2429.56,1478.8,2469.579,1437.603,2469.579z M1357.457,1788.144
						c4.336,3.704,8.555,8.132,12.441,13.406c30.928,41.96,29.873,117.82-3.145,225.471
						c-44.238,144.243-40.151,305.42,9.497,374.902c16.128,22.563,36.416,34.395,60.308,35.171
						c23.232,0.557,41.021-30.234,61.777-66.118c14.404-24.902,30.728-53.125,52.319-76.421
						c32.354-34.907,75.244-45.386,113.081-54.634c46.973-11.475,73.896-19.634,81.074-53.74
						c28.559-135.718-0.459-255.383-86.25-355.676c-53.921-63.035-114.653-98.381-133.75-108.579L1357.457,1788.144z"/>
				</g>
			</g>
			<g>
				<g>
					<path style="fill:#000072;" d="M1392.095,1765.168l1.576,0.994l1.228,0.83l2.258,1.617c1.479,1.07,2.82,2.165,4.198,3.256
						c2.686,2.203,5.232,4.479,7.697,6.806c4.922,4.658,9.376,9.637,13.601,14.767c8.361,10.317,15.509,21.428,21.445,33.053
						c11.814,23.294,19.042,48.372,22.543,73.54c3.725,25.198,3.602,50.514,1.472,75.36c-2.197,24.869-6.691,49.309-12.664,73.234
						c-2.859,11.986-6.521,23.8-9.944,35.507c-3.333,11.339-6.758,22.666-9.43,34.186c-5.591,22.969-9.794,46.296-12.247,69.809
						c-2.45,23.503-3.171,47.205-1.714,70.7c0.566,11.773,2.117,23.411,4,34.926c2.054,11.42,4.886,22.847,9.138,32.833l0.133,0.312
						c1.755,4.124-0.164,8.89-4.287,10.646c-4.048,1.724-8.721-0.106-10.552-4.075c-5.56-12.088-8.788-24.193-11.393-36.418
						c-2.374-12.222-4.348-24.501-5.305-36.818c-2.239-24.625-2.189-49.346-0.344-73.903c1.849-24.56,5.52-48.952,10.652-73.022
						c2.441-12.073,5.653-23.95,8.792-35.858c3.025-11.545,6.211-22.878,8.633-34.447c10.088-45.947,14.573-93.436,6.902-138.577
						c-3.749-22.5-10.786-44.222-21.351-63.716c-5.307-9.724-11.564-18.83-18.623-27.072c-3.559-4.08-7.273-8.014-11.222-11.54
						c-1.974-1.758-3.976-3.448-5.999-5.018c-1.012-0.748-2.026-1.54-3.015-2.205l-1.448-0.977l-1-0.625l-0.988-0.617
						c-7.599-4.75-9.91-14.761-5.16-22.361c4.75-7.6,14.761-9.91,22.361-5.16L1392.095,1765.168z"/>
				</g>
			</g>
			<g>
				<g>
					<path style="fill:#000072;" d="M1458.802,1742.81c2.625,2.599,4.42,4.564,6.449,6.844c1.968,2.211,3.864,4.431,5.71,6.677
						c3.684,4.494,7.24,9.041,10.599,13.703c6.768,9.291,13.003,18.89,18.73,28.764c11.394,19.771,21.001,40.513,28.394,62.004
						c14.993,42.92,21.556,88.513,20.06,133.519c-0.804,22.779-3.379,44.2-5.244,66l-5.945,65.138
						c-1.77,21.644-3.649,43.291-3.341,64.418c0.168,10.572,0.899,21.007,2.518,31.418c1.619,10.414,3.915,20.86,6.426,31.341
						l0.016,0.067c1.044,4.36-1.644,8.742-6.005,9.786c-4.275,1.024-8.574-1.553-9.724-5.763
						c-2.902-10.661-5.638-21.471-7.715-32.573c-2.08-11.108-3.231-22.469-3.75-33.704c-1.003-22.531,0.269-44.507,1.373-66.399
						l3.955-65.446c1.202-21.734,3.112-43.79,3.159-64.664c0.081-42.264-7.397-84.32-22.44-123.415
						c-7.419-19.576-16.858-38.341-27.813-56.055c-5.505-8.841-11.453-17.388-17.797-25.545c-3.149-4.099-6.451-8.049-9.806-11.892
						c-1.681-1.918-3.39-3.796-5.107-5.608c-1.643-1.757-3.625-3.732-4.918-4.932l-0.266-0.247
						c-6.571-6.104-6.951-16.38-0.847-22.952c6.105-6.572,16.381-6.951,22.953-0.847
						C1458.538,1742.552,1458.696,1742.706,1458.802,1742.81z"/>
				</g>
			</g>
			<g>
				<g>
					<path style="fill:#3A3A3A;" d="M1519.927,1713.656c8.369,8.585,15.463,16.784,22.738,25.444
						c7.167,8.596,14.071,17.366,20.758,26.29c13.341,17.87,25.811,36.353,37.325,55.426c22.997,38.145,42.153,78.738,55.925,121.26
						c13.624,42.529,21.627,87.09,21.906,131.83c0.253,22.331-1.49,44.637-4.077,66.424c-1.244,10.879-2.703,21.675-3.406,32.043
						c-0.737,10.291-0.33,20.481,3.753,26.329l0.1,0.144c2.566,3.676,1.665,8.736-2.012,11.302
						c-3.616,2.523-8.577,1.684-11.18-1.841c-4.374-5.937-6.354-12.78-7.249-18.935c-0.896-6.227-0.892-12.094-0.729-17.799
						c0.396-11.398,1.516-22.255,2.377-33.058c1.825-21.554,2.749-42.835,1.797-64.08c-1.672-42.467-10.779-84.365-24.813-124.42
						c-14.271-40.027-33.666-78.23-56.715-114.051c-11.538-17.907-23.983-35.237-37.206-51.911
						c-6.626-8.324-13.447-16.485-20.47-24.424c-6.956-7.833-14.41-15.877-21.46-22.691l-0.278-0.27
						c-6.449-6.234-6.622-16.515-0.388-22.963c6.234-6.448,16.515-6.622,22.964-0.388
						C1519.684,1713.412,1519.832,1713.56,1519.927,1713.656z"/>
				</g>
			</g>
		</g>
		<g>
			<g>
				<path style="fill:#FFFFFF;" d="M2743.081,1987.612c-69.146,238.259-129.619,314.494-189.034,319.713
					c-14.316,1.304-28.562-1.552-42.877-7.264c-137.801-55.078-865.73-1257.022-865.73-1257.022s92.313-142.244,206.277-240.058
					c47.813-41.114,99.436-74.365,149.648-86.001c187.906-43.548,219.007,99.542,348.45,236.461
					C2458.031,1067.898,2934.725,1327.173,2743.081,1987.612z"/>
			</g>
		</g>
		<g>
			<g>
				<path style="fill:#EFEFEF;" d="M2743.081,1987.612c-38.505,132.688-74.33,215.093-108.78,263.013
					c27.115-49.753,55.148-122.144,84.838-224.366c191.644-660.44-285.051-919.715-393.267-1034.172
					c-129.443-136.919-160.544-280.009-348.45-236.461c-50.212,11.636-101.833,44.887-149.648,86.001
					c-78.068,66.996-145.981,154.867-181.031,203.563c-0.846-1.411-1.304-2.151-1.304-2.151s92.313-142.244,206.277-240.058
					c47.813-41.114,99.436-74.365,149.648-86.001c187.906-43.548,219.007,99.542,348.45,236.461
					C2458.031,1067.898,2934.725,1327.173,2743.081,1987.612z"/>
			</g>
		</g>
		<g style="opacity:0.2;">
			<g>
				<g>
					<path style="fill:#000072;" d="M2554.047,2307.325c-14.316,1.304-28.562-1.552-42.877-7.264
						c-137.801-55.078-865.73-1257.022-865.73-1257.022s92.313-142.244,206.277-240.058c-20.31,53.914-25.67,111.002,29.301,130.219
						c164.07,57.334,507.208,117.93,708.549,443.037C2791.19,1701.803,2695.338,2100.448,2554.047,2307.325z"/>
				</g>
			</g>
		</g>
		<g>
			<g>
				<path style="fill:#000072;" d="M2547.408,2323.935c-13.53,0-27.554-2.939-42.261-8.813
					c-22.485-8.984-90.928-36.323-492.158-655.395c-197.066-304.06-379.634-605.271-381.455-608.279l-5.278-8.711l5.547-8.54
					c7.744-11.931,191.685-292.661,365.884-333.037c149.854-34.734,207.442,41.872,280.357,138.86
					c25.015,33.279,50.884,67.688,83.569,102.258c15.107,15.979,38.755,35.781,66.133,58.708
					c82.642,69.204,207.534,173.789,290.264,332.356c98.857,189.47,112.539,411.121,40.659,658.799
					c-55.137,190.002-109.141,292.327-169.951,322.014C2575.357,2320.673,2561.656,2323.935,2547.408,2323.935z M1664.673,1043.473
					c205.845,339.37,744.561,1198.367,852.525,1241.492c21.494,8.584,39.692,8.589,57.271,0.005
					c51.279-25.034,101.333-123.779,153.018-301.88c160.796-554.094-152.354-816.328-320.591-957.209
					c-28.154-23.579-52.471-43.941-68.877-61.294c-33.945-35.901-61.563-72.639-85.933-105.054
					c-70.947-94.363-117.827-156.699-247.066-126.738C1859.503,766.52,1696.724,996.374,1664.673,1043.473z"/>
			</g>
		</g>
		<g>
			<g>
				<path style="fill:#000072;" d="M2154.235,828.843c-21.921,15.414-43.192,32.763-63.409,50.721
					c-20.22,18.068-39.48,37.127-57.472,57.177c-17.764,20.241-34.133,41.504-48.561,63.792
					c-13.892,22.581-25.497,46.213-33.641,70.654l-0.17,0.506c-2.836,8.512-12.035,13.113-20.547,10.276
					c-8.512-2.837-13.113-12.036-10.276-20.548c0.074-0.227,0.177-0.506,0.261-0.727c10.56-27.286,24.647-52.472,40.737-75.931
					c16.584-23.078,34.902-44.529,54.403-64.653c19.713-19.906,40.509-38.535,62.145-56.03c21.747-17.456,43.943-33.85,67.742-48.89
					c3.79-2.395,8.802-1.264,11.198,2.525c2.319,3.67,1.332,8.488-2.175,10.963L2154.235,828.843z"/>
			</g>
		</g>
		<g>
			<g>
				<path style="fill:#000072;" d="M2297.721,974.45c-21.921,15.413-43.192,32.763-63.409,50.721
					c-20.22,18.068-39.48,37.127-57.472,57.176c-17.762,20.241-34.133,41.504-48.561,63.792
					c-13.892,22.581-25.497,46.213-33.641,70.654l-0.168,0.506c-2.837,8.512-12.036,13.112-20.548,10.276
					s-13.113-12.036-10.276-20.548c0.076-0.227,0.177-0.506,0.261-0.727c10.56-27.286,24.647-52.472,40.737-75.931
					c16.584-23.077,34.902-44.529,54.403-64.652c19.713-19.906,40.509-38.535,62.145-56.03c21.747-17.456,43.943-33.85,67.743-48.89
					c3.789-2.395,8.801-1.264,11.196,2.525c2.319,3.67,1.332,8.488-2.175,10.963L2297.721,974.45z"/>
			</g>
		</g>
		<g>
			<g>
				<path style="fill:#000072;" d="M2462.743,1144.543c-11.165,3.212-23.038,8.277-34.102,13.659
					c-5.513,2.917-11.128,5.59-16.436,8.893l-8.054,4.738c-2.657,1.624-5.204,3.44-7.81,5.146
					c-20.731,13.843-39.841,30.019-57.031,47.996c-4.26,4.525-8.235,9.332-12.363,13.967c-2.028,2.354-4.136,4.632-6.094,7.042
					l-5.613,7.455c-3.705,4.993-7.56,9.858-11.139,14.927l-10.083,15.686l-5.042,7.821l-4.443,8.208l-8.879,16.382
					c-5.563,11.108-10.298,22.657-15.494,33.913l-0.621,1.346c-3.761,8.145-13.411,11.699-21.555,7.938s-11.699-13.411-7.939-21.555
					c0.105-0.226,0.24-0.5,0.354-0.72c6.179-11.814,11.892-23.825,18.468-35.385l10.421-17.042l5.217-8.497l5.837-8.118
					l11.675-16.193c4.116-5.23,8.518-10.249,12.762-15.368l6.421-7.632c2.23-2.467,4.615-4.803,6.915-7.207
					c4.678-4.739,9.192-9.621,13.998-14.212c19.376-18.247,40.653-34.41,63.473-47.963c2.867-1.671,5.669-3.443,8.588-5.023
					l8.837-4.595c5.811-3.193,11.967-5.758,17.987-8.537c12.372-5.176,24.47-9.748,38.251-12.925
					c4.363-1.006,8.716,1.716,9.722,6.079c0.972,4.214-1.533,8.418-5.637,9.607L2462.743,1144.543z"/>
			</g>
		</g>
		<g>
			<g>
				<path style="fill:#000072;" d="M2628.699,1304.228c-12.775,1.918-26.357,5.597-39.244,9.688
					c-12.914,4.451-25.659,9.4-37.938,15.356c-24.537,11.866-47.947,26.173-68.702,43.703c-5.493,3.989-10.203,8.935-15.251,13.444
					c-4.95,4.626-10.105,9.02-14.507,14.202l-13.718,14.954c-4.364,5.163-8.317,10.685-12.494,15.991
					c-8.699,10.361-15.287,22.307-22.736,33.545l-2.731,4.261l-2.345,4.509l-4.683,9.011l-9.374,17.975l-0.64,1.227
					c-4.147,7.954-13.958,11.039-21.912,6.892c-7.954-4.148-11.039-13.958-6.892-21.912c0.109-0.208,0.251-0.464,0.367-0.665
					l11.024-18.927l5.516-9.439l2.764-4.711l3.164-4.478c8.612-11.812,16.346-24.203,26.26-35.004
					c4.779-5.518,9.327-11.221,14.296-16.551l15.542-15.402c5.004-5.303,10.77-9.805,16.323-14.513
					c5.654-4.591,10.958-9.592,17.048-13.617c23.136-17.669,48.815-31.729,75.416-43.035c26.833-11.175,54.274-19.384,83.956-22.674
					c4.451-0.493,8.458,2.715,8.951,7.166c0.481,4.341-2.559,8.26-6.838,8.909L2628.699,1304.228z"/>
			</g>
		</g>
		<g>
			<g>
				<path style="fill:#000072;" d="M2707.34,1495.739c-2.842-0.485-6.333-0.985-9.617-1.263c-3.313-0.392-6.688-0.569-10.067-0.719
					c-3.363-0.237-6.75-0.29-10.149-0.241c-3.395,0.065-6.772-0.136-10.172,0.139c-6.79,0.41-13.571,0.615-20.32,1.589
					l-10.123,1.182l-10.04,1.825c-26.759,4.917-52.694,13.596-77.433,24.756c-12.021,6.379-24.403,11.944-35.725,19.55
					c-5.709,3.686-11.689,6.899-17.163,10.944l-16.416,12.093c-2.701,2.058-5.542,3.914-8.126,6.13l-7.71,6.7l-15.408,13.359
					c-9.863,9.379-19.203,19.35-28.818,28.945l-1.03,1.028c-6.35,6.336-16.633,6.324-22.969-0.025
					c-6.335-6.349-6.323-16.632,0.026-22.968c0.16-0.159,0.367-0.356,0.531-0.507c10.737-9.785,21.158-19.858,32.134-29.315
					l17.12-13.474l8.553-6.716c2.865-2.219,6.012-4.091,9.001-6.15l18.152-12.056c6.044-4.013,12.638-7.207,18.922-10.834
					c12.465-7.486,26.058-12.906,39.2-19.033c27.057-10.695,55.21-18.609,84.005-22.477l10.791-1.417l10.872-0.75
					c7.225-0.676,14.514-0.568,21.771-0.644c14.663,0.325,28.794,1.24,43.914,4.541c4.374,0.955,7.146,5.276,6.191,9.65
					c-0.928,4.246-5.026,6.982-9.265,6.266L2707.34,1495.739z"/>
			</g>
		</g>
		<g>
			<g>
				<path style="fill:#000072;" d="M2738.539,1709.329c-2.207-1.656-5.177-3.693-8.018-5.358c-2.799-1.829-5.865-3.35-8.864-4.943
					c-2.943-1.68-6.133-2.962-9.247-4.355c-3.104-1.418-6.229-2.781-9.504-3.826l-9.674-3.419l-9.95-2.61
					c-6.545-2.023-13.428-2.759-20.148-4.022c-27.159-4.071-54.969-2.467-81.987,2.673c-6.742,1.489-13.501,2.814-20.201,4.403
					l-19.797,6.26c-3.287,1.07-6.609,2-9.862,3.178l-9.611,4.036l-19.193,8.03c-12.501,6.097-24.761,12.783-37.058,19.243
					l-35.443,22.377l-1.016,0.641c-7.587,4.789-17.618,2.522-22.407-5.064c-4.79-7.586-2.522-17.618,5.063-22.407
					c0.2-0.126,0.453-0.277,0.657-0.393l38.54-21.864c13.425-6.305,26.76-12.764,40.366-18.603l20.956-7.645l10.464-3.802
					c3.552-1.101,7.201-1.959,10.793-2.946l21.611-5.704c7.34-1.396,14.753-2.509,22.112-3.758
					c29.553-4.197,59.962-4.507,89.487,1.35c7.327,1.712,14.745,2.914,21.863,5.448l10.751,3.387l10.465,4.251
					c3.518,1.323,6.907,2.984,10.266,4.709c3.369,1.7,6.78,3.282,10.002,5.307c3.263,1.931,6.55,3.778,9.679,6.02
					c3.242,2.156,6.145,4.274,9.53,7.127c3.422,2.885,3.857,7.998,0.972,11.421c-2.78,3.298-7.628,3.822-11.04,1.275
					L2738.539,1709.329z"/>
			</g>
		</g>
		<g>
			<g>
				<path style="fill:#000072;" d="M2714.153,1918.527c-3.939-4.698-9.202-9.813-14.39-14.227
					c-5.25-4.531-10.874-8.663-16.653-12.528c-11.584-7.711-24.011-14.146-36.997-19.087c-25.948-9.976-53.848-14.407-81.672-13.684
					c-27.86,0.37-55.585,6.014-82.416,14.257c-26.869,8.329-52.806,19.952-77.815,33.343l-0.045,0.024
					c-7.908,4.234-17.75,1.256-21.985-6.651c-4.233-7.908-1.256-17.75,6.652-21.985c0.204-0.109,0.464-0.24,0.671-0.34
					c27.118-12.943,55.308-24.059,84.673-31.7c29.324-7.55,59.729-12.296,90.374-11.303c30.566,0.629,61.244,6.948,89.325,19.286
					c14.058,6.117,27.395,13.826,39.728,22.888c6.156,4.545,12.111,9.367,17.689,14.646c5.657,5.358,10.757,10.618,15.891,17.375
					c2.71,3.566,2.017,8.653-1.549,11.363c-3.457,2.627-8.344,2.055-11.107-1.23L2714.153,1918.527z"/>
			</g>
		</g>
		<g>
			<g>
				<path style="fill:#000072;" d="M2639.658,2148.463c-0.591-2.238-1.664-5.42-2.803-8.162c-0.978-2.861-2.59-5.616-3.834-8.426
					c-2.948-5.485-6.04-10.93-9.819-15.972c-3.373-5.29-7.836-9.851-11.809-14.707c-4.366-4.554-8.972-8.914-13.575-13.219
					c-5.027-3.897-9.862-7.987-14.977-11.73l-16.049-10.343l-17.028-8.82l-4.25-2.196l-4.467-1.812l-8.947-3.579
					c-11.686-5.268-24.37-8.285-36.624-12.157c-3.041-1.041-6.246-1.621-9.419-2.292l-9.512-2.002
					c-6.353-1.277-12.627-2.81-19.021-3.885c-12.936-1.582-25.76-3.594-38.71-4.851l-39.072-2.313l-1.049-0.062
					c-8.958-0.53-15.789-8.221-15.259-17.178c0.531-8.957,8.221-15.788,17.178-15.258c0.256,0.015,0.566,0.042,0.818,0.069
					l40.887,4.501c13.583,2.011,27.103,4.814,40.614,7.198c6.724,1.484,13.383,3.446,20.063,5.15l10.002,2.651
					c3.333,0.888,6.68,1.684,9.928,2.961c13.033,4.812,26.294,8.745,38.784,15.09l9.473,4.372l4.718,2.213l4.545,2.628
					c6.042,3.53,12.125,6.958,18.086,10.583l17.09,12.28c5.458,4.423,10.636,9.237,15.93,13.839
					c4.918,5.056,9.795,10.177,14.395,15.516c4.244,5.686,8.878,11.023,12.446,17.211c3.942,5.894,7.184,12.27,10.219,18.729
					c1.316,3.364,2.92,6.521,3.964,10.048c1.206,3.52,2.206,6.708,3.054,11.005c0.868,4.39-1.987,8.652-6.377,9.519
					c-4.214,0.833-8.309-1.764-9.398-5.856L2639.658,2148.463z"/>
			</g>
		</g>
		<g>
			<g>
				<path style="fill:#FFFFFF;" d="M2046.068,3492.424c-28.853-25.818-55.813-74.974-74.333-138.802
					c-29.936-102.928-37.952-244.086,3.269-387.813c30.065-105.045,86.523-211.436,179.935-305.198l167.154-84.64
					c0,0,22.587,126.786,219.999,164.283c166.532,31.657,359.801-40.545,505.25,3.313l0.039-0.017
					c44.351,13.407,84.271,37.564,117.585,78.753c49.312,60.886,62.371,111.985,56.976,149.556
					c-3.69,25.949-16.16,45.476-31.601,57.262c-34.157,26.074-80.004,21.523-134.081,17.379
					c-193.233-14.757-183.497,12.36-325.484,21.467c-94.53,6.047-163.952-11.376-261.212,10.284
					c-109.597,24.462-175.66,113.377-220.246,201.328C2159.842,3456.073,2121.545,3560.002,2046.068,3492.424z"/>
			</g>
		</g>
		<g style="opacity:0.2;">
			<g>
				<g>
					<path style="fill:#000072;" d="M2046.068,3492.424c-28.853-25.818-55.813-74.974-74.333-138.802
						c18.191,21.812,61.927,60.691,111.367,8.352c65.145-69.039,129.836-229.447,312.786-304.739
						c157.365-64.777,237.274-8.596,363.212-39.365c99.013-24.161,408.188-221.582,462.842-46.011
						c-3.69,25.949-16.16,45.476-31.601,57.262c-34.157,26.074-80.004,21.523-134.081,17.379
						c-193.233-14.757-183.497,12.36-325.484,21.467c-94.53,6.047-163.952-11.376-261.212,10.284
						c-109.597,24.462-175.66,113.377-220.246,201.328C2159.842,3456.073,2121.545,3560.002,2046.068,3492.424z"/>
				</g>
			</g>
		</g>
		<g style="opacity:0.2;">
			<g>
				<g>
					<path style="fill:#000072;" d="M3047.342,2743.568c-86.005,8.285-222.307,13.496-348.718,39.57
						c-120.259,24.797-243.343,37.71-299.829,77.319c-109.414,76.723-158.498,85.458-294.065,34.409
						c-35.647-13.423-91.95,22.552-129.726,70.944c30.065-105.045,86.523-211.436,179.935-305.198l167.154-84.64
						c0,0,22.587,126.786,219.999,164.283C2708.624,2771.912,2901.893,2699.709,3047.342,2743.568z"/>
				</g>
			</g>
		</g>
		<g>
			<g>
				<path style="fill:#000072;" d="M2246.182,2594.19c1.609,6.752,3.997,14.46,6.472,21.645c2.521,7.292,5.261,14.545,8.282,21.693
					c5.947,14.336,12.87,28.299,20.458,41.876c15.216,27.145,33.567,52.542,54.607,75.467
					c42.043,45.925,95.635,81.021,154.297,102.399c29.355,10.656,60.042,17.523,91.306,21.647
					c31.276,4.228,63.102,5.86,95.217,8.849c32.029,3.016,64.763,7.817,95.635,19.632c30.936,11.576,58.812,30.408,82.356,53
					c2.427,2.328,2.506,6.183,0.178,8.609c-2.301,2.397-6.09,2.504-8.521,0.261l-0.037-0.034
					c-22.981-21.235-49.493-38.415-78.798-48.796c-29.253-10.603-60.571-14.704-92.155-17.101c-31.63-2.381-63.799-3.44-96.029-7.2
					c-32.213-3.658-64.468-10.232-95.477-20.866c-61.998-21.162-118.866-57.626-163.96-105.503
					c-22.535-23.918-42.252-50.471-58.693-78.924c-8.203-14.237-15.706-28.89-22.219-44.022c-3.302-7.545-6.323-15.223-9.13-23.012
					c-2.811-7.906-5.326-15.446-7.542-24.229c-1.644-6.521,2.308-13.141,8.829-14.786c6.521-1.645,13.141,2.308,14.785,8.829
					c0.009,0.031,0.016,0.062,0.023,0.092L2246.182,2594.19z"/>
			</g>
		</g>
		<g>
			<g>
				<path style="fill:#000072;" d="M2221.705,2587.762c1.66,11.12,4.314,23.169,7.247,34.662
					c2.955,11.606,6.398,23.115,10.238,34.485c7.651,22.757,17.087,44.905,28.099,66.19c22.103,42.537,51.378,81.229,88.125,111.948
					c18.313,15.79,37.59,30.384,57.886,43.456c20.259,13.163,41.605,24.546,63.528,35.563
					c21.829,11.071,44.471,22.198,64.845,37.502c20.5,15.094,37.678,34.322,51.797,54.996c1.897,2.777,1.183,6.566-1.594,8.462
					c-2.729,1.864-6.444,1.195-8.372-1.465c-14.099-19.501-30.625-36.998-50.137-50.595c-19.375-13.799-41.36-23.968-63.595-34.508
					c-22.268-10.47-44.678-21.66-66.005-34.74c-21.381-12.992-41.78-27.616-61.11-43.422
					c-39.382-31.724-71.107-72.562-94.94-116.811c-11.908-22.193-22.133-45.25-30.503-68.965
					c-4.2-11.853-7.986-23.853-11.279-36.016c-3.3-12.273-6.183-24.205-8.35-37.365c-1.093-6.636,3.401-12.902,10.037-13.995
					c6.636-1.093,12.902,3.401,13.994,10.037c0.007,0.039,0.013,0.078,0.02,0.117L2221.705,2587.762z"/>
			</g>
		</g>
		<g>
			<g>
				<path style="fill:#000072;" d="M2204.836,2606.365c2.71,18.281,7.092,37.462,12.058,55.938
					c5.056,18.584,10.936,36.967,17.66,55.028c13.44,36.122,30.281,70.985,50.779,103.506c5.192,8.083,10.526,16.073,16.162,23.843
					c5.557,7.624,11.66,15.71,17.262,24.005c11.327,16.499,21.72,33.877,29.985,52.499c4.11,9.313,7.604,18.972,10.315,28.844
					c2.673,9.881,4.479,19.956,5.861,29.777c1.414,9.807,2.556,19.303,4.893,28.234c2.281,8.95,5.869,17.409,10.585,25.454
					l0.016,0.026c1.7,2.902,0.726,6.633-2.175,8.333c-2.823,1.655-6.439,0.766-8.198-1.956c-5.58-8.663-10.122-18.257-13.09-28.229
					c-3.03-9.969-4.609-19.969-6.39-29.507c-1.741-9.548-3.793-18.749-6.608-27.716c-2.854-8.947-6.405-17.658-10.563-26.138
					c-8.357-16.948-18.831-33.021-30.341-48.407c-5.693-7.756-11.803-15.044-17.853-23.242c-6.012-8.024-11.707-16.269-17.25-24.614
					c-21.891-33.56-39.922-69.479-54.432-106.687c-7.26-18.609-13.645-37.548-19.191-56.75c-5.49-19.339-10.239-38.401-13.61-58.9
					c-1.091-6.636,3.405-12.901,10.04-13.992c6.637-1.091,12.9,3.404,13.992,10.041c0.007,0.042,0.013,0.084,0.021,0.126
					L2204.836,2606.365z"/>
			</g>
		</g>
		<g>
			<g>
				<path style="fill:#000072;" d="M2178.008,2615.595l74.049,244.479c6.187,20.668,11.099,42.1,13.879,63.772
					c2.891,21.684,3.091,43.652,3.047,64.8c-0.071,21.179,0.995,41.689,5.533,61.868c4.408,20.17,11.816,39.788,20.372,58.941
					l0.023,0.053c1.371,3.07-0.006,6.671-3.076,8.043c-3.009,1.344-6.533,0.039-7.963-2.904
					c-9.398-19.393-17.778-39.552-23.146-60.858c-5.513-21.258-7.33-43.495-7.91-64.827c-0.625-21.383-1.486-42.079-4.861-62.536
					c-3.27-20.47-8.567-40.499-15.121-60.427l-78.054-243.077l-0.023-0.073c-2.057-6.404,1.469-13.262,7.871-15.318
					c6.404-2.056,13.263,1.468,15.319,7.872C2177.963,2615.446,2177.994,2615.551,2178.008,2615.595z"/>
			</g>
		</g>
		<g>
			<g>
				<path style="fill:#000072;" d="M2201.227,2647.782c-10.02,21.486-14.249,45.209-14.915,69.803
					c-0.717,24.607,1.277,49.906,3.009,75.377c1.802,25.485,3.446,51.199,4.049,76.97c0.795,25.764-0.199,51.991-2.627,77.646
					c-4.698,51.487-14.756,101.758-19.856,152.024c-2.427,25.106-3.633,50.286-1.301,75.101
					c2.277,24.786,8.185,49.148,18.474,71.731c1.406,3.055,0.07,6.671-2.985,8.077c-3.013,1.387-6.584,0.078-8.031-2.886
					c-11.433-23.704-18.262-49.513-21.2-75.501c-3.003-26.034-2.28-52.148-0.35-77.879c4.139-51.488,13.096-101.821,16.584-152.206
					c0.901-12.587,1.448-25.162,1.666-37.717c0.192-12.558-0.16-25.028-0.675-37.717c-1.038-25.281-3.094-50.523-5.342-75.948
					c-2.163-25.427-4.703-51.104-4.418-77.597c0.208-26.365,4.465-54.097,15.693-79.244l0.066-0.146
					c2.742-6.142,9.943-8.897,16.085-6.155c6.141,2.742,8.896,9.943,6.155,16.085
					C2201.292,2647.642,2201.245,2647.741,2201.227,2647.782z"/>
			</g>
		</g>
		<g>
			<g>
				<path style="fill:#000072;" d="M2140.768,2630.161c3.273,8.023,5.759,16.264,7.601,24.566c1.78,8.314,2.811,16.667,3.452,24.987
					c1.067,16.638,0.237,33.082-1.772,49.177c-4.011,32.228-12.106,63.206-21.195,93.551
					c-18.461,60.646-41.089,118.97-56.919,179.111c-7.935,30.019-14.291,60.389-18.097,91.073
					c-3.688,30.675-5.048,61.646-3.066,92.472c3.561,61.724,20.012,122.405,45.314,179.116c1.373,3.07-0.002,6.671-3.073,8.044
					c-3.036,1.358-6.598,0.017-8.003-2.983c-26.775-57.364-44.81-119.456-49.564-183.119c-2.582-31.781-1.72-63.793,1.548-95.461
					c3.384-31.673,9.393-62.969,16.973-93.743c7.611-30.778,16.794-61.023,26.281-91.016c9.535-30,19.435-59.671,27.937-89.554
					c8.472-29.846,15.789-59.966,19.07-90.119c3.254-29.957,2.33-60.622-8.896-86.568l-0.043-0.099
					c-2.671-6.173,0.168-13.342,6.342-16.013s13.342,0.168,16.013,6.341C2140.695,2629.984,2140.743,2630.1,2140.768,2630.161z"/>
			</g>
		</g>
		<g>
			<g>
				<path style="fill:#000072;" d="M2274.899,2591.569c2.953,8.422,6.926,17.639,10.978,26.292
					c4.116,8.754,8.6,17.365,13.369,25.812c9.5,16.921,20.297,33.12,32.141,48.456c23.823,30.521,52.223,57.597,85.048,77.832
					c16.364,10.15,33.738,18.642,51.824,25.254c18.025,6.703,36.915,11.155,56.171,14.522c38.492,6.591,78.031,7.96,117.572,7.126
					c39.583-0.865,79.271-4.015,119.102-7.034c39.83-2.998,79.877-6.04,120.261-5.884c40.239,0.274,81.42,3.57,120.402,17.397
					c19.368,6.983,37.932,16.851,54.117,29.89c16.244,12.986,29.69,29.188,40.374,46.774c1.746,2.874,0.831,6.619-2.042,8.365
					c-2.85,1.731-6.555,0.847-8.32-1.97l-0.038-0.062c-10.249-16.376-22.886-31.195-38.029-42.99
					c-15.095-11.842-32.367-20.771-50.619-27.1c-36.715-12.531-76.45-15.36-115.829-15.106
					c-79.103,0.929-158.348,13.263-238.866,15.93c-40.233,1.348-80.922,0.51-121.306-5.874c-20.103-3.249-40.31-7.724-59.845-14.688
					c-19.512-6.847-38.315-15.739-56.023-26.41c-35.532-21.286-66.206-49.827-91.876-81.864
					c-12.771-16.099-24.399-33.078-34.681-50.844c-5.162-8.873-10.023-17.923-14.524-27.181c-4.51-9.379-8.633-18.445-12.423-28.82
					c-2.308-6.317,0.942-13.309,7.258-15.617c6.317-2.308,13.309,0.942,15.616,7.259c0.011,0.029,0.022,0.059,0.033,0.088
					L2274.899,2591.569z"/>
			</g>
		</g>
		<g>
			<g>
				<path style="fill:#000072;" d="M2089.327,3529.477c-17.603,0-35.391-8.228-54.063-24.951
					c-58.662-52.52-100.684-179.004-104.556-314.741c-3.394-118.755,19.741-346.909,212.734-540.63
					c6.333-6.353,16.611-6.367,22.964-0.044c6.353,6.328,6.372,16.611,0.044,22.964
					c-184.424,185.117-206.523,403.237-203.286,516.787c4.18,146.328,51.533,253.667,93.76,291.475
					c21.455,19.214,33.218,16.953,37.095,16.216c32.07-6.147,67.817-77.983,113.071-168.926c8.711-17.505,17.925-36.016,27.749-55.4
					c60.874-120.059,136.504-188.687,231.211-209.81c62.48-13.936,112.739-12.271,165.933-10.493
					c30.874,1.016,62.803,2.085,97.773-0.156c51.079-3.281,82.671-9.028,110.542-14.097c49.731-9.043,92.69-16.855,217.192-7.354
					l5.649,0.435c49.888,3.848,89.312,6.88,117.358-14.541c14.087-10.757,23.203-28.052,25.669-48.687
					c3.257-27.246-3.433-72.783-53.804-135.005c-85.132-105.156-218.96-91.865-360.64-77.793
					c-84.111,8.345-171.074,16.992-252.676,1.489c-206.04-39.146-231.948-171.772-232.954-177.397
					c-1.572-8.828,4.312-17.261,13.14-18.833c8.755-1.572,17.212,4.282,18.818,13.076c0.986,5.137,24.536,116.577,207.061,151.25
					c76.992,14.629,161.587,6.23,243.403-1.899c144.009-14.292,292.935-29.097,389.087,89.678
					c57.51,71.035,64.81,125.83,60.811,159.287c-3.521,29.424-17.085,54.512-38.203,70.64c-37.9,28.945-85.01,25.313-139.57,21.113
					l-5.62-0.43c-120.332-9.185-159.424-2.075-208.911,6.919c-28.74,5.229-61.313,11.152-114.272,14.551
					c-36.538,2.349-69.272,1.255-100.933,0.205c-51.069-1.689-99.331-3.301-157.783,9.731
					c-84.644,18.882-153.11,81.948-209.316,192.808c-9.79,19.307-18.965,37.744-27.642,55.181
					c-54.98,110.483-88.164,177.173-136.03,186.348C2096.534,3529.135,2092.935,3529.477,2089.327,3529.477z"/>
			</g>
		</g>
		<g>
			<g>
				<path style="fill:#000072;" d="M3120.919,2992.418c-3.921-2.164-7.734-4.443-11.621-6.482c-4.055-1.699-7.85-3.904-12.002-5.193
					c-4.125-1.34-8.119-2.937-12.377-3.667l-6.245-1.42l-6.361-0.841c-8.446-1.178-17.078-0.926-25.66-0.45
					c-8.638,0.896-17.238,2.265-25.859,4.353c-34.462,8.442-68.232,24.191-102.34,40.021
					c-34.132,15.948-68.86,32.511-105.831,45.157c-36.788,12.81-76.154,21.716-116.395,21.606
					c-8.97-0.024-16.221-7.315-16.196-16.284c0.024-8.679,6.853-15.75,15.421-16.175l0.195-0.009
					c35.608-1.702,70.873-10.22,105.502-22.181c34.618-12.157,68.591-27.723,103.459-42.85
					c17.471-7.503,35.077-15.198,53.428-21.738c18.293-6.64,37.284-12.404,57.212-15.685c19.819-3.302,40.922-4.006,61.279,0.884
					c20.317,4.689,39.238,14.658,54.202,28.018c3.352,2.992,3.643,8.135,0.651,11.487c-2.577,2.886-6.747,3.503-9.996,1.708
					L3120.919,2992.418z"/>
			</g>
		</g>
		<g>
			<g>
				<path style="fill:#FFFFFF;" d="M969.649,1605.625c0.704-16.518,20.637-53.865,53.47-23.893c0,0,7.829,47.338-39.911,102.98
					c-51.568,60.104-37.899,103.429-11.498,123.304c34.078,25.655-3.279,59.984-30.509,49.376
					c-42.376-16.509-66.333-104.44-17.405-163.824C961.292,1648.059,968.726,1627.272,969.649,1605.625z"/>
			</g>
			<g>
				<path style="fill:#000072;" d="M951.969,1875.585c-5.674,0-11.323-0.984-16.66-3.064c-23.184-9.031-42.026-33.608-50.405-65.745
					c-11.353-43.538-1.499-89.717,26.362-123.533c37.861-45.957,41.494-62.656,42.163-78.311
					c0.625-14.69,10.762-39.228,31.348-47.79c9.097-3.794,27.607-7.195,49.292,12.598l4.155,3.794l0.918,5.549
					c0.366,2.239,8.462,55.51-43.608,116.201c-22.334,26.03-32.988,50.41-30.806,70.503c1.631,14.988,10.005,24.182,16.748,29.258
					c23.701,17.842,23.267,40.127,14.956,55.034C987.584,1865.956,969.698,1875.583,951.969,1875.585z M999.41,1586.716
					c-0.757,0-1.479,0.127-2.163,0.41c-5.83,2.424-11.133,13.511-11.377,19.189l0,0c-1.064,25.007-9.512,48.989-49.546,97.578
					c-21.255,25.801-28.73,61.199-20,94.69c5.674,21.76,17.466,38.496,30.771,43.679c7.51,2.93,17.622-1.98,20.972-7.991
					c0.933-1.672,3.403-6.111-6.123-13.284c-16.773-12.627-27.251-30.986-29.497-51.694c-3.223-29.656,9.712-61.67,38.438-95.154
					c32.729-38.147,36.426-71.528,36.475-84.265C1004.805,1588.134,1001.944,1586.716,999.41,1586.716z M969.649,1605.624h0.049
					H969.649z"/>
			</g>
		</g>
		<g>
			<g>
				<path style="fill:#FFFFFF;" d="M2627.954,2018.043c-53.385,216.961-161.636,399.155-193.901,482.266
					c-10.578,27.151-18.441,52.081-24.612,75.423c-16.926,63.893-21.121,116.044-32.652,170.135
					c-24.365,114.105-184.168,164.282-258.851,54.76c-86.848-127.363-30.29-325.495-24.331-443.232
					c1.27-24.26,0.388-45.064-4.372-61.178c-69.605-236.32-212.835-261.073-377.152-312.025
					c-61.777-19.147-126.552-42.031-191.503-81.241c-65.726,5.077-121.157,11.601-226.517-5.818
					c-224.12-37.06-418.161-191.609-418.161-318.584c0-33.322,54.619-215.657,200.001-364.564
					c34.627-35.544,74.471-69.147,119.958-98.414c130.29-83.78,272.427-97.885,385.263-95.981
					c57.088-6.841,114.703-10.367,172.144-10.085c89.458,0.352,178.457,9.803,264.317,30.042
					c199.649,47.038,382.231,152.398,513.543,337.378c26.552,37.412,48.308,75.529,65.797,114.035
					C2677.39,1667.9,2668.54,1853.021,2627.954,2018.043z"/>
			</g>
		</g>
		<g>
			<g>
				<path style="fill:#FFFFFF;" d="M2627.954,2018.043c-53.385,216.961-161.636,399.155-193.901,482.266
					c-10.578,27.151-18.441,52.081-24.612,75.423c-16.926,63.893-21.121,116.044-32.652,170.135
					c-24.365,114.105-184.168,164.282-258.851,54.76c-86.848-127.363-30.29-325.495-24.331-443.232
					c1.27-24.26,0.388-45.064-4.372-61.178c-69.605-236.32-212.835-261.073-377.152-312.025
					c-61.777-19.147-126.552-42.031-191.503-81.241c-65.726,5.077-121.157,11.601-226.517-5.818
					c-224.12-37.06-418.161-191.609-418.161-318.584c0-33.322,54.619-215.657,200.001-364.564
					c34.627-35.544,74.471-69.147,119.958-98.414c130.29-83.78,272.427-97.885,385.263-95.981
					c57.088-6.841,114.703-10.367,172.144-10.085c89.458,0.352,178.457,9.803,264.317,30.042
					c199.649,47.038,382.231,152.398,513.543,337.378c26.552,37.412,48.308,75.529,65.797,114.035
					C2677.39,1667.9,2668.54,1853.021,2627.954,2018.043z"/>
			</g>
		</g>
		<g style="opacity:0.7;">
			<g>
				<path style="fill:#FFFFFF;" d="M1581.123,1019.59c57.088-6.841,114.703-10.367,172.144-10.085
					c-5.571,13.928-17.278,27.221-31.594,40.903c-6.277-0.106-12.553-0.141-18.829-0.176c-62.342-0.282-124.895,3.561-186.849,10.93
					c-93.089-1.551-204.514,6.911-314.74,50.988C1330.064,1031.403,1469.839,1017.721,1581.123,1019.59z"/>
			</g>
		</g>
		<g style="opacity:0.7;">
			<g>
				<path style="fill:#FFFFFF;" d="M2596.924,1490.961c-5.712,2.715-11.6,5.077-17.737,7.123
					c-9.908-16.468-20.627-32.828-32.157-49.084c-139.493-196.51-332.336-310.262-543.655-362.836
					c3.561-17.243,8.851-33.216,14.21-46.615c199.649,47.038,382.231,152.398,513.543,337.378
					C2557.679,1414.338,2579.435,1452.455,2596.924,1490.961z"/>
			</g>
		</g>
		<g style="opacity:0.2;">
			<g>
				<g>
					<path style="fill:#000072;" d="M2349.25,2803.977c-55.183,69.394-171.016,85.085-231.312-3.35
						c-86.848-127.363-30.29-325.495-24.331-443.232c1.27-24.26,0.388-45.064-4.372-61.178
						c-69.605-236.32-212.835-261.073-377.152-312.025c-61.777-19.147-126.552-42.031-191.503-81.241
						c-65.726,5.077-121.157,11.601-226.517-5.818c-224.12-37.06-418.161-191.609-418.161-318.584
						c0-9.943,4.866-33.146,15.515-64.775c39.281,33.956,145.593,25.635,230.678,77.574
						c9.739,156.582,97.684,212.17,166.256,230.149c122.119,32.019,462.003-370.001,428.636-534.524
						c111.939,56.906,198.517,395.348-4.904,597.218c164.317,50.952,406.05,127.932,434.44,359.053
						c19.873,161.786-35.989,411.542,14.54,505.09C2202.035,2824.147,2276.013,2830.493,2349.25,2803.977z"/>
				</g>
			</g>
		</g>
		<g>
			<g>
				<path style="fill:#DDDDDD;" d="M2133.594,2183.559c-23.413,49.154,5.395,145.734-39.986,173.837
					c1.27-24.26,0.388-45.064-4.372-61.178c-69.605-236.32-212.835-261.073-377.152-312.025
					c-11.001-19.605-17.666-46.121-14.845-81.947c4.796-60.614,38.858-82.864,80.466-103.526
					c-17.278,30.219-38.964,59.027-65.621,85.473C1861.343,1930.49,2074.531,1998.226,2133.594,2183.559z"/>
			</g>
		</g>
		<g>
			<g>
				<path style="fill:#FF1A56;" d="M2596.924,1490.961c-85.19,40.515-221.157,5.641-254.585-91.82
					c-54.76-159.627-123.942-99.013-247.25-145.593c-123.661-46.686-101.024-155.043-77.505-213.999
					c199.649,47.038,382.231,152.398,513.543,337.378C2557.679,1414.338,2579.435,1452.455,2596.924,1490.961z"/>
			</g>
		</g>
		<g>
			<g>
				<path style="fill:#FF1A56;" d="M2627.954,2018.043c-53.385,216.961-161.636,399.155-193.901,482.266
					c-10.578,27.151-18.441,52.081-24.612,75.423c-17.348-27.045-28.808-70.663-17.489-140.656
					c27.398-169.253-78.809-234.275-24.048-361.074C2405.915,1985.955,2538.356,2029.327,2627.954,2018.043z"/>
			</g>
		</g>
		<g>
			<g>
				<path style="fill:#FF1A56;" d="M2145.265,2167.338c-43.618,39.74-0.494,158.393-51.658,190.057
					c1.27-24.26,0.388-45.064-4.372-61.178c-69.605-236.32-212.835-261.073-377.152-312.025
					c-11.001-19.605-17.666-46.121-14.845-81.947c9.979-126.94,148.766-85.614,215.093-214.035
					c64.951-125.706,227.963-113.259,310.121,42.313c72.356,137.025-49.753,189.775-57.264,257.088
					C2155.244,2076.929,2244.525,2076.929,2145.265,2167.338z"/>
			</g>
		</g>
		<g style="opacity:0.2;">
			<g>
				<g>
					<path style="fill:#000072;" d="M2133.594,2183.559c-23.413,49.154,5.395,145.734-39.986,173.837
						c1.27-24.26,0.388-45.064-4.372-61.178c-69.605-236.32-212.835-261.073-377.152-312.025
						c-11.001-19.605-17.666-46.121-14.845-81.947c4.796-60.614,38.858-82.864,80.466-103.526
						c-17.278,30.219-38.964,59.027-65.621,85.473C1861.343,1930.49,2074.531,1998.226,2133.594,2183.559z"/>
				</g>
			</g>
		</g>
		<g>
			<g>
				<path style="fill:#FF1A56;" d="M1753.267,1009.506c-19.852,49.507-117.314,91.467-133.604,169.253
					c-38.153,182.547-161.778,81.312-350.918,122.814c-90.621,19.852-105.149-47.92-192.843-87.588
					c34.627-35.544,74.471-69.147,119.958-98.414c130.29-83.78,272.427-97.885,385.263-95.981
					C1638.211,1012.749,1695.827,1009.223,1753.267,1009.506z"/>
			</g>
		</g>
		<g style="opacity:0.7;">
			<g>
				<path style="fill:#FFFFFF;" d="M2596.924,1490.961c-5.712,2.715-11.6,5.077-17.737,7.123
					c-9.908-16.468-20.627-32.828-32.157-49.084c-139.493-196.51-332.336-310.262-543.655-362.836
					c3.561-17.243,8.851-33.216,14.21-46.615c199.649,47.038,382.231,152.398,513.543,337.378
					C2557.679,1414.338,2579.435,1452.455,2596.924,1490.961z"/>
			</g>
		</g>
		<g style="opacity:0.7;">
			<g>
				<path style="fill:#FFFFFF;" d="M1753.267,1009.506c-5.571,13.928-17.278,27.221-31.594,40.903
					c-6.277-0.106-12.553-0.141-18.829-0.176c-62.342-0.282-124.895,3.561-186.849,10.93c-93.089-1.551-204.514,6.911-314.74,50.988
					c128.808-80.748,268.583-94.429,379.868-92.56C1638.211,1012.749,1695.827,1009.223,1753.267,1009.506z"/>
			</g>
		</g>
		<g>
			<g>
				<path style="fill:#000072;" d="M2230.191,2877.87c-50.229,0-95.747-24.194-125.669-68.086
					c-70.332-103.149-51.733-246.812-36.787-362.246c8.057-62.197,15.01-115.918,5.933-146.743
					c-61.65-209.346-179.194-244.688-328.013-289.434c-70.474-21.187-150.176-45.154-228.97-91.833l-9.531,0.754
					c-59.819,4.783-116.343,9.297-215.732-7.139c-108.198-17.891-217.69-64.817-300.41-128.748
					c-83.462-64.509-131.333-139.543-131.333-205.864c0-46.973,85.283-320.947,327.393-476.616
					c107.065-68.843,235.62-101.057,393.237-98.584c189.634-22.519,372.622-6.848,529.175,45.344
					c181.304,60.444,327.612,167.72,434.868,318.848c116.494,164.146,154.941,360.92,114.272,584.858
					c-33.774,185.967-114.312,352.544-167.603,462.773c-17.705,36.621-32.998,68.247-41.851,91.021
					c-27.412,70.562-36.299,125.366-44.893,178.369c-3.584,22.114-6.968,43.003-11.606,64.727
					c-13.296,62.275-65.908,112.7-130.928,125.479C2251.09,2876.84,2240.543,2877.87,2230.191,2877.87z M1524.507,1886.344
					l4.458,2.69c76.748,46.345,152.642,69.163,226.04,91.23c151.958,45.691,283.193,85.144,349.814,311.36
					c11.011,37.383,3.647,94.243-4.878,160.083c-14.243,109.976-31.963,246.841,31.406,339.785
					c28.955,42.466,74.165,61.206,124.136,51.392c52.441-10.308,94.81-50.649,105.43-100.391
					c4.468-20.938,7.793-41.44,11.313-63.149c8.857-54.658,18.022-111.182,46.68-184.927c9.316-23.984,24.868-56.152,42.876-93.398
					c102.09-211.162,314.526-650.549,56.084-1014.702c-263.174-370.83-698.652-378.833-934.8-350.613l-1.099,0.132l-1.104-0.019
					c-151.299-2.483-274.478,27.993-376.235,93.413c-122.759,78.931-199.941,188.83-243.076,267.126
					c-52.319,94.961-69.404,167.771-69.404,182.175c0,121.143,196.611,268.188,404.565,302.576
					c95.469,15.784,147.549,11.626,207.856,6.804L1524.507,1886.344z"/>
			</g>
		</g>
		<g>
			<g>
				<g>
					<path style="fill:#FFFFFF;" d="M1915.504,2264.659c-31.875,72.179-21.015,165.304-71.58,180.89
						c-58.921,18.159-112.765-27.68-152.539-103.28c-39.069-74.331-64.563-177.364-67.948-276.729
						c-1.411-41.714-5.536-75.318-11.355-102.398c-28.138-130.043-96.368-109.062-98.624-108.357l171.404-146.827
						c0,0,66.468,7.263,144.147,45.593c89.634,44.253,194.183,129.902,228.774,293.478c2.962,13.893,5.395,28.35,7.264,43.407
						C2075.625,2175.061,1953.727,2178.128,1915.504,2264.659z"/>
				</g>
			</g>
			<g style="opacity:0.2;">
				<g>
					<g>
						<path style="fill:#000072;" d="M1915.504,2264.659c-31.875,72.179-21.015,165.304-71.58,180.89
							c-58.921,18.159-112.765-27.68-152.539-103.28c26.904,17.419,59.45,22.708,91.75-10.649
							c77.151-79.655,74.012-169.394,146.827-204.126c47.92-22.814,98.167-44.606,127.821-80.466
							c2.962,13.893,5.395,28.35,7.264,43.407C2075.625,2175.061,1953.727,2178.128,1915.504,2264.659z"/>
					</g>
				</g>
			</g>
			<g style="opacity:0.2;">
				<g>
					<g>
						<path style="fill:#000072;" d="M1829.008,1753.55c-24.858,61.777-85.579,169.006-216.926,209.592
							c-28.138-130.043-96.368-109.062-98.624-108.357l171.404-146.827C1684.861,1707.957,1751.329,1715.22,1829.008,1753.55z"/>
					</g>
				</g>
			</g>
			<g>
				<g>
					<path style="fill:#000072;" d="M1818.35,2465.702c-22.651,0.005-45.22-7.69-66.509-22.852
						c-78.281-55.752-139.102-214.194-144.619-376.748c-4.487-132.146-36.763-174.529-55.605-188.032
						c-17.314-12.412-32.593-8.003-33.228-7.808l-80.005,27.295l64.458-55.078l176.777-151.423l6.987,0.764
						c3.584,0.391,88.77,10.195,180.371,63.74c84.966,49.666,191.099,147.732,214.199,332.866
						c7.051,56.558-34.067,82.983-73.838,108.54c-30.337,19.492-61.704,39.653-76.992,74.268
						c-11.367,25.732-16.997,54.541-22.441,82.402c-9.536,48.794-18.54,94.883-59.185,107.417
						C1838.653,2464.159,1828.492,2465.702,1818.35,2465.702z M1553.14,1842.155c5.303,2.09,10.728,4.905,16.123,8.625
						c42.9,29.609,66.592,101.682,70.41,214.219c5.122,150.791,61.441,301.855,131.006,351.396
						c22.593,16.094,45.63,20.674,68.472,13.628c22.07-6.807,28.935-41.938,36.885-82.617c5.517-28.232,11.772-60.234,24.604-89.292
						c19.233-43.54,56.372-67.407,89.146-88.467c40.679-26.138,63.481-42.612,59.165-77.197
						c-17.168-137.627-83.555-241.333-197.315-308.242c-71.504-42.053-140.434-55.708-161.811-59.136L1553.14,1842.155z"/>
				</g>
			</g>
			<g>
				<g>
					<path style="fill:#000072;" d="M1578.411,1809.156l1.814,0.427l1.431,0.385l2.662,0.793c1.747,0.53,3.37,1.129,5.029,1.713
						c3.255,1.21,6.404,2.532,9.492,3.931c6.169,2.803,12.003,6.061,17.667,9.536c11.263,7.034,21.638,15.213,31.035,24.273
						c18.751,18.181,33.749,39.541,45.25,62.199c11.725,22.613,19.847,46.591,25.92,70.778c6.016,24.23,9.723,48.802,11.862,73.368
						c1.197,12.264,1.581,24.627,2.153,36.81c0.54,11.806,0.988,23.631,2.211,35.393c2.189,23.539,5.808,46.963,11.14,69.994
						c5.333,23.021,12.365,45.667,21.392,67.408c4.368,10.948,9.62,21.448,15.15,31.722c5.659,10.129,12.056,20.013,19.326,28.071
						l0.227,0.251c3.002,3.327,2.739,8.458-0.588,11.461c-3.267,2.948-8.281,2.738-11.304-0.419
						c-9.192-9.62-16.184-20.015-22.626-30.728c-6.224-10.784-12.086-21.752-17-33.087c-10.133-22.556-18.131-45.947-24.38-69.767
						c-6.244-23.825-10.712-48.083-13.695-72.513c-1.62-12.211-2.45-24.486-3.358-36.768c-0.896-11.901-1.573-23.654-3.048-35.381
						c-5.416-46.729-16.632-93.091-38.577-133.278c-10.869-20.054-24.592-38.303-40.928-53.297
						c-8.182-7.467-17.062-14.041-26.42-19.536c-4.694-2.699-9.485-5.21-14.366-7.26c-2.439-1.02-4.882-1.966-7.306-2.792
						c-1.2-0.378-2.416-0.797-3.568-1.104l-1.687-0.453l-1.149-0.266l-1.134-0.262c-8.733-2.018-14.175-10.732-12.158-19.464
						c2.018-8.732,10.732-14.175,19.464-12.157L1578.411,1809.156z"/>
				</g>
			</g>
			<g>
				<g>
					<path style="fill:#000072;" d="M1634.21,1766.305c3.326,1.603,5.665,2.877,8.325,4.373c2.581,1.45,5.095,2.933,7.572,4.455
						c4.948,3.051,9.789,6.193,14.482,9.507c9.424,6.582,18.444,13.629,27.073,21.101c17.208,14.986,33.043,31.472,47.029,49.386
						c28.145,35.703,49.191,76.678,62.424,119.72c6.653,21.801,11.19,42.893,16.522,64.114l15.58,63.526
						c5.371,21.042,10.64,42.122,17.808,61.998c3.6,9.941,7.687,19.571,12.606,28.888c4.921,9.32,10.491,18.45,16.277,27.543
						l0.037,0.058c2.407,3.783,1.292,8.801-2.491,11.208c-3.71,2.36-8.613,1.322-11.072-2.284
						c-6.214-9.136-12.318-18.467-17.896-28.288c-5.582-9.826-10.369-20.194-14.517-30.648
						c-8.281-20.978-14.231-42.171-20.311-63.231l-17.561-63.17c-5.938-20.943-11.311-42.419-18.059-62.171
						c-13.681-39.989-34.44-77.321-61.388-109.391c-13.386-16.095-28.418-30.767-44.542-43.951
						c-8.082-6.568-16.488-12.714-25.142-18.362c-4.311-2.851-8.719-5.511-13.143-8.053c-2.212-1.267-4.44-2.486-6.654-3.64
						c-2.125-1.127-4.642-2.349-6.255-3.063l-0.332-0.147c-8.201-3.633-11.904-13.226-8.271-21.426
						c3.633-8.201,13.226-11.904,21.427-8.271C1633.875,1766.147,1634.076,1766.241,1634.21,1766.305z"/>
				</g>
			</g>
			<g>
				<g>
					<path style="fill:#000072;" d="M1682.517,1718.844c10.707,5.394,20.083,10.837,29.781,16.658
						c9.574,5.796,18.958,11.841,28.185,18.102c18.43,12.554,36.237,25.973,53.333,40.26c34.16,28.583,65.486,60.731,92.348,96.455
						c26.724,35.779,48.794,75.309,63.621,117.522c7.506,21.033,13.119,42.692,17.762,64.134c2.366,10.692,4.5,21.374,7.209,31.406
						c2.653,9.971,6.355,19.473,12.117,23.675l0.143,0.104c3.622,2.641,4.418,7.719,1.776,11.341
						c-2.598,3.563-7.562,4.384-11.171,1.897c-6.068-4.189-10.167-10.015-13.018-15.544c-2.873-5.597-4.78-11.145-6.482-16.593
						c-3.335-10.906-5.811-21.536-8.512-32.031c-5.289-20.975-11.343-41.398-19.158-61.176
						c-15.403-39.611-37.65-76.264-63.958-109.57c-26.522-33.203-57.294-63.013-90.748-89.381
						c-16.737-13.177-34.144-25.513-52.075-36.975c-8.975-5.714-18.08-11.21-27.303-16.432
						c-9.127-5.142-18.794-10.322-27.677-14.471l-0.353-0.164c-8.126-3.796-11.636-13.461-7.84-21.587
						c3.796-8.126,13.461-11.636,21.587-7.84C1682.207,1718.692,1682.396,1718.784,1682.517,1718.844z"/>
				</g>
			</g>
		</g>
		<g>
			<g>
				<circle style="fill:#FFFFFF;" cx="1252.245" cy="1382.742" r="131.715"/>
			</g>
		</g>
		<g>
			<g>
				<path style="fill:#000072;" d="M1252.247,1530.693c-81.582,0-147.954-66.37-147.954-147.949
					c0-81.582,66.372-147.952,147.954-147.952s147.949,66.37,147.949,147.952
					C1400.196,1464.323,1333.829,1530.693,1252.247,1530.693z M1252.247,1267.262c-63.677,0-115.483,51.804-115.483,115.481
					c0,63.674,51.807,115.479,115.483,115.479c63.677,0,115.479-51.804,115.479-115.479
					C1367.725,1319.067,1315.923,1267.262,1252.247,1267.262z"/>
			</g>
		</g>
		<g>
			<g>
				<path style="fill:#FC9292;" d="M1119.767,1603.867c-7.511,25.564-33.039,52.08-90.762,71.721
					c-58.499,19.923-168.654,24.613-192.279-29.866c-5.677-13.011-7.475-44.57,31.735-67.595
					c-17.454-25.741-34.802-53.527-26.657-85.896c2.187-8.674,5.536-15.585,9.697-21.086v-0.035
					c6.206-8.321,14.14-13.399,22.391-16.361c20.346-7.37,43.159-1.869,58.886,13.011c12.8,12.094,32.934,28.667,53.914,36.107
					c45.416,16.115,86.884-7.546,121.333,40.444C1119.308,1560.037,1126.326,1581.581,1119.767,1603.867z"/>
			</g>
		</g>
		<g style="opacity:0.7;">
			<g>
				<path style="fill:#FFFFFF;" d="M1119.767,1603.867c-1.058,3.632-2.503,7.299-4.372,10.966
					c0.776-16.925-5.395-32.722-14.21-44.993c-15.021-20.98-31.417-28.244-48.872-31.171c-2.679,10.825-18.442,18.442-36.917,17.384
					c-19.923-1.129-35.508-11.883-34.803-24.048c0.035-0.776,0.141-1.516,0.317-2.256c-0.352-0.106-0.705-0.212-1.057-0.353
					c-20.981-7.44-41.115-24.013-53.914-36.107c-15.726-14.88-38.54-20.381-58.886-13.011c-8.251,2.962-16.185,8.04-22.391,16.361
					v0.035c-1.728,2.292-3.314,4.831-4.76,7.652c0.246-3.949,0.881-7.969,1.903-12.095c2.187-8.674,5.536-15.585,9.697-21.086
					v-0.035c6.206-8.321,14.14-13.399,22.391-16.361c20.346-7.37,43.159-1.869,58.886,13.011
					c12.8,12.094,32.934,28.667,53.914,36.107c45.416,16.115,86.884-7.546,121.333,40.444
					C1119.308,1560.037,1126.326,1581.581,1119.767,1603.867z"/>
			</g>
		</g>
		<g>
			<g>
				<path style="fill:#FF7373;" d="M1119.767,1603.867c-7.511,25.564-33.039,52.08-90.762,71.721
					c-58.499,19.923-168.654,24.613-192.279-29.866c-5.677-13.011-7.475-44.57,31.735-67.595
					c-17.454-25.741-34.802-53.527-26.657-85.896c2.187-8.674,5.536-15.585,9.697-21.086
					c-9.45,55.536,60.756,125.847,172.109,126.482c0,0-28.244,23.66-101.764,9.379c-57.863,0-46.227,59.838,67.278,49.471
					C1049.985,1650.904,1092.475,1626.751,1119.767,1603.867z"/>
			</g>
		</g>
		<g>
			<g>
				<path style="fill:#000072;" d="M939.488,1705.773c-50.244,0-100.185-13.301-117.666-53.574
					c-6.987-16.089-9.39-50.898,24.326-78.367c-14.102-22.28-28.569-51.853-20.068-85.557c6.084-24.128,20.703-41.006,42.28-48.804
					c25.557-9.253,55.22-2.771,75.561,16.489c16.909,15.999,34.019,27.576,48.179,32.598c13.853,4.912,27.554,5.535,42.056,6.194
					c28.237,1.284,60.239,2.739,87.046,40.088c16.587,23.105,21.543,50.576,13.599,75.366
					c-11.099,34.653-44.941,61.826-100.576,80.767C1009.796,1699.289,974.566,1705.773,939.488,1705.773z M892.427,1467.758
					c-4.429,0-8.833,0.735-13.027,2.251c-11.431,4.131-18.369,12.458-21.836,26.206c-6.265,24.856,7.31,47.673,24.326,72.795
					c2.52,3.716,3.384,8.308,2.393,12.686c-0.986,4.377-3.745,8.149-7.612,10.422c-35.874,21.067-25.522,46.091-25.063,47.146
					c0,0.002,0,0.002,0,0.005c18.096,41.667,115.596,40.222,172.148,20.962c44.736-15.227,72.441-35.952,80.122-59.932
					c6.777-21.16-4.072-39.585-9.053-46.523c-17.627-24.561-36.304-25.41-62.144-26.585c-15.483-0.703-33.027-1.501-51.431-8.027
					c-23.501-8.333-45.41-26.142-59.648-39.617C913.502,1471.884,902.911,1467.758,892.427,1467.758z"/>
			</g>
		</g>
		<g>
			<g>
				<path style="fill:#000072;" d="M879.725,1566.436l3.136,2.239c1.18,0.849,2.397,1.712,3.657,2.53
					c2.446,1.727,5.06,3.292,7.632,4.89c5.199,3.126,10.547,6.024,16.049,8.497c5.443,2.621,11.089,4.71,16.788,6.504
					c2.839,0.997,5.753,1.584,8.648,2.366l9.21,1.919c12.368,2.153,24.952,2.94,37.599,2.284c6.301-0.408,12.643-1.061,18.906-2.228
					c3.126-0.583,6.249-1.246,9.31-2.071c2.949-0.813,6.283-1.852,8.663-2.654l1.139-0.384c4.241-1.429,8.835,0.85,10.265,5.09
					c1.15,3.414-0.114,7.063-2.858,9.099c-3.595,2.66-6.551,4.507-9.967,6.359c-3.323,1.809-6.716,3.432-10.164,4.965
					c-6.912,2.986-14.108,5.238-21.436,6.988c-14.664,3.417-29.922,4.666-44.995,3.677l-11.288-1.044
					c-3.853-0.673-7.765-1.202-11.554-2.17c-7.677-1.633-15.067-4.248-22.228-7.255c-7.117-3.125-13.981-6.749-20.439-11.022
					c-3.246-2.117-6.366-4.407-9.43-6.842c-1.522-1.224-3.011-2.508-4.51-3.834c-1.556-1.411-2.775-2.59-4.69-4.541
					c-6.261-6.377-6.166-16.623,0.211-22.884c5.691-5.588,14.464-6.114,20.735-1.629L879.725,1566.436z"/>
			</g>
		</g>
		<g>
			<g>
				<path style="fill:#FFFFFF;" d="M1080.085,1643.24c-7.24-14.864-7.478-57.197,35.662-46.456c0,0,29.409,37.912,13.894,109.566
					c-16.759,77.401,15.877,109.004,48.554,113.924c42.18,6.351,25.656,54.32-3.341,57.945
					c-45.127,5.641-108.036-60.299-93.255-135.811C1092.924,1684.54,1089.572,1662.719,1080.085,1643.24z"/>
			</g>
			<g>
				<path style="fill:#000072;" d="M1169.415,1894.787c-22.793,0-47.754-12.437-68.164-34.307
					c-30.698-32.891-44.004-78.196-35.586-121.189c11.436-58.425,6.684-74.849-0.176-88.94l0,0
					c-6.441-13.218-9.199-39.624,4.834-56.951c6.201-7.664,20.869-19.458,49.346-12.371l5.459,1.357l3.447,4.446
					c1.392,1.792,33.857,44.795,16.934,122.954c-7.256,33.518-5.024,60.029,6.45,76.663c8.564,12.41,20.308,16.514,28.652,17.771
					c29.331,4.414,39.556,24.221,39.341,41.284c-0.298,23.989-19.624,45.893-43.081,48.826
					C1174.415,1894.638,1171.929,1894.787,1169.415,1894.787z M1103.004,1611.293c-3.052,0-5.893,0.627-7.446,2.544
					c-3.975,4.907-3.364,17.183-0.879,22.29l0.005,0.003c10.962,22.51,14.941,47.624,2.847,109.399
					c-6.421,32.803,3.843,67.493,27.461,92.795c15.337,16.438,33.618,25.535,47.852,23.784c8.003-1.001,14.556-10.124,14.639-17.012
					c0.024-1.912,0.088-6.99-11.704-8.767c-20.762-3.128-38.711-14.292-50.542-31.436c-16.943-24.551-20.801-58.862-11.465-101.98
					c10.723-49.504-1.807-80.198-7.964-91.465C1104.874,1611.352,1103.931,1611.293,1103.004,1611.293z"/>
			</g>
		</g>
		<g>
			<g>
				<path style="fill:#FFFFFF;" d="M1611.834,1187.756c0,0,184.487,111.176,184.279,330.21
					c-0.292,308.117-275.543,384.968-275.543,384.968s-133.785,24.106-289.877-19.552l451.212-484.242L1611.834,1187.756z"/>
			</g>
		</g>
		<g style="opacity:0.2;">
			<g>
				<g>
					<path style="fill:#000072;" d="M1793.465,1568.57c-28.209,266.045-272.886,334.381-272.886,334.381
						s-133.78,24.083-289.881-19.57l57.652-61.883C1528.407,1857.217,1737.682,1783.38,1793.465,1568.57z"/>
				</g>
			</g>
		</g>
		<g>
			<g>
				<path style="fill:#000072;" d="M1616.024,1180.802c17.43,9.534,32.865,20.592,47.971,32.711
					c14.972,12.133,29.218,25.239,42.426,39.389c13.191,14.157,25.596,29.149,36.725,45.116
					c11.23,15.891,21.344,32.656,29.949,50.222c8.683,17.519,16.144,35.698,22.065,54.403c5.9,18.718,10.167,37.927,13.252,57.304
					c3.068,19.401,4.182,39.03,4.501,58.609l-0.751,29.119c-0.834,9.697-1.49,19.411-2.498,29.099
					c-4.519,38.725-14.142,77.113-29.193,113.455c-1.725,4.607-3.851,9.043-5.957,13.49c-2.114,4.441-4.137,8.929-6.337,13.329
					c-4.788,8.596-9.11,17.468-14.498,25.719c-10.083,16.922-21.842,32.805-34.492,47.852
					c-25.482,29.985-55.273,56.083-87.809,77.775c-16.285,10.832-33.212,20.662-50.752,29.326
					c-8.796,4.286-17.678,8.405-26.781,12.13c-4.558,1.855-9.138,3.667-13.807,5.362c-4.789,1.73-9.119,3.267-14.675,4.886
					l-0.84,0.244l-0.793,0.13c-13.286,2.172-25.365,3.37-37.993,4.493c-12.49,0.975-24.979,1.671-37.462,1.914
					c-24.962,0.56-49.921,0.055-74.784-1.902c-24.857-1.899-49.666-4.731-74.224-9.182c-24.633-4.027-48.867-10.221-72.947-16.774
					c-8.65-2.354-13.754-11.275-11.4-19.926c2.328-8.551,11.07-13.636,19.626-11.479l0.521,0.132
					c23.064,5.832,46.266,11.163,69.816,14.748c23.464,4,47.198,6.441,70.959,8.001c23.766,1.618,47.627,1.835,71.394,1.046
					c11.888-0.384,23.741-1.15,35.557-2.044c11.65-1.031,23.842-2.325,34.617-4.098l-1.631,0.374c3.461-1.01,8-2.575,12.036-4.057
					c4.157-1.514,8.308-3.164,12.445-4.853c8.28-3.399,16.439-7.2,24.523-11.148c16.132-7.994,31.743-17.09,46.719-27.079
					c29.934-20.015,57.146-43.966,80.283-71.264c11.41-13.756,22.379-27.944,31.598-43.269c4.982-7.434,8.929-15.476,13.375-23.231
					c2.03-3.981,3.893-8.049,5.853-12.068c1.953-4.023,3.936-8.035,5.529-12.224c13.974-32.963,23.143-68.026,27.649-103.875
					c1.005-8.979,1.682-18.011,2.556-27.016l0.938-27.202c-0.16-17.967-0.997-35.933-3.656-53.687
					c-2.677-17.729-6.406-35.314-11.656-52.486c-5.376-17.122-11.752-33.955-19.38-50.273
					c-15.244-32.651-35.155-63.236-58.309-91.382c-11.558-14.101-24.067-27.47-37.181-40.273
					c-13.098-12.66-27.163-25.065-41.455-35.676l-0.356-0.264c-3.6-2.673-4.352-7.759-1.678-11.359
					C1608.057,1179.791,1612.524,1178.883,1616.024,1180.802z"/>
			</g>
		</g>
		<g>
			<g>
				<g>
					<path style="fill:#FFFFFF;" d="M1101.251,958.918c-44.346,0-80.42-36.077-80.42-80.422c0-44.343,36.074-80.42,80.42-80.42
						s80.42,36.077,80.42,80.42C1181.671,922.841,1145.596,958.918,1101.251,958.918z M1101.251,813.31
						c-35.942,0-65.186,29.243-65.186,65.186c0,35.945,29.243,65.188,65.186,65.188s65.185-29.243,65.185-65.188
						C1166.436,842.553,1137.193,813.31,1101.251,813.31z"/>
				</g>
			</g>
			<g>
				<g>
					<path style="fill:#FFFFFF;" d="M1137.305,875.402c-2.739,0-5.386-1.482-6.748-4.075c-14.438-27.468-35.762-22.7-36.646-22.478
						c-4.097,0.979-8.188-1.494-9.209-5.542c-1.016-4.05,1.377-8.154,5.415-9.214c11.587-3.042,37.744-0.64,53.926,30.144
						c1.958,3.723,0.527,8.33-3.198,10.288C1139.713,875.119,1138.502,875.402,1137.305,875.402z"/>
				</g>
			</g>
		</g>
		<g>
			<g>
				<g>
					<path style="fill:#FFFFFF;" d="M963.189,716.638c-44.346,0-80.42-36.077-80.42-80.42c0-44.343,36.074-80.42,80.42-80.42
						s80.42,36.077,80.42,80.42C1043.609,680.561,1007.535,716.638,963.189,716.638z M963.189,571.032
						c-35.942,0-65.186,29.243-65.186,65.186c0,35.942,29.243,65.185,65.186,65.185s65.186-29.243,65.186-65.185
						C1028.375,600.275,999.132,571.032,963.189,571.032z"/>
				</g>
			</g>
			<g>
				<g>
					<path style="fill:#FFFFFF;" d="M999.635,628.964c-2.739,0-5.386-1.482-6.748-4.075c-14.443-27.468-35.762-22.698-36.646-22.478
						c-4.082,0.974-8.193-1.494-9.209-5.542c-1.016-4.05,1.377-8.154,5.415-9.214c11.592-3.04,37.744-0.637,53.926,30.144
						c1.958,3.723,0.527,8.33-3.198,10.288C1002.042,628.681,1000.831,628.964,999.635,628.964z"/>
				</g>
			</g>
		</g>
		<g>
			<g>
				<g>
					<path style="fill:#FFFFFF;" d="M902.003,1095.373c-25.83,0-46.846-21.016-46.846-46.846c0-25.833,21.016-46.848,46.846-46.848
						c25.83,0,46.846,21.016,46.846,46.848C948.848,1074.357,927.833,1095.373,902.003,1095.373z M902.003,1016.913
						c-17.432,0-31.611,14.182-31.611,31.614s14.18,31.611,31.611,31.611c17.432,0,31.611-14.18,31.611-31.611
						S919.434,1016.913,902.003,1016.913z"/>
				</g>
			</g>
			<g>
				<g>
					<path style="fill:#FFFFFF;" d="M921.929,1047.26c-1.504,0-2.954-0.813-3.701-2.231c-7.905-15.051-19.58-12.427-20.078-12.317
						c-2.227,0.518-4.487-0.813-5.049-3.037c-0.557-2.219,0.757-4.468,2.969-5.049c6.348-1.655,20.684-0.354,29.551,16.516
						c1.069,2.041,0.288,4.565-1.753,5.637C923.248,1047.106,922.584,1047.26,921.929,1047.26z"/>
				</g>
			</g>
		</g>
		<g>
			<g>
				<g>
					<ellipse style="fill:#000072;" cx="1250.119" cy="1380.749" rx="75.902" ry="85.301"/>
				</g>
			</g>
			<g>
				<g>
					
						<ellipse transform="matrix(0.2974 -0.9547 0.9547 0.2974 -440.7604 2128.2012)" style="fill:#FFFFFF;" cx="1225.677" cy="1363.586" rx="36.077" ry="24.423"/>
				</g>
			</g>
			<g style="opacity:0.35;">
				<g>
					<path style="fill:#FFFFFF;" d="M1273.729,1409.94c-5.784,8.273-6.633,17.477-1.896,20.559
						c4.736,3.082,13.264-1.125,19.048-9.398c5.784-8.273,6.633-17.477,1.896-20.56
						C1288.04,1397.46,1279.512,1401.667,1273.729,1409.94z"/>
				</g>
			</g>
		</g>
	</g>
</g>
</svg>
