<?xml version="1.0" encoding="utf-8"?>
<!-- Generator: Adobe Illustrator 27.5.0, SVG Export Plug-In . SVG Version: 6.00 Build 0)  -->
<svg version="1.1" id="Layer_1" xmlns="http://www.w3.org/2000/svg" xmlns:xlink="http://www.w3.org/1999/xlink" x="0px" y="0px"
	 viewBox="0 0 4000 4000" style="enable-background:new 0 0 4000 4000;" xml:space="preserve">
<g>
	<g>
		<!-- <rect x="0" y="0" style="fill-rule:evenodd;clip-rule:evenodd;fill:#FBE67B;" width="4000" height="4000"/> -->
	</g>
	<g>
		<g style="opacity:0.2;">
			<path style="fill-rule:evenodd;clip-rule:evenodd;fill:#4F140D;" d="M1840.473,3045.014
				c368.855,0,667.895,94.014,667.895,209.993c0,115.979-299.04,209.993-667.895,209.993c-368.876,0-667.918-94.014-667.918-209.993
				C1172.555,3139.028,1471.597,3045.014,1840.473,3045.014"/>
		</g>
		<g>
			<path style="fill-rule:evenodd;clip-rule:evenodd;fill:#AD5833;" d="M1051.256,1962.899
				c127.167-111.695,288.306-147.947,451.018-149.702c468.361-208.808,674.32-225.236,617.905-49.285
				c320.207-19.571,433.064,32.47,338.548,156.107c154.305-15.155,195.958,25.381,124.911,121.607
				c111.149,21.053,147.037,86.517,96.135,168.454c88.09,9.592,149.725,25.747,196.411,76.423
				c-39.101,190.51-163.442,326.906-373.001,409.23c-61.407,103.79-169.32,187.596-323.739,251.441
				c-68.29,46.028-132.933,46.028-193.905,0c-106.068-80.913-178.298-75.467-244.88-8.201
				c-62.569,63.206-164.807,66.146-247.087,32.376c-82.303-33.767-140.542-108.573-153.097-196.64
				c-80.775-29.28-138.88-100.645-151.183-185.68c-102.878,81.095-124.251-8.75-64.097-269.533
				c-113.541,73.803-207.214-20.962-19.709-195.522C950.564,2144.093,920.351,2077.901,1051.256,1962.899z"/>
		</g>
		<g>
			<path style="fill:#4F140D;" d="M1599.655,3012.676c-36.848,0-75.552-7.615-113.525-23.198
				c-84.749-34.77-146.404-110.949-163.169-200.554c-72.478-30.081-126.357-91.741-146.765-166.731
				c-20.811,12.407-48.818,22.913-72.415,7.954c-26.921-17.065-51.169-64.365-6.682-274.434
				c-43.025,15.969-82.063,10.276-103.621-17.327c-26.423-33.835-21.575-100.322,61.394-191.279
				c-65.881-0.208-91.306-22.102-100.625-42.695c-17.7-39.111,10.588-91.677,84.075-156.235c0-0.002,0.002-0.002,0.002-0.002
				c115.205-101.189,265.605-151.753,459.666-154.524c470.168-209.206,581.833-182.241,624.871-143.657
				c23.184,20.784,30.876,51.946,23,92.854c211.907-10.723,325.427,11.582,356.404,69.719c12.886,24.184,10.886,52.722-5.884,85.142
				c73.271-2.869,115.935,10.144,133.005,40.217c13.386,23.579,8.921,53.557-13.711,91.162
				c49.712,14.358,83.416,39.295,98.215,72.993c8.792,20.017,14.124,51.055-3.567,91.995
				c76.66,10.571,134.668,29.648,180.271,79.148c4.272,4.636,6.052,11.045,4.785,17.219
				c-39.941,194.614-167.371,336.248-378.818,421.064c-63.665,103.987-173.906,189.087-327.83,253.03
				c-75.081,49.89-147.405,49.309-215-1.724c-114.724-87.515-173.12-56.548-219.146-10.054
				C1715.558,2992.183,1660.104,3012.676,1599.655,3012.676z M1189.294,2569.432c2.449,0,4.915,0.459,7.263,1.396
				c6.504,2.595,11.125,8.464,12.129,15.396c11.289,78.027,64.348,143.193,138.469,170.063c6.807,2.468,11.699,8.489,12.722,15.657
				c11.521,80.825,65.601,150.283,141.133,181.274c70.071,28.757,167.041,31.245,225.72-28.032
				c78.044-78.84,161.531-76.87,270.693,6.406c53.955,40.73,109.939,40.53,171.067-0.669c1.089-0.735,2.251-1.357,3.464-1.86
				c149.692-61.89,255.459-143.75,314.363-243.308c2.222-3.757,5.637-6.665,9.7-8.262
				c198.291-77.898,318.958-207.354,358.806-384.856c-42.144-41.008-97.554-54.407-177.173-63.076
				c-6.697-0.73-12.549-4.846-15.498-10.901c-2.947-6.057-2.581-13.203,0.974-18.923c13.589-21.875,27.202-53.838,14.878-81.895
				c-11.86-27.007-46.67-47.236-98.015-56.96c-6.621-1.255-12.136-5.825-14.597-12.1s-1.523-13.374,2.48-18.796
				c24.685-33.433,34.683-59.934,27.429-72.71c-5.005-8.826-28.154-28.208-134.661-17.756c-7.766,0.754-15.244-3.152-19.036-9.971
				c-3.796-6.816-3.186-15.234,1.553-21.433c25.654-33.557,33.901-59.504,24.517-77.119c-13.24-24.844-75.825-64.06-346.301-47.524
				c-6.484,0.381-12.698-2.427-16.667-7.534c-3.972-5.107-5.166-11.848-3.191-18.01c12.302-38.362,10.681-64.858-4.817-78.75
				c-30.474-27.315-147.183-43.911-586.445,151.917c-2.444,1.091-5.088,1.67-7.766,1.697
				c-186.262,2.009-329.631,49.385-438.298,144.832l0.002-0.002c-65.649,57.673-81.021,95.642-74.236,110.632
				c6.106,13.491,39.365,25.852,113.005,16.287c8.45-1.108,16.636,3.389,20.259,11.096c3.625,7.71,1.853,16.877-4.382,22.681
				c-106.201,98.87-108.232,158.323-94.468,175.947c12.205,15.623,47.087,16.79,90.144-11.199
				c6.697-4.358,15.366-4.207,21.917,0.374c6.545,4.583,9.656,12.678,7.859,20.461c-54.688,237.09-25.857,269.128-19.524,273.145
				c5.811,3.694,23.015-0.244,52.395-23.406C1180.673,2570.87,1184.96,2569.432,1189.294,2569.432z"/>
		</g>
		<g style="opacity:0.5;">
			<path style="fill-rule:evenodd;clip-rule:evenodd;fill:#FFFFFF;" d="M2620.051,2142.884c38.485,12.212,52.818,27.616,42.95,46.21
				c-72.275-47.123-178.662-8.887-319.227,114.703C2425.368,2172.46,2517.446,2118.823,2620.051,2142.884"/>
		</g>
		<g style="opacity:0.5;">
			<path style="fill-rule:evenodd;clip-rule:evenodd;fill:#FFFFFF;" d="M2763.441,2223.865l0.182,0.047
				c40.832,12.6,66.99,32.379,78.428,59.379c-113.268-59.402-216.396-47.713-309.383,35.09
				C2579.606,2232.934,2656.531,2201.421,2763.441,2223.865"/>
		</g>
		<g style="opacity:0.5;">
			<path style="fill-rule:evenodd;clip-rule:evenodd;fill:#FFFFFF;" d="M2413.907,2071.566
				c60.156,6.857,91.963,28.596,95.472,65.235c-104.882-59.927-239.546-20.554-403.945,118.142
				C2176.503,2133.861,2279.337,2072.728,2413.907,2071.566"/>
		</g>
		<g style="opacity:0.5;">
			<path style="fill-rule:evenodd;clip-rule:evenodd;fill:#FFFFFF;" d="M1051.256,1962.899
				c127.167-111.695,288.306-147.947,451.018-149.702c242.281-108.004,414.314-164.534,516.165-169.593h0.023h0.044
				c41.219-2.051,70.886,4.375,89.116,19.207c18.069,19.87,22.238,53.569,12.555,101.1c-1.846-127.508-185.66-103.036-560.87,54.64
				c3.987,4.466-89.548,14.014-283.022,57.9c-275.275,128.511-336.773,221.75-170.801,247.521
				C950.564,2144.093,920.351,2077.901,1051.256,1962.899"/>
		</g>
		<g>
			<path style="fill:#4F140D;" d="M1599.655,3012.676c-36.848,0-75.552-7.615-113.525-23.198
				c-84.749-34.77-146.404-110.949-163.169-200.554c-72.478-30.081-126.357-91.741-146.765-166.731
				c-20.811,12.407-48.818,22.913-72.415,7.954c-26.921-17.065-51.169-64.365-6.682-274.434
				c-43.025,15.969-82.063,10.276-103.621-17.327c-26.423-33.835-21.575-100.322,61.394-191.279
				c-65.881-0.208-91.306-22.102-100.625-42.695c-17.7-39.111,10.588-91.677,84.075-156.235c0-0.002,0.002-0.002,0.002-0.002
				c115.205-101.189,265.605-151.753,459.666-154.524c470.168-209.206,581.833-182.241,624.871-143.657
				c23.184,20.784,30.876,51.946,23,92.854c211.907-10.723,325.427,11.582,356.404,69.719c12.886,24.184,10.886,52.722-5.884,85.142
				c73.271-2.869,115.935,10.144,133.005,40.217c13.386,23.579,8.921,53.557-13.711,91.162
				c49.712,14.358,83.416,39.295,98.215,72.993c8.792,20.017,14.124,51.055-3.567,91.995
				c76.66,10.571,134.668,29.648,180.271,79.148c4.272,4.636,6.052,11.045,4.785,17.219
				c-39.941,194.614-167.371,336.248-378.818,421.064c-63.665,103.987-173.906,189.087-327.83,253.03
				c-75.081,49.89-147.405,49.309-215-1.724c-114.724-87.515-173.12-56.548-219.146-10.054
				C1715.558,2992.183,1660.104,3012.676,1599.655,3012.676z M1189.294,2569.432c2.449,0,4.915,0.459,7.263,1.396
				c6.504,2.595,11.125,8.464,12.129,15.396c11.289,78.027,64.348,143.193,138.469,170.063c6.807,2.468,11.699,8.489,12.722,15.657
				c11.521,80.825,65.601,150.283,141.133,181.274c70.071,28.757,167.041,31.245,225.72-28.032
				c78.044-78.84,161.531-76.87,270.693,6.406c53.955,40.73,109.939,40.53,171.067-0.669c1.089-0.735,2.251-1.357,3.464-1.86
				c149.692-61.89,255.459-143.75,314.363-243.308c2.222-3.757,5.637-6.665,9.7-8.262
				c198.291-77.898,318.958-207.354,358.806-384.856c-42.144-41.008-97.554-54.407-177.173-63.076
				c-6.697-0.73-12.549-4.846-15.498-10.901c-2.947-6.057-2.581-13.203,0.974-18.923c13.589-21.875,27.202-53.838,14.878-81.895
				c-11.86-27.007-46.67-47.236-98.015-56.96c-6.621-1.255-12.136-5.825-14.597-12.1s-1.523-13.374,2.48-18.796
				c24.685-33.433,34.683-59.934,27.429-72.71c-5.005-8.826-28.154-28.208-134.661-17.756c-7.766,0.754-15.244-3.152-19.036-9.971
				c-3.796-6.816-3.186-15.234,1.553-21.433c25.654-33.557,33.901-59.504,24.517-77.119c-13.24-24.844-75.825-64.06-346.301-47.524
				c-6.484,0.381-12.698-2.427-16.667-7.534c-3.972-5.107-5.166-11.848-3.191-18.01c12.302-38.362,10.681-64.858-4.817-78.75
				c-30.474-27.315-147.183-43.911-586.445,151.917c-2.444,1.091-5.088,1.67-7.766,1.697
				c-186.262,2.009-329.631,49.385-438.298,144.832l0.002-0.002c-65.649,57.673-81.021,95.642-74.236,110.632
				c6.106,13.491,39.365,25.852,113.005,16.287c8.45-1.108,16.636,3.389,20.259,11.096c3.625,7.71,1.853,16.877-4.382,22.681
				c-106.201,98.87-108.232,158.323-94.468,175.947c12.205,15.623,47.087,16.79,90.144-11.199
				c6.697-4.358,15.366-4.207,21.917,0.374c6.545,4.583,9.656,12.678,7.859,20.461c-54.688,237.09-25.857,269.128-19.524,273.145
				c5.811,3.694,23.015-0.244,52.395-23.406C1180.673,2570.87,1184.96,2569.432,1189.294,2569.432z"/>
		</g>
		<g style="opacity:0.3;">
			<path style="fill-rule:evenodd;clip-rule:evenodd;fill:#4F140D;" d="M1234.451,2156.555
				c340.966,48.83,518.627-23.902,533.028-218.194c165.561-31.513,207.963,30.533,127.165,186.182
				c56.967,104.448,26.842,172.008-90.414,202.701c0.525,67.125-43.702,93.398-132.704,78.771
				c-121.402,133.887-208.42,131.449-261.033-7.315c-72.8,53.775-109.257,34.817-109.371-56.873
				C1197.971,2369.74,1166.848,2291.174,1234.451,2156.555"/>
		</g>
		<g>
			<path style="fill-rule:evenodd;clip-rule:evenodd;fill:#FA6469;" d="M1062.784,1353.245
				c162.668,212.865,276.253,303.461,361.517,256.362c-114.474,88.797-169.865,234.056-143.596,376.534
				c26.296,142.48,129.857,258.413,268.509,300.521c59.811-1.981,115.75-30.076,153.05-76.878
				c37.323-46.803,52.249-107.594,40.855-166.335c-310.638-135.984-228.745-325.767,207.076-627.769
				c95.654-66.283,89.754-174.493,27.936-271.15c-55.462-85.901-55.825-184.357-93.673-272.79
				c-110.715-258.527-315.239-300.43-516.028-149.564C1027.832,978.057,937.213,1188.96,1062.784,1353.245z"/>
		</g>
		<g>
			<path style="fill:#4F140D;" d="M1549.216,2306.258c-1.929,0-3.848-0.286-5.693-0.845
				c-146.255-44.417-254.346-165.391-282.09-315.715c-23.511-127.522,14.526-255.95,100.334-349.165
				c-80.071-10.327-179.185-98.242-314.553-275.388c-46.633-61.011-65.249-128.442-55.332-200.42
				c18.784-136.318,141.514-290.486,364.78-458.22c105.615-79.355,212.434-107.683,308.901-81.929
				c99.25,26.499,181.174,109.299,236.912,239.448c16.045,37.49,25.605,76.65,34.853,114.519
				c13.46,55.127,26.172,107.195,57.268,155.357c75.149,117.5,62.397,231.616-33.237,297.888
				c-268.896,186.33-394.807,326.426-384.929,428.293c6.064,62.546,63.162,116.653,174.548,165.415
				c5.899,2.581,10.154,7.898,11.379,14.221c12.507,64.48-3.811,130.921-44.77,182.285c-40.938,51.362-102.07,82.07-167.722,84.246
				C1549.648,2306.253,1549.433,2306.258,1549.216,2306.258z M1424.286,1590.008c6.396,0,12.637,3.132,16.384,8.823
				c5.627,8.55,3.728,19.988-4.358,26.26c-109.143,84.663-161.384,221.646-136.335,357.497
				c24.873,134.773,121.211,243.445,251.792,284.353c52.947-2.666,102.061-27.83,135.171-69.373
				c31.707-39.761,45.517-90.461,38.582-140.505c-119.177-54.023-180.742-117.288-188.103-193.198
				c-11.689-120.532,112.175-263.726,401.616-464.294c115.056-79.729,46.377-207.288,22.588-244.483
				c-34.631-53.638-48.733-111.394-62.371-167.248c-9.277-37.993-18.04-73.882-32.808-108.391
				c-50.828-118.682-123.786-193.723-210.994-217.004c-84.414-22.539-179.602,3.533-275.247,75.396
				c-214.604,161.228-332.192,306.65-349.497,432.236c-8.557,62.104,7.029,118.128,47.646,171.27c0.002,0,0.002,0,0.002,0
				c135.618,177.471,230.361,260.742,298.867,260.752c13.521,0.002,26.011-3.242,37.603-9.644
				C1417.822,1590.799,1421.073,1590.008,1424.286,1590.008z"/>
		</g>
		<g style="opacity:0.5;">
			<path style="fill-rule:evenodd;clip-rule:evenodd;fill:#FFFFFF;" d="M1745.787,2103.191c2.028-19.732,1.183-39.852-2.667-59.743
				c-310.638-135.984-228.745-325.767,207.076-627.769c95.654-66.283,89.754-174.493,27.936-271.15
				c-55.462-85.901-55.825-184.357-93.673-272.79c-110.715-258.527-315.239-300.43-516.028-149.564
				c-123.065,92.465-213.479,179.049-272.881,259.687c-14.947,30.876-29.896,63.231-44.773,97.115
				c172.873-199.08,320.048-322.944,448.559-374.324c29.348-11.734,58.217-18.934,86.106-21.373
				c-4.193,2.665-7.042,6.083-8.134,10.185c-4.24,15.95,19.595,36.161,53.25,45.139c33.655,8.955,64.393,3.304,68.63-12.67
				c2.688-10.049-5.81-21.83-20.917-31.375c60.132,21.646,111.217,72.548,146.262,155.922
				c41.56,98.844,47.666,217.056,107.183,317.176c66.421,111.81,37.323,185.293-107.913,282.907
				c-263.243,176.886-368.01,370.701-290.199,498.733c34.794,57.284,85.904,96.179,142.319,124.456h-0.023
				c37.255,23.811,48.648,57.169,34.156,100.099c9.888-28.916,15.745-54.71,17.59-77.38
				C1733.687,2098.795,1739.725,2101.028,1745.787,2103.191"/>
		</g>
		<g>
			<path style="fill:#4F140D;" d="M1549.216,2306.258c-1.929,0-3.848-0.286-5.693-0.845
				c-146.255-44.417-254.346-165.391-282.09-315.715c-23.511-127.522,14.526-255.95,100.334-349.165
				c-80.071-10.327-179.185-98.242-314.553-275.388c-46.633-61.011-65.249-128.442-55.332-200.42
				c18.784-136.318,141.514-290.486,364.78-458.22c105.615-79.355,212.434-107.683,308.901-81.929
				c99.25,26.499,181.174,109.299,236.912,239.448c16.045,37.49,25.605,76.65,34.853,114.519
				c13.46,55.127,26.172,107.195,57.268,155.357c75.149,117.5,62.397,231.616-33.237,297.888
				c-268.896,186.33-394.807,326.426-384.929,428.293c6.064,62.546,63.162,116.653,174.548,165.415
				c5.899,2.581,10.154,7.898,11.379,14.221c12.507,64.48-3.811,130.921-44.77,182.285c-40.938,51.362-102.07,82.07-167.722,84.246
				C1549.648,2306.253,1549.433,2306.258,1549.216,2306.258z M1424.286,1590.008c6.396,0,12.637,3.132,16.384,8.823
				c5.627,8.55,3.728,19.988-4.358,26.26c-109.143,84.663-161.384,221.646-136.335,357.497
				c24.873,134.773,121.211,243.445,251.792,284.353c52.947-2.666,102.061-27.83,135.171-69.373
				c31.707-39.761,45.517-90.461,38.582-140.505c-119.177-54.023-180.742-117.288-188.103-193.198
				c-11.689-120.532,112.175-263.726,401.616-464.294c115.056-79.729,46.377-207.288,22.588-244.483
				c-34.631-53.638-48.733-111.394-62.371-167.248c-9.277-37.993-18.04-73.882-32.808-108.391
				c-50.828-118.682-123.786-193.723-210.994-217.004c-84.414-22.539-179.602,3.533-275.247,75.396
				c-214.604,161.228-332.192,306.65-349.497,432.236c-8.557,62.104,7.029,118.128,47.646,171.27c0.002,0,0.002,0,0.002,0
				c135.618,177.471,230.361,260.742,298.867,260.752c13.521,0.002,26.011-3.242,37.603-9.644
				C1417.822,1590.799,1421.073,1590.008,1424.286,1590.008z"/>
		</g>
		<g>
			<g>
				<g>
					<g>
						<path style="fill:#4F140D;" d="M1291.789,836.794c31.708,0.401,54.089,40.067,49.99,88.597
							c-4.099,48.53-33.126,87.546-64.834,87.145c-31.707-0.401-54.089-40.067-49.99-88.597
							C1231.053,875.41,1260.082,836.393,1291.789,836.794z"/>
					</g>
				</g>
			</g>
			<g>
				<g>
					<g>
						<path style="fill:#FFFFFF;" d="M1290.447,857.168c9.144,5.599,10.546,22.456,3.131,37.651
							c-7.415,15.196-20.838,22.975-29.982,17.376c-9.144-5.598-10.546-22.455-3.131-37.65
							C1267.88,859.349,1281.302,851.569,1290.447,857.168z"/>
					</g>
				</g>
			</g>
			<g>
				<g>
					<g>
						<path style="fill:#B199C5;" d="M1305.706,964.416c4.047,4.259,3.037,13.337-2.255,20.275
							c-5.292,6.939-12.862,9.11-16.908,4.851c-4.047-4.259-3.037-13.337,2.255-20.274
							C1294.089,962.329,1301.66,960.157,1305.706,964.416z"/>
					</g>
				</g>
			</g>
		</g>
		<g style="opacity:0.3;">
			<path style="fill-rule:evenodd;clip-rule:evenodd;fill:#4F140D;" d="M1481.062,1562.783
				c-25.383,18.139-45.412,37.939-60.086,59.402c132.566-22.808,240.776-74.373,324.649-154.716
				C1660.065,1500.464,1571.884,1532.227,1481.062,1562.783"/>
		</g>
		<g>
			<path style="fill:#4F140D;" d="M1359.883,1606.116c33.823,4.862,68.521,4.105,102.634-1.566
				c34.141-5.642,67.661-16.097,99.9-29.843c32.261-13.755,63.281-30.75,93.096-49.725c29.824-18.993,58.474-39.973,86.208-62.168
				l0.042-0.033c2.622-2.097,6.445-1.672,8.542,0.947c2.046,2.559,1.68,6.272-0.776,8.397
				c-27.188,23.457-55.432,45.803-85.127,66.295c-29.69,20.472-60.852,39.104-93.772,54.603
				c-32.893,15.483-67.607,27.802-103.716,35.157c-36.064,7.383-73.53,9.661-110.62,5.702c-7.69-0.82-13.259-7.72-12.439-15.41
				c0.82-7.689,7.72-13.258,15.41-12.438c0.149,0.017,0.3,0.035,0.449,0.056L1359.883,1606.116z"/>
		</g>
		<g>
			<path style="fill:#4F140D;" d="M1214.57,1435.735c7.664,31.788,18.472,61.781,35.188,87.122
				c8.442,12.55,17.9,24.065,28.623,33.846c2.598,2.534,5.566,4.63,8.289,6.965c2.781,2.269,5.869,4.111,8.679,6.276
				c2.925,2.007,5.979,3.793,8.923,5.715c3.123,1.62,6.182,3.335,9.312,4.868c25.325,11.581,53.345,15.284,79.68,8.71
				c13.13-3.28,25.981-7.651,39.534-12.764c13.591-5.15,27.451-11.393,44.153-17.499l1.533-0.56c2.9-1.061,6.113,0.432,7.175,3.334
				c0.605,1.658,0.364,3.441-0.483,4.843c-8.931,14.583-21.157,27.285-35.515,37.35c-7.126,5.126-14.941,9.302-22.981,13.052
				c-4.043,1.82-8.315,3.125-12.473,4.692c-4.231,1.366-8.564,2.479-12.891,3.531c-35.029,7.4-72.422,1.216-103.125-15.975
				c-3.818-2.178-7.517-4.556-11.248-6.858c-3.533-2.593-7.148-5.076-10.579-7.778c-6.731-5.585-12.998-11.653-18.75-18.129
				c-11.494-12.971-20.92-27.501-28.33-42.82c-1.731-3.887-3.606-7.705-5.195-11.633c-1.475-3.975-3.054-7.902-4.421-11.898
				l-3.472-12.166c-1.072-4.065-1.843-8.203-2.771-12.284c-3.264-16.433-4.824-33.059-4.663-49.586
				c0.017-1.605,1.333-2.894,2.937-2.88c1.362,0.013,2.495,0.959,2.8,2.225L1214.57,1435.735z"/>
		</g>
		<g>
			<path style="fill-rule:evenodd;clip-rule:evenodd;fill:#FBCD0E;" d="M1304.449,1138.035
				c-84.739,371.725,6.106,592.565,271.948,124.887c68.381-26.839,53.32-82.163-45.16-165.969
				c-31.513-90.78-125.709-143.871-219.702-123.819c-93.991,20.052-158.337,106.956-150.042,202.702
				C1218.093,1147.536,1265.736,1134.936,1304.449,1138.035z"/>
		</g>
		<g style="opacity:0.6;">
			<path style="fill-rule:evenodd;clip-rule:evenodd;fill:#CC3300;" d="M1287.68,1479.182c9.114,25.909,22.693,42.405,40.762,47.326
				c25.339,4.604,59.927-13.808,103.744-55.254l1.482-1.552c15.563-17.5,29.303-33.881,41.219-49.171
				c8.568-11.256,17.455-23.605,26.569-36.821c10.686-46.392,12.418-80.752,5.194-103.06c-21.986-11.323-33.356-7.588-34.087,11.256
				C1472.404,1435,1330.698,1555.65,1287.68,1479.182"/>
		</g>
		<g style="opacity:0.77;">
			<path style="fill-rule:evenodd;clip-rule:evenodd;fill:#FFFFFF;" d="M1202.962,1039.898c-1.549,1.913-3.075,3.873-4.534,5.854
				c-19.87,27.32-26.569,61.271-20.029,101.807c16.748-53.091,41.812-92.236,75.191-117.391
				c-7.632,8.178-11.209,16.405-8.157,20.164c3.896,4.809,17.021,0.593,29.327-9.366c12.28-10.003,19.093-21.965,15.197-26.772
				c-1.253-1.549-3.462-2.142-6.311-1.937c19.961-9.093,42.176-14.333,66.67-15.745c3.327-13.603-6.857-19.914-30.554-18.958
				C1265.418,990.634,1226.5,1011.414,1202.962,1039.898"/>
		</g>
		<g style="opacity:0.6;">
			<path style="fill-rule:evenodd;clip-rule:evenodd;fill:#CC3300;" d="M1327.394,970.446l-2.072,0.273h-0.093l-0.112,0.023h-0.091
				l-0.114,0.023h-0.091l-0.07,0.021h-0.044l-0.593,0.091c7.2,6.904,14.037,13.559,20.507,19.961
				c101.032,100.052,113.588,141.339,39.532,117.666c-116.276-37.164-187.913-18.069-217.352,64.71l2.347-1.139l0.229-0.114
				l2.119-1.024l0.502-0.229l1.846-0.866l0.751-0.343l1.573-0.751l1.001-0.455l1.3-0.616l1.276-0.569l1.024-0.455l1.528-0.684
				l0.775-0.366l1.755-0.775l2.529-1.092v-0.023l0.273-0.114l2.256-0.957l2.254-0.957l0.252-0.114l1.983-0.821l0.499-0.226
				l1.734-0.707l0.728-0.296l1.482-0.593l1.001-0.411l1.209-0.478l1.23-0.478l0.959-0.387l1.479-0.569l0.707-0.273l1.708-0.639
				l0.481-0.182l1.937-0.728l0.226-0.07l2.142-0.796l0.023-0.023l2.119-0.751l0.273-0.091l1.869-0.663l0.502-0.182l1.617-0.546
				l0.754-0.252l1.367-0.455l0.98-0.341l1.115-0.366l1.209-0.387l0.887-0.273l1.437-0.455l0.637-0.205l1.664-0.525l0.411-0.135
				l1.89-0.569l0.161-0.047l2.051-0.593l0.068-0.023l1.983-0.569l0.273-0.068l1.755-0.502l2.004-0.546l0.73-0.182l1.274-0.343
				l0.959-0.25l1.048-0.252l1.162-0.296l0.819-0.203l1.391-0.32l0.569-0.161l1.619-0.364l0.364-0.068l1.799-0.411l0.138-0.023
				l1.96-0.432l0.068-0.023l1.846-0.364l0.32-0.07l1.617-0.317l0.502-0.091l1.414-0.273l0.728-0.114l1.162-0.229l0.933-0.159
				l0.959-0.161l1.139-0.182l0.728-0.114l1.346-0.226l0.523-0.07l1.549-0.226l0.32-0.047l1.731-0.226l0.114-0.023l1.822-0.229
				l0.114-0.023l1.731-0.182l0.296-0.044l2.028-0.205l1.299-0.114l0.707-0.068l1.071-0.091l0.91-0.091l0.889-0.07l1.094-0.068
				l0.684-0.047l1.276-0.068l0.478-0.023l1.482-0.068l0.273-0.023l1.664-0.044l0.068-0.023l1.731-0.044h0.138
				c1.276-0.023,2.552-0.023,3.806-0.023h1.183l0.707,0.023h0.98c28.323-0.411,45.139,8.339,58.378,16.86
				c61.269,39.511,104.017,20.211,121.903-47.531c-27.047-69.361-69.748-112.857-126.257-130.767
				C1342.843,973.818,1335.234,971.905,1327.394,970.446"/>
		</g>
		<g>
			<path style="fill:#4F140D;" d="M1340.563,1542.163c-7.451,0.003-14.59-1.323-21.418-3.975
				c-78.831-30.622-67.153-223.523-32.061-386.499c-33.11,1.282-73.149,13.574-119.329,36.667c-4.153,2.07-9.055,1.958-13.101-0.305
				c-4.045-2.266-6.709-6.389-7.109-11.008c-8.887-102.568,60.356-196.116,161.069-217.6
				c99.431-21.213,199.548,34.243,234.548,129.29c65.449,56.252,94.404,100.798,88.506,136.116
				c-3.525,21.106-18.821,37.637-45.488,49.18C1484.418,1452.208,1401.965,1542.159,1340.563,1542.163z M1292.968,1123.587
				c4.294,0,8.491,0.164,12.598,0.493c4.053,0.325,7.764,2.393,10.168,5.669s3.269,7.437,2.366,11.399
				c-50.403,221.094-32.527,353.962,11.184,370.94c17.18,6.682,84.863,7.942,234.941-256.084c1.582-2.783,4.072-4.941,7.056-6.113
				c19.753-7.754,30.779-17.732,32.771-29.656c2.346-14.038-5.173-47.336-81.887-112.62c-1.902-1.616-3.335-3.713-4.153-6.069
				c-29.138-83.94-116.631-133.267-203.557-114.719c-80.103,17.09-137.144,86.995-139.595,167.139
				C1219.548,1133.775,1259.147,1123.587,1292.968,1123.587z"/>
		</g>
		<g>
			<path style="fill-rule:evenodd;clip-rule:evenodd;fill:#FF1B40;" d="M1327.35,970.446
				c94.994,17.749,156.013,99.299,175.951,245.652c8.248,60.564-2.826,333.81,37.208,363.136
				c25.68,18.797,60.952,17.385,85.036-3.395C1675.402,1532.775,1592.324,916.443,1327.35,970.446z"/>
		</g>
		<g style="opacity:0.48;">
			<path style="fill-rule:evenodd;clip-rule:evenodd;fill:#FFFFFF;" d="M1621.284,1365.05c9.5,41.325,16.395,76.923,12.268,123.095
				c-3.231,36.144-12.018,65.368-19.331,85.068c0.435-79.76-8.04-193.895-49.576-323.379
				c-33.276-103.733-77.666-185.812-115.778-245.002c49.416,44.073,79.27,87.125,96.597,116.196
				C1577.568,1174.89,1592.14,1238.276,1621.284,1365.05z"/>
		</g>
		<g>
			<path style="fill:#4F140D;" d="M1580.922,1606.541c-17.004,0-34.055-5.303-48.682-16.011
				c-31.323-22.944-35.864-128.87-38.857-276.008c-0.867-42.585-1.616-79.365-3.955-96.533
				c-18.828-138.23-74.226-216.885-164.648-233.779c-6.584-1.23-11.375-6.951-11.428-13.647
				c-0.054-6.697,4.641-12.495,11.204-13.833c94.375-19.229,177.354,37.942,239.961,165.349
				c79.929,162.654,112.329,427.949,70.178,464.358C1619.216,1599.791,1600.102,1606.541,1580.922,1606.541z M1408.022,989.981
				c48.364,35.068,92.427,101.455,109.15,224.228c2.556,18.767,3.284,54.502,4.204,99.741c1.069,52.573,2.283,112.161,6.741,162.471
				c6.89,77.747,18.423,89.875,20.667,91.519c20.54,15.036,48.345,13.928,67.615-2.698c7.473-7.324,15.288-63.884,0.288-167.036
				c-15.11-103.921-46.152-205.681-85.166-279.187C1495.19,1050.569,1453.847,1007.439,1408.022,989.981z"/>
		</g>
		<g>
			<path style="fill-rule:evenodd;clip-rule:evenodd;fill:#4F140D;" d="M1354.579,1154.463
				c-13.239-8.521-30.055-17.271-58.378-16.86c2.802,0.068,5.537,0.203,8.248,0.432c-13.216,57.944-22.147,112.244-26.842,160.822
				c7.567,234.943,121.472,203.112,225.694-82.758c-5.675-41.63-14.651-78.017-26.819-109.166
				C1458.596,1174.674,1415.848,1193.975,1354.579,1154.463z"/>
		</g>
		<g>
			<path style="fill:#4F140D;" d="M1340.776,1466.353c-2.476,0-4.927-0.193-7.358-0.581c-40.532-6.487-63.704-64.082-67.004-166.553
				c-0.015-0.481,0-0.962,0.046-1.438c4.509-46.66,12.712-97.18,24.404-150.33c-3.513-1.907-5.884-5.637-5.862-9.905
				c0.029-6.099,4.937-11.055,11.038-11.142c30.757-0.474,49.893,9.172,64.602,18.64c0.002,0.002,0.005,0.005,0.007,0.007
				c26.633,17.175,48.955,22.461,66.357,15.72c21.802-8.454,33.049-35.5,38.647-56.699c1.235-4.688,5.349-8.047,10.188-8.323
				c4.817-0.259,9.307,2.59,11.072,7.107c12.49,31.975,21.738,69.568,27.483,111.731c0.247,1.802,0.049,3.638-0.574,5.347
				C1456.366,1377.532,1393.781,1466.35,1340.776,1466.353z M1288.825,1299.217c2.861,86.099,20.84,140.068,48.132,144.436
				c33.469,5.337,94.185-63.347,154.866-228.782c-3.787-26.912-9.045-51.775-15.703-74.299
				c-10.156,20.669-23.884,34.439-41.016,41.084c-24.448,9.483-53.584,3.503-86.587-17.773l0,0
				c-8.831-5.686-19.363-11.641-35.249-14.019C1301.55,1202.745,1293.329,1252.945,1288.825,1299.217z"/>
		</g>
		<g>
			<path style="fill-rule:evenodd;clip-rule:evenodd;fill:#FFFFFF;" d="M1287.313,2164.348
				c-82.369,124.911-65.371,169.824,50.949,134.755c-6.561,97.523,19.732,107.367,78.885,29.6
				c47.941,158.566,128.467,167.339,241.574,26.272c66.283,34.815,102.444,15.654,108.461-57.512
				c117.004-15.927,142.205-71.797,75.602-167.612c92.374-127.622,68.266-187.344-72.298-179.141
				c-12.852-60.725-39.124-67.832-78.885-21.351c-35.09-63.458-76.241-71.843-123.453-25.132
				c23.377,52.361,81.344,98.23,174.971,139.221c11.393,58.742-3.533,119.533-40.855,166.335
				c-37.299,46.803-93.239,74.897-153.05,76.878c-125.641-38.165-222.481-136.941-259.096-261.168
				C1184.984,2115.837,1184.051,2162.138,1287.313,2164.348z"/>
		</g>
		<g>
			<path style="fill:#4F140D;" d="M1520.849,2474.209c-5.508,0-10.94-0.52-16.304-1.558c-39.382-7.62-70.505-41.887-94.612-104.417
				c-20.498,22.244-42.515,37.71-63.75,29.751c-23.269-8.726-28.743-39.229-28.567-73.066c-34.57,7.878-72.795,10.093-91.609-15.154
				c-18.689-25.085-10.305-65.256,27.417-128.389c-23.831-3.723-51.145-13.098-59.841-37.354
				c-11.641-32.468,14.192-73.608,83.762-133.394c5.041-4.331,11.938-5.818,18.323-3.931c6.379,1.882,11.367,6.872,13.247,13.254
				c34.807,118.086,125.466,210.195,242.856,246.987c52.942-2.668,102.06-27.832,135.168-69.373
				c31.707-39.761,45.517-90.461,38.584-140.505c-93.274-42.271-150.654-89.712-175.271-144.849
				c-3.325-7.449-1.687-16.182,4.111-21.919c27.058-26.767,54.004-38.43,80.12-34.688c22.085,3.176,42.336,17.371,60.41,42.288
				c13.257-11.428,31.413-22.053,50.793-17.129c23.386,5.962,34.541,31.148,40.002,49.709
				c65.552-1.477,105.962,13.172,123.181,44.587c19.309,35.237,5.474,86.055-42.3,155.103
				c31.357,48.811,39.668,88.43,25.427,120.833c-14.285,32.51-49.39,53.367-107.1,63.535c-5.347,34.426-18.557,57.622-39.37,69.06
				c-21.458,11.79-48.206,10.422-81.445-4.258C1610.646,2442.974,1563.525,2474.209,1520.849,2474.209z M1417.145,2309.104
				c1.155,0,2.317,0.103,3.479,0.31c7.246,1.306,13.15,6.567,15.281,13.616c20.259,66.997,46.567,105.43,76.086,111.143
				c32.893,6.353,78.359-25.259,131.443-91.458c5.864-7.319,16.089-9.453,24.402-5.09c26.746,14.053,47.092,18.071,58.813,11.621
				c14.38-7.9,19.358-33.396,21.001-53.391c0.754-9.163,7.778-16.572,16.887-17.813c50.632-6.89,82.3-21.694,91.58-42.81
				c11.541-26.265-9.631-65.72-29.424-94.194c-4.753-6.838-4.666-15.933,0.217-22.676c57.339-79.219,54.426-111.985,47.588-124.463
				c-10.146-18.518-46.687-26.902-102.869-23.625c-9.653,0.63-18.306-6.025-20.315-15.505
				c-6.877-32.493-15.225-36.001-15.308-36.021c-0.073-0.037-8.745-0.93-29.514,23.35c-4.18,4.88-10.503,7.393-16.873,6.758
				c-6.394-0.649-12.061-4.392-15.168-10.015c-10.386-18.777-26.716-41.729-45.547-44.436c-10.635-1.523-22.857,3.264-36.458,14.273
				c24.709,42.29,77.942,81.536,158.53,116.819c5.899,2.583,10.154,7.898,11.379,14.221c12.507,64.48-3.811,130.921-44.77,182.285
				c-40.938,51.362-102.07,82.07-167.722,84.246c-2.141,0.039-4.29-0.215-6.345-0.837
				c-121.792-36.995-218.035-127.629-262.498-245.457c-56.086,52.695-50.828,70.051-50.544,70.842
				c0.188,0.525,5.198,12.847,57.256,13.96c7.131,0.151,13.618,4.17,16.934,10.486c3.315,6.318,2.935,13.938-0.994,19.895
				c-58.911,89.338-47.708,109.236-46.235,111.211c0.413,0.559,10.872,13.372,75.168-6.008c6.162-1.865,12.837-0.576,17.866,3.433
				c5.032,4.006,7.776,10.227,7.344,16.646c-2.542,37.773,0.696,53.291,2.786,59.114c5.4-3.013,18.04-12.576,40.947-42.695
				C1405.295,2311.915,1411.091,2309.104,1417.145,2309.104z"/>
		</g>
		<g>
			<path style="fill:#4F140D;" d="M2761.978,2243.66c-20.796-6.028-41.606-10.616-62.49-12.428
				c-20.852-1.703-41.863-0.887-62.292,4.247c-20.422,5.005-40.239,13.738-58.782,25.433c-18.604,11.632-35.955,26.05-52.314,41.951
				l-0.051,0.05c-2.363,2.297-6.143,2.244-8.44-0.12c-1.99-2.05-2.212-5.162-0.698-7.451c12.996-19.663,28.452-38.148,46.86-54.097
				c18.391-15.887,39.849-29.181,63.53-37.847c23.616-8.782,49.275-12.699,74.436-11.731c25.208,0.844,49.849,6.267,72.786,14.861
				c10.142,3.799,15.283,15.099,11.484,25.239c-3.613,9.646-14.016,14.768-23.75,11.974L2761.978,2243.66z"/>
		</g>
		<g>
			<path style="fill:#4F140D;" d="M2673.784,2206.835c-11.633-11.558-23.586-22.209-36.755-30.074
				c-6.453-4.143-13.12-7.535-19.905-10.524c-6.904-2.583-13.818-5.081-21.025-6.232c-28.523-5.48-59.465,0.387-89.131,13.596
				c-29.792,12.95-58.276,31.887-85.833,52.502c-13.928,10.178-27.407,21.21-40.654,32.607
				c-13.73,10.925-26.565,22.937-40.203,34.323l-1.013,0.847c-3.943,3.291-9.807,2.762-13.098-1.179
				c-3.005-3.599-2.825-8.8,0.229-12.183c11.987-13.307,24.045-26.572,36.76-39.271c12.534-12.869,25.415-25.469,39.009-37.395
				c27.041-23.938,56.421-45.959,89.878-62.496c16.67-8.297,34.495-15.121,53.491-18.839c18.914-3.716,39.043-4.662,58.684-0.801
				c9.88,1.605,19.392,4.833,28.723,8.358c9.138,3.922,18.091,8.383,26.335,13.757c16.719,10.493,31.416,23.485,44.348,37.593
				c7.292,7.955,6.755,20.315-1.201,27.607c-7.717,7.074-19.58,6.78-26.941-0.508L2673.784,2206.835z"/>
		</g>
		<g>
			<path style="fill:#4F140D;" d="M2529.609,2152.064c-29.768-28.453-64.846-50.786-103.628-60.624
				c-19.373-4.76-39.492-6.335-59.626-4.884c-20.154,1.359-40.229,6.18-59.744,13.009c-39.099,13.839-75.676,36.229-109.585,62.07
				c-16.929,13.03-33.25,26.978-49.109,41.501c-15.825,14.575-31.028,29.89-45.972,45.487l-0.093,0.095
				c-3.984,4.158-10.583,4.298-14.741,0.315c-4.065-3.895-4.277-10.304-0.564-14.474c14.668-16.423,29.651-32.615,45.383-48.159
				c15.774-15.499,32.122-30.499,49.28-44.689c34.412-28.143,72.207-53.414,114.924-70.283
				c21.328-8.317,43.853-14.618,67.192-17.047c23.284-2.528,47.217-1.536,70.4,3.326c23.145,5.029,45.366,13.746,65.847,25.062
				c20.51,11.315,39.319,25.151,56.521,40.405l0.061,0.054c8.101,7.183,8.843,19.57,1.66,27.67
				c-7.183,8.101-19.57,8.844-27.668,1.661C2529.985,2152.417,2529.766,2152.213,2529.609,2152.064z"/>
		</g>
		<g>
			<path style="fill:#4F140D;" d="M2653.564,2641.183c-28.064,21.315-59.17,37.572-91.318,49.96
				c-32.173,12.449-65.547,20.868-99.214,26.299c-67.354,10.741-136.196,9.895-203.02-3.185c-33.379-6.6-66.301-16.29-97.732-30.16
				c-31.372-13.828-61.409-32.08-86.653-56.451c-12.571-12.18-23.877-25.858-33.162-40.906
				c-9.326-15.023-16.118-31.642-20.405-48.735c-4.255-17.108-6.021-34.753-5.056-52.094c0.908-17.343,4.089-34.351,9.053-50.631
				c1.23-4.038,5.503-6.312,9.539-5.082c3.779,1.151,6.013,4.963,5.278,8.756l-0.02,0.09c-3.098,15.687-4.919,31.512-4.487,47.17
				c0.486,15.636,2.773,31.057,7.415,45.708c9.116,29.401,27.454,55.083,50.452,75.706c11.538,10.327,24.358,19.335,37.837,27.302
				c13.452,8.022,27.617,15.01,42.241,21.022c29.268,12.026,60.234,20.31,91.692,25.686c31.479,5.413,63.533,7.67,95.503,7.523
				c31.973-0.129,63.953-2.849,95.308-8.484c31.343-5.626,62.104-14.016,91.44-25.453c29.29-11.494,57.097-26.375,81.484-45.161
				c8.569-6.614,20.874-5.028,27.488,3.54s5.027,20.874-3.54,27.487L2653.564,2641.183z"/>
		</g>
		<g>
			<path style="fill:#4F140D;" d="M1749.509,2904c-127.1,0-272.913-43.697-434.697-130.413c-6.814-3.652-9.377-12.139-5.725-18.953
				c3.652-6.812,12.134-9.382,18.953-5.725c187.283,100.383,351.55,141.621,488.252,122.588c7.642-1.104,14.732,4.275,15.796,11.934
				c1.067,7.659-4.275,14.729-11.934,15.796C1797.309,2902.41,1773.735,2904,1749.509,2904z"/>
		</g>
		<g>
			<path style="fill-rule:evenodd;clip-rule:evenodd;fill:#AD5833;" d="M974.536,2100.823
				c-90.073,73.598-127.874,193.656-96.224,305.601c31.625,111.947,126.687,194.454,241.961,210.016
				c-39.397-12.896-37.757-111.877,4.921-296.944c-113.541,73.803-207.214-20.962-19.709-195.522
				C1034.44,2133.201,989.62,2124.269,974.536,2100.823z"/>
		</g>
		<g>
			<path style="fill:#4F140D;" d="M1120.292,2636.038c-0.874,0-1.755-0.059-2.642-0.178
				c-123.081-16.616-224.431-104.583-258.198-224.109c-33.792-119.521,6.514-247.527,102.683-326.104
				c4.324-3.535,9.951-5.059,15.464-4.18c5.515,0.872,10.395,4.058,13.415,8.752c8.289,12.876,42.053,23.408,111.946,14.319
				c8.45-1.108,16.636,3.389,20.259,11.096c3.625,7.71,1.853,16.877-4.382,22.681c-106.199,98.87-108.232,158.323-94.468,175.947
				c12.205,15.623,47.087,16.79,90.144-11.199c6.697-4.358,15.366-4.207,21.917,0.374c6.545,4.58,9.656,12.676,7.861,20.461
				c-58.311,252.844-22.229,272.505-17.922,273.914c9.629,3.152,15.269,13.125,13.005,23.003
				C1137.311,2629.82,1129.299,2636.036,1120.292,2636.038z M973.573,2127.657c-74.37,69.263-104.329,174.663-76.404,273.435
				c25.188,89.158,93.389,158.23,179.7,185.608c-10.405-44.368-3.618-119.185,20.2-230.977
				c-43.01,15.962-82.036,10.259-103.591-17.336c-26.416-33.826-21.58-100.286,61.323-191.204
				C1018.615,2147.161,991.464,2140.633,973.573,2127.657z"/>
		</g>
		<g>
			<path style="fill-rule:evenodd;clip-rule:evenodd;fill:#AD5833;" d="M2688.704,2194.129L2688.704,2194.129
				c425.728-50.606,583.085-160.206,472.097-328.821c112.675-114.474,110.487-202.132-6.563-262.923
				c68.7-35.09,102.262-114.477,79.592-188.21c-22.696-73.736-95.085-120.515-171.623-110.9
				c56.348-57.191,64.825-146.101,20.278-212.91c-44.546-66.806-129.878-93.193-204.342-63.161
				c2.506-70.429-35.5-136.076-97.819-168.979c-62.319-32.901-137.945-27.273-194.703,14.492
				c-14.492-82.87-74.123-150.682-154.487-175.61c-80.341-24.95-167.908-2.823-226.762,57.284
				c-48.807-51.609-120.445-74.918-190.284-61.955c-69.839,12.966-128.306,60.473-155.329,126.166l-0.023,0.023
				c9.046,16.564,17.635,34.245,25.724,53.112c37.848,88.433,38.212,186.889,93.673,272.79
				c61.817,96.657,67.718,204.867-27.936,271.15c-212.158,146.99-340.396,267.414-380.363,367.966
				c420.488-180.37,603.982-186.978,550.345-19.732c320.207-19.571,433.064,32.47,338.548,156.107
				c154.305-15.155,195.958,25.381,124.911,121.607C2687.472,2061.288,2725.616,2119.733,2688.704,2194.129z"/>
		</g>
		<g style="opacity:0.5;">
			<path style="fill-rule:evenodd;clip-rule:evenodd;fill:#FFFFFF;" d="M2321.921,691.139c-8.908,1.731-17.681,3.987-26.293,6.766
				c-34.544,12.67-66.192,39.693-94.994,81.118c-93.034,516.483-118.667,800.006-76.902,850.521
				c42.313-297.511,85.379-553.374,110.375-769.975c13.58-117.869,88.683-157.084,244.239-116
				C2421.246,701.371,2369.111,683.892,2321.921,691.139"/>
		</g>
		<g style="opacity:0.5;">
			<path style="fill-rule:evenodd;clip-rule:evenodd;fill:#FFFFFF;" d="M2914.921,1016.997c-3.351,0.546-6.722,1.185-10.05,1.913
				c-19.002,5.219-36.639,19.459-52.93,42.701c-210.632,287.784-337.298,489.573-379.976,605.417
				c293.048-449.084,442.84-650.031,520.584-617.128C2964.638,1025.406,2938.755,1014.445,2914.921,1016.997"/>
		</g>
		<g style="opacity:0.5;">
			<path style="fill-rule:evenodd;clip-rule:evenodd;fill:#FFFFFF;" d="M2749.427,845.353c-3.486-1.071-6.972-2.051-10.481-2.94
				c-37.892-8.911-84.375-1.913-139.403,21.009l-0.023,0.023c-101.737,162.348-213.752,419.596-335.998,771.797
				c200.081-226.058,256.203-911.452,565.518-714.037C2810.083,881.832,2783.537,856.563,2749.427,845.353"/>
		</g>
		<g style="opacity:0.5;">
			<path style="fill-rule:evenodd;clip-rule:evenodd;fill:#FFFFFF;" d="M1900.864,1450.472c-6.811,4.9-13.533,9.753-20.141,14.606
				c7.996,40.286,16.974,81.482,26.954,123.567C1905.286,1541.569,1903.006,1495.52,1900.864,1450.472 M2078.185,690.523
				c-7.065-0.889-14.219-1.412-21.375-1.573c-45.891,0.411-99.437,23.72-160.638,69.907c-15.54,17.432-28.277,37.551-37.414,59.745
				l-0.023,0.023c9.046,16.564,17.635,34.245,25.724,53.112c1.048,2.438,2.051,4.9,3.054,7.359
				c37.164-110.032,127.781-156.354,271.901-138.901C2136.241,711.987,2109.149,695.446,2078.185,690.523z"/>
		</g>
		<g style="opacity:0.5;">
			<path style="fill-rule:evenodd;clip-rule:evenodd;fill:#FFFFFF;" d="M3074.763,1302.205h-0.047
				c-164.534,91.713-336.978,255.678-517.348,491.92c198.964-188.095,373.935-344.654,524.892-469.703
				C3094.222,1316.676,3091.714,1309.291,3074.763,1302.205"/>
		</g>
		<g style="opacity:0.5;">
			<path style="fill-rule:evenodd;clip-rule:evenodd;fill:#FFFFFF;" d="M3154.238,1602.385c8.089,8.568,12.35,19.756,12.784,33.608
				c-140.315,41.88-307.584,133.775-501.788,275.683C2792.516,1770.042,2955.524,1666.937,3154.238,1602.385"/>
		</g>
		<g style="opacity:0.5;">
			<path style="fill-rule:evenodd;clip-rule:evenodd;fill:#FFFFFF;" d="M3147.721,1873.169c10.801,4.398,13.899,16.589,9.342,36.527
				c-47.554,18.958-167.726,66.374-360.537,142.252C2952.654,1962.012,3069.704,1902.426,3147.721,1873.169"/>
		</g>
		<g>
			<path style="fill:#4F140D;" d="M2688.703,2213.726c-6.321,0-12.314-3.059-16.013-8.303c-4.146-5.879-4.736-13.56-1.541-20.005
				c13.433-27.07,15.349-50.64,5.693-70.054c-12.8-25.732-47.195-45.081-96.851-54.482c-6.624-1.255-12.136-5.825-14.6-12.1
				c-2.461-6.274-1.523-13.374,2.48-18.796c24.685-33.433,34.683-59.934,27.429-72.71c-5.005-8.826-28.154-28.208-134.661-17.756
				c-7.776,0.784-15.239-3.154-19.036-9.971s-3.186-15.234,1.553-21.433c25.654-33.557,33.901-59.504,24.517-77.119
				c-13.237-24.844-75.828-64.065-346.301-47.524c-6.484,0.381-12.7-2.427-16.67-7.534c-3.97-5.107-5.164-11.848-3.188-18.01
				c12.253-38.201,10.701-64.629-4.609-78.552c-28.049-25.508-132.815-43.525-519.348,122.28c-7.275,3.118-15.72,1.55-21.394-3.967
				c-5.674-5.525-7.466-13.921-4.541-21.282c40.574-102.083,163.677-221.824,387.415-376.836
				c115.054-79.729,46.374-207.288,22.585-244.483c-34.631-53.638-48.733-111.394-62.371-167.248
				c-9.277-37.993-18.04-73.882-32.81-108.391c-7.705-17.971-16.089-35.281-24.907-51.431c-3.03-5.547-3.137-12.063-0.61-17.571
				c29.807-71.792,93.149-123.086,169.587-137.278c70.244-13.044,141.411,7.1,194.055,54.109
				c63.55-55.418,150.859-74.199,232.378-48.887c78.606,24.385,138.44,85.613,161.458,163.171
				c58.911-31.445,131.14-32.31,191.072-0.667c60.42,31.902,100.603,92.756,107.368,159.785
				c75.981-18.376,157.617,12.329,201.946,78.814c41.433,62.134,41.47,142.341,3.586,204.063
				c69.146,7.849,128.911,55.74,150.186,124.854c22.146,72.029-3.23,148.498-60.85,193.276c40.771,27.18,64.329,59.458,70.159,96.24
				c8.04,50.737-16.958,106.433-76.375,169.954c32.139,54.604,37.922,104.831,17.166,149.48
				c-44.836,96.448-212.197,160.632-511.643,196.228C2690.243,2213.682,2689.469,2213.726,2688.703,2213.726z M2615.673,2029.092
				c47.549,13.753,80.562,37.251,96.262,68.818c10.847,21.812,12.949,46.553,6.379,72.788
				c261.238-33.958,412.17-91.06,448.806-169.861c16.553-35.605,9.131-76.413-22.688-124.756c-5.081-7.717-4.08-17.935,2.402-24.521
				c56.98-57.891,82.659-107.515,76.323-147.498c-5.02-31.67-31.248-60.029-77.954-84.287c-6.511-3.381-10.588-10.117-10.564-17.456
				c0.024-7.339,4.148-14.048,10.684-17.385c60.349-30.825,89.692-100.217,69.775-165c-19.937-64.773-83.186-105.652-150.449-97.214
				c-8.308,1.06-16.316-3.281-20.012-10.762c-3.699-7.485-2.249-16.489,3.608-22.437c49.585-50.325,57.126-129.509,17.935-188.284
				c-39.197-58.787-115.19-82.278-180.708-55.859c-6.157,2.483-13.152,1.68-18.579-2.129c-5.435-3.809-8.572-10.11-8.335-16.741
				c2.224-62.498-32.078-121.75-87.385-150.955c-55.298-29.192-123.572-24.111-173.938,12.947
				c-5.464,4.026-12.612,4.934-18.914,2.402c-6.294-2.524-10.835-8.128-12.004-14.81c-13.291-76.003-67.314-137.414-140.989-160.268
				c-73.677-22.886-152.981-2.847-206.956,52.278c-3.726,3.806-8.882,5.935-14.172,5.886c-5.327-0.046-10.408-2.261-14.067-6.133
				c-44.412-46.965-108.899-67.964-172.468-56.152c-60.581,11.247-111.238,50.622-137.151,106.081
				c7.732,14.729,15.1,30.239,21.955,46.228c16.05,37.5,25.61,76.66,34.858,114.529c13.46,55.127,26.172,107.195,57.268,155.357
				c75.149,117.5,62.397,231.616-33.237,297.888c-180.054,124.746-295.049,227.654-349.131,312.705
				c377.144-156.272,472.461-129.204,511.047-94.114c22.856,20.784,30.413,51.816,22.585,92.468
				c211.936-10.718,325.425,11.58,356.404,69.719c12.886,24.184,10.886,52.722-5.884,85.142
				c73.289-2.874,115.933,10.144,133.005,40.217C2642.775,1961.507,2638.31,1991.485,2615.673,2029.092z"/>
		</g>
		<g>
			<path style="fill:#4F140D;" d="M2602.798,882.152c-32.771,60.233-64.041,121.387-93.481,183.488
				c-29.756,61.952-57.898,124.747-84.785,188.113c-27.007,63.317-53.159,127.059-78.113,191.305
				c-12.573,32.084-24.739,64.336-36.79,96.636c-12.417,32.184-22.075,65.293-41.089,95.259l-0.017,0.028
				c-1.611,2.54-4.976,3.292-7.517,1.681c-1.792-1.136-2.69-3.152-2.502-5.128c3.455-35.34,16.296-67.527,27.114-100.382
				c11.147-32.75,22.412-65.468,34.102-98.044c23.281-65.184,47.363-130.132,73.152-194.453
				c25.916-64.266,53.135-128.058,82.053-191.152c29.241-62.933,59.966-125.286,93.521-186.217
				c5.22-9.481,17.139-12.935,26.619-7.714c9.451,5.205,12.913,17.062,7.764,26.527L2602.798,882.152z"/>
		</g>
		<g>
			<path style="fill:#4F140D;" d="M2893.665,1039.171c-37.439,48.817-74.067,98.344-109.771,148.588
				c-35.874,50.125-70.872,100.93-105.203,152.214c-34.551,51.139-68.496,102.727-101.895,154.689
				c-16.748,25.951-33.269,52.053-49.734,78.193c-16.492,26.128-33.325,52.043-53.052,76.26l-0.02,0.026
				c-2.749,3.374-7.712,3.881-11.086,1.133c-2.776-2.262-3.606-6.031-2.28-9.174c12.161-28.801,27.217-55.901,43.018-82.545
				c15.803-26.646,31.663-53.262,47.761-79.741c32.114-53.007,64.741-105.73,98.145-157.996
				c33.628-52.118,67.964-103.816,103.247-154.919c35.464-50.974,71.821-101.399,109.829-150.659
				c6.611-8.569,18.916-10.155,27.485-3.544c8.569,6.611,10.156,18.917,3.545,27.487L2893.665,1039.171z"/>
		</g>
		<g>
			<path style="fill:#4F140D;" d="M3073.467,1319.315c-23.491,17.151-46.953,34.315-70.178,51.79
				c-23.164,17.552-46.045,35.46-68.723,53.609c-45.349,36.302-89.675,73.857-132.622,112.913
				c-43.052,38.948-84.602,79.52-124.731,121.46c-20.063,20.972-39.644,42.4-58.865,64.154
				c-9.69,10.812-18.655,22.225-28.857,32.631c-10.032,10.552-20.508,20.751-33.03,29.451l-0.188,0.131
				c-4.175,2.899-9.91,1.866-12.808-2.307c-1.836-2.642-2.073-5.966-0.957-8.743c5.796-14.135,13.474-26.902,21.895-39.073
				c8.613-12.017,18.169-23.28,27.542-34.68c18.958-22.632,38.298-44.949,58.14-66.815c39.67-43.75,81.399-85.609,124.529-125.922
				c43.237-40.206,87.996-78.745,134.119-115.538c23.052-18.409,46.575-36.204,70.215-53.82l35.73-26.047l36.272-25.271
				c8.879-6.187,21.094-4.003,27.28,4.877c6.101,8.755,4.065,20.748-4.502,27.014L3073.467,1319.315z"/>
		</g>
		<g>
			<path style="fill:#4F140D;" d="M3159.043,1614.935c-22.534,9.458-45.156,18.649-67.532,28.385
				c-11.255,4.718-22.344,9.799-33.457,14.817c-11.14,4.963-22.209,10.063-33.223,15.27
				c-44.138,20.652-87.664,42.528-129.956,66.473c-42.427,23.71-83.501,49.677-122.944,77.799
				c-9.834,7.07-19.67,14.144-29.143,21.669l-14.341,11.129l-13.965,11.57c-9.473,7.542-18.679,15.343-28.496,22.562
				c-9.878,7.161-19.424,14.692-30.464,20.927l-0.281,0.159c-2.861,1.616-6.492,0.607-8.108-2.256
				c-1.101-1.946-0.979-4.254,0.105-6.036c13.271-21.665,30.337-40.225,49.08-56.633l14.148-12.234l14.519-11.76
				c9.604-7.952,19.553-15.428,29.507-22.903c39.802-29.937,81.838-56.643,124.861-81.367c43.174-24.484,87.473-46.81,132.6-67.134
				l16.912-7.646l17.09-7.218c11.394-4.811,22.759-9.683,34.27-14.18c11.494-4.532,22.898-9.303,34.465-13.635l34.744-12.856
				c6.96-2.576,14.69,0.979,17.266,7.939c2.505,6.769-0.789,14.266-7.373,17.041L3159.043,1614.935z"/>
		</g>
		<g>
			<path style="fill:#4F140D;" d="M3168.972,1883.12c-30.271,14.241-60.745,28.046-91.199,41.895l-91.631,40.953l-91.987,40.182
				l-46.072,19.922c-15.369,6.613-31.074,12.499-48.101,15.516c-5.347,0.957-10.457-2.601-11.414-7.948
				c-0.647-3.623,0.801-7.155,3.45-9.342c13.374-10.951,28.069-19.034,43.098-26.392l45.129-21.986l90.413-43.636l90.769-42.865
				c30.347-14.091,60.674-28.224,91.201-41.923c9.875-4.431,21.472-0.018,25.903,9.857
				C3182.915,1867.114,3178.611,1878.579,3168.972,1883.12z"/>
		</g>
		<g>
			<path style="fill:#4F140D;" d="M2223.752,757.295c-10.454,70.872-20.852,141.772-30.583,212.782
				c-10.015,70.969-19.551,142.021-28.708,213.131c-9.277,71.095-18.508,142.212-27.251,213.396l-12.957,106.801
				c-4.495,35.587-7.07,71.368-17.424,106.356c-1.216,4.138-5.557,6.505-9.695,5.288c-3.184-0.936-5.32-3.751-5.581-6.87
				c-2.91-36.384,1.985-71.97,5.168-107.729l10.474-107.195c7.175-71.447,14.475-142.893,22.493-214.268
				c8.14-71.361,16.66-142.687,25.667-213.967c9.292-71.242,18.875-142.463,29.636-213.531
				c1.621-10.701,11.609-18.062,22.312-16.442C2218.003,736.667,2225.374,746.593,2223.752,757.295z"/>
		</g>
		<g>
			<path style="fill:#4F140D;" d="M1881.572,1474.146l14.429,102.861c0.823,5.869-3.269,11.296-9.138,12.119
				c-5.251,0.736-10.144-2.463-11.709-7.345l-31.785-98.883c-3.325-10.342,2.363-21.421,12.705-24.745
				c10.342-3.325,21.421,2.363,24.746,12.705C1881.157,1471.913,1881.416,1473.085,1881.572,1474.146z"/>
		</g>
		<g>
			<path style="fill-rule:evenodd;clip-rule:evenodd;fill:#F4C23B;" d="M1678.339,2979.074
				c-43.749,14.536-85.743,17.658-125.958,9.41c44.432,91.713,17.705,151.594-73.439,130.791
				c-119.897-27.367-176.177,1.913-160.227,95.314c5.696,33.426,40.125,33.631,64.893,15.607
				c34.861,81.118,90.255,86.564,156.949,8.204c49.012-57.557,86.562-70.705,124.09-33.678
				c18.069,17.819,47.601,16.566,65.555-1.391c17.954-17.954,20.211-48.511,1.391-65.576c-30.283-27.435-58.765-37.596-80.913-35.75
				C1674.352,3052.74,1683.559,3011.772,1678.339,2979.074z"/>
		</g>
		<g>
			<path style="fill:#4F140D;" d="M1453.649,3308.218c-3.367,0-6.702-0.249-10.01-0.747c-26.387-3.977-48.616-23.311-66.218-57.537
				c-15.698,7.087-32.261,8.262-45.732,2.778c-14.329-5.83-23.838-18.535-26.775-35.774c-7.444-43.599-0.159-76.174,21.658-96.816
				c28.643-27.097,79.5-31.841,155.486-14.495c32.776,7.481,57.129,3.679,68.569-10.705c14.697-18.472,10.642-55.981-10.845-100.334
				c-2.324-4.795-1.724-10.491,1.545-14.698c3.269-4.204,8.63-6.196,13.865-5.119c37.62,7.712,77.576,4.692,118.733-8.982
				c3.894-1.299,8.164-0.811,11.682,1.321c3.511,2.134,5.908,5.701,6.558,9.758c5.037,31.553-1.636,68.499-20.376,112.493
				c22.456,4.29,46.353,17.319,69.202,38.018c11.045,10.015,17.334,24.07,17.712,39.578c0.417,17.168-6.362,34.033-18.606,46.274
				c-23.75,23.755-62.007,24.409-85.281,1.46c-11.914-11.755-23.21-17.207-34.744-16.731c-18.652,0.811-41.174,17.007-68.857,49.517
				C1516.865,3287.833,1484.096,3308.218,1453.649,3308.218z M1383.608,3216.197c1.24,0,2.485,0.164,3.706,0.498
				c4.106,1.128,7.476,4.063,9.155,7.974c9.932,23.11,26.902,51.431,51.343,55.117c22.7,3.389,51.074-14.029,82.083-50.461
				c33.469-39.302,61.736-58.154,88.965-59.336c19.463-0.852,38.108,7.493,55.62,24.768c12.349,12.18,32.908,11.584,45.82-1.323
				c6.75-6.75,10.642-16.392,10.413-25.796c-0.134-5.496-1.724-13.345-8.526-19.512c-33.45-30.303-58.445-33.162-70.347-32.17
				c-4.995,0.454-9.846-1.875-12.693-6.011s-3.262-9.478-1.086-14.004c18.438-38.369,27.715-71.392,27.69-98.464
				c-30.879,8.32-61.204,11.16-90.564,8.496c17.129,45.264,16.35,82.5-2.649,106.382c-13.098,16.465-40.505,33.403-96.711,20.569
				c-64.324-14.683-109.285-12.078-130.012,7.539c-14.6,13.813-19.072,37.959-13.301,71.77c1.941,11.379,7.8,13.765,9.727,14.549
				c8.547,3.467,21.855,0.3,33.13-7.903C1377.79,3217.115,1380.678,3216.197,1383.608,3216.197z"/>
		</g>
		<g>
			<path style="fill:#4F140D;" d="M1364.736,3224.905c5.332-15.767,16.475-30.879,30.481-39.47
				c13.899-8.784,28.75-12.623,42.805-14.414c14.141-1.744,27.847-1.469,41.25-0.428c13.408,1.073,26.458,3.29,39.382,5.698
				c4.768,0.887,7.915,5.474,7.026,10.242c-0.811,4.358-4.712,7.361-9.016,7.167l-0.239-0.011
				c-12.617-0.553-25.193-0.898-37.52-0.145c-12.29,0.765-24.399,2.31-35.544,5.338c-11.121,2.994-21.179,7.678-28.284,13.878
				c-7.166,6.204-10.791,13.868-12.603,22.727c-2.17,10.63-12.549,17.487-23.181,15.315c-10.63-2.172-17.485-12.55-15.315-23.181
				c0.159-0.771,0.359-1.522,0.601-2.252L1364.736,3224.905z"/>
		</g>
		<g>
			<path style="fill-rule:evenodd;clip-rule:evenodd;fill:#4F140D;" d="M1729.563,3162.795
				c-25.019,0.091-37.915,9.821-38.622,29.189c19.436,25.656,26.293,45.914,20.551,60.793
				C1745.194,3239.993,1751.209,3210.008,1729.563,3162.795z"/>
		</g>
		<g>
			<path style="fill:#4F140D;" d="M1711.496,3261.172c-2.197,0-4.351-0.862-5.957-2.476c-2.336-2.351-3.071-5.852-1.878-8.943
				c4.529-11.736-2.185-29.958-19.411-52.7c-1.169-1.543-1.77-3.443-1.699-5.376c0.505-13.86,7.28-37.134,46.985-37.278
				c0.01,0,0.02,0,0.029,0c3.281,0,6.265,1.911,7.632,4.897c13.921,30.364,17.043,54.011,9.546,72.295
				c-5.413,13.196-16.27,22.964-32.271,29.035C1713.503,3260.994,1712.494,3261.172,1711.496,3261.172z M1699.543,3189.468
				c13.611,18.489,20.959,34.441,22.166,48.228c4.36-3.474,7.502-7.612,9.497-12.476c5.183-12.639,2.82-30.735-7.019-53.833
				C1705.102,3172.771,1700.522,3181.209,1699.543,3189.468z"/>
		</g>
		<g>
			<path style="fill-rule:evenodd;clip-rule:evenodd;fill:#4F140D;" d="M1418.993,3249.085c8.978-5.082,20.278-3.168,27.115,4.557
				c6.86,7.723,7.359,19.184,1.23,27.479c-17.978,18.412-26.044,35.659-24.243,51.77
				C1399.284,3318.535,1397.917,3290.578,1418.993,3249.085z"/>
		</g>
		<g>
			<path style="fill:#4F140D;" d="M1423.095,3341.287c-1.499,0-3-0.4-4.336-1.206c-28.145-16.968-30.586-48.865-7.251-94.8
				c0.747-1.472,1.912-2.69,3.349-3.504c12.346-6.982,28.13-4.333,37.539,6.302c9.419,10.605,10.137,26.604,1.694,38.032
				c-0.229,0.308-0.478,0.601-0.745,0.877c-16.038,16.421-23.408,31.552-21.907,44.971c0.354,3.176-1.123,6.279-3.816,8.003
				C1426.247,3340.845,1424.67,3341.287,1423.095,3341.287z M1425.202,3255.445c-15.93,32.4-14.241,49.824-8.889,59.453
				c3.442-12.737,11.653-25.847,24.563-39.175c3.445-5.046,3.037-11.909-1.045-16.504
				C1436.147,3255.054,1430.28,3253.628,1425.202,3255.445z"/>
		</g>
		<g>
			<path style="fill-rule:evenodd;clip-rule:evenodd;fill:#4F140D;" d="M1345.874,3218.667c9.935-4.991,15.745-15.633,14.539-26.707
				c-1.186-11.073-9.116-20.234-19.894-23.013c-19.686,6.561-34.929,22.308-40.809,42.199c-5.901,19.891-1.708,41.425,11.232,57.648
				C1311.423,3246.556,1325.185,3226.801,1345.874,3218.667z"/>
		</g>
		<g>
			<path style="fill:#4F140D;" d="M1310.944,3277.19c-2.51,0-4.944-1.125-6.567-3.161c-14.641-18.357-19.395-42.756-12.715-65.269
				c6.646-22.488,23.919-40.352,46.204-47.779c1.531-0.508,3.184-0.571,4.751-0.163c14.092,3.633,24.597,15.788,26.145,30.249
				c1.572,14.456-6.108,28.569-19.121,35.103c-0.227,0.115-0.459,0.22-0.696,0.313c-17.578,6.909-29.199,23.589-29.609,42.493
				c-0.076,3.535-2.358,6.643-5.706,7.773C1312.746,3277.046,1311.84,3277.19,1310.944,3277.19z M1340.668,3177.815
				c-15.864,6.153-28.064,19.329-32.905,35.713c-3.064,10.324-2.991,21.167-0.037,31.22c6.514-15.102,18.782-27.365,34.675-33.738
				c6.597-3.467,10.471-10.713,9.663-18.142C1351.342,3186.104,1346.872,3180.315,1340.668,3177.815z M1345.873,3218.667h0.049
				H1345.873z"/>
		</g>
		<g>
			<path style="fill-rule:evenodd;clip-rule:evenodd;fill:#F4C23B;" d="M2016.435,2966.405
				c40.284,18.253,78.451,20.234,114.474,5.947c-12.532,94.562,19.392,143.596,95.519,150.068
				c105.839,8.999,118.532,79.247,52.613,114.225c-18.479,9.821-54.619-31.172-95.36-64.097
				c-84.102-52.454-14.536,39.532-8.225,92.852c7.245,109.119-198.987,97.294-149.543-17.25
				c64.416-89.41,7.998-114.064-63.276-19.709c-21.191,33.291-65.781,48.669-103.538,8.204
				c-41.835-44.843,9.389-94.768,114.224-121.607C2036.097,3103.53,2050.454,3053.993,2016.435,2966.405z"/>
		</g>
		<g>
			<path style="fill:#4F140D;" d="M2093.495,3355.125c-26.436,0.002-52.124-8.774-69.05-25.293
				c-12.888-12.573-31.501-40.627-11.387-87.231c0.403-0.928,0.903-1.812,1.497-2.634c25.598-35.532,26.521-53.809,25.247-57.585
				c-6.077-1.155-31.746,9.307-65.674,54.072c-14.046,21.763-36.206,36.006-59.392,38.145c-16.545,1.531-41.392-2.166-65.874-28.404
				c-20.635-22.119-20.185-43.093-16.177-56.794c10.618-36.277,60.613-68.325,137.168-87.925c0.313-0.081,0.63-0.149,0.947-0.208
				c21.262-3.899,35.232-12.297,42.71-25.681c11.865-21.238,8.459-56.264-10.125-104.114c-2.061-5.303-0.706-11.326,3.425-15.237
				c4.138-3.914,10.227-4.929,15.403-2.583c37.019,16.772,70.881,18.628,103.535,5.686c4.619-1.833,9.858-1.077,13.772,1.975
				c3.916,3.054,5.92,7.954,5.269,12.876c-6.333,47.781-0.686,83.025,16.782,104.753c13.884,17.271,35.486,26.929,66.042,29.526
				c58.433,4.969,97.603,28.899,104.773,64.011c5.879,28.774-12.048,58.098-46.785,76.528
				c-22.302,11.87-48.198-11.047-80.981-40.049c-9.395-8.308-19.102-16.895-29.072-24.985c-7.324-4.541-12.759-7.505-16.733-9.436
				c2.559,7.627,6.714,17.644,10.09,25.784c8.489,20.457,18.11,43.645,20.452,63.433c0.029,0.239,0.051,0.479,0.068,0.718
				c2.383,35.913-15.156,65.227-48.12,80.425C2126.34,3351.795,2109.772,3355.125,2093.495,3355.125z M2038.195,3255.042
				c-9.634,23.174-7.685,41.589,5.803,54.751c18.855,18.398,57.244,22.737,85.583,9.678c15.623-7.202,33.809-22.2,31.929-52.781
				c-1.975-15.891-10.732-37-18.467-55.637c-12.903-31.098-21.428-51.646-7.505-63.45c12.219-10.354,30.308-2.673,55.552,13.066
				c0.483,0.3,0.947,0.633,1.389,0.989c10.691,8.64,20.859,17.634,30.691,26.333c16.697,14.768,41.877,37.07,49.749,36.13
				c22.883-12.219,35.327-29.919,32.036-46.038c-3.511-17.188-26.296-37.173-79.714-41.714
				c-38.054-3.237-66.816-16.655-85.491-39.883c-19.771-24.592-27.976-58.906-24.897-104.47
				c-24.392,5.667-49.678,4.875-75.601-2.371c12.673,42.666,12.212,75.415-1.301,99.597c-11.575,20.718-32.3,33.994-61.609,39.473
				c-77.104,19.817-110.886,48.391-116.785,68.55c-2.9,9.91,0.298,19.666,9.778,29.827c13.25,14.201,28.074,20.993,42.83,19.624
				c14.797-1.365,29.25-11.008,38.662-25.793c0.2-0.315,0.413-0.623,0.64-0.921c40.596-53.747,81.88-77.378,105.156-60.193
				C2076.948,3174.805,2070.043,3210.347,2038.195,3255.042z"/>
		</g>
		<g>
			<path style="fill-rule:evenodd;clip-rule:evenodd;fill:#4F140D;" d="M1872.702,3217.687c8.682-5.334,19.846-4.284,27.366,2.574
				c7.541,6.86,9.592,17.887,5.079,27c-17.726,3.967-33.881,22.035-48.464,54.232
				C1835.059,3265.558,1840.393,3237.625,1872.702,3217.687z"/>
		</g>
		<g>
			<path style="fill:#4F140D;" d="M1856.681,3309.888c-2.932,0-5.667-1.533-7.192-4.067c-30.347-50.432-6.524-79.648,18.804-95.281
				c0.005-0.002,0.01-0.005,0.015-0.01c11.807-7.244,27.193-5.796,37.417,3.525c10.239,9.314,13.101,24.504,6.948,36.931
				c-1.125,2.273-3.215,3.914-5.691,4.468c-14.937,3.342-29.285,19.998-42.649,49.502c-1.289,2.842-4.045,4.736-7.161,4.917
				C1857.009,3309.883,1856.845,3309.888,1856.681,3309.888z M1877.104,3224.837c-23.811,14.697-30.527,33.347-20.522,57.981
				c12.698-23.245,26.601-37.234,42.175-42.476c1.128-4.983-0.457-10.342-4.338-13.872
				C1889.679,3222.151,1882.565,3221.485,1877.104,3224.837z"/>
		</g>
		<g>
			<path style="fill-rule:evenodd;clip-rule:evenodd;fill:#4F140D;" d="M2065.013,3303.156
				c4.944-10.345,16.247-16.064,27.502-13.946c11.256,2.119,19.688,11.552,20.554,22.969c2.028,28.8-8.089,57.1-27.936,78.064
				C2066.859,3370.419,2060.16,3341.389,2065.013,3303.156z"/>
		</g>
		<g>
			<path style="fill:#4F140D;" d="M2085.134,3398.638c-0.02,0-0.037,0-0.056,0c-2.324-0.015-4.541-0.994-6.118-2.705
				c-19.939-21.628-27.434-53.198-22.275-93.833c0.115-0.889,0.369-1.756,0.754-2.563c6.575-13.755,21.636-21.384,36.631-18.579
				c14.966,2.817,26.221,15.395,27.371,30.586c2.192,31.106-8.821,61.877-30.208,84.47
				C2089.645,3397.691,2087.438,3398.638,2085.134,3398.638z M2073.163,3305.684c-3.601,30.129,0.5,54.075,12.202,71.362
				c13.975-18.23,20.955-41.16,19.326-64.277c-0.574-7.583-6.221-13.894-13.728-15.308
				C2083.837,3296.119,2076.706,3299.48,2073.163,3305.684z"/>
		</g>
		<g>
			<path style="fill-rule:evenodd;clip-rule:evenodd;fill:#4F140D;" d="M2296.356,3190.138c-5.035-5.126-12.714-6.676-19.345-3.85
				c-6.629,2.802-10.845,9.387-10.64,16.611c17.931,19.662,22.306,43.224,13.148,70.658
				C2310.803,3255.92,2316.408,3228.121,2296.356,3190.138z"/>
		</g>
		<g>
			<path style="fill:#4F140D;" d="M2279.521,3281.954c-1.909,0-3.806-0.649-5.344-1.919c-2.681-2.209-3.723-5.842-2.622-9.136
				c8.196-24.558,4.473-44.951-11.387-62.344c-1.355-1.484-2.131-3.408-2.19-5.417c-0.305-10.757,5.884-20.405,15.764-24.585
				c9.844-4.197,21.079-1.955,28.604,5.698c0.571,0.583,1.055,1.245,1.436,1.965c28.008,53.057,4.507,80.759-20.139,94.656
				C2282.355,3281.597,2280.934,3281.954,2279.521,3281.954z M2275.053,3200.073c12.871,15.344,18.669,32.83,17.349,52.222
				c8.608-11.34,11.746-28.728-2.813-56.978c-2.593-2.085-6.204-2.622-9.287-1.306
				C2277.641,3195.137,2275.749,3197.383,2275.053,3200.073z"/>
		</g>
		<g>
			<path style="fill-rule:evenodd;clip-rule:evenodd;fill:#FF6666;" d="M1303.264,1428.644
				c50.198,64.711,112.995,4.123,188.394-181.763C1400.103,1228.108,1337.329,1288.672,1303.264,1428.644z"/>
		</g>
		<g>
			<path style="fill:#4F140D;" d="M1344.545,1464.92c-18.137,0-34.968-9.866-50.132-29.412c-2.09-2.698-2.839-6.199-2.031-9.514
				c35.593-146.252,103.411-210.203,201.523-190.085c3.259,0.669,6.055,2.751,7.625,5.686c1.57,2.932,1.755,6.411,0.505,9.495
				c-55.676,137.268-104.875,207.051-150.405,213.337C1349.25,1464.754,1346.884,1464.92,1344.545,1464.92z M1315.483,1425.894
				c10.884,12.561,21.736,17.932,33.086,16.343c24.316-3.357,65.938-38.806,127.368-186.555
				C1399.159,1246.819,1346.574,1302.657,1315.483,1425.894z"/>
		</g>
		<g>
			<path style="fill-rule:evenodd;clip-rule:evenodd;fill:#FFFFFF;" d="M2148.957,1165.514
				c7.632-62.569,15.334-123.019,23.057-181.373c-81.298-40.65-163.624-31.877-246.949,26.387
				c11.666,45.911,25.61,91.506,53.068,134.001c4.146,6.494,8.066,13.057,11.687,19.641
				C2025.549,1120.808,2078.593,1121.242,2148.957,1165.514z"/>
		</g>
		<g>
			<path style="fill:#4F140D;" d="M2160.182,1189.114l-18.682-11.751c-63.992-40.266-110.076-41.665-140.879-4.292l-13.125,15.93
				l-9.946-18.086c-3.386-6.16-7.161-12.5-11.216-18.85c-27.012-41.807-41.462-85.447-54.839-138.091l-2.38-9.378l7.927-5.542
				c87.454-61.152,175.344-70.381,261.233-27.437l8.926,4.465l-1.309,9.893c-7.91,59.773-15.662,120.747-23.04,181.231
				L2160.182,1189.114z M2055.121,1117.754c24.485,0,52.034,8.298,82.534,24.89c6.184-50.2,12.607-100.606,19.148-150.249
				c-71.431-32.38-142.18-24.456-215.72,24.167c12.031,45.752,25.422,84.172,48.806,120.369c0.913,1.428,1.812,2.856,2.695,4.277
				C2010.47,1125.574,2031.354,1117.754,2055.121,1117.754z"/>
		</g>
		<g>
			<path style="fill-rule:evenodd;clip-rule:evenodd;fill:#FFFFFF;" d="M2148.957,1165.514
				c98.389-41.058,189.53-24.835,273.495,48.648c21.578-51.108,43.226-100.029,64.962-146.694
				c-25.589-57.739-75.922-100.827-136.988-117.188c-61.521-16.473-127.188-4.032-178.412,33.86
				C2164.291,1042.495,2156.589,1102.945,2148.957,1165.514z"/>
		</g>
		<g>
			<path style="fill:#4F140D;" d="M2427.814,1237.459l-14.58-12.761c-80.33-70.305-165.015-85.43-258.887-46.265l-22.2,9.265
				l2.913-23.879c7.39-60.579,15.151-121.648,23.074-181.514l0.779-5.889l4.775-3.53c54.941-40.642,124.326-53.811,190.359-36.13
				c65.447,17.534,118.721,63.11,146.165,125.041l2.578,5.816l-2.686,5.767c-21.399,45.945-43.186,95.142-64.753,146.228
				L2427.814,1237.459z M2251.911,1129.466c57.693,0,112.874,20.659,165.017,61.885c18.362-43.032,36.836-84.609,55.056-123.901
				c-24.675-51.25-69.976-88.857-125.181-103.648c-55.857-14.951-114.443-4.673-161.704,28.181
				c-6.638,50.288-13.157,101.375-19.431,152.275C2194.968,1134.392,2223.742,1129.466,2251.911,1129.466z"/>
		</g>
		<g>
			<path style="fill-rule:evenodd;clip-rule:evenodd;fill:#FFFFFF;" d="M2487.414,1067.468
				c-21.737,46.665-43.385,95.587-64.962,146.694c169.504-8.362,243.809,39.943,222.868,144.94c3.19-4.897,6.358-9.753,9.524-14.606
				c33.177-50.744,65.509-98.776,96.977-144.074c-16.246-103.856-104.177-147.742-263.814-131.61
				C2487.825,1068.357,2487.62,1067.899,2487.414,1067.468z"/>
		</g>
		<g>
			<path style="fill:#4F140D;" d="M2617.375,1427.637l14.216-71.274c7.275-36.477,2.266-64.119-15.317-84.509
				c-29.224-33.887-94.211-48.589-193.13-43.708l-22.253,1.099l8.665-20.525c21.699-51.399,43.625-100.911,65.168-147.161
				l12.537-26.914l9.216,19.309c161.448-14.077,251.99,34.451,269.175,144.304l0.867,5.542l-3.201,4.609
				c-31.274,45.02-63.828,93.384-96.753,143.748L2617.375,1427.637z M2458.866,1199.224c88.567,0,147.17,17.883,178.611,54.346
				c13.257,15.371,21.313,33.813,24.138,55.134c25.62-38.767,50.906-76.165,75.439-111.563
				c-16.96-90.688-95.896-128.357-240.999-115.042c-17.251,37.28-34.729,76.616-52.117,117.288
				C2449.006,1199.278,2453.984,1199.224,2458.866,1199.224z"/>
		</g>
		<g>
			<path style="fill-rule:evenodd;clip-rule:evenodd;fill:#FFFFFF;" d="M2751.821,1200.421
				c-31.469,45.298-63.801,93.33-96.977,144.074c121.745-6.379,180.12,37.416,175.132,131.43c1.867,1.458,3.736,2.938,5.558,4.396
				c33.223-28.984,67.674-57.487,103.379-85.514C2942.81,1289.195,2880.444,1224.393,2751.821,1200.421z"/>
		</g>
		<g>
			<path style="fill:#4F140D;" d="M2835.922,1498.56l-9.136-7.31c-1.78-1.423-3.606-2.869-5.43-4.294l-5.745-4.49l0.386-7.283
				c1.97-37.153-6.367-64.517-25.491-83.652c-25.288-25.303-70.686-36.423-134.929-33.057l-27.542,1.445l15.093-23.086
				c33.069-50.581,65.769-99.165,97.195-144.4l5.164-7.434l8.899,1.658c135.898,25.327,202.69,95.535,198.516,208.665l-0.239,6.489
				l-5.105,4.009c-35.271,27.683-69.863,56.299-102.82,85.049L2835.922,1498.56z M2681.159,1329.925
				c58.667,0.652,102.031,14.675,129.153,41.814c20.491,20.503,31.772,48.286,33.669,82.781
				c26.289-22.507,53.474-44.844,81.091-66.636c0.918-92.271-53.787-148.613-166.963-171.963
				C2733.085,1252.073,2707.282,1290.303,2681.159,1329.925z"/>
		</g>
		<g>
			<path style="fill-rule:evenodd;clip-rule:evenodd;fill:#FFFFFF;" d="M2938.913,1394.807
				c-35.706,28.027-70.156,56.53-103.379,85.514c106.774,85.15,136.692,160.115,89.8,224.828
				c31.125-16.499,63.912-32.607,98.342-48.284C3096.18,1540.384,3067.926,1453.048,2938.913,1394.807z"/>
		</g>
		<g>
			<path style="fill:#4F140D;" d="M2878.622,1745.755l35.376-48.821c42.068-58.057,13.545-125.329-87.192-205.669l-13.12-10.464
				l12.644-11.03c33.32-29.067,68.291-57.993,103.938-85.977l6.672-5.237l7.732,3.491c69.05,31.169,111.519,71.518,126.228,119.927
				c14.297,47.046,2.407,101.648-35.339,162.288l-2.234,3.591l-3.85,1.753c-33.879,15.427-66.714,31.545-97.585,47.91
				L2878.622,1745.755z M2857.267,1480.013c83.11,69.797,116.414,134.568,99.49,193.242c18.613-9.287,37.744-18.433,57.227-27.354
				c31.572-52.007,41.709-97.673,30.127-135.784c-11.738-38.635-46.472-71.914-103.289-98.994
				C2912.316,1433.65,2884.294,1456.756,2857.267,1480.013z"/>
		</g>
		<g>
			<path style="fill-rule:evenodd;clip-rule:evenodd;fill:#FFFFFF;" d="M3023.676,1656.865
				c-34.43,15.677-67.217,31.786-98.342,48.284c61.908,110.419,56.395,202.382-16.499,275.889l10.231-4.718l105.407-48.441
				C3094.836,1837.944,3094.563,1747.598,3023.676,1656.865z"/>
		</g>
		<g>
			<path style="fill:#4F140D;" d="M2844.328,2026.207l54.565-55.027c68.584-69.16,73.237-153.94,14.229-259.184l-7.009-12.503
				l12.664-6.711c31.367-16.628,64.709-32.998,99.099-48.657l10.042-4.57l6.792,8.694c75.032,96.04,75.3,193.025,0.791,288.257
				l-2.092,2.676L2844.328,2026.207z M2944.394,1710.96c46.306,88.794,49.858,167.009,10.75,233.374l60.366-27.742
				c62.178-81.138,63.44-160.535,3.779-242.312C2993.52,1686.194,2968.42,1698.487,2944.394,1710.96z"/>
		</g>
		<g>
			<path style="fill-rule:evenodd;clip-rule:evenodd;fill:#FFFFFF;" d="M3024.474,1927.879l-105.407,48.441
				c59.379,60.84,63.618,119.376,12.714,175.587c44.479-11.118,83.328-23.468,116.551-37.05
				c47.211-61.225,42.402-125.002-14.424-191.308L3024.474,1927.879z"/>
		</g>
		<g>
			<path style="fill:#4F140D;" d="M2890.478,2176.663l30.928-34.153c46.067-50.872,42.141-100.574-12.358-156.414l-13.867-14.209
				l142.485-65.469l6.873,8.02c61.482,71.736,66.487,142.044,14.88,208.967l-2.302,2.983l-3.486,1.426
				c-33.689,13.772-73.542,26.448-118.452,37.673L2890.478,2176.663z M2942.28,1981.058
				c48.987,58.188,44.622,108.601,23.679,147.183c26.997-7.781,51.619-16.118,73.535-24.91
				c38.716-52.302,35.61-105.606-9.529-162.568L2942.28,1981.058z"/>
		</g>
		<g style="opacity:0.3;">
			<path style="fill-rule:evenodd;clip-rule:evenodd;fill:#4F140D;" d="M2654.375,2183.506c25.817-4.102,41.606,1.321,47.395,16.223
				c-64.279-1.731-125.961,31.422-185.066,99.392C2549.288,2230.808,2595.178,2192.256,2654.375,2183.506L2654.375,2183.506z"/>
		</g>
		<g style="opacity:0.3;">
			<path style="fill-rule:evenodd;clip-rule:evenodd;fill:#4F140D;" d="M2510.577,2114.533
				c12.669,9.389,19.823,17.933,21.443,25.635c-83.51,29.278-153.507,82.87-207.076,148.379
				C2363.061,2212.079,2425.928,2149.942,2510.577,2114.533"/>
		</g>
		<g style="opacity:0.3;">
			<path style="fill-rule:evenodd;clip-rule:evenodd;fill:#4F140D;" d="M1451.486,1243.853
				c-56.236,132.156-104.632,189.736-145.192,172.761c-1.024,3.941-2.051,7.952-3.031,12.03
				c16.452,21.191,34.271,28.96,53.434,23.242c26.909-8.022,56.509-42.61,88.75-103.767c8.841-16.748,17.887-35.477,27.115-56.213
				c2.324-5.217,4.648-10.549,6.995-16.018c3.988-9.275,7.998-18.911,12.054-28.914c0.023-0.023,0.023-0.047,0.047-0.093
				C1477.598,1243.988,1464.2,1242.987,1451.486,1243.853"/>
		</g>
		<g>
			<g style="opacity:0.3;">
				<path style="fill-rule:evenodd;clip-rule:evenodd;fill:#4F140D;" d="M1401.803,1011.414
					c46.436,40.538,77.219,108.667,90.299,204.685c8.248,60.564-2.826,333.81,37.208,363.136
					c25.68,18.797,60.952,17.385,85.036-3.395c7.975-6.881,12.534-28.414,13.512-59.472c-44.294,44.661-83.349,39.67-85.332-18.958
					C1531.998,1184.404,1495.725,1022.237,1401.803,1011.414"/>
			</g>
			<g style="opacity:0.3;">
				<path style="fill-rule:evenodd;clip-rule:evenodd;fill:#4F140D;" d="M1768.789,2894.743
					c-43.042,62.48-99.028,95.064-167.976,97.705c-61.227-34.224-105.636-85.194-133.252-152.868
					c51.656,20.666,103.06,35.568,154.238,44.729c-89.571-16.907-186.98-52.636-292.182-107.229
					c-0.114-0.775-0.226-1.573-0.341-2.371c-6.496-2.347-12.852-4.968-19.049-7.861c-70.772-32.995-120.832-99.642-132.134-177.82
					c-29.896,23.538-52.886,32.675-69.018,27.411c-39.397-12.896-37.757-111.877,4.921-296.944
					c-113.541,73.803-207.214-20.962-19.709-195.522c-117.393,152.07-95.836,204.181,61.635,146.078
					c30.92-7.884,36.137,3.463,30.624,57.442l0,0c-43.59,173.104-61.089,245.265-5.81,206.258
					c21.669-14.471,38.37-13.99,50.081,1.435l0,0c30.715,55.277,76.312,96.588,136.829,123.954
					c29.028,13.148,61.497,23.06,97.385,29.782c131.794,36.273,264.839,56.668,399.068,61.178
					c16.522,1.232,31.674,1.549,45.482,0.912c71.456-3.281,106.567-31.695,105.337-85.264c-0.411-17.59-4.762-37.892-13.01-60.907
					c-9-62.909-2.21-118.826,20.348-167.679c-60.543,237.973,296.578,324.857,523.501,235.376
					c-17.271,8.157-35.181,15.883-53.774,23.195c-55.462,93.717-148.813,171.144-280.105,232.278
					c-10.299,4.809-20.848,9.503-31.604,14.104c2.28-7.019,4.125-14.401,5.583-22.194c-84.536,36.163-156.083,19.62-226.785-34.999
					c-26.296-20.323-74.17-20.278-133.434-16.041c0.912,6.449,1.96,12.716,3.099,18.823c-7.406,0.432-14.627,1.526-21.713,3.257
					C1794.49,2892.716,1781.731,2893.969,1768.789,2894.743z"/>
			</g>
			<g style="opacity:0.3;">
				<path style="fill-rule:evenodd;clip-rule:evenodd;fill:#4F140D;" d="M2716.172,2418.659c-3.532,3.784-7.063,7.497-10.642,11.167
					l-3.029,3.122l-3.351,3.395c-16.566,16.769-31.193,30.122-43.907,40.057l-0.296,0.226
					c-189.738,156.585-416.911,142.457-614.076-47.941l-9.296-3.075c-16.405,308.473,479.934,260.578,618.152,187.024
					c115.48-80.957,187.232-189.668,215.257-326.131c-6.722-7.291-13.785-13.832-21.144-19.732
					C2793.849,2330.615,2751.285,2381.245,2716.172,2418.659"/>
			</g>
			<g style="opacity:0.3;">
				<path style="fill-rule:evenodd;clip-rule:evenodd;fill:#4F140D;" d="M2564.784,1924.414c13.99,3.943,24.471,9.571,31.445,16.886
					C2586.635,1933.712,2576.154,1928.085,2564.784,1924.414 M2531.654,2137.62c-143.117-115.181-292.66-80.523-448.606,103.972
					c178.732-315.72,619.02-426.799,34.681-460.181c81.914-27.365,176.473-28.893,283.726-4.601
					c87.201,29.257,102.582,76.993,46.073,143.208c37.46-3.304,68.29-3.418,92.511-0.411c-26.41-2.074-56.738,4.443-90.983,19.527
					c120.695-2.781,155.946,27.843,105.725,91.872c41.675-7.359,55.529-37.208,41.562-89.595
					c19.298,20.395,11.347,53.798-23.904,100.213c9.298,2.415,18.048,4.989,26.249,7.723c-12.28-1.115-25.087,0.161-38.415,3.897
					c72.823,39.602,107.456,79.751,103.902,120.445c29.735-27.957,30.692-57.079,2.917-87.315
					c27.617,26,32.332,59.267,14.128,99.756C2633.279,2148.421,2583.422,2132.244,2531.654,2137.62z"/>
			</g>
			<g style="opacity:0.3;">
				<path style="fill-rule:evenodd;clip-rule:evenodd;fill:#4F140D;" d="M2664.439,2072.819c-1.708-0.023-3.418-0.046-5.103-0.114
					 M2680.572,2072.226c-1.799,0.138-3.6,0.25-5.378,0.32 M2639.42,2070.768c-1.458-0.252-2.893-0.525-4.328-0.821
					C2636.527,2070.243,2637.962,2070.516,2639.42,2070.768z M2644.161,2071.475c-1.367-0.182-2.735-0.387-4.079-0.616
					C2641.427,2071.087,2642.794,2071.293,2644.161,2071.475z M2649.082,2072.044c-1.435-0.138-2.893-0.32-4.307-0.502
					C2646.189,2071.748,2647.647,2071.906,2649.082,2072.044z M2654.026,2072.455c-1.502-0.115-3.008-0.229-4.489-0.366
					C2651.019,2072.226,2652.524,2072.34,2654.026,2072.455z M2659.267,2072.704c-1.573-0.047-3.122-0.137-4.671-0.229
					C2656.145,2072.567,2657.694,2072.658,2659.267,2072.704z M2669.612,2072.751c-1.71,0.044-3.418,0.067-5.082,0.067
					C2666.194,2072.819,2667.902,2072.795,2669.612,2072.751z M2675.081,2072.567c-1.687,0.091-3.374,0.137-5.058,0.184
					C2671.708,2072.704,2673.394,2072.658,2675.081,2072.567z M2635.092,2069.947c-62.272-5.877-86.016-19.413-60.131-55.62
					l9.41-2.506c-2.529-11.984-1.731-28.004,2.415-48.009c-3.647-4.648-5.698-9.09-6.153-13.33
					c-20.255-15.334-49.855-32.446-78.108-30.556c160.89-169.548,362.177-244.103,579.781-380.862
					c98.046-61.612,101.534-203.5-45.981-217.649c72.571-40.718,143.39,9.228,172.306,92.761
					c22.807,96.382-16.977,164.308-119.307,203.794c-134.549,43.658-275.07,148.358-449.289,293.708
					c-28.095,63.003-10.71,86.405,52.134,70.203c377.831-109.985,570.759-225.465,430.696-367.579
					c34.929-15.199,18.843-19.14,18.843-19.14c103.606,88.363,101.578,178.412-6.106,270.147
					c-153.918,92.67-282.52,162.007-379.975,191.651l1.208-0.364c-58.422,43.018-55.142,63.458,9.842,61.292
					c-28.253,4.536-58.079,8.682-89.41,12.417c-1.229-8.292-3.896-16.109-7.975-23.491
					C2662.388,2092.824,2650.927,2080.383,2635.092,2069.947z"/>
			</g>
			<g style="opacity:0.3;">
				<path style="fill-rule:evenodd;clip-rule:evenodd;fill:#4F140D;" d="M2687.212,2130.786c3.075,18.204,4.352,38.781,3.85,61.703
					c409.505-42.815,562.352-151.867,458.541-327.181c0,0,7.679-5.56-18.206,6.311
					C3201.485,1995.439,3039.683,2089.473,2687.212,2130.786"/>
			</g>
			<g style="opacity:0.3;">
				<path style="fill-rule:evenodd;clip-rule:evenodd;fill:#4F140D;" d="M2456.325,1909.104c2.893-5.014,7.13-11.393,12.6-19.072
					C2465.485,1896.184,2461.292,1902.54,2456.325,1909.104 M2972.124,1360.627c62.615-16.223,111.196-65.691,126.302-128.625
					c15.084-62.909-5.787-129.034-54.229-171.917c-48.467-42.883-79.977-65.714-140.588-43.088
					c181.579,58.058,199.125,160.845,62.343,269.328c-209.471,166.13-396.768,317.199-520.312,510.535
					c27.25,21.009,15.311,96.179,10.687,112.244c-2.69,3.577-5.628,7.224-8.796,10.915c27.411-2.69,51.269-3.624,71.57-2.805
					c25.384-26.499,51.724-50.674,79-73.12c-71.822,44.341-89.139,27.686-51.929-49.969l-1.664,1.916l1.664-1.916
					C2634.098,1692.045,2780.269,1537.332,2972.124,1360.627z"/>
			</g>
			<g style="opacity:0.3;">
				<path style="fill-rule:evenodd;clip-rule:evenodd;fill:#4F140D;" d="M2878.042,1030.943
					c-14.515-73.577-41.31-124.934-80.388-154.079c45.708,68.997,21.44,131.633-43.84,213.936
					c-172.33,217.261-290.245,416.318-372.135,583.155v0.021c-68.815,56.964-107.505,37.985-116.094-56.941
					c44.476-179.322,147.422-427.415,308.837-744.318c-12.852-94.903-81.095-156.606-204.706-185.111
					c155.99,53.091,168.407,155.309,73.985,328.387c-121.607,222.912-196.756,426.664-243.26,601.975
					c-55.142,59.015-90.278,43.431-105.384-46.824c10.481-271.696,58.446-553.01,98.116-816.754c0,0-13.239-10.915-39.693-32.766
					c-29.395,81.118-117.825,800.713-119.808,808.324c-17.978,68.745-97.066,100.689-156.538,43.567
					c-5.945-22.444-13.192-48.032-21.69-76.787c-133.115,66.533-228.701,160.729-286.713,282.611
					c159.452-65.487,268.756-104.588,327.976-117.302l-0.023-0.091c46.278-11.211,88.773-17.863,127.44-19.961l-0.091,1.253
					l1.3-0.455l1.3-0.432l1.297-0.411l0.593-0.182c13.057-0.593,25.657-0.66,37.848-0.205l1.115,0.364l1.094,0.411l1.094,0.455
					l1.094,0.455l1.092,0.481l1.071,0.499l0,0l1.071,0.525v0.023l2.142,1.115l1.05,0.616l0,0l1.048,0.637l2.095,1.323l0,0
					l1.027,0.684v0.023c2.072,1.412,4.1,2.984,6.106,4.692v0.023l0.98,0.866l0,0l1.001,0.889l0,0c0.98,0.912,1.96,1.846,2.917,2.825
					h0.023l0.957,0.98v0.023c0.959,0.98,1.916,2.028,2.872,3.122v-0.023l0,0c23.969,19.322,28.23,53.112,12.76,101.35
					c20.232-1.23,39.623-2.186,58.194-2.846c35.841-1.027,60.564-1.391,74.144-1.118c0.252-3.509,0.548-7.086,0.845-10.686
					c40.853,6.655,73.894,10.185,99.14,10.572l-2.485,5.514c29.417,4.216,47.349,7.27,53.774,9.184
					c3.031,0.73,5.994,1.482,8.864,2.28c18.297,4.989,33.405,11.095,45.298,18.295c21.806-33.949,45.571-66.624,71.092-98.298
					c-66.512,55.233-85.537,45.3-57.079-29.779C2611.358,1430.466,2750.441,1218.446,2878.042,1030.943"/>
			</g>
			<g style="opacity:0.3;">
				<path style="fill-rule:evenodd;clip-rule:evenodd;fill:#4F140D;" d="M1731.921,2043.448
					c11.393,58.742-3.533,119.533-40.855,166.335c-37.299,46.803-93.239,74.897-153.05,76.878
					c-62.639-19.025-118.1-53.112-162.509-97.887c62.205,169.777,232.871,196.845,350.056,48.693
					c95.587-120.809,70.705-224.781,17.021-230.066c-14.401-1.414-30.897,4.284-47.666,18.661
					c10.299,5.217,21.144,10.343,32.514,15.402C1728.913,2042.127,1730.418,2042.787,1731.921,2043.448"/>
			</g>
			<g style="opacity:0.3;">
				<path style="fill-rule:evenodd;clip-rule:evenodd;fill:#4F140D;" d="M1538.016,2286.662
					c34.131-2.256,62.454-9.457,84.968-21.622c-5.583-1.845-11.097-3.805-16.566-5.88c67.492-17.978,108.597-60.656,123.338-128.056
					c-233.963,286.484-579.644-279.694-184.017-543.005c-39.236,4.284-67.627,13.307-85.173,27.045l0,0
					c-22.42,4.832-43.52,7.315-63.276,7.406c-106.865,92.329-155.056,235.467-125.8,373.617
					C1300.77,2134.316,1402.874,2245.625,1538.016,2286.662"/>
			</g>
			<g style="opacity:0.3;">
				<path style="fill-rule:evenodd;clip-rule:evenodd;fill:#4F140D;" d="M1206.187,1532.068c1.869-37.848-0.047-69.907-5.719-96.156
					c-151.207-101.989-200.674-237.246-148.428-405.767C944.447,1193.951,995.83,1361.267,1206.187,1532.068 M1213.593,1422.764
					c11.643,202.429,137.123,258.733,250.438,122.519C1341.306,1609.471,1271.059,1569.438,1213.593,1422.764z"/>
			</g>
			<g style="opacity:0.3;">
				<path style="fill-rule:evenodd;clip-rule:evenodd;fill:#4F140D;" d="M935.63,2126.614
					c-70.887,165.54-34.773,323.261,108.345,473.238c20.712,7.905,42.519,13.535,65.1,16.587
					c-39.397-12.896-37.757-111.877,4.921-296.944c-113.541,73.803-207.214-20.962-19.709-195.522
					c-71.045,9.228-115.865,0.296-130.949-23.151C953.47,2108.889,944.218,2117.5,935.63,2126.614"/>
			</g>
			<g style="opacity:0.3;">
				<path style="fill-rule:evenodd;clip-rule:evenodd;fill:#4F140D;" d="M2075.598,3117.383
					c-22.308,9.503-51.609,19.55-87.52,31.469c-69.701,23.127-110.944,59.379-126.962,99.572
					c-38.758-20.757-34.635-53.385,12.327-97.931c82.007-27.411,131.703-58.971,149.156-94.674
					c7.746-0.569,15.176-0.616,22.262-0.138c-8.18-8.271-15.836-17.931-22.945-28.96c-3.075-23.538-4.032-41.765-2.893-54.663
					c26.977,4.216,52.293,5.219,75.945,2.917c-6.881,1.664-14.128,3.896-21.692,6.769
					C2098.476,3060.738,2099.25,3105.968,2075.598,3117.383 M2126.318,2969.823l-0.614,1.983c-2.667-0.161-5.425-0.182-8.227-0.07
					C2120.441,2971.146,2123.402,2970.506,2126.318,2969.823z"/>
			</g>
			<g style="opacity:0.3;">
				<path style="fill-rule:evenodd;clip-rule:evenodd;fill:#4F140D;" d="M1699.997,3165.21
					c-27.091-29.644-52.088-48.215-75.01-55.732c17.954-21.944,30.351-44.341,37.185-67.128c3.714-14.034,5.812-27.159,6.29-39.35
					c0.159-7.884-0.32-15.813-1.414-23.788c-20.416,7.861-42.311,12.259-65.691,13.216c-0.182,0.021-0.364,0.021-0.546,0.021
					c-12.511,0.845-24.861,0.663-37.073-0.546c58.856,29.166,60.793,83.19,5.833,162.052c-31.49,37.666-76.377,70.91-134.664,99.688
					c6.86,7.723,7.359,19.184,1.23,27.479c-3.53,3.624-6.676,7.177-9.431,10.686c29.233,9.228,64.05-8.043,102.649-53.408
					c49.012-57.557,86.561-70.705,124.09-33.678c11.302,11.165,27.138,14.833,41.789,11.62c-3.691-7.494-8.862-15.607-15.493-24.357
					C1680.265,3178.108,1687.01,3169.197,1699.997,3165.21"/>
			</g>
		</g>
		<g>
			<g>
				<g>
					<g>
						
							<ellipse transform="matrix(0.9989 -0.0463 0.0463 0.9989 -43.7536 75.0698)" style="fill:#4F140D;" cx="1600.29" cy="982.997" rx="77.891" ry="120.387"/>
					</g>
				</g>
			</g>
			<g>
				<g>
					<g>
						<path style="fill:#FFFFFF;" d="M1591.745,891.047c13.637,5.241,19.684,27.483,13.506,49.678
							c-6.178,22.196-22.241,35.939-35.879,30.698c-13.637-5.24-19.684-27.482-13.506-49.677
							C1562.045,899.55,1578.107,885.805,1591.745,891.047z"/>
					</g>
				</g>
			</g>
			<g>
				<g>
					<g>
						<path style="fill:#B199C5;" d="M1638.714,1030.986c6.476,4.707,7.368,17.121,1.993,27.727
							c-5.375,10.606-14.982,15.389-21.457,10.681c-6.476-4.706-7.368-17.12-1.992-27.725
							C1622.631,1031.062,1632.239,1026.28,1638.714,1030.986z"/>
					</g>
				</g>
			</g>
		</g>
	</g>
</g>
</svg>
