<?xml version="1.0" encoding="utf-8"?>
<!-- Generator: Adobe Illustrator 27.5.0, SVG Export Plug-In . SVG Version: 6.00 Build 0)  -->
<svg version="1.1" id="Layer_1" xmlns="http://www.w3.org/2000/svg" xmlns:xlink="http://www.w3.org/1999/xlink" x="0px" y="0px"
	 viewBox="0 0 4000 4000" style="enable-background:new 0 0 4000 4000;" xml:space="preserve">
<g>
	<g>
		<!-- <rect style="fill:#FF8C7C;" width="4000" height="4000"/> -->
	</g>
	<g>
		<g>
			<g>
				<path style="fill:#F4222D;" d="M2045.078,1156.505c0,0-232.55,339.38-461.825,902.741s-615.767,776.26-704.202,347.188
					c0,0-189.971,553.535,402.869,573.188s1392.027-730.405,1640.954-1392.027
					C2922.874,1587.595,2958.903,738.517,2045.078,1156.505z"/>
			</g>
			<g style="opacity:0.25;">
				<path style="fill:#390175;" d="M2870.533,1509.059c-249.027,661.622-1048.119,1411.644-1641.006,1391.98
					c-173.308-5.698-279.72-57.158-343.308-126.995c-46.865-99.979-39.33-214.476-26.281-288.725
					c27.016,120.563,118.54,239.471,372.163,247.926c524.335,17.276,1231.169-646.185,1451.341-1231.352
					c0,0,15.254-361.688-245.719-459.46c176.065-12.681,288.357,48.518,359.849,133.794
					C2878.069,1329.502,2870.533,1509.059,2870.533,1509.059z"/>
			</g>
			<g style="opacity:0.35;">
				<path style="fill:#FFFFFF;" d="M1772.342,1999.874c-12.788-12.834-15.11-32.741-8.429-49.582
					c33.384-84.154,161.116-396.566,230.943-431.479c80.792-40.396,117.913,46.994,68.782,159.424
					C2018.602,1781.298,1843.295,2071.083,1772.342,1999.874z"/>
			</g>
			<g style="opacity:0.35;">
				<path style="fill:#FFFFFF;" d="M1712.736,2238.094c-26.352,19.789-64.758,2.193-67.604-30.639
					c-2.653-30.606,3.329-67.951,35.002-100.557C1741.364,2043.862,1837.538,2144.375,1712.736,2238.094z"/>
			</g>
			<g>
				<path style="fill:#390175;" d="M1305.108,3013.918c-8.154,0-16.255-0.132-24.312-0.4
					c-187.554-6.216-320.898-64.858-396.333-174.287c-125.278-181.738-41.138-433.193-37.495-443.809
					c4.966-14.453,18.999-23.711,34.238-22.837c15.254,0.976,27.974,12.031,31.06,27.002
					c17.847,86.582,58.071,191.538,148.35,199.829c127.505,11.728,337.183-174.453,491.226-552.954
					c228.013-560.256,462.915-905.703,465.259-909.126c3.481-5.078,8.276-9.111,13.872-11.672
					c307.549-140.679,546.03-156.487,708.813-47c229.37,154.275,217.583,495.901,216.968,510.369
					c-0.151,3.594-0.874,7.139-2.139,10.505c-123.037,327.024-385.049,687.783-700.879,965.034
					c-158.306,138.97-326.235,252.891-485.635,329.448C1602.33,2973.635,1446.715,3013.918,1305.108,3013.918z M887.091,2537.819
					c-7.9,78.643-3.042,181.499,53.398,263.179c62.593,90.571,177.842,139.268,342.554,144.727
					c265.679,8.76,603.086-148.706,925.947-432.124c306.094-268.706,559.956-616.914,680.103-932.564
					c0.459-41.47-3.452-322.776-187.412-446.257c-140.42-94.255-353.633-77.886-633.784,48.608
					c-35.43,53.523-246.846,381.528-453.232,888.64c-73.755,181.226-166.084,333.867-267.012,441.426
					c-101.978,108.681-203.286,161.763-293.242,153.51C1009.478,2662.834,937.906,2638.879,887.091,2537.819z"/>
			</g>
			<g>
				<path style="fill:#4CE550;" d="M3149.885,1662.886c0,0-3.124,1.103-8.637,2.757c-40.985,12.313-218.887,53.114-318.866-131.589
					c-113.578-209.514-194.26-260.973-194.26-260.973c-108.065,245.719-407.817,283.395-407.817,283.395s0.184-0.184,0.736-0.368
					c8.269-6.248,92.259-70.756,126.994-206.021c18.01-70.389,24.627-138.941,26.833-172.389
					c0.919-13.416,1.103-21.135,1.103-21.135c-388.151,160.811-586.087,6.8-595.827-1.103c-0.184-0.184-0.368-0.184-0.368-0.184
					c31.978,2.757,60.464,0.92,86.562-4.411c162.649-32.897,228.627-201.61,408-260.973
					c208.044-68.735,317.763,14.704,317.763,14.704c101.448-214.477,73.146-385.946,73.146-385.946
					c0.551-0.552,1.103-1.103,1.655-1.655c54.583-54.583,148.68-20.952,160.075,54.032c0.368,1.471,0.552,2.94,0.736,4.411
					c19.113,178.455-99.244,355.989-99.244,355.989c222.746,39.33,262.076,244.616,257.666,456.336
					C2981.906,1599.664,3149.885,1662.886,3149.885,1662.886z"/>
			</g>
			<g style="opacity:0.25;">
				<path style="fill:#390175;" d="M3141.248,1665.643c-40.985,12.313-218.887,53.114-318.866-131.589
					c-113.578-209.514-194.26-260.973-194.26-260.973c-108.065,245.719-407.817,283.395-407.817,283.395s0.184-0.184,0.736-0.368
					c14.726-7.363,240.493-124.093,346.621-392.301c10.19-25.751,39.206-38.393,64.931-28.139
					c45.005,17.938,111.914,63.092,165.896,176.743C2875.128,1473.956,2974.188,1648.735,3141.248,1665.643z"/>
			</g>
			<g style="opacity:0.25;">
				<path style="fill:#390175;" d="M2479.406,1018.317c11.286-0.361,16.433,13.971,7.303,20.615
					c-36.084,26.262-97.523,78.557-111.84,138.765c0.919-13.416,1.103-21.135,1.103-21.135
					c-388.151,160.811-586.087,6.8-595.827-1.103c7.719,3.308,132.14,54.401,392.378-51.459
					C2344.336,1034.24,2435.777,1019.714,2479.406,1018.317z"/>
			</g>
			<g style="opacity:0.6;">
				<path style="fill:#FFFFFF;" d="M2736.101,596.55c2.609,140.247-62.93,283.689-98.05,350.189
					c-11.344,21.479-37.269,30.344-59.464,20.473c-107.569-47.839-210.476-67.403-404.043,58.679
					c-206.389,134.346-299.936,126.076-308.206,124.973c162.649-32.897,228.627-201.61,408-260.973
					c208.044-68.735,317.763,14.704,317.763,14.704c101.448-214.477,73.146-385.946,73.146-385.946
					c0.551-0.552,1.103-1.103,1.655-1.655c54.583-54.583,148.68-20.952,160.075,54.032c-21.665-5.885-43.132-7.1-59.919-6.711
					C2749.586,564.719,2735.776,579.076,2736.101,596.55z"/>
			</g>
			<g>
				<path style="fill:#390175;" d="M2343.399,1141.608c23.254-51.972,81.94-87.026,135.81-98.008
					c9.295-2.083,14.868,10.168,7.349,15.858c-32.014,26.981-69.633,61.368-78.179,101.611
					C2393.92,1203.614,2332.098,1185.153,2343.399,1141.608L2343.399,1141.608z"/>
			</g>
			<g>
				<path style="fill:#390175;" d="M3054.132,1712.145c-9.126,0-18.604-0.376-28.35-1.243
					c-70.039-6.213-167.349-39.126-233.174-160.652c-67.192-124.045-122.305-190.457-153.926-222.639
					c-126.792,223.862-401.841,260.972-414.146,262.517c-15.435,1.919-30.264-6.902-35.874-21.448
					c-5.605-14.541-0.581-31.035,12.188-39.978c0.679-0.488,81.646-59.609,114.346-187.004
					c12.759-49.702,19.517-98.872,23.052-134.18c-378.784,137.3-571.904-19.265-580.274-26.292
					c-11.328-9.504-15.19-25.251-9.546-38.921c5.64-13.667,19.517-22.126,34.224-20.85
					c119.292,10.151,186.021-50.381,263.311-120.469c57.949-52.554,123.628-112.122,217.739-143.245
					c154.683-51.15,260.532-23.357,312.354-0.398c77.979-185.908,55.928-331.616,55.684-333.149
					c-1.689-10.53,1.655-21.323,9.058-28.999c0.732-0.762,1.47-1.509,2.212-2.251c34.639-34.629,85.239-45.886,132.08-29.355
					c47.842,16.878,80.898,58.374,86.274,108.294c14.8,137.546-44.976,271.736-80.356,337.209
					c220.635,67.095,242.734,302.888,239.097,479.402c-3.789,183.999,136.025,240.444,141.978,242.756
					c13.096,5.088,21.782,17.756,21.719,31.807c-0.068,14.05-8.711,26.636-21.855,31.599
					C3159.791,1695.473,3114.825,1712.143,3054.132,1712.145z M2628.092,1239.245c6.372,0,12.69,1.797,18.184,5.288
					c3.604,2.288,89.57,58.508,205.972,273.413c57.485,106.121,143.784,127.473,206.45,126.584
					c-51.724-45.266-109.126-125.454-106.406-257.432c5.42-263.052-65.405-393.284-229.648-422.268
					c-11.279-1.99-20.786-9.536-25.288-20.063c-4.502-10.53-3.389-22.62,2.964-32.148c1.094-1.65,111.226-169.749,93.604-333.477
					c-3.052-28.342-23.384-45.232-41.401-51.587c-18.037-6.365-36.543-4.319-51.553,5.291c4.6,52.727,7.798,204.529-78.252,386.345
					c-4.375,9.243-12.686,16.018-22.622,18.44c-9.854,2.395-20.249,0.271-28.359-5.803c-4.512-3.291-100.977-71.118-286.733-9.685
					c-80.479,26.616-137.92,78.711-193.472,129.089c-55.19,50.049-111.655,101.252-188.462,125.217
					c11.445,3.323,23.843,6.409,37.197,9.087c85.2,17.09,227.686,20.483,422.632-60.359c10.635-4.399,22.744-3.125,32.202,3.376
					c9.468,6.506,15,17.366,14.692,28.85c-0.107,4.033-2.915,99.949-28.892,201.16c-14.59,56.821-37.256,102.185-60.2,136.904
					c90.723-32.375,216.563-100.09,276.348-235.967c3.984-9.05,11.719-15.911,21.177-18.787
					C2621.456,1239.731,2624.781,1239.245,2628.092,1239.245z"/>
			</g>
		</g>
		<g style="opacity:0.25;">
			<ellipse style="fill:#390175;" cx="2027.592" cy="3514.822" rx="709.237" ry="60.178"/>
		</g>
	</g>
</g>
</svg>
