<?xml version="1.0" encoding="utf-8"?>
<!-- Generator: Adobe Illustrator 27.5.0, SVG Export Plug-In . SVG Version: 6.00 Build 0)  -->
<svg version="1.1" id="Layer_1" xmlns="http://www.w3.org/2000/svg" xmlns:xlink="http://www.w3.org/1999/xlink" x="0px" y="0px"
	 viewBox="0 0 4000 4000" style="enable-background:new 0 0 4000 4000;" xml:space="preserve">
<g>
	<g>
		<!-- <g>
			<rect style="fill:#9D91FF;" width="4000" height="4000"/>
		</g> -->
	</g>
	<g>
		<g style="opacity:0.3;">
			<g>
				<ellipse style="fill:#371A45;" cx="2004.655" cy="3339.95" rx="950.502" ry="159.5"/>
			</g>
		</g>
		<g>
			<g>
				<g>
					<path style="fill:#6A5B75;stroke:#371A45;stroke-width:0;stroke-miterlimit:10;" d="M3157.855,1685.6
						c-0.5-1.95-1.051-3.8-1.7-5.65c-5.45-16.95-15.4-31.15-29.701-42.15c-65-50.2-211.549,15.85-454.8,83.8
						c-0.049,0-0.1,0.05-0.149,0.05c-8.601-397.05-81.201-688.05-310.2-821.4c-0.05-0.05-0.1,0-0.1,0l-0.05-0.05
						c-0.05-0.05-0.05-0.05-0.05-0.05c-92.7-53.9-211.05-82-361.1-80.8c-521-4.1-659.451,344.45-671.5,902.3
						c-243.3-67.95-389.95-134.05-454.95-83.85c-98,75.7,8.05,300.2,348.3,542.1l9.2-39.3l0.15,0.15
						c-118.251,481.6-20.15,803.9,258.4,976.9c57.3,35.55,122.2,64.8,194.4,87.85c205.3,65.45,426.7,65.45,632,0
						c428.45-136.65,599.399-492.45,447.6-1085.45l0.449-0.25l14.1,60.1c251.2-178.55,374.75-347.65,382.8-454.4c0,0,0-0.05,0-0.1
						C3162.004,1710.95,3160.955,1697.6,3157.855,1685.6z M2671.554,1725.35v-0.45l0.1,0.5L2671.554,1725.35z"/>
				</g>
			</g>
			<g style="opacity:0.55;">
				<g>
					<path style="fill:#FFFFFF;" d="M3126.454,1637.8c-62.05-47.95-230.9,19.35-454.949,83.85
						c0.549,16.15,8.216,27.634,8.566,44.183c235.499-65.75,405.583-134.133,473.583-92.683
						C3147.904,1659.2,3138.805,1647.3,3126.454,1637.8z M2797.804,2159.65l-0.449,0.25c0.449,1.75,0.9,3.5,1.3,5.2
						c0.1-0.05,0.25-0.15,0.35-0.25L2797.804,2159.65z M1255.804,2219.5c6.25-27.85,11.85-55.8,16.35-83.95
						c2.55-16.15-10.4-30.6-26.75-29.8l-1.6,0.1c0,0-23.4,80.9-24.75,87.35c-79.85,366.4-28.95,636.15,135.65,814.05
						C1215.355,2827.5,1177.704,2566.25,1255.804,2219.5z"/>
				</g>
			</g>
			<g style="opacity:0.55;">
				<g>
					<path style="fill:#FFFFFF;" d="M2502.405,1025.4c-102.7-109.1-252.85-167.9-468.65-166.2
						c-512.918-4.036-655.063,333.72-670.847,876.489c-0.514,17.679-2.864,35.269-6.891,52.491l-36.362,155.521l8.1-192
						c-222.75-64.25-358.6-121.85-420.45-74.05c-60.9,47.05-43,151.55,60.9,282c-133.3-148.85-161.65-270.1-94.65-321.85
						c65-50.2,211.65,15.9,454.95,83.85c12.049-557.85,150.5-906.4,671.5-902.3C2240.754,817.45,2399.805,890.85,2502.405,1025.4z"
						/>
				</g>
			</g>
			<g style="opacity:0.55;">
				<g>
					<g>
						<path style="fill:#FFFFFF;" d="M2671.554,1724.9v0.45l0.1,0.05L2671.554,1724.9z"/>
					</g>
				</g>
				<g>
					<g>
						<path style="fill:none;stroke:#371A45;stroke-width:0;stroke-miterlimit:10;" d="M2671.554,1724.9v0.45l0.1,0.05
							L2671.554,1724.9z"/>
					</g>
				</g>
			</g>
			<g>
				<g>
					<path style="fill:#FFB127;" d="M1880.005,3247.65c-1.15,93.3-112.85,109.2-169.301,60.9c-8.95,12.05-18,22.5-27.1,31.35
						c-19.95,19.4-40.25,31.25-60.35,36.1c-54.25,13.2-107.25-24.45-148.7-102.55c-2.5,0.85-4.95,1.65-7.35,2.4
						c-154,48.05-217-53.3,29.5-153.85l178.351,58.45L1880.005,3247.65z"/>
				</g>
			</g>
			<g style="opacity:0.6;">
				<g>
					<path style="fill:#FFFFFF;" d="M1880.005,3247.65c-0.05,5.3,0.699,0.5-0.05,5.3l-360.05-107.8
						c-128.151,52.3-172.65,104.75-164.2,136.35c-51.5-21.3-27.95-90.55,141-159.5L1880.005,3247.65z"/>
				</g>
			</g>
			<g style="opacity:0.3;">
				<g>
					<path style="fill:#371A45;" d="M1880.005,3247.65c-1.15,93.3-112.85,109.2-169.301,60.9c-8.95,12.05-18,22.5-27.1,31.35
						c-19.95,19.4-40.25,31.25-60.35,36.1c27.8-19.6,47.65-50.25,54.2-83.65c6.7-34.5-0.9-71.6-20.651-100.65l18.251-11.25
						L1880.005,3247.65z"/>
				</g>
			</g>
			<g style="opacity:0.6;">
				<g>
					<path style="fill:#FFFFFF;" d="M1691.255,3312.6c-0.2,1.1-2.7,12.15-7.65,27.3c-73.75,71.65-152.25,40.6-209.05-66.45
						c-2.5,0.85-4.95,1.65-7.35,2.4l-2.9-43.85l0,0c13.86-3.835,28.364,3.122,34.142,16.291
						c14.154,32.258,45.984,87.447,100.358,95.059C1674.155,3353.85,1690.405,3314.75,1691.255,3312.6z"/>
				</g>
			</g>
			<g>
				<g>
					<path style="fill:#FFB127;" d="M2532.855,3273.45c-63.801,120.3-155.051,144.65-236.101,35.1
						c-56.45,48.3-168.149,32.4-169.349-60.9l113.3-37.15l240.15-78.7l29.85-9.8C2761.105,3224.15,2692.205,3327.1,2532.855,3273.45
						z"/>
				</g>
			</g>
			<g>
				<g>
					<path style="fill:#FFFFFF;" d="M2683.354,2970.8c-386.597,444.2-1155.266,293.604-1357.4,0
						c-194.55-285.25-50.75-549.95,18.1-648.4c36.85-52.7,68.2-109.15,91.85-168.95c62.05-156.85,45.55-261.4,24.3-591.8
						c-21.1-198.8,94.1-377.8,233.3-417.3c92.85-26.4,200.25,20.8,278.75,178c13.85,27.7,53.299,27.85,67.9,0.55
						c90.15-168.75,197.95-209.65,295.8-171.8c129.95,50.25,233.199,221.4,213.151,410.55c-21.25,330.4-37.75,434.95,24.249,591.8
						c23.7,59.8,55.05,116.25,91.901,168.95C2734.054,2420.85,2877.855,2685.55,2683.354,2970.8z"/>
				</g>
			</g>
			<g style="opacity:0.3;">
				<g>
					<path style="fill:#371A45;" d="M2532.855,3273.45c-63.801,120.3-155.051,144.65-236.101,35.1
						c-56.45,48.3-168.149,32.4-169.349-60.9l113.3-37.15c8.5,2.05,17,4.15,25.551,6.1c41.899,9.65,67.45,55.1,108.7,67.35
						c36.499,10.85,77.849-9.2,97.8-41.65c19.9-32.5,20.449-74.3,7.999-110.3c0.05-0.05,0.05-0.15,0.1-0.2l29.85-9.8
						C2761.105,3224.15,2692.205,3327.1,2532.855,3273.45z"/>
				</g>
			</g>
			<g style="opacity:0.3;">
				<g>
					<path style="fill:#371A45;" d="M2044.655,1511.05c225,110.507,221.667,272.283,46.666,200.617"/>
				</g>
			</g>
			<g>
				<g>
					<path style="fill:#371A45;" d="M2021.421,834.712c-57.329-1.223-114.7,1.294-170.999,9.99
						c-56.243,8.682-111.433,23.726-162.759,47.224c-51.528,23.096-97.957,56.321-137.561,96.204
						c-10.298,9.609-19.072,20.684-28.372,31.252c-4.785,5.178-8.765,11.033-13.04,16.638l-12.678,16.943l-11.521,17.803
						c-3.765,5.981-7.91,11.716-11.196,18.013l-10.405,18.53c-1.702,3.105-3.542,6.133-5.134,9.302l-4.656,9.58
						c-25.295,50.847-44.253,104.998-58.706,160.386c-14.285,55.469-24.309,112.168-31.282,169.287
						c-1.702,14.292-3.562,28.552-4.822,42.913c-1.355,14.343-3.083,28.638-4.138,43.02l-3.325,43.127
						c-0.767,14.412-1.858,28.801-2.771,43.206c-1.465,28.835-3.43,57.668-4.353,86.577c-0.605,14.448-1.956,28.879-3.464,43.34
						c-1.743,14.458-3.833,28.921-7.644,43.416l-0.034,0.129c-0.723,2.744-3.53,4.382-6.272,3.66
						c-1.902-0.5-3.274-2.012-3.694-3.801c-6.763-29.089-8.845-58.286-8.789-87.458c0.037-14.583,0.19-29.167,0.63-43.757
						c0.386-14.592,0.593-29.185,1.389-43.772c0.774-14.585,1.372-29.185,2.297-43.762l3.503-43.721
						c2.686-29.128,5.586-58.259,9.844-87.263c8.164-58.01,18.699-115.862,33.84-172.771
						c14.998-56.895,34.473-112.996,60.957-166.169l4.873-10.005c1.667-3.315,3.594-6.506,5.381-9.763l10.923-19.451
						c3.457-6.584,7.815-12.668,11.782-18.967l12.161-18.757l13.403-17.944c4.526-5.935,8.752-12.102,13.821-17.622
						c9.856-11.243,19.202-22.949,30.144-33.215c42.117-42.463,91.802-77.908,146.34-102.363
						c54.353-24.895,112.285-40.606,170.725-49.629c58.516-9.036,117.62-11.592,176.384-10.337
						c8.281,0.176,14.854,7.034,14.675,15.315c-0.176,8.284-7.034,14.853-15.315,14.678L2021.421,834.712z"/>
				</g>
			</g>
			<g>
				<g>
					<path style="fill:#371A45;" d="M1213.178,2192.102c-237.769-169.028-387.007-350.845-389.468-474.497
						c-0.771-38.816,13.301-70.522,40.698-91.689c55.986-43.25,153.145-13.53,314.121,35.696
						c45.913,14.041,97.949,29.954,154.653,45.784l-8.066,28.897c-57.061-15.928-109.282-31.9-155.361-45.991
						c-146.514-44.805-243.291-74.397-287.007-40.645c-19.858,15.342-29.629,38.003-29.043,67.354
						c1.782,89.609,101.724,255.054,376.855,450.64L1213.178,2192.102z"/>
				</g>
			</g>
			<g>
				<g>
					<path style="fill:#371A45;" d="M1977.815,804.722c58.765-1.255,117.869,1.301,176.384,10.337
						c58.44,9.023,116.37,24.734,170.725,49.629c54.536,24.456,104.221,59.9,146.34,102.363
						c10.942,10.266,20.286,21.973,30.144,33.215c5.068,5.52,9.294,11.687,13.821,17.622l13.401,17.944l12.161,18.757
						c3.97,6.299,8.328,12.383,11.785,18.967l10.923,19.451c1.785,3.257,3.713,6.448,5.381,9.763l4.873,10.005
						c26.516,53.164,45.886,109.294,61.03,166.15c15.083,56.924,25.728,114.758,33.862,172.778
						c4.26,29.004,7.019,58.152,9.763,87.273l3.501,43.723l2.241,43.765c0.811,14.587,0.947,29.182,1.37,43.77
						c0.432,14.592,0.64,29.175,0.623,43.76c-0.01,29.172-2.158,58.367-8.718,87.456c-0.623,2.761-3.367,4.495-6.13,3.872
						c-1.958-0.442-3.401-1.951-3.85-3.777l-0.02-0.083c-7.095-28.987-9.321-57.874-11.038-86.755
						c-0.981-28.909-2.849-57.747-4.38-86.58l-2.83-43.203l-3.328-43.125c-2.561-28.704-5.427-57.38-9.041-85.92
						c-7-57.112-16.919-113.828-31.257-169.282c-14.309-55.425-33.372-109.548-58.633-160.405l-4.656-9.58
						c-1.594-3.169-3.433-6.196-5.137-9.302l-10.403-18.53c-3.286-6.296-7.432-12.031-11.196-18.013l-11.523-17.803l-12.676-16.943
						c-4.275-5.605-8.257-11.46-13.04-16.638c-9.299-10.569-18.074-21.643-28.372-31.252
						c-39.604-39.883-86.035-73.108-137.563-96.204c-51.323-23.499-106.516-38.542-162.756-47.224
						c-56.301-8.696-113.669-11.213-171.001-9.99l-0.142,0.003c-8.284,0.176-15.139-6.394-15.317-14.678
						C1962.961,811.755,1969.531,804.898,1977.815,804.722z"/>
				</g>
			</g>
			<g>
				<g>
					<path style="fill:#371A45;" d="M2762.686,2096.56c4.478,7.81,8.159,15.859,11.572,23.989
						c3.489,8.113,6.553,16.348,9.402,24.644c5.652,16.609,9.312,33.733,13.394,50.74c7.625,34.15,14.634,68.484,20.081,103.13
						l2.17,12.966l1.772,13.04l3.489,26.086c1.23,8.687,2.078,17.427,2.854,26.177l2.466,26.23
						c0.962,8.728,1.282,17.524,1.829,26.299l1.514,26.328c0.63,17.578,0.867,35.19,1.023,52.786
						c-0.649,70.427-7.871,141.062-23.613,210.12c-2.063,8.606-4.478,17.139-6.704,25.708l-3.408,12.842
						c-1.145,4.277-2.666,8.455-3.982,12.686l-8.193,25.308l-9.46,24.885l-4.766,12.432l-5.464,12.153
						c-3.694,8.079-7.188,16.252-11.055,24.248c-8.318,15.715-16.074,31.736-25.64,46.765
						c-8.787,15.491-19.194,29.951-29.233,44.644c-5.205,7.209-10.854,14.099-16.267,21.16l-8.23,10.508l-8.813,10.022
						c-22.991,27.2-49.116,51.55-76.37,74.285l-20.818,16.621c-7.134,5.273-14.426,10.327-21.636,15.496l-10.857,7.69l-11.226,7.119
						c-7.502,4.712-14.929,9.558-22.5,14.15l-23.13,13.04c-3.877,2.129-7.666,4.436-11.616,6.418l-11.858,5.933
						c-7.922,3.921-15.776,7.991-23.757,11.78l-24.219,10.72c-129.697,55.742-270.564,83.459-411.431,83.877
						c-140.867-0.417-281.733-28.135-411.431-83.877l-24.221-10.72c-7.979-3.789-15.835-7.859-23.755-11.78l-11.858-5.933
						c-3.953-1.982-7.739-4.29-11.616-6.418l-23.13-13.04c-7.571-4.592-14.998-9.438-22.5-14.15l-11.226-7.119l-10.857-7.69
						c-7.209-5.168-14.502-10.222-21.636-15.496l-20.818-16.621c-27.253-22.734-53.379-47.085-76.37-74.285l-8.813-10.022
						l-8.23-10.508c-5.413-7.061-11.062-13.95-16.27-21.16c-10.039-14.692-20.447-29.153-29.233-44.644
						c-9.563-15.029-17.319-31.05-25.637-46.765c-3.867-7.996-7.361-16.169-11.055-24.248l-5.464-12.153l-4.768-12.432
						c-3.142-8.298-6.421-16.553-9.441-24.893l-8.12-25.327c-1.301-4.236-2.81-8.416-3.943-12.695l-3.369-12.849
						c-2.227-8.569-4.644-17.097-6.711-25.703c-15.815-69.036-22.81-139.675-23.567-210.081c0.193-17.59,0.269-35.205,0.874-52.783
						l1.511-26.328c0.547-8.772,0.864-17.568,1.826-26.296c3.02-35.002,6.96-69.907,12.678-104.507
						c5.461-34.644,12.473-68.979,20.149-103.118c3.987-17.029,8.079-34.053,13.66-50.674c2.859-8.291,6.003-16.506,9.37-24.646
						c3.406-8.132,6.946-16.216,11.289-24.063c1.377-2.488,4.514-3.389,7.004-2.012c1.677,0.93,2.634,2.659,2.656,4.451v0.139
						c0.088,8.987-0.632,17.732-1.479,26.431c-0.891,8.689-2.004,17.305-3.401,25.845c-2.632,17.112-5.691,34.072-9.438,50.891
						c-6.721,33.789-12.629,67.703-17.712,101.699c-4.922,34.021-9.207,68.096-12.163,102.28
						c-0.964,8.533-1.289,17.095-1.841,25.647l-1.543,25.662c-0.679,17.112-1.047,34.229-1.431,51.345
						c-0.281,68.43,6.143,136.826,20.945,203.308c1.936,8.284,4.209,16.479,6.294,24.724l3.23,12.341
						c1.084,4.114,2.537,8.108,3.787,12.168l7.771,24.268c2.893,7.979,6.035,15.859,9.036,23.796l4.548,11.887l5.222,11.592
						c3.528,7.705,6.853,15.513,10.537,23.14c7.947,14.956,15.308,30.247,24.424,44.529c8.347,14.756,18.271,28.481,27.798,42.468
						c4.951,6.858,10.337,13.398,15.476,20.117l7.82,9.998l8.391,9.526c21.848,25.881,46.748,49.055,72.751,70.762l19.878,15.881
						c6.826,5.037,13.813,9.871,20.708,14.819l10.386,7.368l10.771,6.819c7.2,4.517,14.314,9.17,21.58,13.582l22.241,12.529
						c3.73,2.048,7.361,4.272,11.172,6.179l11.431,5.715c7.639,3.774,15.2,7.703,22.898,11.36l23.406,10.354l11.714,5.151
						l11.938,4.651l23.875,9.312l24.258,8.342c8.108,2.725,16.138,5.681,24.385,7.974l24.597,7.319
						c8.171,2.544,16.545,4.353,24.807,6.567c16.511,4.507,33.276,7.939,50.007,11.521c8.335,1.951,16.809,3.188,25.225,4.717
						c8.438,1.406,16.831,3.093,25.305,4.272c16.97,2.166,33.87,4.946,50.938,6.279c8.518,0.786,17.024,1.711,25.552,2.39
						l25.623,1.472l12.815,0.706l12.83,0.244l25.662,0.496l25.662-0.496l12.83-0.244l12.813-0.706l25.625-1.472
						c8.525-0.679,17.034-1.604,25.552-2.39c17.068-1.333,33.967-4.114,50.938-6.279c8.474-1.179,16.868-2.866,25.305-4.272
						c8.416-1.528,16.89-2.766,25.222-4.717c16.731-3.582,33.499-7.014,50.01-11.521c8.262-2.214,16.636-4.023,24.807-6.567
						l24.597-7.319c8.247-2.292,16.277-5.249,24.382-7.974l24.26-8.342l23.872-9.312l11.938-4.651l11.716-5.151l23.403-10.354
						c7.698-3.657,15.261-7.585,22.9-11.36l11.431-5.715c3.811-1.907,7.441-4.131,11.169-6.179l22.241-12.529
						c7.268-4.412,14.382-9.065,21.582-13.582l10.771-6.819l10.386-7.368c6.895-4.949,13.882-9.783,20.708-14.819l19.875-15.881
						c26.006-21.707,50.906-44.88,72.754-70.762l8.391-9.526l7.817-9.998c5.142-6.719,10.525-13.259,15.476-20.117
						c9.529-13.987,19.453-27.712,27.798-42.468c9.119-14.282,16.477-29.573,24.424-44.529c3.687-7.627,7.009-15.435,10.537-23.14
						l5.225-11.592l4.548-11.887c2.991-7.939,6.157-15.813,9.014-23.801l7.7-24.292c1.235-4.063,2.678-8.062,3.748-12.175
						l3.193-12.349c2.085-8.245,4.36-16.438,6.299-24.717c14.878-66.462,21.074-134.863,20.901-203.271
						c-0.42-17.112-0.63-34.231-1.284-51.34l-1.538-25.664c-0.554-8.55-0.876-17.114-1.841-25.647
						c-3.027-34.17-7.119-68.271-12.087-102.285c-5.1-33.997-11.008-67.91-17.783-101.687c-3.65-16.838-7.144-33.701-9.702-50.825
						c-1.406-8.535-2.6-17.129-3.369-25.847c-0.842-8.701-1.418-17.483-1.199-26.504l0.005-0.132
						c0.071-2.854,2.441-5.112,5.298-5.044C2760.195,2094.009,2761.814,2095.051,2762.686,2096.56z"/>
				</g>
			</g>
			<g>
				<g>
					<path style="fill:#371A45;" d="M2786.841,2192.102l-17.383-24.453c275.132-195.586,375.073-361.03,376.855-450.64
						c0.586-29.351-9.185-52.012-29.043-67.354c-43.706-33.767-140.503-4.155-287.017,40.645
						c-46.074,14.092-98.296,30.063-155.352,45.991l-8.066-28.897c56.704-15.83,108.735-31.741,154.644-45.781
						c160.981-49.231,258.149-78.948,314.131-35.698c27.397,21.167,41.47,52.874,40.698,91.689
						C3173.847,1841.257,3024.609,2023.073,2786.841,2192.102z"/>
				</g>
			</g>
			<g>
				<g>
					<g>
						
							<ellipse transform="matrix(0.0775 -0.997 0.997 0.0775 115.1822 3102.6555)" style="fill:#371A45;" cx="1734.257" cy="1489.084" rx="147.134" ry="106.531"/>
					</g>
				</g>
				<g>
					<g>
						
							<ellipse transform="matrix(0.0775 -0.997 0.997 0.0775 162.8014 3112.1287)" style="fill:#FFFFFF;" cx="1763.183" cy="1468.087" rx="49.407" ry="32.188"/>
					</g>
				</g>
			</g>
			<g>
				<g>
					<g>
						
							<ellipse transform="matrix(0.997 -0.0775 0.0775 0.997 -108.6168 180.8301)" style="fill:#371A45;" cx="2274.258" cy="1489.084" rx="106.531" ry="147.134"/>
					</g>
				</g>
				<g>
					<g>
						
							<ellipse transform="matrix(0.997 -0.0775 0.0775 0.997 -107.0736 178.5199)" style="fill:#FFFFFF;" cx="2245.332" cy="1468.087" rx="32.188" ry="49.407"/>
					</g>
				</g>
			</g>
			<g>
				<g>
					<g>
						<path style="fill:#371A45;" d="M2099.231,1660.522c0,39.692-9.815,70.347-25.034,91.965
							c-35.844,51.15-101.694,51.668-138.186,1.47c-15.738-21.662-26.029-52.836-26.029-93.435"/>
					</g>
				</g>
				<g>
					<g>
						<path style="fill:#FFB127;" d="M2105.132,1654.25l-91.15,14.8c-1.701,0.3-3.351,0.5-5.05,0.6c-4.7,0.4-9.451,0.15-14.15-0.6
							l-90.6-14.7c-12.699-2.1-19.85-15.75-14.4-27.4c37.3-79.2,78.55-117.7,119.15-115.9c38.85,1.8,77.1,40.6,110.75,116.2
							C2124.832,1638.85,2117.682,1652.2,2105.132,1654.25z"/>
					</g>
				</g>
				<g style="opacity:0.6;">
					<g>
						<path style="fill:#FFFFFF;" d="M2053.007,1525.847c-5.3-1.65-10.599-2.6-15.95-2.85c-40.601-1.8-81.851,36.7-119.15,115.9
							c-2.65,5.65-2.3,11.8,0.15,16.85l-9.5-1.55c-12.699-2.1-19.85-15.75-14.4-27.4c37.3-79.2,78.55-117.7,119.15-115.9
							C2026.657,1511.496,2039.957,1516.496,2053.007,1525.847z"/>
					</g>
				</g>
				<g>
					<g>
						<path style="fill:#EB5463;" d="M2074.197,1752.488c-35.844,51.15-101.694,51.668-138.186,1.47
							c-0.043-0.692-0.043-1.081-0.043-1.081C1981.064,1717.033,2027.111,1716.903,2074.197,1752.488z"/>
					</g>
				</g>
				<g>
					<g>
						<path style="fill:#371A45;" d="M2004.385,1684.826c-4.009,0-8.013-0.322-11.992-0.967l-90.62-14.719
							c-10.723-1.743-19.785-8.264-24.854-17.893c-5.078-9.643-5.332-20.823-0.688-30.674
							c38.94-82.656,82.632-124.558,129.863-124.558c0.288,0,0.576,0.002,0.864,0.005c47.163,0.508,89.702,42.607,126.436,125.132
							c4.37,9.822,3.94,20.879-1.172,30.342c-5.103,9.438-14.097,15.837-24.678,17.556l-91.162,14.81
							C2012.397,1684.504,2008.388,1684.826,2004.385,1684.826z M2006.152,1526.015c-33.672,0-70.151,38.089-102.783,107.346
							c-0.806,1.714-0.288,3.184,0.093,3.906c0.376,0.715,1.284,1.96,3.125,2.258l90.615,14.719c4.756,0.776,9.604,0.776,14.37,0
							l91.162-14.807c0.005-0.002,0.005-0.002,0.005-0.002c1.807-0.293,2.715-1.511,3.091-2.209
							c0.386-0.713,0.918-2.163,0.151-3.877c-30.645-68.855-65.928-106.973-99.351-107.332
							C2006.474,1526.015,2006.313,1526.015,2006.152,1526.015z"/>
					</g>
				</g>
				<g>
					<g>
						<path style="fill:#371A45;" d="M2004.59,1804.201c-30.576,0-59.355-15.498-79.072-42.617
							c-18.652-25.674-28.506-60.615-28.506-101.062c0-7.163,5.806-12.971,12.969-12.971s12.969,5.808,12.969,12.971
							c0,34.929,8.145,64.602,23.555,85.813c14.766,20.313,35.918,31.924,58.096,31.924c0.186,0,0.366,0,0.552,0
							c22.476-0.195,43.77-12.3,58.428-33.218c14.844-21.084,22.686-50.303,22.686-84.519c0-7.163,5.806-12.971,12.969-12.971
							s12.969,5.808,12.969,12.971c0,39.592-9.473,73.977-27.397,99.431c-19.512,27.842-48.467,43.979-79.429,44.248
							C2005.117,1804.201,2004.853,1804.201,2004.59,1804.201z"/>
					</g>
				</g>
				<g style="opacity:0.3;">
					<g>
						<path style="fill:#371A45;" d="M2105.132,1654.25l-91.15,14.8c-1.701,0.3-3.351,0.5-5.05,0.6v-158.6
							c38.85,1.8,77.1,40.6,110.75,116.2C2124.832,1638.85,2117.682,1652.2,2105.132,1654.25z"/>
					</g>
				</g>
			</g>
			<g>
				<g>
					<path style="fill:#371A45;" d="M1601.816,3393.615c-2.583,0-5.078-0.103-7.48-0.278
						c-47.153-3.525-90.879-38.682-126.963-101.885c-74.136,22.031-134.185,12.158-148.12-25.303
						c-17.783-47.808,46.445-106.885,171.812-158.027c7.637-3.125,16.416,0.547,19.551,8.223c3.13,7.666-0.552,16.421-8.223,19.551
						c-126.24,51.504-162.085,100.811-155.024,119.795c6.206,16.67,52.197,27.178,122.427,3.53
						c6.953-2.344,14.595,0.698,18.037,7.183c31.66,59.688,70.278,94.141,108.74,97.017c34.058,2.583,69.307-19.512,102.056-63.784
						c2.476-3.345,6.23-5.513,10.366-5.982c4.165-0.454,8.281,0.801,11.44,3.501c27.612,23.603,71.499,29.917,104.36,15.039
						c18.086-8.198,39.751-26.079,40.234-64.722c0.103-8.223,6.802-14.815,14.995-14.815c0.063,0,0.127,0,0.19,0
						c8.286,0.103,14.917,6.904,14.814,15.186c-0.522,41.841-21.611,75.254-57.852,91.675
						c-38.892,17.617-87.607,13.144-123.647-10.186C1671.147,3381.13,1630.815,3393.615,1601.816,3393.615z"/>
				</g>
			</g>
			<g>
				<g>
					<path style="fill:#371A45;" d="M1468.396,3224.702c1.135,3.494,2.634,7.505,4.182,11.211c1.558,3.77,3.25,7.507,5,11.206
						c3.513,7.4,7.307,14.663,11.306,21.809c4.133,7.383,1.499,16.719-5.886,20.852c-7.383,4.133-16.719,1.497-20.85-5.886
						c-1.013-1.809-1.619-3.733-1.848-5.671l-0.029-0.281c-0.989-8.679-1.729-17.393-2.131-26.121
						c-0.198-4.365-0.32-8.73-0.298-13.115c0.024-4.448,0.142-8.63,0.571-13.408c0.251-2.773,2.7-4.819,5.474-4.568
						c2.073,0.186,3.738,1.599,4.343,3.459L1468.396,3224.702z"/>
				</g>
			</g>
			<g>
				<g>
					<path style="fill:#371A45;" d="M1698.984,3299.172c4.797-4.512,9.194-7.959,13.997-11.599
						c4.756-3.535,9.609-6.897,14.722-9.946c10.164-6.047,21.27-11.338,33.516-13.083c2.749-0.393,5.298,1.519,5.688,4.268
						c0.317,2.224-0.874,4.316-2.798,5.242l-0.325,0.154c-8.962,4.299-16.616,11.284-23.479,18.95
						c-3.438,3.835-6.638,7.947-9.68,12.126c-2.954,4.116-6.057,8.699-8.237,12.659c-4.053,7.366-13.308,10.054-20.676,6.001
						c-7.366-4.053-10.051-13.311-5.999-20.676c0.776-1.411,1.743-2.651,2.854-3.704L1698.984,3299.172z"/>
				</g>
			</g>
			<g>
				<g>
					<path style="fill:#371A45;" d="M2405.63,3393.615c-28.999,0-69.331-12.48-111.714-64.282
						c-36.035,23.335-84.766,27.798-123.647,10.186c-36.24-16.421-57.329-49.834-57.852-91.675
						c-0.103-8.281,6.528-15.083,14.814-15.186c8.12-0.059,15.083,6.529,15.186,14.815c0.483,38.643,22.148,56.523,40.234,64.722
						c32.861,14.888,76.748,8.564,104.36-15.039c3.159-2.7,7.295-3.994,11.44-3.501c4.136,0.469,7.891,2.637,10.366,5.982
						c32.744,44.268,67.998,66.377,102.051,63.784c38.462-2.876,77.085-37.329,108.745-97.017
						c3.442-6.484,11.084-9.526,18.037-7.183c70.234,23.643,116.221,13.135,122.427-3.53
						c7.061-18.984-28.784-68.291-155.024-119.795c-7.671-3.13-11.353-11.885-8.223-19.551c3.125-7.676,11.895-11.343,19.551-8.223
						c125.366,51.143,189.595,110.219,171.812,158.027c-13.931,37.461-73.979,47.339-148.12,25.303
						c-36.084,63.203-79.814,98.359-126.968,101.885C2410.708,3393.513,2408.213,3393.615,2405.63,3393.615z"/>
				</g>
			</g>
			<g>
				<g>
					<path style="fill:#371A45;" d="M2549.031,3225.298c0.43,4.778,0.547,8.96,0.571,13.408c0.022,4.385-0.1,8.75-0.298,13.115
						c-0.403,8.728-1.143,17.441-2.131,26.121l-0.022,0.203c-0.959,8.408-8.55,14.446-16.958,13.489
						c-8.406-0.957-14.446-8.55-13.486-16.956c0.234-2.061,0.908-4.043,1.853-5.75c4.001-7.146,7.793-14.409,11.306-21.809
						c1.75-3.699,3.442-7.437,5-11.206c1.548-3.706,3.047-7.717,4.182-11.211l0.166-0.508c0.859-2.649,3.704-4.099,6.353-3.24
						C2547.544,3221.599,2548.853,3223.352,2549.031,3225.298z"/>
				</g>
			</g>
			<g>
				<g>
					<path style="fill:#371A45;" d="M2285.056,3317.942c-2.178-3.96-5.283-8.542-8.237-12.659c-3.042-4.18-6.243-8.291-9.68-12.126
						c-6.863-7.666-14.517-14.651-23.479-18.95l-0.317-0.151c-2.505-1.201-3.562-4.204-2.361-6.709
						c0.972-2.026,3.13-3.103,5.244-2.803c12.246,1.746,23.352,7.036,33.516,13.083c5.112,3.049,9.966,6.411,14.722,9.946
						c4.802,3.64,9.199,7.087,13.997,11.599l0.366,0.347c6.123,5.762,6.416,15.396,0.654,21.519s-15.396,6.416-21.519,0.654
						C2286.787,3320.586,2285.798,3319.28,2285.056,3317.942z"/>
				</g>
			</g>
			<g>
				<g>
					<path style="fill:#6A5B75;stroke:#371A45;stroke-width:0;stroke-miterlimit:10;" d="M1954.655,866.667
						c-125-231.667,98.989-341.821,119.463-92.746c74.897-130.588,240.537-24.464,42.203,92.746"/>
				</g>
			</g>
			<g style="opacity:0.55;">
				<g>
					<path style="fill:#FFFFFF;" d="M2044.755,670c-62.15-45.8-135.934,49.583-88.85,190l-1.25,6.65
						C1853.154,678.5,1981.804,570.5,2044.755,670z"/>
				</g>
			</g>
			<g style="opacity:0.55;">
				<g>
					<path style="fill:#FFFFFF;" d="M2208.354,744.75c-23.805-10.898-60.19-5.075-90.3,26.881
						c-13.694,14.535-38.489,8.601-43.295-10.782l-0.105-0.433C2119.604,707.317,2196.854,707,2208.354,744.75z"/>
				</g>
			</g>
			<g>
				<g>
					<path style="fill:#371A45;" d="M1950.254,869.041c-14.604-14.019-25.444-31.028-32.673-49.634
						c-3.918-9.177-6.506-18.913-9.456-28.533c-1.321-4.868-2.266-9.863-3.325-14.814c-1.187-4.922-1.772-10.005-2.427-15.076
						c-2.595-20.242-2.427-41.277,2.195-62.019c4.7-20.603,13.721-41.243,29.519-57.842c8.03-8.179,17.837-15.078,29.102-19.551
						c11.387-4.304,24.189-5.293,36.179-3.11c12.227,1.938,22.839,7.913,32.068,14.59c4.373,3.613,8.865,7.183,12.358,11.409
						c1.836,2.051,3.774,4.058,5.496,6.172l4.7,6.572c12.246,17.708,19.663,37.143,25.083,56.58l3.662,14.663l2.622,14.736
						c0.986,4.912,1.553,9.831,2.063,14.751l1.648,14.756l-27.961-6.233c7.7-13.025,16.853-25.464,28.152-36.267
						c11.265-10.774,24.744-19.876,40.105-25.469l5.798-1.997c1.941-0.645,4.006-0.996,6.008-1.494
						c3.989-1.067,8.152-1.56,12.336-1.963c4.141-0.569,8.474-0.203,12.703-0.215c4.29,0.618,8.584,0.769,12.844,2.083
						c8.542,1.887,16.921,5.908,24.37,11.445c7.546,5.452,13.684,13.411,17.473,22.173c2.124,4.375,3.076,9.004,4.111,13.633
						c0.437,2.307,0.469,4.602,0.674,6.916c0.2,2.324,0.303,4.629,0.034,6.834l-0.576,6.709c-0.293,2.195-0.872,4.25-1.321,6.384
						c-0.825,4.338-2.278,8.24-3.806,12.141c-6.206,15.51-15.762,28.167-26.199,39.16c-21.211,21.555-46.06,37.961-74.949,44.441
						c-2.832,0.635-5.642-1.147-6.279-3.979c-0.376-1.682,0.1-3.357,1.14-4.573l0.051-0.056
						c18.923-21.794,39.746-38.198,56.577-57.334c8.157-9.573,15.461-19.568,19.89-29.824c4.355-10.149,6.025-20.574,2.483-28.425
						c-1.626-3.955-4.07-7.605-7.798-10.342c-3.589-2.803-7.971-5.149-13.047-6.172c-9.924-2.71-21.526-1.177-32.234,2.637
						c-10.806,3.919-20.945,10.608-29.727,19.038c-8.818,8.435-16.321,18.547-22.793,29.443c-4.25,7.156-13.499,9.512-20.657,5.259
						c-4.192-2.49-6.738-6.697-7.271-11.194l-0.034-0.3l-1.528-13.601c-0.466-4.546-0.979-9.077-1.885-13.499l-2.363-13.362
						l-3.264-13.018c-4.739-17.119-11.267-33.669-20.735-47.29l-3.567-5.056c-1.284-1.563-2.695-2.954-4.019-4.453
						c-2.544-3.191-5.625-5.435-8.533-7.939c-6.096-4.275-12.522-8.096-19.299-8.896c-6.692-1.025-13.45-0.508-19.902,2.002
						c-6.367,2.747-12.378,6.936-17.634,12.402c-10.222,11.362-16.86,26.907-20.156,43.325c-3.354,16.504-3.479,34.026-1.675,51.499
						c0.547,8.782,2.646,17.488,4.075,26.282c2.131,8.711,4.05,17.485,6.956,26.099c2.332,8.765,5.229,17.424,7.458,26.487
						c0.979,4.583,2.314,9.077,3.413,13.711c1.023,4.675,2.039,9.394,2.546,14.451l0.044,0.442c0.291,2.881-1.812,5.452-4.69,5.74
						C1952.827,870.635,1951.323,870.056,1950.254,869.041z"/>
				</g>
			</g>
			<g style="opacity:0.3;">
				<g>
					<path style="fill:#371A45;" d="M2512.655,2328.95c-105.801-226.2-57.151-340.85-43-799.8
						c14.8-478.65-104.95-624.7-108.45-628.9c0,0,0.05-0.05,0.1,0c228.999,133.35,301.599,424.35,310.2,821.4
						c0.049,0,0.1-0.05,0.149-0.05c1.7,192.25,38,258.4,38,258.4c52.5,77.5,172.5-20.35,172.5-20.35
						c201.55-118.45,265.701-259.65,274-279.7c0.699-1.6,1-2.45,1-2.45s0.25,2.75,0.701,8.1c0.649,7.85,1.699,21.25,3.099,39.8
						c0,0.05,0,0.1,0,0.1c-1.6,21.45-7.85,45.4-18.9,71.45c-41.899,98.9-152.45,227.9-337,363.5c-8.8,6.45-17.75,12.95-26.901,19.45
						l-14.1-60.1l-0.449,0.25c77.6,303.2,70.85,544.4-11.55,726c-82.8,150.15-222.8,254.95-414.25,316
						c-205.299,65.45-426.699,65.45-632,0c-21-6.7-41.4-13.95-61.15-21.75c746.15,70.4,1013-528.85,888.201-770.3
						c-2.551-4.95-5.051-9.85-7.451-14.65"/>
				</g>
			</g>
		</g>
	</g>
</g>
</svg>
