<?xml version="1.0" encoding="utf-8"?>
<!-- Generator: Adobe Illustrator 27.5.0, SVG Export Plug-In . SVG Version: 6.00 Build 0)  -->
<svg version="1.1" id="Layer_1" xmlns="http://www.w3.org/2000/svg" xmlns:xlink="http://www.w3.org/1999/xlink" x="0px" y="0px"
	 viewBox="0 0 4000 4000" style="enable-background:new 0 0 4000 4000;" xml:space="preserve">
<g>
	<g>
		<g>
			<g>
				<!-- <rect style="fill:#83FBFF;" width="4000" height="4000"/> -->
			</g>
		</g>
	</g>
	<g>
		<g>
			<g>
				<g>
					<g>
						<path style="fill:#FF1B40;" d="M1111.596,1852.896l-87.834-89.627c10.024,95.304-11.814,141.576-59.817,147.584
							C1019.504,1948.349,1082.064,1921.533,1111.596,1852.896z"/>
					</g>
				</g>
			</g>
			<g>
				<g>
					<g>
						<path style="fill:#FF1B40;" d="M1111.596,1852.896c-6.274,95.901-113.826,164.913-193.594,108.897
							c-82.008-50.639-145.965-248.193-82.008-383.155l38.092,42.125C857.056,1836.763,995.081,2046.49,1111.596,1852.896z"/>
					</g>
				</g>
			</g>
			<g>
				<g>
					<g>
						<path style="fill:#000371;" d="M980.636,1997.194c-25.02,0-49.404-7.61-71.016-22.678
							c-43.643-27.185-82.749-91.868-102.129-168.967c-21.118-84.016-15.747-169.099,14.736-233.43
							c2.183-4.6,6.509-7.805,11.543-8.547c5.029-0.74,10.107,1.079,13.521,4.854l38.091,42.124
							c2.808,3.108,4.214,7.234,3.882,11.411c-11.225,142.427,47.329,270.308,107.183,289.497
							c43.101,13.792,79.282-28.501,102.105-66.414c3.618-6.021,10.893-8.787,17.598-6.68c6.709,2.1,11.104,8.516,10.645,15.527
							c-3.584,54.836-38.184,105.728-88.145,129.651C1019.601,1992.665,999.928,1997.194,980.636,1997.194z M840.856,1606.722
							c-45.825,128.784,16.602,299.785,85.151,342.112c0.254,0.159,0.503,0.322,0.752,0.496
							c29.058,20.408,65.039,22.869,98.735,6.741c13.447-6.44,25.513-15.303,35.718-25.894
							c-30.464,18.425-57.178,15.693-74.063,10.286c-79.976-25.64-138.164-168.635-128.721-314.307L840.856,1606.722z"/>
					</g>
				</g>
			</g>
			<g>
				<g>
					<g>
						<path style="fill:#000371;" d="M963.927,1926.085c-7.568,0-14.126-5.635-15.093-13.34
							c-1.045-8.347,4.873-15.959,13.223-17.004c14.727-1.843,59.541-7.454,46.558-130.876c-0.679-6.445,2.798-12.612,8.657-15.374
							c5.869-2.764,12.832-1.509,17.368,3.12l87.837,89.626c5.884,6.006,5.791,15.649-0.22,21.536
							c-6.006,5.889-15.645,5.793-21.538-0.217l-59.385-60.596c0.405,75.356-24.902,116.672-75.498,123.005
							C965.197,1926.046,964.557,1926.085,963.927,1926.085z"/>
					</g>
				</g>
			</g>
			<g>
				<g>
					<g>
						<path style="fill:#FF1B40;" d="M2391.467,1149.774c0,0-9.762,202.108,44.413,265.743
							c54.176,63.635,130.359-17.029,159.039-41.228c28.681-24.199,80.664-60.946,119.204-29.577
							c38.54,31.369,49.295,70.805,95.901,48.398c0,0-28.681,54.448-86.49,68.564c-57.809,14.116-60.063-127.718-123.131-82.009
							c-63.069,45.71-146.442,160.753-221.036,107.104c-74.594-53.648-63.187-259.021-63.187-259.021L2391.467,1149.774z"/>
					</g>
				</g>
			</g>
			<g>
				<g>
					<g>
						<path style="fill:#000371;" d="M2420.729,1516.158c-16.743,0.002-33.579-5.029-50.254-17.021
							c-80.449-57.861-69.99-263.506-69.502-272.231c0.2-3.65,1.709-7.104,4.248-9.734l75.288-77.976
							c4.399-4.561,11.172-5.916,16.997-3.401c5.825,2.517,9.478,8.376,9.175,14.712c-2.622,54.558-0.405,206.746,40.796,255.137
							c9.868,11.592,20.659,17.634,32.993,18.477c33.11,2.305,71.353-31.902,94.204-52.314c3.926-3.508,7.427-6.631,10.425-9.158
							c57.075-48.154,103.721-58.169,138.638-29.746c11.455,9.324,20.469,19.124,28.423,27.771
							c21.465,23.333,28.643,29.585,51.27,18.713c5.923-2.849,13.003-1.572,17.563,3.157s5.571,11.853,2.51,17.666
							c-1.304,2.473-32.612,60.698-96.357,76.262c-38.091,9.282-57.466-25.806-73.052-54.004
							c-8.892-16.096-18.975-34.343-28.506-36.467c-4.038-0.901-9.512,1.113-16.25,5.999
							c-14.414,10.449-30.308,25.032-47.129,40.471C2520.436,1470.797,2471.002,1516.158,2420.729,1516.158z M2331.115,1234.205
							c-2.417,58.862,3.379,201.531,57.144,240.203c30.552,21.96,63.218,9.431,101.748-19.983
							c-3.853,0.315-7.729,0.349-11.611,0.085c-20.659-1.411-38.862-11.208-54.111-29.121
							c-42.637-50.083-48.662-173.469-48.77-237.166L2331.115,1234.205z M2641.759,1359.681
							c17.222,8.647,28.262,28.633,38.994,48.052c16.729,30.266,25.894,42.405,39.165,39.148
							c23.979-5.854,42.485-19.915,55.303-33.052c-19.233-3.999-32.881-18.84-45.479-32.537
							c-7.612-8.274-15.483-16.829-25.234-24.768C2689.176,1344.044,2668.156,1345.131,2641.759,1359.681z"/>
					</g>
				</g>
			</g>
			<g>
				<g>
					<g>
						<path style="fill:#FF1B40;" d="M3082.489,1531.584c0,0-1.344-28.681-14.788-44.813l-83.353,34.507
							c30.636,39.429,44.813,83.353-2.673,100.259C2981.675,1621.536,3056.945,1635.103,3082.489,1531.584z"/>
					</g>
				</g>
			</g>
			<g>
				<g>
					<g>
						<path style="fill:#FF1B40;" d="M3082.489,1531.584c-3.012,41.461-19.145,75.34-42.43,101.153
							c-60.82,67.435-170.147,80.18-220.535,30.383c-16.725-16.509-26.942-39.848-26.78-70.393
							c-4.679-60.444-55.282-92.925-107.552-81.309c-28.288,6.345-62.435,27.91-98.249,50.818
							c-70.609,45.118-147.777,95.453-199.51,44.634c-3.979-3.926-7.797-8.443-11.454-13.498
							c-68.672-94.593-88.032-380.412-88.032-380.412l90.075-53.776c0,0-69.909,256.781,52.432,352.233
							c10.378,8.12,20.543,14.627,30.49,19.735c107.392,55.174,191.497-50.441,280.066-47.968
							c96.797,2.689,107.552,48.399,151.917,98.141c6.991,8.013,15.111,14.896,23.876,20.596
							c31.298,20.22,71.576,25.275,104.648,13.068C3052.966,1603.375,3077.971,1576.165,3082.489,1531.584z"/>
					</g>
				</g>
			</g>
			<g>
				<g>
					<g>
						<path style="fill:#000371;" d="M2903.473,1708.622c-2.3,0-4.585-0.044-6.865-0.134
							c-72.446-2.813-119.116-47.976-119.072-115.142c-1.963-23.406-12.202-43.064-28.872-55.405
							c-16.514-12.231-38.462-16.477-60.142-11.655c-26.299,5.891-60.083,27.493-95.854,50.364
							c-73.179,46.792-156.128,99.841-215.908,41.084c-81.172-79.771-103.115-390.552-104.009-403.743
							c-0.386-5.718,2.466-11.169,7.388-14.106l90.078-53.774c5.332-3.186,12.061-2.808,17.012,0.945
							c4.946,3.752,7.119,10.134,5.493,16.128c-0.674,2.471-65.796,248.145,47.104,336.228
							c71.255,55.598,129.575,28.855,191.318,0.549c35.444-16.255,71.963-33.088,110.293-32
							c84.292,2.344,111.157,37.383,139.595,74.48c7.168,9.351,14.585,19.019,23.262,28.75
							c26.299,30.103,70.791,42.71,108.262,30.771c31.621-10.066,51.074-35.61,54.78-71.924c0.845-8.276,8.179-14.331,16.475-13.628
							c8.291,0.725,14.468,7.971,13.867,16.274C3089.689,1642.921,2992.047,1708.622,2903.473,1708.622z M2736.676,1498.38
							c10.82,3.286,21.011,8.342,30.112,15.078c24.009,17.776,38.628,45.518,41.167,78.115c0.029,0.42,0.049,0.84,0.044,1.262
							c-0.4,75.82,68.623,84.395,89.79,85.215c42.363,1.687,88.066-14.871,121.353-46.252
							c-48.12,14.089-104.365-2.317-137.686-40.449c-9.326-10.459-17.09-20.583-24.595-30.376
							c-27.988-36.506-46.479-60.625-116.274-62.563C2739.288,1498.37,2737.975,1498.361,2736.676,1498.38z M2303.815,1221.224
							c7.178,93.242,35.791,317.29,94.292,374.785c40.4,39.705,104.79,1.724,168.384-38.784
							c-44.155,10.686-92.256,7.671-145.405-33.801c-101.968-79.556-80.576-256.992-65.742-332.961L2303.815,1221.224z"/>
					</g>
				</g>
			</g>
			<g>
				<g>
					<g>
						<path style="fill:#000371;" d="M2981.676,1640.363c-7.739,0-14.985-4.807-17.729-12.512
							c-3.486-9.792,1.626-20.559,11.416-24.045c14.883-5.298,16.88-12.131,17.534-14.375c3.516-12.048-5.234-33.208-23.413-56.604
							c-3.604-4.636-4.834-10.691-3.33-16.367s5.566-10.325,10.996-12.571l83.354-34.507c7.603-3.147,16.387-0.984,21.655,5.342
							c16.997,20.398,18.96,52.397,19.126,55.979c0.488,10.386-7.534,19.197-17.92,19.683c-10.317,0.547-19.165-7.512-19.678-17.878
							c-0.205-3.862-1.392-13.313-4.341-21.907l-46.23,19.141c13.081,21.414,22.72,46.936,15.913,70.242
							c-3.667,12.561-13.765,29.575-41.04,39.287C2985.905,1640.011,2983.771,1640.363,2981.676,1640.363z"/>
					</g>
				</g>
			</g>
			<g>
				<g>
					<g>
						<path style="fill:#FFEB52;" d="M3242.042,2721.38c0,0-61.358,30.437-126.32,20.005c-22.801-3.549-46.087-12.208-67.274-28.985
							c-21.349-16.886-42.859-28.017-63.67-34.256c-58.563-17.853-111.102,2.581-136.215,39.634
							c-5.808,8.55-12.853,19.789-21.349,32.426c-41.247,61.628-116.371,157.403-245.756,147.724
							c-155.951-11.616-131.161-149.821-147.132-186.926c-15.971-37.106-62.595-63.994-132.504,3.226
							c-69.909,67.22-146.97,55.551-180.15,45.71l14.358-59.799c0,0,42.375,45.441,88.731,9.142
							c46.355-36.299,129.708-109.542,172.083-108.896c42.375,0.646,81.31,30.813,106.208,122.986
							c24.898,92.118,50.12,111.961,116.479,97.979c48.829-10.271,81.847-104.648,134.065-177.353
							c18.768-26.135,40.009-49.474,65.391-65.122c70.016-43.182,143.851-19.037,193.271,4.516
							c18.285,8.712,33.179,17.317,43.344,22.372c15.81,7.905,40.87,12.154,68.188,10.863c37.805-1.721,79.912-14.09,107.498-42.215
							L3242.042,2721.38z"/>
					</g>
				</g>
			</g>
			<g>
				<g>
					<g>
						<path style="fill:#000371;" d="M2599.62,2913.861c-6.294,0-12.72-0.237-19.277-0.728
							c-135.107-10.095-147.593-110.786-154.302-164.88c-1.616-13.01-3.14-25.295-5.693-31.228
							c-3.071-7.136-12.28-24.15-31.401-28.01c-21.055-4.265-47.52,8.259-76.548,36.174
							c-76.953,73.987-162.051,59.141-195.049,49.329c-8.062-2.4-12.656-10.879-10.259-18.94
							c2.397-8.057,10.859-12.664,18.94-10.256c27.9,8.298,99.854,20.803,165.254-42.09c46.182-44.409,81.875-48.484,103.691-44.075
							c23.403,4.724,42.847,21.428,53.35,45.823c4.272,9.919,5.889,22.983,7.944,39.524c6.802,54.871,16.123,130.02,126.338,138.254
							c133.706,9.988,205.234-99.771,243.613-158.743c3.574-5.488,6.812-10.461,9.736-14.773
							c18.428-27.153,49.15-45.825,84.282-51.228c45.332-6.985,94.219,8.105,137.637,42.461
							c60.122,47.563,141.099,21.917,168.164,11.211l-7.852-107.349c-54.346,34.6-131.738,33.882-169.399,15.046
							c-3.818-1.909-8.286-4.299-13.34-7.002c-45.249-24.207-129.463-69.272-208.472-20.544
							c-45.371,27.986-78.066,84.9-106.909,135.112c-31.147,54.224-58.047,101.052-97.407,109.329
							c-83.945,17.634-111.074-22.854-134.312-108.96c-20.112-74.507-50.127-111.045-91.748-111.704
							c-0.137-0.002-0.273-0.005-0.405-0.005c-30.708,0-98.374,54.521-138.877,87.156c-8.379,6.753-16.191,13.047-23.174,18.511
							c-45.386,35.527-91.309,8.516-109.253-10.725c-5.737-6.15-5.4-15.789,0.752-21.523c6.138-5.725,15.742-5.398,21.475,0.698l0,0
							c3.398,3.579,34.219,34.192,68.257,7.561c6.875-5.383,14.575-11.587,22.832-18.24c64.204-51.731,120.645-94.5,158.877-93.889
							c56.27,0.891,96.87,46.05,120.669,134.221c23.926,88.64,43.54,98.679,98.638,87.09c26.016-5.469,50.908-48.809,77.266-94.69
							c30.645-53.354,65.381-113.826,117.329-145.867c93.921-57.922,191.787-5.557,238.833,19.612
							c4.771,2.551,8.989,4.812,12.593,6.614c30.752,15.381,114.111,16.287,157.988-28.416c4.189-4.27,10.498-5.688,16.113-3.63
							c5.62,2.061,9.507,7.219,9.946,13.188l10.752,146.99c0.449,6.172-2.876,12.004-8.423,14.756
							c-4.927,2.444-121.699,59.055-209.81-10.664c-36.709-29.043-77.236-41.924-114.111-36.24
							c-26.797,4.119-50.015,18.052-63.706,38.225c-2.827,4.167-5.957,8.979-9.409,14.285
							C2814.596,2797.723,2739.01,2913.861,2599.62,2913.861z"/>
					</g>
				</g>
			</g>
			<g>
				<g>
					<g>
						<path style="fill:#39A1FF;" d="M3468.763,3026.128c0,0-85.128-128.201-195.369-108.466c-5.324,0.968-10.54,2.098-15.648,3.442
							c-101.905,26.188-175.31,121.91-282.809,137.289c-60.821,8.712-113.844,2.044-165.952-29.684
							c-44.635-27.104-88.57-72.544-136.107-142.399c-13.444-19.789-26.673-36.622-39.741-50.926
							c-87.009-95.076-167.727-75.931-272.16-43.182c-120.082,37.643-170.256,42.107-242.854-19.735l52.216-22.156
							c26.243,28.663,67.758,29.632,120.996,9.358c0,0,170.687-67.22,251.351-70.555c66.897-2.743,114.435,28.178,147.777,73.727
							c6.938,9.357,13.175,19.36,18.929,29.792c22.047,40.063,77.652,120.566,163.048,150.573
							c44.904,15.864,98.087,17.693,158.962-7.636c120.35-50.066,184.937-102.713,242.208-135.892
							c26.727-15.542,51.893-26.834,80.449-31.675c89.644-15.272,152.348,53.938,152.348,53.938
							S3513.611,2933.795,3468.763,3026.128z"/>
					</g>
				</g>
			</g>
			<g>
				<g>
					<g>
						<path style="fill:#000371;" d="M2928.927,3077.062c-103.237,0.002-181.733-54.507-268.623-182.202
							c-96.353-141.599-174.775-125.74-294.756-88.142c-117.271,36.758-177.046,45.72-257.319-22.656
							c-6.401-5.454-7.173-15.068-1.714-21.47c5.459-6.406,15.073-7.168,21.47-1.719c66.411,56.572,108.374,54.421,228.452,16.777
							c129.937-40.718,223.018-55.747,329.053,100.073c106.699,156.804,189.023,179.631,287.295,165.576
							c54.458-7.778,99.609-37.461,147.412-68.887c46.045-30.271,93.652-61.572,150.518-71.743
							c90.391-16.147,163.223,55.789,194.419,93.467c26.88-70.461,26.895-146.68,26.309-167.642
							c-13.989-13.245-66.357-57.136-134.829-45.496c-42.168,7.168-76.68,29.607-124.448,60.662
							c-47.339,30.779-106.255,69.084-194.907,105.986c-200.586,83.474-319.404-110.037-341.191-149.68
							c-36.353-66.167-87.847-98.342-152.72-95.635c-77.212,3.215-244.775,68.872-246.455,69.536
							c-61.875,23.552-108.188,19.055-137.808-13.298c-5.684-6.204-5.259-15.837,0.947-21.519
							c6.201-5.681,15.835-5.254,21.519,0.947c20.64,22.554,54.78,24.336,104.341,5.464c6.909-2.722,173.906-68.137,256.187-71.565
							c76.499-3.22,138.896,35.342,180.688,111.401c19.585,35.642,126.23,209.717,302.783,136.228
							c86.089-35.835,143.716-73.301,190.015-103.403c48.921-31.807,87.559-56.929,135.942-65.154
							c96.768-16.45,163.408,55.662,166.201,58.735c2.314,2.554,3.696,5.818,3.916,9.258c0.303,4.731,6.899,116.958-39.141,211.799
							c-2.388,4.917-7.227,8.179-12.676,8.545c-5.63,0.374-10.693-2.222-13.711-6.768c-0.796-1.187-81.108-119.602-180.02-101.885
							c-50.713,9.07-93.667,37.312-139.146,67.209c-48.496,31.882-98.638,64.849-159.839,73.591
							C2960.411,3075.839,2944.386,3077.062,2928.927,3077.062z"/>
					</g>
				</g>
			</g>
			<g>
				<g>
					<g>
						<path style="fill:#FBB987;" d="M1207.721,815.018L1183.849,713.2c-5.129-21.877,7.327-44.042,28.68-51.038h0
							c22.364-7.326,46.485,4.549,54.317,26.74l34.31,97.211"/>
					</g>
				</g>
			</g>
			<g>
				<g>
					<g>
						<path style="fill:#000371;" d="M1207.706,830.253c-6.909,0-13.169-4.739-14.814-11.758l-23.872-101.819
							c-6.982-29.8,9.683-59.456,38.77-68.987c30.005-9.836,62.925,6.401,73.418,36.145l34.312,97.212
							c2.803,7.932-1.357,16.631-9.292,19.431c-7.925,2.8-16.631-1.362-19.429-9.294l-34.312-97.212
							c-5.034-14.27-20.83-22.034-35.215-17.336c-13.95,4.573-21.943,18.796-18.594,33.088l23.872,101.819
							c1.919,8.189-3.164,16.384-11.353,18.306C1210.031,830.121,1208.859,830.253,1207.706,830.253z"/>
					</g>
				</g>
			</g>
			<g>
				<g>
					<g>
						<path style="fill:#FBB987;" d="M2279.854,1111.747l99.89-30.964c21.463-6.653,44.448,4.215,52.926,25.024v0
							c8.879,21.794-1.272,46.689-22.859,56.061l-94.561,41.053"/>
					</g>
				</g>
			</g>
			<g>
				<g>
					<g>
						<path style="fill:#000371;" d="M2315.26,1218.156c-5.884,0-11.489-3.428-13.979-9.17c-3.35-7.715,0.19-16.685,7.905-20.034
							l94.561-41.052c13.882-6.028,20.527-22.332,14.819-36.345c-5.542-13.594-20.264-20.571-34.316-16.223l-99.883,30.964
							c-8.042,2.488-16.567-2.004-19.058-10.039s2.002-16.565,10.034-19.058l99.888-30.964c29.268-9.05,59.99,5.481,71.543,33.828
							c11.904,29.216-1.953,63.21-30.898,75.776l-94.561,41.052C2319.342,1217.75,2317.281,1218.156,2315.26,1218.156z"/>
					</g>
				</g>
			</g>
			<g>
				<g>
					<g>
						<path style="fill:#FBB987;" d="M863.197,1578.64l-99.89,30.964c-21.463,6.653-44.448-4.215-52.926-25.025l0,0
							c-8.879-21.794,1.272-46.689,22.859-56.061l94.56-41.053"/>
					</g>
				</g>
			</g>
			<g>
				<g>
					<g>
						<path style="fill:#000371;" d="M750.231,1626.835c-23.203,0-44.717-13.84-53.955-36.511
							c-11.904-29.216,1.953-63.21,30.898-75.774l94.56-41.055c7.71-3.35,16.69,0.19,20.034,7.905
							c3.35,7.715-0.19,16.685-7.905,20.034l-94.561,41.055c-13.882,6.025-20.527,22.329-14.819,36.34
							c5.547,13.601,20.298,20.574,34.311,16.226l99.893-30.962c8.017-2.478,16.572,2.004,19.053,10.039
							c2.49,8.035-2.002,16.567-10.039,19.058l-99.888,30.962C761.959,1625.966,756.041,1626.835,750.231,1626.835z"/>
					</g>
				</g>
			</g>
			<g>
				<g>
					<g>
						<path style="fill:#FBB987;" d="M2117.46,2621.921l41.535,95.977c8.924,20.622,0.593,44.644-19.183,55.312h0
							c-20.712,11.173-46.555,3.76-58.196-16.692l-50.992-89.593"/>
					</g>
				</g>
			</g>
			<g>
				<g>
					<g>
						<path style="fill:#000371;" d="M2119.532,2793.544c-20.459,0-40.439-10.671-51.152-29.492l-65.229-115.186
							c-4.146-7.319-1.572-16.611,5.747-20.757c7.305-4.146,16.611-1.575,20.757,5.747l65.215,115.156
							c7.476,13.12,24.39,17.981,37.71,10.793c12.925-6.97,18.271-22.388,12.437-35.859l-41.533-95.977
							c-3.34-7.72,0.21-16.687,7.93-20.027c7.739-3.342,16.685,0.212,20.029,7.927l41.533,95.977
							c12.158,28.093,1.006,60.234-25.933,74.768C2138.331,2791.312,2128.883,2793.541,2119.532,2793.544z"/>
					</g>
				</g>
			</g>
			<g>
				<g>
					<g>
						<path style="fill:#39A1FF;" d="M2352.909,1133.211l-250.92,1563.056c-15.81-9.949-31.566-20.006-47.269-30.061
							c-3.495-2.258-6.99-4.518-10.486-6.776c-452.202-292.219-858.857-646.604-1219.802-1063.045
							c-11.616-13.336-23.123-26.727-34.578-40.171c111.102-448.116,451.719-817.396,451.719-817.396
							c1.452,0.108,2.904,0.269,4.356,0.43c2.689,0.215,5.431,0.484,8.174,0.754c338.359,32.749,712.856,195.314,1096.87,392.242
							C2351.619,1132.566,2352.263,1132.888,2352.909,1133.211z"/>
					</g>
				</g>
			</g>
			<g>
				<g>
					<g>
						<path style="fill:#FFEB52;" d="M2078.059,2654.643c0,0-8.98,4.572-23.339,11.563
							c-456.397-293.51-866.547-650.153-1230.289-1069.821l-14.519-43.344l639.774-139.549
							C1624.05,1829.182,1837.364,2242.681,2078.059,2654.643z"/>
					</g>
				</g>
			</g>
			<g style="opacity:0.6;">
				<g>
					<g>
						<path style="fill:#FFFFFF;" d="M2107.152,2664.161l-5.162,32.105c-15.81-9.949-31.566-20.006-47.269-30.061
							c-456.397-293.51-866.547-650.153-1230.289-1069.821c-11.616-13.336-23.123-26.727-34.578-40.171
							c111.102-448.116,451.719-817.396,451.719-817.396c4.141,0.376,8.336,0.753,12.53,1.184c13.498,1.291,27.103,2.85,40.709,4.57
							c-38.988,43.559-343.684,393.695-447.578,812.826c11.454,13.444,22.962,26.834,34.578,40.171
							C1244.207,2015.73,1652.745,2371.297,2107.152,2664.161z"/>
					</g>
				</g>
			</g>
			<g>
				<g>
					<g>
						<path style="fill:#FFEB52;" d="M2350.973,1132.243c-3.872,2.044-8.066,4.033-12.529,5.969
							c-270.817,117.877-888.704,275.28-888.704,275.28c-92.226-232.152-168.48-457.151-206.339-664.995l10.701-8.496
							C1592.461,772.75,1966.958,935.315,2350.973,1132.243z"/>
					</g>
				</g>
			</g>
			<g>
				<g>
					<g>
						<path style="fill:#000371;" d="M2101.974,2714.052c-3.301,0-6.587-0.918-9.463-2.729
							c-489.194-307.834-932.031-692.585-1316.201-1143.567c-3.716-4.36-5.098-10.242-3.721-15.801
							c110.952-447.38,452.466-821.438,455.904-825.164c3.73-4.045,9.077-6.162,14.609-5.654
							c366.924,32.063,771.03,218.298,1117.935,396.245c6.846,3.513,10.654,11.03,9.434,18.628L2119.518,2699.1
							c-0.947,5.889-4.785,10.911-10.22,13.372C2106.964,2713.529,2104.464,2714.052,2101.974,2714.052z M809.303,1551.676
							c374.482,438.237,804.785,813.301,1279.399,1115.186l244.634-1523.74c-338.447-173.145-730.005-352.432-1084.507-385.784
							C1203.995,807.994,912.164,1149.017,809.303,1551.676z"/>
					</g>
				</g>
			</g>
			<g>
				<g>
					<g>
						<path style="fill:#000371;" d="M2101.989,2711.515c-5.269,0-10.396-2.737-13.213-7.632
							c-363.066-630.42-749.429-1356.55-862.192-1962.258c-1.543-8.269,3.916-16.221,12.183-17.761
							c8.276-1.533,16.221,3.914,17.759,12.185c111.929,601.201,496.865,1324.443,858.647,1952.634
							c4.199,7.288,1.689,16.599-5.596,20.798C2107.179,2710.861,2104.567,2711.515,2101.989,2711.515z"/>
					</g>
				</g>
			</g>
			<g>
				<g>
					<g>
						<path style="fill:#000371;" d="M789.816,1571.464c-7.378,0-13.857-5.371-15.029-12.888
							c-1.294-8.313,4.395-16.099,12.705-17.393c414.785-64.568,925.215-202.729,1560.459-422.385
							c7.93-2.754,16.616,1.467,19.37,9.417c2.749,7.952-1.47,16.624-9.419,19.373
							c-636.973,220.254-1149.126,358.845-1565.723,423.694C791.383,1571.405,790.597,1571.464,789.816,1571.464z"/>
					</g>
				</g>
			</g>
			<g>
				<g>
					<g>
						<path style="fill:#000371;" d="M1961.764,2464.442c-3.672,0-7.358-1.321-10.283-3.999l-877.061-803.354
							c-4.707-4.312-6.226-11.104-3.804-17.012c76.987-187.651,148.672-398.279,219.155-643.923
							c2.319-8.083,10.791-12.756,18.838-10.437c8.086,2.319,12.759,10.754,10.439,18.84
							c-69.565,242.449-140.337,451.03-216.226,637.241l869.233,796.184c6.201,5.681,6.626,15.315,0.942,21.519
							C1969.996,2462.78,1965.885,2464.442,1961.764,2464.442z"/>
					</g>
				</g>
			</g>
			<g>
				<g>
					<g>
						<path style="fill:#000371;" d="M587.296,2906.007c-4.985,0-9.873-2.446-12.788-6.938c-4.58-7.056-2.573-16.487,4.478-21.067
							c214.004-138.94,188.501-340.332,161.504-553.545c-16.831-132.952-34.238-270.43,9.922-393.357
							c52.974-147.478,140.259-221.255,204.155-257.178c69.8-39.241,126.821-43.12,129.214-43.267
							c8.394-0.505,15.615,5.879,16.128,14.275c0.513,8.389-5.864,15.603-14.248,16.128c-0.942,0.066-53.867,4.021-117.559,40.203
							c-58.901,33.459-139.507,102.28-189.028,240.137c-41.685,116.05-24.746,249.844-8.364,379.231
							c26.992,213.157,54.897,433.569-175.132,582.92C593.014,2905.211,590.138,2906.007,587.296,2906.007z"/>
					</g>
				</g>
			</g>
			<g style="opacity:0.3;">
				<g>
					<g>
						<path style="fill:#000371;" d="M2315.554,1150.391L2072.11,2713.447c-15.339-9.949-30.625-20.006-45.861-30.062
							c-3.391-2.258-6.782-4.518-10.174-6.776c0.104-0.86,0.261-1.721,0.366-2.581
							c88.787-644.756,133.089-1169.525,148.601-1374.149c4.408-58.147-22.769-114.13-70.764-145.025
							c-372.677-239.897-836.967-357.61-836.967-357.61l-15.757-40.816c2.609,0.215,5.27,0.484,7.931,0.754
							c328.278,32.749,691.617,195.314,1064.19,392.242C2314.302,1149.746,2314.927,1150.068,2315.554,1150.391z"/>
					</g>
				</g>
			</g>
			<g style="opacity:0.3;">
				<g>
					<g>
						<path style="fill:#000371;" d="M2872.439,2943.206h-0.162c-65.014-1.935-67.005,54.636-63.293,85.504
							c-44.635-27.104-88.57-72.544-136.107-142.399c-13.444-19.789-26.673-36.622-39.741-50.926l-3.71-17.208
							c32.212,6.561,53.078-10.809,61.036-55.336c6.938,9.357,13.175,19.36,18.929,29.792
							C2731.439,2832.696,2787.044,2913.199,2872.439,2943.206z"/>
					</g>
				</g>
			</g>
			<g style="opacity:0.3;">
				<g>
					<g>
						<path style="fill:#000371;" d="M3468.763,3026.128c0,0-85.128-128.201-195.369-108.466c-5.324,0.968-10.54,2.098-15.648,3.442
							c107.176-80.02,15.864-121.427,15.864-121.427c26.727-15.542,51.893-26.834,80.449-31.675
							c89.644-15.272,152.348,53.938,152.348,53.938S3513.611,2933.795,3468.763,3026.128z"/>
					</g>
				</g>
			</g>
			<g style="opacity:0.3;">
				<g>
					<g>
						<path style="fill:#000371;" d="M2984.778,2678.144c-58.563-17.853-111.102,2.581-136.215,39.634
							c-5.808,8.55-12.853,19.789-21.349,32.426c-0.215-66.144-16.402-107.66-76.308-81.686l2.689-24.522
							c18.768-26.135,40.009-49.474,65.391-65.122c70.016-43.182,143.851-19.037,193.271,4.516
							C2971.442,2595.006,2979.508,2653.622,2984.778,2678.144z"/>
					</g>
				</g>
			</g>
			<g style="opacity:0.3;">
				<g>
					<g>
						<path style="fill:#000371;" d="M3242.042,2721.38c0,0-61.358,30.437-126.32,20.005c2.152-2.581,4.841-5.109,8.066-7.474
							c56.519-42.107,0-117.286,0-117.286c37.805-1.721,79.912-14.09,107.498-42.215L3242.042,2721.38z"/>
					</g>
				</g>
			</g>
			<g style="opacity:0.3;">
				<g>
					<g>
						<path style="fill:#000371;" d="M2594.041,1548.147c0,0-3.172,6.184-7.097,14.089c-70.609,45.118-147.777,95.453-199.51,44.634
							c-3.979-3.926-7.797-8.443-11.454-13.498c53.453,11.992,84.965-62.219,84.965-62.219
							C2526.82,1568.797,2594.041,1548.147,2594.041,1548.147z"/>
					</g>
				</g>
			</g>
			<g style="opacity:0.3;">
				<g>
					<g>
						<path style="fill:#000371;" d="M3040.059,1632.737c-60.82,67.435-170.147,80.18-220.535,30.383
							c33.449,2.85,104.916,2.689,98.034-53.131c-0.377-2.85-0.592-5.538-0.753-8.066c31.298,20.22,71.576,25.275,104.648,13.068
							C3021.453,1614.991,3033.929,1626.499,3040.059,1632.737z"/>
					</g>
				</g>
			</g>
		</g>
		<g style="opacity:0.2;">
			<g>
				<g>
					<ellipse style="fill:#000371;" cx="1952.5" cy="3500" rx="832.5" ry="65"/>
				</g>
			</g>
		</g>
	</g>
</g>
</svg>
