<?xml version="1.0" encoding="utf-8"?>
<!-- Generator: Adobe Illustrator 27.5.0, SVG Export Plug-In . SVG Version: 6.00 Build 0)  -->
<svg version="1.1" id="Layer_1" xmlns="http://www.w3.org/2000/svg" xmlns:xlink="http://www.w3.org/1999/xlink" x="0px" y="0px"
	 viewBox="0 0 4000 4000" style="enable-background:new 0 0 4000 4000;" xml:space="preserve">
<g>
	<g>
		<!-- <rect style="fill:#7CFF8F;" width="4000" height="4000"/> -->
	</g>
	<g>
		<g style="opacity:0.2;">
			<ellipse style="fill:#650000;" cx="1892.288" cy="3543.786" rx="722.225" ry="52.654"/>
		</g>
		<g>
			<path style="fill:#EFAC41;" d="M3007.667,1434.737c-312.378,334.557-844.378,1096.476-1099.551,1616.847
				c-244.516,299.306-498.1,0-498.1,0L2702.97,1092.667"/>
		</g>
		<g>
			<path style="fill:#FF8806;" d="M3007.667,1434.737c-312.378,334.557-844.378,1096.476-1099.551,1616.847
				c-244.516,299.306-498.1,0-498.1,0L2702.97,1092.667"/>
		</g>
		<g>
			<path style="fill:#650000;" d="M1670.285,3207.538c-156.384,0-272.859-135.342-277.764-141.133
				c-8.186-9.663-6.99-24.136,2.673-32.319c9.658-8.193,24.131-6.987,32.317,2.671c1.865,2.178,108.425,124.922,242.817,124.922
				c0.745,0,1.479-0.005,2.227-0.015c76.987-0.776,149.7-42.017,216.15-122.573c260.928-531.094,796.66-1292.769,1102.202-1620.002
				c8.643-9.258,23.152-9.751,32.41-1.111c9.258,8.643,9.753,23.154,1.111,32.41
				c-303.813,325.383-836.958,1083.596-1095.723,1611.296c-0.771,1.572-1.721,3.052-2.829,4.409
				c-75.999,93.027-161.177,140.61-253.169,141.436C1671.899,3207.533,1671.091,3207.538,1670.285,3207.538z"/>
		</g>
		<g>
			<path style="fill:#FEBC04;" d="M2920.812,1175.791l-129.96,293.341c-50.62,38.18-92.64,115.571-125.144,200.644
				c-22.759,59.506,10.949,148.992,33.192,197.319c20.638,44.887,6.364,99.29-35.772,125.144
				c-53.715,32.906-127.266,7.912-113.048-164.814c0.344-23.503-10.147-45.919-24.823-57.843
				c-25.682-21.039-64.206-9.516-78.824,85.532c-12.899,87.423-31.53,117.52-100.322,139.017
				c-68.792,21.498-67.359,73.092-103.647,235.499c-36.345,162.463-69.767,183.446-119.469,193.019
				c-49.645,9.573-40.129,72.632-40.129,72.632c18.115,64.894-27.402,113.335-73.092,65.582
				c-12.153-12.725-27.689-22.127-45.059-24.822c-2.408-0.344-4.701-0.574-6.879-0.631c-13.357-0.515-22.587,4.242-28.893,11.523
				c0,0,0,0-0.057,0c-7.109,8.197-10.605,19.548-12.21,29.868c-1.777,11.236-1.491,22.757,0.745,33.937
				c11.179,56.466-20.408,100.551-62.887,141.54c-61.626,81.691,48.728,220.708,68.792,368.324
				c20.064,147.616-179.146,137.584-170.547,31.53v-0.229c8.542-105.883-30.097-155.986-30.097-155.986
				c-78.996,106.971-157.19,127.323-235.04,108.462c-490.717-269.836-603.823-1472.839-305.724-2042.266l168.14-160.572
				c0,0,808.308-3.783,831.238,0C2204.227,905.323,2920.812,1175.791,2920.812,1175.791z"/>
		</g>
		<g style="opacity:0.55;">
			<path style="fill:#FFFFFF;" d="M1989.997,899.877c-244.556,0.115-576.879,1.662-576.879,1.662l-168.14,160.572
				c-298.099,569.427-184.993,1772.43,305.724,2042.266c5.847,1.433,11.694,2.637,17.542,3.555
				c-26.944,4.814-53.773,2.924-80.602-3.555c-490.717-269.836-603.823-1472.839-305.724-2042.266l168.14-160.572
				C1350.058,901.539,1744.352,899.705,1989.997,899.877z"/>
		</g>
		<g style="opacity:0.25;">
			
				<ellipse transform="matrix(0.2916 -0.9565 0.9565 0.2916 -514.5971 2190.6013)" style="fill:#650000;" cx="1221.74" cy="1442.744" rx="216.361" ry="137.86"/>
		</g>
		<g style="opacity:0.25;">
			<path style="fill:#650000;" d="M1916.676,2576.801c-1.777,11.236-1.491,22.757,0.745,33.937
				c11.179,56.466-20.408,100.551-62.887,141.54c-61.626,81.691,48.728,220.708,68.792,368.324
				c20.064,147.616-179.146,137.584-170.547,31.53v-0.229c1.72,0.459,3.439,1.033,5.217,1.663
				c121.246,44.428,93.672-121.819,55.722-197.777s-59.505-149.05-55.206-189.178c4.299-40.129,84.557-73.092,83.353-146.183
				c-1.204-71.945,84.328-73.436,87.022-73.493C1921.778,2555.129,1918.281,2566.48,1916.676,2576.801z"/>
		</g>
		<g style="opacity:0.25;">
			<path style="fill:#650000;" d="M2525.257,1769.581c-25.682-21.039-64.206-9.516-78.824,85.532
				c-12.899,87.423-31.53,117.52-100.322,139.017c-68.792,21.498-67.359,73.092-103.647,235.499
				c-36.345,162.463-69.767,183.446-119.469,193.019c-49.645,9.573-40.129,72.632-40.129,72.632
				c18.115,64.894-27.402,113.335-73.092,65.582c-12.153-12.725-27.689-22.127-45.059-24.822c-2.408-0.344-4.701-0.574-6.879-0.631
				c22.816-9.917,52.683-25.223,64.378-41.16c20.064-27.288-47.295-84.5,18.631-117.462s130.877-156.675,153.808-285.086
				c22.931-128.355,66.9-148.705,129.96-175.478c63.06-26.771,21.039-53.486,74.181-149.107
				c53.199-95.678,125.603-6.019,125.603-6.019L2525.257,1769.581z"/>
		</g>
		<g>
			<path style="fill:#650000;" d="M1202.233,1072.746c-41.394,79.609-71.97,165.195-95.33,252.644
				c-23.296,87.551-39.341,177.2-49.968,267.495c-10.654,90.317-15.5,181.384-15.737,272.432
				c-0.229,91.06,4.478,182.161,14.15,272.688c9.683,90.515,24.045,180.554,44.39,269.143
				c20.315,88.56,46.24,175.825,79.707,259.895c33.552,83.918,74.504,165.029,126.589,237.849
				c26.113,36.289,55.015,70.396,86.992,101.011c32.029,30.537,67.529,57.021,105.664,78.398l-5.654-2.195
				c20.381,4.854,40.896,6.692,60.84,4.612l3.748-0.32l3.696-0.654l7.39-1.292c4.902-0.984,9.688-2.522,14.551-3.713
				c4.705-1.809,9.502-3.311,14.16-5.278c4.563-2.251,9.294-4.048,13.755-6.592c18.044-9.653,34.897-22.449,50.337-37.3
				c15.391-14.951,29.451-31.716,42.722-49.275l0.33-0.435c7.563-10.007,21.807-11.987,31.814-4.424
				c1.699,1.287,3.23,2.856,4.46,4.475l0.137,0.181c2.424,3.306,3.501,5.146,5.022,7.593c1.294,2.263,2.676,4.551,3.799,6.797
				c2.417,4.514,4.5,9.026,6.458,13.572c3.987,9.07,6.924,18.289,9.7,27.534c5.234,18.53,8.391,37.334,9.824,56.082
				c1.36,18.74,1.506,37.463,0.107,55.945c-0.383,5.322-0.193,7.432-0.383,10.798c0.042,1.533,0.327,2.983,0.43,4.482l0.193,2.234
				l0.537,2.102c1.064,5.737,3.494,10.859,6.814,15.535c6.421,9.478,17.656,16.653,30.356,20.608
				c6.416,1.838,13.14,3.04,19.941,3.289c6.792,0.112,13.577-0.466,20.088-1.924c6.445-1.628,12.566-3.979,18.145-7.065
				c5.417-3.301,10.266-7.224,14.421-11.797c7.861-9.46,13.193-21.394,14.604-35.361c1.67-13.955-0.034-28.523-3.11-45.33
				c-2.959-16.279-6.975-32.542-11.692-48.76c-9.483-32.463-21.736-64.653-34.165-97.449c-12.275-32.9-25.391-66.165-33.552-103.098
				c-3.799-18.523-6.702-38.071-4.761-59.009c0.696-10.383,3.228-21.079,6.79-31.399c3.672-10.398,9.292-20.09,15.686-29.001
				c0.574-0.798,1.204-1.533,1.878-2.202l0.505-0.491c13.345-13.022,25.967-26.399,35.881-40.627
				c5.051-7.073,9.407-14.346,12.813-21.768c1.887-3.677,3.123-7.461,4.617-11.189c1.047-3.794,2.371-7.544,2.981-11.375
				c0.967-3.794,1.145-7.656,1.646-11.489c0.029-3.87,0.354-7.725-0.085-11.626c-0.056-3.887-0.894-7.8-1.428-11.714l-0.105-0.735
				l-0.205-1.096l-0.4-2.217l-0.679-4.456c-0.393-2.983-0.676-5.981-0.852-8.989c-0.701-12.09,0.381-24.119,3.501-36.235
				c1.584-6.108,3.867-12.439,7.334-18.782c3.447-6.311,8.22-12.7,14.595-18.013c6.299-5.388,14.282-9.224,21.985-11.086
				c3.94-1.152,7.625-1.384,11.438-1.841c3.516,0,7.346-0.251,10.605,0.195c13.494,1.038,25.837,5.281,36.936,11.287
				c5.525,3.015,10.708,6.475,15.491,10.305c2.388,1.919,4.709,3.901,6.917,5.981c1.108,1.038,2.207,2.083,3.257,3.164l2.544,2.532
				c2.59,2.703,5.283,4.81,7.859,6.689c2.588,1.687,5.073,2.966,7.222,3.696c4.414,1.274,6.514,0.886,9.348-0.667
				c2.837-1.619,6.262-5.754,8.591-11.462c2.314-5.759,3.525-12.803,3.599-20.149c-0.034-7.39-1.13-15.081-3.218-22.695
				l-0.164-0.603c-0.186-0.676-0.33-1.438-0.417-2.117l-0.337-2.747l-0.217-2.319c-0.115-1.492-0.244-2.996-0.283-4.446
				c-0.161-2.927-0.144-5.837-0.117-8.75c0.183-5.845,0.618-11.716,1.711-17.725c2.104-11.899,6.279-24.641,14.846-36.187
				c1.948-2.947,4.551-5.557,7.151-8.137c2.478-2.708,5.479-4.829,8.494-6.941c1.514-1.021,2.993-2.17,4.573-3.02l4.827-2.361
				l4.885-2.236c1.633-0.676,3.262-1.033,4.902-1.541l4.932-1.357c1.646-0.437,3.484-0.906,4.263-1.05l6.228-1.333
				c3.867-1.06,7.864-1.963,11.194-3.34c6.987-2.542,12.876-5.623,18.149-10.225c2.832-1.907,5.117-4.985,7.769-7.39
				c2.302-3.108,4.858-5.806,7.039-9.229c8.965-13.306,16.409-29.453,22.607-46.455c12.495-34.126,21.292-70.806,29.536-107.751
				c8.289-37.212,15.564-74.548,24.187-112.651c4.534-19.106,9.275-38.489,17.261-58.577c3.831-10,9.302-20.273,16.077-30.137
				c1.736-2.444,3.857-4.768,5.806-7.129c2.007-2.341,3.914-4.749,6.34-6.755l7.002-6.211c2.368-2.017,5.02-3.538,7.544-5.296
				c10.237-6.968,21.067-11.118,31.56-14.756l12.756-4.328c3.906-1.631,8.096-3.023,11.79-4.805
				c7.678-3.328,14.375-7.385,20.447-11.724c5.762-4.585,10.757-9.612,14.99-15.483c8.176-12.017,13.948-27.576,17.878-44.915
				c1.992-8.643,3.687-17.544,5.198-26.636l2.156-13.848c0.881-5.066,1.655-10.132,2.646-15.2
				c2.107-10.134,4.353-20.283,7.778-30.562c3.323-10.254,7.31-20.603,13.408-30.998c3.013-5.193,6.572-10.393,10.933-15.454
				c2.173-2.525,4.797-4.995,7.354-7.393c3.008-2.302,5.64-4.697,9.248-6.643c6.592-4.148,15.12-7.075,23.806-7.764
				c8.716-0.774,17.571,0.776,24.885,3.821c14.905,6.089,25.017,16.187,32.529,26.663c7.59,10.588,12.542,22.175,15.61,34.263
				c1.572,6.052,2.439,12.207,2.947,18.547l0.159,5.227c0.039,1.77,0.063,3.606-0.046,4.595l-0.444,7.241l-0.447,7.239l-0.215,6.824
				c-0.181,4.556-0.293,9.094-0.239,13.599c0.022,18.035,0.999,35.901,4.028,52.681c3.037,16.636,8.108,32.568,15.825,43.916
				c3.765,5.72,8.069,10.149,12.634,12.971c2.222,1.602,4.661,2.446,7.056,3.418c2.517,0.622,5.024,1.345,7.81,1.384
				c5.459,0.427,11.653-0.791,17.898-2.998c6.257-2.327,12.615-6.008,18.115-10.203c5.637-4.155,10.288-9.495,14.319-15.251
				c3.982-5.798,7.258-12.227,9.29-19.136c2.112-6.873,3.259-14.077,3.511-21.35c0.137-7.28-0.784-14.575-2.578-21.663l-1.523-5.278
				l-1.992-5.129l-0.503-1.323l-0.745-1.711l-1.487-3.423l-2.937-6.86c-3.831-9.19-7.529-18.435-10.901-27.847
				c-6.858-18.765-12.717-38.027-17.026-57.937c-4.365-19.885-7.07-40.493-6.707-61.865c0.393-10.701,1.238-21.523,3.76-32.419
				l1.887-8.144c0.842-2.708,1.841-5.398,2.776-8.081c1.897-5.73,3.887-9.836,5.842-14.355
				c15.859-35.664,33.711-70.706,55.806-103.293c10.886-16.367,23.093-31.941,36.455-46.453
				c13.506-14.353,28.438-27.603,45.264-37.734c1.362-0.823,3.135-0.381,3.955,0.981c0.703,1.17,0.481,2.639-0.457,3.55
				l-0.046,0.044c-27.209,26.484-46.589,58.923-63.442,92.324c-8.357,16.777-15.823,34.016-23.018,51.36
				c-7.109,17.397-13.376,35.159-19.607,52.92c-1.511,4.416-3.259,9.143-3.977,12.644l-1.484,5.645l-0.906,5.955
				c-1.299,7.893-1.362,16.316-1.108,24.754c0.574,16.992,3.992,34.492,8.45,51.868c4.573,17.378,10.491,34.673,17.178,51.753
				c3.323,8.547,6.978,17.004,10.75,25.405l2.893,6.277l1.462,3.132l0.73,1.565l0.862,2l3.423,8.184
				c0.981,2.788,1.843,5.622,2.742,8.445c3.274,11.379,5.071,23.206,5.159,35.105c-0.076,11.897-1.833,23.786-5.186,35.273
				c-6.689,22.959-20.637,44.204-39.702,59.426c-9.619,7.529-19.878,13.799-31.602,18.184c-11.726,4.258-24.719,7.024-38.433,6.172
				c-6.821-0.246-13.716-1.726-20.405-3.687c-6.587-2.292-13.11-5.08-18.823-8.904c-11.719-7.368-20.779-17.273-27.573-27.5
				c-13.628-20.72-19.397-42.466-23.225-63.367c-3.579-20.996-4.539-41.575-4.253-61.838c0.02-5.08,0.208-10.117,0.471-15.134
				l0.347-7.539l0.537-7.097l0.535-7.1c0.146-1.399,0.071-1.96,0.039-2.583l-0.027-1.958c-0.251-3.206-0.615-6.584-1.436-9.817
				c-1.528-6.489-4.182-12.861-7.744-17.886c-3.406-5.142-7.842-8.757-10.757-9.922c-1.497-0.718-2.395-0.735-3.206-0.696
				c-0.82,0.081-1.726,0.085-3.23,1.077c-2.974,1.392-7.349,6.267-10.955,12.344c-3.711,6.096-6.802,13.699-9.412,21.636
				c-2.725,7.886-4.688,16.475-6.548,25.078c-0.879,4.326-1.572,8.735-2.378,13.098l-2.368,14.541
				c-1.702,9.802-3.647,19.719-6.038,29.736c-4.758,19.873-11.912,41.167-25.535,60.801c-7.004,9.695-15.649,18.316-25.017,25.498
				c-9.487,6.855-19.446,12.439-29.336,16.79c-4.958,2.346-9.875,4.021-14.824,6.04l-14.463,4.912
				c-7.546,2.668-14.802,5.457-20.378,9.407c-6.04,3.523-10.315,8.513-14.724,13.943c-3.967,5.996-7.771,12.615-10.757,20.54
				c-6.216,15.532-10.801,33.474-15.063,51.636c-8.303,36.665-15.708,74.578-24.084,112.19
				c-8.469,37.81-17.468,75.913-31.321,113.823c-6.985,18.938-15.391,38.027-27.847,56.541c-3.005,4.631-6.904,9.089-10.432,13.569
				l-6.248,6.394c-1.064,1.047-2.063,2.134-3.193,3.137l-3.555,2.903c-9.241,7.957-20.601,13.979-31.597,17.905
				c-5.581,2.185-10.952,3.447-16.328,4.875l-7.827,1.68c-1.575,0.3-2.036,0.513-2.7,0.713l-1.995,0.559
				c-5.193,1.638-8.601,3.945-11.528,7.815c-2.92,3.855-5.227,9.705-6.423,16.609c-0.649,3.416-0.913,7.129-1.047,10.854
				c-0.002,1.88-0.034,3.76,0.078,5.618c0.046,1.711,0.286,4.021,0.371,4.805l-0.583-2.717c6.023,22.378,7.742,47.412-2.063,72.388
				c-5.068,12.251-13.406,24.963-27.439,33.518c-6.926,4.209-15.195,7.014-23.513,7.749c-8.315,0.769-16.516-0.396-23.633-2.751
				c-7.139-2.363-13.333-5.72-18.894-9.421c-5.381-3.784-10.295-7.874-14.507-12.2l-2.651-2.639c-0.647-0.676-1.323-1.311-2-1.943
				c-1.345-1.277-2.749-2.461-4.165-3.608c-2.844-2.285-5.835-4.255-8.887-5.923c-6.047-3.298-12.651-5.442-18.691-5.835
				c-1.587-0.298-2.671,0.02-4.033-0.134c-1.013,0.266-2.271,0.166-3.005,0.52c-1.768,0.432-2.859,0.925-3.982,1.924
				c-2.224,1.785-5.181,6.396-6.87,13.188c-1.755,6.812-2.534,14.478-2.065,21.899c0.11,1.87,0.286,3.74,0.53,5.605l0.427,2.788
				l0.554,3.174c0.881,5.752,1.953,11.453,2.144,17.361c0.564,5.845,0.242,11.77,0.071,17.668
				c-0.635,5.862-1.099,11.794-2.458,17.515c-1.018,5.828-2.832,11.36-4.487,16.956c-2.048,5.378-3.979,10.859-6.516,15.918
				c-4.775,10.334-10.552,19.88-16.843,28.716c-12.505,17.854-26.948,32.971-41.538,47.234l2.38-2.688
				c-3.704,5.371-7.051,10.881-9.199,17.056c-2.048,6.218-3.789,12.678-4.207,19.802c-1.404,14.021,0.667,29.619,3.918,45.298
				c6.904,31.582,19.353,63.862,31.606,96.499c12.378,32.695,25.12,66.03,35.298,100.837c5.063,17.412,9.478,35.195,12.783,53.379
				c3.22,17.559,6.084,38.164,3.518,59.094c-2.131,20.879-10.776,42.729-25.583,59.985c-7.563,8.484-16.44,15.645-26.052,21.36
				c-9.727,5.476-20.068,9.407-30.625,11.997c-10.591,2.407-21.35,3.342-32.063,3.103c-10.718-0.386-21.357-2.205-31.748-5.249
				c-10.388-3.096-20.434-7.886-29.805-14.08c-9.402-6.13-17.888-14.353-24.666-23.95c-6.807-9.551-11.87-20.715-14.155-32.185
				l-0.959-4.292l-0.493-4.294c-0.269-2.861-0.664-5.757-0.745-8.591c0.051-5.386,0.227-12.041,0.474-15.457
				c1.257-16.453,1.082-32.844-0.071-49.026c-1.218-16.169-3.94-32.085-8.23-47.263c-2.275-7.512-4.644-15.024-7.734-21.99
				c-1.504-3.494-3.096-6.943-4.814-10.146c-0.825-1.677-1.738-3.123-2.6-4.67c-0.771-1.282-2.009-3.164-2.17-3.394l0.01,0.01
				l36.601-0.383c-14.524,19.243-30.139,37.925-47.866,55.127c-17.795,17.102-37.925,32.598-60.574,44.707
				c-5.576,3.137-11.626,5.569-17.434,8.342c-5.955,2.515-12.166,4.539-18.254,6.78c-6.306,1.646-12.559,3.564-18.95,4.861
				l-9.644,1.702l-4.829,0.815l-4.863,0.452c-25.969,2.732-52.014,0.21-76.462-5.642l-0.105-0.024
				c-1.956-0.469-3.875-1.243-5.552-2.17c-42.043-23.523-80.701-52.49-115.166-85.347c-34.414-32.937-65.125-69.25-92.666-107.527
				c-54.905-76.799-97.29-161.03-131.917-247.588c-34.512-86.707-61.047-176.138-81.816-266.658
				c-20.789-90.547-35.42-182.319-45.286-274.512c-9.849-92.207-14.639-184.912-14.404-277.627
				c0.239-92.705,5.173-185.464,16.047-277.671c10.852-92.188,27.239-183.909,51.204-273.982
				c24.05-89.976,55.576-178.545,99.014-262.1c5.842-11.238,19.688-15.61,30.923-9.771c11.238,5.842,15.61,19.688,9.768,30.923
				v0.002L1202.233,1072.746z"/>
		</g>
		<g>
			<path style="fill:#721716;" d="M1703.552,3008.556l-36.289-91.318c-0.596-1.501,0.139-3.206,1.641-3.801
				c1.116-0.444,2.341-0.151,3.145,0.642l69.766,69.197c9.187,9.109,9.248,23.94,0.137,33.125
				c-9.109,9.187-23.94,9.248-33.125,0.137C1706.489,3014.223,1704.706,3011.425,1703.552,3008.556z"/>
		</g>
		<g>
			
				<ellipse transform="matrix(0.2916 -0.9565 0.9565 0.2916 -494.8862 2091.0996)" style="fill:#EA2D05;" cx="1164.413" cy="1379.684" rx="216.361" ry="137.86"/>
		</g>
		<g style="opacity:0.55;">
			<path style="fill:#FFFFFF;" d="M1294.337,1239.022c-12.154-13.816-26.886-23.791-43.912-29.008
				c-72.805-22.243-160.114,52.454-194.968,166.707c-20.523,67.359-18.287,133.4,1.949,180.866
				c-39.727-45.116-51.594-130.533-24.88-218.128c34.855-114.253,122.163-188.949,194.968-166.707
				C1257.418,1181.868,1280.234,1205.945,1294.337,1239.022z"/>
		</g>
		<g style="opacity:0.35;">
			<path style="fill:#721716;" d="M1296.286,1419.888c-34.855,114.31-122.163,188.95-194.968,166.763
				c-38.237-11.694-64.894-47.753-76.474-95.965c11.351,11.867,24.937,20.581,40.358,25.281
				c72.805,22.185,160.114-52.454,194.968-166.763c16.568-54.231,18.287-107.717,7.739-151.228
				C1310.446,1242.003,1323.745,1329.77,1296.286,1419.888z"/>
		</g>
		<g>
			
				<ellipse transform="matrix(0.866 -0.5 0.5 0.866 -1227.4235 984.2814)" style="fill:#EA2D05;" cx="1222.984" cy="2782.546" rx="90.767" ry="131.852"/>
		</g>
		<g style="opacity:0.35;">
			<path style="fill:#721716;" d="M1288.891,2896.74c-40.473,23.332-99.405-1.776-136.667-56.41
				c24.536,10.319,49.473,10.778,69.767-0.917c43.454-25.051,49.129-96.539,12.727-159.598c-2.465-4.3-5.102-8.426-7.796-12.382
				c27.918,11.752,55.32,36.174,74.697,69.709C1338.02,2800.201,1332.344,2871.689,1288.891,2896.74z"/>
		</g>
		<g style="opacity:0.55;">
			<path style="fill:#FFFFFF;" d="M1180.084,2861.083c5.102,8.829,10.72,16.969,16.797,24.479
				c-19.835-13.358-38.352-33.02-52.511-57.614c-36.402-63.059-30.727-134.546,12.669-159.598
				c37.434-21.612,90.634-1.719,127.953,44.543c-31.186-21.153-65.697-26.714-92.239-11.351
				C1149.357,2726.595,1143.682,2798.024,1180.084,2861.083z"/>
		</g>
		<g style="opacity:0.25;">
			
				<ellipse transform="matrix(0.924 -0.3824 0.3824 0.924 -781.2302 800.4511)" style="fill:#650000;" cx="1623.343" cy="2365.823" rx="302.399" ry="226.441"/>
		</g>
		<g>
			<path style="fill:#650000;" d="M1128.034,1613.539c-11.323,0-22.505-1.641-33.408-4.966
				c-86.243-26.296-123.147-147.437-84.014-275.784c39.133-128.35,137.349-208.286,223.589-181.995
				c42.983,13.106,75.005,50.335,90.166,104.834c14.143,50.835,11.958,111.545-6.155,170.947
				c-18.11,59.404-50.171,111.006-90.271,145.303C1195.859,1599.321,1161.347,1613.539,1128.034,1613.539z M1201.11,1191.769
				c-55.728,0-119.338,64.883-146.631,154.395c-30.579,100.293-6.067,200.373,53.521,218.542
				c27.473,8.379,59.475-1.458,90.134-27.678c33.547-28.694,60.613-72.668,76.211-123.826l0,0
				c15.598-51.157,17.671-102.751,5.84-145.281c-10.815-38.87-31.895-64.885-59.358-73.259
				C1214.421,1192.709,1207.822,1191.769,1201.11,1191.769z"/>
		</g>
		<g>
			<path style="fill:#650000;" d="M1254.889,2928.549c-46.833,0-98.013-33.105-130.371-89.155
				c-19.907-34.482-29.353-72.593-26.594-107.314c3.013-37.891,19.941-67.573,47.668-83.579
				c55.212-31.865,132.461,2.031,175.857,77.197l0,0c19.907,34.482,29.353,72.593,26.594,107.314
				c-3.013,37.891-19.941,67.573-47.668,83.579C1286.332,2924.697,1270.864,2928.549,1254.889,2928.549z M1190.893,2682.519
				c-8.081,0-15.667,1.826-22.371,5.698c-19.246,11.113-23.85,34.526-24.88,47.495c-2.031,25.557,5.283,54.233,20.593,80.752
				c29.521,51.128,81.367,78.804,113.21,60.41c19.246-11.113,23.85-34.526,24.88-47.495c2.031-25.557-5.283-54.233-20.593-80.752
				C1258.425,2708.261,1221.2,2682.519,1190.893,2682.519z"/>
		</g>
		<g>
			
				<ellipse transform="matrix(0.924 -0.3824 0.3824 0.924 -773.4694 769.4677)" style="fill:#EA2D05;" cx="1549.269" cy="2330.806" rx="302.399" ry="226.441"/>
		</g>
		<g style="opacity:0.35;">
			<path style="fill:#721716;" d="M1635.832,2540.053c-128.985,53.372-264.62,32.848-333.527-42.766
				c72.519,31.759,169.401,31.817,262.844-6.822c154.323-63.863,240.658-209.3,192.847-324.872
				c-7.854-18.974-18.803-36.001-32.447-50.848c47.352,20.694,84.27,54.805,103.131,100.437
				C1876.49,2330.753,1790.156,2476.19,1635.832,2540.053z"/>
		</g>
		<g style="opacity:0.55;">
			<path style="fill:#FFFFFF;" d="M1813.717,2186.805c-72.289-64.091-198.809-78.88-319.482-28.949
				c-154.324,63.861-240.658,209.3-192.847,324.87c4.185,10.09,9.172,19.549,15.02,28.491
				c-20.179-17.885-36.116-39.555-46.549-64.78c-47.811-115.57,38.523-261.008,192.847-324.87
				C1603.672,2063.267,1752.55,2093.134,1813.717,2186.805z"/>
		</g>
		<g style="opacity:0.25;">
			<path style="fill:#650000;" d="M2625.675,1149.134c0,25.396-4.873,49.932-14.102,73.321
				c-45.919,117.004-199.325,202.994-381.453,202.994c-118.896,0-225.523-36.632-298.042-94.704
				c-60.709-48.556-97.513-112.073-97.513-181.611c0-152.603,177.14-276.315,395.555-276.315
				C2448.592,872.82,2625.675,996.531,2625.675,1149.134z"/>
		</g>
		<g>
			<path style="fill:#650000;" d="M1490.903,2592.621c-110.283,0-205.989-49.81-242.244-137.422
				c-25.955-62.729-18.11-134.57,22.09-202.29c38.936-65.591,103.987-119.761,183.174-152.524
				c79.185-32.773,163.491-40.415,237.388-21.504c76.299,19.517,132.612,64.81,158.569,127.534
				c25.954,62.729,18.11,134.57-22.09,202.29c-38.936,65.591-103.987,119.761-183.174,152.524
				C1593.161,2582.524,1540.551,2592.621,1490.903,2592.621z M1608.212,2114.56c-44.797,0-91.594,9.512-136.755,28.198
				c-70.088,29.004-127.361,76.436-161.272,133.56c-32.644,54.995-39.446,112.295-19.148,161.343
				c42.905,103.687,193.652,140.093,336.045,81.196c70.088-29.004,127.361-76.436,161.272-133.56
				c32.644-54.995,39.446-112.295,19.148-161.343c-20.295-49.053-65.596-84.795-127.556-100.64
				C1657.057,2117.46,1632.939,2114.56,1608.212,2114.56z"/>
		</g>
		<g>
			<path style="fill:#650000;" d="M1777.946,2146.791c16.318,28.267,22.869,62.512,20.842,96.235
				c-2.356,33.789-12.817,67.09-29.209,96.936c-32.861,59.998-86.838,106.726-147.891,135.916
				c-60.984,29.363-130.73,42.058-198.003,32.427c-33.574-4.673-66.287-15.83-95.339-32.827
				c-28.767-17.322-53.972-40.906-69.668-69.512c22.869,23.169,49.573,40.554,78.423,51.858
				c28.647,11.726,59.231,17.542,89.761,19.087c61.199,3.044,122.471-10.859,177.505-37.214
				c54.91-26.284,104.199-65.432,138.296-115.994c16.902-25.22,30.256-53.223,36.711-83.35
				C1786.323,2210.326,1785.947,2178.32,1777.946,2146.791z"/>
		</g>
		<g>
			<path style="fill:#EA2D05;" d="M2524.397,1062.111c0,25.396-4.873,49.932-14.102,73.321
				c-45.919,117.004-199.325,202.994-381.453,202.994c-118.896,0-225.523-36.632-298.042-94.704
				c-60.709-48.556-97.513-112.073-97.513-181.611c0-152.603,177.14-276.315,395.555-276.315
				C2347.315,785.796,2524.397,909.508,2524.397,1062.111z"/>
		</g>
		<g style="opacity:0.55;">
			<path style="fill:#FFFFFF;" d="M1788.723,1077.131c0,69.537,36.804,133.055,97.513,181.611
				c35.371,28.319,78.767,51.479,127.724,67.818c-71.83-15.193-135.005-44.257-183.159-82.838
				c-60.709-48.556-97.513-112.073-97.513-181.611c0-152.603,177.14-276.315,395.555-276.315c61.11,0,119.01,9.688,170.719,26.943
				c-36.46-7.738-75.155-11.924-115.284-11.924C1965.863,800.816,1788.723,924.527,1788.723,1077.131z"/>
		</g>
		<g>
			<path style="fill:#650000;" d="M2128.869,1361.357c-230.754,0-418.484-134.241-418.484-299.246s187.729-299.246,418.484-299.246
				s418.484,134.241,418.484,299.246S2359.623,1361.357,2128.869,1361.357z M2128.869,808.725
				c-205.466,0-372.625,113.669-372.625,253.386s167.158,253.386,372.625,253.386s372.625-113.669,372.625-253.386
				S2334.335,808.725,2128.869,808.725z"/>
		</g>
		<g>
			<g>
				<path style="fill:#E57505;" d="M2990.808,1429.06c-24.765-9.286-46.951-24.421-65.639-43.167
					c-436.887-438.32-1206.156-490.487-1743.25-323.781c-63.403-27.689-104.908-77.62-122.966-133.915
					c-31.243-97.341,7.281-213.886,122.966-268.347c483.953-262.958,1357.04-144.635,1804.016,168.254
					c142.514,99.691,241.747,219.218,271.213,352.445C3277.155,1380.046,3141.921,1485.757,2990.808,1429.06z"/>
			</g>
			<g style="opacity:0.55;">
				<path style="fill:#FFFFFF;" d="M3209.223,1058.672c-209.529-288.985-756.37-482.176-1268.699-494.329
					c-184.477,138.387-306.583,20.122-310.252,16.51c0.115-0.057,0.229-0.115,0.344-0.057h-0.401c0,0,0,0,0.057,0.057
					c-154.438,21.211-297.469,62.887-416.823,127.724c-126.119,59.391-160.515,192.503-112.819,294.087
					c-88.34-102.73-66.385-273.334,81.289-342.814C1771.41,339.508,2938.469,585.038,3209.223,1058.672z"/>
			</g>
			<g style="opacity:0.55;">
				<path style="fill:#FFFFFF;" d="M1630.616,580.796c-0.115-0.057-0.229,0-0.344,0.057c-0.057-0.057-0.057-0.057-0.057-0.057
					H1630.616z"/>
			</g>
			<g>
				<path style="fill:#650000;" d="M3070.663,1467.155c-28.567,0-58.257-5.503-87.925-16.636
					c-27.026-10.142-51.853-26.443-73.794-48.452c-425.801-427.153-1187.703-483.342-1720.249-318.076
					c-5.259,1.631-10.925,1.321-15.969-0.884c-89.392-39.014-145.762-122.581-147.117-218.086
					c-1.362-95.959,54.531-182.356,145.918-225.632c197.085-106.909,474.517-158.501,781.289-145.254
					c290.095,12.517,582.427,79.832,823.142,189.544c283.086,129.023,461.919,303.73,503.56,491.936
					c0.193,0.879,0.337,1.768,0.425,2.661c10.75,107.007-20.894,197.473-86.812,248.203
					C3158.122,1453.425,3115.793,1467.155,3070.663,1467.155z M1780.854,951.354c105.139,0,210.437,7.639,313.643,23.081
					c348.247,52.104,641.111,188.782,846.929,395.254c17.271,17.324,36.592,30.073,57.427,37.891c0,0,0,0,0,0.002
					c61.365,23.027,121.982,16.667,166.311-17.446c52.81-40.645,78.027-115.649,69.282-205.93
					c-39.011-173.315-208.521-336.199-477.507-458.796c-434.402-197.991-1130.205-281.189-1564.089-45.41
					c-0.391,0.21-0.784,0.41-1.184,0.598c-76.387,35.952-121.321,104.653-120.198,183.774c1.057,74.56,43.76,140.217,112.051,173.23
					C1370.729,980.507,1575.478,951.354,1780.854,951.354z"/>
			</g>
			<g>
				<path style="fill:#650000;" d="M2981.406,1228.788c8.245-14.92,17.163-29.634,27.91-43.186
					c10.767-13.501,22.876-26.15,36.665-37.126c27.314-21.948,62.546-36.997,100.098-36.384
					c18.643,0.249,37.559,4.377,54.963,12.529c17.339,8.262,32.915,20.657,45.208,35.818c12.346,15.144,21.277,33.069,26.365,51.814
					c5.186,18.755,6.824,38.218,5.837,57.258l-0.01,0.181c-0.657,12.666-11.458,22.402-24.124,21.746
					c-12.666-0.657-22.402-11.457-21.746-24.123c0.042-0.781,0.127-1.58,0.242-2.337c4.507-29.014,0.62-59.285-15.366-83.225
					c-7.839-11.934-18.313-22.285-30.82-29.897c-12.566-7.478-26.97-12.285-42.034-14.009c-30.259-3.63-62.378,5.752-89.438,23.447
					c-13.623,8.799-26.179,19.504-37.722,31.353c-11.531,11.902-21.577,25.269-31.096,39.068l-0.061,0.09
					c-0.901,1.301-2.686,1.631-3.989,0.73C2981.066,1231.691,2980.71,1230.06,2981.406,1228.788z"/>
			</g>
			<g>
				<path style="fill:#721716;" d="M1527.77,691.379c-2.346,6.228-3.752,11.87-4.836,17.51c-0.691,2.693-0.923,5.591-1.482,8.203
					l-1.038,8.066c-1.226,10.652-1.536,21.196-1.606,31.985c-0.325,5.359,0.073,10.85-0.112,16.372
					c-0.046,5.542,0.264,11.165-0.068,16.931c0.168,5.742-0.042,11.623-0.42,17.698c-0.193,6.047-0.576,12.239-1.902,18.909
					c-4.607-4.773-8.274-10.027-11.748-15.422c-3.174-5.493-5.701-11.299-8.11-17.178c-1.951-6.021-3.733-12.143-4.824-18.455
					c-0.486-3.174-0.796-6.372-1.194-9.57c-0.388-3.184-0.232-6.472-0.273-9.722c0.12-12.976,2.766-26.353,8.867-38.398
					c1.602-2.978,3.323-5.891,5.21-8.655c2.097-2.71,4.041-5.388,6.543-7.734C1515.534,697.223,1521.191,693.051,1527.77,691.379z"
					/>
			</g>
			<g>
				<path style="fill:#721716;" d="M1579.296,690.378c0.632,12.354,1.75,22.651,3.069,32.722c1.296,9.997,3.025,19.47,4.856,29.043
					c2.148,9.524,4.236,19.16,6.707,29.294c1.006,5.154,2.644,10.185,3.511,15.776c1.196,5.444,2.485,10.996,2.947,17.419
					c-2.81-1.37-5.349-3.01-7.861-4.722c-2.522-1.709-4.963-3.523-7.205-5.515c-4.192-4.172-8.494-8.469-11.819-13.435
					c-3.396-4.936-6.528-10.107-8.792-15.74c-1.177-2.793-2.415-5.562-3.228-8.511l-2.339-8.855
					c-2.319-12.031-2.266-24.678,0.84-36.619C1563.163,709.44,1569.032,697.851,1579.296,690.378z"/>
			</g>
			<g>
				<path style="fill:#721716;" d="M2393.2,752.245c-8.271,9.199-14.746,17.285-20.92,25.349
					c-6.14,7.998-11.599,15.93-17.058,24.004c-5.2,8.262-10.522,16.563-15.925,25.486c-2.922,4.36-5.315,9.082-8.647,13.652
					c-2.993,4.702-5.999,9.548-10.203,14.421c-1.025-2.954-1.667-5.908-2.239-8.894c-0.581-2.988-1.03-5.996-1.213-8.989
					c-0.024-5.916-0.039-11.997,1.111-17.861c1.079-5.891,2.507-11.765,4.878-17.356c1.138-2.808,2.217-5.642,3.723-8.306
					l4.592-7.925c6.846-10.159,15.811-19.082,26.438-25.349C2368.315,754.365,2380.654,750.297,2393.2,752.245z"/>
			</g>
			<g>
				<path style="fill:#721716;" d="M2471.769,809.675c-7.852,8.118-13.889,15.195-19.514,22.273
					c-5.596,7.007-10.452,13.943-15.259,21.065c-4.553,7.305-9.182,14.7-13.872,22.771c-2.542,3.95-4.583,8.242-7.517,12.434
					c-2.583,4.316-5.2,8.769-8.936,13.32c-2.107-5.247-3.323-10.64-4.089-16.084c-0.276-5.376-0.544-10.918,0.3-16.311
					c1.411-10.857,5.417-21.497,11.472-30.999c6.289-9.358,14.736-17.456,24.702-22.822
					C2448.962,810.077,2460.483,807.04,2471.769,809.675z"/>
			</g>
			<g style="opacity:0.35;">
				<path style="fill:#650000;" d="M2990.808,1429.06c-24.765-9.286-46.951-24.421-65.639-43.167
					c-436.887-438.32-1206.156-490.487-1743.25-323.781c-63.403-27.689-104.908-77.62-122.966-133.915
					c660.175-208.956,1298.624-172.554,1907.721,196.458c242.55-65.983,19.376-269.035,19.376-269.035l-0.115-27.516
					c142.514,99.691,241.747,219.218,271.213,352.445C3277.155,1380.046,3141.921,1485.757,2990.808,1429.06z"/>
			</g>
			<g style="opacity:0.55;">
				<path style="fill:#FFFFFF;" d="M1630.616,580.796c-0.115-0.057-0.229,0-0.344,0.057c-0.057-0.057-0.057-0.057-0.057-0.057
					H1630.616z"/>
			</g>
		</g>
		<g>
			<path style="fill:#650000;" d="M1742.559,1801.485c-27.39,48.897-91.125,62.886-132.439,34.581
				c-32.096-21.833-50.727-69.161-28.828-145.251c48.374,38.96,104.591,51.903,168.588,38.96l5.426,4.837
				C1757.791,1761.283,1752.561,1783.704,1742.559,1801.485z"/>
		</g>
		<g>
			<path style="fill:#EF4343;" d="M1742.559,1801.485c-27.39,48.897-91.125,62.886-132.439,34.581
				C1635.157,1788.215,1698.174,1767.166,1742.559,1801.485z"/>
		</g>
		<g>
			<path style="fill:#650000;" d="M1019.281,1407.948c4.795,14.983,8.181,29.57,13.94,42.842
				c5.425,13.245,11.934,25.427,20.212,34.492c8.274,9.075,17.676,14.954,28.274,17.495c10.635,2.417,22.485,2.068,34.551-0.725
				c12.099-2.629,24.302-7.661,35.974-14.028c11.731-6.343,22.915-14.189,33.462-23.054c21.04-17.935,39.165-39.883,51.621-68.472
				c2.402,15.562,0.039,31.948-5.105,47.337c-5.217,15.43-13.435,29.89-23.616,42.842c-10.195,12.974-22.527,24.351-36.455,33.789
				c-3.481,2.368-7.19,4.421-10.806,6.619c-3.755,1.995-7.593,3.884-11.414,5.803c-4.016,1.597-8.003,3.235-12.099,4.68
				c-4.224,1.208-8.316,2.698-12.676,3.606c-4.417,0.752-8.672,1.882-13.259,2.139c-4.509,0.442-9.023,0.901-13.699,0.603
				c-2.322-0.115-4.612-0.073-6.946-0.356l-7.002-1.023c-4.653-0.476-9.294-2.217-13.843-3.513
				c-18.325-6.267-33.792-20.071-42.666-35.625c-9.07-15.647-12.725-32.446-13.699-48.518c-0.083-4.05-0.239-8.049-0.222-12.024
				c0.315-3.987,0.588-7.932,1.013-11.853C1015.419,1423.183,1017.519,1415.475,1019.281,1407.948z"/>
		</g>
		<g>
			<path style="fill:#650000;" d="M1904.531,1175.79c12.219,17.517,30.669,26.277,49.065,33.533
				c18.623,7.041,38.096,11.897,57.773,15.674c39.387,7.507,79.658,10.972,119.766,11.609c40.098,0.491,80.271-1.77,119.233-9.414
				c19.46-3.845,38.608-9.131,56.768-17.046c18.171-7.905,35.247-18.655,49.688-34.355c-6.87,20.303-22.078,37.9-39.568,51.284
				c-17.659,13.469-37.8,23.188-58.428,30.515c-41.482,14.434-85.161,19.724-128.286,19.129
				c-43.159-0.733-86.27-7.305-127.402-21.372c-20.481-7.17-40.571-16.228-58.794-28.718c-9.058-6.257-17.668-13.442-24.878-21.919
				c-3.528-4.311-6.902-8.716-9.487-13.618C1907.48,1186.164,1905.407,1181.064,1904.531,1175.79z"/>
		</g>
		<g>
			<g>
				
					<ellipse transform="matrix(0.0751 -0.9972 0.9972 0.0751 -375.3027 2934.5181)" style="fill:#650000;" cx="1394.191" cy="1669.565" rx="113.852" ry="83.346"/>
			</g>
			<g>
				<ellipse style="fill:#FFFFFF;" cx="1375.133" cy="1628.994" rx="30.06" ry="37.983"/>
			</g>
			<g style="opacity:0.35;">
				
					<ellipse transform="matrix(0.3578 -0.9338 0.9338 0.3578 -687.5171 2432.2712)" style="fill:#FFFFFF;" cx="1424.668" cy="1716.007" rx="29.602" ry="19.475"/>
			</g>
		</g>
		<g>
			<g>
				
					<ellipse transform="matrix(0.0751 -0.9972 0.9972 0.0751 139.4773 3531.9988)" style="fill:#650000;" cx="1973.65" cy="1690.815" rx="113.852" ry="83.346"/>
			</g>
			<g>
				<ellipse style="fill:#FFFFFF;" cx="1954.592" cy="1650.244" rx="30.06" ry="37.983"/>
			</g>
			<g style="opacity:0.35;">
				
					<ellipse transform="matrix(0.3578 -0.9338 0.9338 0.3578 -335.255 2987.009)" style="fill:#FFFFFF;" cx="2004.127" cy="1737.257" rx="29.602" ry="19.475"/>
			</g>
		</g>
		<g>
			<path style="fill:#650000;" d="M1733.681,1668.461c7.107,9.807,12.483,18.103,17.664,25.794
				c5.129,7.661,10.015,14.343,14.966,20.498c2.375,3.22,5.173,5.854,7.681,9.026c2.969,2.581,5.532,5.92,8.928,8.591
				c1.672,1.345,3.103,3.294,5.012,4.544c1.831,1.387,3.679,2.947,5.601,4.609c3.855,3.384,8.267,6.079,12.869,10.586
				c-2.693,1.392-5.471,2.339-8.333,3.196c-2.864,0.835-5.813,1.699-8.728,1.726c-5.876,0.31-11.995,0.181-17.834-1.636
				c-6.067-1.223-11.477-4.348-16.941-7.422c-4.983-3.701-9.924-7.708-13.665-12.671c-7.817-9.656-12.463-21.279-13.826-32.866
				C1725.873,1690.847,1727.245,1678.979,1733.681,1668.461z"/>
		</g>
		<g>
			<path style="fill:#650000;" d="M1658.676,1870.063c-24.087,0-47.573-7.61-66.011-22.512
				c-23.303-18.833-58.22-64.941-30.254-162.163c1.816-6.309,6.67-11.294,12.93-13.274c6.272-1.985,13.101-0.696,18.213,3.418
				c44.023,35.427,93.877,46.878,152.407,35.01c7.6-1.55,15.054,1.533,19.47,7.29c5.151,3.11,8.809,8.545,9.404,14.998
				c4.983,54.077-17.935,100.225-61.306,123.442C1696.266,1865.512,1677.289,1870.06,1658.676,1870.063z M1593.815,1723.608
				c-7.112,42.554,0.938,75.203,23.501,93.438c20.588,16.641,51.814,18.503,77.703,4.646c25.364-13.577,39.902-38.521,41.182-69.734
				C1684.042,1759.054,1636.31,1749.543,1593.815,1723.608z"/>
		</g>
		<g>
			
				<ellipse transform="matrix(0.1989 -0.98 0.98 0.1989 -850.6318 2573.1892)" style="fill:#EF4343;" cx="1148.698" cy="1806.924" rx="29.558" ry="52.311"/>
		</g>
		<g>
			
				<ellipse transform="matrix(0.0751 -0.9972 0.9972 0.0751 81.3413 3920.1843)" style="fill:#EF4343;" cx="2153.831" cy="1916.245" rx="29.558" ry="52.311"/>
		</g>
		<g>
			<ellipse style="fill:#4BC931;" cx="1616.433" cy="1379.311" rx="40.371" ry="64.98"/>
		</g>
		<g style="opacity:0.25;">
			
				<ellipse transform="matrix(0.9078 -0.4194 0.4194 0.9078 -353.1335 714.9324)" style="fill:#650000;" cx="1449.477" cy="1160.634" rx="41.679" ry="26.622"/>
		</g>
		<g style="opacity:0.25;">
			<circle style="fill:#650000;" cx="1541.386" cy="1120.614" r="17.437"/>
		</g>
		<g>
			<ellipse style="fill:#4BC931;" cx="1208.652" cy="2012.762" rx="34.396" ry="56.371"/>
		</g>
		<g>
			<ellipse style="fill:#4BC931;" cx="1542.103" cy="2775.208" rx="38.696" ry="60.193"/>
		</g>
		<g style="opacity:0.25;">
			<circle style="fill:#650000;" cx="1750.988" cy="2664.495" r="28.305"/>
		</g>
		<g style="opacity:0.25;">
			
				<ellipse transform="matrix(0.1602 -0.9871 0.9871 0.1602 -1043.78 3943.4514)" style="fill:#650000;" cx="1795.595" cy="2585.134" rx="10.57" ry="10.57"/>
		</g>
		<g>
			
				<ellipse transform="matrix(0.5333 -0.8459 0.8459 0.5333 -921.9666 2731.3813)" style="fill:#4BC931;" cx="2014.332" cy="2201.223" rx="46.578" ry="33.679"/>
		</g>
		<g style="opacity:0.25;">
			
				<ellipse transform="matrix(0.7071 -0.7071 0.7071 0.7071 -315.7735 2194.0415)" style="fill:#650000;" cx="2490.526" cy="1478.189" rx="32.246" ry="35.471"/>
		</g>
		<g style="opacity:0.25;">
			
				<ellipse transform="matrix(0.1602 -0.9871 0.9871 0.1602 578.0379 3611.0576)" style="fill:#650000;" cx="2411.164" cy="1465.828" rx="12.361" ry="12.361"/>
		</g>
		<g>
			
				<ellipse transform="matrix(0.9641 -0.2655 0.2655 0.9641 -336.2722 660.4571)" style="fill:#4BC931;" cx="2275.115" cy="1574.212" rx="68.076" ry="34.396"/>
		</g>
		<g style="opacity:0.35;">
			<path style="fill:#721716;" d="M2510.295,1135.432c-45.919,117.004-199.325,202.994-381.453,202.994
				c-118.896,0-225.523-36.632-298.042-94.704c511.24,107.144,489.628-208.383,489.628-208.383l170.097,57.327
				C2490.526,1092.667,2501.237,1076.328,2510.295,1135.432z"/>
		</g>
	</g>
</g>
</svg>
