<?xml version="1.0" encoding="utf-8"?>
<!-- Generator: Adobe Illustrator 27.5.0, SVG Export Plug-In . SVG Version: 6.00 Build 0)  -->
<svg version="1.1" id="Layer_1" xmlns="http://www.w3.org/2000/svg" xmlns:xlink="http://www.w3.org/1999/xlink" x="0px" y="0px"
	 viewBox="0 0 4000 4000" style="enable-background:new 0 0 4000 4000;" xml:space="preserve">
<g>
	<g>
		<!-- <rect style="fill:#E1E1EF;" width="4000" height="4000"/> -->
	</g>
	<g>
		<g>
			<path style="fill:#3770EF;" d="M2353.85,3337.5l-188.75,17.15l-171.5,15.551c0,0-17.5-67.7-45.4-109.351
				c-27.85-41.65-73.85-117.25-73.85-117.25c-34.7,5.95-74.75,4.95-74.75,4.95c-39.1,84.7-92.35,180-92.35,180
				s-52.55,17.85-118.5,32.6c-114.05,25.6-268.15,42.1-259.35-58.65c13.85-158.9,79.1-376.35,79.1-376.35l244.2-12
				c0,0,406.1-91.4,547.3,43.5c0.95,0.9,1.9,1.849,2.85,2.8c75.25,73.5,113.3,178.4,132.4,258.9
				C2351.25,3287.05,2353.85,3337.5,2353.85,3337.5z"/>
		</g>
		<g style="opacity:0.66;">
			<path style="fill:#FFFFFF;" d="M2335.25,3219.35c-8.15-8.5-16.1-21.5-23.55-40.05c-53.05-131.9-144.3-202.2-144.3-202.2
				l35.45-16.65C2278.1,3033.95,2316.15,3138.85,2335.25,3219.35z"/>
		</g>
		<g>
			<path style="fill:#2459D1;" d="M2226.8,3289.5c0,0-25.35,28.251-61.7,65.15l-171.5,15.551c0,0-17.5-67.7-45.4-109.351
				c-27.85-41.65-73.85-117.25-73.85-117.25c-34.7,5.95-74.75,4.95-74.75,4.95c-39.1,84.7-92.35,180-92.35,180
				s-52.55,17.85-118.5,32.6c-38.5-21.4-64-36.1-64-36.1s179.5-84.4,109.85-166.65c-69.7-82.25-173.8-116.949-173.8-116.949
				l90.8-15.15c178.45,52.35,368.95,52.1,574.4-13.1c0,0-122.2,106.55-126,180.45S2226.8,3289.5,2226.8,3289.5z"/>
		</g>
		<g>
			<path style="fill:#000077;" d="M1444.033,3398.235c-42.241,0-79.795-6.948-103.857-25.833
				c-21.201-16.641-31.016-41.335-28.389-71.421c13.882-158.899,77.126-370.969,79.812-379.919
				c2.148-7.163,8.577-12.195,16.047-12.561l242.671-11.929c31.658-6.975,418.511-88.655,561.88,48.303
				c144.612,138.135,158.75,381.406,159.282,391.694c0.488,9.473-6.594,17.639-16.04,18.496l-360.247,32.729
				c-8.623,0.774-16.528-4.795-18.694-13.167c-0.168-0.649-17.097-65.33-42.949-103.936c-21.741-32.466-54.661-85.85-68.179-107.908
				c-21.038,2.717-41.982,3.357-54.531,3.462c-38.379,81.682-87.681,170.005-88.196,170.925c-2.131,3.813-5.603,6.702-9.739,8.105
				C1691.953,3352.385,1552.539,3398.235,1444.033,3398.235z M1421.946,2943.157c-13.645,47.493-63.25,226.685-74.973,360.901
				c-1.606,18.374,3.162,31.262,15.005,40.557c58.423,45.867,254.253-4.717,333.142-30.635
				c12.192-22.102,55.647-101.733,88.455-172.842c2.952-6.399,9.507-10.305,16.477-10.256c0.378,0.005,38.777,0.884,71.304-4.69
				c7.134-1.226,14.304,2.036,18.071,8.228c0.459,0.754,46.113,75.771,73.469,116.621c21.45,32.031,36.758,77.292,43.682,100.256
				l328.164-29.812c-5.923-56.746-33.523-242.734-146.938-351.072c-132.727-126.775-527.273-39.937-531.243-39.048
				c-0.989,0.222-1.997,0.359-3.008,0.408L1421.946,2943.157z"/>
		</g>
		<g>
			<g>
				<polygon style="fill:#56558F;" points="2886.157,1983.265 2935.248,1991.384 2930.289,2026.666 2874.504,2016.488 				"/>
			</g>
			<g>
				<path style="fill:#000077;" d="M2930.288,2036.667c-0.598,0-1.199-0.054-1.794-0.164l-55.784-10.181
					c-2.878-0.525-5.381-2.283-6.851-4.812s-1.76-5.574-0.791-8.335l11.653-33.223c1.609-4.583,6.274-7.346,11.067-6.555
					l49.092,8.12c5.356,0.886,9.028,5.881,8.271,11.257l-4.961,35.283c-0.378,2.698-1.841,5.122-4.048,6.716
					C2934.426,2036.013,2932.375,2036.667,2930.288,2036.667z M2887.815,2008.75l34.021,6.211l2.151-15.303l-31.174-5.156
					L2887.815,2008.75z"/>
			</g>
			<g>
				<polyline style="fill:#56558F;" points="2740.372,1964.05 2767.893,1771.405 2801.116,1778.717 2773.595,1971.361 				"/>
			</g>
			<g>
				<path style="fill:#000077;" d="M2773.608,1981.365c-0.471,0-0.947-0.034-1.426-0.103c-5.469-0.781-9.268-5.847-8.486-11.313
					l26.208-183.462l-13.635-3l-25.999,181.978c-0.784,5.466-5.864,9.26-11.313,8.486c-5.469-0.781-9.268-5.847-8.486-11.313
					l27.522-192.646c0.393-2.754,1.917-5.22,4.204-6.804c2.285-1.584,5.134-2.141,7.844-1.548l33.223,7.312
					c5.112,1.123,8.491,5.999,7.751,11.179l-27.52,192.646C2782.783,1977.764,2778.503,1981.362,2773.608,1981.365z"/>
			</g>
			<g>
				<path style="fill:#A4A4C1;" d="M2713.967,1982.273l11.816-19.15c2.633-4.267,7.604-6.494,12.541-5.617l31.08,5.519
					c6.233,1.107,10.59,6.788,10.042,13.094l-1.326,15.265"/>
			</g>
			<g>
				<path style="fill:#000077;" d="M2778.132,2001.384c-0.291,0-0.583-0.012-0.876-0.037c-5.503-0.479-9.575-5.327-9.099-10.828
					l1.326-15.266c0.1-1.155-0.684-2.18-1.826-2.383l-31.082-5.52c-0.894-0.164-1.794,0.237-2.28,1.021l-11.816,19.153
					c-2.9,4.7-9.065,6.157-13.762,3.259c-4.7-2.9-6.16-9.063-3.259-13.762l11.816-19.15c4.817-7.808,13.765-11.807,22.798-10.212
					l31.082,5.52c11.409,2.024,19.258,12.258,18.257,23.804l-1.326,15.266C2787.629,1997.456,2783.262,2001.384,2778.132,2001.384z"
					/>
			</g>
			<g>
				<polygon style="fill:#A4A4C1;" points="2704.917,1985.744 2945.165,2026.157 2876.302,2506.281 2602.025,2459.05 
					2678.14,2019.463 				"/>
			</g>
			<g style="opacity:0.62;">
				<polygon style="fill:#FFFFFF;" points="2711.764,1991.384 2647.893,2432.769 2627.562,2450.868 2685.579,2016.488 				"/>
			</g>
			<g>
				<path style="fill:#000077;" d="M2876.301,2521.282c-0.847,0-1.699-0.071-2.546-0.217l-274.277-47.231
					c-3.921-0.676-7.415-2.883-9.709-6.135s-3.203-7.285-2.524-11.206l76.116-439.587c0.43-2.476,1.472-4.802,3.035-6.77
					l26.777-33.718c3.396-4.275,8.867-6.353,14.233-5.464l240.249,40.413c8.03,1.35,13.516,8.862,12.361,16.921l-68.865,480.125
					c-0.576,4.011-2.749,7.617-6.025,10.002C2882.544,2520.291,2879.451,2521.282,2876.301,2521.282z M2619.365,2446.816
					l244.277,42.065l64.597-450.361l-217.083-36.516l-18.892,23.789L2619.365,2446.816z"/>
			</g>
			<g>
				<path style="fill:#000077;" d="M2739.054,2034.86l154.052,26.629c5.1,0.882,8.589,5.638,7.898,10.767l-12.401,92.045
					c-0.727,5.396-5.783,9.115-11.151,8.202l-157.677-26.832c-5.255-0.894-8.781-5.89-7.865-11.141l16.026-91.842
					C2728.848,2037.458,2733.823,2033.955,2739.054,2034.86z"/>
			</g>
			<g>
				
					<ellipse transform="matrix(0.7071 -0.7071 0.7071 0.7071 -611.7264 2592.5967)" style="fill:#000077;" cx="2823.678" cy="2034.717" rx="8.051" ry="8.051"/>
			</g>
			<g>
				<path style="fill:#000077;" d="M2855.041,2041.412c0,3.697-2.997,6.694-6.694,6.694c-3.697,0-6.694-2.997-6.694-6.694
					c0-3.697,2.997-6.694,6.694-6.694C2852.044,2034.717,2855.041,2037.714,2855.041,2041.412z"/>
			</g>
			<g>
				<circle style="fill:#000077;" cx="2799.733" cy="2030.441" r="6.694"/>
			</g>
			<g>
				<path style="fill:#000077;" d="M2877.107,2047.114c0,3.149-2.553,5.703-5.702,5.703s-5.703-2.553-5.703-5.703
					c0-3.149,2.553-5.702,5.703-5.702S2877.107,2043.965,2877.107,2047.114z"/>
			</g>
			<g>
				<path style="fill:#000077;" d="M2780.413,2026.666c0,3.149-2.553,5.703-5.702,5.703s-5.702-2.553-5.702-5.703
					s2.553-5.703,5.702-5.703S2780.413,2023.517,2780.413,2026.666z"/>
			</g>
			<g>
				<polygon style="fill:#56558F;" points="2705.227,2172.64 2881.786,2198.212 2844.262,2461.176 2665.434,2427.624 				"/>
			</g>
			<g>
				<path style="fill:#000077;" d="M2844.263,2471.174c-0.615,0-1.23-0.056-1.843-0.171l-178.828-33.55
					c-5.313-0.996-8.87-6.033-8.037-11.372l39.792-254.983c0.845-5.413,5.872-9.141,11.313-8.354l176.56,25.571
					c5.459,0.791,9.246,5.85,8.467,11.311l-37.524,262.961c-0.386,2.7-1.858,5.125-4.075,6.714
					C2848.376,2470.53,2846.338,2471.174,2844.263,2471.174z M2676.812,2419.585l159.028,29.834l34.639-242.739l-156.897-22.725
					L2676.812,2419.585z"/>
			</g>
			<g>
				<path style="fill:#000077;" d="M2726.001,2440.269c-0.391,0-0.786-0.029-1.184-0.093c-4.092-0.649-6.882-4.492-6.233-8.582
					l39.878-251.345c0.649-4.094,4.495-6.887,8.582-6.233c4.092,0.649,6.882,4.492,6.233,8.582l-39.878,251.345
					C2732.813,2437.637,2729.624,2440.269,2726.001,2440.269z"/>
			</g>
			<g>
				<path style="fill:#000077;" d="M2792.847,2454.216c-0.391,0-0.786-0.029-1.184-0.093c-4.092-0.649-6.882-4.492-6.233-8.582
					l39.875-251.345c0.649-4.089,4.504-6.887,8.582-6.233c4.092,0.649,6.882,4.492,6.233,8.582l-39.875,251.345
					C2799.658,2451.584,2796.47,2454.216,2792.847,2454.216z"/>
			</g>
			<g>
				<path style="fill:#000077;" d="M2873.337,2264.988c-0.396,0-0.793-0.029-1.194-0.095l-172.874-27.654
					c-4.092-0.654-6.875-4.5-6.221-8.589c0.652-4.092,4.509-6.902,8.589-6.221l172.874,27.654c4.092,0.654,6.875,4.5,6.221,8.589
					C2880.144,2262.361,2876.956,2264.988,2873.337,2264.988z"/>
			</g>
			<g>
				<path style="fill:#000077;" d="M2865.654,2332.842c-0.396,0-0.793-0.029-1.194-0.095l-172.874-27.654
					c-4.092-0.654-6.875-4.5-6.221-8.589c0.652-4.092,4.512-6.895,8.589-6.221l172.874,27.654c4.092,0.654,6.875,4.5,6.221,8.589
					C2872.461,2330.215,2869.272,2332.842,2865.654,2332.842z"/>
			</g>
			<g>
				<path style="fill:#000077;" d="M2852.314,2412.839c-0.396,0-0.793-0.029-1.194-0.095l-172.874-27.654
					c-4.092-0.654-6.875-4.5-6.221-8.589c0.654-4.092,4.521-6.89,8.589-6.221l172.874,27.654c4.092,0.654,6.875,4.5,6.221,8.589
					C2859.121,2410.212,2855.933,2412.839,2852.314,2412.839z"/>
			</g>
		</g>
		<g>
			<path style="fill:#FED0B9;" d="M2753.5,2490.05c0,0-56.45,51.35-120.7,23.85l-32.5,24.95l-137.75-139c0,0,32.35-37,77.25-102.45
				c12.15-17.75,23.2-35.9,33.6-52.8c27.9-45.3,51.25-81.55,79.95-76.849c39.4,6.4-9.2,103.6-9.2,103.6s11.15,58.3-16.6,90.75
				l-9.25,85.751l-1.65,15.399L2753.5,2490.05z"/>
		</g>
		<g>
			<path style="fill:#F2ACA0;" d="M2753.5,2490.05c0,0-56.45,51.35-120.7,23.85l-32.5,24.95l-137.75-139c0,0,32.35-37,77.25-102.45
				c12.15-17.75,23.2-35.9,33.6-52.8l4.8-0.95c0,0-56.9,96.7-23.8,147.85c23.35,36.1,50.15,50.8,63.9,56.35l-1.65,15.399
				L2753.5,2490.05z"/>
		</g>
		<g>
			<path style="fill:#000077;" d="M2600.3,2556.331c-5.256,0-10.457-2.358-13.901-6.853c-5.879-7.671-4.429-18.655,3.242-24.536
				l32.524-24.932c5.022-3.848,11.726-4.685,17.542-2.195c24.268,10.396,47.371,7.231,65.449,0.596l-91.863-17.971
				c-8.916-1.746-15.012-10.02-14.041-19.05l10.898-101.157c0.378-3.506,1.807-6.814,4.097-9.495
				c18.145-21.233,15.342-62.148,12.729-76.123c-0.701-3.745-0.161-7.659,1.538-11.069c15.967-32,26.416-69.524,22.007-78.547
				c-18.035-2.925-42.007,35.889-65.107,73.462c-9.775,15.903-19.885,32.346-31.189,48.833
				c-44.941,65.552-77.153,102.539-78.503,104.08c-6.362,7.275-17.415,8.013-24.688,1.653c-7.275-6.362-8.018-17.417-1.658-24.692
				c0.317-0.364,32.319-37.146,75.981-100.83c10.813-15.769,20.688-31.836,30.242-47.373
				c31.804-51.738,59.236-96.458,100.571-89.673c11.243,1.838,20.217,8.291,25.266,18.167c14.546,28.459-8.352,82.92-19.138,105.503
				c2.17,16.516,5.61,62.813-17.888,94.858l-8.64,80.188l121.101,23.694c6.494,1.272,11.714,6.094,13.496,12.466
				c1.78,6.372-0.186,13.203-5.081,17.656c-2.527,2.297-60.154,53.667-129.551,30.72l-24.802,19.011
				C2607.759,2555.154,2604.016,2556.331,2600.3,2556.331z"/>
		</g>
		<g>
			<path style="fill:#3770EF;" d="M2627.55,2538.4c-98.3,171.051-244.5,182.15-413.05,118.5c0,0,0.95,16.95,1.95,41.6
				c0.3,7.15,0.6,15,0.85,23.25c1.85,54.3,2.95,127.1-2.8,153.25c-9.65,43.7-821.15-56.75-821.15-56.75s25.55-240.35,32.7-279.85
				c7.2-39.55,26.3-246.75,26.3-246.75l24.25-16.3l124.5-83.7l613.4,50.95c0,0,16.35,1.1,36.95,6.25c28,7,63.9,21.55,77.6,51.25
				c23.8,51.6,21.55,108.6,120.75,89.05l12.75,10.7l155.5,130.55L2627.55,2538.4z"/>
		</g>
		<g style="opacity:0.62;">
			<path style="fill:#FFFFFF;" d="M2462.55,2399.85c-2.7,1.9-5.8,3.7-9.3,5.4c-100.65,48.6-142.05-17.6-151.7-71.901
				c-9.6-53.8-49.35-54.05-50.1-54.05v-30.45c28,7,63.9,21.55,77.6,51.25c23.8,51.6,21.55,108.6,120.75,89.05L2462.55,2399.85z"/>
		</g>
		<g>
			<path style="fill:#2459D1;" d="M1928.775,2336.346c0,0,90.853,53.282,119.118,107.827c0,0,75.372-54.793,78.347-135.62
				c0,0,125.207-4.463,157.934-37.686c32.727-33.223-218.12-81.432-273.812-92.038c-55.692-10.606-101.553-30.779-158.833-19.829
				s-180.02-9.1-180.02-9.1s-0.158,215.183,134.559,285.596L1928.775,2336.346z"/>
		</g>
		<g>
			<path style="fill:#2459D1;" d="M2214.5,2875c-9.65,43.7-821.15-56.75-821.15-56.75s25.55-240.35,32.7-279.85
				c7.2-39.55,26.3-246.75,26.3-246.75l24.25-16.3l227.3,68.8c0,0-91.5,223.2-166,297.85c-74.55,74.7,73.45,167.9,368.6,145.3
				c0,0,293.6-13.15,308-61.7c0.4-1.35,1.35-2.65,2.8-3.85C2219.15,2776.05,2220.25,2848.85,2214.5,2875z"/>
		</g>
		<g>
			<path style="fill:#2459D1;" d="M2630.525,2537.656c-98.3,171.05-244.5,182.15-413.05,118.5c0,0,0.95,16.95,1.95,41.6
				c-1.55-1.1-1.95-1.7-1.95-1.7l-20.9-229.9c12.7,53.65,49.75,124.1,155.3,146.6c138.4,29.45,233.65-47.45,269.15-83.1
				L2630.525,2537.656z"/>
		</g>
		<g>
			<path style="fill:#000077;" d="M1453.85,2804.031c-1.138,0-2.292-0.156-3.442-0.483c-6.636-1.897-10.481-8.816-8.584-15.454
				c13.25-46.37,13.604-217.991,13.606-219.719c0.007-6.899,5.603-12.485,12.5-12.485c0.005,0,0.01,0,0.015,0
				c6.904,0.007,12.493,5.61,12.485,12.515c-0.007,7.197-0.369,176.86-14.568,226.56
				C1464.292,2800.452,1459.287,2804.031,1453.85,2804.031z"/>
		</g>
		<g>
			<path style="fill:#000077;" d="M1890.718,2885.5c-1.096,0-2.207-0.12-3.32-0.371c-8.079-1.824-13.152-9.856-11.326-17.935
				c33.372-147.766,43.982-333.127,34.402-601.018c-0.295-8.279,6.174-15.232,14.453-15.527c8.364-0.256,15.229,6.177,15.527,14.453
				c9.678,270.581-1.155,458.311-35.12,608.699C1903.76,2880.771,1897.573,2885.5,1890.718,2885.5z"/>
		</g>
		<g>
			<path style="fill:#000077;" d="M2141.709,2903.513c-17.256,0-37.415-0.486-60.33-1.453
				c-68.823-2.905-163.955-10.181-282.756-21.619c-201.982-19.448-405.396-44.565-407.427-44.817
				c-9.475-1.174-16.26-9.724-15.251-19.219c1.047-9.839,25.71-241.448,32.91-281.14c6.951-38.318,25.884-243.176,26.074-245.239
				c0.483-5.239,3.298-9.983,7.666-12.917l148.757-99.983c8.03-5.398,18.896-3.257,24.287,4.763s3.259,18.894-4.763,24.285
				l-141.863,95.349c-3.689,39.558-19.241,204.26-25.72,239.988c-5.869,32.354-24.734,205.908-30.71,261.484
				c348.628,42.766,730.874,77.798,785.913,62.087c5.881-41.396,1.047-161.89-1.465-207.212c-0.327-5.911,2.354-11.584,7.126-15.083
				c4.775-3.496,10.994-4.346,16.528-2.258c178.45,67.388,300.938,36.191,384.219-98.313l-160.076-134.402
				c-88.911,14.607-106.067-32.439-121.262-74.089c-3.181-8.723-6.47-17.742-10.405-26.267
				c-15.869-34.385-77.439-45.872-99.824-47.395c-9.634-0.657-16.926-8.992-16.284-18.628c0.647-9.636,8.982-16.858,18.596-16.296
				c4.128,0.271,101.448,7.327,129.29,67.651c4.541,9.839,8.083,19.551,11.509,28.94c14.919,40.898,23.14,63.428,89.954,50.234
				c5.205-1.018,10.583,0.356,14.644,3.765l177.769,149.255c6.494,5.452,8.145,14.773,3.921,22.124
				c-62.488,108.726-147.908,162.727-258.728,162.734c-45.837,0.005-95.996-9.229-150.713-27.646
				c2.378,51.831,6.196,160.859-1.702,196.58c-4.231,19.126-29.026,22.244-54.063,23.801
				C2167.512,2903.201,2155.542,2903.513,2141.709,2903.513z"/>
		</g>
		<g>
			<path style="fill:#3770EF;" d="M1728.037,2240.385c0,0,15.19,101.64,71.572,138.087l120.349-71.171
				c0,0,60.744,19.105,129.421,85.552c0,0,79.587-69.917,73.141-142.81c-6.446-72.893-232.81-91.041-232.81-91.041"/>
		</g>
		<g>
			<path style="fill:#000077;" d="M2049.382,2410.352c-4.397,0-8.787-1.648-12.17-4.924
				c-51.343-49.675-98.289-71.775-115.549-78.804l-113.145,66.912c-5.713,3.374-12.842,3.23-18.408-0.366
				c-62.305-40.276-78.713-145.728-79.38-150.195c-1.428-9.561,5.161-18.467,14.719-19.895c9.568-1.448,18.462,5.161,19.895,14.714
				c0.2,1.313,13.191,83.608,55.369,119.695l110.337-65.251c4.275-2.529,9.421-3.12,14.158-1.631
				c2.488,0.781,58.291,18.801,123.889,78.027c20.222-21.165,60.198-69.492,55.991-117.048
				c-3.506-39.636-131.426-68.269-216.777-75.139c-9.634-0.776-16.814-9.211-16.04-18.845c0.774-9.631,9.182-16.873,18.84-16.042
				c40.259,3.228,241.467,23.552,248.84,106.943c7.148,80.798-75.5,154.404-79.021,157.498
				C2057.62,2408.906,2053.496,2410.352,2049.382,2410.352z"/>
		</g>
		<g>
			<path style="fill:#6F4338;" d="M1397.059,2968.665l827.065,8.43l2.672-153.232l-818.904-9.265
				C1399.337,2858.903,1396.565,2911.453,1397.059,2968.665z"/>
		</g>
		<g>
			<path style="fill:#000077;" d="M2224.126,2994.753c-0.061,0-0.122,0-0.183,0l-827.065-8.43
				c-9.622-0.098-17.395-7.883-17.478-17.507c-0.554-64.294,3.096-115.835,11.155-157.566c1.621-8.381,9.021-14.294,17.539-14.309
				l818.904,9.263c4.702,0.054,9.187,1.98,12.466,5.352c3.276,3.374,5.073,7.913,4.99,12.615l-2.673,153.232
				C2241.611,2987.043,2233.745,2994.753,2224.126,2994.753z M1414.673,2951.184l792.1,8.074l2.058-117.939l-786.138-8.892
				C1417.49,2865.264,1414.849,2904.395,1414.673,2951.184z"/>
		</g>
		<g>
			<path style="fill:#FFDC31;" d="M1731.315,2818.258c0,0-41.913,68.461,0,153.814l175.221,1.786
				c35.337-29.986,45.093-118.179,0-153.618L1731.315,2818.258z"/>
		</g>
		<g>
			<path style="fill:#000077;" d="M1906.536,2991.516c-0.061,0-0.12,0-0.181,0l-175.22-1.785
				c-6.667-0.068-12.729-3.889-15.671-9.875c-45.669-93.003-1.128-167.686,0.791-170.82c3.213-5.244,8.918-8.438,15.061-8.438
				c0.066,0,0.132,0,0.2,0l175.22,1.982c3.889,0.044,7.654,1.372,10.713,3.774c23.171,18.213,36.311,48.21,36.99,84.465
				c0.737,39.194-13.582,77.073-36.477,96.501C1914.768,2990.032,1910.718,2991.516,1906.536,2991.516z M1742.729,2954.529
				l156.697,1.597c12.251-13.936,20.176-39.373,19.702-64.641c-0.425-22.571-7.405-41.76-19.336-53.662l-157.69-1.782
				C1734.055,2854.316,1719.719,2899.539,1742.729,2954.529z"/>
		</g>
		<g>
			<path style="fill:#3770EF;" d="M2011.557,2821.428c9.248,50.21,8.913,101.411,0,153.5l83.055,2.166
				c2.992-55.469,3.741-108.252,0-155.667H2011.557z"/>
		</g>
		<g>
			<path style="fill:#000077;" d="M2094.619,2992.095c-0.132,0-0.266-0.002-0.398-0.005l-83.054-2.166
				c-4.351-0.115-8.438-2.112-11.201-5.474c-2.761-3.364-3.928-7.761-3.193-12.051c8.735-51.064,8.748-100.945,0.034-148.254
				c-0.808-4.38,0.374-8.892,3.223-12.314c2.852-3.423,7.075-5.403,11.528-5.403h83.054c7.827,0,14.338,6.018,14.954,13.821
				c3.408,43.215,3.418,94.785,0.024,157.654C2109.16,2985.879,2102.561,2992.095,2094.619,2992.095z M2028.965,2960.378
				l51.404,1.34c2.266-48.528,2.346-89.778,0.242-125.291h-51.431C2034.79,2876.489,2034.717,2918.04,2028.965,2960.378z"/>
		</g>
		<g>
			<path style="fill:#3770EF;" d="M1644.788,2818.265c0,0-29.15,50.151-10.78,153.67l-83.199-3.591
				c0,0-35.846-85.348,11.821-153.746L1644.788,2818.265z"/>
		</g>
		<g>
			<path style="fill:#000077;" d="M1634.009,2987.073c-0.217,0-0.435-0.005-0.652-0.015l-83.201-3.591
				c-5.854-0.251-11.035-3.86-13.303-9.26c-1.597-3.799-38.474-93.887,13.359-168.262c2.966-4.255,7.957-6.702,13.091-6.467
				l82.158,3.665c5.291,0.237,10.073,3.22,12.61,7.866c2.522,4.617,2.463,10.208-0.144,14.768
				c-0.439,0.798-25.938,48.154-9.016,143.516c0.803,4.519-0.491,9.16-3.513,12.615
				C1642.517,2985.198,1638.362,2987.073,1634.009,2987.073z M1561.709,2953.665l54.507,2.354
				c-7.957-59.6-0.4-100.654,6.687-123.579l-52.28-2.332C1542.488,2877.253,1555.139,2932.507,1561.709,2953.665z"/>
		</g>
		<g>
			<g>
				<path style="fill:#56558F;" d="M1506.9,3038.2c-15.1,19.6-133.65,28.3-182.5,6.449c-14.35-6.4-23.6-19.05-29.35-34.95
					c-13.7-38.25-6.8-95.45,0.1-130.9c0,0,0-2.15,0.3-5.85c1.25-17.2,7.95-67.45,42.85-85.65c25.7-13.4,79.35-10.05,122.4-1.7
					c13.7,2.649,26.35,5.85,36.65,9.15v0.05c10.75,3.4,18.9,7,23.2,10.35C1541.85,2821.8,1522,3018.65,1506.9,3038.2z"/>
			</g>
			<g style="opacity:0.66;">
				<path style="fill:#FFFFFF;" d="M1460.7,2785.6c1.9,1.9-30-2.25-84.85,17.25c-54.85,19.55-58.35,79.8-58.35,79.8l-22.05-9.7
					c1.25-17.2,7.95-67.45,42.85-85.65C1364,2773.9,1417.65,2777.25,1460.7,2785.6z"/>
			</g>
			<g>
				<path style="fill:#414182;" d="M1506.9,3038.2c-15.1,19.6-133.65,28.3-182.5,6.449c-14.35-6.4-23.6-19.05-29.35-34.95
					c48.8,8.65,163.65,25.25,183.1-4.449c25.05-38.201,17.85-207.5,19.2-210.45c10.75,3.4,18.9,7,23.2,10.35
					C1541.85,2821.8,1522,3018.65,1506.9,3038.2z"/>
			</g>
			<g>
				<path style="fill:#000077;" d="M1409.297,3070.105c-34.229,0-68.542-4.448-89.973-14.021
					c-56.919-25.427-47.527-122.344-36.631-178.63c0.315-10.247,4.131-77.437,49.841-101.228
					c46.738-24.316,169.399-1.394,195.686,19.08c5.002,3.899,20.229,15.762,11.628,126.243
					c-0.837,10.752-8.596,105.588-23.052,124.314C1504.79,3061.411,1457.131,3070.103,1409.297,3070.105z M1389.29,2790.798
					c-18.459,0-34.751,2.161-45.212,7.605c-35.166,18.301-36.404,79.929-36.411,80.549c-0.012,0.75-0.088,1.514-0.232,2.249
					c-12.368,63.215-13.062,136.355,22.085,152.056c45.984,20.537,155.796,10.1,167.549-2.747
					c12.776-19.448,28.738-194.492,15.254-215.879C1498.999,2805.19,1436.936,2790.798,1389.29,2790.798z M1295.166,2878.801h0.049
					H1295.166z"/>
			</g>
			<g>
				<path style="fill:#000077;" d="M1304.064,2870.023c15.149,11.194,36.395,17.319,55.5,22.571
					c20.818,5.392,42.639,9.719,64.008,11.457c20.093,1.461,48.184,1.05,53.121-22.165c0.699-1.924,1.367-5.829,2.007-7.972
					c4.129-16.487,9.025-32.634,14.895-48.595c2.32-6.236,11.864-3.542,10.51,3.025c0.025,0.034-6.818,32.608-6.804,32.653
					c-4.108,17.749-3.999,39.042-20.548,50.634c-32.926,24.888-118.619,5.997-156.108-6.21c-12.049-4.514-24.385-9.114-34.378-17.84
					C1275.016,2875.563,1292.152,2858.573,1304.064,2870.023L1304.064,2870.023z"/>
			</g>
		</g>
		<g>
			<path style="fill:#3770EF;" d="M1698.75,2265.65l-0.2,1l-7.5,40.65c0,0-41.85,146.55-155.4,231.35
				c-113.55,84.8-257.35,61.55-294.55-58c-25-80.35,77.65-218.1,191.65-289c55.6-34.6,113.85-53.3,161.35-41.75
				C1739.05,2185.15,1698.75,2265.65,1698.75,2265.65z"/>
		</g>
		<g>
			<path style="fill:#2459D1;" d="M1698.55,2266.65l-7.5,40.65c0,0-41.85,146.55-155.4,231.35c-113.55,84.8-257.35,61.55-294.55-58
				c-25-80.35,77.65-218.1,191.65-289c0,0-180.25,175.8-124.2,272.8c56.05,97,253.6,5.7,308.3-113
				C1633.75,2314.8,1665.4,2284.45,1698.55,2266.65z"/>
		</g>
		<g>
			<path style="fill:#000077;" d="M1504.146,2288.479c-52.178,0.207-104.311,15.705-149.306,42.092
				c-8.349,5.12-16.611-6.843-8.77-12.795c39.532-30.247,86.136-51,134.967-60.921c7.634-1.426,14.179-2.654,22.276-3.365
				C1527.911,2252.287,1528.832,2288.49,1504.146,2288.479L1504.146,2288.479z"/>
		</g>
		<g>
			<path style="fill:#000077;" d="M1393.293,2606.833c-20.698,0-40.935-3.047-60.112-9.272
				c-53.096-17.236-91.726-56.909-108.774-111.709c-21.042-67.629,34.446-158.813,93.391-221.599
				c70.359-74.946,186.008-154.326,280.432-131.357c60.942,14.822,99.861,39.629,115.669,73.738
				c16.145,34.829,1.152,65.549,0.508,66.841c-4.326,8.64-14.841,12.139-23.484,7.815c-8.643-4.326-12.141-14.841-7.815-23.484
				c0.249-0.535,8.064-17.593-1.213-36.987c-11.177-23.362-42.966-42.004-91.936-53.914
				c-63.652-15.498-165.063,34.409-246.643,121.306c-65.588,69.858-99.143,143.357-85.491,187.246
				c13.579,43.645,44.18,75.186,86.165,88.816c55.903,18.145,123.645,3.32,181.201-39.658
				c107.278-80.107,148.635-220.72,149.041-222.131c2.666-9.285,12.371-14.663,21.638-12c9.287,2.659,14.666,12.332,12.014,21.621
				c-1.775,6.216-44.81,153.23-161.75,240.552C1498.647,2588.115,1444.578,2606.833,1393.293,2606.833z"/>
		</g>
		<g>
			<g>
				<path style="fill:#FED0B9;" d="M1910.544,2245.318c-392.4-73.851-592.177-207.451-610.63-440.16l-0.33-12.503l-6.777-247.882
					c25.292-24.295,52.039-46.577,80.267-66.737c220.096-157.35,531.252-184.913,977.099-20.096
					c79.557,29.356,163.396,64.883,251.809,106.862c0,0-4.543,25.2-10.43,59.907c-5.063,29.76-11.192,66.469-16.352,100.328
					c26.497,66.814,35.727,137.354,26.002,204.55C2571.034,2139.484,2356.787,2316.745,1910.544,2245.318z"/>
			</g>
			<g>
				<path style="fill:#F2ACA0;" d="M2582.76,1623.184c0,0-194.67,74.956-487.129,22.72
					c-292.459-52.235-484.084-162.565-484.084-162.565l-66.572,16.044c-27.201,59.584-76.218,123.974-76.218,123.974
					l-95.683-145.321c220.096-157.35,531.252-184.913,977.099-20.096C2424.023,1508.083,2582.76,1623.184,2582.76,1623.184z"/>
			</g>
			<g>
				<path style="fill:#F2ACA0;" d="M2601.202,1929.589c-30.168,209.896-244.416,387.157-690.658,315.729
					c-392.4-73.851-592.177-207.451-610.63-440.16l-0.33-12.503l105.527,62.797c0,0,10.051,247.36,554.426,334.231
					C2403.889,2260.638,2561.977,2021.008,2601.202,1929.589z"/>
			</g>
			<g>
				<path style="fill:#000077;" d="M2099.604,2278.777c-60.049,0.002-124.136-5.349-191.838-16.182
					c-203.562-38.315-351.548-91.772-452.878-163.513c-106.392-75.32-162.786-171.011-172.405-292.537
					c-0.762-9.636,6.431-18.064,16.064-18.828c9.67-0.757,18.066,6.431,18.828,16.064
					c17.339,219.084,201.274,349.954,596.394,424.336c278.386,44.519,492.278-6.113,601.804-142.695
					c76.985-96.006,93.198-228.306,43.372-353.904c-1.143-2.883-1.501-6.021-1.033-9.087
					c11.074-72.749,26.67-159.866,26.824-160.737c1.704-9.514,10.791-15.84,20.315-14.138c9.512,1.707,15.842,10.801,14.138,20.315
					c-0.154,0.847-15.017,83.894-25.969,155.198c52.385,136.123,33.701,279.443-50.342,384.248
					C2452.456,2220.081,2298.394,2278.767,2099.604,2278.777z"/>
			</g>
			<g>
				<path style="fill:#3770EF;" d="M2787.027,1253.57c-37.124,109.828-113.12,121.508-154.399,122.947
					c-41.231,1.45-226.599-119.479-529.373-142.184c-289.664-21.75-804.195,151.105-816.259,162.883
					c0.934,0.388,1.456,0.569,1.456,0.569c-1.589,0.17-2.05-0.049-1.504-0.582c-13.801-5.612-118.354-50.644-128.061-138.464
					c-0.024-0.109-0.049-0.219-0.073-0.327c-0.437-4.232-0.692-8.574-0.657-13.048c0.211-103.175,337.191-227.308,455.871-379.327
					c118.693-152.068,304.115-387.86,596.938-338.522c106.768,18.012,189.87,64.127,254.83,120.553
					c113.089,98.339,171.103,227.963,203.264,295.212c9.584,20.02,21.072,39.639,33.19,59.003c0,0,0.073,0.121,0.17,0.352
					C2754.302,1085.632,2817.121,1164.663,2787.027,1253.57z"/>
			</g>
			<g>
				<path style="fill:#2459D1;" d="M2787.027,1253.57c-37.124,109.828-113.12,121.508-154.399,122.947
					c-41.231,1.45-226.599-119.479-529.373-142.184c-289.664-21.75-804.195,151.105-816.259,162.883
					c0.934,0.388,1.456,0.569,1.456,0.569c-1.589,0.17-2.05-0.049-1.504-0.582c-13.801-5.612-118.354-50.644-128.061-138.464
					c6.652,35.469,53.226,67.306,178.068-9.941c140.582-87.024,586.329-197.438,829.19-143.677
					c242.861,53.76,531.774,138.97,567.479,96.301c34.699-41.528-27.709-190.494-31.203-198.788
					C2754.302,1085.632,2817.121,1164.663,2787.027,1253.57z"/>
			</g>
			<g style="opacity:0.62;">
				<path style="fill:#FFFFFF;" d="M2465.795,648.068c-0.049-0.012-0.133-0.085-0.181-0.097
					c-166.616-99.032-342.346-100.927-504.152-27.142c-161.818,73.834-327.726,323.725-327.726,323.725
					s-11.908,26.17-188.844,120.708c-176.948,94.586-286.736,180.102-286.736,180.102
					c0.211-103.175,337.191-227.308,455.871-379.327c118.693-152.068,304.115-387.86,596.938-338.522
					C2317.733,545.527,2400.835,591.642,2465.795,648.068z"/>
			</g>
			<g>
				<path style="fill:#000077;" d="M1287.695,1415.322c-5.034,0-8.716-1.638-11.304-3.557
					c-27.119-11.589-135.957-64.473-135.74-166.448c0.139-64.966,99.026-127.52,213.528-199.951
					c90.422-57.197,192.91-122.029,246.067-190.117c115.71-148.213,309.37-396.272,613.606-344.973
					c292.092,49.253,413.796,305.19,465.767,414.478l5.22,10.955c14.067,29.399,32.974,58.752,51.26,87.139
					c47.532,73.792,96.685,150.093,67.51,236.348c-29.263,86.514-86.58,131.875-170.359,134.822
					c-16.177,0.474-39.495-9.163-81.929-26.812c-89.636-37.283-239.661-99.685-449.375-115.432
					c-270.337-20.334-741.582,131.958-800.313,157.495c-2.837,3.264-6.865,5.457-11.414,5.923
					C1289.343,1415.281,1288.503,1415.322,1287.695,1415.322z M2132.429,538.328c-240.371,0-397.366,201.108-504.595,338.46
					c-56.897,72.881-162.112,139.436-254.944,198.159c-96.919,61.309-197.141,124.705-197.239,170.444
					c-0.161,75.688,83.87,120.193,110.798,132.502c12.363-5.632,36.213-14.387,83.994-29.819
					c37.795-12.209,115.745-36.372,213.159-61.045c151.814-38.45,365.427-81.848,520.964-70.159
					c215.332,16.169,374.619,82.424,460.195,118.018c30.225,12.573,58.77,24.426,67.256,24.148
					c43.823-1.541,105.854-14.729,138.435-111.057c23.767-70.269-18.757-136.287-63.779-206.179
					c-18.875-29.297-38.389-59.595-53.408-90.984l-5.256-11.03c-53.831-113.208-165.85-348.772-439.978-394.998
					C2181.958,540.391,2156.76,538.328,2132.429,538.328z"/>
			</g>
			<g>
				<path style="fill:#3770EF;" d="M1552.312,1370.365c47.692-14.318,95.833-26.515,144.496-36.468
					c291.759-59.671,602.087-38.531,938.632,96.971c11.135,18.552,19.021,35.673,23.947,51.438
					C2753.742,1784.172,1758.314,1585.71,1552.312,1370.365z"/>
			</g>
			<g>
				<path style="fill:#2459D1;" d="M1552.312,1370.365c47.692-14.318,95.833-26.515,144.496-36.468l7.459,6.656
					c0,0-15.498,126.412,462.727,222.269c478.213,95.905,486.156-37.188,492.368-80.421c0.012-0.049,0.012-0.049,0.024-0.097
					C2753.742,1784.172,1758.314,1585.71,1552.312,1370.365z"/>
			</g>
			<g>
				<path style="fill:#585769;" d="M1506.845,1477.078c0,0-1.962,14.456-6.117,35.836
					c-12.213,62.091-43.392,182.576-100.995,178.185c-77.467-5.952-95.642-53.061-95.642-53.061
					c12.543-108.391,11.353-183.88,11.353-183.88c15.703-6.539,31.515-12.897,47.364-18.987
					c61.854-24.18,125.018-45.766,189.505-64.805c19.358,20.09,44.149,39.064,73.159,57.237
					C1548.178,1436.433,1506.845,1477.078,1506.845,1477.078z"/>
			</g>
			<g>
				<path style="fill:#47475B;" d="M1399.733,1691.099c-77.467-5.952-95.642-53.061-95.642-53.061
					c12.543-108.391,11.353-183.88,11.353-183.88c15.703-6.539,31.515-12.897,47.364-18.987c0,0-39.673,160.469,15.642,186.192
					c55.279,25.662,122.242-108.509,122.242-108.509s0,0,0.036,0.061C1488.515,1575.005,1457.336,1695.49,1399.733,1691.099z"/>
			</g>
			<g>
				<path style="fill:#FED0B9;" d="M1385.277,1874.76c-119.99,55.276-243.037-26.061-283.925-170.823
					c-39.774-174.65,75.831-301.52,213.812-221.053l-11.056,155.17L1385.277,1874.76z"/>
			</g>
			<g>
				<path style="fill:#F2ACA0;" d="M1126.25,1516.986c0,0-46.434,138.127,66.394,238.888
					c112.828,100.761,235.767,50.717,235.767,50.717s-22.486,93.493-100.321,84.468s-181.625-44.682-215.253-153.423
					S1126.25,1516.986,1126.25,1516.986z"/>
			</g>
			<g>
				<path style="fill:#56558F;" d="M2661.032,1328.416l-25.593,102.452c-87.053-34.217-171.084-61.135-252.786-81.287
					c-387.845-95.802-723.807-39.494-1085.896,112.329c-7.588-43.485-11.635-89.797-11.123-139.71
					c48.768-33.686,105.358-63.407,167.685-88.448C1789.74,1098.45,2295.257,1097.64,2661.032,1328.416z"/>
			</g>
			<g style="opacity:0.21;">
				<path style="fill:#FFFFFF;" d="M2599.125,1302.99l-24.696,98.863c0,0-165.935-47.21-178.856-49.741
					c-12.92-2.531-133.518-22.54-132.706-24.254s35.511-142.161,35.511-142.161l167.509,45.414"/>
			</g>
			<g>
				<path style="fill:#434377;" d="M2382.654,1349.581c-387.845-95.802-723.807-39.494-1085.896,112.329
					c-7.588-43.485-11.635-89.797-11.123-139.71c48.768-33.686,105.358-63.407,167.685-88.448l4.184,2.024
					c0,0-31.75,53.449-3.489,83.494c28.261,30.045,468.729-103.591,863.173,4.167
					C2342.328,1330.283,2364.085,1339.12,2382.654,1349.581z"/>
			</g>
			<g>
				<path style="fill:#000077;" d="M1296.738,1479.426c-2.9,0-5.791-0.72-8.398-2.146c-4.673-2.556-7.927-7.102-8.843-12.349
					c-8.02-46.011-11.838-94.099-11.348-142.927c0.059-5.686,2.874-10.989,7.554-14.221
					c319.329-220.623,955.933-270.928,1394.641,5.833c6.389,4.031,9.47,11.709,7.639,19.041l-25.596,102.471
					c-1.221,4.885-4.485,9.009-8.962,11.316c-4.478,2.31-9.734,2.573-14.417,0.73c-452.876-178.032-849.287-168.792-1325.503,30.891
					C1301.335,1478.975,1299.033,1479.426,1296.738,1479.426z M1303.108,1331.46c0.051,35.959,2.546,71.416,7.441,105.791
					c229.773-94.314,431.003-142.371,631.621-151.008c220.549-9.5,443.55,30.154,681.072,121.15l17.695-70.852
					c-196.099-120.288-448.582-183.105-712.842-177.126C1684.937,1164.939,1457.837,1227.546,1303.108,1331.46z"/>
			</g>
			<g>
				<path style="fill:#000077;" d="M2418.945,1654.067c-130.642,0.002-272.148-27.097-330.945-39.734
					c-249.688-53.655-464.919-144.663-548.325-231.855c-6.68-6.985-6.436-18.062,0.549-24.744c6.985-6.68,18.062-6.433,24.744,0.549
					c77.678,81.206,290.825,170.352,530.386,221.831c245.723,52.808,451.267,51.226,523.657-4.006
					c14.104-10.762,57.019-43.508,1.392-136.218c-4.971-8.289-2.283-19.038,6.003-24.011c8.291-4.968,19.036-2.283,24.011,6.003
					c59.285,98.811,27.19,153.54-10.173,182.051C2590.813,1641.65,2507.363,1654.067,2418.945,1654.067z"/>
			</g>
			<g>
				<path style="fill:#000077;" d="M1402.981,1708.699c-1.519,0-3.049-0.061-4.59-0.178
					c-87.495-6.704-109.709-61.831-110.613-64.175c-1.016-2.642-1.379-5.488-1.055-8.298
					c12.222-105.864,11.218-180.859,11.206-181.604c-0.151-9.663,7.561-17.62,17.222-17.771c0.095-0.002,0.188-0.002,0.281-0.002
					c9.536,0,17.341,7.651,17.493,17.219c0.049,3.079,1.042,75.476-10.84,180.994c5.378,9.031,25.215,34.619,78.982,38.74
					c41.465,3.193,77.375-116.775,88.435-198.86c0.52-3.848,2.302-7.415,5.071-10.137c1.863-1.833,46.563-44.995,128.892-54.438
					c9.597-1.089,18.279,5.789,19.38,15.391c1.104,9.602-5.789,18.279-15.391,19.38c-56.689,6.504-92.583,31.707-104.236,41.108
					c-2.542,16.487-10.129,60.918-24.185,105.508C1474.526,1669.331,1442.229,1708.699,1402.981,1708.699z"/>
			</g>
			<g>
				<path style="fill:#000077;" d="M1392.6,1890.654c-166.367,76.194-314.86-88.598-316.807-248.97
					c-1.102-53.065,11.115-108.962,46.968-150.038c36.294-43.301,97.721-59.632,150.512-39.807
					c16.3,5.426,31.824,14.432,45.823,24.305c7.909,5.589,0.766,17.606-7.861,13.48c-149.489-67.411-224.261,78.462-193.222,208.474
					c21.875,82.209,84.23,165.514,173.384,175.564c29.291,3.335,59.295-2.129,86.56-14.797
					C1399.155,1849.68,1413.473,1880.364,1392.6,1890.654L1392.6,1890.654z"/>
			</g>
			<g>
				<path style="fill:#FFDC31;" d="M2379.345,779.298c-15.052,123.036-70.496,196.363-166.274,219.938
					c-86.643-47.238-121.543-132.284-104.706-255.088c55.896,12.191,105.996,6.489,142.976-39.94
					C2275.251,758.535,2322.238,776.832,2379.345,779.298z"/>
			</g>
			<g>
				<path style="fill:#000077;" d="M2213.071,1011.736c-2.075,0-4.133-0.517-5.984-1.526
					c-91.262-49.754-128.645-139.841-111.108-267.759c0.474-3.455,2.368-6.553,5.225-8.55c2.856-1.997,6.423-2.712,9.824-1.965
					c59.438,12.959,100.911,1.677,130.535-35.515c2.727-3.423,7.031-5.173,11.387-4.607c4.338,0.561,8.069,3.354,9.832,7.358
					c19.155,43.52,56.367,65.012,117.104,67.639c3.481,0.149,6.743,1.748,8.997,4.407c2.253,2.659,3.293,6.14,2.871,9.6
					c-15.679,128.149-74.792,205.72-175.693,230.557C2215.073,1011.616,2214.07,1011.736,2213.071,1011.736z M2119.133,758.955
					c-11.897,108.992,19.475,183.359,95.669,226.931c84.758-22.7,134.05-86.602,150.354-195.017
					c-55.11-5.112-93.508-26.465-116.636-64.922C2216.34,757.229,2173.757,768.071,2119.133,758.955z"/>
			</g>
			<g>
				<path style="fill:#EDA320;" d="M2286.023,775.944c0,0,20.024,19.098,67.123,22.208
					c-20.41,108.966-73.388,153.442-136.958,176.948C2285.254,941.852,2355.333,839.832,2286.023,775.944z"/>
			</g>
			<g style="opacity:0.62;">
				<path style="fill:#FFFFFF;" d="M2126.719,770.531c0,0-21.521,125.43,73.84,196.882
					c-39.001-47.218-64.453-105.668-53.556-194.251C2140.192,772.995,2133.435,772.06,2126.719,770.531z"/>
			</g>
			<g>
				<path style="fill:#F2ACA0;" d="M2611.831,1895.91c-0.352-0.242-0.389-0.303-0.194-0.254
					C2611.734,1895.68,2611.77,1895.741,2611.831,1895.91z"/>
			</g>
		</g>
		<g>
			<g>
				
					<ellipse transform="matrix(0.1605 -0.987 0.987 0.1605 150.873 3886.3901)" style="fill:#000077;" cx="2360.091" cy="1854.503" rx="138.595" ry="104.876"/>
			</g>
			<g>
				<path style="fill:#000077;" d="M1660.837,1555.687c49.12-43.779,128.571-61.442,188.126-24.483
					c11.631,7.792,23.513,17.187,32.046,28.149c17.701,21.482,28.168,46.166,31.528,71.384c1.139,8.546-4.866,16.397-13.412,17.536
					c-5.174,0.69-10.002-1.226-13.398-4.714c-29.554-28.403-54.65-54.642-92.644-63.414c-37.949-8.966-78.525-0.69-119.788,3.092
					C1658.064,1585.235,1649.352,1565.682,1660.837,1555.687L1660.837,1555.687z"/>
			</g>
			<g>
				<path style="fill:#000077;" d="M2276.828,1676.668c34.846,10.626,70.366,23.391,106.842,24.996
					c40.475,0.09,74.842-27.981,108.102-48.388c7.374-4.463,16.969-2.103,21.432,5.271c2.623,4.335,2.857,9.515,1.133,13.891
					c-4.99,12.296-10.972,22.57-18.554,33.093c-26.245,36.398-67.566,64.096-114.311,63.434
					c-49.327-1.842-97.732-25.275-127.142-65.22c-9.476-12.437,2.102-30.903,17.281-27.967
					C2271.609,1675.778,2276.828,1676.668,2276.828,1676.668L2276.828,1676.668z"/>
			</g>
			<g>
				
					<ellipse transform="matrix(0.1605 -0.987 0.987 0.1605 -286.4699 3233.8965)" style="fill:#000077;" cx="1757.844" cy="1785.352" rx="138.595" ry="104.876"/>
			</g>
			<g>
				<path style="fill:#000077;" d="M2008.877,1921.281c1.694,27.139-15.066,52.722-37.674,66.537
					c-7.525,4.731-15.984,7.628-24.385,9.269c-4.115,0.804-8.103-1.88-8.907-5.995c-0.65-3.271,0.925-6.309,3.534-8.015
					c5.911-4.495,11.68-8.331,16.5-13.23c15.288-13.628,23.819-32.985,33.176-50.798
					C1994.822,1909.948,2007.889,1911.457,2008.877,1921.281L2008.877,1921.281z"/>
			</g>
			<g>
				<path style="fill:#000077;" d="M1998.193,1950.596c11.156,25.121,25.426,51.3,49.617,64.49
					c24.331,13.52,54.051,7.966,80.011-0.898c4.734-1.73,9.996,0.776,11.614,5.555c1.467,4.311-0.524,8.963-4.487,10.944
					c-14.386,7.212-30.051,12.881-47.033,14.971c-56.708,8.192-96.473-36.821-113.023-86.007
					C1969.831,1944.399,1991.651,1935.94,1998.193,1950.596L1998.193,1950.596z"/>
			</g>
			<g>
				
					<ellipse transform="matrix(0.3 -0.9539 0.9539 0.3 -462.0885 2868.9763)" style="fill:#FFFFFF;" cx="1723.818" cy="1749.346" rx="59.81" ry="37.325"/>
			</g>
			<g style="opacity:0.3;">
				
					<ellipse transform="matrix(0.5 -0.866 0.866 0.5 -696.2839 2476.9795)" style="fill:#FFFFFF;" cx="1796.979" cy="1841.488" rx="33.065" ry="20.083"/>
			</g>
			<g>
				
					<ellipse transform="matrix(0.3 -0.9539 0.9539 0.3 -113.9285 3503.5752)" style="fill:#FFFFFF;" cx="2330.3" cy="1829.416" rx="59.811" ry="37.325"/>
			</g>
			<g style="opacity:0.3;">
				
					<ellipse transform="matrix(0.5 -0.866 0.866 0.5 -462.388 3042.2358)" style="fill:#FFFFFF;" cx="2403.462" cy="1921.558" rx="33.065" ry="20.083"/>
			</g>
		</g>
		<g>
			<g>
				<path style="fill:#C7CBD1;" d="M1666.074,2579.298c-0.744,1.736-2.975,158.182-2.975,158.182l40.797,2.479l3.335-166.116"/>
			</g>
			<g>
				<path style="fill:#000077;" d="M1703.896,2749.958c-0.203,0-0.403-0.005-0.605-0.02l-40.798-2.478
					c-5.334-0.322-9.47-4.78-9.395-10.122c2.261-158.428,2.739-159.543,3.787-161.985c2.178-5.073,8.047-7.427,13.132-5.247
					c4.287,1.838,6.631,6.321,5.94,10.73c-0.542,7.563-1.868,88.506-2.722,147.241l20.872,1.267l3.127-155.703
					c0.112-5.522,4.749-9.929,10.198-9.797c5.522,0.11,9.91,4.678,9.797,10.198l-3.335,166.116
					c-0.054,2.722-1.216,5.305-3.218,7.151C1708.823,2749.019,1706.401,2749.958,1703.896,2749.958z"/>
			</g>
			<g>
				<path style="fill:#C7CBD1;" d="M1593.678,2500.95l29.752,91.736h126.446l25.902-108.595
					C1716.525,2511.907,1655.467,2512.029,1593.678,2500.95z"/>
			</g>
			<g>
				<path style="fill:#000077;" d="M1749.875,2605.186H1623.43c-5.417,0-10.22-3.491-11.89-8.643l-29.753-91.736
					c-1.355-4.18-0.417-8.765,2.471-12.075c2.886-3.311,7.275-4.866,11.626-4.087c69.497,12.468,124.976,7.424,174.583-15.869
					c4.348-2.034,9.48-1.409,13.201,1.621c3.726,3.03,5.386,7.925,4.27,12.595l-25.903,108.594
					C1760.691,2601.213,1755.662,2605.186,1749.875,2605.186z M1632.517,2580.186h107.49l17.947-75.242
					c-43.254,15.415-90.61,19.141-146.099,11.541L1632.517,2580.186z"/>
			</g>
			<g>
				<g>
					<polyline style="fill:#C7CBD1;" points="1597.645,2819.298 1627.893,2737.479 1745.165,2737.479 1766.488,2837.149 
						1682.066,2815.331 					"/>
				</g>
				<g>
					<path style="fill:#000077;" d="M1766.487,2849.648c-1.042,0-2.092-0.129-3.127-0.398l-84.421-21.819
						c-6.685-1.726-10.703-8.545-8.975-15.229c1.726-6.687,8.555-10.701,15.229-8.975l64.839,16.758l-14.976-70.005h-98.457
						l-27.231,73.65c-2.393,6.475-9.568,9.797-16.06,7.39c-6.475-2.393-9.783-9.583-7.388-16.057l30.249-81.816
						c1.814-4.907,6.492-8.167,11.724-8.167h117.273c5.896,0,10.991,4.119,12.224,9.885l21.321,99.668
						c0.906,4.236-0.447,8.64-3.574,11.638C1772.781,2848.43,1769.67,2849.648,1766.487,2849.648z"/>
				</g>
				<g>
					<circle style="fill:#000077;" cx="1682.066" cy="2767.231" r="9.917"/>
				</g>
				<g>
					<path style="fill:#C7CBD1;" d="M1671.5,2794.8c-102.95,0-186.45,83.45-186.45,186.4c0,103,83.5,186.45,186.45,186.45
						c103,0,186.45-83.45,186.45-186.45C1857.95,2878.25,1774.5,2794.8,1671.5,2794.8z M1671.5,3109.3
						c-70.75,0-128.1-57.35-128.1-128.1s57.35-128.1,128.1-128.1c70.75,0,128.1,57.35,128.1,128.1S1742.25,3109.3,1671.5,3109.3z"/>
				</g>
				<g>
					<path style="fill:#FFFFFF;" d="M1532.81,3091.653l39.478-29.408l73.393,53.768c0,0-6.924,42.211-11.086,42.397
						c-4.162,0.186-62.364-18.305-65.525-19.287c-3.161-0.982-25.661-22.433-25.661-22.433"/>
				</g>
				<g>
					<path style="fill:#000077;" d="M1671.509,3180.168c-109.7,0-198.945-89.246-198.945-198.945s89.246-198.948,198.945-198.948
						s198.948,89.248,198.948,198.948S1781.208,3180.168,1671.509,3180.168z M1671.509,2807.275
						c-95.913,0-173.945,78.032-173.945,173.948c0,95.913,78.032,173.945,173.945,173.945c95.916,0,173.948-78.032,173.948-173.945
						C1845.457,2885.308,1767.424,2807.275,1671.509,2807.275z"/>
				</g>
				<g>
					<path style="fill:#000077;" d="M1671.509,3121.821c-77.527,0-140.601-63.071-140.601-140.598s63.074-140.601,140.601-140.601
						s140.601,63.074,140.601,140.601S1749.036,3121.821,1671.509,3121.821z M1671.509,2865.623
						c-63.743,0-115.601,51.858-115.601,115.601c0,63.74,51.858,115.598,115.601,115.598s115.601-51.858,115.601-115.598
						C1787.109,2917.48,1735.251,2865.623,1671.509,2865.623z"/>
				</g>
				<g>
					<path style="fill:#000077;" d="M1785.042,2929.355c-1.711,0-3.435-0.583-4.844-1.777c-3.159-2.678-3.552-7.41-0.874-10.571
						l39.702-46.858c2.678-3.157,7.412-3.55,10.571-0.874c3.159,2.678,3.552,7.41,0.874,10.571l-39.702,46.858
						C1789.285,2928.455,1787.17,2929.355,1785.042,2929.355z"/>
				</g>
				<g>
					<path style="fill:#000077;" d="M1668.12,3175.103c-0.117,0-0.232-0.002-0.349-0.002c-12.222-0.112-23.926-1.379-34.788-3.77
						c-4.045-0.889-6.604-4.89-5.713-8.936c0.889-4.043,4.875-6.606,8.936-5.713c9.849,2.166,20.515,3.315,31.704,3.418
						c6.311-0.051,12.317-2.59,16.504-7.263c4.207-4.697,6.113-10.73,5.364-16.987c-1.289-10.774-10.369-18.794-21.589-19.07
						c-4.753-0.115-9.58-0.491-14.346-1.113c-4.109-0.537-7.002-4.302-6.465-8.408c0.537-4.109,4.297-7.021,8.408-6.465
						c4.246,0.554,8.54,0.889,12.769,0.991c18.745,0.459,33.936,14.038,36.116,32.283c1.25,10.447-2.061,20.938-9.084,28.777
						C1688.596,3170.647,1678.604,3175.1,1668.12,3175.103z"/>
				</g>
				<g>
					
						<ellipse transform="matrix(0.9239 -0.3827 0.3827 0.9239 -1074.772 875.0106)" style="fill:#000077;" cx="1662.098" cy="3139.122" rx="9.412" ry="9.412"/>
				</g>
			</g>
			<g>
				<g>
					<path style="fill:#FED0B9;" d="M1594.887,2233.675c-0.155-0.555-34.094,28.096-38.137,40.175
						c-4.043,12.08-4.229,72.142-4.229,72.142l21.183,7.438c0,0,40.161-38.677,43.146-43.14s11.724-79.457,7.076-80.452"/>
				</g>
				<g>
					<path style="fill:#C7CBD1;" d="M1842.7,2262.35c-18.9-43.7-54.05-78.7-97.8-97.45c-22.55-9.65-47.35-15-73.4-15
						c-76.55,0-142.4,46.15-171.1,112.2c-9.9,22.75-15.35,47.85-15.35,74.25c0,11.75,1.1,23.199,3.15,34.35
						c16.15,86.55,92.1,152.1,183.3,152.1c103,0,186.45-83.5,186.45-186.45C1857.95,2310.05,1852.5,2285.05,1842.7,2262.35z
						 M1671.5,2464.45c-57.3,0-105.8-37.6-122.15-89.45c-3.85-12.2-5.95-25.2-5.95-38.65c0-24.45,6.85-47.3,18.75-66.75
						c22.5-36.799,63.05-61.35,109.35-61.35c22.95,0,44.5,6.05,63.1,16.6c29.9,16.95,52.3,45.55,61,79.65
						c2.6,10.2,4,20.851,4,31.851C1799.6,2407.1,1742.25,2464.45,1671.5,2464.45z"/>
				</g>
				<g>
					<path style="fill:#FFFFFF;" d="M1651.766,2462.932c0,0-34.458-5.185-45.839-16.528c-11.381-11.343-39.274,1.31-33.695,18.042
						s37.368,48.44,76.983,52.992s91.302,1.674,111.198-22.686c19.897-24.36,25.475-56.529-14.132-43.512
						c-39.607,13.016-77.048,18.409-77.574,17.851"/>
				</g>
				<g>
					<path style="fill:#9DA5B2;" d="M1842.7,2262.35c-30.65-8.9-43.25,43.85-43.1,44.95l-4-2.8c-8.7-34.1-31.1-62.7-61-79.65
						c0.45-10.85,1.75-24.05,4.45-39.7c1.55-9.05,3.45-15.551,5.85-20.25C1788.65,2183.65,1823.8,2218.65,1842.7,2262.35z"/>
				</g>
				<g>
					<path style="fill:#9DA5B2;" d="M1543.4,2339.697c0,13.45,2.1,26.45,5.95,38.65c-30.1-25.85-56.45-7.9-61.15-4.3
						c-2.05-11.15-3.15-22.6-3.15-34.35c0-26.4,5.45-51.5,15.35-74.25c28.45-8.6,28.9-2.2,61.75,7.5
						C1550.25,2292.397,1543.4,2315.247,1543.4,2339.697z"/>
				</g>
				<g>
					<path style="fill:#000077;" d="M1671.509,2535.293c-109.7,0-198.945-89.248-198.945-198.948s89.246-198.945,198.945-198.945
						s198.948,89.246,198.948,198.945S1781.208,2535.293,1671.509,2535.293z M1671.509,2162.4
						c-95.913,0-173.945,78.032-173.945,173.945c0,95.916,78.032,173.948,173.945,173.948c95.916,0,173.948-78.032,173.948-173.948
						C1845.457,2240.432,1767.424,2162.4,1671.509,2162.4z"/>
				</g>
				<g>
					<path style="fill:#000077;" d="M1671.509,2476.946c-77.527,0-140.601-63.074-140.601-140.601s63.074-140.598,140.601-140.598
						s140.601,63.071,140.601,140.598S1749.036,2476.946,1671.509,2476.946z M1671.509,2220.747
						c-63.743,0-115.601,51.858-115.601,115.598c0,63.743,51.858,115.601,115.601,115.601s115.601-51.858,115.601-115.601
						C1787.109,2272.605,1735.251,2220.747,1671.509,2220.747z"/>
				</g>
				<g>
					<path style="fill:#FED0B9;" d="M1780.55,2255.85c-0.7,12.75-4.55,27.4-14.05,43.3c-31.75,53.3-130.1,41.15-130.1,41.15
						s-37.25,30-79.65,13.65c0,0,36.45-23.35,45.35-57.8c4.75-18.25,10.45-37.95,14.75-52.35c3.85-12.85,6.6-21.55,6.6-21.55
						l96.1-49.8l46.95,34.05C1766.5,2206.5,1782.15,2225.85,1780.55,2255.85z"/>
				</g>
				<g>
					<path style="fill:#F2ACA0;" d="M1780.55,2255.85c-17.7-8.65-46.3-19.15-61-14.249c-22.85,7.699-36.6,32.25-36.6,32.25
						c-36.7-6.95-66.1-29.95-66.1-30.05c3.85-12.85,6.6-21.55,6.6-21.55l96.1-49.8l46.95,34.05
						C1766.5,2206.5,1782.15,2225.85,1780.55,2255.85z"/>
				</g>
				<g>
					<path style="fill:#000077;" d="M1688.141,2213.82c-5.149,17.177-7.202,39.697,6.589,53.235
						c4.128,4.48,10.463,6.788,16.915,9.024c3.933,0.88,6.551,4.859,5.156,8.772c-1.061,3.061-4.153,4.841-7.246,4.359l-6.407-0.993
						c-26.957-3.844-42.369-29.211-44.446-54.5c-1.022-9.549-1.06-18.522,0.457-28.133
						C1663.757,2183.634,1695.772,2192.702,1688.141,2213.82L1688.141,2213.82z"/>
				</g>
				<g>
					<g>
						<path style="fill:#FED0B9;" d="M1528.2,2278.8c-25.25-0.5-40.9-20.15-45.4-40.551c-2.55-11.399-1.55-23.049,3.25-31.6
							c13.4-23.8,39.7-36.55,60.15-14.05c0,0,6.75,11.15,14,23.25c2.3,3.75,4.6,7.65,6.8,11.3
							C1576.25,2242.6,1567.65,2279.55,1528.2,2278.8z"/>
					</g>
					<g>
						<path style="fill:#F2ACA0;" d="M1528.2,2278.8c-25.25-0.5-40.9-20.15-45.4-40.551l6.75-16.949c0,0,17,25.4,38.2,26
							c16.7,0.5,28.3-21.85,32.45-31.45c2.3,3.75,4.6,7.65,6.8,11.3C1576.25,2242.6,1567.65,2279.55,1528.2,2278.8z"/>
					</g>
					<g>
						<path style="fill:#FED0B9;" d="M1636.75,2222.9c-7.05,11.35-57.8,24.15-69.75,4.25c-11.9-19.85-11.9-19.85-11.9-19.85
							s-5.5-10.15-8.25-23c-2.8-13.05-2.9-28.85,8.25-39.9c22.15-21.9,58.8-28.25,75.9,2.6c3.85,6.951,6.6,14,8.5,20.95
							c0,0,0,0,0,0.05C1646,2191.95,1642.2,2214.1,1636.75,2222.9z"/>
					</g>
					<g>
						<path style="fill:#F2ACA0;" d="M1636.75,2222.9c-7.05,11.35-57.8,24.15-69.75,4.25c-11.9-19.85-11.9-19.85-11.9-19.85
							s-5.5-10.15-8.25-23l10.15-1.55c0,0,14.3,18.3,41.35,18.85c27.05,0.549,32.55-42.6,32.55-42.6s3.35,3.25,8.6,8.949
							c0,0,0,0,0,0.05C1646,2191.95,1642.2,2214.1,1636.75,2222.9z"/>
					</g>
					<g>
						<path style="fill:#FED0B9;" d="M1719.55,2145c0.5,31.05-8.15,50.5-24.05,62.45c-18.2,13.75-49.8,7.1-52.55-14.85
							c-0.85-12.6-2.75-24.351-6.55-34.5c-1.5-3.95-3.25-7.7-5.4-11.101c0,0-14.15-29.149,14.3-43.85
							c28.45-14.7,69.75-12.65,73.45,27.15C1719.2,2135.5,1719.5,2140.35,1719.55,2145z"/>
					</g>
					<g>
						<path style="fill:#F2ACA0;" d="M1719.55,2145c0.5,31.05-8.15,50.5-24.05,62.45c-18.2,13.75-49.8,7.1-52.55-14.85
							c-0.85-12.6-2.75-24.351-6.55-34.5l5.2-0.1c0,0,23.25,15.6,42.75,12.75c19.55-2.899,32.2-27.7,32.2-27.7
							S1717.7,2143.75,1719.55,2145z"/>
					</g>
					<g>
						<path style="fill:#FED0B9;" d="M1795.8,2165.1c-0.45,1.65-0.95,3.25-1.55,4.85c-8.8,23.8-28.25,43.95-53.05,44.65
							c-24.8,0.751-30.6-24.7-30.6-24.7c5.8-12.7,8.9-25.75,9.15-39.1c0.15-3.7,0-7.4-0.35-11.1c0,0,13-36.45,44.75-28.5
							C1793.7,2118.6,1801.95,2142.6,1795.8,2165.1z"/>
					</g>
					<g>
						<path style="fill:#F2ACA0;" d="M1795.8,2165.1c-0.45,1.65-0.95,3.25-1.55,4.85c-8.8,23.8-28.25,43.95-53.05,44.65
							c-24.8,0.751-30.6-24.7-30.6-24.7c5.8-12.7,8.9-25.75,9.15-39.1l7.3-0.9c0,0,5.2,27.15,25.8,28.95
							C1768.35,2180.15,1787.35,2170.15,1795.8,2165.1z"/>
					</g>
					<g>
						<path style="fill:#000077;" d="M1529.329,2293.811c-0.461,0-0.923-0.002-1.389-0.012
							c-21.682-0.41-40.574-11.929-51.833-31.606c-11.609-20.286-12.856-45.559-3.105-62.893
							c10.579-18.806,27.217-31.201,44.504-33.159c14.563-1.638,28.706,4.158,39.792,16.353c0.649,0.713,1.226,1.487,1.726,2.31
							c0,0,11.653,19.207,20.884,34.685c7.969,13.357,7.283,32.737-1.704,48.223
							C1568.547,2284.348,1550.784,2293.811,1529.329,2293.811z M1522.505,2195.845c-0.693,0-1.243,0.061-1.626,0.105
							c-7.51,0.85-16.04,7.937-21.731,18.057c-4.536,8.064-3.247,22.373,2.996,33.286c4.226,7.385,12.231,16.245,26.362,16.511
							c11.306,0.154,19.331-3.538,23.75-11.152c4.023-6.931,3.682-14.788,1.887-17.795c-7.725-12.952-17.151-28.523-19.949-33.14
							C1529.172,2196.619,1524.949,2195.845,1522.505,2195.845z"/>
					</g>
					<g>
						<path style="fill:#000077;" d="M1592.725,2252.544c-0.186,0-0.369,0-0.552-0.002c-22.769-0.188-33.237-9.702-38.01-17.651
							l-11.931-19.878c-0.115-0.19-0.225-0.383-0.33-0.579c-10.217-18.875-21.162-57.102,2.637-80.671
							c16.804-16.641,39.758-25.193,59.924-22.3c16.787,2.402,30.869,12.449,39.648,28.291c19.949,35.996,15,75.625,5.376,91.072
							C1640.205,2245.728,1610.369,2252.544,1592.725,2252.544z M1568.159,2199.917l11.726,19.534
							c0.459,0.764,2.825,2.131,7.451,2.754c14.204,1.909,32.715-4.338,37.034-7.849c4.016-7.59,7.629-34.565-6.499-60.061
							c-4.297-7.754-10.073-12.051-17.656-13.135c-10.894-1.567-24.456,3.904-34.568,13.921
							C1554.333,2166.284,1563.767,2191.526,1568.159,2199.917z M1624.705,2214.063L1624.705,2214.063L1624.705,2214.063z"/>
					</g>
					<g>
						<path style="fill:#000077;" d="M1672.981,2229.59c-6.97,0-13.933-1.311-20.31-4.001
							c-13.889-5.864-22.861-17.212-24.614-31.135c-0.037-0.288-0.063-0.576-0.083-0.867c-1.167-17.344-4.348-29.985-9.727-38.65
							c-0.276-0.447-0.53-0.906-0.757-1.377c-8.24-17.024-9.465-48.049,20.938-63.748c23.435-12.1,50.652-13.32,69.336-3.098
							c14.944,8.174,24.153,23.154,25.93,42.178c4.028,43.076-5.503,72.69-29.138,90.537
							C1695.718,2226.104,1684.343,2229.59,1672.981,2229.59z M1657.869,2191.021c0.498,2.996,2.673,5.327,6.47,6.929
							c7.019,2.966,16.328,1.924,22.141-2.461c9.346-7.058,21.313-21.353,17.346-63.804c-0.857-9.17-4.277-15.271-10.457-18.65
							c-9.871-5.403-26.807-3.989-41.177,3.433c-13.105,6.768-10.144,18.306-7.9,23.56
							C1652.019,2152.896,1656.345,2169.15,1657.869,2191.021z"/>
					</g>
					<g>
						<path style="fill:#000077;" d="M1740.151,2229.636c-28.33,0-41.265-23.662-44.167-36.389c-0.73-3.201-0.391-6.553,0.967-9.541
							c6.423-14.133,8.887-28.076,7.532-42.629c-0.2-2.173,0.073-4.368,0.806-6.423c6.067-17.031,26.941-46.885,62.483-38.008
							c22.522,5.632,33.459,18.574,38.667,28.438c7.627,14.443,8.313,32.695,1.887,50.078
							c-11.931,32.263-38.113,53.638-66.699,54.453C1741.133,2229.629,1740.637,2229.636,1740.151,2229.636z M1726.66,2190.488
							c1.953,4.109,5.999,9.504,14.111,9.138c19.783-0.564,33.596-19.138,39.414-34.871c3.477-9.397,3.374-18.75-0.276-25.667
							c-3.425-6.487-9.958-10.974-19.414-13.34c-14.675-3.657-22.939,10.173-25.85,16.396
							C1735.601,2158.503,1732.92,2174.722,1726.66,2190.488z"/>
					</g>
				</g>
				<g>
					<path style="fill:#000077;" d="M1582.991,2373.84c-9.963,0-20.635-1.667-31.655-5.92c-7.729-2.983-11.577-11.665-8.594-19.395
						s11.677-11.582,19.395-8.594c33.931,13.103,64.553-11.084,64.858-11.328c3.164-2.542,7.217-3.694,11.245-3.203
						c24.675,3.003,93.53,2.739,115.396-33.948c25.725-43.164,2.148-74.346,1.133-75.652c-5.054-6.499-3.972-15.908,2.478-21.023
						c6.45-5.112,15.774-4.124,20.945,2.278c1.567,1.941,37.91,48.186,1.216,109.756c-31.843,53.425-115.591,50.789-138.892,48.94
						C1630.969,2362.034,1609.5,2373.838,1582.991,2373.84z"/>
				</g>
			</g>
		</g>
		<g>
			<path style="fill:#000077;" d="M2197.048,2658.143c-4.962-104.333-11.55-209.255-26.257-312.678
				c-1.32-9.692,13.074-12.455,15.27-2.721c10.879,51.721,19.112,103.806,26.546,155.967
				c7.332,52.269,13.797,104.401,19.353,156.948C2233.633,2679.425,2198.818,2682.05,2197.048,2658.143L2197.048,2658.143z"/>
		</g>
		<g>
			<g>
				<path style="fill:#56558F;" d="M1687.9,3523.8h-400.15c0,0-7.95-12.1-16.65-30.3c-0.35-0.649-0.65-1.35-1-2.05
					c-13.85-29.25-29.05-73.051-18.1-108.25c18.25-58.35,77.4-80.7,77.4-80.7c120.45-8.45,268.3,9.65,337.95,19.8
					c25,3.65,39.9,6.25,39.9,6.25c0.3,4.55,0.55,9,0.8,13.4C1712.95,3436.9,1704.95,3493.8,1687.9,3523.8z"/>
			</g>
			<g style="opacity:0.66;">
				<path style="fill:#FFFFFF;" d="M1708.05,3341.95c-59.05-5.5-305.55-25.95-370,8.65c-73.4,39.45-56.75,146.3-56.75,146.3
					l-10.2-3.4c-0.35-0.649-0.65-1.35-1-2.05c-13.85-29.25-29.05-73.051-18.1-108.25c18.25-58.35,77.4-80.7,77.4-80.7
					c120.45-8.45,268.3,9.65,337.95,19.8c25,3.65,39.9,6.25,39.9,6.25C1707.55,3333.1,1707.8,3337.55,1708.05,3341.95z"/>
			</g>
			<g>
				<path style="fill:#414182;" d="M1687.9,3523.8h-400.15c0,0-8.55-13-17.65-32.35c82.05,0.85,262.05,4.05,330-18.6
					c89.3-29.75,67.25-150.551,67.25-150.551c25,3.65,39.9,6.25,39.9,6.25C1713.65,3431.6,1705.75,3492.4,1687.9,3523.8z"/>
			</g>
			<g>
				<path style="fill:#000077;" d="M1687.893,3541.46h-400.166c-5.95,0-11.501-2.996-14.766-7.971
					c-2.388-3.64-58.269-89.924-37.795-155.527c20.557-65.852,85.237-90.928,87.979-91.963c1.604-0.605,3.286-0.974,4.995-1.094
					c163.904-11.558,373.311,24.707,382.141,26.257c8.042,1.409,14.07,8.149,14.575,16.299
					c6.294,101.306-0.774,168.381-21.609,205.061C1700.11,3538.047,1694.246,3541.46,1687.893,3541.46z M1297.6,3506.143h379.29
					c12.917-30.837,17.456-85.359,13.513-162.456c-49.333-7.83-221.309-32.793-356.88-23.75
					c-9.79,4.387-51.101,25.166-64.641,68.547C1257.38,3425.337,1282.383,3480.002,1297.6,3506.143z"/>
			</g>
		</g>
		<g>
			<g>
				<path style="fill:#56558F;" d="M2411.55,3492c-1.95,5.751-3.9,10.851-5.7,15.2c0,0.1,0,0.15,0,0.1
					c-4.3,10.45-7.65,16.5-7.65,16.5h-412.05c-23.05-79.35,0-186.3,0-186.3c9.1-4.25,22-8.45,37.65-12.45
					c4.05-1.05,8.35-2.05,12.75-3c114.15-25.649,340.25-37.599,372.85,30.3C2433.85,3403.4,2422.9,3458.45,2411.55,3492z"/>
			</g>
			<g style="opacity:0.66;">
				<path style="fill:#FFFFFF;" d="M2411.55,3492c-1.95,5.751-3.9,10.851-5.7,15.2c0.1-3.5,18.5-126.5-61.2-156.35
					c-81.45-30.499-329.5-6.7-329.5-6.7l21.4-22.1c114.15-25.649,340.25-37.599,372.85,30.3
					C2433.85,3403.4,2422.9,3458.45,2411.55,3492z"/>
			</g>
			<g>
				<path style="fill:#414182;" d="M2411.55,3492c-6.6,19.551-13.35,31.801-13.35,31.801h-412.05c-23.05-79.35,0-186.3,0-186.3
					c9.1-4.25,22-8.45,37.65-12.45c-1.65,15.4-7.05,92.25,41.45,126.5C2112.7,3485.05,2353.6,3491.05,2411.55,3492z"/>
			</g>
			<g>
				<path style="fill:#000077;" d="M2398.223,3541.46h-412.065c-7.854,0-14.766-5.188-16.958-12.729
					c-24.028-82.683-1.284-190.425-0.305-194.971c1.167-5.413,4.805-9.966,9.829-12.297c40.981-19.023,140.449-34.976,231.37-37.107
					c84.026-1.96,189.592,6.904,215.212,60.369c42.112,87.871-9.39,183.547-11.604,187.578
					C2410.598,3537.949,2404.668,3541.46,2398.223,3541.46z M1999.885,3506.143h387.222c10.415-23.621,33.865-88.738,6.348-146.155
					c-10.215-21.323-63.506-43.108-182.534-40.325c-86.855,2.036-172.039,16.78-209.197,30.496
					C1997.344,3375.027,1986.88,3446.912,1999.885,3506.143z"/>
			</g>
		</g>
		<g>
			<path style="fill:#000077;" d="M1871.212,3126.215c60.591-9.261,120.206-31.105,171.545-64.924
				c7.122-4.893,14.963,5.296,8.286,10.889c-50.373,42.009-110.224,71.723-173.578,88.795
				C1853.138,3165.99,1846.582,3130.039,1871.212,3126.215L1871.212,3126.215z"/>
		</g>
		<g>
			<path style="fill:#000077;" d="M2055.33,3317.729c-4.17,0-8.062-2.627-9.473-6.797c-23.845-70.461-99.128-185.488-99.888-186.641
				c-3.03-4.617-1.746-10.818,2.869-13.85c4.622-3.035,10.818-1.743,13.85,2.869c3.149,4.797,77.444,118.315,102.114,191.211
				c1.77,5.232-1.035,10.908-6.267,12.678C2057.473,3317.559,2056.392,3317.729,2055.33,3317.729z"/>
		</g>
		<g>
			<path style="fill:#000077;" d="M1654.412,3317.729c-1.692,0-3.406-0.43-4.978-1.335c-4.785-2.754-6.433-8.867-3.679-13.655
				l85.908-149.316c2.751-4.788,8.865-6.44,13.655-3.679c4.785,2.754,6.433,8.867,3.679,13.655l-85.908,149.316
				C1661.24,3315.93,1657.874,3317.729,1654.412,3317.729z"/>
		</g>
	</g>
</g>
</svg>
