<?xml version="1.0" encoding="utf-8"?>
<!-- Generator: Adobe Illustrator 27.5.0, SVG Export Plug-In . SVG Version: 6.00 Build 0)  -->
<svg version="1.1" id="Layer_1" xmlns="http://www.w3.org/2000/svg" xmlns:xlink="http://www.w3.org/1999/xlink" x="0px" y="0px"
	 viewBox="0 0 4000 4000" style="enable-background:new 0 0 4000 4000;" xml:space="preserve">
<g>
	<g>
		<!-- <rect style="fill:#FFEBCD;" width="4000" height="4000"/> -->
	</g>
	<g>
		<g style="opacity:0.19;">
			<g>
				<ellipse style="fill:#000462;" cx="1974.39" cy="3539.617" rx="819.419" ry="62.476"/>
			</g>
		</g>
		<g>
			<g>
				<g>
					<path style="fill:#FBDA09;" d="M2524.235,2104.104c-22.15,9.851-46.949,19.05-73.45,27.65
						c-194.149,63.151-478.7,93.85-478.7,93.85s93.251,192.25,151.85,310.4c27.2,54.75,9.75,122.4-42.3,154.5
						c-1.75,1.1-3.551,2.15-5.4,3.201c0,0-203.151,168.2-608.251,205.9c-89.75,8.35-180.449,2.9-267.999-18.7
						c-50.451-12.4-104.15-30.899-148.75-58.299c-123.45-75.851-201.55-240.95-345.1-437.351
						c-139.5-190.8-152.55-295.95-27.6-657.999c6.45-18.75,21.25-33.65,40.25-39.349c104.95-31.35,180.35-117.051,142.65-191.6
						c-9.75-19.2-8.201-42.201,3.35-60.25c154.1-240.601,717.35-597.25,1189.1-488.55c0,0,105.85,20.749,232.4,113.75
						c66.35,48.8,138.4,117.5,203.85,213.45c14.55,21.35,18.95,48.049,12.35,73.049c-27.85,105.601,9.75,145.701,71.55,161.65
						c27.5,7.1,50.15,26.75,60.599,53.201c21.2,53.6,51.5,147.45,51.5,246.2C2686.135,1808.805,2708.936,2022.305,2524.235,2104.104
						z"/>
				</g>
				<g>
					<path style="fill:#F78C0D;" d="M1064.722,2513.306c-0.561,12.434-5.557,24.25-14.931,32.839
						c-20.349,18.637-53.75,15.269-74.632-7.522c-2.835-3.088-5.277-6.343-7.326-9.768c-1.122-17.177,5.08-33.176,18.244-42.438
						c22.229-15.633,55.855-6.063,75.137,21.36C1062.477,2509.573,1063.656,2511.426,1064.722,2513.306z"/>
				</g>
				<g>
					<path style="fill:#F78C0D;" d="M1527.235,2583.254c-1,22.151-9.9,43.201-26.599,58.5
						c-36.25,33.201-95.751,27.201-132.951-13.399c-5.05-5.5-9.401-11.3-13.051-17.4c-2-30.601,9.05-59.101,32.5-75.601
						c39.6-27.849,99.501-10.8,133.85,38.05C1523.235,2576.604,1525.336,2579.905,1527.235,2583.254z"/>
				</g>
				<g style="opacity:0.58;">
					<g>
						<path style="fill:#FFFFFF;" d="M1020.973,2590.934c29.733-5.454,51.04-20.907,50.42-62.378
							C1084.08,2580.402,1064.056,2597.806,1020.973,2590.934z"/>
					</g>
				</g>
				<g style="opacity:0.58;">
					<g>
						<path style="fill:#FFFFFF;" d="M1453.482,2739.279c54.815-10.055,94.096-38.543,92.953-114.998
							C1569.824,2719.863,1532.907,2751.949,1453.482,2739.279z"/>
					</g>
				</g>
				<g style="opacity:0.58;">
					<g>
						<path style="fill:#FFFFFF;" d="M2433.747,1181.039c-155.701-144.301-304.65-173.5-304.65-173.5
							c-471.75-108.75-1035,247.899-1189.1,488.5c-11.55,18.099-13.101,41.1-3.4,60.25c37.749,74.6-37.7,160.299-142.6,191.649
							c-19,5.651-33.801,20.601-40.25,39.301c-125,362.1-92.35,447.649,47.15,638.499c106.1,145.1,156.899,292.751,236.199,380.301
							c-97.45-85.65-172.55-231.7-296.25-400.951c-139.499-190.8-152.55-295.949-27.6-657.999c6.45-18.75,21.25-33.65,40.25-39.349
							c104.95-31.35,180.35-117.051,142.65-191.6c-9.75-19.2-8.201-42.201,3.35-60.25c154.1-240.601,717.35-597.25,1189.1-488.55
							C2088.596,967.339,2264.446,1001.839,2433.747,1181.039z"/>
					</g>
				</g>
				<g>
					<path style="fill:#F9BB0B;" d="M1536.998,1736.678l339.88,375.765v25.144l164.008,344.008c0,0,65.455,85.165,37.562,134.256
						c-27.893,49.091-215.33,202.686-699.545,248.43c199.95-93.882,370.737-215.692,269.775-597.753
						c0,0-127.342,55.676-280.561,75.604c0,0,407.603-130.909,348.843-275.95c-58.76-145.041-188.772-345.496-188.772-345.496"/>
				</g>
				<g>
					<path style="fill:#F78C0D;" d="M1958.993,2505.883c-0.772,17.1-7.643,33.351-20.534,45.161
						c-27.985,25.631-73.919,20.999-102.636-10.344c-3.899-4.246-7.257-8.723-10.075-13.433
						c-1.544-23.623,6.987-45.625,25.09-58.363c30.57-21.499,76.814-8.337,103.331,29.375
						C1955.905,2500.749,1957.526,2503.298,1958.993,2505.883z"/>
				</g>
				<g>
					<path style="fill:#F9BB0B;" d="M2524.235,2104.104c-22.15,9.851-46.949,19.05-73.45,27.65l-81.35-18.35l-24.85-99.599
						l-146.749,167.65l-222.3,27.3l-71.901-129.451l-416.5-452.7l369.15-68.45l367.65-27.5c0,0,0.1,0,0.299,0.05
						c1.051,0.2,4.551,0.8,9.751,1.15c0.05,0,0.1,0,0.1,0c27.849,1.7,104.05-4.1,119.199-116.799c13.45-100.2-39.6-266.6-67-353.8
						c66.35,48.8,138.4,117.5,203.85,213.45c14.55,21.35,18.95,48.049,12.35,73.049c-27.85,105.601,9.75,145.701,71.55,161.65
						c27.5,7.1,50.15,26.75,60.599,53.201c21.2,53.6,51.5,147.45,51.5,246.2C2686.135,1808.805,2708.936,2022.305,2524.235,2104.104
						z"/>
				</g>
				<g>
					
						<ellipse transform="matrix(0.5985 -0.8011 0.8011 0.5985 -503.6581 2593.8201)" style="fill:#F78C0D;" cx="2335.793" cy="1799.365" rx="31.65" ry="41.591"/>
				</g>
				<g>
					
						<ellipse transform="matrix(0.5985 -0.8011 0.8011 0.5985 -617.1581 2318.4666)" style="fill:#F78C0D;" cx="2004.355" cy="1774.919" rx="89.465" ry="117.565"/>
				</g>
				<g>
					<path style="fill:#F9BB0B;" d="M2233.986,1531.854c-5.2-0.35-8.7-0.95-9.751-1.15L2233.986,1531.854z"/>
				</g>
				<g>
					<path style="fill:#640000;" d="M1388.21,2924.427c-66.34,0-131.065-7.695-193.284-23.022
						c-61.755-15.215-113.806-35.669-154.71-60.801c-90.43-55.566-155.212-153.316-237.231-277.075
						c-34.973-52.769-71.135-107.334-113.882-165.806c-68.12-93.184-111.457-171.875-117.014-276.118
						c-5.002-93.897,19.248-206.392,86.499-401.25c8.787-25.454,29.033-45.137,54.163-52.646
						c61.235-18.296,112.466-57.261,130.517-99.258c9.453-21.992,9.224-43.067-0.681-62.637
						c-12.939-25.566-11.23-56.66,4.458-81.152c84.121-131.348,274.111-281.641,484.021-382.881
						c255.457-123.223,513.723-164.014,727.268-114.907c14.8,2.983,258.267,55.864,449.224,335.923
						c17.954,26.333,23.542,59.268,15.334,90.361c-11.899,45.063-11.462,78.955,1.294,100.742
						c9.81,16.748,27.327,27.9,55.129,35.088c34.082,8.813,62.092,33.433,74.922,65.859
						c24.092,60.869,52.795,154.077,52.993,252.959c0.796,8.813,4.551,61.445-12.424,123.545
						c-24.475,89.536-80.5,155.942-162.024,192.051c-156.897,69.502-436.807,108.354-528.752,119.697
						c27.715,57.031,93.835,192.876,138.808,283.506c32.144,64.771,10.134,144.653-50.103,181.865
						c-1.501,0.928-3.035,1.836-4.597,2.73c-21.016,16.855-225.054,172.837-618.188,209.399
						C1442.487,2923.152,1415.207,2924.427,1388.21,2924.427z M724.831,1708.138c-12.141,3.628-21.995,13.34-26.36,25.986
						c-125.127,362.554-108.347,456.714,24.695,638.696c43.318,59.258,81.394,116.709,114.99,167.402
						c79.143,119.419,141.655,213.745,224.148,264.434c37.183,22.847,85.2,41.611,142.715,55.781
						c82.954,20.439,170.769,26.548,261.025,18.149c394.041-36.651,594.736-199.492,596.719-201.133
						c0.994-0.821,2.061-1.553,3.186-2.178c1.58-0.879,3.118-1.777,4.614-2.705c41.892-25.874,57.039-81.753,34.482-127.207
						c-57.983-116.846-151.011-308.633-151.943-310.556c-2.996-6.172-2.798-13.423,0.527-19.424
						c3.325-6.006,9.365-10.02,16.189-10.757c3.643-0.391,366.318-40.264,545.876-119.8
						c168.071-74.443,150.298-265.688,149.46-273.794c-0.076-0.723-0.117-1.479-0.117-2.207c0-97.49-31.348-191.245-50.034-238.457
						c-7.886-19.932-25.176-35.083-46.252-40.532c-38.848-10.049-65.334-27.91-80.974-54.619
						c-18.901-32.271-20.759-75.723-5.681-132.832c5.085-19.258,1.66-39.604-9.397-55.82
						c-182.566-267.749-420.508-317.891-422.891-318.369c-0.205-0.039-0.439-0.088-0.642-0.137
						c-464.651-107.075-1019.38,249.507-1166.594,479.356c-7.666,11.973-8.564,27.046-2.339,39.346
						c15.591,30.806,16.213,64.81,1.799,98.35C858.901,1638.933,798.664,1686.072,724.831,1708.138L724.831,1708.138z"/>
				</g>
				<g>
					<path style="fill:#640000;" d="M1557.617,2303.607c62.722-28.762,124.086-61.132,182.984-96.925
						c57.273-35.273,115.024-74.563,160.531-123.431c0.006-0.01-0.689,29.108-0.688,29.108
						c-0.138-0.061-428.919-471.629-429.042-471.698c-7.802-8.577-7.173-21.854,1.404-29.656c2.693-2.449,5.941-4.085,9.244-4.888
						c57.782-13.813,115.166-25.474,173.07-36.354c203.894-38.084,410.657-62.791,618.239-68.042
						c19.829-1.124,38.167-14.407,45.829-32.66c4.581-12.011,7.048-25.732,9.809-38.268c26.203-123.162-0.118-257.212-85.074-352.27
						c-18.308-21.047-38.761-40.34-60.73-57.91c-21.178-17.635,3.925-49.881,26.357-32.948
						c47.806,38.089,89.539,84.776,118.963,138.75c45.13,81.081,59.649,176.196,48.948,267.563
						c-2.543,22.726-6.661,45.214-12.058,67.418c-5.187,26.716-19.74,51.93-42.944,66.809
						c-13.672,9.016-29.764,14.521-46.122,15.603c-2.246,0.14-4.957,0.307-6.532,0.338l-43.562,1.456
						c-246.792,9.772-493.456,46.085-734.041,101.467c0,0.001,10.531-34.67,10.531-34.67l428.925,471.569
						c7.805,8.242,7.443,21.298-0.691,29.116c-80.438,70.826-177.194,115.573-274.227,157.544
						c-32.12,13.431-64.465,26.111-97.296,37.631c-1.302,0.458-2.731-0.228-3.188-1.532
						C1555.816,2305.485,1556.429,2304.119,1557.617,2303.607L1557.617,2303.607z"/>
				</g>
				<g>
					<path style="fill:#640000;" d="M1972.097,2246.707c-8.115,0-15.85-4.707-19.324-12.612l-56.033-127.436
						c-4.69-10.664,0.154-23.115,10.82-27.803c10.669-4.697,23.115,0.156,27.803,10.82l56.033,127.437
						c4.69,10.664-0.154,23.115-10.82,27.802C1977.814,2246.131,1974.931,2246.707,1972.097,2246.707z"/>
				</g>
				<g>
					<path style="fill:#640000;" d="M627.374,1978.134c-25.204,179.579,65.402,312.71,239.507,360.281
						c7.503,2.643,18.714,5.16,26.591,6.853c15.527,4,38.187,7.875,54.279,10.091c36.064,5.652,74.318,7.366,110.888,8.598
						c3.368,0.189,10.563,0.33,13.966,0.191c23.154-0.518,46.852,0,69.964-1.804c32.297-1.141,79.617-5.706,112.033-8.956
						c1.679-0.23,3.257,1.003,3.407,2.702c0.15,1.577-0.955,2.988-2.49,3.256c-11.516,2.161-59.377,10.173-69.672,11.839
						c-8.483,0.959-33.238,4.22-42.15,5.247c-89.574,10.271-181.191,10.924-270.034-6.844
						c-149.325-30.837-263.54-124.544-287.641-280.373c-5.676-39.712-6.793-79.712-0.001-119.448
						C592.137,1942.094,632.479,1950.119,627.374,1978.134L627.374,1978.134z"/>
				</g>
				<g>
					<path style="fill:#640000;" d="M2493.717,1899.789l-45.958-178.058c-0.929-3.409,4.089-5.384,5.653-2.091
						c0,0,80.016,165.891,80.016,165.891c5.089,10.552,0.66,23.231-9.89,28.32
						C2511.614,1919.783,2496.741,1912.726,2493.717,1899.789L2493.717,1899.789z"/>
				</g>
				<g>
					<path style="fill:#640000;" d="M2352.677,1502.755l54.565,135.329c1.33,3.207-3.224,5.804-5.267,2.929
						c0,0-86.172-117.753-86.172-117.753c-6.935-9.475-4.874-22.778,4.601-29.712
						C2331.316,1485.323,2347.737,1490.063,2352.677,1502.755L2352.677,1502.755z"/>
				</g>
				<g>
					<g>
						
							<ellipse transform="matrix(0.9404 -0.3401 0.3401 0.9404 -420.2117 508.4935)" style="fill:#F78C0D;" cx="1240.568" cy="1453.063" rx="102.269" ry="53.149"/>
					</g>
					<g>
						<path style="fill:#640000;" d="M1228.445,1361.649c29.123-10.78,64.273-14.322,93.818,0.44
							c23.447,10.859,36.459,39.711,28.628,65.189c-10.003,33.857-38.425,56.939-68.273,72.395
							c-39.136,19.191-84.384,27.68-127.089,13.764c-37.339-11.889-58.097-49.504-34.882-84.321
							c5.852-9.174,13.44-16.572,21.629-22.74c2.129-1.652,4.896,1.24,3.281,3.289c-47.387,64.952,9.967,90.108,70.702,78.59
							c34.519-6.736,70.701-22.856,93.979-49.155c26.431-29.195,15.898-57.597-23.579-68.113
							c-17.75-5.183-37.393-5.817-57.221-4.799C1226.804,1366.478,1225.978,1362.47,1228.445,1361.649L1228.445,1361.649z"/>
					</g>
					<g style="opacity:0.58;">
						<g>
							<path style="fill:#FFFFFF;" d="M1357.971,1381.437c28.024,59.816-16.025,105.583-116.511,140.351
								C1391.75,1494.258,1432.592,1422.12,1357.971,1381.437z"/>
						</g>
					</g>
				</g>
				<g>
					<g>
						
							<ellipse transform="matrix(0.8698 -0.4934 0.4934 0.8698 -872.1569 751.3448)" style="fill:#F78C0D;" cx="987.537" cy="2028.197" rx="139.985" ry="72.75"/>
					</g>
					<g>
						<path style="fill:#640000;" d="M950.131,1907.646c49.178-28.706,128.594-44.928,167.93,8.895
							c29.776,44.2,2.479,100.923-29.549,135.099c-30.503,32.564-69.816,56.323-112.254,69.793
							c-42.633,12.55-94.808,17.475-134.265-10.057c-28.564-19.685-35.92-58.13-21.777-87.88
							c5.784-13.726,14.32-25.455,23.948-35.663c1.216-1.289,3.246-1.348,4.535-0.132c1.073,1.009,1.286,2.572,0.649,3.815
							c-5.743,11.834-10.87,24.144-13.098,36.95c-11.349,59.361,44.115,71.708,90.838,62.58
							c36.584-6.936,71.596-23.19,101.453-45.377c57.101-40.137,105.422-126.342,2.289-138.824
							c-25.88-2.789-52.556,0.83-78.311,6.694C949.004,1914.467,947.006,1909.401,950.131,1907.646L950.131,1907.646z"/>
					</g>
					<g style="opacity:0.58;">
						<g>
							<path style="fill:#FFFFFF;" d="M1129.454,1904.523c51.584,74.256,2.687,146.151-124.891,216.198
								C1201.009,2048.973,1239.507,1942.235,1129.454,1904.523z"/>
						</g>
					</g>
				</g>
				<g>
					<g>
						
							<ellipse transform="matrix(0.8698 -0.4934 0.4934 0.8698 -806.9156 1019.4718)" style="fill:#F78C0D;" cx="1528.189" cy="2038.641" rx="72.426" ry="37.64"/>
					</g>
					<g>
						<path style="fill:#640000;" d="M1508.835,1976.27c85.253-45.976,130.804,33.175,54.259,89.901
							c-25.021,18.024-55.626,29.454-87.072,24.683c-27.26-3.489-46.585-27.962-34.404-54.645
							c0.369-2.695,15.223-26.594,15.072-16.546c-25.401,50.792,17.803,61.846,58.719,46.442
							c73.49-26.945,104.155-108.898-5.34-86.787C1508.266,1979.836,1507.211,1977.138,1508.835,1976.27L1508.835,1976.27z"/>
					</g>
					<g style="opacity:0.58;">
						<g>
							<path style="fill:#FFFFFF;" d="M1601.615,1974.654c26.689,38.419,1.39,75.617-64.617,111.858
								C1638.637,2049.391,1658.555,1994.166,1601.615,1974.654z"/>
						</g>
					</g>
				</g>
				<g>
					<g>
						
							<ellipse transform="matrix(0.8698 -0.4934 0.4934 0.8698 -677.2374 851.4128)" style="fill:#F78C0D;" cx="1274.6" cy="1708.905" rx="72.426" ry="37.64"/>
					</g>
					<g>
						<path style="fill:#640000;" d="M1255.247,1646.534c85.254-45.976,130.803,33.174,54.26,89.901
							c-25.021,18.024-55.627,29.455-87.072,24.683c-27.26-3.489-46.586-27.962-34.404-54.645
							c0.368-2.694,15.223-26.594,15.072-16.546c-25.402,50.792,17.804,61.846,58.719,46.442
							c73.49-26.944,104.155-108.898-5.34-86.787C1254.677,1650.1,1253.622,1647.401,1255.247,1646.534L1255.247,1646.534z"/>
					</g>
					<g style="opacity:0.58;">
						<g>
							<path style="fill:#FFFFFF;" d="M1348.026,1644.918c26.689,38.419,1.39,75.617-64.617,111.858
								C1385.048,1719.655,1404.966,1664.43,1348.026,1644.918z"/>
						</g>
					</g>
				</g>
				<g>
					<g>
						
							<ellipse transform="matrix(0.8698 -0.4934 0.4934 0.8698 -377.5367 1125.152)" style="fill:#F78C0D;" cx="1943.118" cy="1277.915" rx="103.446" ry="53.761"/>
					</g>
					<g>
						<path style="fill:#640000;" d="M1915.476,1188.83c27.205-15.704,61.65-25.216,93.62-15.524
							c25.226,6.838,43.109,33.392,39.636,60.129c-4.212,35.461-28.626,63.311-55.757,83.801
							c-35.757,25.794-79.428,41.956-124.378,35.347c-39.253-5.502-66.35-39.475-49.127-78.141
							c4.274-10.144,10.582-18.811,17.696-26.354c1.841-2.01,5.094,0.403,3.832,2.721c-36.197,72.825,25.27,88.15,83.869,66.332
							c33.272-12.589,66.607-34.82,85.343-65.002c21.384-33.609,6.054-60.134-35.1-63.904c-18.58-2.148-38.274,0.562-57.87,4.95
							C1914.663,1193.925,1913.155,1190.068,1915.476,1188.83L1915.476,1188.83z"/>
					</g>
					<g style="opacity:0.58;">
						<g>
							<path style="fill:#FFFFFF;" d="M2047.992,1186.522c38.12,54.874,1.986,108.003-92.292,159.766
								C2100.869,1293.268,2129.319,1214.391,2047.992,1186.522z"/>
						</g>
					</g>
				</g>
				<g>
					<path style="fill:#640000;" d="M1934.547,1894.407c-40.44-33.267-65.088-86.523-60.153-140.176
						c5.459-64.069,60.731-107.079,124.287-91.694c80.295,20.111,135.06,108.248,123.085,188.897
						c-4.135,25.922-16.641,52.228-38.711,67.116c-1.154,0.779-2.721,0.476-3.5-0.677c-0.652-0.964-0.532-2.233,0.193-3.074
						c15.983-18.503,22.533-42.109,22.56-65.128c-0.171-56.647-32.938-112.838-81.774-141.219
						c-26.044-15.481-62.045-20.601-86.862-2.385c-35.535,25.216-38.731,80.399-26.995,120.17
						c6.044,22.835,17.036,44.697,31.484,64.713C1939.96,1893.182,1936.694,1896.278,1934.547,1894.407L1934.547,1894.407z"/>
				</g>
				<g>
					<path style="fill:#640000;" d="M2310.704,1842.012c-24.468-16.844-35.064-58.088-9.173-79.467
						c18.232-14.743,45.859-6.537,60.134,9.165c20.136,19.797,28.656,61.104,2.328,78.876c-1.323,0.788-2.821-0.917-1.908-2.119
						c9.732-13.705,7.079-31.176,0.125-45.112c-10.985-24.782-50.239-44.967-59.246-9.431c-3.475,15.399,1.36,32.26,9.804,46.112
						C2313.635,1841.317,2311.925,1842.907,2310.704,1842.012L2310.704,1842.012z"/>
				</g>
				<g>
					<path style="fill:#640000;" d="M1539.905,2657.19c-5.217-46.458-31.865-82.451-69.418-102.355
						c-31.143-16.641-74.171-12.651-89.102,23.307c-19.206,46.699,6.184,102.627,44.681,133.843
						c1.496,1.198,1.728,3.392,0.512,4.873c-0.864,1.055-2.228,1.462-3.472,1.166c-9.856-2.371-19.346-6.57-28.235-11.938
						c-58.118-33.815-84.032-122.464-36.591-176.067c64.347-68.412,170.105-15.093,190.073,66.317
						c5.294,20.611,5.356,42.637-1.786,61.784C1545.376,2661.52,1540.089,2660.746,1539.905,2657.19L1539.905,2657.19z"/>
				</g>
				<g>
					<path style="fill:#640000;" d="M1968.773,2562.961c-3.767-47.88-53.864-100.819-101.539-82.513
						c-33.915,16.139-30.172,63.934-13.253,92.796c6.573,11.85,15.534,22.706,26.943,32.045c2.211,1.652,0.292,5.405-2.318,4.635
						c-15.21-3.745-29.357-12.67-40.755-24.336c-30.693-30.562-40.216-85.98-9.29-120.803
						c49.245-52.86,131.694-11.414,146.735,51.197c4.088,15.911,4.135,32.916-1.379,47.696
						C1972.995,2566.305,1968.917,2565.705,1968.773,2562.961L1968.773,2562.961z"/>
				</g>
				<g>
					<path style="fill:#640000;" d="M1071.835,2554.81c-3.381-29.983-23.709-54.719-51.091-61.794
						c-27.47-6.647-44.854,16.416-41.211,42.522c2.105,18.066,11.915,36.595,28.398,50.031c1.671,1.178,0.267,3.984-1.661,3.39
						c-41.82-9.905-67.677-70.509-36.391-105.537c35.394-38.571,96.304-7.865,106.694,37.229c2.875,11.594,3.071,23.917-0.999,34.68
						C1074.89,2557.235,1071.963,2556.792,1071.835,2554.81L1071.835,2554.81z"/>
				</g>
				<g>
					<path style="fill:#F9BB0B;" d="M1968.855,967.587c0,0,183.229,7.438,281.907,167.107
						c98.677,159.67,42.645,320.331,42.645,320.331s-0.496,22.562-39.669,25.785s-387.273,13.541-780,95.469
						c0,0,249.005-94.732,530.618-124.666S2237.486,1065.769,1968.855,967.587z"/>
				</g>
			</g>
			<g>
				<g>
					<path style="fill:#FBDA09;" d="M2621.36,2711.114c69.018-80.097,188.316-8.522,161.148,90.954
						c0,0,201.375,110.341,299.719,68.725c98.344-41.616,263.942-322.427,273.459-515.564
						c9.517-193.137-113.319-581.549-193.714-619.581c-80.394-38.032-322.063,48.791-322.063,48.791s-47.087,89.023-127.281,120.605
						s-162.242-28.702-162.242-28.702c-154.307,46.304-296.614,103.552-296.614,103.552s-97.907,27.413-34.682,195.752
						c48.875,130.133,157.937,332.455,204.925,417.592c14.252,25.823,36.525,46.253,63.469,58.253L2621.36,2711.114z"/>
				</g>
				<g style="opacity:0.58;">
					<g>
						<path style="fill:#FFFFFF;" d="M2556.181,2566.681c0,0,84.833,12.821,84.856-67.36l-18.333-72.104
							C2712.142,2517.533,2643.153,2624.663,2556.181,2566.681z"/>
					</g>
				</g>
				<g style="opacity:0.58;">
					<g>
						<path style="fill:#FFFFFF;" d="M2543.325,2631.385c0,0-9.068,1.426-38.016-9.609c-28.897-11.04-47.619-47.753-47.619-47.753
							s-141.281-283.311-180.949-365.096c-21.795-45.009-26.581-77.043-26.495-96.804l62.385,73.078
							c0,0,102.527,263.779,140.448,345.644C2490.998,2612.711,2543.325,2631.385,2543.325,2631.385z"/>
					</g>
				</g>
				<g>
					<path style="fill:#F9BB0B;" d="M2532.547,2292.08c0,0,167.297,46.741,298.448,53.405c0,0,83.559-16.386,109.743,38.159
						c26.184,54.545,114.286,314.124,129.957,378.294c15.671,64.17-12.018,86.365-59.349,77.575
						c-47.33-8.79-154.03-44.494-154.03-44.494l-58.413-23.257l-11.717-57.306l-23.508-20.256l-16.802-10.313
						c0,0,210.588,27.293,129.111-152.051C2819.89,2408.354,2532.547,2292.08,2532.547,2292.08z"/>
				</g>
				<g>
					<path style="fill:#F9BB0B;" d="M2930.849,1756.114c0,0,127.347-17.23,167.11,58.876
						c39.763,76.106-13.666,322.132-127.648,472.228c0,0,79.186-70.558,135.469-174.949c0,0,101.7-115.499,143.783,59.397
						c42.083,174.896,2.941,412.748,2.941,412.748s74.692-160.918,66.985-264.649s-37.584-284.991-91.844-412.975
						c-54.26-127.984-139.887-188.749-139.887-188.749"/>
				</g>
				<g>
					<path style="fill:#640000;" d="M3029.423,2901.043c-108.689,0.01-249.917-76.567-257.051-80.474
						c-8.562-4.692-12.786-14.644-10.215-24.057c11.628-42.578-10.266-76.05-37.124-90.337
						c-23.723-12.622-59.216-14.336-87.69,18.711c-6.074,7.056-16.06,9.292-24.563,5.503l-133.879-59.624
						c-30.947-13.789-56.997-37.695-73.354-67.329c-45.476-82.402-156.606-288.31-206.204-420.371
						c-27.078-72.095-29.9-130.161-8.391-172.583c18.518-36.519,48.381-48.11,55.779-50.488
						c11.99-4.79,150.22-59.634,297.595-103.857c6.348-1.904,13.215-0.713,18.555,3.203c0.693,0.508,73.911,52.896,142.017,26.074
						c72.095-28.393,115.93-110.015,116.365-110.835c2.458-4.649,6.565-8.213,11.514-9.99
						c25.581-9.189,252.397-88.618,338.218-48.008c95.554,45.2,214.988,452.5,205.764,639.687
						c-9.832,199.512-179.05,488.564-286.306,533.955C3072.406,2897.854,3051.584,2901.043,3029.423,2901.043z M2806.371,2790.799
						c62.678,31.939,200.256,89.073,267.637,60.566c84.329-35.684,251.145-305.151,260.61-497.177
						c4.27-86.66-19.563-224.829-62.2-360.591c-46.211-147.158-94.324-226.982-119.468-238.877
						c-57.305-27.119-228.289,22.52-298.601,46.992c-13.818,23.257-60.671,94.082-133.992,122.959
						c-74.465,29.321-148.081-9.458-173.374-25.264c-148.02,44.985-283.953,99.502-285.337,100.059
						c-0.715,0.288-1.443,0.537-2.185,0.742c-0.513,0.171-19.709,6.426-31.387,30.376c-15.127,31.021-11.404,78.618,10.764,137.646
						c48.628,129.473,158.613,333.223,203.645,414.815c11.946,21.64,30.977,39.106,53.584,49.175l120.447,53.643
						c36.191-33.071,85.063-39.956,128.333-16.939C2782.861,2689.148,2814.572,2733.758,2806.371,2790.799z"/>
				</g>
				<g>
					<path style="fill:#640000;" d="M2267.49,1995.921c-53.773,42.456-12.257,116.601,25.601,155.926
						c22.907,24.665,49.894,45.776,78.348,64.031c28.733,18.515,59.518,34.128,91.183,47.842c1.53,0.662,2.231,2.438,1.57,3.966
						c-0.625,1.444-2.256,2.146-3.722,1.663c-49.628-16.485-98.393-38.007-142.07-67.489
						c-44.883-30.744-87.262-69.779-105.755-122.891c-14.62-39.566-4.793-86.823,27.411-115.1
						C2262.14,1944.292,2290.233,1977.09,2267.49,1995.921L2267.49,1995.921z"/>
				</g>
				<g>
					<path style="fill:#640000;" d="M3033.485,1717.218c56.643-3.434,118.173,23.528,125.226,85.69
						c4.324,49.671-2.421,100.12-11.353,148.691c-6.264,32.186-14.115,63.907-24.073,95.099c-0.42,1.316-1.826,2.041-3.142,1.621
						c-1.283-0.409-1.998-1.755-1.654-3.035c7.48-31.456,12.889-63.52,16.641-95.575c4.478-40.07,6.647-80.129,3.286-120.06
						c-0.851-20.868-6.348-44.579-22.1-58.281c-20.202-18.553-52.087-22.561-78.854-19.377
						C3013.279,1755.23,3009.112,1719.576,3033.485,1717.218L3033.485,1717.218z"/>
				</g>
				<g>
					<path style="fill:#640000;" d="M2773.037,2337.87c33.884-4.838,67.091-5.29,100.77-4.459c5.677,0.101,11.82,0.422,17.509,0.658
						c10.966,0.338,21.977-1.937,31.588-7.037c10.088-4.834,17.569-13.228,24.804-21.558c8.914-9.928,18.062-19.662,27.425-29.216
						c18.82-19.032,38.313-37.505,60.079-54.093c2.015-1.645,5.141,0.868,3.847,3.192c-12.286,24.453-26.845,47.02-42.077,69.029
						c-17.305,22.771-31.641,50.075-57.935,63.661c-16.186,8.528-35.087,11.611-53.136,8.892c-4.79-0.675-10.119-1.295-14.873-2.081
						c-33.306-5.072-65.923-11.321-98.44-22.008C2770.107,2342.093,2770.408,2338.155,2773.037,2337.87L2773.037,2337.87z"/>
				</g>
				<g>
					<path style="fill:#640000;" d="M2943.905,2342.543c23.38,74.979,45.795,153.996,66.354,229.656
						c0.79,2.851-3.548,4.544-4.734,1.607c-15.127-36.755-30.521-73.384-46.184-109.865c-13.906-32.046-33.663-77.603-48.092-108.79
						C2901.842,2332.448,2935.548,2319.327,2943.905,2342.543L2943.905,2342.543z"/>
				</g>
				<g>
					
						<ellipse transform="matrix(0.9973 -0.0741 0.0741 0.9973 -149.2339 194.9207)" style="fill:#F78C0D;" cx="2552.402" cy="2108.741" rx="104.504" ry="60.248"/>
				</g>
				<g>
					<path style="fill:#640000;" d="M3049.058,2863.782l-0.587,0.53l-0.27,0.278l-0.015,0.024l-0.04,0.106
						c-0.052,0.14,0.013,0.122,0.149-0.02c0.217-0.203,0.447-0.251,0.764-0.697c1.592-1.729,2.701-3.648,3.824-5.809
						c9.063-18.546,10.465-39.799,11.573-60.779c0.702-27.034-1.812-55.676-5.252-82.661c-0.475-2.929,4.006-4.087,4.877-1.106
						c0,0,6.134,20.185,6.134,20.185c11.819,44.25,27.149,101.067,9.121,145.483c-1.927,3.727-4.124,7.708-7.262,10.758
						C3054.105,2906.076,3030.847,2879.539,3049.058,2863.782L3049.058,2863.782z"/>
				</g>
				<g>
					<path style="fill:#640000;" d="M2579.181,2005.778c32.874-0.795,71.438,10.531,91.067,40.604
						c15.232,21.767,12.137,54.292-3.486,74.956c-21.233,29.997-57.166,45.877-91.705,51.731
						c-45.837,7.277-98.304-0.865-132.07-35.435c-29.092-29.768-24.934-74.128,7.871-98.762c8.912-7.111,18.878-12.23,29.109-15.918
						c2.692-1.02,4.65,2.815,2.343,4.417c-61.335,45.051-40.914,98.593,30.193,111.281c45.795,8.635,126.156-6.202,139.194-57.177
						c5.694-37.538-39.981-61.587-73.118-70.734C2575.794,2010.098,2576.398,2005.739,2579.181,2005.778L2579.181,2005.778z"/>
				</g>
				<g>
					
						<ellipse transform="matrix(0.9973 -0.0741 0.0741 0.9973 -152.1377 222.0039)" style="fill:#F78C0D;" cx="2915.951" cy="2161.413" rx="60.613" ry="34.944"/>
				</g>
				<g>
					<path style="fill:#F78C0D;" d="M3122.772,2426.286c-19.248-1.278-30.6-11.014-37.202-23.609
						c-0.566-3.568-0.985-7.196-1.263-10.936c-3.675-49.465,18.474-91.47,49.538-93.778c8.974-0.667,17.7,2.044,25.673,7.468
						C3171.552,2347.956,3166.658,2429.192,3122.772,2426.286z"/>
				</g>
				<g>
					<path style="fill:#640000;" d="M2931.483,2101.693c25.904-1.501,60.602,14.894,58.573,45.621
						c-5.741,44.537-63.612,59.143-101.15,50.333c-50.695-10.503-69.231-64.436-14.966-85.991c1.564-0.594,2.697,1.634,1.358,2.562
						c-35.882,26.042-23.081,57.736,17.507,64.566c27.597,4.582,72.101-2.882,80.786-33.18c3.259-21.804-23.22-35.708-42.458-41.031
						C2929.518,2104.19,2929.872,2101.69,2931.483,2101.693L2931.483,2101.693z"/>
				</g>
				<g>
					<g>
						<path style="fill:#F78C0D;" d="M2498.375,2445.583c0,0,0.89,64.432,44.995,75.234c53.506,13.104,88.253-42.985,80.97-64.077
							c-7.125-20.633-38.426-73.067-83.436-50.958C2502.883,2424.459,2498.375,2445.583,2498.375,2445.583z"/>
					</g>
					<g>
						<path style="fill:#640000;" d="M2536.409,2570.009c-50.228-22.342-72.796-89.635-48.13-139.259
							c13.032-27.809,44.381-46.6,75.289-42.693c48.421,4.98,82.604,51.61,85.185,97.989c0.977,17.675-2.219,35.663-10.844,50.458
							c-0.659,1.132-2.111,1.514-3.242,0.854c-0.873-0.509-1.298-1.501-1.144-2.443c5.276-31.832-5.175-62.426-22.538-85.167
							c-41.916-52.251-103.437-32.32-105.452,35.009c-0.582,28.434,10.454,58.853,33.43,81.347
							C2540.9,2567.785,2538.7,2571.094,2536.409,2570.009L2536.409,2570.009z"/>
					</g>
				</g>
				<g>
					<path style="fill:#640000;" d="M3194.008,2412.59c-0.637-28.316-7.43-57.447-23.401-80.319
						c-13.877-20.472-37.515-31.921-55.484-10.887c-17.159,20.116-21.291,48.67-20.176,74.733
						c1.77,27.461,9.781,56.969,32.294,74.942c1.701,1.099,0.225,3.928-1.648,3.167c-57.569-24.275-68.931-124.729-29.054-169.528
						c19.847-23.564,54.179-25.281,75.943-3.4c18.216,17.123,26.868,42.153,29.252,65.854c1.295,15.603,0.328,31.3-4.188,45.936
						C3196.977,2415.015,3194.008,2414.58,3194.008,2412.59L3194.008,2412.59z"/>
				</g>
				<g>
					<path style="fill:#F78C0D;" d="M3193.206,2148.993c-10.677-0.708-16.974-6.109-20.637-13.096
						c-0.314-1.979-0.546-3.992-0.7-6.066c-2.039-27.439,10.248-50.74,27.479-52.02c4.978-0.37,9.819,1.134,14.241,4.142
						C3220.265,2105.542,3217.55,2150.606,3193.206,2148.993z"/>
				</g>
				<g>
					<path style="fill:#640000;" d="M3232.289,2141.335c-1.411-15.424-5.667-31.094-14.681-43.16
						c-15.344-20.565-29.859-8.096-34.99,12.157c-4.91,21.029-3.186,47.233,13.328,63.163c1.164,0.953,0.032,2.959-1.376,2.481
						c-34.505-13.114-41.444-69.869-18.194-96.475c28.921-29.96,61.817,3.563,62.342,36.378
						C3239.64,2118.669,3236.942,2149.317,3232.289,2141.335L3232.289,2141.335z"/>
				</g>
				<g>
					<path style="fill:#F78C0D;" d="M3167.135,2670.043c-10.677-0.709-16.974-6.109-20.636-13.096
						c-0.314-1.979-0.546-3.992-0.7-6.066c-2.039-27.439,10.247-50.74,27.479-52.021c4.978-0.37,9.819,1.134,14.241,4.143
						C3194.194,2626.592,3191.48,2671.656,3167.135,2670.043z"/>
				</g>
				<g>
					<path style="fill:#640000;" d="M3206.218,2662.385c-1.411-15.425-5.667-31.094-14.681-43.16
						c-15.346-20.564-29.858-8.096-34.99,12.157c-4.91,21.029-3.187,47.233,13.328,63.163c1.165,0.954,0.032,2.958-1.376,2.481
						c-34.506-13.115-41.444-69.866-18.194-96.475c28.922-29.961,61.819,3.564,62.343,36.379
						C3213.57,2639.719,3210.871,2670.368,3206.218,2662.385L3206.218,2662.385z"/>
				</g>
				<g style="opacity:0.58;">
					<g>
						<path style="fill:#FFFFFF;" d="M2546.014,1911.192c48.268,31.968-129.931,68.277-274.706,103.946L2546.014,1911.192z"/>
					</g>
				</g>
				<g style="opacity:0.58;">
					<g>
						<path style="fill:#FFFFFF;" d="M2691.854,2073.811c1.09,74.732-59.142,108.243-167.39,109.478
							C2676.12,2207.872,2744.4,2144.72,2691.854,2073.811z"/>
					</g>
				</g>
				<g style="opacity:0.58;">
					<g>
						<path style="fill:#FFFFFF;" d="M2727.523,1931.518c0,0,91.735-30.186,131.367-119.152l144.663-40.583
							c0,0-69.041,34.467-132.288,56.569C2871.266,1828.352,2875.895,1927.455,2727.523,1931.518z"/>
					</g>
				</g>
			</g>
		</g>
	</g>
</g>
</svg>
