<?xml version="1.0" encoding="utf-8"?>
<!-- Generator: Adobe Illustrator 27.5.0, SVG Export Plug-In . SVG Version: 6.00 Build 0)  -->
<svg version="1.1" id="Layer_1" xmlns="http://www.w3.org/2000/svg" xmlns:xlink="http://www.w3.org/1999/xlink" x="0px" y="0px"
	 viewBox="0 0 4000 4000" style="enable-background:new 0 0 4000 4000;" xml:space="preserve">
<g>
	<g>
		<g>
			<g>
				<!-- <rect style="fill:#67E9FF;" width="4000" height="4000"/> -->
			</g>
		</g>
	</g>
	<g>
		<g style="opacity:0.3;">
			<g>
				<g>
					<ellipse style="fill:#000072;" cx="2000" cy="3509.822" rx="823.346" ry="85.209"/>
				</g>
			</g>
		</g>
		<g>
			<g>
				<g>
					<g>
						<path style="fill:#C9CCD2;" d="M2676.83,1924.766h-84.255v-156.165h84.255c21.534,0,38.991,17.457,38.991,38.991v78.182
							C2715.821,1907.309,2698.364,1924.766,2676.83,1924.766z"/>
					</g>
				</g>
				<g>
					<g>
						<path style="fill:#000072;" d="M2676.829,1944.643h-84.254c-10.976,0-19.876-8.9-19.876-19.876v-156.165
							c0-10.976,8.899-19.876,19.876-19.876h84.254c32.458,0,58.865,26.407,58.865,58.865v78.183
							C2735.695,1918.236,2709.288,1944.643,2676.829,1944.643z M2612.451,1904.891h64.378c10.54,0,19.114-8.577,19.114-19.116
							v-78.183c0-10.54-8.574-19.114-19.114-19.114h-64.378V1904.891z"/>
					</g>
				</g>
			</g>
			<g style="opacity:0.35;">
				<g>
					<g>
						<path style="fill:#000072;" d="M2630.292,1924.766h-90.544v-156.165h90.544c21.534,0,38.991,17.457,38.991,38.991v78.182
							C2669.283,1907.309,2651.826,1924.766,2630.292,1924.766z"/>
					</g>
				</g>
			</g>
			<g>
				<g>
					<g>
						<g>
							<path style="fill:#C9CCD2;" d="M2536.713,1557.178c0,0-111.69-244.465-145.601-382.709
								c-7.223-29.448-30.473-49.896-57.175-49.896H2306h-306.757h-306.757h-27.936c-26.702,0-49.952,20.448-57.175,49.896
								c-33.91,138.245-145.601,382.709-145.601,382.709l230.712-178.653v-178.652h306.757H2306v178.652L2536.713,1557.178z"/>
						</g>
					</g>
					<g>
						<g>
							<path style="fill:#000072;" d="M2543.163,1565.312l-239.645-185.569v-177.385h-608.545v177.385l-239.65,185.569l4.188-9.169
								c1.116-2.441,111.986-245.832,145.453-382.267c7.478-30.493,31.978-51.788,59.584-51.788h669.391
								c27.606,0,52.106,21.295,59.584,51.788c33.472,136.44,144.337,379.826,145.453,382.267L2543.163,1565.312z
								 M2308.487,1377.307l221.855,171.792c-20.511-45.701-111.758-252.215-141.644-374.039
								c-6.929-28.263-29.45-48.003-54.76-48.003h-669.391c-25.311,0-47.831,19.74-54.76,48.003
								c-29.882,121.824-121.133,328.339-141.644,374.039l221.86-171.792v-179.918h618.483V1377.307z"/>
						</g>
					</g>
				</g>
				<g>
					<defs>
						<path id="SVGID_1_" d="M2536.713,1557.178c0,0-111.69-244.465-145.601-382.709c-7.223-29.448-30.473-49.896-57.175-49.896
							H2306h-306.757h-306.757h-27.936c-26.702,0-49.952,20.448-57.175,49.896c-33.91,138.245-145.601,382.709-145.601,382.709
							l230.712-178.653v-178.652h306.757H2306v178.652L2536.713,1557.178z"/>
					</defs>
					<clipPath id="SVGID_00000030460832294149701770000012195679776915318691_">
						<use xlink:href="#SVGID_1_"  style="overflow:visible;"/>
					</clipPath>
					<g style="opacity:0.3;clip-path:url(#SVGID_00000030460832294149701770000012195679776915318691_);">
						<g>
							<g>
								<g>
									<path style="fill:#000072;" d="M2614.79,1570.072c0,232.709-275.59,421.356-615.547,421.356
										s-615.547-188.648-615.547-421.356s256.366-338.343,596.323-338.343S2614.79,1337.363,2614.79,1570.072z"/>
								</g>
							</g>
						</g>
					</g>
				</g>
				<g>
					<g>
						<g>
							<path style="fill:#000072;" d="M1461.772,1579.537c-4.911,0-9.821-1.614-13.888-4.838
								c-8.065-6.391-10.724-17.457-6.449-26.815c1.106-2.426,111.209-244.15,144.225-378.741c9.661-39.407,42.1-66.93,78.887-66.93
								h669.391c36.787,0,69.226,27.523,78.887,66.93c33.021,134.591,143.119,376.315,144.226,378.741
								c4.275,9.358,1.616,20.427-6.449,26.815c-8.07,6.393-19.449,6.454-27.577,0.158l-230.711-178.651
								c-5.469-4.236-8.671-10.763-8.671-17.68v-156.291h-568.794v156.291c0,6.917-3.203,13.444-8.671,17.68l-230.716,178.651
								C1471.429,1577.977,1466.6,1579.537,1461.772,1579.537z M1664.548,1146.933c-16.13,0-30.711,13.512-35.457,32.861
								c-22.059,89.946-75.383,221.608-111.403,305.803l152.441-118.039v-167.685c0-12.349,10.011-22.36,22.36-22.36h613.514
								c12.35,0,22.36,10.011,22.36,22.36v167.685l152.436,118.039c-36.015-84.195-89.339-215.858-111.403-305.801
								c-4.746-19.352-19.328-32.864-35.457-32.864H1664.548z"/>
						</g>
					</g>
				</g>
			</g>
			<g>
				<g>
					<g>
						<g>
							<path style="fill:#C9CCD2;" d="M2536.713,2167.888c0,0-111.69,244.465-145.601,382.709
								c-7.223,29.448-30.473,49.896-57.175,49.896H2306h-306.757h-306.757h-27.936c-26.702,0-49.952-20.448-57.175-49.896
								c-33.91-138.245-145.601-382.709-145.601-382.709l230.712,178.653v178.652h306.757H2306v-178.652L2536.713,2167.888z"/>
						</g>
					</g>
					<g>
						<g>
							<path style="fill:#000072;" d="M2333.938,2602.977h-669.391c-27.606,0-52.106-21.295-59.584-51.788
								c-33.468-136.435-144.337-379.826-145.453-382.267l-4.188-9.169l239.65,185.569v177.385h608.545v-177.385l239.645-185.569
								l-4.188,9.169c-1.116,2.441-111.981,245.832-145.453,382.267C2386.044,2581.682,2361.544,2602.977,2333.938,2602.977z
								 M1468.143,2175.966c20.511,45.701,111.762,252.215,141.644,374.039c6.929,28.263,29.45,48.003,54.76,48.003h669.391
								c25.311,0,47.831-19.74,54.76-48.003c29.886-121.824,121.133-328.339,141.644-374.039l-221.855,171.793v179.918h-618.483
								v-179.918L1468.143,2175.966z"/>
						</g>
					</g>
				</g>
				<g>
					<defs>
						<path id="SVGID_00000093142210497997813160000005831396563939058058_" d="M2536.713,2167.888
							c0,0-111.69,244.465-145.601,382.709c-7.223,29.448-30.473,49.896-57.175,49.896H2306h-306.757h-306.757h-27.936
							c-26.702,0-49.952-20.448-57.175-49.896c-33.91-138.245-145.601-382.709-145.601-382.709l230.712,178.653v178.652h306.757
							H2306v-178.652L2536.713,2167.888z"/>
					</defs>
					<clipPath id="SVGID_00000152955672329483490630000009248309773504321682_">
						<use xlink:href="#SVGID_00000093142210497997813160000005831396563939058058_"  style="overflow:visible;"/>
					</clipPath>
					<g style="opacity:0.3;clip-path:url(#SVGID_00000152955672329483490630000009248309773504321682_);">
						<g>
							<g>
								<ellipse style="fill:#000072;" cx="1951.51" cy="2107.799" rx="796.594" ry="396.436"/>
							</g>
						</g>
					</g>
				</g>
				<g>
					<g>
						<g>
							<path style="fill:#000072;" d="M2333.938,2622.853h-669.391c-36.787,0-69.226-27.523-78.887-66.93
								c-33.016-134.591-143.119-376.315-144.225-378.741c-4.275-9.358-1.616-20.424,6.449-26.815
								c8.06-6.398,19.439-6.459,27.577-0.158l230.716,178.651c5.469,4.236,8.671,10.763,8.671,17.68v156.291h568.794V2346.54
								c0-6.917,3.203-13.444,8.671-17.68l230.711-178.651c8.138-6.291,19.512-6.236,27.577,0.158
								c8.065,6.388,10.724,17.457,6.449,26.815c-1.106,2.426-111.205,244.15-144.226,378.744
								C2403.164,2595.33,2370.725,2622.853,2333.938,2622.853z M1517.687,2239.468c36.02,84.195,89.344,215.858,111.403,305.803
								c4.746,19.349,19.328,32.861,35.457,32.861h669.391c16.13,0,30.711-13.512,35.457-32.861
								c22.064-89.946,75.388-221.608,111.403-305.803l-152.436,118.039v167.685c0,12.35-10.011,22.36-22.36,22.36h-613.514
								c-12.35,0-22.36-10.011-22.36-22.36v-167.685L1517.687,2239.468z"/>
						</g>
					</g>
				</g>
			</g>
			<g>
				<g>
					<g>
						<g>
							<circle style="fill:#C9CCD2;" cx="1999.243" cy="1862.533" r="615.547"/>
						</g>
					</g>
					<g>
						<g>
							<path style="fill:#000072;" d="M1999.243,2480.563c-340.785,0-618.032-277.247-618.032-618.029
								s277.247-618.032,618.032-618.032s618.032,277.249,618.032,618.032S2340.028,2480.563,1999.243,2480.563z M1999.243,1249.471
								c-338.044,0-613.063,275.019-613.063,613.063s275.019,613.06,613.063,613.06s613.063-275.017,613.063-613.06
								S2337.287,1249.471,1999.243,1249.471z"/>
						</g>
					</g>
				</g>
			</g>
			<g style="opacity:0.6;">
				<g>
					<g>
						<path style="fill:#FFFFFF;" d="M1781.37,1278.5c-14.152,5.674-27.857,11.972-41.345,18.554
							c304.53-97.092,636.856,56.034,757.69,357.424c120.833,301.39-13.673,641.678-300.933,781.847
							c14.299-4.559,28.56-9.472,42.711-15.146c315.542-126.507,468.785-484.859,342.278-800.401
							C2455.264,1305.235,2096.913,1151.992,1781.37,1278.5z"/>
					</g>
				</g>
			</g>
			<g>
				<g style="opacity:0.3;">
					<g>
						<g>
							<path style="fill:#000072;" d="M1501.511,1514.643c18.738-27.289,39.609-53,62.386-76.877
								c-84.656,105.429-135.353,239.284-135.353,385.016c0,339.957,275.592,615.547,615.55,615.547
								c174.942,0,332.822-72.989,444.888-190.168c35.363-43.932,64.885-92.763,87.221-145.404
								c-111.277,110.55-264.543,178.889-433.79,178.889c-339.958,0-615.547-275.589-615.547-615.547
								c0-85.233,17.338-166.412,48.656-240.224C1548.18,1453.039,1523.396,1482.768,1501.511,1514.643z"/>
						</g>
					</g>
				</g>
			</g>
			<g>
				<g>
					<g>
						<g>
							<path style="fill:#000072;" d="M1999.243,2505.408c-354.484,0-642.877-288.393-642.877-642.874
								c0-354.484,288.393-642.877,642.877-642.877s642.877,288.393,642.877,642.877
								C2642.12,2217.015,2353.727,2505.408,1999.243,2505.408z M1999.243,1274.316c-324.345,0-588.218,263.873-588.218,588.218
								c0,324.342,263.873,588.216,588.218,588.216s588.218-263.873,588.218-588.216
								C2587.461,1538.189,2323.588,1274.316,1999.243,1274.316z"/>
						</g>
					</g>
				</g>
			</g>
			<g>
				<g>
					<g>
						<circle style="fill:#6E7A94;" cx="1999.243" cy="1862.533" r="472.352"/>
					</g>
				</g>
				<g>
					<g>
						<path style="fill:#000072;" d="M1999.243,2337.369c-261.826,0-474.835-213.009-474.835-474.835
							s213.01-474.838,474.835-474.838s474.835,213.012,474.835,474.838S2261.069,2337.369,1999.243,2337.369z M1999.243,1392.666
							c-259.084,0-469.866,210.782-469.866,469.869c0,259.084,210.782,469.866,469.866,469.866s469.866-210.782,469.866-469.866
							C2469.109,1603.448,2258.327,1392.666,1999.243,1392.666z"/>
					</g>
				</g>
			</g>
			<g>
				<g>
					<g>
						<circle style="fill:#FFFFFF;" cx="1999.243" cy="1862.533" r="472.352"/>
					</g>
				</g>
			</g>
			<g style="opacity:0.3;">
				<g>
					<g>
						<path style="fill:#000072;" d="M1999.244,1390.181c-260.873,0-472.352,211.48-472.352,472.352
							s211.479,472.352,472.352,472.352c260.873,0,472.352-211.479,472.352-472.352S2260.116,1390.181,1999.244,1390.181z
							 M2007.88,2264.707c-223.21,0-404.157-180.948-404.157-404.157c0-223.21,180.947-404.157,404.157-404.157
							c223.209,0,404.157,180.947,404.157,404.157C2412.037,2083.759,2231.089,2264.707,2007.88,2264.707z"/>
					</g>
				</g>
			</g>
			<g>
				<g>
					<g>
						<path style="fill:#000072;" d="M1999.243,2357.245c-272.782,0-494.711-221.926-494.711-494.711
							s221.928-494.713,494.711-494.713s494.711,221.928,494.711,494.713S2272.025,2357.245,1999.243,2357.245z M1999.243,1412.541
							c-248.127,0-449.99,201.866-449.99,449.993c0,248.124,201.863,449.99,449.99,449.99s449.99-201.866,449.99-449.99
							C2449.233,1614.407,2247.37,1412.541,1999.243,1412.541z"/>
					</g>
				</g>
			</g>
			<g>
				<g>
					<g>
						<g>
							<path style="fill:#000072;" d="M1999.243,1503.887c-8.235,0-14.907-6.675-14.907-14.907v-98.799
								c0-8.232,6.672-14.907,14.907-14.907c8.235,0,14.907,6.675,14.907,14.907v98.799
								C2014.15,1497.212,2007.478,1503.887,1999.243,1503.887z"/>
						</g>
					</g>
				</g>
				<g>
					<g>
						<g>
							<path style="fill:#000072;" d="M2180.498,1550.818c-2.446,0-4.925-0.604-7.22-1.875c-7.196-3.994-9.792-13.068-5.799-20.266
								l47.943-86.386c3.994-7.199,13.058-9.797,20.269-5.801c7.196,3.994,9.792,13.068,5.799,20.266l-47.943,86.386
								C2190.824,1548.049,2185.739,1550.818,2180.498,1550.818z"/>
						</g>
					</g>
				</g>
				<g>
					<g>
						<g>
							<path style="fill:#000072;" d="M2319.541,1685.19c-5.066,0-10.001-2.579-12.796-7.237
								c-4.236-7.058-1.951-16.217,5.109-20.453l84.71-50.847c7.06-4.241,16.217-1.951,20.453,5.11
								c4.236,7.058,1.951,16.217-5.11,20.453l-84.71,50.847C2324.796,1684.504,2322.152,1685.19,2319.541,1685.19z"/>
						</g>
					</g>
				</g>
				<g>
					<g>
						<g>
							<path style="fill:#000072;" d="M2471.594,1877.441h-98.796c-8.235,0-14.907-6.675-14.907-14.907
								c0-8.232,6.672-14.907,14.907-14.907h98.796c8.235,0,14.907,6.675,14.907,14.907
								C2486.5,1870.766,2479.828,1877.441,2471.594,1877.441z"/>
						</g>
					</g>
				</g>
				<g>
					<g>
						<g>
							<path style="fill:#000072;" d="M2406.594,2116.542c-2.562,0-5.158-0.662-7.531-2.052l-85.205-50.01
								c-7.099-4.168-9.477-13.303-5.309-20.402c4.168-7.094,13.291-9.477,20.4-5.311l85.205,50.01
								c7.099,4.168,9.477,13.303,5.309,20.402C2416.688,2113.907,2411.709,2116.542,2406.594,2116.542z"/>
						</g>
					</g>
				</g>
				<g>
					<g>
						<g>
							<path style="fill:#000072;" d="M2231.594,2288.703c-5.202,0-10.253-2.725-12.995-7.577l-48.598-86.02
								c-4.047-7.167-1.519-16.26,5.648-20.31c7.157-4.054,16.256-1.524,20.313,5.646l48.598,86.02
								c4.047,7.167,1.519,16.26-5.648,20.31C2236.597,2288.082,2234.079,2288.703,2231.594,2288.703z"/>
						</g>
					</g>
				</g>
				<g>
					<g>
						<g>
							<path style="fill:#000072;" d="M1999.243,2349.791c-8.235,0-14.907-6.675-14.907-14.907v-98.799
								c0-8.232,6.672-14.907,14.907-14.907c8.235,0,14.907,6.675,14.907,14.907v98.799
								C2014.15,2343.117,2007.478,2349.791,1999.243,2349.791z"/>
						</g>
					</g>
				</g>
				<g>
					<g>
						<g>
							<path style="fill:#000072;" d="M1751.495,2279.617c-2.669,0-5.367-0.716-7.803-2.218c-7.012-4.316-9.191-13.5-4.877-20.509
								l51.815-84.12c4.323-7.014,13.509-9.188,20.511-4.874c7.012,4.316,9.191,13.5,4.877,20.509l-51.815,84.12
								C1761.384,2277.099,1756.498,2279.617,1751.495,2279.617z"/>
						</g>
					</g>
				</g>
				<g>
					<g>
						<g>
							<path style="fill:#000072;" d="M1587.937,2109.673c-5.202,0-10.253-2.727-12.995-7.58c-4.047-7.169-1.519-16.263,5.653-20.31
								l86.035-48.573c7.172-4.052,16.261-1.516,20.308,5.651c4.047,7.17,1.519,16.263-5.653,20.31l-86.035,48.573
								C1592.935,2109.052,1590.416,2109.673,1587.937,2109.673z"/>
						</g>
					</g>
				</g>
				<g>
					<g>
						<g>
							<path style="fill:#000072;" d="M1625.689,1877.441h-98.797c-8.235,0-14.907-6.675-14.907-14.907
								c0-8.232,6.672-14.907,14.907-14.907h98.797c8.235,0,14.907,6.675,14.907,14.907
								C1640.596,1870.766,1633.924,1877.441,1625.689,1877.441z"/>
						</g>
					</g>
				</g>
				<g>
					<g>
						<g>
							<path style="fill:#000072;" d="M1674.122,1693.469c-2.484,0-5.008-0.624-7.327-1.936l-85.986-48.658
								c-7.167-4.054-9.685-13.15-5.634-20.315c4.052-7.162,13.15-9.69,20.317-5.631l85.986,48.658
								c7.167,4.054,9.685,13.15,5.634,20.315C1684.37,1690.746,1679.319,1693.469,1674.122,1693.469z"/>
						</g>
					</g>
				</g>
				<g>
					<g>
						<g>
							<path style="fill:#000072;" d="M1808.526,1556.252c-5.09,0-10.045-2.606-12.83-7.298l-50.446-84.95
								c-4.207-7.077-1.873-16.224,5.202-20.429c7.085-4.202,16.227-1.868,20.429,5.207l50.446,84.95
								c4.207,7.077,1.873,16.224-5.202,20.429C1813.737,1555.578,1811.112,1556.252,1808.526,1556.252z"/>
						</g>
					</g>
				</g>
			</g>
			<g>
				<g>
					<g>
						<path style="fill:#000072;" d="M1999.243,1933.509c-39.135,0-70.972-31.839-70.972-70.975
							c0-39.135,31.837-70.977,70.972-70.977c39.135,0,70.973,31.842,70.973,70.977
							C2070.216,1901.669,2038.378,1933.509,1999.243,1933.509z M1999.243,1831.808c-16.94,0-30.726,13.784-30.726,30.726
							c0,16.942,13.786,30.726,30.726,30.726c16.94,0,30.726-13.783,30.726-30.726
							C2029.969,1845.592,2016.183,1831.808,1999.243,1831.808z"/>
					</g>
				</g>
			</g>
			<g>
				<g>
					<g>
						<g>
							<polygon style="fill:#FFFFFF;" points="1802.634,1675.942 2008.121,1923.574 2076.075,1949.383 2050.266,1881.43 							"/>
						</g>
					</g>
					<g>
						<g>
							<path style="fill:#000072;" d="M2076.067,1964.291c-1.776,0-3.566-0.318-5.289-0.971l-67.949-25.81
								c-2.407-0.915-4.532-2.436-6.177-4.418l-205.488-247.632c-4.916-5.922-4.513-14.616,0.932-20.058
								c5.44-5.44,14.135-5.85,20.06-0.932l247.632,205.488c1.98,1.643,3.503,3.773,4.416,6.18l25.806,67.954
								c2.082,5.486,0.752,11.682-3.397,15.834C2083.764,1962.772,2079.954,1964.291,2076.067,1964.291z M2017.086,1911.032
								l33.278,12.641l-12.641-33.281l-121.268-100.631L2017.086,1911.032z"/>
						</g>
					</g>
				</g>
				<g>
					<g>
						<g>
							<polygon style="fill:#EAEBED;" points="2289.502,1557.178 1960.001,1866.45 1922.198,1958.266 2010.343,1912.551 							"/>
						</g>
					</g>
					<g>
						<g>
							<path style="fill:#000072;" d="M1922.205,1973.173c-3.649,0-7.259-1.337-10.074-3.913c-4.615-4.224-6.1-10.882-3.717-16.668
								l37.801-91.816c0.81-1.968,2.033-3.739,3.586-5.194l329.503-309.273c5.677-5.338,14.514-5.386,20.269-0.124
								c5.75,5.265,6.468,14.072,1.655,20.201l-279.164,355.374c-1.315,1.674-2.97,3.045-4.862,4.025l-88.141,45.715
								C1926.892,1972.625,1924.539,1973.173,1922.205,1973.173z M1972.554,1875.109l-21.065,51.174l49.122-25.48l155.59-198.061
								L1972.554,1875.109z"/>
						</g>
					</g>
				</g>
				<g>
					<g>
						<g>
							<path style="fill:#EAEBED;" d="M2002.941,1873.308c0,1.625-1.317,2.941-2.941,2.941s-2.941-1.317-2.941-2.941
								c0-1.624,1.317-2.941,2.941-2.941S2002.941,1871.684,2002.941,1873.308z"/>
						</g>
					</g>
					<g>
						<g>
							<path style="fill:#000072;" d="M2000,1881.281c-4.396,0-7.973-3.576-7.973-7.973s3.576-7.975,7.973-7.975
								s7.973,3.579,7.973,7.975S2004.396,1881.281,2000,1881.281z M2000,1871.218c-1.155,0-2.091,0.939-2.091,2.091
								c0,1.152,0.937,2.089,2.091,2.089s2.091-0.937,2.091-2.089C2002.091,1872.156,2001.155,1871.218,2000,1871.218z"/>
						</g>
					</g>
				</g>
			</g>
			<g>
				<g>
					<g>
						<path style="fill:#FF0031;" d="M1999.243,2504.235h-269.612c-18.587,0-32.404,17.173-28.364,35.315
							c14.863,66.75,43.457,228.229,44.262,485.336c0.025,8.136,3.365,15.997,9.438,21.412
							c21.152,18.86,83.773,57.007,244.277,57.007s223.125-38.146,244.277-57.007c6.073-5.415,9.412-13.276,9.438-21.412
							c0.804-257.107,29.398-418.586,44.261-485.336c4.04-18.143-9.777-35.315-28.364-35.315H1999.243z"/>
					</g>
				</g>
			</g>
			<g style="opacity:0.6;">
				<g>
					<g>
						<path style="fill:#FFFFFF;" d="M2260.433,2504.235h-60.374c18.587,0,32.404,17.173,28.364,35.316
							c-14.863,66.75-43.457,228.229-44.261,485.336c-0.026,8.136-3.365,15.998-9.438,21.412
							c-19.771,17.628-75.795,52.098-214.09,56.526c9.663,0.31,19.704,0.48,30.187,0.48c160.503,0,223.124-38.147,244.277-57.007
							c6.073-5.415,9.412-13.276,9.438-21.412c0.804-257.107,29.398-418.586,44.261-485.336
							C2292.837,2521.408,2279.02,2504.235,2260.433,2504.235z"/>
					</g>
				</g>
			</g>
			<g style="opacity:0.3;">
				<g>
					<g>
						<path style="fill:#000072;" d="M2073.934,3052.124c-125.458,0-174.387-29.825-190.903-44.56
							c-4.771-4.256-7.342-10.504-7.363-16.897c-0.248-77.633-3.738-144.104-8.598-199.453
							c-9.785-111.453,78.119-207.234,190.001-207.234h16.863h195.114c3.255-17.718,6.322-32.632,8.949-44.428
							c4.04-18.143-9.777-35.316-28.364-35.316H1980.02l-269.613,0c-18.576,0-32.415,17.127-28.377,35.258
							c14.856,66.698,43.456,228.132,44.274,485.201c0.026,8.176,3.318,16.143,9.418,21.586
							c21.133,18.854,83.743,57.025,244.297,57.025c160.503,0,223.125-38.147,244.277-57.007c5.625-5.016,8.779-12.152,9.251-19.64
							C2204.55,3039.524,2155.473,3052.124,2073.934,3052.124z"/>
					</g>
				</g>
			</g>
			<g>
				<g>
					<g>
						<path style="fill:#000072;" d="M1999.243,3130.636c-222.254,0-272.156-72.314-277.116-80.561
							c-2.562-4.253-3.911-9.123-3.911-14.084c0-255.437-27.188-416.304-43.396-489.463c-3.771-17.042,0.325-34.613,11.243-48.214
							c10.923-13.604,27.198-21.407,44.657-21.407h537.044c17.459,0,33.735,7.803,44.657,21.407
							c10.918,13.602,15.013,31.172,11.243,48.212c-16.207,73.183-43.396,234.084-43.396,489.465c0,4.961-1.349,9.831-3.911,14.084
							C2271.399,3058.322,2221.497,3130.636,1999.243,3130.636z M1772.86,3025.568c14.81,13.24,70.317,50.41,226.383,50.41
							c156.386,0,212.306-37.784,226.383-50.184c0.718-254.7,28.203-416.712,44.672-491.084c0.068-0.303,0.272-1.218-0.5-2.179
							c-0.776-0.966-1.723-0.966-2.033-0.966h-537.044c-0.311,0-1.257,0-2.033,0.966c-0.772,0.961-0.568,1.875-0.5,2.179
							C1744.653,2609.038,1772.127,2770.924,1772.86,3025.568z M2252.941,3035.991h0.048H2252.941z"/>
					</g>
				</g>
			</g>
			<g>
				<g>
					<g>
						<path style="fill:#FF0031;" d="M1999.243,1217.003h-277.159c-14.826,0-25.758-13.791-22.422-28.238
							c14.341-62.11,45.234-226.785,45.874-495.037c0.015-6.2,2.478-12.169,6.937-16.477c18.463-17.836,79.394-59.319,246.77-59.319
							s228.308,41.483,246.771,59.319c4.459,4.308,6.922,10.276,6.937,16.477c0.64,268.252,31.532,432.927,45.873,495.037
							c3.336,14.446-7.596,28.238-22.422,28.238H1999.243z"/>
					</g>
				</g>
			</g>
			<g style="opacity:0.6;">
				<g>
					<g>
						<path style="fill:#FFFFFF;" d="M2280.67,1188.765c-14.342-62.11-45.233-226.785-45.873-495.037
							c-0.015-6.2-2.478-12.169-6.938-16.476c-18.463-17.836-79.395-59.319-246.771-59.319
							c-166.904,0-227.952,41.243-246.602,59.162c37.941-15.209,99.172-29.179,196.291-29.179
							c167.376,0,228.308,41.483,246.771,59.319c4.459,4.308,6.923,10.277,6.938,16.476
							c0.634,265.863,30.974,429.923,45.477,493.292h28.286C2273.074,1217.002,2284.006,1203.212,2280.67,1188.765z"/>
					</g>
				</g>
			</g>
			<g>
				<g>
					<g>
						<path style="fill:#000072;" d="M2264.368,1244.332h-530.245c-18.26,0-35.297-8.152-46.749-22.365
							c-11.428-14.189-15.756-32.533-11.879-50.335c15.955-73.142,42.721-233.582,42.721-486.386c0-4.964,1.354-9.831,3.911-14.084
							c4.959-8.247,54.862-80.558,277.116-80.558s272.156,72.312,277.116,80.558c2.557,4.253,3.911,9.12,3.911,14.084
							c0,252.805,26.766,413.245,42.721,486.381c3.882,17.799-0.447,36.146-11.874,50.337
							C2299.67,1236.18,2282.628,1244.332,2264.368,1244.332z M1772.86,695.672c-0.728,251.946-27.761,413.34-43.959,487.607
							c-0.442,2.021,0.32,3.508,1.038,4.401c0.733,0.91,2.057,1.995,4.183,1.995h530.245c2.125,0,3.445-1.085,4.178-1.992
							c0.718-0.893,1.48-2.38,1.039-4.404c-16.198-74.267-43.231-235.661-43.959-487.607c-14.81-13.242-70.317-50.41-226.383-50.41
							S1787.67,682.429,1772.86,695.672z"/>
					</g>
				</g>
			</g>
			<g style="opacity:0.3;">
				<g>
					<g>
						<path style="fill:#000072;" d="M1699.662,1188.765c14.341-62.11,45.233-226.785,45.873-495.037
							c0.015-6.2,2.478-12.169,6.937-16.476c18.463-17.836,79.395-59.319,246.771-59.319c158.405,0,221.443,37.143,243.399,56.245
							c-123.184-12.402-257.175-28.792-334.735,44.378c-88.883,83.852-165.644,504.257,379.743,415.384
							c4.184,23.088,8.069,41.373,11.175,54.826c3.336,14.446-7.596,28.237-22.422,28.237h-277.159h-277.159
							C1707.258,1217.002,1696.326,1203.212,1699.662,1188.765z"/>
					</g>
				</g>
			</g>
		</g>
	</g>
</g>
</svg>
