<?xml version="1.0" encoding="utf-8"?>
<!-- Generator: Adobe Illustrator 27.5.0, SVG Export Plug-In . SVG Version: 6.00 Build 0)  -->
<svg version="1.1" id="Layer_1" xmlns="http://www.w3.org/2000/svg" xmlns:xlink="http://www.w3.org/1999/xlink" x="0px" y="0px"
	 viewBox="0 0 4000 4000" style="enable-background:new 0 0 4000 4000;" xml:space="preserve">
<g>
	<!-- <rect style="fill:#37DBFF;" width="4000" height="4000"/> -->
	<g>
		<path style="fill:#FFFFFF;" d="M3639.362,3025.142c-12.361,0-24.296,1.811-35.538,5.115
			c-25.728-36.486-61.198-65.143-102.474-81.823c3.186-15.994,4.886-32.524,4.886-49.455c0-139.041-112.714-251.755-251.755-251.755
			c-100.963,0-187.998,59.459-228.122,145.247c-0.018-0.003-0.035-0.007-0.053-0.009c-14.333-2.238-28.985-3.41-43.904-3.41
			c-161.816,0-292.995,135.868-292.995,303.438c0,26.96,3.41,53.122,9.75,77.95h816.165h132.512h115.62
			c1.012-6.393,1.545-13,1.545-19.714C3765,3081.354,3708.735,3025.142,3639.362,3025.142z"/>
		<g>
			<g>
				<path style="fill:#FF8643;" d="M3227.204,2235.516c-0.664,0.133-1.374,0.266-2.038,0.399
					c-38.725,7.444-76.21,20.381-111.346,37.927c-84.141,41.871-154.59,110.017-194.645,191.942
					c-57.157,116.796-51.22,258.448,8.463,360.8c-116.84-24.369-245.067,0.177-344.937,65.93
					c-99.87,65.709-169.744,171.738-204.082,283.792c-109.131-93.224-253.707-148.387-401.873-153.305
					c-148.121-4.874-298.724,40.586-442.991,139.57c-21.534-107.447-86.356-205.677-178.339-270.146
					c-91.983-64.512-210.241-94.775-351.273-116.619c72.266-96.901,86.622-229.515,36.2-335.81
					c-50.378-106.25-163.585-182.105-285.609-200.405c26.407-16.261,50.954-35.18,73.285-56.227
					c84.761-79.799,137.931-190.17,142.273-302.49c4.697-121.005-47.321-241.301-135.449-324.068
					c-15.286-14.356-31.68-27.559-49.005-39.478c146.039,14.71,299.743-41.472,399.879-146.261
					c100.18-104.744,144.267-255.302,116.796-378.257c133.146,83.432,302.668,118.258,452.606,70.361
					c149.894-47.941,248.258-153.926,268.373-324.467c20.692,145.551,147.989,264.075,296.952,301.604
					c148.963,37.485,313.301,1.418,464.258-81.526c-72.753,130.221-61.278,297.661,28.402,414.324
					c89.679,116.751,216.932,176.7,390.663,143.38c-120.208,84.849-160.661,223.932-165.18,364.831
					C3034.11,2022.218,3101.768,2162.054,3227.204,2235.516z"/>
			</g>
			<g style="opacity:0.2;">
				<path style="fill:#000072;" d="M2919.175,2465.785c-57.157,116.796-51.22,258.448,8.463,360.8
					c-116.84-24.369-245.067,0.177-344.937,65.93c-99.87,65.709-169.744,171.738-204.082,283.792
					c-109.131-93.224-253.707-148.387-401.873-153.305c-148.121-4.874-298.724,40.586-442.991,139.57
					c-21.534-107.447-86.356-205.677-178.339-270.146c-91.983-64.512-210.241-94.775-351.273-116.619
					c72.266-96.901,86.622-229.515,36.2-335.81c-50.378-106.25-163.585-182.105-285.609-200.405
					c26.407-16.261,50.954-35.18,73.285-56.227c88.572,9.969,185.03,58.265,231.952,111.612
					c95.129,108.156,122.6,260.974,118.169,404.93c179.403,8.241,344.007,150.115,378.656,326.372
					c114.669-65.487,241.124-117.283,373.162-120.296c132.038-3.057,270.5,49.492,346.045,157.825
					c33.851-108.909,112.188-203.24,213.077-256.454c100.845-53.214,222.958-64.645,331.955-31.104
					c-71.336-133.013-13.514-308.738,102.307-405.551c55.518-46.39,120.872-77.45,190.48-96.857
					C3029.679,2315.714,2959.229,2383.859,2919.175,2465.785z"/>
			</g>
			<g style="opacity:0.6;">
				<path style="fill:#FFFFFF;" d="M3227.204,2235.516c-0.664,0.133-1.374,0.266-2.038,0.399
					c-101.199-40.453-188.043-117.859-235.497-216.178c-69.785-144.532-31.313-309.099,65.987-436.794
					c-117.017-5.317-250.486-83.337-321.29-176.65s-86.755-210.526-60.392-324.663c-197.392,111.612-482.146-17.527-641.832-178.498
					c-106.339,208.88-457.182,324.157-669.86,197.037c1.861,156.761-83.21,311.751-216.444,394.296
					c-91.806,56.936-204.259,78.071-310.997,62.341c-15.286-14.356-31.68-27.559-49.005-39.478
					c146.039,14.71,299.743-41.472,399.879-146.261c100.18-104.744,144.267-255.302,116.796-378.257
					c133.146,83.432,302.668,118.258,452.606,70.361c149.894-47.941,248.258-153.926,268.373-324.467
					c20.692,145.551,147.989,264.075,296.952,301.604c148.963,37.485,313.301,1.418,464.258-81.526
					c-72.753,130.221-61.278,297.661,28.402,414.324c89.679,116.751,216.932,176.7,390.663,143.38
					c-120.208,84.849-160.661,223.932-165.18,364.831C3034.11,2022.218,3101.768,2162.054,3227.204,2235.516z"/>
			</g>
			<g>
				<path style="fill:#FFD039;" d="M2869.373,2005.78c0,23.66-0.93,47.144-2.703,70.361
					c-35.889,465.854-425.268,832.679-900.337,832.679c-487.742,0-885.184-386.719-902.42-870.252
					c-0.443-10.9-0.62-21.8-0.62-32.788c0-68.722,7.665-135.671,22.243-200.006c91.008-402.493,450.789-703.034,880.798-703.034
					c454.91,0,831.217,336.341,893.869,773.927C2866.227,1918.847,2869.373,1961.959,2869.373,2005.78z"/>
			</g>
			<g style="opacity:0.2;">
				<path style="fill:#05015B;" d="M2869.373,2005.78c0,23.66-0.93,47.144-2.703,70.361c-39.921,10.634-84.318,4.431-116.087-21.667
					c-26.939-22.065-42.447-54.853-64.778-81.571c-22.375-26.718-58.487-48.384-90.964-35.845
					c-19.23,115.201-47.365,244.314-146.526,305.991c-51.574,32.079-114.492,39.833-175.194,41.295
					c-85.071,2.083-170.364-6.69-253.22-26.009c-56.404-13.115-112.941-31.813-158.755-67.304
					c-40.409-31.326-71.469-77.805-76.786-128.094c-2.481,71.735-59.151,136.291-125.968,166.288
					c-73.019,32.876-155.875,33.718-235.94,33.984c-74.26,0.31-152.242-0.354-217.065-36.51
					c-72.355-40.32-108.599-114.536-141.475-188.131c-0.443-10.9-0.62-21.8-0.62-32.788c0-68.722,7.665-135.671,22.243-200.006
					c23.04-15.862,49.802-28.977,76.52-39.7c126.41-50.6,261.904-102.13,395.315-74.836c64.557,13.248,130.797,44.662,193.36,23.97
					c40.365-13.292,71.114-46.39,109.618-64.379c68.589-32.123,149.052-12.229,221.939,8.197
					c259.29,72.532,518.624,145.109,777.915,217.641C2866.227,1918.847,2869.373,1961.959,2869.373,2005.78z"/>
			</g>
			<g style="opacity:0.6;">
				<path style="fill:#FFFFFF;" d="M2850.631,1823.718c-109.086-376.086-456.062-651.017-867.328-651.017
					c-95.218,0-187.024,14.755-273.203,42.093c18.919,5.627,32.123,15.596,36.554,29.509
					c11.476,35.934-40.187,84.495-115.378,108.421c-75.146,23.926-145.374,14.134-156.806-21.844
					c-0.133-0.355-0.222-0.709-0.31-1.063c-237.845,162.655-393.898,436.079-393.898,745.924c0,59.683,5.849,117.948,16.881,174.396
					c-23.217-80.02-35.712-164.56-35.712-252.068c0-498.73,404.31-903.04,903.04-903.04
					C2403.563,1095.03,2769.414,1408.42,2850.631,1823.718z"/>
			</g>
			<g style="opacity:0.2;">
				<path style="fill:#000072;" d="M2875.253,1993.209c0,498.73-404.31,903.041-903.04,903.041
					c-424.514,0-780.617-292.92-877.209-687.659c140.988,315.029,457.214,534.531,824.659,534.531
					c498.73,0,903.04-404.31,903.04-903.04c0-74.216-8.95-146.349-25.832-215.381
					C2847.25,1737.198,2875.253,1861.925,2875.253,1993.209z"/>
			</g>
			<g>
				<path style="fill:#000072;" d="M1966.325,2930.146c-509.69,0-924.352-414.663-924.352-924.353s414.662-924.353,924.352-924.353
					s924.355,414.663,924.355,924.353S2476.015,2930.146,1966.325,2930.146z M1966.325,1124.067
					c-486.185,0-881.727,395.539-881.727,881.726s395.542,881.726,881.727,881.726c486.187,0,881.729-395.54,881.729-881.726
					S2452.512,1124.067,1966.325,1124.067z"/>
			</g>
			<g>
				<path style="fill:#000072;" d="M2378.635,3197.619c-5.015,0-9.937-1.77-13.848-5.11
					c-104.734-89.48-246.418-143.496-388.728-148.196c-147.034-4.895-291.812,40.84-430.254,135.821
					c-5.903,4.053-13.447,4.868-20.08,2.173c-6.631-2.695-11.469-8.54-12.875-15.559
					c-20.431-101.975-82.271-195.608-169.663-256.892c-96.719-67.82-227.314-95.171-342.307-112.981
					c-7.389-1.145-13.636-6.077-16.466-12.998c-2.828-6.919-1.825-14.817,2.645-20.808c67.942-91.064,81.303-214.292,34.037-313.936
					c-45.93-96.833-151.722-170.808-269.517-188.459c-8.853-1.326-15.931-8.042-17.723-16.812s2.087-17.722,9.709-22.415
					c121.473-74.776,200.189-205.588,205.43-341.396c5.138-133.15-63.64-268.621-175.219-345.125
					c-8.03-5.505-11.309-15.754-7.964-24.897c3.344-9.145,12.452-14.839,22.147-13.887c139.972,14.07,286.488-39.497,382.372-139.79
					c92.872-97.136,137.627-241.357,111.368-358.872c-1.875-8.391,1.475-17.085,8.494-22.048c7.02-4.966,16.334-5.227,23.619-0.662
					c137.058,85.845,299.6,111.304,434.795,68.091c149.997-47.942,235.361-151.121,253.723-306.667
					c1.255-10.635,10.205-18.687,20.913-18.813c0.085,0,0.171-0.003,0.254-0.003c10.598,0,19.604,7.798,21.099,18.315
					c18.491,130.178,134.063,246.936,281.05,283.933c134.443,33.848,293.823,5.61,448.779-79.504
					c8.337-4.578,18.689-3.083,25.386,3.662s8.118,17.112,3.481,25.413c-68.926,123.379-58.196,280.488,26.704,390.945
					c91.68,119.321,216.089,164.876,369.761,135.41c9.856-1.892,19.7,3.354,23.625,12.59c3.928,9.236,0.879,19.963-7.319,25.752
					c-98.44,69.495-150.979,186.614-156.157,348.108c-4.48,139.773,63.755,268.181,178.076,335.11
					c7.676,4.495,11.755,13.281,10.232,22.043s-8.328,15.657-17.068,17.297c-126.213,23.682-238.423,107.488-292.842,218.713
					c-52.91,108.152-49.868,241.873,7.749,340.667c4.241,7.273,3.804,16.36-1.116,23.191s-13.406,10.139-21.641,8.411
					c-111.033-23.12-233.972,0.374-328.875,62.861c-89.16,58.708-160.386,157.942-195.413,272.253
					c-2.104,6.868-7.527,12.214-14.421,14.221C2382.629,3197.338,2380.625,3197.619,2378.635,3197.619z M1954.787,3001.337
					c7.554,0,15.112,0.125,22.678,0.374c143.264,4.731,280.791,53.733,390.718,138.652
					c40.747-112.288,111.956-205.852,202.798-265.669c92.314-60.781,208.821-87.959,318.967-75.679
					c-45.342-105.364-42.371-235.391,10.071-342.581c53.225-108.792,156.184-193.835,275.491-230.149
					c-102.939-79.39-162.629-207.642-158.206-345.652c4.607-143.701,44.709-255.794,119.397-334.309
					c-8.635,0.478-17.19,0.715-25.637,0.715c-127.009,0.007-232.617-53.879-314.863-160.925
					c-82.473-107.3-102.544-253.787-56.177-380.813c-147.004,68.267-295.942,88.091-424.783,55.662
					c-77.339-19.468-150.632-60.596-206.382-115.808c-35.903-35.557-63.589-75.51-82.158-118.142
					c-38.984,125.178-129.324,213.047-265.115,256.448c-134.182,42.883-292.405,24.019-431.205-49.893
					c11.172,121.829-36.971,255.732-129.241,352.241c-89.95,94.084-220.614,150.535-352.452,154.89
					c92.972,87.292,147.759,215.056,142.899,340.996c-5.157,133.667-74.532,262.766-184.181,347.378
					c111.036,30.808,206.964,106.421,252.202,201.792c49.146,103.608,41.016,229.351-19.238,329.209
					c111.365,18.821,232.819,48.638,327.289,114.883c87.528,61.375,151.813,152.339,179.723,252.986
					C1678.61,3043.859,1815.429,3001.337,1954.787,3001.337z"/>
			</g>
			<g>
				<g>
					<path style="fill:#000072;" d="M1749.749,2256.93c0,85.16,12.761,142.317,30.883,179.181
						c26.718,54.41,65.044,64.556,91.23,55.075c25.256-9.172,59.461-43.599,77.007-197.17c2.88-25.123,5.317-53.435,7.178-85.337
						c-86.844,55.917-207.317,60.968-294.426,6.38L1749.749,2256.93z"/>
				</g>
				<g>
					<path style="fill:#F584AD;" d="M1948.869,2294.015c-17.546,153.571-51.752,187.999-77.007,197.17
						c-26.186,9.482-64.512-0.665-91.23-55.075C1832.472,2350.552,1902.7,2311.384,1948.869,2294.015z"/>
				</g>
				<g>
					<path style="fill:#000072;" d="M1771.062,2256.93c0.077,24.584,1.072,49.093,3.813,73.153
						c2.716,24.037,7.105,47.722,14.224,69.865c7.121,21.952,17.379,42.783,31.42,56.968c13.776,14.408,31.721,19.672,45.448,13.627
						c6.674-2.706,13.073-8.708,18.909-17.013c5.788-8.328,10.564-18.612,14.796-29.233c8.269-21.581,14.003-45.247,18.552-69.209
						c4.54-24.004,8.04-48.492,10.288-73.241l6.258-74.385l0.002-0.023l32.814,19.16c-5.966,3.604-11.89,7.3-17.93,10.789
						l-18.708,9.275l-19.267,7.935l-19.789,6.39c-26.64,7.593-54.244,11.414-81.775,11.364c-27.527,0.07-55.017-3.906-81.311-11.677
						c-26.172-8-51.201-20.748-71.211-39.188c-3.133-2.887-3.333-7.767-0.445-10.901c2.196-2.383,5.545-3.069,8.402-1.99
						l0.098,0.039c23.793,9.014,47.094,16.259,71.012,20.85c23.823,4.838,48.218,6.161,72.323,4.708
						c24.111-1.581,47.948-6.096,70.779-13.409l16.91-6.029l16.504-6.949l15.941-8.06c5.066-3.102,10.249-5.996,15.39-8.983
						l1.404-0.815c10.009-5.817,22.839-2.418,28.655,7.59c2.264,3.896,3.13,8.215,2.756,12.385l-0.002,0.024l-6.432,76.476
						c-2.33,25.494-5.954,51.036-10.788,76.61c-4.888,25.565-10.943,51.188-20.724,76.769
						c-5.114,12.767-10.899,25.587-19.496,38.051c-2.35,3.079-4.494,6.188-7.091,9.186c-2.77,2.953-5.211,5.997-8.501,8.727
						c-5.987,5.668-13.627,10.604-21.811,14.077c-8.236,3.467-17.032,5.347-25.787,5.742c-8.771,0.317-17.43-0.956-25.578-3.322
						c-8.232-2.303-15.588-6.162-22.526-10.35c-6.66-4.459-12.959-9.359-18.225-14.868c-10.819-10.876-19.04-23.115-25.727-35.607
						c-6.765-12.502-11.855-25.394-16.084-38.34c-8.324-25.931-13.065-52.142-16.031-78.213
						c-2.966-26.089-4.003-52.084-4.083-77.952c-0.037-11.771,9.475-21.343,21.246-21.379s21.342,9.475,21.379,21.246
						L1771.062,2256.93z"/>
				</g>
			</g>
			<g>
				<g>
					<path style="fill:#FFFFFF;" d="M1446.164,2644.318l-1.63-179.42l651.31-5.936l1.63,179.42
						c1.642,179.865-142.842,326.958-322.663,328.603l0,0C1594.901,2968.623,1447.806,2824.184,1446.164,2644.318z"/>
				</g>
				<g style="opacity:0.2;">
					<path style="fill:#000072;" d="M1778.478,2967.252c-9.114,0.091-18.11-0.209-27.037-0.86
						c-153.607-11.194-277.942-129.008-298.595-280.271c50.757,97.836,149.706,166.532,265.177,174.947
						c8.926,0.65,17.923,0.95,27.037,0.86c179.821-1.645,324.305-148.738,322.663-328.603l-0.664-73.794l32.452-0.301l1.63,179.42
						C2102.783,2818.515,1958.299,2965.607,1778.478,2967.252z"/>
				</g>
				<g>
					<path style="fill:#000072;" d="M1771.796,2988.31c-189.885,0-345.208-153.555-346.945-343.797v-0.002l-1.628-179.419
						c-0.108-11.77,9.347-21.396,21.117-21.504l651.309-5.938c0.066-0.002,0.132-0.002,0.195-0.002
						c5.583,0,10.945,2.192,14.932,6.106c4.033,3.962,6.328,9.363,6.379,15.015l1.628,179.421
						c1.748,191.296-152.471,348.354-343.777,350.105C1773.945,2988.305,1772.858,2988.31,1771.796,2988.31z M1467.475,2644.123
						c1.523,166.86,137.781,301.563,304.326,301.563c0.943,0,1.875-0.005,2.818-0.012
						c167.803-1.536,303.076-139.299,301.543-307.095l-1.436-158.11l-608.687,5.549l1.437,158.108L1467.475,2644.123z"/>
				</g>
				<g>
					<path style="fill:#FFFFFF;" d="M2046.842,2497.373c-56.806,21.139-160.768,35.864-279.725,36.88
						c-111.311,0.951-209.689-10.35-268.708-28.333c-36.549-11.149-57.986-24.839-58.098-39.774
						c-0.345-39.164,145.465-72.164,325.633-73.695c8.356-0.057,16.621-0.077,24.787,0.029c5.553,0.005,11.102,0.054,16.557,0.185
						c48.402,0.906,93.48,4.147,132.914,9.242c91.502,11.777,152.341,33.448,152.545,58.696
						C2092.845,2473.893,2076.112,2486.49,2046.842,2497.373z"/>
				</g>
				<g>
					<path style="fill:#6E3F25;" d="M2046.842,2497.373c-56.806,21.139-160.768,35.864-279.725,36.88
						c-111.311,0.951-209.689-10.35-268.708-28.333c56.806-21.139,160.768-35.864,279.724-36.88
						c29.116-0.233,57.331,0.313,84.196,1.693c0.047-0.041,0.136-0.035,0.177,0.013c2.247,0.253,4.504,0.373,6.682,0.354
						c0.136-0.034,0.224-0.028,0.357-0.018C1942.337,2475.053,2004.645,2484.48,2046.842,2497.373z"/>
				</g>
				<g>
					<path style="fill:#000072;" d="M1754.426,2555.622c-104.255,0-201.536-10.823-262.229-29.314
						c-18.038-5.503-72.916-22.241-73.197-60.002c-0.28-31.733,35.223-54.592,111.732-71.907
						c62.949-14.246,146.418-22.507,235.032-23.259c8.538-0.059,16.941-0.076,25.242,0.029c5.466,0.002,11.182,0.054,16.799,0.19
						c48.298,0.904,93.801,4.07,135.129,9.409c47.319,6.091,87.19,14.905,115.291,25.488c13.743,5.176,55.566,20.927,55.835,54.172
						c0.254,34.597-44.939,51.399-59.79,56.919c-61.594,22.92-168.875,37.207-286.968,38.218
						C1763,2555.602,1758.705,2555.622,1754.426,2555.622z M1462.607,2465.79c3.17,3.235,13.195,10.952,42.019,19.744
						c59.265,18.057,157.271,28.301,262.312,27.41c111.721-0.957,216.125-14.578,272.471-35.544l0.007-0.003
						c20.388-7.58,28.184-13.801,30.945-16.684c-7.498-7.712-41.563-25.916-132.878-37.668c-39.797-5.142-83.73-8.193-130.591-9.07
						c-5.408-0.129-10.791-0.176-16.179-0.181c-8.281-0.11-16.411-0.09-24.624-0.032
						C1586.486,2415.287,1478.05,2446.94,1462.607,2465.79z"/>
				</g>
			</g>
			<g>
				<g>
					<path style="fill:#587CE8;" d="M1677.128,1574.011c-30.041-12.982-63.803-13.78-96.547-13.558
						c-170.541,1.196-344.76,26.851-495.008,107.58c-28.534,15.33-56.847,33.319-75.191,59.949
						c-18.344,26.673-24.635,63.936-7.577,91.452c17.059,27.515,60.968,36.82,91.274,24.369
						c18.786,123.353,58.752,269.924,131.683,322.03c62.341,44.574,304.972,28.889,413.748-9.748
						c99.161-35.225,99.035-275.94,150.521-278.067c44.707-1.861,79.216,227.379,142.665,265.794
						c42.225,25.521,371.987,70.558,480.763,19.249c82.017-38.928,99.183-216.419,144.023-324.885
						c0.532-1.285,1.063-2.526,1.551-3.81c72.399,28.534,146.792,51.885,229.426,79.09c6.159,24.99,12.672,50.733,27.958,71.424
						c15.286,20.736,41.738,35.402,66.728,29.11c15.552-3.899,28.446-15.375,36.864-29.066c8.419-13.647,12.805-29.421,15.907-45.15
						c0.931-4.741,1.772-9.526,2.481-14.267c8.33-54.41-20.337-107.713-70.184-131.107
						c-346.089-162.654-825.412-288.179-954.437-229.161c-36.067,16.483-74.659,84.141-74.659,84.141s-70.361,22.109-105.674,0.62
						C1731.317,1649.866,1707.169,1586.994,1677.128,1574.011z"/>
				</g>
				<g style="opacity:0.6;">
					<path style="fill:#FFFFFF;" d="M2857.928,1794.399c-346.089-162.655-825.412-288.179-954.437-229.161
						c-36.067,16.483-74.659,84.141-74.659,84.141s-70.361,22.109-105.674,0.62c-2.127-0.133-26.275-63.006-56.316-75.988
						c-30.041-12.982-63.803-13.78-96.547-13.558c-170.541,1.196-344.76,26.851-495.009,107.58
						c-28.534,15.331-56.847,33.32-75.19,59.949c-12.503,18.18-19.387,41.276-17.115,62.855c2.04-4.022,4.312-7.911,6.838-11.585
						c18.344-26.629,46.656-44.618,75.191-59.949c150.248-80.729,324.467-106.383,495.008-107.58
						c32.744-0.221,66.506,0.576,96.547,13.558c30.041,12.982,54.189,75.855,56.315,75.988c35.314,21.489,105.675-0.62,105.675-0.62
						s38.592-67.658,74.659-84.141c129.025-59.018,608.348,66.506,954.437,229.161c46.227,21.696,74.183,69.12,71.362,119.29
						c2.86-8.184,4.941-16.686,6.617-25.186c0.931-4.741,1.772-9.526,2.481-14.267
						C2936.442,1871.096,2907.774,1817.793,2857.928,1794.399z"/>
				</g>
				<g style="opacity:0.2;">
					<path style="fill:#000072;" d="M2929.656,1850.365c-0.704,4.695-1.535,9.432-2.457,14.126
						c-3.102,15.729-7.488,31.503-15.907,45.15c-8.418,13.691-21.312,25.167-36.864,29.066c-24.99,6.292-51.441-8.374-66.728-29.11
						c-15.286-20.692-21.799-46.435-27.958-71.424c-82.634-27.205-157.027-50.555-229.426-79.09
						c-0.487,1.285-1.019,2.526-1.551,3.81c-44.84,108.466-62.006,285.957-144.023,324.885
						c-108.776,51.309-438.538,6.273-480.763-19.249c-63.449-38.415-97.959-267.655-142.665-265.794
						c-51.486,2.127-51.359,242.842-150.521,278.067c-108.776,38.637-351.406,54.322-413.748,9.748
						c-72.931-52.106-112.897-198.677-131.683-322.03c-27.8,11.421-66.985,4.489-86.453-17.964
						c-6.958,21.751-6.426,45.639,5.456,64.804c17.059,27.515,60.968,36.82,91.274,24.369
						c18.787,123.353,58.752,269.924,131.683,322.03c62.341,44.574,304.972,28.889,413.748-9.748
						c99.161-35.225,99.034-275.94,150.52-278.067c44.707-1.861,79.216,227.379,142.665,265.794
						c42.226,25.521,371.987,70.557,480.764,19.249c82.017-38.928,99.183-216.419,144.023-324.885
						c0.532-1.285,1.063-2.526,1.551-3.81c72.399,28.534,146.792,51.885,229.427,79.09c6.159,24.99,12.672,50.733,27.958,71.424
						c15.286,20.736,41.738,35.402,66.728,29.11c15.552-3.899,28.446-15.375,36.864-29.066c8.419-13.647,12.805-29.421,15.906-45.15
						c0.931-4.741,1.773-9.526,2.481-14.267C2943.761,1896.587,2939.776,1872.007,2929.656,1850.365z"/>
				</g>
				<g>
					<path style="fill:#000072;" d="M1380.715,2214.115c-72.272,0.002-136.707-9.038-167.347-30.947
						c-80.682-57.642-119.446-212.297-136.671-313.318c-34.003,3.735-73.048-8.611-92.004-39.187
						c-20.075-32.378-16.807-78.496,8.13-114.758c21.428-31.108,53.812-51.145,82.665-66.646
						c135.234-72.663,300.404-108.684,504.945-110.117c34.727-0.227,71.47,0.752,105.151,15.303c0,0.002,0,0.002,0,0.002
						c26.76,11.565,46.489,45.693,62.261,77.551c0.369,0.745,0.713,1.443,1.03,2.087c20.398,9.326,54.783,7.681,74.153,5.298
						c13.215-22.988,47.468-77.8,81.892-93.53c140.53-64.287,629.28,68.018,972.361,229.255
						c58.062,27.254,91.86,90.427,82.185,153.623c-0.71,4.758-1.599,9.88-2.634,15.144c-2.966,15.039-7.766,34.543-18.684,52.239
						c-12.207,19.854-29.905,33.555-49.817,38.547c-35.94,9.045-70.635-12.131-89.067-37.136c-15.4-20.85-22.859-44.99-28.63-67.498
						c-9.866-3.237-19.617-6.423-29.265-9.578c-59.233-19.363-115.542-37.769-170.278-58.569
						c-10.918,29.368-20.679,63.428-30.918,99.165c-29.143,101.707-56.675,197.8-118.396,221.653
						c-68.23,31.667-201.677,26.633-275.337,20.793c-87.161-6.914-195.554-23.787-224.766-41.443
						c-38.94-23.574-64.346-94.602-88.916-163.289c-12.341-34.502-30.557-85.425-42.605-97.942
						c-11.282,11.399-26.279,59.88-36.433,92.708c-23.569,76.199-50.286,162.566-107.102,182.651
						C1583.488,2198.6,1475.382,2214.115,1380.715,2214.115z M1094.079,1822.489c3.634,0,7.255,0.93,10.498,2.764
						c5.691,3.223,9.589,8.877,10.573,15.342c23.896,156.895,68.728,269.119,123.003,307.896
						c54.105,38.684,288.109,25.203,394.225-12.488c36.66-12.961,62.068-95.098,80.62-155.071
						c22.021-71.194,37.932-122.632,76.155-124.209c37.351-1.614,56.897,52.651,83.738,127.683
						c19.993,55.891,44.875,125.449,70.845,141.172c37.078,22.412,358.486,66.389,460.632,18.208
						c0.532-0.252,1.077-0.481,1.631-0.688c42.188-15.769,69.287-110.347,93.196-193.792
						c11.897-41.521,24.199-84.453,38.594-119.272l0.366-0.884c0.325-0.779,0.649-1.541,0.945-2.327
						c2.019-5.334,6.091-9.636,11.306-11.946c5.212-2.31,11.133-2.429,16.443-0.342c59.8,23.569,121.958,43.889,187.764,65.4
						c13.296,4.346,26.79,8.757,40.513,13.274c6.973,2.295,12.271,8.018,14.028,15.144c5.605,22.739,11.401,46.252,24.409,63.862
						c9.67,13.123,27.661,25.295,44.382,21.106c8.936-2.241,17.644-9.37,23.911-19.561c7.344-11.904,10.886-26.621,13.152-38.115
						c0.864-4.4,1.653-8.865,2.312-13.286c6.848-44.729-17.073-89.385-58.159-108.669
						c-357.781-168.147-821.655-281.619-936.519-229.07c-21.436,9.795-52.646,56.914-67.285,84.314
						c-3.052,5.713-8.54,9.734-14.91,10.918c-7.61,1.416-74.353,12.898-115.676-10.244c-7.456-3.203-11.074-10.515-15.125-18.699
						c-16.56-33.45-30.347-52.742-40.972-57.336l0,0c-26.104-11.279-56.472-12.041-87.949-11.809
						c-197.424,1.387-356.093,35.745-485.063,105.044c-24.364,13.088-51.462,29.651-67.727,53.262
						c-12.471,18.135-19.993,47.202-7.014,68.132c10.624,17.139,42.848,25.005,65.062,15.886
						C1088.585,1823.019,1091.336,1822.489,1094.079,1822.489z M1750.903,1638.036h0.049H1750.903z M1734.851,1628.732
						c3.228,0.215,6.365,1.16,9.17,2.764C1741.545,1630.068,1738.481,1628.971,1734.851,1628.732z M1734.809,1628.73
						c0.007,0.002,0.015,0.002,0.024,0.002C1734.824,1628.732,1734.816,1628.732,1734.809,1628.73z"/>
				</g>
				<g>
					<path style="fill:#61C5FF;" d="M2360.673,2074.767c-19.894,17.635-59.107,27.338-104.965,30.705
						c-45.371,3.412-97.167,0.665-143.026-6.558c-24.945-3.899-48.118-9.172-67.525-15.463
						c-19.584-6.336-35.402-13.78-45.283-21.977c-9.969-8.286-21.002-22.065-31.99-39.7
						c-50.688-81.216-100.801-243.251-44.042-314.498c27.161-34.073,108.643-41.738,198.455-34.693
						c32.567,2.57,66.24,7.045,98.807,12.938c23.439,4.209,46.346,9.172,67.88,14.578c55.385,14.046,101.554,31.37,124.506,48.517
						c4.165,3.101,7.576,6.203,10.146,9.305C2484.824,1831.826,2412.646,2028.554,2360.673,2074.767z"/>
					<path style="opacity:0.6;fill:#FFFFFF;" d="M2404.923,1967.054c13.115-59.018,12.982-118.435-14.976-152.198
						c-2.57-3.102-5.982-6.203-10.147-9.305c-22.951-17.147-69.12-34.471-124.505-48.517c-21.534-5.406-44.441-10.368-67.88-14.578
						c-32.566-5.893-66.24-10.368-98.807-12.938c-89.812-7.045-171.295,0.62-198.455,34.693c-2.791,3.5-5.361,7.267-7.621,11.21
						c2.437-26.629,9.969-50.245,24.237-68.146c27.161-34.073,108.643-41.738,198.455-34.693c32.566,2.57,66.24,7.045,98.807,12.938
						c23.439,4.209,46.346,9.172,67.88,14.577c55.385,14.046,101.554,31.37,124.505,48.517c4.165,3.102,7.577,6.203,10.147,9.305
						C2443.692,1802.761,2431.729,1892.838,2404.923,1967.054z"/>
					<path style="fill:#61C5FF;" d="M1584.885,2049.334c-14.444,14.134-55.163,27.648-102.041,36.51
						c-43.245,8.197-91.673,12.495-129.512,9.703c-21.445-1.595-39.478-5.45-51.22-12.096c-1.817-1.019-3.633-2.304-5.494-3.766
						c-17.147-13.603-36.022-45.504-52.505-84.141c-35.756-83.609-60.525-198.943-33.497-229.515
						c24.458-27.692,91.009-52.505,165.003-67.924c31.547-6.557,64.38-11.432,95.927-14.09c22.597-1.861,44.485-2.614,64.69-2.083
						c42.625,1.152,77.805,8.153,96.458,22.73c4.874,3.811,9.083,8.463,12.584,13.868
						C1695.522,1794.874,1617.806,2017.034,1584.885,2049.334z"/>
					<path style="opacity:0.6;fill:#FFFFFF;" d="M1662.166,1821.928c-2.348-16.97-7-31.813-14.577-43.289
						c-3.5-5.406-7.71-10.058-12.583-13.868c-18.654-14.577-53.834-21.578-96.458-22.73c-20.204-0.532-42.093,0.221-64.69,2.083
						c-31.547,2.658-64.379,7.532-95.927,14.09c-73.994,15.419-140.545,40.231-165.003,67.924c-3.456,3.943-6.07,9.26-7.931,15.774
						c-5.494-38.415-3.943-70.184,8.419-84.185c24.458-27.693,91.009-52.505,165.003-67.924c31.547-6.558,64.38-11.432,95.927-14.09
						c22.597-1.861,44.485-2.614,64.689-2.083c42.624,1.152,77.805,8.153,96.458,22.73c4.874,3.81,9.083,8.463,12.583,13.868
						C1664.735,1735.527,1667.305,1776.822,1662.166,1821.928z"/>
					<defs>
						
							<filter id="Adobe_OpacityMaskFilter" filterUnits="userSpaceOnUse" x="1244.113" y="1684.015" width="227.433" height="395.67">
							<feFlood  style="flood-color:white;flood-opacity:1" result="back"/>
							<feBlend  in="SourceGraphic" in2="back" mode="normal"/>
						</filter>
					</defs>
					<mask maskUnits="userSpaceOnUse" x="1244.113" y="1684.015" width="227.433" height="395.67" id="SVGID_1_">
						<g style="filter:url(#Adobe_OpacityMaskFilter);">
							<defs>
								
									<filter id="Adobe_OpacityMaskFilter_00000115480318652421416340000000624490771018627998_" filterUnits="userSpaceOnUse" x="1244.113" y="1684.015" width="227.433" height="395.67">
									<feFlood  style="flood-color:white;flood-opacity:1" result="back"/>
									<feBlend  in="SourceGraphic" in2="back" mode="normal"/>
								</filter>
							</defs>
							<mask maskUnits="userSpaceOnUse" x="1244.113" y="1684.015" width="227.433" height="395.67" id="SVGID_1_">
								<g style="filter:url(#Adobe_OpacityMaskFilter_00000115480318652421416340000000624490771018627998_);">
								</g>
							</mask>
							
								<linearGradient id="SVGID_00000137822533800718171790000013502301080625764487_" gradientUnits="userSpaceOnUse" x1="1367.4885" y1="1451.4868" x2="1353.2465" y2="2024.0071">
								<stop  offset="0" style="stop-color:#FFFFFF"/>
								<stop  offset="1" style="stop-color:#000000"/>
							</linearGradient>
							<path style="mask:url(#SVGID_1_);fill:url(#SVGID_00000137822533800718171790000013502301080625764487_);" d="
								M1471.546,1684.015l-174.928,395.67c-17.147-13.603-36.022-45.504-52.505-84.141l131.506-297.439
								C1407.166,1691.548,1439.999,1686.674,1471.546,1684.015z"/>
						</g>
					</mask>
					
						<linearGradient id="SVGID_00000145780527973147169540000006934839623223429045_" gradientUnits="userSpaceOnUse" x1="1367.4885" y1="1451.4868" x2="1353.2465" y2="2024.0071">
						<stop  offset="0" style="stop-color:#FFFFFF"/>
						<stop  offset="1" style="stop-color:#FFFFFF"/>
					</linearGradient>
					<path style="fill:url(#SVGID_00000145780527973147169540000006934839623223429045_);" d="M1471.546,1684.015l-174.928,395.67
						c-17.147-13.603-36.022-45.504-52.505-84.141l131.506-297.439C1407.166,1691.548,1439.999,1686.674,1471.546,1684.015z"/>
					<defs>
						
							<filter id="Adobe_OpacityMaskFilter_00000166656893633388719130000010262988497542783912_" filterUnits="userSpaceOnUse" x="1353.332" y="1681.933" width="291.945" height="414.465">
							<feFlood  style="flood-color:white;flood-opacity:1" result="back"/>
							<feBlend  in="SourceGraphic" in2="back" mode="normal"/>
						</filter>
					</defs>
					
						<mask maskUnits="userSpaceOnUse" x="1353.332" y="1681.933" width="291.945" height="414.465" id="SVGID_00000083046900977144345730000014881745078210782127_">
						<g style="filter:url(#Adobe_OpacityMaskFilter_00000166656893633388719130000010262988497542783912_);">
							<defs>
								
									<filter id="Adobe_OpacityMaskFilter_00000038389439478690894740000014626320154886494849_" filterUnits="userSpaceOnUse" x="1353.332" y="1681.933" width="291.945" height="414.465">
									<feFlood  style="flood-color:white;flood-opacity:1" result="back"/>
									<feBlend  in="SourceGraphic" in2="back" mode="normal"/>
								</filter>
							</defs>
							
								<mask maskUnits="userSpaceOnUse" x="1353.332" y="1681.933" width="291.945" height="414.465" id="SVGID_00000083046900977144345730000014881745078210782127_">
								<g style="filter:url(#Adobe_OpacityMaskFilter_00000038389439478690894740000014626320154886494849_);">
								</g>
							</mask>
							
								<linearGradient id="SVGID_00000127729797541374630610000000801256064538225060_" gradientUnits="userSpaceOnUse" x1="1510.5486" y1="1455.0455" x2="1496.3064" y2="2027.5675">
								<stop  offset="0" style="stop-color:#FFFFFF"/>
								<stop  offset="1" style="stop-color:#000000"/>
							</linearGradient>
							
								<path style="mask:url(#SVGID_00000083046900977144345730000014881745078210782127_);fill:url(#SVGID_00000127729797541374630610000000801256064538225060_);" d="
								M1645.277,1718.531l-162.433,367.313c-43.245,8.197-91.673,12.495-129.512,9.703l182.903-413.615
								c42.625,1.152,77.805,8.153,96.458,22.73C1637.568,1708.473,1641.777,1713.125,1645.277,1718.531z"/>
						</g>
					</mask>
					
						<linearGradient id="SVGID_00000181804121750535556940000014417486881439957676_" gradientUnits="userSpaceOnUse" x1="1510.5486" y1="1455.0455" x2="1496.3064" y2="2027.5675">
						<stop  offset="0" style="stop-color:#FFFFFF"/>
						<stop  offset="1" style="stop-color:#FFFFFF"/>
					</linearGradient>
					<path style="fill:url(#SVGID_00000181804121750535556940000014417486881439957676_);" d="M1645.277,1718.531l-162.433,367.313
						c-43.245,8.197-91.673,12.495-129.512,9.703l182.903-413.615c42.625,1.152,77.805,8.153,96.458,22.73
						C1637.568,1708.473,1641.777,1713.125,1645.277,1718.531z"/>
					<defs>
						
							<filter id="Adobe_OpacityMaskFilter_00000084501584532757289480000017900354303408571039_" filterUnits="userSpaceOnUse" x="1967.883" y="1672.584" width="253.22" height="410.868">
							<feFlood  style="flood-color:white;flood-opacity:1" result="back"/>
							<feBlend  in="SourceGraphic" in2="back" mode="normal"/>
						</filter>
					</defs>
					
						<mask maskUnits="userSpaceOnUse" x="1967.883" y="1672.584" width="253.22" height="410.868" id="SVGID_00000129182015736555934130000011747034941259582118_">
						<g style="filter:url(#Adobe_OpacityMaskFilter_00000084501584532757289480000017900354303408571039_);">
							<defs>
								
									<filter id="Adobe_OpacityMaskFilter_00000072986766884047455030000003127671432225797033_" filterUnits="userSpaceOnUse" x="1967.883" y="1672.584" width="253.22" height="410.868">
									<feFlood  style="flood-color:white;flood-opacity:1" result="back"/>
									<feBlend  in="SourceGraphic" in2="back" mode="normal"/>
								</filter>
							</defs>
							
								<mask maskUnits="userSpaceOnUse" x="1967.883" y="1672.584" width="253.22" height="410.868" id="SVGID_00000129182015736555934130000011747034941259582118_">
								<g style="filter:url(#Adobe_OpacityMaskFilter_00000072986766884047455030000003127671432225797033_);">
								</g>
							</mask>
							
								<linearGradient id="SVGID_00000149362417016119589010000004853494585024938661_" gradientUnits="userSpaceOnUse" x1="2104.0417" y1="1469.8092" x2="2089.7996" y2="2042.3326">
								<stop  offset="0" style="stop-color:#FFFFFF"/>
								<stop  offset="1" style="stop-color:#000000"/>
							</linearGradient>
							
								<path style="mask:url(#SVGID_00000129182015736555934130000011747034941259582118_);fill:url(#SVGID_00000149362417016119589010000004853494585024938661_);" d="
								M2221.103,1685.521l-175.947,397.93c-19.584-6.336-35.402-13.78-45.283-21.977c-9.969-8.286-21.002-22.065-31.99-39.7
								l154.413-349.191C2154.863,1675.154,2188.537,1679.629,2221.103,1685.521z"/>
						</g>
					</mask>
					
						<linearGradient id="SVGID_00000015355196698326304270000013492623499671223994_" gradientUnits="userSpaceOnUse" x1="2104.0417" y1="1469.8092" x2="2089.7996" y2="2042.3326">
						<stop  offset="0" style="stop-color:#FFFFFF"/>
						<stop  offset="1" style="stop-color:#FFFFFF"/>
					</linearGradient>
					<path style="fill:url(#SVGID_00000015355196698326304270000013492623499671223994_);" d="M2221.103,1685.521l-175.947,397.93
						c-19.584-6.336-35.402-13.78-45.283-21.977c-9.969-8.286-21.002-22.065-31.99-39.7l154.413-349.191
						C2154.863,1675.154,2188.537,1679.629,2221.103,1685.521z"/>
					<defs>
						
							<filter id="Adobe_OpacityMaskFilter_00000100351588605822994470000011507349996551966363_" filterUnits="userSpaceOnUse" x="2112.682" y="1700.099" width="300.807" height="406.829">
							<feFlood  style="flood-color:white;flood-opacity:1" result="back"/>
							<feBlend  in="SourceGraphic" in2="back" mode="normal"/>
						</filter>
					</defs>
					
						<mask maskUnits="userSpaceOnUse" x="2112.682" y="1700.099" width="300.807" height="406.829" id="SVGID_00000013152953317376393120000002352578207169325739_">
						<g style="filter:url(#Adobe_OpacityMaskFilter_00000100351588605822994470000011507349996551966363_);">
							<defs>
								
									<filter id="Adobe_OpacityMaskFilter_00000162337167646008991520000013232695855603952809_" filterUnits="userSpaceOnUse" x="2112.682" y="1700.099" width="300.807" height="406.829">
									<feFlood  style="flood-color:white;flood-opacity:1" result="back"/>
									<feBlend  in="SourceGraphic" in2="back" mode="normal"/>
								</filter>
							</defs>
							
								<mask maskUnits="userSpaceOnUse" x="2112.682" y="1700.099" width="300.807" height="406.829" id="SVGID_00000013152953317376393120000002352578207169325739_">
								<g style="filter:url(#Adobe_OpacityMaskFilter_00000162337167646008991520000013232695855603952809_);">
								</g>
							</mask>
							
								<linearGradient id="SVGID_00000065793107943568154400000004858101330284934531_" gradientUnits="userSpaceOnUse" x1="2274.2725" y1="1474.0437" x2="2260.0303" y2="2046.5653">
								<stop  offset="0" style="stop-color:#FFFFFF"/>
								<stop  offset="1" style="stop-color:#000000"/>
							</linearGradient>
							
								<path style="mask:url(#SVGID_00000013152953317376393120000002352578207169325739_);fill:url(#SVGID_00000065793107943568154400000004858101330284934531_);" d="
								M2413.489,1748.616l-157.781,356.856c-45.371,3.412-97.167,0.665-143.026-6.558l176.301-398.816
								C2344.368,1714.145,2390.537,1731.469,2413.489,1748.616z"/>
						</g>
					</mask>
					
						<linearGradient id="SVGID_00000127744944730888882860000011610649853938120623_" gradientUnits="userSpaceOnUse" x1="2274.2725" y1="1474.0437" x2="2260.0303" y2="2046.5653">
						<stop  offset="0" style="stop-color:#FFFFFF"/>
						<stop  offset="1" style="stop-color:#FFFFFF"/>
					</linearGradient>
					<path style="fill:url(#SVGID_00000127744944730888882860000011610649853938120623_);" d="M2413.489,1748.616l-157.781,356.856
						c-45.371,3.412-97.167,0.665-143.026-6.558l176.301-398.816C2344.368,1714.145,2390.537,1731.469,2413.489,1748.616z"/>
				</g>
				<g>
					<g>
						<path style="fill:#000072;" d="M2215.063,2128.2c-14.888,0-27.991-0.51-37.908-1.074
							c-65.139-3.698-154.221-18.818-190.903-49.255c-63.103-52.361-157.49-285.442-79.087-383.86l-0.002,0.003
							c23.232-29.172,74.204-44.336,151.504-45.073c132.295-1.299,338.328,43.406,381.377,95.403
							c72.129,87.117-8.445,295.852-65.227,346.345C2339.489,2122.062,2266.621,2128.2,2215.063,2128.2z M2064.899,1691.537
							c-1.951,0-3.892,0.007-5.828,0.027c-86.824,0.825-111.841,20.557-118.564,29.001c0,0.002-0.002,0.002-0.002,0.002
							c-59.312,74.453,24.38,284.182,72.966,324.5c22.539,18.704,92.395,35.315,166.101,39.502
							c78.752,4.465,144.285-5.635,166.929-25.745c48.569-43.189,111.375-226.108,60.71-287.3
							C2381.823,1740.863,2208.068,1691.537,2064.899,1691.537z M1923.835,1707.289h0.049H1923.835z"/>
					</g>
					<g>
						<path style="fill:#000072;" d="M1379.288,2117.316c-36.72,0-68.835-4.587-87.723-15.337
							c-49.227-28.018-95.656-158.826-108.931-238.535c-9.235-55.449-5.31-91.934,12-111.538
							c63.263-71.641,370.898-126.772,451.179-64.028c22.126,17.292,34.524,47.075,36.853,88.516
							c5.459,97.273-49.214,255.181-82.864,288.176C1570.234,2093.556,1462.845,2117.316,1379.288,2117.316z M1523.618,1703.031
							c-30.403,0-65.527,2.808-102.755,8.555c-91.187,14.077-171.077,42.261-194.277,68.533c-4.567,5.173-10.109,27.07-1.906,76.323
							c15.423,92.612,62.04,193.735,87.968,208.491c19.895,11.323,74.265,13.345,135.293,5.017
							c64.493-8.792,111.002-25.015,122.02-35.818c21.804-21.382,75.247-164.509,70.146-255.349
							c-1.106-19.69-5.566-45.618-20.544-57.322l0,0C1604.03,1709.321,1569.113,1703.031,1523.618,1703.031z"/>
					</g>
				</g>
				<g>
					<path style="fill:#000072;" d="M2561.003,1852.223c-10.908,0-20.205-8.328-21.201-19.402
						c-1.057-11.721,7.59-22.083,19.314-23.137c20.635-1.86,44.297-11.138,50.649-27.671c19.299-50.198-40.479-83.569-59.26-92.603
						c-10.605-5.102-15.071-17.837-9.968-28.445c5.103-10.603,17.827-15.071,28.445-9.968
						c55.823,26.846,106.304,79.38,80.571,146.309c-13.796,35.916-53.789,51.873-86.614,54.829
						C2562.29,1852.194,2561.643,1852.223,2561.003,1852.223z"/>
				</g>
			</g>
			<g>
				<g>
					<path style="fill:#FFFFFF;" d="M2185.701,2812.406c-2.127,2.393-4.342,4.697-6.602,6.779
						c-40.896,39.478-101.288,44.175-138.152,46.966c-1.108,0.044-2.127,0.089-3.146,0.089c-20.426,0-37.75-15.729-39.345-36.466
						c-1.728-21.755,14.578-40.763,36.333-42.402c36.554-2.836,73.817-7.311,91.895-27.604
						c14.622-16.394,16.97-43.466,16.305-63.227c-0.62-19.673-4.608-46.125-20.071-60.48
						c-20.958-19.407-60.347-17.324-86.401-15.951l-4.874,0.31c-21.8,1.152-40.365-15.685-41.472-37.44
						c-0.177-3.811,0.177-7.532,1.019-11.077c3.899-16.704,18.476-29.509,36.465-30.396l4.697-0.221
						c34.516-1.816,98.807-5.228,144.267,36.864c28.135,26.053,43.821,66.152,45.371,115.91
						C2223.54,2743.108,2211.001,2784.049,2185.701,2812.406z"/>
				</g>
				<g style="opacity:0.2;">
					<path style="fill:#000072;" d="M2179.099,2819.185c-40.896,39.478-101.288,44.175-138.152,46.966
						c-1.108,0.044-2.127,0.089-3.146,0.089c-20.426,0-37.75-15.729-39.345-36.466c-1.728-21.755,14.578-40.763,36.333-42.402
						c36.554-2.836,73.817-7.311,91.895-27.604c14.622-16.394,16.97-43.466,16.305-63.227c-0.62-19.673-4.608-46.125-20.071-60.48
						c-20.958-19.407-60.347-17.324-86.401-15.951l-4.874,0.31c-21.8,1.152-40.365-15.685-41.472-37.44
						c-0.177-3.811,0.177-7.532,1.019-11.077c4.785,2.171,10.013,3.855,16.482,4.342c37.219,2.658,76.52-1.197,109.972,15.375
						c39.522,19.629,61.233,63.804,69.475,107.137C2194.74,2738.766,2193.101,2781.035,2179.099,2819.185z"/>
				</g>
				<g>
					<path style="fill:#000072;" d="M2037.785,2887.56c-31.519,0-58.132-24.648-60.589-56.113
						c-1.267-16.209,3.86-31.934,14.436-44.277c10.574-12.339,25.322-19.817,41.531-21.05c30.82-2.397,64.81-6.162,77.62-20.537
						c7.654-8.584,11.633-26.216,10.925-48.381c-0.698-21.733-5.549-38.333-13.306-45.535
						c-14.302-13.25-49.639-11.372-70.747-10.254l-4.834,0.273c-16.23,0.818-31.826-4.663-43.887-15.54
						c-12.09-10.903-19.204-25.854-20.029-42.102c-1.699-33.479,24.163-62.1,57.647-63.801l4.709-0.239
						c37.727-1.985,107.827-5.674,159.844,42.502c32.39,30.024,50.439,75.283,52.205,130.889
						c1.716,54.619-12.703,100.676-41.694,133.198c-46.511,52.146-119.707,57.793-159.033,60.825l-0.886,0.049
						C2040.192,2887.521,2038.989,2887.56,2037.785,2887.56z M2061.425,2597.963c26.074,0,55.693,3.669,75.964,22.451
						c16.76,15.564,25.813,40.935,26.921,75.422c0.757,23.679-2.395,56.448-21.707,78.105
						c-23.34,26.194-65.247,31.494-106.169,34.675c-4.873,0.371-9.277,2.603-12.434,6.287c-3.157,3.684-4.688,8.381-4.309,13.225
						c0.735,9.424,8.684,16.804,18.093,16.804c0.642,0,1.282-0.024,1.958-0.049c35.735-2.756,95.117-7.485,130.059-46.66
						c21.582-24.209,32.271-59.995,30.906-103.484c-1.396-43.953-14.734-78.87-38.572-100.967
						c-38.794-35.93-94.983-32.971-128.557-31.206l-4.873,0.247c-10.005,0.508-17.737,9.063-17.231,19.07
						c0.249,4.858,2.38,9.338,6.006,12.605c3.594,3.245,8.25,4.912,13.022,4.634l4.819-0.271
						C2043.168,2598.434,2052.07,2597.963,2061.425,2597.963z"/>
				</g>
			</g>
			<g>
				<g>
					<path style="fill:#FFD039;" d="M1517.006,2805.892c-7.444,20.293-28.844,32.876-50.245,36.022
						c-21.401,3.19-43.112-1.374-64.291-5.938c-3.722,32.965-35.89,55.651-67.393,52.372c-15.198-1.595-29.908-8.375-45.105-6.823
						c-10.147,1.063-19.451,5.76-29.11,9.039c-34.339,11.653-73.551,4.697-104.035-14.887c-8.108-5.184-15.597-11.21-22.464-17.901
						c-19.008-18.476-33.275-42.004-42.226-67.038c-12.185-34.161-15.02-71.07-12.451-107.225
						c5.627-79.001,34.826-154.014,86.002-213.698c5.184-6.115,10.634-12.096,16.35-17.856
						c44.352,68.677,61.455,106.25,104.035,143.558c1.684,1.507,3.367,2.969,5.14,4.431c31.725-44.175,84.806-72.177,139.171-73.418
						c1.551,19.097,2.215,39.655,2.88,60.214c17.236-4.121,36.599-5.007,52.904,2.57c6.779,3.146,12.894,7.975,17.635,13.78
						c6.69,8.153,10.723,18.299,10.324,28.756c-0.665,17.989-16.217,34.959-34.206,34.649c18.919,4.52,34.161,21.534,36.51,40.808
						c2.392,19.274-8.33,39.478-25.566,48.384c6.38,0.842,11.919,3.855,16.394,8.197c4.431,4.254,7.754,9.792,9.792,15.862
						C1519.842,2788.169,1520.063,2797.607,1517.006,2805.892z"/>
				</g>
				<g style="opacity:0.6;">
					<path style="fill:#FFFFFF;" d="M1396.303,2532.14c9.85-2.509,20.727-4.116,29.828,0.41c9.101,4.527,14.414,17.513,7.865,25.286
						c-40.775,4.586-77.969,26.713-107.745,54.944c-26.558,25.18-43.762,57.088-68.053,83.586
						c-15.25-25.027,26.646-84.93,42.362-103.337C1325.486,2563.836,1358.959,2541.651,1396.303,2532.14z"/>
				</g>
				<g>
					<path style="fill:#000072;" d="M1225.54,2917.582c-27.537,0-55.682-8.184-80.24-23.96
						c-32.692-21.006-58.702-54.993-73.24-95.703c-12.106-33.936-16.693-72.93-13.639-115.903
						c6.678-93.789,45.186-180.796,108.427-244.998c4.539-4.609,10.926-6.917,17.359-6.245c6.434,0.662,12.221,4.207,15.729,9.641
						c10.686,16.553,19.889,31.453,28.008,44.597c22.562,36.526,37.734,61.089,61.009,84.143
						c36.002-38.708,88.093-62.712,140.936-63.918c11.248-0.366,20.815,8.328,21.73,19.58c0.985,12.122,1.622,24.834,2.121,37.607
						c15.28-0.571,29.31,1.96,41.4,7.576c24.744,11.497,40.84,36.208,40.303,61.716c0.469,13.87-4.79,26.606-14.238,36.518
						c8.797,10.227,14.717,22.915,16.375,36.511c2.085,16.797-2.507,33.835-11.933,47.607c2.1,2.439,4.023,5.093,5.745,7.942
						c9.746,16.14,11.848,35.928,5.622,52.937c-9.546,26.023-35.278,45.095-67.159,49.783c-18.131,2.698-35.824,0.803-52.344-2.205
						c-14.012,31.423-48.411,52.505-84.646,48.75c-7.262-0.762-14.121-2.405-20.173-3.855c-7.955-1.904-14.834-3.545-20.559-2.964
						c-4.429,0.464-9.811,2.537-15.508,4.729c-2.961,1.138-5.925,2.273-8.918,3.289
						C1254.222,2915.336,1239.964,2917.58,1225.54,2917.582z M1179.029,2487.018c-45.311,54.482-72.805,123.809-78.091,198.022
						c-2.633,37.051,1.157,70.21,11.266,98.55c11.387,31.885,31.323,58.228,56.135,74.17c26.203,16.829,59.027,21.675,85.667,12.634
						c2.453-0.833,4.88-1.772,7.308-2.708c7.661-2.947,16.343-6.289,26.433-7.344c12.987-1.328,24.615,1.455,34.869,3.909
						c5.247,1.257,10.203,2.444,14.678,2.913c21.146,2.207,41.722-13.481,43.99-33.564c0.675-5.984,3.851-11.404,8.741-14.917
						c4.889-3.516,11.041-4.79,16.925-3.528c19.069,4.109,38.788,8.354,56.661,5.693c13.281-1.953,28.723-9.597,33.378-22.283
						c1.74-4.753,0.902-11.284-2.089-16.238c-1.123-1.86-3.511-5.049-6.88-5.5c-9.22-1.238-16.573-8.313-18.163-17.48
						c-1.591-9.168,2.949-18.306,11.215-22.576c9.391-4.853,15.494-16.384,14.199-26.826c-1.279-10.503-10.009-20.242-20.31-22.703
						c-9.808-2.344-16.632-11.24-16.354-21.321c0.279-10.078,7.585-18.584,17.508-20.381c6.658-1.206,17.084-5.679,16.719-12.546
						c-0.034-0.64-0.039-1.279-0.015-1.919c0.314-8.491-6.41-18.13-15.641-22.419c-12.314-5.725-27.991-3.799-38.97-1.169
						c-6.228,1.489-12.794,0.1-17.885-3.789c-5.09-3.884-8.163-9.851-8.37-16.252c-0.406-12.551-0.82-25.337-1.444-37.705
						c-40.328,6.56-78.165,29.47-101.996,62.654c-3.455,4.812-8.757,7.969-14.635,8.713c-5.87,0.74-11.799-0.994-16.344-4.792
						c-38.433-32.124-58.325-64.331-85.858-108.904C1187.734,2501.025,1183.528,2494.216,1179.029,2487.018z"/>
				</g>
				<g>
					<path style="fill:#000072;" d="M1306.758,2614.534c-0.42,0.768-0.92,1.03-1.838,2.665c-0.812,1.161-1.713,2.856-2.613,4.558
						c-1.799,3.396-3.591,7.317-5.321,11.332c-3.471,8.079-6.769,16.702-10.073,25.453c-3.305,8.763-6.599,17.722-10.217,26.862
						c-3.77,9.246-7.209,18.256-13.567,29.088l-0.004,0.009l-0.962,1.672c-5.281,9.18-17.004,12.341-26.184,7.061
						c-1.447-0.833-2.809-1.896-3.948-3.013c-8.141-8.081-20.829-14.702-34.204-18.602c-13.448-3.932-28.052-5.486-41.824-3.512
						l-0.423,0.061c-6.736,0.966-12.979-3.712-13.944-10.448c-0.854-5.956,2.71-11.526,8.202-13.403
						c17.455-5.981,35.76-7.45,53.917-5.773c9.097,0.878,18.204,2.603,27.276,5.409c9.062,2.828,18.127,6.702,26.921,12.43
						l-31.093,5.719l0.002-0.004c3.259-5.487,6.925-14.1,10.205-22.389c3.349-8.453,6.589-17.255,9.959-26.194
						c3.382-8.948,6.83-18.009,10.826-27.317c2.019-4.668,4.141-9.37,6.762-14.338c1.315-2.479,2.633-4.962,4.466-7.731
						c1.431-2.493,4.063-5.797,6.576-8.739c7.482-8.76,20.648-9.796,29.407-2.314c7.642,6.527,9.406,17.382,4.763,25.861
						L1306.758,2614.534z"/>
				</g>
				<g>
					<path style="fill:#000072;" d="M1439.264,2607.207c-13.896,1.87-27.705,5.037-41.261,9.717
						c-13.558,4.663-26.847,10.853-39.759,18.271l-0.061,0.034c-4.091,2.351-9.312,0.94-11.662-3.151
						c-1.94-3.375-1.31-7.527,1.266-10.194c10.948-11.322,23.066-21.958,36.413-31.344c13.328-9.402,27.842-17.517,43.05-24.231
						l0.429-0.19c10.892-4.808,23.62,0.122,28.429,11.014c4.809,10.891-0.122,23.619-11.014,28.429
						C1443.224,2606.389,1441.194,2606.936,1439.264,2607.207z"/>
				</g>
				<g>
					<path style="fill:#000072;" d="M1480.695,2687.81c-12.147-1.411-23.775-2.474-35.722-2.554c-11.969-0.11-24.53,0.532-37.1,1.08
						l-0.041,0.002c-5.676,0.248-10.478-4.153-10.725-9.829c-0.202-4.63,2.703-8.682,6.857-10.15
						c11.89-4.191,23.761-8.505,36.445-12.262c12.702-3.796,25.974-6.571,38.722-8.884l0.202-0.037
						c11.717-2.125,22.939,5.649,25.065,17.367c2.126,11.716-5.65,22.938-17.367,25.065
						C1484.92,2687.991,1482.725,2688.036,1480.695,2687.81z"/>
				</g>
				<g>
					<path style="fill:#000072;" d="M1493.536,2780.283c-21.999-8.157-45.807-13.33-70.457-15.005l-0.08-0.005
						c-4.368-0.298-7.669-4.08-7.372-8.447c0.231-3.392,2.579-6.143,5.655-7.063c25.052-7.432,51.745-11.459,79.127-11.548
						l0.604-0.002c11.991-0.039,21.743,9.65,21.782,21.641c0.039,11.991-9.65,21.744-21.641,21.783
						C1498.504,2781.646,1495.887,2781.144,1493.536,2780.283z"/>
				</g>
				<g>
					<path style="fill:#000072;" d="M1305.737,2904.048c-26.189-13.096-47.112-31.08-65.801-49.63
						c-3.441-3.416-3.462-8.973-0.047-12.415c2.726-2.747,6.816-3.314,10.106-1.696l0.054,0.029
						c22.861,11.287,46.319,20.276,68.984,23.213c11.878,1.539,20.259,12.416,18.72,24.293
						c-1.539,11.877-12.416,20.259-24.294,18.719c-2.444-0.316-4.741-1.029-6.833-2.063L1305.737,2904.048z"/>
				</g>
				<g style="opacity:0.2;">
					<path style="fill:#000072;" d="M1517.006,2797.242c-7.444,20.293-28.844,32.876-50.245,36.022
						c-21.401,3.19-43.112-1.374-64.291-5.938c-3.722,32.965-35.89,55.651-67.393,52.372c-15.198-1.595-29.908-8.375-45.105-6.823
						c-10.147,1.063-19.451,5.76-29.11,9.039c-34.339,11.653-73.551,4.697-104.035-14.887c-8.108-5.184-15.597-11.21-22.464-17.901
						c-11.609-17.812-19.053-38.06-20.16-59.328c-4.386-84.673,86.799-150.249,87.11-235.054
						c0.133-34.826-15.331-66.107-35.624-93.579c5.184-6.115,10.634-12.096,16.35-17.856
						c44.352,68.677,61.455,106.25,104.035,143.558c0.001,0.01,0.002,0.016,0.003,0.026c-22.662,30.41-41.517,65.258-44.355,103.079
						c-2.792,37.795,13.425,78.78,46.7,96.902c24.725,13.466,58.233,9.586,79.056-7.948c12.085-10.177,29.104-11.519,43.347-4.68
						c20.456,9.822,43.804,13.698,66.305,10.501c14.001-1.994,27.559-6.691,39.922-13.647
						C1519.842,2779.519,1520.063,2788.957,1517.006,2797.242z"/>
				</g>
				<g style="opacity:0.2;">
					<path style="fill:#000072;" d="M1490.864,2755.691c6.38,0.842,11.919,3.855,16.394,8.197
						c-25.694-1.003-51.31-4.166-76.481-9.451c-7.151-1.501-7.769-11.671-0.773-13.779c4.551-1.372,8.933-3.214,13.052-5.703
						c14.622-8.862,23.971-28.933,15.286-43.688c-6.824-11.52-21.49-15.508-34.782-16.837c-0.133-0.014-0.266-0.027-0.399-0.041
						c-10.289-1.041-12.338-15.237-2.658-18.877c10.895-4.096,21.518-8.925,31.768-14.446c16.793-9.039,34.25-29.642,51.53-37.972
						c6.69,8.153,10.723,18.299,10.324,28.756c-0.665,17.989-16.217,34.959-34.206,34.649c18.919,4.52,34.161,21.534,36.51,40.808
						C1518.822,2726.581,1508.1,2746.785,1490.864,2755.691z"/>
				</g>
			</g>
			<g>
				<g>
					<path style="fill:#FFD039;" d="M2714.073,2781.035c-38.902,45.194-95.528,72.665-154.015,84.185
						c-58.486,11.476-119.011,8.02-169.921-10.678c-37.706,40.763-98.231,58.797-152.109,45.371
						c-53.878-13.425-98.851-57.778-119.897-116.663c-19.186,0-38.326-0.044-65.93-3.5c-0.31-9.039,0.975-16.748,3.367-23.261
						c11.077-29.908,46.479-35.757,70.051-35.757c-3.545-21.002,7.089-43.643,30.617-59.107c-7.577-2.127-15.286-4.386-21.578-9.083
						c-6.292-4.697-10.856-12.539-9.482-20.249c0.177-0.975,0.443-1.906,0.798-2.792c2.969-8.33,12.185-13.381,20.559-17.147
						c35.357-15.774,72.177-28.313,109.839-37.396c14.622-3.545,31.37-6.159,43.599,2.614c9.039,6.469,13.204,17.679,16.748,28.224
						c12.008,36.2,21.8,73.108,29.376,108.377c34.117,6.336,68.81,12.717,103.326,9.216c34.516-3.5,69.519-18.255,89.591-46.568
						c20.869-29.421,22.553-68.234,19.318-104.168c-1.861-20.337-5.051-40.542-9.615-60.48c-8.729-38.769-22.42-76.387-40.719-111.7
						l164.56-191.809c21.312,60.215,74.349,220.344,94.022,314.409c3.633,17.546,6.115,32.744,7.045,44.618
						C2779.472,2643.238,2763.521,2723.568,2714.073,2781.035z"/>
				</g>
				<g style="opacity:0.6;">
					<path style="fill:#FFFFFF;" d="M2565.553,2724.543c-21.091,22.42-53.524,29.82-84.141,32.921
						c-56.98,5.804-115.023,0.487-170.01-15.508c-11.609-22.686-13.913-48.783-20.515-73.374
						c-6.602-24.591-19.717-49.979-43.289-59.55c-17.236-6.912-36.732-4.076-54.854,0c-22.907,5.14-44.795,12.495-66.772,20.47
						c2.969-8.33,12.185-13.381,20.559-17.147c35.357-15.774,72.177-28.313,109.839-37.396c14.622-3.545,31.37-6.159,43.599,2.614
						c9.039,6.469,13.204,17.679,16.748,28.224c12.008,36.2,21.8,73.108,29.376,108.377c34.117,6.336,68.81,12.717,103.326,9.216
						c34.516-3.5,69.519-18.255,89.591-46.568c20.869-29.421,22.553-68.234,19.318-104.168c-1.861-20.337-5.051-40.542-9.615-60.48
						c25.3,37.263,40.321,81.527,42.181,126.5C2592.182,2669.335,2586.6,2702.256,2565.553,2724.543z"/>
				</g>
				<g>
					<path style="fill:#000072;" d="M2728.972,2343.973c15.397,30.148,28.361,61.5,39.108,94.043
						c5.275,16.294,9.975,32.886,13.876,49.76c3.968,16.858,7.313,33.966,9.79,51.302c5.06,34.598,6.03,70.557,1.806,105.974
						c-4.137,35.457-14.01,70.82-30.691,103.529c-16.501,32.744-41.52,61.99-70.959,83.807
						c-29.402,22.051-62.713,37.677-97.2,47.683c-34.574,10.134-70.242,14.446-106.023,13.91
						c-35.744-0.536-71.724-6.512-105.827-19.396l-0.067-0.024l22.993-5.533c-22.185,23.936-50.907,40.767-81.701,49.534
						c-30.785,8.77-64.124,9.569-95.556,0.807c-31.436-8.716-59.425-26.65-81.408-49.363c-22.08-22.754-38.493-50.243-49.056-79.569
						l20.069,14.139c-11.027,0.009-22.521-0.049-34.075-0.629c-11.558-0.562-23.109-1.62-34.502-3.036l-0.354-0.045
						c-10.471-1.301-18.159-10.149-18.3-20.41c-0.168-11.335,1.227-23.689,6.565-35.641c5.212-11.968,14.618-22.374,24.961-29.066
						c10.376-6.825,21.335-10.652,31.904-13.025c10.617-2.345,21-3.242,31.289-3.291l-21.015,24.858
						c-2.889-16.869,1.038-34.203,8.86-47.92c7.806-13.878,19.013-24.541,31.066-32.543l5.946,38.329
						c-7.756-2.299-18.36-4.833-29.229-13.038c-5.698-4.465-10.375-9.945-13.755-17.063c-1.662-3.558-2.951-7.57-3.532-11.978
						c-0.594-4.353-0.388-9.277,0.71-13.674c1.035-4.391,2.918-8.687,5.214-12.134c2.282-3.492,4.864-6.331,7.421-8.685
						c5.122-4.6,10.073-7.479,14.586-9.827c2.25-1.166,4.472-2.185,6.482-3.085l5.706-2.507l11.436-4.824
						c30.594-12.605,62.166-22.859,94.298-30.703c8.206-1.993,17.589-4.126,28.544-4.279c5.485-0.045,11.478,0.436,17.775,2.197
						c6.275,1.719,12.723,4.857,18.206,9.199c5.519,4.365,9.686,9.639,12.704,14.603c3.082,5.018,5.147,9.817,6.887,14.27
						c1.714,4.457,3.045,8.53,4.3,12.382l3.748,11.705c9.774,31.223,18.024,62.836,24.903,94.756l0.052,0.237l-16.945-16.477
						c20.459,3,40.277,6.05,59.395,7.223c19.116,1.223,37.572,0.411,54.465-3.615c16.933-4.23,32.81-11.476,44.571-21.954
						c5.985-5.194,10.7-11.082,14.595-17.815c3.918-6.704,6.927-14.263,9.025-22.48c4.119-16.523,4.717-35.212,3.719-54.438
						c-1.125-19.424-3.73-39.142-7.452-58.47c-3.79-19.363-8.161-38.656-13.191-57.963c-5.024-19.325-10.892-38.508-16.454-58.395
						l-0.048-0.172c-1.592-5.693,1.732-11.6,7.426-13.192c4.288-1.199,8.699,0.398,11.294,3.688
						c13.338,16.946,24.237,35.714,33.083,55.405c9.066,19.628,15.881,40.289,20.957,61.364c4.84,21.176,8.43,42.482,10.463,64.344
						c2.016,21.982,1.972,45.214-3.485,69.065c-2.804,11.885-7.175,23.878-13.513,35.161c-6.28,11.3-14.849,21.659-24.484,30.059
						c-19.34,17.07-42.477,27.128-65.723,32.35c-23.524,5.287-46.989,5.273-69.058,3.026c-22.171-2.225-43.135-6.753-63.369-11.281
						l-0.713-0.16c-8.38-1.875-14.502-8.451-16.233-16.32l-0.05-0.228c-6.61-30.676-14.55-61.088-23.907-90.977l-3.574-11.163
						c-1.219-3.761-2.395-7.292-3.559-10.306c-2.288-6.127-4.852-9.827-6.343-10.856c-0.821-0.592-1.663-1.093-3.104-1.505
						c-1.415-0.421-3.479-0.673-5.987-0.643c-5.087,0.042-11.496,1.23-18.805,3.063c-30.075,7.343-59.58,16.925-88.194,28.715
						l-10.688,4.509l-5.287,2.322c-1.642,0.735-3.058,1.389-4.361,2.067c-2.594,1.313-4.526,2.649-5.364,3.414
						c-0.819,0.841-0.221,0.414,0.098-0.78c0.317-1.32-0.078-2.561-0.024-2.284c0.027,0.132,0.623,0.966,1.235,1.406
						c1.931,1.643,7.097,3.696,14.652,5.703c11.304,3.002,18.034,14.598,15.032,25.902c-1.379,5.193-4.572,9.42-8.718,12.183
						l-0.369,0.245c-7.468,4.961-13.584,11.111-17.301,17.775c-3.746,6.667-5.046,13.588-4.006,19.974l0.02,0.12
						c1.893,11.617-5.99,22.57-17.606,24.463c-1.112,0.181-2.337,0.27-3.429,0.277c-15.153,0-30.43,3.021-39.663,9.233
						c-4.624,3.083-7.629,6.554-9.616,11.007c-2,4.447-2.863,10.236-2.837,16.771l-18.653-20.453
						c10.463,1.298,20.86,2.25,31.301,2.756c10.446,0.525,20.985,0.587,31.981,0.579c9.215-0.007,17.068,5.841,20.037,14.032
						l0.033,0.107c8.65,24.008,22.042,46.25,39.499,64.222c17.398,17.972,38.929,31.533,62.253,37.991
						c23.257,6.512,48.738,6.03,72.444-0.735c23.712-6.727,45.679-19.739,62.095-37.487c5.829-6.301,14.582-8.282,22.242-5.786
						l0.753,0.253l0.057,0.018c58.205,20.062,124.649,19.25,184.463,1.954c29.942-8.655,58.345-22.122,82.692-40.387
						c24.523-18.143,44.06-41.407,58.215-68.406c14.212-26.913,23.305-57.067,27.362-88.195c4.139-31.207,3.851-62.942-0.343-94.822
						c-7.95-63.955-31.033-126.023-45.092-192.19c-1.483-6.976,2.971-13.834,9.948-15.316
						C2720.619,2335.967,2726.38,2338.901,2728.972,2343.973z"/>
				</g>
				<g>
					<path style="fill:#000072;" d="M2147.613,2642.854c11.108-3.35,22.643-6.891,35.143-9.386
						c12.433-2.512,26.033-3.567,38.987-1.766c7.114,0.99,12.08,7.559,11.091,14.673c-0.833,5.994-5.627,10.461-11.37,11.129
						l-0.391,0.043c-9.798,1.138-18.859,4.216-28.046,8.584c-9.173,4.359-18.503,9.921-28.179,15.71
						c-10.176,6.093-23.365,2.782-29.458-7.394c-6.093-10.176-2.782-23.364,7.394-29.457
						C2144.3,2644.082,2145.996,2643.353,2147.613,2642.854z"/>
				</g>
				<g>
					<path style="fill:#000072;" d="M2128.037,2699.572c11.029,3.396,21.898,7.416,32.302,12.163
						c10.415,4.731,20.299,10.187,29.638,15.997c4.134,2.572,5.401,8.009,2.829,12.142c-1.944,3.125-5.524,4.612-8.942,4.041
						l-0.033-0.007c-20.776-3.495-40.791-4.026-60.641-1.987c-11.985,1.23-22.699-7.488-23.93-19.473s7.487-22.699,19.472-23.931
						c2.968-0.304,5.858,0.001,8.545,0.814L2128.037,2699.572z"/>
				</g>
			</g>
			<g style="opacity:0.2;">
				<path style="fill:#000072;" d="M2714.073,2781.035c-38.902,45.194-95.528,72.665-154.015,84.185
					c-58.486,11.476-119.011,8.02-169.921-10.678c-37.706,40.763-98.231,58.797-152.109,45.371
					c-53.878-13.425-98.851-57.778-119.897-116.663c-19.186,0-38.326-0.044-65.93-3.5c-0.31-9.039,0.975-16.748,3.367-23.261
					c31.813-6.336,64.468-8.241,96.813-5.583c22.863,36.111,62.43,61.057,104.832,66.108c42.403,5.095,86.755-9.837,117.46-39.479
					c106.472,53.347,246.131,15.508,322.074-76.254c28.756-34.737,48.827-76.165,60.037-119.764
					c4.918-19.141,8.153-38.725,9.792-58.442c3.633,17.546,6.115,32.744,7.045,44.618
					C2779.472,2643.238,2763.521,2723.568,2714.073,2781.035z"/>
			</g>
			<g>
				<g>
					<path style="fill:#FFFFFF;" d="M1497.604,2071.061c12.388,16.412,22.138,34.702,30.598,53.513
						c2.299,4.656,3.934,9.532,5.925,14.315c1.98,4.789,3.711,9.661,5.417,14.556c3.48,9.775,6.097,19.807,8.999,29.821
						c1.275,5.045,2.296,10.148,3.455,15.236c0.543,2.549,1.17,5.088,1.644,7.654l1.24,7.731c0.804,5.161,1.708,10.321,2.387,15.51
						l1.501,15.652l0.709,7.843l0.231,7.88l0.358,15.78c-0.304,10.521-0.771,21.08-1.848,31.571
						c-0.665,5.242-1.42,10.472-2.219,15.691l-1.173,7.83l-1.161,7.22c-1.601,9.535-3.41,19.073-4.375,28.68
						c-2.613,19.2-3.132,38.546-2.763,57.911c0.396,19.39,2.521,38.779,6.408,58.019c1,4.796,2.104,9.59,3.227,14.414
						c1.426,4.689,2.507,9.584,4.096,14.277c2.992,9.492,6.395,18.938,10.965,28.082c-7.461-7.053-13.778-15.411-19.277-24.185
						c-5.717-8.718-10.281-18.099-14.598-27.64c-8.192-19.232-14.034-39.63-17.161-60.416c-3.149-20.769-4.548-41.918-3.56-62.898
						c0.267-5.238,0.065-10.559,0.731-15.752l1.611-15.664l1.629-14.937c0.499-4.779,1.042-9.547,1.675-14.305
						c3.798-38.239,2.959-77.069-1.289-116.06C1516.221,2149.442,1508.724,2110.387,1497.604,2071.061z"/>
				</g>
				<g>
					<path style="fill:#FFFFFF;" d="M1571.225,1973.09c9.187,9.216,17.246,19.474,24.391,30.165
						c7.209,10.693,13.762,21.821,19.602,33.307c11.735,22.957,20.878,47.238,27.779,72.241c1.676,6.265,2.962,12.617,4.458,18.944
						c0.691,3.174,1.517,6.329,2.094,9.526l1.516,9.639c0.974,6.434,2.112,12.863,2.848,19.338c0.584,6.5,1.078,13.014,1.452,19.535
						c0.208,3.258,0.431,6.519,0.548,9.78l-0.086,9.821c-0.184,6.547-0.315,13.091-0.666,19.619
						c-0.345,6.531-1.372,13.053-2.162,19.55l-1.353,9.728c-0.474,3.236-0.852,6.473-1.67,9.675
						c-1.401,6.421-2.889,12.808-4.416,19.161l-2.266,9.514l-2.202,8.701l-4.464,17.323c-1.664,5.792-2.305,11.661-3.518,17.526
						c-4.818,23.486-5.959,47.434-5.838,71.428c0.182,24.031,3.049,48.08,8.295,71.791c1.362,5.911,2.983,11.765,4.552,17.666
						c1.938,5.747,3.503,11.704,5.745,17.382c4.148,11.516,9.069,22.844,15.551,33.409c-8.257-9.276-15.243-19.758-21.498-30.62
						c-3.328-5.359-5.934-11.06-8.883-16.654c-2.595-5.72-5.261-11.462-7.673-17.306c-9.552-23.418-16.444-48.11-20.577-73.296
						c-4.189-25.172-6.407-50.831-6.814-76.567c-0.613-12.939-0.088-25.789,0.246-38.771l0.267-9.661l0.119-8.86
						c0.063-5.895,0.165-11.757,0.354-17.584l-0.474-34.983c-0.354-5.823-0.487-11.631-0.674-17.435l-0.136-8.706
						c-0.239-2.903-0.373-5.809-0.522-8.716c-0.34-5.809-0.559-11.627-0.688-17.458l-1.169-17.496
						c-0.521-11.705-2.002-23.372-2.793-35.181c-2.477-23.508-5.28-47.236-8.532-71.362
						C1578.699,2023.034,1574.923,1998.737,1571.225,1973.09z"/>
				</g>
			</g>
		</g>
		<path style="fill:#FFFFFF;" d="M363.622,1165h765.335c5.141-19.358,7.873-39.715,7.873-60.718
			c0-130.542-105.838-236.351-236.38-236.351c-104.516,0-193.17,67.827-224.366,161.885
			c-33.164-31.226-77.844-50.319-126.988-50.319C446.665,979.497,363.622,1062.54,363.622,1165z"/>
	</g>
</g>
</svg>
