<?xml version="1.0" encoding="utf-8"?>
<!-- Generator: Adobe Illustrator 27.5.0, SVG Export Plug-In . SVG Version: 6.00 Build 0)  -->
<svg version="1.1" id="Layer_1" xmlns="http://www.w3.org/2000/svg" xmlns:xlink="http://www.w3.org/1999/xlink" x="0px" y="0px"
	 viewBox="0 0 4000 4000" style="enable-background:new 0 0 4000 4000;" xml:space="preserve">
<g>
	<g>
		<!-- <rect x="0" y="0" style="fill:#37DBFF;" width="4000" height="4000"/> -->
	</g>
	<g>
		<g>
			<path style="fill:#E5A241;" d="M2819.613,2624.071c0,0-5.833,9.343-17.595,23.665c-49.038,59.755-200.99,206.348-460.074,122.689
				l38.414-103.671l6.545-17.69l16.029-43.299c0,0,127.859,75.549,258.706-43.774c3.178-2.893,6.403-5.928,9.58-9.058l41.497,19.871
				l68.482,32.818L2819.613,2624.071z"/>
		</g>
		<g style="opacity:0.6;">
			<path style="fill:#FFFFFF;" d="M2712.716,2572.804v0.048c-135.21,164.376-325.813,76.212-325.813,76.212l16.029-43.299
				c0,0,127.859,75.549,258.706-43.774c3.178-2.893,6.403-5.928,9.58-9.058L2712.716,2572.804z"/>
		</g>
		<g style="opacity:0.2;">
			<path style="fill:#5E2323;" d="M2819.613,2624.071c0,0-5.833,9.343-17.595,23.665c-49.038,59.755-200.99,206.348-460.074,122.689
				l38.414-103.671c0,0,66.918,73.556,189.844,51.029c122.927-22.574,130.657-112.73,130.657-112.73s0,0,0.048,0.047
				c2.086,1.043,51.551,26.131,80.291,0.521L2819.613,2624.071z"/>
		</g>
		<g>
			<path style="fill:#5E2323;" d="M2492.308,2814.383c-46.89,0-98.994-7.456-156.179-25.913c-4.919-1.587-8.979-5.117-11.238-9.766
				c-2.258-4.653-2.52-10.024-0.723-14.873l60.972-164.634c1.953-5.273,6.145-9.409,11.443-11.289
				c5.295-1.875,11.16-1.318,15.999,1.543c4.941,2.876,123.733,69.727,245.332-50.029c5.696-5.605,14.302-7.046,21.511-3.589
				l148.374,71.138c4.871,2.334,8.516,6.636,10.02,11.821c1.504,5.19,0.725,10.771-2.141,15.347
				c-1.692,2.705-42.388,66.797-124.419,118.066C2660.579,2783.88,2587.132,2814.383,2492.308,2814.383z M2366.739,2758.128
				c119.507,34.038,228.098,21.548,323.037-37.241c50.344-31.172,84.119-68.286,101.045-89.57l-116.018-55.625
				c-108.389,99.043-217.136,72.896-261.152,55.767L2366.739,2758.128z"/>
		</g>
		<g>
			<g>
				<path style="fill:#FFFFFF;" d="M2998.455,2487.912c0,0-30.494,99.594-119.892,97.554c0,0,2.514,74.174-76.544,62.27
					c-21.436-3.178-48.896-12.71-84.038-31.775c-5.786-3.13-11.43-6.735-16.883-10.766c-0.095-0.048-0.142-0.094-0.19-0.094
					c-0.048-0.047-0.048-0.047-0.048-0.047c-16.219-11.809-30.352-26.938-39.221-43.063c-16.172-29.356-14.797-62.033,23.808-84.275
					c0,0-62.981-144.268,60.989-188.99c0,0-7.398-135.827,22.053-199.614c8.347-18.07,19.634-30.305,34.858-32.107
					c69.098-8.11,65.021,170.732,65.021,170.732s0-0.047,0.048-0.143c1.849-4.41,45.338-108.936,86.267-138.909
					c8.774-6.402,17.405-9.39,25.515-7.303c46.714,12.188,42.683,117.9-12.236,203.265c0,0,1.992,1.281,5.264,3.794
					C2993.617,2304.423,3063.332,2370.439,2998.455,2487.912z"/>
				<path style="fill:#5E2323;" d="M2818.338,2651.532c-5.269,0-10.835-0.439-16.692-1.323
					c-23.54-3.491-52.092-14.272-84.858-32.051c-5.659-3.062-11.252-6.611-16.638-10.557h-0.317l-0.737-0.776
					c-16.702-12.124-30.886-27.705-39.646-43.628c-19.148-34.756-10.801-66.182,22.854-86.528
					c-5.017-12.388-28.53-76.084-5.496-129.602c11.921-27.695,34.47-47.893,67.039-60.054
					c-0.815-17.151-5.483-138.618,22.373-198.948c9.46-20.483,21.851-31.77,36.833-33.542c11.328-1.333,21.514,2.019,30.239,9.961
					c33.042,30.071,37.214,118.374,37.6,151.094c13.018-29.326,48.564-104.194,82.312-128.909c9.963-7.271,19.255-9.858,27.615-7.71
					c12.336,3.22,21.907,12.749,27.686,27.561c16.387,42.009,0.42,117.9-37.139,177.434c0.884,0.627,2.026,1.462,3.381,2.505
					c22.566,17.683,91.038,84.482,26.016,202.451c-1.843,5.674-33.621,99.087-119.531,99.087c-0.059,0-0.12,0-0.181,0
					c-0.229,8.13-2.473,33.086-20.725,49.341C2849.72,2646.781,2835.64,2651.532,2818.338,2651.532z M2702.279,2602.992l0.024,0.015
					c5.642,4.141,11.223,7.7,16.865,10.757c32.253,17.495,60.251,28.096,83.215,31.504c23.545,3.535,41.917-0.366,54.59-11.641
					c19.839-17.642,19.102-47.773,19.092-48.076l-0.085-2.642l2.639,0.059c0.867,0.02,1.741,0.029,2.595,0.029
					c84.463,0.01,114.553-94.849,114.851-95.815l0.203-0.479c63.313-114.644-2.813-179.229-24.587-196.294
					c-3.105-2.388-5.022-3.628-5.073-3.66l-2.102-1.353l1.353-2.102c37.703-58.606,54.036-133.821,37.988-174.958
					c-5.244-13.445-13.416-21.702-24.282-24.536c-6.836-1.765-14.722,0.564-23.408,6.904
					c-38.809,28.42-80.713,126.582-85.364,137.681l-1.848-0.615l-3.076-0.034l0.01-0.598c0.132-8.987,1.067-125.271-35.952-158.958
					c-7.712-7.017-16.301-9.861-26.289-8.691c-13.135,1.555-24.197,11.875-32.876,30.671
					c-28.855,62.488-21.902,197.075-21.829,198.428l0.103,1.858l-1.748,0.63c-32.146,11.597-54.309,31.094-65.876,57.947
					c-24.241,56.284,6.021,126.982,6.331,127.69l0.894,2.051l-1.938,1.118c-44.536,25.664-33.442,61.704-22.866,80.903
					C2672.235,2576.063,2685.887,2591.053,2702.279,2602.992z"/>
			</g>
			<g style="opacity:0.2;">
				<path style="fill:#5E2323;" d="M2967.96,2284.646c0,0,1.992,1.281,5.264,3.794c-27.98,29.736-46.002,65.731-48.469,70.806
					c67.297-155.176,29.926-270.563,29.926-270.563c8.774-6.402,17.405-9.39,25.515-7.303
					C3026.91,2093.569,3022.879,2199.281,2967.96,2284.646z"/>
			</g>
			<g style="opacity:0.2;">
				<path style="fill:#5E2323;" d="M2967.96,2284.646c55.393,144.363-28.266,166.89-28.266,166.89
					c0.159,15.015-2.26,28.176-6.564,39.713c-9.497,25.455-34.747,41.708-61.858,39.938
					c-197.685-12.903-176.705-208.173-176.705-208.173s-60.394,98.318,11.28,186.814c26.895,33.207,61.649,52.151,94.577,62.861
					c-1.214,0.112-1.914,0.161-1.914,0.161c-3.415,15.508-9.628,25.942-17.311,32.771c-28.123,25.088-76.165,1.565-80.101-0.427
					c5.454,4.031,11.097,7.635,16.883,10.766c35.142,19.065,62.602,28.598,84.038,31.775c75.231,11.328,76.595-55.243,76.551-61.719
					c16.24,0.533,26.44-0.487,26.44-0.487v-2.659c69.036-15.423,93.445-94.959,93.445-94.959
					C3073.671,2351.706,2967.96,2284.646,2967.96,2284.646z"/>
			</g>
			<g style="opacity:0.2;">
				<path style="fill:#5E2323;" d="M2868.367,2227.736L2868.367,2227.736c-18.176,3.85-35.825-8.427-38.486-26.815
					c-4.888-33.777-19.295-84.111-61.392-111.81c8.347-18.07,19.634-30.305,34.858-32.107
					C2872.445,2048.895,2868.367,2227.736,2868.367,2227.736z"/>
			</g>
			<g style="opacity:0.2;">
				<path style="fill:#5E2323;" d="M2866.865,2308.857c0,0-37.147,59.57-120.438,50.2c0,0,27.703,31.596,66.057,30.264
					C2850.837,2387.99,2893.764,2382.357,2866.865,2308.857z"/>
			</g>
			<g>
				<path style="fill:#5E2323;" d="M2818.529,2667.972c-29.604,0-66.265-11.802-109.609-35.342c-0.002,0-0.002,0-0.002,0
					c-37.439-20.337-75.459-60.332-76.008-103.843c-0.21-16.636,5.144-39.248,29.592-58.467
					c-8.528-26.025-21.714-81.245-0.83-129.766c12.344-28.674,34.275-50.286,65.291-64.387c-0.576-20.359-0.938-60.718,3.13-102.117
					c8.528-86.831,31.765-131.279,71.035-135.886c16.062-1.887,31.011,3.005,43.245,14.136
					c22.942,20.881,33.733,63.025,38.757,100.962c2.317-4.241,4.722-8.523,7.2-12.795c35.112-60.515,65.176-85.139,94.644-77.444
					c12.312,3.213,29.043,12.327,38.867,37.51c17.249,44.221,4.097,117.654-31.145,179.829
					c29.099,26.775,86.367,99.119,23.281,215.037c-11.873,36.646-50.618,100.313-120.22,108.247
					c-3.086,16.235-11.458,39.165-33.994,53.091C2849.635,2664.227,2835.198,2667.972,2818.529,2667.972z M2727.025,2599.291
					c71.799,38.989,102.637,32.578,114.619,25.273c18.289-11.133,17.952-38.306,17.947-38.579
					c-0.105-5.171,1.904-10.229,5.566-13.882s8.599-5.728,13.828-5.601c73.718,1.533,100.242-80.684,101.335-84.189
					c0.381-1.221,0.901-2.451,1.519-3.569c65.298-118.242-20.449-175.74-24.131-178.13c-8.765-5.686-11.365-17.444-5.713-26.23
					c38.552-59.924,48.831-128.44,36.497-160.061c-3.218-8.252-7.625-13.159-13.096-14.587c-0.117,0-16.785-1.262-52.085,59.487
					c-21.245,36.558-37.246,75.332-37.405,75.72c-3.474,8.455-12.488,13.218-21.428,11.357c-8.945-1.87-15.288-9.854-15.085-18.992
					c0.999-45.156-6.414-124.985-30.566-146.953c-4.143-3.767-8.13-5.11-13.276-4.509c-30.703,3.604-45.564,112.449-40.181,211.848
					c0.452,8.362-4.629,16.033-12.505,18.875c-28.03,10.112-46.438,26.089-56.282,48.843
					c-21.433,49.543,5.974,114.099,6.255,114.744c3.823,8.843,0.422,19.185-7.927,23.994c-16.365,9.434-24.236,20.605-24.065,34.16
					c0.293,23.228,24.446,53.745,56.182,70.981H2727.025z"/>
			</g>
			<g>
				<path style="fill:#5E2323;" d="M2873.844,2604.515c-27.935,0-149.275-6.621-205.344-118.262
					c-4.702-9.365-0.923-20.767,8.44-25.469c9.36-4.702,20.764-0.923,25.466,8.438c51.018,101.592,170.208,97.485,175.254,97.285
					c10.525-0.332,19.326,7.622,19.81,18.071c0.486,10.449-7.559,19.316-18.005,19.824
					C2878.863,2604.432,2876.92,2604.515,2873.844,2604.515z"/>
			</g>
			<g>
				<path style="fill:#5E2323;" d="M2742.405,2271.68c6.404-1.426,11.809-2.314,17.704-3.157c5.786-0.803,11.586-1.45,17.438-1.865
					c11.7-0.828,23.574-0.942,35.701,0.261c12.087,1.167,24.537,3.689,36.842,8.821c6.151,2.542,12.19,6.025,17.905,10.166
					c5.651,4.331,10.846,9.521,15.149,15.457c8.562,11.912,12.555,26.484,13.691,39.175c0.565,6.641,0.552,13.677-0.745,21.064
					c-1.284,7.349-4.159,15.205-9.049,22.021c-4.836,6.846-11.45,12.271-18.243,15.903c-6.836,3.682-13.77,5.784-20.47,7.102
					c-6.719,1.292-13.251,1.941-19.667,2.004c-3.214,0.071-6.395-0.007-9.585-0.195c-1.598-0.088-3.19-0.217-4.813-0.381
					c-1.715-0.178-3.032-0.31-5.297-0.686c-10.015-1.66-16.787-11.123-15.128-21.138c1.643-9.91,10.927-16.646,20.823-15.178
					l0.519,0.078c1.664,0.247,2.311,0.408,3.289,0.601c0.972,0.188,1.713,0.398,2.551,0.603c1.675,0.4,3.204,0.903,4.725,1.406
					c3.086,0.986,5.95,2.178,8.806,3.445c2.787,1.357,5.568,2.734,8.157,4.358c2.694,1.492,5.193,3.237,7.595,5.098
					c9.764,7.244,17.716,16.401,23.948,26.199c6.15,9.9,10.214,20.613,12.761,31.362c0.853,2.627,1.018,5.42,1.466,8.113
					c0.376,2.712,0.796,5.388,1.036,8.088c0.221,5.43,0.2,10.833-0.175,16.172c-0.234,3.328-3.12,5.833-6.445,5.601
					c-1.973-0.139-3.657-1.211-4.652-2.754l-0.337-0.53c-2.777-4.363-5.089-8.699-7.358-12.947c-2.661-4.072-4.862-8.237-7.396-12.1
					c-2.646-3.787-4.96-7.686-7.8-11.079c-2.534-3.628-5.43-6.824-8.204-10.015c-5.725-6.201-11.832-11.565-18.358-15.942
					c-3.271-2.175-6.6-4.165-10.04-5.752c-1.681-0.813-3.417-1.624-5.076-2.202c-0.84-0.32-1.677-0.623-2.427-0.84
					c-0.367-0.117-0.819-0.288-1.074-0.344c-0.244-0.076-0.811-0.212-0.382-0.161l6.213-36.24c0.42,0.117,1.805,0.374,2.798,0.527
					c1.084,0.178,2.207,0.337,3.33,0.464c2.247,0.269,4.523,0.464,6.766,0.544c4.496,0.166,8.899-0.02,12.91-0.737
					c4.008-0.701,7.653-1.809,10.411-3.367c2.803-1.536,4.788-3.269,6.281-5.337c6.254-7.185,4.263-31.23-3.832-41.655
					c-8.011-11.782-25.671-18.174-44.862-19.963c-9.606-0.962-19.642-0.901-29.709-0.183c-5.037,0.356-10.09,0.92-15.115,1.619
					c-4.913,0.681-10.281,1.611-14.531,2.559l-0.432,0.098c-9.434,2.102-18.784-3.84-20.886-13.274
					S2732.971,2273.782,2742.405,2271.68z"/>
			</g>
			<g>
				<path style="fill:#5E2323;" d="M2998.446,2505.414c-1.592,0-3.203-0.215-4.795-0.669c-42.38-12.075-69.626-34.707-80.981-67.256
					c-24.534-70.322,38.367-159.285,41.057-163.037c5.41-7.544,15.757-9.553,23.599-4.583c1.196,0.759,118.667,77.605,36.44,226.506
					C3010.626,2502.059,3004.693,2505.414,2998.446,2505.414z M2972.093,2310.626c-16.877,28.948-38.977,79.333-26.357,115.388
					c6.353,18.154,20.813,31.504,44.033,40.566C3029.779,2383.104,2993.812,2331.842,2972.093,2310.626z"/>
			</g>
		</g>
		<g>
			<path style="fill:#E5A241;" d="M1180.387,2624.071c0,0,5.833,9.343,17.595,23.665c49.038,59.755,200.99,206.348,460.075,122.689
				l-38.414-103.671l-6.545-17.69l-16.029-43.299c0,0-127.859,75.549-258.706-43.774c-3.178-2.893-6.403-5.928-9.58-9.058
				l-41.497,19.871l-68.482,32.818L1180.387,2624.071z"/>
		</g>
		<g style="opacity:0.6;">
			<path style="fill:#FFFFFF;" d="M1287.284,2572.804v0.048c135.21,164.376,325.813,76.212,325.813,76.212l-16.029-43.299
				c0,0-127.859,75.549-258.706-43.774c-3.178-2.893-6.403-5.928-9.58-9.058L1287.284,2572.804z"/>
		</g>
		<g style="opacity:0.2;">
			<path style="fill:#5E2323;" d="M1180.387,2624.071c0,0,5.833,9.343,17.595,23.665c49.038,59.755,200.99,206.348,460.075,122.689
				l-38.414-103.671c0,0-66.918,73.556-189.844,51.029c-122.927-22.574-130.657-112.73-130.657-112.73s0,0-0.047,0.047
				c-2.086,1.043-51.551,26.131-80.291,0.521L1180.387,2624.071z"/>
		</g>
		<g>
			<path style="fill:#5E2323;" d="M1507.694,2814.383c-94.836,0-168.269-30.503-218.95-62.178
				c-82.034-51.27-122.729-115.361-124.421-118.062c-2.866-4.58-3.645-10.161-2.141-15.352c1.504-5.186,5.149-9.487,10.019-11.821
				l148.374-71.138c7.212-3.462,15.811-2.021,21.511,3.589c122.334,120.479,244.116,50.742,245.332,50.029
				c4.841-2.861,10.703-3.418,15.999-1.543c5.298,1.88,9.49,6.016,11.44,11.289l60.976,164.634
				c1.797,4.849,1.536,10.22-0.723,14.873c-2.258,4.648-6.318,8.179-11.238,9.766
				C1606.698,2806.927,1554.576,2814.383,1507.694,2814.383z M1209.178,2631.317c16.919,21.274,50.693,58.389,101.045,89.57
				c94.944,58.789,203.54,71.274,323.039,37.241l-46.914-126.67c-44.016,17.119-152.759,43.281-261.152-55.767L1209.178,2631.317z"
				/>
		</g>
		<g>
			<g>
				<path style="fill:#FFFFFF;" d="M1001.545,2487.912c0,0,30.494,99.594,119.892,97.554c0,0-2.514,74.174,76.544,62.27
					c21.436-3.178,48.896-12.71,84.038-31.775c5.786-3.13,11.43-6.735,16.883-10.766c0.095-0.048,0.142-0.094,0.19-0.094
					c0.047-0.047,0.047-0.047,0.047-0.047c16.219-11.809,30.352-26.938,39.221-43.063c16.172-29.356,14.797-62.033-23.808-84.275
					c0,0,62.981-144.268-60.989-188.99c0,0,7.398-135.827-22.053-199.614c-8.347-18.07-19.634-30.305-34.858-32.107
					c-69.099-8.11-65.021,170.732-65.021,170.732s0-0.047-0.047-0.143c-1.849-4.41-45.338-108.936-86.267-138.909
					c-8.774-6.402-17.405-9.39-25.515-7.303c-46.714,12.188-42.683,117.9,12.235,203.265c0,0-1.991,1.281-5.264,3.794
					C1006.383,2304.423,936.668,2370.439,1001.545,2487.912z"/>
				<path style="fill:#5E2323;" d="M1181.661,2651.532c-17.302,0-31.379-4.751-41.987-14.194
					c-18.252-16.255-20.496-41.211-20.725-49.341c-0.061,0-0.122,0-0.181,0c-85.923,0-117.686-93.413-119.529-99.087
					c-65.022-117.974,3.447-184.768,25.994-202.437c1.365-1.05,2.515-1.89,3.401-2.52c-37.559-59.534-53.525-135.427-37.139-177.437
					c5.779-14.81,15.349-24.338,27.676-27.556c8.372-2.153,17.664,0.435,27.622,7.705c33.794,24.749,69.316,99.6,82.317,128.904
					c0.386-32.729,4.561-121.018,37.598-151.086c8.726-7.942,18.911-11.294,30.237-9.961c14.983,1.772,27.375,13.059,36.838,33.542
					c27.854,60.33,23.188,181.797,22.373,198.948c32.568,12.161,55.115,32.358,67.036,60.054
					c23.035,53.513-0.478,117.214-5.493,129.602c33.652,20.347,42,51.772,22.851,86.528c-8.755,15.918-22.939,31.504-39.936,43.877
					l-0.732,0.732l-0.225-0.059c-5.264,3.848-10.823,7.368-16.448,10.41c-32.759,17.778-61.311,28.56-84.861,32.051
					C1192.494,2651.092,1186.927,2651.532,1181.661,2651.532z M1124.019,2582.909l-0.085,2.642
					c-0.01,0.303-0.745,30.435,19.094,48.076c12.673,11.265,31.04,15.186,54.583,11.641c22.974-3.408,50.969-14.009,83.218-31.504
					c5.647-3.057,11.228-6.616,16.587-10.581l0.591-0.352c16.453-12.158,29.868-26.963,38.164-42.046
					c10.576-19.199,21.672-55.239-22.864-80.903l-1.938-1.118l0.894-2.051c0.31-0.708,30.571-71.406,6.328-127.69
					c-11.565-26.853-33.728-46.35-65.874-57.947l-1.748-0.63l0.103-1.858c0.073-1.353,7.024-135.94-21.829-198.428
					c-8.682-18.796-19.746-29.116-32.881-30.671c-9.988-1.182-18.577,1.675-26.287,8.691c-38.32,34.873-35.969,158.257-35.94,159.5
					h-0.007l0.007,0.056l-2.566,0.029l-2.207,0.969c-4.79-11.421-46.653-109.568-85.52-138.032
					c-8.689-6.343-16.565-8.66-23.416-6.899c-10.857,2.832-19.026,11.086-24.272,24.534c-16.045,41.135,0.286,116.35,37.988,174.958
					l1.353,2.102l-2.102,1.353c-0.051,0.032-1.968,1.272-5.093,3.674c-21.755,17.048-87.881,81.636-24.565,196.279l0.203,0.479
					c0.3,0.977,31.023,97.856,117.444,95.786L1124.019,2582.909z"/>
			</g>
			<g style="opacity:0.2;">
				<path style="fill:#5E2323;" d="M1032.04,2284.646c0,0-1.991,1.281-5.264,3.794c27.981,29.736,46.002,65.731,48.469,70.806
					c-67.297-155.176-29.926-270.563-29.926-270.563c-8.774-6.402-17.405-9.39-25.515-7.303
					C973.09,2093.569,977.121,2199.281,1032.04,2284.646z"/>
			</g>
			<g style="opacity:0.2;">
				<path style="fill:#5E2323;" d="M1032.04,2284.646c-55.393,144.363,28.266,166.89,28.266,166.89
					c-0.159,15.015,2.259,28.176,6.564,39.713c9.497,25.455,34.747,41.708,61.859,39.938
					c197.685-12.903,176.705-208.173,176.705-208.173s60.394,98.318-11.28,186.814c-26.894,33.207-61.648,52.151-94.577,62.861
					c1.214,0.112,1.914,0.161,1.914,0.161c3.415,15.508,9.628,25.942,17.311,32.771c28.123,25.088,76.165,1.565,80.101-0.427
					c-5.453,4.031-11.097,7.635-16.883,10.766c-35.142,19.065-62.602,28.598-84.038,31.775
					c-75.231,11.328-76.595-55.243-76.551-61.719c-16.239,0.533-26.44-0.487-26.44-0.487v-2.659
					c-69.036-15.423-93.445-94.959-93.445-94.959C926.329,2351.706,1032.04,2284.646,1032.04,2284.646z"/>
			</g>
			<g style="opacity:0.2;">
				<path style="fill:#5E2323;" d="M1131.633,2227.736L1131.633,2227.736c18.176,3.85,35.826-8.427,38.487-26.815
					c4.888-33.777,19.295-84.111,61.392-111.81c-8.347-18.07-19.634-30.305-34.858-32.107
					C1127.555,2048.895,1131.633,2227.736,1131.633,2227.736z"/>
			</g>
			<g style="opacity:0.2;">
				<path style="fill:#5E2323;" d="M1133.135,2308.857c0,0,37.147,59.57,120.438,50.2c0,0-27.703,31.596-66.057,30.264
					C1149.162,2387.99,1106.236,2382.357,1133.135,2308.857z"/>
			</g>
			<g>
				<path style="fill:#5E2323;" d="M1181.471,2667.972c-16.672,0-31.101-3.745-43.23-11.235
					c-22.537-13.926-30.908-36.855-33.994-53.086c-69.612-7.93-108.35-71.606-120.222-108.252
					c-63.086-115.918-5.818-188.262,23.281-215.034c-35.242-62.178-48.393-135.61-31.145-179.832
					c9.824-25.183,26.555-34.297,38.862-37.507c29.473-7.695,59.541,16.926,94.648,77.441c2.481,4.272,4.883,8.555,7.2,12.798
					c5.027-37.939,15.818-80.083,38.76-100.964c12.236-11.133,27.19-16.006,43.245-14.136c39.27,4.607,62.507,49.055,71.035,135.886
					c4.065,41.401,3.704,81.758,3.127,102.117c31.016,14.102,52.947,35.713,65.291,64.387c20.884,48.521,7.698,103.74-0.83,129.766
					c24.448,19.219,29.805,41.831,29.595,58.467c-0.552,43.511-38.574,83.506-76.011,103.843h-0.002
					C1247.74,2656.17,1211.075,2667.972,1181.471,2667.972z M1121.446,2566.498c5.061,0,9.919,2.021,13.486,5.63
					c3.669,3.706,5.649,8.765,5.474,13.979c-0.002,0.151-0.339,27.324,17.949,38.457c11.992,7.295,42.825,13.721,114.619-25.273
					c31.733-17.236,55.886-47.754,56.179-70.981c0.173-13.555-7.7-24.727-24.065-34.16c-8.372-4.824-11.78-15.171-7.913-24.023
					c0.266-0.615,27.673-65.171,6.24-114.714c-9.844-22.754-28.252-38.73-56.282-48.843c-7.876-2.842-12.957-10.513-12.505-18.875
					c5.386-99.399-9.475-208.245-40.178-211.848c-5.168-0.61-9.136,0.745-13.276,4.509
					c-24.153,21.968-31.567,101.797-30.569,146.953c0.203,9.138-6.14,17.122-15.085,18.992c-8.953,1.858-17.957-2.905-21.428-11.36
					c-0.159-0.386-16.16-39.16-37.405-75.718c-35.32-60.784-51.912-59.524-52.09-59.485c-5.466,1.426-9.873,6.333-13.091,14.585
					c-12.334,31.621-2.056,100.137,36.497,160.061c2.732,4.248,3.657,9.412,2.571,14.346s-4.097,9.231-8.364,11.936
					c-3.601,2.339-89.348,59.836-24.05,178.079c0.635,1.147,1.148,2.358,1.533,3.613c1.067,3.428,27.117,84.17,99.107,84.17
					c0.737,0,1.467-0.01,2.214-0.024C1121.158,2566.498,1121.302,2566.498,1121.446,2566.498z M1282.027,2615.96h0.051H1282.027z"/>
			</g>
			<g>
				<path style="fill:#5E2323;" d="M1126.156,2604.515c-3.079,0-5.02-0.083-5.62-0.112c-10.464-0.508-18.535-9.404-18.025-19.868
					c0.505-10.449,9.28-18.535,19.829-18.027l0,0c5.037,0.2,124.236,4.302,175.256-97.285c4.702-9.36,16.099-13.14,25.466-8.438
					c9.363,4.702,13.142,16.104,8.44,25.469C1275.433,2597.889,1154.102,2604.515,1126.156,2604.515z"/>
			</g>
			<g>
				<path style="fill:#5E2323;" d="M1249.551,2305.742c-4.25-0.947-9.618-1.877-14.531-2.559
					c-5.025-0.698-10.078-1.262-15.115-1.619c-10.067-0.718-20.104-0.779-29.709,0.183c-19.191,1.79-36.85,8.181-44.862,19.963
					c-8.094,10.425-10.085,34.47-3.832,41.655c1.493,2.068,3.478,3.801,6.281,5.337c2.759,1.558,6.404,2.666,10.411,3.367
					c4.011,0.718,8.414,0.903,12.91,0.737c2.244-0.081,4.519-0.276,6.766-0.544c1.123-0.127,2.246-0.286,3.33-0.464
					c0.992-0.154,2.378-0.41,2.798-0.527l6.213,36.24c0.428-0.051-0.138,0.085-0.382,0.161c-0.255,0.056-0.707,0.227-1.074,0.344
					c-0.75,0.217-1.587,0.52-2.427,0.84c-1.659,0.579-3.395,1.389-5.076,2.202c-3.44,1.587-6.769,3.577-10.04,5.752
					c-6.526,4.377-12.633,9.741-18.358,15.942c-2.775,3.191-5.67,6.387-8.204,10.015c-2.841,3.394-5.154,7.292-7.8,11.079
					c-2.534,3.862-4.735,8.027-7.396,12.1c-2.269,4.248-4.581,8.584-7.358,12.947l-0.319,0.5c-1.79,2.815-5.521,3.643-8.334,1.853
					c-1.669-1.062-2.642-2.839-2.782-4.67c-0.375-5.339-0.396-10.742-0.175-16.172c0.24-2.7,0.66-5.376,1.036-8.088
					c0.448-2.693,0.613-5.486,1.466-8.113c2.548-10.75,6.611-21.462,12.761-31.362c6.232-9.797,14.183-18.955,23.948-26.199
					c2.402-1.86,4.901-3.606,7.595-5.098c2.589-1.624,5.37-3,8.157-4.358c2.856-1.267,5.72-2.458,8.806-3.445
					c1.521-0.503,3.051-1.006,4.725-1.406c0.839-0.205,1.58-0.415,2.551-0.603c0.978-0.193,1.625-0.354,3.289-0.601l0.502-0.076
					c10.04-1.494,19.392,5.432,20.886,15.474c1.479,9.934-5.305,19.197-15.174,20.84c-2.264,0.376-3.582,0.508-5.297,0.686
					c-1.624,0.164-3.215,0.293-4.813,0.381c-3.19,0.188-6.371,0.266-9.585,0.195c-6.416-0.063-12.948-0.713-19.667-2.004
					c-6.7-1.318-13.634-3.42-20.47-7.102c-6.793-3.633-13.407-9.058-18.243-15.903c-4.89-6.816-7.765-14.673-9.049-22.021
					c-1.296-7.388-1.31-14.424-0.745-21.064c1.136-12.69,5.129-27.263,13.691-39.175c4.303-5.935,9.498-11.125,15.149-15.457
					c5.715-4.141,11.754-7.625,17.905-10.166c12.305-5.132,24.755-7.654,36.842-8.821c12.126-1.204,24-1.089,35.701-0.261
					c5.852,0.415,11.652,1.062,17.438,1.865c5.895,0.842,11.3,1.731,17.704,3.157c9.434,2.102,15.376,11.453,13.274,20.886
					s-11.453,15.376-20.885,13.274h-0.001L1249.551,2305.742z"/>
			</g>
			<g>
				<path style="fill:#5E2323;" d="M1001.554,2505.414c-6.248,0-12.18-3.354-15.32-9.038
					c-82.227-148.901,35.244-225.747,36.44-226.506c7.842-4.976,18.191-2.961,23.599,4.583c2.69,3.752,65.591,92.715,41.06,163.037
					c-11.357,32.549-38.604,55.181-80.984,67.256C1004.757,2505.199,1003.145,2505.414,1001.554,2505.414z M1027.901,2310.621
					c-21.687,21.179-57.698,72.449-17.671,155.959c23.22-9.063,37.683-22.412,44.036-40.566
					C1066.883,2389.959,1044.786,2339.576,1027.901,2310.621z"/>
			</g>
		</g>
		<g>
			<g>
				<g>
					<path style="fill:#E5A241;" d="M2592.445,2172.675c0,0-7.92,28.55-22.243,76.924c-2.466,8.536-5.216,17.642-8.11,27.365
						c-0.806,2.75-1.66,5.501-2.514,8.347c0,0,0,0.047-0.048,0.142c-6.307,21.152-13.469,44.77-21.436,70.427
						c-7.54,24.471-15.792,50.745-24.661,78.442c0,0.189-0.095,0.379-0.142,0.568l-0.048,0.048
						c-7.872,24.756-16.219,50.651-25.04,77.399c-8.253,25.136-16.931,51.077-25.942,77.541c-2.324,6.782-4.648,13.658-6.972,20.535
						l-0.047,0.048c-6.402,18.638-12.947,37.466-19.681,56.484c-7.779,22.148-15.793,44.438-23.95,66.87
						c-1.186,3.225-2.371,6.45-3.51,9.675c-4.173,11.429-8.299,22.764-12.425,34.146c-5.122,14.133-10.244,28.171-15.319,42.209
						c-9.343,25.657-18.685,51.125-28.028,76.117c-4.79,12.948-9.627,25.752-14.512,38.463c-4.79,12.52-9.58,24.946-14.417,37.181
						c-10.102,25.657-20.346,50.651-30.685,74.695c-6.117,14.086-12.236,27.886-18.448,41.355
						c-5.027,10.86-10.055,21.483-15.223,31.87c-12.379,25.23-25.136,48.99-38.368,70.948
						c-14.797,24.708-30.163,47.093-46.24,66.775c-0.048,0-0.048,0.047-0.095,0.095c0,0-0.048,0.047-0.095,0.095
						c-19.586,23.997-40.264,43.916-62.269,58.95c-26.511,18.069-54.919,28.976-85.746,31.3h-0.047
						c-4.126,0.333-8.252,0.475-12.426,0.475c-4.884,0-9.722-0.19-14.512-0.616c-0.048,0-0.048-0.048-0.095-0.048
						c-30.068-2.608-58.666-13.279-86.077-30.732c-22.859-14.607-44.865-33.909-66.111-57.1c-3.889-4.221-7.73-8.631-11.524-13.089
						c-13.422-15.745-26.511-33.055-39.316-51.694c-14.607-21.246-28.882-44.295-42.778-68.814
						c-11.524-20.156-22.764-41.307-33.814-63.313l-0.047-0.047c-1.281-2.609-2.609-5.217-3.937-7.874
						c-11.619-23.475-23.049-47.804-34.241-72.892c-3.272-7.304-6.545-14.655-9.77-22.101c-7.493-17.073-14.844-34.383-22.1-51.979
						c-1.518-3.651-3.035-7.303-4.505-10.955c-3.889-9.485-7.778-19.018-11.62-28.645c-4.742-11.715-9.391-23.524-14.038-35.38
						c-7.303-18.686-14.512-37.466-21.673-56.389c-2.419-6.402-4.837-12.805-7.256-19.208c-3.557-9.39-7.066-18.733-10.529-28.076
						c-5.976-16.03-11.904-32.012-17.737-47.9c-9.485-25.8-18.781-51.267-27.744-76.26c-6.592-18.212-12.995-36.139-19.255-53.733
						v-0.048l-0.047-0.047c-2.656-7.635-5.358-15.271-8.015-22.764c-9.39-26.653-18.401-52.405-26.89-76.924
						c-9.485-27.317-18.354-53.164-26.464-77.161c-1.186-3.367-2.276-6.639-3.414-9.912c-0.617-1.802-1.186-3.557-1.803-5.312
						c0-0.047,0-0.047,0-0.047l-0.047-0.048c-7.635-22.717-14.654-43.584-20.867-62.175c-20.013-59.756-31.68-96.083-31.68-96.083
						l21.768-0.522l91.579-2.134l87.168-2.04h0.047l7.778-0.189l98.74-2.324l38.509-0.901l64.167-1.518l69.573-1.66h0.048
						l37.466-0.853l87.547-2.086h0.047l24.566-0.57l93.286-2.181l24.662-0.569l87.12-2.04l37.798-0.901l68.673-1.613l64.688-1.517
						l37.134-0.902l97.554-2.276L2592.445,2172.675z"/>
				</g>
				<g>
					<g>
						<g>
							<g>
								<path style="fill:#DD7833;" d="M1431.087,2303.487l-7.109-13.208c14.309-7.705,29.184-15.947,45.476-25.198
									c21.665-12.351,43.357-25.2,64.46-38.184c18.967-11.633,38.047-23.755,58.34-37.065l5.068-3.333l8.335,12.471l-7.051,4.634
									c-19.724,12.913-38.337,24.724-56.841,36.074c-21.238,13.066-43.074,26.001-64.893,38.442
									C1460.47,2287.433,1445.496,2295.729,1431.087,2303.487z"/>
							</g>
						</g>
						<g>
							<g>
								<polygon style="fill:#DD7833;" points="1391.204,2413.792 1391.158,2413.792 1391.158,2398.792 								"/>
							</g>
							<g>
								<path style="fill:#DD7833;" d="M1457.159,2381.009l-6.987-13.271c1.68-0.884,3.362-1.777,4.998-2.661
									c22.278-11.934,44.59-24.37,66.348-36.98c21.484-12.439,43.399-25.64,65.134-39.233
									c23.088-14.456,44.023-28.03,64.001-41.499c20.842-13.972,41.965-28.638,62.798-43.599
									c7.832-5.596,15.51-11.226,23.186-16.853l4.805,5.776l4.436,6.047c-8.098,5.938-15.825,11.604-23.691,17.224
									c-20.95,15.044-42.205,29.8-63.164,43.853c-20.103,13.552-41.177,27.219-64.414,41.768
									c-21.882,13.684-43.945,26.973-65.574,39.497c-21.897,12.69-44.358,25.21-66.753,37.207
									C1460.623,2379.183,1458.892,2380.096,1457.159,2381.009z"/>
							</g>
						</g>
						<g>
							<g>
								<path style="fill:#DD7833;" d="M1483.587,2458.192l-6.919-13.311c10.727-5.576,21.355-11.289,31.892-17.012
									c22.742-12.432,45.278-25.234,66.968-38.042c21.97-12.959,44.106-26.538,65.798-40.366
									c21.54-13.726,43.218-28.054,64.431-42.593c21.975-15.022,43.24-30.066,63.21-44.727
									c20.09-14.683,40.305-29.963,61.814-46.724c14.897-11.648,27.866-22.019,39.634-31.699l2.078-1.709h2.688l0.024,7.529
									l4.741,5.762c-11.868,9.761-24.929,20.21-39.937,31.941c-21.638,16.865-41.975,32.236-62.178,47.002
									c-20.095,14.749-41.497,29.893-63.601,45.002c-21.345,14.629-43.164,29.05-64.844,42.861
									c-21.833,13.921-44.119,27.593-66.235,40.64c-21.829,12.891-44.512,25.776-67.415,38.296
									C1505.103,2446.815,1494.393,2452.577,1483.587,2458.192z"/>
							</g>
						</g>
						<g>
							<g>
								<path style="fill:#DD7833;" d="M1501.644,2539.603l-6.611-13.467c1.887-0.928,3.777-1.895,5.664-2.866l2.925-1.494
									c19.565-10.103,39.294-20.693,60.266-32.354c22.737-12.661,45.479-25.859,67.583-39.229
									c21.404-12.876,43.733-26.855,66.382-41.558c22.41-14.59,44.229-29.316,64.849-43.77
									c21.863-15.264,43.225-30.679,63.508-45.823c22.488-16.853,42.781-32.522,62.029-47.893
									c20.613-16.423,40.991-33.176,60.578-49.797c15.486-13.079,30.667-26.282,46.426-40.374l2.136-1.909h2.864l0.024,7.527
									l4.976,5.564c-15.867,14.187-31.152,27.48-46.733,40.64c-19.69,16.711-40.19,33.562-60.918,50.076
									c-19.363,15.464-39.775,31.223-62.397,48.176c-20.42,15.249-41.914,30.757-63.894,46.104
									c-20.747,14.546-42.712,29.365-65.271,44.053c-22.8,14.805-45.276,28.872-66.809,41.826
									c-22.246,13.452-45.142,26.743-68.04,39.492c-21.111,11.738-40.974,22.402-60.723,32.598l-2.905,1.489
									C1505.582,2537.625,1503.614,2538.636,1501.644,2539.603z"/>
							</g>
						</g>
						<g>
							<g>
								<path style="fill:#DD7833;" d="M1537.74,2611.732l-6.812-13.359c6.946-3.545,13.843-7.134,20.696-10.728
									c22.903-11.958,46.326-24.756,69.626-38.047c22.986-13.091,45.915-26.704,68.157-40.459
									c22.427-13.833,44.883-28.223,66.755-42.788c21.148-14.038,43.098-29.165,65.247-44.966
									c22.053-15.757,43.496-31.602,63.728-47.085c21.384-16.338,42.319-32.852,62.229-49.084
									c19.968-16.274,40.369-33.398,60.64-50.894c19.888-17.241,39.758-34.998,59.053-52.769
									c16.255-14.927,31.687-29.436,45.876-43.13l10.415,10.791c-14.275,13.782-29.8,28.376-46.138,43.381
									c-19.395,17.864-39.38,35.72-59.394,53.069c-20.388,17.6-40.898,34.814-60.974,51.177
									c-20.029,16.333-41.091,32.947-62.595,49.377c-20.356,15.576-41.934,31.519-64.124,47.378
									c-22.29,15.894-44.38,31.118-65.659,45.249c-22.007,14.648-44.612,29.136-67.178,43.052
									c-22.383,13.848-45.471,27.554-68.611,40.732c-23.457,13.379-47.043,26.27-70.098,38.306
									C1551.69,2604.549,1544.74,2608.167,1537.74,2611.732z"/>
							</g>
						</g>
						<g>
							<g>
								<path style="fill:#DD7833;" d="M1565.433,2688.021l-6.709-13.418c16.819-8.408,33.723-17.202,51.682-26.875
									c23.44-12.563,47.051-25.806,70.19-39.375c22.678-13.223,45.784-27.275,68.689-41.787
									c22.72-14.351,45.283-29.185,67.073-44.102c22.28-15.156,44.324-30.713,65.537-46.245
									c21.65-15.83,43.159-32.085,63.933-48.33c20.881-16.328,41.831-33.257,62.273-50.308
									c20.688-17.251,41.084-34.783,60.625-52.117c20.137-17.83,39.993-35.967,59.019-53.911
									c19.612-18.433,38.914-37.112,57.375-55.53c12.776-12.732,25.669-25.823,39.417-40.027l10.776,10.43
									c-13.811,14.27-26.763,27.427-39.602,40.22c-18.564,18.521-37.974,37.305-57.683,55.828
									c-19.133,18.044-39.104,36.287-59.351,54.216c-19.653,17.432-40.166,35.066-60.969,52.41
									c-20.559,17.153-41.636,34.18-62.642,50.605c-20.901,16.343-42.539,32.7-64.314,48.618
									c-21.348,15.635-43.535,31.289-65.938,46.528c-21.924,15.01-44.646,29.951-67.512,44.39
									c-23.049,14.604-46.313,28.755-69.136,42.061c-23.286,13.657-47.068,26.997-70.662,39.639
									C1599.427,2670.682,1582.389,2679.54,1565.433,2688.021z"/>
							</g>
						</g>
						<g>
							<g>
								<path style="fill:#DD7833;" d="M1593.668,2764.012l-6.646-13.447c4.001-1.978,8-3.955,11.956-5.977
									c23.711-11.968,48.044-24.819,72.356-38.208l1.726-0.933c22.83-12.656,46.025-26.06,68.975-39.854
									c22.8-13.677,46.035-28.193,69.067-43.164l1.907-1.211c21.455-14.009,43.469-28.896,65.464-44.272
									c21.472-14.995,42.969-30.581,65.718-47.656l2.043-1.499c21.126-15.898,41.965-32.09,61.978-48.149
									c21.47-17.222,42.422-34.565,62.278-51.543c20.146-17.207,40.53-35.171,60.583-53.394
									c19.097-17.314,38.34-35.32,58.84-55.056c18.857-18.132,38.076-37.207,57.129-56.702
									c18.081-18.394,36.213-37.422,55.442-58.186c9.644-10.447,19.106-20.808,28.333-31.077l11.157,10.024
									c-9.27,10.317-18.777,20.728-28.477,31.235c-19.338,20.884-37.571,40.017-55.742,58.503
									c-19.146,19.587-38.476,38.774-57.441,57.009c-20.605,19.839-39.958,37.949-59.16,55.356
									c-20.161,18.32-40.659,36.382-60.918,53.687c-19.971,17.08-41.047,34.521-62.637,51.841
									c-20.767,16.665-42.42,33.467-64.355,49.946l-2.051,1.504c-22.148,16.592-43.149,31.802-64.128,46.45
									c-22.764,15.913-45.552,31.309-67.732,45.762l-1.921,1.216c-22.571,14.639-45.322,28.838-67.654,42.231
									c-23.662,14.224-47.595,28.042-71.128,41.06l-1.75,0.938c-23.906,13.14-47.817,25.757-71.108,37.515
									C1601.79,2759.999,1597.728,2762.005,1593.668,2764.012z"/>
							</g>
						</g>
						<g>
							<g>
								<path style="fill:#DD7833;" d="M1622.569,2839.623l-6.592-13.477c14.529-7.104,29.873-14.849,45.608-23.013
									c25.11-13.11,49.614-26.484,72.817-39.741c24.5-13.955,48.413-28.169,71.091-42.261
									c23.433-14.458,46.758-29.482,69.346-44.668c22.688-15.112,45.444-30.889,67.666-46.904
									c22.024-15.811,44.163-32.305,65.815-49.033c21.419-16.504,42.942-33.672,63.979-51.021
									c19.883-16.313,40.237-33.604,62.241-52.881c20.808-18.281,41.128-36.665,60.391-54.619
									c20.852-19.482,40.566-38.433,58.591-56.318c18.247-17.983,36.829-36.89,56.819-57.813
									c19.019-19.915,37.542-39.871,55.051-59.312c17.605-19.485,35.508-39.902,53.22-60.691l3.542-4.182
									c3.474-4.099,6.917-8.157,10.305-12.217l11.514,9.614c-3.413,4.087-6.877,8.176-10.376,12.302l-3.552,4.192
									c-17.822,20.918-35.823,41.445-53.513,61.028c-17.603,19.543-36.226,39.607-55.344,59.626
									c-20.098,21.035-38.782,40.044-57.119,58.115c-18.113,17.974-37.937,37.031-58.904,56.621
									c-19.375,18.062-39.807,36.538-60.732,54.932c-22.136,19.385-42.612,36.782-62.603,53.184
									c-21.15,17.446-42.805,34.717-64.348,51.318c-21.782,16.826-44.065,33.423-66.218,49.331
									c-22.358,16.113-45.269,31.997-68.083,47.192c-22.725,15.273-46.213,30.405-69.792,44.956
									c-22.817,14.18-46.899,28.496-71.555,42.539c-23.357,13.345-48.03,26.807-73.323,40.015
									C1652.655,2824.667,1637.203,2832.464,1622.569,2839.623z"/>
							</g>
						</g>
						<g>
							<g>
								<path style="fill:#DD7833;" d="M1652.794,2914.569l-6.714-13.408l1.785-0.889c1.064-0.527,2.114-1.05,3.167-1.592
									c24.553-11.958,49.834-24.932,75.286-38.628c24.158-13.022,48.826-26.924,73.313-41.313
									c23.21-13.618,47.27-28.359,71.519-43.823c23.816-15.259,47.231-30.82,69.587-46.235
									c23.101-15.918,45.879-32.207,67.698-48.408c21.47-15.908,43.616-32.9,65.83-50.508
									c21.726-17.261,43.223-34.888,63.882-52.393l2.134-1.777c20.723-17.661,40.872-35.303,59.915-52.466
									c19.712-17.773,39.375-36.074,60.11-55.947c19.309-18.447,38.894-37.793,58.215-57.505
									c18.813-19.043,37.793-38.882,56.433-58.992c18.936-20.398,37.302-40.723,54.595-60.41
									c18.713-21.409,36.431-42.197,52.644-61.775c16.458-19.885,32.5-39.778,47.681-59.126l11.802,9.258
									c-15.261,19.451-31.387,39.448-47.927,59.436c-16.301,19.68-34.104,40.569-52.917,62.092
									c-17.393,19.805-35.852,40.232-54.88,60.728c-18.743,20.22-37.834,40.176-56.738,59.312
									c-19.417,19.805-39.116,39.268-58.535,57.822c-20.837,19.971-40.61,38.374-60.437,56.25
									c-19.795,17.837-40.767,36.187-62.336,54.536l-2.161,1.787c-20.134,17.021-41.033,34.141-62.153,50.923
									c-22.349,17.71-44.624,34.8-66.216,50.801c-21.956,16.304-44.878,32.695-68.123,48.716
									c-22.493,15.508-46.05,31.162-70.022,46.519c-24.417,15.576-48.638,30.415-72.004,44.121
									c-24.639,14.478-49.468,28.472-73.792,41.582c-25.635,13.799-51.096,26.865-75.684,38.838
									c-0.972,0.503-2.09,1.055-3.223,1.616L1652.794,2914.569z"/>
							</g>
						</g>
						<g>
							<g>
								<path style="fill:#DD7833;" d="M1684.583,2988.69l-6.553-13.496c14.761-7.168,27.754-13.599,39.722-19.668
									c25.105-12.764,50.566-26.328,75.671-40.317c24.473-13.667,49.265-28.14,73.684-43.013
									c23.706-14.399,47.829-29.697,71.711-45.474c23.582-15.566,47.041-31.66,69.731-47.847
									c22.322-15.869,45.083-32.681,67.661-49.971c21.716-16.567,43.845-34.063,65.779-52.021
									c21.375-17.48,42.788-35.586,63.65-53.813l2.163-1.851c20.657-18.115,40.698-36.206,59.597-53.809
									c19.7-18.252,39.812-37.5,59.788-57.231c19.385-19.111,38.845-38.877,57.852-58.755
									c18.95-19.824,37.727-40.063,55.806-60.151c17.629-19.492,35.286-39.604,53.987-61.511
									c18.091-21.27,35.581-42.419,51.973-62.849c6.025-7.405,11.833-14.719,17.495-21.941l11.807,9.253
									c-5.72,7.295-11.582,14.68-17.634,22.114c-16.45,20.5-34.031,41.763-52.224,63.152
									c-18.804,22.026-36.55,42.246-54.265,61.826c-18.167,20.19-37.046,40.542-56.101,60.474
									c-19.106,19.985-38.674,39.858-58.157,59.067c-20.088,19.839-40.315,39.199-60.115,57.544
									c-19.646,18.291-40.527,37.124-62.048,55.962l-2.175,1.855c-20.313,17.71-41.125,35.288-61.897,52.275
									c-22.065,18.062-44.328,35.669-66.169,52.324c-22.708,17.393-45.613,34.312-68.069,50.278
									c-22.827,16.279-46.438,32.48-70.169,48.145c-24.036,15.879-48.32,31.279-72.18,45.771
									c-24.573,14.966-49.529,29.531-74.172,43.296c-25.276,14.087-50.908,27.739-76.189,40.591
									C1712.491,2975.013,1699.422,2981.483,1684.583,2988.69z"/>
							</g>
						</g>
						<g>
							<g>
								<path style="fill:#DD7833;" d="M1714.979,3063.407l-6.26-13.633c1.16-0.532,2.319-1.069,3.479-1.646
									c24.736-11.885,49.8-24.512,74.595-37.583c24.563-12.979,50.154-27.148,76.052-42.114l1.782-1.006
									c23.704-13.77,47.976-28.501,72.185-43.799c23.438-14.751,46.941-30.195,71.86-47.231
									c22.649-15.439,46.111-32.08,69.741-49.453c23.186-17.109,45.92-34.463,67.561-51.587
									c22.236-17.588,44.272-35.615,65.493-53.574l2.144-1.777c20.439-17.319,41.042-35.327,61.279-53.555
									c20.71-18.623,41.328-37.793,61.287-56.982c19.673-18.809,39.622-38.521,59.312-58.604
									c19.043-19.316,38.311-39.492,57.288-59.985c18.035-19.419,36.477-39.897,54.824-60.874l0.388-0.415
									c-0.01,0.01-0.334,0.352-0.654,0.859l12.671,8.027c-0.535,0.845-1.069,1.377-1.389,1.699
									c-18.169,20.791-36.714,41.382-54.841,60.903c-19.075,20.601-38.452,40.889-57.588,60.298
									c-19.79,20.186-39.856,40.01-59.629,58.916c-20.061,19.292-40.803,38.579-61.633,57.305
									c-21.038,18.95-42.478,37.671-63.721,55.635l-2.144,1.772c-20.701,17.48-42.146,35.005-63.779,52.119
									c-21.772,17.222-44.641,34.683-67.971,51.895c-23.784,17.49-47.392,34.229-70.178,49.766
									c-25.073,17.139-48.73,32.686-72.319,47.529c-24.949,15.771-49.985,30.947-74.404,45.103l-1.802,1.011
									c-25.469,14.688-50.628,28.608-74.812,41.387c-24.968,13.159-50.198,25.874-75,37.788
									C1717.591,3062.201,1716.285,3062.806,1714.979,3063.407z"/>
							</g>
						</g>
						<g>
							<g>
								<path style="fill:#DD7833;" d="M1756.595,3132.826l-6.499-13.516c11.931-5.737,21.043-10.22,29.546-14.536
									c26.455-13.154,52.913-27.021,78.687-41.235c25.874-14.233,51.553-29.048,76.331-44.048
									c25.081-15.078,50.012-30.757,74.126-46.611c24.26-15.923,48.44-32.422,71.87-49.033
									c23.459-16.641,46.858-33.867,69.546-51.201l2.063-1.543c22.08-16.899,44.045-34.287,65.322-51.704
									c22.334-18.262,44.255-36.812,65.159-55.132c21.194-18.506,42.368-37.612,62.952-56.802l2.207-2.017
									c19.907-18.604,39.614-37.578,58.616-56.44c13.809-13.638,27.983-27.949,43.342-43.774l0.364-0.352l5.391,5.938l5.007,4.863
									c-15.432,15.898-29.68,30.288-43.552,43.984c-19.783,19.639-40.342,39.414-61.096,58.765l-2.212,2.017
									c-20.022,18.623-40.579,37.153-61.14,55.107c-21.023,18.423-43.076,37.085-65.537,55.454
									c-22.051,18.052-44.841,36.069-67.729,53.555l-2.065,1.538c-22.197,16.924-45.049,33.73-67.959,49.98
									c-23.577,16.714-47.905,33.315-72.309,49.331c-24.277,15.962-49.382,31.753-74.614,46.919
									c-24.936,15.093-50.796,30.02-76.841,44.346c-25.955,14.312-52.6,28.276-79.192,41.499
									C1777.828,3122.513,1768.626,3127.04,1756.595,3132.826z"/>
							</g>
						</g>
						<g>
							<g>
								<path style="fill:#DD7833;" d="M1799.395,3201.629l-6.543-13.496c20.798-10.083,41.187-20.342,60.598-30.483
									c26.336-13.726,52.888-28.291,78.928-43.296c25.786-14.834,51.533-30.327,76.536-46.04
									c25.476-16.035,50.398-32.383,74.07-48.594c23.433-15.923,47.559-33.022,71.733-50.835
									c24.05-17.764,47.39-35.596,69.365-53.003c22.769-18.076,45.315-36.567,67.009-54.951
									c22.063-18.721,43.811-37.798,64.641-56.699c11.323-10.234,23.035-21.021,34.814-32.065l10.259,10.938
									c-11.846,11.108-23.623,21.958-35.005,32.246c-20.94,19.004-42.815,38.188-65.007,57.021
									c-21.819,18.491-44.492,37.085-67.393,55.264c-22.112,17.515-45.586,35.454-69.78,53.325
									c-24.333,17.925-48.618,35.137-72.183,51.147c-23.809,16.309-48.894,32.764-74.539,48.901
									c-25.168,15.82-51.086,31.416-77.036,46.343c-26.221,15.107-52.959,29.775-79.473,43.594
									C1840.853,3181.156,1820.328,3191.483,1799.395,3201.629z"/>
							</g>
						</g>
						<g>
							<g>
								<path style="fill:#DD7833;" d="M1850.074,3266.493l-6.221-13.652c1.458-0.664,2.869-1.367,4.326-2.119
									c27.478-13.555,54.954-27.847,81.78-42.544c26.184-14.331,52.788-29.629,79.075-45.474
									c25.752-15.513,51.487-31.704,76.489-48.12c24.485-16.05,49.375-33.066,73.989-50.586
									c23.333-16.553,47.349-34.302,71.394-52.764c22.954-17.573,46.147-36.011,68.943-54.805
									c10.081-8.252,20.593-17.051,33.103-27.715l9.731,11.416c-12.588,10.728-23.174,19.59-33.313,27.891
									c-22.915,18.892-46.25,37.441-69.338,55.117c-24.185,18.569-48.357,36.436-71.833,53.086
									c-24.758,17.622-49.81,34.751-74.448,50.903c-25.159,16.519-51.06,32.813-76.975,48.428
									c-26.465,15.947-53.25,31.353-79.612,45.776c-27.012,14.8-54.68,29.194-82.234,42.788
									C1853.372,3264.92,1851.746,3265.731,1850.074,3266.493z"/>
							</g>
						</g>
						<g>
							<g>
								<path style="fill:#DD7833;" d="M1916.49,3323.441l-6.831-13.35c5.918-3.032,11.841-6.064,17.71-9.097
									c27.356-14.302,54.888-29.409,81.797-44.888c26.37-15.176,52.976-31.221,79.079-47.695
									c25.437-16.064,51.125-32.988,76.353-50.298c24.575-16.88,49.375-34.585,73.711-52.627
									c10.574-7.886,21.025-15.781,31.377-23.77l9.165,11.875c-10.42,8.037-20.935,15.981-31.589,23.931
									c-24.5,18.164-49.451,35.977-74.175,52.954c-25.383,17.422-51.233,34.448-76.833,50.62
									c-26.277,16.582-53.059,32.734-79.607,48.008c-27.085,15.581-54.795,30.791-82.361,45.2
									C1928.365,3317.367,1922.428,3320.409,1916.49,3323.441z"/>
							</g>
						</g>
						<g>
							<g>
								<path style="fill:#DD7833;" d="M2028.184,3355.189h-1.953l-0.024-7.544l-3.635-6.504
									c23.904-13.359,46.96-26.782,68.53-39.893c25.566-15.474,51.748-32.08,77.849-49.375l1.343-2.08l4.143-0.044v7.783v-0.283
									l6.248,4.106l-1.04,1.289l-2.197,2.197h-0.913c-26.04,17.241-52.156,33.804-77.651,49.233
									c-21.714,13.198-44.929,26.714-68.992,40.161L2028.184,3355.189z"/>
							</g>
						</g>
					</g>
					<g>
						<g>
							<g>
								<path style="fill:#DD7833;" d="M2558.394,2283.49l-2.729-1.545c-2.263-1.279-4.507-2.546-6.753-3.84
									c-21.792-12.424-43.628-25.359-64.875-38.433c-22.002-13.538-43.484-27.224-63.848-40.679
									c-7.834-5.127-15.601-10.366-23.32-15.608l8.428-12.407c7.646,5.193,15.344,10.383,23.135,15.483
									c20.256,13.381,41.602,26.982,63.467,40.437c21.104,12.983,42.795,25.833,64.473,38.191
									c2.236,1.289,4.446,2.537,6.675,3.796l2.747,1.553L2558.394,2283.49z"/>
							</g>
						</g>
						<g>
							<g>
								<path style="fill:#DD7833;" d="M2534.461,2362.44c-12.327-6.831-24.651-13.804-37.671-21.311
									c-22.583-13.149-44.639-26.45-65.586-39.546c-21.233-13.25-42.91-27.307-64.424-41.777
									c-20.603-13.765-41.274-28.115-63.171-43.86c-13.098-9.402-26.687-19.373-40.383-29.631l8.994-12.007
									c13.616,10.2,27.122,20.11,40.139,29.456c21.763,15.645,42.295,29.9,62.776,43.584
									c21.389,14.387,42.922,28.352,64.016,41.514c20.82,13.018,42.739,26.235,65.159,39.29
									c12.917,7.449,25.168,14.377,37.422,21.167L2534.461,2362.44z"/>
							</g>
						</g>
						<g>
							<g>
								<path style="fill:#DD7833;" d="M2510.46,2441.239l-0.444-0.254l-0.005,0.01c-22.144-12.065-44.763-24.902-67.397-38.247
									c-22.246-13.149-44.514-26.821-66.191-40.64c-21.099-13.413-42.327-27.434-64.89-42.861
									c-20.676-14.133-42.058-29.275-63.555-45.005c-20.92-15.288-41.841-31.101-62.178-47
									c-15.254-11.897-30.872-24.39-47.744-38.186l9.497-11.611c16.78,13.723,32.312,26.145,47.478,37.976
									c20.217,15.801,41.008,31.516,61.802,46.714c21.37,15.637,42.622,30.686,63.167,44.729
									c22.424,15.332,43.513,29.265,64.478,42.593c21.545,13.73,43.667,27.314,65.762,40.376
									c22.483,13.252,44.956,26.006,66.785,37.9l0.688,0.415l-3.64,5.469L2510.46,2441.239z"/>
							</g>
						</g>
						<g>
							<g>
								<path style="fill:#DD7833;" d="M2484.652,2518.944c-10.083-5.42-20.073-10.894-30.012-16.411
									c-22.905-12.754-45.801-26.045-68.062-39.507c-21.519-12.944-43.994-27.012-66.787-41.812
									c-22.566-14.692-44.531-29.512-65.288-44.063c-20.991-14.609-42.49-30.122-63.875-46.091
									c-21.55-16.111-42.549-32.324-62.417-48.188c-19.897-15.811-40.4-32.664-60.925-50.083
									c-16.482-13.96-32.439-27.822-47.422-41.191l9.985-11.191c14.888,13.284,30.747,27.058,47.139,40.942
									c20.405,17.319,40.784,34.07,60.569,49.79c19.758,15.776,40.63,31.892,62.051,47.908
									c21.248,15.867,42.607,31.279,63.484,45.806c20.64,14.468,42.458,29.194,64.875,43.789
									c22.642,14.697,44.971,28.677,66.36,41.543c22.119,13.379,44.861,26.577,67.6,39.238
									c9.873,5.483,19.805,10.918,29.829,16.309L2484.652,2518.944z"/>
							</g>
						</g>
						<g>
							<g>
								<path style="fill:#DD7833;" d="M2458.751,2596.502c-21.311-11.284-42.046-22.686-61.628-33.882
									c-23.127-13.169-46.216-26.875-68.608-40.728c-22.659-13.931-45.271-28.418-67.185-43.062
									c-22.253-14.775-44.346-30-65.647-45.239c-22.185-15.854-43.762-31.797-64.124-47.378
									c-20.269-15.439-41.331-32.039-62.585-49.319c-20.3-16.545-40.813-33.777-60.974-51.226
									c-20.005-17.341-39.99-35.198-59.409-53.081c-13.931-12.793-27.754-25.754-41.082-38.513l10.376-10.835
									c13.249,12.688,26.997,25.576,40.859,38.306c19.316,17.791,39.189,35.547,59.075,52.786
									c20.046,17.346,40.444,34.482,60.625,50.93c21.125,17.175,42.061,33.672,62.219,49.028
									c20.244,15.493,41.687,31.338,63.745,47.1c21.162,15.142,43.11,30.269,65.234,44.956
									c21.777,14.551,44.229,28.94,66.746,42.778c22.258,13.77,45.188,27.383,68.169,40.469
									c19.453,11.123,40.046,22.441,61.216,33.657L2458.751,2596.502z"/>
							</g>
						</g>
						<g>
							<g>
								<path style="fill:#DD7833;" d="M2432.086,2673.587c-7.991-4.18-15.933-8.418-23.826-12.646
									c-23.054-12.397-46.824-25.713-70.659-39.59c-23.296-13.652-46.538-27.822-69.102-42.119
									c-22.507-14.209-45.225-29.126-67.512-44.336c-22.681-15.479-44.866-31.147-65.935-46.577
									c-21.782-15.923-43.42-32.28-64.307-48.613c-21.006-16.426-42.083-33.452-62.644-50.61
									c-21.104-17.593-41.621-35.244-60.981-52.463c-19.973-17.639-39.946-35.869-59.348-54.165
									c-19.697-18.516-39.106-37.3-57.676-55.823c-10.134-10.137-20.12-20.215-29.866-30.247l10.757-10.454
									c9.697,9.983,19.634,20.012,29.71,30.088c18.457,18.411,37.759,37.09,57.358,55.515
									c19.292,18.191,39.143,36.311,59.016,53.86c19.258,17.129,39.653,34.675,60.637,52.17
									c20.444,17.056,41.396,33.984,62.275,50.313c20.759,16.235,42.268,32.495,63.926,48.325
									c20.94,15.337,42.988,30.908,65.532,46.289c22.144,15.112,44.709,29.932,67.075,44.053
									c22.427,14.209,45.522,28.286,68.652,41.846c23.669,13.779,47.29,27.012,70.186,39.321
									c7.839,4.204,15.737,8.413,23.684,12.573L2432.086,2673.587z"/>
							</g>
						</g>
						<g>
							<g>
								<path style="fill:#DD7833;" d="M2404.669,2750.16c-18.835-9.697-37.581-19.688-55.742-29.712h-0.002l-1.743-0.938
									c-23.56-13.037-47.493-26.851-71.135-41.064c-22.332-13.394-45.083-27.593-67.644-42.227h-0.005l-1.917-1.216
									c-22.5-14.658-44.639-29.6-65.828-44.424l-1.96-1.343c-22.148-15.508-44.395-31.641-66.121-47.949
									c-21.021-15.742-42.676-32.549-64.36-49.946c-21.55-17.285-42.627-34.731-62.639-51.846
									c-20.254-17.3-40.752-35.361-60.92-53.687c-19.158-17.368-38.511-35.476-59.158-55.354
									c-18.96-18.232-38.291-37.419-57.451-57.024c-18.157-18.469-36.389-37.603-55.72-58.479
									c-5.056-5.483-10.051-10.911-14.954-16.333l11.128-10.059c4.868,5.388,9.829,10.776,14.841,16.213
									c19.219,20.752,37.349,39.78,55.417,58.157c19.067,19.512,38.286,38.586,57.139,56.716
									c20.542,19.775,39.788,37.783,58.838,55.054c20.061,18.228,40.444,36.191,60.586,53.394
									c19.897,17.017,40.85,34.355,62.28,51.548c21.555,17.295,43.078,33.999,63.972,49.648
									c20.967,15.737,42.417,31.304,63.789,46.304h0.002l1.985,1.357c21.113,14.81,43.198,29.741,65.667,44.404l1.697,1.074
									c23.022,14.961,46.257,29.482,69.058,43.159c22.957,13.799,46.182,27.217,69.063,39.902l1.66,0.894
									c18.56,10.264,37.754,20.503,57.043,30.435L2404.669,2750.16z"/>
							</g>
						</g>
						<g>
							<g>
								<path style="fill:#DD7833;" d="M2376.983,2826.542c-6.619-3.335-13.142-6.714-19.663-10.093
									c-25.313-13.218-49.985-26.68-73.352-40.029c-23.003-13.076-46.541-27.056-69.978-41.563l-1.614-0.972
									c-23.581-14.551-47.07-29.683-69.819-44.971c-22.949-15.317-45.842-31.196-68.022-47.188
									c-22.141-15.898-44.424-32.495-66.213-49.326c-21.711-16.733-42.71-33.462-62.449-49.746l-1.951-1.577
									c-21.479-17.71-42.522-35.601-62.542-53.174c-20.943-18.403-41.375-36.885-60.73-54.922
									c-20.972-19.6-40.796-38.657-58.928-56.65c-17.949-17.686-36.646-36.694-57.139-58.088
									c-19.382-20.344-37.986-40.405-55.313-59.641c-17.056-18.889-34.143-38.345-50.781-57.817l11.406-9.741
									c16.548,19.368,33.543,38.718,50.515,57.512c17.239,19.141,35.747,39.097,55.017,59.326
									c20.381,21.274,38.977,40.181,56.841,57.786c18.044,17.905,37.759,36.855,58.616,56.348
									c19.243,17.935,39.565,36.313,60.393,54.619c19.258,16.904,39.47,34.106,60.11,51.157h0.005l2.126,1.719
									c20.159,16.68,41.68,33.838,63.965,51.011c21.66,16.733,43.799,33.228,65.813,49.028
									c22.046,15.894,44.788,31.67,67.607,46.899c22.026,14.805,44.734,29.448,67.539,43.555h0.007l1.863,1.128
									c23.796,14.751,47.712,28.97,71.082,42.256c23.218,13.262,47.722,26.636,72.849,39.751
									c6.453,3.35,12.922,6.699,19.487,10.005L2376.983,2826.542z"/>
							</g>
						</g>
						<g>
							<g>
								<path style="fill:#DD7833;" d="M2348.975,2902.669c-18.176-9.087-37.217-18.984-56.589-29.409
									c-24.175-13.008-49.023-27.002-73.848-41.592c-24.36-14.36-48.562-29.194-71.943-44.106
									c-23.777-15.234-47.349-30.889-70.076-46.528c-23.428-16.177-46.33-32.563-68.083-48.721
									c-22.478-16.655-44.756-33.75-66.211-50.796c-20.889-16.563-42.524-34.292-64.297-52.695
									c-21.897-18.589-42.876-36.958-62.366-54.614c-19.58-17.603-39.353-35.991-60.434-56.196
									c-19.409-18.545-39.109-38.008-58.547-57.837c-19.619-19.858-38.714-39.814-56.729-59.297
									c-19.016-20.488-37.476-40.913-54.858-60.706c-18.84-21.555-36.643-42.444-52.925-62.102
									c-9.436-11.387-18.831-22.913-28.718-35.232l11.699-9.39c9.836,12.258,19.182,23.723,28.569,35.051
									c16.201,19.558,33.916,40.347,52.656,61.787c17.28,19.675,35.65,40,54.58,60.396c17.913,19.37,36.892,39.209,56.416,58.97
									c19.343,19.736,38.928,39.082,58.228,57.52c20.974,20.103,40.635,38.384,60.112,55.903
									c19.392,17.563,40.249,35.83,62.012,54.302c21.641,18.291,43.154,35.923,63.926,52.388
									c21.33,16.953,43.474,33.94,65.823,50.503c21.624,16.055,44.385,32.344,67.663,48.418
									c22.581,15.542,46.013,31.099,69.639,46.24c23.22,14.805,47.271,29.551,71.472,43.818
									c24.656,14.487,49.336,28.389,73.347,41.304c19.243,10.361,38.149,20.186,56.191,29.204L2348.975,2902.669z"/>
							</g>
						</g>
						<g>
							<g>
								<path style="fill:#DD7833;" d="M2320.064,2978.324c-6.318-3.135-12.593-6.274-18.818-9.409
									c-25.981-13.232-51.597-26.89-76.162-40.605c-24.072-13.442-48.413-27.637-72.383-42.207l-1.846-1.094
									c-23.989-14.6-48.259-30-72.131-45.767c-22.823-15.02-46.436-31.221-70.173-48.149
									c-22.329-15.845-45.254-32.769-68.118-50.283c-22.5-17.192-44.761-34.8-66.16-52.314
									c-20.32-16.621-41.118-34.199-61.848-52.275h-0.005l-2.171-1.855c-21.523-18.838-42.405-37.671-62.063-55.977
									c-19.785-18.33-40.012-37.69-60.105-57.534c-19.438-19.165-39.006-39.038-58.149-59.058
									c-19.568-20.474-38.464-40.82-56.165-60.488c-18.591-20.649-36.829-41.46-54.202-61.858
									c-17.292-20.234-34.878-41.484-52.258-63.152c-19.487-24.204-38.223-48.269-55.684-71.516l11.992-9.009
									c17.361,23.113,35.994,47.043,55.383,71.13c17.292,21.555,34.778,42.686,51.978,62.81
									c17.292,20.303,35.437,41.008,53.938,61.555c17.603,19.561,36.394,39.8,55.859,60.161
									c19.041,19.912,38.504,39.678,57.844,58.745c19.983,19.736,40.093,38.989,59.778,57.222
									c18.972,17.671,39.082,35.825,59.81,53.994l1.965,1.68c21.311,18.623,42.71,36.729,63.601,53.813
									c21.272,17.417,43.401,34.917,65.774,52.017c22.727,17.407,45.503,34.219,67.7,49.966
									c23.599,16.831,47.056,32.93,69.734,47.852c23.142,15.288,46.648,30.22,69.905,44.399l1.819,1.079
									c24.39,14.854,49.182,29.331,73.691,43.018c24.402,13.623,49.846,27.188,75.627,40.317
									c6.172,3.11,12.417,6.235,18.711,9.355L2320.064,2978.324z"/>
							</g>
						</g>
						<g>
							<g>
								<path style="fill:#DD7833;" d="M2289.415,3053.031c-18.655-9.141-37.979-18.97-57.434-29.214
									c-24.709-13.057-50.469-27.319-76.567-42.397c-24.963-14.497-50-29.678-74.426-45.117
									c-24.634-15.498-48.972-31.494-72.327-47.534c-22.754-15.513-46.362-32.256-70.151-49.741
									c-23.337-17.222-46.206-34.683-67.981-51.904c-22.158-17.495-44.338-35.625-65.923-53.896
									c-21.226-17.944-42.666-36.665-63.726-55.635c-20.925-18.862-41.677-38.159-61.682-57.358
									c-20.476-19.619-40.525-39.429-59.587-58.872c-19.922-20.205-39.302-40.498-57.588-60.298
									c-18.435-19.888-37.122-40.635-55.525-61.66c-17.922-20.464-35.938-41.641-53.54-62.954
									c-1.802-2.168-3.596-4.365-5.386-6.548l-6.624-8.047v-2.7l7.451-0.049l5.303-5.352l2.246,2.246v0.469l3.23,3.931
									c1.77,2.158,3.545,4.331,5.334,6.489c17.522,21.206,35.44,42.275,53.269,62.632c18.313,20.918,36.902,41.563,55.251,61.357
									c18.183,19.688,37.451,39.863,57.275,59.971c18.965,19.341,38.904,39.043,59.27,58.56
									c19.897,19.092,40.535,38.281,61.343,57.041c20.94,18.862,42.263,37.476,63.374,55.327
									c21.455,18.159,43.503,36.187,65.532,53.574c21.65,17.129,44.385,34.482,67.578,51.597
									c23.635,17.378,47.097,34.014,69.727,49.443c23.21,15.942,47.378,31.826,71.855,47.227
									c24.282,15.347,49.158,30.425,73.945,44.824c25.92,14.976,51.511,29.146,76.045,42.109
									c19.319,10.171,38.513,19.932,57.039,29.014L2289.415,3053.031z"/>
							</g>
						</g>
						<g>
							<g>
								<polygon style="fill:#DD7833;" points="1391.204,2413.792 1391.158,2413.792 1391.158,2398.792 								"/>
							</g>
							<g>
								<polygon style="fill:#DD7833;" points="1509.779,2556.576 1515.008,2551.297 1507.581,2551.322 1515.033,2551.273 
									1520.335,2545.921 1522.581,2548.167 1522.581,2551.273 1515.057,2551.297 								"/>
							</g>
							<g>
								<path style="fill:#DD7833;" d="M2255.809,3126.292c-5.232-2.505-10.422-5.093-15.61-7.686l-0.771-0.386
									c-26.431-13.169-53.076-27.148-79.189-41.548c-25.888-14.214-51.765-29.141-76.899-44.351
									c-24.858-14.941-49.949-30.732-74.553-46.914c-23.482-15.361-47.813-31.963-72.305-49.326
									c-23.401-16.563-46.963-33.901-70.024-51.523c-22.434-17.134-45.234-35.151-67.771-53.545
									c-22.044-18.027-44.082-36.689-65.505-55.469c-20.576-17.964-41.135-36.494-61.133-55.098h-0.002l-2.207-2.017
									c-21.262-19.824-41.838-39.6-61.157-58.779c-20.562-20.366-40.418-40.625-59.009-60.2
									c-13.254-13.892-26.763-28.389-40.137-43.081l5.522-5.024l-0.024-7.524h3.315l2.28,2.451
									c13.293,14.604,26.721,29.019,39.905,42.837c18.503,19.478,38.25,39.624,58.708,59.893
									c18.589,18.452,38.347,37.461,58.765,56.538l2.107,1.924c20.559,19.165,41.736,38.276,62.944,56.792
									c21.304,18.677,43.21,37.227,65.12,55.142c22.405,18.291,45.078,36.206,67.385,53.242
									c22.918,17.515,46.331,34.741,69.59,51.201c24.343,17.261,48.521,33.755,71.86,49.028
									c24.453,16.079,49.37,31.758,74.075,46.611c24.971,15.112,50.664,29.932,76.382,44.053
									c25.945,14.307,52.402,28.188,78.652,41.265l0.779,0.391c5.112,2.554,10.222,5.103,15.378,7.568L2255.809,3126.292z"/>
							</g>
						</g>
						<g>
							<g>
								<path style="fill:#DD7833;" d="M2217.388,3197.215c-17.246-8.413-34.749-17.251-52.019-26.27
									c-26.477-13.848-53.21-28.511-79.465-43.589c-25.571-14.712-51.475-30.303-76.99-46.348
									c-24.705-15.518-49.805-31.973-74.602-48.911c-23.157-15.781-46.743-32.485-70.127-49.673h-0.007l-2.036-1.465
									c-23.713-17.52-47.173-35.454-69.724-53.32c-22.244-17.622-44.917-36.216-67.395-55.264
									c-22.197-18.838-44.072-38.022-65.022-57.031c-20.742-18.784-41.877-38.525-62.81-58.672l-0.938-0.908
									c-7.346-7.124-14.6-14.15-21.724-21.23l10.571-10.645c7.082,7.041,14.292,14.028,21.592,21.104l0.918,0.889
									c20.806,20.024,41.829,39.658,62.463,58.345c20.835,18.906,42.583,37.983,64.651,56.709
									c22.349,18.94,44.893,37.427,67.007,54.946c21.875,17.329,44.609,34.727,67.603,51.738l1.76,1.265
									c23.889,17.593,48.003,34.692,71.672,50.825c24.646,16.831,49.583,33.184,74.128,48.599
									c25.354,15.938,51.086,31.431,76.484,46.045c26.079,14.976,52.639,29.541,78.938,43.296
									c17.146,8.955,34.524,17.729,51.648,26.079L2217.388,3197.215z"/>
							</g>
						</g>
						<g>
							<g>
								<path style="fill:#DD7833;" d="M2170.887,3264.12c-26.616-13.105-54.285-27.5-82.236-42.783
									c-26.846-14.722-53.63-30.122-79.617-45.781c-25.171-15.137-51.086-31.431-77.022-48.428
									c-24.883-16.313-49.922-33.442-74.417-50.913c-23.862-16.929-48.049-34.79-71.872-53.086
									c-22.993-17.646-46.326-36.191-69.343-55.122c-22.795-18.774-45.295-37.964-66.882-57.036
									c-3.152-2.725-6.362-5.601-9.57-8.477l10.01-11.172c3.145,2.817,6.292,5.635,9.434,8.359
									c21.516,19.009,43.884,38.081,66.541,56.743c22.886,18.818,46.084,37.261,68.945,54.805
									c23.674,18.184,47.708,35.933,71.433,52.759c24.353,17.368,49.226,34.39,73.945,50.591
									c25.774,16.895,51.523,33.081,76.536,48.125c25.818,15.557,52.424,30.859,79.084,45.474
									c27.756,15.181,55.232,29.478,81.658,42.485l1.201,0.591l0.923,0.972l-5.481,5.254L2170.887,3264.12z"/>
							</g>
						</g>
						<g>
							<g>
								<path style="fill:#DD7833;" d="M2108.577,3323.075c-3.467-1.763-6.917-3.545-10.361-5.322l-6.641-3.418
									c-28.56-14.932-56.272-30.142-82.419-45.234c-26.514-15.249-53.296-31.406-79.597-48.003
									c-26.018-16.436-51.882-33.462-76.877-50.62c-24.373-16.719-49.312-34.551-74.121-52.993
									c-20.794-15.43-42.222-31.865-63.682-48.848l-0.427-0.352c-1.221-0.991-2.444-1.968-3.662-2.935l-3.667-2.935l9.453-11.65
									l3.552,2.847c1.36,1.084,2.727,2.168,4.094,3.281l0.305,0.254c21.226,16.787,42.41,33.037,62.976,48.291
									c24.666,18.34,49.448,36.06,73.665,52.671c24.841,17.051,50.544,33.975,76.399,50.303
									c26.128,16.489,52.734,32.539,79.08,47.695c25.977,14.99,53.503,30.098,81.826,44.907l6.624,3.408
									c3.418,1.763,6.841,3.53,10.283,5.283L2108.577,3323.075z"/>
							</g>
						</g>
						<g>
							<g>
								<path style="fill:#DD7833;" d="M1999.246,3355.047l-0.115-0.049h-1.936l-1.706-0.957
									c-23.503-13.169-46.575-26.616-68.569-39.971c-26.116-15.806-52.852-32.778-79.456-50.43
									c-5.417-3.569-10.854-7.192-16.248-10.869l8.447-12.393c5.325,3.628,10.698,7.212,16.072,10.747
									c26.455,17.554,53.013,34.409,78.96,50.117c21.323,12.949,43.655,25.977,66.419,38.755h1.26l2.263,2.358l-5.391,5.122
									V3355.047z"/>
							</g>
						</g>
					</g>
				</g>
				<g style="opacity:0.2;">
					<path style="fill:#5E2323;" d="M2559.531,2285.452c-6.307,21.152-13.469,44.77-21.436,70.427
						c-7.54,24.471-15.792,50.745-24.661,78.442c0,0.189-0.095,0.379-0.142,0.568l-0.048,0.048
						c-7.872,24.756-16.219,50.651-25.04,77.399c-8.253,25.136-16.931,51.077-25.942,77.541c-2.324,6.782-4.648,13.658-6.972,20.535
						l-0.047,0.048c-6.402,18.638-12.947,37.466-19.681,56.484c-7.779,22.148-15.793,44.438-23.95,66.87
						c-1.186,3.225-2.371,6.45-3.51,9.675c-4.173,11.429-8.299,22.764-12.425,34.146c-5.122,14.133-10.244,28.171-15.319,42.209
						c-9.343,25.657-18.685,51.125-28.028,76.117c-4.79,12.948-9.627,25.752-14.512,38.463c-4.79,12.52-9.58,24.946-14.417,37.181
						c-10.102,25.657-20.346,50.651-30.685,74.695c-6.117,14.086-12.236,27.886-18.448,41.355
						c-5.027,10.86-10.055,21.483-15.223,31.87c-12.379,25.23-25.136,48.99-38.368,70.948
						c-14.797,24.708-30.163,47.093-46.24,66.775c-0.048,0-0.048,0.047-0.095,0.095c0,0-0.048,0.047-0.095,0.095
						c-19.586,23.997-40.264,43.916-62.269,58.95c-26.511,18.069-54.919,28.976-85.746,31.3h-0.047
						c-4.126,0.333-8.252,0.475-12.426,0.475c-4.884,0-9.722-0.19-14.512-0.616c-0.048,0-0.048-0.048-0.095-0.048
						c-30.068-2.608-58.666-13.279-86.077-30.732c-22.859-14.607-44.865-33.909-66.111-57.1c-3.889-4.221-7.73-8.631-11.524-13.089
						c-13.422-15.745-26.511-33.055-39.316-51.694c-14.607-21.246-28.882-44.295-42.778-68.814
						c-5.69-9.953,163.998,28.496,382.859-107.683C2380.378,2866.458,2557.155,2291.695,2559.531,2285.452z"/>
				</g>
				<g>
					<path style="fill:#5E2323;" d="M2013.761,3367.132c-5.583,0-11.033-0.229-16.189-0.688l0,0
						c-0.413-0.039-0.823-0.088-1.228-0.151c-31.726-2.954-63.162-14.233-93.459-33.525c-23.496-15.01-47.009-35.288-69.907-60.288
						c-3.533-3.828-7.354-8.169-11.982-13.608c-13.413-15.728-27.046-33.647-40.508-53.247c-14.58-21.211-29.268-44.829-43.645-70.2
						c-11.196-19.585-22.305-40.371-33.916-63.462c-0.164-0.293-0.318-0.586-0.464-0.884c-0.813-1.65-1.643-3.306-2.483-4.971
						l-1.399-2.788c-11.736-23.711-23.364-48.467-34.597-73.647c-10.479-23.345-21.277-48.442-32.075-74.556
						c-1.533-3.687-3.076-7.407-4.573-11.128c-8.047-19.512-16.482-40.557-25.728-64.189c-7.329-18.76-14.563-37.603-21.748-56.587
						l-7.258-19.214c-3.569-9.419-7.092-18.804-10.574-28.193c-5.972-16.025-11.912-32.036-17.756-47.954
						c-9.5-25.84-18.811-51.353-27.793-76.392c-6.516-18.008-12.866-35.781-19.075-53.232c-0.103-0.254-0.198-0.513-0.288-0.771
						c-2.644-7.598-5.334-15.195-7.979-22.656c-9.414-26.719-18.435-52.505-26.936-77.056
						c-9.712-27.974-18.633-53.989-26.506-77.295c-1.143-3.276-2.305-6.685-3.452-10.049l-1.565-4.585
						c-0.09-0.234-0.176-0.474-0.256-0.713l-2.285-6.797c-6.76-20.105-13.003-38.677-18.594-55.408
						c-19.817-59.172-31.633-95.933-31.75-96.296c-1.829-5.693-0.864-11.919,2.6-16.792c3.467-4.875,9.026-7.83,15.007-7.974
						l479.331-11.289c0.149-0.002,0.349-0.005,0.5-0.005l124.561-2.935c0.151-0.002,0.349-0.005,0.5-0.005L2592,2153.709
						c6.033-0.061,11.716,2.568,15.41,7.307c3.689,4.736,4.919,10.942,3.313,16.729c-0.078,0.288-8.127,29.263-22.329,77.239
						c-1.799,6.221-3.784,12.869-5.869,19.846l-2.251,7.544c-7.351,24.678-15.447,51.294-24.058,79.114
						c-7.673,24.902-15.911,51.118-24.485,77.896c-0.076,0.293-0.156,0.581-0.242,0.859c-0.137,0.474-0.293,0.938-0.469,1.396
						c-8.706,27.358-16.821,52.441-24.802,76.641c-8.208,25-16.958,51.157-25.999,77.71c-2.329,6.792-4.644,13.638-6.956,20.488
						c-0.127,0.381-0.269,0.757-0.42,1.128c-6.313,18.374-12.766,36.929-19.399,55.669c-7.051,20.073-14.685,41.387-24.006,67.021
						c-1.182,3.213-2.336,6.362-3.45,9.512c-4.236,11.602-8.357,22.925-12.478,34.292l-15.315,42.192
						c-10.92,30-19.844,54.233-28.098,76.313c-4.795,12.959-9.658,25.84-14.573,38.623c-4.805,12.559-9.619,25.049-14.482,37.349
						c-10.381,26.367-20.781,51.68-30.901,75.215c-6.897,15.884-12.988,29.536-18.647,41.807
						c-5.864,12.671-10.776,22.949-15.469,32.378c-12.944,26.387-26.116,50.737-39.102,72.285
						c-15.576,26.016-31.667,49.243-47.795,68.989c-0.217,0.264-0.439,0.522-0.667,0.771
						c-21.096,25.752-43.225,46.616-65.784,62.031c-29.99,20.439-61.956,32.061-95.022,34.551c-0.098,0.01-0.195,0.015-0.295,0.02
						C2023.001,3366.966,2018.546,3367.132,2013.761,3367.132z M2001.969,3328.739c7.302,0.586,15.62,0.61,22.695,0.039
						c0.146-0.01,0.293-0.02,0.439-0.029c26.609-2.061,51.536-11.23,76.192-28.037c19.709-13.462,39.316-32.061,58.254-55.269
						c0.213-0.259,0.432-0.513,0.657-0.762c14.817-18.208,29.685-39.722,44.197-63.955c12.451-20.664,25.098-44.053,37.61-69.556
						c4.578-9.199,9.341-19.17,15.042-31.484c5.527-11.987,11.504-25.386,18.262-40.947c9.939-23.11,20.188-48.057,30.435-74.082
						c4.819-12.197,9.585-24.561,14.351-37.012c4.866-12.666,9.675-25.391,14.436-38.267c8.24-22.031,17.126-46.172,27.996-76.025
						l15.31-42.183c4.131-11.396,8.262-22.749,12.439-34.189c1.099-3.115,2.312-6.411,3.525-9.717
						c9.25-25.435,16.838-46.621,23.857-66.606c6.729-19.009,13.254-37.773,19.636-56.362c0.11-0.317,0.227-0.63,0.352-0.942
						c2.219-6.577,4.441-13.145,6.663-19.629c8.987-26.387,17.693-52.407,25.864-77.305c8.04-24.37,16.211-49.629,24.988-77.231
						c0.007-0.02,0.015-0.039,0.02-0.059c0.059-0.2,0.117-0.396,0.181-0.596c8.613-26.899,16.89-53.223,24.597-78.242
						c8.582-27.715,16.636-54.202,23.948-78.745l2.261-7.576c2.051-6.865,4.004-13.406,5.806-19.641
						c6.372-21.519,11.489-39.165,15.198-52.087l-970.303,22.825c-0.154,0.002-0.352,0.005-0.505,0.005l-174.6,4.084
						c5.432,16.599,13.518,41.145,23.752,71.702c5.589,16.721,11.826,35.273,18.577,55.356l2.056,6.111
						c0.134,0.354,0.261,0.713,0.376,1.077l1.626,4.756c1.118,3.281,2.251,6.606,3.423,9.971c7.9,23.384,16.787,49.297,26.47,77.188
						c8.484,24.507,17.485,50.225,26.863,76.841c2.573,7.266,5.205,14.692,7.793,22.129c0.139,0.347,0.269,0.698,0.386,1.055
						c6.206,17.441,12.551,35.205,19.082,53.257c8.967,25,18.245,50.415,27.712,76.167c5.828,15.869,11.743,31.821,17.708,47.822
						c3.459,9.336,6.953,18.633,10.493,27.983l7.263,19.224c7.131,18.848,14.316,37.563,21.594,56.187
						c9.16,23.408,17.512,44.248,25.53,63.696c1.501,3.735,2.991,7.319,4.482,10.903c10.669,25.801,21.316,50.552,31.66,73.594
						c11.045,24.761,22.456,49.058,33.935,72.251l1.321,2.632c0.769,1.523,1.531,3.037,2.28,4.551
						c0.115,0.21,0.227,0.425,0.334,0.635c11.428,22.759,22.329,43.169,33.33,62.412c13.875,24.482,27.974,47.168,41.941,67.48
						c12.722,18.525,25.547,35.391,38.12,50.132c4.309,5.063,7.813,9.048,11.035,12.544c20.71,22.607,41.682,40.747,62.375,53.97
						c25.803,16.431,51.162,25.537,77.505,27.817C2001.187,3328.636,2001.578,3328.68,2001.969,3328.739z M2531.693,2439.5
						c-0.02,0.083-0.042,0.166-0.063,0.249C2531.651,2439.667,2531.673,2439.583,2531.693,2439.5L2531.693,2439.5z
						 M2494.464,2434.281c0,0.015,0,0.024,0,0.039C2494.464,2434.305,2494.464,2434.295,2494.464,2434.281z M2494.464,2434.232
						c0,0.015,0,0.024,0,0.034C2494.464,2434.256,2494.464,2434.247,2494.464,2434.232z M2494.464,2434.203c0,0.005,0,0.005,0,0.01
						C2494.464,2434.208,2494.464,2434.208,2494.464,2434.203z"/>
				</g>
			</g>
			<g>
				<path style="fill:#5E2323;" d="M2322.684,2466.567c-11.188,5.349-22.372,11.477-32.66,18.049
					c-10.27,6.768-19.879,14.084-28.583,22.119c-4.475,3.904-8.372,8.306-12.446,12.502l-5.538,6.768
					c-1.924,2.19-3.604,4.553-5.212,6.97c-7.017,9.285-11.976,19.832-16.786,30.466l-22.645-17.563
					c3.173-2.053,5.424-3.259,8.107-4.592c2.574-1.323,5.177-2.451,7.775-3.594c5.208-2.219,10.555-3.987,15.942-5.53
					c10.801-3.018,21.969-4.551,33.098-4.78c11.122,0.049,22.257,0.986,32.81,4.097c10.653,2.549,20.564,7.307,29.753,12.593
					c2.468,1.418,3.319,4.57,1.899,7.039c-1.083,1.882-3.173,2.822-5.198,2.534l-0.607-0.088c-4.965-0.723-9.674-1.938-14.486-2.505
					c-4.834-0.476-9.525-1.226-14.288-1.248c-9.448-0.435-18.789,0.098-27.874,1.746c-9.117,1.284-17.991,3.86-26.483,7.161
					c-4.26,1.616-8.391,3.513-12.432,5.486c-1.985,1.04-3.988,2.051-5.859,3.181c-1.808,1.03-3.932,2.415-5.002,3.142l-0.341,0.232
					c-6.819,4.641-16.108,2.874-20.748-3.945c-2.861-4.207-3.251-9.436-1.556-13.85c5.201-13.271,11.232-26.514,20.063-37.922
					c3.944-6.038,9.127-11.069,13.86-16.416c5.288-4.8,10.388-9.805,16.241-13.821c11.373-8.418,23.76-15.237,36.794-19.951
					c13.046-4.8,26.323-7.942,40.47-8.352c2.861-0.083,5.248,2.17,5.331,5.029c0.061,2.114-1.15,3.967-2.939,4.827
					L2322.684,2466.567z"/>
			</g>
			<g>
				<g>
					<path style="fill:#FF3D7B;" d="M2147.484,2681.14c-28.289,23.415-54.641,38.131-78.829,46.594
						c-1.371-27.2-0.508-86.218,32.096-97.191C2143.375,2616.195,2147.484,2681.14,2147.484,2681.14z"/>
				</g>
				<g>
					<path style="fill:#5E2323;" d="M1904.122,2680.33c18.046,13.054,37.468,23.928,57.205,30.911
						c19.823,7.029,40.166,10.198,60.765,9.526c10.298-0.481,20.647-1.98,30.864-4.539c5.042-1.599,10.177-2.837,15.127-4.885
						c2.489-0.962,5.012-1.814,7.48-2.856l7.308-3.403c19.458-9.236,37.725-21.694,54.799-35.811l-5.544,12.82
						c-1.035-12.52-5.452-27.986-11.681-34.395c-3.142-3.13-5.055-3.87-9.026-3.762c-0.961-0.002-2.12,0.293-3.258,0.464
						c-1.196,0.405-2.565,0.664-3.524,1.155c-2.156,0.774-3.998,1.963-5.759,3.472c-7.157,5.901-11.841,19.019-13.582,32.8
						c-0.909,6.956-1.284,14.187-1.217,21.489c0.07,7.173,0.566,14.971,1.444,21.538l0.061,0.464
						c1.124,8.42-4.791,16.16-13.212,17.283c-8.422,1.125-16.16-4.79-17.284-13.213l-0.001-0.005
						c-1.212-9.116-1.656-17.141-1.777-25.784c-0.076-8.518,0.344-17.122,1.488-25.857c1.219-8.738,3.082-17.632,6.636-26.602
						c3.518-8.862,8.831-18.167,17.433-25.488c4.219-3.635,9.186-6.721,14.448-8.708c2.654-1.152,5.17-1.741,7.755-2.485
						c2.753-0.547,5.464-1.104,8.469-1.235c5.878-0.391,12.438,0.449,18.407,2.939c5.99,2.449,11.09,6.338,14.978,10.522
						c7.787,8.511,11.697,17.705,14.614,26.497c1.42,4.429,2.531,8.831,3.387,13.24c0.862,4.539,1.501,8.523,1.909,13.733
						c0.391,5.007-1.733,9.631-5.311,12.629l-0.234,0.193c-18.561,15.337-38.77,29.221-61.129,39.858
						c-11.091,5.435-22.797,9.915-34.823,13.579c-12.146,3.352-24.64,5.964-37.449,6.924c-25.618,1.763-51.987-3.713-74.362-15.691
						c-11.218-5.911-21.538-13.24-30.571-21.763c-9.004-8.647-16.896-17.93-22.896-29.214c-1.348-2.534-0.386-5.681,2.148-7.029
						c1.807-0.959,3.926-0.747,5.482,0.374L1904.122,2680.33z"/>
				</g>
			</g>
			<g>
				<g>
					
						<ellipse transform="matrix(0.9989 -0.0471 0.0471 0.9989 -118.0726 87.1826)" style="fill:#5E2323;" cx="1790.215" cy="2548.059" rx="68.301" ry="96.901"/>
				</g>
				<g>
					
						<ellipse transform="matrix(0.9989 -0.0471 0.0471 0.9989 -116.9536 87.9246)" style="fill:#FFFFFF;" cx="1806.582" cy="2524.785" rx="20.637" ry="32.539"/>
					<path style="fill:#5E2323;" d="M1807.464,2559.803c-12.617,0-23.086-14.692-23.994-33.931
						c-0.432-9.15,1.443-17.891,5.278-24.619c4.043-7.095,9.79-11.167,16.184-11.465c12.903-0.659,23.833,14.277,24.761,33.906l0,0
						c0.432,9.15-1.443,17.896-5.278,24.624c-4.043,7.095-9.79,11.167-16.182,11.465
						C1807.977,2559.798,1807.72,2559.803,1807.464,2559.803z M1805.665,2494.769c-0.166,0-0.332,0.005-0.498,0.01
						c-4.621,0.22-8.909,3.398-12.075,8.95c-3.371,5.913-5.015,13.696-4.626,21.909c0.767,16.265,9.683,29.395,19.534,29.155
						c4.619-0.22,8.906-3.398,12.073-8.95c3.372-5.913,5.015-13.696,4.626-21.914l0,0
						C1823.944,2507.943,1815.286,2494.769,1805.665,2494.769z"/>
				</g>
			</g>
		</g>
		<g>
			<g>
				<g>
					<path style="fill:#B35B3B;" d="M2558.062,1989.945c0,0,124.065,170.732-27.602,231.673
						c-151.619,60.99-279.953-30.447-379.119-36.565c-99.167-6.118-140,73.177-239.12,85.366
						c-99.166,12.189-122.5-60.989-204.166-73.177c-81.667-12.189-101.206,91.483-248.937,48.801
						c-147.682-42.683-25.183-213.415-25.183-213.415s-77.541-87.832-77.303-248.51c0.047-50.84,6.26-106.565,20.819-162.717
						c6.498-25.04,14.655-50.175,24.709-74.979c70.332-174.336,232.527-333.733,555.4-342.933
						c310.305-8.822,561.233,109.6,648.306,374.851c7.968,24.281,13.469,48.326,17.026,71.944
						c3.13,20.677,4.695,41.023,5.074,60.847v0.142C2630.907,1867.397,2558.062,1989.945,2558.062,1989.945z"/>
				</g>
				<g>
					<path style="fill:#5E2323;" d="M1890.929,2290.738c-50.149,0.002-82.158-21.372-110.845-40.522
						c-22.854-15.256-44.443-29.668-74.829-34.207c-26.304-3.94-44.099,7.068-68.733,22.283
						c-38.694,23.899-86.851,53.643-182.647,25.962c-42.129-12.175-69.294-35.098-80.742-68.132
						c-20.723-59.802,19.526-133.945,37.461-162.607c-21.494-29.724-73.12-115.125-72.925-249.402
						c0.122-83.87,16.875-245.327,127.727-384.37c108.911-136.614,274.321-209.016,491.633-215.203l0.54,18.962l-0.54-18.962
						c163.391-4.661,303.85,24.612,417.529,86.973c121.841,66.838,205.723,168.083,249.314,300.918
						c63.433,193.301-19.731,371.523-43.611,416.56c17.131,26.868,58.625,101.392,39.678,167.273
						c-10.757,37.402-38.477,65.32-82.393,82.976c-108.87,43.784-207.463,13.176-286.685-11.416
						c-36.46-11.316-70.898-22.004-100.684-23.838c-47.883-2.925-80.076,16.187-117.397,38.335
						c-32.263,19.146-68.831,40.847-118.262,46.926C1906.226,2290.267,1898.372,2290.738,1890.929,2290.738z M1694.757,2177.262
						c5.146,0,10.5,0.386,16.104,1.223c38.784,5.793,66.147,24.06,90.291,40.176c31.426,20.979,58.552,39.08,108.738,32.93
						c41.538-5.11,71.65-22.979,103.533-41.897c39.131-23.223,79.573-47.229,139.087-43.577
						c34.343,2.114,70.898,13.459,109.602,25.471c77.307,23.999,164.934,51.194,261.282,12.451
						c32.935-13.242,52.581-32.273,60.061-58.179c18.047-62.49-40.168-143.979-40.759-144.795c-4.434-6.13-4.814-14.326-0.947-20.83
						c1.123-1.897,112.476-193.633,46.077-395.974c-79.614-242.603-303.267-371.089-629.714-361.797
						c-553.664,15.759-582.368,470.669-582.5,561.702c-0.22,150.776,71.841,235.098,72.571,235.933
						c5.789,6.633,6.289,16.418,1.155,23.572c-16.65,23.301-56.377,93.916-40.332,140.081c7.29,20.977,25.413,35.386,55.405,44.053
						c79.636,23.02,116.516,0.239,152.175-21.79C1639.52,2191.847,1663.133,2177.262,1694.757,2177.262z"/>
				</g>
				<g>
					<path style="fill:#5E2323;" d="M1674.478,1730.005l0.004,0.049c8.77,23.164,24.879,42.209,44.351,55.815
						c9.761,6.77,20.066,12.08,31.206,15.298c11.013,3.411,23.274,4.858,36.257,9.6c13.014,4.807,24.546,13.87,33.397,23.796
						c4.677,4.917,8.945,11.089,12.192,16.995c3.291,6.006,5.975,12.112,8.361,18.193c9.406,24.177,14.141,48.674,23.774,68.362
						c4.711,9.727,10.529,17.783,17.65,22.151c3.546,2.256,7.438,3.774,11.729,4.756c4.26,1.011,9.169,1.143,13.999,1.064
						c3.582-0.239,6.766-1.279,10.151-3.198c3.358-1.934,6.833-4.775,10.228-8.391c6.831-7.292,13.278-16.821,19.639-26.931
						c12.932-20.151,25.286-43.315,47.401-62.847c10.894-9.663,25.43-17.688,41.144-20.593c3.914-0.613,7.849-1.296,11.744-1.331
						c3.94-0.295,7.762-0.098,11.576,0.178l2.87,0.19l3.148,0.537l6.281,1.201c2.083,0.469,4.142,1.326,6.201,2.019
						c2.037,0.789,4.158,1.384,6.038,2.512c3.873,2.041,7.738,4.143,10.988,6.882c3.556,2.515,6.355,5.469,9.218,8.418
						c2.815,2.954,5.021,6.118,7.375,9.241c1.932,3.169,4.16,6.36,5.763,9.561c6.858,12.827,11.15,25.591,14.811,38.059
						c7.23,24.897,11.395,49.192,17.571,71.853c3.083,11.265,6.519,22.156,10.994,31.633c4.492,9.414,9.985,17.383,16.47,21.721
						c6.581,4.314,13.873,6.238,24.427,5.437c9.962-0.569,18.9-3.264,26.711-8.33c15.82-10.095,26.453-30.95,34.508-52.788
						c7.981-22.141,14.233-45.894,21.344-69.692c3.617-11.899,7.258-23.877,11.836-35.688c4.623-11.775,9.871-23.423,16.293-34.546
						c6.511-11.055,14.298-21.624,23.915-30.347c9.548-8.77,20.742-15.649,32.671-20.098l-1.912,2.91l0.004-0.046l0.024-0.41
						c0.073-1.169,0.846-2.129,1.884-2.498c13.958-4.951,28.621-6.57,42.899-5.913c-7.103,0.889-14.116,2.192-20.907,4.092
						c-6.793,1.895-13.323,4.485-19.471,7.634l1.908-2.905l0.002,0.046c0.073,1.169-0.566,2.217-1.544,2.722l-0.367,0.188
						c-21.388,11.011-36.208,30.195-45.887,51.511c-9.54,21.584-15.148,44.98-20.3,68.74c-5.178,23.789-9.138,48.223-16.444,72.844
						c-3.702,12.295-8.044,24.768-14.584,36.909c-6.479,12.058-15.388,24.087-27.765,33.14c-12.275,9.185-27.55,14.15-42.021,15.554
						c-3.694,0.198-7.092,0.742-11.049,0.579c-3.981-0.303-7.878-0.103-11.952-1.13l-6.051-1.279
						c-2.001-0.527-3.96-1.365-5.934-2.075c-4.034-1.301-7.606-3.535-11.243-5.647c-3.488-2.239-6.7-4.883-9.722-7.554
						c-2.728-2.832-5.769-5.623-7.942-8.684l-3.496-4.543l-2.985-4.646c-2.076-3.105-3.662-6.245-5.311-9.39
						c-6.405-12.588-10.638-25.181-14.229-37.549c-7.083-24.69-11.924-48.835-18.464-71.152
						c-3.289-11.082-7.102-21.682-11.92-30.518c-4.786-9.019-10.62-15.137-16.782-18.315c-0.714-0.566-1.643-0.662-2.456-1.006
						c-0.856-0.256-1.611-0.72-2.528-0.898c-0.934-0.142-1.858-0.308-2.78-0.503l-1.382-0.313l-1.73-0.098
						c-2.321-0.173-4.631-0.352-6.835-0.149c-2.272-0.056-4.392,0.408-6.559,0.671c-8.472,1.65-16.464,5.459-24.066,11.919
						c-15.406,12.788-27.776,33.245-41.741,53.96c-7.084,10.43-14.559,21.338-24.91,31.687c-5.243,5.11-11.445,10.073-18.931,13.921
						c-7.435,3.855-16.365,6.294-25.106,6.328c-7.437-0.137-14.895-0.679-22.565-2.781c-7.598-2.102-15.126-5.562-21.676-10.322
						c-6.569-4.736-12.064-10.637-16.292-16.812c-4.274-6.179-7.516-12.588-10.201-18.938c-5.249-12.751-8.334-25.288-11.252-37.393
						c-2.935-12.102-5.365-23.906-8.677-34.99c-3.384-11.104-7.307-21.262-13.944-29.446c-6.782-8.977-14.719-15.959-24.342-20.916
						c-9.72-4.844-21.896-7.71-33.976-12.744c-12.118-4.851-23.306-12.166-32.715-20.771c-9.321-8.64-17.869-18.215-24.364-29.053
						c-6.46-10.823-11.211-22.561-13.651-34.663L1674.478,1730.005z"/>
				</g>
				<g style="opacity:0.2;">
					<path style="fill:#5E2323;" d="M2622.893,1650.283c-154.939,98.218-226.362-62.839-348.625-67.344
						c-123.638-4.6-169.072,114.295-281.992,105.142c-112.92-9.105-166.037-150.908-254.201-166.89
						c-88.116-16.03-209.099,57.148-284.41,43.441c-17.974-3.272-35.427-9.912-51.504-18.211
						c70.332-174.336,232.527-333.733,555.4-342.933c310.305-8.822,561.233,109.6,648.306,374.851
						C2613.834,1602.621,2619.336,1626.666,2622.893,1650.283z"/>
				</g>
				<g style="opacity:0.2;">
					<path style="fill:#5E2323;" d="M2627.967,1711.272c-16.315,160.725-151.667,299.777-341.511,375.278
						c31.681-47.852,52.168-114.058,59.329-160.535c5.359-34.81,6.782-70.427,17.263-104.052c1.944-6.212,4.221-12.33,6.924-18.306
						c-108.936,47.141-53.828,265.583-174.81,265.536c-91.531,0-51.836-198.144-135.115-207.297
						c-83.231-9.153-94.234,119.607-152.473,120.603c-75.217,1.328-59.993-96.227-94.045-138.909
						c-34.099-42.683-60.468-18.306-106.186-60.989c-18.59-17.358-28.123-36.281-32.865-52.547
						c-0.949,27.08,2.608,53.78,18.78,74.884c18.875,24.614,51.362,35.948,69.953,60.799
						c25.942,34.811,17.405,85.129,37.324,123.733c21.247,41.165,76.877,60.373,118.99,41.118
						c40.217-18.448,63.219-63.882,103.814-81.429c6.877-2.94,15.082-4.932,21.483-1.091c5.691,3.414,8.063,10.291,9.912,16.694
						c8.015,27.838,18.97,125.867,82.426,165.372c-55.82,10.956-114.295,16.789-174.241,16.789
						c-345.02,0-459.838-184.437-514.519-275.874c-54.682-91.484-70.901-249.695-70.901-249.695s0,0-0.047,0.047
						c-14.559,56.152-20.772,111.877-20.819,162.717c-0.237,160.677,77.303,248.51,77.303,248.51s-122.5,170.732,25.183,213.415
						c147.731,42.683,167.27-60.989,248.937-48.801c81.667,12.188,105,85.366,204.166,73.177
						c99.119-12.189,139.953-91.484,239.12-85.366c99.167,6.118,227.5,97.555,379.119,36.565
						c151.667-60.941,27.602-231.673,27.602-231.673S2630.907,1867.397,2627.967,1711.272z M1491.89,2069.193
						c0,0,59.661,65.494,127.384,73.415C1619.274,2142.608,1461.395,2195.202,1491.89,2069.193z M2503.096,2130.181
						c-45.197,17.311-99.736,12.758-133.787,7.066c-11.667-1.944-14.323-17.405-4.031-23.143l129.377-72.181
						c17.832-9.96,40.406-0.047,44.864,19.871C2544.925,2085.744,2541.937,2115.29,2503.096,2130.181z"/>
				</g>
			</g>
			<g>
				<g>
					<path style="fill:#F96EBB;" d="M1506.124,1276.517c36.585-77.744-45.732-205.793,27.439-393.293
						s329.886-406.123,727.134-306.402c370.427,92.988,443.542,410.456,420.732,571.646
						c-22.866,161.585-105.183,182.927-105.183,242.378s64.024,164.634-18.293,201.219
						c-82.317,36.585-196.646-100.61-283.536-100.61c-86.89,0-132.622,77.744-260.671,77.744s-141.768-123.476-242.378-141.768
						c-100.61-18.293-222.561,96.037-306.402,20.087C1378.53,1369.219,1506.124,1276.517,1506.124,1276.517z"/>
				</g>
				<g style="opacity:0.6;">
					<g>
						<path style="fill:#FFFFFF;" d="M2271.554,576.822c-396.055-99.421-652.4,117.589-726.449,304.71
							c97.766-173.339,347.225-346.697,715.356-255.851c342.032,84.406,434.871,353.762,431.742,523.317
							c0.026-0.181,0.058-0.347,0.083-0.529C2715.095,987.278,2641.981,669.81,2271.554,576.822z"/>
					</g>
				</g>
				<g>
					<path style="fill:#812C5B;" d="M2527.633,1617.298c-44.697,0-91.943-28.73-137.981-56.726
						c-40.542-24.653-82.466-50.146-115.242-50.146c-34.653,0-62.729,14.436-95.242,31.15
						c-42.471,21.833-90.605,46.58-165.408,46.58c-79.05,0-119.653-42.844-155.479-80.645
						c-27.644-29.167-51.516-54.355-90.31-61.416c-36.88-6.716-80.32,7.832-122.341,21.899
						c-63.774,21.345-136.06,45.54-193.413-6.392c-25.569-23.171-37.722-49.927-36.126-79.531
						c3.076-57.048,58.438-104.844,74.585-117.615c10.483-26.497,6.094-62.258,0.61-106.958
						c-9.067-73.926-20.354-165.93,24.617-281.172c7.297-18.74,16.358-37.698,26.924-56.333
						c9.417-16.697,20.171-33.311,31.938-49.343c64.172-87.685,157.879-157.852,263.84-197.551
						c129.163-48.391,272.727-53.333,426.714-14.692c307.449,77.188,427.932,312.646,438.169,507.263
						c0.708,13.618,0.854,27.463,0.444,41.167c0,0.01-0.002,0.02-0.002,0.029c-0.483,15.266-1.741,30.159-3.733,44.265
						c-14.343,101.387-51.162,150.422-78.044,186.226c-17.715,23.594-26.958,36.687-26.958,53.508
						c0,14.797,5.042,34.592,10.378,55.549c14.023,55.059,33.23,130.466-39.905,162.966
						C2553.267,1614.896,2540.552,1617.298,2527.633,1617.298z M2274.41,1472.486c43.406,0,89.946,28.301,134.954,55.669
						c51.001,31.011,103.738,63.074,140.896,46.555c40.923-18.184,34.307-57.063,18.55-118.933
						c-5.942-23.325-11.553-45.359-11.553-64.912c0-30.261,16.013-51.589,34.558-76.287c25.769-34.324,57.839-77.039,70.815-168.76
						c1.802-12.747,2.939-26.257,3.381-40.154c0.378-12.664,0.242-25.452-0.41-38.018
						c-9.524-181.074-122.107-400.286-409.517-472.441c-396.579-99.519-598.332,126.294-650.718,197.873
						c-10.891,14.839-20.818,30.171-29.514,45.591c-9.688,17.087-17.957,34.38-24.597,51.436
						c-41.499,106.34-30.859,193.079-22.31,262.773c6.253,50.955,11.651,94.961-5.669,131.726c-1.36,2.888-3.425,5.386-6.008,7.261
						c-16.89,12.346-61.23,53.03-63.296,92.324c-0.938,17.856,6.819,33.979,23.718,49.292
						c40.881,37.021,94.185,19.192,155.898-1.467c46.565-15.583,94.714-31.704,141.174-23.25
						c51.003,9.285,81.533,41.497,111.055,72.646c33.533,35.383,65.208,68.804,127.942,68.804
						c65.62,0,107.532-21.545,148.061-42.383C2197.178,1489.654,2230.574,1472.486,2274.41,1472.486z M2684.971,1106.266h0.051
						H2684.971z"/>
				</g>
				<g>
					<path style="fill:#812C5B;" d="M1577.612,834.473c-0.175,0.459-0.643,2.288-0.911,3.55c-0.302,1.406-0.568,2.852-0.768,4.289
						c-0.42,2.881-0.634,5.752-0.626,8.491c-0.034,5.525,0.98,10.371,2.664,14.036c1.759,3.606,4.138,6.218,7.985,8.438
						c3.815,2.209,9.213,3.606,15.151,4.248c5.944,0.698,12.557,0.403,19.219-0.227l5.042-0.554l6.698-0.645l3.367-0.283
						l3.524,0.039c2.369,0.1,4.642-0.042,7.075,0.315c9.535,0.752,19.775,4.258,28.102,10.085
						c8.405,5.828,14.568,13.555,19.071,21.216c8.982,15.525,12.843,31.003,16.792,45.798c3.759,14.775,6.979,29.189,11.646,42.324
						c4.617,13.101,11.058,24.729,20.562,30.962c4.788,3.203,10.139,5.002,16.698,5.757c6.331,0.801,12.406,0.491,17.87-1.35
						c11.046-3.389,19.626-14.294,26.558-26.692c7.002-12.483,12.758-26.465,19.921-40.149c7.133-13.579,15.93-27.585,29.399-37.439
						c13.434-9.827,30.533-13.765,46.553-11.577c16.091,2.241,29.982,9.475,43.414,16.03c13.431,6.692,26.797,13.186,41.113,16.821
						c7.13,1.843,14.435,2.998,21.815,3.401c7.385,0.32,14.801-0.205,22.159-1.292c14.683-2.471,28.958-7.517,42.445-14.124
						c-13.123,7.302-27.178,13.147-42.008,16.453c-7.435,1.504-15.022,2.449-22.671,2.517c-7.643-0.012-15.298-0.81-22.806-2.334
						c-15.071-2.993-29.279-9.016-43.033-14.988c-13.744-5.889-27.484-11.924-41.467-13.057
						c-13.807-1.147-27.881,3.04-38.314,11.567c-10.563,8.582-17.792,21.096-23.834,34.302
						c-6.107,13.276-11.053,27.458-18.003,41.609c-3.511,7.056-7.57,14.165-13.087,20.762c-5.424,6.587-12.782,12.561-21.454,15.938
						c-8.629,3.469-17.909,4.299-26.487,3.664c-2.151-0.239-4.248-0.322-6.451-0.723l-6.665-1.428
						c-4.391-1.387-8.754-3.04-12.778-5.452c-8.102-4.7-14.652-11.421-19.657-18.501c-5.018-7.114-8.831-14.617-11.88-22.056
						c-6.176-14.914-10.236-29.731-14.656-43.85c-4.41-13.955-9.066-27.715-15.873-37.896c-3.368-5.078-7.174-9.036-11.311-11.538
						c-4.16-2.468-8.665-3.918-14.143-4.036c-1.29-0.168-2.797,0.088-4.176,0.078l-2.111,0.056l-2.23,0.344l-4.493,0.654
						l-6.117,1.016c-8.224,1.213-16.678,2.097-25.732,1.589c-8.982-0.513-18.642-2.041-28.262-6.67
						c-4.775-2.334-9.442-5.386-13.579-9.219c-4.071-3.875-7.616-8.369-10.292-13.188c-5.294-9.683-7.471-19.897-7.997-29.358
						c-0.28-4.768-0.173-9.421,0.233-14.004c0.198-2.297,0.483-4.57,0.842-6.86c0.41-2.432,0.708-4.285,1.522-7.446l0.24-0.93
						c2.62-10.173,12.991-16.296,23.164-13.677c10.172,2.622,16.295,12.993,13.674,23.164
						C1578.08,833.135,1577.859,833.823,1577.612,834.473z"/>
				</g>
				<g>
					<path style="fill:#812C5B;" d="M2702.637,1113.279c-2.789,5.735-5.333,10.044-8.204,14.837
						c-2.887,4.612-5.842,9.16-9.058,13.552c-6.375,8.811-13.446,17.217-21.445,24.968c-7.965,7.751-16.975,14.844-27.241,20.422
						c-10.21,5.535-21.636,9.768-33.997,10.92c-12.354,1.226-24.622-1.184-34.951-4.741c-10.443-3.547-19.473-7.896-28.26-11.296
						c-17.252-6.912-35.192-10.439-51.771-5.771c-16.83,4.355-32.893,17.402-52.657,25.4c-9.827,4.023-20.438,6.504-30.985,7.183
						c-5.291,0.498-10.532,0.19-15.75-0.068c-5.288-0.396-10.696-1.316-15.743-2.964c-20.51-6.465-36.453-20.759-49.149-36.265
						c-12.695-15.718-22.877-33.152-30.715-51.475c9.249,17.622,20.74,34.072,34.269,48.335
						c13.475,14.111,29.828,26.14,48.057,30.244c4.531,1.089,9.07,1.482,13.713,1.462c4.742-0.156,9.465-0.234,14.071-1.06
						c9.246-1.355,18.079-4.172,26.396-8.369c8.354-4.153,16.202-9.612,24.569-15.242c8.344-5.596,17.472-11.409,28.098-15.237
						c10.509-3.906,22.472-5.296,33.344-4.668c11.085,0.576,21.946,3.013,31.971,6.072c10.054,3.035,19.358,6.582,28.011,8.726
						c8.677,2.192,16.527,2.859,23.973,1.496c14.944-2.813,29.424-12.908,40.859-26.16c5.801-6.606,11.053-13.933,15.752-21.667
						c2.377-3.845,4.535-7.852,6.626-11.858c0.985-2.029,2.019-4.045,2.922-6.072c0.914-1.943,1.88-4.226,2.44-5.693l0.037-0.095
						c3.745-9.797,14.723-14.705,24.519-10.959c9.797,3.745,14.703,14.722,10.959,24.519
						C2703.102,1112.266,2702.87,1112.795,2702.637,1113.279z"/>
				</g>
				<g style="opacity:0.2;">
					<path style="fill:#8C3156;" d="M2680.561,1106.171c-2.466,5.548-25.751,55.393-66.016,72.656
						c-42.683,18.306-67.107-15.223-112.825-15.223s-60.989,42.683-118.896,39.6c-23.191-1.233-42.92-15.128-58.285-31.348h-0.048
						l-5.501,3.368c52.026,115.291,165.563,40.169,165.563,40.169s129.946-36.565,73.13,67.059
						c-56.816,103.673-324.201,140.048-516.89,114.011c-391.355-52.879-587.128-342.507-425.929-444.851
						c65.21-41.402,45.386,157.074,152.094,138.767c106.707-18.259,57.906-122.595,103.861-125.772
						c45.955-3.177,30.305,12.995,80.766,12.995c49.085,0,67.819-24.566,68.862-25.942c-68.151,10.861-102.06-46.714-152.852-28.929
						c-60.99,21.341-45.766,131.084-118.943,118.895c-73.13-12.188-33.53-164.614-124.966-149.39
						c-89.587,14.94-69.573-59.945-68.719-63.076c-0.047,0-0.047,0.047-0.047,0.047c-10.244,18.069-18.828,36.091-25.752,53.875
						c-73.177,187.521,9.153,315.569-27.459,393.299c0,0-127.575,92.717-41.165,171.016
						c83.848,75.928,205.827-38.415,306.416-20.108c100.589,18.306,114.342,141.755,242.391,141.755s173.768-77.73,260.651-77.73
						c86.883,0,201.226,137.201,283.556,100.589c82.284-36.565,18.259-141.754,18.259-201.178
						c0-59.472,82.331-80.813,105.189-242.392C2678.854,1135.243,2680.087,1121.11,2680.561,1106.171z M1556.863,1247.547
						c0,0,20.725,103.671,117.615,120.413C1674.478,1367.959,1493.312,1380.196,1556.863,1247.547z M2012.526,1511.279
						c-73.794-4.505-110.453-91.721-111.544-94.471c3.367,1.328,155.224,62.222,269.755,41.118
						C2170.738,1457.925,2087.506,1515.832,2012.526,1511.279z M2525.955,1511.516c-66.017,21.057-140.237-65.732-140.237-65.732
						c97.554,3.178,150.908-48.848,150.908-48.848S2591.924,1490.507,2525.955,1511.516z"/>
				</g>
			</g>
		</g>
		<g style="opacity:0.4;">
			<path style="fill:#FFFFFF;" d="M2243.665,740.816c14.968-57.444,120.226-50.923,202.403,25.313
				c82.177,76.236,73.405,154.992,16.398,169.89c-63.042,16.475-74.359-69.771-104.93-103.268
				C2333.825,806.77,2229.677,794.5,2243.665,740.816z"/>
		</g>
		<g style="opacity:0.4;">
			
				<ellipse transform="matrix(0.971 -0.2392 0.2392 0.971 -167.2546 630.703)" style="fill:#FFFFFF;" cx="2515.035" cy="1004.485" rx="46.748" ry="35.606"/>
		</g>
		<g style="opacity:0.4;">
			<path style="fill:#FFFFFF;" d="M2210.147,1964.094c-5.378,5.754-11.442,10.979-15.67,17.624
				c-4.753,7.469-6.925,16.547-6.069,25.358c0.746,7.674,4.768,16.026,12.254,17.876c8.697,2.149,16.654-5.366,21.772-12.718
				c15.431-22.165,22.801-48.373,29.458-74.207c3.717-14.424,22.973-55.995,12.26-67.695
				C2239.857,1895.59,2235.142,1937.353,2210.147,1964.094z"/>
		</g>
		<g style="opacity:0.4;">
			<path style="fill:#FFFFFF;" d="M1779.769,923.931c-7.393,17.339-10.049,37.015-21.322,52.122
				c-3.521,4.718-8.074,9.67-7.389,15.517c0.836,7.143,9.747,11.026,16.664,9.058c6.917-1.968,11.944-7.865,15.974-13.822
				c10.224-15.112,16.792-32.329,24.214-48.997c7.422-16.667,16.039-33.28,29.35-45.758c13.311-12.478,32.195-20.284,50-16.299
				c-25.115-5.618-36.817-14.266-61.427-1.251C1805.561,885.222,1788.79,902.773,1779.769,923.931z"/>
		</g>
		<g style="opacity:0.4;">
			<path style="fill:#FFFFFF;" d="M2560.458,1090.446c-5.062,2.929-10.914,4.212-16.134,6.848
				c-5.221,2.636-10.098,7.338-10.24,13.185c-0.216,8.884,9.988,14.16,18.786,15.439c29.553,4.293,84.16-21.843,69.489-59.042
				C2603.117,1018.09,2576.721,1081.036,2560.458,1090.446z"/>
		</g>
	</g>
	<g style="opacity:0.2;">
		<ellipse style="fill:#5E2323;" cx="2000" cy="3561.11" rx="581.612" ry="48.585"/>
	</g>
</g>
</svg>
