<?xml version="1.0" encoding="utf-8"?>
<!-- Generator: Adobe Illustrator 27.5.0, SVG Export Plug-In . SVG Version: 6.00 Build 0)  -->
<svg version="1.1" id="Layer_1" xmlns="http://www.w3.org/2000/svg" xmlns:xlink="http://www.w3.org/1999/xlink" x="0px" y="0px"
	 viewBox="0 0 4000 4000" style="enable-background:new 0 0 4000 4000;" xml:space="preserve">
<g>
	<g>
		<!-- <rect style="fill:#06CDEF;" width="4000" height="4000"/> -->
	</g>
	<g>
		<g>
			<path style="fill:#B6EB25;" d="M1925.985,3091.831c-85.693-10.23-151.413-35.71-201.446-71.42
				c-195.406-139.235-151.512-434.268-122.281-586.607c1.462-7.551,2.631-14.81,3.605-21.777
				c23.872-171.388-86.814-193.067-86.814-193.067C1951.806,2119.089,1925.985,3091.831,1925.985,3091.831z"/>
		</g>
		<g style="opacity:0.25;">
			<g>
				<path style="fill:#102973;" d="M1925.985,3091.831c-85.693-10.23-151.413-35.71-201.446-71.42
					c104.06-287.774-40.046-513.531-118.676-608.384c23.872-171.388-86.814-193.067-86.814-193.067
					C1951.806,2119.089,1925.985,3091.831,1925.985,3091.831z"/>
			</g>
		</g>
		<g>
			<path style="fill:#102973;" d="M1925.992,3113.764c-0.864,0-1.733-0.054-2.603-0.156
				c-129.292-15.454-226.191-66.187-288.013-150.781c-111.421-152.456-84.536-377.305-54.624-533.169
				c31.836-165.894-62.134-188.359-66.147-189.233c-10.024-2.183-17.31-11.055-17.373-21.313
				c-0.063-10.259,6.88-19.214,16.88-21.519c82.012-18.911,154.585-3.208,215.645,46.699
				c232.866,190.356,218.862,821.362,218.149,848.13c-0.161,6.167-2.915,11.973-7.578,16.006
				C1936.324,3111.889,1931.226,3113.764,1925.992,3113.764z M1584.302,2233.661c32.1,32.69,60.781,93.418,39.507,204.258
				c-28.369,147.822-54.365,360.386,46.963,499.038c50.518,69.121,129.009,112.69,233.54,129.697
				c0.156-118.647-10.527-631.68-202.319-788.428C1666.763,2249.438,1627.901,2234.662,1584.302,2233.661z"/>
		</g>
		<g>
			<path style="fill:#B6EB25;" d="M3014.265,2645.649c0,0,329.631-45.711,518.926-273.663c11.063-13.322,0.931-33.421-16.359-32.481
				c-57.578,3.131-166.727,3.291-298.901-24.569"/>
		</g>
		<g>
			<path style="fill:#102973;" d="M3014.234,2667.573c-10.771,0-20.166-7.939-21.685-18.911
				c-1.665-11.992,6.704-23.057,18.691-24.727l0,0c3.198-0.444,320.044-46.919,502.017-262.29
				c-56.792,2.769-167.256,2.686-299.849-25.259c-11.846-2.495-19.429-14.126-16.929-25.972
				c2.495-11.846,14.155-19.434,25.972-16.929c131.479,27.715,240.112,27.021,293.188,24.131
				c16.846-0.947,32.012,7.871,39.595,22.939c7.573,15.063,5.591,32.471-5.181,45.439
				c-192.51,231.821-518.975,279.453-532.778,281.367C3016.256,2667.504,3015.24,2667.573,3014.234,2667.573z"/>
		</g>
		<g>
			<path style="fill:#B6EB25;" d="M3462.389,2670.523c-33.274,338.635-542.08,426.132-806.86,59.922
				c-319.684,6.236-507.295-115.168-534.723-134.265c-2.339-1.608-3.508-2.485-3.508-2.485
				c132.658,350.035,441.381,532.677,441.381,532.677c-112.294,52.176-207.147,83.209-287.482,97.094
				c-0.292,0.049-0.536,0.097-0.731,0.097c-571.895,98.117-406.402-675.565-568.436-897.279
				c-52.906-72.443-140.306-103.232-224.149-114.535c-117.116-15.736-227.315,6.577-227.315,6.577
				c-287.482,37.512-437.873-46.671-517.818-193.506c-9.256-17.002-17.587-34.833-25.041-53.443
				c-0.097-0.146-0.146-0.292-0.195-0.439c0,0-1.364-0.195-3.8-0.536c-0.049-0.049-0.146-0.049-0.195-0.049
				c-15.784-2.533-74.879-12.764-116.776-32.543c-7.551-3.605-14.42-8.379-20.315-14.128c-9.598-9.403-16.71-21.338-20.267-34.59
				c-27.33-101.868-33.859-199.254-22.995-289.479c0-0.049,0-0.049,0-0.098c40.24-335.176,319.879-571.602,663.629-571.213
				c326.213-13.251,609.943,251.334,643.656,522.154v0.049c3.166,25.187,4.141,50.423,2.777,75.463
				c0,0,682.678,837.307,1027.647,970.647C3205.843,2729.958,3462.389,2670.523,3462.389,2670.523z"/>
		</g>
		<g style="opacity:0.25;">
			<g>
				<path style="fill:#102973;" d="M2558.68,3126.372c-112.294,52.176-207.147,83.209-287.482,97.094
					c-0.292,0.049-0.536,0.097-0.731,0.097c-0.536,0.049-0.78,0.097-0.78,0.097s184.883-65.135,14.81-201.398
					c-170.072-136.263-231.018-422.283-254.646-645.507c0,0,46.379,116.581,90.956,219.423c-2.339-1.608-3.508-2.485-3.508-2.485
					C2249.956,2943.73,2558.68,3126.372,2558.68,3126.372z"/>
			</g>
		</g>
		<g style="opacity:0.25;">
			<g>
				<path style="fill:#102973;" d="M1926.277,2211.75c-240.323-186.247-448.396,0-448.396,0
					c-117.116-15.736-227.315,6.577-227.315,6.577c-287.482,37.512-437.873-46.671-517.818-193.506
					c-8.769-26.307-14.128-42.774-14.128-42.774l150.927,6.041c233.552,266.68,860.887,165.396,951.599-359.048
					C1798.101,1935.814,1926.277,2211.75,1926.277,2211.75z"/>
			</g>
		</g>
		<g style="opacity:0.25;">
			<g>
				<path style="fill:#102973;" d="M941.356,2010.547c-96.704-9.89-173.532-24.067-233.649-39.169
					c-1.364-0.292-2.68-0.633-3.995-0.974c-0.049-0.049-0.146-0.049-0.195-0.049c-63.235-16.125-107.617-33.079-137.091-46.671
					c-9.598-9.403-16.71-21.338-20.267-34.59c-27.33-101.868-33.859-199.254-22.995-289.479
					c9.11,112.099,36.1,250.554,139.868,278.567c196.088,52.858,471.536,108.202,581.736,5.797
					C1244.769,1883.979,1263.135,2043.431,941.356,2010.547z"/>
			</g>
		</g>
		<g style="opacity:0.49;">
			<path style="fill:#FFFFFF;" d="M3462.389,2670.523c-3.021,30.594-9.89,59.143-20.169,85.499
				c-66.841,10.669-293.231,33.761-581.346-77.607c-344.969-133.388-1027.647-970.647-1027.647-970.647
				c12.374-228.729-169.001-471.098-417.509-561.469c-80.335,14.469-179.28,0.974-257.374-35.661
				c-345.115,12.813-619.249,265.656-638.979,614.133c-22.459-399.971,282.269-696.904,667.429-696.465
				c356.564-14.469,662.363,302.925,646.433,597.666c0,0,682.678,837.307,1027.647,970.647
				C3205.843,2729.958,3462.389,2670.523,3462.389,2670.523z"/>
		</g>
		<g>
			<path style="fill:#102973;" d="M745.055,1764.267c-24.962,16.015-31.405,26.815-43.337,23.273
				c-16.777-4.98-6.359-39.037,13.986-60.617s47.067-29.429,59.688-17.532C788.011,1721.289,772.957,1746.366,745.055,1764.267z"/>
		</g>
		<g>
			<path style="fill:#102973;" d="M2176.646,3254.145c-64.404,0-120.381-13.091-168.54-39.209
				c-172.617-93.618-207.28-335.679-237.861-549.243c-19.136-133.623-37.212-259.839-85.893-326.47
				c-117.051-160.2-426.357-100.049-429.468-99.429c-0.493,0.098-0.996,0.186-1.494,0.249
				c-158.086,20.64-281.665,6.606-377.793-42.939c-82.427-42.485-142.607-110.103-183.682-206.467
				c-23.555-4.08-75.376-14.526-114.526-33.025c-25.859-12.222-44.946-35.134-52.383-62.864
				c-61.987-231.17-23.511-453.022,108.335-624.69c128.726-167.595,330.108-263.672,552.608-263.672c0.137,0,0.259,0,0.396,0
				c178.76-7.085,358.037,66.506,491.807,202.085c117.871,119.463,182.178,268.435,177.349,410.066
				c64.238,77.913,693.423,833.977,1013.291,957.625c333.896,129.067,586.172,73.584,588.691,73.008
				c6.846-1.567,14.097,0.244,19.395,4.907c5.293,4.658,8.037,11.582,7.344,18.599c-14.453,147.085-114.482,259.6-267.568,300.981
				c-94.819,25.63-201.533,20.039-300.474-15.747c-105.801-38.262-199.487-109.15-271.592-205.376
				c-4.36,0.044-8.735,0.068-13.047,0.068c-229.224,0.01-387.969-63.413-467.91-105.356
				c138.652,298.931,403.379,458.599,406.216,460.278c6.997,4.15,11.128,11.836,10.718,19.961s-5.278,15.361-12.656,18.784
				C2412.799,3218.285,2283.209,3254.14,2176.646,3254.145z M1390.006,2183.901c108.701,0,251.885,22.896,329.746,129.453
				c55.137,75.459,73.965,206.934,93.896,346.123c29.116,203.34,62.119,433.809,215.361,516.919
				c108.813,59.014,267.432,41.558,484.146-53.506c-85.586-59.102-307.383-233.838-416.338-521.411
				c-3.452-9.121-0.469-19.429,7.329-25.293c7.798-5.85,18.53-5.869,26.328-0.015c1.836,1.367,190.386,138.862,524.644,132.354
				c0.146-0.005,0.288-0.005,0.43-0.005c7.026,0,13.638,3.369,17.769,9.077c149.351,206.597,374.771,256.211,531.895,213.73
				c124.419-33.628,208.965-119.976,231.143-233.906c-79.185,11.577-301.279,28.682-583.374-80.361
				c-346.401-133.906-1008.716-942.869-1036.743-977.241c-3.447-4.229-5.195-9.59-4.897-15.037
				c7.134-131.882-52.788-272.397-164.399-385.515c-125.225-126.919-292.568-195.837-459.277-189.053
				c-0.298,0.015-0.503,0.054-0.913,0.02c-0.254-0.003-0.542-0.003-0.796-0.003c-208.784,0-397.471,89.822-517.837,246.536
				c-123.35,160.598-159.131,368.933-100.757,586.626c4.092,15.268,14.575,27.871,28.765,34.578
				c45.073,21.294,113.735,31.157,114.424,31.255c7.768,1.096,14.37,6.265,17.29,13.547
				c78.394,195.425,243.35,269.761,519.15,233.887C1256.124,2194.858,1314.82,2183.901,1390.006,2183.901z"/>
		</g>
		<g>
			<path style="fill:#19B5FF;" d="M3354.489,2308.205c-2.054,25.09-11.902,48.828-26.386,69.418
				c-240.398,341.715-766.514,327.951-1168.117,48.371c-246.262-171.438-348.241-415.437-326.76-800.028
				c39.135-104.119,196.4-84.551,200.024,19.809c488.463-380.48,1234.203-115.231,1221.4,578.329
				C3313.2,2203.161,3359.984,2241.108,3354.489,2308.205z"/>
		</g>
		<g style="opacity:0.25;">
			<g>
				<path style="fill:#102973;" d="M3161.611,1827.016c216.725,620.302-719.617,669.583-1061.686,226.278
					c0,0,169.777,353.88,581.228,407.069c464.197,60.008,581.228-267.181,581.228-267.181S3230.91,1935.301,3161.611,1827.016z"/>
			</g>
		</g>
		<g style="opacity:0.49;">
			<path style="fill:#FFFFFF;" d="M3354.48,2308.211c-0.828,10.133-2.923,20.023-6.09,29.572
				c-14.323-36.1-74.797-99.661-117.668-84.315c12.813-693.591-709.02-911.47-1197.461-531.035
				c-3.654-104.353-160.913-123.889-200.034-19.78c-1.072,19.536-1.851,38.73-2.29,57.536c-1.121-42.725-0.341-87.448,2.29-134.217
				c39.12-104.109,196.38-84.573,200.034,19.779c488.442-380.435,1234.209-115.217,1221.397,578.374
				C3313.216,2203.176,3359.985,2241.127,3354.48,2308.211z"/>
		</g>
		<g>
			<path style="fill:#102973;" d="M708.076,1949.019c90.831-0.676,181.083,19.143,269.333,32.994
				c64.221,9.302,127.709,14.418,186.338-13.277c18.811-8.813,36.501-20.713,53.145-34.634c4.488-3.791,11.21-3.206,14.978,1.301
				c3.291,3.936,3.237,9.558,0.156,13.418c-14.583,18.291-32.39,34.646-52.866,47.568
				c-102.702,63.967-230.629,25.263-341.245,10.932c-43.875-6.797-87.464-11.751-131.165-14.482
				C678.876,1990.374,679.884,1949.909,708.076,1949.019L708.076,1949.019z"/>
		</g>
		<g>
			<path style="fill:#102973;" d="M2786.26,2656.904c-214.932,0-441.021-75.229-638.799-212.915
				c-254.224-176.982-357.886-429.649-336.123-819.246c0.127-2.219,0.586-4.407,1.367-6.489
				c25.508-67.864,92.183-89.77,143.345-81.382c43.657,7.151,77.163,34.038,91.523,70.85
				c247.691-177.3,570.703-208.296,832.437-77.398c120.288,60.161,219.995,151.658,288.335,264.602
				c70.503,116.509,106.899,251.611,108.345,401.958c23.584-2.095,45.708,3.809,63.306,17.314
				c26.421,20.278,39.668,55.19,36.343,95.796c-2.256,27.524-12.734,55.273-30.308,80.244
				c-117.563,167.109-309.727,261.748-541.089,266.475C2798.726,2656.84,2792.496,2656.904,2786.26,2656.904z M1854.923,1630.705
				c-20,370.676,78.027,610.52,317.588,777.297c195.977,136.431,420.225,209.194,631.538,204.873
				c217.051-4.434,396.797-92.461,506.123-247.866c13.081-18.589,20.85-38.853,22.466-58.599l0,0
				c2.09-25.464-4.961-46.396-19.336-57.427c-12.935-9.932-31.143-11.436-51.27-4.233c-6.777,2.412-14.312,1.362-20.171-2.837
				c-5.85-4.204-9.263-11.011-9.131-18.213c5.439-294.668-130.269-533.101-372.334-654.16
				c-256.597-128.328-575.977-91.614-813.672,93.53c-6.499,5.056-15.293,6.055-22.754,2.566
				c-7.461-3.486-12.339-10.867-12.627-19.099c-1.45-41.658-33.174-61.611-62.378-66.397
				C1914.547,1574.506,1872.589,1588.056,1854.923,1630.705z"/>
		</g>
		<g>
			<path style="fill:#102973;" d="M2055.125,1647.229c-17.757,258.291,25.821,473.096,248.567,629.969
				c64.882,46.781,136.851,84.658,210.349,119.589c5.649,2.686,8.054,9.443,5.369,15.093c-2.537,5.337-8.75,7.759-14.187,5.752
				c-17.709-6.405-40.702-15.256-57.717-22.314c-129.727-53.601-257.587-130.127-337-249.397
				c-98.075-146.252-110.23-331.365-99.13-501.602C2014.046,1615.578,2056.176,1617.907,2055.125,1647.229L2055.125,1647.229z"/>
		</g>
		<g>
			<path style="fill:#102973;" d="M3272.346,2237.043c-78.422,106.451-210.814,204.645-344.313,221.432
				c-13.942,1.479-17.818-18.541-4.166-22.235c80.101-18.831,151.241-64.276,211.977-118.711
				c36.047-32.874,70.552-69.328,101.55-106.897C3255.628,2189.726,3287.433,2213.741,3272.346,2237.043L3272.346,2237.043z"/>
		</g>
		<g style="opacity:0.2;">
			<path style="fill:#FFFFFF;" d="M3087.453,2010.736c-22.866-23.606-48.777-43.866-75.524-62.761
				c-3.854-35.67-9.786-71.257-22.129-105.129c-4.273-11.254-21.309-9.449-23.043,2.592c-4.371,34.695-2.53,69.623,1.395,104.211
				l-227.838,161.497c-21.259-11.545-42.549-23.028-63.974-34.242c-51.416-27.297-103.212-53.85-155.329-79.776
				c-22.413-11.243-45.048-22.048-67.617-32.984l-38.338-237.285l93.807-102.868c9.568-10.613-5.021-25.805-16.028-16.758
				l-106.576,88.83c-38.506-9.596-155.583-38.773-155.582-38.772c-12.723-2.948-18.437,15.047-6.424,20.036
				c0.056-0.017,109.59,43.324,147.824,58.421l37.837,234.186c-43.797,36.248-88.725,73.944-130.152,112.194
				c-10.265,9.738,2.477,25.805,14.259,18.287c38.894-25.481,76.782-52.407,114.4-79.702c0,0,15.693-11.509,26.63-19.53
				c22.078,11.646,44.093,23.419,66.326,34.759c74.389,38.251,149.48,75.107,225.193,110.671c0.173,0.267,0.279,0.557,0.465,0.818
				c0.202,0.286,0.437,0.534,0.649,0.807c5.255,49.971,11.033,99.855,18.334,149.604c2.039,12.752,20.735,11.317,20.987-1.499
				c0.153-49.46-1.174-98.838-3.027-148.227l228.371-161.874c18.853,11.403,38.182,22.088,58.209,31.387
				c8.272,3.822,16.612,7.541,25.331,10.684c3.7,1.325,8.005,0.587,11.07-2.285
				C3091.319,2021.943,3091.54,2015.095,3087.453,2010.736z"/>
		</g>
		<g>
			<g>
				<path style="fill:#102973;" d="M2517.571,1602.456l-101.975,111.824c-5.662,6.211-14.382,7.969-21.765,5.071
					c-0.053,0.038-160.801-63.578-160.869-63.557c-12-4.876-6.226-23.085,6.424-20.037c0,0,167.751,41.804,167.751,41.804
					l-21.846,5.034l116.252-96.897C2512.549,1576.651,2527.138,1591.844,2517.571,1602.456L2517.571,1602.456z"/>
			</g>
			<g>
				<path style="fill:#102973;" d="M2288.472,2060.593c44.834-41.395,93.786-82.167,140.947-121.126
					c6.344-5.257,14.975-5.796,21.807-2.121c26.155,12.766,52.48,25.198,78.494,38.247c52.099,25.953,103.877,52.552,155.327,79.775
					c25.786,13.496,51.394,27.349,76.96,41.277c6.033,2.919,9.885,8.937,10.144,15.251c2.147,54.287,3.732,108.551,3.562,162.913
					c-0.25,12.817-18.949,14.25-20.986,1.499c-7.891-53.785-14.038-107.723-19.629-161.765c0,0,10.144,15.251,10.144,15.251
					c-79.105-36.994-157.461-75.532-235.156-115.388c-25.925-13.223-51.538-27.061-77.322-40.564l21.804-2.122l-37.439,27.458
					c-37.617,27.295-75.506,54.219-114.399,79.702C2290.949,2086.396,2278.203,2070.333,2288.472,2060.593L2288.472,2060.593z"/>
			</g>
			<g>
				<path style="fill:#102973;" d="M2998.508,1821.311c13.458,36.938,19.328,75.919,23.152,114.817c0,0-9.668-15.749-9.668-15.749
					c29.795,20.622,58.843,42.678,84.168,68.821c4.087,4.361,3.867,11.209-0.493,15.296c-3.064,2.871-7.368,3.611-11.069,2.285
					c-8.718-3.145-17.058-6.863-25.33-10.684c-24.645-11.444-48.269-24.927-71.199-39.348c-5.422-3.418-8.733-8.921-9.543-14.81
					c-4.998-39.088-8.016-78.711-3.062-118.035C2977.198,1811.861,2994.234,1810.057,2998.508,1821.311L2998.508,1821.311z"/>
			</g>
			<g>
				<path style="fill:#102973;" d="M2441.969,1977.519c-10.571,0-19.878-7.661-21.616-18.43l-41.548-257.156
					c-1.934-11.953,6.191-23.208,18.145-25.139c11.997-1.929,23.208,6.201,25.137,18.147l41.548,257.156
					c1.934,11.953-6.191,23.208-18.145,25.139C2444.307,1977.426,2443.131,1977.519,2441.969,1977.519z"/>
			</g>
			<g>
				<path style="fill:#102973;" d="M2753.643,2135.146c-6.87,0-13.633-3.218-17.905-9.248c-7.002-9.878-4.668-23.56,5.21-30.562
					l246.406-174.658c9.878-6.995,23.564-4.668,30.562,5.208c7.002,9.878,4.668,23.562-5.21,30.564L2766.3,2131.108
					C2762.452,2133.837,2758.028,2135.146,2753.643,2135.146z"/>
			</g>
		</g>
		<g>
			<path style="fill:#102973;" d="M2096.68,2601.106l-24.807-100.688c-3.069-13.26,15.343-19.77,21.316-7.636
				c0,0,44.768,93.537,44.768,93.537C2150.407,2615.95,2105.909,2631.939,2096.68,2601.106L2096.68,2601.106z"/>
		</g>
		<g style="opacity:0.25;">
			<g>
				<path style="fill:#102973;" d="M1830.451,1550.507c-1.803,27.136-4.92,53.346-9.305,78.533
					C1823.094,1603.025,1826.163,1576.815,1830.451,1550.507z"/>
			</g>
		</g>
		<g>
			<g>
				<g>
					<ellipse style="fill:#00046A;" cx="1224.459" cy="1575.989" rx="158.323" ry="182.604"/>
				</g>
			</g>
			<g>
				<g>
					<ellipse style="fill:#FFFFFF;" cx="1267.469" cy="1523.176" rx="51.62" ry="65.265"/>
				</g>
			</g>
			<g style="opacity:0.2;">
				<g>
					<ellipse style="fill:#FFFFFF;" cx="1165.42" cy="1637.518" rx="28.589" ry="44.169"/>
				</g>
			</g>
		</g>
		<g>
			<g>
				<g>
					<path style="fill:#B7FFFF;" d="M1616.69,1538.51c-8.203,0-16.431-1.401-24.395-4.219
						c-37.901-13.425-57.822-55.183-44.404-93.086c13.428-37.905,55.205-57.82,93.086-44.404
						c37.905,13.42,57.822,55.178,44.404,93.083c-6.504,18.362-19.766,33.093-37.344,41.482
						C1638.077,1536.117,1627.403,1538.51,1616.69,1538.51z M1616.695,1407.233c-24.014,0-46.563,14.956-55.024,38.85
						c-10.732,30.307,5.195,63.696,35.508,74.431c14.688,5.198,30.518,4.363,44.566-2.339c14.058-6.707,24.663-18.486,29.858-33.169
						l0,0c5.2-14.683,4.37-30.51-2.334-44.568c-6.709-14.058-18.486-24.661-33.169-29.858
						C1629.688,1408.31,1623.14,1407.233,1616.695,1407.233z"/>
				</g>
				<g>
					<g style="opacity:0.6;">
						
							<ellipse transform="matrix(0.8858 -0.464 0.464 0.8858 -487.6243 906.3828)" style="fill:#FFFFFF;" cx="1597.94" cy="1444.034" rx="28.086" ry="16.902"/>
					</g>
					<g style="opacity:0.6;">
						<path style="fill:#FFFFFF;" d="M1643.759,1432.929c-1.423,4.019-5.835,6.124-9.854,4.701
							c-4.019-1.423-6.124-5.835-4.701-9.854c1.423-4.019,5.835-6.124,9.854-4.701
							C1643.077,1424.498,1645.182,1428.91,1643.759,1432.929z"/>
					</g>
				</g>
			</g>
			<g>
				<g>
					<path style="fill:#B7FFFF;" d="M1788.438,1425.724c-8.262,0-16.655-1.379-24.873-4.289
						c-18.823-6.665-33.921-20.259-42.515-38.279c-8.599-18.02-9.663-38.308-2.998-57.126
						c13.755-38.853,56.553-59.275,95.405-45.513c18.823,6.665,33.921,20.256,42.515,38.276c8.599,18.02,9.663,38.308,2.998,57.129
						l0,0C1848.126,1406.55,1819.219,1425.724,1788.438,1425.724z M1788.57,1290.844c-24.766,0-48.013,15.422-56.738,40.063
						c-11.069,31.253,5.356,65.681,36.611,76.748c31.24,11.069,65.679-5.359,76.748-36.611c5.361-15.142,4.507-31.462-2.407-45.959
						c-6.914-14.495-19.063-25.43-34.199-30.789C1801.969,1291.955,1795.215,1290.844,1788.57,1290.844z"/>
				</g>
				<g>
					<g style="opacity:0.6;">
						
							<ellipse transform="matrix(0.8858 -0.464 0.464 0.8858 -414.3103 973.8344)" style="fill:#FFFFFF;" cx="1771.638" cy="1328.78" rx="28.086" ry="16.901"/>
					</g>
					<g style="opacity:0.6;">
						<path style="fill:#FFFFFF;" d="M1817.457,1317.674c-1.423,4.019-5.835,6.124-9.854,4.701
							c-4.019-1.423-6.124-5.835-4.701-9.854c1.423-4.019,5.835-6.124,9.854-4.701
							C1816.776,1309.243,1818.88,1313.655,1817.457,1317.674z"/>
					</g>
				</g>
			</g>
			<g>
				<g>
					<path style="fill:#B7FFFF;" d="M1786.29,1230.434c-5.259,0-10.601-0.879-15.83-2.729c-24.727-8.755-37.725-35.996-28.97-60.725
						c4.243-11.978,12.896-21.587,24.365-27.058c11.465-5.474,24.38-6.15,36.362-1.909c24.722,8.755,37.715,35.996,28.965,60.723
						l0,0C1824.278,1218.232,1805.885,1230.434,1786.29,1230.434z M1786.314,1149.882c-4.844,0-9.668,1.082-14.17,3.23
						c-7.944,3.789-13.94,10.447-16.875,18.745c-6.064,17.131,2.935,36.003,20.068,42.068c17.109,6.067,36.001-2.94,42.065-20.068
						l0,0c6.065-17.131-2.934-36.001-20.068-42.065C1793.741,1150.517,1790.02,1149.882,1786.314,1149.882z"/>
				</g>
				<g style="opacity:0.6;">
					<path style="fill:#FFFFFF;" d="M1792.654,1175.207c-2.337,6.599-9.581,10.055-16.18,7.718
						c-6.599-2.337-10.055-9.581-7.718-16.18c2.337-6.599,9.581-10.055,16.18-7.718
						C1791.535,1161.363,1794.991,1168.607,1792.654,1175.207z"/>
				</g>
			</g>
			<g>
				<g>
					<path style="fill:#B7FFFF;" d="M1654.942,1270.663c-4.258,0-8.579-0.711-12.813-2.209
						c-20.015-7.087-30.532-29.133-23.452-49.148c7.095-20.017,29.15-30.535,49.146-23.447
						c20.015,7.087,30.532,29.133,23.452,49.148l0,0C1685.684,1260.785,1670.797,1270.663,1654.942,1270.663z M1654.996,1208.266
						c-9.839,0-19.072,6.128-22.539,15.918c-4.395,12.417,2.134,26.096,14.551,30.491c12.383,4.387,26.094-2.127,30.488-14.546l0,0
						c4.394-12.417-2.134-26.096-14.551-30.491C1660.323,1208.708,1657.637,1208.266,1654.996,1208.266z"/>
				</g>
				<g style="opacity:0.6;">
					<path style="fill:#FFFFFF;" d="M1658.733,1228.249c-1.512,4.27-6.199,6.506-10.469,4.994c-4.27-1.512-6.506-6.199-4.994-10.469
						c1.512-4.27,6.199-6.506,10.469-4.994C1658.009,1219.291,1660.245,1223.978,1658.733,1228.249z"/>
				</g>
			</g>
			<g>
				<g>
					<g>
						<path style="fill:#B7FFFF;" d="M1596.441,796.603c-10.303,0-19.985-3.999-27.285-11.272
							c-7.314-7.288-11.353-16.987-11.372-27.314c-0.02-10.325,3.984-20.042,11.269-27.356c7.29-7.317,16.987-11.355,27.315-11.375
							c0.024,0,0.049,0,0.073,0c21.284,0,38.623,17.295,38.662,38.586c0.02,10.327-3.984,20.042-11.274,27.358
							c-7.285,7.315-16.987,11.355-27.314,11.372C1596.49,796.603,1596.465,796.603,1596.441,796.603z M1596.441,729.028
							c-0.019,0-0.034,0-0.054,0c-7.725,0.017-14.981,3.037-20.43,8.508c-5.454,5.474-8.447,12.739-8.428,20.461
							c0.029,15.928,12.993,28.862,28.911,28.865c0.02,0,0.034,0,0.054,0c7.725-0.015,14.981-3.037,20.435-8.508
							c5.449-5.471,8.442-12.739,8.428-20.461C1625.328,741.964,1612.359,729.028,1596.441,729.028z"/>
					</g>
				</g>
				<g style="opacity:0.6;">
					<path style="fill:#FFFFFF;" d="M1602.296,754.194c0.011,5.793-4.677,10.498-10.47,10.509
						c-5.793,0.011-10.498-4.677-10.509-10.47c-0.011-5.793,4.677-10.498,10.47-10.509
						C1597.58,743.713,1602.285,748.401,1602.296,754.194z"/>
				</g>
			</g>
			<g>
				<g>
					<path style="fill:#B7FFFF;" d="M1596.754,964.472c-9.272,0-17.988-3.601-24.556-10.144c-6.587-6.56-10.22-15.293-10.239-24.585
						c-0.034-19.185,15.547-34.822,34.731-34.858c0.024,0,0.044,0,0.068,0c19.15,0,34.756,15.564,34.795,34.729l0,0
						c0.034,19.187-15.547,34.827-34.731,34.858C1596.798,964.472,1596.773,964.472,1596.754,964.472z M1596.759,904.626
						c-0.02,0-0.034,0-0.049,0c-13.813,0.027-25.029,11.287-25.005,25.098c0.01,6.692,2.627,12.979,7.368,17.703
						c4.731,4.709,11.006,7.305,17.681,7.305c0.015,0,0.034,0,0.049,0c13.813-0.025,25.029-11.284,25.005-25.098l0,0
						C1621.778,915.834,1610.548,904.626,1596.759,904.626z"/>
				</g>
				<g style="opacity:0.6;">
					<path style="fill:#FFFFFF;" d="M1602.602,919.097c0.006,3.237-2.613,5.866-5.85,5.872c-3.237,0.006-5.866-2.613-5.872-5.85
						c-0.006-3.237,2.613-5.866,5.85-5.872C1599.967,913.241,1602.596,915.86,1602.602,919.097z"/>
				</g>
			</g>
			<g>
				<g>
					<g>
						<path style="fill:#B7FFFF;" d="M1750.338,1585.661c-3.662,0-7.383-0.613-11.025-1.902
							c-17.217-6.099-26.265-25.068-20.166-42.285c6.094-17.212,25.063-26.26,42.28-20.171
							c17.217,6.096,26.265,25.066,20.176,42.285h-0.005C1776.793,1577.162,1763.98,1585.661,1750.338,1585.661z M1750.396,1529.147
							c-9.634,0-18.672,5.996-22.07,15.579c-4.302,12.153,2.085,25.542,14.238,29.849c12.158,4.309,25.547-2.087,29.854-14.238
							c4.297-12.156-2.09-25.544-14.243-29.849C1755.606,1529.577,1752.979,1529.147,1750.396,1529.147z"/>
					</g>
				</g>
				<g style="opacity:0.6;">
					<path style="fill:#FFFFFF;" d="M1759.646,1547.557c-1.787,5.047-7.326,7.689-12.373,5.902
						c-5.047-1.787-7.689-7.326-5.902-12.373c1.787-5.047,7.326-7.689,12.373-5.902S1761.433,1542.51,1759.646,1547.557z"/>
				</g>
			</g>
			<g>
				<g>
					<path style="fill:#B7FFFF;" d="M1915.587,1320.068c-3.174,0-6.396-0.53-9.551-1.646c-14.927-5.286-22.773-21.731-17.49-36.66
						c5.283-14.927,21.763-22.764,36.655-17.49c14.932,5.288,22.778,21.733,17.495,36.66v0.003
						C1938.526,1312.702,1927.418,1320.068,1915.587,1320.068z M1915.631,1277.24c-5.806,0-11.26,3.618-13.306,9.399
						c-2.598,7.332,1.255,15.408,8.589,18.003c7.329,2.602,15.41-1.257,18.003-8.591c2.593-7.329-1.26-15.405-8.594-18
						C1918.775,1277.502,1917.188,1277.24,1915.631,1277.24z"/>
				</g>
				<g style="opacity:0.6;">
					
						<ellipse transform="matrix(0.9841 -0.1776 0.1776 0.9841 -197.7661 360.6598)" style="fill:#FFFFFF;" cx="1915.854" cy="1285.101" rx="7.991" ry="7.99"/>
				</g>
			</g>
		</g>
	</g>
</g>
</svg>
