<?xml version="1.0" encoding="utf-8"?>
<!-- Generator: Adobe Illustrator 27.5.0, SVG Export Plug-In . SVG Version: 6.00 Build 0)  -->
<svg version="1.1" id="Layer_1" xmlns="http://www.w3.org/2000/svg" xmlns:xlink="http://www.w3.org/1999/xlink" x="0px" y="0px"
	 viewBox="0 0 4000 4000" style="enable-background:new 0 0 4000 4000;" xml:space="preserve">
<g>
	<g>
		<!-- <rect style="fill:#83FBFF;" width="4000" height="4000"/> -->
	</g>
	<g style="opacity:0.2;">
		<ellipse style="fill:#68174A;" cx="2059.343" cy="3570.617" rx="905.67" ry="85.831"/>
	</g>
	<g>
		<path style="fill:#EB1B24;" d="M2998.524,2345.365v223.711c0,219.851-253.667,406.995-607.984,476.714
			c-95.947,18.904-199.303,29.2-306.965,29.2c-505.249,0-914.906-226.507-914.906-505.914v-223.711
			c0-46.109,11.139-90.798,32.042-133.224c105.798-214.792,461.003-372.69,882.865-372.69
			C2588.866,1839.451,2998.524,2065.958,2998.524,2345.365z"/>
	</g>
	<g style="opacity:0.6;">
		<path style="fill:#FFFFFF;" d="M1463.917,1973.163c0.622,0.932,1.287,1.864,1.909,2.84c-16.332,7.1-32.219,14.467-47.618,22.145
			C1432.897,1989.539,1448.163,1981.195,1463.917,1973.163z"/>
	</g>
	<g style="opacity:0.6;">
		<path style="fill:#FFFFFF;" d="M2998.524,2345.365v223.711c0,149.245-116.893,283.401-302.794,375.974
			c154.703-90.576,249.54-212.795,249.54-347.217v-223.712c0-84.452-37.411-164.022-103.58-234.007l-148.001-171.744
			C2880.788,2060.988,2998.524,2195.588,2998.524,2345.365z"/>
	</g>
	<g>
		<path style="fill:#68174A;" d="M2083.587,3096.064c-247.886,0-481.263-53.56-657.145-150.811
			c-179.828-99.434-278.864-233.03-278.864-376.177v-223.711c0-143.147,99.036-276.743,278.864-376.177
			c175.88-97.253,409.259-150.813,657.145-150.813s481.265,53.56,657.146,150.813c179.829,99.434,278.865,233.03,278.865,376.177
			v223.711c0,143.147-99.036,276.743-278.865,376.177C2564.852,3042.504,2331.473,3096.064,2083.587,3096.064z M2083.587,1860.524
			c-240.872,0-467.007,51.689-636.749,145.549c-165.801,91.677-257.111,212.175-257.111,339.292v223.711
			c0,127.117,91.31,247.612,257.111,339.292c169.742,93.857,395.878,145.547,636.749,145.547s467.009-51.689,636.753-145.547
			c165.798-91.68,257.109-212.175,257.109-339.292v-223.711c0-127.119-91.311-247.615-257.109-339.292
			C2550.597,1912.214,2324.459,1860.524,2083.587,1860.524z"/>
	</g>
	<g>
		<ellipse style="fill:#F6665E;" cx="2083.588" cy="2345.365" rx="786.523" ry="434.909"/>
	</g>
	<g>
		<path style="fill:#E21E36;" d="M2790.212,2345.365c0,44.866-19.438,90.354-55.651,133.091c0,0,0,0.044-0.044,0.089
			c-31.997,37.677-77.13,73.313-133.446,104.423c-136.907,75.709-320.679,117.425-517.496,117.425
			c-135.266,0-264.363-19.704-376.329-56.627l-0.089-0.044c-50.902-16.775-98.298-37.1-141.079-60.754
			c-17.041-9.409-33.062-19.216-47.973-29.424l-0.044-0.044c-90.354-61.508-141.124-135.576-141.124-208.134
			c0-84.541,68.964-171.168,189.141-237.602c108.461-59.955,246.256-98.609,396.654-112.056c39.497-3.551,79.881-5.37,120.843-5.37
			c37.81,0,75.132,1.553,111.7,4.571c153.993,12.692,295.205,51.701,405.796,112.854
			C2721.292,2174.197,2790.212,2260.824,2790.212,2345.365z"/>
	</g>
	<g>
		<path style="fill:#F7675F;" d="M2734.561,2478.456c0,0,9.882,9.482,9.837,9.527c-31.997,37.677-77.13,73.313-133.446,104.422
			l-392.956-175.147c-7.368-3.151-15.977-1.243-21.258,4.749c-3.151,3.551-4.66,7.944-4.66,12.293c0,5.592,2.53,11.183,7.411,14.822
			l114.141,85.606c-138.505,62.84-249.584,68.654-376.107,23.166l72.204-111.834c6.302-9.807,1.687-22.943-9.363-26.627
			c-1.82-0.621-3.728-0.887-5.636-0.887c-3.995,0-7.944,1.332-11.183,3.905l-276.3,221.315l-0.089-0.044l-129.851-25.429
			l-59.245-64.793l452.128-196.463c13.313-5.77,17.218-22.855,7.722-33.861c-4.171-4.793-10.163-7.455-16.331-7.455
			c-1.953,0-3.906,0.266-5.814,0.799l-326.315,86.538c33.284-126.479,145.117-226.596,250.738-279.584l120.842,113.431
			c11.006,11.006,28.757,11.405,40.251,0.887c6.124-5.636,9.408-13.447,9.408-21.435c0-3.728-0.71-7.455-2.175-11.05
			l-85.783-209.599c0,0,79.881-45.31,120.843-45.31c37.811,0,111.7,44.512,111.7,44.512l-28.27,231.522
			c-1.552,12.56,7.456,23.92,20.016,25.296c0.843,0.089,1.73,0.133,2.573,0.133c9.142,0,17.485-5.547,20.991-14.201l54.23-134.911
			c179.378,14.335,286.02,94.482,291.389,266.271l-276.744-59.911c-6.39-1.375-13.047,0.488-17.796,5.015
			c-4.171,3.994-6.079,9.098-6.079,14.156c0,8.344,5.192,16.509,14.334,19.083L2734.561,2478.456z"/>
	</g>
	<g style="opacity:0.3;">
		<path style="fill:#68174A;" d="M2390.539,2898.427v147.363c-95.947,18.904-199.303,29.2-306.965,29.2
			c-505.249,0-914.906-226.507-914.906-505.914v-223.711c0-46.109,11.139-90.798,32.042-133.224h0.088
			c-146.151,356.247,394.758,709.79,1118.2,622.504C2357.087,2830.049,2390.539,2860.062,2390.539,2898.427z"/>
	</g>
	<g>
		<ellipse style="fill:#F5B945;" cx="1528.821" cy="2372.547" rx="34.06" ry="11.649"/>
	</g>
	<g>
		
			<ellipse transform="matrix(0.4418 -0.8971 0.8971 0.4418 -1252.3066 3251.6797)" style="fill:#F5B945;" cx="1986.696" cy="2632.116" rx="34.06" ry="11.649"/>
	</g>
	<g>
		<path style="fill:#F5B945;" d="M2065.842,2609.577c6.42-0.418,12.616,14.46,13.839,33.231c1.222,18.771-2.991,34.327-9.411,34.746
			s-12.616-14.46-13.838-33.231S2059.422,2609.995,2065.842,2609.577z"/>
	</g>
	<g>
		<path style="fill:#F5B945;" d="M2142.731,2606.775c5.857-2.662,16.914,9.064,24.697,26.189
			c7.782,17.126,9.343,33.167,3.485,35.828s-16.915-9.064-24.697-26.189S2136.873,2609.437,2142.731,2606.775z"/>
	</g>
	<g>
		<path style="fill:#F5B945;" d="M2235.925,2586.567c5.857-2.662,16.915,9.064,24.697,26.189s9.343,33.167,3.485,35.828
			c-5.857,2.662-16.914-9.064-24.697-26.189C2231.628,2605.27,2230.068,2589.229,2235.925,2586.567z"/>
	</g>
	<g>
		<path style="fill:#F5B945;" d="M2324.118,2573.881c4.55-4.549,19.021,2.546,32.322,15.847
			c13.302,13.302,20.396,27.772,15.847,32.322s-19.02-2.546-32.322-15.847C2326.664,2592.901,2319.569,2578.43,2324.118,2573.881z"
			/>
	</g>
	<g>
		<path style="fill:#F5B945;" d="M2607.067,2356.456c0.348-6.424,15.857-10.807,34.641-9.789s33.728,7.051,33.38,13.476
			s-15.857,10.807-34.641,9.789S2606.719,2362.88,2607.067,2356.456z"/>
	</g>
	<g>
		<path style="fill:#F5B945;" d="M2596.419,2279.521c-1.755-6.19,11.492-15.368,29.589-20.501
			c18.097-5.133,34.191-4.276,35.947,1.914c1.755,6.19-11.492,15.368-29.59,20.501
			C2614.269,2286.568,2598.175,2285.711,2596.419,2279.521z"/>
	</g>
	<g>
		
			<ellipse transform="matrix(0.9621 -0.2729 0.2729 0.9621 -501.8705 789.5213)" style="fill:#F5B945;" cx="2587.768" cy="2199.223" rx="34.06" ry="11.649"/>
	</g>
	<g>
		
			<ellipse transform="matrix(0.866 -0.5 0.5 0.866 -729.6021 1552.4073)" style="fill:#F5B945;" cx="2532.042" cy="2137.665" rx="34.06" ry="11.649"/>
	</g>
	<g>
		
			<ellipse transform="matrix(0.866 -0.5 0.5 0.866 -719.2828 1498.6198)" style="fill:#F5B945;" cx="2436.819" cy="2091.509" rx="25.496" ry="11.649"/>
	</g>
	<g>
		
			<ellipse transform="matrix(0.5402 -0.8416 0.8416 0.5402 -654.7132 2930.4626)" style="fill:#F5B945;" cx="2354.164" cy="2064.327" rx="25.496" ry="11.649"/>
	</g>
	<g>
		
			<ellipse transform="matrix(0.3236 -0.9462 0.9462 0.3236 -1093.4634 3016.126)" style="fill:#F5B945;" cx="1562.882" cy="2272.88" rx="11.649" ry="34.06"/>
	</g>
	<g>
		<path style="fill:#F5B945;" d="M1783.646,2131.619c-2.598,5.886-18.655,4.501-35.864-3.094
			c-17.21-7.595-29.055-18.523-26.457-24.409c2.598-5.886,18.655-4.501,35.864,3.094
			C1774.398,2114.805,1786.243,2125.733,1783.646,2131.619z"/>
	</g>
	<g>
		
			<ellipse transform="matrix(0.5 -0.866 0.866 0.5 -1066.6045 2511.0649)" style="fill:#F5B945;" cx="1641.339" cy="2179.237" rx="11.649" ry="34.06"/>
	</g>
	<g style="opacity:0.25;">
		<path style="fill:#FFFFFF;" d="M2725.064,2682.691c-19.662,15.038-39.781,26.396-60.391,33.811
			c-8.179,2.942-13.779,10.505-13.779,19.197v125.975c0,14.023,13.915,23.817,27.118,19.092
			c29.039-10.391,55.244-23.977,74.267-45.659c3.283-3.741,5.123-8.542,5.123-13.52v-122.624
			C2757.401,2682.313,2738.289,2672.576,2725.064,2682.691z"/>
	</g>
	<g>
		<path style="fill:#EB1B24;" d="M2574.972,745.017l123.947,186.236c121.808,183.022,14.321,479.361-242.015,733.71
			c-69.4,68.897-149.739,134.732-239.365,194.382c-420.612,279.932-887.141,318.339-1041.946,85.737l-123.947-186.236
			c-25.547-38.385-41.034-81.76-47.139-128.66c-30.93-237.428,177.29-565.677,528.483-799.408
			C1953.638,550.821,2420.168,512.415,2574.972,745.017z"/>
	</g>
	<g style="opacity:0.6;">
		<path style="fill:#FFFFFF;" d="M1091.219,1285.411c1.034,0.431,2.104,0.839,3.162,1.307
			c-9.662,14.959-18.806,29.895-27.372,44.818C1074.468,1316.23,1082.554,1300.826,1091.219,1285.411z"/>
	</g>
	<g style="opacity:0.6;">
		<path style="fill:#FFFFFF;" d="M2574.972,745.017l123.947,186.236c82.689,124.244,59.706,300.691-43.763,480.755
			c78.604-161.116,89.839-315.406,15.363-427.31l-123.947-186.237c-46.791-70.305-122.02-115.819-215.88-137.419l-218.364-60.974
			C2319.4,573.509,2491.989,620.33,2574.972,745.017z"/>
	</g>
	<g>
		<path style="fill:#68174A;" d="M1529.284,2118.351c-170.776,0-301.139-56.245-371.248-161.584l-123.948-186.235
			c-79.31-119.17-70.883-285.256,23.729-467.666c92.537-178.408,257.147-352.297,463.508-489.639s430.319-222.058,630.62-238.542
			c204.783-16.86,361.257,39.487,440.569,158.655l123.948,186.24c79.309,119.165,70.884,285.251-23.73,467.664
			c-92.537,178.406-257.146,352.297-463.508,489.639c-206.36,137.341-430.319,222.058-630.619,238.542
			C1574.845,2117.38,1551.7,2118.351,1529.284,2118.351z M2221.388,613.898c-21.306,0-43.303,0.925-65.984,2.791
			c-193.311,15.911-410.204,98.171-610.725,231.626c-200.522,133.455-360.139,301.775-449.446,473.955
			c-87.231,168.184-96.486,319.084-26.056,424.91l123.948,186.233c70.428,105.825,213.201,155.549,402.024,140.005
			c193.311-15.908,410.203-98.169,610.726-231.624c200.522-133.455,360.137-301.777,449.443-473.958
			c87.234-168.181,96.487-319.082,26.057-424.907l-123.948-186.235C2495.458,663.581,2377.459,613.898,2221.388,613.898z"/>
	</g>
	<g>
		
			<ellipse transform="matrix(0.8325 -0.554 0.554 0.8325 -389.8763 1214.3762)" style="fill:#F6665E;" cx="1813.303" cy="1251.935" rx="786.523" ry="434.909"/>
	</g>
	<g>
		<path style="fill:#E21E36;" d="M2401.556,860.432c24.858,37.351,33.878,85.988,27.41,141.629c0,0,0.024,0.037,0.012,0.099
			c-5.762,49.093-23.591,103.766-53.237,160.866c-72.026,138.88-201.901,275.426-365.748,384.472
			c-112.607,74.944-230.995,130.067-344.662,161.364l-0.099,0.012c-51.669,14.237-102.387,23.577-151.107,27.588
			c-19.399,1.609-38.17,2.321-56.239,2.085l-0.061-0.013c-109.297-1.144-192.599-34.675-232.8-95.079
			c-46.84-70.379-37.424-180.704,25.814-302.593c57.074-110.004,150.37-218.528,268.124-313.05
			c30.913-24.839,63.525-48.728,97.625-71.423c31.477-20.949,63.407-40.334,95.521-58.082
			c135.229-74.753,274.398-120.518,400.345-130.881C2249.346,756.122,2354.716,790.053,2401.556,860.432z"/>
	</g>
	<g>
		<path style="fill:#F7675F;" d="M2428.966,1002.061c0,0,13.48,2.419,13.468,2.48c-5.762,49.093-23.591,103.766-53.237,160.866
			l-424.169,71.909c-7.879,1.459-13.989,7.817-15.066,15.731c-0.656,4.701,0.522,9.195,2.932,12.816
			c3.098,4.655,8.302,7.908,14.382,8.233l142.45,8.026c-80.487,129.052-169.737,195.435-300.268,227.667l-1.853-133.104
			c-0.188-11.656-11.307-20.035-22.547-16.979c-1.859,0.492-3.595,1.327-5.184,2.384c-3.326,2.213-5.876,5.51-7.146,9.447
			l-107.396,337.325l-0.099,0.012l-122.188,50.775l-85.219-21.115l267.539-414.053c7.887-12.179,1.671-28.566-12.332-32.467
			c-6.128-1.679-12.591-0.576-17.726,2.842c-1.626,1.082-3.104,2.385-4.397,3.886l-223.706,252.836
			c-42.367-123.732-4.737-269.04,53.832-371.67l163.446,27.477c15.26,3.064,30.259-6.438,34-21.563
			c1.975-8.085,0.382-16.406-4.044-23.057c-2.065-3.103-4.721-5.813-7.932-7.994l-187.542-126.96c0,0,41.396-81.978,75.496-104.673
			c31.477-20.949,117.651-24.832,117.651-24.832l104.74,208.401c5.666,11.316,19.46,15.782,30.678,9.969
			c0.751-0.393,1.514-0.848,2.216-1.315c7.611-5.065,11.482-14.306,9.607-23.452l-29.601-142.357
			c157.272-87.451,290.455-79.814,390.104,60.222l-263.579,103.455c-6.082,2.395-10.591,7.635-12.036,14.034
			c-1.26,5.636-0.02,10.942,2.782,15.153c4.623,6.946,13.469,10.867,22.506,7.944L2428.966,1002.061z"/>
	</g>
	<g style="opacity:0.3;">
		<path style="fill:#68174A;" d="M2375.258,1542.286l81.646,122.677c-69.4,68.897-149.739,134.732-239.365,194.382
			c-420.612,279.932-887.141,318.339-1041.946,85.737l-123.947-186.236c-25.547-38.385-41.034-81.76-47.139-128.66l0.073-0.049
			c75.71,377.545,721.888,372.174,1275.781-101.312C2309.525,1503.896,2354.002,1510.347,2375.258,1542.286z"/>
	</g>
	<g>
		
			<ellipse transform="matrix(0.8325 -0.554 0.554 0.8325 -647.5518 1022.1198)" style="fill:#F5B945;" cx="1366.528" cy="1581.932" rx="34.06" ry="11.649"/>
	</g>
	<g>
		<path style="fill:#F5B945;" d="M1887.111,1510.56c6.38-0.832,13.523,13.615,15.955,32.268c2.432,18.653-0.768,34.449-7.148,35.281
			c-6.38,0.832-13.523-13.615-15.955-32.268C1877.531,1527.188,1880.732,1511.392,1887.111,1510.56z"/>
	</g>
	<g>
		
			<ellipse transform="matrix(0.7947 -0.607 0.607 0.7947 -512.3024 1502.8113)" style="fill:#F5B945;" cx="1965.59" cy="1508.788" rx="11.649" ry="34.06"/>
	</g>
	<g>
		
			<ellipse transform="matrix(0.5287 -0.8488 0.8488 0.5287 -275.1288 2414.093)" style="fill:#F5B945;" cx="2036.283" cy="1454.795" rx="11.649" ry="34.06"/>
	</g>
	<g>
		<path style="fill:#F5B945;" d="M2073.759,1368.33c3.401-5.461,19.103-1.826,35.07,8.119s26.154,22.434,22.752,27.895
			c-3.402,5.461-19.103,1.826-35.07-8.119C2080.544,1386.281,2070.357,1373.791,2073.759,1368.33z"/>
	</g>
	<g>
		<path style="fill:#F5B945;" d="M2140.149,1308.906c1.267-6.308,17.245-8.419,35.688-4.715c18.443,3.703,32.367,11.819,31.1,18.127
			c-1.267,6.308-17.245,8.419-35.687,4.715C2152.807,1323.33,2138.883,1315.214,2140.149,1308.906z"/>
	</g>
	<g>
		<path style="fill:#F5B945;" d="M2255.236,971.136c-3.269-5.541,7.214-17.782,23.415-27.342s31.985-12.817,35.254-7.276
			c3.27,5.541-7.213,17.783-23.414,27.342C2274.289,973.419,2258.505,976.677,2255.236,971.136z"/>
	</g>
	<g>
		<path style="fill:#F5B945;" d="M2203.746,912.989c-4.891-4.18,1.052-19.161,13.274-33.461
			c12.222-14.3,26.094-22.503,30.985-18.323c4.891,4.18-1.052,19.161-13.274,33.461
			C2222.51,908.965,2208.637,917.169,2203.746,912.989z"/>
	</g>
	<g>
		<path style="fill:#F5B945;" d="M2129.924,876.826c-4.891-4.18,1.052-19.161,13.274-33.461
			c12.222-14.299,26.095-22.503,30.985-18.323c4.891,4.18-1.052,19.161-13.274,33.461
			C2148.688,872.803,2134.815,881.006,2129.924,876.826z"/>
	</g>
	<g>
		<path style="fill:#F5B945;" d="M2056.437,861.084c-5.765-2.856-3.669-18.836,4.682-35.692
			c8.351-16.856,19.794-28.205,25.559-25.349c5.765,2.856,3.669,18.836-4.682,35.692
			C2073.645,852.591,2062.202,863.94,2056.437,861.084z"/>
	</g>
	<g>
		<path style="fill:#F5B945;" d="M1955.395,867.743c-5.765-2.856-5.371-15.4,0.88-28.017c6.251-12.617,15.992-20.531,21.757-17.674
			s5.371,15.4-0.88,28.017C1970.901,862.686,1961.16,870.599,1955.395,867.743z"/>
	</g>
	<g>
		
			<ellipse transform="matrix(0.9999 -0.0166 0.0166 0.9999 -14.1522 31.3789)" style="fill:#F5B945;" cx="1882.844" cy="868.064" rx="11.649" ry="25.496"/>
	</g>
	<g>
		<path style="fill:#F5B945;" d="M1372.599,1471.41c1.64,6.221-11.777,15.151-29.967,19.944c-18.19,4.794-34.265,3.636-35.905-2.585
			c-1.639-6.221,11.777-15.151,29.967-19.944C1354.884,1464.031,1370.959,1465.189,1372.599,1471.41z"/>
	</g>
	<g>
		<path style="fill:#F5B945;" d="M1445.18,1240.179c1.099,6.339-13.036,14.082-31.571,17.295
			c-18.535,3.212-34.451,0.678-35.549-5.662c-1.099-6.339,13.036-14.082,31.571-17.295
			C1428.165,1231.304,1444.081,1233.839,1445.18,1240.179z"/>
	</g>
	<g>
		<path style="fill:#F5B945;" d="M1387.086,1356.499c0.409,6.421-14.478,12.595-33.251,13.791
			c-18.773,1.196-34.323-3.04-34.732-9.46s14.478-12.595,33.251-13.791C1371.127,1345.842,1386.677,1350.078,1387.086,1356.499z"/>
	</g>
	<g style="opacity:0.25;">
		<path style="fill:#FFFFFF;" d="M2534.216,1177.346c-8.037,23.412-18.492,44.015-31.542,61.607
			c-5.179,6.981-5.651,16.379-0.835,23.616l69.796,104.872c7.769,11.674,24.779,12.118,33.153,0.87
			c18.417-24.74,32.705-50.568,36.529-79.158c0.66-4.933-0.468-9.95-3.226-14.094l-67.94-102.083
			C2560.927,1159.114,2539.622,1161.598,2534.216,1177.346z"/>
	</g>
</g>
</svg>
