<?xml version="1.0" encoding="utf-8"?>
<!-- Generator: Adobe Illustrator 27.5.0, SVG Export Plug-In . SVG Version: 6.00 Build 0)  -->
<svg version="1.1" id="Layer_1" xmlns="http://www.w3.org/2000/svg" xmlns:xlink="http://www.w3.org/1999/xlink" x="0px" y="0px"
	 viewBox="0 0 4000 4000" style="enable-background:new 0 0 4000 4000;" xml:space="preserve">
<g>
	<!-- <rect style="fill:#E4F1F2;" width="4000" height="4000"/> -->
	<g>
		<g>
			<polygon style="fill:#5C5682;" points="3209.942,2760.857 1872.89,2760.857 1842.449,3079.563 3194.854,3079.563 			"/>
			<path style="fill:#000072;" d="M3197.446,3082.28H1839.463l30.957-324.141h1342.373L3197.446,3082.28z M1845.439,3076.845
				h1346.821l14.829-313.271H1875.361L1845.439,3076.845z"/>
		</g>
		<g>
			<path style="fill:#A6B1BC;" d="M2861.217,3227.946h-661.455l77.576-283.041c7.123-25.989,30.744-44.007,57.691-44.007h410.874
				c28.448,0,52.96,20.035,58.622,47.913L2861.217,3227.946z"/>
			<path style="fill:#000072;" d="M2864.414,3230.561h-668.081l78.486-286.348c7.412-27.043,32.173-45.93,60.21-45.93h410.874
				c29.565,0,55.298,21.033,61.187,50.007L2864.414,3230.561z M2203.188,3225.331h654.829l-56.055-276.001
				c-5.391-26.55-28.97-45.818-56.06-45.818h-410.874c-25.693,0-48.379,17.305-55.171,42.083L2203.188,3225.331z"/>
		</g>
		<g style="opacity:0.55;">
			<path style="fill:#FFFFFF;" d="M2861.24,3227.921h-9.299l-47.39-233.308c-5.714-27.84-30.193-47.894-58.649-47.894h-410.88
				c-26.944,0-50.583,18.037-57.697,44.029l-65.035,237.173h-12.548l77.583-282.995c7.114-25.992,30.753-44.029,57.697-44.029
				h410.88c28.457,0,52.936,20.054,58.649,47.894L2861.24,3227.921z"/>
		</g>
		<g>
			<rect x="1911.764" y="3051.511" style="fill:#000072;" width="1275.305" height="174.282"/>
		</g>
		<g>
			<path style="fill:#000072;" d="M2861.216,3246.213h-661.455c-5.698,0-11.069-2.659-14.521-7.188
				c-3.457-4.531-4.6-10.413-3.096-15.908l79.917-291.587c7.896-28.792,34.258-48.899,64.106-48.899h429.229
				c31.475,0,58.872,22.39,65.142,53.237l58.579,288.442c1.089,5.371-0.288,10.95-3.76,15.195
				C2871.89,3243.749,2866.699,3246.213,2861.216,3246.213z M2223.706,3209.679h615.161l-54.131-266.538
				c-2.822-13.892-15.161-23.977-29.341-23.977h-429.229c-13.442,0-25.317,9.055-28.872,22.024L2223.706,3209.679z"/>
		</g>
		<g>
			<circle style="fill:#BECAD8;" cx="1872.89" cy="2994.401" r="233.544"/>
			<path style="fill:#000072;" d="M1872.891,3230.561c-130.22,0-236.157-105.942-236.157-236.16s105.938-236.16,236.157-236.16
				s236.157,105.942,236.157,236.16S2003.11,3230.561,1872.891,3230.561z M1872.891,2763.471
				c-127.334,0-230.933,103.594-230.933,230.93s103.599,230.93,230.933,230.93s230.933-103.594,230.933-230.93
				S2000.225,2763.471,1872.891,2763.471z"/>
		</g>
		<g>
			<circle style="fill:#A6B1BC;" cx="1872.89" cy="2994.401" r="140.614"/>
		</g>
		<g style="opacity:0.3;">
			<path style="fill:#000072;" d="M2013.498,2994.411c0,3.787-0.17,7.573-0.508,11.305
				c-5.708-72.406-66.245-129.326-140.121-129.326c-73.876,0-134.356,56.919-140.065,129.326c-0.339-3.731-0.509-7.518-0.509-11.305
				c0-77.663,62.911-140.63,140.574-140.63C1950.531,2853.781,2013.498,2916.748,2013.498,2994.411z"/>
		</g>
		<g style="opacity:0.55;">
			<path style="fill:#FFFFFF;" d="M2013.498,3014.194c0,77.663-62.966,140.629-140.629,140.629
				c-77.663,0-140.574-62.966-140.574-140.629c0-3.335,0.113-6.614,0.396-9.892c5.031,73.084,65.849,130.738,140.178,130.738
				c74.327,0,135.203-57.653,140.234-130.738C2013.385,3007.58,2013.498,3010.859,2013.498,3014.194z"/>
		</g>
		<g>
			<circle style="fill:#000072;" cx="1872.89" cy="2994.401" r="62.091"/>
		</g>
		<g style="opacity:0.55;">
			<path style="fill:#FFFFFF;" d="M1913.412,2988.888c0,1.222-0.074,2.41-0.185,3.598c-1.881-19.494-19.256-34.761-40.357-34.761
				s-38.439,15.267-40.32,34.761c-0.111-1.188-0.184-2.376-0.184-3.598c0-21.206,18.149-38.395,40.504-38.395
				C1895.263,2950.493,1913.412,2967.682,1913.412,2988.888z"/>
		</g>
		<g style="opacity:0.3;">
			<path style="fill:#000072;" d="M1934.988,3025.499c0,34.309-27.81,62.062-62.119,62.062c-34.253,0-62.062-27.753-62.062-62.062
				c0-5.37,0.678-10.571,1.978-15.544c6.896,26.735,31.201,46.519,60.085,46.519c28.939,0,53.245-19.783,60.14-46.519
				C1934.309,3014.928,1934.988,3020.129,1934.988,3025.499z"/>
		</g>
		<g>
			<path style="fill:#000072;" d="M1872.891,3246.213c-138.848,0-251.812-112.964-251.812-251.812s112.964-251.812,251.812-251.812
				s251.812,112.964,251.812,251.812S2011.738,3246.213,1872.891,3246.213z M1872.891,2779.123
				c-118.706,0-215.278,96.572-215.278,215.278s96.572,215.278,215.278,215.278s215.278-96.572,215.278-215.278
				S1991.597,2779.123,1872.891,2779.123z"/>
		</g>
		<g>
			<circle style="fill:#BECAD8;" cx="3194.875" cy="2994.401" r="233.544"/>
			<path style="fill:#000072;" d="M3194.873,3230.561c-130.215,0-236.152-105.942-236.152-236.16s105.938-236.16,236.152-236.16
				c130.22,0,236.157,105.942,236.157,236.16S3325.093,3230.561,3194.873,3230.561z M3194.873,2763.471
				c-127.334,0-230.928,103.594-230.928,230.93s103.594,230.93,230.928,230.93s230.933-103.594,230.933-230.93
				S3322.207,2763.471,3194.873,2763.471z"/>
		</g>
		<g>
			<circle style="fill:#A6B1BC;" cx="3194.875" cy="2994.401" r="140.614"/>
		</g>
		<g style="opacity:0.3;">
			<path style="fill:#000072;" d="M3335.483,2994.411c0,3.787-0.17,7.573-0.509,11.305c-5.708-72.406-66.245-129.326-140.12-129.326
				c-73.876,0-134.356,56.919-140.065,129.326c-0.34-3.731-0.509-7.518-0.509-11.305c0-77.663,62.911-140.63,140.574-140.63
				C3272.517,2853.781,3335.483,2916.748,3335.483,2994.411z"/>
		</g>
		<g style="opacity:0.55;">
			<path style="fill:#FFFFFF;" d="M3335.483,3014.194c0,77.663-62.966,140.629-140.629,140.629
				c-77.663,0-140.574-62.966-140.574-140.629c0-3.335,0.113-6.614,0.396-9.892c5.031,73.084,65.849,130.738,140.178,130.738
				c74.327,0,135.203-57.653,140.233-130.738C3335.37,3007.58,3335.483,3010.859,3335.483,3014.194z"/>
		</g>
		<g>
			<circle style="fill:#000072;" cx="3194.875" cy="2994.401" r="62.091"/>
		</g>
		<g style="opacity:0.3;">
			<path style="fill:#000072;" d="M3256.973,3025.499c0,34.309-27.81,62.062-62.119,62.062c-34.253,0-62.063-27.753-62.063-62.062
				c0-5.37,0.677-10.571,1.978-15.544c6.896,26.735,31.201,46.519,60.085,46.519c28.939,0,53.244-19.783,60.14-46.519
				C3256.294,3014.928,3256.973,3020.129,3256.973,3025.499z"/>
		</g>
		<g>
			<path style="fill:#000072;" d="M3194.873,3246.213c-138.848,0-251.807-112.964-251.807-251.812s112.959-251.812,251.807-251.812
				s251.812,112.964,251.812,251.812S3333.721,3246.213,3194.873,3246.213z M3194.873,2779.123
				c-118.701,0-215.273,96.572-215.273,215.278s96.572,215.278,215.273,215.278c118.706,0,215.278-96.572,215.278-215.278
				S3313.579,2779.123,3194.873,2779.123z"/>
		</g>
		<g>
			<path style="fill:#000072;" d="M3194.873,3246.213H1872.891c-10.088,0-18.267-8.179-18.267-18.267s8.179-18.267,18.267-18.267
				h1321.982c10.088,0,18.267,8.179,18.267,18.267S3204.961,3246.213,3194.873,3246.213z"/>
		</g>
		<g>
			<path style="fill:#000072;" d="M3209.941,2779.123H1872.891c-10.088,0-18.267-8.179-18.267-18.267s8.179-18.267,18.267-18.267
				h1337.051c10.088,0,18.267,8.179,18.267,18.267S3220.029,2779.123,3209.941,2779.123z"/>
		</g>
		<g>
			<g>
				
					<ellipse transform="matrix(0.7071 -0.7071 0.7071 0.7071 -1540.7321 2500.8455)" style="fill:#BECAD8;" cx="2248.422" cy="3110.251" rx="112.95" ry="112.95"/>
				<path style="fill:#000072;" d="M2248.423,3225.815c-63.721,0-115.562-51.843-115.562-115.564s51.841-115.564,115.562-115.564
					s115.562,51.843,115.562,115.564S2312.144,3225.815,2248.423,3225.815z M2248.423,2999.916
					c-60.84,0-110.337,49.495-110.337,110.334s49.497,110.334,110.337,110.334s110.337-49.495,110.337-110.334
					S2309.263,2999.916,2248.423,2999.916z"/>
			</g>
			<g>
				
					<ellipse transform="matrix(0.9239 -0.3827 0.3827 0.9239 -1019.0904 1097.1871)" style="fill:#A6B1BC;" cx="2248.422" cy="3110.251" rx="58.74" ry="58.74"/>
			</g>
			<g style="opacity:0.55;">
				<path style="fill:#FFFFFF;" d="M2307.19,3117.219c0,32.439-26.329,58.768-58.769,58.768s-58.769-26.329-58.769-58.768
					c0-1.143,0.057-2.342,0.114-3.485c1.771,30.841,27.357,55.285,58.654,55.285s56.884-24.444,58.654-55.285
					C2307.133,3114.877,2307.19,3116.076,2307.19,3117.219z"/>
			</g>
			<g style="opacity:0.3;">
				<path style="fill:#000072;" d="M2307.19,3110.251c0,3.027-0.229,6.054-0.686,8.967c-4.397-28.1-28.727-49.631-58.083-49.631
					s-53.686,21.531-58.083,49.631c-0.458-2.913-0.686-5.94-0.686-8.967c0-32.44,26.329-58.711,58.769-58.711
					S2307.19,3077.811,2307.19,3110.251z"/>
			</g>
			<g>
				
					<ellipse transform="matrix(0.9239 -0.3827 0.3827 0.9239 -1019.0901 1097.1868)" style="fill:#000072;" cx="2248.422" cy="3110.251" rx="30.898" ry="30.898"/>
			</g>
			<g style="opacity:0.3;">
				<path style="fill:#000072;" d="M2279.319,3124.186c0,17.077-13.821,30.897-30.897,30.897s-30.897-13.821-30.897-30.897
					c0-2.399,0.285-4.741,0.799-6.967c3.141,13.706,15.42,23.929,30.098,23.929s26.957-10.223,30.098-23.929
					C2279.034,3119.445,2279.319,3121.787,2279.319,3124.186z"/>
			</g>
			<g style="opacity:0.55;">
				<path style="fill:#FFFFFF;" d="M2264.945,3105.469c0,0.614-0.061,1.227-0.153,1.841c-1.069-6.777-7.972-11.994-16.371-11.994
					c-8.399,0-15.302,5.217-16.371,11.994c-0.092-0.614-0.153-1.227-0.153-1.841c0-7.647,7.391-13.836,16.523-13.836
					S2264.945,3097.822,2264.945,3105.469z"/>
			</g>
			<g>
				<path style="fill:#000072;" d="M2248.423,3238.881c-70.928,0-128.633-57.703-128.633-128.63s57.705-128.63,128.633-128.63
					s128.633,57.703,128.633,128.63S2319.351,3238.881,2248.423,3238.881z M2248.423,3012.983
					c-53.633,0-97.266,43.635-97.266,97.268s43.633,97.268,97.266,97.268s97.266-43.635,97.266-97.268
					S2302.056,3012.983,2248.423,3012.983z"/>
			</g>
		</g>
		<g>
			<g>
				
					<ellipse transform="matrix(0.7071 -0.7071 0.7071 0.7071 -1458.1163 2700.2974)" style="fill:#BECAD8;" cx="2530.489" cy="3110.251" rx="112.95" ry="112.95"/>
				<path style="fill:#000072;" d="M2530.488,3225.815c-63.721,0-115.562-51.843-115.562-115.564s51.841-115.564,115.562-115.564
					s115.562,51.843,115.562,115.564S2594.209,3225.815,2530.488,3225.815z M2530.488,2999.916
					c-60.84,0-110.337,49.495-110.337,110.334s49.497,110.334,110.337,110.334s110.337-49.495,110.337-110.334
					S2591.328,2999.916,2530.488,2999.916z"/>
			</g>
			<g>
				
					<ellipse transform="matrix(0.9239 -0.3827 0.3827 0.9239 -997.6193 1205.1298)" style="fill:#A6B1BC;" cx="2530.489" cy="3110.251" rx="58.74" ry="58.74"/>
			</g>
			<g style="opacity:0.55;">
				<path style="fill:#FFFFFF;" d="M2589.258,3117.219c0,32.439-26.329,58.768-58.769,58.768c-32.439,0-58.769-26.329-58.769-58.768
					c0-1.143,0.057-2.342,0.114-3.485c1.771,30.841,27.357,55.285,58.654,55.285s56.884-24.444,58.654-55.285
					C2589.201,3114.877,2589.258,3116.076,2589.258,3117.219z"/>
			</g>
			<g style="opacity:0.3;">
				<path style="fill:#000072;" d="M2589.258,3110.251c0,3.027-0.229,6.054-0.686,8.967c-4.397-28.1-28.727-49.631-58.083-49.631
					s-53.686,21.531-58.083,49.631c-0.457-2.913-0.686-5.94-0.686-8.967c0-32.44,26.329-58.711,58.769-58.711
					C2562.928,3051.539,2589.258,3077.811,2589.258,3110.251z"/>
			</g>
			<g>
				
					<ellipse transform="matrix(0.9239 -0.3827 0.3827 0.9239 -997.6191 1205.1293)" style="fill:#000072;" cx="2530.489" cy="3110.251" rx="30.898" ry="30.898"/>
			</g>
			<g style="opacity:0.3;">
				<path style="fill:#000072;" d="M2561.386,3124.186c0,17.077-13.821,30.897-30.897,30.897c-17.077,0-30.897-13.821-30.897-30.897
					c0-2.399,0.285-4.741,0.799-6.967c3.141,13.706,15.42,23.929,30.098,23.929s26.957-10.223,30.098-23.929
					C2561.101,3119.445,2561.386,3121.787,2561.386,3124.186z"/>
			</g>
			<g style="opacity:0.55;">
				<path style="fill:#FFFFFF;" d="M2547.013,3105.469c0,0.614-0.061,1.227-0.153,1.841c-1.069-6.777-7.972-11.994-16.371-11.994
					c-8.399,0-15.302,5.217-16.371,11.994c-0.092-0.614-0.153-1.227-0.153-1.841c0-7.647,7.391-13.836,16.523-13.836
					S2547.013,3097.822,2547.013,3105.469z"/>
			</g>
			<g>
				<path style="fill:#000072;" d="M2530.488,3238.881c-70.928,0-128.633-57.703-128.633-128.63s57.705-128.63,128.633-128.63
					s128.633,57.703,128.633,128.63S2601.416,3238.881,2530.488,3238.881z M2530.488,3012.983
					c-53.633,0-97.266,43.635-97.266,97.268s43.633,97.268,97.266,97.268s97.266-43.635,97.266-97.268
					S2584.121,3012.983,2530.488,3012.983z"/>
			</g>
		</g>
		<g>
			<rect x="2350.977" y="2570.446" style="fill:#A6B1BC;" width="564.135" height="190.411"/>
			<path style="fill:#000072;" d="M2917.725,2763.471h-569.36v-195.64h569.36V2763.471z M2353.589,2758.241H2912.5v-185.181
				h-558.911V2758.241z"/>
		</g>
		<g style="opacity:0.3;">
			<rect x="2350.978" y="2570.445" style="fill:#000072;" width="564.141" height="117.634"/>
		</g>
		<g>
			<path style="fill:#000072;" d="M2915.112,2779.123h-564.136c-10.088,0-18.267-8.179-18.267-18.267v-190.41
				c0-10.088,8.179-18.267,18.267-18.267h564.136c10.088,0,18.267,8.179,18.267,18.267v190.41
				C2933.379,2770.944,2925.2,2779.123,2915.112,2779.123z M2369.243,2742.59h527.603v-153.877h-527.603V2742.59z"/>
		</g>
		<g>
			<path style="fill:#F7AC15;" d="M3108.375,2071.919h-246.472v-228.733h196.057c27.843,0,50.415,22.571,50.415,50.415V2071.919z"/>
			<path style="fill:#000072;" d="M3110.986,2074.533h-251.694v-233.962h198.667c29.238,0,53.027,23.789,53.027,53.03V2074.533z
				 M2864.517,2069.303h241.245V1893.6c0-26.357-21.445-47.8-47.803-47.8h-193.442V2069.303z"/>
		</g>
		<g style="opacity:0.55;">
			<path style="fill:#FFFFFF;" d="M3108.375,1893.6v41.06c0-27.84-22.575-50.415-50.415-50.415h-196.057v-41.06h196.057
				C3085.8,1843.186,3108.375,1865.76,3108.375,1893.6z"/>
		</g>
		<g>
			<path style="fill:#000072;" d="M3108.374,2090.185h-246.47c-10.088,0-18.267-8.179-18.267-18.267v-228.733
				c0-10.088,8.179-18.267,18.267-18.267h196.055c37.871,0,68.682,30.811,68.682,68.682v178.318
				C3126.641,2082.006,3118.462,2090.185,3108.374,2090.185z M2880.171,2053.652h209.937V1893.6
				c0-17.727-14.419-32.148-32.148-32.148h-177.788V2053.652z"/>
		</g>
		<g>
			<path style="fill:#F7AC15;" d="M2007.654,2505.112v-377.177l180.321-533.686c16.659-49.304,62.906-82.494,114.948-82.494h504.831
				c29.906,0,54.149,24.243,54.149,54.149v446.264c0,32.999,26.751,59.751,59.751,59.751h244.605
				c54.655,0,98.962,44.307,98.962,98.962v334.231"/>
			<path style="fill:#000072;" d="M3267.832,2505.112h-5.225v-334.231c0-53.127-43.223-96.348-96.348-96.348h-244.604
				c-34.39,0-62.363-27.979-62.363-62.366v-446.262c0-28.418-23.12-51.536-51.538-51.536h-504.829
				c-50.962,0-96.162,32.437-112.476,80.718l-180.181,533.279v376.746h-5.225v-377.605l0.137-0.408l180.317-533.687
				c17.031-50.405,64.224-84.272,117.427-84.272h504.829c31.299,0,56.763,25.466,56.763,56.765v446.262
				c0,31.506,25.635,57.136,57.139,57.136h244.604c56.006,0,101.572,45.569,101.572,101.577V2505.112z"/>
		</g>
		<g>
			<g style="opacity:0.3;">
				<path style="fill:#000072;" d="M3190.286,2337.529c-5.424,0-9.819,4.396-9.819,9.817v40.15
					c0,15.463-12.489,28.008-28.008,28.008h-162.392c-15.468,0-28.008-12.538-28.008-28.008v-49.967h-410.767
					c-4.022,0-7.282,3.262-7.282,7.282v32.883c0,20.356-16.501,36.857-36.86,36.857h-36.913c20.389,0,36.913-16.525,36.913-36.857
					v-40.165h-351.333c-4.023,0-7.282,3.262-7.282,7.282v32.883c0,20.333,16.469,36.857,36.86,36.857h-36.86
					c-20.389,0-36.916-16.525-36.916-36.857v-40.165h-103.966v131.009h1257.568v-131.009H3190.286z"/>
			</g>
		</g>
		<g style="opacity:0.55;">
			<path style="fill:#FFFFFF;" d="M2861.903,1602.364c0-29.913-24.255-54.168-54.168-54.168h-504.819
				c-52.039,0-98.309,33.218-114.946,82.512l-180.317,533.667v-51.815l180.317-533.667c16.637-49.294,62.906-82.512,114.946-82.512
				h504.819c29.913,0,54.168,24.255,54.168,54.168V1602.364z"/>
		</g>
		<g style="opacity:0.55;">
			<path style="fill:#FFFFFF;" d="M3265.221,2160.427v51.815c0-54.672-44.309-98.981-98.981-98.981h-244.568
				c-32.993,0-59.769-26.719-59.769-59.713v-51.815c0,32.994,26.776,59.713,59.769,59.713h244.568
				C3220.912,2061.445,3265.221,2105.754,3265.221,2160.427z"/>
		</g>
		<g>
			<path style="fill:#000072;" d="M2507.152,1632.172v2.801h-148.275c-16.301,0-30.865,10.363-36.187,25.768l-163.624,471.938
				c-2.465,7.17-3.137,14.452-2.241,21.342c-31.369-1.177-52.936-32.49-42.572-62.402l163.624-471.938
				c5.322-15.461,19.886-25.767,36.187-25.767h154.773C2490.01,1593.913,2507.152,1611.054,2507.152,1632.172z"/>
		</g>
		<g>
			<path style="fill:#000072;" d="M2770.876,1621.921v13.052h-104.582c-15.461,0-28.008,12.548-28.008,28.008v386.513h-16.805
				c-15.46,0-28.008-12.548-28.008-28.008v-399.564c0-15.461,12.548-28.008,28.008-28.008h121.387
				C2758.329,1593.913,2770.876,1606.461,2770.876,1621.921z"/>
		</g>
		<g>
			<path style="fill:#000072;" d="M3265.22,2523.378c-10.088,0-18.267-8.179-18.267-18.267v-334.231
				c0-44.497-36.196-80.696-80.693-80.696h-244.604c-43.018,0-78.018-35-78.018-78.018v-446.262
				c0-19.788-16.099-35.884-35.884-35.884h-504.829c-44.243,0-83.481,28.162-97.646,70.076l-179.355,530.842v374.172
				c0,10.088-8.179,18.267-18.267,18.267s-18.267-8.179-18.267-18.267v-377.175c0-1.987,0.327-3.962,0.962-5.847l180.317-533.687
				c19.185-56.77,72.334-94.915,132.256-94.915h504.829c39.932,0,72.417,32.488,72.417,72.417v446.262
				c0,22.876,18.608,41.484,41.484,41.484h244.604c64.639,0,117.227,52.59,117.227,117.229v334.231
				C3283.486,2515.199,3275.308,2523.378,3265.22,2523.378z"/>
		</g>
		<g style="opacity:0.67;">
			<path style="fill:#91B5C4;" d="M2507.152,1632.172v417.322l-35.739,34.45l-55.12,53.272l-17.477,16.861H2158.73
				c-32.377,0-55.064-31.929-44.477-62.458l40.948-118.083l54.896-158.414l31.369-90.41l31.201-89.906l5.209-15.125
				c5.322-15.461,19.886-25.767,36.187-25.767h154.773C2490.01,1593.913,2507.152,1611.054,2507.152,1632.172z"/>
		</g>
		<defs>
			<filter id="Adobe_OpacityMaskFilter" filterUnits="userSpaceOnUse" x="2241.466" y="1634.805" width="265.685" height="449.139">
				<feFlood  style="flood-color:white;flood-opacity:1" result="back"/>
				<feBlend  in="SourceGraphic" in2="back" mode="normal"/>
			</filter>
		</defs>
		<mask maskUnits="userSpaceOnUse" x="2241.466" y="1634.805" width="265.685" height="449.139" id="SVGID_1_">
			<g style="filter:url(#Adobe_OpacityMaskFilter);">
				<defs>
					
						<filter id="Adobe_OpacityMaskFilter_00000028324423509075401230000005897262209777063329_" filterUnits="userSpaceOnUse" x="2241.466" y="1634.805" width="265.685" height="449.139">
						<feFlood  style="flood-color:white;flood-opacity:1" result="back"/>
						<feBlend  in="SourceGraphic" in2="back" mode="normal"/>
					</filter>
				</defs>
				<mask maskUnits="userSpaceOnUse" x="2241.466" y="1634.805" width="265.685" height="449.139" id="SVGID_1_">
					<g style="filter:url(#Adobe_OpacityMaskFilter_00000028324423509075401230000005897262209777063329_);">
					</g>
				</mask>
				
					<linearGradient id="SVGID_00000130626655776593597750000018254978988068414593_" gradientUnits="userSpaceOnUse" x1="2249.1406" y1="1669.0784" x2="2509.6165" y2="2072.3962">
					<stop  offset="0" style="stop-color:#FFFFFF"/>
					<stop  offset="1" style="stop-color:#000000"/>
				</linearGradient>
				<polygon style="mask:url(#SVGID_1_);fill:url(#SVGID_00000130626655776593597750000018254978988068414593_);" points="
					2507.152,2001.096 2507.152,2049.494 2471.413,2083.944 2241.466,1724.711 2272.667,1634.805 				"/>
			</g>
		</mask>
		
			<linearGradient id="SVGID_00000152233755586990826410000011905060815946878595_" gradientUnits="userSpaceOnUse" x1="2249.1406" y1="1669.0784" x2="2509.6165" y2="2072.3962">
			<stop  offset="0" style="stop-color:#FFFFFF"/>
			<stop  offset="1" style="stop-color:#FFFFFF"/>
		</linearGradient>
		<polygon style="opacity:0.55;fill:url(#SVGID_00000152233755586990826410000011905060815946878595_);" points="2507.152,2001.096 
			2507.152,2049.494 2471.413,2083.944 2241.466,1724.711 2272.667,1634.805 		"/>
		<defs>
			
				<filter id="Adobe_OpacityMaskFilter_00000056387709881568597630000016663440574440164229_" filterUnits="userSpaceOnUse" x="2155.201" y="1815.121" width="261.092" height="338.955">
				<feFlood  style="flood-color:white;flood-opacity:1" result="back"/>
				<feBlend  in="SourceGraphic" in2="back" mode="normal"/>
			</filter>
		</defs>
		
			<mask maskUnits="userSpaceOnUse" x="2155.201" y="1815.121" width="261.092" height="338.955" id="SVGID_00000090986608509211487900000018003488389777118119_">
			<g style="filter:url(#Adobe_OpacityMaskFilter_00000056387709881568597630000016663440574440164229_);">
				<defs>
					
						<filter id="Adobe_OpacityMaskFilter_00000029023490379440247650000004152226385435917227_" filterUnits="userSpaceOnUse" x="2155.201" y="1815.121" width="261.092" height="338.955">
						<feFlood  style="flood-color:white;flood-opacity:1" result="back"/>
						<feBlend  in="SourceGraphic" in2="back" mode="normal"/>
					</filter>
				</defs>
				
					<mask maskUnits="userSpaceOnUse" x="2155.201" y="1815.121" width="261.092" height="338.955" id="SVGID_00000090986608509211487900000018003488389777118119_">
					<g style="filter:url(#Adobe_OpacityMaskFilter_00000029023490379440247650000004152226385435917227_);">
					</g>
				</mask>
				
					<linearGradient id="SVGID_00000032610099529941375380000008545515804155478662_" gradientUnits="userSpaceOnUse" x1="2099.1975" y1="1765.9169" x2="2359.6738" y2="2169.2354">
					<stop  offset="0" style="stop-color:#FFFFFF"/>
					<stop  offset="1" style="stop-color:#000000"/>
				</linearGradient>
				
					<polygon style="mask:url(#SVGID_00000090986608509211487900000018003488389777118119_);fill:url(#SVGID_00000032610099529941375380000008545515804155478662_);" points="
					2416.293,2137.216 2398.816,2154.076 2270.762,2154.076 2155.201,1973.536 2210.097,1815.121 				"/>
			</g>
		</mask>
		
			<linearGradient id="SVGID_00000177467852457599127790000014919742895890174900_" gradientUnits="userSpaceOnUse" x1="2099.1975" y1="1765.9169" x2="2359.6738" y2="2169.2354">
			<stop  offset="0" style="stop-color:#FFFFFF"/>
			<stop  offset="1" style="stop-color:#FFFFFF"/>
		</linearGradient>
		<polygon style="opacity:0.55;fill:url(#SVGID_00000177467852457599127790000014919742895890174900_);" points="2416.293,2137.216 
			2398.816,2154.076 2270.762,2154.076 2155.201,1973.536 2210.097,1815.121 		"/>
		<g style="opacity:0.67;">
			<path style="fill:#91B5C4;" d="M2770.876,1621.921v399.564c0,15.461-12.548,28.008-28.008,28.008h-121.387
				c-15.46,0-28.008-12.548-28.008-28.008v-399.564c0-6.778,2.409-12.996,6.385-17.813v-0.056
				c5.21-6.218,12.94-10.139,21.623-10.139h121.387C2758.329,1593.913,2770.876,1606.461,2770.876,1621.921z"/>
		</g>
		<defs>
			
				<filter id="Adobe_OpacityMaskFilter_00000123442709095204995700000002100989322362357661_" filterUnits="userSpaceOnUse" x="2599.858" y="1593.913" width="171.018" height="277.225">
				<feFlood  style="flood-color:white;flood-opacity:1" result="back"/>
				<feBlend  in="SourceGraphic" in2="back" mode="normal"/>
			</filter>
		</defs>
		
			<mask maskUnits="userSpaceOnUse" x="2599.858" y="1593.913" width="171.018" height="277.225" id="SVGID_00000173847195207534207760000004979997624276033433_">
			<g style="filter:url(#Adobe_OpacityMaskFilter_00000123442709095204995700000002100989322362357661_);">
				<defs>
					
						<filter id="Adobe_OpacityMaskFilter_00000065776807494775535070000017740873578486025881_" filterUnits="userSpaceOnUse" x="2599.858" y="1593.913" width="171.018" height="277.225">
						<feFlood  style="flood-color:white;flood-opacity:1" result="back"/>
						<feBlend  in="SourceGraphic" in2="back" mode="normal"/>
					</filter>
				</defs>
				
					<mask maskUnits="userSpaceOnUse" x="2599.858" y="1593.913" width="171.018" height="277.225" id="SVGID_00000173847195207534207760000004979997624276033433_">
					<g style="filter:url(#Adobe_OpacityMaskFilter_00000065776807494775535070000017740873578486025881_);">
					</g>
				</mask>
				
					<linearGradient id="SVGID_00000161627194005573236500000016267289442037266090_" gradientUnits="userSpaceOnUse" x1="2529.0476" y1="1469.0465" x2="2831.5356" y2="1891.0358">
					<stop  offset="0" style="stop-color:#FFFFFF"/>
					<stop  offset="1" style="stop-color:#000000"/>
				</linearGradient>
				
					<path style="mask:url(#SVGID_00000173847195207534207760000004979997624276033433_);fill:url(#SVGID_00000161627194005573236500000016267289442037266090_);" d="
					M2770.876,1759.385v111.753l-171.018-267.03v-0.056c5.21-6.218,12.94-10.139,21.623-10.139h43.469L2770.876,1759.385z"/>
			</g>
		</mask>
		
			<linearGradient id="SVGID_00000033369127644930121050000007388371207950822580_" gradientUnits="userSpaceOnUse" x1="2529.0476" y1="1469.0465" x2="2831.5356" y2="1891.0358">
			<stop  offset="0" style="stop-color:#FFFFFF"/>
			<stop  offset="1" style="stop-color:#FFFFFF"/>
		</linearGradient>
		<path style="opacity:0.55;fill:url(#SVGID_00000033369127644930121050000007388371207950822580_);" d="M2770.876,1759.385v111.753
			l-171.018-267.03v-0.056c5.21-6.218,12.94-10.139,21.623-10.139h43.469L2770.876,1759.385z"/>
		<defs>
			
				<filter id="Adobe_OpacityMaskFilter_00000067226805414660627270000009726245361566290863_" filterUnits="userSpaceOnUse" x="2593.473" y="1684.715" width="177.404" height="364.778">
				<feFlood  style="flood-color:white;flood-opacity:1" result="back"/>
				<feBlend  in="SourceGraphic" in2="back" mode="normal"/>
			</filter>
		</defs>
		
			<mask maskUnits="userSpaceOnUse" x="2593.473" y="1684.715" width="177.404" height="364.778" id="SVGID_00000080923201400784188670000005508524797353136784_">
			<g style="filter:url(#Adobe_OpacityMaskFilter_00000067226805414660627270000009726245361566290863_);">
				<defs>
					
						<filter id="Adobe_OpacityMaskFilter_00000142150681038310798860000008064505800863329926_" filterUnits="userSpaceOnUse" x="2593.473" y="1684.715" width="177.404" height="364.778">
						<feFlood  style="flood-color:white;flood-opacity:1" result="back"/>
						<feBlend  in="SourceGraphic" in2="back" mode="normal"/>
					</filter>
				</defs>
				
					<mask maskUnits="userSpaceOnUse" x="2593.473" y="1684.715" width="177.404" height="364.778" id="SVGID_00000080923201400784188670000005508524797353136784_">
					<g style="filter:url(#Adobe_OpacityMaskFilter_00000142150681038310798860000008064505800863329926_);">
					</g>
				</mask>
				
					<linearGradient id="SVGID_00000145022093133911946760000006357996077654866358_" gradientUnits="userSpaceOnUse" x1="2416.8669" y1="1549.4592" x2="2719.355" y2="1971.4485">
					<stop  offset="0" style="stop-color:#FFFFFF"/>
					<stop  offset="1" style="stop-color:#000000"/>
				</linearGradient>
				
					<path style="mask:url(#SVGID_00000080923201400784188670000005508524797353136784_);fill:url(#SVGID_00000145022093133911946760000006357996077654866358_);" d="
					M2770.876,1961.772v59.713c0,15.461-12.548,28.008-28.008,28.008h-47.222l-102.174-159.647v-205.132L2770.876,1961.772z"/>
			</g>
		</mask>
		
			<linearGradient id="SVGID_00000177475706907934133760000007726708120439933576_" gradientUnits="userSpaceOnUse" x1="2416.8669" y1="1549.4592" x2="2719.355" y2="1971.4485">
			<stop  offset="0" style="stop-color:#FFFFFF"/>
			<stop  offset="1" style="stop-color:#FFFFFF"/>
		</linearGradient>
		<path style="opacity:0.55;fill:url(#SVGID_00000177475706907934133760000007726708120439933576_);" d="M2770.876,1961.772v59.713
			c0,15.461-12.548,28.008-28.008,28.008h-47.222l-102.174-159.647v-205.132L2770.876,1961.772z"/>
		<g>
			<path style="fill:#000072;" d="M2398.833,2168.08h-240.098c-20.015,0-38.145-9.351-49.751-25.657s-14.497-36.501-7.944-55.41
				l163.608-471.948c7.285-21.028,27.134-35.156,49.395-35.156h154.814c28.828,0,52.28,23.455,52.28,52.283v417.322
				c0,3.799-1.543,7.437-4.277,10.076l-108.301,104.563C2405.947,2166.672,2402.461,2168.08,2398.833,2168.08z M2314.043,1607.917
				c-10.332,0-19.546,6.558-22.93,16.318c0,0.002,0,0.002,0,0.005l-163.608,471.948c-3.55,10.237-1.982,21.169,4.297,29.995
				c6.284,8.826,16.099,13.889,26.934,13.889h234.438l99.956-96.504v-411.377c0-13.386-10.889-24.275-24.272-24.275H2314.043z
				 M2277.881,1619.653h0.049H2277.881z"/>
		</g>
		<g>
			<path style="fill:#000072;" d="M2742.866,2063.517h-121.367c-23.164,0-42.012-18.845-42.012-42.012v-399.585
				c0-23.167,18.848-42.012,42.012-42.012h121.367c23.169,0,42.017,18.845,42.017,42.012v399.585
				C2784.883,2044.672,2766.035,2063.517,2742.866,2063.517z M2621.499,1607.917c-7.72,0-14.004,6.282-14.004,14.004v399.585
				c0,7.722,6.284,14.004,14.004,14.004h121.367c7.725,0,14.009-6.282,14.009-14.004v-399.585c0-7.722-6.284-14.004-14.009-14.004
				H2621.499z"/>
		</g>
		<g>
			<path style="fill:#A6B1BC;" d="M3279.225,2629.121H2007.654c-14.953,0-27.075-12.122-27.075-27.074v-69.86
				c0-14.953,12.122-27.074,27.075-27.074h1271.571c14.953,0,27.074,12.122,27.074,27.074v69.86
				C3306.299,2617,3294.178,2629.121,3279.225,2629.121z"/>
			<path style="fill:#000072;" d="M3279.224,2631.735H2007.656c-16.372,0-29.688-13.318-29.688-29.688v-69.861
				c0-16.37,13.315-29.69,29.688-29.69h1271.567c16.372,0,29.688,13.32,29.688,29.69v69.861
				C3308.911,2618.417,3295.596,2631.735,3279.224,2631.735z M2007.656,2507.726c-13.486,0-24.463,10.972-24.463,24.46v69.861
				c0,13.486,10.977,24.458,24.463,24.458h1271.567c13.486,0,24.463-10.972,24.463-24.458v-69.861
				c0-13.489-10.977-24.46-24.463-24.46H2007.656z"/>
		</g>
		<g style="opacity:0.55;">
			<path style="fill:#FFFFFF;" d="M3306.281,2534.988v35.458c0-14.956-12.1-27.056-27.056-27.056H2007.654
				c-14.956,0-27.056,12.1-27.056,27.056v-35.458c0-14.957,12.1-27.056,27.056-27.056h1271.571
				C3294.181,2507.932,3306.281,2520.031,3306.281,2534.988z"/>
		</g>
		<g>
			<path style="fill:#000072;" d="M3279.224,2647.387H2007.656c-25,0-45.342-20.339-45.342-45.339v-69.861
				c0-25,20.342-45.342,45.342-45.342h1271.567c25,0,45.342,20.342,45.342,45.342v69.861
				C3324.565,2627.048,3304.224,2647.387,3279.224,2647.387z M2007.656,2523.378c-4.858,0-8.809,3.95-8.809,8.809v69.861
				c0,4.856,3.95,8.806,8.809,8.806h1271.567c4.858,0,8.809-3.95,8.809-8.806v-69.861c0-4.858-3.95-8.809-8.809-8.809H2007.656z"/>
		</g>
		<g>
			<path style="fill:#000072;" d="M2470.254,2428.556h-321.738c-28.057,0-50.884-22.825-50.884-50.881v-272.612
				c0-7.734,6.27-14.004,14.004-14.004s14.004,6.27,14.004,14.004v272.612c0,12.612,10.264,22.874,22.876,22.874h321.738
				c12.612,0,22.876-10.261,22.876-22.874v-328.162c0-7.734,6.27-14.004,14.004-14.004s14.004,6.27,14.004,14.004v328.162
				C2521.138,2405.732,2498.311,2428.556,2470.254,2428.556z"/>
		</g>
		<g>
			<path style="fill:#000072;" d="M2366.859,2258.407L2366.859,2258.407c-18.949,0-34.31-15.361-34.31-34.31l0,0
				c0-5.801,4.702-10.503,10.503-10.503h47.614c5.801,0,10.503,4.702,10.503,10.503l0,0
				C2401.169,2243.046,2385.808,2258.407,2366.859,2258.407z"/>
		</g>
		<g>
			<path style="fill:#A6B1BC;" d="M3125.18,2415.486h-162.448c-15.469,0-28.008-12.54-28.008-28.008v-162.447
				c0-15.469,12.54-28.008,28.008-28.008h162.448c15.469,0,28.008,12.54,28.008,28.008v162.447
				C3153.188,2402.946,3140.648,2415.486,3125.18,2415.486z"/>
			<path style="fill:#000072;" d="M3125.181,2418.1h-162.446c-16.885,0-30.62-13.738-30.62-30.623v-162.446
				c0-16.885,13.735-30.623,30.62-30.623h162.446c16.885,0,30.62,13.738,30.62,30.623v162.446
				C3155.801,2404.362,3142.065,2418.1,3125.181,2418.1z M2962.734,2199.638c-14.004,0-25.396,11.392-25.396,25.393v162.446
				c0,14.001,11.392,25.393,25.396,25.393h162.446c14.004,0,25.396-11.392,25.396-25.393v-162.446
				c0-14.001-11.392-25.393-25.396-25.393H2962.734z"/>
		</g>
		<g>
			<path style="fill:#000072;" d="M3125.181,2426.689h-162.446c-21.621,0-39.209-17.59-39.209-39.211v-162.446
				c0-21.621,17.588-39.211,39.209-39.211h162.446c21.621,0,39.209,17.59,39.209,39.211v162.446
				C3164.39,2409.098,3146.802,2426.689,3125.181,2426.689z M2962.734,2208.227c-9.268,0-16.807,7.539-16.807,16.804v162.446
				c0,9.265,7.539,16.804,16.807,16.804h162.446c9.268,0,16.807-7.539,16.807-16.804v-162.446c0-9.265-7.539-16.804-16.807-16.804
				H2962.734z"/>
		</g>
		<g>
			<path style="fill:#000072;" d="M3113.042,2260.507h-136.304c-6.187,0-11.201-5.017-11.201-11.204s5.015-11.204,11.201-11.204
				h136.304c6.187,0,11.201,5.017,11.201,11.204S3119.229,2260.507,3113.042,2260.507z"/>
		</g>
		<g>
			<path style="fill:#000072;" d="M3113.042,2315.59h-136.304c-6.187,0-11.201-5.017-11.201-11.204s5.015-11.204,11.201-11.204
				h136.304c6.187,0,11.201,5.017,11.201,11.204S3119.229,2315.59,3113.042,2315.59z"/>
		</g>
		<g>
			<path style="fill:#000072;" d="M3113.042,2370.673h-136.304c-6.187,0-11.201-5.017-11.201-11.204s5.015-11.204,11.201-11.204
				h136.304c6.187,0,11.201,5.017,11.201,11.204S3119.229,2370.673,3113.042,2370.673z"/>
		</g>
		<g>
			<path style="fill:#BECAD8;" d="M1608.448,2109.41l184.096,357.774l-102.582,52.784l-184.096-357.774
				c-5.092-9.895-1.198-22.044,8.697-27.135l66.75-34.347C1591.208,2095.621,1603.357,2099.515,1608.448,2109.41z"/>
			<path style="fill:#000072;" d="M1688.833,2523.488L1503.54,2163.39c-5.742-11.165-1.328-24.915,9.829-30.654l66.748-34.348
				c11.162-5.737,24.912-1.331,30.654,9.827l185.293,360.098L1688.833,2523.488z M1590.503,2101.095c-2.7,0-5.435,0.625-7.993,1.941
				l-66.748,34.348c-8.599,4.421-11.997,15.015-7.573,23.613l182.9,355.449l97.935-50.391l-182.9-355.449
				C1603.018,2104.57,1596.865,2101.095,1590.503,2101.095z"/>
		</g>
		<g style="opacity:0.55;">
			<path style="fill:#FFFFFF;" d="M1792.521,2467.179l-31.482,16.202l-183.97-357.635c-5.127-9.896-17.279-13.793-27.175-8.666
				l-37.379,19.228c0.667-0.461,1.333-0.872,2.051-1.23l66.759-34.354c9.896-5.127,22.048-1.23,27.124,8.665L1792.521,2467.179z"/>
		</g>
		<g>
			<path style="fill:#F7AC15;" d="M608.763,1466.212l-51.376,992.045H434.329v-896.009l-85.422-99.112v-245.858
				c0-32.251,26.099-58.35,58.35-58.35h44.916c13.536,0,26.303,4.666,36.404,12.767c7.999,6.409,14.357,14.87,18.151,24.919
				l7.793,20.612L608.763,1466.212z"/>
			<path style="fill:#000072;" d="M559.868,2460.873H431.719v-897.654l-85.425-99.111v-246.831
				c0-33.616,27.349-60.964,60.962-60.964h44.917c13.799,0,27.309,4.739,38.042,13.345c8.564,6.863,15.122,15.864,18.96,26.035
				L611.401,1465.8l-0.024,0.547L559.868,2460.873z M436.943,2455.644h117.964l51.221-989.019l-101.846-269.084
				c-3.506-9.297-9.502-17.527-17.339-23.806c-9.805-7.864-22.153-12.192-34.77-12.192h-44.917
				c-30.732,0-55.737,25.002-55.737,55.735v244.888l85.425,99.111V2455.644z"/>
		</g>
		<g>
			<polygon style="fill:#BECAD8;" points="1578.709,2102.059 1517.181,2133.746 1358.181,1838.05 1299.318,1728.529 
				1318.341,1718.736 1360.847,1696.842 1379.818,1732.17 1417.248,1801.748 			"/>
			<path style="fill:#000072;" d="M1516.099,2137.245l-220.342-409.822l66.177-34.082l220.337,409.824L1516.099,2137.245z
				 M1302.876,1729.635l215.391,400.613l56.885-29.294l-215.396-400.61L1302.876,1729.635z"/>
		</g>
		<g>
			<path style="fill:#000072;" d="M1689.976,2536.691c-6.064,0-11.914-3.311-14.883-9.075l-184.097-357.773
				c-9.297-18.083-2.153-40.354,15.923-49.651l66.743-34.346c18.081-9.299,40.347-2.163,49.648,15.913c0.005,0,0.005,0,0.005,0.002
				l184.097,357.773c2.026,3.943,2.407,8.53,1.055,12.751c-1.357,4.224-4.331,7.734-8.271,9.763l-102.583,52.783
				C1695.161,2536.093,1692.549,2536.691,1689.976,2536.691z M1590.522,2115.199c-0.527,0-1.06,0.122-1.558,0.378l-66.748,34.348
				c-1.685,0.867-2.349,2.939-1.484,4.622l176.445,342.903l72.852-37.483l-176.45-342.908l0.005,0.002
				C1592.974,2115.881,1591.768,2115.199,1590.522,2115.199z"/>
		</g>
		<g>
			<path style="fill:#000072;" d="M1517.178,2150.441c-5.962,0-11.724-3.198-14.741-8.804L1284.57,1736.44
				c-2.124-3.953-2.573-8.591-1.24-12.876s4.326-7.854,8.315-9.907l61.548-31.67c8.105-4.185,18.052-1.079,22.378,6.948
				l217.866,405.198c2.124,3.953,2.573,8.591,1.24,12.876s-4.326,7.854-8.315,9.907l-61.548,31.67
				C1522.368,2149.845,1519.751,2150.441,1517.178,2150.441z M1322.085,1735.6l202.026,375.742l31.812-16.37l-202.026-375.742
				L1322.085,1735.6z"/>
		</g>
		<g>
			<path style="fill:#000072;" d="M557.402,2474.97H434.346c-9.233,0-16.719-7.485-16.719-16.719v-889.775l-81.397-94.424
				c-2.617-3.035-4.058-6.909-4.058-10.916v-245.872c0-41.394,33.677-75.071,75.073-75.071h44.902
				c31.021,0,59.238,19.49,70.215,48.501l102.026,269.578c0.82,2.163,1.182,4.473,1.06,6.782l-51.353,992.061
				C573.638,2468.002,566.299,2474.97,557.402,2474.97z M451.065,2441.532h90.464l50.347-972.703l-100.786-266.301
				c-6.089-16.089-21.738-26.897-38.94-26.897h-44.902c-22.959,0-41.636,18.677-41.636,41.633v239.661l81.396,94.424
				c2.617,3.035,4.058,6.909,4.058,10.916V2441.532z"/>
		</g>
		<g>
			
				<ellipse transform="matrix(0.1602 -0.9871 0.9871 0.1602 -972.8264 1616.2122)" style="fill:#000072;" cx="463.402" cy="1379.816" rx="74.877" ry="74.877"/>
		</g>
		<g>
			<path style="fill:#A6B1BC;" d="M1707.913,2540.502h322.758v-164.503h-322.758c-19.57,0-35.435,15.865-35.435,35.435v93.633
				C1672.478,2524.637,1688.343,2540.502,1707.913,2540.502z"/>
			<path style="fill:#000072;" d="M2033.281,2543.117h-325.366c-20.981,0-38.052-17.07-38.052-38.049v-93.633
				c0-20.981,17.07-38.052,38.052-38.052h325.366V2543.117z M1707.915,2378.613c-18.101,0-32.827,14.724-32.827,32.822v93.633
				c0,18.098,14.727,32.82,32.827,32.82h320.142v-159.275H1707.915z"/>
		</g>
		<g style="opacity:0.55;">
			<path style="fill:#FFFFFF;" d="M2030.687,2376.015v41.019h-322.768c-19.586,0-35.43,15.844-35.43,35.43v-41.019
				c0-19.586,15.844-35.43,35.43-35.43H2030.687z"/>
		</g>
		<g>
			<path style="fill:#BECAD8;" d="M987.765,1187.085l407.285,88.922c50.808,11.093,83.004,61.274,71.911,112.083l-4.522,20.714
				l-499.282-109.007c-11.625-2.538-18.991-14.019-16.453-25.644l15.417-70.615C964.659,1191.913,976.141,1184.547,987.765,1187.085
				z"/>
			<path style="fill:#000072;" d="M1464.434,1411.913L962.602,1302.35c-6.304-1.377-11.699-5.127-15.181-10.557
				c-3.486-5.432-4.648-11.895-3.271-18.198l15.415-70.615c2.847-13.015,15.771-21.282,28.755-18.45l407.285,88.923
				c52.134,11.379,85.288,63.057,73.911,115.193L1464.434,1411.913z M983.164,1189.201c-8.701,0-16.558,6.05-18.491,14.893
				l-15.415,70.615c-2.227,10.198,4.258,20.308,14.458,22.534l496.724,108.45l3.97-18.162
				c10.767-49.319-20.601-98.206-69.917-108.97l-407.285-88.923C985.85,1189.343,984.497,1189.201,983.164,1189.201z"/>
		</g>
		<g style="opacity:0.3;">
			<path style="fill:#000072;" d="M1469.188,1368.382c-0.051,6.512-0.769,13.075-2.205,19.689l-4.563,20.714l-499.253-109.008
				c-11.639-2.513-19.022-13.998-16.459-25.637l6.871-31.431c1.641,8.101,7.896,14.818,16.459,16.715L1469.188,1368.382z"/>
		</g>
		<g style="opacity:0.55;">
			<path style="fill:#FFFFFF;" d="M1466.983,1388.071l-4.563,20.714l-3.179-0.718c3.384-45.993-27.483-88.601-73.783-98.753
				l-407.319-88.909c-8.204-1.794-16.356,1.385-21.33,7.537l5.333-24.406c2.512-11.639,13.998-18.971,25.637-16.459l407.268,88.909
				C1445.859,1287.113,1478.059,1337.259,1466.983,1388.071z"/>
		</g>
		<g>
			
				<rect x="427.954" y="1147.434" transform="matrix(-0.977 -0.2133 0.2133 -0.977 1120.3839 2484.9692)" style="fill:#BECAD8;" width="532.587" height="69.22"/>
			<path style="fill:#000072;" d="M949.028,1275.768l-525.439-114.717l15.879-72.732l525.439,114.714L949.028,1275.768z
				 M429.81,1157.057l515.225,112.49l13.652-62.52L443.462,1094.54L429.81,1157.057z"/>
		</g>
		<g style="opacity:0.55;">
			<polygon style="fill:#FFFFFF;" points="961.783,1205.024 955.579,1233.481 435.252,1119.858 441.456,1091.453 			"/>
		</g>
		<g style="opacity:0.3;">
			<path style="fill:#000072;" d="M1417.248,1801.748c-13.895,19.587-35.328,32.713-59.068,36.302l-58.862-109.521l19.022-9.793
				l61.477,13.434L1417.248,1801.748z"/>
		</g>
		<g>
			<path style="fill:#000072;" d="M2030.669,2557.221h-322.754c-28.76,0-52.158-23.396-52.158-52.153v-93.633
				c0-28.76,23.398-52.156,52.158-52.156h322.754c9.233,0,16.719,7.485,16.719,16.719v164.504
				C2047.388,2549.736,2039.902,2557.221,2030.669,2557.221z M1707.915,2392.717c-10.322,0-18.721,8.396-18.721,18.718v93.633
				c0,10.32,8.398,18.716,18.721,18.716h306.035v-131.067H1707.915z"/>
		</g>
		<g>
			<path style="fill:#F7AC15;" d="M1943.112,2275.159h-102.138l-200.019-435.981v-0.051l-75.167-163.871l-238.782-52.146
				l-82.602-18.048l-80.705-17.638l-82.551-17.997l-81.628-17.843l-1.179-0.256l-81.371-17.792l-472.232-103.163
				c-11.024-2.41-20.458-8.46-27.124-16.767c-6.717-8.306-10.614-18.817-10.614-30.098c0-28.61,24.919-50.864,53.325-47.633
				l563.089,63.887l88.909,10.101l87.832,9.947l88.858,10.101l86.909,9.845l88.909,10.101l133.415,15.126
				c45.326,5.127,83.525,35.994,98.138,79.167L1943.112,2275.159z"/>
			<path style="fill:#000072;" d="M1946.753,2277.773h-107.451l-0.703-1.526l-274.644-598.716L444.18,1432.927
				c-11.274-2.466-21.431-8.745-28.603-17.686c-7.212-8.921-11.187-20.193-11.187-31.733c0-14.385,6.157-28.132,16.89-37.717
				c10.732-9.575,25.093-14.121,39.346-12.512l1137.91,129.106c46.064,5.21,85.444,36.978,100.322,80.928L1946.753,2277.773z
				 M1842.651,2272.543h96.816l-245.562-727.559c-14.229-42.036-51.895-72.422-95.957-77.405L460.034,1338.473
				c-12.827-1.475-25.654,2.632-35.273,11.218c-9.624,8.591-15.146,20.918-15.146,33.816c0,10.349,3.564,20.454,10.029,28.455
				c6.436,8.018,15.542,13.647,25.649,15.857l1122.324,245.161l0.547,1.187L1842.651,2272.543z"/>
		</g>
		<g>
			<polygon style="fill:#000072;" points="1112.323,1409.863 999.52,1551.583 998.341,1551.327 916.97,1533.535 1023.414,1399.762 
							"/>
		</g>
		<g>
			<polygon style="fill:#000072;" points="1289.012,1429.911 1163.699,1587.424 1081.148,1569.427 1200.155,1419.81 			"/>
		</g>
		<g>
			<polygon style="fill:#000072;" points="1464.83,1449.856 1327.006,1623.11 1244.404,1605.062 1375.921,1439.755 			"/>
		</g>
		<g style="opacity:0.55;">
			<path style="fill:#FFFFFF;" d="M1943.112,2275.159h-41.737l-234.065-693.375c-14.562-43.224-52.812-74.091-98.087-79.218
				L431.304,1373.458c-8.46-0.974-16.561,0.308-23.842,3.384c3.487-25.278,26.714-43.942,52.863-40.968l1137.919,129.107
				c45.326,5.127,83.525,35.994,98.138,79.167L1943.112,2275.159z"/>
		</g>
		<g>
			<path style="fill:#000072;" d="M1462.451,1425.527c-1.182,0-2.378-0.127-3.579-0.388l-499.277-109.006
				c-9.99-2.183-18.525-8.12-24.048-16.721c-5.518-8.601-7.358-18.84-5.176-28.826l15.415-70.615
				c4.497-20.613,24.917-33.701,45.542-29.221l0,0l407.285,88.923c59.731,13.04,97.72,72.246,84.683,131.982l-4.526,20.718
				C1477.061,1420.19,1470.142,1425.527,1462.451,1425.527z M983.169,1203.307c-2.222,0-4.224,1.543-4.717,3.796l-15.415,70.615
				c-0.352,1.614,0.161,2.866,0.654,3.633c0.493,0.769,1.421,1.758,3.037,2.112l482.944,105.439l0.957-4.382
				c9.106-41.719-17.427-83.071-59.146-92.178l-407.285-88.923C983.852,1203.344,983.506,1203.307,983.169,1203.307z"/>
		</g>
		<g>
			<path style="fill:#000072;" d="M947.046,1289.382c-1.182,0-2.378-0.127-3.579-0.388L423.135,1175.39
				c-4.336-0.947-8.115-3.574-10.508-7.307c-2.393-3.733-3.208-8.262-2.261-12.595l14.766-67.625
				c1.968-9.023,10.879-14.727,19.897-12.769l520.332,113.601c4.336,0.947,8.115,3.574,10.508,7.307
				c2.393,3.733,3.208,8.262,2.261,12.595l-14.766,67.627C961.66,1284.045,954.736,1289.382,947.046,1289.382z M446.602,1146.286
				l487.661,106.472l7.632-34.958l-487.661-106.47L446.602,1146.286z"/>
		</g>
		<g>
			<rect x="1840.957" y="2275.16" style="fill:#BECAD8;" width="168.647" height="100.839"/>
			<path style="fill:#000072;" d="M2012.217,2378.613h-173.872v-106.067h173.872V2378.613z M1843.569,2373.383h163.423v-95.608
				h-163.423V2373.383z"/>
		</g>
		<g style="opacity:0.55;">
			<rect x="1840.974" y="2275.159" style="fill:#FFFFFF;" width="168.64" height="30.354"/>
		</g>
		<g>
			<path style="fill:#000072;" d="M2009.604,2392.717h-168.647c-9.233,0-16.719-7.485-16.719-16.719V2275.16
				c0-9.233,7.485-16.719,16.719-16.719h168.647c9.233,0,16.719,7.485,16.719,16.719v100.837
				C2026.323,2385.231,2018.838,2392.717,2009.604,2392.717z M1857.676,2359.279h135.21v-67.4h-135.21V2359.279z"/>
		</g>
		<g>
			<path style="fill:#F7AC15;" d="M1412.838,1650.234l-8.87,30.098c-2.512,8.511-6.153,16.408-10.819,23.535
				c-16.305,25.021-44.403,40.404-74.552,40.404c-6.512,0-13.075-0.718-19.689-2.205c-36.405-8.255-63.323-38.148-68.451-74.244
				c-0.564-4.102-0.872-8.306-0.872-12.562v-45.07L1412.838,1650.234z"/>
			<path style="fill:#000072;" d="M1318.599,1746.884c-6.748,0-13.569-0.764-20.264-2.268
				c-36.841-8.354-65.156-39.067-70.464-76.426c-0.596-4.329-0.898-8.677-0.898-12.932v-48.315l189.165,41.338l-9.663,32.791
				c-2.578,8.728-6.323,16.877-11.138,24.229C1378.369,1731.335,1349.683,1746.884,1318.599,1746.884z M1232.197,1613.437v41.821
				c0,4.019,0.288,8.125,0.85,12.207c5.005,35.215,31.704,64.175,66.436,72.051c6.318,1.418,12.749,2.139,19.116,2.139
				c29.312,0,56.362-14.658,72.363-39.214c4.536-6.929,8.066-14.614,10.503-22.849l8.071-27.405L1232.197,1613.437z"/>
		</g>
		<g>
			<circle style="fill:#F7AC15;" cx="424.092" cy="1129.856" r="76.911"/>
			<path style="fill:#000072;" d="M424.092,1209.382c-43.848,0-79.521-35.674-79.521-79.524s35.674-79.526,79.521-79.526
				s79.522,35.676,79.522,79.526S467.94,1209.382,424.092,1209.382z M424.092,1055.561c-40.967,0-74.297,33.33-74.297,74.297
				s33.33,74.294,74.297,74.294s74.297-33.328,74.297-74.294S465.059,1055.561,424.092,1055.561z"/>
		</g>
		<g style="opacity:0.3;">
			<path style="fill:#000072;" d="M514.521,1217.227c-13.382,22.561-37.942,37.635-66.092,37.635
				c-39.583,0-72.193-29.944-76.398-68.399c13.741,12.613,31.995,20.305,52.043,20.305c27.072,0,50.812-13.947,64.502-35.071
				c7.999,6.409,14.357,14.87,18.151,24.919L514.521,1217.227z"/>
		</g>
		<g style="opacity:0.55;">
			<path style="fill:#FFFFFF;" d="M484.065,1177.951c0.974-4.974,1.538-10.152,1.538-15.485c0-42.455-34.405-76.911-76.911-76.911
				c-24.253,0-45.839,11.229-59.99,28.765c7.229-35.02,38.25-61.375,75.372-61.375c42.506,0,76.911,34.456,76.911,76.911
				C500.985,1148.059,494.628,1164.774,484.065,1177.951z"/>
		</g>
		<g>
			<path style="fill:#F7AC15;" d="M1330.07,1434.545l14.031-49.547c9.816-34.665,41.461-58.593,77.489-58.593h0
				c41.178,0,75.723,31.062,80.083,72.008l5.993,56.279"/>
			<path style="fill:#000072;" d="M1505.068,1454.97l-5.991-56.279c-4.233-39.719-37.544-69.67-77.485-69.67
				c-34.692,0-65.527,23.311-74.976,56.692l-14.033,49.546l-5.029-1.426l14.033-49.546c10.083-35.618,42.983-60.496,80.005-60.496
				c42.622,0,78.169,31.963,82.681,74.348l5.991,56.279L1505.068,1454.97z"/>
		</g>
		<g style="opacity:0.55;">
			<path style="fill:#FFFFFF;" d="M1507.644,1454.676l-34.148-3.897l-3.846-36.353c-2.205-20.458-11.896-38.455-26.252-51.325
				c-14.305-12.87-33.277-20.664-53.838-20.664c-6.563,0-12.972,0.821-19.176,2.359c14.1-11.639,32.046-18.407,51.223-18.407
				c20.612,0,39.532,7.742,53.838,20.664c14.357,12.87,24.099,30.867,26.252,51.376L1507.644,1454.676z"/>
		</g>
		<g>
			<path style="fill:#000072;" d="M1943.091,2291.884c-6.978,0-13.486-4.399-15.84-11.377l-246.729-731.001
				c-12.446-36.875-45.474-63.535-84.146-67.92l-1137.91-129.099c-8.994-1.016-17.598,1.733-24.316,7.739
				c-6.728,6.003-10.43,14.275-10.43,23.289c0,14.568,10.327,27.397,24.561,30.508l1121.074,244.9
				c5.132,1.121,9.438,4.587,11.626,9.363l275.171,599.905c3.853,8.394,0.166,18.318-8.223,22.168
				c-8.403,3.835-18.32,0.166-22.168-8.228l-271.694-592.322l-1112.925-243.12c-29.468-6.438-50.859-33.005-50.859-63.174
				c0-18.396,7.871-35.977,21.592-48.23c13.726-12.253,32.075-18.079,50.361-16.023l1137.91,129.097
				c51.499,5.842,95.483,41.348,112.056,90.454l246.729,731.001c2.954,8.75-1.743,18.235-10.493,21.189
				C1946.665,2291.601,1944.863,2291.884,1943.091,2291.884z"/>
		</g>
		<g>
			<path style="fill:#000072;" d="M424.092,1223.486c-51.626,0-93.628-42.002-93.628-93.628c0-51.628,42.002-93.63,93.628-93.63
				s93.628,42.002,93.628,93.63C517.72,1181.484,475.718,1223.486,424.092,1223.486z M424.092,1069.665
				c-33.189,0-60.19,27.002-60.19,60.193c0,33.188,27.002,60.19,60.19,60.19s60.19-27.002,60.19-60.19
				C484.282,1096.667,457.28,1069.665,424.092,1069.665z"/>
		</g>
		<g>
			<path style="fill:#000072;" d="M1507.646,1471.415c-8.442,0-15.693-6.37-16.606-14.951l-5.991-56.279
				c-3.462-32.529-30.742-57.061-63.457-57.061c-28.413,0-53.662,19.092-61.401,46.431l-14.038,49.546
				c-2.52,8.882-11.758,14.045-20.64,11.531c-8.887-2.517-14.048-11.758-11.528-20.642l14.033-49.546
				c11.792-41.66,50.273-70.757,93.574-70.757c49.854,0,91.431,37.383,96.709,86.958l5.991,56.279
				c0.977,9.182-5.674,17.417-14.858,18.396C1508.833,1471.384,1508.237,1471.415,1507.646,1471.415z"/>
		</g>
		<g>
			<path style="fill:#000072;" d="M1318.525,1760.976c-7.705,0-15.513-0.847-23.311-2.615
				c-48.501-10.989-82.373-53.396-82.373-103.125v-45.029c0-9.233,7.485-16.719,16.719-16.719s16.719,7.485,16.719,16.719v45.029
				c0,34.001,23.164,62.998,56.328,70.513c37.104,8.401,74.609-13.604,85.342-50.125l8.848-30.098
				c2.607-8.85,11.87-13.938,20.757-11.323c8.857,2.605,13.926,11.897,11.323,20.757l-8.848,30.095
				C1406.587,1730.793,1364.448,1760.976,1318.525,1760.976z"/>
		</g>
		<g>
			<path style="fill:#F7AC15;" d="M1037.74,2506.747l11.174-141.771c1.928-24.456-28.611-37.039-44.472-18.325L903.431,2465.83"/>
			<path style="fill:#000072;" d="M1040.347,2506.952l-5.215-0.41l11.177-141.772c0.786-9.99-4.692-18.914-13.96-22.729
				c-9.272-3.826-19.438-1.345-25.913,6.299l-101.011,119.18l-3.984-3.379l101.011-119.18c7.969-9.409,20.498-12.446,31.89-7.754
				c11.406,4.697,18.149,15.679,17.183,27.974L1040.347,2506.952z"/>
		</g>
		<g>
			<path style="fill:#F7AC15;" d="M431.834,2322.161l605.905,184.585c-237.134,240.9-475.688,368.04-628.17-41.991L431.834,2322.161
				z"/>
			<path style="fill:#000072;" d="M671.646,2733.554c-13.984,0-27.607-1.431-40.893-4.272
				c-91.821-19.644-164.971-105.872-223.633-263.616l-0.234-0.64l0.103-0.674l22.729-145.569l612.915,186.721l-3.032,3.076
				C889.683,2660.881,771.323,2733.554,671.646,2733.554z M412.256,2464.484c57.949,155.535,129.78,240.474,219.59,259.685
				c105.435,22.566,232.92-46.155,400.996-216.182l-598.887-182.451L412.256,2464.484z"/>
		</g>
		<g style="opacity:0.3;">
			<path style="fill:#000072;" d="M409.563,2464.754c152.488,410.036,391.065,282.877,628.155,41.993l-50.863-15.485
				c-212.274,191.354-418.497,256.061-555.398-111.982l8.512-54.607l-8.152-2.512L409.563,2464.754z"/>
		</g>
		<g style="opacity:0.55;">
			<path style="fill:#FFFFFF;" d="M425.971,2359.745l581.445,177.151c10.101-9.844,20.202-19.894,30.302-30.149l-605.902-184.586
				L425.971,2359.745z"/>
		</g>
		<g>
			<path style="fill:#000072;" d="M671.519,2747.651c-14.932,0-29.483-1.531-43.716-4.575
				c-96.914-20.732-173.428-109.866-233.901-272.493c-1.001-2.683-1.294-5.579-0.85-8.408l22.266-142.595
				c0.747-4.785,3.53-9.011,7.637-11.584c4.106-2.571,9.121-3.242,13.755-1.829l605.903,184.587
				c5.596,1.704,9.893,6.208,11.333,11.877s-0.19,11.677-4.292,15.845C896.963,2673.591,775.303,2747.651,671.519,2747.651z
				 M426.768,2463.002c55.156,146.421,125.137,229.641,208.032,247.375c96.846,20.706,215.308-41.548,371.45-195.747
				l-560.864-170.867L426.768,2463.002z"/>
		</g>
		<g>
			<path style="fill:#000072;" d="M1037.759,2523.466c-0.444,0-0.889-0.017-1.333-0.051c-9.204-0.725-16.079-8.777-15.352-17.981
				l11.177-141.772c0.439-5.603-3.54-7.866-5.273-8.579c-1.729-0.713-6.152-1.899-9.78,2.378l-101.011,119.18
				c-5.962,7.041-16.509,7.92-23.564,1.943c-7.046-5.969-7.915-16.521-1.943-23.564l101.011-119.18
				c12.002-14.16,30.845-18.748,48.027-11.675c17.168,7.073,27.324,23.608,25.869,42.122l-11.182,141.775
				C1053.716,2516.818,1046.396,2523.466,1037.759,2523.466z"/>
		</g>
		<g style="opacity:0.3;">
			<path style="fill:#000072;" d="M424.092,1420.2l11.088,50.006c5.102,23.007,20.658,42.31,42.056,52.183l127.168,58.678
				l13.667-112.84L424.092,1420.2z"/>
		</g>
		<g style="opacity:0.3;">
			<path style="fill:#000072;" d="M1412.838,1650.234l-8.87,30.098c-2.512,8.511-6.153,16.408-10.819,23.535l-162.692-36.046
				c-0.564-4.102-0.872-8.306-0.872-12.562v-45.07L1412.838,1650.234z"/>
		</g>
		<g style="opacity:0.3;">
			<polygon style="fill:#000072;" points="443.277,1931.626 568.513,2054.683 568.513,2355.916 443.277,2305.731 			"/>
		</g>
		<g style="opacity:0.3;">
			<path style="fill:#000072;" d="M1653.314,1813.093l-12.359,26.034l-75.167-163.871l-567.447-123.929l-36.558-16.408
				l41.444-22.857c13.438-7.411,28.988-10.058,44.121-7.51l501.488,84.432c24.521,4.128,45.455,20.027,56.014,42.54l48.647,103.725
				C1665.068,1759.922,1665.001,1788.475,1653.314,1813.093z"/>
		</g>
		<g>
			<path style="fill:#000072;" d="M774.968,3221.848c60.686-9.473,121.37-11.741,182.053-12.905
				c60.686-1.309,121.37-0.615,182.053,0.098l91.028,0.574l91.025,0.037h182.053h728.213h728.213h364.106l91.025-0.037l45.513-0.437
				l45.515-0.759c30.342-0.393,60.684,0.217,91.025,1.75c15.171,0.874,30.342,2.085,45.513,4.006
				c15.171,1.873,30.344,4.092,45.515,7.673c3.367,0.793,5.454,4.167,4.658,7.537c-0.562,2.385-2.427,4.128-4.658,4.661
				c-15.171,3.579-30.344,5.798-45.515,7.673c-15.171,1.919-30.342,3.132-45.513,4.004c-30.342,1.533-60.684,2.146-91.025,1.75
				l-45.515-0.759l-45.513-0.437l-91.025-0.034h-364.106h-728.213h-728.213h-182.053l-91.025,0.034l-91.028,0.574
				c-60.684,0.713-121.367,1.406-182.053,0.098c-60.684-1.165-121.367-3.433-182.053-12.903c-3.367-0.527-5.671-3.684-5.147-7.051
				C770.247,3224.277,772.39,3222.253,774.968,3221.848z"/>
		</g>
		<g>
			<g>
				
					<ellipse transform="matrix(0.7071 -0.7071 0.7071 0.7071 -1375.5006 2899.7493)" style="fill:#BECAD8;" cx="2812.557" cy="3110.251" rx="112.95" ry="112.95"/>
				<path style="fill:#000072;" d="M2812.559,3225.815c-63.726,0-115.566-51.843-115.566-115.564s51.841-115.564,115.566-115.564
					c63.721,0,115.562,51.843,115.562,115.564S2876.279,3225.815,2812.559,3225.815z M2812.559,2999.916
					c-60.84,0-110.342,49.495-110.342,110.334s49.502,110.334,110.342,110.334s110.337-49.495,110.337-110.334
					S2873.398,2999.916,2812.559,2999.916z"/>
			</g>
			<g>
				
					<ellipse transform="matrix(0.9239 -0.3827 0.3827 0.9239 -976.1481 1313.0723)" style="fill:#A6B1BC;" cx="2812.557" cy="3110.251" rx="58.74" ry="58.74"/>
			</g>
			<g style="opacity:0.55;">
				<path style="fill:#FFFFFF;" d="M2871.325,3117.219c0,32.439-26.329,58.768-58.769,58.768c-32.439,0-58.769-26.329-58.769-58.768
					c0-1.143,0.057-2.342,0.115-3.485c1.771,30.841,27.357,55.285,58.654,55.285s56.883-24.444,58.654-55.285
					C2871.268,3114.877,2871.325,3116.076,2871.325,3117.219z"/>
			</g>
			<g style="opacity:0.3;">
				<path style="fill:#000072;" d="M2871.325,3110.251c0,3.027-0.229,6.054-0.686,8.967c-4.397-28.1-28.727-49.631-58.083-49.631
					s-53.686,21.531-58.083,49.631c-0.457-2.913-0.686-5.94-0.686-8.967c0-32.44,26.329-58.711,58.769-58.711
					C2844.996,3051.539,2871.325,3077.811,2871.325,3110.251z"/>
			</g>
			<g>
				
					<ellipse transform="matrix(0.9239 -0.3827 0.3827 0.9239 -976.1479 1313.0719)" style="fill:#000072;" cx="2812.557" cy="3110.251" rx="30.898" ry="30.898"/>
			</g>
			<g style="opacity:0.3;">
				<path style="fill:#000072;" d="M2843.454,3124.186c0,17.077-13.821,30.897-30.897,30.897c-17.077,0-30.897-13.821-30.897-30.897
					c0-2.399,0.285-4.741,0.799-6.967c3.142,13.706,15.42,23.929,30.098,23.929s26.957-10.223,30.098-23.929
					C2843.169,3119.445,2843.454,3121.787,2843.454,3124.186z"/>
			</g>
			<g style="opacity:0.55;">
				<path style="fill:#FFFFFF;" d="M2829.08,3105.469c0,0.614-0.061,1.227-0.152,1.841c-1.069-6.777-7.972-11.994-16.371-11.994
					c-8.399,0-15.302,5.217-16.371,11.994c-0.092-0.614-0.152-1.227-0.152-1.841c0-7.647,7.391-13.836,16.523-13.836
					S2829.08,3097.822,2829.08,3105.469z"/>
			</g>
			<g>
				<path style="fill:#000072;" d="M2812.559,3238.881c-70.933,0-128.638-57.703-128.638-128.63s57.705-128.63,128.638-128.63
					c70.928,0,128.633,57.703,128.633,128.63S2883.486,3238.881,2812.559,3238.881z M2812.559,3012.983
					c-53.638,0-97.271,43.635-97.271,97.268s43.633,97.268,97.271,97.268c53.633,0,97.266-43.635,97.266-97.268
					S2866.191,3012.983,2812.559,3012.983z"/>
			</g>
		</g>
		<g style="opacity:0.55;">
			<path style="fill:#FFFFFF;" d="M3235.398,2988.888c0,1.222-0.074,2.41-0.185,3.598c-1.881-19.494-19.256-34.761-40.357-34.761
				s-38.439,15.267-40.32,34.761c-0.111-1.188-0.184-2.376-0.184-3.598c0-21.206,18.149-38.395,40.504-38.395
				C3217.248,2950.493,3235.398,2967.682,3235.398,2988.888z"/>
		</g>
	</g>
</g>
</svg>
