<?xml version="1.0" encoding="utf-8"?>
<!-- Generator: Adobe Illustrator 27.5.0, SVG Export Plug-In . SVG Version: 6.00 Build 0)  -->
<svg version="1.1" id="Layer_1" xmlns="http://www.w3.org/2000/svg" xmlns:xlink="http://www.w3.org/1999/xlink" x="0px" y="0px"
	 viewBox="0 0 4000 4000" style="enable-background:new 0 0 4000 4000;" xml:space="preserve">
<g>
	<g>
		<!-- <rect style="fill-rule:evenodd;clip-rule:evenodd;fill:#37DBFF;" width="4000" height="4000"/> -->
	</g>
	<g>
		<g>
			<path style="fill-rule:evenodd;clip-rule:evenodd;fill:#1C69DD;" d="M1132.19,2707.743
				c72.239-95.476,184.016-152.835,303.693-155.836c119.677-3.012,234.207,48.663,311.142,140.385
				c95.013-67.012,152.936-174.848,156.34-291.064c3.383-116.225-48.134-227.25-139.069-299.703
				c-123.161,35.137-176.139-24.169-158.926-177.925c-134.688-19.597-202.036-29.384-202.036-29.384
				c-267.995-106.632-430.943-294.343-488.855-563.125c292.074-469.785,890.559-644.98,1389.884-406.861
				c499.292,238.128,739.837,813.49,558.596,1336.142c10.967,57.46,50.699,127.138,119.194,209.016
				c53.564,73.269-77.158,129.71-293.669,44.921c-170.858,226.815-448.964,356.367-834.288,388.65
				c17.238,151.047-49.933,299.332-174.845,385.974c-124.924,86.644-287.355,97.621-422.786,28.551
				c272.052-87.09,128.633-303.445,260.804-442.201C1328.611,2896.464,1332.544,2619.808,1132.19,2707.743z"/>
		</g>
		<g style="opacity:0.33;">
			<path style="fill-rule:evenodd;clip-rule:evenodd;fill:#FFFFFF;" d="M1856.443,2968.512
				c-5.787,127.329-70.349,246.387-177.094,320.422c-124.924,86.644-287.366,97.621-422.786,28.551
				c186.42-59.674,177.768-180.037,196.364-294.546c39.304,116.656,14.023,211.287-75.865,283.905
				c254.521,1.429,409.133-115.271,463.806-350.108C1846.162,2960.568,1851.353,2964.501,1856.443,2968.512"/>
		</g>
		<g style="opacity:0.33;">
			<path style="fill-rule:evenodd;clip-rule:evenodd;fill:#FFFFFF;" d="M2884.095,2323.15
				c18.147,39.147,46.495,82.619,85.047,130.407c5.967,8.033,11.943,15.864,17.956,23.495l0.122,0.235
				c5.845,16.506,7.339,28.788,4.506,36.833c-0.269,0.698-0.562,1.383-0.875,2.078c-2.451,4.934-6.899,7.923-13.338,8.968
				c-137.329-123.801-207.78-270.446-211.342-439.92C2804.497,2174.291,2843.801,2253.585,2884.095,2323.15"/>
		</g>
		<g>
			<path style="fill-rule:evenodd;clip-rule:evenodd;fill:#FFFFFF;" d="M1747.025,2692.292
				c95.013-67.012,152.936-174.848,156.34-291.064c3.383-116.225-48.134-227.25-139.069-299.703
				c-123.161,35.137-176.139-24.169-158.926-177.925c-134.688-19.597-202.036-29.384-202.036-29.384
				c-267.995-106.632-430.943-294.343-488.855-563.125c69.316,180.847,250.803,241.614,529.114,137.859
				c713.431-265.972,1048.021-149.487,1084.799,390.378c31.349,460.348-274.399,873.436-732.42,929.336
				c-25.069,6.236-51.137-5.663-62.834-28.698S1727.193,2708.854,1747.025,2692.292"/>
		</g>
		<g style="opacity:0.3;">
			<path style="fill-rule:evenodd;clip-rule:evenodd;fill:#010074;" d="M2043.098,1973.063
				c-17.438-100.205,52.295-191.14,56.902-313.063c-90.597,179.814-199.42,407.043-335.705,441.526
				c90.935,72.452,142.452,183.477,139.069,299.703c-2.628,91.228-38.954,177.342-100.439,242.569l-0.787,0.831l-0.796,0.842
				l-0.798,0.822l-0.787,0.831l-0.81,0.819l-1.595,1.652l-0.819,0.821l-0.09,0.09l-0.72,0.718l-0.808,0.81l-0.822,0.819l-0.819,0.81
				l-0.63,0.628l-0.191,0.168l-0.831,0.81l-1.652,1.606l-0.831,0.798l-0.359,0.336l-0.474,0.463l-3.157,2.955l-0.212,0.202
				l-0.081,0.067l-0.773,0.718l-0.856,0.764l-1.708,1.563l-0.64,0.573l-0.226,0.202l-3.461,3.067l-0.348,0.292l-0.527,0.46
				l-3.507,3.024l-0.055,0.032l-0.011,0.012l-3.495,2.922l-0.64,0.539l-0.258,0.202l-0.9,0.729l-2.529,2.034l-0.18,0.159
				l-0.336,0.269l-0.573,0.46l-3.664,2.876l-0.023,0.011l-3.684,2.81l-0.642,0.483l-0.292,0.212l-0.932,0.697l-0.932,0.697
				l-0.955,0.697l-0.934,0.683l-0.324,0.237l-0.619,0.449l-3.808,2.72l-0.258-0.304l-0.249-0.304l-0.258-0.304l-2.573-3.021
				l-0.258-0.292l-0.046-0.046l-0.214-0.258l-1.832-2.089l-0.258-0.292l-0.269-0.304l-0.258-0.292l-0.26-0.292l-0.258-0.304
				l-0.258-0.292l-0.081-0.09l-0.191-0.202l-0.258-0.302l-0.269-0.292l-0.258-0.292l-0.272-0.303l-0.258-0.292l-0.269-0.292
				l-0.269-0.292l-0.26-0.304l-0.269-0.292l-0.258-0.281l-0.269-0.304l-0.269-0.281l-0.272-0.303l-0.258-0.292l-0.269-0.292
				l-0.269-0.281l-0.26-0.292l-0.281-0.29l-0.258-0.292l-0.269-0.292l-0.269-0.281l-0.271-0.292l-0.269-0.292l-0.269-0.281
				l-0.269-0.304l-0.269-0.281l-0.269-0.292l-0.136-0.147l-0.136-0.134l-0.269-0.292l-0.269-0.281l-0.269-0.292l-0.269-0.281
				l-0.281-0.292l-0.26-0.281l-0.281-0.292c-76.282-79.901-183.038-124.351-294.253-121.521
				c-119.677,3.001-231.466,60.36-303.693,155.836c200.354-87.935,196.421,188.733,385.178,167.542
				c-89.776,94.249-52.428,224.298-104.485,325.322c9.327-2.37,18.607-5.099,27.821-8.224
				c25.72-112.014,69.663-201.949,131.846-269.804c15.821-19.427,21.932-44.99,16.628-69.472
				c-14.651-67.576-91.495-57.946-150.002-107.867c-32.642-13.833-48.474-43.317-24.259-48.497
				c69.102-14.797,140.16,18.115,201.588,53.047c175.925,93.002,236.623,230.163,182.071,411.459
				c56.597-130.263,71.136-234.646,43.642-313.176l0.011,0.011l-0.044-0.113c-1.922-5.461-4.046-10.797-6.36-16
				c-11.54-38.08,2.72-75.237,42.8-111.453c6.268-4.954,12.426-10.056,18.483-15.257l0.044-0.035h-0.011
				c93.149-80.182,159.904-188.455,188.781-310.546C2118.752,2255.912,2067.583,2113.683,2043.098,1973.063"/>
		</g>
		<g style="opacity:0.3;">
			<path style="fill-rule:evenodd;clip-rule:evenodd;fill:#010074;" d="M2340.228,1219.101
				c69.44,195.186,36.63,376.548-98.474,544.115C2291.105,1642.101,2323.925,1460.725,2340.228,1219.101"/>
		</g>
		<g style="opacity:0.33;">
			<path style="fill-rule:evenodd;clip-rule:evenodd;fill:#FFFFFF;" d="M2676.179,2520.198
				c-171.07,216.085-443.538,340.222-817.389,372.346c-2.639-6.552-5.145-13.181-7.483-19.91
				c355.796-63.137,628.172-185.454,817.12-366.952C2671.112,2510.491,2673.696,2515.322,2676.179,2520.198 M915.086,1320.138
				c292.297-469.067,890.299-643.857,1389.277-405.906c499.292,238.128,739.837,813.5,558.608,1336.142
				c0.371,1.988,0.787,4,1.236,6.011c-13.213-17.843-26.73-40.754-40.54-68.754c130.228-486.326-105.587-994.213-556.417-1210.33
				c14.023,13.372,19.608,26.606,13.439,36.596c-12.539,20.338-68.833,19.631-125.743-1.572
				c-56.901-21.192-92.868-54.867-80.35-75.182c7.012-11.361,27.674-16.147,54.483-14.472
				C1681.697,781.52,1188,957.164,933.141,1361.948C926.895,1348.072,920.928,1334.117,915.086,1320.138z"/>
		</g>
		<g>
			<path style="fill:#010074;" d="M1444.141,3384.731c-67.471,0-135.186-15.73-197.612-47.568
				c-7.974-4.065-12.705-12.542-11.982-21.462c0.725-8.921,6.76-16.526,15.283-19.253
				c150.483-48.174,161.953-134.575,175.232-234.619c7.41-55.815,15.022-113.159,47.539-164.871
				c-69.851-9.47-112.107-59.343-150.161-104.253c-49.805-58.782-89.15-105.208-181.372-64.736
				c-9.197,4.041-19.98,1.357-26.216-6.538c-6.23-7.893-6.345-18.999-0.276-27.017c76.731-101.414,193.643-161.404,320.754-164.59
				c120.078-3.113,233.677,45.066,314.773,132.568c79.531-63.271,128.191-159.724,131.182-261.812
				c3.057-105.015-42.473-206.904-122.266-274.788c-57.549,14.27-102.31,8.306-133.142-17.781
				c-35.896-30.369-50.508-84.648-44.46-165.571l-181.26-26.362c-1.709-0.249-3.384-0.696-4.99-1.335
				c-261.436-104.023-427.461-286.282-493.46-541.716c-7.546-29.204-2.253-60.322,14.522-85.381
				c147.656-220.564,370.103-380.913,626.365-451.506c256.846-70.745,530.752-46.545,771.279,68.152
				c508.25,242.4,753.35,825.146,571.946,1357.537c11.741,52.51,49.822,117.532,113.279,193.386c0.308,0.371,0.605,0.75,0.889,1.138
				c20.476,28.005,21.772,57.629,3.557,81.274c-34.204,44.402-144.438,63.311-307.559,3.169
				c-171.494,218.594-446.467,347.085-817.856,382.209c9.399,151.409-60.603,296.973-186.187,384.08
				C1617.695,3358.579,1531.125,3384.729,1444.141,3384.731z M1314.775,3318.455c117.239,41.218,248.049,24.417,351.985-47.673
				c118.418-82.136,181.829-222.117,165.486-365.315c-0.676-5.935,1.079-11.892,4.866-16.511c3.789-4.619,9.285-7.507,15.237-8.008
				c377-31.587,652.38-159.412,818.491-379.927c5.962-7.917,16.47-10.894,25.698-7.278c149.39,58.499,250.62,44.683,272.007,16.921
				c2.278-2.959,8.296-10.769-3.831-27.693c-71.301-85.337-111.687-156.804-123.455-218.457c-0.725-3.799-0.439-7.722,0.828-11.377
				c177.776-512.659-57.485-1075.391-547.234-1308.967c-473.411-225.767-1050.31-67.532-1341.912,368.054
				c-9.775,14.6-12.859,32.732-8.462,49.749c62.078,240.251,218.389,412.083,464.617,510.762l199.453,29.006
				c11.792,1.716,20.098,12.476,18.772,24.319c-8.384,74.883,0.984,126.14,27.09,148.225c20.894,17.681,55.823,19.7,103.823,5.999
				c6.86-1.956,14.246-0.481,19.824,3.967c95.854,76.372,150.952,195.11,147.385,317.62
				c-3.586,122.517-65.527,237.832-165.688,308.474c-9.392,6.619-22.28,4.937-29.658-3.855
				c-73.025-87.065-180.1-135.425-293.657-132.5c-89.417,2.241-173.188,35.942-238.24,94.387
				c74.131-3.188,118.059,48.694,157.944,95.767c42.583,50.254,82.832,97.729,158.76,89.187c9.236-1.042,18.123,3.813,22.251,12.131
				c4.128,8.32,2.612,18.333-3.792,25.059c-47.632,50.005-55.83,111.75-64.507,177.124
				C1456.958,3157.292,1443.628,3257.632,1314.775,3318.455z"/>
		</g>
		<g>
			<path style="fill-rule:evenodd;clip-rule:evenodd;fill:#FFFFFF;" d="M1436.872,1899.085
				c-66.789,28.999-312.345,211.42-230.488,289.511c18.112,17.247,42.045,10.933,66.304,4.821
				c348.704-87.833,332.547,169.205,606.148,64.26c-23.325-60.53-62.461-114.665-114.541-156.151
				c-16.529,4.708-31.809,7.732-45.821,9.034c-90.293,8.485-128.014-53.854-113.105-186.959l-67.461-9.821L1436.872,1899.085z"/>
		</g>
		<g>
			<path style="fill:#010074;" d="M1757.957,2305.583c-65.2,0-111.57-25.295-159.663-51.531
				c-73.909-40.315-150.327-82.007-320.21-39.216l-0.911,0.229c-26.428,6.665-59.316,14.956-86.021-10.471
				c-19.258-18.372-26.831-42.678-21.914-70.308c17.808-100.068,201.274-230.474,258.835-255.466
				c3.77-1.631,7.913-2.183,11.978-1.597l168.501,24.517c11.792,1.716,20.095,12.478,18.77,24.319
				c-7.959,71.05,0.083,121.074,23.259,144.668c14.539,14.8,36.072,20.627,65.825,17.839c12.556-1.167,26.626-3.955,41.838-8.286
				c6.848-1.958,14.236-0.481,19.812,3.967c54.392,43.325,96.367,100.549,121.392,165.486c2.109,5.471,1.956,11.558-0.427,16.917
				s-6.799,9.551-12.275,11.65C1835.759,2297.859,1793.982,2305.581,1757.957,2305.583z M1408.132,2152.6
				c96.448,0,156.462,32.744,211.318,62.668c66.863,36.477,120.518,65.742,229.941,29.492
				c-21.125-45.691-51.98-86.343-90.369-118.97c-13.628,3.384-26.538,5.652-38.506,6.763c-43.208,4.07-77.346-6.323-101.455-30.867
				c-30.92-31.477-43.298-83.701-37.646-159.25l-141.262-20.552c-62.947,30.398-214.758,149.006-227.417,220.142
				c-2.327,13.066,0.417,22.5,8.896,30.586c8.147,7.764,20.471,5.735,44.736-0.386l0.92-0.232
				C1321.96,2158.225,1368.179,2152.6,1408.132,2152.6z"/>
		</g>
		<g style="opacity:0.3;">
			<path style="fill-rule:evenodd;clip-rule:evenodd;fill:#010074;" d="M1206.385,2188.595
				c18.101,17.247,42.045,10.944,66.304,4.832c348.704-87.845,332.547,169.194,606.148,64.249
				c-23.325-60.53-62.461-114.665-114.541-156.151c-16.529,4.708-31.809,7.732-45.821,9.046c-30.316,2.842-54.71-2.303-73.17-15.427
				c-9.046-2.292-18.743-4.674-29.112-7.035c8.887,1.45,17.517,3,25.932,4.653c-32.18-33.383-45.361-77.902-39.573-133.544
				c-5.495-28.258-67.227-44.988-185.173-50.202c107.934,92.464,104.059,146.925-11.642,163.351l-0.168,0.023l-0.596,0.078
				C1310.397,2086.559,1244.43,2135.65,1206.385,2188.595"/>
		</g>
		<g style="opacity:0.3;">
			<path style="fill-rule:evenodd;clip-rule:evenodd;fill:#010074;" d="M1753.698,1737.238
				c72.082-42.473,135.666-88.475,190.77-138.004c-431.74,256.836-775.063,167.452-1030.001-268.142
				c75.902,253.693,201.712,424.797,377.425,513.383c2.46-3.371,5-6.775,7.707-10.293c74.507,31.991,221.951-6.37,442.325-115.059
				C1746.316,1725.383,1750.228,1731.416,1753.698,1737.238"/>
		</g>
		<g style="opacity:0.33;">
			<path style="fill-rule:evenodd;clip-rule:evenodd;fill:#FFFFFF;" d="M2493.963,1393.556
				c-14.518,192.477-73.249,341.602-176.196,447.392C2463.905,1743.035,2534.086,1564.83,2493.963,1393.556 M2578.605,1517.93
				c-38.676,134.25-85.889,246.523-141.644,336.839C2537.492,1773.203,2590.64,1646.821,2578.605,1517.93z M2340.228,1219.101
				c68.63,199.555,35.811,380.932-98.474,544.115c87.283-57.428,147.218-148.138,165.825-250.962
				C2426.186,1409.443,2401.838,1303.485,2340.228,1219.101z"/>
		</g>
		<g>
			<path style="fill-rule:evenodd;clip-rule:evenodd;fill:#000072;" d="M1605.369,1923.601
				c-134.688-19.597-202.036-29.384-202.036-29.384c306.353-108.496,536.719-249.59,691.047-423.313
				C1849.657,2031.593,1686.642,2182.495,1605.369,1923.601z"/>
		</g>
		<g>
			<path style="fill:#010074;" d="M1707.534,2068.381c-1.797,0-3.555-0.051-5.283-0.144c-48.508-2.605-85.747-43.45-113.606-124.746
				l-188.489-27.412c-10.054-1.46-17.813-9.587-18.809-19.697c-0.994-10.11,5.034-19.595,14.609-22.986
				c301.399-106.741,530.825-247.095,681.909-417.161c7.209-8.125,19.255-9.797,28.416-3.94c9.15,5.852,12.69,17.49,8.345,27.446
				C1887.383,2000.386,1773.586,2068.379,1707.534,2068.381z M1491.973,1884.788l116.577,16.953
				c8.398,1.223,15.354,7.148,17.896,15.244c14.995,47.764,40.73,105.125,78.176,107.136
				c41.538,2.236,136.741-56.672,319.971-451.807C1889.15,1694.514,1710.728,1799.209,1491.973,1884.788z"/>
		</g>
		<g>
			<path style="fill-rule:evenodd;clip-rule:evenodd;fill:#FF6666;" d="M1919.106,1826.745
				c-65.922,113.036-123.147,182.386-171.665,208.107c-11.676-51.475,1.135-105.474,34.729-146.207
				C1815.756,1847.913,1866.331,1825.049,1919.106,1826.745z"/>
		</g>
		<g>
			<path style="fill:#010074;" d="M1747.441,2056.941c-3.14,0-6.282-0.669-9.211-2.012c-6.25-2.869-10.811-8.484-12.332-15.19
				c-13.098-57.744,1.567-119.482,39.231-165.149c37.668-45.686,95.508-71.882,154.688-69.922
				c7.778,0.249,14.851,4.573,18.618,11.384c3.767,6.809,3.674,15.1-0.247,21.821c-68.657,117.725-127.666,188.54-180.4,216.494
				C1754.558,2056.082,1751.001,2056.941,1747.441,2056.941z M1877.341,1853.335c-30.303,7.722-57.961,24.907-78.127,49.363
				c-21.646,26.245-33.433,59.377-33.84,92.986C1798.323,1967.815,1835.801,1920.176,1877.341,1853.335z"/>
		</g>
		<g>
			<path style="fill-rule:evenodd;clip-rule:evenodd;fill:#FFFFFF;" d="M1531.099,1952.062l-127.766-57.845
				c297.321-105.304,523.043-241.32,677.183-408.03l-177.745,286.073l-25.057-50.967l-61.306,109.699l-58.843-44.912l-33.675,97.609
				l-87.226-25.923l-0.877,66.509l-84.856-21.507L1531.099,1952.062z"/>
		</g>
		<g>
			<path style="fill:#010074;" d="M1531.099,1974.153c-3.11,0-6.218-0.657-9.111-1.965l-127.766-57.844
				c-8.21-3.718-13.34-12.053-12.959-21.06s6.199-16.877,14.695-19.888c292.507-103.599,517.368-238.921,668.337-402.207
				c7.729-8.359,20.547-9.478,29.609-2.573c9.058,6.902,11.384,19.556,5.374,29.229l-177.744,286.074
				c-4.233,6.819-11.812,10.854-19.856,10.405c-8.018-0.398-15.188-5.112-18.73-12.317l-6.487-13.193l-40.771,72.957
				c-3.125,5.591-8.523,9.551-14.792,10.852c-6.274,1.309-12.8-0.183-17.893-4.067l-34.531-26.357l-23.701,68.696
				c-3.853,11.182-15.835,17.336-27.175,13.97l-59.229-17.603l-0.493,37.305c-0.088,6.763-3.271,13.113-8.635,17.231
				s-12.322,5.557-18.879,3.892l-66.14-16.763l-12.627,31.382c-2.246,5.586-6.677,10.015-12.268,12.256
				C1536.682,1973.625,1533.889,1974.153,1531.099,1974.153z M1461.719,1896.404l57.49,26.028l11.228-27.908
				c4.126-10.256,15.193-15.889,25.92-13.169l57.71,14.626l0.508-38.506c0.09-6.921,3.42-13.398,8.994-17.502
				c5.576-4.102,12.739-5.356,19.387-3.381l66.948,19.897l26.777-77.612c2.312-6.704,7.705-11.892,14.495-13.943
				c6.79-2.046,14.15-0.715,19.79,3.589l38.586,29.451l48.877-87.456c4.006-7.168,11.741-11.436,19.863-11.306
				c8.208,0.217,15.62,4.968,19.243,12.336l7.488,15.229l69.25-111.46C1839.37,1724.6,1667.761,1818.752,1461.719,1896.404z"/>
		</g>
		<g>
			<path style="fill:#010074;" d="M2147.051,1547.278c-9.404,0-17.107-7.539-17.271-16.978c-0.637-36.729-8.196-61.111-21.86-70.51
				c-10.642-7.322-27.336-6.931-49.607,1.157c-8.989,3.262-18.884-1.377-22.139-10.342c-3.257-8.97,1.372-18.882,10.342-22.139
				c33.374-12.126,60.62-11.16,80.989,2.852c23.918,16.455,35.964,48.635,36.826,98.381c0.166,9.541-7.434,17.41-16.975,17.576
				C2147.253,1547.278,2147.151,1547.278,2147.051,1547.278z"/>
		</g>
		<g>
			<path style="fill:#010074;" d="M2900.149,2376.289c-7.815,0-15.388-4.155-19.402-11.497
				c-65.178-119.207-103.362-211.455-116.729-282.019c-2.271-11.987,5.605-23.545,17.593-25.815
				c12.009-2.271,23.545,5.608,25.815,17.593c12.319,65.037,50.032,155.557,112.085,269.045c5.852,10.706,1.919,24.128-8.784,29.98
				C2907.363,2375.415,2903.73,2376.289,2900.149,2376.289z"/>
		</g>
		<g>
			<path style="fill:#010074;" d="M2778.091,2565.037c-1.648,0-3.32-0.186-4.993-0.571
				c-104.28-24.094-207.483-90.974-306.746-198.779c-8.264-8.975-7.688-22.949,1.287-31.213c8.972-8.264,22.949-7.686,31.213,1.287
				c93.125,101.14,188.743,163.606,284.192,185.659c11.887,2.747,19.297,14.609,16.55,26.497
				C2797.234,2558.13,2788.145,2565.037,2778.091,2565.037z"/>
		</g>
		<g>
			<path style="fill-rule:evenodd;clip-rule:evenodd;fill:#1C69DD;" d="M2919.264,1813.723
				c-42.123-357.2-205.329-630.306-489.605-819.31c227.195-4.439,443.694,96.316,586.586,272.995
				c142.912,176.677,196.173,409.469,144.339,630.71C3072.819,1826.183,2992.379,1798.035,2919.264,1813.723z"/>
		</g>
		<g>
			<path style="fill:#010074;" d="M3160.586,1920.208c-5.037,0-10-1.721-14.006-5.005c-81.912-67.134-156.833-94.014-222.683-79.88
				c-6.074,1.304-12.427-0.012-17.488-3.633c-5.059-3.621-8.357-9.202-9.084-15.378c-41.13-348.796-202.59-619.133-479.897-803.503
				c-8.042-5.349-11.68-15.303-8.977-24.578c2.705-9.272,11.118-15.715,20.776-15.903c114.839-2.266,230.542,22.18,334.658,70.637
				c104.119,48.455,197.322,121.262,269.536,210.552c72.222,89.287,123.938,195.657,149.556,307.607
				c25.618,111.946,25.313,230.22-0.884,342.034c-1.741,7.427-7.19,13.43-14.412,15.881
				C3165.361,1919.824,3162.966,1920.208,3160.586,1920.208z M2958.914,1787.458c58.962,0,121.677,23.97,187.283,71.621
				c37.937-205.386-14.814-414.207-147.126-577.781c-124.392-153.804-302.605-247.192-496.99-262.656
				c246.155,185.649,392.734,444.204,436.267,769.802C2945.149,1787.786,2952.004,1787.458,2958.914,1787.458z"/>
		</g>
		<g style="opacity:0.33;">
			<path style="fill-rule:evenodd;clip-rule:evenodd;fill:#FFFFFF;" d="M2444.399,984.355
				c225.455-2.943,439.943,97.6,581.845,273.053c142.912,176.677,196.173,409.469,144.35,630.71
				c-11.529-9.439-22.911-18.113-34.168-26.047v-0.011c13.628-155.911-19.36-305.904-87.845-435.571
				c9.101,26.597,10.875,47.855,3.291,51.238c-9.55,4.28-30.325-21.371-46.394-57.283c-16.055-35.91-21.348-68.485-11.798-72.765
				c2.248-0.999,5.102-0.348,8.372,1.675c-115.823-169.297-296.985-292.861-513.134-330.941
				C2471.85,1006.368,2457.028,995.018,2444.399,984.355"/>
		</g>
		<g style="opacity:0.3;">
			<path style="fill-rule:evenodd;clip-rule:evenodd;fill:#010074;" d="M2919.252,1813.723
				c-40.404-342.693-192.284-607.956-455.582-795.85l-0.011-0.035c542.843,177.768,500.494,750.164,683.757,843.65
				c4.427,12.09,8.82,24.28,13.179,36.63C3072.819,1826.183,2992.379,1798.035,2919.252,1813.723"/>
		</g>
		<g>
			<path style="fill-rule:evenodd;clip-rule:evenodd;fill:#010074;" d="M2340.228,1219.101
				c34.182,197.926,1.36,379.303-98.474,544.115C2394.748,1613.953,2427.579,1432.59,2340.228,1219.101"/>
		</g>
		<g>
			<path style="fill-rule:evenodd;clip-rule:evenodd;fill:#010074;" d="M2317.767,1840.948
				c94.419-137.228,153.15-286.365,176.196-447.392C2501.716,1589.908,2442.985,1739.047,2317.767,1840.948"/>
		</g>
		<g>
			<path style="fill-rule:evenodd;clip-rule:evenodd;fill:#010074;" d="M2578.605,1517.93
				c-47.213,112.283-94.429,224.567-141.644,336.839C2503.57,1783.227,2550.783,1670.944,2578.605,1517.93"/>
		</g>
		<g>
			<path style="fill:#010074;" d="M1230.505,1471.316c-8.958,0-17.109-6.06-19.385-15.142c-2.686-10.715,3.823-21.577,14.536-24.263
				c50.327-12.61,88.745-16.082,117.432-10.608c10.852,2.07,17.969,12.544,15.898,23.394c-2.068,10.852-12.544,17.974-23.394,15.898
				c-22.551-4.309-56.267-0.896-100.21,10.115C1233.75,1471.121,1232.114,1471.316,1230.505,1471.316z"/>
		</g>
		<g>
			<path style="fill:#010074;" d="M1713.518,2088.635c26.643-8.529,52.842-16.84,78.053-27.455
				c25.148-10.62,49.655-22.733,72.347-38.121c22.698-15.316,43.761-33.469,62.571-54.342c18.969-20.769,35.439-44.274,50.54-69.275
				c0.92-1.539,2.915-2.041,4.454-1.121c1.26,0.753,1.819,2.241,1.479,3.595c-7.378,28.739-19.141,56.705-34.928,82.745
				c-15.875,25.958-35.873,49.891-59.144,70.369c-23.251,20.469-49.46,37.909-77.598,50.801
				c-28.096,12.937-57.714,22.235-87.863,26.699c-12.327,1.825-23.8-6.687-25.625-19.014c-1.643-11.093,5.087-21.493,15.432-24.795
				L1713.518,2088.635z"/>
		</g>
		<g style="opacity:0.3;">
			<path style="fill-rule:evenodd;clip-rule:evenodd;fill:#010074;" d="M2688.483,2514.322
				c132.958,60.281,237.366,57.888,313.22-7.18c-149.295,24.844-322.59-33.765-519.877-175.814
				c-15.549-4.526-23.382,3.07-23.483,22.754c120.206,152.048,119.049,276.051-3.482,371.996
				C2569.851,2646.594,2647.729,2575.998,2688.483,2514.322"/>
		</g>
		<g style="opacity:0.3;">
			<path style="fill-rule:evenodd;clip-rule:evenodd;fill:#010074;" d="M2317.767,1840.948
				c115.431-133.892,174.162-283.017,176.196-447.392C2435.658,1542.762,2376.925,1691.898,2317.767,1840.948"/>
		</g>
		<g style="opacity:0.3;">
			<path style="fill-rule:evenodd;clip-rule:evenodd;fill:#010074;" d="M2578.605,1517.93
				c-38.676,134.239-85.889,246.523-141.644,336.839C2478.244,1701.743,2525.448,1589.459,2578.605,1517.93"/>
		</g>
		<g>
			<path style="fill:#010074;" d="M3160.586,1920.208c-5.037,0-10-1.721-14.006-5.005c-81.912-67.134-156.833-94.014-222.683-79.88
				c-6.074,1.304-12.427-0.012-17.488-3.633c-5.059-3.621-8.357-9.202-9.084-15.378c-41.13-348.796-202.59-619.133-479.897-803.503
				c-8.042-5.349-11.68-15.303-8.977-24.578c2.705-9.272,11.118-15.715,20.776-15.903c114.839-2.266,230.542,22.18,334.658,70.637
				c104.119,48.455,197.322,121.262,269.536,210.552c72.222,89.287,123.938,195.657,149.556,307.607
				c25.618,111.946,25.313,230.22-0.884,342.034c-1.741,7.427-7.19,13.43-14.412,15.881
				C3165.361,1919.824,3162.966,1920.208,3160.586,1920.208z M2958.914,1787.458c58.962,0,121.677,23.97,187.283,71.621
				c37.937-205.386-14.814-414.207-147.126-577.781c-124.392-153.804-302.605-247.192-496.99-262.656
				c246.155,185.649,392.734,444.204,436.267,769.802C2945.149,1787.786,2952.004,1787.458,2958.914,1787.458z"/>
		</g>
		<g>
			<g>
				<g>
					<g>
						<path style="fill:#000072;" d="M1865.429,1151.791c-66.159-13.197-132.948,47.954-149.178,136.582
							c-16.231,88.629,24.244,171.175,90.404,184.372c66.157,13.196,132.949-47.953,149.179-136.582
							C1972.064,1247.535,1931.587,1164.987,1865.429,1151.791z"/>
					</g>
				</g>
			</g>
			<g>
				<g>
					<g>
						<path style="fill:#FFFFFF;" d="M1857.828,1188.833c-21.876,6.005-33.391,35.55-25.719,65.992
							c7.671,30.442,31.623,50.25,53.5,44.245c21.875-6.004,33.391-35.55,25.719-65.99
							C1903.656,1202.638,1879.705,1182.828,1857.828,1188.833z"/>
					</g>
				</g>
			</g>
			<g>
				<g>
					<g>
						<path style="fill:#B199C5;" d="M1771.377,1374.027c-10.591,5.845-13.121,22.531-5.653,37.266
							c7.467,14.737,22.106,21.944,32.695,16.098c10.59-5.844,13.121-22.53,5.653-37.265
							C1796.606,1375.39,1781.965,1368.183,1771.377,1374.027z"/>
					</g>
				</g>
			</g>
		</g>
	</g>
</g>
</svg>
