<?xml version="1.0" encoding="utf-8"?>
<!-- Generator: Adobe Illustrator 27.5.0, SVG Export Plug-In . SVG Version: 6.00 Build 0)  -->
<svg version="1.1" id="Layer_1" xmlns="http://www.w3.org/2000/svg" xmlns:xlink="http://www.w3.org/1999/xlink" x="0px" y="0px"
	 viewBox="0 0 4000 4000" style="enable-background:new 0 0 4000 4000;" xml:space="preserve">
<g>
	<g>
		<!-- <rect style="fill:#F3E1FF;" width="4000" height="4000"/> -->
	</g>
	<g>
		<g>
			<g>
				<g>
					<g>
						<g>
							<path style="fill:#FFFFFF;" d="M2762.809,2827.492c0,175.126-173.142,317.123-386.654,317.123
								c-13.759,0-27.344-0.568-40.71-1.752c-70.491,77.228-182.994,127.223-309.707,127.223
								c-76.039,0-146.87-18.006-206.659-49.034c-70.889,67.773-176.087,110.692-293.512,110.692
								c-158.367,0-294.535-78.135-354.266-189.958c-16.817,1.873-34.032,2.83-51.47,2.83
								c-213.57,0-386.707-141.997-386.707-317.123c0-165.216,154.121-300.986,350.927-315.764
								c37.197-78.194,122.462-132.887,221.773-132.887c36.75,0,71.568,7.532,102.766,20.948
								c63.866-102.99,194.317-173.535,344.866-173.535c141.322,0,264.866,62.167,332.358,154.965
								c7.528-0.563,15.172-0.845,22.874-0.845c100.951,0,190.352,51.408,245.559,130.504c7.246-0.34,14.546-0.51,21.909-0.51
								C2589.667,2510.369,2762.809,2652.37,2762.809,2827.492"/>
						</g>
						<g>
							<path style="fill:#BEE2EA;" d="M2756.868,2827.51c0,175.113-173.119,317.11-386.645,317.11
								c-13.755,0-27.353-0.576-40.728-1.77c-70.456,77.259-182.985,127.241-309.694,127.241c-76.03,0-146.87-18.015-206.651-49.021
								c-70.885,67.769-176.074,110.683-293.52,110.683c-158.363,0-294.517-78.144-354.262-189.981
								c-16.826,1.886-34.036,2.847-51.479,2.847c-213.57,0-386.685-141.997-386.685-317.11c0-30.009,5.074-59.012,14.6-86.517
								c13.035,260.968,328.97,285.375,423.564,227.665c59.745,111.801,196.995,219.069,355.357,219.069
								c117.442,0,221.541-72.038,292.425-139.807c32.324,32.235,109.163,88.283,214.603,89.186
								c201.952,1.735,248.916-76.839,301.741-167.375c13.375,1.194,77.621,30.791,141.3,33.585
								c154.581,6.781,267.647-78.851,271.469-262.363C2751.794,2768.458,2756.868,2797.501,2756.868,2827.51"/>
						</g>
						<g>
							<path style="fill:#36276B;" d="M1519.638,3349.627c-155.4,0-296.821-73.765-364.16-188.901
								c-13.716,1.177-27.656,1.772-41.577,1.772c-223.091,0-404.59-150.283-404.59-335.005
								c0-84.736,38.223-165.576,107.622-227.627c65.762-58.794,154.111-95.908,249.712-105.103
								c43.428-81.616,133.789-133.804,233.252-133.804c33.164,0,65.313,5.649,95.781,16.812
								c71.89-104.849,205.161-169.399,351.851-169.399c139.487,0,266.094,57.549,340.898,154.434
								c4.761-0.21,9.551-0.313,14.331-0.313c99.375,0,193.779,48.472,254.473,130.166c4.331-0.112,8.682-0.171,12.998-0.171
								c223.062,0,404.531,150.283,404.531,335.005s-181.47,335.005-404.531,335.005c-11.338,0-22.583-0.381-33.535-1.133
								c-77.202,80.566-192.134,126.602-316.885,126.602c-71.816,0-141.924-15.664-203.609-45.396
								C1739.78,3310.745,1632.485,3349.627,1519.638,3349.627z M1165.375,3123.905c6.543,0,12.637,3.594,15.767,9.458
								c58.574,109.648,191.44,180.503,338.496,180.503c108.394,0,210.869-38.54,281.152-105.737
								c5.527-5.283,13.804-6.47,20.596-2.944c59.282,30.762,127.896,47.021,198.423,47.021
								c116.279,0,227.119-45.381,296.499-121.396c3.755-4.116,9.194-6.245,14.785-5.757c12.632,1.118,25.801,1.685,39.136,1.685
								c203.34,0,368.77-134.238,368.77-299.243s-165.43-299.243-368.77-299.243c-7.012,0-14.106,0.166-21.084,0.488
								c-6.05,0.317-11.978-2.588-15.493-7.627c-53.691-76.929-140.005-122.856-230.894-122.856c-7.222,0-14.473,0.269-21.538,0.796
								c-6.177,0.474-12.144-2.305-15.796-7.314c-66.216-91.045-188.027-147.603-317.896-147.603
								c-140.205,0-266.528,63.252-329.673,165.078c-4.663,7.52-14.116,10.508-22.256,7.002
								c-30.088-12.935-62.285-19.492-95.703-19.492c-89.463,0-170.176,48.159-205.63,122.686
								c-2.759,5.796-8.408,9.668-14.81,10.151c-190.63,14.316-334.385,142.397-334.385,297.935
								c0,165.005,165.454,299.243,368.828,299.243c16.641,0,33.291-0.918,49.487-2.72
								C1164.052,3123.939,1164.716,3123.905,1165.375,3123.905z"/>
						</g>
						<g>
							<path style="fill:#BEE2EA;" d="M1342.229,2847.77c0,83.915-85.431,151.93-190.768,151.93
								c-105.368,0-190.803-68.015-190.803-151.93c0-0.255,0-0.51,0.004-0.764c0.054-9.016,11.426-12.642,17.126-5.659
								c30.067,36.857,96.539,62.471,173.673,62.471c77.13,0,143.575-25.61,173.638-62.471c5.695-6.983,17.072-3.353,17.13,5.659
								V2847.77z"/>
						</g>
						<g>
							<path style="fill:#BEE2EA;" d="M1910.753,2999.325c0,18.905-5.508,36.853-15.387,52.91
								c-25.981,42.409-82.212,71.81-147.375,71.81c-89.905,0-162.815-55.855-162.815-124.72c0-3.411,0.183-6.795,0.536-10.143
								c0.478-4.52,6.41-5.785,8.923-1.998c22.49,33.889,82.672,58.117,153.356,58.117c45.592,0,86.821-10.071,116.36-26.361
								c16.146-8.883,28.828-19.615,36.808-31.587c0.027-0.04,0.054-0.076,0.08-0.121c2.575-3.853,8.529-2.494,8.99,2.123
								c0.071,0.729,0.138,1.453,0.192,2.182C1910.659,2994.1,1910.753,2996.715,1910.753,2999.325"/>
						</g>
						<g>
							<path style="fill:#BEE2EA;" d="M2079.478,3058.652c0,55.744-58.971,100.925-131.662,100.925
								c-36.423,0-69.387-11.332-93.245-29.62c-8.069-6.214-15.078-13.201-20.836-20.827c-2.351-3.116-1.502-7.586,1.806-9.669
								c8.458-5.329,15.48-11.354,20.72-17.895c1.86-2.324,5.038-3.08,7.76-1.882c0.903,0.398,1.811,0.787,2.731,1.171
								c22.36,9.41,50.483,15.02,81.063,15.02c53.348,0,99.28-17.059,119.959-41.614c3.929-4.662,11.685-1.913,11.703,4.184
								V3058.652z"/>
						</g>
						<g>
							<path style="fill:#FEF26B;" d="M2017.655,3537.645c125.256,169.024,361.196,178.407,521.901,161.331
								c-190.879-37.237-349.13-129.905-416.184-246.668c-54.175-94.318-30.259-207.151-11.305-265.264
								c21.323-65.489,64.948-150.156,122.932-252.43c76.888-135.676,86.275-300.802-29.325-404.964
								c-41.797-37.639-74.027-71.613-98.614-100.581c-18.82,65.985,81.671,131.604,50.018,306.48
								C2133.121,2868.047,1818.237,3268.492,2017.655,3537.645"/>
						</g>
						<g>
							<path style="fill:#FEF26B;" d="M2017.65,3537.64c125.261,169.02,361.2,178.407,521.901,161.331
								c-190.875-37.237-349.126-129.905-416.179-246.668c-40.094-69.781-37.416-149.664-25.615-210.057
								c4.113-21.234,9.392-40.053,14.305-55.208c21.328-65.489,64.953-150.16,122.932-252.434
								c76.888-135.672,86.276-300.803-29.321-404.959c-41.801-37.639-74.031-71.613-98.618-100.581
								c-18.82,65.981,81.676,131.604,50.022,306.48c-2.593,14.26-8.538,31.649-16.853,51.631
								C2071.293,2952.754,1839.689,3297.454,2017.65,3537.64"/>
						</g>
						<g>
							<path style="fill:#FF76D5;" d="M2123.373,3452.308c67.054,116.763,225.3,209.431,416.184,246.668
								c55.918-5.946,102.677-15.11,132.538-21.904c-131.559-17.479-298.478-68.886-377.02-212.336
								c-127.268-232.452,111.492-401.785,170.406-639.513c41.037-165.712-107.013-393.426-293.422-425.209h-0.045
								c-35.717,3.308-59.861,13.143-64.331,27c-0.224,0.671-0.443,1.386-0.622,2.056c24.586,28.967,56.817,62.941,98.609,100.58
								c115.605,104.156,106.217,269.287,29.329,404.959c-57.983,102.279-101.613,186.946-122.932,252.434
								C2093.109,3245.157,2069.198,3357.986,2123.373,3452.308"/>
						</g>
						<g>
							<path style="fill:#FF76D5;" d="M2123.373,3452.304c67.054,116.763,225.3,209.431,416.179,246.668
								c55.923-5.945,102.681-15.109,132.543-21.904c-131.559-17.479-298.483-68.886-377.02-212.336
								c-22.977-41.976-34.063-81.94-36.388-120.607c-10.46-175.278,158.51-324.137,206.793-518.906
								c41.037-165.716-107.018-393.426-293.427-425.209h-0.045c-35.717,3.308-59.856,13.142-64.326,27
								c-0.228,0.67-0.447,1.385-0.626,2.056c24.586,28.967,56.817,62.941,98.614,100.58
								c115.6,104.152,106.213,269.287,29.325,404.955c-57.979,102.279-101.608,186.95-122.932,252.439
								c-4.917,15.154-10.197,33.974-14.305,55.208C2085.957,3302.641,2083.275,3382.524,2123.373,3452.304"/>
						</g>
						<g>
							<path style="fill:#39D5FF;" d="M2465.481,2825.218c-48.283,194.768-217.258,343.627-206.798,518.906
								c2.329,38.668,13.411,78.632,36.392,120.612c78.538,143.446,245.461,194.853,377.02,212.336
								c22.436-5.101,35.315-8.811,35.315-8.811s-188.823-56.236-254.983-163.03c-44.036-71.032-43.634-146.981-25.257-211.442
								c4.689-16.406,10.501-32.052,17.076-46.714c59.812-133.481,198.97-244.343,186.99-451.986
								c-18.69-324.003-322.885-407.552-459.188-395.08C2358.464,2431.792,2506.518,2659.506,2465.481,2825.218"/>
						</g>
						<g>
							<path style="fill:#263166;" d="M2672.094,3679.569c-0.112,0-0.22-0.01-0.327-0.024
								c-128.867-17.124-299.204-68.091-378.877-213.613c-22.207-40.562-34.209-80.356-36.699-121.655
								c-6.001-100.596,46.294-191.914,101.655-288.594c41.553-72.554,84.517-147.593,105.215-231.064l0,0
								c18.857-76.152-2.607-171.616-57.427-255.361c-58.545-89.438-146.025-151.787-234.004-166.787
								c-1.235-0.215-2.119-1.304-2.07-2.559c0.049-1.25,1.016-2.271,2.261-2.388c86.807-7.925,225.942,22.866,326.284,109.282
								c83.091,71.563,128.726,168.506,135.625,288.14c8.374,145.21-55.444,241.401-117.158,334.429
								c-26.694,40.234-51.909,78.242-70.049,118.721c-6.768,15.083-12.471,30.688-16.953,46.377
								c-15.068,52.856-22.969,132.1,24.976,209.448c64.897,104.751,251.699,161.392,253.579,161.948
								c1.06,0.317,1.787,1.299,1.782,2.402c-0.005,1.108-0.742,2.08-1.807,2.388c-0.127,0.039-13.203,3.789-35.454,8.848
								C2672.465,3679.549,2672.28,3679.569,2672.094,3679.569z M2191.073,2401.409c82.905,20.283,163.564,80.835,218.735,165.117
								c55.562,84.883,77.28,181.812,58.096,259.292l0,0c-20.864,84.15-64.004,159.487-105.728,232.344
								c-54.985,96.016-106.919,186.704-101.006,285.815c2.441,40.547,14.248,79.653,36.094,119.561
								c78.579,143.521,247.041,193.97,374.712,211.001c11.626-2.646,20.688-4.927,26.636-6.484
								c-36.948-12.271-190.249-67.793-248.306-161.509c-48.906-78.896-40.879-159.619-25.532-213.442
								c4.546-15.918,10.332-31.748,17.197-47.051c18.306-40.854,43.628-79.028,70.439-119.438
								c61.27-92.344,124.619-187.832,116.338-331.387c-6.821-118.232-51.87-213.999-133.896-284.644
								C2402.577,2431.116,2277.138,2399.315,2191.073,2401.409z M2465.483,2825.218h0.049H2465.483z"/>
						</g>
						<g>
							<path style="fill:#1EB6F9;" d="M2258.685,3344.124c2.329,38.668,13.411,78.632,36.392,120.607
								c78.538,143.45,245.461,194.858,377.016,212.336c22.441-5.096,35.319-8.806,35.319-8.806s-188.823-56.236-254.983-163.03
								c-44.036-71.032-43.634-146.982-25.261-211.442C2389.037,3324.544,2334.5,3348.683,2258.685,3344.124"/>
						</g>
						<g>
							<path style="fill:#E52C9F;" d="M2123.373,3452.304c67.054,116.763,225.3,209.431,416.179,246.668
								c55.923-5.945,102.681-15.109,132.543-21.904c-131.559-17.479-298.483-68.886-377.02-212.336
								c-22.977-41.976-34.063-81.94-36.388-120.607c-19.535-1.207-40.5-4.336-62.946-9.7
								c-56.947-13.683-85.824-46.938-97.983-92.176C2085.957,3302.641,2083.275,3382.524,2123.373,3452.304"/>
						</g>
						<g>
							<path style="fill:#FFD255;" d="M2017.65,3537.64c125.261,169.02,361.2,178.407,521.901,161.331
								c-190.875-37.237-349.126-129.905-416.179-246.668c-40.094-69.781-37.416-149.664-25.615-210.057
								c-31.243-115.69,46.49-309.788,42.467-455.071C2071.293,2952.754,1839.689,3297.454,2017.65,3537.64"/>
						</g>
						<g>
							<path style="fill:#36276B;" d="M2428.466,3722.967c-153.247,0-323.169-37.021-425.176-174.678l0,0
								c-153.882-207.69-16.821-485.469,73.872-669.282c30.322-61.46,56.514-114.541,62.314-146.641
								c18.057-99.736-8.765-161.069-30.313-210.352c-15.332-35.059-28.569-65.337-19.302-97.847
								c1.812-6.348,6.968-11.182,13.418-12.573c6.436-1.401,13.145,0.879,17.412,5.903c27.627,32.549,60.244,65.811,96.948,98.867
								c110.562,99.619,123.481,267.251,32.915,427.061c-66.465,117.241-102.798,191.753-121.489,249.155
								c-18.164,55.679-41.035,162.295,9.81,250.82c63.501,110.576,218.345,201.782,404.102,238.027
								c8.687,1.694,14.824,9.482,14.443,18.325c-0.386,8.838-7.178,16.069-15.977,17.007
								C2505.824,3720.545,2467.69,3722.967,2428.466,3722.967z M2032.021,3527c92.402,124.692,248.584,159.429,391.436,160.205
								c-145.591-48.096-259.761-128.774-315.591-225.991c-57.734-100.518-32.803-218.398-12.798-279.717
								c19.468-59.795,56.665-136.27,124.375-255.703c62.241-109.834,92.847-276.006-25.737-382.856
								c-22.3-20.083-43.164-40.269-62.397-60.366c3.027,7.744,6.665,16.064,10.625,25.117
								c22.251,50.894,52.729,120.591,32.734,231.045c-6.694,37.046-32.617,89.585-65.435,156.094
								C2022.387,3070.848,1891.137,3336.849,2032.021,3527L2032.021,3527z"/>
						</g>
						<g>
							<path style="fill:#36276B;" d="M2539.555,3716.859c-1.147,0-2.295-0.112-3.423-0.332
								c-198.599-38.74-358.701-134.194-428.262-255.313h-0.005c-57.734-100.527-32.798-218.398-12.793-279.717
								c19.458-59.785,56.655-136.265,124.37-255.708c62.246-109.829,92.856-276.001-25.742-382.852
								c-37.886-34.121-71.621-68.54-100.273-102.295c-3.804-4.487-5.161-10.557-3.628-16.235c0.259-0.967,0.576-2.007,0.894-2.974
								c8.75-27.114,48.159-36.304,79.673-39.224c1.538-0.151,3.159-0.088,4.697,0.176c93.462,15.933,186.03,81.621,247.617,175.713
								c57.866,88.403,80.356,189.868,60.161,271.421c-21.372,86.24-65.059,162.524-107.3,236.294
								c-76.396,133.408-142.373,248.623-64.785,390.332c75.586,138.052,239.497,186.699,363.691,203.203
								c8.579,1.138,15.112,8.262,15.508,16.904c0.396,8.647-5.454,16.338-13.896,18.257
								c-29.878,6.797-77.485,16.172-134.614,22.246C2540.82,3716.824,2540.185,3716.859,2539.555,3716.859z M2130.116,2428.406
								c25.522,29.048,54.907,58.584,87.52,87.959c110.571,99.619,123.491,267.251,32.92,427.061
								c-66.47,117.246-102.798,191.758-121.484,249.155c-18.164,55.679-41.04,162.29,9.81,250.82l0,0
								c63.198,110.059,216.885,200.923,401.46,237.51c11.875-1.294,23.315-2.729,34.238-4.253
								c-111.978-28.442-231.196-86.46-295.19-203.335c-87.207-159.282-13.218-288.486,65.117-425.278
								c41.025-71.646,83.447-145.728,103.623-227.124c17.847-72.075-2.852-163.003-55.371-243.232
								c-55.728-85.137-138.345-144.658-221.401-159.644C2149.076,2420.33,2136.503,2424.886,2130.116,2428.406z"/>
						</g>
						<g>
							<path style="fill:#36276B;" d="M2672.094,3694.954c-0.786,0-1.572-0.054-2.354-0.156
								c-132.388-17.588-307.573-70.293-390.347-221.47c-87.207-159.282-13.218-288.491,65.112-425.288
								c41.025-71.646,83.447-145.728,103.623-227.119c17.847-72.07-2.852-163.003-55.371-243.232
								c-56.24-85.923-139.873-145.757-223.706-160.049c-8.853-1.509-15.215-9.351-14.863-18.32
								c0.347-8.975,7.295-16.294,16.235-17.114c92.993-8.496,233.428,23.125,337.725,112.944
								c86.372,74.385,133.794,174.956,140.942,298.916c8.672,150.332-59.531,253.13-119.702,343.823
								c-26.333,39.692-51.206,77.183-68.823,116.499c-22.349,49.858-51.152,147.52,7.061,241.426
								c61.763,99.702,243.071,154.771,244.893,155.317c7.607,2.271,12.808,9.282,12.769,17.217
								c-0.034,7.939-5.298,14.902-12.925,17.1c-0.547,0.156-13.628,3.911-36.309,9.063
								C2674.755,3694.808,2673.422,3694.954,2672.094,3694.954z M2290.273,2427.308c50.635,31.294,96.724,76.279,132.407,130.796
								c57.866,88.398,80.356,189.863,60.161,271.416c0,0.005,0,0.005-0.005,0.005c-21.372,86.235-65.054,162.515-107.295,236.284
								c-76.396,133.413-142.373,248.628-64.78,390.342c62.266,113.721,184.463,166.772,295.024,191.162
								c-59.556-28.408-131.382-72.651-168.56-132.666c-66.909-107.944-34.546-218.555-9.297-274.883
								c18.823-42.007,44.487-80.693,71.66-121.646c59.873-90.244,121.782-183.56,113.799-321.992
								c-6.567-113.916-49.829-206.06-128.574-273.877C2427.006,2472.464,2355.81,2441.99,2290.273,2427.308z M2465.483,2825.223
								h0.049H2465.483z"/>
						</g>
						<g>
							<path style="fill:#FFFFFF;" d="M2097.15,1903.488c0,0,537.595,919.153-342.604,919.153s-342.604-919.153-342.604-919.153"/>
						</g>
						<g style="opacity:0.15;">
							<g>
								<g>
									<path style="fill:#36276B;" d="M1754.547,2822.62c-421.191,0-517.743-210.459-503.89-429.952
										c13.053,176.132,12.754,328.701,503.89,328.701c491.132,0,490.832-152.569,503.885-328.701
										C2272.286,2612.161,2175.733,2822.62,1754.547,2822.62"/>
								</g>
							</g>
						</g>
						<g>
							<path style="fill:#36276B;" d="M1754.545,2840.521c-238.101,0-397.197-66.895-472.876-198.828
								c-66.636-116.172-67.314-277.656-2.017-479.971c48.032-148.828,114.067-262.498,116.855-267.263
								c4.985-8.52,15.942-11.391,24.458-6.406c8.525,4.983,11.396,15.935,6.411,24.46
								c-2.637,4.514-262.134,454.438-114.663,711.431c68.853,119.98,217.505,180.815,441.831,180.815
								s372.979-60.835,441.831-180.815c147.471-256.992-112.026-706.917-114.663-711.431c-4.985-8.525-2.114-19.478,6.411-24.46
								c8.521-4.988,19.473-2.119,24.458,6.406c2.788,4.766,68.823,118.435,116.855,267.263
								c65.298,202.314,64.619,363.799-2.017,479.971C2151.742,2773.626,1992.646,2840.521,1754.545,2840.521z"/>
						</g>
						<g>
							<path style="fill:#FEF26B;" d="M2428.668,1913.494c-110.397,149.056-442.143,132.279-446.939-181.139
								c-1.819-119.659,63.598-270.172,81.721-355.232c37.912-177.991-41.739-390.811-41.739-390.811l246.306,77.742
								c0,0,66.468,73.956,46.138,242.792c-12.463,103.651-101.466,266.48-130.732,388.267c0,0,43.965-109.923,163.714-99.704
								C2476.298,1606.482,2539.234,1764.188,2428.668,1913.494"/>
						</g>
						<g>
							<path style="fill:#FFD255;" d="M2428.668,1913.494c-110.397,149.056-442.143,132.279-446.939-181.139
								c-1.819-119.659,63.598-270.172,81.721-355.232c34.711-163.043-29.191-355.272-40.179-386.416
								c50.572,72.592,109.02,187.308,88.167,309.94c-14.591,85.748-89.754,255.103-81.001,374.445
								c20.813,283.485,315.027,309.484,434.396,176.351C2455.954,1872.005,2443.983,1892.855,2428.668,1913.494"/>
						</g>
						<g style="opacity:0.35;">
							<g>
								<g>
									<path style="fill:#FFFFFF;" d="M2274.025,1659.174c15.516-12.758,59.481-37.045,117.612-3.916
										c52.583,29.973,71.72,121.054,30.644,117.711c-28.449-2.316-19.571-59.258-57.054-78.381
										c-27.139-13.853-76.875,9.852-91.783-2.7C2258.218,1679.067,2266.318,1665.518,2274.025,1659.174"/>
								</g>
							</g>
						</g>
						<g>
							<path style="fill:#36276B;" d="M2238.346,1857.991c-9.222-1.144-18.565-3.339-27.51-7.313
								c-8.945-3.916-17.492-9.589-24.613-16.951c-7.242-7.26-12.767-16.187-16.759-25.476c-4.072-9.312-6.379-19.097-7.773-28.757
								c-1.426-9.678-1.842-19.329-1.498-28.81c0.291-9.49,1.082-18.86,2.383-28.082c2.695-18.426,6.629-36.388,11.475-53.96
								c19.615-70.223,49.244-135.408,75.342-201.304c13.111-32.892,25.753-65.878,35.767-99.226
								c4.989-16.656,9.338-33.402,12.244-50.076c0.715-4.166,1.364-8.324,1.864-12.463l1.386-12.897
								c0.795-8.619,1.502-17.237,1.859-25.865c1.583-34.465-0.304-69.061-7.443-102.355c-3.536-16.629-8.346-32.941-14.712-48.453
								c-3.174-7.756-6.728-15.315-10.693-22.543c-2.007-3.589-4.086-7.121-6.276-10.496c-1.109-1.672-2.226-3.321-3.366-4.895
								l-1.703-2.276l-1.421-1.766l6.607,4.255l-246.275-77.737l18.475-19.468c7.421,20.608,13.487,40.688,19.159,61.287
								c5.655,20.51,10.626,41.189,14.98,62.016c8.69,41.645,14.864,83.924,17.443,126.642c2.495,42.682,1.65,85.914-5.436,128.712
								c-1.828,10.666-3.844,21.372-6.419,31.904c-2.539,10.505-5.364,20.804-8.323,31.001
								c-5.901,20.402-12.244,40.451-18.489,60.451c-12.526,39.968-24.783,79.74-34.475,119.892
								c-9.611,40.089-16.938,80.719-17.474,120.889c-0.089,20.067,1.234,40.429,4.229,60.241
								c3.022,19.852,7.943,39.289,14.689,57.952c13.679,37.215,36.151,70.862,66.348,95.882
								c30.12,25.047,67.317,41.327,106.293,47.926c38.985,6.647,79.704,4.121,117.648-7.215
								c37.876-11.26,73.267-31.582,99.414-60.268c6.522-7.148,12.284-14.792,18.069-23.183c5.686-8.252,10.988-16.75,15.829-25.471
								c9.687-17.434,17.537-35.798,22.986-54.742c10.979-37.738,12.003-78.506-0.849-114.662
								c-6.312-18.024-16.102-34.676-28.86-48.511c-12.696-13.898-28.547-24.698-45.985-31.636
								c-17.497-6.978-36.428-9.772-55.624-9.414c-9.512,0.125-18.949,0.938-28.136,2.856c-9.222,1.739-18.203,4.444-26.929,7.904
								c-17.452,6.974-33.553,17.555-48.185,30.514c-14.671,12.843-28.001,28.391-39.562,44.926l-0.241,0.34
								c-1.587,2.271-4.716,2.825-6.987,1.238c-1.739-1.212-2.468-3.335-2.007-5.28c2.633-11.09,6.88-21.081,12.079-30.916
								c5.136-9.808,11.47-19.034,18.618-27.716c14.35-17.282,32.834-31.841,53.911-41.502
								c21.046-9.647,44.403-14.586,67.273-14.256c22.696-0.107,45.896,4.323,67.268,13.161
								c21.39,8.891,40.791,22.579,56.459,39.553c15.681,16.996,27.514,37.269,35.055,58.797
								c15.32,43.232,13.733,90.37,1.39,132.856c-6.146,21.35-14.908,41.774-25.57,60.979c-5.338,9.606-11.149,18.914-17.349,27.917
								c-6.102,8.873-12.968,18.02-20.59,26.352c-30.51,33.419-70.644,56.164-112.936,68.774
								c-42.409,12.646-87.545,15.458-131.233,8.033c-43.625-7.38-85.909-25.748-120.339-54.398
								c-34.533-28.57-60.089-67.09-75.27-108.502c-7.514-20.76-12.897-42.168-16.191-63.759
								c-3.254-21.641-4.667-43.241-4.568-65.087c0.612-43.786,8.422-86.208,18.301-127.567
								c9.991-41.368,22.463-81.783,35.006-121.81c6.254-20.022,12.552-39.946,18.301-59.816c2.888-9.937,5.601-19.861,7.979-29.731
								c2.414-9.835,4.269-19.745,5.986-29.727c6.638-39.991,7.492-81.139,5.096-122.091c-2.477-40.983-8.436-81.904-16.866-122.319
								c-4.224-20.21-9.061-40.308-14.546-60.219c-5.44-19.817-11.551-39.897-18.332-58.734l-0.067-0.174
								c-2.789-7.76,1.238-16.312,8.99-19.101c3.201-1.149,6.54-1.144,9.553-0.192l246.275,77.742l0.223,0.076
								c2.548,0.8,4.743,2.307,6.384,4.184c1.288,1.48,1.953,2.32,2.79,3.406l2.302,3.062c1.466,2.03,2.847,4.063,4.188,6.106
								c2.656,4.081,5.092,8.216,7.425,12.391c4.596,8.373,8.614,16.942,12.182,25.65c7.139,17.411,12.414,35.378,16.281,53.54
								c7.779,36.347,9.736,73.419,8.064,109.977c-0.38,9.155-1.127,18.27-1.971,27.367l-1.466,13.634
								c-0.568,4.694-1.283,9.325-2.079,13.934c-3.209,18.386-7.85,36.137-13.066,53.558
								c-10.568,34.796-23.268,68.395-36.129,101.743c-12.995,33.281-26.115,66.338-38.627,99.418
								c-12.758,32.977-24.551,66.159-34.546,99.414c-4.837,16.656-9.316,33.334-12.253,50.058
								c-3.152,16.661-4.756,33.375-4.059,49.436c0.885,16.021,4.645,31.31,13.567,43.697c4.444,6.178,10.13,11.65,16.781,16.285
								c6.656,4.613,14.233,8.377,22.244,11.578l0.094,0.04c2.571,1.024,3.818,3.943,2.794,6.509
								C2242.75,1857.034,2240.55,1858.264,2238.346,1857.991"/>
						</g>
						<g>
							<path style="fill:#FF76D5;" d="M2592.019,1846.357c-84.626,165.059-414.669,202.578-470.489-105.869
								c-21.301-117.755,18.712-276.923,22.722-363.797c8.399-181.787-104.881-378.781-104.881-378.781l255.684,36.553
								c0,0,77.635,62.136,85.096,232.023c4.6,104.295-56.669,279.462-65.699,404.391c0,0,25.462-115.623,145.274-125.06
								C2588.97,1535.689,2676.775,1681.025,2592.019,1846.357"/>
						</g>
						<g>
							<path style="fill:#263166;" d="M2367.724,1974.1c-12.568,0-25.156-0.898-37.646-2.751
								c-110.366-16.384-187.168-100.386-210.713-230.466c-14.595-80.696-0.347-182.031,11.104-263.457
								c5.308-37.715,10.317-73.34,11.587-100.837c8.271-179.041-103.462-375.615-104.59-377.581
								c-0.42-0.727-0.386-1.633,0.088-2.331c0.469-0.698,1.27-1.057,2.134-0.945l255.684,36.553
								c0.391,0.056,0.757,0.215,1.064,0.461c0.781,0.627,78.496,64.714,85.913,233.643c2.544,57.617-14.502,134.878-32.549,216.675
								c-12.7,57.564-25.786,116.87-31.396,168.714c13.193-33.489,50.806-101.038,141.152-108.152
								c56.187-4.409,106.445,19.934,137.661,66.797c41.836,62.803,40.625,151.377-3.237,236.939l0,0
								C2554.877,1923.626,2461.948,1974.1,2367.724,1974.1z M2043.452,1000.719c15.698,28.682,110.683,209.744,102.998,376.074
								c-1.274,27.703-6.299,63.425-11.621,101.245c-11.406,81.113-25.601,182.061-11.128,262.058
								c23.184,128.108,98.643,210.806,207.026,226.895c104.336,15.505,215.83-36.812,259.336-121.638l0,0
								c43.125-84.124,44.429-171.035,3.491-232.49c-30.308-45.493-79.038-69.146-133.657-64.849
								c-116.743,9.194-143.042,122.197-143.296,123.337c-0.249,1.123-1.289,1.902-2.466,1.704c-1.143-0.166-1.963-1.187-1.88-2.337
								c4.077-56.421,18.906-123.618,33.242-188.604c17.983-81.509,34.971-158.494,32.456-215.532
								c-7.036-160.122-77.549-224.604-83.833-230.029L2043.452,1000.719z M2592.021,1846.356h0.049H2592.021z"/>
						</g>
						<g>
							<path style="fill:#E52C9F;" d="M2592.019,1846.357c-84.626,165.059-414.669,202.578-470.489-105.869
								c-21.301-117.755,18.712-276.923,22.722-363.797c7.68-166.516-86.709-345.76-102.623-374.7
								c61.73,63.379,138.095,167.03,137.509,291.424c-0.421,86.982-46.974,266.324-18.887,382.639
								c66.75,276.301,361.262,254.004,457.337,103.187C2612.184,1800.98,2603.762,1823.5,2592.019,1846.357"/>
						</g>
						<g style="opacity:0.35;">
							<g>
								<g>
									<path style="fill:#FFFFFF;" d="M2397.991,1620.649c13.228-15.118,52.646-46.249,115.395-23.035
										c56.772,21.001,90.5,107.742,49.423,111.143c-28.444,2.351-28.963-55.275-69.061-68.042
										c-29.034-9.24-74.242,22.257-91,12.302C2385.635,1642.853,2391.42,1628.164,2397.991,1620.649"/>
								</g>
							</g>
						</g>
						<g>
							<path style="fill:#36276B;" d="M2395.198,1822.618c-9.289,0.376-18.865-0.268-28.337-2.727
								c-9.459-2.405-18.82-6.616-27.049-12.713c-8.323-5.981-15.226-13.893-20.688-22.405c-5.53-8.52-9.401-17.801-12.356-27.103
								c-2.982-9.316-4.966-18.775-6.169-28.185c-1.26-9.41-2.007-18.779-2.226-28.091c-0.344-18.619,0.613-36.987,2.526-55.109
								c7.903-72.485,26.513-141.626,41.52-210.893c7.577-34.591,14.671-69.199,19.115-103.727
								c2.208-17.246,3.768-34.479,3.92-51.403c0.027-4.224-0.013-8.435-0.197-12.602l-0.733-12.95
								c-0.616-8.632-1.323-17.255-2.382-25.82c-4.054-34.26-11.556-68.091-24.023-99.776c-6.2-15.829-13.607-31.14-22.414-45.408
								c-4.399-7.135-9.137-14.014-14.224-20.5c-2.566-3.21-5.195-6.357-7.908-9.33c-1.363-1.471-2.736-2.915-4.117-4.283
								l-2.052-1.962l-1.69-1.511l7.215,3.12l-255.653-36.562l15.056-22.213c10.675,19.128,19.937,37.944,28.896,57.344
								c8.918,19.312,17.193,38.909,24.886,58.743c15.36,39.673,28.341,80.38,37.849,122.109
								c9.415,41.703,15.633,84.492,15.619,127.871c-0.067,10.823-0.309,21.717-1.135,32.526c-0.791,10.782-1.9,21.404-3.156,31.944
								c-2.499,21.086-5.49,41.904-8.391,62.655c-5.847,41.475-11.453,82.713-14.47,123.915
								c-2.946,41.113-3.558,82.396,2.468,122.114c3.178,19.816,7.805,39.687,13.988,58.748
								c6.218,19.092,14.242,37.465,23.942,54.778c19.562,34.488,47.215,64.027,81.086,83.79
								c33.799,19.799,73.155,29.799,112.686,29.96c39.544,0.201,79.311-8.927,114.899-26.298
								c35.534-17.282,67.138-43.102,88.256-75.668c5.275-8.114,9.714-16.594,14.045-25.811c4.274-9.075,8.114-18.319,11.471-27.711
								c6.714-18.788,11.466-38.18,13.755-57.76c4.685-39.021-0.952-79.414-19.526-112.99
								c-9.168-16.755-21.542-31.587-36.383-43.156c-14.792-11.654-32.19-19.718-50.532-23.724
								c-18.395-4.028-37.528-3.701-56.405-0.224c-9.365,1.676-18.547,4.019-27.295,7.407c-8.815,3.218-17.237,7.353-25.279,12.186
								c-16.084,9.727-30.246,22.794-42.57,37.961c-12.378,15.065-22.995,32.579-31.707,50.773l-0.183,0.375
								c-1.193,2.499-4.193,3.558-6.697,2.36c-1.904-0.912-2.973-2.888-2.839-4.877c0.787-11.377,3.353-21.927,6.88-32.472
								c3.473-10.518,8.212-20.652,13.853-30.38c11.337-19.392,27.202-36.772,46.428-49.736
								c19.191-12.954,41.43-21.627,64.045-25.033c22.378-3.804,45.985-3.214,68.511,2.021
								c22.557,5.284,43.929,15.632,62.159,29.821c18.239,14.215,33.214,32.289,44.166,52.297
								c22.164,40.156,28.283,86.919,23.031,130.853c-2.584,22.07-7.903,43.647-15.293,64.331
								c-3.697,10.344-7.912,20.478-12.566,30.371c-4.569,9.745-9.857,19.893-16.017,29.356
								c-24.658,37.943-60.549,66.928-100.223,86.262c-39.776,19.387-83.848,29.517-128.162,29.316
								c-44.242-0.17-88.958-11.399-127.594-34.054c-38.735-22.561-70.223-56.401-91.953-94.783
								c-10.8-19.253-19.602-39.499-26.361-60.263c-6.746-20.827-11.658-41.904-15.123-63.477
								c-6.535-43.299-5.744-86.423-2.736-128.841c3.112-42.445,8.833-84.349,14.68-125.891c2.91-20.764,5.874-41.453,8.31-61.998
								c1.225-10.273,2.289-20.505,3.031-30.635c0.773-10.089,0.988-20.17,1.055-30.304c0.027-40.536-5.834-81.278-14.877-121.287
								c-9.124-40.04-21.667-79.432-36.575-117.938c-7.46-19.249-15.507-38.292-24.171-57.04
								c-8.596-18.663-17.899-37.478-27.657-54.957l-0.094-0.166c-4.014-7.197-1.439-16.289,5.753-20.308
								c2.973-1.659,6.271-2.195,9.396-1.748l255.648,36.562l0.237,0.036c2.646,0.375,5.056,1.506,6.982,3.089
								c1.511,1.247,2.298,1.967,3.308,2.901l2.762,2.651c1.779,1.766,3.469,3.545,5.132,5.337
								c3.286,3.594,6.361,7.278,9.347,11.019c5.896,7.514,11.26,15.31,16.196,23.321c9.879,16.017,18.02,32.883,24.792,50.17
								c13.598,34.595,21.573,70.849,25.883,107.192c1.117,9.097,1.868,18.212,2.517,27.322l0.778,13.692
								c0.206,4.725,0.246,9.414,0.219,14.081c-0.174,18.663-1.86,36.933-4.162,54.975c-4.761,36.057-11.81,71.274-19.061,106.266
								c-7.398,34.957-14.957,69.714-21.909,104.389c-7.21,34.617-13.437,69.275-17.876,103.718
								c-2.056,17.219-3.76,34.407-3.934,51.381c-0.393,16.951,0.756,33.706,4.055,49.441c3.487,15.664,9.687,30.134,20.509,40.903
								c5.391,5.369,11.891,9.839,19.209,13.326c7.322,3.469,15.413,5.946,23.84,7.801l0.094,0.018
								c2.705,0.599,4.412,3.272,3.818,5.972C2399.386,1820.959,2397.415,1822.528,2395.198,1822.618"/>
						</g>
						<g>
							<path style="fill:#39D5FF;" d="M2720.386,1721.963c-55.436,177.013-374.352,269.909-481.624-24.622
								c-40.938-112.449-28.475-276.091-39.244-362.389c-22.525-180.584-167.54-355.536-167.54-355.536l115.685-3.268
								c124.425-3.518,235.318,80.232,263.691,201.438c0.679,2.888,1.341,5.82,1.98,8.784
								c22.204,102.016-8.502,285.023,3.769,409.675c0,0,5.503-118.26,121.984-147.867
								C2664.749,1416.302,2775.902,1544.66,2720.386,1721.963"/>
						</g>
						<g>
							<path style="fill:#1EB6F9;" d="M2720.386,1721.963c-55.436,177.013-374.352,269.909-481.624-24.622
								c-40.938-112.449-28.475-276.091-39.244-362.389c-20.648-165.412-144.031-326.073-164.625-351.893
								c71.573,52.003,164.398,141.215,184.902,263.91c14.323,85.793-1.176,270.427,46.213,380.306
								c112.596,261,399.072,189.122,468.209,24.215C2732.572,1673.819,2728.088,1697.448,2720.386,1721.963"/>
						</g>
						<g style="opacity:0.35;">
							<g>
								<g>
									<path style="fill:#FFFFFF;" d="M2490.924,1532.393c10.474-17.139,44.05-54.497,109.825-42.253
										c59.508,11.073,107.442,90.853,67.541,101.162c-27.639,7.134-37.917-49.571-79.597-55.355
										c-30.183-4.189-69.392,34.51-87.599,27.541C2482.506,1556.367,2485.72,1540.909,2490.924,1532.393"/>
								</g>
							</g>
						</g>
						<g>
							<path style="fill:#36276B;" d="M2522.385,1731.916c-11.529,2.521-23.875,3.223-36.281,0.966
								c-12.427-2.069-24.689-7.68-34.814-15.847c-10.246-8.104-18.163-18.471-24.318-29.316
								c-6.196-10.867-10.809-22.275-14.22-33.808c-7.063-23.044-10.21-46.401-12.347-69.499c-1.94-23.147-2.57-46.146-2.311-69.034
								c0.318-45.762,3.335-91.032,5.691-136.07c2.132-44.993,4.264-89.95,1.81-134.009c-0.621-10.997-1.533-21.922-2.924-32.668
								c-0.711-5.364-1.542-10.684-2.494-15.941c-0.992-5.159-2.146-10.51-3.415-15.887c-5.226-20.67-12.682-40.706-22.548-59.597
								c-10.348-18.623-22.838-35.999-37.241-51.72c-14.752-15.405-31.385-28.918-49.329-40.438
								c-18.091-11.346-37.729-19.991-57.974-26.616l-15.4-4.314c-5.159-1.328-10.456-2.07-15.673-3.143
								c-2.624-0.478-5.23-1.068-7.859-1.453l-7.961-0.8l-7.952-0.818c-2.656-0.277-5.302-0.612-7.971-0.545l-15.999-0.246
								c-5.324-0.103-11.207,0.246-16.781,0.344l-33.885,0.957l-67.773,1.913l11.068-24.443
								c13.737,17.04,26.021,34.05,38.162,51.631c6.013,8.775,11.945,17.599,17.631,26.585c5.86,8.878,11.296,18.019,16.831,27.103
								c21.873,36.486,41.551,74.403,57.943,113.933c16.339,39.512,29.481,80.697,36.889,123.396
								c4.121,21.305,5.802,43.057,6.933,64.188c1.167,21.229,1.69,42.217,2.374,63.173c1.314,41.85,2.687,83.469,6.795,124.55
								c1.819,20.59,4.837,40.894,8.274,61.055c4.019,19.96,8.225,39.951,14.899,58.828l2.333,7.157
								c0.836,2.369,1.86,4.694,2.781,7.041l5.659,14.068c1.743,4.756,4.063,9.218,6.263,13.746l6.594,13.572
								c2.36,4.426,5.007,8.677,7.488,13.022c2.597,4.269,4.828,8.806,7.827,12.785l8.511,12.289l2.124,3.071l2.351,2.883
								l4.729,5.744l4.716,5.753l2.365,2.865l2.588,2.651l10.34,10.612c3.451,3.527,7.389,6.5,11.05,9.79l5.579,4.828
								c1.958,1.484,3.983,2.87,5.968,4.314c15.61,11.936,33.12,21.117,51.399,28.011c36.558,14.211,77.112,16.781,116.065,10.608
								c19.531-3.17,38.627-8.976,56.933-16.544c18.252-7.676,35.878-17.117,51.832-28.851
								c31.895-23.227,58.936-53.759,74.152-89.512c7.322-17.523,12.562-37.595,16.039-57.072
								c3.429-19.642,4.837-39.552,3.804-59.239c-0.961-19.687-4.578-39.128-10.975-57.465c-2.991-9.267-7.184-18.002-11.538-26.598
								c-4.81-8.319-9.75-16.607-15.883-23.938c-1.426-1.927-2.955-3.755-4.595-5.485l-4.783-5.297
								c-3.465-3.241-6.705-6.75-10.447-9.656c-7.134-6.24-15.078-11.426-23.33-15.923c-8.198-4.649-17.094-7.841-26.075-10.452
								c-9.039-2.526-18.373-3.724-27.72-4.376c-18.806-0.585-37.599,2.651-55.623,9.334c-8.94,3.232-17.613,7.054-25.655,11.886
								c-8.172,4.622-15.735,10.174-22.883,16.263c-14.162,12.338-26.008,27.559-35.539,44.635
								c-9.656,16.942-17.13,36.021-22.575,55.431l-0.116,0.398c-0.751,2.673-3.518,4.224-6.191,3.478
								c-2.043-0.572-3.433-2.343-3.634-4.336c-1.126-11.341-0.362-22.163,1.332-33.147c1.649-10.952,4.618-21.73,8.511-32.275
								c7.93-20.988,20.523-40.858,37.295-56.866c16.679-16.053,37.13-28.355,58.824-35.588c21.39-7.644,44.805-10.8,67.876-9.633
								c11.542,0.916,23.053,2.624,34.188,5.887c11.05,3.411,22.007,7.385,32.096,13.044c10.134,5.512,19.821,11.9,28.498,19.441
								c4.519,3.567,8.458,7.734,12.615,11.685l5.758,6.357c1.958,2.092,3.791,4.278,5.498,6.562
								c7.305,8.802,13.201,18.556,18.824,28.386c5.15,10.063,9.996,20.317,13.482,31.015c7.403,21.247,11.475,43.451,12.575,65.619
								c1.162,22.186-0.429,44.34-4.207,65.976c-0.966,5.4-1.877,10.822-3.228,16.133c-1.278,5.32-2.369,10.702-3.983,15.923
								c-2.745,10.42-6.536,21.198-10.791,31.645c-8.74,20.84-21.113,39.834-35.409,56.884c-14.358,17.05-30.84,32.11-48.739,45.105
								c-17.859,13.098-37.443,23.621-57.782,32.172c-20.389,8.44-41.672,14.886-63.549,18.444
								c-43.621,6.969-89.642,4.086-131.456-12.114c-20.881-7.868-40.885-18.426-58.618-31.927c-2.244-1.645-4.542-3.232-6.75-4.922
								l-6.325-5.436c-4.144-3.693-8.574-7.112-12.463-11.055l-11.604-11.904l-2.897-2.982l-2.642-3.187l-5.261-6.397l-5.253-6.402
								l-2.606-3.21l-2.352-3.388l-9.396-13.554c-3.295-4.435-5.749-9.325-8.592-14.01c-2.714-4.747-5.597-9.423-8.163-14.238
								l-7.161-14.698c-2.378-4.904-4.872-9.758-6.754-14.846l-6.084-15.105c-0.988-2.53-2.069-5.011-2.986-7.577l-2.548-7.792
								c-7.273-20.693-11.734-41.859-15.963-62.959c-3.63-21.149-6.75-42.347-8.628-63.527c-4.229-42.36-5.601-84.608-6.92-126.539
								c-0.684-20.943-1.211-41.859-2.343-62.494c-1.122-20.711-2.682-40.84-6.549-60.733c-6.92-39.91-19.356-79.101-35.038-117.004
								c-15.718-37.926-34.747-74.635-55.972-110.04c-5.373-8.811-10.648-17.693-16.348-26.307
								c-5.516-8.73-11.278-17.3-17.116-25.82c-11.663-16.915-23.969-33.893-36.54-49.486l-0.134-0.161
								c-5.172-6.419-4.162-15.811,2.258-20.987c2.642-2.133,5.793-3.21,8.945-3.304l67.773-1.913l33.884-0.952
								c5.726-0.108,11.135-0.443,17.108-0.353l17.899,0.268c2.99-0.049,5.954,0.3,8.923,0.613l8.909,0.903l8.905,0.925
								c2.951,0.429,5.869,1.068,8.811,1.596c5.843,1.189,11.766,2.056,17.546,3.536l17.246,4.828
								c22.682,7.389,44.653,17.107,64.903,29.803c20.107,12.874,38.73,28.024,55.257,45.301
								c16.169,17.608,30.197,37.108,41.779,58.037c11.108,21.202,19.495,43.71,25.31,66.897c1.323,5.619,2.566,11.319,3.706,17.26
								c1.064,5.856,1.976,11.703,2.745,17.541c1.515,11.667,2.477,23.285,3.129,34.85c2.396,46.254,0.653,91.779-1.086,137.058
								c-1.677,45.266-3.76,90.285-4.171,134.934c0,22.306,0.072,44.537,1.502,66.472c1.238,21.935,3.786,43.652,8.636,64.251
								c5.002,20.46,12.485,40.112,25.869,54.099c13.044,14.341,33.397,20.831,55.319,21.569c2.767,0.089,4.935,2.401,4.85,5.168
								C2526.252,1729.516,2524.571,1731.433,2522.385,1731.916"/>
						</g>
						<g>
							<path style="fill:#FFFFFF;" d="M1774.956,2045.706c300.789,0,656.763-101.09,647.233-526.961
								c-3.415-152.61-59.441-327.771-159.31-470.26c24.407-10.626,47.849-26.433,68.506-47.175
								c73.982-74.322,93.884-174.487,22.932-245.099c-70.992-70.616-171.027-50.254-244.974,24.072
								c-21.712,21.837-37.943,46.705-48.48,72.512c-83.093-51.645-178.957-82.633-285.907-82.633
								c-112.771,0-213.186,34.443-299.314,91.189c-10.291-28.838-27.617-56.83-51.77-81.068
								c-73.987-74.327-174.026-94.689-244.974-24.072c-70.952,70.612-51.055,170.777,22.932,245.099
								c24.323,24.452,52.485,41.989,81.573,52.36c-97.55,141.519-152.31,314.321-155.685,465.075
								C1118.238,1944.617,1474.167,2045.706,1774.956,2045.706"/>
						</g>
						<g>
							<path style="fill:#FF67A0;" d="M2170.363,829.552c-41.439,33.384-52.253,88.712-24.162,123.584
								c28.091,34.868,84.456,36.079,125.896,2.691c41.434-33.384,52.252-88.712,24.161-123.58
								C2268.163,797.375,2211.802,796.168,2170.363,829.552"/>
						</g>
						<g>
							<path style="fill:#FF67A0;" d="M1364.484,829.552c41.439,33.384,52.253,88.712,24.157,123.584
								c-28.091,34.868-84.456,36.079-125.895,2.691c-41.435-33.384-52.253-88.712-24.157-123.58
								C1266.679,797.375,1323.045,796.168,1364.484,829.552"/>
						</g>
						<g>
							<path style="fill:#FFCEDA;" d="M1154.365,1717.632c87.348,262.596,372.706,331.227,620.59,331.227
								s533.286-68.631,620.59-331.182c-234.898-152.484-620.59-145.654-620.59-145.654S1389.263,1565.193,1154.365,1717.632"/>
						</g>
						<g>
							<path style="fill:#36276B;" d="M1774.955,2066.727c-166.148,0-394.038-30.508-536.187-175.859
								c-88.979-90.984-132.358-215.264-128.926-369.385c3.384-151.318,57.881-320.337,146.592-456.545
								c-24.541-11.682-47.49-27.979-67.28-47.878c-39.941-40.122-65.117-87.839-70.884-134.351
								c-6.377-51.387,10.229-98.428,48.018-136.035c72.832-72.485,183.97-62.559,270.254,24.131
								c19.717,19.785,35.879,42.72,47.461,67.209c89.863-54.822,187.637-82.593,290.952-82.593
								c98.276,0,191.704,25.203,278.032,74.954c11.182-21.628,25.82-41.599,43.677-59.563
								c86.26-86.697,197.397-96.619,270.264-24.143c37.788,37.612,54.39,84.653,48.018,136.04
								c-5.771,46.511-30.947,94.226-70.889,134.355c-16.597,16.663-34.961,30.562-54.8,41.492
								c91.274,137.388,147.363,308.877,150.806,462.925c3.447,154.111-39.912,278.384-128.887,369.37
								C2169.032,2036.214,1941.118,2066.727,1774.955,2066.727z M1280.424,733.787c-31.06,0-61.841,11.292-88.911,38.232
								c-29.663,29.522-42.715,66.274-37.754,106.284c4.8,38.679,26.372,78.999,60.742,113.53
								c21.606,21.724,47.505,38.364,74.902,48.127c5.234,1.865,9.307,6.06,11.016,11.348c1.709,5.286,0.859,11.069-2.295,15.644
								c-92.119,133.645-149.141,303.862-152.529,455.327c-3.208,144.136,36.743,259.736,118.74,343.582
								c133.457,136.458,351.338,165.103,510.62,165.103c159.297,0,377.202-28.647,510.654-165.12
								c81.987-83.845,121.929-199.436,118.701-343.564c-3.438-153.757-61.782-325.867-156.074-460.393
								c-3.081-4.397-4.023-9.941-2.568-15.107c1.455-5.168,5.151-9.407,10.073-11.55c23.145-10.078,44.331-24.68,62.974-43.398
								c34.37-34.531,55.942-74.849,60.742-113.528c4.961-40.01-8.091-76.763-37.754-106.284
								c-67.969-67.61-159.316-36.67-219.683,24.011c-19.57,19.685-34.58,42.114-44.604,66.66c-1.992,4.875-6.03,8.625-11.04,10.249
								c-5,1.628-10.479,0.955-14.951-1.821c-85.347-53.042-178.364-79.937-276.47-79.937c-103.218,0-200.61,29.688-289.473,88.24
								c-4.58,3.02-10.288,3.765-15.508,2.026c-5.21-1.741-9.326-5.776-11.172-10.947c-9.707-27.207-26.167-52.957-47.598-74.46
								C1374.868,759.537,1327.328,733.787,1280.424,733.787z"/>
						</g>
						<g>
							<path style="fill:#FDD800;" d="M1634.296,809.842c14.457-239.234,125.676-427.154,164.232-424.82
								c38.551,2.324,126.324,202.278,111.868,441.508"/>
						</g>
						<g style="opacity:0.6;">
							<g>
								<g>
									<path style="fill:#FFFFFF;" d="M1780.845,466.523c-22.284,7.85-86.714,133.106-61.001,183.262
										c4.26,8.301,15.221-0.036,27.031-13.317c27.505-30.947,43.522-70.335,47.09-111.577
										C1796.705,493.18,1795.972,461.199,1780.845,466.523"/>
								</g>
							</g>
						</g>
						<g>
							<path style="fill:#F0A500;" d="M1910.395,826.535l-276.118-16.687c2.539-42.007,8.073-82.418,15.646-120.491l75.341,4.555
								c68.627,4.148,125.565-53.348,119.775-121.854c-5.834-69.016-19.003-131.184-34.76-181.563
								C1852.299,424.308,1923.528,609.206,1910.395,826.535"/>
						</g>
						<g>
							<path style="fill:#36276B;" d="M1910.41,841.456c-0.303,0-0.61-0.01-0.913-0.027c-8.232-0.498-14.497-7.571-13.999-15.801
								c14.517-240.217-72.949-417.659-97.871-425.652c-25.708,4.927-133.911,170.527-148.433,410.767
								c-0.498,8.228-7.705,14.458-15.796,13.999c-8.232-0.498-14.497-7.571-13.999-15.801
								c8.672-143.54,50.313-254.719,74.36-308.218c13.892-30.896,62.036-130.649,104.092-130.649c0.527,0,1.05,0.015,1.582,0.046
								c42.407,2.561,78.965,109.626,89.16,142.38c17.432,56.006,45.376,171.394,36.699,314.929
								C1924.814,835.352,1918.241,841.456,1910.41,841.456z"/>
						</g>
						<g>
							<path style="fill:#36276B;" d="M1641.767,751.829c-7.9,0-14.492-6.201-14.893-14.182c-0.41-8.232,5.928-15.242,14.16-15.652
								c165.132-8.25,247.3-101.323,248.11-102.263c5.391-6.248,14.815-6.931,21.05-1.545c6.24,5.386,6.934,14.812,1.548,21.052
								c-3.652,4.229-91.46,103.689-269.214,112.571C1642.275,751.822,1642.021,751.829,1641.767,751.829z"/>
						</g>
						<g>
							<path style="fill:#36276B;" d="M1674.081,609.801c-7.642,0-14.155-5.84-14.849-13.599
								c-0.732-8.208,5.327-15.459,13.535-16.194c1.646-0.154,124.077-12.268,183.892-90.068c5.019-6.536,14.409-7.756,20.928-2.737
								c6.538,5.024,7.759,14.395,2.734,20.93c-67.979,88.43-199.336,101.111-204.893,101.606
								C1674.98,609.781,1674.531,609.801,1674.081,609.801z"/>
						</g>
						<g style="opacity:0.15;">
							<g>
								<g>
									<path style="fill:#36276B;" d="M2223.39,1052.387c0,0-56.526,181.648-217.187,152.677
										c-12.356-2.231-25.216-5.436-38.207-9.866c-25.927,8.788-145.024,45.547-247.692,15.48
										c-145.47,21.162-280.463,5.995-334.624-110.12c-23.362-50.071-23.268-97.67-13.214-138.412
										c24.868-100.639,122.341-164.8,224.92-150.531c12.226-12.704,27.219-22.857,44.077-29.531
										c108.023-42.753,182.721-0.21,218.099,29.526c15.016-9.468,33.111-14.014,51.779-12.003
										c41.542,4.412,78.243,19.397,106.481,34.886c32.642,17.921,56.79,48.185,67.255,83.929
										C2118.862,1034.412,2223.39,1052.387,2223.39,1052.387"/>
								</g>
							</g>
						</g>
						<g>
							<path style="fill:#FEF26B;" d="M1599.887,753.711c-102.744-14.443-200.379,49.731-225.255,150.459
								c-10.067,40.773-10.134,88.341,13.228,138.439c56.589,121.34,201.5,132.449,354.401,107.013
								c0,0-140.397-282.904-87.827-383.068C1654.433,766.554,1632.761,758.328,1599.887,753.711"/>
						</g>
						<g style="opacity:0.6;">
							<g>
								<g>
									<path style="fill:#FFFFFF;" d="M1622.326,819.315c0,0-21.654-8.221-54.559-12.843
										c-71.341-10.004-140.196,17.872-183.95,69.566c34.613-84.246,123.24-135.368,216.082-122.31
										c32.87,4.622,54.524,12.843,54.524,12.843C1601.857,866.727,1582.836,894.563,1622.326,819.315"/>
								</g>
							</g>
						</g>
						<g>
							<path style="fill:#FFD255;" d="M1742.241,1149.637c-152.873,25.431-297.772,14.305-354.365-107.035
								c-23.362-50.102-23.312-97.644-13.245-138.43c5.91-23.894,15.896-45.708,29.088-64.921
								c-5.373,35.843-2.222,75.9,17.282,117.786c48.176,103.271,160.289,126.695,286.891,115.752
								C1726.685,1118.296,1742.241,1149.637,1742.241,1149.637"/>
						</g>
						<g>
							<path style="fill:#36276B;" d="M1619.438,1175.799c-124.863,0.005-205.503-41.963-245.103-126.882
								c-22.051-47.273-26.821-97.178-14.194-148.325c26.626-107.795,130.537-177.3,241.826-161.66
								c34.136,4.792,56.812,13.308,57.764,13.667c3.994,1.516,7.144,4.67,8.657,8.665c1.514,3.994,1.245,8.445-0.737,12.227
								c-40.195,76.592,49.878,292.693,87.978,369.5c2.104,4.236,2.075,9.219-0.078,13.428c-2.153,4.211-6.177,7.153-10.84,7.93
								C1698.876,1171.971,1657.133,1175.797,1619.438,1175.799z M1570.82,766.597c-85.396,0-160.918,57.034-181.694,141.152
								c-10.957,44.36-6.831,87.612,12.261,128.55c43.467,93.201,147.817,126.531,318.755,101.67
								c-28.945-62.031-116.421-262.837-85.615-361.98c-8.965-2.439-21.616-5.376-36.714-7.497c0,0,0,0-0.005,0
								C1588.744,767.218,1579.721,766.597,1570.82,766.597z"/>
						</g>
						<g>
							<path style="fill:#FF76D5;" d="M1643.616,724.135c-38.297,15.159-66.718,48.256-75.569,88.484
								c-14.631,66.482-22.749,177.536,49.714,270.736c111.962,144,357.57,52.065,357.57,52.065s-107.366-285.845-90.241-358.303
								C1885.09,777.116,1798.716,662.763,1643.616,724.135"/>
						</g>
						<g>
							<path style="fill:#263166;" d="M1810.644,1166.119c-69.341,0-145.146-17.783-194.619-81.411
								c-74.668-96.035-63.457-211.99-50.127-272.563c8.999-40.889,37.749-74.556,76.909-90.056v-0.003
								c154.858-61.272,243.169,52.549,244.043,53.704c0.396,0.525,0.537,1.196,0.386,1.833
								c-16.782,70.982,89.087,354.17,90.156,357.021c0.205,0.547,0.186,1.152-0.059,1.685c-0.239,0.532-0.684,0.947-1.23,1.152
								C1974.726,1137.996,1897.802,1166.119,1810.644,1166.119z M1644.428,726.18L1644.428,726.18
								c-37.798,14.963-65.547,47.454-74.233,86.912c-16.079,73.069-20.576,179.036,49.307,268.911
								c104.263,134.094,328.95,60.474,352.983,52.092c-10.435-28-105.103-285.11-89.771-356.433
								C1874.648,767.738,1789.33,668.87,1644.428,726.18z"/>
						</g>
						<g style="opacity:0.6;">
							<g>
								<g>
									<path style="fill:#FFFFFF;" d="M1866.225,820.616c0,0-86.379-114.322-241.465-52.977
										c-23.281,9.249-42.95,25.091-56.763,45.145c0.04-0.036,0.045-0.112,0.049-0.148c8.847-40.25,37.273-73.357,75.574-88.497
										c155.086-61.385,241.469,52.977,241.469,52.977C1867.955,849.552,1852.729,877.727,1866.225,820.616"/>
								</g>
							</g>
						</g>
						<g>
							<path style="fill:#E52C9F;" d="M1975.318,1135.427c0,0-245.604,91.922-357.57-52.087
								c-72.462-93.164-64.336-204.259-49.7-270.74c4.43-20.197,13.822-38.574,26.889-53.822
								c-10.702,67.179-9.615,163.548,54.448,245.935c78.976,101.617,224.549,85.748,303.4,67.563
								C1965.743,1109.951,1975.318,1135.427,1975.318,1135.427"/>
						</g>
						<g>
							<path style="fill:#36276B;" d="M1810.331,1179.647c-72.07,0-151.387-19.006-204.351-87.129
								c-77.856-100.137-66.318-220.356-52.51-283.108c9.907-45.027,41.553-82.095,84.653-99.155l0,0
								c163.75-64.792,257.944,56.631,258.877,57.866c2.681,3.547,3.638,8.105,2.617,12.432
								c-13.188,55.791,60.269,271.289,89.688,349.617c1.392,3.708,1.255,7.82-0.386,11.426c-1.641,3.606-4.648,6.414-8.354,7.803
								C1974.833,1151.544,1897.939,1179.647,1810.331,1179.647z M1649.111,738.013c-33.857,13.401-58.716,42.49-66.489,77.813
								c-15.493,70.408-19.927,172.388,46.924,258.367c89.023,114.502,273.94,68.066,326.416,51.909
								c-22.515-61.448-95.938-269.465-86.738-344.722C1851.381,761.263,1775.248,688.099,1649.111,738.013L1649.111,738.013z"/>
						</g>
						<g>
							<path style="fill:#39D5FF;" d="M1913.525,741.627c-38.994-4.162-75.355,20.174-86.379,57.809
								c-13.066,44.609-22.999,111.864,0.099,185.815c34.506,110.464,115.314,149.99,181.134,161.854
								c160.638,28.963,217.169-152.699,217.169-152.699s-104.528-17.961-138.332-133.924
								c-10.429-35.789-34.568-66.039-67.246-83.964C1991.749,761.037,1955.031,746.057,1913.525,741.627"/>
						</g>
						<g>
							<path style="fill:#263166;" d="M2041.977,1152.406c-10.786,0-22.1-0.991-33.989-3.135
								c-63.721-11.484-147.168-49.153-182.842-163.364c-23.423-74.978-12.988-143.125-0.112-187.09
								c11.328-38.682,48.55-63.635,88.726-59.38c35.586,3.801,71.675,15.625,107.27,35.149
								c33.35,18.296,57.607,48.582,68.301,85.281c33.008,113.227,135.557,132.19,136.592,132.368
								c0.62,0.11,1.172,0.481,1.504,1.021c0.327,0.542,0.41,1.199,0.225,1.804
								C2227.118,996.759,2176.991,1152.406,2041.977,1152.406z M1904.848,743.365c-34.658,0-65.659,22.783-75.586,56.69
								c-12.71,43.381-23.008,110.61,0.083,184.539c35.024,112.107,116.904,149.075,179.424,160.347
								c147.119,26.506,206.597-128.03,213.901-148.894c-16.245-3.731-106.699-29.048-137.568-134.949
								c-10.366-35.569-33.872-64.922-66.191-82.649c-35.078-19.243-70.615-30.896-105.62-34.631
								C1910.458,743.514,1907.641,743.365,1904.848,743.365z"/>
						</g>
						<g style="opacity:0.6;">
							<g>
								<g>
									<path style="fill:#FFFFFF;" d="M2207.426,989.371c-28.668-3.339-105.35-20.348-148.095-107.326
										c-16.464-33.451-45.422-59.105-80.706-71.135c-30.456-10.393-69.199-18.846-110.88-16.057
										c-16.41,1.109-31.511,7.067-43.844,16.522c1.051-4.139,2.132-8.122,3.245-11.949
										c11.019-37.635,47.389-61.976,86.396-57.787c41.47,4.417,78.22,19.392,106.418,34.886
										c32.673,17.93,56.812,48.149,67.25,83.951C2112.232,946.305,2175.973,978.419,2207.426,989.371"/>
								</g>
							</g>
						</g>
						<g>
							<path style="fill:#1EB6F9;" d="M2225.529,994.405c0,0-56.504,181.68-217.16,152.681
								c-65.807-11.842-146.628-51.368-181.121-161.827c-23.098-73.951-13.152-141.21-0.107-185.824
								c2.07-7.023,4.984-13.563,8.668-19.566c-3.947,36.955-2.329,80.245,12.007,126.137
								c34.488,110.46,115.31,149.976,181.116,161.823c88.582,15.972,145.484-32.065,178.68-78.404
								C2218.538,993.216,2225.529,994.405,2225.529,994.405"/>
						</g>
						<g>
							<path style="fill:#36276B;" d="M2042.314,1165.169c-11.602,0-23.784-1.067-36.582-3.374
								c-55-9.915-153.174-45.457-192.734-172.095c-24.37-78.018-13.545-148.809-0.176-194.461
								c13.061-44.6,56.094-73.381,102.285-68.455h0.005c37.266,3.979,74.961,16.309,112.036,36.646
								c36.333,19.929,62.754,52.913,74.399,92.874c30.835,105.784,125.571,123.225,126.528,123.391
								c4.238,0.727,7.954,3.247,10.2,6.914c2.246,3.667,2.798,8.125,1.523,12.232
								C2239.238,1000.638,2186.24,1165.169,2042.314,1165.169z M1904.858,756.09c-29.063,0-55.059,19.107-63.384,47.542
								c-12.217,41.697-22.124,106.279,0.02,177.168c33.12,106.023,110.474,140.969,169.531,151.616
								c121.46,21.902,178.096-87.007,194.834-127.778c-33.228-10.715-105.112-44.402-132.974-139.978
								c-9.414-32.307-30.757-58.962-60.093-75.056c-33.599-18.428-67.529-29.578-100.855-33.135
								C1909.565,756.214,1907.202,756.09,1904.858,756.09z"/>
						</g>
						<g>
							<path style="fill:#FF67A0;" d="M1232.612,1656.075c0.554,35.597,44.725,63.773,98.658,62.932
								c53.933-0.84,97.205-30.38,96.651-65.976c-0.554-35.597-44.725-63.768-98.658-62.932
								C1275.329,1590.944,1232.057,1620.479,1232.612,1656.075"/>
						</g>
						<g>
							<path style="fill:#FF67A0;" d="M2100.035,1656.075c0.554,35.597,44.725,63.773,98.658,62.932
								c53.933-0.84,97.205-30.38,96.651-65.976c-0.554-35.597-44.72-63.768-98.658-62.932
								C2142.753,1590.944,2099.481,1620.479,2100.035,1656.075"/>
						</g>
						<g>
							<path style="fill:#ECB0D0;" d="M1734.113,1655.913c6.106,7.796,7.541,16.875,3.196,20.273
								c-4.341,3.402-12.807-0.161-18.918-7.962c-6.106-7.796-7.537-16.875-3.196-20.272
								C1719.53,1644.55,1728.006,1648.118,1734.113,1655.913"/>
						</g>
						<g>
							<path style="fill:#ECB0D0;" d="M1793.907,1654.984c-5.865,7.984-7.01,17.099-2.566,20.367
								c4.444,3.259,12.798-0.563,18.663-8.547c5.856-7.988,7.009-17.108,2.561-20.366
								C1808.122,1643.169,1799.767,1647,1793.907,1654.984"/>
						</g>
						<g>
							<path style="fill:#36276B;" d="M1691.213,1698.481c5.758,13.371,17.072,23.29,30.018,29.978
								c6.486,3.335,13.429,5.82,20.487,7.563c7.099,1.618,14.305,2.521,21.484,2.481c14.287-0.443,28.775-3.929,41.582-10.675
								c12.866-6.634,23.992-16.191,30.398-29.347l0.201-0.416c1.645-3.371,5.704-4.77,9.079-3.129
								c2.53,1.229,3.947,3.827,3.809,6.473c-0.532,9.83-4.515,19.316-10.027,27.335c-5.552,8.082-12.771,14.734-20.666,20.188
								c-15.985,10.613-35.037,16.437-54.376,16.133c-9.647-0.085-19.227-1.573-28.314-4.47
								c-9.128-2.776-17.796-6.924-25.686-12.289c-7.908-5.315-14.984-12.034-20.594-19.937c-5.561-7.894-9.593-17.228-10.483-26.96
								c-0.34-3.715,2.396-7.005,6.111-7.34c2.982-0.277,5.695,1.435,6.822,4.041L1691.213,1698.481z"/>
						</g>
						<g>
							<path style="fill:#36276B;" d="M1415.438,1440.678c-1.489,29.848,5.816,59.186,21.587,82.454
								c15.637,23.214,39.736,39.723,66.352,43.326c26.531,4.175,54.103-4.725,75.489-22.213
								c21.533-17.523,36.692-43.075,43.786-71.461l0.031-0.139c1.301-5.221,6.594-8.395,11.81-7.09
								c4.68,1.171,7.716,5.548,7.349,10.201c-2.584,33.455-18.189,66.767-44.304,90.183c-12.91,11.815-28.574,20.858-45.561,26.397
								c-17.031,5.431-35.494,6.822-53.241,4.054c-17.715-2.95-34.76-10.062-49.137-20.518
								c-14.314-10.541-26.245-23.952-34.694-39.097c-17.255-30.161-21.466-66.235-13.46-98.265c0.952-3.809,4.81-6.12,8.619-5.172
								c3.348,0.84,5.543,3.921,5.378,7.246L1415.438,1440.678z"/>
						</g>
						<g>
							<path style="fill:#36276B;" d="M1359.001,1440.539c2.682,2.937,5.494,5.409,8.489,7.305c3.026,1.873,6.281,3.227,9.781,4.292
								c6.991,2.11,14.859,3.098,22.852,3.804c7.005,0.621,12.172,6.795,11.556,13.795c-0.617,7.001-6.795,12.173-13.795,11.551
								c-1.283-0.112-2.508-0.416-3.643-0.872l-0.116-0.049c-8.301-3.397-16.732-7.09-24.805-12.539
								c-4.005-2.727-7.876-5.986-11.104-9.758c-3.219-3.795-5.682-7.957-7.613-12.052c-1.189-2.53-0.103-5.548,2.427-6.732
								c2.056-0.97,4.434-0.434,5.887,1.162L1359.001,1440.539z"/>
						</g>
						<g>
							<path style="fill:#36276B;" d="M1349.746,1476.239c6.285,6.884,14.922,11.051,23.871,12.874
								c8.999,1.846,18.341,1.408,27.295-0.443c6.862-1.417,13.572,2.991,14.993,9.848c1.417,6.862-2.991,13.572-9.848,14.989
								c-1.001,0.21-1.998,0.291-2.973,0.264l-0.34-0.018c-12.03-0.447-24.095-2.861-35.006-8.064
								c-10.845-5.145-20.594-13.263-26.298-23.835c-1.319-2.445-0.407-5.503,2.038-6.826c2.079-1.118,4.586-0.63,6.111,1.037
								L1349.746,1476.239z"/>
						</g>
						<g>
							<path style="fill:#36276B;" d="M1356.22,1519.71c0.514,0.143,1.323,0.523,1.556,0.653l0.416,0.179l0.769,0.295
								c0.487,0.192,0.992,0.335,1.484,0.496c1.01,0.295,2.025,0.568,3.089,0.765c2.088,0.447,4.287,0.648,6.464,0.791
								c4.394,0.232,8.9-0.125,13.371-0.818c4.461-0.612,8.936-1.77,13.339-2.973l6.585-2.11l6.513-2.432l0.326-0.121
								c6.567-2.45,13.88,0.894,16.334,7.461c2.45,6.571-0.89,13.885-7.461,16.339c-1.015,0.375-2.11,0.617-3.134,0.733
								l-7.993,0.818l-8.055,0.456c-5.422,0.067-10.818,0.049-16.276-0.581c-5.436-0.568-10.872-1.524-16.209-3.223
								c-2.664-0.885-5.297-1.851-7.859-3.138c-1.283-0.608-2.544-1.323-3.777-2.074c-0.617-0.398-1.234-0.773-1.819-1.203
								l-0.849-0.617l-0.385-0.291c-0.036-0.031,0.496,0.215,0.733,0.21c-2.655-0.782-4.166-3.567-3.389-6.222
								C1350.775,1520.448,1353.565,1518.928,1356.22,1519.71"/>
						</g>
						<g>
							<path style="fill:#36276B;" d="M2127.76,1438.509c8.006,32.03,3.795,68.104-13.46,98.265
								c-8.448,15.145-20.38,28.556-34.689,39.101c-14.381,10.451-31.426,17.564-49.146,20.514
								c-17.738,2.772-36.209,1.377-53.236-4.055c-16.987-5.538-32.655-14.582-45.561-26.397
								c-26.115-23.411-41.721-56.727-44.305-90.183c-0.416-5.36,3.594-10.045,8.963-10.46c4.806-0.371,9.07,2.816,10.197,7.349
								l0.036,0.139c7.094,28.39,22.248,53.938,43.786,71.461c21.377,17.488,48.949,26.392,75.485,22.213
								c26.616-3.603,50.715-20.111,66.352-43.321c15.771-23.268,23.075-52.61,21.587-82.458l-0.005-0.089
								c-0.197-3.921,2.825-7.255,6.746-7.452C2123.956,1432.966,2126.955,1435.281,2127.76,1438.509"/>
						</g>
						<g>
							<path style="fill:#36276B;" d="M2178.601,1446.013c-1.927,4.095-4.39,8.261-7.608,12.052
								c-3.227,3.773-7.099,7.036-11.108,9.758c-8.069,5.454-16.504,9.146-24.801,12.544l-0.063,0.018
								c-6.504,2.664-13.929-0.447-16.594-6.951c-2.664-6.504,0.452-13.934,6.956-16.593c1.194-0.487,2.477-0.787,3.697-0.899
								c7.997-0.706,15.865-1.694,22.856-3.809c3.5-1.059,6.755-2.418,9.781-4.291c2.995-1.896,5.807-4.363,8.489-7.305l0.081-0.085
								c1.882-2.065,5.078-2.213,7.144-0.331C2179.11,1441.646,2179.517,1444.06,2178.601,1446.013"/>
						</g>
						<g>
							<path style="fill:#36276B;" d="M2187.764,1481.853c-5.704,10.572-15.449,18.695-26.299,23.835
								c-10.907,5.203-22.972,7.617-35.006,8.064l-0.268,0.013c-7,0.255-12.883-5.208-13.147-12.208
								c-0.255-6.996,5.208-12.883,12.208-13.143c1.019-0.036,2.079,0.063,3.035,0.255c8.958,1.851,18.306,2.289,27.3,0.443
								c8.954-1.824,17.586-5.99,23.875-12.874l0.156-0.17c1.873-2.052,5.061-2.199,7.112-0.322
								C2188.47,1477.334,2188.837,1479.869,2187.764,1481.853"/>
						</g>
						<g>
							<path style="fill:#36276B;" d="M2175.82,1529.328c0.246,0.005,0.773-0.246,0.738-0.214l-0.385,0.295l-0.845,0.613
								c-0.59,0.433-1.211,0.809-1.823,1.207c-1.234,0.751-2.495,1.466-3.778,2.074c-2.566,1.287-5.19,2.253-7.859,3.138
								c-5.333,1.699-10.778,2.656-16.209,3.223c-5.458,0.626-10.854,0.648-16.276,0.577l-8.051-0.452l-7.997-0.823
								c-6.973-0.719-12.047-6.955-11.328-13.934c0.72-6.974,6.96-12.047,13.934-11.328c1.077,0.108,2.105,0.353,3.075,0.706
								l0.38,0.143l6.518,2.432l6.589,2.115c4.399,1.198,8.874,2.356,13.335,2.973c4.466,0.688,8.976,1.046,13.371,0.818
								c2.177-0.148,4.376-0.349,6.459-0.791c1.068-0.197,2.079-0.474,3.094-0.765c0.487-0.161,1.001-0.304,1.484-0.496l0.769-0.299
								l0.42-0.179c0.228-0.125,1.033-0.505,1.551-0.648c2.655-0.783,5.44,0.737,6.227,3.388
								C2179.995,1525.756,2178.479,1528.541,2175.82,1529.328"/>
						</g>
						<g>
							<path style="fill:#39D5FF;" d="M2116.545,2333.976c-6.75,11.489-12.025,17.881-12.025,17.881s2.682,2.593,6.571,7.197
								c0.889,1.118,1.922,2.28,2.95,3.576c9.075,11.444,21.815,30.8,24.72,52.212c9.075,67.903-23.469,146.047-63.164,226.105
								c-0.537,1.118-1.069,2.235-1.654,3.353c25.301,12.342,60.661,43.317,59.588,73.67c-0.849,24.05-9.388,44.483-20.384,61.019
								c-21.904,32.995-53.504,50.603-53.504,50.603s-13.102-14.971-27.273-50.603c-2.771-6.835-5.499-14.439-8.225-22.843
								c-7.644-23.603-7.689-57.353-8.717-67.63c-148.054,19.754-339.023,33.88-486.813,10.5
								c-12.333,21.055-34.506,47.519-69.105,51.721c-38.753,4.654-57.398,17.97-66.159,28.252
								c-6.258,7.242-7.555,12.964-7.555,12.964s-2.463-5.092-5.543-12.964c-6.616-16.808-16.093-46.267-10.863-66.11
								c10.818-41.22,29.995-55.167,76.039-67.411c-14.841-30.268-29.772-52.932-40.862-76.352
								c-8.802-18.601-15.239-37.688-17.336-61.426c-1.345-15.467-0.854-32.946,1.962-53.553
								c5.861-42.646,43.451-114.975,43.451-114.975s-4.694-6.124-11.086-16.585c-12.785-20.876-32.275-59.052-34.6-100.491
								c-2.593-47.34,6.616-85.381,20.116-118.551c11.712-28.739,26.598-53.911,39.785-78.363c1.162-2.186,2.324-4.336,3.487-6.527
								c-85.65-27.045-113.321-97.715-113.321-97.715s0.536-0.317,1.654-0.899c9.387-5.23,58.963-30.487,115.019-19.669
								c46.133,8.99,52.257,53.062,64.327,73.044c143.271-27.045,375.947-6.527,490.698,4.828
								c17.3-16.004,15.78-28.699,34.287-48.145c47.608-50.022,122.216,1.073,128.609,5.588c0.268,0.224,0.447,0.313,0.447,0.313
								s-19.49,19.267-32.633,48.726c-16.361,36.745-27.264,45.462-59.316,46.45c-0.094,0.045-0.228,0-0.407,0.045
								c32.32,66.557,63.522,132.761,64.64,200.888C2145.11,2277.029,2128.525,2313.551,2116.545,2333.976"/>
						</g>
						<g style="opacity:0.25;">
							<path style="fill:#36276B;" d="M2133.531,2717.971c-0.845,24.05-9.388,44.479-20.385,61.014h-80.777
								c-2.771-6.835-5.494-14.435-8.225-22.839c-7.644-23.603-7.684-57.353-8.717-67.635
								c-148.054,19.759-339.023,33.88-486.809,10.505c-12.338,21.055-34.51,47.519-69.106,51.721
								c-38.757,4.649-57.402,17.97-66.164,28.248h-13.098c-6.616-16.804-16.089-46.263-10.858-66.111
								c10.813-41.216,29.991-55.163,76.034-67.411c-14.841-30.264-29.772-52.932-40.858-76.352
								c-8.806-18.596-15.244-37.684-17.34-61.421c-1.345-15.467-0.854-32.946,1.962-53.558
								c5.861-42.646,43.451-114.97,43.451-114.97s-4.694-6.124-11.086-16.585l28.431-21.055l225.747-24.765
								c0,0,55.748,101.519-30.219,153.061c-83.594,50.111-163.651,0.223-150.423,52.57c15.735,62.226,253.373,58.158,265.979,57.89
								h0.492c12.472,0.268,250.289,4.376,265.979-57.89c13.276-52.346-66.83-2.458-150.379-52.57
								c-86.007-51.542-30.214-153.061-30.214-153.061l225.747,24.765l43.848,32.454c-6.75,11.489-12.025,17.881-12.025,17.881
								s2.682,2.593,6.571,7.197c0.894,1.117,1.922,2.28,2.955,3.576c9.07,11.439,21.815,30.796,24.716,52.208
								c9.074,67.907-23.469,146.047-63.165,226.109c-0.536,1.117-1.068,2.235-1.654,3.353
								C2099.244,2656.64,2134.604,2687.618,2133.531,2717.971"/>
						</g>
						<g>
							<path style="fill:#1EB6F9;" d="M1446.838,2025.184c1.176-2.195,2.347-4.367,3.496-6.54
								c-85.627-27.063-113.294-97.697-113.294-97.697s0.545-0.335,1.623-0.912c39.289,9.334,73.982,44.466,95.386,55.976
								c25.798,13.894,53.862,12.825,53.862,12.825L1446.838,2025.184z"/>
						</g>
						<g>
							<path style="fill:#1EB6F9;" d="M2172.052,1936.015c0,0-19.463,19.236-32.624,48.708
								c-16.375,36.719-27.26,45.476-59.298,46.455l-37.496-37.666c0,0,31.144,8.878,62.185-6.603
								c26.826-13.375,23.607-61.229,66.794-51.224C2171.9,1935.912,2172.052,1936.015,2172.052,1936.015"/>
						</g>
						<g style="opacity:0.3;">
							<g>
								<g>
									<path style="fill:#FFFFFF;" d="M2028.415,2758.753c0.259,2.669,0.487,6.799,0.751,11.909
										c-1.359-3.634-2.696-7.438-4.028-11.466C2026.225,2759.035,2027.333,2758.91,2028.415,2758.753"/>
								</g>
							</g>
						</g>
						<g style="opacity:0.6;">
							<g>
								<g>
									<path style="fill:#FFFFFF;" d="M2172.052,1936.015c0,0-1.864,1.833-4.779,5.239
										c-29.316-13.594-75.748-25.798-109.476,9.642c-19.714,20.697-18.082,34.251-36.517,51.305
										c-379.653-27.309-392.433,40.46-522.705-5.159c-12.852-21.287-19.405-68.229-68.497-77.791
										c-34.926-6.763-67.469-0.362-90.496,7.233c-1.734-3.509-2.543-5.539-2.543-5.539s54.327-32.646,116.673-20.568
										c46.101,8.963,52.248,53.053,64.322,73.021c143.244-27.027,375.929-6.5,490.707,4.846
										c17.295-15.999,15.771-28.726,34.273-48.158C2092.79,1877.804,2172.052,1936.015,2172.052,1936.015"/>
								</g>
							</g>
						</g>
						<g>
							<path style="fill:#36276B;" d="M2059.677,2847.474c-5.024,0-9.971-2.114-13.462-6.104
								c-2.158-2.461-21.572-25.625-39.087-79.712c-5.474-16.899-7.407-37.476-8.389-52.949
								c-133.198,16.948-313.867,30.889-461.299,9.707c-15.337,22.285-39.722,45.718-75.806,50.054
								c-47.295,5.703-57.261,25.044-58.467,27.852c-1.187,7.612-7.026,12.876-14.692,14.106
								c-7.715,1.245-15.357-3.569-18.794-10.688c-2.764-5.723-26.709-56.904-17.607-91.436
								c11.313-42.949,32.993-61.445,67.651-73.696c-4.043-7.505-8.052-14.614-11.983-21.592
								c-25.22-44.751-47.002-83.398-36.265-161.333c4.956-35.938,29.683-89.165,40.4-110.986
								c-12.807-19.253-39.858-65.64-42.749-117.632c-4.717-85.068,26.348-141.519,53.755-191.323
								c0.645-1.172,1.284-2.339,1.924-3.501c-77.061-32.969-103.267-97.805-104.429-100.769
								c-3.179-8.123-0.039-17.356,7.441-21.848c2.456-1.479,61.03-36.035,129.302-22.783c44.98,8.735,59.761,43.782,69.536,66.973
								c0.522,1.243,1.04,2.468,1.553,3.662c150.2-24.48,384.097-2.686,473.604,6.111c3.252-4.026,5.415-8.049,8.091-13.027
								c4.189-7.803,9.409-17.515,20.146-28.794c47.969-50.393,120.786-19.526,152.588,3.828c4.219,3.098,6.865,7.888,7.246,13.105
								c0.386,5.22-1.538,10.342-5.259,14.021c-0.142,0.139-17.344,17.49-28.862,43.306c-13.135,29.429-24.995,46.509-49.277,53.442
								c27.432,57.383,54.673,120.82,55.762,186.323c0.913,55.21-21.802,98.516-34.941,118.857
								c10.503,13.062,25.703,35.859,29.175,61.826c9.644,72.061-23.979,152.798-59.097,224.712
								c26.313,17.378,55.22,47.69,54.004,81.421c-2.92,81.06-79.751,124.785-83.022,126.606
								C2065.634,2846.737,2062.641,2847.474,2059.677,2847.474z M2015.419,2670.618c3.994,0,7.9,1.338,11.074,3.843
								c3.799,2.993,6.221,7.402,6.714,12.212c0.249,2.451,0.459,6.138,0.703,10.664c0.742,13.872,1.992,37.095,7.241,53.306
								c8.315,25.688,17.041,43.301,23.286,54.043c18.506-14.302,49.673-44.619,51.211-87.368
								c0.684-18.97-25.562-45.254-49.551-56.982c-4.277-2.095-7.544-5.806-9.077-10.317c-1.528-4.512-1.196-9.448,0.923-13.711
								c43.716-87.852,71.172-158.726,63.091-219.092c-3.652-27.344-28.76-52.314-29.014-52.563
								c-6.606-6.504-7.183-17.012-1.279-24.16c0.337-0.41,36.782-45.84,35.747-108.105
								c-1.094-66.128-33.896-133.745-62.842-193.403c-2.646-5.459-2.349-11.894,0.806-17.08c3.149-5.19,8.716-8.428,14.785-8.599
								c23.594-0.654,29.473-3.594,43.872-35.854c6.714-15.046,14.902-27.666,21.812-36.929
								c-22.368-11.604-62.476-25.938-88.97,1.902c-7.412,7.788-10.718,13.938-14.541,21.062
								c-4.458,8.293-9.512,17.698-20.513,27.879c-3.76,3.472-8.853,5.139-13.901,4.67c-83.203-8.218-336.397-33.22-485.645-5.049
								c-7.309,1.382-14.751-1.931-18.618-8.32c-3.413-5.647-6.138-12.112-9.023-18.958c-8.433-19.99-17.148-40.662-43.403-45.759
								c-36.323-7.048-70.229,3.303-88.965,11.091c12.271,20.085,40.571,55.552,94.38,72.563c5.054,1.597,9.136,5.352,11.147,10.251
								c2.017,4.902,1.753,10.444-0.718,15.132c-3.833,7.271-7.852,14.575-11.933,21.997c-26.318,47.822-53.53,97.275-49.385,172.1
								c3.115,56.011,41.611,106.685,41.997,107.188c4.238,5.508,4.897,12.974,1.694,19.141
								c-0.361,0.698-36.23,70.093-41.616,109.155c-9.097,65.991,7.251,94.995,31.992,138.892
								c6.958,12.344,14.844,26.333,22.593,42.129c2.363,4.81,2.441,10.42,0.225,15.293c-2.222,4.873-6.509,8.496-11.68,9.868
								c-42.334,11.25-54.771,21.982-63.384,54.668c-2.515,9.546,0.239,24.692,4.595,39.072
								c13.228-10.098,33.906-19.639,66.113-23.525c27.222-3.271,45.376-25.19,55.811-43.003c3.721-6.353,10.952-9.766,18.228-8.623
								c152.29,24.136,345.976,7.578,481.65-10.562C2013.842,2670.672,2014.633,2670.618,2015.419,2670.618z M1403.227,2795.906"/>
						</g>
						<g style="opacity:0.3;">
							<g>
								<g>
									<path style="fill:#000072;" d="M1857.066,2403.033c-0.063-0.206-0.094-0.406-0.099-0.603
										c0.286-0.304,0.443-0.452,0.443-0.452C1857.285,2402.327,1857.16,2402.68,1857.066,2403.033"/>
								</g>
							</g>
						</g>
						<g>
							<path style="fill:#36276B;" d="M1474.245,2659.565c4.13,2.879,9.061,5.927,13.808,8.476c4.815,2.597,9.745,4.881,14.68,6.84
								c4.931,2.011,9.937,3.473,14.828,4.649c4.904,1.18,9.732,1.658,14.327,1.9c9.946,0.519,17.59,9.003,17.072,18.954
								c-0.514,9.947-9.003,17.591-18.949,17.072c-1.547-0.081-3.035-0.353-4.452-0.796l-0.219-0.072
								c-6.804-2.168-13.259-4.739-19.173-7.917c-5.91-3.174-11.511-6.607-16.661-10.456c-5.181-3.809-10.054-7.854-14.649-12.132
								c-4.64-4.354-8.797-8.627-13.138-13.755c-3.205-3.777-2.736-9.432,1.046-12.637c3.165-2.682,7.653-2.79,10.907-0.523
								L1474.245,2659.565z"/>
						</g>
						<g>
							<path style="fill:#36276B;" d="M1492.418,1996.573c-2.325,2.289-5.253,5.253-7.792,8.047
								c-2.624,2.852-5.181,5.798-7.698,8.78c-5.025,5.981-9.857,12.136-14.515,18.431c-5.986,8.082-17.389,9.781-25.471,3.795
								c-8.087-5.986-9.79-17.389-3.8-25.476c1.363-1.842,3.008-3.353,4.828-4.515l0.282-0.17
								c7.139-4.524,14.407-8.855,21.837-12.937c3.715-2.038,7.465-4.023,11.287-5.914c3.916-1.922,7.519-3.603,12.029-5.485
								c4.586-1.909,9.848,0.264,11.752,4.846c1.453,3.478,0.55,7.354-1.98,9.852L1492.418,1996.573z"/>
						</g>
						<g>
							<path style="fill:#36276B;" d="M2044.022,1988.802c4.832,1.815,9.025,3.617,13.424,5.726
								c4.341,2.092,8.614,4.399,12.847,6.951c8.444,5.141,16.737,11.31,24.314,19.79l0.921,1.028
								c6.732,7.528,6.088,19.088-1.444,25.82c-7.523,6.728-19.083,6.084-25.816-1.444c-1.489-1.667-2.637-3.594-3.411-5.561
								c-2.414-6.205-6.62-12.839-11.774-19.061c-2.58-3.116-5.369-6.174-8.324-9.124c-2.901-2.906-6.209-5.874-9.137-8.342
								l-0.563-0.474c-3.8-3.205-4.287-8.887-1.086-12.682C2036.494,1988.436,2040.562,1987.506,2044.022,1988.802"/>
						</g>
						<g>
							<path style="fill:#36276B;" d="M2059.559,2659.622c-1.002,3.004-1.779,4.935-2.816,7.269
								c-1.015,2.199-2.105,4.372-3.317,6.455c-2.414,4.189-5.163,8.239-8.324,12.003c-3.165,3.737-6.598,7.38-10.425,10.599
								c-3.768,3.322-7.89,6.214-12.172,8.967l-0.572,0.371c-8.471,5.454-19.763,3.008-25.217-5.467
								c-5.453-8.471-3.004-19.763,5.463-25.212c1.922-1.238,4.046-2.074,6.151-2.521c3.21-0.671,6.486-1.426,9.629-2.593
								c3.219-1.064,6.272-2.548,9.321-4.188c3.044-1.667,5.923-3.675,8.672-5.892c1.381-1.104,2.678-2.302,3.947-3.522
								c1.184-1.126,2.534-2.731,3.29-3.455l1.998-1.913c3.496-3.344,9.048-3.223,12.391,0.273
								C2059.898,2653.216,2060.546,2656.64,2059.559,2659.622"/>
						</g>
						<g style="opacity:0.6;">
							<g>
								<g>
									<path style="fill:#FFFFFF;" d="M1882.456,2018.352c54.434-5.95,160.558,8.476,177.451,61.104
										c16.902,52.624-63.992,39.727-96.888,12.745c-32.896-26.991-66.741-40.111-83.509-48.024
										C1862.742,2036.274,1847.172,2022.21,1882.456,2018.352"/>
								</g>
							</g>
						</g>
						<g>
							<path style="fill:#FFFFFF;" d="M1600.856,2822.799c-48.994,9.656-91.863,6.75-129.186-5.543
								c-83.996-27.715-139.918-103.039-174.339-189.9l69.865-124.228c29.28,40.009,63.522,51.944,134.733,63.795
								c20.474,3.438,43.942,6.835,71.26,10.952C1702.067,2597.142,1718.111,2799.733,1600.856,2822.799"/>
						</g>
						<g style="opacity:0.15;">
							<g>
								<g>
									<path style="fill:#36276B;" d="M1600.856,2822.799c-48.994,9.656-91.863,6.75-129.186-5.543
										c-83.996-27.715-139.918-103.039-174.339-189.9l11.574-20.559c34.51,63.254,83.24,114.572,149.355,136.383
										c37.322,12.293,80.192,15.203,129.186,5.548c49.709-9.794,75.462-51.904,78.766-98.569
										C1696.922,2717.163,1676.985,2807.82,1600.856,2822.799"/>
								</g>
							</g>
						</g>
						<g>
							<path style="fill:#E693BE;" d="M1679.937,2709.118c1.654,52.436-24.005,102.865-79.079,113.683
								c-48.994,9.656-91.864,6.746-129.19-5.548c-17.523-22.217-32.99-50.245-38.086-83.951c7.912,3.755,16.182,7.063,24.676,9.879
								c37.326,12.293,80.196,15.203,129.19,5.543c49.709-9.79,75.458-51.899,78.766-98.564c0.581,1.252,1.117,2.499,1.654,3.75
								c1.073,2.503,2.056,5.011,2.95,7.51c1.475,3.934,2.727,7.957,3.8,11.985c0.268,0.934,0.492,1.917,0.755,2.901
								c0.188,0.536,0.318,1.117,0.407,1.698c0.268,1.118,0.536,2.235,0.76,3.353c0.626,2.687,1.118,5.364,1.52,8.096
								c0.179,0.979,0.308,1.918,0.447,2.901c0.219,1.43,0.407,2.865,0.536,4.292c0.224,1.654,0.358,3.353,0.492,5.007
								c0.179,1.609,0.268,3.219,0.308,4.783C1679.892,2707.334,1679.937,2708.224,1679.937,2709.118"/>
						</g>
						<g>
							<path style="fill:#F99BD8;" d="M1600.856,2822.799c-48.994,9.656-91.863,6.75-129.186-5.543
								c-24.407-30.979-44.975-73.357-38.717-126.463c6.442-54.939,33.263-99.508,68.976-123.87
								c20.474,3.438,43.942,6.835,71.26,10.952C1702.067,2597.142,1718.111,2799.733,1600.856,2822.799"/>
						</g>
						<g>
							<path style="fill:#E693BE;" d="M1679.937,2709.118c1.654,52.436-24.005,102.865-79.079,113.683
								c-48.994,9.656-91.864,6.746-129.19-5.548c-17.523-22.217-32.99-50.245-38.086-83.951c7.912,3.755,16.182,7.063,24.676,9.879
								c37.326,12.293,80.196,15.203,129.19,5.543c49.709-9.79,75.458-51.899,78.766-98.564c0.581,1.252,1.117,2.499,1.654,3.75
								c1.073,2.503,2.056,5.011,2.95,7.51c1.475,3.934,2.727,7.957,3.8,11.985c0.268,0.934,0.492,1.917,0.755,2.901
								c0.188,0.536,0.318,1.117,0.407,1.698c0.268,1.118,0.536,2.235,0.76,3.353c0.626,2.687,1.118,5.364,1.52,8.096
								c0.179,0.979,0.308,1.918,0.447,2.901c0.219,1.43,0.407,2.865,0.536,4.292c0.224,1.654,0.358,3.353,0.492,5.007
								c0.179,1.609,0.268,3.219,0.308,4.783C1679.892,2707.334,1679.937,2708.224,1679.937,2709.118"/>
						</g>
						<g>
							<path style="fill:#36276B;" d="M1544.892,2846.365c-116.641,0.01-209.155-73.638-264.185-212.393
								c-3.643-9.18,0.85-19.575,10.029-23.213c9.17-3.647,19.565,0.85,23.213,10.029
								c35.654,89.902,103.833,189.854,230.586,189.863c16.606,0,34.204-1.714,52.881-5.391
								c49.16-9.683,65.591-57.007,64.722-94.595c-1.133-49.019-30.278-105.952-91.592-115.107l-13.848-2.061
								c-115.508-17.173-163.315-24.282-203.926-79.824c-5.83-7.969-4.092-19.155,3.882-24.985
								c7.964-5.835,19.155-4.092,24.985,3.882c31.787,43.472,69.214,49.033,180.317,65.552l13.872,2.065
								c81.772,12.212,120.596,86.138,122.061,149.653c1.567,67.778-35.156,119.004-93.559,130.508
								C1583.91,2844.368,1564.067,2846.361,1544.892,2846.365z"/>
						</g>
						<g>
							<path style="fill:#FFFFFF;" d="M1909.757,2822.795c48.994,9.656,91.863,6.755,129.186-5.539
								c83.996-27.716,139.923-103.039,174.339-189.9l-69.865-124.228c-29.28,40.009-63.522,51.944-134.733,63.795
								c-20.474,3.438-43.942,6.835-71.26,10.952C1808.546,2597.142,1792.502,2799.733,1909.757,2822.795"/>
						</g>
						<g style="opacity:0.15;">
							<g>
								<g>
									<path style="fill:#36276B;" d="M1909.757,2822.795c48.994,9.656,91.863,6.755,129.186-5.539
										c83.996-27.716,139.923-103.039,174.339-189.9l-11.573-20.559c-34.51,63.254-83.24,114.572-149.355,136.383
										c-37.322,12.293-80.192,15.203-129.185,5.548c-49.709-9.794-75.458-51.904-78.766-98.569
										C1813.691,2717.163,1833.629,2807.82,1909.757,2822.795"/>
								</g>
							</g>
						</g>
						<g>
							<path style="fill:#F99BD8;" d="M1909.757,2822.795c48.994,9.656,91.863,6.755,129.186-5.539
								c24.407-30.979,44.975-73.357,38.717-126.463c-6.437-54.939-33.259-99.508-68.976-123.87
								c-20.474,3.438-43.942,6.835-71.26,10.952C1808.546,2597.142,1792.502,2799.733,1909.757,2822.795"/>
						</g>
						<g>
							<path style="fill:#E693BE;" d="M1830.677,2709.118c-1.654,52.436,24.005,102.86,79.078,113.678
								c48.994,9.656,91.864,6.75,129.19-5.543c17.523-22.213,32.99-50.245,38.086-83.951c-7.912,3.755-16.182,7.063-24.676,9.879
								c-37.326,12.293-80.196,15.203-129.19,5.543c-49.709-9.79-75.453-51.899-78.766-98.564c-0.581,1.247-1.117,2.499-1.654,3.75
								c-1.073,2.503-2.056,5.011-2.95,7.51c-1.475,3.934-2.722,7.957-3.8,11.98c-0.268,0.939-0.492,1.922-0.755,2.906
								c-0.183,0.536-0.318,1.117-0.402,1.698c-0.273,1.118-0.536,2.235-0.765,3.353c-0.626,2.687-1.118,5.364-1.52,8.096
								c-0.179,0.979-0.308,1.918-0.447,2.901c-0.219,1.43-0.402,2.865-0.536,4.292c-0.223,1.654-0.357,3.353-0.492,5.007
								c-0.179,1.609-0.268,3.219-0.308,4.783C1830.721,2707.334,1830.677,2708.224,1830.677,2709.118"/>
						</g>
						<g>
							<path style="fill:#36276B;" d="M1965.722,2846.365c-19.18,0-39.014-1.992-59.439-6.016
								c-58.403-11.504-95.127-62.729-93.56-130.508c1.465-63.516,40.288-137.441,122.061-149.653l13.872-2.065
								c111.104-16.519,148.53-22.08,180.317-65.552c5.83-7.969,17.021-9.712,24.985-3.882c7.974,5.83,9.712,17.017,3.882,24.985
								c-40.61,55.542-88.418,62.651-203.926,79.824l-13.848,2.061c-61.314,9.155-90.459,66.089-91.592,115.107
								c-0.869,37.588,15.561,84.912,64.722,94.595c161.182,31.743,243.14-82.793,283.472-184.473
								c3.643-9.18,14.028-13.677,23.213-10.029c9.18,3.643,13.672,14.033,10.029,23.213
								C2174.882,2772.713,2082.348,2846.361,1965.722,2846.365z"/>
						</g>
						<g>
							<path style="fill:#FFFFFF;" d="M2009.504,2427.933c5.257,0.367,10.398,0.648,15.494,0.778
								c116.199,4.395,181.827-35.279,181.827-35.279l-42.887-236.239c0,0-22.338,33.527-127.407,49.879
								c-20.465,3.196-44.036,5.686-71.188,7.202C1809.429,2222.928,1820.261,2414.827,2009.504,2427.933"/>
						</g>
						<g style="opacity:0.15;">
							<g>
								<g>
									<path style="fill:#36276B;" d="M2009.508,2427.933c5.257,0.362,10.398,0.648,15.494,0.773
										c91.609,3.456,151.756-20.447,173.137-30.742c-53.942,0.286-128.56-0.684-163.718-8.109
										c-114.635-24.229-163.454-83.169-159.968-133.973C1829.089,2315.449,1872.661,2418.461,2009.508,2427.933"/>
								</g>
							</g>
						</g>
						<g>
							<path style="fill:#F99BD8;" d="M2009.504,2427.933c5.257,0.367,10.398,0.648,15.494,0.778
								c22.414-29.445,36.786-68.77,38.328-112.319c1.444-41.059-8.681-79.146-26.795-109.32
								c-20.465,3.196-44.036,5.686-71.188,7.202C1809.429,2222.928,1820.261,2414.827,2009.504,2427.933"/>
						</g>
						<g>
							<path style="fill:#E693BE;" d="M2009.508,2427.933c5.257,0.362,10.398,0.648,15.494,0.773
								c8.337-10.983,15.588-23.326,21.448-36.781c-4.39-0.617-8.426-1.319-12.029-2.07
								c-114.635-24.229-163.454-83.169-159.968-133.973c-0.08,0.112-0.165,0.228-0.246,0.344c-0.693,0.912-1.386,1.824-2.007,2.803
								c-0.733,1.042-1.466,2.083-2.124,3.192c-0.518,0.778-0.997,1.614-1.471,2.405c-0.402,0.72-0.791,1.395-1.122,2.043
								c-0.568,0.952-1.05,1.922-1.542,2.946C1835.96,2330.022,1882.634,2419.118,2009.508,2427.933"/>
						</g>
						<g>
							<path style="fill:#36276B;" d="M2171.371,2162.168c-2.003,3.102-3.272,4.502-4.94,6.518c-1.609,1.663-3.192,3.563-4.908,5.02
								c-3.357,3.187-6.88,5.927-10.46,8.677c-7.277,5.065-14.792,9.772-22.588,13.576c-15.503,7.917-31.698,13.858-48.046,18.498
								c-32.722,9.548-66.164,14.43-99.463,17.3l-12.508,1.032l-11.189,1.109c-3.692,0.183-7.175,1.024-10.742,1.596
								c-3.603,0.487-7.009,1.448-10.424,2.387c-13.635,3.76-26.174,9.799-36.406,18.127c-10.152,8.413-17.51,19.392-21.533,31.573
								c-3.518,12.284-4.162,25.74-0.519,38.601c3.563,12.843,10.326,25.015,19.468,35.503c9.151,10.505,20.755,19.146,33.473,26.03
								c12.789,6.817,26.745,11.94,41.274,15.467c7.211,1.94,14.716,2.995,22.141,4.385c3.755,0.523,7.564,0.863,11.341,1.305
								l5.691,0.63l5.887,0.375c31.412,2.19,63.008,1.927,94.264-1.882c15.655-1.752,31.158-4.635,46.504-8.198
								c7.675-1.797,15.302-3.795,22.816-6.133c3.746-1.176,7.488-2.418,11.126-3.782c3.616-1.278,7.479-2.753,10.572-4.081
								l0.621-0.264c4.542-1.949,9.803,0.152,11.748,4.694c1.708,3.974,0.3,8.511-3.129,10.881
								c-7.676,5.315-14.922,9.173-22.687,13.008c-3.849,1.846-7.702,3.724-11.627,5.369l-5.869,2.557l-5.968,2.257
								c-15.941,5.995-32.346,10.733-48.989,14.269c-16.674,3.268-33.527,6.039-50.496,7.072c-4.238,0.286-8.484,0.693-12.727,0.876
								l-12.74,0.349c-8.507,0.331-16.974-0.139-25.467-0.331l-6.37-0.183l-6.522-0.577c-4.354-0.42-8.713-0.747-13.062-1.27
								c-8.713-1.35-17.421-2.611-26.026-4.962c-17.202-4.309-34.282-10.38-50.232-19.293
								c-15.883-8.954-30.769-20.434-42.968-34.783c-12.231-14.264-21.748-31.385-26.71-50.165
								c-5.043-18.717-4.926-39.195,0.612-58.31c5.941-18.985,17.335-36.303,32.159-49.056
								c14.855-12.781,32.476-21.216,50.326-26.129c4.47-1.256,8.949-2.476,13.46-3.147c4.502-0.769,9.016-1.774,13.509-2.065
								c4.39-0.438,9.262-0.845,13.259-1.113l11.976-0.751c31.935-1.815,63.679-5.127,94.577-11.068
								c7.778-1.404,15.32-3.294,22.964-5.074c7.461-2.119,15.015-4.117,22.239-6.71c7.309-2.494,14.314-5.427,21.117-8.686
								c3.241-1.766,6.616-3.433,9.611-5.413c1.618-0.934,2.901-1.985,4.412-2.964c1.211-0.885,2.865-2.369,3.285-2.566l4.381-2.07
								c4.14-1.953,9.079-0.183,11.033,3.956C2173.164,2156.817,2172.86,2159.844,2171.371,2162.168"/>
						</g>
						<g>
							<path style="fill:#FFFFFF;" d="M1512.39,2427.933c-5.257,0.367-10.398,0.648-15.494,0.778
								c-116.204,4.395-181.827-35.279-181.827-35.279l42.887-236.239c0,0,22.338,33.527,127.402,49.879
								c20.469,3.196,44.041,5.686,71.193,7.202C1712.465,2222.928,1701.634,2414.827,1512.39,2427.933"/>
						</g>
						<g style="opacity:0.15;">
							<g>
								<g>
									<path style="fill:#36276B;" d="M1512.386,2427.933c-5.257,0.362-10.398,0.648-15.494,0.773
										c-91.609,3.456-151.756-20.447-173.137-30.742c53.943,0.286,128.56-0.684,163.718-8.109
										c114.635-24.229,163.454-83.169,159.968-133.973C1692.805,2315.449,1649.233,2418.461,1512.386,2427.933"/>
								</g>
							</g>
						</g>
						<g>
							<path style="fill:#F99BD8;" d="M1512.39,2427.933c-5.257,0.367-10.398,0.648-15.494,0.778
								c-22.414-29.445-36.786-68.77-38.328-112.319c-1.444-41.059,8.681-79.146,26.79-109.32
								c20.469,3.196,44.041,5.686,71.193,7.202C1712.465,2222.928,1701.634,2414.827,1512.39,2427.933"/>
						</g>
						<g>
							<path style="fill:#E693BE;" d="M1512.386,2427.933c-5.257,0.362-10.398,0.648-15.494,0.773
								c-8.337-10.983-15.588-23.326-21.448-36.781c4.39-0.617,8.426-1.319,12.029-2.07
								c114.635-24.229,163.454-83.169,159.968-133.973c0.081,0.112,0.166,0.228,0.246,0.344c0.693,0.912,1.386,1.824,2.007,2.803
								c0.733,1.042,1.466,2.083,2.123,3.192c0.518,0.778,0.997,1.614,1.471,2.405c0.398,0.72,0.791,1.395,1.122,2.043
								c0.568,0.952,1.05,1.922,1.538,2.946C1685.929,2330.022,1639.26,2419.118,1512.386,2427.933"/>
						</g>
						<g>
							<path style="fill:#36276B;" d="M1365.401,2152.254c0.425,0.197,2.079,1.681,3.29,2.566c1.511,0.979,2.794,2.025,4.412,2.959
								c2.995,1.985,6.365,3.652,9.611,5.418c6.804,3.259,13.804,6.196,21.117,8.686c7.224,2.593,14.779,4.591,22.24,6.714
								c7.644,1.77,15.185,3.666,22.964,5.065c30.898,5.941,62.641,9.258,94.577,11.073l11.976,0.751
								c3.992,0.264,8.869,0.675,13.254,1.113c4.497,0.286,9.008,1.296,13.509,2.065c4.515,0.67,8.994,1.891,13.464,3.147
								c17.85,4.908,35.471,13.348,50.326,26.124c14.823,12.762,26.218,30.076,32.159,49.061c5.538,19.115,5.655,39.593,0.612,58.31
								c-4.966,18.775-14.479,35.896-26.71,50.165c-12.204,14.349-27.085,25.829-42.968,34.783
								c-15.95,8.909-33.031,14.984-50.232,19.294c-8.605,2.351-17.318,3.612-26.026,4.962c-4.35,0.523-8.708,0.845-13.067,1.27
								l-6.522,0.577l-6.365,0.183c-8.494,0.192-16.96,0.657-25.472,0.326l-12.736-0.344c-4.242-0.183-8.489-0.594-12.727-0.876
								c-16.969-1.037-33.822-3.804-50.496-7.072c-16.643-3.536-33.048-8.274-48.989-14.273l-5.968-2.253l-5.874-2.557
								c-3.921-1.645-7.774-3.522-11.623-5.369c-7.765-3.835-15.011-7.698-22.691-13.009c-4.059-2.812-5.074-8.386-2.262-12.445
								c2.463-3.563,7.045-4.783,10.88-3.134l0.621,0.268c3.098,1.327,6.96,2.803,10.577,4.081c3.639,1.363,7.38,2.61,11.126,3.782
								c7.515,2.333,15.136,4.336,22.812,6.133c15.351,3.567,30.853,6.442,46.508,8.198c31.256,3.809,62.852,4.072,94.264,1.882
								l5.887-0.375l5.691-0.63c3.777-0.443,7.582-0.787,11.341-1.301c7.425-1.395,14.926-2.454,22.141-4.39
								c14.524-3.527,28.484-8.65,41.274-15.467c12.718-6.884,24.323-15.525,33.469-26.03c9.146-10.487,15.91-22.66,19.472-35.502
								c3.643-12.861,3-26.316-0.518-38.605c-4.028-12.177-11.381-23.156-21.533-31.569c-10.232-8.323-22.771-14.367-36.406-18.127
								c-3.415-0.943-6.826-1.904-10.429-2.387c-3.563-0.572-7.045-1.413-10.742-1.596l-11.189-1.109l-12.503-1.033
								c-33.303-2.87-66.741-7.751-99.463-17.3c-16.352-4.64-32.543-10.577-48.046-18.502c-7.801-3.8-15.311-8.507-22.588-13.572
								c-3.581-2.749-7.103-5.49-10.46-8.677c-1.717-1.457-3.299-3.357-4.908-5.02c-1.667-2.016-2.937-3.415-4.94-6.518
								c-2.485-3.849-1.377-8.972,2.468-11.457c2.485-1.605,5.516-1.708,8.015-0.537L1365.401,2152.254z"/>
						</g>
					</g>
				</g>
			</g>
		</g>
		<g>
			<g>
				<g>
					<path style="fill:#000072;" d="M2792.464,1267.151l-200.704,44.001l-8.834-40.29l78.932-187.746l-111.626,24.472
						l-12.241-55.819l196.642-43.11l8.75,39.92l-79.958,188.365l116.802-25.607L2792.464,1267.151z"/>
				</g>
			</g>
			<g>
				<g>
					<path style="fill:#000072;" d="M2965.432,962.499l-142.191,15.302l-3.075-28.542l68.782-123.964l-79.089,8.512l-4.252-39.539
						l139.317-14.994l3.042,28.279l-69.538,124.312l82.753-8.904L2965.432,962.499z"/>
				</g>
			</g>
			<g>
				<g>
					<path style="fill:#000072;" d="M3248.391,1038.902l-163.646,17.61l-3.535-32.85l79.156-142.653l-91.016,9.795l-4.896-45.505
						l160.33-17.254l3.501,32.542l-80.025,143.059l95.234-10.249L3248.391,1038.902z"/>
				</g>
			</g>
			<g>
				<g>
					<path style="fill:#000072;" d="M3001.532,1270.294l-85.089,9.159l-1.837-17.086l41.158-74.174l-47.326,5.095l-2.543-23.657
						l83.364-8.972l1.821,16.918l-41.612,74.384l49.516-5.33L3001.532,1270.294z"/>
				</g>
			</g>
		</g>
	</g>
</g>
</svg>
