<?xml version="1.0" encoding="utf-8"?>
<!-- Generator: Adobe Illustrator 27.5.0, SVG Export Plug-In . SVG Version: 6.00 Build 0)  -->
<svg version="1.1" id="Layer_1" xmlns="http://www.w3.org/2000/svg" xmlns:xlink="http://www.w3.org/1999/xlink" x="0px" y="0px"
	 viewBox="0 0 4000 4000" style="enable-background:new 0 0 4000 4000;" xml:space="preserve">
<g>
	<g>
		<!-- <rect style="fill:#FFCC80;" width="4000" height="4000"/> -->
	</g>
	<g>
		<g>
			<g>
				<g>
					<path style="fill:#3A3A3A;" d="M1159.965,872.065l48.262,17.147c3.03,1.077,6.391-0.522,7.467-3.552l33.654-94.727
						c1.077-3.031-0.522-6.391-3.552-7.468l-48.263-17.147c-3.031-1.077-6.391,0.522-7.467,3.552l-33.654,94.727
						C1155.336,867.628,1156.934,870.988,1159.965,872.065z"/>
				</g>
				<g>
					<path style="fill:#3A3A3A;" d="M992.343,775.019l48.262,17.147c3.03,1.077,6.391-0.522,7.467-3.552l33.654-94.727
						c1.077-3.03-0.522-6.391-3.552-7.467l-48.263-17.147c-3.031-1.077-6.391,0.522-7.467,3.552l-33.654,94.727
						C987.714,770.582,989.313,773.943,992.343,775.019z"/>
				</g>
				<g>
					<path style="fill:#3A3A3A;" d="M796.031,1171.563l48.263,17.147c3.031,1.077,6.391-0.522,7.468-3.552l33.654-94.727
						c1.077-3.031-0.522-6.391-3.552-7.467l-48.263-17.147c-3.031-1.077-6.391,0.522-7.467,3.552l-33.654,94.727
						C791.402,1167.126,793.001,1170.487,796.031,1171.563z"/>
				</g>
				<g>
					<path style="fill:#3A3A3A;" d="M914.637,1284.677l48.262,17.147c3.031,1.077,6.391-0.522,7.468-3.552l33.654-94.727
						c1.077-3.031-0.522-6.391-3.552-7.468l-48.263-17.147c-3.031-1.077-6.391,0.522-7.467,3.552l-33.654,94.727
						C910.008,1280.24,911.607,1283.6,914.637,1284.677z"/>
				</g>
			</g>
			<g>
				<path style="fill:#A14709;" d="M1059.375,1224.094c-79.082,24.144-150.495-21.506-161.061-124.775
					c-1.629-15.92-15.47-27.808-31.412-26.411c-32.33,2.833-57.228-12.822-57.228-12.822c-51.294-47.7,6.616-202.699,72.419-278.333
					c27.033-31.072,69.049-44.181,109.147-34.78c12.213,2.864,26.371,6.847,41.964,12.387
					c52.874,18.785,45.715,82.104,45.715,82.104c127.828-32.177,181.92,97.432,166.746,162.998l501.255,481.58l-105.135,312.356"/>
			</g>
			<g style="opacity:0.6;">
				<g>
					<path style="fill:#FFFFFF;" d="M814.122,896.969c14.872-29.226,32.557-56.3,50.81-77.29
						c27.001-31.103,69.014-44.198,109.156-34.788c12.199,2.878,26.383,6.826,41.947,12.356
						c52.883,18.788,37.983,65.828,37.983,65.828c127.814-32.162,189.65,113.722,174.481,179.293l501.27,481.583l-91.327,271.228
						l3.335,3.247l105.149-312.351l-501.251-481.636c15.15-65.517-38.92-195.171-166.753-162.955c0,0,7.153-63.324-45.73-82.113
						c-15.563-5.529-29.729-9.531-41.928-12.409c-40.143-9.41-82.156,3.685-109.157,34.788
						C856.141,811.643,831.381,853.853,814.122,896.969z"/>
				</g>
			</g>
			<g>
				<path style="fill:#8E410C;" d="M854.584,886.273c0,0-52.548,97.117-26.344,127.479c26.205,30.362,72.001,19.26,83.68,43.811
					c11.679,24.551,2.756,72.072,33.587,101.006c30.831,28.934,98.751,33.071,94.531,33.585
					c-49.26,6.004-198.325-273.463-146.22-373.143L854.584,886.273z"/>
			</g>
			<g>
				<path style="fill:#FBA01C;" d="M2430.761,1508.508c0,0-38.227-107.413-121.009-136.824l-180.829-64.245
					c0,0-197.127-106.124-420.516,233.146c-243.648,354.762-368.189,876.428-141.254,926.805c20.99,4.66,38.271,19.527,46.98,39.185
					c10.516,23.736,21.18,61.306,23.82,118.444c2.232,48.313,9.394,96.311,23.407,142.6
					c33.252,109.841,113.886,274.27,307.263,366.726l201.88,71.723c743.687,141.512,1196.116-1003.657,830.334-1478.786
					c0,0-41.397-64.631-132.19-96.888l-307.627-109.293C2561.02,1521.102,2478.738,1503.659,2430.761,1508.508z"/>
			</g>
			<g style="opacity:0.18;">
				<path style="fill:#3A3A3A;" d="M2374.328,2932.027l51.146-57.616l308.428,109.578c0,0-254.347,258.8-495.862,219.911
					s-338.57-108.542-338.57-108.542l-45.795-64.103C2001.551,3092.209,2170.529,3075.883,2374.328,2932.027z"/>
			</g>
			<g style="opacity:0.18;">
				<path style="fill:#3A3A3A;" d="M2376.36,1499.104c0,0-14.688-46.27-49.932-72.776c0,0,8.627,46.823-62.64,40.45
					c-71.268-6.373-161.961-105.359-161.961-105.359s84.543,145.227,86.665,149.688c2.122,4.461,10.872,72.092,17.377,68.997
					s79.369-41.647,79.369-41.647"/>
			</g>
			<g style="opacity:0.18;">
				<path style="fill:#3A3A3A;" d="M1558.965,1928.683c0,0-81.674,192.625-64.337,352.451
					c17.338,159.827,90.086,127.361,119.868,153.58c29.781,26.219,64.763,84.36,66.975,177.174s49.264,285.872,217.309,357.799
					c235.661,100.867,383.08-39.384,466.877-116.528c0,0-466.926,115.608-576.112-203.477
					c-109.187-319.084-226.839-482.315-118.048-739.565s137.302-454.381,233-499.906c0,0-104.586,45.142-192.131,189.523
					C1624.82,1744.115,1558.965,1928.683,1558.965,1928.683z"/>
			</g>
			<g style="opacity:0.6;">
				<g>
					<path style="fill:#FFFFFF;" d="M2740.216,1741.383l28.743,152.8c0,0-5.869,218.984,5.439,223.002
						c8.401,2.985,200.589,47.915,298.781,70.791c3.354-133.208-18.776-260.066-70.267-366.423
						C2906.249,1791.819,2740.216,1741.383,2740.216,1741.383z"/>
				</g>
			</g>
			<g>
				<path style="fill:#3A3A3A;" d="M2296.685,3238.216c-42.778,0.003-86.108-4.16-129.922-12.495
					c-1.006-0.193-1.992-0.459-2.954-0.803l-201.88-71.724c-0.659-0.232-1.304-0.5-1.934-0.801
					c-196.226-93.816-281.113-257.874-317.778-378.977c-13.647-45.09-21.807-94.707-24.243-147.473
					c-2.617-56.59-13.477-91.741-22.129-111.265c-6.284-14.189-18.628-24.565-33.022-27.761
					c-52.603-11.675-91.938-47.131-113.765-102.531c-69.229-175.733,39.722-559.341,242.861-855.125
					c95.449-144.973,198.643-229.89,306.489-252.068c76.489-15.728,128.574,7.017,138.389,11.816l179.648,63.826
					c72.671,25.818,113.291,102.842,127.437,134.89c50.137-1.145,118.13,13.137,121.289,13.809c0.865,0.183,1.714,0.425,2.544,0.72
					l307.627,109.294c91.621,32.549,136.211,95.762,141.797,104.121c98.232,127.979,144.56,312.859,130.459,520.696
					c-13.452,198.284-79.448,402.751-185.83,575.737c-90.4,146.99-205.669,263.137-333.34,335.882
					C2523.013,3208.043,2411.87,3238.216,2296.685,3238.216z M2175.742,3186.703c289.834,54.475,563.804-89.629,751.948-395.557
					c219.478-356.885,244.112-808.999,57.295-1051.66c-0.352-0.457-0.684-0.928-0.996-1.414
					c-0.347-0.537-39.38-59.46-122.036-88.828l-306.328-108.831c-10.313-2.104-81.621-16.174-122.852-12.004
					c-9.179,0.901-17.769-4.521-20.854-13.196c-0.742-2.034-36.621-99.016-108.862-124.683l-180.825-64.243
					c-0.962-0.339-1.89-0.752-2.788-1.235c-0.342-0.178-45.938-23.379-115.982-8.035c-66.045,14.463-167.949,66.897-278.35,234.568
					c-193.389,281.594-302.661,656.106-238.833,818.137c17.207,43.672,45.078,69.231,85.21,78.142
					c26.743,5.935,49.526,24.856,60.933,50.61c14.6,32.949,23.184,75.215,25.513,125.623c2.285,49.463,9.878,95.801,22.573,137.727
					c34.268,113.206,113.408,266.426,295.806,354.028L2175.742,3186.703z"/>
			</g>
			<g>
				<path style="fill:#3A3A3A;" d="M2209.004,1610.924c-2.041,0-4.092-0.313-6.084-0.947c-6.396-2.043-11.343-7.158-13.164-13.618
					c-39.16-138.623-98.823-220.967-172.544-238.13c-70.342-16.389-154.951,27.651-244.658,127.329
					c-7.393,8.21-20.034,8.875-28.247,1.487c-8.213-7.39-8.877-20.037-1.489-28.25c100.049-111.165,198.086-159.407,283.467-139.531
					c83.379,19.412,150.059,101.807,193.779,238.938c90.488-59.431,203.896-69.214,209.092-69.634
					c10.962-0.874,20.659,7.317,21.543,18.335c0.888,11.006-7.315,20.647-18.316,21.541l0,0
					c-1.27,0.105-127.617,11.16-210.845,78.069C2217.935,1609.405,2213.501,1610.924,2209.004,1610.924z"/>
			</g>
			<g>
				<path style="fill:#3A3A3A;" d="M2402.329,1584.424c10.827-2.055,27.44-5.927,38.34-6.89l19.465-2.283
					c19.039-1.063,40.241-1.413,59.141,0.454c26.144,2.936,53.294,8.533,77.79,18.123c6.732,3.107,21.509,8.849,27.598,12.653
					c4.49,2.425,13.315,7.451,17.781,9.9c8.159,5.735,17.264,11.487,24.917,17.759c5.605,5.172,18.003,14.939,22.737,20.552
					c3.592,3.681,10.497,11.19,14.05,14.89c4.029,4.855,14.78,18.865,18.865,24.182c3.931,6.639,12.56,19.578,16.14,25.999
					c2.823,5.295,10.798,21.612,13.706,27.258c4.462,11.147,11.113,26.505,14.451,37.798
					c76.306,247.704-40.222,549.052-139.056,776.273c-42.444,95.035-93.61,187.056-157.826,269.333
					c-224.118,293.376-566.835,371.324-793.592,33.04c-13.978-22.747,17.983-43.605,33.239-22.259
					c27.771,41.48,59.772,80.055,96.928,112.453c69.812,60.967,157.241,97.085,250.242,91.811
					c257.375-18.998,438.534-284.104,534.534-500.813c93.746-209.383,192.039-491.782,144.747-721.41
					c-1.242-7.12-5.242-19.743-6.933-26.641c-2.425-10.586-8.307-24.33-11.677-34.639c-2.226-4.598-9.073-20.164-11.29-24.838
					c-3.265-6.578-10.017-17.309-13.359-23.682c-3.422-4.3-11.921-18.005-15.46-22.284c-2.894-3.293-8.773-10.459-11.657-13.802
					c-4.398-5.87-14.098-14.138-19.052-19.29c-6.168-5.831-14.568-11.701-21.035-17.232c-3.766-2.383-11.462-7.538-15.227-9.96
					c-5.638-4.188-17.976-9.796-24.026-13.211c-56.816-27.021-120.001-32.854-183.56-27.604c-1.609,0.218-3.089-1-3.21-2.61
					C2399.922,1585.991,2400.925,1584.702,2402.329,1584.424L2402.329,1584.424z"/>
			</g>
			<g style="opacity:0.18;">
				
					<ellipse transform="matrix(0.3348 -0.9423 0.9423 0.3348 -597.4297 3153.7468)" style="fill:#3A3A3A;" cx="1934.949" cy="2000.007" rx="256.751" ry="139.428"/>
			</g>
			<g style="opacity:0.6;">
				<g>
					
						<ellipse transform="matrix(0.3348 -0.9423 0.9423 0.3348 -645.3689 3135.3247)" style="fill:#FFFFFF;" cx="1897.931" cy="2024.749" rx="256.751" ry="139.428"/>
				</g>
			</g>
			<g>
				
					<ellipse transform="matrix(0.3348 -0.9423 0.9423 0.3348 -623.4969 3140.6865)" style="fill:#3A3A3A;" cx="1912.665" cy="2011.939" rx="256.751" ry="139.428"/>
			</g>
			<g>
				<path style="fill:#A14709;" d="M2191.685,2108.475l-154.859,285.91c-5.082,9.382-3.99,20.904,2.763,29.165l54.307,66.436
					c11.739,14.36,34.255,12.381,43.309-3.807l162.62-290.779c5.763-10.305,3.951-23.188-4.432-31.504l-62.069-61.566
					C2220.87,2089.976,2200.04,2093.05,2191.685,2108.475z"/>
			</g>
			<g>
				<path style="fill:#3A3A3A;" d="M2114.238,2519.642c-13.823,0-26.987-6.179-35.83-16.997l-54.307-66.435
					c-11.938-14.61-13.848-34.766-4.863-51.353l154.858-285.908c7.012-12.944,19.385-21.601,33.945-23.75
					c14.561-2.153,28.911,2.561,39.37,12.93l62.066,61.567c14.702,14.578,17.915,37.388,7.808,55.464l-162.622,290.781
					c-7.49,13.389-21.084,22.183-36.362,23.523C2116.944,2519.583,2115.586,2519.642,2114.238,2519.642z M2214.844,2114.703
					c-0.366,0-0.688,0.032-0.957,0.071c-1.162,0.171-3.31,0.821-4.614,3.228l0,0l-154.858,285.91
					c-1.221,2.253-0.962,4.993,0.664,6.98l54.307,66.436c1.836,2.246,4.16,2.378,5.42,2.285c1.24-0.11,3.531-0.669,4.947-3.201
					l162.617-290.776c1.372-2.456,0.938-5.554-1.06-7.534l-62.07-61.57C2217.74,2115.045,2216.065,2114.703,2214.844,2114.703z
					 M2191.685,2108.475h0.049H2191.685z"/>
			</g>
			<g>
				<path style="fill:#A14709;" d="M1059.375,1224.094l564.818,691.114c12.98,15.882,38,13.19,47.303-5.091l114.101-224.206
					c5.597-10.998,3.451-24.353-5.31-33.044l-629.672-624.643L1059.375,1224.094z"/>
			</g>
			<g>
				<path style="fill:#3A3A3A;" d="M1646.128,1945.643c-14.448,0-28.149-6.431-37.422-17.778l-564.819-691.113
					c-4.858-5.945-5.884-14.146-2.642-21.106l91.24-195.869c2.749-5.903,8.203-10.098,14.614-11.243
					c6.426-1.162,12.974,0.903,17.603,5.488l629.673,624.644c14.99,14.875,18.628,37.507,9.048,56.323l-114.102,224.199
					c-7.446,14.631-21.636,24.417-37.959,26.172C1649.609,1945.55,1647.861,1945.643,1646.128,1945.643z M1082.808,1221.158
					l556.875,681.392c2.505,3.059,5.693,3.225,7.397,3.035c1.689-0.181,4.79-1.013,6.587-4.539l114.102-224.207
					c1.665-3.267,1.03-7.192-1.567-9.773l-609.473-604.6L1082.808,1221.158z"/>
			</g>
			<g>
				<path style="fill:#3A3A3A;" d="M1746.914,1506.046c-4.985,0-9.976-1.851-13.853-5.579l-501.255-481.58
					c-5.078-4.88-7.217-12.073-5.63-18.936c7.207-31.135-4.956-82.585-37.783-114.788c-27.251-26.738-62.466-34.907-104.595-24.302
					c-6.362,1.597-13.11-0.02-18.047-4.338c-4.941-4.319-7.451-10.786-6.714-17.305c0.19-1.853,4.463-47.866-32.529-61.011
					c-13.31-4.727-26.714-8.684-39.834-11.76c-33.179-7.776-67.471,3.118-89.497,28.435
					c-62.598,71.958-111.074,211.128-75.337,249.111c5.112,2.693,22.456,10.803,43.315,8.987
					c26.435-2.297,50.317,17.546,53.057,44.299c4.614,45.061,22.407,80.01,50.112,98.411c23.472,15.583,53.721,18.884,85.21,9.27
					c10.542-3.225,21.743,2.725,24.971,13.291c3.228,10.564-2.725,21.746-13.291,24.971c-43.145,13.169-85.405,8.12-119.019-14.207
					c-37.856-25.142-61.929-70.479-67.778-127.661c-0.537-5.212-4.858-8.997-9.775-8.521c-38.521,3.384-68.364-15.027-69.619-15.815
					c-1.06-0.667-2.056-1.433-2.974-2.285c-66.992-62.3,7.866-233.596,70.947-306.111c31.792-36.54,81.157-52.295,128.809-41.125
					c14.56,3.415,29.395,7.793,44.092,13.013c39.722,14.114,54.6,48.887,58.398,77.1c45.518-5.186,86.787,8.264,118.115,38.994
					c40.508,39.744,55.596,99.25,50.732,140.757l493.633,474.258c7.969,7.654,8.223,20.315,0.566,28.281
					C1757.417,1503.988,1752.168,1506.046,1746.914,1506.046z"/>
			</g>
			<g>
				<path style="fill:#3A3A3A;" d="M1150.601,1048.231c-8.965,0-17.119-6.067-19.39-15.156
					c-2.681-10.718,3.838-21.577,14.556-24.255l95.049-23.76c10.723-2.673,21.577,3.835,24.253,14.553
					c2.681,10.718-3.838,21.577-14.556,24.255l-95.049,23.76C1153.838,1048.036,1152.207,1048.231,1150.601,1048.231z"/>
			</g>
			<g>
				<path style="fill:#3A3A3A;" d="M1149.375,1039.286c-2.671,0-5.376-0.625-7.91-1.946c-8.398-4.375-11.655-14.731-7.28-23.127
					c21.064-40.408,16.948-89.883-10-120.31c-26.167-29.541-67.856-35.566-117.417-16.946c-5.098,1.909-10.806,1.296-15.376-1.677
					c-4.57-2.969-7.451-7.935-7.768-13.374c-2.197-37.673-21.445-72.937-44.771-82.026c-14.282-5.581-29.37-0.789-44.834,14.189
					c-6.797,6.587-17.656,6.418-24.243-0.386c-6.587-6.802-6.416-17.656,0.386-24.243c34.033-32.959,65.444-27.629,81.143-21.511
					c31.035,12.092,55.591,47.722,63.838,90.352c54.6-14.568,102.9-3.03,134.712,32.886
					c36.162,40.828,42.222,106.167,14.741,158.897C1161.538,1035.926,1155.562,1039.286,1149.375,1039.286z"/>
			</g>
			<g>
				<path style="fill:#3A3A3A;" d="M1066.914,983.35l-1.693,4.764c-6.699,18.855-30.239,25.11-45.413,12.065l-75.325-64.752
					c-8.926-7.674-12.214-20.047-8.273-31.139v0c6.504-18.307,29.021-24.875,44.348-12.937l77.017,59.988
					C1067.261,958.882,1071.024,971.782,1066.914,983.35z"/>
			</g>
			<g>
				<path style="fill:#3A3A3A;" d="M1016.168,1075.393l-1.692,4.764c-6.699,18.855-30.239,25.11-45.413,12.065l-75.325-64.752
					c-8.926-7.674-12.214-20.047-8.273-31.139h0c6.504-18.307,29.021-24.875,44.348-12.937l77.017,59.988
					C1016.515,1050.926,1020.278,1063.825,1016.168,1075.393z"/>
			</g>
			<g>
				<path style="fill:#3A3A3A;" d="M1532.28,1819.908c-2.534,0-5.107-0.564-7.539-1.755c-8.501-4.172-12.012-14.443-7.837-22.944
					l130.659-266.292c4.17-8.499,14.429-12.009,22.944-7.842c8.501,4.172,12.012,14.446,7.837,22.944l-130.659,266.292
					C1544.707,1816.383,1538.618,1819.908,1532.28,1819.908z"/>
			</g>
			<g>
				<path style="fill:#3A3A3A;" d="M1413.569,1674.642c-2.534,0-5.107-0.564-7.534-1.755c-8.501-4.17-12.017-14.441-7.847-22.944
					l116.821-238.157c4.16-8.499,14.448-12.009,22.939-7.842c8.501,4.17,12.017,14.441,7.847,22.944l-116.821,238.157
					C1426.001,1671.117,1419.907,1674.642,1413.569,1674.642z"/>
			</g>
			<g>
				<path style="fill:#3A3A3A;" d="M1321.284,1561.734c-2.534,0-5.107-0.564-7.539-1.755c-8.501-4.172-12.012-14.443-7.837-22.944
					l116.494-237.424c4.17-8.496,14.453-12.019,22.944-7.834c8.501,4.172,12.012,14.446,7.837,22.947l-116.494,237.415
					C1333.711,1558.209,1327.622,1561.734,1321.284,1561.734z"/>
			</g>
			<g>
				<path style="fill:#3A3A3A;" d="M1253.394,1478.663c-2.534,0-5.107-0.564-7.534-1.755c-8.501-4.17-12.017-14.443-7.842-22.944
					l109.858-223.923c4.336-8.423,14.668-11.741,23.091-7.405c8.418,4.331,11.733,14.668,7.407,23.088l-0.396,0.769l-109.18,222.573
					C1265.82,1475.138,1259.732,1478.663,1253.394,1478.663z"/>
			</g>
			<g>
				<path style="fill:#3A3A3A;" d="M1184.746,1394.654c-2.534,0-5.107-0.564-7.534-1.755c-8.501-4.17-12.012-14.441-7.847-22.944
					l104.067-212.175c4.17-8.499,14.443-12.012,22.944-7.842s12.017,14.441,7.847,22.942l-104.067,212.175
					C1197.178,1391.129,1191.084,1394.654,1184.746,1394.654z"/>
			</g>
			<g>
				<path style="fill:#3A3A3A;" d="M1119.556,1314.908c-2.534,0-5.112-0.564-7.544-1.758c-8.496-4.175-12.007-14.448-7.832-22.947
					l99.17-201.97c4.165-8.499,14.443-12.009,22.949-7.834c8.496,4.175,12.007,14.448,7.832,22.947l-99.17,201.97
					C1131.983,1311.385,1125.889,1314.908,1119.556,1314.908z"/>
			</g>
			<g>
				<g>
					<path style="fill:#F9F4F5;" d="M2213.423,2196.537c-2.237,0-4.473-0.871-6.157-2.605L1138.609,1091.271
						c-3.296-3.401-3.208-8.828,0.19-12.122c3.394-3.296,8.818-3.21,12.124,0.188L2219.58,2181.998
						c3.296,3.401,3.208,8.828-0.19,12.121C2217.725,2195.733,2215.571,2196.537,2213.423,2196.537z"/>
				</g>
				<g>
					<path style="fill:#F9F4F5;" d="M2105.371,2378.568c-2.397,0-4.78-0.999-6.475-2.949L1076.577,1198.622
						c-3.105-3.577-2.725-8.989,0.85-12.095c3.564-3.108,8.984-2.725,12.09,0.85l1022.319,1176.997
						c3.105,3.576,2.725,8.989-0.85,12.095C2109.365,2377.877,2107.363,2378.568,2105.371,2378.568z"/>
				</g>
				<g>
					<path style="fill:#F9F4F5;" d="M2179.698,2245.524c-2.271,0-4.536-0.896-6.221-2.674L1111.06,1122.34
						c-3.257-3.435-3.115-8.862,0.322-12.119c3.442-3.254,8.867-3.113,12.119,0.322l1062.417,1120.51
						c3.257,3.435,3.115,8.862-0.323,12.119C2183.936,2244.745,2181.816,2245.524,2179.698,2245.524z"/>
				</g>
				<g>
					<path style="fill:#F9F4F5;" d="M2141.636,2310.575c-2.329,0-4.654-0.942-6.343-2.8L1096.89,1167.381
						c-3.188-3.501-2.935-8.923,0.566-12.109s8.931-2.932,12.109,0.566l1038.403,1140.393c3.188,3.501,2.934,8.923-0.566,12.109
						C2145.762,2309.837,2143.691,2310.575,2141.636,2310.575z"/>
				</g>
			</g>
			<g>
				<path style="fill:#3A3A3A;" d="M2101.694,2418.5c-3.262,0-6.572-0.801-9.634-2.488c-9.678-5.332-13.198-17.497-7.866-27.173
					l127.632-231.638c5.332-9.67,17.495-13.203,27.173-7.866c9.673,5.332,13.198,17.497,7.866,27.173l-127.632,231.638
					C2115.591,2414.76,2108.75,2418.5,2101.694,2418.5z"/>
			</g>
			<g>
				<path style="fill:#3A3A3A;" d="M1059.36,1244.1c-2.827,0-5.698-0.603-8.433-1.875c-10.015-4.666-14.351-16.565-9.683-26.58
					l91.24-195.869c4.658-10.01,16.553-14.346,26.577-9.685c10.015,4.666,14.351,16.565,9.683,26.58l-91.24,195.869
					C1074.116,1239.82,1066.9,1244.1,1059.36,1244.1z"/>
			</g>
			<g style="opacity:0.6;">
				<g>
					<path style="fill:#FFFFFF;" d="M2420.25,1629.518c0,0,226.555-24.333,283.041,215.801s-154.571,682.191-154.571,682.191
						C2793.435,1699.884,2227.474,1658.556,2420.25,1629.518z"/>
				</g>
			</g>
			<g style="opacity:0.6;">
				<g>
					<path style="fill:#FFFFFF;" d="M2141.035,1592.675c0,0-41.417-222.096-168.029-212.549
						c-8.013,0.604-15.728,4.304-20.644,10.661C1921.749,1430.376,2060.907,1459.728,2141.035,1592.675z"/>
				</g>
			</g>
		</g>
	</g>
</g>
</svg>
