<?xml version="1.0" encoding="utf-8"?>
<!-- Generator: Adobe Illustrator 27.5.0, SVG Export Plug-In . SVG Version: 6.00 Build 0)  -->
<svg version="1.1" id="Layer_1" xmlns="http://www.w3.org/2000/svg" xmlns:xlink="http://www.w3.org/1999/xlink" x="0px" y="0px"
	 viewBox="0 0 4000 4000" style="enable-background:new 0 0 4000 4000;" xml:space="preserve">
<g>
	<g>
		<!-- <rect style="fill:#FBE67B;" width="4000" height="4000"/> -->
	</g>
	<g style="opacity:0.2;">
		<ellipse style="fill:#371A45;" cx="2000" cy="3318.181" rx="955" ry="175.984"/>
	</g>
	<g>
		<g>
			<path style="fill:#F2A41C;" d="M2436.31,2058.04c391.958,31.852,669.527,143.291,681.554,296.489
				c16.729,213.091-486.233,426.393-1123.438,476.418s-1167.292-82.177-1184.021-295.268
				c-12.027-153.197,244.751-306.586,626.937-399.213"/>
			<path style="fill:#371A45;" d="M1727.754,2843.948c-208.066,0.005-400.566-20.264-558.589-59.673
				c-224.692-56.035-352.942-144.258-361.118-248.413c-5.886-74.98,51.772-152.617,166.743-224.507
				c111.411-69.668,271.167-130.938,461.997-177.192l1.113,4.6c-190.342,46.133-349.619,107.202-460.601,176.602
				c-113.381,70.898-170.276,147.017-164.536,220.127c8.005,101.968,134.985,188.691,357.544,244.194
				c223.389,55.703,516.001,73.076,823.931,48.901c634.868-49.839,1137.871-262.417,1121.269-473.872
				c-5.737-73.11-73.818-139.424-196.87-191.758c-120.459-51.23-287.31-86.694-482.519-102.559l0.381-4.717
				c195.713,15.903,363.071,51.494,483.989,102.92c124.78,53.071,193.848,120.757,199.736,195.742
				c8.179,104.155-104.731,211.309-317.93,301.724c-212.417,90.078-499.258,153.022-807.685,177.236
				C1903.891,2840.427,1814.453,2843.948,1727.754,2843.948z"/>
		</g>
		<g style="opacity:0.3;">
			<path style="fill:#371A45;" d="M1994.443,2830.964c-388.887,30.506-737.911-6.827-954.648-89.034
				c217.549,62.921,529.575,88.796,872.679,61.871c637.18-50.031,1140.164-263.332,1123.407-476.393
				c-6.54-83.019-91.039-153.817-229.531-206.282c186.614,53.898,303.767,135.055,311.5,233.399
				C3134.607,2567.632,2631.623,2780.932,1994.443,2830.964z"/>
			<path style="fill:#371A45;" d="M1731.074,2843.758c-273.472,0-521.216-34.795-692.119-99.614l1.499-4.482
				c225.034,65.083,542.822,87.617,871.836,61.782c307.92-24.18,594.229-86.997,806.191-176.885
				c211.177-89.551,323.062-195.015,315.044-296.968c-6.265-79.487-85.112-150.117-228.018-204.253l1.494-4.487
				c194.448,56.162,305.684,139.79,313.208,235.488c8.188,104.16-104.712,211.323-317.915,301.738
				c-212.407,90.078-499.243,153.027-807.666,177.246C1905.312,2840.33,1816.909,2843.758,1731.074,2843.758z M1102.285,2760.789
				c224.692,69.185,551.382,94.541,891.973,67.817l0,0c307.93-24.18,594.238-87.002,806.191-176.885
				c211.177-89.561,323.062-195.039,315.044-297.012c-6.695-85.103-98.272-160.742-259.497-215.547
				c113.867,51.821,176.592,116.284,182.246,188.057c8.189,104.141-104.717,211.289-317.915,301.699
				c-212.417,90.078-499.253,153.022-807.666,177.241C1612.768,2829.685,1322.138,2813.113,1102.285,2760.789z"/>
		</g>
		<g style="opacity:0.6;">
			<path style="fill:#FFFFFF;" d="M2817.568,2124.418c-88.748-20.671-189.908-35.948-300.091-44.875l-998.998,78.388
				c-382.155,92.663-638.946,246.05-626.916,399.246c7.543,96.386,120.16,176.207,300.234,230.057
				c-226.906-52.848-372.751-141.405-381.392-251.54c-12.03-153.196,244.761-306.583,626.916-399.246l998.998-78.388
				C2581.735,2069.852,2711.396,2092.623,2817.568,2124.418z"/>
		</g>
		<g>
			<g>
				<path style="fill:#BC5815;" d="M1083.723,1463.675c44.256,563.723,468.236,847.765,867.457,816.424
					s773.683-378.066,729.427-941.789"/>
			</g>
			<g>
				<path style="fill:#371A45;" d="M1892.124,2284.773c-184.463,0-367.28-66.904-509.321-187.939
					c-176.499-150.4-280.737-369.282-301.435-632.974l4.717-0.371c44.707,569.468,479.043,844.526,864.912,814.253
					c385.923-30.298,771.958-369.78,727.251-939.248l4.717-0.371c20.703,263.696-48.101,496.162-198.97,672.266
					c-134.404,156.88-328.54,256.05-532.627,272.07C1931.635,2284.007,1911.865,2284.773,1892.124,2284.773z"/>
			</g>
		</g>
		<g style="opacity:0.6;">
			<g>
				<path style="fill:#FFFFFF;" d="M1919.062,2281.911c-389.555,14.131-792.286-269.585-835.347-818.256
					c2.483,31.413,25.445,59.77,65.021,84.26C1220.632,2016.67,1568.08,2269.355,1919.062,2281.911z"/>
			</g>
		</g>
		<g style="opacity:0.6;">
			<g>
				<path style="fill:#FFFFFF;" d="M2680.938,1342.587h-0.095c-0.048-1.432-0.143-2.864-0.239-4.297
					C2680.699,1339.723,2680.842,1341.155,2680.938,1342.587z"/>
			</g>
		</g>
		<g>
			<g>
				<path style="fill:#BC5815;" d="M2680.607,1338.309c10.268,130.793-338.918,264.846-779.853,299.463
					s-806.763-43.304-817.031-174.097c-2.759-35.143,20.418-70.466,64.346-104.102c18.221-13.91,39.996-27.594,64.968-40.741
					c1.826-0.987,3.707-1.977,5.592-2.912c1.881-0.991,3.815-1.986,5.7-2.921c2.142-1.124,4.343-2.196,6.544-3.268
					c2.724-1.338,5.448-2.676,8.23-3.963c0.992-0.527,1.989-0.999,2.99-1.415c3.409-1.617,6.823-3.178,10.345-4.747
					c6.98-3.246,14.132-6.394,21.509-9.446c3.053-1.308,6.11-2.56,9.167-3.811c6.164-2.564,12.494-5.085,18.937-7.558
					c3.224-1.209,6.443-2.473,9.72-3.686c5.704-2.191,11.52-4.333,17.448-6.429c139.013-49.702,326.513-88.144,534.356-104.461
					c211.141-16.576,404.995-7.341,550.906,21.117c10.83,2.129,21.394,4.335,31.642,6.679c3.319,0.695,6.588,1.45,9.862,2.262
					c0.554,0.125,1.107,0.25,1.661,0.375c2.661,0.634,5.322,1.269,7.988,1.959c3.215,0.759,6.38,1.579,9.491,2.403
					c3.111,0.824,6.219,1.592,9.28,2.476c6.11,1.6,12.174,3.317,18.081,5.101c2.562,0.755,5.123,1.509,7.631,2.268
					c6.969,2.151,13.722,4.32,20.268,6.616c2.012,0.685,4.024,1.37,5.983,2.06c3.074,1.052,6.154,2.159,9.125,3.275
					c3.754,1.392,7.404,2.848,10.997,4.252c3.592,1.404,7.134,2.869,10.569,4.342c4.897,2.089,9.573,4.139,14.15,6.309
					c4.573,2.115,8.983,4.242,13.294,6.489c2.097,1.072,4.198,2.2,6.242,3.277c0,0,0.054-0.004,0.059,0.052
					C2649.439,1271.837,2677.848,1303.166,2680.607,1338.309z"/>
			</g>
			<g>
				<path style="fill:#371A45;" d="M1694.433,1648.401c-135.532,0-260.654-11.274-364.185-33.335
					c-155.439-33.12-243.828-86.816-248.882-151.206c-2.764-35.171,19.199-70.889,65.264-106.167
					c18.394-14.043,40.366-27.822,65.303-40.957c1.831-0.986,3.735-1.992,5.645-2.934c1.851-0.977,3.799-1.978,5.698-2.925
					c2.056-1.074,4.204-2.124,6.362-3.174c2.934-1.445,5.674-2.788,8.472-4.087c0.942-0.503,2.007-1.006,3.076-1.45
					c3.32-1.572,6.748-3.144,10.293-4.726c7.104-3.301,14.37-6.489,21.567-9.468c2.808-1.201,5.645-2.368,8.486-3.535l0.684-0.278
					c6.172-2.568,12.524-5.098,18.984-7.578l4.438-1.685c1.758-0.674,3.525-1.352,5.308-2.012c5.698-2.188,11.533-4.336,17.485-6.44
					c144.648-51.719,334.639-88.862,534.961-104.59c203.711-16.006,399.585-8.481,551.543,21.152
					c11.699,2.305,22.075,4.492,31.719,6.699c3.301,0.688,6.602,1.45,9.902,2.271l2.217,0.508c2.486,0.591,4.966,1.186,7.456,1.831
					c3.184,0.747,6.372,1.572,9.502,2.407l2.891,0.752c2.158,0.562,4.312,1.123,6.44,1.733c6.011,1.577,12.124,3.301,18.11,5.112
					c2.549,0.747,5.117,1.509,7.632,2.266c8.081,2.495,14.546,4.609,20.361,6.65c2.002,0.679,4.023,1.367,5.991,2.061
					c3.071,1.05,6.177,2.168,9.17,3.296c3.008,1.113,5.962,2.275,8.877,3.418l2.153,0.845c3.608,1.411,7.178,2.886,10.635,4.37
					c4.922,2.1,9.629,4.16,14.228,6.343c5.132,2.373,9.385,4.448,13.379,6.528c1.396,0.718,2.808,1.465,4.204,2.202l1.426,0.752
					l0.283-0.024l0.708,0.576c50.815,27.559,77.983,59.36,80.742,94.521l0,0c5.054,64.39-73.867,131.225-222.236,188.193
					c-147.495,56.636-346.299,97.056-559.785,113.814C1830.488,1645.662,1761.191,1648.396,1694.433,1648.401z M2069.208,1158.367
					c-66.582,0-135.537,2.715-205.444,8.203c-199.917,15.698-389.473,52.749-533.75,104.331c-5.913,2.09-11.709,4.229-17.392,6.406
					c-1.797,0.669-3.55,1.338-5.293,2.007l-4.448,1.689c-6.401,2.461-12.715,4.971-18.858,7.524l-0.693,0.288
					c-2.817,1.157-5.635,2.31-8.447,3.516c-7.163,2.964-14.365,6.128-21.445,9.414c-3.54,1.582-6.938,3.135-10.327,4.746
					c-1.04,0.435-1.968,0.869-2.891,1.362c-2.886,1.338-5.596,2.671-8.301,3.999c-2.324,1.133-4.434,2.158-6.489,3.237
					c-1.914,0.952-3.833,1.943-5.698,2.925c-1.914,0.947-3.769,1.924-5.571,2.896c-24.726,13.023-46.47,26.66-64.653,40.542
					c-44.712,34.233-66.05,68.565-63.423,102.036c4.878,62.119,91.938,114.307,245.151,146.948
					c154.092,32.832,356.279,41.699,569.336,24.976c213.047-16.724,411.377-57.036,558.462-113.516
					c146.24-56.147,224.092-121.284,219.214-183.403c-2.632-33.525-29.067-64.106-78.569-90.889l-2.085-1.123
					c-1.377-0.727-2.773-1.47-4.165-2.182c-3.94-2.051-8.13-4.097-13.208-6.445c-4.57-2.163-9.219-4.204-14.087-6.279
					c-3.413-1.47-6.934-2.925-10.498-4.316l-2.163-0.845c-2.881-1.133-5.811-2.285-8.799-3.394
					c-2.959-1.113-6.016-2.212-9.067-3.257c-1.968-0.688-3.97-1.377-5.981-2.056c-5.781-2.031-12.192-4.121-20.2-6.597
					c-2.49-0.752-5.049-1.504-7.603-2.256c-5.947-1.802-12.002-3.511-18.013-5.083c-2.144-0.62-4.258-1.167-6.377-1.719l-2.91-0.762
					c-3.091-0.815-6.23-1.631-9.429-2.383c-2.51-0.654-4.961-1.24-7.417-1.821l-2.197-0.508c-3.306-0.815-6.548-1.567-9.834-2.256
					c-9.638-2.202-19.971-4.385-31.616-6.675C2314.594,1168.26,2196.25,1158.367,2069.208,1158.367z"/>
			</g>
		</g>
		<g style="opacity:0.6;">
			<path style="fill:#FFFFFF;" d="M2568.988,1230.256c-2.482-0.764-5.061-1.528-7.638-2.244c-5.872-1.814-11.935-3.533-18.046-5.108
				c-3.103-0.907-6.206-1.671-9.309-2.482c-3.103-0.812-6.254-1.671-9.5-2.387c-2.625-0.716-5.299-1.337-7.972-1.958
				c-0.573-0.143-1.098-0.286-1.671-0.382c-3.246-0.812-6.541-1.575-9.834-2.291c-10.264-2.339-20.815-4.535-31.651-6.684
				c-145.892-28.453-339.763-37.666-550.915-21.101c-207.858,16.327-395.331,54.757-534.349,104.454
				c-5.92,2.1-11.744,4.249-17.473,6.445c-3.247,1.194-6.493,2.482-9.691,3.676c-6.445,2.483-12.794,5.013-18.953,7.543
				c-3.055,1.289-6.111,2.53-9.166,3.819c-7.352,3.055-14.513,6.206-21.483,9.452c-3.533,1.576-6.97,3.151-10.359,4.774
				c-1.003,0.382-2.005,0.859-3.008,1.385c-2.769,1.289-5.49,2.625-8.211,3.962c-2.196,1.098-4.392,2.148-6.54,3.294
				c-1.91,0.907-3.819,1.91-5.729,2.912c-1.862,0.907-3.724,1.909-5.586,2.912c-24.968,13.128-46.737,26.83-64.974,40.722
				c-43.92,33.657-67.074,68.984-64.305,104.12c3.294,42.106,43.443,78.723,111.09,107.891
				c-102.879-31.699-165.847-76.145-170.001-129.327c-2.769-35.136,20.433-70.463,64.353-104.072
				c18.236-13.94,40.005-27.593,64.974-40.77c1.814-0.955,3.724-1.958,5.585-2.912c1.862-0.955,3.819-1.957,5.681-2.912
				c2.148-1.098,4.344-2.196,6.588-3.246c2.721-1.337,5.442-2.673,8.211-3.962c1.003-0.525,2.005-1.002,3.008-1.432
				c3.39-1.623,6.779-3.151,10.312-4.726c6.97-3.246,14.131-6.397,21.531-9.452c3.055-1.337,6.11-2.578,9.166-3.819
				c6.158-2.578,12.508-5.108,18.952-7.543c3.199-1.241,6.397-2.483,9.691-3.724c5.729-2.148,11.505-4.296,17.472-6.397
				c139.018-49.697,326.491-88.175,534.349-104.454c211.152-16.613,404.975-7.352,550.915,21.101
				c10.789,2.148,21.387,4.344,31.604,6.684c3.342,0.668,6.588,1.432,9.882,2.244c0.573,0.143,1.098,0.239,1.671,0.382
				c2.674,0.621,5.299,1.289,7.973,1.957c3.199,0.764,6.397,1.576,9.5,2.387c3.103,0.859,6.206,1.623,9.261,2.482
				c6.111,1.623,12.174,3.342,18.093,5.108c2.578,0.764,5.108,1.528,7.638,2.291c6.97,2.148,13.701,4.297,20.241,6.588
				c2.053,0.716,4.058,1.385,6.015,2.053c3.055,1.05,6.158,2.196,9.118,3.294c3.771,1.385,7.399,2.865,10.98,4.249
				c3.58,1.384,7.161,2.864,10.598,4.344C2567.699,1229.683,2568.367,1229.97,2568.988,1230.256z"/>
		</g>
		<g>
			<path style="fill:#371A45;" d="M1694.511,1662.737c-136.572,0-262.764-11.382-367.251-33.643
				c-164.546-35.059-254.517-91.807-260.19-164.111c-3.169-40.327,20.669-80.259,70.845-118.677
				c19.043-14.541,41.69-28.755,67.339-42.261c1.841-0.996,3.901-2.08,5.962-3.101c1.631-0.864,3.677-1.919,5.674-2.91
				c1.904-1.001,4.18-2.114,6.46-3.228c2.866-1.406,5.586-2.739,8.35-4.023c1.186-0.62,2.378-1.182,3.574-1.69
				c3.413-1.616,6.836-3.179,10.361-4.751c7.09-3.296,14.546-6.572,21.929-9.624c2.705-1.162,5.615-2.358,8.525-3.55l0.679-0.283
				c6.23-2.588,12.705-5.166,19.287-7.695l4.458-1.694c1.807-0.688,3.618-1.382,5.444-2.061c5.669-2.178,11.626-4.37,17.695-6.514
				c145.762-52.119,337.066-89.546,538.618-105.366c204.966-16.104,402.222-8.506,555.41,21.372
				c11.87,2.334,22.383,4.556,32.173,6.792c3.213,0.669,6.68,1.47,10.151,2.329l2.095,0.483c2.578,0.61,5.156,1.23,7.739,1.899
				c2.993,0.698,6.313,1.558,9.57,2.422l2.813,0.737c2.29,0.591,4.565,1.186,6.821,1.836c5.84,1.528,12.129,3.301,18.286,5.166
				c2.471,0.723,5.069,1.489,7.617,2.261c8.35,2.578,14.976,4.741,20.972,6.846c1.909,0.644,3.98,1.357,5.996,2.065
				c3.096,1.055,6.343,2.222,9.468,3.403c3.027,1.118,6.069,2.314,9.063,3.491l2.139,0.835c3.755,1.465,7.471,3.003,11.074,4.551
				c5.063,2.163,9.941,4.302,14.707,6.563c5.22,2.412,9.668,4.585,13.863,6.768c1.372,0.703,2.837,1.479,4.287,2.246l1.665,0.879
				c0.479,0.234,0.942,0.493,1.392,0.771c55.039,29.966,84.536,65.537,87.69,105.728c5.679,72.31-74.336,142.402-231.392,202.705
				c-148.75,57.119-348.979,97.861-563.804,114.722C1831.274,1659.988,1761.635,1662.737,1694.511,1662.737z M2069.282,1172.703
				c-66.221,0-134.819,2.705-204.394,8.164c-198.687,15.601-386.929,52.373-530.044,103.54c-5.845,2.066-11.518,4.16-17.085,6.294
				c-1.895,0.703-3.604,1.357-5.308,2.007l-4.546,1.729c-6.157,2.368-12.349,4.829-18.374,7.334l-0.757,0.313
				c-2.749,1.128-5.493,2.256-8.237,3.433c-7.144,2.954-14.16,6.035-21.055,9.238c-3.638,1.626-6.939,3.135-10.23,4.697
				c-0.249,0.117-0.503,0.229-0.757,0.337c-0.518,0.215-1.03,0.454-1.543,0.727c-0.269,0.146-0.547,0.283-0.825,0.41
				c-2.666,1.235-5.278,2.519-7.891,3.804c-2.227,1.084-4.214,2.051-6.152,3.066c-2.085,1.045-3.906,1.982-5.679,2.915
				c-2.075,1.03-3.774,1.929-5.43,2.822c-24.15,12.72-45.22,25.923-62.764,39.321c-27.9,21.362-60.601,54.248-57.832,89.512
				c4.277,54.434,89.507,103.291,233.843,134.043c152.783,32.559,353.53,41.318,565.225,24.707
				c211.709-16.621,408.613-56.611,554.443-112.607c137.769-52.896,214.331-114.458,210.059-168.892l0,0
				c-2.773-35.332-40.195-62.676-71.094-79.395c-0.19-0.103-0.381-0.21-0.566-0.322l-1.406-0.742
				c-1.323-0.698-2.661-1.411-3.999-2.095c-3.819-1.987-7.818-3.94-12.691-6.191c-4.521-2.144-8.999-4.107-13.691-6.108
				c-3.301-1.416-6.675-2.808-10.088-4.141l-2.183-0.859c-2.803-1.099-5.64-2.217-8.545-3.291c-2.896-1.089-5.811-2.139-8.721-3.135
				c-2.036-0.718-3.989-1.382-5.947-2.046c-5.752-2.017-12.002-4.058-19.829-6.479c-2.363-0.708-4.893-1.455-7.412-2.197
				c-5.889-1.782-11.768-3.438-17.607-4.971c-2.358-0.674-4.346-1.191-6.338-1.704l-2.993-0.781
				c-2.959-0.786-5.967-1.567-9.028-2.29c-2.744-0.708-5.103-1.27-7.461-1.831l-1.943-0.444c-3.511-0.864-6.587-1.577-9.697-2.231
				c-9.761-2.227-19.947-4.375-31.45-6.636C2312.729,1182.507,2195.356,1172.703,2069.282,1172.703z"/>
		</g>
		<g>
			<path style="fill:#371A45;" d="M1892.143,2299.119c-187.851,0-374.014-68.125-518.642-191.367
				c-179.463-152.93-285.43-375.195-306.431-642.769c-0.723-9.199,6.147-17.246,15.347-17.964
				c9.199-0.796,17.246,6.148,17.964,15.347c43.979,560.176,470.469,830.757,849.492,801.079
				c378.989-29.756,758.057-363.647,714.077-923.828c-0.723-9.199,6.147-17.246,15.347-17.964
				c9.189-0.825,17.246,6.148,17.964,15.347c21.011,267.578-48.97,503.657-202.373,682.72
				c-136.855,159.741-334.551,260.723-542.397,277.036C1932.392,2298.338,1912.251,2299.119,1892.143,2299.119z"/>
		</g>
		<g>
			<path style="fill:#371A45;" d="M1727.851,2859.661c-209.395,0-403.252-20.425-562.49-60.137
				c-231.777-57.798-364.238-151.001-372.986-262.432c-12.441-158.467,231.497-318.335,636.614-417.207
				c9.707-2.354,19.487,3.579,21.856,13.281s-3.579,19.487-13.281,21.855c-380.82,92.944-619.919,241.807-609.128,379.238
				c7.324,93.32,133.323,177.212,345.676,230.171c221.792,55.308,512.612,72.52,818.897,48.486
				c306.289-24.048,590.859-86.436,801.304-175.679c201.489-85.449,312.852-187.979,305.527-281.294
				c-10.796-137.432-270.181-247.158-660.815-279.536c-9.956-0.825-17.354-9.561-16.528-19.517c0.82-9.956,9.6-17.398,19.517-16.528
				c415.557,34.443,681.44,154.282,693.882,312.749c8.75,111.436-107.544,224.165-327.461,317.422
				c-213.936,90.728-502.524,154.097-812.593,178.438C1904.751,2856.126,1814.946,2859.661,1727.851,2859.661z"/>
		</g>
		<g>
			<path style="fill:#371A45;" d="M1806.455,2683.992c-130.762,0.005-251.763-12.178-351.416-35.903
				c-149.15-35.513-234.351-94.063-239.907-164.868c-4.082-51.978,35.064-104.463,113.203-151.787
				c71.953-43.574,174.663-81.919,297.031-110.884c8.984-2.129,17.979,3.433,20.107,12.412c2.124,8.979-3.432,17.983-12.412,20.107
				c-236.343,55.942-390.908,147.383-384.619,227.534c4.272,54.365,82.393,103.56,214.336,134.976
				c139.863,33.301,323.462,43.262,516.943,28.081c193.496-15.19,373.276-53.691,506.226-108.408
				c125.429-51.621,194.917-112.407,190.649-166.768c-6.294-80.156-173.232-146.353-415.41-164.727
				c-9.199-0.698-16.094-8.721-15.396-17.925c0.698-9.199,8.755-16.152,17.925-15.396c125.386,9.512,232.822,31.357,310.693,63.174
				c84.565,34.551,131.421,80.283,135.498,132.256c5.562,70.806-69.458,141.938-211.24,200.288
				c-136.084,56.006-319.453,95.361-516.328,110.815C1922.509,2681.668,1863.54,2683.992,1806.455,2683.992z"/>
		</g>
		<g style="opacity:0.3;">
			<path style="fill:#371A45;" d="M1984.99,2710.612c-494.105,38.764-904.808-59.006-917.316-218.457
				c-7.018-89.13,111.902-178.641,304.388-247.004c143.266,120.734,307.92,186.519,473.385,198.979
				c244.617,18.475,490.954-79.63,672.364-288.92c200.792,37.523,332.172,107.414,339.142,196.496
				C2869.509,2511.156,2479.047,2671.8,1984.99,2710.612z"/>
			<path style="fill:#371A45;" d="M1771.259,2721.507c-158.672,0-305.391-14.751-426.074-43.491
				c-174.341-41.514-273.735-107.456-279.868-185.674c-6.851-87.021,104.663-177.93,305.952-249.424l1.279-0.454l1.035,0.874
				c138.848,117.017,302.08,185.635,472.041,198.433c250.972,18.896,495.264-86.064,670.4-288.105l0.889-1.025l1.333,0.249
				c209.947,39.229,334.258,111.631,341.064,198.633c6.157,78.218-81.724,158.857-247.461,227.065
				c-164.907,67.866-387.466,115.591-626.675,134.385l0,0C1912.373,2718.684,1840.668,2721.507,1771.259,2721.507z
				 M1371.577,2247.835c-198.31,70.645-308.198,159.595-301.543,244.136c5.962,76.006,104.067,140.444,276.245,181.44
				c173.008,41.206,399.766,53.569,638.525,34.844l0,0c238.735-18.755,460.781-66.362,625.244-134.043
				c163.682-67.363,250.527-146.318,244.546-222.319c-6.611-84.526-129.009-155.244-335.884-194.106
				c-162.456,186.86-383.97,290.894-615.19,290.903c-19.37,0-38.774-0.732-58.252-2.202
				C1674.736,2433.645,1510.962,2364.954,1371.577,2247.835z"/>
		</g>
		<g style="opacity:0.15;">
			<path style="fill:#FFFFFF;" d="M2953.483,1853.687c0,0-1.766,0.286-4.87,0.907c0,60.629-38.383,99.871-84.308,114.002
				c-77.195,23.774-175.634-23.154-148.995-158.209c32.081-68.984,82.828-95.097,138.97-108.894
				c0.048-0.048,0.048-0.048,0.048-0.048h0.048c54.614-13.462,114.336-15.372,166.945-34.038
				c132.716-39.48,153.101-158.447,117.774-240.798c-26.448-61.68-84.213-102.831-149.473-74.617
				c-19.716,8.497-36.091,23.106-48.265,40.769c-44.923,65.069-95.718,109.706-155.535,123.025l17.234-254.404
				c47.93-40.483,96.291-65.546,142.837-77.625l0.048-0.047c163.985-42.632,305.963,75.667,330.883,249.248
				c0.764,5.538,1.432,11.076,2.005,16.709C3290.238,1667.407,3221.015,1810.387,2953.483,1853.687z"/>
		</g>
		<g style="opacity:0.1;">
			<path style="fill:#FFFFFF;" d="M1845.447,2444.13c-427.842-32.272-850.433-420.872-911.11-1193.823
				c-12.078-154.294,394.567-312.026,908.341-352.366c426.219-33.465,792.19,24.395,911.492,133.193
				c24.49,22.342,38.621,46.833,40.674,73.137C2866.74,2020.203,2352.442,2482.369,1845.447,2444.13z"/>
		</g>
		<g>
			<path style="fill:#371A45;" d="M1902.29,2465.496c-226.782,0-443.599-96.118-616.372-274.707
				c-211.377-218.486-339.526-543.184-370.601-938.979c-6.575-83.765,88.984-168.369,269.077-238.232
				c173.228-67.197,406.48-115.029,656.782-134.683c250.293-19.653,488.154-8.804,669.756,30.542
				c188.784,40.903,296.377,109.561,302.954,193.325c31.074,395.796-44.839,736.509-219.526,985.303
				c-156.016,222.202-379.336,355.361-628.818,374.946C1944.389,2464.671,1923.296,2465.496,1902.29,2465.496z M2080.454,907.508
				c-76.401,0-155.659,3.13-236.289,9.463c-545.063,42.793-900.64,206.138-890.771,331.851
				c30.371,386.841,154.844,703.384,359.971,915.41c165.44,171.006,372.681,263.057,589.072,263.066
				c19.98,0,40.005-0.781,60.117-2.363c237.92-18.677,451.196-146.108,600.547-358.813
				c169.526-241.44,243.081-573.53,212.71-960.371c-5.068-64.551-104.561-122.5-272.969-158.989
				C2382.983,920.794,2237.797,907.508,2080.454,907.508z"/>
		</g>
		<g>
			<path style="fill:#371A45;" d="M1902.295,2464.485c-226.523,0.01-443.057-96.001-615.649-274.399
				c-211.211-218.316-339.263-542.793-370.317-938.354c-6.538-83.281,88.794-167.525,268.433-237.212
				c173.14-67.163,406.289-114.971,656.494-134.614c250.215-19.644,487.964-8.804,669.463,30.518
				c188.315,40.801,295.625,109.136,302.158,192.417c31.055,395.562-44.79,736.045-219.346,984.644
				c-155.84,221.948-378.892,354.956-628.066,374.517C1944.355,2463.66,1923.256,2464.485,1902.295,2464.485z M2080.449,906.497
				c-76.431,0-155.698,3.135-236.362,9.463c-545.664,42.842-901.611,206.738-891.704,332.939
				c30.391,387.075,154.966,703.838,360.259,916.035c165.635,171.206,373.125,263.364,589.79,263.374
				c20.005,0,40.064-0.786,60.2-2.363c238.228-18.706,451.772-146.284,601.299-359.243
				c169.663-241.636,243.276-573.955,212.89-961.03c-5.107-65.029-104.888-123.306-273.765-159.898
				C2383.135,919.788,2237.861,906.497,2080.449,906.497z"/>
		</g>
		<g>
			<path style="fill:#371A45;" d="M1296.686,1075.858c-45.978,24.071-92.019,46.409-134.507,73.203
				c-21.178,13.311-41.718,27.389-59.641,43.398c-8.964,7.954-17.188,16.463-24.024,25.482
				c-6.833,8.998-12.323,18.533-15.204,28.116c-1.519,4.779-2.424,9.549-2.566,14.25c-0.242,2.357,0.049,4.685,0.085,7.019
				c0.429,2.307,0.822,4.604,1.141,6.919c2.141,9.131,6.984,17.998,13.653,26.29c13.417,16.645,33.342,30.414,54.658,41.608
				c43.041,22.439,91.589,37.459,140.609,49.037c49.169,11.621,99.498,19.421,150.036,25.675
				c50.597,5.985,101.538,10.007,152.609,12.137c102.16,4.284,204.71,1.849,306.844-5.825
				c102.114-7.965,203.867-21.03,304.283-40.495c100.248-19.633,199.847-44.947,293.8-82.997
				c23.439-9.522,46.388-20.042,68.682-31.412c22.286-11.37,43.812-23.972,63.521-38.296c19.695-14.106,38.005-30.209,50.35-48.457
				c12.429-18.293,16.991-38.155,9.833-57.085c-7.003-19.059-24.26-36.29-43.772-50.272c-19.773-13.983-42.014-25.729-65.083-35.841
				c-46.245-20.355-95.569-35.045-145.277-48.565c-1.484-0.393-2.368-1.915-1.975-3.398c0.355-1.342,1.653-2.191,2.992-2.051
				c51.47,5.682,102.789,15.295,152.778,32.076c24.923,8.538,49.62,18.817,72.885,33.248c11.603,7.244,22.935,15.428,33.256,25.496
				c10.172,10.144,19.584,22.106,25.704,36.643c6.3,14.345,8.63,31.191,6.348,47.023c-2.2,15.907-8.569,30.384-16.382,42.85
				c-7.821,12.593-17.174,23.488-27.201,33.228c-10.015,9.771-20.637,18.515-31.566,26.595
				c-44.205,31.644-92.317,54.045-141.144,73.173c-48.906,19-98.694,34.748-148.951,48.346
				c-50.223,13.723-100.927,25.294-151.902,35.202c-101.97,19.764-205.009,32.984-308.387,41.05
				c-103.375,8.128-207.235,11.161-311.076,7.531c-51.926-1.637-103.85-5.193-155.666-10.787
				c-51.812-5.685-103.489-13.822-154.685-25.747c-25.596-5.966-51.06-12.896-76.251-21.338
				c-25.179-8.466-50.137-18.426-74.162-31.496c-12.043-6.418-23.789-13.869-35.098-22.332
				c-11.331-8.391-22.017-18.489-31.412-30.288c-9.33-11.795-17.145-26.146-20.526-42.283c-0.633-4.056-1.221-8.127-1.72-12.192
				c-0.108-4.103-0.346-8.219,0.066-12.288c0.481-8.17,2.201-16.136,4.725-23.576c4.96-15.028,13.019-27.885,21.952-39.197
				c8.983-11.33,19.019-21.182,29.501-30.116c21.104-17.726,44.066-31.762,67.63-43.931c47.443-23.716,97.228-40.47,148.413-50.567
				c1.517-0.299,2.989,0.688,3.288,2.205C1298.395,1074.073,1297.756,1075.297,1296.686,1075.858z"/>
		</g>
		<g style="opacity:0.3;">
			<path style="fill:#371A45;" d="M1845.447,2444.13c315.225-47.787,557.789-433.093,493.007-941.424
				c-3.676-29.169,15.038-56.571,43.634-63.207c274.932-64.114,485.798-266.912,372.082-408.364
				c24.49,22.342,38.621,46.833,40.674,73.137C2866.74,2020.203,2352.442,2482.369,1845.447,2444.13z"/>
			<path style="fill:#371A45;" d="M1904.77,2448.733c-19.756,0-39.58-0.742-59.497-2.246l-20.815-1.567l20.635-3.13
				c294.482-44.644,558.657-407.998,491.011-938.784c-3.853-30.615,15.688-58.906,45.449-65.811
				c188.75-44.018,353.994-157.817,392.905-270.596c16.816-48.726,9.16-95.054-22.134-133.979l3.442-3.232
				c25.439,23.203,39.38,48.335,41.436,74.697c36.479,464.731-77.798,855.449-321.777,1100.171
				C2316.972,2363.196,2116.225,2448.733,1904.77,2448.733z M1865.585,2443.02c224.507,11.25,439.175-74.268,606.489-242.104
				c242.988-243.73,356.777-633.125,320.41-1096.46c-1.348-17.261-8.105-34.033-20.161-50.093
				c18.198,34.565,20.552,73.384,6.611,113.784c-40.049,116.045-203.013,228.579-396.309,273.657
				c-27.397,6.357-45.376,32.412-41.826,60.605c30.522,239.502-6.509,468.521-104.277,644.858
				C2146.777,2309.138,2015.639,2413.46,1865.585,2443.02z"/>
		</g>
		<g style="opacity:0.3;">
			<path style="fill:#371A45;" d="M1220.51,1109.772c0,0,126.57-60.713,323.1-90.197c21.428-3.215,40.733,13.407,40.733,35.075
				V1157.9c0,21.31-14.934,39.686-35.804,43.992c-77.535,16-265.162,62.528-403.99,160.465
				C1006.432,1299.414,1006.02,1218.564,1220.51,1109.772z"/>
			<path style="fill:#371A45;" d="M1144.804,1365.071l-1.235-0.562c-64.629-29.453-96.406-61.069-97.148-96.66
				c-1.011-48.227,55.586-100.625,173.022-160.185l0.044-0.024c1.269-0.61,129.141-61.206,323.769-90.405
				c10.899-1.645,21.943,1.558,30.303,8.76c8.359,7.197,13.154,17.642,13.154,28.657v103.247c0,22.329-15.854,41.802-37.695,46.313
				c-74.878,15.449-264.048,61.982-403.105,160.078L1144.804,1365.071z M1221.557,1111.897
				c-114.028,57.837-171.357,110.273-170.405,155.854c0.684,32.9,32.021,63.813,93.149,91.89
				c139.678-98.081,328.789-144.595,403.76-160.068c19.653-4.053,33.916-21.582,33.916-41.675v-103.247
				c0-9.639-4.189-18.774-11.504-25.073c-7.319-6.309-17.021-9.092-26.514-7.666
				C1350.874,1050.881,1223.842,1110.808,1221.557,1111.897z"/>
		</g>
		<g>
			<path style="fill:#371A45;" d="M2882.763,1896.912c-6.172,0-12.188-3.159-15.566-8.848c-5.103-8.584-2.281-19.683,6.309-24.785
				c34.463-20.479,75.395-27.197,77.119-27.471c232.505-37.622,322.398-149.126,310.161-384.766
				c-11.177-112.549-73.882-205.098-163.711-241.582c-89.072-36.162-189.331-12.817-282.329,65.742
				c-7.627,6.45-19.043,5.483-25.483-2.143c-6.445-7.632-5.488-19.038,2.144-25.483c102.266-86.387,218.643-112.485,319.277-71.626
				c102.432,41.602,173.755,145.811,186.138,271.963c0.029,0.273,0.049,0.547,0.064,0.82c6.46,123.218-13.072,211.851-61.46,278.931
				c-54.238,75.19-145.522,122.246-279.053,143.853c-0.371,0.063-36.001,5.986-64.39,22.856
				C2889.086,1896.096,2885.903,1896.912,2882.763,1896.912z"/>
		</g>
		<g>
			<path style="fill:#371A45;" d="M2825.366,1992.512c-30.029,0-59.375-9.009-82.349-26.606
				c-24.927-19.082-63.965-65.122-45.43-159.033c0.283-1.426,0.732-2.808,1.343-4.121c48.93-105.278,140.581-119.399,221.44-131.86
				c33.647-5.186,65.425-10.083,94.888-20.532c0.293-0.103,0.591-0.2,0.889-0.288c64.36-19.146,105.991-61.016,117.217-117.896
				c10.996-55.732-9.868-119.448-49.604-151.504c-18.296-14.761-48.242-28.838-86.983-12.075
				c-15.63,6.753-29.644,18.652-40.527,34.419c-51.23,74.199-105.684,116.856-166.475,130.405
				c-9.8,2.202-19.419-3.975-21.587-13.716c-2.173-9.751,3.97-19.414,13.716-21.587c51.479-11.475,98.774-49.307,144.58-115.654
				c14.746-21.353,34.087-37.627,55.942-47.07c43.169-18.662,87.227-12.568,124.043,17.124
				c50.391,40.654,76.045,117.412,62.378,186.66c-13.926,70.567-64.331,122.197-141.938,145.43
				c-32.549,11.479-67.358,16.846-101.03,22.031c-78.276,12.06-152.251,23.467-193.218,109.385
				c-10.225,54.365,1.23,97.339,32.344,121.167c29.512,22.593,73.936,25.635,110.537,7.544c34.946-17.251,54.99-50.112,54.99-90.156
				c0-9.99,8.096-18.086,18.086-18.086c9.99,0,18.086,8.096,18.086,18.086c0,54.326-27.393,99.009-75.146,122.588
				C2870.717,1987.459,2847.851,1992.512,2825.366,1992.512z"/>
		</g>
		<g style="opacity:0.3;">
			<path style="fill:#371A45;" d="M2953.483,1853.687c0,0-1.766,0.286-4.87,0.907c0,60.629-38.383,99.871-84.308,114.002
				c-8.928-4.201-17.664-9.214-26.018-15.133c-149.521-105.457,12.46-248.914,15.992-251.97c0.048-0.048,0.048-0.048,0.048-0.048
				h0.048c239.461,88.462,410.417-86.933,422.4-268.487c0,0,0,0,0.048,0c0.764,5.538,1.432,11.076,2.005,16.709
				C3290.238,1667.407,3221.015,1810.387,2953.483,1853.687z"/>
			<path style="fill:#371A45;" d="M2864.125,1971.126l-0.825-0.391c-9.321-4.38-18.198-9.541-26.382-15.342
				c-40.63-28.657-62.207-62.827-64.116-101.553c-3.979-80.61,79.092-153.413,79.932-154.141l0.703-0.781l1.758,0.303
				c129.077,47.695,222.725,14.521,278.55-21.694c80.244-52.061,134.146-145.835,140.674-244.727l0.142-2.212h4.277l0.327,2.046
				c0.771,5.562,1.44,11.133,2.017,16.792c6.27,119.57-12.324,205.029-58.506,269.048
				c-51.675,71.646-139.609,116.636-268.818,137.549l0,0c-0.02,0.005-1.045,0.171-2.891,0.523
				c-0.864,64.995-44.81,101.65-85.967,114.311L2864.125,1971.126z M2854.848,1704.138c-10.308,9.39-80.928,76.357-77.319,149.473
				c1.836,37.197,22.734,70.142,62.119,97.92c7.72,5.469,16.069,10.351,24.834,14.531c39.697-12.544,81.763-48.291,81.763-111.47
				v-1.938l1.904-0.381c3.091-0.62,4.873-0.908,4.956-0.918l0,0c127.905-20.703,214.829-65.073,265.737-135.649
				c44.697-61.968,63.159-144.585,57.93-259.609c-12.813,91.719-65.235,176.597-140.454,225.4
				C3079.765,1718.181,2985.097,1751.804,2854.848,1704.138z"/>
		</g>
		<g style="opacity:0.3;">
			<path style="fill:#371A45;" d="M3139.094,1426.609c-26.448-61.68-84.213-102.831-149.473-74.617
				c-19.716,8.497-36.091,23.106-48.265,40.769c-44.923,65.069-95.718,109.706-155.535,123.025l17.234-254.404
				c47.93-40.483,96.291-65.546,142.837-77.625C2797.422,1324.637,3105.645,1174.977,3139.094,1426.609z"/>
			<path style="fill:#371A45;" d="M2783.247,1518.787l17.515-258.564l0.767-0.645c46.27-39.082,94.639-65.361,143.77-78.11
				l8.872-2.305l-6.646,6.309c-29.551,28.037-41.953,45.562-39.038,55.151c2.993,9.839,23.096,13.262,48.55,17.598
				c62.017,10.561,165.816,28.242,184.404,168.076l2.271,17.08l-6.787-15.835c-15.542-36.235-41.475-63.789-71.152-75.606
				c-23.867-9.497-49.868-8.73-75.21,2.227c-18.369,7.92-34.707,21.729-47.256,39.941
				c-48.877,70.801-100.225,111.357-156.973,123.994L2783.247,1518.787z M2805.351,1262.547l-16.953,250.215
				c54.312-13.14,103.735-52.866,151.011-121.343c13.052-18.945,30.093-33.33,49.277-41.602
				c26.514-11.47,53.784-12.246,78.833-2.275c26.66,10.61,50.366,33.335,66.655,63.452
				c-23.384-121.787-115.879-137.539-177.935-148.11c-28.12-4.79-48.438-8.247-52.28-20.884
				c-3.33-10.943,6.767-27.134,33.589-53.477C2892.446,1201.785,2848.022,1226.653,2805.351,1262.547z"/>
		</g>
		<g style="opacity:0.2;">
			
				<ellipse transform="matrix(0.9029 -0.43 0.43 0.9029 -577.9691 748.6096)" style="fill:#FFFFFF;" cx="1367.585" cy="1653.271" rx="84.804" ry="121.664"/>
		</g>
		<g style="opacity:0.2;">
			<path style="fill:#FFFFFF;" d="M1925.927,2110.969c-42.773,73.406-180.751,72.719-308.184-1.535s-196.063-193.955-153.29-267.361
				c42.773-73.406,147.294-15.3,274.727,58.954C1866.612,1975.281,1968.7,2037.564,1925.927,2110.969z"/>
		</g>
	</g>
</g>
</svg>
