<?xml version="1.0" encoding="utf-8"?>
<!-- Generator: Adobe Illustrator 27.5.0, SVG Export Plug-In . SVG Version: 6.00 Build 0)  -->
<svg version="1.1" id="Layer_1" xmlns="http://www.w3.org/2000/svg" xmlns:xlink="http://www.w3.org/1999/xlink" x="0px" y="0px"
	 viewBox="0 0 4000 4000" style="enable-background:new 0 0 4000 4000;" xml:space="preserve">
<g>
	<g>
		<!-- <rect style="fill:#BBEFFF;" width="4000" height="4000"/> -->
	</g>
	<g>
		<g>
			<path style="fill:#595959;" d="M2670.01,2815.483c0,0-44.135-178.943,76.011-177.254
				c120.147,1.688,152.455-52.379,152.455-52.379s27.389,216.788-76.516,263.114c-74.094,33.035-127.106-20.59-127.106-20.59"/>
		</g>
		<g style="opacity:0.35;">
			<path style="fill:#FFFFFF;" d="M2900.325,2605.984c-15.545,25.908-55.562,72.184-142.213,70.953
				c-85.777-1.231-87.83,89.677-81.982,141.75l-6.104-3.181c0,0-44.171-178.945,75.98-177.252
				c120.151,1.642,152.473-52.38,152.473-52.38S2899.452,2593.415,2900.325,2605.984z"/>
		</g>
		<g>
			<path style="fill:#565656;" d="M2821.985,2848.956c-74.134,33.039-127.129-20.573-127.129-20.573l-24.831-12.877
				c0,0-8.875-36.015-7.85-75.569c17.187,18.674,47.301,39.811,93.679,36.63c75.108-5.182,121.896-100.246,144.88-163.913
				C2904.173,2672.063,2903.3,2812.685,2821.985,2848.956z"/>
		</g>
		<g>
			<path style="fill:#232323;" d="M2773.262,2876.796c-53.542,0-88.545-34.6-90.447-36.523c-2.754-2.783-4.343-6.284-4.771-9.893
				c-1.233,0.664-2.571,1.182-3.997,1.533c-9.08,2.217-18.235-3.306-20.474-12.378c-1.106-4.482-26.589-110.483,17.273-165.674
				c17.529-22.065,42.893-33.037,75.41-32.559c107.141,1.436,137.537-43.911,137.832-44.37c3.704-6.196,10.859-9.238,17.93-7.769
				c7.068,1.479,12.346,7.397,13.252,14.561c1.182,9.365,27.651,229.839-86.418,280.698
				C2808.792,2873.368,2790.108,2876.796,2773.262,2876.796z M2694.854,2811.445c4.365,0,8.728,1.68,12.039,5.029
				c1.794,1.782,46.123,44.688,108.176,17.031c63.608-28.359,72.39-142.305,69.341-211.704
				c-24.668,16.567-67.813,34.453-138.625,33.35c-21.641-0.186-37.588,6.152-48.406,19.741
				c-27.842,34.976-17.329,110.43-10.93,136.548c0.166,0.679,0.288,1.357,0.369,2.031
				C2689.32,2812.118,2692.086,2811.445,2694.854,2811.445z"/>
		</g>
		<g>
			<path style="fill:#FFFFFF;" d="M2326.409,2991.585c0,0,167.375,5.327,253.314-118.06
				c94.06-135.046,166.983-136.533,176.117-102.579c9.134,33.953-48.486,58.75-90.24,166.4
				c-39.314,101.36-96.316,192.012-249.475,187.429"/>
		</g>
		<g style="opacity:0.25;">
			<path style="fill:#232323;" d="M2665.613,2937.351c-39.35,101.375-96.347,192.027-249.487,187.41l-89.729-133.183
				c0,0,11.646,0.359,30.321-1.334l10.363,25.601c148.932,36.117,223.424-40.786,282.885-131.798
				c42.171-64.693,83.676-91.627,105.94-112.918C2764.73,2804.989,2707.271,2829.922,2665.613,2937.351z"/>
		</g>
		<g>
			<path style="fill:#232323;" d="M2426.907,3141.865c-3.716,0-7.461-0.054-11.287-0.171c-9.346-0.278-16.694-8.081-16.414-17.427
				c0.278-9.341,8.022-16.768,17.424-16.411c135.186,4.067,190.935-67.695,233.188-176.636
				c22.61-58.286,49.309-92.754,68.804-117.925c15.159-19.565,22.971-30.142,20.872-37.949c-0.364-1.357-1.218-4.526-7.588-5.64
				c-19.648-3.394-70.83,16.631-138.296,113.491c-90.149,129.434-260.51,125.518-267.742,125.308
				c-9.343-0.298-16.677-8.115-16.379-17.456s8.01-16.685,17.449-16.382c2.112,0.088,159.541,3.11,238.894-110.815
				c61.243-87.925,125.491-135.532,171.895-127.495c17.305,3.022,30.186,14.307,34.458,30.195
				c6.567,24.404-8.157,43.413-26.797,67.476c-18.223,23.525-43.179,55.742-64.006,109.438
				C2643.201,3041.904,2583.004,3141.855,2426.907,3141.865z"/>
		</g>
		<g>
			<path style="fill:#FFFFFF;" d="M2943.933,3186.889c-0.462,81.726-31.756,142.007-70.747,185.41
				c-56.69,63.205-138.724,97.988-223.682,97.988H1359.591c-84.958,0-166.94-34.783-223.682-97.988
				c-38.99-43.403-70.285-103.684-70.696-185.41c-0.974-180.33,126.103-189.308,198.647-135.594l4.155-6.516l0.822-1.231
				l0.923-1.488c13.595-22.47,28.268-39.349,43.556-51.713c20.316-16.417,41.76-24.831,63.411-27.396
				c66.643-8.055,134.876,38.734,176.431,74.646c0.051,0.051,0.051,0.051,0.103,0.051c24.574,21.239,39.76,38.631,39.76,38.631
				h823.055c0,0,104.197-119.177,207.419-114.098c22.881,1.128,45.71,8.362,67.36,24.369c17.084,12.57,33.45,30.679,48.481,55.51
				l5.798,9.286C2817.675,2997.581,2944.856,3006.457,2943.933,3186.889z"/>
		</g>
		<g>
			<g>
				<path style="fill:#595959;" d="M1381.6,3081c-4.823,0.308-27.755-52.38-68.285-90.653c20.316-16.417,41.76-24.831,63.411-27.396
					C1391.552,3014.87,1385.96,3080.692,1381.6,3081z"/>
			</g>
			<g>
				<path style="fill:#595959;" d="M2690.854,2986.551c-43.145,38.478-67.514,94.808-72.44,94.449
					c-4.36-0.308-10.055-66.797,5.08-118.818C2646.375,2963.31,2669.204,2970.544,2690.854,2986.551z"/>
			</g>
		</g>
		<g style="opacity:0.35;">
			<path style="fill:#FFFFFF;" d="M1553.174,3037.583c-37.691-19.297-94.409-44.094-136.97-39.45
				c-111.316,12.128-115.735,93.778-115.735,93.778s-18.892-27.863-31.65-48.377l0.947-1.488
				C1356.916,2898.088,1487.935,2981.226,1553.174,3037.583z"/>
		</g>
		<g style="opacity:0.35;">
			<path style="fill:#FFFFFF;" d="M2458.472,3037.583c37.691-19.297,94.409-44.094,136.97-39.45
				c111.316,12.128,115.735,93.778,115.735,93.778s18.892-27.863,31.65-48.377l-0.947-1.488
				C2654.73,2898.088,2523.711,2981.226,2458.472,3037.583z"/>
		</g>
		<g>
			<path style="fill:#595959;" d="M1449.341,3470.27h-89.765c-84.942,0-166.907-34.761-223.669-97.971
				c-39-43.418-70.289-103.697-70.695-185.393c-0.992-180.343,126.105-189.315,198.648-135.618l4.148-6.493
				c32.416,40.848,75.473,114.383,100.451,235.528C1387.213,3371.442,1419.585,3431.677,1449.341,3470.27z"/>
		</g>
		<g>
			<path style="fill:#666566;" d="M1439.623,3457c-14.415-0.308-25.958-0.565-34.27-0.77c0,0-0.051,0-0.103,0
				c-7.182,1.026-12.927,2.514-16.725,4.567c-41.401-0.924-90.601-4.002-128.463-10.518c-5.643-0.923-11.132-2.257-16.621-3.796
				c-3.695-1.077-7.389-2.257-10.98-3.642c-17.802-8.055-34.784-17.905-50.687-29.346l-0.154-0.153
				c-16.519-11.903-31.86-25.652-45.712-41.042c-38.579-42.941-69.617-102.401-70.643-182.845c-0.053-0.82-0.053-1.693-0.053-2.565
				c-0.05-8.464,0.205-16.519,0.719-24.215c31.295,94.705,118.254,179.099,225.939,181.049c31.037,0.564,61.41-3.95,88.959-13.698
				C1397.145,3385.484,1418.589,3426.731,1439.623,3457z"/>
		</g>
		<g>
			<path style="fill:#666566;" d="M2559.784,3470.27h89.765c84.942,0,166.907-34.761,223.669-97.971
				c39-43.418,70.289-103.697,70.695-185.393c0.992-180.343-126.105-189.315-198.648-135.618l-4.147-6.493
				c-32.417,40.848-75.473,114.383-100.451,235.528C2621.913,3371.442,2589.54,3431.677,2559.784,3470.27z"/>
		</g>
		<g>
			<path style="fill:#595959;" d="M2943.933,3186.889c-0.411,81.726-31.706,142.007-70.696,185.41
				c-56.793,63.205-138.724,97.988-223.682,97.988h-89.781c3.233-4.155,6.464-8.567,9.697-13.287
				c20.675-29.756,41.76-70.132,57.973-124.205c4.925-16.212,9.388-33.706,13.235-52.483
				c24.985-121.126,68.028-194.644,100.452-235.532l4.155,6.516c65.464-48.481,175.355-45.916,195.414,87.575
				c0.36,2.206,0.668,4.411,0.923,6.669C2943.214,3158.16,2944.035,3171.96,2943.933,3186.889z"/>
		</g>
		<g>
			<path style="fill:#E5E5E5;" d="M2356.646,3284.788c0,65.78-9.603,128.449-27.006,185.482h-634.716
				c-17.402-57.033-27.005-119.703-27.005-185.482c0-74.752,12.399-145.537,34.535-208.521h619.657
				C2344.247,3139.251,2356.646,3210.036,2356.646,3284.788z"/>
		</g>
		<g>
			
				<ellipse transform="matrix(0.3473 -0.9378 0.9378 0.3473 -1211.7487 4753.7056)" style="fill:#FFFFFF;" cx="2808.893" cy="3247.298" rx="99.96" ry="69.337"/>
		</g>
		<g>
			<path style="fill:#FFFFFF;" d="M2877.29,3260.868c-30.424,34.476-69.567,61.461-114.098,74.441
				c-27.499-19.136-36.374-65.976-19.341-112.097c19.187-51.765,63.821-82.957,99.733-69.67
				C2877.084,3165.958,2891.142,3212.643,2877.29,3260.868z"/>
		</g>
		<g>
			
				<ellipse transform="matrix(0.9378 -0.3473 0.3473 0.9378 -1052.1248 623.6833)" style="fill:#FFFFFF;" cx="1214.031" cy="3247.298" rx="69.337" ry="99.96"/>
		</g>
		<g>
			<path style="fill:#FFFFFF;" d="M1252.777,3339.311c-33.552-6.977-64.334-21.958-91.217-42.222l-0.051-0.051
				c-4.822-7.798-9.081-16.366-12.518-25.652c-19.136-51.764-5.591-104.504,30.321-117.844
				c35.912-13.287,80.546,17.905,99.733,69.67C1297.513,3272.976,1285.663,3323.612,1252.777,3339.311z"/>
		</g>
		<g style="opacity:0.35;">
			<path style="fill:#FFFFFF;" d="M1075.122,3164.216c0,0,31.965-77.986,92.021-87.909c60.056-9.923,123.502,41.415,163.216,97.111
				c0,0-51.338-142.474-119.143-150.907C1143.411,3014.077,1060.109,3086.241,1075.122,3164.216z"/>
		</g>
		<g style="opacity:0.35;">
			<path style="fill:#FFFFFF;" d="M2935.624,3164.216c0,0-31.965-77.986-92.021-87.909c-60.056-9.923-123.502,41.415-163.216,97.111
				c0,0,51.338-142.474,119.143-150.907C2867.335,3014.077,2950.638,3086.241,2935.624,3164.216z"/>
		</g>
		<g>
			<path style="fill:#232323;" d="M2654.265,3202.2c2.771-14.959,6.598-29.509,10.736-43.994
				c4.268-14.429,8.953-28.734,14.314-42.877c2.725-7.045,5.41-14.17,8.552-21.152c1.519-3.493,3.231-6.995,4.845-10.5
				c1.851-3.727,4.094-7.514,6.373-11.094c9.39-14.269,21.638-26.463,36.03-34.875c8.115-4.743,18.539-2.01,23.282,6.104
				c4.027,6.891,2.665,15.447-2.808,20.775l-0.383,0.368c-9.442,9.195-18.414,18.279-25.862,28.432
				c-1.909,2.536-3.572,5.054-5.333,7.799c-1.904,3.019-3.871,5.955-5.737,9.055c-3.767,6.133-7.791,12.229-11.553,18.513
				c-15.431,24.959-30.763,50.48-47.991,75.3c-0.775,1.124-2.314,1.407-3.439,0.632
				C2654.468,3204.116,2654.098,3203.126,2654.265,3202.2z"/>
		</g>
		<g style="opacity:0.3;">
			<path style="fill:#232323;" d="M1758.765,3462.515c-172.453-2.525-309.063-5.095-353.427-6.267c0,0-0.044,0-0.09,0
				c-7.168,0.992-12.939,2.48-16.727,4.554c-41.388-0.947-90.622-4.012-128.449-10.505c-5.636-0.947-11.136-2.254-16.636-3.832
				c-110.144-31.74-176.781-182.642-187.376-324.211c17.042,109.693,112.94,219.252,235.798,221.461
				c67.899,1.262,132.687-21.731,171.235-71.1c19.116-41.524,36.068-81.154,42.606-107.709
				c13.977,65.735,58.702,116.456,119.027,137.466C1653.534,3385.013,1697.583,3444.751,1758.765,3462.515z"/>
		</g>
		<g style="opacity:0.25;">
			<path style="fill:#232323;" d="M1252.777,3339.311c-1.283,0.667-2.668,1.231-4.053,1.744
				c-29.499,10.928-64.847-8.157-87.164-43.967C1188.443,3317.353,1219.225,3332.334,1252.777,3339.311z"/>
		</g>
		<g>
			<path style="fill:#565656;" d="M1439.623,3457c-14.415-0.308-25.958-0.565-34.27-0.77c0,0-0.051,0-0.103,0
				c-7.182,1.026-12.927,2.514-16.725,4.567c-41.401-0.924-90.601-4.002-128.463-10.518c-5.643-0.923-11.132-2.257-16.621-3.796
				c-3.695-1.077-7.389-2.257-10.98-3.642c-18.161-6.67-35.091-16.674-50.687-29.346l-0.154-0.153
				c-58.639-47.866-98.554-133.645-116.355-223.887c-4.464-22.265-7.491-44.839-9.183-67.206c2.103,13.543,5.386,27.088,9.85,40.426
				c17.134,51.817,50.892,100.503,95.577,134.363l0.051,0.051c22.317,35.81,57.665,54.894,87.164,43.967
				c1.385-0.513,2.771-1.077,4.053-1.744c12.672,2.668,25.703,4.155,39.094,4.412c31.037,0.564,61.41-3.95,88.959-13.698
				C1397.145,3385.484,1418.589,3426.731,1439.623,3457z"/>
		</g>
		<g style="opacity:0.3;">
			<path style="fill:#232323;" d="M2943.931,3122.253c-10.594,141.569-77.276,292.471-187.42,324.211
				c-5.456,1.578-11.001,2.885-16.637,3.832c-37.826,6.493-87.06,9.558-128.449,10.505c-3.786-2.074-9.603-3.562-16.772-4.554
				c-0.045,0-0.045,0-0.09,0c-57.844,1.533-131.605,5.456-337.196,8.386c68.846-15.195,116.998-82.056,146.889-175.294
				c45.447-25.473,78.359-69.748,90.036-124.436c6.447,26.555,23.444,66.186,42.516,107.709
				c38.639,49.369,103.382,72.408,171.281,71.1C2830.948,3341.505,2926.799,3231.947,2943.931,3122.253z"/>
		</g>
		<g style="opacity:0.25;">
			<path style="fill:#232323;" d="M2877.29,3260.868c-0.924,3.489-2.104,7.028-3.387,10.517
				c-19.136,51.765-63.821,82.958-99.733,69.669c-3.951-1.437-7.593-3.385-10.979-5.746
				C2807.723,3322.33,2846.866,3295.344,2877.29,3260.868z"/>
		</g>
		<g>
			<path style="fill:#565656;" d="M2943.933,3122.248c-0.565,7.747-1.334,15.493-2.31,23.291
				c-15.749,134.466-80.955,270.931-185.101,300.944c-5.49,1.539-11.031,2.873-16.673,3.796
				c-37.811,6.516-87.01,9.594-128.412,10.518c-3.796-2.053-9.594-3.54-16.776-4.567c-0.051,0-0.051,0-0.103,0
				c-7.952,0.205-16.211,0.462-25.087,0.77c20.675-29.756,41.76-70.132,57.973-124.205c25.241,7.849,52.687,11.44,80.647,10.927
				c19.086-0.36,37.503-3.283,55.101-8.414c3.385,2.36,7.028,4.309,10.979,5.746c35.912,13.288,80.597-17.905,99.733-69.669
				c1.283-3.489,2.462-7.028,3.387-10.517c31.243-35.143,53.406-78.135,63.41-121.998
				C2941.982,3133.329,2943.06,3127.788,2943.933,3122.248z"/>
		</g>
		<g>
			<path style="fill:#232323;" d="M1273.873,3037.644c14.407,8.391,26.694,20.572,36.106,34.865
				c2.286,3.588,4.53,7.377,6.384,11.111c1.614,3.504,3.32,7,4.844,10.497c3.145,6.986,5.834,14.115,8.561,21.164
				c5.366,14.152,10.055,28.464,14.326,42.901c4.142,14.493,7.972,29.051,10.747,44.018c0.249,1.343-0.638,2.633-1.981,2.882
				c-0.985,0.183-1.948-0.255-2.487-1.028c-17.234-24.836-32.573-50.374-48.013-75.347c-3.765-6.288-7.791-12.386-11.559-18.523
				c-1.869-3.099-3.839-6.046-5.746-9.069c-1.76-2.742-3.424-5.264-5.331-7.794c-7.443-10.14-16.433-19.209-25.901-28.399
				l-0.37-0.359c-6.746-6.546-6.907-17.321-0.36-24.066C1258.655,3034.768,1267.273,3033.799,1273.873,3037.644z"/>
		</g>
		<g style="opacity:0.3;">
			<path style="fill:#232323;" d="M1758.765,3462.515c21.596,0.271,43.778,0.586,66.411,0.902
				c-14.788,5.004-32.913,6.266-54.959,1.893C1766.339,3464.544,1762.507,3463.597,1758.765,3462.515z"/>
		</g>
		<g style="opacity:0.3;">
			<path style="fill:#232323;" d="M2257.367,3464.635c-0.992,0.27-1.984,0.496-2.975,0.676c-18.845,3.742-34.806,3.381-48.287,0
				C2224.049,3465.085,2241.136,3464.86,2257.367,3464.635z"/>
		</g>
		<g>
			<path style="fill:#666566;" d="M1837.583,3321.217c-0.676,21.461-2.48,40.983-5.636,57.98
				c-10.46,56.222-48.377,125.834-149.278,105.862c-98.332-19.477-164.969-118.44-203.878-255.23
				c37.286-10.144,109.829-21.957,235.979-15.194c53.787,2.885,90.487-2.254,115.284-11.497
				C1833.66,3244.481,1836.591,3284.562,1837.583,3321.217z"/>
		</g>
		<g>
			<path style="fill:#666566;" d="M2520.947,3230.64c-38.909,136.339-105.456,234.987-203.608,254.419
				c-100.901,19.973-138.818-49.639-149.323-105.862c-6.763-36.158-7.169-83.724-4.509-136.925c0-0.271,0.045-0.586,0.045-0.901
				c0.947-12.579,2.029-25.338,3.156-38.233c24.797,9.242,61.497,14.382,115.284,11.497
				C2411.569,3207.691,2484.607,3220.36,2520.947,3230.64z"/>
		</g>
		<g>
			<path style="fill:#666566;" d="M2520.947,3230.64c-38.909,136.339-105.456,234.987-203.608,254.419
				c-100.901,19.973-138.818-49.639-149.323-105.862c-6.763-36.158-7.169-83.724-4.509-136.925c0-0.271,0.045-0.586,0.045-0.901
				c0.947-12.579,2.029-25.338,3.156-38.233c24.797,9.242,61.497,14.382,115.284,11.497
				C2411.569,3207.691,2484.607,3220.36,2520.947,3230.64z"/>
		</g>
		<g>
			<path style="fill:#232323;" d="M2649.532,3487.192H1359.576c-91.072,0-177.185-37.759-236.262-103.594
				c-49.402-55.029-74.653-121.182-75.049-196.606c-0.566-106.982,41.287-150.732,76.496-168.594
				c39.646-20.112,90.618-16.211,134.002,9.258c31.887-50.137,72.48-77.837,120.535-82.026
				c99.57-8.74,197.483,88.389,221.196,113.73h808.12c23.711-25.337,121.543-122.422,221.194-113.73
				c47.952,4.18,88.474,31.768,120.525,82.017c43.384-25.459,94.338-29.375,133.997-9.263
				c35.217,17.852,77.078,61.602,76.511,168.608c-0.396,75.43-25.647,141.582-75.051,196.611
				C2826.715,3449.433,2740.601,3487.192,2649.532,3487.192z M1180.155,3039.57c-14.363,0-28.11,2.949-40.078,9.023
				c-38.293,19.424-58.335,67.222-57.959,138.223c0.352,66.89,22.688,125.488,66.389,174.17
				c52.668,58.691,129.597,92.349,211.069,92.349h1289.956c81.47,0,158.398-33.657,211.064-92.344
				c43.704-48.682,66.04-107.285,66.392-174.175l0,0c0.376-71.021-19.67-118.823-57.969-138.237
				c-32.566-16.514-78.289-9.937-113.782,16.357l-14.714,10.898l-15.535-24.829c-26.79-44.248-59.736-68.281-98.057-71.646
				c-94.958-8.286-197.087,106.914-198.108,108.076l-5.056,5.771l-7.681,0.01h-830.755l-5.059-5.786
				c-1.016-1.157-103.171-116.26-198.101-108.071c-38.32,3.364-71.267,27.397-97.927,71.431l-15.898,24.883l-14.57-10.786
				C1231.353,3048.29,1204.842,3039.57,1180.155,3039.57z"/>
		</g>
		<g>
			<path style="fill:#EF5050;" d="M1573.826,2329.391c0.77-11.594,2.001-22.419,3.643-32.527
				C1576.34,2314.154,1574.185,2327.288,1573.826,2329.391z"/>
		</g>
		<g>
			<rect x="1615.761" y="2722.784" style="fill:#E5E5E5;" width="768.456" height="431.809"/>
		</g>
		<g style="opacity:0.3;">
			<path style="fill:#232323;" d="M2370.87,2612.064h-741.75c-69.071,199.594-81.875,503.427-16.681,690.307
				c28.809,82.642,72.858,142.38,134.04,160.144c21.596,0.271,43.778,0.586,66.411,0.902c71.1,0.947,146.664,1.848,223.309,2.615
				c15.735,0.181,31.605,0.27,47.43,0.451c15.509-0.18,31.018-0.315,46.482-0.451c22.409-0.225,43.599-0.451,63.707-0.721
				c17.944-0.225,35.031-0.451,51.262-0.676c68.846-15.195,116.998-82.056,146.89-175.294
				C2452.114,3101.65,2438.363,2807.104,2370.87,2612.064z M2012.619,3332.262c-8.729,0-17.72-0.03-27.013-0.102
				c-59.518-0.467-109.092-46.125-113.964-105.445c-2.138-26.033-4.751-52.926-7.311-79.71
				c-1.893-19.432-25.293-153.607-47.7-156.583l368.26,4.508c-22.859,17.539-47.34,132.191-49.234,152.03
				c-2.561,26.823-5.175,53.762-7.314,79.844c-4.886,59.576-54.806,105.441-114.582,105.458
				C2013.38,3332.262,2013,3332.262,2012.619,3332.262z"/>
		</g>
		<g>
			<path style="fill:#FFFFFF;" d="M2562.083,2955.41c-1.026,23.701-2.615,47.147-4.771,70.234v0.051
				c-3.591,39.452-8.67,77.775-15.442,114.406c-5.745,31.602-12.723,61.922-20.932,90.549
				c-38.938,136.313-105.478,234.968-203.622,254.412c-100.913,19.956-138.826-49.662-149.291-105.889
				c-6.772-36.118-7.183-83.676-4.515-136.877c0-0.308,0.051-0.616,0.051-0.923c2.668-54.177,8.569-114.098,14.262-173.61
				c2.463-26.01,4.925-52.021,7.029-77.365h-369.741c0.974,11.902,2.052,23.856,3.18,35.963c1.231,13.75,2.565,27.601,3.848,41.453
				c2.719,28.525,5.49,57.05,7.901,85.061c5.387,61.204,9.132,119.741,7.542,168.325c-0.667,21.496-2.514,40.991-5.643,57.973
				c-10.466,56.228-48.38,125.846-149.292,105.889c-98.296-19.495-164.939-118.459-203.878-255.233
				c-2.514-8.773-4.925-17.7-7.182-26.729c-1.642-6.567-3.233-13.288-4.772-19.958c-3.591-15.801-6.874-32.013-9.747-48.584
				c-5.848-32.475-10.363-66.283-13.749-101.015c-2.617-27.191-4.515-54.946-5.695-83.06c-1.591-36.989-1.949-74.594-1.026-112.354
				c0.718-33.809,2.411-67.72,5.079-101.426c3.13-40.221,7.593-80.135,13.338-119.228c6.413-44.428,14.519-87.779,24.165-129.232
				c0.718-3.335,1.539-6.669,2.308-9.952c0.564-2.258,1.077-4.567,1.693-6.824c8.978-36.784,19.239-71.927,30.628-104.915h972.296
				c11.389,32.988,21.65,68.131,30.628,104.915c0.615,2.257,1.129,4.566,1.694,6.824c0.82,3.334,1.589,6.669,2.308,10.004
				c8.413,36.117,15.647,73.62,21.598,112.046c6.875,43.762,12.158,88.755,15.698,134.055c2.565,31.706,4.259,63.565,5.13,95.373
				C2564.341,2871.991,2563.982,2914.111,2562.083,2955.41z"/>
		</g>
		<g>
			<g>
				<path style="fill:#595959;" d="M1670.192,2721.314c-3.232,14.673-119.742,24.113-228.504,15.391
					c3.13-40.221,7.594-80.135,13.339-119.228C1576.769,2708.027,1674.296,2702.742,1670.192,2721.314z"/>
			</g>
			<g>
				<path style="fill:#595959;" d="M1654.595,2868.246c1.181,15.134-109.429,58.947-216.96,82.238
					c-1.591-36.989-1.95-74.594-1.027-112.354C1569.073,2880.097,1653.159,2850.085,1654.595,2868.246z"/>
			</g>
			<g>
				<path style="fill:#595959;" d="M1645.566,3058.939c1.13,13.8-90.755,51.406-188.488,75.621
					c-5.848-32.475-10.362-66.283-13.749-101.015C1566.662,3068.482,1644.181,3041.497,1645.566,3058.939z"/>
			</g>
			<g>
				<g>
					<path style="fill:#595959;" d="M2558.043,2734.396c-114.97,12.416-249.385,2.719-252.873-13.082
						c-4.36-19.7,105.479-12.569,237.174-120.973C2549.219,2644.103,2554.503,2689.096,2558.043,2734.396z"/>
				</g>
				<g>
					<path style="fill:#595959;" d="M2562.096,2955.41c-114.458-21.445-242.613-70.901-241.33-87.164
						c1.54-19.239,95.937,15.647,242.407-38.477C2564.353,2871.991,2563.994,2914.111,2562.096,2955.41z"/>
				</g>
				<g>
					<path style="fill:#595959;" d="M2557.325,3025.695c-3.592,39.452-8.671,77.775-15.444,114.406
						c-105.94-23.549-213.266-66.284-212.086-81.162C2331.284,3040.368,2419.371,3072.227,2557.325,3025.695z"/>
				</g>
			</g>
		</g>
		<g>
			<path style="fill:#595959;" d="M1837.581,3321.201c-0.204,6.875-0.564,13.544-1.026,20.008c-0.205,3.437-0.461,6.772-0.82,10.055
				c-0.154,1.642-0.308,3.283-0.514,4.925c-0.154,1.642-0.359,3.233-0.512,4.823c-0.411,3.129-0.822,6.26-1.282,9.286
				c-0.462,3.027-0.976,6.003-1.488,8.876c-10.466,56.228-48.38,125.846-149.292,105.889c-4.617-0.924-9.132-2.001-13.595-3.283
				c-1.18-0.308-2.36-0.667-3.54-1.026c-5.541-1.641-10.98-3.591-16.264-5.797c-1.385-0.565-2.771-1.181-4.156-1.796
				c-7.49-3.283-14.723-7.131-21.752-11.44c-1.435-0.872-2.821-1.744-4.206-2.668c-1.437-0.872-2.822-1.795-4.156-2.771
				c-0.103-0.051-0.154-0.103-0.206-0.103c-2.616-1.795-5.13-3.642-7.644-5.489c-1.488-1.129-2.925-2.206-4.31-3.386
				c-1.334-1.026-2.668-2.103-3.95-3.18c-6.618-5.49-12.979-11.44-19.136-17.802c-1.18-1.231-2.36-2.514-3.54-3.796
				c-1.231-1.283-2.411-2.565-3.591-3.95c-1.18-1.334-2.36-2.668-3.54-4.053c-0.976-1.129-1.95-2.258-2.925-3.438
				c-2.925-3.489-5.747-7.08-8.567-10.825c-1.437-1.898-2.873-3.796-4.258-5.797c-3.334-4.566-6.567-9.286-9.697-14.211
				c-1.435-2.155-2.821-4.309-4.206-6.515c-0.205-0.308-0.359-0.616-0.565-0.924c-1.897-3.077-3.745-6.156-5.54-9.337
				c-0.103-0.051-0.154-0.153-0.205-0.307c-1.745-3.027-3.49-6.105-5.182-9.235c-0.514-0.923-1.078-1.898-1.539-2.873
				c-1.591-2.924-3.13-5.899-4.669-8.927c-1.898-3.642-3.693-7.387-5.489-11.132c-1.745-3.642-3.437-7.336-5.13-11.082
				c-0.154-0.308-0.308-0.667-0.462-1.026c-1.642-3.643-3.231-7.388-4.822-11.184c-1.693-3.95-3.336-8.004-4.925-12.107
				c-1.642-4.052-3.181-8.208-4.721-12.364c-1.283-3.488-2.565-6.926-3.745-10.466c-4.925-13.852-9.439-28.165-13.646-42.94
				c3.079-0.821,6.413-1.693,9.953-2.514c39.657-9.44,110.302-18.88,226.042-12.672c24.369,1.282,45.25,0.974,63.052-0.616
				c21.547-2,38.683-5.848,52.226-10.876C1833.682,3244.503,1836.606,3284.57,1837.581,3321.201z"/>
		</g>
		<g style="opacity:0.3;">
			<path style="fill:#232323;" d="M1837.581,3321.201c0-0.002,0-0.005,0-0.007c1.617-48.612-2.178-107.081-7.527-168.327
				c-2.435-27.999-5.186-56.538-7.891-85.031c-1.307-13.887-2.615-27.728-3.877-41.479c-4.148,24.166-11.362,64.382-23.716,127.457
				c-4.216,21.542-9.563,41.999-16.865,60.475c-1.003,2.536-2.054,5.025-3.134,7.483c-0.261,0.596-0.526,1.188-0.792,1.78
				c-1.072,2.378-2.172,4.726-3.319,7.025c-0.082,0.164-0.159,0.333-0.24,0.496c-1.256,2.497-2.568,4.937-3.921,7.335
				c-0.249,0.444-0.508,0.88-0.762,1.321c-1.191,2.066-2.419,4.094-3.687,6.08c-0.223,0.349-0.439,0.705-0.664,1.052
				c-1.469,2.259-2.988,4.465-4.564,6.613c-0.239,0.326-0.49,0.641-0.731,0.965c-1.361,1.822-2.767,3.599-4.21,5.336
				c-0.369,0.443-0.732,0.889-1.106,1.326c-1.692,1.981-3.429,3.916-5.237,5.777c-0.16,0.166-0.332,0.321-0.494,0.486
				c-1.635,1.664-3.328,3.266-5.061,4.829c-0.513,0.462-1.029,0.921-1.55,1.374c-1.746,1.517-3.531,2.99-5.376,4.403
				c-0.22,0.168-0.427,0.348-0.648,0.515c-2.012,1.516-4.102,2.949-6.235,4.338c-0.638,0.415-1.289,0.816-1.938,1.22
				c-1.72,1.07-3.481,2.096-5.282,3.082c-0.571,0.312-1.125,0.641-1.704,0.945c-2.261,1.187-4.589,2.302-6.975,3.355
				c-0.713,0.314-1.448,0.604-2.17,0.906c-1.866,0.779-3.772,1.517-5.717,2.214c-0.8,0.287-1.591,0.581-2.404,0.853
				c-2.563,0.859-5.182,1.659-7.882,2.375c-0.641,0.17-1.31,0.31-1.958,0.472c-2.233,0.556-4.51,1.063-6.836,1.52
				c-0.914,0.18-1.832,0.358-2.762,0.522c-2.874,0.508-5.795,0.965-8.813,1.321c-0.106,0.012-0.208,0.031-0.314,0.044
				c-2.18,0.254-4.359,0.481-6.536,0.686c-0.509,0.048-1.017,0.084-1.525,0.129c-1.606,0.142-3.213,0.276-4.819,0.39
				c-0.852,0.061-1.705,0.106-2.557,0.158c-1.252,0.077-2.505,0.151-3.756,0.209c-1.005,0.047-2.008,0.081-3.011,0.115
				c-1.097,0.038-2.195,0.073-3.292,0.097c-1.094,0.023-2.188,0.037-3.281,0.045c-0.988,0.008-1.974,0.009-2.96,0.005
				c-1.18-0.006-2.361-0.019-3.54-0.042c-0.875-0.018-1.748-0.045-2.622-0.072c-1.27-0.041-2.539-0.085-3.806-0.148
				c-0.746-0.037-1.489-0.086-2.233-0.13c-1.383-0.083-2.766-0.167-4.146-0.277c-0.525-0.042-1.049-0.096-1.572-0.142
				c-9.342-0.816-18.613-2.265-27.782-4.459c-0.28-0.067-0.56-0.128-0.841-0.197c-1.65-0.404-3.297-0.839-4.941-1.291
				c-0.366-0.101-0.735-0.199-1.101-0.302c-1.614-0.455-3.223-0.938-4.829-1.441c-0.378-0.119-0.758-0.238-1.138-0.36
				c-1.615-0.519-3.228-1.062-4.836-1.632c-0.339-0.12-0.677-0.244-1.016-0.366c-1.661-0.6-3.319-1.222-4.971-1.878
				c-0.225-0.089-0.448-0.183-0.673-0.273c-11.293-4.539-22.379-10.393-33.195-17.783c-0.054-0.036-0.106-0.07-0.159-0.106
				c-1.667-1.142-3.326-2.329-4.982-3.545c-0.231-0.169-0.461-0.335-0.692-0.506c-1.576-1.168-3.145-2.376-4.707-3.613
				c-0.294-0.232-0.587-0.464-0.88-0.698c-1.539-1.232-3.071-2.497-4.597-3.797c-0.292-0.249-0.583-0.502-0.875-0.753
				c-1.544-1.331-3.083-2.692-4.615-4.094c-0.223-0.205-0.447-0.417-0.67-0.624c-1.608-1.485-3.209-2.999-4.801-4.564
				c-0.038-0.037-0.077-0.077-0.115-0.115c-6.962-6.855-13.777-14.486-20.424-22.96c-0.005,0.001-0.007,0.002-0.012,0.003
				c-5.825-7.424-11.528-15.469-17.086-24.227c2.267,9.063,4.653,17.974,7.147,26.737c0,0-0.001,0-0.002,0.001
				c0.009,0.031,0.02,0.06,0.027,0.09c1.967,6.906,4.021,13.691,6.129,20.4c0.239,0.761,0.479,1.526,0.72,2.284
				c16.376,51.533,36.99,96.971,62.074,133.873c0.583,0.862,1.173,1.713,1.763,2.563c2.107,3.041,4.247,6.02,6.416,8.94
				c0.562,0.753,1.108,1.533,1.674,2.279c0.045,0.06,0.092,0.113,0.137,0.173c2.737,3.611,5.516,7.136,8.351,10.551
				c0.027,0.033,0.052,0.068,0.079,0.101c0.975,1.18,1.949,2.309,2.925,3.438c0.533,0.626,1.067,1.222,1.6,1.833
				c1.24,1.421,2.488,2.824,3.746,4.208c0.592,0.65,1.173,1.325,1.783,1.963c1.18,1.283,2.361,2.565,3.54,3.796
				c0.317,0.327,0.649,0.624,0.967,0.949c2.5,2.564,5.037,5.053,7.605,7.47c0.886,0.834,1.792,1.633,2.688,2.449
				c2.153,1.966,4.329,3.887,6.531,5.75c0.455,0.383,0.889,0.805,1.345,1.184c0.752,0.632,1.539,1.243,2.317,1.865
				c1.028,0.832,2.059,1.656,3.097,2.466c0.939,0.745,1.864,1.491,2.847,2.236c0.709,0.521,1.444,1.028,2.156,1.548
				c1.083,0.794,2.17,1.573,3.264,2.344c0.746,0.53,1.464,1.075,2.224,1.598c0.051,0,0.104,0.052,0.206,0.103
				c0.798,0.584,1.654,1.113,2.49,1.661c0.917,0.606,1.832,1.213,2.756,1.802c1.028,0.667,2.052,1.33,3.115,1.975
				c0.557,0.342,1.135,0.632,1.696,0.968c2.086,1.247,4.196,2.442,6.32,3.604c1.304,0.716,2.601,1.446,3.92,2.129
				c3.066,1.584,6.167,3.09,9.309,4.495c0.172,0.076,0.336,0.17,0.508,0.245c1.385,0.615,2.771,1.231,4.156,1.796
				c1.23,0.514,2.496,0.964,3.743,1.449c0.642,0.249,1.282,0.504,1.926,0.745c2.188,0.82,4.398,1.581,6.627,2.307
				c0.99,0.326,1.976,0.661,2.972,0.97c0.334,0.102,0.659,0.226,0.995,0.325c1.18,0.36,2.36,0.719,3.54,1.026
				c0.71,0.204,1.432,0.371,2.145,0.565c0.967,0.259,1.931,0.522,2.904,0.765c2.82,0.71,5.658,1.375,8.546,1.953
				c11.177,2.21,21.538,3.265,31.217,3.417c77.721,1.248,108.781-59.284,118.083-109.284c0.245-1.317,0.441-2.722,0.67-4.069
				c0.273-1.608,0.558-3.183,0.809-4.83c0.027-0.177,0.049-0.366,0.074-0.544c0.209-1.391,0.394-2.822,0.586-4.243
				c0.205-1.505,0.422-2.982,0.623-4.498c0.078-0.827,0.172-1.673,0.266-2.507c0.145-1.283,0.276-2.594,0.41-3.899
				c0.121-1.114,0.244-2.228,0.349-3.342c0.081-0.868,0.142-1.778,0.217-2.658c0.176-2.015,0.345-4.043,0.498-6.104
				c0.033-0.435,0.072-0.858,0.105-1.293c0.105-1.464,0.183-2.977,0.276-4.462c0.098-1.598,0.212-3.168,0.297-4.792
				C1837.316,3328.426,1837.473,3324.846,1837.581,3321.201z"/>
		</g>
		<g>
			<path style="fill:#595959;" d="M2520.938,3230.651c0,0.051,0,0.103-0.05,0.206c-2.053,7.182-4.207,14.262-6.413,21.24
				c-0.565,1.847-1.13,3.642-1.745,5.489c-1.385,4.207-2.771,8.414-4.207,12.57c-1.128,3.284-2.257,6.515-3.488,9.748
				c-1.077,2.975-2.156,5.899-3.283,8.824c-0.565,1.591-1.181,3.129-1.796,4.719c-0.924,2.36-1.847,4.72-2.822,7.029
				c-0.462,1.334-1.026,2.617-1.591,3.95c-0.974,2.411-2,4.874-3.026,7.233c-3.079,7.183-6.259,14.16-9.543,20.983
				c-1.282,2.719-2.616,5.386-3.95,8.003c-0.411,0.872-0.872,1.795-1.334,2.616c-1.437,2.821-2.872,5.643-4.36,8.363
				c-0.308,0.615-0.667,1.231-0.976,1.795c-3.745,6.926-7.644,13.698-11.697,20.162c-2.052,3.283-4.155,6.566-6.259,9.747
				c-2.923,4.464-5.951,8.773-8.978,12.928c-0.563,0.719-1.077,1.437-1.589,2.104c-3.027,4.104-6.157,8.105-9.389,12.005
				c-4.617,5.644-9.389,10.979-14.314,16.058c-1.231,1.231-2.462,2.514-3.694,3.745c-1.231,1.232-2.514,2.463-3.745,3.643
				c-1.282,1.18-2.514,2.36-3.796,3.54c-1.282,1.18-2.565,2.308-3.848,3.437c-1.334,1.129-2.616,2.206-3.899,3.335
				c-0.308,0.256-0.616,0.512-0.923,0.769c-2.31,1.899-4.669,3.745-7.029,5.541c-0.154,0.103-0.308,0.205-0.461,0.359
				c-2.515,1.898-5.08,3.694-7.645,5.489c-0.05,0-0.05,0-0.05,0c-1.385,0.975-2.771,1.899-4.156,2.771
				c-1.642,1.077-3.284,2.104-4.925,3.079c-1.18,0.718-2.361,1.436-3.541,2.103c-1.437,0.821-2.872,1.642-4.309,2.411
				c-1.437,0.77-2.873,1.539-4.361,2.309c-1.437,0.718-2.925,1.436-4.413,2.155c-1.487,0.718-2.975,1.385-4.463,2.052
				c-2.976,1.334-6.002,2.565-9.081,3.745c-1.129,0.411-2.308,0.872-3.488,1.282c-8.106,2.873-16.418,5.182-24.985,6.875
				c-50.944,10.055-85.83-2.668-109.225-24.985c-2.565-2.462-4.925-5.028-7.233-7.644c-18.264-21.188-28.217-48.481-32.833-73.26
				c-1.078-5.746-2.001-11.8-2.771-18.11c-0.36-3.181-0.719-6.361-1.026-9.645c0-0.051,0-0.051,0-0.051
				c-0.308-3.283-0.565-6.618-0.822-10.004c-0.103-1.693-0.206-3.489-0.358-5.233c-0.308-5.182-0.513-10.466-0.719-15.905
				c0.052-0.051,0-0.102,0-0.153c-0.769-23.856-0.205-50.072,1.18-77.776c0-0.308,0.051-0.616,0.051-0.923
				c0-0.205,0.052-0.411,0.052-0.616c0.923-12.364,1.949-24.932,3.079-37.605c14.261,5.284,32.474,9.286,55.56,11.133
				c17.084,1.334,36.837,1.591,59.718,0.359c118.407-6.362,189.667,3.642,228.761,13.287
				C2514.422,3228.855,2517.809,3229.779,2520.938,3230.651z"/>
		</g>
		<g>
			<path style="fill:#E5E5E5;" d="M2177.844,3067.745c2.48-26.015,4.915-47.475,7.034-72.814H1815.13
				c2.119,25.383,4.554,46.844,7.034,72.904c-15.104-33.318-23.715-71.416-23.715-111.858c0-131.109,90.217-237.375,201.533-237.375
				c111.316,0,201.578,106.267,201.578,237.375C2201.559,2996.374,2192.993,3034.427,2177.844,3067.745z"/>
		</g>
		<g style="opacity:0.3;">
			<path style="fill:#232323;" d="M2487.876,3322.164c1.316-2.902,2.609-5.844,3.889-8.805c0.248-0.572,0.505-1.126,0.752-1.701
				c0.138-0.319,0.27-0.655,0.408-0.977c13.926-32.655,25.718-68.786,35.425-107.589c-0.012,0.018-0.023,0.034-0.034,0.052
				c0.004-0.014,0.007-0.028,0.011-0.042c-2.7,4.256-5.441,8.325-8.214,12.264c-0.256,0.365-0.513,0.734-0.769,1.097
				c-2.83,3.976-5.696,7.809-8.613,11.469c-24.762,31.386-51.829,51.136-80.197,62.545c-0.353,0.142-0.704,0.29-1.056,0.429
				c-1.478,0.583-2.961,1.133-4.446,1.671c-0.551,0.199-1.099,0.401-1.65,0.594c-1.375,0.483-2.754,0.942-4.136,1.388
				c-0.669,0.216-1.339,0.429-2.009,0.636c-1.307,0.405-2.617,0.794-3.929,1.167c-0.751,0.212-1.501,0.416-2.252,0.618
				c-1.261,0.34-2.522,0.672-3.787,0.983c-0.815,0.2-1.635,0.386-2.452,0.574c-1.213,0.281-2.428,0.562-3.646,0.817
				c-0.902,0.189-1.808,0.356-2.712,0.531c-1.145,0.222-2.288,0.452-3.435,0.652c-1.202,0.209-2.408,0.388-3.613,0.574
				c-1.204,0.186-2.406,0.369-3.611,0.532c-1.7,0.229-3.402,0.447-5.107,0.632c-0.745,0.081-1.492,0.14-2.238,0.213
				c-1.385,0.135-2.77,0.269-4.159,0.375c-0.776,0.06-1.554,0.103-2.332,0.154c-1.366,0.09-2.732,0.176-4.1,0.239
				c-0.774,0.036-1.549,0.06-2.323,0.088c-1.387,0.05-2.773,0.091-4.163,0.115c-0.747,0.013-1.494,0.02-2.241,0.025
				c-1.44,0.01-2.883,0.009-4.327-0.007c-0.688-0.007-1.378-0.016-2.067-0.03c-1.531-0.03-3.063-0.077-4.596-0.135
				c-0.612-0.024-1.222-0.043-1.835-0.071c-1.671-0.076-3.345-0.172-5.018-0.281c-0.472-0.031-0.944-0.055-1.415-0.088
				c-2.004-0.14-4.009-0.303-6.016-0.487c-0.142-0.013-0.284-0.023-0.426-0.036c-2.225-0.208-4.453-0.442-6.681-0.701
				c-0.151-0.018-0.294-0.044-0.444-0.062c-2.976-0.354-5.862-0.802-8.696-1.304c-0.906-0.16-1.798-0.333-2.69-0.508
				c-2.378-0.467-4.709-0.984-6.99-1.554c-0.591-0.148-1.201-0.276-1.785-0.43c-2.744-0.726-5.406-1.538-8.01-2.411
				c-0.726-0.244-1.433-0.508-2.148-0.763c-2.051-0.731-4.059-1.507-6.023-2.329c-0.645-0.27-1.301-0.529-1.937-0.809
				c-2.439-1.073-4.818-2.209-7.124-3.42c-0.481-0.252-0.941-0.527-1.416-0.785c-1.898-1.032-3.751-2.112-5.56-3.237
				c-0.608-0.378-1.217-0.754-1.814-1.141c-2.162-1.402-4.28-2.85-6.316-4.382c-0.131-0.098-0.251-0.205-0.381-0.303
				c-1.921-1.459-3.774-2.99-5.588-4.562c-0.537-0.467-1.069-0.94-1.598-1.416c-1.617-1.457-3.197-2.954-4.73-4.499
				c-0.282-0.284-0.577-0.555-0.857-0.842c-1.749-1.801-3.434-3.67-5.076-5.583c-0.459-0.535-0.906-1.083-1.356-1.626
				c-1.276-1.536-2.518-3.106-3.728-4.709c-0.398-0.527-0.806-1.044-1.198-1.578c-1.477-2.017-2.909-4.083-4.292-6.198
				c-0.376-0.575-0.735-1.167-1.104-1.748c-1.053-1.661-2.08-3.349-3.081-5.065c-0.422-0.726-0.847-1.45-1.261-2.186
				c-1.238-2.202-2.446-4.434-3.602-6.72c-0.264-0.522-0.51-1.062-0.77-1.588c-0.929-1.88-1.832-3.787-2.71-5.719
				c-0.399-0.881-0.795-1.767-1.185-2.659c-0.828-1.896-1.632-3.816-2.416-5.757c-7.606-18.86-13.137-39.823-17.467-61.941
				c-12.352-63.075-19.567-103.292-23.715-127.457c-1.262,13.751-2.57,27.592-3.878,41.479c-2.704,28.494-5.454,57.033-7.889,85.031
				c-2.649,30.33-4.899,59.946-6.32,88.06c-0.016,0.149-0.038,0.298-0.038,0.447c-0.031,0.615-0.048,1.205-0.077,1.818
				c-0.969,19.764-1.5,38.732-1.448,56.637c0.002,0.967,0.002,1.938,0.007,2.898c0.034,5.124,0.112,10.169,0.249,15.104
				c0.02,0.734,0.016,1.512,0.037,2.241c0,0.052,0.051,0.103,0,0.154c0.085,2.25,0.206,4.379,0.298,6.58
				c0.1,2.315,0.188,4.651,0.313,6.918c0.043,0.789,0.062,1.623,0.11,2.407c0.153,1.744,0.255,3.539,0.358,5.233
				c0.063,0.843,0.14,1.655,0.204,2.492c0.084,1.094,0.177,2.173,0.269,3.255c0.116,1.416,0.217,2.86,0.349,4.258c0,0,0,0,0,0.051
				c0.148,1.584,0.328,3.106,0.496,4.654c0.061,0.577,0.12,1.16,0.183,1.732c0.12,1.079,0.226,2.184,0.347,3.259
				c0.269,2.199,0.58,4.325,0.885,6.46c0.061,0.434,0.116,0.879,0.179,1.31c0.483,3.275,1.006,6.479,1.578,9.585
				c0.046,0.253,0.082,0.526,0.128,0.779c0.554,2.981,1.205,6.006,1.919,9.048c0.038,0.161,0.072,0.319,0.11,0.48
				c0.718,3.018,1.525,6.054,2.41,9.099c0.049,0.168,0.096,0.335,0.146,0.503c6.368,21.686,17.148,43.613,34.185,60.437
				c0.437,0.436,0.85,0.885,1.298,1.315c0.1,0.095,0.209,0.183,0.309,0.279c0.784,0.741,1.602,1.449,2.41,2.168
				c0.707,0.628,1.398,1.267,2.123,1.877c0.822,0.691,1.681,1.346,2.527,2.013c0.753,0.594,1.493,1.202,2.267,1.777
				c0.883,0.655,1.804,1.272,2.714,1.902c0.785,0.543,1.552,1.101,2.356,1.623c0.968,0.63,1.979,1.218,2.979,1.819
				c0.789,0.474,1.559,0.966,2.367,1.421c1.082,0.609,2.208,1.172,3.324,1.746c0.773,0.397,1.525,0.815,2.313,1.195
				c1.224,0.589,2.495,1.126,3.76,1.672c0.728,0.314,1.432,0.651,2.173,0.95c1.396,0.564,2.843,1.07,4.287,1.58
				c0.654,0.231,1.287,0.487,1.952,0.706c1.589,0.525,3.232,0.988,4.879,1.446c0.564,0.157,1.106,0.339,1.676,0.487
				c1.798,0.469,3.652,0.871,5.52,1.257c0.459,0.095,0.897,0.214,1.361,0.303c2.034,0.394,4.124,0.719,6.24,1.013
				c0.327,0.045,0.64,0.111,0.969,0.154c2.273,0.297,4.604,0.521,6.973,0.697c0.198,0.014,0.385,0.043,0.583,0.056
				c2.449,0.17,4.957,0.267,7.511,0.304c0.137,0.002,0.265,0.013,0.402,0.015c2.596,0.03,5.25-0.017,7.955-0.131
				c0.106-0.005,0.208-0.001,0.315-0.006c2.404-0.106,4.869-0.297,7.36-0.521c0.439-0.039,0.859-0.051,1.301-0.094
				c1.81-0.177,3.684-0.441,5.541-0.682c4.156-0.537,8.386-1.175,12.778-2.042c0.28-0.055,0.548-0.139,0.829-0.196
				c3.533-0.718,7.018-1.554,10.469-2.476c1.285-0.344,2.556-0.728,3.831-1.099c2.517-0.733,5.013-1.517,7.487-2.357
				c0.784-0.266,1.591-0.47,2.371-0.747c1.18-0.41,2.36-0.872,3.489-1.282c2.83-1.085,5.603-2.231,8.346-3.442
				c0.264-0.115,0.535-0.215,0.798-0.332c1.467-0.658,2.933-1.315,4.399-2.022c1.487-0.719,2.976-1.437,4.412-2.155
				c1.489-0.77,2.925-1.539,4.362-2.309c1.437-0.769,2.872-1.59,4.309-2.411c1.179-0.667,2.361-1.385,3.541-2.103
				c1.641-0.975,3.282-2.001,4.924-3.079c1.385-0.872,2.771-1.795,4.155-2.771c0,0,0,0,0.051,0c0.996-0.698,1.976-1.429,2.971-2.134
				c0.684-0.486,1.367-0.975,2.047-1.47c0.874-0.632,1.763-1.233,2.626-1.885c0.154-0.154,0.308-0.256,0.461-0.359
				c0.966-0.735,1.914-1.515,2.876-2.267c0.641-0.502,1.282-1.001,1.918-1.511c0.743-0.594,1.5-1.159,2.235-1.763
				c0.308-0.257,0.615-0.513,0.923-0.769c1.283-1.129,2.566-2.207,3.9-3.336c1.283-1.128,2.565-2.257,3.848-3.437
				c1.283-1.18,2.513-2.36,3.796-3.54c1.232-1.18,2.513-2.411,3.745-3.643c1.23-1.231,2.462-2.514,3.693-3.745
				c0.038-0.039,0.073-0.081,0.111-0.119c8.013-8.305,15.651-17.391,22.957-27.13c0.209-0.277,0.427-0.535,0.636-0.813
				c0.513-0.667,1.025-1.385,1.589-2.104c0.377-0.518,0.742-1.089,1.118-1.611c15.264-21.1,28.949-45.266,41.108-71.987
				C2487.722,3322.493,2487.8,3322.33,2487.876,3322.164z"/>
		</g>
		<g style="opacity:0.3;">
			<path style="fill:#232323;" d="M2520.734,2488.295c-123.641,75.159-294.378,115.483-520.726,115.483
				c-226.401,0-397.189-40.375-520.829-115.535c0.718-3.335,1.539-6.669,2.308-9.952c0.564-2.258,1.077-4.567,1.693-6.824
				c8.978-36.784,19.239-71.927,30.628-104.915h972.296c11.389,32.988,21.65,68.131,30.628,104.915
				c0.615,2.257,1.129,4.566,1.694,6.824C2519.246,2481.626,2520.015,2484.961,2520.734,2488.295z"/>
		</g>
		<g>
			<path style="fill:#595959;" d="M2571.266,1771.232c-206.135,517.597-605.017-335.368-674.994-641.083
				c-6.772-29.653-10.466-54.125-10.62-71.722c-1.899-253.386-67.002-436.692-96.655-507.131
				c-8.773-20.88-14.417-31.859-14.417-31.859s266.521-18.007,310.128,0C2168.076,553.861,2856.153,1056.016,2571.266,1771.232z"/>
		</g>
		<g style="opacity:0.5;">
			<path style="fill:#FFFFFF;" d="M2625.494,1584.49c81.059-592.807-472.911-994.511-547.148-1025.19
				c-35.707-14.724-220.603-5.336-286.63-1.437c-0.923-2.308-1.848-4.463-2.719-6.567c-8.773-20.88-14.417-31.859-14.417-31.859
				s266.521-18.007,310.128,0C2160.636,550.783,2737.796,969.878,2625.494,1584.49z"/>
		</g>
		<g style="opacity:0.3;">
			<path style="fill:#232323;" d="M2573.371,1333.053c-8.209,1.949-401.652-118.254-677.098-202.904
				c-6.772-29.653-10.466-54.125-10.62-71.722c-1.899-253.386-67.002-436.692-96.655-507.131
				c69.721,65.104,91.063,212.805,168.992,226.35c91.217,15.801,121.896-91.782,131.336-133.081
				c4.514-19.803,22.778,95.475,86.958,129.592c39.196,20.829,57.973-25.293,61.872-22.368
				c12.569,9.491,41.863,85.881,86.958,85.881C2402.326,837.67,2586.042,1330.026,2573.371,1333.053z"/>
		</g>
		<g>
			<path style="fill:#232323;" d="M2410.281,1951.308c-8.525,0.002-17.212-0.83-26.082-2.498
				c-140.405-26.392-278.325-264.746-348.042-404.478c-93.245-186.89-166.787-400.271-167.424-485.781
				c-2.39-319.993-108.147-529.285-109.216-531.362c-2.605-5.066-2.49-11.108,0.313-16.069c2.803-4.961,7.913-8.184,13.596-8.569
				c45.168-3.047,272.766-17.314,317.744,1.243c41.636,17.18,236.746,149.492,388.984,376.819
				c85.132,127.117,140.2,260.093,163.679,395.234c28.816,165.847,9.692,334.626-56.836,501.653
				C2540.999,1892.985,2481.634,1951.303,2410.281,1951.308z M1800.423,534.755c28.005,63.555,100.144,253.145,102.163,523.542
				c0.52,69.568,63.318,269.395,163.865,470.923c113.862,228.208,231.956,369.016,324.004,386.318
				c64.885,12.209,120.437-38.46,165.093-150.569c146.76-368.457,24.709-674.045-103.521-865.52
				c-145.835-217.764-335.803-348.696-373.772-364.363C2051.409,524.008,1902.969,528.6,1800.423,534.755z"/>
		</g>
		<g>
			<path style="fill:#232323;" d="M2097.69,643.253c10.481,60.32,10.159,122.04,2.927,182.646
				c-7.338,60.664-21.775,120.452-42.26,178.219c-3.125,8.814-12.804,13.425-21.617,10.3c-8.813-3.125-13.425-12.804-10.3-21.617
				c0.083-0.231,0.17-0.46,0.26-0.686l0.04-0.097c22.255-54.49,38.909-111.489,48.745-169.734
				c9.739-58.192,12.843-117.846,5.475-176.449l-0.01-0.076c-0.582-4.638,2.705-8.872,7.344-9.455
				C2092.793,635.738,2096.914,638.835,2097.69,643.253z"/>
		</g>
		<g>
			<path style="fill:#232323;" d="M2246.619,751.703c1.095,35.304-2.238,70.57-8.552,105.19
				c-6.354,34.632-15.721,68.676-27.692,101.83c-12.008,33.141-26.586,65.44-44.309,96.283
				c-17.842,30.752-38.519,60.343-65.477,86.069c-6.765,6.457-17.484,6.206-23.942-0.56c-6.456-6.766-6.206-17.485,0.56-23.941
				c0.154-0.147,0.309-0.29,0.468-0.43l0.388-0.341c24.039-21.11,44.722-47.811,62.633-76.089
				c17.908-28.402,33.158-58.757,45.983-90.108c12.798-31.373,23.17-63.816,30.651-96.915
				c7.446-33.089,12.031-66.894,12.365-100.766v-0.042c0.046-4.675,3.873-8.427,8.547-8.381
				C2242.794,743.545,2246.472,747.195,2246.619,751.703z"/>
		</g>
		<g>
			<path style="fill:#232323;" d="M2333.585,837.546c1.095,35.304-2.238,70.57-8.552,105.19
				c-6.354,34.632-15.721,68.676-27.692,101.83c-12.008,33.141-26.584,65.44-44.309,96.283
				c-17.842,30.752-38.519,60.343-65.477,86.069c-6.765,6.457-17.484,6.206-23.942-0.56c-6.456-6.766-6.205-17.485,0.56-23.941
				c0.154-0.147,0.31-0.29,0.468-0.43l0.388-0.341c24.039-21.11,44.722-47.811,62.633-76.089
				c17.908-28.402,33.158-58.757,45.983-90.108c12.798-31.373,23.17-63.816,30.651-96.915
				c7.446-33.089,12.031-66.894,12.365-100.766v-0.042c0.046-4.675,3.873-8.427,8.547-8.381
				C2329.761,829.389,2333.439,833.038,2333.585,837.546z"/>
		</g>
		<g>
			<g>
				<g>
					<path style="fill:#FFFFFF;" d="M1811.915,990.601c-127.684-48.917-280.758-276.84-336.452-311.671
						c-83.071-51.951-316.554,306.24,72.514,408.506L1811.915,990.601z"/>
				</g>
				<g>
					<path style="fill:#FFFFFF;" d="M1750.735,1013.024l-202.75,74.389c-66.848-17.545-115.329-42.684-149.344-71.978
						c-110.66-136.055-0.923-315.821,61.154-276.985C1511.252,770.617,1552.038,950.588,1750.735,1013.024z"/>
				</g>
				<g style="opacity:0.3;">
					<path style="fill:#232323;" d="M1750.735,1013.024l-202.75,74.389c-66.848-17.545-115.329-42.684-149.344-71.978
						c-110.66-136.055-0.923-315.821,61.154-276.985C1511.252,770.617,1552.038,950.588,1750.735,1013.024z"/>
				</g>
				<g>
					<path style="fill:#232323;" d="M1547.977,1104.362c-1.445,0-2.891-0.183-4.304-0.554
						c-168.147-44.199-216.699-132.622-227.82-199.016c-15.669-93.542,36.983-193.096,94.751-231.687
						c27.273-18.218,53.499-21.25,73.833-8.525c21.77,13.613,53.508,49.9,93.689,95.837c68,77.744,161.13,184.221,239.844,214.377
						c6.589,2.524,10.923,8.87,10.872,15.925c-0.049,7.056-4.473,13.342-11.096,15.772l-263.938,96.836
						C1551.929,1104.015,1549.954,1104.362,1547.977,1104.362z M1456.947,690.754c-10.425,0-22.073,6.851-27.539,10.503
						c-42.727,28.542-94.358,113.211-80.166,197.944c13.386,79.927,81.787,138.811,197.937,170.498l221.797-81.374
						c-75.366-44.448-152.544-132.693-216.333-205.62c-36.824-42.1-68.625-78.46-86.155-89.424
						C1463.607,691.481,1460.343,690.754,1456.947,690.754z"/>
				</g>
				<g>
					<path style="fill:#FF9F9F;" d="M1700.817,1010.151c0,0-108.199,17.853-155.295,21.24c-47.044,3.334-78.597-21.24-78.597-21.24
						s-0.974-0.564-2.718-1.641c-14.417-9.029-81.162-55.51-81.47-141.289c-0.052-6.67,0.359-13.595,1.18-20.778
						c6.978-59.101,47.712-95.834,57.511-82.393C1458.77,787.752,1549.011,998.044,1700.817,1010.151z"/>
				</g>
				<g>
					<path style="fill:#DB6565;" d="M1700.817,1010.151c0,0-108.133,23.53-155.295,21.24
						c-64.756-3.145-101.574-206.546-130.72-206.238c-18.17,0.192-27.037,20.47-32.064,42.068c-0.052-6.67,0.359-13.595,1.18-20.778
						c6.978-59.101,47.712-95.834,57.511-82.393C1458.77,787.752,1549.011,998.044,1700.817,1010.151z"/>
				</g>
				<g>
					<path style="fill:#232323;" d="M1462.806,1017.529c-6.962-4.007-12.706-8.141-18.63-12.712
						c-5.825-4.536-11.392-9.384-16.682-14.533c-10.564-10.305-20.129-21.74-28.141-34.299
						c-16.199-24.977-25.712-54.736-26.594-84.745c-0.215-3.75-0.151-7.492-0.038-11.234c-0.005-3.753,0.367-7.467,0.658-11.193
						c0.53-7.458,1.764-15.006,3.453-22.373c3.43-14.765,8.973-29.087,16.901-42.329c3.981-6.618,8.549-12.968,14.103-18.876
						c2.803-2.946,5.825-5.791,9.41-8.425c3.651-2.579,7.577-5.195,13.822-6.658c3.087-0.649,7.285-0.988,11.952,0.836
						c2.294,0.909,4.497,2.411,6.165,4.135c0.444,0.433,0.803,0.868,1.172,1.317l0.538,0.68l0.259,0.362l1.008,1.431
						c2.352,3.529,4.137,6.622,5.977,9.776l10.527,18.491c27.561,48.643,58.346,95.361,96.746,134.196
						c19.155,19.297,40.229,36.46,63.276,49.282c22.991,12.839,48.016,21.046,73.459,22.61c9.332,0.574,16.433,8.604,15.859,17.936
						c-0.574,9.332-8.604,16.433-17.936,15.859c-0.132-0.008-0.264-0.018-0.394-0.029l-0.212-0.019
						c-31.006-2.778-60.648-13.653-86.482-29.068c-25.953-15.428-48.508-35.049-68.534-56.363
						c-40.013-42.838-70.449-92.389-97.133-142.633l-9.921-18.619c-1.626-2.996-3.318-6.057-4.818-8.448
						c-1.351-1.934,0.32,0.469,1.628,0.732c1.364,0.512,1.874,0.209,1.527,0.286c-0.686,0.045-3.015,1.058-5.089,2.555
						c-2.155,1.487-4.365,3.427-6.478,5.545c-4.238,4.278-8.13,9.341-11.554,14.741c-6.868,10.835-11.989,23.04-15.256,35.703
						c-3.29,12.607-4.512,26.02-4.393,39.262c0.286,26.505,8.038,52.688,22.119,75.408c6.96,11.401,15.428,21.95,24.891,31.55
						c4.739,4.795,9.753,9.336,14.99,13.579c5.155,4.179,10.87,8.364,16.095,11.506l0.33,0.198c4.004,2.408,5.298,7.606,2.889,11.61
						C1471.898,1018.512,1466.79,1019.818,1462.806,1017.529z"/>
				</g>
			</g>
			<g>
				<g>
					<path style="fill:#FFFFFF;" d="M2188.081,990.601c127.684-48.917,280.758-276.84,336.452-311.671
						c83.071-51.951,316.554,306.24-72.514,408.506L2188.081,990.601z"/>
				</g>
				<g>
					<path style="fill:#FFFFFF;" d="M2249.261,1013.024l202.75,74.389c66.848-17.545,115.329-42.684,149.344-71.978
						c110.66-136.055,0.923-315.821-61.154-276.985C2488.743,770.617,2447.958,950.588,2249.261,1013.024z"/>
				</g>
				<g style="opacity:0.3;">
					<path style="fill:#232323;" d="M2249.261,1013.024l202.75,74.389c66.848-17.545,115.329-42.684,149.344-71.978
						c110.66-136.055,0.923-315.821-61.154-276.985C2488.743,770.617,2447.958,950.588,2249.261,1013.024z"/>
				</g>
				<g>
					<path style="fill:#232323;" d="M2452.02,1104.362c-1.978,0-3.953-0.347-5.83-1.035l-263.938-96.836
						c-6.624-2.429-11.047-8.716-11.096-15.772c-0.051-7.056,4.282-13.401,10.872-15.925
						c78.713-30.156,171.846-136.636,239.846-214.382c40.178-45.935,71.914-82.219,93.684-95.833
						c20.334-12.725,46.558-9.697,73.833,8.525c57.769,38.591,110.422,138.145,94.753,231.689
						c-11.121,66.394-59.673,154.814-227.82,199.014C2454.91,1104.179,2453.465,1104.362,2452.02,1104.362z M2231.021,988.325
						l221.797,81.374c116.147-31.687,184.548-90.571,197.937-170.498c14.192-84.732-37.439-169.402-80.168-197.944
						c-7.244-4.841-25.364-15.308-37.08-7.976c-17.527,10.964-49.329,47.322-86.15,89.419
						C2383.568,855.629,2306.387,943.874,2231.021,988.325z"/>
				</g>
				<g>
					<path style="fill:#FF9F9F;" d="M2299.178,1010.151c0,0,108.199,17.853,155.294,21.24c47.045,3.334,78.597-21.24,78.597-21.24
						s0.975-0.564,2.718-1.641c14.417-9.029,81.162-55.51,81.47-141.289c0.051-6.67-0.359-13.595-1.18-20.778
						c-6.978-59.101-47.712-95.834-57.51-82.393C2541.226,787.752,2450.985,998.044,2299.178,1010.151z"/>
				</g>
				<g>
					<path style="fill:#DB6565;" d="M2299.178,1010.151c0,0,108.133,23.53,155.294,21.24
						c64.757-3.145,101.574-206.546,130.72-206.238c18.17,0.192,27.037,20.47,32.064,42.068c0.051-6.67-0.359-13.595-1.18-20.778
						c-6.978-59.101-47.712-95.834-57.51-82.393C2541.226,787.752,2450.985,998.044,2299.178,1010.151z"/>
				</g>
				<g>
					<path style="fill:#232323;" d="M2528.939,1002.749c5.225-3.142,10.939-7.327,16.094-11.506
						c5.238-4.243,10.251-8.784,14.99-13.579c9.463-9.6,17.932-20.148,24.893-31.55c14.08-22.72,21.832-48.903,22.119-75.408
						c0.117-13.242-1.105-26.655-4.395-39.262c-3.267-12.663-8.387-24.869-15.256-35.703c-3.423-5.4-7.314-10.463-11.554-14.741
						c-2.113-2.118-4.324-4.058-6.478-5.545c-2.073-1.497-4.403-2.51-5.089-2.555c-0.347-0.078,0.165,0.225,1.528-0.286
						c1.309-0.263,2.98-2.666,1.627-0.732c-1.499,2.391-3.191,5.451-4.818,8.448l-9.921,18.619
						c-26.683,50.244-57.119,99.795-97.133,142.633c-20.026,21.315-42.581,40.935-68.534,56.363
						c-25.833,15.415-55.476,26.291-86.481,29.068l-0.135,0.012c-9.312,0.834-17.538-6.039-18.372-15.351
						c-0.835-9.313,6.039-17.538,15.352-18.372c0.131-0.012,0.341-0.027,0.471-0.036c25.444-1.564,50.469-9.771,73.461-22.61
						c23.046-12.822,44.12-29.985,63.275-49.282c38.4-38.835,69.185-85.553,96.746-134.196l10.527-18.491
						c1.841-3.154,3.624-6.247,5.977-9.776l1.008-1.431l0.26-0.362l0.537-0.68c0.369-0.449,0.728-0.884,1.172-1.317
						c1.667-1.724,3.871-3.226,6.166-4.135c4.666-1.824,8.864-1.485,11.952-0.836c6.245,1.462,10.17,4.079,13.821,6.658
						c3.585,2.634,6.609,5.479,9.41,8.425c5.554,5.908,10.122,12.258,14.103,18.876c7.927,13.242,13.47,27.564,16.902,42.329
						c1.689,7.367,2.924,14.915,3.452,22.373c0.291,3.726,0.663,7.441,0.659,11.193c0.112,3.742,0.176,7.484-0.039,11.234
						c-0.881,30.009-10.396,59.768-26.594,84.745c-8.011,12.56-17.577,23.994-28.14,34.299c-5.292,5.148-10.858,9.997-16.683,14.533
						c-5.923,4.571-11.669,8.706-18.63,12.712c-4.049,2.331-9.221,0.937-11.552-3.112c-2.302-4-0.972-9.095,2.964-11.465
						L2528.939,1002.749z"/>
				</g>
			</g>
		</g>
		<g>
			<g>
				<path style="fill:#232323;" d="M1519.169,2368.42c-1.715,19.314-5.192,37.803-8.507,56.317
					c-3.295,18.507-7.599,36.669-11.381,54.986c-7.667,36.579-15.491,73.143-22.312,109.982
					c-6.516,36.888-11.567,74.068-15.149,111.397c-3.623,37.323-6.26,74.756-7.584,112.234c-2.682,74.937-0.98,150.08,6.564,224.507
					c7.605,74.331,20.667,148.312,43.862,218.588c11.818,34.965,25.914,69.167,44.385,100.421
					c18.354,31.188,40.968,59.777,68.904,80.682c13.927,10.433,29.124,18.848,45.24,24.651c4.095,1.241,8.142,2.646,12.263,3.79
					c4.192,0.89,8.286,2.146,12.545,2.785l12.781,1.916c4.252,0.561,8.439,0.457,12.659,0.753
					c16.755,0.336,32.946-2.606,46.937-9.707l2.671-1.241c0.848-0.489,1.646-1.066,2.474-1.59l4.949-3.176
					c3.267-2.174,6.104-4.985,9.219-7.4c2.657-3.001,5.659-5.621,8.131-8.839c2.419-3.264,5.112-6.279,7.156-9.907
					c8.854-13.864,15.259-29.972,18.921-46.881c3.54-16.99,5.641-35.093,6.356-53.427c1.873-36.644,0.123-74.135-2.167-111.542
					c-1.165-18.72-2.656-37.485-4.281-56.257c-1.577-18.776-4.099-37.504-6.227-56.285c-2.142-18.782-3.389-37.683-3.755-56.684
					c-0.083-19.028,0.999-38.203,5.684-57.618l0.012-0.053c0.768-3.182,3.969-5.139,7.151-4.371
					c1.899,0.458,3.374,1.815,4.082,3.486c15.225,36.61,19.434,74.064,22.798,111.844c1.422,18.903,2.405,37.865,4.023,56.805
					c1.566,18.944,3.127,37.911,4.297,56.97c2.319,38.115,4.164,76.399,2.194,115.396c-0.793,19.478-2.939,39.127-7.141,59.175
					c-4.391,20.045-11.981,39.748-23.495,57.789c-2.673,4.608-6.198,8.779-9.467,13.072c-3.325,4.26-7.391,8.026-11.104,12.011
					c-4.26,3.49-8.297,7.282-12.875,10.383l-6.987,4.506c-1.174,0.733-2.323,1.513-3.524,2.197l-3.737,1.808
					c-19.829,10.096-41.99,13.834-62.958,13.386c-5.215-0.314-10.536-0.288-15.662-0.946l-15.294-2.286
					c-5.094-0.793-10.105-2.255-15.154-3.377c-4.993-1.377-9.906-3.052-14.852-4.597c-19.524-7.012-37.777-17.166-54.124-29.414
					c-32.816-24.611-57.867-56.795-77.832-90.653c-20.061-33.993-34.918-70.208-47.323-106.893
					c-24.282-73.634-37.605-149.701-45.419-225.856c-7.723-76.226-9.443-152.813-6.713-229.158
					c1.349-38.18,4.032-76.299,7.726-114.321c1.89-19.008,4.059-37.989,6.509-56.939c2.22-18.981,5.078-37.884,7.813-56.812
					c5.646-37.823,12.399-75.6,22.656-112.576c9.869-37.002,22.78-73.519,43.396-106.72c1.686-2.714,5.251-3.548,7.966-1.863
					c1.915,1.189,2.894,3.316,2.711,5.419L1519.169,2368.42z"/>
			</g>
			<g>
				<path style="fill:#232323;" d="M2491.49,2364.73c20.616,33.201,33.528,69.718,43.397,106.72
					c10.256,36.976,17.009,74.752,22.655,112.576c2.734,18.928,5.592,37.831,7.813,56.812c2.45,18.95,4.619,37.931,6.51,56.939
					c3.693,38.022,6.376,76.141,7.725,114.321c2.731,76.345,1.011,152.932-6.713,229.158
					c-7.813,76.155-21.135,152.222-45.419,225.856c-12.404,36.685-27.262,72.9-47.323,106.893
					c-19.963,33.858-45.016,66.042-77.832,90.653c-16.346,12.248-34.6,22.402-54.124,29.414c-4.945,1.545-9.86,3.22-14.851,4.597
					c-5.05,1.122-10.061,2.584-15.154,3.377l-15.295,2.286c-5.125,0.658-10.446,0.632-15.662,0.946
					c-20.967,0.448-43.129-3.29-62.958-13.386l-3.737-1.808c-1.201-0.684-2.35-1.465-3.524-2.197l-6.986-4.506
					c-4.579-3.101-8.615-6.892-12.876-10.383c-3.712-3.985-7.777-7.751-11.102-12.011c-3.27-4.292-6.794-8.464-9.467-13.072
					c-11.515-18.041-19.105-37.743-23.496-57.789c-4.2-20.048-6.348-39.698-7.141-59.175c-1.969-38.998-0.126-77.281,2.194-115.396
					c1.171-19.059,2.732-38.026,4.298-56.97c1.617-18.94,2.6-37.902,4.022-56.805c3.364-37.78,7.574-75.234,22.799-111.844
					c1.256-3.022,4.725-4.453,7.747-3.197c1.804,0.75,3.041,2.288,3.478,4.049l0.021,0.086c4.684,19.415,5.767,38.59,5.682,57.618
					c-0.365,19.001-1.611,37.902-3.755,56.684c-2.126,18.781-4.648,37.509-6.227,56.285c-1.624,18.771-3.116,37.536-4.28,56.257
					c-2.291,37.407-4.041,74.898-2.167,111.542c0.714,18.335,2.815,36.437,6.355,53.427c3.663,16.909,10.067,33.018,18.921,46.881
					c2.045,3.628,4.736,6.643,7.156,9.907c2.472,3.218,5.474,5.838,8.131,8.839c3.115,2.416,5.953,5.226,9.219,7.4l4.95,3.176
					c0.828,0.524,1.625,1.101,2.473,1.59l2.672,1.241c13.99,7.101,30.181,10.043,46.937,9.707c4.22-0.297,8.407-0.192,12.657-0.753
					l12.781-1.916c4.26-0.639,8.353-1.895,12.545-2.785c4.122-1.143,8.169-2.548,12.263-3.79
					c16.117-5.803,31.313-14.219,45.24-24.651c27.937-20.905,50.549-49.494,68.904-80.682
					c18.47-31.254,32.567-65.456,44.385-100.421c23.197-70.276,36.257-144.257,43.862-218.588
					c7.545-74.427,9.247-149.57,6.564-224.507c-1.323-37.478-3.96-74.911-7.584-112.234c-3.582-37.329-8.632-74.509-15.148-111.397
					c-6.823-36.839-14.646-73.403-22.313-109.982c-3.781-18.317-8.085-36.479-11.381-54.986
					c-3.315-18.514-6.792-37.003-8.507-56.317l-0.011-0.127c-0.283-3.182,2.068-5.991,5.249-6.273
					C2488.311,2361.82,2490.374,2362.939,2491.49,2364.73z"/>
			</g>
		</g>
		<g>
			<path style="fill:#FFFFFF;" d="M2781.917,2034.879c-38.529,292.582-265.596,466.294-781.91,466.294
				c-516.315,0-743.382-173.712-781.911-466.294c-5.079-38.631-6.874-79.315-5.591-121.948
				c1.077-38.323,4.668-78.186,10.567-119.587c3.899-27.14,8.723-54.895,14.519-83.265c3.694-18.11,7.541-35.861,11.543-53.305
				c8.312-36.066,17.29-70.746,26.883-104.094c82.547-287.041,211.113-474.041,353.734-584.958
				c18.521-14.416,39.402-26.473,61.512-36.528c36.888-16.776,77.365-28.011,116.613-35.553
				c36.63-7.029,72.234-10.826,102.81-12.877c43.865-2.873,77.52-2.155,89.32-2.155c11.8,0,45.402-0.718,89.318,2.258
				c30.576,2,66.13,5.797,102.76,12.877c39.246,7.541,79.725,18.776,116.612,35.553c22.266,10.055,43.248,22.163,61.872,36.681
				c142.469,110.918,270.88,297.815,353.375,584.702c9.594,33.296,18.572,68.028,26.934,104.094
				c4.002,17.444,7.85,35.194,11.543,53.305c5.798,28.37,10.62,56.125,14.519,83.265c5.848,41.35,9.49,81.213,10.569,119.485v0.051
				C2788.792,1955.564,2786.996,1996.247,2781.917,2034.879z"/>
		</g>
		<g>
			<g>
				<path style="fill:#595959;" d="M1212.505,1912.931c1.077-38.323,4.668-78.186,10.567-119.587
					c98.81-16.109,181.46-18.624,183.614-11.851C1411.765,1797.397,1312.084,1848.187,1212.505,1912.931z"/>
			</g>
			<g>
				<path style="fill:#595959;" d="M1458.349,1618.811c-1.693,15.596-100.144,21.752-209.214,37.964
					c8.312-36.066,17.29-70.746,26.883-104.094C1377.444,1578.384,1459.169,1611.526,1458.349,1618.811z"/>
			</g>
			<g>
				<path style="fill:#595959;" d="M2787.51,1912.829c-99.58-64.642-199.313-115.432-194.234-131.336
					c2.206-6.772,84.855-4.258,183.665,11.851C2782.789,1834.694,2786.431,1874.557,2787.51,1912.829z"/>
			</g>
			<g>
				<path style="fill:#595959;" d="M2750.878,1656.775c-109.07-16.16-207.572-22.367-209.265-37.964
					c-0.769-7.285,80.956-40.427,182.331-66.13C2733.539,1585.977,2742.517,1620.709,2750.878,1656.775z"/>
			</g>
		</g>
		<g>
			<path style="fill:#595959;" d="M2089.325,882.869c-22.676,204.34-65.463,394.047-89.318,394.047
				c-23.857,0-66.643-189.758-89.32-394.149c43.865-2.873,77.52-2.155,89.32-2.155
				C2011.807,880.611,2045.41,879.893,2089.325,882.869z"/>
		</g>
		<g>
			<g>
				<path style="fill:#595959;" d="M2308.698,931.298c-43.813,150.472-109.378,235.789-130.977,235.789
					c-23.189,0-1.334-107.326,14.365-271.342C2231.332,903.287,2271.811,914.522,2308.698,931.298z"/>
			</g>
			<g>
				<path style="fill:#595959;" d="M1822.293,1167.087c-21.598,0-87.215-85.368-131.028-235.892
					c36.888-16.776,77.365-28.011,116.613-35.553C1823.575,1059.71,1845.482,1167.087,1822.293,1167.087z"/>
			</g>
		</g>
		<g>
			<path style="fill:#E5E5E5;" d="M2781.917,2034.879c-38.529,292.582-265.596,466.294-781.91,466.294
				c-516.315,0-743.382-173.712-781.911-466.294c213.37-85.574,485.533-136.825,781.911-136.825
				C2296.384,1898.053,2568.547,1949.305,2781.917,2034.879z"/>
		</g>
		<g style="opacity:0.3;">
			<path style="fill:#232323;" d="M2781.917,2024.879c-38.529,292.582-265.596,466.294-781.91,466.294
				c-516.315,0-743.382-173.712-781.911-466.294c6.413-2.565,12.928-5.13,19.444-7.593
				c71.978,237.02,302.38,374.974,762.467,374.974c460.086,0,690.487-137.954,762.466-374.974
				C2768.989,2019.748,2775.504,2022.314,2781.917,2024.879z"/>
		</g>
		<g>
			<path style="fill:#232323;" d="M1999.998,2518.11c-342.561,0-569.824-74.395-694.771-227.437
				c-109.536-134.165-137.092-325.186-84.243-583.982c70.281-344.172,208.032-604.324,398.364-752.329
				c54.199-42.151,163.057-92.188,374.81-90.693l5.84,0.029l5.771-0.029c211.86-1.169,320.928,48.694,375.193,90.938
				c190.166,148.045,327.808,408.11,398.049,752.085c52.849,258.796,25.293,449.817-84.243,583.982
				C2569.823,2443.715,2342.559,2518.11,1999.998,2518.11z M1985.365,897.494c-196.221,0-295.972,45.283-345.234,83.591
				c-183.865,142.979-317.334,396.23-385.977,732.378c-50.686,248.205-25.4,430.007,77.297,555.798
				c118.11,144.668,336.794,214.99,668.547,214.99s550.437-70.322,668.547-214.99c102.698-125.791,127.983-307.593,77.297-555.798
				c-68.604-335.955-201.968-589.126-385.676-732.144c-50.037-38.953-152.273-85.293-354.175-83.796l-5.994,0.027l-6.064-0.029
				C1991.063,897.502,1988.197,897.494,1985.365,897.494z"/>
		</g>
		<g>
			<g>
				
					<ellipse transform="matrix(0.7974 -0.6034 0.6034 0.7974 -780.8809 1671.298)" style="fill:#232323;" cx="2098.845" cy="1998.718" rx="35.956" ry="18.595"/>
			</g>
			<g>
				
					<ellipse transform="matrix(0.6034 -0.7974 0.7974 0.6034 -827.7849 2333.0313)" style="fill:#232323;" cx="1931.59" cy="1998.718" rx="18.595" ry="35.956"/>
			</g>
		</g>
		<g>
			<path style="fill:#232323;" d="M1891.27,2086.373c13.239,16.297,28.851,28.968,46.121,37.854
				c17.25,8.853,35.978,13.902,54.88,14.82c18.925,0.873,37.888-2.201,56.412-8.661c18.679-6.315,36.523-16.299,55.485-27.665
				l0.527-0.316c5.439-3.26,12.491-1.494,15.752,3.946c2.31,3.852,2.087,8.522-0.164,12.073c-13.11,20.579-32.183,37.984-55,49.902
				c-22.819,11.854-49.581,17.503-75.851,15.41c-26.262-1.917-51.927-11.184-72.927-26.526
				c-20.997-15.221-37.512-36.6-45.233-60.523c-1.934-5.991,1.356-12.414,7.346-14.347c4.598-1.484,9.451,0.109,12.333,3.638
				L1891.27,2086.373z"/>
		</g>
		<g>
			
				<ellipse transform="matrix(0.2468 -0.9691 0.9691 0.2468 -37.0497 3896.0598)" style="fill:#FF9F9F;" cx="2487.911" cy="1971.865" rx="70.591" ry="111.954"/>
		</g>
		<g>
			
				<ellipse transform="matrix(0.9691 -0.2468 0.2468 0.9691 -440.0737 433.2284)" style="fill:#FF9F9F;" cx="1507.911" cy="1971.865" rx="111.954" ry="70.591"/>
		</g>
		<g>
			<g>
				<path style="fill:#595959;" d="M2241.766,1371.069c-11.134-20.678,32.541-68.258,97.778-73.031
					c74.239-5.432,151.266,62.746,145.772,88.535c-4.99,23.427-65.498,8.639-128.571,7.13
					C2299.409,1392.332,2254.441,1394.609,2241.766,1371.069z"/>
			</g>
			<g>
				<path style="fill:#595959;" d="M1758.229,1371.069c11.134-20.678-32.541-68.258-97.778-73.031
					c-74.239-5.432-151.266,62.746-145.772,88.535c4.99,23.427,65.498,8.639,128.571,7.13
					C1700.587,1392.332,1745.555,1394.609,1758.229,1371.069z"/>
			</g>
		</g>
		<g>
			<g>
				
					<ellipse transform="matrix(0.1468 -0.9892 0.9892 0.1468 -228.7454 3066.0125)" style="fill:#232323;" cx="1662.933" cy="1665.605" rx="196.618" ry="145.76"/>
			</g>
			<g>
				
					<ellipse transform="matrix(0.1371 -0.9906 0.9906 0.1371 -136.298 3113.7937)" style="fill:#FFFFFF;" cx="1719.156" cy="1635.131" rx="67.831" ry="39.067"/>
			</g>
			<g>
				
					<ellipse transform="matrix(0.1934 -0.9811 0.9811 0.1934 -394.4247 2931.7563)" style="fill:#FFFFFF;" cx="1585.809" cy="1705.757" rx="33.905" ry="19.54"/>
			</g>
		</g>
		<g>
			<g>
				
					<ellipse transform="matrix(0.9892 -0.1468 0.1468 0.9892 -219.3462 359.0544)" style="fill:#232323;" cx="2322.934" cy="1665.605" rx="145.76" ry="196.618"/>
			</g>
			<g>
				
					<ellipse transform="matrix(0.9906 -0.1371 0.1371 0.9906 -202.8314 326.3176)" style="fill:#FFFFFF;" cx="2266.711" cy="1635.131" rx="39.067" ry="67.832"/>
			</g>
			<g>
				
					<ellipse transform="matrix(0.9811 -0.1934 0.1934 0.9811 -284.5607 496.3324)" style="fill:#FFFFFF;" cx="2400.058" cy="1705.757" rx="19.54" ry="33.905"/>
			</g>
		</g>
	</g>
</g>
</svg>
